<?xml version="1.0" encoding="utf-8" standalone="no"?>
<!DOCTYPE svg PUBLIC "-//W3C//DTD SVG 1.1//EN"
  "http://www.w3.org/Graphics/SVG/1.1/DTD/svg11.dtd">
<svg xmlns:xlink="http://www.w3.org/1999/xlink" width="545.57625pt" height="364.76625pt" viewBox="0 0 545.57625 364.76625" xmlns="http://www.w3.org/2000/svg" version="1.1">
 <metadata>
  <rdf:RDF xmlns:dc="http://purl.org/dc/elements/1.1/" xmlns:cc="http://creativecommons.org/ns#" xmlns:rdf="http://www.w3.org/1999/02/22-rdf-syntax-ns#">
   <cc:Work>
    <dc:type rdf:resource="http://purl.org/dc/dcmitype/StillImage"/>
    <dc:date>2024-12-11T12:09:36.759583</dc:date>
    <dc:format>image/svg+xml</dc:format>
    <dc:creator>
     <cc:Agent>
      <dc:title>Matplotlib v3.5.3, https://matplotlib.org/</dc:title>
     </cc:Agent>
    </dc:creator>
   </cc:Work>
  </rdf:RDF>
 </metadata>
 <defs>
  <style type="text/css">*{stroke-linejoin: round; stroke-linecap: butt}</style>
 </defs>
 <g id="figure_1">
  <g id="patch_1">
   <path d="M 0 364.76625 
L 545.57625 364.76625 
L 545.57625 0 
L 0 0 
z
" style="fill: #ffffff"/>
  </g>
  <g id="axes_1">
   <g id="patch_2">
    <path d="M 36.17625 294.118125 
L 538.37625 294.118125 
L 538.37625 22.318125 
L 36.17625 22.318125 
z
" style="fill: #ffffff"/>
   </g>
   <g id="matplotlib.axis_1">
    <g id="xtick_1">
     <g id="line2d_1">
      <defs>
       <path id="md604c88878" d="M 0 0 
L 0 3.5 
" style="stroke: #000000; stroke-width: 0.8"/>
      </defs>
      <g>
       <use xlink:href="#md604c88878" x="59.003523" y="294.118125" style="stroke: #000000; stroke-width: 0.8"/>
      </g>
     </g>
     <g id="text_1">
      <!-- 08:43:41.826 -->
      <g transform="translate(25.41446 308.716563)scale(0.1 -0.1)">
       <defs>
        <path id="DejaVuSans-30" d="M 2034 4250 
Q 1547 4250 1301 3770 
Q 1056 3291 1056 2328 
Q 1056 1369 1301 889 
Q 1547 409 2034 409 
Q 2525 409 2770 889 
Q 3016 1369 3016 2328 
Q 3016 3291 2770 3770 
Q 2525 4250 2034 4250 
z
M 2034 4750 
Q 2819 4750 3233 4129 
Q 3647 3509 3647 2328 
Q 3647 1150 3233 529 
Q 2819 -91 2034 -91 
Q 1250 -91 836 529 
Q 422 1150 422 2328 
Q 422 3509 836 4129 
Q 1250 4750 2034 4750 
z
" transform="scale(0.015625)"/>
        <path id="DejaVuSans-38" d="M 2034 2216 
Q 1584 2216 1326 1975 
Q 1069 1734 1069 1313 
Q 1069 891 1326 650 
Q 1584 409 2034 409 
Q 2484 409 2743 651 
Q 3003 894 3003 1313 
Q 3003 1734 2745 1975 
Q 2488 2216 2034 2216 
z
M 1403 2484 
Q 997 2584 770 2862 
Q 544 3141 544 3541 
Q 544 4100 942 4425 
Q 1341 4750 2034 4750 
Q 2731 4750 3128 4425 
Q 3525 4100 3525 3541 
Q 3525 3141 3298 2862 
Q 3072 2584 2669 2484 
Q 3125 2378 3379 2068 
Q 3634 1759 3634 1313 
Q 3634 634 3220 271 
Q 2806 -91 2034 -91 
Q 1263 -91 848 271 
Q 434 634 434 1313 
Q 434 1759 690 2068 
Q 947 2378 1403 2484 
z
M 1172 3481 
Q 1172 3119 1398 2916 
Q 1625 2713 2034 2713 
Q 2441 2713 2670 2916 
Q 2900 3119 2900 3481 
Q 2900 3844 2670 4047 
Q 2441 4250 2034 4250 
Q 1625 4250 1398 4047 
Q 1172 3844 1172 3481 
z
" transform="scale(0.015625)"/>
        <path id="DejaVuSans-3a" d="M 750 794 
L 1409 794 
L 1409 0 
L 750 0 
L 750 794 
z
M 750 3309 
L 1409 3309 
L 1409 2516 
L 750 2516 
L 750 3309 
z
" transform="scale(0.015625)"/>
        <path id="DejaVuSans-34" d="M 2419 4116 
L 825 1625 
L 2419 1625 
L 2419 4116 
z
M 2253 4666 
L 3047 4666 
L 3047 1625 
L 3713 1625 
L 3713 1100 
L 3047 1100 
L 3047 0 
L 2419 0 
L 2419 1100 
L 313 1100 
L 313 1709 
L 2253 4666 
z
" transform="scale(0.015625)"/>
        <path id="DejaVuSans-33" d="M 2597 2516 
Q 3050 2419 3304 2112 
Q 3559 1806 3559 1356 
Q 3559 666 3084 287 
Q 2609 -91 1734 -91 
Q 1441 -91 1130 -33 
Q 819 25 488 141 
L 488 750 
Q 750 597 1062 519 
Q 1375 441 1716 441 
Q 2309 441 2620 675 
Q 2931 909 2931 1356 
Q 2931 1769 2642 2001 
Q 2353 2234 1838 2234 
L 1294 2234 
L 1294 2753 
L 1863 2753 
Q 2328 2753 2575 2939 
Q 2822 3125 2822 3475 
Q 2822 3834 2567 4026 
Q 2313 4219 1838 4219 
Q 1578 4219 1281 4162 
Q 984 4106 628 3988 
L 628 4550 
Q 988 4650 1302 4700 
Q 1616 4750 1894 4750 
Q 2613 4750 3031 4423 
Q 3450 4097 3450 3541 
Q 3450 3153 3228 2886 
Q 3006 2619 2597 2516 
z
" transform="scale(0.015625)"/>
        <path id="DejaVuSans-31" d="M 794 531 
L 1825 531 
L 1825 4091 
L 703 3866 
L 703 4441 
L 1819 4666 
L 2450 4666 
L 2450 531 
L 3481 531 
L 3481 0 
L 794 0 
L 794 531 
z
" transform="scale(0.015625)"/>
        <path id="DejaVuSans-2e" d="M 684 794 
L 1344 794 
L 1344 0 
L 684 0 
L 684 794 
z
" transform="scale(0.015625)"/>
        <path id="DejaVuSans-32" d="M 1228 531 
L 3431 531 
L 3431 0 
L 469 0 
L 469 531 
Q 828 903 1448 1529 
Q 2069 2156 2228 2338 
Q 2531 2678 2651 2914 
Q 2772 3150 2772 3378 
Q 2772 3750 2511 3984 
Q 2250 4219 1831 4219 
Q 1534 4219 1204 4116 
Q 875 4013 500 3803 
L 500 4441 
Q 881 4594 1212 4672 
Q 1544 4750 1819 4750 
Q 2544 4750 2975 4387 
Q 3406 4025 3406 3419 
Q 3406 3131 3298 2873 
Q 3191 2616 2906 2266 
Q 2828 2175 2409 1742 
Q 1991 1309 1228 531 
z
" transform="scale(0.015625)"/>
        <path id="DejaVuSans-36" d="M 2113 2584 
Q 1688 2584 1439 2293 
Q 1191 2003 1191 1497 
Q 1191 994 1439 701 
Q 1688 409 2113 409 
Q 2538 409 2786 701 
Q 3034 994 3034 1497 
Q 3034 2003 2786 2293 
Q 2538 2584 2113 2584 
z
M 3366 4563 
L 3366 3988 
Q 3128 4100 2886 4159 
Q 2644 4219 2406 4219 
Q 1781 4219 1451 3797 
Q 1122 3375 1075 2522 
Q 1259 2794 1537 2939 
Q 1816 3084 2150 3084 
Q 2853 3084 3261 2657 
Q 3669 2231 3669 1497 
Q 3669 778 3244 343 
Q 2819 -91 2113 -91 
Q 1303 -91 875 529 
Q 447 1150 447 2328 
Q 447 3434 972 4092 
Q 1497 4750 2381 4750 
Q 2619 4750 2861 4703 
Q 3103 4656 3366 4563 
z
" transform="scale(0.015625)"/>
       </defs>
       <use xlink:href="#DejaVuSans-30"/>
       <use xlink:href="#DejaVuSans-38" x="63.623047"/>
       <use xlink:href="#DejaVuSans-3a" x="127.246094"/>
       <use xlink:href="#DejaVuSans-34" x="160.9375"/>
       <use xlink:href="#DejaVuSans-33" x="224.560547"/>
       <use xlink:href="#DejaVuSans-3a" x="288.183594"/>
       <use xlink:href="#DejaVuSans-34" x="321.875"/>
       <use xlink:href="#DejaVuSans-31" x="385.498047"/>
       <use xlink:href="#DejaVuSans-2e" x="449.121094"/>
       <use xlink:href="#DejaVuSans-38" x="480.908203"/>
       <use xlink:href="#DejaVuSans-32" x="544.53125"/>
       <use xlink:href="#DejaVuSans-36" x="608.154297"/>
      </g>
     </g>
    </g>
    <g id="xtick_2">
     <g id="line2d_2">
      <g>
       <use xlink:href="#md604c88878" x="224.019952" y="294.118125" style="stroke: #000000; stroke-width: 0.8"/>
      </g>
     </g>
     <g id="text_2">
      <!-- 09:48:05.196 -->
      <g transform="translate(190.43089 308.716563)scale(0.1 -0.1)">
       <defs>
        <path id="DejaVuSans-39" d="M 703 97 
L 703 672 
Q 941 559 1184 500 
Q 1428 441 1663 441 
Q 2288 441 2617 861 
Q 2947 1281 2994 2138 
Q 2813 1869 2534 1725 
Q 2256 1581 1919 1581 
Q 1219 1581 811 2004 
Q 403 2428 403 3163 
Q 403 3881 828 4315 
Q 1253 4750 1959 4750 
Q 2769 4750 3195 4129 
Q 3622 3509 3622 2328 
Q 3622 1225 3098 567 
Q 2575 -91 1691 -91 
Q 1453 -91 1209 -44 
Q 966 3 703 97 
z
M 1959 2075 
Q 2384 2075 2632 2365 
Q 2881 2656 2881 3163 
Q 2881 3666 2632 3958 
Q 2384 4250 1959 4250 
Q 1534 4250 1286 3958 
Q 1038 3666 1038 3163 
Q 1038 2656 1286 2365 
Q 1534 2075 1959 2075 
z
" transform="scale(0.015625)"/>
        <path id="DejaVuSans-35" d="M 691 4666 
L 3169 4666 
L 3169 4134 
L 1269 4134 
L 1269 2991 
Q 1406 3038 1543 3061 
Q 1681 3084 1819 3084 
Q 2600 3084 3056 2656 
Q 3513 2228 3513 1497 
Q 3513 744 3044 326 
Q 2575 -91 1722 -91 
Q 1428 -91 1123 -41 
Q 819 9 494 109 
L 494 744 
Q 775 591 1075 516 
Q 1375 441 1709 441 
Q 2250 441 2565 725 
Q 2881 1009 2881 1497 
Q 2881 1984 2565 2268 
Q 2250 2553 1709 2553 
Q 1456 2553 1204 2497 
Q 953 2441 691 2322 
L 691 4666 
z
" transform="scale(0.015625)"/>
       </defs>
       <use xlink:href="#DejaVuSans-30"/>
       <use xlink:href="#DejaVuSans-39" x="63.623047"/>
       <use xlink:href="#DejaVuSans-3a" x="127.246094"/>
       <use xlink:href="#DejaVuSans-34" x="160.9375"/>
       <use xlink:href="#DejaVuSans-38" x="224.560547"/>
       <use xlink:href="#DejaVuSans-3a" x="288.183594"/>
       <use xlink:href="#DejaVuSans-30" x="321.875"/>
       <use xlink:href="#DejaVuSans-35" x="385.498047"/>
       <use xlink:href="#DejaVuSans-2e" x="449.121094"/>
       <use xlink:href="#DejaVuSans-31" x="480.908203"/>
       <use xlink:href="#DejaVuSans-39" x="544.53125"/>
       <use xlink:href="#DejaVuSans-36" x="608.154297"/>
      </g>
     </g>
    </g>
    <g id="xtick_3">
     <g id="line2d_3">
      <g>
       <use xlink:href="#md604c88878" x="389.036381" y="294.118125" style="stroke: #000000; stroke-width: 0.8"/>
      </g>
     </g>
     <g id="text_3">
      <!-- 10:31:44.216 -->
      <g transform="translate(355.447319 308.716563)scale(0.1 -0.1)">
       <use xlink:href="#DejaVuSans-31"/>
       <use xlink:href="#DejaVuSans-30" x="63.623047"/>
       <use xlink:href="#DejaVuSans-3a" x="127.246094"/>
       <use xlink:href="#DejaVuSans-33" x="160.9375"/>
       <use xlink:href="#DejaVuSans-31" x="224.560547"/>
       <use xlink:href="#DejaVuSans-3a" x="288.183594"/>
       <use xlink:href="#DejaVuSans-34" x="321.875"/>
       <use xlink:href="#DejaVuSans-34" x="385.498047"/>
       <use xlink:href="#DejaVuSans-2e" x="449.121094"/>
       <use xlink:href="#DejaVuSans-32" x="480.908203"/>
       <use xlink:href="#DejaVuSans-31" x="544.53125"/>
       <use xlink:href="#DejaVuSans-36" x="608.154297"/>
      </g>
     </g>
    </g>
    <g id="text_4">
     <!-- Time -->
     <g transform="translate(270.804375 323.914375)scale(0.12 -0.12)">
      <defs>
       <path id="DejaVuSans-Bold-54" d="M 31 4666 
L 4331 4666 
L 4331 3756 
L 2784 3756 
L 2784 0 
L 1581 0 
L 1581 3756 
L 31 3756 
L 31 4666 
z
" transform="scale(0.015625)"/>
       <path id="DejaVuSans-Bold-69" d="M 538 3500 
L 1656 3500 
L 1656 0 
L 538 0 
L 538 3500 
z
M 538 4863 
L 1656 4863 
L 1656 3950 
L 538 3950 
L 538 4863 
z
" transform="scale(0.015625)"/>
       <path id="DejaVuSans-Bold-6d" d="M 3781 2919 
Q 3994 3244 4286 3414 
Q 4578 3584 4928 3584 
Q 5531 3584 5847 3212 
Q 6163 2841 6163 2131 
L 6163 0 
L 5038 0 
L 5038 1825 
Q 5041 1866 5042 1909 
Q 5044 1953 5044 2034 
Q 5044 2406 4934 2573 
Q 4825 2741 4581 2741 
Q 4263 2741 4089 2478 
Q 3916 2216 3909 1719 
L 3909 0 
L 2784 0 
L 2784 1825 
Q 2784 2406 2684 2573 
Q 2584 2741 2328 2741 
Q 2006 2741 1831 2477 
Q 1656 2213 1656 1722 
L 1656 0 
L 531 0 
L 531 3500 
L 1656 3500 
L 1656 2988 
Q 1863 3284 2130 3434 
Q 2397 3584 2719 3584 
Q 3081 3584 3359 3409 
Q 3638 3234 3781 2919 
z
" transform="scale(0.015625)"/>
       <path id="DejaVuSans-Bold-65" d="M 4031 1759 
L 4031 1441 
L 1416 1441 
Q 1456 1047 1700 850 
Q 1944 653 2381 653 
Q 2734 653 3104 758 
Q 3475 863 3866 1075 
L 3866 213 
Q 3469 63 3072 -14 
Q 2675 -91 2278 -91 
Q 1328 -91 801 392 
Q 275 875 275 1747 
Q 275 2603 792 3093 
Q 1309 3584 2216 3584 
Q 3041 3584 3536 3087 
Q 4031 2591 4031 1759 
z
M 2881 2131 
Q 2881 2450 2695 2645 
Q 2509 2841 2209 2841 
Q 1884 2841 1681 2658 
Q 1478 2475 1428 2131 
L 2881 2131 
z
" transform="scale(0.015625)"/>
      </defs>
      <use xlink:href="#DejaVuSans-Bold-54"/>
      <use xlink:href="#DejaVuSans-Bold-69" x="68.212891"/>
      <use xlink:href="#DejaVuSans-Bold-6d" x="102.490234"/>
      <use xlink:href="#DejaVuSans-Bold-65" x="206.689453"/>
     </g>
    </g>
   </g>
   <g id="matplotlib.axis_2">
    <g id="ytick_1">
     <g id="line2d_4">
      <defs>
       <path id="meb1e7826ea" d="M 0 0 
L -3.5 0 
" style="stroke: #000000; stroke-width: 0.8"/>
      </defs>
      <g>
       <use xlink:href="#meb1e7826ea" x="36.17625" y="284.882172" style="stroke: #000000; stroke-width: 0.8"/>
      </g>
     </g>
     <g id="text_5">
      <!-- 0 -->
      <g transform="translate(22.81375 288.68139)scale(0.1 -0.1)">
       <use xlink:href="#DejaVuSans-30"/>
      </g>
     </g>
    </g>
    <g id="ytick_2">
     <g id="line2d_5">
      <g>
       <use xlink:href="#meb1e7826ea" x="36.17625" y="247.377935" style="stroke: #000000; stroke-width: 0.8"/>
      </g>
     </g>
     <g id="text_6">
      <!-- 1 -->
      <g transform="translate(22.81375 251.177154)scale(0.1 -0.1)">
       <use xlink:href="#DejaVuSans-31"/>
      </g>
     </g>
    </g>
    <g id="ytick_3">
     <g id="line2d_6">
      <g>
       <use xlink:href="#meb1e7826ea" x="36.17625" y="209.873699" style="stroke: #000000; stroke-width: 0.8"/>
      </g>
     </g>
     <g id="text_7">
      <!-- 2 -->
      <g transform="translate(22.81375 213.672918)scale(0.1 -0.1)">
       <use xlink:href="#DejaVuSans-32"/>
      </g>
     </g>
    </g>
    <g id="ytick_4">
     <g id="line2d_7">
      <g>
       <use xlink:href="#meb1e7826ea" x="36.17625" y="172.369463" style="stroke: #000000; stroke-width: 0.8"/>
      </g>
     </g>
     <g id="text_8">
      <!-- 3 -->
      <g transform="translate(22.81375 176.168682)scale(0.1 -0.1)">
       <use xlink:href="#DejaVuSans-33"/>
      </g>
     </g>
    </g>
    <g id="ytick_5">
     <g id="line2d_8">
      <g>
       <use xlink:href="#meb1e7826ea" x="36.17625" y="134.865227" style="stroke: #000000; stroke-width: 0.8"/>
      </g>
     </g>
     <g id="text_9">
      <!-- 4 -->
      <g transform="translate(22.81375 138.664445)scale(0.1 -0.1)">
       <use xlink:href="#DejaVuSans-34"/>
      </g>
     </g>
    </g>
    <g id="ytick_6">
     <g id="line2d_9">
      <g>
       <use xlink:href="#meb1e7826ea" x="36.17625" y="97.36099" style="stroke: #000000; stroke-width: 0.8"/>
      </g>
     </g>
     <g id="text_10">
      <!-- 5 -->
      <g transform="translate(22.81375 101.160209)scale(0.1 -0.1)">
       <use xlink:href="#DejaVuSans-35"/>
      </g>
     </g>
    </g>
    <g id="ytick_7">
     <g id="line2d_10">
      <g>
       <use xlink:href="#meb1e7826ea" x="36.17625" y="59.856754" style="stroke: #000000; stroke-width: 0.8"/>
      </g>
     </g>
     <g id="text_11">
      <!-- 6 -->
      <g transform="translate(22.81375 63.655973)scale(0.1 -0.1)">
       <use xlink:href="#DejaVuSans-36"/>
      </g>
     </g>
    </g>
    <g id="ytick_8">
     <g id="line2d_11">
      <g>
       <use xlink:href="#meb1e7826ea" x="36.17625" y="22.352518" style="stroke: #000000; stroke-width: 0.8"/>
      </g>
     </g>
     <g id="text_12">
      <!-- 7 -->
      <g transform="translate(22.81375 26.151737)scale(0.1 -0.1)">
       <defs>
        <path id="DejaVuSans-37" d="M 525 4666 
L 3525 4666 
L 3525 4397 
L 1831 0 
L 1172 0 
L 2766 4134 
L 525 4134 
L 525 4666 
z
" transform="scale(0.015625)"/>
       </defs>
       <use xlink:href="#DejaVuSans-37"/>
      </g>
     </g>
    </g>
    <g id="text_13">
     <!-- Radiation Dose Rate (Sv/h) -->
     <g transform="translate(16.318125 249.402187)rotate(-90)scale(0.12 -0.12)">
      <defs>
       <path id="DejaVuSans-Bold-52" d="M 2297 2597 
Q 2675 2597 2839 2737 
Q 3003 2878 3003 3200 
Q 3003 3519 2839 3656 
Q 2675 3794 2297 3794 
L 1791 3794 
L 1791 2597 
L 2297 2597 
z
M 1791 1766 
L 1791 0 
L 588 0 
L 588 4666 
L 2425 4666 
Q 3347 4666 3776 4356 
Q 4206 4047 4206 3378 
Q 4206 2916 3982 2619 
Q 3759 2322 3309 2181 
Q 3556 2125 3751 1926 
Q 3947 1728 4147 1325 
L 4800 0 
L 3519 0 
L 2950 1159 
Q 2778 1509 2601 1637 
Q 2425 1766 2131 1766 
L 1791 1766 
z
" transform="scale(0.015625)"/>
       <path id="DejaVuSans-Bold-61" d="M 2106 1575 
Q 1756 1575 1579 1456 
Q 1403 1338 1403 1106 
Q 1403 894 1545 773 
Q 1688 653 1941 653 
Q 2256 653 2472 879 
Q 2688 1106 2688 1447 
L 2688 1575 
L 2106 1575 
z
M 3816 1997 
L 3816 0 
L 2688 0 
L 2688 519 
Q 2463 200 2181 54 
Q 1900 -91 1497 -91 
Q 953 -91 614 226 
Q 275 544 275 1050 
Q 275 1666 698 1953 
Q 1122 2241 2028 2241 
L 2688 2241 
L 2688 2328 
Q 2688 2594 2478 2717 
Q 2269 2841 1825 2841 
Q 1466 2841 1156 2769 
Q 847 2697 581 2553 
L 581 3406 
Q 941 3494 1303 3539 
Q 1666 3584 2028 3584 
Q 2975 3584 3395 3211 
Q 3816 2838 3816 1997 
z
" transform="scale(0.015625)"/>
       <path id="DejaVuSans-Bold-64" d="M 2919 2988 
L 2919 4863 
L 4044 4863 
L 4044 0 
L 2919 0 
L 2919 506 
Q 2688 197 2409 53 
Q 2131 -91 1766 -91 
Q 1119 -91 703 423 
Q 288 938 288 1747 
Q 288 2556 703 3070 
Q 1119 3584 1766 3584 
Q 2128 3584 2408 3439 
Q 2688 3294 2919 2988 
z
M 2181 722 
Q 2541 722 2730 984 
Q 2919 1247 2919 1747 
Q 2919 2247 2730 2509 
Q 2541 2772 2181 2772 
Q 1825 2772 1636 2509 
Q 1447 2247 1447 1747 
Q 1447 1247 1636 984 
Q 1825 722 2181 722 
z
" transform="scale(0.015625)"/>
       <path id="DejaVuSans-Bold-74" d="M 1759 4494 
L 1759 3500 
L 2913 3500 
L 2913 2700 
L 1759 2700 
L 1759 1216 
Q 1759 972 1856 886 
Q 1953 800 2241 800 
L 2816 800 
L 2816 0 
L 1856 0 
Q 1194 0 917 276 
Q 641 553 641 1216 
L 641 2700 
L 84 2700 
L 84 3500 
L 641 3500 
L 641 4494 
L 1759 4494 
z
" transform="scale(0.015625)"/>
       <path id="DejaVuSans-Bold-6f" d="M 2203 2784 
Q 1831 2784 1636 2517 
Q 1441 2250 1441 1747 
Q 1441 1244 1636 976 
Q 1831 709 2203 709 
Q 2569 709 2762 976 
Q 2956 1244 2956 1747 
Q 2956 2250 2762 2517 
Q 2569 2784 2203 2784 
z
M 2203 3584 
Q 3106 3584 3614 3096 
Q 4122 2609 4122 1747 
Q 4122 884 3614 396 
Q 3106 -91 2203 -91 
Q 1297 -91 786 396 
Q 275 884 275 1747 
Q 275 2609 786 3096 
Q 1297 3584 2203 3584 
z
" transform="scale(0.015625)"/>
       <path id="DejaVuSans-Bold-6e" d="M 4056 2131 
L 4056 0 
L 2931 0 
L 2931 347 
L 2931 1631 
Q 2931 2084 2911 2256 
Q 2891 2428 2841 2509 
Q 2775 2619 2662 2680 
Q 2550 2741 2406 2741 
Q 2056 2741 1856 2470 
Q 1656 2200 1656 1722 
L 1656 0 
L 538 0 
L 538 3500 
L 1656 3500 
L 1656 2988 
Q 1909 3294 2193 3439 
Q 2478 3584 2822 3584 
Q 3428 3584 3742 3212 
Q 4056 2841 4056 2131 
z
" transform="scale(0.015625)"/>
       <path id="DejaVuSans-Bold-20" transform="scale(0.015625)"/>
       <path id="DejaVuSans-Bold-44" d="M 1791 3756 
L 1791 909 
L 2222 909 
Q 2959 909 3348 1275 
Q 3738 1641 3738 2338 
Q 3738 3031 3350 3393 
Q 2963 3756 2222 3756 
L 1791 3756 
z
M 588 4666 
L 1856 4666 
Q 2919 4666 3439 4514 
Q 3959 4363 4331 4000 
Q 4659 3684 4818 3271 
Q 4978 2859 4978 2338 
Q 4978 1809 4818 1395 
Q 4659 981 4331 666 
Q 3956 303 3431 151 
Q 2906 0 1856 0 
L 588 0 
L 588 4666 
z
" transform="scale(0.015625)"/>
       <path id="DejaVuSans-Bold-73" d="M 3272 3391 
L 3272 2541 
Q 2913 2691 2578 2766 
Q 2244 2841 1947 2841 
Q 1628 2841 1473 2761 
Q 1319 2681 1319 2516 
Q 1319 2381 1436 2309 
Q 1553 2238 1856 2203 
L 2053 2175 
Q 2913 2066 3209 1816 
Q 3506 1566 3506 1031 
Q 3506 472 3093 190 
Q 2681 -91 1863 -91 
Q 1516 -91 1145 -36 
Q 775 19 384 128 
L 384 978 
Q 719 816 1070 734 
Q 1422 653 1784 653 
Q 2113 653 2278 743 
Q 2444 834 2444 1013 
Q 2444 1163 2330 1236 
Q 2216 1309 1875 1350 
L 1678 1375 
Q 931 1469 631 1722 
Q 331 1975 331 2491 
Q 331 3047 712 3315 
Q 1094 3584 1881 3584 
Q 2191 3584 2531 3537 
Q 2872 3491 3272 3391 
z
" transform="scale(0.015625)"/>
       <path id="DejaVuSans-Bold-28" d="M 2413 -844 
L 1484 -844 
Q 1006 -72 778 623 
Q 550 1319 550 2003 
Q 550 2688 779 3389 
Q 1009 4091 1484 4856 
L 2413 4856 
Q 2013 4116 1813 3408 
Q 1613 2700 1613 2009 
Q 1613 1319 1811 609 
Q 2009 -100 2413 -844 
z
" transform="scale(0.015625)"/>
       <path id="DejaVuSans-Bold-53" d="M 3834 4519 
L 3834 3531 
Q 3450 3703 3084 3790 
Q 2719 3878 2394 3878 
Q 1963 3878 1756 3759 
Q 1550 3641 1550 3391 
Q 1550 3203 1689 3098 
Q 1828 2994 2194 2919 
L 2706 2816 
Q 3484 2659 3812 2340 
Q 4141 2022 4141 1434 
Q 4141 663 3683 286 
Q 3225 -91 2284 -91 
Q 1841 -91 1394 -6 
Q 947 78 500 244 
L 500 1259 
Q 947 1022 1364 901 
Q 1781 781 2169 781 
Q 2563 781 2772 912 
Q 2981 1044 2981 1288 
Q 2981 1506 2839 1625 
Q 2697 1744 2272 1838 
L 1806 1941 
Q 1106 2091 782 2419 
Q 459 2747 459 3303 
Q 459 4000 909 4375 
Q 1359 4750 2203 4750 
Q 2588 4750 2994 4692 
Q 3400 4634 3834 4519 
z
" transform="scale(0.015625)"/>
       <path id="DejaVuSans-Bold-76" d="M 97 3500 
L 1216 3500 
L 2088 1081 
L 2956 3500 
L 4078 3500 
L 2700 0 
L 1472 0 
L 97 3500 
z
" transform="scale(0.015625)"/>
       <path id="DejaVuSans-Bold-2f" d="M 1644 4666 
L 2338 4666 
L 691 -594 
L 0 -594 
L 1644 4666 
z
" transform="scale(0.015625)"/>
       <path id="DejaVuSans-Bold-68" d="M 4056 2131 
L 4056 0 
L 2931 0 
L 2931 347 
L 2931 1625 
Q 2931 2084 2911 2256 
Q 2891 2428 2841 2509 
Q 2775 2619 2662 2680 
Q 2550 2741 2406 2741 
Q 2056 2741 1856 2470 
Q 1656 2200 1656 1722 
L 1656 0 
L 538 0 
L 538 4863 
L 1656 4863 
L 1656 2988 
Q 1909 3294 2193 3439 
Q 2478 3584 2822 3584 
Q 3428 3584 3742 3212 
Q 4056 2841 4056 2131 
z
" transform="scale(0.015625)"/>
       <path id="DejaVuSans-Bold-29" d="M 513 -844 
Q 913 -100 1113 609 
Q 1313 1319 1313 2009 
Q 1313 2700 1113 3408 
Q 913 4116 513 4856 
L 1441 4856 
Q 1916 4091 2145 3389 
Q 2375 2688 2375 2003 
Q 2375 1319 2147 623 
Q 1919 -72 1441 -844 
L 513 -844 
z
" transform="scale(0.015625)"/>
      </defs>
      <use xlink:href="#DejaVuSans-Bold-52"/>
      <use xlink:href="#DejaVuSans-Bold-61" x="77.001953"/>
      <use xlink:href="#DejaVuSans-Bold-64" x="144.482422"/>
      <use xlink:href="#DejaVuSans-Bold-69" x="216.064453"/>
      <use xlink:href="#DejaVuSans-Bold-61" x="250.341797"/>
      <use xlink:href="#DejaVuSans-Bold-74" x="317.822266"/>
      <use xlink:href="#DejaVuSans-Bold-69" x="365.625"/>
      <use xlink:href="#DejaVuSans-Bold-6f" x="399.902344"/>
      <use xlink:href="#DejaVuSans-Bold-6e" x="468.603516"/>
      <use xlink:href="#DejaVuSans-Bold-20" x="539.794922"/>
      <use xlink:href="#DejaVuSans-Bold-44" x="574.609375"/>
      <use xlink:href="#DejaVuSans-Bold-6f" x="657.617188"/>
      <use xlink:href="#DejaVuSans-Bold-73" x="726.318359"/>
      <use xlink:href="#DejaVuSans-Bold-65" x="785.839844"/>
      <use xlink:href="#DejaVuSans-Bold-20" x="853.662109"/>
      <use xlink:href="#DejaVuSans-Bold-52" x="888.476562"/>
      <use xlink:href="#DejaVuSans-Bold-61" x="965.478516"/>
      <use xlink:href="#DejaVuSans-Bold-74" x="1032.958984"/>
      <use xlink:href="#DejaVuSans-Bold-65" x="1080.761719"/>
      <use xlink:href="#DejaVuSans-Bold-20" x="1148.583984"/>
      <use xlink:href="#DejaVuSans-Bold-28" x="1183.398438"/>
      <use xlink:href="#DejaVuSans-Bold-53" x="1229.101562"/>
      <use xlink:href="#DejaVuSans-Bold-76" x="1301.123047"/>
      <use xlink:href="#DejaVuSans-Bold-2f" x="1366.308594"/>
      <use xlink:href="#DejaVuSans-Bold-68" x="1402.832031"/>
      <use xlink:href="#DejaVuSans-Bold-29" x="1474.023438"/>
     </g>
    </g>
    <g id="text_14">
     <!-- 1e−6 -->
     <g transform="translate(36.17625 19.318125)scale(0.1 -0.1)">
      <defs>
       <path id="DejaVuSans-65" d="M 3597 1894 
L 3597 1613 
L 953 1613 
Q 991 1019 1311 708 
Q 1631 397 2203 397 
Q 2534 397 2845 478 
Q 3156 559 3463 722 
L 3463 178 
Q 3153 47 2828 -22 
Q 2503 -91 2169 -91 
Q 1331 -91 842 396 
Q 353 884 353 1716 
Q 353 2575 817 3079 
Q 1281 3584 2069 3584 
Q 2775 3584 3186 3129 
Q 3597 2675 3597 1894 
z
M 3022 2063 
Q 3016 2534 2758 2815 
Q 2500 3097 2075 3097 
Q 1594 3097 1305 2825 
Q 1016 2553 972 2059 
L 3022 2063 
z
" transform="scale(0.015625)"/>
       <path id="DejaVuSans-2212" d="M 678 2272 
L 4684 2272 
L 4684 1741 
L 678 1741 
L 678 2272 
z
" transform="scale(0.015625)"/>
      </defs>
      <use xlink:href="#DejaVuSans-31"/>
      <use xlink:href="#DejaVuSans-65" x="63.623047"/>
      <use xlink:href="#DejaVuSans-2212" x="125.146484"/>
      <use xlink:href="#DejaVuSans-36" x="208.935547"/>
     </g>
    </g>
   </g>
   <g id="line2d_12">
    <path d="M 59.003523 281.28298 
L 60.103632 281.332767 
L 61.203742 280.986163 
L 62.303851 280.788348 
L 63.403961 281.227279 
L 64.50407 282.176101 
M 84.306042 280.551238 
L 85.406151 281.264514 
L 86.506261 282.854049 
M 88.70648 283.897106 
L 89.80659 282.328706 
L 90.906699 282.249733 
L 92.006809 284.150525 
M 123.909985 268.424137 
L 125.010094 262.279825 
M 142.611847 240.904618 
L 143.711956 235.949697 
L 144.812066 235.746308 
L 145.912176 236.18681 
M 148.112395 235.252621 
L 149.212504 236.941845 
M 151.412723 235.681883 
L 152.512833 217.198745 
L 153.612942 250.733723 
L 154.713052 254.872373 
M 159.11349 235.525625 
L 160.213599 233.943059 
L 161.313709 235.418419 
L 162.413818 235.837136 
L 163.513928 235.891637 
M 166.814257 236.16619 
L 167.914366 236.190913 
L 169.014476 235.991469 
L 170.114585 235.595481 
L 171.214695 230.703916 
M 174.515023 235.63738 
L 175.615133 233.676753 
L 176.715242 235.682281 
M 178.915461 235.760252 
L 180.015571 231.891829 
L 181.11568 232.957046 
L 182.21579 174.292286 
M 186.616228 234.806557 
L 187.716338 272.771429 
L 188.816447 270.15883 
L 189.916557 232.418726 
L 191.016666 234.603145 
L 192.116776 234.477978 
L 193.216885 231.560599 
M 198.717433 238.294878 
L 199.817542 244.242409 
L 200.917652 236.13361 
L 202.017762 234.830679 
M 203.117871 84.798534 
L 204.217981 239.416525 
L 205.31809 218.407376 
L 206.4182 219.776246 
L 206.4182 227.714764 
L 207.518309 240.404791 
L 208.618419 241.308587 
M 210.818638 198.544299 
L 211.918747 237.306908 
M 214.118966 234.486589 
L 215.219076 235.594956 
L 216.319185 233.386211 
L 217.419295 234.812107 
M 219.619514 244.271051 
L 220.719623 244.271051 
M 224.019952 248.170096 
L 225.120062 138.137085 
L 226.220171 161.467356 
L 227.320281 242.55 
M 228.42039 126.33155 
L 229.5205 242.45349 
L 230.620609 243.394944 
L 231.720719 248.450369 
L 232.820828 222.983245 
L 233.920938 217.9839 
L 235.021047 251.078227 
L 236.121157 241.864693 
L 237.221266 215.459047 
L 238.321376 210.358981 
L 239.421485 249.071855 
L 240.521595 256.341963 
L 241.621705 208.591816 
L 242.721814 208.591816 
L 243.821924 251.022147 
L 244.922033 236.257599 
L 246.022143 227.991741 
L 247.122252 231.25411 
M 249.322471 255.095559 
L 250.422581 268.857489 
L 251.52269 207.451852 
L 252.6228 206.238639 
L 253.722909 267.285275 
L 254.823019 221.151215 
L 255.923128 215.636067 
L 257.023238 214.317565 
L 258.123347 244.380361 
L 259.223457 230.106852 
M 261.423676 241.66535 
L 262.523786 160.832518 
L 263.623895 221.91817 
L 264.724005 232.563031 
M 271.324662 247.776234 
L 272.424771 246.96702 
M 280.125538 244.372376 
L 281.225648 258.489115 
L 282.325757 265.795847 
L 283.425867 189.830539 
L 284.525976 210.560424 
L 285.626086 279.60356 
L 286.726195 271.733714 
M 305.428057 136.769729 
L 306.528167 250.283171 
M 315.329043 239.981927 
L 316.429153 240.100958 
L 317.529262 227.621675 
M 319.729481 229.715417 
L 320.829591 237.419571 
L 321.9297 235.543076 
M 324.129919 232.994764 
L 325.230029 235.695317 
L 326.330138 236.075006 
M 328.530357 234.521903 
L 329.630467 230.125735 
L 330.730576 227.752209 
M 339.531453 238.147156 
L 340.631562 242.522652 
L 341.731672 209.342635 
L 342.831781 204.663761 
M 345.032 236.659967 
L 346.13211 218.910975 
L 347.232219 220.64675 
L 348.332329 259.615849 
L 349.432438 227.765125 
L 350.532548 222.655904 
M 352.732767 243.700686 
L 353.832877 209.022165 
L 354.932986 245.152415 
M 376.935177 274.545844 
L 378.035286 274.941855 
L 379.135396 281.738124 
L 380.235505 281.740413 
L 381.335615 274.399916 
M 383.535834 280.183842 
L 384.635943 280.377595 
M 402.237696 283.790282 
L 403.337805 281.115241 
M 503.447772 279.699129 
L 504.547882 279.826459 
L 505.647992 278.675339 
L 506.748101 279.483383 
L 507.848211 279.808814 
L 508.94832 278.788649 
L 510.04843 279.617968 
M 512.248649 280.903217 
L 513.348758 281.324946 
M 515.548977 281.363098 
" clip-path="url(#p7029397eae)" style="fill: none; stroke: #0000ff; stroke-width: 2; stroke-linecap: square"/>
    <defs>
     <path id="mcf6d9c0bd5" d="M 0 2 
C 0.530406 2 1.03916 1.789267 1.414214 1.414214 
C 1.789267 1.03916 2 0.530406 2 0 
C 2 -0.530406 1.789267 -1.03916 1.414214 -1.414214 
C 1.03916 -1.789267 0.530406 -2 0 -2 
C -0.530406 -2 -1.03916 -1.789267 -1.414214 -1.414214 
C -1.789267 -1.03916 -2 -0.530406 -2 0 
C -2 0.530406 -1.789267 1.03916 -1.414214 1.414214 
C -1.03916 1.789267 -0.530406 2 0 2 
z
" style="stroke: #0000ff"/>
    </defs>
    <g clip-path="url(#p7029397eae)">
     <use xlink:href="#mcf6d9c0bd5" x="59.003523" y="281.28298" style="fill: #0000ff; stroke: #0000ff"/>
     <use xlink:href="#mcf6d9c0bd5" x="60.103632" y="281.332767" style="fill: #0000ff; stroke: #0000ff"/>
     <use xlink:href="#mcf6d9c0bd5" x="61.203742" y="280.986163" style="fill: #0000ff; stroke: #0000ff"/>
     <use xlink:href="#mcf6d9c0bd5" x="62.303851" y="280.788348" style="fill: #0000ff; stroke: #0000ff"/>
     <use xlink:href="#mcf6d9c0bd5" x="63.403961" y="281.227279" style="fill: #0000ff; stroke: #0000ff"/>
     <use xlink:href="#mcf6d9c0bd5" x="64.50407" y="282.176101" style="fill: #0000ff; stroke: #0000ff"/>
     <use xlink:href="#mcf6d9c0bd5" x="66.704289" y="280.636316" style="fill: #0000ff; stroke: #0000ff"/>
     <use xlink:href="#mcf6d9c0bd5" x="70.004618" y="280.53922" style="fill: #0000ff; stroke: #0000ff"/>
     <use xlink:href="#mcf6d9c0bd5" x="72.204837" y="281.658388" style="fill: #0000ff; stroke: #0000ff"/>
     <use xlink:href="#mcf6d9c0bd5" x="75.505166" y="281.360808" style="fill: #0000ff; stroke: #0000ff"/>
     <use xlink:href="#mcf6d9c0bd5" x="77.705385" y="282.214443" style="fill: #0000ff; stroke: #0000ff"/>
     <use xlink:href="#mcf6d9c0bd5" x="81.005713" y="281.625197" style="fill: #0000ff; stroke: #0000ff"/>
     <use xlink:href="#mcf6d9c0bd5" x="84.306042" y="280.551238" style="fill: #0000ff; stroke: #0000ff"/>
     <use xlink:href="#mcf6d9c0bd5" x="85.406151" y="281.264514" style="fill: #0000ff; stroke: #0000ff"/>
     <use xlink:href="#mcf6d9c0bd5" x="86.506261" y="282.854049" style="fill: #0000ff; stroke: #0000ff"/>
     <use xlink:href="#mcf6d9c0bd5" x="88.70648" y="283.897106" style="fill: #0000ff; stroke: #0000ff"/>
     <use xlink:href="#mcf6d9c0bd5" x="89.80659" y="282.328706" style="fill: #0000ff; stroke: #0000ff"/>
     <use xlink:href="#mcf6d9c0bd5" x="90.906699" y="282.249733" style="fill: #0000ff; stroke: #0000ff"/>
     <use xlink:href="#mcf6d9c0bd5" x="92.006809" y="284.150525" style="fill: #0000ff; stroke: #0000ff"/>
     <use xlink:href="#mcf6d9c0bd5" x="94.207028" y="283.611734" style="fill: #0000ff; stroke: #0000ff"/>
     <use xlink:href="#mcf6d9c0bd5" x="97.507356" y="283.856284" style="fill: #0000ff; stroke: #0000ff"/>
     <use xlink:href="#mcf6d9c0bd5" x="100.807685" y="282.409968" style="fill: #0000ff; stroke: #0000ff"/>
     <use xlink:href="#mcf6d9c0bd5" x="103.007904" y="280.673513" style="fill: #0000ff; stroke: #0000ff"/>
     <use xlink:href="#mcf6d9c0bd5" x="106.308232" y="282.211773" style="fill: #0000ff; stroke: #0000ff"/>
     <use xlink:href="#mcf6d9c0bd5" x="109.608561" y="279.328299" style="fill: #0000ff; stroke: #0000ff"/>
     <use xlink:href="#mcf6d9c0bd5" x="111.80878" y="277.746547" style="fill: #0000ff; stroke: #0000ff"/>
     <use xlink:href="#mcf6d9c0bd5" x="115.109109" y="276.630049" style="fill: #0000ff; stroke: #0000ff"/>
     <use xlink:href="#mcf6d9c0bd5" x="117.309328" y="270.96115" style="fill: #0000ff; stroke: #0000ff"/>
     <use xlink:href="#mcf6d9c0bd5" x="120.609656" y="269.927633" style="fill: #0000ff; stroke: #0000ff"/>
     <use xlink:href="#mcf6d9c0bd5" x="123.909985" y="268.424137" style="fill: #0000ff; stroke: #0000ff"/>
     <use xlink:href="#mcf6d9c0bd5" x="125.010094" y="262.279825" style="fill: #0000ff; stroke: #0000ff"/>
     <use xlink:href="#mcf6d9c0bd5" x="127.210314" y="254.956305" style="fill: #0000ff; stroke: #0000ff"/>
     <use xlink:href="#mcf6d9c0bd5" x="130.510642" y="253.396302" style="fill: #0000ff; stroke: #0000ff"/>
     <use xlink:href="#mcf6d9c0bd5" x="131.610752" y="128.822057" style="fill: #0000ff; stroke: #0000ff"/>
     <use xlink:href="#mcf6d9c0bd5" x="136.01119" y="249.008905" style="fill: #0000ff; stroke: #0000ff"/>
     <use xlink:href="#mcf6d9c0bd5" x="139.311518" y="246.317709" style="fill: #0000ff; stroke: #0000ff"/>
     <use xlink:href="#mcf6d9c0bd5" x="142.611847" y="240.904618" style="fill: #0000ff; stroke: #0000ff"/>
     <use xlink:href="#mcf6d9c0bd5" x="143.711956" y="235.949697" style="fill: #0000ff; stroke: #0000ff"/>
     <use xlink:href="#mcf6d9c0bd5" x="144.812066" y="235.746308" style="fill: #0000ff; stroke: #0000ff"/>
     <use xlink:href="#mcf6d9c0bd5" x="145.912176" y="236.18681" style="fill: #0000ff; stroke: #0000ff"/>
     <use xlink:href="#mcf6d9c0bd5" x="148.112395" y="235.252621" style="fill: #0000ff; stroke: #0000ff"/>
     <use xlink:href="#mcf6d9c0bd5" x="149.212504" y="236.941845" style="fill: #0000ff; stroke: #0000ff"/>
     <use xlink:href="#mcf6d9c0bd5" x="151.412723" y="235.681883" style="fill: #0000ff; stroke: #0000ff"/>
     <use xlink:href="#mcf6d9c0bd5" x="152.512833" y="217.198745" style="fill: #0000ff; stroke: #0000ff"/>
     <use xlink:href="#mcf6d9c0bd5" x="153.612942" y="250.733723" style="fill: #0000ff; stroke: #0000ff"/>
     <use xlink:href="#mcf6d9c0bd5" x="154.713052" y="254.872373" style="fill: #0000ff; stroke: #0000ff"/>
     <use xlink:href="#mcf6d9c0bd5" x="156.913271" y="235.769838" style="fill: #0000ff; stroke: #0000ff"/>
     <use xlink:href="#mcf6d9c0bd5" x="159.11349" y="235.525625" style="fill: #0000ff; stroke: #0000ff"/>
     <use xlink:href="#mcf6d9c0bd5" x="160.213599" y="233.943059" style="fill: #0000ff; stroke: #0000ff"/>
     <use xlink:href="#mcf6d9c0bd5" x="161.313709" y="235.418419" style="fill: #0000ff; stroke: #0000ff"/>
     <use xlink:href="#mcf6d9c0bd5" x="162.413818" y="235.837136" style="fill: #0000ff; stroke: #0000ff"/>
     <use xlink:href="#mcf6d9c0bd5" x="163.513928" y="235.891637" style="fill: #0000ff; stroke: #0000ff"/>
     <use xlink:href="#mcf6d9c0bd5" x="166.814257" y="236.16619" style="fill: #0000ff; stroke: #0000ff"/>
     <use xlink:href="#mcf6d9c0bd5" x="167.914366" y="236.190913" style="fill: #0000ff; stroke: #0000ff"/>
     <use xlink:href="#mcf6d9c0bd5" x="169.014476" y="235.991469" style="fill: #0000ff; stroke: #0000ff"/>
     <use xlink:href="#mcf6d9c0bd5" x="170.114585" y="235.595481" style="fill: #0000ff; stroke: #0000ff"/>
     <use xlink:href="#mcf6d9c0bd5" x="171.214695" y="230.703916" style="fill: #0000ff; stroke: #0000ff"/>
     <use xlink:href="#mcf6d9c0bd5" x="174.515023" y="235.63738" style="fill: #0000ff; stroke: #0000ff"/>
     <use xlink:href="#mcf6d9c0bd5" x="175.615133" y="233.676753" style="fill: #0000ff; stroke: #0000ff"/>
     <use xlink:href="#mcf6d9c0bd5" x="176.715242" y="235.682281" style="fill: #0000ff; stroke: #0000ff"/>
     <use xlink:href="#mcf6d9c0bd5" x="178.915461" y="235.760252" style="fill: #0000ff; stroke: #0000ff"/>
     <use xlink:href="#mcf6d9c0bd5" x="180.015571" y="231.891829" style="fill: #0000ff; stroke: #0000ff"/>
     <use xlink:href="#mcf6d9c0bd5" x="181.11568" y="232.957046" style="fill: #0000ff; stroke: #0000ff"/>
     <use xlink:href="#mcf6d9c0bd5" x="182.21579" y="174.292286" style="fill: #0000ff; stroke: #0000ff"/>
     <use xlink:href="#mcf6d9c0bd5" x="184.416009" y="229.970648" style="fill: #0000ff; stroke: #0000ff"/>
     <use xlink:href="#mcf6d9c0bd5" x="186.616228" y="234.806557" style="fill: #0000ff; stroke: #0000ff"/>
     <use xlink:href="#mcf6d9c0bd5" x="187.716338" y="272.771429" style="fill: #0000ff; stroke: #0000ff"/>
     <use xlink:href="#mcf6d9c0bd5" x="188.816447" y="270.15883" style="fill: #0000ff; stroke: #0000ff"/>
     <use xlink:href="#mcf6d9c0bd5" x="189.916557" y="232.418726" style="fill: #0000ff; stroke: #0000ff"/>
     <use xlink:href="#mcf6d9c0bd5" x="191.016666" y="234.603145" style="fill: #0000ff; stroke: #0000ff"/>
     <use xlink:href="#mcf6d9c0bd5" x="192.116776" y="234.477978" style="fill: #0000ff; stroke: #0000ff"/>
     <use xlink:href="#mcf6d9c0bd5" x="193.216885" y="231.560599" style="fill: #0000ff; stroke: #0000ff"/>
     <use xlink:href="#mcf6d9c0bd5" x="196.517214" y="234.067277" style="fill: #0000ff; stroke: #0000ff"/>
     <use xlink:href="#mcf6d9c0bd5" x="198.717433" y="238.294878" style="fill: #0000ff; stroke: #0000ff"/>
     <use xlink:href="#mcf6d9c0bd5" x="199.817542" y="244.242409" style="fill: #0000ff; stroke: #0000ff"/>
     <use xlink:href="#mcf6d9c0bd5" x="200.917652" y="236.13361" style="fill: #0000ff; stroke: #0000ff"/>
     <use xlink:href="#mcf6d9c0bd5" x="202.017762" y="234.830679" style="fill: #0000ff; stroke: #0000ff"/>
     <use xlink:href="#mcf6d9c0bd5" x="203.117871" y="84.798534" style="fill: #0000ff; stroke: #0000ff"/>
     <use xlink:href="#mcf6d9c0bd5" x="204.217981" y="239.416525" style="fill: #0000ff; stroke: #0000ff"/>
     <use xlink:href="#mcf6d9c0bd5" x="205.31809" y="218.407376" style="fill: #0000ff; stroke: #0000ff"/>
     <use xlink:href="#mcf6d9c0bd5" x="206.4182" y="219.776246" style="fill: #0000ff; stroke: #0000ff"/>
     <use xlink:href="#mcf6d9c0bd5" x="206.4182" y="227.714764" style="fill: #0000ff; stroke: #0000ff"/>
     <use xlink:href="#mcf6d9c0bd5" x="207.518309" y="240.404791" style="fill: #0000ff; stroke: #0000ff"/>
     <use xlink:href="#mcf6d9c0bd5" x="208.618419" y="241.308587" style="fill: #0000ff; stroke: #0000ff"/>
     <use xlink:href="#mcf6d9c0bd5" x="210.818638" y="198.544299" style="fill: #0000ff; stroke: #0000ff"/>
     <use xlink:href="#mcf6d9c0bd5" x="211.918747" y="237.306908" style="fill: #0000ff; stroke: #0000ff"/>
     <use xlink:href="#mcf6d9c0bd5" x="214.118966" y="234.486589" style="fill: #0000ff; stroke: #0000ff"/>
     <use xlink:href="#mcf6d9c0bd5" x="215.219076" y="235.594956" style="fill: #0000ff; stroke: #0000ff"/>
     <use xlink:href="#mcf6d9c0bd5" x="216.319185" y="233.386211" style="fill: #0000ff; stroke: #0000ff"/>
     <use xlink:href="#mcf6d9c0bd5" x="217.419295" y="234.812107" style="fill: #0000ff; stroke: #0000ff"/>
     <use xlink:href="#mcf6d9c0bd5" x="219.619514" y="244.271051" style="fill: #0000ff; stroke: #0000ff"/>
     <use xlink:href="#mcf6d9c0bd5" x="220.719623" y="244.271051" style="fill: #0000ff; stroke: #0000ff"/>
     <use xlink:href="#mcf6d9c0bd5" x="221.819733" y="160.814201" style="fill: #0000ff; stroke: #0000ff"/>
     <use xlink:href="#mcf6d9c0bd5" x="224.019952" y="248.170096" style="fill: #0000ff; stroke: #0000ff"/>
     <use xlink:href="#mcf6d9c0bd5" x="225.120062" y="138.137085" style="fill: #0000ff; stroke: #0000ff"/>
     <use xlink:href="#mcf6d9c0bd5" x="226.220171" y="161.467356" style="fill: #0000ff; stroke: #0000ff"/>
     <use xlink:href="#mcf6d9c0bd5" x="227.320281" y="242.55" style="fill: #0000ff; stroke: #0000ff"/>
     <use xlink:href="#mcf6d9c0bd5" x="228.42039" y="126.33155" style="fill: #0000ff; stroke: #0000ff"/>
     <use xlink:href="#mcf6d9c0bd5" x="229.5205" y="242.45349" style="fill: #0000ff; stroke: #0000ff"/>
     <use xlink:href="#mcf6d9c0bd5" x="230.620609" y="243.394944" style="fill: #0000ff; stroke: #0000ff"/>
     <use xlink:href="#mcf6d9c0bd5" x="231.720719" y="248.450369" style="fill: #0000ff; stroke: #0000ff"/>
     <use xlink:href="#mcf6d9c0bd5" x="232.820828" y="222.983245" style="fill: #0000ff; stroke: #0000ff"/>
     <use xlink:href="#mcf6d9c0bd5" x="233.920938" y="217.9839" style="fill: #0000ff; stroke: #0000ff"/>
     <use xlink:href="#mcf6d9c0bd5" x="235.021047" y="251.078227" style="fill: #0000ff; stroke: #0000ff"/>
     <use xlink:href="#mcf6d9c0bd5" x="236.121157" y="241.864693" style="fill: #0000ff; stroke: #0000ff"/>
     <use xlink:href="#mcf6d9c0bd5" x="237.221266" y="215.459047" style="fill: #0000ff; stroke: #0000ff"/>
     <use xlink:href="#mcf6d9c0bd5" x="238.321376" y="210.358981" style="fill: #0000ff; stroke: #0000ff"/>
     <use xlink:href="#mcf6d9c0bd5" x="239.421485" y="249.071855" style="fill: #0000ff; stroke: #0000ff"/>
     <use xlink:href="#mcf6d9c0bd5" x="240.521595" y="256.341963" style="fill: #0000ff; stroke: #0000ff"/>
     <use xlink:href="#mcf6d9c0bd5" x="241.621705" y="208.591816" style="fill: #0000ff; stroke: #0000ff"/>
     <use xlink:href="#mcf6d9c0bd5" x="242.721814" y="208.591816" style="fill: #0000ff; stroke: #0000ff"/>
     <use xlink:href="#mcf6d9c0bd5" x="243.821924" y="251.022147" style="fill: #0000ff; stroke: #0000ff"/>
     <use xlink:href="#mcf6d9c0bd5" x="244.922033" y="236.257599" style="fill: #0000ff; stroke: #0000ff"/>
     <use xlink:href="#mcf6d9c0bd5" x="246.022143" y="227.991741" style="fill: #0000ff; stroke: #0000ff"/>
     <use xlink:href="#mcf6d9c0bd5" x="247.122252" y="231.25411" style="fill: #0000ff; stroke: #0000ff"/>
     <use xlink:href="#mcf6d9c0bd5" x="249.322471" y="255.095559" style="fill: #0000ff; stroke: #0000ff"/>
     <use xlink:href="#mcf6d9c0bd5" x="250.422581" y="268.857489" style="fill: #0000ff; stroke: #0000ff"/>
     <use xlink:href="#mcf6d9c0bd5" x="251.52269" y="207.451852" style="fill: #0000ff; stroke: #0000ff"/>
     <use xlink:href="#mcf6d9c0bd5" x="252.6228" y="206.238639" style="fill: #0000ff; stroke: #0000ff"/>
     <use xlink:href="#mcf6d9c0bd5" x="253.722909" y="267.285275" style="fill: #0000ff; stroke: #0000ff"/>
     <use xlink:href="#mcf6d9c0bd5" x="254.823019" y="221.151215" style="fill: #0000ff; stroke: #0000ff"/>
     <use xlink:href="#mcf6d9c0bd5" x="255.923128" y="215.636067" style="fill: #0000ff; stroke: #0000ff"/>
     <use xlink:href="#mcf6d9c0bd5" x="257.023238" y="214.317565" style="fill: #0000ff; stroke: #0000ff"/>
     <use xlink:href="#mcf6d9c0bd5" x="258.123347" y="244.380361" style="fill: #0000ff; stroke: #0000ff"/>
     <use xlink:href="#mcf6d9c0bd5" x="259.223457" y="230.106852" style="fill: #0000ff; stroke: #0000ff"/>
     <use xlink:href="#mcf6d9c0bd5" x="261.423676" y="241.66535" style="fill: #0000ff; stroke: #0000ff"/>
     <use xlink:href="#mcf6d9c0bd5" x="262.523786" y="160.832518" style="fill: #0000ff; stroke: #0000ff"/>
     <use xlink:href="#mcf6d9c0bd5" x="263.623895" y="221.91817" style="fill: #0000ff; stroke: #0000ff"/>
     <use xlink:href="#mcf6d9c0bd5" x="264.724005" y="232.563031" style="fill: #0000ff; stroke: #0000ff"/>
     <use xlink:href="#mcf6d9c0bd5" x="266.924224" y="248.056826" style="fill: #0000ff; stroke: #0000ff"/>
     <use xlink:href="#mcf6d9c0bd5" x="271.324662" y="247.776234" style="fill: #0000ff; stroke: #0000ff"/>
     <use xlink:href="#mcf6d9c0bd5" x="272.424771" y="246.96702" style="fill: #0000ff; stroke: #0000ff"/>
     <use xlink:href="#mcf6d9c0bd5" x="274.62499" y="245.285439" style="fill: #0000ff; stroke: #0000ff"/>
     <use xlink:href="#mcf6d9c0bd5" x="277.925319" y="232.048446" style="fill: #0000ff; stroke: #0000ff"/>
     <use xlink:href="#mcf6d9c0bd5" x="280.125538" y="244.372376" style="fill: #0000ff; stroke: #0000ff"/>
     <use xlink:href="#mcf6d9c0bd5" x="281.225648" y="258.489115" style="fill: #0000ff; stroke: #0000ff"/>
     <use xlink:href="#mcf6d9c0bd5" x="282.325757" y="265.795847" style="fill: #0000ff; stroke: #0000ff"/>
     <use xlink:href="#mcf6d9c0bd5" x="283.425867" y="189.830539" style="fill: #0000ff; stroke: #0000ff"/>
     <use xlink:href="#mcf6d9c0bd5" x="284.525976" y="210.560424" style="fill: #0000ff; stroke: #0000ff"/>
     <use xlink:href="#mcf6d9c0bd5" x="285.626086" y="279.60356" style="fill: #0000ff; stroke: #0000ff"/>
     <use xlink:href="#mcf6d9c0bd5" x="286.726195" y="271.733714" style="fill: #0000ff; stroke: #0000ff"/>
     <use xlink:href="#mcf6d9c0bd5" x="290.026524" y="246.438458" style="fill: #0000ff; stroke: #0000ff"/>
     <use xlink:href="#mcf6d9c0bd5" x="292.226743" y="254.898125" style="fill: #0000ff; stroke: #0000ff"/>
     <use xlink:href="#mcf6d9c0bd5" x="295.527071" y="251.57372" style="fill: #0000ff; stroke: #0000ff"/>
     <use xlink:href="#mcf6d9c0bd5" x="298.8274" y="252.250426" style="fill: #0000ff; stroke: #0000ff"/>
     <use xlink:href="#mcf6d9c0bd5" x="303.227838" y="255.54161" style="fill: #0000ff; stroke: #0000ff"/>
     <use xlink:href="#mcf6d9c0bd5" x="305.428057" y="136.769729" style="fill: #0000ff; stroke: #0000ff"/>
     <use xlink:href="#mcf6d9c0bd5" x="306.528167" y="250.283171" style="fill: #0000ff; stroke: #0000ff"/>
     <use xlink:href="#mcf6d9c0bd5" x="309.828495" y="253.790211" style="fill: #0000ff; stroke: #0000ff"/>
     <use xlink:href="#mcf6d9c0bd5" x="313.128824" y="249.369433" style="fill: #0000ff; stroke: #0000ff"/>
     <use xlink:href="#mcf6d9c0bd5" x="315.329043" y="239.981927" style="fill: #0000ff; stroke: #0000ff"/>
     <use xlink:href="#mcf6d9c0bd5" x="316.429153" y="240.100958" style="fill: #0000ff; stroke: #0000ff"/>
     <use xlink:href="#mcf6d9c0bd5" x="317.529262" y="227.621675" style="fill: #0000ff; stroke: #0000ff"/>
     <use xlink:href="#mcf6d9c0bd5" x="319.729481" y="229.715417" style="fill: #0000ff; stroke: #0000ff"/>
     <use xlink:href="#mcf6d9c0bd5" x="320.829591" y="237.419571" style="fill: #0000ff; stroke: #0000ff"/>
     <use xlink:href="#mcf6d9c0bd5" x="321.9297" y="235.543076" style="fill: #0000ff; stroke: #0000ff"/>
     <use xlink:href="#mcf6d9c0bd5" x="324.129919" y="232.994764" style="fill: #0000ff; stroke: #0000ff"/>
     <use xlink:href="#mcf6d9c0bd5" x="325.230029" y="235.695317" style="fill: #0000ff; stroke: #0000ff"/>
     <use xlink:href="#mcf6d9c0bd5" x="326.330138" y="236.075006" style="fill: #0000ff; stroke: #0000ff"/>
     <use xlink:href="#mcf6d9c0bd5" x="328.530357" y="234.521903" style="fill: #0000ff; stroke: #0000ff"/>
     <use xlink:href="#mcf6d9c0bd5" x="329.630467" y="230.125735" style="fill: #0000ff; stroke: #0000ff"/>
     <use xlink:href="#mcf6d9c0bd5" x="330.730576" y="227.752209" style="fill: #0000ff; stroke: #0000ff"/>
     <use xlink:href="#mcf6d9c0bd5" x="332.930795" y="227.69662" style="fill: #0000ff; stroke: #0000ff"/>
     <use xlink:href="#mcf6d9c0bd5" x="335.131015" y="235.454652" style="fill: #0000ff; stroke: #0000ff"/>
     <use xlink:href="#mcf6d9c0bd5" x="337.331234" y="232.41214" style="fill: #0000ff; stroke: #0000ff"/>
     <use xlink:href="#mcf6d9c0bd5" x="339.531453" y="238.147156" style="fill: #0000ff; stroke: #0000ff"/>
     <use xlink:href="#mcf6d9c0bd5" x="340.631562" y="242.522652" style="fill: #0000ff; stroke: #0000ff"/>
     <use xlink:href="#mcf6d9c0bd5" x="341.731672" y="209.342635" style="fill: #0000ff; stroke: #0000ff"/>
     <use xlink:href="#mcf6d9c0bd5" x="342.831781" y="204.663761" style="fill: #0000ff; stroke: #0000ff"/>
     <use xlink:href="#mcf6d9c0bd5" x="345.032" y="236.659967" style="fill: #0000ff; stroke: #0000ff"/>
     <use xlink:href="#mcf6d9c0bd5" x="346.13211" y="218.910975" style="fill: #0000ff; stroke: #0000ff"/>
     <use xlink:href="#mcf6d9c0bd5" x="347.232219" y="220.64675" style="fill: #0000ff; stroke: #0000ff"/>
     <use xlink:href="#mcf6d9c0bd5" x="348.332329" y="259.615849" style="fill: #0000ff; stroke: #0000ff"/>
     <use xlink:href="#mcf6d9c0bd5" x="349.432438" y="227.765125" style="fill: #0000ff; stroke: #0000ff"/>
     <use xlink:href="#mcf6d9c0bd5" x="350.532548" y="222.655904" style="fill: #0000ff; stroke: #0000ff"/>
     <use xlink:href="#mcf6d9c0bd5" x="352.732767" y="243.700686" style="fill: #0000ff; stroke: #0000ff"/>
     <use xlink:href="#mcf6d9c0bd5" x="353.832877" y="209.022165" style="fill: #0000ff; stroke: #0000ff"/>
     <use xlink:href="#mcf6d9c0bd5" x="354.932986" y="245.152415" style="fill: #0000ff; stroke: #0000ff"/>
     <use xlink:href="#mcf6d9c0bd5" x="358.233315" y="253.592779" style="fill: #0000ff; stroke: #0000ff"/>
     <use xlink:href="#mcf6d9c0bd5" x="364.833972" y="259.404981" style="fill: #0000ff; stroke: #0000ff"/>
     <use xlink:href="#mcf6d9c0bd5" x="367.034191" y="261.337488" style="fill: #0000ff; stroke: #0000ff"/>
     <use xlink:href="#mcf6d9c0bd5" x="370.334519" y="269.702158" style="fill: #0000ff; stroke: #0000ff"/>
     <use xlink:href="#mcf6d9c0bd5" x="372.534738" y="275.920436" style="fill: #0000ff; stroke: #0000ff"/>
     <use xlink:href="#mcf6d9c0bd5" x="374.734958" y="276.672016" style="fill: #0000ff; stroke: #0000ff"/>
     <use xlink:href="#mcf6d9c0bd5" x="376.935177" y="274.545844" style="fill: #0000ff; stroke: #0000ff"/>
     <use xlink:href="#mcf6d9c0bd5" x="378.035286" y="274.941855" style="fill: #0000ff; stroke: #0000ff"/>
     <use xlink:href="#mcf6d9c0bd5" x="379.135396" y="281.738124" style="fill: #0000ff; stroke: #0000ff"/>
     <use xlink:href="#mcf6d9c0bd5" x="380.235505" y="281.740413" style="fill: #0000ff; stroke: #0000ff"/>
     <use xlink:href="#mcf6d9c0bd5" x="381.335615" y="274.399916" style="fill: #0000ff; stroke: #0000ff"/>
     <use xlink:href="#mcf6d9c0bd5" x="383.535834" y="280.183842" style="fill: #0000ff; stroke: #0000ff"/>
     <use xlink:href="#mcf6d9c0bd5" x="384.635943" y="280.377595" style="fill: #0000ff; stroke: #0000ff"/>
     <use xlink:href="#mcf6d9c0bd5" x="386.836162" y="281.539465" style="fill: #0000ff; stroke: #0000ff"/>
     <use xlink:href="#mcf6d9c0bd5" x="390.136491" y="281.724772" style="fill: #0000ff; stroke: #0000ff"/>
     <use xlink:href="#mcf6d9c0bd5" x="392.33671" y="283.472482" style="fill: #0000ff; stroke: #0000ff"/>
     <use xlink:href="#mcf6d9c0bd5" x="395.637039" y="283.639203" style="fill: #0000ff; stroke: #0000ff"/>
     <use xlink:href="#mcf6d9c0bd5" x="397.837258" y="283.193787" style="fill: #0000ff; stroke: #0000ff"/>
     <use xlink:href="#mcf6d9c0bd5" x="400.037477" y="282.824291" style="fill: #0000ff; stroke: #0000ff"/>
     <use xlink:href="#mcf6d9c0bd5" x="402.237696" y="283.790282" style="fill: #0000ff; stroke: #0000ff"/>
     <use xlink:href="#mcf6d9c0bd5" x="403.337805" y="281.115241" style="fill: #0000ff; stroke: #0000ff"/>
     <use xlink:href="#mcf6d9c0bd5" x="405.538024" y="280.430426" style="fill: #0000ff; stroke: #0000ff"/>
     <use xlink:href="#mcf6d9c0bd5" x="408.838353" y="280.22638" style="fill: #0000ff; stroke: #0000ff"/>
     <use xlink:href="#mcf6d9c0bd5" x="412.138682" y="279.927846" style="fill: #0000ff; stroke: #0000ff"/>
     <use xlink:href="#mcf6d9c0bd5" x="414.338901" y="280.398061" style="fill: #0000ff; stroke: #0000ff"/>
     <use xlink:href="#mcf6d9c0bd5" x="417.639229" y="280.268346" style="fill: #0000ff; stroke: #0000ff"/>
     <use xlink:href="#mcf6d9c0bd5" x="420.939558" y="280.692207" style="fill: #0000ff; stroke: #0000ff"/>
     <use xlink:href="#mcf6d9c0bd5" x="423.139777" y="280.499734" style="fill: #0000ff; stroke: #0000ff"/>
     <use xlink:href="#mcf6d9c0bd5" x="426.440105" y="279.735945" style="fill: #0000ff; stroke: #0000ff"/>
     <use xlink:href="#mcf6d9c0bd5" x="428.640324" y="280.128522" style="fill: #0000ff; stroke: #0000ff"/>
     <use xlink:href="#mcf6d9c0bd5" x="431.940653" y="280.443842" style="fill: #0000ff; stroke: #0000ff"/>
     <use xlink:href="#mcf6d9c0bd5" x="435.240982" y="279.80767" style="fill: #0000ff; stroke: #0000ff"/>
     <use xlink:href="#mcf6d9c0bd5" x="437.441201" y="280.136725" style="fill: #0000ff; stroke: #0000ff"/>
     <use xlink:href="#mcf6d9c0bd5" x="440.741529" y="279.955315" style="fill: #0000ff; stroke: #0000ff"/>
     <use xlink:href="#mcf6d9c0bd5" x="442.941748" y="279.703707" style="fill: #0000ff; stroke: #0000ff"/>
     <use xlink:href="#mcf6d9c0bd5" x="446.242077" y="280.518428" style="fill: #0000ff; stroke: #0000ff"/>
     <use xlink:href="#mcf6d9c0bd5" x="449.542406" y="280.026086" style="fill: #0000ff; stroke: #0000ff"/>
     <use xlink:href="#mcf6d9c0bd5" x="451.742625" y="279.529929" style="fill: #0000ff; stroke: #0000ff"/>
     <use xlink:href="#mcf6d9c0bd5" x="455.042953" y="279.050367" style="fill: #0000ff; stroke: #0000ff"/>
     <use xlink:href="#mcf6d9c0bd5" x="457.243172" y="280.562111" style="fill: #0000ff; stroke: #0000ff"/>
     <use xlink:href="#mcf6d9c0bd5" x="460.543501" y="281.21755" style="fill: #0000ff; stroke: #0000ff"/>
     <use xlink:href="#mcf6d9c0bd5" x="463.843829" y="278.532272" style="fill: #0000ff; stroke: #0000ff"/>
     <use xlink:href="#mcf6d9c0bd5" x="466.044048" y="279.976489" style="fill: #0000ff; stroke: #0000ff"/>
     <use xlink:href="#mcf6d9c0bd5" x="469.344377" y="280.30955" style="fill: #0000ff; stroke: #0000ff"/>
     <use xlink:href="#mcf6d9c0bd5" x="471.544596" y="279.489488" style="fill: #0000ff; stroke: #0000ff"/>
     <use xlink:href="#mcf6d9c0bd5" x="474.844925" y="280.587673" style="fill: #0000ff; stroke: #0000ff"/>
     <use xlink:href="#mcf6d9c0bd5" x="478.145253" y="279.402121" style="fill: #0000ff; stroke: #0000ff"/>
     <use xlink:href="#mcf6d9c0bd5" x="480.345472" y="280.544943" style="fill: #0000ff; stroke: #0000ff"/>
     <use xlink:href="#mcf6d9c0bd5" x="483.645801" y="280.091324" style="fill: #0000ff; stroke: #0000ff"/>
     <use xlink:href="#mcf6d9c0bd5" x="485.84602" y="279.755975" style="fill: #0000ff; stroke: #0000ff"/>
     <use xlink:href="#mcf6d9c0bd5" x="489.146349" y="279.973056" style="fill: #0000ff; stroke: #0000ff"/>
     <use xlink:href="#mcf6d9c0bd5" x="492.446677" y="280.685149" style="fill: #0000ff; stroke: #0000ff"/>
     <use xlink:href="#mcf6d9c0bd5" x="494.646896" y="279.322576" style="fill: #0000ff; stroke: #0000ff"/>
     <use xlink:href="#mcf6d9c0bd5" x="497.947225" y="280.048595" style="fill: #0000ff; stroke: #0000ff"/>
     <use xlink:href="#mcf6d9c0bd5" x="500.147444" y="280.785678" style="fill: #0000ff; stroke: #0000ff"/>
     <use xlink:href="#mcf6d9c0bd5" x="503.447772" y="279.699129" style="fill: #0000ff; stroke: #0000ff"/>
     <use xlink:href="#mcf6d9c0bd5" x="504.547882" y="279.826459" style="fill: #0000ff; stroke: #0000ff"/>
     <use xlink:href="#mcf6d9c0bd5" x="505.647992" y="278.675339" style="fill: #0000ff; stroke: #0000ff"/>
     <use xlink:href="#mcf6d9c0bd5" x="506.748101" y="279.483383" style="fill: #0000ff; stroke: #0000ff"/>
     <use xlink:href="#mcf6d9c0bd5" x="507.848211" y="279.808814" style="fill: #0000ff; stroke: #0000ff"/>
     <use xlink:href="#mcf6d9c0bd5" x="508.94832" y="278.788649" style="fill: #0000ff; stroke: #0000ff"/>
     <use xlink:href="#mcf6d9c0bd5" x="510.04843" y="279.617968" style="fill: #0000ff; stroke: #0000ff"/>
     <use xlink:href="#mcf6d9c0bd5" x="512.248649" y="280.903217" style="fill: #0000ff; stroke: #0000ff"/>
     <use xlink:href="#mcf6d9c0bd5" x="513.348758" y="281.324946" style="fill: #0000ff; stroke: #0000ff"/>
     <use xlink:href="#mcf6d9c0bd5" x="515.548977" y="281.363098" style="fill: #0000ff; stroke: #0000ff"/>
    </g>
   </g>
   <g id="patch_3">
    <path d="M 36.17625 294.118125 
L 36.17625 22.318125 
" style="fill: none; stroke: #000000; stroke-width: 0.8; stroke-linejoin: miter; stroke-linecap: square"/>
   </g>
   <g id="patch_4">
    <path d="M 538.37625 294.118125 
L 538.37625 22.318125 
" style="fill: none; stroke: #000000; stroke-width: 0.8; stroke-linejoin: miter; stroke-linecap: square"/>
   </g>
   <g id="patch_5">
    <path d="M 36.17625 294.118125 
L 538.37625 294.118125 
" style="fill: none; stroke: #000000; stroke-width: 0.8; stroke-linejoin: miter; stroke-linecap: square"/>
   </g>
   <g id="patch_6">
    <path d="M 36.17625 22.318125 
L 538.37625 22.318125 
" style="fill: none; stroke: #000000; stroke-width: 0.8; stroke-linejoin: miter; stroke-linecap: square"/>
   </g>
   <g id="text_15">
    <!-- Dose Rate vs Time -->
    <g transform="translate(71.33025 16.318125)scale(0.12 -0.12)">
     <defs>
      <path id="DejaVuSansMono-Bold-44" d="M 1350 3834 
L 1350 831 
L 1600 831 
Q 2144 831 2375 1173 
Q 2606 1516 2606 2338 
Q 2606 3153 2375 3493 
Q 2144 3834 1600 3834 
L 1350 3834 
z
M 428 4666 
L 1416 4666 
Q 2559 4666 3062 4120 
Q 3566 3575 3566 2338 
Q 3566 1097 3062 548 
Q 2559 0 1416 0 
L 428 0 
L 428 4666 
z
" transform="scale(0.015625)"/>
      <path id="DejaVuSansMono-Bold-6f" d="M 1925 2841 
Q 1597 2841 1409 2552 
Q 1222 2263 1222 1747 
Q 1222 1231 1409 942 
Q 1597 653 1925 653 
Q 2256 653 2443 942 
Q 2631 1231 2631 1747 
Q 2631 2263 2443 2552 
Q 2256 2841 1925 2841 
z
M 306 1747 
Q 306 2594 745 3089 
Q 1184 3584 1925 3584 
Q 2669 3584 3108 3089 
Q 3547 2594 3547 1747 
Q 3547 900 3108 404 
Q 2669 -91 1925 -91 
Q 1184 -91 745 404 
Q 306 900 306 1747 
z
" transform="scale(0.015625)"/>
      <path id="DejaVuSansMono-Bold-73" d="M 3097 3391 
L 3097 2591 
Q 2844 2753 2570 2836 
Q 2297 2919 2022 2919 
Q 1716 2919 1559 2830 
Q 1403 2741 1403 2566 
Q 1403 2316 2072 2159 
L 2106 2150 
L 2369 2088 
Q 2869 1969 3101 1705 
Q 3334 1441 3334 991 
Q 3334 450 2979 179 
Q 2625 -91 1913 -91 
Q 1597 -91 1265 -36 
Q 934 19 594 128 
L 594 928 
Q 897 756 1211 665 
Q 1525 575 1819 575 
Q 2141 575 2306 669 
Q 2472 763 2472 941 
Q 2472 1116 2355 1209 
Q 2238 1303 1797 1409 
L 1544 1466 
Q 1019 1584 778 1837 
Q 538 2091 538 2516 
Q 538 3022 903 3303 
Q 1269 3584 1931 3584 
Q 2228 3584 2523 3536 
Q 2819 3488 3097 3391 
z
" transform="scale(0.015625)"/>
      <path id="DejaVuSansMono-Bold-65" d="M 3444 172 
Q 3125 41 2794 -25 
Q 2463 -91 2094 -91 
Q 1216 -91 752 379 
Q 288 850 288 1734 
Q 288 2591 734 3087 
Q 1181 3584 1953 3584 
Q 2731 3584 3161 3123 
Q 3591 2663 3591 1825 
L 3591 1453 
L 1219 1453 
Q 1222 1041 1462 837 
Q 1703 634 2181 634 
Q 2497 634 2803 725 
Q 3109 816 3444 1013 
L 3444 172 
z
M 2669 2141 
Q 2663 2503 2483 2689 
Q 2303 2875 1953 2875 
Q 1638 2875 1450 2683 
Q 1263 2491 1228 2138 
L 2669 2141 
z
" transform="scale(0.015625)"/>
      <path id="DejaVuSansMono-Bold-20" transform="scale(0.015625)"/>
      <path id="DejaVuSansMono-Bold-52" d="M 2522 2203 
Q 2659 2175 2761 2073 
Q 2863 1972 3009 1678 
L 3853 0 
L 2841 0 
L 2278 1178 
Q 2253 1228 2213 1316 
Q 1966 1844 1631 1844 
L 1338 1844 
L 1338 0 
L 416 0 
L 416 4666 
L 1747 4666 
Q 2647 4666 3039 4347 
Q 3431 4028 3431 3309 
Q 3431 2828 3197 2543 
Q 2963 2259 2522 2203 
z
M 1338 3891 
L 1338 2619 
L 1772 2619 
Q 2150 2619 2314 2767 
Q 2478 2916 2478 3256 
Q 2478 3597 2315 3744 
Q 2153 3891 1772 3891 
L 1338 3891 
z
" transform="scale(0.015625)"/>
      <path id="DejaVuSansMono-Bold-61" d="M 2188 1644 
Q 1675 1644 1472 1512 
Q 1269 1381 1269 1063 
Q 1269 825 1409 684 
Q 1550 544 1791 544 
Q 2153 544 2353 817 
Q 2553 1091 2553 1581 
L 2553 1644 
L 2188 1644 
z
M 3463 1997 
L 3463 0 
L 2553 0 
L 2553 391 
Q 2388 159 2128 34 
Q 1869 -91 1556 -91 
Q 959 -91 626 225 
Q 294 541 294 1106 
Q 294 1719 691 2011 
Q 1088 2303 1919 2303 
L 2553 2303 
L 2553 2456 
Q 2553 2678 2392 2792 
Q 2231 2906 1919 2906 
Q 1591 2906 1283 2823 
Q 975 2741 641 2559 
L 641 3341 
Q 944 3466 1256 3525 
Q 1569 3584 1919 3584 
Q 2772 3584 3117 3237 
Q 3463 2891 3463 1997 
z
" transform="scale(0.015625)"/>
      <path id="DejaVuSansMono-Bold-74" d="M 2156 4494 
L 2156 3500 
L 3353 3500 
L 3353 2797 
L 2156 2797 
L 2156 1141 
Q 2156 906 2270 804 
Q 2384 703 2650 703 
L 3353 703 
L 3353 0 
L 2584 0 
Q 1797 0 1519 251 
Q 1241 503 1241 1184 
L 1241 2797 
L 347 2797 
L 347 3500 
L 1241 3500 
L 1241 4494 
L 2156 4494 
z
" transform="scale(0.015625)"/>
      <path id="DejaVuSansMono-Bold-76" d="M 3603 3500 
L 2491 0 
L 1363 0 
L 250 3500 
L 1178 3500 
L 1925 769 
L 2675 3500 
L 3603 3500 
z
" transform="scale(0.015625)"/>
      <path id="DejaVuSansMono-Bold-54" d="M 2388 0 
L 1466 0 
L 1466 3859 
L 281 3859 
L 281 4666 
L 3572 4666 
L 3572 3859 
L 2388 3859 
L 2388 0 
z
" transform="scale(0.015625)"/>
      <path id="DejaVuSansMono-Bold-69" d="M 691 3500 
L 2503 3500 
L 2503 703 
L 3641 703 
L 3641 0 
L 447 0 
L 447 703 
L 1588 703 
L 1588 2797 
L 691 2797 
L 691 3500 
z
M 1588 5203 
L 2503 5203 
L 2503 4134 
L 1588 4134 
L 1588 5203 
z
" transform="scale(0.015625)"/>
      <path id="DejaVuSansMono-Bold-6d" d="M 2156 3150 
Q 2259 3372 2418 3478 
Q 2578 3584 2809 3584 
Q 3263 3584 3436 3271 
Q 3609 2959 3609 1972 
L 3609 0 
L 2859 0 
L 2859 2247 
Q 2859 2638 2800 2769 
Q 2741 2900 2584 2900 
Q 2428 2900 2365 2765 
Q 2303 2631 2303 2247 
L 2303 0 
L 1563 0 
L 1563 2247 
Q 1563 2631 1500 2765 
Q 1438 2900 1281 2900 
Q 1125 2900 1065 2769 
Q 1006 2638 1006 2247 
L 1006 0 
L 256 0 
L 256 3500 
L 922 3500 
L 922 3138 
Q 1000 3344 1172 3464 
Q 1344 3584 1556 3584 
Q 1769 3584 1944 3457 
Q 2119 3331 2156 3150 
z
" transform="scale(0.015625)"/>
     </defs>
     <use xlink:href="#DejaVuSansMono-Bold-44"/>
     <use xlink:href="#DejaVuSansMono-Bold-6f" x="60.205078"/>
     <use xlink:href="#DejaVuSansMono-Bold-73" x="120.410156"/>
     <use xlink:href="#DejaVuSansMono-Bold-65" x="180.615234"/>
     <use xlink:href="#DejaVuSansMono-Bold-20" x="240.820312"/>
     <use xlink:href="#DejaVuSansMono-Bold-52" x="301.025391"/>
     <use xlink:href="#DejaVuSansMono-Bold-61" x="361.230469"/>
     <use xlink:href="#DejaVuSansMono-Bold-74" x="421.435547"/>
     <use xlink:href="#DejaVuSansMono-Bold-65" x="481.640625"/>
     <use xlink:href="#DejaVuSansMono-Bold-20" x="541.845703"/>
     <use xlink:href="#DejaVuSansMono-Bold-76" x="602.050781"/>
     <use xlink:href="#DejaVuSansMono-Bold-73" x="662.255859"/>
     <use xlink:href="#DejaVuSansMono-Bold-20" x="722.460938"/>
     <use xlink:href="#DejaVuSansMono-Bold-54" x="782.666016"/>
     <use xlink:href="#DejaVuSansMono-Bold-69" x="842.871094"/>
     <use xlink:href="#DejaVuSansMono-Bold-6d" x="903.076172"/>
     <use xlink:href="#DejaVuSansMono-Bold-65" x="963.28125"/>
    </g>
   </g>
   <g id="legend_1">
    <g id="patch_7">
     <path d="M 229.156719 357.56625 
L 345.395781 357.56625 
Q 347.395781 357.56625 347.395781 355.56625 
L 347.395781 341.888125 
Q 347.395781 339.888125 345.395781 339.888125 
L 229.156719 339.888125 
Q 227.156719 339.888125 227.156719 341.888125 
L 227.156719 355.56625 
Q 227.156719 357.56625 229.156719 357.56625 
z
" style="fill: #ffffff; opacity: 0.8; stroke: #cccccc; stroke-linejoin: miter"/>
    </g>
    <g id="line2d_13">
     <path d="M 231.156719 347.986562 
L 241.156719 347.986562 
L 251.156719 347.986562 
" style="fill: none; stroke: #0000ff; stroke-width: 2; stroke-linecap: square"/>
     <g>
      <use xlink:href="#mcf6d9c0bd5" x="241.156719" y="347.986562" style="fill: #0000ff; stroke: #0000ff"/>
     </g>
    </g>
    <g id="text_16">
     <!-- Dose Rate (Sv/h) -->
     <g transform="translate(259.156719 351.486562)scale(0.1 -0.1)">
      <defs>
       <path id="DejaVuSans-44" d="M 1259 4147 
L 1259 519 
L 2022 519 
Q 2988 519 3436 956 
Q 3884 1394 3884 2338 
Q 3884 3275 3436 3711 
Q 2988 4147 2022 4147 
L 1259 4147 
z
M 628 4666 
L 1925 4666 
Q 3281 4666 3915 4102 
Q 4550 3538 4550 2338 
Q 4550 1131 3912 565 
Q 3275 0 1925 0 
L 628 0 
L 628 4666 
z
" transform="scale(0.015625)"/>
       <path id="DejaVuSans-6f" d="M 1959 3097 
Q 1497 3097 1228 2736 
Q 959 2375 959 1747 
Q 959 1119 1226 758 
Q 1494 397 1959 397 
Q 2419 397 2687 759 
Q 2956 1122 2956 1747 
Q 2956 2369 2687 2733 
Q 2419 3097 1959 3097 
z
M 1959 3584 
Q 2709 3584 3137 3096 
Q 3566 2609 3566 1747 
Q 3566 888 3137 398 
Q 2709 -91 1959 -91 
Q 1206 -91 779 398 
Q 353 888 353 1747 
Q 353 2609 779 3096 
Q 1206 3584 1959 3584 
z
" transform="scale(0.015625)"/>
       <path id="DejaVuSans-73" d="M 2834 3397 
L 2834 2853 
Q 2591 2978 2328 3040 
Q 2066 3103 1784 3103 
Q 1356 3103 1142 2972 
Q 928 2841 928 2578 
Q 928 2378 1081 2264 
Q 1234 2150 1697 2047 
L 1894 2003 
Q 2506 1872 2764 1633 
Q 3022 1394 3022 966 
Q 3022 478 2636 193 
Q 2250 -91 1575 -91 
Q 1294 -91 989 -36 
Q 684 19 347 128 
L 347 722 
Q 666 556 975 473 
Q 1284 391 1588 391 
Q 1994 391 2212 530 
Q 2431 669 2431 922 
Q 2431 1156 2273 1281 
Q 2116 1406 1581 1522 
L 1381 1569 
Q 847 1681 609 1914 
Q 372 2147 372 2553 
Q 372 3047 722 3315 
Q 1072 3584 1716 3584 
Q 2034 3584 2315 3537 
Q 2597 3491 2834 3397 
z
" transform="scale(0.015625)"/>
       <path id="DejaVuSans-20" transform="scale(0.015625)"/>
       <path id="DejaVuSans-52" d="M 2841 2188 
Q 3044 2119 3236 1894 
Q 3428 1669 3622 1275 
L 4263 0 
L 3584 0 
L 2988 1197 
Q 2756 1666 2539 1819 
Q 2322 1972 1947 1972 
L 1259 1972 
L 1259 0 
L 628 0 
L 628 4666 
L 2053 4666 
Q 2853 4666 3247 4331 
Q 3641 3997 3641 3322 
Q 3641 2881 3436 2590 
Q 3231 2300 2841 2188 
z
M 1259 4147 
L 1259 2491 
L 2053 2491 
Q 2509 2491 2742 2702 
Q 2975 2913 2975 3322 
Q 2975 3731 2742 3939 
Q 2509 4147 2053 4147 
L 1259 4147 
z
" transform="scale(0.015625)"/>
       <path id="DejaVuSans-61" d="M 2194 1759 
Q 1497 1759 1228 1600 
Q 959 1441 959 1056 
Q 959 750 1161 570 
Q 1363 391 1709 391 
Q 2188 391 2477 730 
Q 2766 1069 2766 1631 
L 2766 1759 
L 2194 1759 
z
M 3341 1997 
L 3341 0 
L 2766 0 
L 2766 531 
Q 2569 213 2275 61 
Q 1981 -91 1556 -91 
Q 1019 -91 701 211 
Q 384 513 384 1019 
Q 384 1609 779 1909 
Q 1175 2209 1959 2209 
L 2766 2209 
L 2766 2266 
Q 2766 2663 2505 2880 
Q 2244 3097 1772 3097 
Q 1472 3097 1187 3025 
Q 903 2953 641 2809 
L 641 3341 
Q 956 3463 1253 3523 
Q 1550 3584 1831 3584 
Q 2591 3584 2966 3190 
Q 3341 2797 3341 1997 
z
" transform="scale(0.015625)"/>
       <path id="DejaVuSans-74" d="M 1172 4494 
L 1172 3500 
L 2356 3500 
L 2356 3053 
L 1172 3053 
L 1172 1153 
Q 1172 725 1289 603 
Q 1406 481 1766 481 
L 2356 481 
L 2356 0 
L 1766 0 
Q 1100 0 847 248 
Q 594 497 594 1153 
L 594 3053 
L 172 3053 
L 172 3500 
L 594 3500 
L 594 4494 
L 1172 4494 
z
" transform="scale(0.015625)"/>
       <path id="DejaVuSans-28" d="M 1984 4856 
Q 1566 4138 1362 3434 
Q 1159 2731 1159 2009 
Q 1159 1288 1364 580 
Q 1569 -128 1984 -844 
L 1484 -844 
Q 1016 -109 783 600 
Q 550 1309 550 2009 
Q 550 2706 781 3412 
Q 1013 4119 1484 4856 
L 1984 4856 
z
" transform="scale(0.015625)"/>
       <path id="DejaVuSans-53" d="M 3425 4513 
L 3425 3897 
Q 3066 4069 2747 4153 
Q 2428 4238 2131 4238 
Q 1616 4238 1336 4038 
Q 1056 3838 1056 3469 
Q 1056 3159 1242 3001 
Q 1428 2844 1947 2747 
L 2328 2669 
Q 3034 2534 3370 2195 
Q 3706 1856 3706 1288 
Q 3706 609 3251 259 
Q 2797 -91 1919 -91 
Q 1588 -91 1214 -16 
Q 841 59 441 206 
L 441 856 
Q 825 641 1194 531 
Q 1563 422 1919 422 
Q 2459 422 2753 634 
Q 3047 847 3047 1241 
Q 3047 1584 2836 1778 
Q 2625 1972 2144 2069 
L 1759 2144 
Q 1053 2284 737 2584 
Q 422 2884 422 3419 
Q 422 4038 858 4394 
Q 1294 4750 2059 4750 
Q 2388 4750 2728 4690 
Q 3069 4631 3425 4513 
z
" transform="scale(0.015625)"/>
       <path id="DejaVuSans-76" d="M 191 3500 
L 800 3500 
L 1894 563 
L 2988 3500 
L 3597 3500 
L 2284 0 
L 1503 0 
L 191 3500 
z
" transform="scale(0.015625)"/>
       <path id="DejaVuSans-2f" d="M 1625 4666 
L 2156 4666 
L 531 -594 
L 0 -594 
L 1625 4666 
z
" transform="scale(0.015625)"/>
       <path id="DejaVuSans-68" d="M 3513 2113 
L 3513 0 
L 2938 0 
L 2938 2094 
Q 2938 2591 2744 2837 
Q 2550 3084 2163 3084 
Q 1697 3084 1428 2787 
Q 1159 2491 1159 1978 
L 1159 0 
L 581 0 
L 581 4863 
L 1159 4863 
L 1159 2956 
Q 1366 3272 1645 3428 
Q 1925 3584 2291 3584 
Q 2894 3584 3203 3211 
Q 3513 2838 3513 2113 
z
" transform="scale(0.015625)"/>
       <path id="DejaVuSans-29" d="M 513 4856 
L 1013 4856 
Q 1481 4119 1714 3412 
Q 1947 2706 1947 2009 
Q 1947 1309 1714 600 
Q 1481 -109 1013 -844 
L 513 -844 
Q 928 -128 1133 580 
Q 1338 1288 1338 2009 
Q 1338 2731 1133 3434 
Q 928 4138 513 4856 
z
" transform="scale(0.015625)"/>
      </defs>
      <use xlink:href="#DejaVuSans-44"/>
      <use xlink:href="#DejaVuSans-6f" x="77.001953"/>
      <use xlink:href="#DejaVuSans-73" x="138.183594"/>
      <use xlink:href="#DejaVuSans-65" x="190.283203"/>
      <use xlink:href="#DejaVuSans-20" x="251.806641"/>
      <use xlink:href="#DejaVuSans-52" x="283.59375"/>
      <use xlink:href="#DejaVuSans-61" x="350.826172"/>
      <use xlink:href="#DejaVuSans-74" x="412.105469"/>
      <use xlink:href="#DejaVuSans-65" x="451.314453"/>
      <use xlink:href="#DejaVuSans-20" x="512.837891"/>
      <use xlink:href="#DejaVuSans-28" x="544.625"/>
      <use xlink:href="#DejaVuSans-53" x="583.638672"/>
      <use xlink:href="#DejaVuSans-76" x="647.115234"/>
      <use xlink:href="#DejaVuSans-2f" x="706.294922"/>
      <use xlink:href="#DejaVuSans-68" x="739.986328"/>
      <use xlink:href="#DejaVuSans-29" x="803.365234"/>
     </g>
    </g>
   </g>
  </g>
 </g>
 <defs>
  <clipPath id="p7029397eae">
   <rect x="36.17625" y="22.318125" width="502.2" height="271.8"/>
  </clipPath>
 </defs>
</svg>
