<?xml version="1.0" encoding="utf-8" standalone="no"?>
<!DOCTYPE svg PUBLIC "-//W3C//DTD SVG 1.1//EN"
  "http://www.w3.org/Graphics/SVG/1.1/DTD/svg11.dtd">
<svg xmlns:xlink="http://www.w3.org/1999/xlink" width="432pt" height="288pt" viewBox="0 0 432 288" xmlns="http://www.w3.org/2000/svg" version="1.1">
 <metadata>
  <rdf:RDF xmlns:dc="http://purl.org/dc/elements/1.1/" xmlns:cc="http://creativecommons.org/ns#" xmlns:rdf="http://www.w3.org/1999/02/22-rdf-syntax-ns#">
   <cc:Work>
    <dc:type rdf:resource="http://purl.org/dc/dcmitype/StillImage"/>
    <dc:date>2024-12-04T21:30:41.522163</dc:date>
    <dc:format>image/svg+xml</dc:format>
    <dc:creator>
     <cc:Agent>
      <dc:title>Matplotlib v3.5.3, https://matplotlib.org/</dc:title>
     </cc:Agent>
    </dc:creator>
   </cc:Work>
  </rdf:RDF>
 </metadata>
 <defs>
  <style type="text/css">*{stroke-linejoin: round; stroke-linecap: butt}</style>
 </defs>
 <g id="figure_1">
  <g id="patch_1">
   <path d="M 0 288 
L 432 288 
L 432 0 
L 0 0 
z
" style="fill: #ffffff"/>
  </g>
  <g id="axes_1">
   <g id="patch_2">
    <path d="M 54 252 
L 388.8 252 
L 388.8 34.56 
L 54 34.56 
z
" style="fill: #ffffff"/>
   </g>
   <g id="PathCollection_1">
    <defs>
     <path id="m86e3298538" d="M 0 3 
C 0.795609 3 1.55874 2.683901 2.12132 2.12132 
C 2.683901 1.55874 3 0.795609 3 0 
C 3 -0.795609 2.683901 -1.55874 2.12132 -2.12132 
C 1.55874 -2.683901 0.795609 -3 0 -3 
C -0.795609 -3 -1.55874 -2.683901 -2.12132 -2.12132 
C -2.683901 -1.55874 -3 -0.795609 -3 0 
C -3 0.795609 -2.683901 1.55874 -2.12132 2.12132 
C -1.55874 2.683901 -0.795609 3 0 3 
z
" style="stroke: #1f77b4"/>
    </defs>
    <g clip-path="url(#p2221fcf11b)">
     <use xlink:href="#m86e3298538" x="69.218182" y="197.112442" style="fill: #1f77b4; stroke: #1f77b4"/>
     <use xlink:href="#m86e3298538" x="69.951588" y="201.419037" style="fill: #1f77b4; stroke: #1f77b4"/>
     <use xlink:href="#m86e3298538" x="70.684995" y="204.218324" style="fill: #1f77b4; stroke: #1f77b4"/>
     <use xlink:href="#m86e3298538" x="71.418401" y="205.079643" style="fill: #1f77b4; stroke: #1f77b4"/>
     <use xlink:href="#m86e3298538" x="72.151807" y="199.26574" style="fill: #1f77b4; stroke: #1f77b4"/>
     <use xlink:href="#m86e3298538" x="72.885214" y="193.236506" style="fill: #1f77b4; stroke: #1f77b4"/>
     <use xlink:href="#m86e3298538" x="74.352026" y="201.849697" style="fill: #1f77b4; stroke: #1f77b4"/>
     <use xlink:href="#m86e3298538" x="76.552245" y="201.849697" style="fill: #1f77b4; stroke: #1f77b4"/>
     <use xlink:href="#m86e3298538" x="78.019058" y="207.87893" style="fill: #1f77b4; stroke: #1f77b4"/>
     <use xlink:href="#m86e3298538" x="80.219277" y="192.159857" style="fill: #1f77b4; stroke: #1f77b4"/>
     <use xlink:href="#m86e3298538" x="81.68609" y="199.911729" style="fill: #1f77b4; stroke: #1f77b4"/>
     <use xlink:href="#m86e3298538" x="83.886309" y="205.510303" style="fill: #1f77b4; stroke: #1f77b4"/>
     <use xlink:href="#m86e3298538" x="86.086528" y="193.667166" style="fill: #1f77b4; stroke: #1f77b4"/>
     <use xlink:href="#m86e3298538" x="86.819934" y="193.667166" style="fill: #1f77b4; stroke: #1f77b4"/>
     <use xlink:href="#m86e3298538" x="87.553341" y="127.130267" style="fill: #1f77b4; stroke: #1f77b4"/>
     <use xlink:href="#m86e3298538" x="89.020153" y="127.130267" style="fill: #1f77b4; stroke: #1f77b4"/>
     <use xlink:href="#m86e3298538" x="89.75356" y="44.443636" style="fill: #1f77b4; stroke: #1f77b4"/>
     <use xlink:href="#m86e3298538" x="90.486966" y="44.443636" style="fill: #1f77b4; stroke: #1f77b4"/>
     <use xlink:href="#m86e3298538" x="91.220372" y="157.707094" style="fill: #1f77b4; stroke: #1f77b4"/>
     <use xlink:href="#m86e3298538" x="92.687185" y="157.707094" style="fill: #1f77b4; stroke: #1f77b4"/>
     <use xlink:href="#m86e3298538" x="94.887404" y="111.411194" style="fill: #1f77b4; stroke: #1f77b4"/>
     <use xlink:href="#m86e3298538" x="97.087623" y="156.415116" style="fill: #1f77b4; stroke: #1f77b4"/>
     <use xlink:href="#m86e3298538" x="98.554436" y="179.024742" style="fill: #1f77b4; stroke: #1f77b4"/>
     <use xlink:href="#m86e3298538" x="100.754655" y="161.79836" style="fill: #1f77b4; stroke: #1f77b4"/>
     <use xlink:href="#m86e3298538" x="102.954874" y="190.867879" style="fill: #1f77b4; stroke: #1f77b4"/>
     <use xlink:href="#m86e3298538" x="104.421687" y="197.112442" style="fill: #1f77b4; stroke: #1f77b4"/>
     <use xlink:href="#m86e3298538" x="106.621906" y="203.141676" style="fill: #1f77b4; stroke: #1f77b4"/>
     <use xlink:href="#m86e3298538" x="108.088719" y="214.338824" style="fill: #1f77b4; stroke: #1f77b4"/>
     <use xlink:href="#m86e3298538" x="110.288938" y="217.138111" style="fill: #1f77b4; stroke: #1f77b4"/>
     <use xlink:href="#m86e3298538" x="112.489157" y="225.320642" style="fill: #1f77b4; stroke: #1f77b4"/>
     <use xlink:href="#m86e3298538" x="113.222563" y="224.028663" style="fill: #1f77b4; stroke: #1f77b4"/>
     <use xlink:href="#m86e3298538" x="114.689376" y="228.550588" style="fill: #1f77b4; stroke: #1f77b4"/>
     <use xlink:href="#m86e3298538" x="116.889595" y="229.411907" style="fill: #1f77b4; stroke: #1f77b4"/>
     <use xlink:href="#m86e3298538" x="117.623001" y="88.801569" style="fill: #1f77b4; stroke: #1f77b4"/>
     <use xlink:href="#m86e3298538" x="120.556627" y="231.349875" style="fill: #1f77b4; stroke: #1f77b4"/>
     <use xlink:href="#m86e3298538" x="122.756846" y="232.211194" style="fill: #1f77b4; stroke: #1f77b4"/>
     <use xlink:href="#m86e3298538" x="124.957065" y="233.718503" style="fill: #1f77b4; stroke: #1f77b4"/>
     <use xlink:href="#m86e3298538" x="125.690471" y="225.320642" style="fill: #1f77b4; stroke: #1f77b4"/>
     <use xlink:href="#m86e3298538" x="126.423877" y="225.320642" style="fill: #1f77b4; stroke: #1f77b4"/>
     <use xlink:href="#m86e3298538" x="127.157284" y="225.320642" style="fill: #1f77b4; stroke: #1f77b4"/>
     <use xlink:href="#m86e3298538" x="128.624096" y="225.320642" style="fill: #1f77b4; stroke: #1f77b4"/>
     <use xlink:href="#m86e3298538" x="129.357503" y="234.795152" style="fill: #1f77b4; stroke: #1f77b4"/>
     <use xlink:href="#m86e3298538" x="130.824315" y="225.105312" style="fill: #1f77b4; stroke: #1f77b4"/>
     <use xlink:href="#m86e3298538" x="131.557722" y="191.083209" style="fill: #1f77b4; stroke: #1f77b4"/>
     <use xlink:href="#m86e3298538" x="132.291128" y="190.867879" style="fill: #1f77b4; stroke: #1f77b4"/>
     <use xlink:href="#m86e3298538" x="133.024535" y="190.867879" style="fill: #1f77b4; stroke: #1f77b4"/>
     <use xlink:href="#m86e3298538" x="134.491347" y="242.116364" style="fill: #1f77b4; stroke: #1f77b4"/>
     <use xlink:href="#m86e3298538" x="135.95816" y="225.320642" style="fill: #1f77b4; stroke: #1f77b4"/>
     <use xlink:href="#m86e3298538" x="136.691566" y="242.116364" style="fill: #1f77b4; stroke: #1f77b4"/>
     <use xlink:href="#m86e3298538" x="137.424973" y="225.320642" style="fill: #1f77b4; stroke: #1f77b4"/>
     <use xlink:href="#m86e3298538" x="138.158379" y="225.320642" style="fill: #1f77b4; stroke: #1f77b4"/>
     <use xlink:href="#m86e3298538" x="138.891785" y="225.320642" style="fill: #1f77b4; stroke: #1f77b4"/>
     <use xlink:href="#m86e3298538" x="141.092004" y="225.320642" style="fill: #1f77b4; stroke: #1f77b4"/>
     <use xlink:href="#m86e3298538" x="141.825411" y="225.320642" style="fill: #1f77b4; stroke: #1f77b4"/>
     <use xlink:href="#m86e3298538" x="142.558817" y="225.320642" style="fill: #1f77b4; stroke: #1f77b4"/>
     <use xlink:href="#m86e3298538" x="143.292223" y="225.320642" style="fill: #1f77b4; stroke: #1f77b4"/>
     <use xlink:href="#m86e3298538" x="144.02563" y="236.08713" style="fill: #1f77b4; stroke: #1f77b4"/>
     <use xlink:href="#m86e3298538" x="146.225849" y="225.320642" style="fill: #1f77b4; stroke: #1f77b4"/>
     <use xlink:href="#m86e3298538" x="146.959255" y="237.379109" style="fill: #1f77b4; stroke: #1f77b4"/>
     <use xlink:href="#m86e3298538" x="147.692662" y="225.320642" style="fill: #1f77b4; stroke: #1f77b4"/>
     <use xlink:href="#m86e3298538" x="149.159474" y="225.105312" style="fill: #1f77b4; stroke: #1f77b4"/>
     <use xlink:href="#m86e3298538" x="149.892881" y="193.667166" style="fill: #1f77b4; stroke: #1f77b4"/>
     <use xlink:href="#m86e3298538" x="150.626287" y="202.065027" style="fill: #1f77b4; stroke: #1f77b4"/>
     <use xlink:href="#m86e3298538" x="151.359693" y="106.889269" style="fill: #1f77b4; stroke: #1f77b4"/>
     <use xlink:href="#m86e3298538" x="152.826506" y="234.149162" style="fill: #1f77b4; stroke: #1f77b4"/>
     <use xlink:href="#m86e3298538" x="154.293319" y="234.149162" style="fill: #1f77b4; stroke: #1f77b4"/>
     <use xlink:href="#m86e3298538" x="155.026725" y="48.319572" style="fill: #1f77b4; stroke: #1f77b4"/>
     <use xlink:href="#m86e3298538" x="155.760131" y="48.319572" style="fill: #1f77b4; stroke: #1f77b4"/>
     <use xlink:href="#m86e3298538" x="156.493538" y="236.08713" style="fill: #1f77b4; stroke: #1f77b4"/>
     <use xlink:href="#m86e3298538" x="157.226944" y="222.736684" style="fill: #1f77b4; stroke: #1f77b4"/>
     <use xlink:href="#m86e3298538" x="157.96035" y="225.320642" style="fill: #1f77b4; stroke: #1f77b4"/>
     <use xlink:href="#m86e3298538" x="158.693757" y="236.08713" style="fill: #1f77b4; stroke: #1f77b4"/>
     <use xlink:href="#m86e3298538" x="160.893976" y="216.061462" style="fill: #1f77b4; stroke: #1f77b4"/>
     <use xlink:href="#m86e3298538" x="162.360789" y="216.061462" style="fill: #1f77b4; stroke: #1f77b4"/>
     <use xlink:href="#m86e3298538" x="163.094195" y="218.645419" style="fill: #1f77b4; stroke: #1f77b4"/>
     <use xlink:href="#m86e3298538" x="163.827601" y="225.320642" style="fill: #1f77b4; stroke: #1f77b4"/>
     <use xlink:href="#m86e3298538" x="164.561008" y="225.320642" style="fill: #1f77b4; stroke: #1f77b4"/>
     <use xlink:href="#m86e3298538" x="165.294414" y="92.677504" style="fill: #1f77b4; stroke: #1f77b4"/>
     <use xlink:href="#m86e3298538" x="166.02782" y="218.645419" style="fill: #1f77b4; stroke: #1f77b4"/>
     <use xlink:href="#m86e3298538" x="166.761227" y="187.422602" style="fill: #1f77b4; stroke: #1f77b4"/>
     <use xlink:href="#m86e3298538" x="167.494633" y="187.422602" style="fill: #1f77b4; stroke: #1f77b4"/>
     <use xlink:href="#m86e3298538" x="167.494633" y="182.470018" style="fill: #1f77b4; stroke: #1f77b4"/>
     <use xlink:href="#m86e3298538" x="168.228039" y="235.8718" style="fill: #1f77b4; stroke: #1f77b4"/>
     <use xlink:href="#m86e3298538" x="168.961446" y="235.010481" style="fill: #1f77b4; stroke: #1f77b4"/>
     <use xlink:href="#m86e3298538" x="170.428258" y="112.057184" style="fill: #1f77b4; stroke: #1f77b4"/>
     <use xlink:href="#m86e3298538" x="171.161665" y="235.010481" style="fill: #1f77b4; stroke: #1f77b4"/>
     <use xlink:href="#m86e3298538" x="172.628478" y="213.477504" style="fill: #1f77b4; stroke: #1f77b4"/>
     <use xlink:href="#m86e3298538" x="173.361884" y="223.382674" style="fill: #1f77b4; stroke: #1f77b4"/>
     <use xlink:href="#m86e3298538" x="174.09529" y="235.441141" style="fill: #1f77b4; stroke: #1f77b4"/>
     <use xlink:href="#m86e3298538" x="174.828697" y="235.8718" style="fill: #1f77b4; stroke: #1f77b4"/>
     <use xlink:href="#m86e3298538" x="176.295509" y="232.857184" style="fill: #1f77b4; stroke: #1f77b4"/>
     <use xlink:href="#m86e3298538" x="177.028916" y="232.857184" style="fill: #1f77b4; stroke: #1f77b4"/>
     <use xlink:href="#m86e3298538" x="177.762322" y="119.163066" style="fill: #1f77b4; stroke: #1f77b4"/>
     <use xlink:href="#m86e3298538" x="179.229135" y="232.857184" style="fill: #1f77b4; stroke: #1f77b4"/>
     <use xlink:href="#m86e3298538" x="179.962541" y="138.758075" style="fill: #1f77b4; stroke: #1f77b4"/>
     <use xlink:href="#m86e3298538" x="180.695947" y="138.758075" style="fill: #1f77b4; stroke: #1f77b4"/>
     <use xlink:href="#m86e3298538" x="181.429354" y="233.933832" style="fill: #1f77b4; stroke: #1f77b4"/>
     <use xlink:href="#m86e3298538" x="182.16276" y="95.907451" style="fill: #1f77b4; stroke: #1f77b4"/>
     <use xlink:href="#m86e3298538" x="182.896166" y="233.933832" style="fill: #1f77b4; stroke: #1f77b4"/>
     <use xlink:href="#m86e3298538" x="183.629573" y="196.681783" style="fill: #1f77b4; stroke: #1f77b4"/>
     <use xlink:href="#m86e3298538" x="184.362979" y="196.681783" style="fill: #1f77b4; stroke: #1f77b4"/>
     <use xlink:href="#m86e3298538" x="185.096386" y="188.929911" style="fill: #1f77b4; stroke: #1f77b4"/>
     <use xlink:href="#m86e3298538" x="185.829792" y="188.929911" style="fill: #1f77b4; stroke: #1f77b4"/>
     <use xlink:href="#m86e3298538" x="186.563198" y="194.313155" style="fill: #1f77b4; stroke: #1f77b4"/>
     <use xlink:href="#m86e3298538" x="187.296605" y="194.313155" style="fill: #1f77b4; stroke: #1f77b4"/>
     <use xlink:href="#m86e3298538" x="188.030011" y="131.867522" style="fill: #1f77b4; stroke: #1f77b4"/>
     <use xlink:href="#m86e3298538" x="188.763417" y="131.867522" style="fill: #1f77b4; stroke: #1f77b4"/>
     <use xlink:href="#m86e3298538" x="189.496824" y="111.195865" style="fill: #1f77b4; stroke: #1f77b4"/>
     <use xlink:href="#m86e3298538" x="190.23023" y="111.195865" style="fill: #1f77b4; stroke: #1f77b4"/>
     <use xlink:href="#m86e3298538" x="190.963636" y="166.104955" style="fill: #1f77b4; stroke: #1f77b4"/>
     <use xlink:href="#m86e3298538" x="191.697043" y="166.104955" style="fill: #1f77b4; stroke: #1f77b4"/>
     <use xlink:href="#m86e3298538" x="192.430449" y="178.809412" style="fill: #1f77b4; stroke: #1f77b4"/>
     <use xlink:href="#m86e3298538" x="193.163855" y="178.809412" style="fill: #1f77b4; stroke: #1f77b4"/>
     <use xlink:href="#m86e3298538" x="193.897262" y="184.407986" style="fill: #1f77b4; stroke: #1f77b4"/>
     <use xlink:href="#m86e3298538" x="194.630668" y="191.729198" style="fill: #1f77b4; stroke: #1f77b4"/>
     <use xlink:href="#m86e3298538" x="196.097481" y="186.561283" style="fill: #1f77b4; stroke: #1f77b4"/>
     <use xlink:href="#m86e3298538" x="196.830887" y="186.561283" style="fill: #1f77b4; stroke: #1f77b4"/>
     <use xlink:href="#m86e3298538" x="197.564294" y="166.535615" style="fill: #1f77b4; stroke: #1f77b4"/>
     <use xlink:href="#m86e3298538" x="198.2977" y="166.535615" style="fill: #1f77b4; stroke: #1f77b4"/>
     <use xlink:href="#m86e3298538" x="199.031106" y="183.331337" style="fill: #1f77b4; stroke: #1f77b4"/>
     <use xlink:href="#m86e3298538" x="199.764513" y="183.331337" style="fill: #1f77b4; stroke: #1f77b4"/>
     <use xlink:href="#m86e3298538" x="200.497919" y="96.76877" style="fill: #1f77b4; stroke: #1f77b4"/>
     <use xlink:href="#m86e3298538" x="201.231325" y="96.76877" style="fill: #1f77b4; stroke: #1f77b4"/>
     <use xlink:href="#m86e3298538" x="201.964732" y="233.503173" style="fill: #1f77b4; stroke: #1f77b4"/>
     <use xlink:href="#m86e3298538" x="202.698138" y="181.178039" style="fill: #1f77b4; stroke: #1f77b4"/>
     <use xlink:href="#m86e3298538" x="204.164951" y="233.503173" style="fill: #1f77b4; stroke: #1f77b4"/>
     <use xlink:href="#m86e3298538" x="204.898357" y="115.71779" style="fill: #1f77b4; stroke: #1f77b4"/>
     <use xlink:href="#m86e3298538" x="205.631763" y="152.96984" style="fill: #1f77b4; stroke: #1f77b4"/>
     <use xlink:href="#m86e3298538" x="206.36517" y="197.973761" style="fill: #1f77b4; stroke: #1f77b4"/>
     <use xlink:href="#m86e3298538" x="207.831982" y="231.349875" style="fill: #1f77b4; stroke: #1f77b4"/>
     <use xlink:href="#m86e3298538" x="210.765608" y="129.714225" style="fill: #1f77b4; stroke: #1f77b4"/>
     <use xlink:href="#m86e3298538" x="211.499014" y="232.426524" style="fill: #1f77b4; stroke: #1f77b4"/>
     <use xlink:href="#m86e3298538" x="212.965827" y="232.426524" style="fill: #1f77b4; stroke: #1f77b4"/>
     <use xlink:href="#m86e3298538" x="215.166046" y="199.26574" style="fill: #1f77b4; stroke: #1f77b4"/>
     <use xlink:href="#m86e3298538" x="216.632859" y="195.820463" style="fill: #1f77b4; stroke: #1f77b4"/>
     <use xlink:href="#m86e3298538" x="217.366265" y="195.820463" style="fill: #1f77b4; stroke: #1f77b4"/>
     <use xlink:href="#m86e3298538" x="218.099671" y="199.26574" style="fill: #1f77b4; stroke: #1f77b4"/>
     <use xlink:href="#m86e3298538" x="218.833078" y="123.900321" style="fill: #1f77b4; stroke: #1f77b4"/>
     <use xlink:href="#m86e3298538" x="219.566484" y="123.900321" style="fill: #1f77b4; stroke: #1f77b4"/>
     <use xlink:href="#m86e3298538" x="220.29989" y="48.319572" style="fill: #1f77b4; stroke: #1f77b4"/>
     <use xlink:href="#m86e3298538" x="221.033297" y="48.319572" style="fill: #1f77b4; stroke: #1f77b4"/>
     <use xlink:href="#m86e3298538" x="223.233516" y="231.780535" style="fill: #1f77b4; stroke: #1f77b4"/>
     <use xlink:href="#m86e3298538" x="224.700329" y="238.025098" style="fill: #1f77b4; stroke: #1f77b4"/>
     <use xlink:href="#m86e3298538" x="226.900548" y="238.025098" style="fill: #1f77b4; stroke: #1f77b4"/>
     <use xlink:href="#m86e3298538" x="229.100767" y="229.411907" style="fill: #1f77b4; stroke: #1f77b4"/>
     <use xlink:href="#m86e3298538" x="232.034392" y="229.196578" style="fill: #1f77b4; stroke: #1f77b4"/>
     <use xlink:href="#m86e3298538" x="233.501205" y="88.586239" style="fill: #1f77b4; stroke: #1f77b4"/>
     <use xlink:href="#m86e3298538" x="234.234611" y="230.919216" style="fill: #1f77b4; stroke: #1f77b4"/>
     <use xlink:href="#m86e3298538" x="236.43483" y="228.765918" style="fill: #1f77b4; stroke: #1f77b4"/>
     <use xlink:href="#m86e3298538" x="238.635049" y="232.857184" style="fill: #1f77b4; stroke: #1f77b4"/>
     <use xlink:href="#m86e3298538" x="240.101862" y="199.05041" style="fill: #1f77b4; stroke: #1f77b4"/>
     <use xlink:href="#m86e3298538" x="240.835268" y="199.05041" style="fill: #1f77b4; stroke: #1f77b4"/>
     <use xlink:href="#m86e3298538" x="241.568675" y="208.09426" style="fill: #1f77b4; stroke: #1f77b4"/>
     <use xlink:href="#m86e3298538" x="243.035487" y="208.09426" style="fill: #1f77b4; stroke: #1f77b4"/>
     <use xlink:href="#m86e3298538" x="243.768894" y="235.8718" style="fill: #1f77b4; stroke: #1f77b4"/>
     <use xlink:href="#m86e3298538" x="244.5023" y="225.320642" style="fill: #1f77b4; stroke: #1f77b4"/>
     <use xlink:href="#m86e3298538" x="245.969113" y="235.8718" style="fill: #1f77b4; stroke: #1f77b4"/>
     <use xlink:href="#m86e3298538" x="246.702519" y="224.243993" style="fill: #1f77b4; stroke: #1f77b4"/>
     <use xlink:href="#m86e3298538" x="247.435926" y="225.320642" style="fill: #1f77b4; stroke: #1f77b4"/>
     <use xlink:href="#m86e3298538" x="248.902738" y="218.860749" style="fill: #1f77b4; stroke: #1f77b4"/>
     <use xlink:href="#m86e3298538" x="249.636145" y="218.860749" style="fill: #1f77b4; stroke: #1f77b4"/>
     <use xlink:href="#m86e3298538" x="250.369551" y="238.240428" style="fill: #1f77b4; stroke: #1f77b4"/>
     <use xlink:href="#m86e3298538" x="251.836364" y="238.240428" style="fill: #1f77b4; stroke: #1f77b4"/>
     <use xlink:href="#m86e3298538" x="253.303176" y="225.105312" style="fill: #1f77b4; stroke: #1f77b4"/>
     <use xlink:href="#m86e3298538" x="254.769989" y="235.8718" style="fill: #1f77b4; stroke: #1f77b4"/>
     <use xlink:href="#m86e3298538" x="256.236802" y="200.127059" style="fill: #1f77b4; stroke: #1f77b4"/>
     <use xlink:href="#m86e3298538" x="256.970208" y="200.127059" style="fill: #1f77b4; stroke: #1f77b4"/>
     <use xlink:href="#m86e3298538" x="257.703614" y="141.557362" style="fill: #1f77b4; stroke: #1f77b4"/>
     <use xlink:href="#m86e3298538" x="258.437021" y="141.557362" style="fill: #1f77b4; stroke: #1f77b4"/>
     <use xlink:href="#m86e3298538" x="259.903834" y="197.973761" style="fill: #1f77b4; stroke: #1f77b4"/>
     <use xlink:href="#m86e3298538" x="260.63724" y="129.068235" style="fill: #1f77b4; stroke: #1f77b4"/>
     <use xlink:href="#m86e3298538" x="261.370646" y="154.692478" style="fill: #1f77b4; stroke: #1f77b4"/>
     <use xlink:href="#m86e3298538" x="262.104053" y="197.973761" style="fill: #1f77b4; stroke: #1f77b4"/>
     <use xlink:href="#m86e3298538" x="262.837459" y="110.980535" style="fill: #1f77b4; stroke: #1f77b4"/>
     <use xlink:href="#m86e3298538" x="263.570865" y="110.980535" style="fill: #1f77b4; stroke: #1f77b4"/>
     <use xlink:href="#m86e3298538" x="265.037678" y="233.718503" style="fill: #1f77b4; stroke: #1f77b4"/>
     <use xlink:href="#m86e3298538" x="265.771084" y="134.02082" style="fill: #1f77b4; stroke: #1f77b4"/>
     <use xlink:href="#m86e3298538" x="266.504491" y="233.718503" style="fill: #1f77b4; stroke: #1f77b4"/>
     <use xlink:href="#m86e3298538" x="268.70471" y="229.627237" style="fill: #1f77b4; stroke: #1f77b4"/>
     <use xlink:href="#m86e3298538" x="273.105148" y="226.82795" style="fill: #1f77b4; stroke: #1f77b4"/>
     <use xlink:href="#m86e3298538" x="274.571961" y="224.889982" style="fill: #1f77b4; stroke: #1f77b4"/>
     <use xlink:href="#m86e3298538" x="276.77218" y="216.707451" style="fill: #1f77b4; stroke: #1f77b4"/>
     <use xlink:href="#m86e3298538" x="278.238992" y="204.864314" style="fill: #1f77b4; stroke: #1f77b4"/>
     <use xlink:href="#m86e3298538" x="279.705805" y="201.849697" style="fill: #1f77b4; stroke: #1f77b4"/>
     <use xlink:href="#m86e3298538" x="281.172618" y="134.45148" style="fill: #1f77b4; stroke: #1f77b4"/>
     <use xlink:href="#m86e3298538" x="281.906024" y="134.45148" style="fill: #1f77b4; stroke: #1f77b4"/>
     <use xlink:href="#m86e3298538" x="282.63943" y="44.443636" style="fill: #1f77b4; stroke: #1f77b4"/>
     <use xlink:href="#m86e3298538" x="283.372837" y="44.443636" style="fill: #1f77b4; stroke: #1f77b4"/>
     <use xlink:href="#m86e3298538" x="284.106243" y="158.353084" style="fill: #1f77b4; stroke: #1f77b4"/>
     <use xlink:href="#m86e3298538" x="285.573056" y="158.353084" style="fill: #1f77b4; stroke: #1f77b4"/>
     <use xlink:href="#m86e3298538" x="286.306462" y="178.594082" style="fill: #1f77b4; stroke: #1f77b4"/>
     <use xlink:href="#m86e3298538" x="287.773275" y="178.594082" style="fill: #1f77b4; stroke: #1f77b4"/>
     <use xlink:href="#m86e3298538" x="289.973494" y="168.258253" style="fill: #1f77b4; stroke: #1f77b4"/>
     <use xlink:href="#m86e3298538" x="291.440307" y="128.637576" style="fill: #1f77b4; stroke: #1f77b4"/>
     <use xlink:href="#m86e3298538" x="293.640526" y="115.28713" style="fill: #1f77b4; stroke: #1f77b4"/>
     <use xlink:href="#m86e3298538" x="295.107338" y="138.112086" style="fill: #1f77b4; stroke: #1f77b4"/>
     <use xlink:href="#m86e3298538" x="296.574151" y="84.064314" style="fill: #1f77b4; stroke: #1f77b4"/>
     <use xlink:href="#m86e3298538" x="298.040964" y="129.498895" style="fill: #1f77b4; stroke: #1f77b4"/>
     <use xlink:href="#m86e3298538" x="298.77437" y="215.415472" style="fill: #1f77b4; stroke: #1f77b4"/>
     <use xlink:href="#m86e3298538" x="300.241183" y="215.415472" style="fill: #1f77b4; stroke: #1f77b4"/>
     <use xlink:href="#m86e3298538" x="302.441402" y="207.663601" style="fill: #1f77b4; stroke: #1f77b4"/>
     <use xlink:href="#m86e3298538" x="304.641621" y="211.324207" style="fill: #1f77b4; stroke: #1f77b4"/>
     <use xlink:href="#m86e3298538" x="306.108434" y="206.156292" style="fill: #1f77b4; stroke: #1f77b4"/>
     <use xlink:href="#m86e3298538" x="308.308653" y="207.017611" style="fill: #1f77b4; stroke: #1f77b4"/>
     <use xlink:href="#m86e3298538" x="310.508872" y="208.74025" style="fill: #1f77b4; stroke: #1f77b4"/>
     <use xlink:href="#m86e3298538" x="311.975685" y="205.510303" style="fill: #1f77b4; stroke: #1f77b4"/>
     <use xlink:href="#m86e3298538" x="314.175904" y="206.371622" style="fill: #1f77b4; stroke: #1f77b4"/>
     <use xlink:href="#m86e3298538" x="315.642716" y="208.30959" style="fill: #1f77b4; stroke: #1f77b4"/>
     <use xlink:href="#m86e3298538" x="317.842935" y="202.280357" style="fill: #1f77b4; stroke: #1f77b4"/>
     <use xlink:href="#m86e3298538" x="320.043154" y="207.448271" style="fill: #1f77b4; stroke: #1f77b4"/>
     <use xlink:href="#m86e3298538" x="321.509967" y="207.663601" style="fill: #1f77b4; stroke: #1f77b4"/>
     <use xlink:href="#m86e3298538" x="323.710186" y="209.386239" style="fill: #1f77b4; stroke: #1f77b4"/>
     <use xlink:href="#m86e3298538" x="325.176999" y="212.400856" style="fill: #1f77b4; stroke: #1f77b4"/>
     <use xlink:href="#m86e3298538" x="327.377218" y="207.663601" style="fill: #1f77b4; stroke: #1f77b4"/>
     <use xlink:href="#m86e3298538" x="329.577437" y="207.017611" style="fill: #1f77b4; stroke: #1f77b4"/>
     <use xlink:href="#m86e3298538" x="331.04425" y="208.74025" style="fill: #1f77b4; stroke: #1f77b4"/>
     <use xlink:href="#m86e3298538" x="333.244469" y="207.663601" style="fill: #1f77b4; stroke: #1f77b4"/>
     <use xlink:href="#m86e3298538" x="334.711281" y="213.046845" style="fill: #1f77b4; stroke: #1f77b4"/>
     <use xlink:href="#m86e3298538" x="336.911501" y="206.156292" style="fill: #1f77b4; stroke: #1f77b4"/>
     <use xlink:href="#m86e3298538" x="339.11172" y="209.601569" style="fill: #1f77b4; stroke: #1f77b4"/>
     <use xlink:href="#m86e3298538" x="340.578532" y="205.940963" style="fill: #1f77b4; stroke: #1f77b4"/>
     <use xlink:href="#m86e3298538" x="342.778751" y="207.87893" style="fill: #1f77b4; stroke: #1f77b4"/>
     <use xlink:href="#m86e3298538" x="344.245564" y="213.262175" style="fill: #1f77b4; stroke: #1f77b4"/>
     <use xlink:href="#m86e3298538" x="346.445783" y="210.678217" style="fill: #1f77b4; stroke: #1f77b4"/>
     <use xlink:href="#m86e3298538" x="348.646002" y="207.663601" style="fill: #1f77b4; stroke: #1f77b4"/>
     <use xlink:href="#m86e3298538" x="350.112815" y="208.955579" style="fill: #1f77b4; stroke: #1f77b4"/>
     <use xlink:href="#m86e3298538" x="352.313034" y="206.586952" style="fill: #1f77b4; stroke: #1f77b4"/>
     <use xlink:href="#m86e3298538" x="353.779847" y="210.678217" style="fill: #1f77b4; stroke: #1f77b4"/>
     <use xlink:href="#m86e3298538" x="355.980066" y="206.156292" style="fill: #1f77b4; stroke: #1f77b4"/>
     <use xlink:href="#m86e3298538" x="358.180285" y="207.87893" style="fill: #1f77b4; stroke: #1f77b4"/>
     <use xlink:href="#m86e3298538" x="359.647097" y="208.74025" style="fill: #1f77b4; stroke: #1f77b4"/>
     <use xlink:href="#m86e3298538" x="361.847317" y="212.616185" style="fill: #1f77b4; stroke: #1f77b4"/>
     <use xlink:href="#m86e3298538" x="363.314129" y="203.141676" style="fill: #1f77b4; stroke: #1f77b4"/>
     <use xlink:href="#m86e3298538" x="365.514348" y="197.973761" style="fill: #1f77b4; stroke: #1f77b4"/>
     <use xlink:href="#m86e3298538" x="366.247755" y="197.973761" style="fill: #1f77b4; stroke: #1f77b4"/>
     <use xlink:href="#m86e3298538" x="366.981161" y="145.648627" style="fill: #1f77b4; stroke: #1f77b4"/>
     <use xlink:href="#m86e3298538" x="367.714567" y="145.648627" style="fill: #1f77b4; stroke: #1f77b4"/>
     <use xlink:href="#m86e3298538" x="368.447974" y="197.112442" style="fill: #1f77b4; stroke: #1f77b4"/>
     <use xlink:href="#m86e3298538" x="369.18138" y="197.112442" style="fill: #1f77b4; stroke: #1f77b4"/>
     <use xlink:href="#m86e3298538" x="369.914786" y="209.816898" style="fill: #1f77b4; stroke: #1f77b4"/>
     <use xlink:href="#m86e3298538" x="371.381599" y="209.816898" style="fill: #1f77b4; stroke: #1f77b4"/>
     <use xlink:href="#m86e3298538" x="372.115005" y="198.61975" style="fill: #1f77b4; stroke: #1f77b4"/>
     <use xlink:href="#m86e3298538" x="373.581818" y="199.911729" style="fill: #1f77b4; stroke: #1f77b4"/>
    </g>
   </g>
   <g id="matplotlib.axis_1">
    <g id="xtick_1">
     <g id="line2d_1">
      <defs>
       <path id="ma9b27e63eb" d="M 0 0 
L 0 3.5 
" style="stroke: #000000; stroke-width: 0.8"/>
      </defs>
      <g>
       <use xlink:href="#ma9b27e63eb" x="69.218182" y="252" style="stroke: #000000; stroke-width: 0.8"/>
      </g>
     </g>
     <g id="text_1">
      <!-- 08:43:41.826 -->
      <g transform="translate(35.629119 266.598437)scale(0.1 -0.1)">
       <defs>
        <path id="DejaVuSans-30" d="M 2034 4250 
Q 1547 4250 1301 3770 
Q 1056 3291 1056 2328 
Q 1056 1369 1301 889 
Q 1547 409 2034 409 
Q 2525 409 2770 889 
Q 3016 1369 3016 2328 
Q 3016 3291 2770 3770 
Q 2525 4250 2034 4250 
z
M 2034 4750 
Q 2819 4750 3233 4129 
Q 3647 3509 3647 2328 
Q 3647 1150 3233 529 
Q 2819 -91 2034 -91 
Q 1250 -91 836 529 
Q 422 1150 422 2328 
Q 422 3509 836 4129 
Q 1250 4750 2034 4750 
z
" transform="scale(0.015625)"/>
        <path id="DejaVuSans-38" d="M 2034 2216 
Q 1584 2216 1326 1975 
Q 1069 1734 1069 1313 
Q 1069 891 1326 650 
Q 1584 409 2034 409 
Q 2484 409 2743 651 
Q 3003 894 3003 1313 
Q 3003 1734 2745 1975 
Q 2488 2216 2034 2216 
z
M 1403 2484 
Q 997 2584 770 2862 
Q 544 3141 544 3541 
Q 544 4100 942 4425 
Q 1341 4750 2034 4750 
Q 2731 4750 3128 4425 
Q 3525 4100 3525 3541 
Q 3525 3141 3298 2862 
Q 3072 2584 2669 2484 
Q 3125 2378 3379 2068 
Q 3634 1759 3634 1313 
Q 3634 634 3220 271 
Q 2806 -91 2034 -91 
Q 1263 -91 848 271 
Q 434 634 434 1313 
Q 434 1759 690 2068 
Q 947 2378 1403 2484 
z
M 1172 3481 
Q 1172 3119 1398 2916 
Q 1625 2713 2034 2713 
Q 2441 2713 2670 2916 
Q 2900 3119 2900 3481 
Q 2900 3844 2670 4047 
Q 2441 4250 2034 4250 
Q 1625 4250 1398 4047 
Q 1172 3844 1172 3481 
z
" transform="scale(0.015625)"/>
        <path id="DejaVuSans-3a" d="M 750 794 
L 1409 794 
L 1409 0 
L 750 0 
L 750 794 
z
M 750 3309 
L 1409 3309 
L 1409 2516 
L 750 2516 
L 750 3309 
z
" transform="scale(0.015625)"/>
        <path id="DejaVuSans-34" d="M 2419 4116 
L 825 1625 
L 2419 1625 
L 2419 4116 
z
M 2253 4666 
L 3047 4666 
L 3047 1625 
L 3713 1625 
L 3713 1100 
L 3047 1100 
L 3047 0 
L 2419 0 
L 2419 1100 
L 313 1100 
L 313 1709 
L 2253 4666 
z
" transform="scale(0.015625)"/>
        <path id="DejaVuSans-33" d="M 2597 2516 
Q 3050 2419 3304 2112 
Q 3559 1806 3559 1356 
Q 3559 666 3084 287 
Q 2609 -91 1734 -91 
Q 1441 -91 1130 -33 
Q 819 25 488 141 
L 488 750 
Q 750 597 1062 519 
Q 1375 441 1716 441 
Q 2309 441 2620 675 
Q 2931 909 2931 1356 
Q 2931 1769 2642 2001 
Q 2353 2234 1838 2234 
L 1294 2234 
L 1294 2753 
L 1863 2753 
Q 2328 2753 2575 2939 
Q 2822 3125 2822 3475 
Q 2822 3834 2567 4026 
Q 2313 4219 1838 4219 
Q 1578 4219 1281 4162 
Q 984 4106 628 3988 
L 628 4550 
Q 988 4650 1302 4700 
Q 1616 4750 1894 4750 
Q 2613 4750 3031 4423 
Q 3450 4097 3450 3541 
Q 3450 3153 3228 2886 
Q 3006 2619 2597 2516 
z
" transform="scale(0.015625)"/>
        <path id="DejaVuSans-31" d="M 794 531 
L 1825 531 
L 1825 4091 
L 703 3866 
L 703 4441 
L 1819 4666 
L 2450 4666 
L 2450 531 
L 3481 531 
L 3481 0 
L 794 0 
L 794 531 
z
" transform="scale(0.015625)"/>
        <path id="DejaVuSans-2e" d="M 684 794 
L 1344 794 
L 1344 0 
L 684 0 
L 684 794 
z
" transform="scale(0.015625)"/>
        <path id="DejaVuSans-32" d="M 1228 531 
L 3431 531 
L 3431 0 
L 469 0 
L 469 531 
Q 828 903 1448 1529 
Q 2069 2156 2228 2338 
Q 2531 2678 2651 2914 
Q 2772 3150 2772 3378 
Q 2772 3750 2511 3984 
Q 2250 4219 1831 4219 
Q 1534 4219 1204 4116 
Q 875 4013 500 3803 
L 500 4441 
Q 881 4594 1212 4672 
Q 1544 4750 1819 4750 
Q 2544 4750 2975 4387 
Q 3406 4025 3406 3419 
Q 3406 3131 3298 2873 
Q 3191 2616 2906 2266 
Q 2828 2175 2409 1742 
Q 1991 1309 1228 531 
z
" transform="scale(0.015625)"/>
        <path id="DejaVuSans-36" d="M 2113 2584 
Q 1688 2584 1439 2293 
Q 1191 2003 1191 1497 
Q 1191 994 1439 701 
Q 1688 409 2113 409 
Q 2538 409 2786 701 
Q 3034 994 3034 1497 
Q 3034 2003 2786 2293 
Q 2538 2584 2113 2584 
z
M 3366 4563 
L 3366 3988 
Q 3128 4100 2886 4159 
Q 2644 4219 2406 4219 
Q 1781 4219 1451 3797 
Q 1122 3375 1075 2522 
Q 1259 2794 1537 2939 
Q 1816 3084 2150 3084 
Q 2853 3084 3261 2657 
Q 3669 2231 3669 1497 
Q 3669 778 3244 343 
Q 2819 -91 2113 -91 
Q 1303 -91 875 529 
Q 447 1150 447 2328 
Q 447 3434 972 4092 
Q 1497 4750 2381 4750 
Q 2619 4750 2861 4703 
Q 3103 4656 3366 4563 
z
" transform="scale(0.015625)"/>
       </defs>
       <use xlink:href="#DejaVuSans-30"/>
       <use xlink:href="#DejaVuSans-38" x="63.623047"/>
       <use xlink:href="#DejaVuSans-3a" x="127.246094"/>
       <use xlink:href="#DejaVuSans-34" x="160.9375"/>
       <use xlink:href="#DejaVuSans-33" x="224.560547"/>
       <use xlink:href="#DejaVuSans-3a" x="288.183594"/>
       <use xlink:href="#DejaVuSans-34" x="321.875"/>
       <use xlink:href="#DejaVuSans-31" x="385.498047"/>
       <use xlink:href="#DejaVuSans-2e" x="449.121094"/>
       <use xlink:href="#DejaVuSans-38" x="480.908203"/>
       <use xlink:href="#DejaVuSans-32" x="544.53125"/>
       <use xlink:href="#DejaVuSans-36" x="608.154297"/>
      </g>
     </g>
    </g>
    <g id="xtick_2">
     <g id="line2d_2">
      <g>
       <use xlink:href="#ma9b27e63eb" x="252.56977" y="252" style="stroke: #000000; stroke-width: 0.8"/>
      </g>
     </g>
     <g id="text_2">
      <!-- 10:13:44.216 -->
      <g transform="translate(218.980707 266.598437)scale(0.1 -0.1)">
       <use xlink:href="#DejaVuSans-31"/>
       <use xlink:href="#DejaVuSans-30" x="63.623047"/>
       <use xlink:href="#DejaVuSans-3a" x="127.246094"/>
       <use xlink:href="#DejaVuSans-31" x="160.9375"/>
       <use xlink:href="#DejaVuSans-33" x="224.560547"/>
       <use xlink:href="#DejaVuSans-3a" x="288.183594"/>
       <use xlink:href="#DejaVuSans-34" x="321.875"/>
       <use xlink:href="#DejaVuSans-34" x="385.498047"/>
       <use xlink:href="#DejaVuSans-2e" x="449.121094"/>
       <use xlink:href="#DejaVuSans-32" x="480.908203"/>
       <use xlink:href="#DejaVuSans-31" x="544.53125"/>
       <use xlink:href="#DejaVuSans-36" x="608.154297"/>
      </g>
     </g>
    </g>
    <g id="text_3">
     <!-- Time -->
     <g transform="translate(204.928125 281.79625)scale(0.12 -0.12)">
      <defs>
       <path id="DejaVuSans-Bold-54" d="M 31 4666 
L 4331 4666 
L 4331 3756 
L 2784 3756 
L 2784 0 
L 1581 0 
L 1581 3756 
L 31 3756 
L 31 4666 
z
" transform="scale(0.015625)"/>
       <path id="DejaVuSans-Bold-69" d="M 538 3500 
L 1656 3500 
L 1656 0 
L 538 0 
L 538 3500 
z
M 538 4863 
L 1656 4863 
L 1656 3950 
L 538 3950 
L 538 4863 
z
" transform="scale(0.015625)"/>
       <path id="DejaVuSans-Bold-6d" d="M 3781 2919 
Q 3994 3244 4286 3414 
Q 4578 3584 4928 3584 
Q 5531 3584 5847 3212 
Q 6163 2841 6163 2131 
L 6163 0 
L 5038 0 
L 5038 1825 
Q 5041 1866 5042 1909 
Q 5044 1953 5044 2034 
Q 5044 2406 4934 2573 
Q 4825 2741 4581 2741 
Q 4263 2741 4089 2478 
Q 3916 2216 3909 1719 
L 3909 0 
L 2784 0 
L 2784 1825 
Q 2784 2406 2684 2573 
Q 2584 2741 2328 2741 
Q 2006 2741 1831 2477 
Q 1656 2213 1656 1722 
L 1656 0 
L 531 0 
L 531 3500 
L 1656 3500 
L 1656 2988 
Q 1863 3284 2130 3434 
Q 2397 3584 2719 3584 
Q 3081 3584 3359 3409 
Q 3638 3234 3781 2919 
z
" transform="scale(0.015625)"/>
       <path id="DejaVuSans-Bold-65" d="M 4031 1759 
L 4031 1441 
L 1416 1441 
Q 1456 1047 1700 850 
Q 1944 653 2381 653 
Q 2734 653 3104 758 
Q 3475 863 3866 1075 
L 3866 213 
Q 3469 63 3072 -14 
Q 2675 -91 2278 -91 
Q 1328 -91 801 392 
Q 275 875 275 1747 
Q 275 2603 792 3093 
Q 1309 3584 2216 3584 
Q 3041 3584 3536 3087 
Q 4031 2591 4031 1759 
z
M 2881 2131 
Q 2881 2450 2695 2645 
Q 2509 2841 2209 2841 
Q 1884 2841 1681 2658 
Q 1478 2475 1428 2131 
L 2881 2131 
z
" transform="scale(0.015625)"/>
      </defs>
      <use xlink:href="#DejaVuSans-Bold-54"/>
      <use xlink:href="#DejaVuSans-Bold-69" x="68.212891"/>
      <use xlink:href="#DejaVuSans-Bold-6d" x="102.490234"/>
      <use xlink:href="#DejaVuSans-Bold-65" x="206.689453"/>
     </g>
    </g>
   </g>
   <g id="matplotlib.axis_2">
    <g id="ytick_1">
     <g id="line2d_3">
      <defs>
       <path id="m74bbf43b02" d="M 0 0 
L -3.5 0 
" style="stroke: #000000; stroke-width: 0.8"/>
      </defs>
      <g>
       <use xlink:href="#m74bbf43b02" x="54" y="225.320642" style="stroke: #000000; stroke-width: 0.8"/>
      </g>
     </g>
     <g id="text_4">
      <!-- 15 -->
      <g transform="translate(34.275 229.11986)scale(0.1 -0.1)">
       <defs>
        <path id="DejaVuSans-35" d="M 691 4666 
L 3169 4666 
L 3169 4134 
L 1269 4134 
L 1269 2991 
Q 1406 3038 1543 3061 
Q 1681 3084 1819 3084 
Q 2600 3084 3056 2656 
Q 3513 2228 3513 1497 
Q 3513 744 3044 326 
Q 2575 -91 1722 -91 
Q 1428 -91 1123 -41 
Q 819 9 494 109 
L 494 744 
Q 775 591 1075 516 
Q 1375 441 1709 441 
Q 2250 441 2565 725 
Q 2881 1009 2881 1497 
Q 2881 1984 2565 2268 
Q 2250 2553 1709 2553 
Q 1456 2553 1204 2497 
Q 953 2441 691 2322 
L 691 4666 
z
" transform="scale(0.015625)"/>
       </defs>
       <use xlink:href="#DejaVuSans-31"/>
       <use xlink:href="#DejaVuSans-35" x="63.623047"/>
      </g>
     </g>
    </g>
    <g id="ytick_2">
     <g id="line2d_4">
      <g>
       <use xlink:href="#m74bbf43b02" x="54" y="193.021176" style="stroke: #000000; stroke-width: 0.8"/>
      </g>
     </g>
     <g id="text_5">
      <!-- 30 -->
      <g transform="translate(34.275 196.820395)scale(0.1 -0.1)">
       <use xlink:href="#DejaVuSans-33"/>
       <use xlink:href="#DejaVuSans-30" x="63.623047"/>
      </g>
     </g>
    </g>
    <g id="ytick_3">
     <g id="line2d_5">
      <g>
       <use xlink:href="#m74bbf43b02" x="54" y="160.721711" style="stroke: #000000; stroke-width: 0.8"/>
      </g>
     </g>
     <g id="text_6">
      <!-- 45 -->
      <g transform="translate(34.275 164.52093)scale(0.1 -0.1)">
       <use xlink:href="#DejaVuSans-34"/>
       <use xlink:href="#DejaVuSans-35" x="63.623047"/>
      </g>
     </g>
    </g>
    <g id="ytick_4">
     <g id="line2d_6">
      <g>
       <use xlink:href="#m74bbf43b02" x="54" y="128.422246" style="stroke: #000000; stroke-width: 0.8"/>
      </g>
     </g>
     <g id="text_7">
      <!-- 60 -->
      <g transform="translate(34.275 132.221465)scale(0.1 -0.1)">
       <use xlink:href="#DejaVuSans-36"/>
       <use xlink:href="#DejaVuSans-30" x="63.623047"/>
      </g>
     </g>
    </g>
    <g id="ytick_5">
     <g id="line2d_7">
      <g>
       <use xlink:href="#m74bbf43b02" x="54" y="96.122781" style="stroke: #000000; stroke-width: 0.8"/>
      </g>
     </g>
     <g id="text_8">
      <!-- 75 -->
      <g transform="translate(34.275 99.921999)scale(0.1 -0.1)">
       <defs>
        <path id="DejaVuSans-37" d="M 525 4666 
L 3525 4666 
L 3525 4397 
L 1831 0 
L 1172 0 
L 2766 4134 
L 525 4134 
L 525 4666 
z
" transform="scale(0.015625)"/>
       </defs>
       <use xlink:href="#DejaVuSans-37"/>
       <use xlink:href="#DejaVuSans-35" x="63.623047"/>
      </g>
     </g>
    </g>
    <g id="ytick_6">
     <g id="line2d_8">
      <g>
       <use xlink:href="#m74bbf43b02" x="54" y="63.823316" style="stroke: #000000; stroke-width: 0.8"/>
      </g>
     </g>
     <g id="text_9">
      <!-- 90 -->
      <g transform="translate(34.275 67.622534)scale(0.1 -0.1)">
       <defs>
        <path id="DejaVuSans-39" d="M 703 97 
L 703 672 
Q 941 559 1184 500 
Q 1428 441 1663 441 
Q 2288 441 2617 861 
Q 2947 1281 2994 2138 
Q 2813 1869 2534 1725 
Q 2256 1581 1919 1581 
Q 1219 1581 811 2004 
Q 403 2428 403 3163 
Q 403 3881 828 4315 
Q 1253 4750 1959 4750 
Q 2769 4750 3195 4129 
Q 3622 3509 3622 2328 
Q 3622 1225 3098 567 
Q 2575 -91 1691 -91 
Q 1453 -91 1209 -44 
Q 966 3 703 97 
z
M 1959 2075 
Q 2384 2075 2632 2365 
Q 2881 2656 2881 3163 
Q 2881 3666 2632 3958 
Q 2384 4250 1959 4250 
Q 1534 4250 1286 3958 
Q 1038 3666 1038 3163 
Q 1038 2656 1286 2365 
Q 1534 2075 1959 2075 
z
" transform="scale(0.015625)"/>
       </defs>
       <use xlink:href="#DejaVuSans-39"/>
       <use xlink:href="#DejaVuSans-30" x="63.623047"/>
      </g>
     </g>
    </g>
    <g id="text_10">
     <!-- Dose -->
     <g transform="translate(27.779375 160.02375)rotate(-90)scale(0.12 -0.12)">
      <defs>
       <path id="DejaVuSans-Bold-44" d="M 1791 3756 
L 1791 909 
L 2222 909 
Q 2959 909 3348 1275 
Q 3738 1641 3738 2338 
Q 3738 3031 3350 3393 
Q 2963 3756 2222 3756 
L 1791 3756 
z
M 588 4666 
L 1856 4666 
Q 2919 4666 3439 4514 
Q 3959 4363 4331 4000 
Q 4659 3684 4818 3271 
Q 4978 2859 4978 2338 
Q 4978 1809 4818 1395 
Q 4659 981 4331 666 
Q 3956 303 3431 151 
Q 2906 0 1856 0 
L 588 0 
L 588 4666 
z
" transform="scale(0.015625)"/>
       <path id="DejaVuSans-Bold-6f" d="M 2203 2784 
Q 1831 2784 1636 2517 
Q 1441 2250 1441 1747 
Q 1441 1244 1636 976 
Q 1831 709 2203 709 
Q 2569 709 2762 976 
Q 2956 1244 2956 1747 
Q 2956 2250 2762 2517 
Q 2569 2784 2203 2784 
z
M 2203 3584 
Q 3106 3584 3614 3096 
Q 4122 2609 4122 1747 
Q 4122 884 3614 396 
Q 3106 -91 2203 -91 
Q 1297 -91 786 396 
Q 275 884 275 1747 
Q 275 2609 786 3096 
Q 1297 3584 2203 3584 
z
" transform="scale(0.015625)"/>
       <path id="DejaVuSans-Bold-73" d="M 3272 3391 
L 3272 2541 
Q 2913 2691 2578 2766 
Q 2244 2841 1947 2841 
Q 1628 2841 1473 2761 
Q 1319 2681 1319 2516 
Q 1319 2381 1436 2309 
Q 1553 2238 1856 2203 
L 2053 2175 
Q 2913 2066 3209 1816 
Q 3506 1566 3506 1031 
Q 3506 472 3093 190 
Q 2681 -91 1863 -91 
Q 1516 -91 1145 -36 
Q 775 19 384 128 
L 384 978 
Q 719 816 1070 734 
Q 1422 653 1784 653 
Q 2113 653 2278 743 
Q 2444 834 2444 1013 
Q 2444 1163 2330 1236 
Q 2216 1309 1875 1350 
L 1678 1375 
Q 931 1469 631 1722 
Q 331 1975 331 2491 
Q 331 3047 712 3315 
Q 1094 3584 1881 3584 
Q 2191 3584 2531 3537 
Q 2872 3491 3272 3391 
z
" transform="scale(0.015625)"/>
      </defs>
      <use xlink:href="#DejaVuSans-Bold-44"/>
      <use xlink:href="#DejaVuSans-Bold-6f" x="83.007812"/>
      <use xlink:href="#DejaVuSans-Bold-73" x="151.708984"/>
      <use xlink:href="#DejaVuSans-Bold-65" x="211.230469"/>
     </g>
    </g>
   </g>
   <g id="patch_3">
    <path d="M 54 252 
L 54 34.56 
" style="fill: none; stroke: #000000; stroke-width: 0.8; stroke-linejoin: miter; stroke-linecap: square"/>
   </g>
   <g id="patch_4">
    <path d="M 388.8 252 
L 388.8 34.56 
" style="fill: none; stroke: #000000; stroke-width: 0.8; stroke-linejoin: miter; stroke-linecap: square"/>
   </g>
   <g id="patch_5">
    <path d="M 54 252 
L 388.8 252 
" style="fill: none; stroke: #000000; stroke-width: 0.8; stroke-linejoin: miter; stroke-linecap: square"/>
   </g>
   <g id="patch_6">
    <path d="M 54 34.56 
L 388.8 34.56 
" style="fill: none; stroke: #000000; stroke-width: 0.8; stroke-linejoin: miter; stroke-linecap: square"/>
   </g>
   <g id="text_11">
    <!-- Dose vs Time -->
    <g transform="translate(54 28.56)scale(0.12 -0.12)">
     <defs>
      <path id="DejaVuSansMono-Bold-44" d="M 1350 3834 
L 1350 831 
L 1600 831 
Q 2144 831 2375 1173 
Q 2606 1516 2606 2338 
Q 2606 3153 2375 3493 
Q 2144 3834 1600 3834 
L 1350 3834 
z
M 428 4666 
L 1416 4666 
Q 2559 4666 3062 4120 
Q 3566 3575 3566 2338 
Q 3566 1097 3062 548 
Q 2559 0 1416 0 
L 428 0 
L 428 4666 
z
" transform="scale(0.015625)"/>
      <path id="DejaVuSansMono-Bold-6f" d="M 1925 2841 
Q 1597 2841 1409 2552 
Q 1222 2263 1222 1747 
Q 1222 1231 1409 942 
Q 1597 653 1925 653 
Q 2256 653 2443 942 
Q 2631 1231 2631 1747 
Q 2631 2263 2443 2552 
Q 2256 2841 1925 2841 
z
M 306 1747 
Q 306 2594 745 3089 
Q 1184 3584 1925 3584 
Q 2669 3584 3108 3089 
Q 3547 2594 3547 1747 
Q 3547 900 3108 404 
Q 2669 -91 1925 -91 
Q 1184 -91 745 404 
Q 306 900 306 1747 
z
" transform="scale(0.015625)"/>
      <path id="DejaVuSansMono-Bold-73" d="M 3097 3391 
L 3097 2591 
Q 2844 2753 2570 2836 
Q 2297 2919 2022 2919 
Q 1716 2919 1559 2830 
Q 1403 2741 1403 2566 
Q 1403 2316 2072 2159 
L 2106 2150 
L 2369 2088 
Q 2869 1969 3101 1705 
Q 3334 1441 3334 991 
Q 3334 450 2979 179 
Q 2625 -91 1913 -91 
Q 1597 -91 1265 -36 
Q 934 19 594 128 
L 594 928 
Q 897 756 1211 665 
Q 1525 575 1819 575 
Q 2141 575 2306 669 
Q 2472 763 2472 941 
Q 2472 1116 2355 1209 
Q 2238 1303 1797 1409 
L 1544 1466 
Q 1019 1584 778 1837 
Q 538 2091 538 2516 
Q 538 3022 903 3303 
Q 1269 3584 1931 3584 
Q 2228 3584 2523 3536 
Q 2819 3488 3097 3391 
z
" transform="scale(0.015625)"/>
      <path id="DejaVuSansMono-Bold-65" d="M 3444 172 
Q 3125 41 2794 -25 
Q 2463 -91 2094 -91 
Q 1216 -91 752 379 
Q 288 850 288 1734 
Q 288 2591 734 3087 
Q 1181 3584 1953 3584 
Q 2731 3584 3161 3123 
Q 3591 2663 3591 1825 
L 3591 1453 
L 1219 1453 
Q 1222 1041 1462 837 
Q 1703 634 2181 634 
Q 2497 634 2803 725 
Q 3109 816 3444 1013 
L 3444 172 
z
M 2669 2141 
Q 2663 2503 2483 2689 
Q 2303 2875 1953 2875 
Q 1638 2875 1450 2683 
Q 1263 2491 1228 2138 
L 2669 2141 
z
" transform="scale(0.015625)"/>
      <path id="DejaVuSansMono-Bold-20" transform="scale(0.015625)"/>
      <path id="DejaVuSansMono-Bold-76" d="M 3603 3500 
L 2491 0 
L 1363 0 
L 250 3500 
L 1178 3500 
L 1925 769 
L 2675 3500 
L 3603 3500 
z
" transform="scale(0.015625)"/>
      <path id="DejaVuSansMono-Bold-54" d="M 2388 0 
L 1466 0 
L 1466 3859 
L 281 3859 
L 281 4666 
L 3572 4666 
L 3572 3859 
L 2388 3859 
L 2388 0 
z
" transform="scale(0.015625)"/>
      <path id="DejaVuSansMono-Bold-69" d="M 691 3500 
L 2503 3500 
L 2503 703 
L 3641 703 
L 3641 0 
L 447 0 
L 447 703 
L 1588 703 
L 1588 2797 
L 691 2797 
L 691 3500 
z
M 1588 5203 
L 2503 5203 
L 2503 4134 
L 1588 4134 
L 1588 5203 
z
" transform="scale(0.015625)"/>
      <path id="DejaVuSansMono-Bold-6d" d="M 2156 3150 
Q 2259 3372 2418 3478 
Q 2578 3584 2809 3584 
Q 3263 3584 3436 3271 
Q 3609 2959 3609 1972 
L 3609 0 
L 2859 0 
L 2859 2247 
Q 2859 2638 2800 2769 
Q 2741 2900 2584 2900 
Q 2428 2900 2365 2765 
Q 2303 2631 2303 2247 
L 2303 0 
L 1563 0 
L 1563 2247 
Q 1563 2631 1500 2765 
Q 1438 2900 1281 2900 
Q 1125 2900 1065 2769 
Q 1006 2638 1006 2247 
L 1006 0 
L 256 0 
L 256 3500 
L 922 3500 
L 922 3138 
Q 1000 3344 1172 3464 
Q 1344 3584 1556 3584 
Q 1769 3584 1944 3457 
Q 2119 3331 2156 3150 
z
" transform="scale(0.015625)"/>
     </defs>
     <use xlink:href="#DejaVuSansMono-Bold-44"/>
     <use xlink:href="#DejaVuSansMono-Bold-6f" x="60.205078"/>
     <use xlink:href="#DejaVuSansMono-Bold-73" x="120.410156"/>
     <use xlink:href="#DejaVuSansMono-Bold-65" x="180.615234"/>
     <use xlink:href="#DejaVuSansMono-Bold-20" x="240.820312"/>
     <use xlink:href="#DejaVuSansMono-Bold-76" x="301.025391"/>
     <use xlink:href="#DejaVuSansMono-Bold-73" x="361.230469"/>
     <use xlink:href="#DejaVuSansMono-Bold-20" x="421.435547"/>
     <use xlink:href="#DejaVuSansMono-Bold-54" x="481.640625"/>
     <use xlink:href="#DejaVuSansMono-Bold-69" x="541.845703"/>
     <use xlink:href="#DejaVuSansMono-Bold-6d" x="602.050781"/>
     <use xlink:href="#DejaVuSansMono-Bold-65" x="662.255859"/>
    </g>
   </g>
  </g>
 </g>
 <defs>
  <clipPath id="p2221fcf11b">
   <rect x="54" y="34.56" width="334.8" height="217.44"/>
  </clipPath>
 </defs>
</svg>
