<?xml version="1.0" encoding="utf-8" standalone="no"?>
<!DOCTYPE svg PUBLIC "-//W3C//DTD SVG 1.1//EN"
  "http://www.w3.org/Graphics/SVG/1.1/DTD/svg11.dtd">
<svg xmlns:xlink="http://www.w3.org/1999/xlink" width="648pt" height="648pt" viewBox="0 0 648 648" xmlns="http://www.w3.org/2000/svg" version="1.1">
 <metadata>
  <rdf:RDF xmlns:dc="http://purl.org/dc/elements/1.1/" xmlns:cc="http://creativecommons.org/ns#" xmlns:rdf="http://www.w3.org/1999/02/22-rdf-syntax-ns#">
   <cc:Work>
    <dc:type rdf:resource="http://purl.org/dc/dcmitype/StillImage"/>
    <dc:date>2024-12-12T15:58:50.160136</dc:date>
    <dc:format>image/svg+xml</dc:format>
    <dc:creator>
     <cc:Agent>
      <dc:title>Matplotlib v3.5.3, https://matplotlib.org/</dc:title>
     </cc:Agent>
    </dc:creator>
   </cc:Work>
  </rdf:RDF>
 </metadata>
 <defs>
  <style type="text/css">*{stroke-linejoin: round; stroke-linecap: butt}</style>
 </defs>
 <g id="figure_1">
  <g id="patch_1">
   <path d="M 0 648 
L 648 648 
L 648 0 
L 0 0 
z
" style="fill: #ffffff"/>
  </g>
  <g id="axes_1">
   <g id="patch_2">
    <path d="M 81 567 
L 583.2 567 
L 583.2 77.76 
L 81 77.76 
z
" style="fill: #ffffff"/>
   </g>
   <g id="matplotlib.axis_1">
    <g id="xtick_1">
     <g id="line2d_1">
      <path d="M -1 274.110208 
L 112.362846 77.76 
" clip-path="url(#p95df34cede)" style="fill: none; stroke: #b0b0b0; stroke-width: 0.8; stroke-linecap: square"/>
     </g>
    </g>
    <g id="xtick_2">
     <g id="line2d_2">
      <path d="M -1 361.0938 
L 162.582846 77.76 
" clip-path="url(#p95df34cede)" style="fill: none; stroke: #b0b0b0; stroke-width: 0.8; stroke-linecap: square"/>
     </g>
    </g>
    <g id="xtick_3">
     <g id="line2d_3">
      <path d="M -1 448.077392 
L 212.802846 77.76 
" clip-path="url(#p95df34cede)" style="fill: none; stroke: #b0b0b0; stroke-width: 0.8; stroke-linecap: square"/>
     </g>
    </g>
    <g id="xtick_4">
     <g id="line2d_4">
      <path d="M -1 535.060983 
L 263.022846 77.76 
" clip-path="url(#p95df34cede)" style="fill: none; stroke: #b0b0b0; stroke-width: 0.8; stroke-linecap: square"/>
     </g>
    </g>
    <g id="xtick_5">
     <g id="line2d_5">
      <path d="M 30.78 567 
L 313.242846 77.76 
" clip-path="url(#p95df34cede)" style="fill: none; stroke: #b0b0b0; stroke-width: 0.8; stroke-linecap: square"/>
     </g>
    </g>
    <g id="xtick_6">
     <g id="line2d_6">
      <path d="M 81 567 
L 363.462846 77.76 
" clip-path="url(#p95df34cede)" style="fill: none; stroke: #b0b0b0; stroke-width: 0.8; stroke-linecap: square"/>
     </g>
     <g id="line2d_7">
      <defs>
       <path id="m3d8a9e326e" d="M 0 0 
L 0 3.5 
" style="stroke: #000000; stroke-width: 0.8"/>
      </defs>
      <g>
       <use xlink:href="#m3d8a9e326e" x="81" y="567" style="stroke: #000000; stroke-width: 0.8"/>
      </g>
     </g>
     <g id="text_1">
      <!-- −50 -->
      <g transform="translate(70.447656 581.598438)scale(0.1 -0.1)">
       <defs>
        <path id="DejaVuSans-2212" d="M 678 2272 
L 4684 2272 
L 4684 1741 
L 678 1741 
L 678 2272 
z
" transform="scale(0.015625)"/>
        <path id="DejaVuSans-35" d="M 691 4666 
L 3169 4666 
L 3169 4134 
L 1269 4134 
L 1269 2991 
Q 1406 3038 1543 3061 
Q 1681 3084 1819 3084 
Q 2600 3084 3056 2656 
Q 3513 2228 3513 1497 
Q 3513 744 3044 326 
Q 2575 -91 1722 -91 
Q 1428 -91 1123 -41 
Q 819 9 494 109 
L 494 744 
Q 775 591 1075 516 
Q 1375 441 1709 441 
Q 2250 441 2565 725 
Q 2881 1009 2881 1497 
Q 2881 1984 2565 2268 
Q 2250 2553 1709 2553 
Q 1456 2553 1204 2497 
Q 953 2441 691 2322 
L 691 4666 
z
" transform="scale(0.015625)"/>
        <path id="DejaVuSans-30" d="M 2034 4250 
Q 1547 4250 1301 3770 
Q 1056 3291 1056 2328 
Q 1056 1369 1301 889 
Q 1547 409 2034 409 
Q 2525 409 2770 889 
Q 3016 1369 3016 2328 
Q 3016 3291 2770 3770 
Q 2525 4250 2034 4250 
z
M 2034 4750 
Q 2819 4750 3233 4129 
Q 3647 3509 3647 2328 
Q 3647 1150 3233 529 
Q 2819 -91 2034 -91 
Q 1250 -91 836 529 
Q 422 1150 422 2328 
Q 422 3509 836 4129 
Q 1250 4750 2034 4750 
z
" transform="scale(0.015625)"/>
       </defs>
       <use xlink:href="#DejaVuSans-2212"/>
       <use xlink:href="#DejaVuSans-35" x="83.789062"/>
       <use xlink:href="#DejaVuSans-30" x="147.412109"/>
      </g>
     </g>
    </g>
    <g id="xtick_7">
     <g id="line2d_8">
      <path d="M 131.22 567 
L 413.682846 77.76 
" clip-path="url(#p95df34cede)" style="fill: none; stroke: #b0b0b0; stroke-width: 0.8; stroke-linecap: square"/>
     </g>
     <g id="line2d_9">
      <g>
       <use xlink:href="#m3d8a9e326e" x="131.22" y="567" style="stroke: #000000; stroke-width: 0.8"/>
      </g>
     </g>
     <g id="text_2">
      <!-- −40 -->
      <g transform="translate(120.667656 581.598438)scale(0.1 -0.1)">
       <defs>
        <path id="DejaVuSans-34" d="M 2419 4116 
L 825 1625 
L 2419 1625 
L 2419 4116 
z
M 2253 4666 
L 3047 4666 
L 3047 1625 
L 3713 1625 
L 3713 1100 
L 3047 1100 
L 3047 0 
L 2419 0 
L 2419 1100 
L 313 1100 
L 313 1709 
L 2253 4666 
z
" transform="scale(0.015625)"/>
       </defs>
       <use xlink:href="#DejaVuSans-2212"/>
       <use xlink:href="#DejaVuSans-34" x="83.789062"/>
       <use xlink:href="#DejaVuSans-30" x="147.412109"/>
      </g>
     </g>
    </g>
    <g id="xtick_8">
     <g id="line2d_10">
      <path d="M 181.44 567 
L 463.902846 77.76 
" clip-path="url(#p95df34cede)" style="fill: none; stroke: #b0b0b0; stroke-width: 0.8; stroke-linecap: square"/>
     </g>
     <g id="line2d_11">
      <g>
       <use xlink:href="#m3d8a9e326e" x="181.44" y="567" style="stroke: #000000; stroke-width: 0.8"/>
      </g>
     </g>
     <g id="text_3">
      <!-- −30 -->
      <g transform="translate(170.887656 581.598438)scale(0.1 -0.1)">
       <defs>
        <path id="DejaVuSans-33" d="M 2597 2516 
Q 3050 2419 3304 2112 
Q 3559 1806 3559 1356 
Q 3559 666 3084 287 
Q 2609 -91 1734 -91 
Q 1441 -91 1130 -33 
Q 819 25 488 141 
L 488 750 
Q 750 597 1062 519 
Q 1375 441 1716 441 
Q 2309 441 2620 675 
Q 2931 909 2931 1356 
Q 2931 1769 2642 2001 
Q 2353 2234 1838 2234 
L 1294 2234 
L 1294 2753 
L 1863 2753 
Q 2328 2753 2575 2939 
Q 2822 3125 2822 3475 
Q 2822 3834 2567 4026 
Q 2313 4219 1838 4219 
Q 1578 4219 1281 4162 
Q 984 4106 628 3988 
L 628 4550 
Q 988 4650 1302 4700 
Q 1616 4750 1894 4750 
Q 2613 4750 3031 4423 
Q 3450 4097 3450 3541 
Q 3450 3153 3228 2886 
Q 3006 2619 2597 2516 
z
" transform="scale(0.015625)"/>
       </defs>
       <use xlink:href="#DejaVuSans-2212"/>
       <use xlink:href="#DejaVuSans-33" x="83.789062"/>
       <use xlink:href="#DejaVuSans-30" x="147.412109"/>
      </g>
     </g>
    </g>
    <g id="xtick_9">
     <g id="line2d_12">
      <path d="M 231.66 567 
L 514.122846 77.76 
" clip-path="url(#p95df34cede)" style="fill: none; stroke: #b0b0b0; stroke-width: 0.8; stroke-linecap: square"/>
     </g>
     <g id="line2d_13">
      <g>
       <use xlink:href="#m3d8a9e326e" x="231.66" y="567" style="stroke: #000000; stroke-width: 0.8"/>
      </g>
     </g>
     <g id="text_4">
      <!-- −20 -->
      <g transform="translate(221.107656 581.598438)scale(0.1 -0.1)">
       <defs>
        <path id="DejaVuSans-32" d="M 1228 531 
L 3431 531 
L 3431 0 
L 469 0 
L 469 531 
Q 828 903 1448 1529 
Q 2069 2156 2228 2338 
Q 2531 2678 2651 2914 
Q 2772 3150 2772 3378 
Q 2772 3750 2511 3984 
Q 2250 4219 1831 4219 
Q 1534 4219 1204 4116 
Q 875 4013 500 3803 
L 500 4441 
Q 881 4594 1212 4672 
Q 1544 4750 1819 4750 
Q 2544 4750 2975 4387 
Q 3406 4025 3406 3419 
Q 3406 3131 3298 2873 
Q 3191 2616 2906 2266 
Q 2828 2175 2409 1742 
Q 1991 1309 1228 531 
z
" transform="scale(0.015625)"/>
       </defs>
       <use xlink:href="#DejaVuSans-2212"/>
       <use xlink:href="#DejaVuSans-32" x="83.789062"/>
       <use xlink:href="#DejaVuSans-30" x="147.412109"/>
      </g>
     </g>
    </g>
    <g id="xtick_10">
     <g id="line2d_14">
      <path d="M 281.88 567 
L 564.342846 77.76 
" clip-path="url(#p95df34cede)" style="fill: none; stroke: #b0b0b0; stroke-width: 0.8; stroke-linecap: square"/>
     </g>
     <g id="line2d_15">
      <g>
       <use xlink:href="#m3d8a9e326e" x="281.88" y="567" style="stroke: #000000; stroke-width: 0.8"/>
      </g>
     </g>
     <g id="text_5">
      <!-- −10 -->
      <g transform="translate(271.327656 581.598438)scale(0.1 -0.1)">
       <defs>
        <path id="DejaVuSans-31" d="M 794 531 
L 1825 531 
L 1825 4091 
L 703 3866 
L 703 4441 
L 1819 4666 
L 2450 4666 
L 2450 531 
L 3481 531 
L 3481 0 
L 794 0 
L 794 531 
z
" transform="scale(0.015625)"/>
       </defs>
       <use xlink:href="#DejaVuSans-2212"/>
       <use xlink:href="#DejaVuSans-31" x="83.789062"/>
       <use xlink:href="#DejaVuSans-30" x="147.412109"/>
      </g>
     </g>
    </g>
    <g id="xtick_11">
     <g id="line2d_16">
      <path d="M 332.1 567 
L 614.562846 77.76 
" clip-path="url(#p95df34cede)" style="fill: none; stroke: #b0b0b0; stroke-width: 0.8; stroke-linecap: square"/>
     </g>
     <g id="line2d_17">
      <g>
       <use xlink:href="#m3d8a9e326e" x="332.1" y="567" style="stroke: #000000; stroke-width: 0.8"/>
      </g>
     </g>
     <g id="text_6">
      <!-- 0 -->
      <g transform="translate(328.91875 581.598438)scale(0.1 -0.1)">
       <use xlink:href="#DejaVuSans-30"/>
      </g>
     </g>
    </g>
    <g id="xtick_12">
     <g id="line2d_18">
      <path d="M 382.32 567 
L 649 105.096691 
" clip-path="url(#p95df34cede)" style="fill: none; stroke: #b0b0b0; stroke-width: 0.8; stroke-linecap: square"/>
     </g>
     <g id="line2d_19">
      <g>
       <use xlink:href="#m3d8a9e326e" x="382.32" y="567" style="stroke: #000000; stroke-width: 0.8"/>
      </g>
     </g>
     <g id="text_7">
      <!-- 10 -->
      <g transform="translate(375.9575 581.598438)scale(0.1 -0.1)">
       <use xlink:href="#DejaVuSans-31"/>
       <use xlink:href="#DejaVuSans-30" x="63.623047"/>
      </g>
     </g>
    </g>
    <g id="xtick_13">
     <g id="line2d_20">
      <path d="M 432.54 567 
L 649 192.080282 
" clip-path="url(#p95df34cede)" style="fill: none; stroke: #b0b0b0; stroke-width: 0.8; stroke-linecap: square"/>
     </g>
     <g id="line2d_21">
      <g>
       <use xlink:href="#m3d8a9e326e" x="432.54" y="567" style="stroke: #000000; stroke-width: 0.8"/>
      </g>
     </g>
     <g id="text_8">
      <!-- 20 -->
      <g transform="translate(426.1775 581.598438)scale(0.1 -0.1)">
       <use xlink:href="#DejaVuSans-32"/>
       <use xlink:href="#DejaVuSans-30" x="63.623047"/>
      </g>
     </g>
    </g>
    <g id="xtick_14">
     <g id="line2d_22">
      <path d="M 482.76 567 
L 649 279.063874 
" clip-path="url(#p95df34cede)" style="fill: none; stroke: #b0b0b0; stroke-width: 0.8; stroke-linecap: square"/>
     </g>
     <g id="line2d_23">
      <g>
       <use xlink:href="#m3d8a9e326e" x="482.76" y="567" style="stroke: #000000; stroke-width: 0.8"/>
      </g>
     </g>
     <g id="text_9">
      <!-- 30 -->
      <g transform="translate(476.3975 581.598438)scale(0.1 -0.1)">
       <use xlink:href="#DejaVuSans-33"/>
       <use xlink:href="#DejaVuSans-30" x="63.623047"/>
      </g>
     </g>
    </g>
    <g id="xtick_15">
     <g id="line2d_24">
      <path d="M 532.98 567 
L 649 366.047465 
" clip-path="url(#p95df34cede)" style="fill: none; stroke: #b0b0b0; stroke-width: 0.8; stroke-linecap: square"/>
     </g>
     <g id="line2d_25">
      <g>
       <use xlink:href="#m3d8a9e326e" x="532.98" y="567" style="stroke: #000000; stroke-width: 0.8"/>
      </g>
     </g>
     <g id="text_10">
      <!-- 40 -->
      <g transform="translate(526.6175 581.598438)scale(0.1 -0.1)">
       <use xlink:href="#DejaVuSans-34"/>
       <use xlink:href="#DejaVuSans-30" x="63.623047"/>
      </g>
     </g>
    </g>
    <g id="xtick_16">
     <g id="line2d_26">
      <path d="M 583.2 567 
L 649 453.031057 
" clip-path="url(#p95df34cede)" style="fill: none; stroke: #b0b0b0; stroke-width: 0.8; stroke-linecap: square"/>
     </g>
     <g id="line2d_27">
      <g>
       <use xlink:href="#m3d8a9e326e" x="583.2" y="567" style="stroke: #000000; stroke-width: 0.8"/>
      </g>
     </g>
     <g id="text_11">
      <!-- 50 -->
      <g transform="translate(576.8375 581.598438)scale(0.1 -0.1)">
       <use xlink:href="#DejaVuSans-35"/>
       <use xlink:href="#DejaVuSans-30" x="63.623047"/>
      </g>
     </g>
    </g>
    <g id="text_12">
     <!-- degree_Celsius -->
     <g transform="translate(294.354688 595.276562)scale(0.1 -0.1)">
      <defs>
       <path id="DejaVuSans-64" d="M 2906 2969 
L 2906 4863 
L 3481 4863 
L 3481 0 
L 2906 0 
L 2906 525 
Q 2725 213 2448 61 
Q 2172 -91 1784 -91 
Q 1150 -91 751 415 
Q 353 922 353 1747 
Q 353 2572 751 3078 
Q 1150 3584 1784 3584 
Q 2172 3584 2448 3432 
Q 2725 3281 2906 2969 
z
M 947 1747 
Q 947 1113 1208 752 
Q 1469 391 1925 391 
Q 2381 391 2643 752 
Q 2906 1113 2906 1747 
Q 2906 2381 2643 2742 
Q 2381 3103 1925 3103 
Q 1469 3103 1208 2742 
Q 947 2381 947 1747 
z
" transform="scale(0.015625)"/>
       <path id="DejaVuSans-65" d="M 3597 1894 
L 3597 1613 
L 953 1613 
Q 991 1019 1311 708 
Q 1631 397 2203 397 
Q 2534 397 2845 478 
Q 3156 559 3463 722 
L 3463 178 
Q 3153 47 2828 -22 
Q 2503 -91 2169 -91 
Q 1331 -91 842 396 
Q 353 884 353 1716 
Q 353 2575 817 3079 
Q 1281 3584 2069 3584 
Q 2775 3584 3186 3129 
Q 3597 2675 3597 1894 
z
M 3022 2063 
Q 3016 2534 2758 2815 
Q 2500 3097 2075 3097 
Q 1594 3097 1305 2825 
Q 1016 2553 972 2059 
L 3022 2063 
z
" transform="scale(0.015625)"/>
       <path id="DejaVuSans-67" d="M 2906 1791 
Q 2906 2416 2648 2759 
Q 2391 3103 1925 3103 
Q 1463 3103 1205 2759 
Q 947 2416 947 1791 
Q 947 1169 1205 825 
Q 1463 481 1925 481 
Q 2391 481 2648 825 
Q 2906 1169 2906 1791 
z
M 3481 434 
Q 3481 -459 3084 -895 
Q 2688 -1331 1869 -1331 
Q 1566 -1331 1297 -1286 
Q 1028 -1241 775 -1147 
L 775 -588 
Q 1028 -725 1275 -790 
Q 1522 -856 1778 -856 
Q 2344 -856 2625 -561 
Q 2906 -266 2906 331 
L 2906 616 
Q 2728 306 2450 153 
Q 2172 0 1784 0 
Q 1141 0 747 490 
Q 353 981 353 1791 
Q 353 2603 747 3093 
Q 1141 3584 1784 3584 
Q 2172 3584 2450 3431 
Q 2728 3278 2906 2969 
L 2906 3500 
L 3481 3500 
L 3481 434 
z
" transform="scale(0.015625)"/>
       <path id="DejaVuSans-72" d="M 2631 2963 
Q 2534 3019 2420 3045 
Q 2306 3072 2169 3072 
Q 1681 3072 1420 2755 
Q 1159 2438 1159 1844 
L 1159 0 
L 581 0 
L 581 3500 
L 1159 3500 
L 1159 2956 
Q 1341 3275 1631 3429 
Q 1922 3584 2338 3584 
Q 2397 3584 2469 3576 
Q 2541 3569 2628 3553 
L 2631 2963 
z
" transform="scale(0.015625)"/>
       <path id="DejaVuSans-5f" d="M 3263 -1063 
L 3263 -1509 
L -63 -1509 
L -63 -1063 
L 3263 -1063 
z
" transform="scale(0.015625)"/>
       <path id="DejaVuSans-43" d="M 4122 4306 
L 4122 3641 
Q 3803 3938 3442 4084 
Q 3081 4231 2675 4231 
Q 1875 4231 1450 3742 
Q 1025 3253 1025 2328 
Q 1025 1406 1450 917 
Q 1875 428 2675 428 
Q 3081 428 3442 575 
Q 3803 722 4122 1019 
L 4122 359 
Q 3791 134 3420 21 
Q 3050 -91 2638 -91 
Q 1578 -91 968 557 
Q 359 1206 359 2328 
Q 359 3453 968 4101 
Q 1578 4750 2638 4750 
Q 3056 4750 3426 4639 
Q 3797 4528 4122 4306 
z
" transform="scale(0.015625)"/>
       <path id="DejaVuSans-6c" d="M 603 4863 
L 1178 4863 
L 1178 0 
L 603 0 
L 603 4863 
z
" transform="scale(0.015625)"/>
       <path id="DejaVuSans-73" d="M 2834 3397 
L 2834 2853 
Q 2591 2978 2328 3040 
Q 2066 3103 1784 3103 
Q 1356 3103 1142 2972 
Q 928 2841 928 2578 
Q 928 2378 1081 2264 
Q 1234 2150 1697 2047 
L 1894 2003 
Q 2506 1872 2764 1633 
Q 3022 1394 3022 966 
Q 3022 478 2636 193 
Q 2250 -91 1575 -91 
Q 1294 -91 989 -36 
Q 684 19 347 128 
L 347 722 
Q 666 556 975 473 
Q 1284 391 1588 391 
Q 1994 391 2212 530 
Q 2431 669 2431 922 
Q 2431 1156 2273 1281 
Q 2116 1406 1581 1522 
L 1381 1569 
Q 847 1681 609 1914 
Q 372 2147 372 2553 
Q 372 3047 722 3315 
Q 1072 3584 1716 3584 
Q 2034 3584 2315 3537 
Q 2597 3491 2834 3397 
z
" transform="scale(0.015625)"/>
       <path id="DejaVuSans-69" d="M 603 3500 
L 1178 3500 
L 1178 0 
L 603 0 
L 603 3500 
z
M 603 4863 
L 1178 4863 
L 1178 4134 
L 603 4134 
L 603 4863 
z
" transform="scale(0.015625)"/>
       <path id="DejaVuSans-75" d="M 544 1381 
L 544 3500 
L 1119 3500 
L 1119 1403 
Q 1119 906 1312 657 
Q 1506 409 1894 409 
Q 2359 409 2629 706 
Q 2900 1003 2900 1516 
L 2900 3500 
L 3475 3500 
L 3475 0 
L 2900 0 
L 2900 538 
Q 2691 219 2414 64 
Q 2138 -91 1772 -91 
Q 1169 -91 856 284 
Q 544 659 544 1381 
z
M 1991 3584 
L 1991 3584 
z
" transform="scale(0.015625)"/>
      </defs>
      <use xlink:href="#DejaVuSans-64"/>
      <use xlink:href="#DejaVuSans-65" x="63.476562"/>
      <use xlink:href="#DejaVuSans-67" x="125"/>
      <use xlink:href="#DejaVuSans-72" x="188.476562"/>
      <use xlink:href="#DejaVuSans-65" x="227.339844"/>
      <use xlink:href="#DejaVuSans-65" x="288.863281"/>
      <use xlink:href="#DejaVuSans-5f" x="350.386719"/>
      <use xlink:href="#DejaVuSans-43" x="400.386719"/>
      <use xlink:href="#DejaVuSans-65" x="470.210938"/>
      <use xlink:href="#DejaVuSans-6c" x="531.734375"/>
      <use xlink:href="#DejaVuSans-73" x="559.517578"/>
      <use xlink:href="#DejaVuSans-69" x="611.617188"/>
      <use xlink:href="#DejaVuSans-75" x="639.400391"/>
      <use xlink:href="#DejaVuSans-73" x="702.779297"/>
     </g>
    </g>
   </g>
   <g id="matplotlib.axis_2">
    <g id="ytick_1">
     <g id="line2d_28">
      <path d="M 81 78.418805 
L 583.2 78.418805 
" clip-path="url(#p95df34cede)" style="fill: none; stroke: #b0b0b0; stroke-width: 0.8; stroke-linecap: square"/>
     </g>
     <g id="line2d_29">
      <defs>
       <path id="m6d61d0e211" d="M 0 0 
L -3.5 0 
" style="stroke: #000000; stroke-width: 0.8"/>
      </defs>
      <g>
       <use xlink:href="#m6d61d0e211" x="81" y="78.418805" style="stroke: #000000; stroke-width: 0.8"/>
      </g>
     </g>
     <g id="text_13">
      <!-- 100 -->
      <g transform="translate(54.9125 82.218024)scale(0.1 -0.1)">
       <use xlink:href="#DejaVuSans-31"/>
       <use xlink:href="#DejaVuSans-30" x="63.623047"/>
       <use xlink:href="#DejaVuSans-30" x="127.246094"/>
      </g>
     </g>
    </g>
    <g id="ytick_2">
     <g id="line2d_30">
      <path d="M 81 225.4964 
L 583.2 225.4964 
" clip-path="url(#p95df34cede)" style="fill: none; stroke: #b0b0b0; stroke-width: 0.8; stroke-linecap: square"/>
     </g>
     <g id="line2d_31">
      <g>
       <use xlink:href="#m6d61d0e211" x="81" y="225.4964" style="stroke: #000000; stroke-width: 0.8"/>
      </g>
     </g>
     <g id="text_14">
      <!-- 200 -->
      <g transform="translate(54.9125 229.295619)scale(0.1 -0.1)">
       <use xlink:href="#DejaVuSans-32"/>
       <use xlink:href="#DejaVuSans-30" x="63.623047"/>
       <use xlink:href="#DejaVuSans-30" x="127.246094"/>
      </g>
     </g>
    </g>
    <g id="ytick_3">
     <g id="line2d_32">
      <path d="M 81 311.531278 
L 583.2 311.531278 
" clip-path="url(#p95df34cede)" style="fill: none; stroke: #b0b0b0; stroke-width: 0.8; stroke-linecap: square"/>
     </g>
     <g id="line2d_33">
      <g>
       <use xlink:href="#m6d61d0e211" x="81" y="311.531278" style="stroke: #000000; stroke-width: 0.8"/>
      </g>
     </g>
     <g id="text_15">
      <!-- 300 -->
      <g transform="translate(54.9125 315.330496)scale(0.1 -0.1)">
       <use xlink:href="#DejaVuSans-33"/>
       <use xlink:href="#DejaVuSans-30" x="63.623047"/>
       <use xlink:href="#DejaVuSans-30" x="127.246094"/>
      </g>
     </g>
    </g>
    <g id="ytick_4">
     <g id="line2d_34">
      <path d="M 81 372.573995 
L 583.2 372.573995 
" clip-path="url(#p95df34cede)" style="fill: none; stroke: #b0b0b0; stroke-width: 0.8; stroke-linecap: square"/>
     </g>
     <g id="line2d_35">
      <g>
       <use xlink:href="#m6d61d0e211" x="81" y="372.573995" style="stroke: #000000; stroke-width: 0.8"/>
      </g>
     </g>
     <g id="text_16">
      <!-- 400 -->
      <g transform="translate(54.9125 376.373214)scale(0.1 -0.1)">
       <use xlink:href="#DejaVuSans-34"/>
       <use xlink:href="#DejaVuSans-30" x="63.623047"/>
       <use xlink:href="#DejaVuSans-30" x="127.246094"/>
      </g>
     </g>
    </g>
    <g id="ytick_5">
     <g id="line2d_36">
      <path d="M 81 419.922405 
L 583.2 419.922405 
" clip-path="url(#p95df34cede)" style="fill: none; stroke: #b0b0b0; stroke-width: 0.8; stroke-linecap: square"/>
     </g>
     <g id="line2d_37">
      <g>
       <use xlink:href="#m6d61d0e211" x="81" y="419.922405" style="stroke: #000000; stroke-width: 0.8"/>
      </g>
     </g>
     <g id="text_17">
      <!-- 500 -->
      <g transform="translate(54.9125 423.721624)scale(0.1 -0.1)">
       <use xlink:href="#DejaVuSans-35"/>
       <use xlink:href="#DejaVuSans-30" x="63.623047"/>
       <use xlink:href="#DejaVuSans-30" x="127.246094"/>
      </g>
     </g>
    </g>
    <g id="ytick_6">
     <g id="line2d_38">
      <path d="M 81 458.608873 
L 583.2 458.608873 
" clip-path="url(#p95df34cede)" style="fill: none; stroke: #b0b0b0; stroke-width: 0.8; stroke-linecap: square"/>
     </g>
     <g id="line2d_39">
      <g>
       <use xlink:href="#m6d61d0e211" x="81" y="458.608873" style="stroke: #000000; stroke-width: 0.8"/>
      </g>
     </g>
     <g id="text_18">
      <!-- 600 -->
      <g transform="translate(54.9125 462.408092)scale(0.1 -0.1)">
       <defs>
        <path id="DejaVuSans-36" d="M 2113 2584 
Q 1688 2584 1439 2293 
Q 1191 2003 1191 1497 
Q 1191 994 1439 701 
Q 1688 409 2113 409 
Q 2538 409 2786 701 
Q 3034 994 3034 1497 
Q 3034 2003 2786 2293 
Q 2538 2584 2113 2584 
z
M 3366 4563 
L 3366 3988 
Q 3128 4100 2886 4159 
Q 2644 4219 2406 4219 
Q 1781 4219 1451 3797 
Q 1122 3375 1075 2522 
Q 1259 2794 1537 2939 
Q 1816 3084 2150 3084 
Q 2853 3084 3261 2657 
Q 3669 2231 3669 1497 
Q 3669 778 3244 343 
Q 2819 -91 2113 -91 
Q 1303 -91 875 529 
Q 447 1150 447 2328 
Q 447 3434 972 4092 
Q 1497 4750 2381 4750 
Q 2619 4750 2861 4703 
Q 3103 4656 3366 4563 
z
" transform="scale(0.015625)"/>
       </defs>
       <use xlink:href="#DejaVuSans-36"/>
       <use xlink:href="#DejaVuSans-30" x="63.623047"/>
       <use xlink:href="#DejaVuSans-30" x="127.246094"/>
      </g>
     </g>
    </g>
    <g id="ytick_7">
     <g id="line2d_40">
      <path d="M 81 491.317815 
L 583.2 491.317815 
" clip-path="url(#p95df34cede)" style="fill: none; stroke: #b0b0b0; stroke-width: 0.8; stroke-linecap: square"/>
     </g>
     <g id="line2d_41">
      <g>
       <use xlink:href="#m6d61d0e211" x="81" y="491.317815" style="stroke: #000000; stroke-width: 0.8"/>
      </g>
     </g>
     <g id="text_19">
      <!-- 700 -->
      <g transform="translate(54.9125 495.117034)scale(0.1 -0.1)">
       <defs>
        <path id="DejaVuSans-37" d="M 525 4666 
L 3525 4666 
L 3525 4397 
L 1831 0 
L 1172 0 
L 2766 4134 
L 525 4134 
L 525 4666 
z
" transform="scale(0.015625)"/>
       </defs>
       <use xlink:href="#DejaVuSans-37"/>
       <use xlink:href="#DejaVuSans-30" x="63.623047"/>
       <use xlink:href="#DejaVuSans-30" x="127.246094"/>
      </g>
     </g>
    </g>
    <g id="ytick_8">
     <g id="line2d_42">
      <path d="M 81 519.65159 
L 583.2 519.65159 
" clip-path="url(#p95df34cede)" style="fill: none; stroke: #b0b0b0; stroke-width: 0.8; stroke-linecap: square"/>
     </g>
     <g id="line2d_43">
      <g>
       <use xlink:href="#m6d61d0e211" x="81" y="519.65159" style="stroke: #000000; stroke-width: 0.8"/>
      </g>
     </g>
     <g id="text_20">
      <!-- 800 -->
      <g transform="translate(54.9125 523.450809)scale(0.1 -0.1)">
       <defs>
        <path id="DejaVuSans-38" d="M 2034 2216 
Q 1584 2216 1326 1975 
Q 1069 1734 1069 1313 
Q 1069 891 1326 650 
Q 1584 409 2034 409 
Q 2484 409 2743 651 
Q 3003 894 3003 1313 
Q 3003 1734 2745 1975 
Q 2488 2216 2034 2216 
z
M 1403 2484 
Q 997 2584 770 2862 
Q 544 3141 544 3541 
Q 544 4100 942 4425 
Q 1341 4750 2034 4750 
Q 2731 4750 3128 4425 
Q 3525 4100 3525 3541 
Q 3525 3141 3298 2862 
Q 3072 2584 2669 2484 
Q 3125 2378 3379 2068 
Q 3634 1759 3634 1313 
Q 3634 634 3220 271 
Q 2806 -91 2034 -91 
Q 1263 -91 848 271 
Q 434 634 434 1313 
Q 434 1759 690 2068 
Q 947 2378 1403 2484 
z
M 1172 3481 
Q 1172 3119 1398 2916 
Q 1625 2713 2034 2713 
Q 2441 2713 2670 2916 
Q 2900 3119 2900 3481 
Q 2900 3844 2670 4047 
Q 2441 4250 2034 4250 
Q 1625 4250 1398 4047 
Q 1172 3844 1172 3481 
z
" transform="scale(0.015625)"/>
       </defs>
       <use xlink:href="#DejaVuSans-38"/>
       <use xlink:href="#DejaVuSans-30" x="63.623047"/>
       <use xlink:href="#DejaVuSans-30" x="127.246094"/>
      </g>
     </g>
    </g>
    <g id="ytick_9">
     <g id="line2d_44">
      <path d="M 81 544.643751 
L 583.2 544.643751 
" clip-path="url(#p95df34cede)" style="fill: none; stroke: #b0b0b0; stroke-width: 0.8; stroke-linecap: square"/>
     </g>
     <g id="line2d_45">
      <g>
       <use xlink:href="#m6d61d0e211" x="81" y="544.643751" style="stroke: #000000; stroke-width: 0.8"/>
      </g>
     </g>
     <g id="text_21">
      <!-- 900 -->
      <g transform="translate(54.9125 548.442969)scale(0.1 -0.1)">
       <defs>
        <path id="DejaVuSans-39" d="M 703 97 
L 703 672 
Q 941 559 1184 500 
Q 1428 441 1663 441 
Q 2288 441 2617 861 
Q 2947 1281 2994 2138 
Q 2813 1869 2534 1725 
Q 2256 1581 1919 1581 
Q 1219 1581 811 2004 
Q 403 2428 403 3163 
Q 403 3881 828 4315 
Q 1253 4750 1959 4750 
Q 2769 4750 3195 4129 
Q 3622 3509 3622 2328 
Q 3622 1225 3098 567 
Q 2575 -91 1691 -91 
Q 1453 -91 1209 -44 
Q 966 3 703 97 
z
M 1959 2075 
Q 2384 2075 2632 2365 
Q 2881 2656 2881 3163 
Q 2881 3666 2632 3958 
Q 2384 4250 1959 4250 
Q 1534 4250 1286 3958 
Q 1038 3666 1038 3163 
Q 1038 2656 1286 2365 
Q 1534 2075 1959 2075 
z
" transform="scale(0.015625)"/>
       </defs>
       <use xlink:href="#DejaVuSans-39"/>
       <use xlink:href="#DejaVuSans-30" x="63.623047"/>
       <use xlink:href="#DejaVuSans-30" x="127.246094"/>
      </g>
     </g>
    </g>
    <g id="ytick_10">
     <g id="line2d_46">
      <path d="M 81 567 
L 583.2 567 
" clip-path="url(#p95df34cede)" style="fill: none; stroke: #b0b0b0; stroke-width: 0.8; stroke-linecap: square"/>
     </g>
     <g id="line2d_47">
      <g>
       <use xlink:href="#m6d61d0e211" x="81" y="567" style="stroke: #000000; stroke-width: 0.8"/>
      </g>
     </g>
     <g id="text_22">
      <!-- 1000 -->
      <g transform="translate(48.55 570.799219)scale(0.1 -0.1)">
       <use xlink:href="#DejaVuSans-31"/>
       <use xlink:href="#DejaVuSans-30" x="63.623047"/>
       <use xlink:href="#DejaVuSans-30" x="127.246094"/>
       <use xlink:href="#DejaVuSans-30" x="190.869141"/>
      </g>
     </g>
    </g>
    <g id="text_23">
     <!-- hectopascal -->
     <g transform="translate(42.470312 352.439375)rotate(-90)scale(0.1 -0.1)">
      <defs>
       <path id="DejaVuSans-68" d="M 3513 2113 
L 3513 0 
L 2938 0 
L 2938 2094 
Q 2938 2591 2744 2837 
Q 2550 3084 2163 3084 
Q 1697 3084 1428 2787 
Q 1159 2491 1159 1978 
L 1159 0 
L 581 0 
L 581 4863 
L 1159 4863 
L 1159 2956 
Q 1366 3272 1645 3428 
Q 1925 3584 2291 3584 
Q 2894 3584 3203 3211 
Q 3513 2838 3513 2113 
z
" transform="scale(0.015625)"/>
       <path id="DejaVuSans-63" d="M 3122 3366 
L 3122 2828 
Q 2878 2963 2633 3030 
Q 2388 3097 2138 3097 
Q 1578 3097 1268 2742 
Q 959 2388 959 1747 
Q 959 1106 1268 751 
Q 1578 397 2138 397 
Q 2388 397 2633 464 
Q 2878 531 3122 666 
L 3122 134 
Q 2881 22 2623 -34 
Q 2366 -91 2075 -91 
Q 1284 -91 818 406 
Q 353 903 353 1747 
Q 353 2603 823 3093 
Q 1294 3584 2113 3584 
Q 2378 3584 2631 3529 
Q 2884 3475 3122 3366 
z
" transform="scale(0.015625)"/>
       <path id="DejaVuSans-74" d="M 1172 4494 
L 1172 3500 
L 2356 3500 
L 2356 3053 
L 1172 3053 
L 1172 1153 
Q 1172 725 1289 603 
Q 1406 481 1766 481 
L 2356 481 
L 2356 0 
L 1766 0 
Q 1100 0 847 248 
Q 594 497 594 1153 
L 594 3053 
L 172 3053 
L 172 3500 
L 594 3500 
L 594 4494 
L 1172 4494 
z
" transform="scale(0.015625)"/>
       <path id="DejaVuSans-6f" d="M 1959 3097 
Q 1497 3097 1228 2736 
Q 959 2375 959 1747 
Q 959 1119 1226 758 
Q 1494 397 1959 397 
Q 2419 397 2687 759 
Q 2956 1122 2956 1747 
Q 2956 2369 2687 2733 
Q 2419 3097 1959 3097 
z
M 1959 3584 
Q 2709 3584 3137 3096 
Q 3566 2609 3566 1747 
Q 3566 888 3137 398 
Q 2709 -91 1959 -91 
Q 1206 -91 779 398 
Q 353 888 353 1747 
Q 353 2609 779 3096 
Q 1206 3584 1959 3584 
z
" transform="scale(0.015625)"/>
       <path id="DejaVuSans-70" d="M 1159 525 
L 1159 -1331 
L 581 -1331 
L 581 3500 
L 1159 3500 
L 1159 2969 
Q 1341 3281 1617 3432 
Q 1894 3584 2278 3584 
Q 2916 3584 3314 3078 
Q 3713 2572 3713 1747 
Q 3713 922 3314 415 
Q 2916 -91 2278 -91 
Q 1894 -91 1617 61 
Q 1341 213 1159 525 
z
M 3116 1747 
Q 3116 2381 2855 2742 
Q 2594 3103 2138 3103 
Q 1681 3103 1420 2742 
Q 1159 2381 1159 1747 
Q 1159 1113 1420 752 
Q 1681 391 2138 391 
Q 2594 391 2855 752 
Q 3116 1113 3116 1747 
z
" transform="scale(0.015625)"/>
       <path id="DejaVuSans-61" d="M 2194 1759 
Q 1497 1759 1228 1600 
Q 959 1441 959 1056 
Q 959 750 1161 570 
Q 1363 391 1709 391 
Q 2188 391 2477 730 
Q 2766 1069 2766 1631 
L 2766 1759 
L 2194 1759 
z
M 3341 1997 
L 3341 0 
L 2766 0 
L 2766 531 
Q 2569 213 2275 61 
Q 1981 -91 1556 -91 
Q 1019 -91 701 211 
Q 384 513 384 1019 
Q 384 1609 779 1909 
Q 1175 2209 1959 2209 
L 2766 2209 
L 2766 2266 
Q 2766 2663 2505 2880 
Q 2244 3097 1772 3097 
Q 1472 3097 1187 3025 
Q 903 2953 641 2809 
L 641 3341 
Q 956 3463 1253 3523 
Q 1550 3584 1831 3584 
Q 2591 3584 2966 3190 
Q 3341 2797 3341 1997 
z
" transform="scale(0.015625)"/>
      </defs>
      <use xlink:href="#DejaVuSans-68"/>
      <use xlink:href="#DejaVuSans-65" x="63.378906"/>
      <use xlink:href="#DejaVuSans-63" x="124.902344"/>
      <use xlink:href="#DejaVuSans-74" x="179.882812"/>
      <use xlink:href="#DejaVuSans-6f" x="219.091797"/>
      <use xlink:href="#DejaVuSans-70" x="280.273438"/>
      <use xlink:href="#DejaVuSans-61" x="343.75"/>
      <use xlink:href="#DejaVuSans-73" x="405.029297"/>
      <use xlink:href="#DejaVuSans-63" x="457.128906"/>
      <use xlink:href="#DejaVuSans-61" x="512.109375"/>
      <use xlink:href="#DejaVuSans-6c" x="573.388672"/>
     </g>
    </g>
   </g>
   <g id="LineCollection_1">
    <path d="M 81 567 
L 77.349785 563.065063 
L 73.662783 559.055774 
L 69.938024 554.969268 
L 66.174494 550.802513 
L 62.371135 546.552292 
L 58.526841 542.215195 
L 54.640458 537.787595 
L 50.710776 533.265635 
L 46.736528 528.645204 
L 42.716388 523.921919 
L 38.648963 519.091096 
L 34.532794 514.147723 
L 30.366346 509.086432 
L 26.148003 503.901458 
L 21.876069 498.586605 
L 17.548752 493.135199 
L 13.164167 487.540037 
L 8.72032 481.793333 
L 4.215108 475.886646 
L -0.353696 469.810816 
L -1 468.93858 
" clip-path="url(#p95df34cede)" style="fill: none; stroke-dasharray: 5.55,2.4; stroke-dashoffset: 0; stroke: #ff0000; stroke-opacity: 0.5; stroke-width: 1.5"/>
    <path d="M 131.22 567 
L 127.304401 563.065063 
L 123.348443 559.055774 
L 119.351037 554.969268 
L 115.311047 550.802513 
L 111.227283 546.552292 
L 107.098503 542.215195 
L 102.923405 537.787595 
L 98.700627 533.265635 
L 94.428738 528.645204 
L 90.10624 523.921919 
L 85.731556 519.091096 
L 81.30303 514.147723 
L 76.818922 509.086432 
L 72.277393 503.901458 
L 67.676511 498.586605 
L 63.014232 493.135199 
L 58.288398 487.540037 
L 53.496727 481.793333 
L 48.636802 475.886646 
L 43.706058 469.810816 
L 38.701774 463.555868 
L 33.621059 457.110919 
L 28.460833 450.464065 
L 23.217814 443.602244 
L 17.888499 436.511085 
L 12.469145 429.174728 
L 6.955741 421.575605 
L 1.343992 413.694194 
L -1 410.336769 
" clip-path="url(#p95df34cede)" style="fill: none; stroke-dasharray: 5.55,2.4; stroke-dashoffset: 0; stroke: #ff0000; stroke-opacity: 0.5; stroke-width: 1.5"/>
    <path d="M 181.44 567 
L 177.259016 563.065063 
L 173.034102 559.055774 
L 168.76405 554.969268 
L 164.447599 550.802513 
L 160.083431 546.552292 
L 155.670165 542.215195 
L 151.206353 537.787595 
L 146.690478 533.265635 
L 142.120949 528.645204 
L 137.496091 523.921919 
L 132.814148 519.091096 
L 128.073267 514.147723 
L 123.271497 509.086432 
L 118.406784 503.901458 
L 113.476954 498.586605 
L 108.479712 493.135199 
L 103.41263 487.540037 
L 98.273135 481.793333 
L 93.058495 475.886646 
L 87.765811 469.810816 
L 82.391998 463.555868 
L 76.93377 457.110919 
L 71.387622 450.464065 
L 65.749806 443.602244 
L 60.016314 436.511085 
L 54.182848 429.174728 
L 48.244792 421.575605 
L 42.197182 413.694194 
L 36.034666 405.508708 
L 29.751462 396.99474 
L 23.341316 388.124821 
L 16.797447 378.867882 
L 10.112486 369.188605 
L 3.278409 359.046601 
L -1 352.529069 
" clip-path="url(#p95df34cede)" style="fill: none; stroke-dasharray: 5.55,2.4; stroke-dashoffset: 0; stroke: #ff0000; stroke-opacity: 0.5; stroke-width: 1.5"/>
    <path d="M 231.66 567 
L 227.213632 563.065063 
L 222.719761 559.055774 
L 218.177062 554.969268 
L 213.584152 550.802513 
L 208.939579 546.552292 
L 204.241826 542.215195 
L 199.4893 537.787595 
L 194.680329 533.265635 
L 189.813159 528.645204 
L 184.885943 523.921919 
L 179.89674 519.091096 
L 174.843503 514.147723 
L 169.724073 509.086432 
L 164.536174 503.901458 
L 159.277396 498.586605 
L 153.945192 493.135199 
L 148.536862 487.540037 
L 143.049542 481.793333 
L 137.480188 475.886646 
L 131.825565 469.810816 
L 126.082223 463.555868 
L 120.246482 457.110919 
L 114.31441 450.464065 
L 108.281797 443.602244 
L 102.144128 436.511085 
L 95.896551 429.174728 
L 89.533844 421.575605 
L 83.050373 413.694194 
L 76.44005 405.508708 
L 69.696277 396.99474 
L 62.811889 388.124821 
L 55.779089 378.867882 
L 48.589365 369.188605 
L 41.233407 359.046601 
L 33.700999 348.395397 
L 25.980904 337.181147 
L 18.060727 325.340985 
L 9.926761 312.800889 
L 1.563811 299.472878 
L -1 295.237504 
" clip-path="url(#p95df34cede)" style="fill: none; stroke-dasharray: 5.55,2.4; stroke-dashoffset: 0; stroke: #ff0000; stroke-opacity: 0.5; stroke-width: 1.5"/>
    <path d="M 281.88 567 
L 277.168248 563.065063 
L 272.40542 559.055774 
L 267.590075 554.969268 
L 262.720704 550.802513 
L 257.795727 546.552292 
L 252.813488 542.215195 
L 247.772247 537.787595 
L 242.670181 533.265635 
L 237.50537 528.645204 
L 232.275795 523.921919 
L 226.979332 519.091096 
L 221.613739 514.147723 
L 216.176649 509.086432 
L 210.665564 503.901458 
L 205.077839 498.586605 
L 199.410673 493.135199 
L 193.661094 487.540037 
L 187.825949 481.793333 
L 181.901882 475.886646 
L 175.885318 469.810816 
L 169.772447 463.555868 
L 163.559193 457.110919 
L 157.241199 450.464065 
L 150.813789 443.602244 
L 144.271942 436.511085 
L 137.610254 429.174728 
L 130.822895 421.575605 
L 123.903564 413.694194 
L 116.845435 405.508708 
L 109.641092 396.99474 
L 102.282462 388.124821 
L 94.76073 378.867882 
L 87.066244 369.188605 
L 79.188404 359.046601 
L 71.11553 348.395397 
L 62.834715 337.181147 
L 54.331638 325.340985 
L 45.590365 312.800889 
L 36.593092 299.472878 
L 27.319866 285.251262 
L 17.748245 270.007547 
L 7.852927 253.583362 
L -1 238.203332 
" clip-path="url(#p95df34cede)" style="fill: none; stroke-dasharray: 5.55,2.4; stroke-dashoffset: 0; stroke: #ff0000; stroke-opacity: 0.5; stroke-width: 1.5"/>
    <path d="M 332.1 567 
L 327.122863 563.065063 
L 322.091079 559.055774 
L 317.003088 554.969268 
L 311.857257 550.802513 
L 306.651875 546.552292 
L 301.385149 542.215195 
L 296.055194 537.787595 
L 290.660032 533.265635 
L 285.19758 528.645204 
L 279.665647 523.921919 
L 274.061924 519.091096 
L 268.383975 514.147723 
L 262.629225 509.086432 
L 256.794954 503.901458 
L 250.878282 498.586605 
L 244.876153 493.135199 
L 238.785326 487.540037 
L 232.602356 481.793333 
L 226.323575 475.886646 
L 219.945072 469.810816 
L 213.462671 463.555868 
L 206.871905 457.110919 
L 200.167988 450.464065 
L 193.345781 443.602244 
L 186.399756 436.511085 
L 179.323957 429.174728 
L 172.111946 421.575605 
L 164.756755 413.694194 
L 157.250819 405.508708 
L 149.585907 396.99474 
L 141.753035 388.124821 
L 133.742372 378.867882 
L 125.543124 369.188605 
L 117.143401 359.046601 
L 108.530062 348.395397 
L 99.688526 337.181147 
L 90.60255 325.340985 
L 81.253969 312.800889 
L 71.622374 299.472878 
L 61.684732 285.251262 
L 51.414932 270.007547 
L 40.783235 253.583362 
L 29.755632 235.780415 
L 18.293106 216.345827 
L 6.350847 194.950064 
L -1 180.925462 
" clip-path="url(#p95df34cede)" style="fill: none; stroke-dasharray: 5.55,2.4; stroke-dashoffset: 0; stroke: #ff0000; stroke-opacity: 0.5; stroke-width: 1.5"/>
    <path d="M 382.32 567 
L 377.077479 563.065063 
L 371.776738 559.055774 
L 366.4161 554.969268 
L 360.993809 550.802513 
L 355.508024 546.552292 
L 349.956811 542.215195 
L 344.338142 537.787595 
L 338.649883 533.265635 
L 332.88979 528.645204 
L 327.055499 523.921919 
L 321.144517 519.091096 
L 315.154211 514.147723 
L 309.081801 509.086432 
L 302.924345 503.901458 
L 296.678724 498.586605 
L 290.341633 493.135199 
L 283.909558 487.540037 
L 277.378764 481.793333 
L 270.745269 475.886646 
L 264.004826 469.810816 
L 257.152895 463.555868 
L 250.184616 457.110919 
L 243.094776 450.464065 
L 235.877772 443.602244 
L 228.527571 436.511085 
L 221.03766 429.174728 
L 213.400997 421.575605 
L 205.609946 413.694194 
L 197.656204 405.508708 
L 189.530722 396.99474 
L 181.223608 388.124821 
L 172.724014 378.867882 
L 164.020003 369.188605 
L 155.098399 359.046601 
L 145.944594 348.395397 
L 136.542337 337.181147 
L 126.873462 325.340985 
L 116.917573 312.800889 
L 106.651655 299.472878 
L 96.049598 285.251262 
L 85.081619 270.007547 
L 73.713543 253.583362 
L 61.905923 235.780415 
L 49.612971 216.345827 
L 36.781271 194.950064 
L 23.348342 171.152431 
L 9.241271 144.344661 
L -1 123.20002 
" clip-path="url(#p95df34cede)" style="fill: none; stroke-dasharray: 5.55,2.4; stroke-dashoffset: 0; stroke: #ff0000; stroke-opacity: 0.5; stroke-width: 1.5"/>
    <path d="M 432.54 567 
L 427.032095 563.065063 
L 421.462397 559.055774 
L 415.829113 554.969268 
L 410.130362 550.802513 
L 404.364172 546.552292 
L 398.528472 542.215195 
L 392.621089 537.787595 
L 386.639734 533.265635 
L 380.582001 528.645204 
L 374.445351 523.921919 
L 368.227109 519.091096 
L 361.924447 514.147723 
L 355.534377 509.086432 
L 349.053735 503.901458 
L 342.479167 498.586605 
L 335.807113 493.135199 
L 329.03379 487.540037 
L 322.155171 481.793333 
L 315.166962 475.886646 
L 308.064579 469.810816 
L 300.843119 463.555868 
L 293.497328 457.110919 
L 286.021565 450.464065 
L 278.409764 443.602244 
L 270.655385 436.511085 
L 262.751363 429.174728 
L 254.690048 421.575605 
L 246.463136 413.694194 
L 238.061588 405.508708 
L 229.475537 396.99474 
L 220.694181 388.124821 
L 211.705655 378.867882 
L 202.496883 369.188605 
L 193.053396 359.046601 
L 183.359126 348.395397 
L 173.396148 337.181147 
L 163.144374 325.340985 
L 152.581177 312.800889 
L 141.680936 299.472878 
L 130.414464 285.251262 
L 118.748306 270.007547 
L 106.64385 253.583362 
L 94.056215 235.780415 
L 80.932837 216.345827 
L 67.211694 194.950064 
L 52.819115 171.152431 
L 37.667208 144.344661 
L 21.651335 113.653469 
L 4.64932 77.76 
" clip-path="url(#p95df34cede)" style="fill: none; stroke-dasharray: 5.55,2.4; stroke-dashoffset: 0; stroke: #ff0000; stroke-opacity: 0.5; stroke-width: 1.5"/>
    <path d="M 482.76 567 
L 476.98671 563.065063 
L 471.148056 559.055774 
L 465.242126 554.969268 
L 459.266914 550.802513 
L 453.22032 546.552292 
L 447.100134 542.215195 
L 440.904036 537.787595 
L 434.629586 533.265635 
L 428.274211 528.645204 
L 421.835203 523.921919 
L 415.309701 519.091096 
L 408.694683 514.147723 
L 401.986953 509.086432 
L 395.183125 503.901458 
L 388.279609 498.586605 
L 381.272593 493.135199 
L 374.158022 487.540037 
L 366.931578 481.793333 
L 359.588656 475.886646 
L 352.124333 469.810816 
L 344.533343 463.555868 
L 336.810039 457.110919 
L 328.948354 450.464065 
L 320.941756 443.602244 
L 312.783199 436.511085 
L 304.465066 429.174728 
L 295.979099 421.575605 
L 287.316327 413.694194 
L 278.466973 405.508708 
L 269.420352 396.99474 
L 260.164754 388.124821 
L 250.687297 378.867882 
L 240.973762 369.188605 
L 231.008393 359.046601 
L 220.773658 348.395397 
L 210.249959 337.181147 
L 199.415285 325.340985 
L 188.244781 312.800889 
L 176.710217 299.472878 
L 164.779331 285.251262 
L 152.414993 270.007547 
L 139.574158 253.583362 
L 126.206507 235.780415 
L 112.252702 216.345827 
L 97.642118 194.950064 
L 82.289888 171.152431 
L 66.093144 144.344661 
L 48.92648 113.653469 
L 30.637577 77.76 
" clip-path="url(#p95df34cede)" style="fill: none; stroke-dasharray: 5.55,2.4; stroke-dashoffset: 0; stroke: #ff0000; stroke-opacity: 0.5; stroke-width: 1.5"/>
    <path d="M 532.98 567 
L 526.941326 563.065063 
L 520.833715 559.055774 
L 514.655138 554.969268 
L 508.403467 550.802513 
L 502.076468 546.552292 
L 495.671795 542.215195 
L 489.186984 537.787595 
L 482.619437 533.265635 
L 475.966422 528.645204 
L 469.225055 523.921919 
L 462.392293 519.091096 
L 455.464919 514.147723 
L 448.439529 509.086432 
L 441.312515 503.901458 
L 434.080052 498.586605 
L 426.738073 493.135199 
L 419.282254 487.540037 
L 411.707985 481.793333 
L 404.010349 475.886646 
L 396.184087 469.810816 
L 388.223568 463.555868 
L 380.122751 457.110919 
L 371.875143 450.464065 
L 363.473747 443.602244 
L 354.911013 436.511085 
L 346.178769 429.174728 
L 337.268151 421.575605 
L 328.169518 413.694194 
L 318.872357 405.508708 
L 309.365167 396.99474 
L 299.635327 388.124821 
L 289.668939 378.867882 
L 279.450642 369.188605 
L 268.96339 359.046601 
L 258.188189 348.395397 
L 247.10377 337.181147 
L 235.686197 325.340985 
L 223.908385 312.800889 
L 211.739499 299.472878 
L 199.144197 285.251262 
L 186.08168 270.007547 
L 172.504466 253.583362 
L 158.356798 235.780415 
L 143.572567 216.345827 
L 128.072541 194.950064 
L 111.760661 171.152431 
L 94.519081 144.344661 
L 76.201626 113.653469 
L 56.625835 77.76 
" clip-path="url(#p95df34cede)" style="fill: none; stroke-dasharray: 5.55,2.4; stroke-dashoffset: 0; stroke: #ff0000; stroke-opacity: 0.5; stroke-width: 1.5"/>
    <path d="M 583.2 567 
L 576.895942 563.065063 
L 570.519374 559.055774 
L 564.068151 554.969268 
L 557.54002 550.802513 
L 550.932616 546.552292 
L 544.243457 542.215195 
L 537.469931 537.787595 
L 530.609288 533.265635 
L 523.658632 528.645204 
L 516.614907 523.921919 
L 509.474885 519.091096 
L 502.235155 514.147723 
L 494.892105 509.086432 
L 487.441906 503.901458 
L 479.880495 498.586605 
L 472.203553 493.135199 
L 464.406486 487.540037 
L 456.484393 481.793333 
L 448.432042 475.886646 
L 440.24384 469.810816 
L 431.913792 463.555868 
L 423.435462 457.110919 
L 414.801931 450.464065 
L 406.005739 443.602244 
L 397.038828 436.511085 
L 387.892472 429.174728 
L 378.557202 421.575605 
L 369.022709 413.694194 
L 359.277742 405.508708 
L 349.309982 396.99474 
L 339.1059 388.124821 
L 328.650581 378.867882 
L 317.927521 369.188605 
L 306.918388 359.046601 
L 295.602721 348.395397 
L 283.957581 337.181147 
L 271.957109 325.340985 
L 259.571989 312.800889 
L 246.76878 299.472878 
L 233.509063 285.251262 
L 219.748368 270.007547 
L 205.434774 253.583362 
L 190.50709 235.780415 
L 174.892433 216.345827 
L 158.502964 194.950064 
L 141.231435 171.152431 
L 122.945018 144.344661 
L 103.476772 113.653469 
L 82.614093 77.76 
" clip-path="url(#p95df34cede)" style="fill: none; stroke-dasharray: 5.55,2.4; stroke-dashoffset: 0; stroke: #ff0000; stroke-opacity: 0.5; stroke-width: 1.5"/>
   </g>
   <g id="LineCollection_2">
    <path d="M 81 567 
L 77.400653 563.065063 
L 73.759774 559.055774 
L 70.076652 554.969268 
L 66.350563 550.802513 
L 62.580726 546.552292 
L 58.766299 542.215195 
L 54.90638 537.787595 
L 51.000008 533.265635 
L 47.046157 528.645204 
L 43.043729 523.921919 
L 38.991553 519.091096 
L 34.888377 514.147723 
L 30.732866 509.086432 
L 26.523592 503.901458 
L 22.259032 498.586605 
L 17.937565 493.135199 
L 13.557458 487.540037 
L 9.116865 481.793333 
L 4.613814 475.886646 
L 0.0462 469.810816 
L -1 468.398788 
" clip-path="url(#p95df34cede)" style="fill: none; stroke-dasharray: 5.55,2.4; stroke-dashoffset: 0; stroke: #0000ff; stroke-opacity: 0.5; stroke-width: 1.5"/>
    <path d="M 131.22 567 
L 127.446695 563.065063 
L 123.621146 559.055774 
L 119.742793 554.969268 
L 115.811068 550.802513 
L 111.825342 546.552292 
L 107.78493 542.215195 
L 103.689081 537.787595 
L 99.536981 533.265635 
L 95.327742 528.645204 
L 91.060395 523.921919 
L 86.733885 519.091096 
L 82.347058 514.147723 
L 77.898666 509.086432 
L 73.387341 503.901458 
L 68.811602 498.586605 
L 64.169842 493.135199 
L 59.460316 487.540037 
L 54.681133 481.793333 
L 49.830243 475.886646 
L 44.90543 469.810816 
L 39.904294 463.555868 
L 34.824239 457.110919 
L 29.662461 450.464065 
L 24.415928 443.602244 
L 19.081363 436.511085 
L 13.655219 429.174728 
L 8.133669 421.575605 
L 2.512568 413.694194 
L -1 408.672116 
" clip-path="url(#p95df34cede)" style="fill: none; stroke-dasharray: 5.55,2.4; stroke-dashoffset: 0; stroke: #0000ff; stroke-opacity: 0.5; stroke-width: 1.5"/>
    <path d="M 181.44 567 
L 177.611292 563.065063 
L 173.713551 559.055774 
L 169.746227 554.969268 
L 165.708805 550.802513 
L 161.600755 546.552292 
L 157.421529 542.215195 
L 153.170549 537.787595 
L 148.847205 533.265635 
L 144.450842 528.645204 
L 139.980744 523.921919 
L 135.436126 519.091096 
L 130.816121 514.147723 
L 126.119769 509.086432 
L 121.345993 503.901458 
L 116.493595 498.586605 
L 111.561243 493.135199 
L 106.547447 487.540037 
L 101.450547 481.793333 
L 96.268698 475.886646 
L 90.999847 469.810816 
L 85.641718 463.555868 
L 80.191792 457.110919 
L 74.647283 450.464065 
L 69.005118 443.602244 
L 63.26191 436.511085 
L 57.413925 429.174728 
L 51.457067 421.575605 
L 45.386827 413.694194 
L 39.19826 405.508708 
L 32.885939 396.99474 
L 26.4439 388.124821 
L 19.865606 378.867882 
L 13.143874 369.188605 
L 6.270819 359.046601 
L -0.762228 348.395397 
L -1 348.025192 
" clip-path="url(#p95df34cede)" style="fill: none; stroke-dasharray: 5.55,2.4; stroke-dashoffset: 0; stroke: #0000ff; stroke-opacity: 0.5; stroke-width: 1.5"/>
    <path d="M 231.66 567 
L 227.982304 563.065063 
L 224.214615 559.055774 
L 220.355526 554.969268 
L 216.40376 550.802513 
L 212.358106 546.552292 
L 208.217433 542.215195 
L 203.980683 537.787595 
L 199.646869 533.265635 
L 195.215067 528.645204 
L 190.684402 523.921919 
L 186.054038 519.091096 
L 181.323159 514.147723 
L 176.49096 509.086432 
L 171.556605 503.901458 
L 166.519224 498.586605 
L 161.377884 493.135199 
L 156.131551 487.540037 
L 150.779074 481.793333 
L 145.319143 475.886646 
L 139.750261 469.810816 
L 134.070708 463.555868 
L 128.278507 457.110919 
L 122.371385 450.464065 
L 116.346734 443.602244 
L 110.201569 436.511085 
L 103.932485 429.174728 
L 97.535612 421.575605 
L 91.006566 413.694194 
L 84.34039 405.508708 
L 77.531509 396.99474 
L 70.573647 388.124821 
L 63.45977 378.867882 
L 56.181998 369.188605 
L 48.731518 359.046601 
L 41.098474 348.395397 
L 33.271848 337.181147 
L 25.239325 325.340985 
L 16.987137 312.800889 
L 8.499867 299.472878 
L -0.239739 285.251262 
L -1 283.965181 
" clip-path="url(#p95df34cede)" style="fill: none; stroke-dasharray: 5.55,2.4; stroke-dashoffset: 0; stroke: #0000ff; stroke-opacity: 0.5; stroke-width: 1.5"/>
    <path d="M 281.88 567 
L 278.63042 563.065063 
L 275.277026 559.055774 
L 271.81628 554.969268 
L 268.244744 550.802513 
L 264.558995 546.552292 
L 260.755664 542.215195 
L 256.831463 537.787595 
L 252.783212 533.265635 
L 248.607856 528.645204 
L 244.302487 523.921919 
L 239.864363 519.091096 
L 235.290925 514.147723 
L 230.579806 509.086432 
L 225.72884 503.901458 
L 220.736053 498.586605 
L 215.599666 493.135199 
L 210.318064 487.540037 
L 204.889785 481.793333 
L 199.313473 475.886646 
L 193.587841 469.810816 
L 187.711617 463.555868 
L 181.683479 457.110919 
L 175.501992 450.464065 
L 169.165528 443.602244 
L 162.672184 436.511085 
L 156.019693 429.174728 
L 149.205337 421.575605 
L 142.225849 413.694194 
L 135.077308 405.508708 
L 127.755045 396.99474 
L 120.253513 388.124821 
L 112.56619 378.867882 
L 104.68544 369.188605 
L 96.602382 359.046601 
L 88.306731 348.395397 
L 79.786628 337.181147 
L 71.028443 325.340985 
L 62.016552 312.800889 
L 52.733052 299.472878 
L 43.157468 285.251262 
L 33.266371 270.007547 
L 23.032939 253.583362 
L 12.426483 235.780415 
L 1.4119 216.345827 
L -1 211.843886 
" clip-path="url(#p95df34cede)" style="fill: none; stroke-dasharray: 5.55,2.4; stroke-dashoffset: 0; stroke: #0000ff; stroke-opacity: 0.5; stroke-width: 1.5"/>
    <path d="M 332.1 567 
L 329.527768 563.065063 
L 326.859689 559.055774 
L 324.0906 554.969268 
L 321.215178 550.802513 
L 318.227816 546.552292 
L 315.122643 542.215195 
L 311.893533 537.787595 
L 308.534134 533.265635 
L 305.037878 528.645204 
L 301.397999 523.921919 
L 297.607573 519.091096 
L 293.659561 514.147723 
L 289.54685 509.086432 
L 285.262323 503.901458 
L 280.798922 498.586605 
L 276.149716 493.135199 
L 271.307989 487.540037 
L 266.267314 481.793333 
L 261.021638 475.886646 
L 255.565348 469.810816 
L 249.893344 463.555868 
L 244.001064 457.110919 
L 237.884517 450.464065 
L 231.540271 443.602244 
L 224.965393 436.511085 
L 218.157369 429.174728 
L 211.113994 421.575605 
L 203.833194 413.694194 
L 196.312834 405.508708 
L 188.550497 396.99474 
L 180.543205 388.124821 
L 172.287166 378.867882 
L 163.777466 369.188605 
L 155.007767 359.046601 
L 145.96998 348.395397 
L 136.653934 337.181147 
L 127.047018 325.340985 
L 117.133796 312.800889 
L 106.895569 299.472878 
L 96.309898 285.251262 
L 85.350026 270.007547 
L 73.984178 253.583362 
L 62.174746 235.780415 
L 49.877266 216.345827 
L 37.03921 194.950064 
L 23.598633 171.152431 
L 9.482861 144.344661 
L -1 122.715386 
" clip-path="url(#p95df34cede)" style="fill: none; stroke-dasharray: 5.55,2.4; stroke-dashoffset: 0; stroke: #0000ff; stroke-opacity: 0.5; stroke-width: 1.5"/>
    <path d="M 357.21 567 
L 355.024718 563.065063 
L 352.756069 559.055774 
L 350.398994 554.969268 
L 347.948184 550.802513 
L 345.397933 546.552292 
L 342.74214 542.215195 
L 339.974288 537.787595 
L 337.087441 533.265635 
L 334.074223 528.645204 
L 330.926802 523.921919 
L 327.636885 519.091096 
L 324.195722 514.147723 
L 320.594116 509.086432 
L 316.822437 503.901458 
L 312.870673 498.586605 
L 308.728466 493.135199 
L 304.385199 487.540037 
L 299.830069 481.793333 
L 295.052211 475.886646 
L 290.040828 469.810816 
L 284.785333 463.555868 
L 279.275528 457.110919 
L 273.501761 450.464065 
L 267.455102 443.602244 
L 261.127482 436.511085 
L 254.511803 429.174728 
L 247.602011 421.575605 
L 240.393075 413.694194 
L 232.880905 405.508708 
L 225.062192 396.99474 
L 216.934093 388.124821 
L 208.493922 378.867882 
L 199.738684 369.188605 
L 190.664588 359.046601 
L 181.266487 348.395397 
L 171.537296 337.181147 
L 161.467382 325.340985 
L 151.043927 312.800889 
L 140.250252 299.472878 
L 129.065114 285.251262 
L 117.461909 270.007547 
L 105.407756 253.583362 
L 92.862421 235.780415 
L 79.776988 216.345827 
L 66.092215 194.950064 
L 51.736516 171.152431 
L 36.623593 144.344661 
L 20.650153 113.653469 
L 3.695415 77.76 
" clip-path="url(#p95df34cede)" style="fill: none; stroke-dasharray: 5.55,2.4; stroke-dashoffset: 0; stroke: #0000ff; stroke-opacity: 0.5; stroke-width: 1.5"/>
    <path d="M 382.32 567 
L 380.521077 563.065063 
L 378.654315 559.055774 
L 376.715334 554.969268 
L 374.699488 550.802513 
L 372.601723 546.552292 
L 370.416562 542.215195 
L 368.138061 537.787595 
L 365.759789 533.265635 
L 363.274775 528.645204 
L 360.675463 523.921919 
L 357.953664 519.091096 
L 355.100503 514.147723 
L 352.106388 509.086432 
L 348.960931 503.901458 
L 345.652939 498.586605 
L 342.170365 493.135199 
L 338.500286 487.540037 
L 334.62889 481.793333 
L 330.541488 475.886646 
L 326.222562 469.810816 
L 321.655824 463.555868 
L 316.824361 457.110919 
L 311.710781 450.464065 
L 306.297449 443.602244 
L 300.566776 436.511085 
L 294.501568 429.174728 
L 288.085378 421.575605 
L 281.302925 413.694194 
L 274.140462 405.508708 
L 266.586107 396.99474 
L 258.630013 388.124821 
L 250.264426 378.867882 
L 241.483483 369.188605 
L 232.282794 359.046601 
L 222.658762 348.395397 
L 212.607691 337.181147 
L 202.124712 325.340985 
L 191.202572 312.800889 
L 179.830329 299.472878 
L 167.99202 285.251262 
L 155.665264 270.007547 
L 142.81978 253.583362 
L 129.415801 235.780415 
L 115.402204 216.345827 
L 100.714263 194.950064 
L 85.27083 171.152431 
L 68.970721 144.344661 
L 51.688344 113.653469 
L 33.269332 77.76 
" clip-path="url(#p95df34cede)" style="fill: none; stroke-dasharray: 5.55,2.4; stroke-dashoffset: 0; stroke: #0000ff; stroke-opacity: 0.5; stroke-width: 1.5"/>
    <path d="M 407.43 567 
L 405.995134 563.065063 
L 404.508487 559.055774 
L 402.966654 554.969268 
L 401.366006 550.802513 
L 399.702572 546.552292 
L 397.972019 542.215195 
L 396.169605 537.787595 
L 394.290157 533.265635 
L 392.328009 528.645204 
L 390.27695 523.921919 
L 388.13016 519.091096 
L 385.880138 514.147723 
L 383.518642 509.086432 
L 381.036569 503.901458 
L 378.423893 498.586605 
L 375.669561 493.135199 
L 372.761368 487.540037 
L 369.685848 481.793333 
L 366.428146 475.886646 
L 362.971887 469.810816 
L 359.299063 463.555868 
L 355.389907 457.110919 
L 351.22281 450.464065 
L 346.77425 443.602244 
L 342.018809 436.511085 
L 336.929247 429.174728 
L 331.47668 421.575605 
L 325.630931 413.694194 
L 319.361019 405.508708 
L 312.635828 396.99474 
L 305.425035 388.124821 
L 297.700063 378.867882 
L 289.435175 369.188605 
L 280.608447 359.046601 
L 271.202443 348.395397 
L 261.204423 337.181147 
L 250.605875 325.340985 
L 239.401282 312.800889 
L 227.586095 299.472878 
L 215.154157 285.251262 
L 202.094641 270.007547 
L 188.388757 253.583362 
L 174.006392 235.780415 
L 158.902623 216.345827 
L 143.014002 194.950064 
L 126.254281 171.152431 
L 108.509096 144.344661 
L 89.629045 113.653469 
L 69.420816 77.76 
" clip-path="url(#p95df34cede)" style="fill: none; stroke-dasharray: 5.55,2.4; stroke-dashoffset: 0; stroke: #0000ff; stroke-opacity: 0.5; stroke-width: 1.5"/>
    <path d="M 432.54 567 
L 431.431594 563.065063 
L 430.286073 559.055774 
L 429.10102 554.969268 
L 427.873865 550.802513 
L 426.601791 546.552292 
L 425.281714 542.215195 
L 423.910253 537.787595 
L 422.483706 533.265635 
L 420.998009 528.645204 
L 419.448684 523.921919 
L 417.830792 519.091096 
L 416.138867 514.147723 
L 414.366863 509.086432 
L 412.508048 503.901458 
L 410.554932 498.586605 
L 408.499175 493.135199 
L 406.331434 487.540037 
L 404.041253 481.793333 
L 401.61688 475.886646 
L 399.045088 469.810816 
L 396.310971 463.555868 
L 393.397674 457.110919 
L 390.28614 450.464065 
L 386.954783 443.602244 
L 383.379137 436.511085 
L 379.531467 429.174728 
L 375.380401 421.575605 
L 370.890502 413.694194 
L 366.02193 405.508708 
L 360.730161 396.99474 
L 354.965911 388.124821 
L 348.675329 378.867882 
L 341.800645 369.188605 
L 334.281387 359.046601 
L 326.056361 348.395397 
L 317.066357 337.181147 
L 307.257423 325.340985 
L 296.584271 312.800889 
L 285.01289 299.472878 
L 272.521493 285.251262 
L 259.098787 270.007547 
L 244.739172 253.583362 
L 229.435365 235.780415 
L 213.169171 216.345827 
L 195.90157 194.950064 
L 177.562689 171.152431 
L 158.041463 144.344661 
L 137.173948 113.653469 
L 114.728386 77.76 
" clip-path="url(#p95df34cede)" style="fill: none; stroke-dasharray: 5.55,2.4; stroke-dashoffset: 0; stroke: #0000ff; stroke-opacity: 0.5; stroke-width: 1.5"/>
    <path d="M 457.65 567 
L 456.822321 563.065063 
L 455.969781 559.055774 
L 455.090805 554.969268 
L 454.183729 550.802513 
L 453.246725 546.552292 
L 452.277798 542.215195 
L 451.274757 537.787595 
L 450.235209 533.265635 
L 449.156526 528.645204 
L 448.035811 523.921919 
L 446.869872 519.091096 
L 445.65517 514.147723 
L 444.387793 509.086432 
L 443.063374 503.901458 
L 441.677048 498.586605 
L 440.223387 493.135199 
L 438.696289 487.540037 
L 437.088898 481.793333 
L 435.393471 475.886646 
L 433.601234 469.810816 
L 431.702228 463.555868 
L 429.685073 457.110919 
L 427.536754 450.464065 
L 425.242312 443.602244 
L 422.784477 436.511085 
L 420.143225 429.174728 
L 417.29529 421.575605 
L 414.213487 413.694194 
L 410.865952 405.508708 
L 407.215245 396.99474 
L 403.217172 388.124821 
L 398.81957 378.867882 
L 393.960796 369.188605 
L 388.568153 359.046601 
L 382.556319 348.395397 
L 375.826092 337.181147 
L 368.263943 325.340985 
L 359.743137 312.800889 
L 350.127591 299.472878 
L 339.279263 285.251262 
L 327.069618 270.007547 
L 313.393422 253.583362 
L 298.180331 235.780415 
L 281.397635 216.345827 
L 263.038629 194.950064 
L 243.096337 171.152431 
L 221.528091 144.344661 
L 198.218074 113.653469 
L 172.940507 77.76 
" clip-path="url(#p95df34cede)" style="fill: none; stroke-dasharray: 5.55,2.4; stroke-dashoffset: 0; stroke: #0000ff; stroke-opacity: 0.5; stroke-width: 1.5"/>
    <path d="M 482.76 567 
L 482.165252 563.065063 
L 481.555247 559.055774 
L 480.929052 554.969268 
L 480.285689 550.802513 
L 479.624086 546.552292 
L 478.943074 542.215195 
L 478.241371 537.787595 
L 477.517578 533.265635 
L 476.770163 528.645204 
L 475.997441 523.921919 
L 475.197558 519.091096 
L 474.368462 514.147723 
L 473.507889 509.086432 
L 472.613315 503.901458 
L 471.681932 498.586605 
L 470.710614 493.135199 
L 469.695852 487.540037 
L 468.633705 481.793333 
L 467.519732 475.886646 
L 466.348898 469.810816 
L 465.115496 463.555868 
L 463.813001 457.110919 
L 462.433948 450.464065 
L 460.969746 443.602244 
L 459.410452 436.511085 
L 457.744499 429.174728 
L 455.958381 421.575605 
L 454.036205 413.694194 
L 451.95917 405.508708 
L 449.704907 396.99474 
L 447.24655 388.124821 
L 444.551678 378.867882 
L 441.580819 369.188605 
L 438.285559 359.046601 
L 434.606024 348.395397 
L 430.467593 337.181147 
L 425.776605 325.340985 
L 420.414811 312.800889 
L 414.232333 299.472878 
L 407.039484 285.251262 
L 398.598197 270.007547 
L 388.616095 253.583362 
L 376.749294 235.780415 
L 362.624185 216.345827 
L 345.887848 194.950064 
L 326.280764 171.152431 
L 303.689737 144.344661 
L 278.117327 113.653469 
L 249.546874 77.76 
" clip-path="url(#p95df34cede)" style="fill: none; stroke-dasharray: 5.55,2.4; stroke-dashoffset: 0; stroke: #0000ff; stroke-opacity: 0.5; stroke-width: 1.5"/>
    <path d="M 507.87 567 
L 507.462528 563.065063 
L 507.046986 559.055774 
L 506.622893 554.969268 
L 506.189759 550.802513 
L 505.747046 546.552292 
L 505.294162 542.215195 
L 504.830462 537.787595 
L 504.355244 533.265635 
L 503.867738 528.645204 
L 503.3671 523.921919 
L 502.852401 519.091096 
L 502.322616 514.147723 
L 501.776614 509.086432 
L 501.213137 503.901458 
L 500.630786 498.586605 
L 500.028007 493.135199 
L 499.403059 487.540037 
L 498.75399 481.793333 
L 498.078602 475.886646 
L 497.374411 469.810816 
L 496.638605 463.555868 
L 495.867974 457.110919 
L 495.058855 450.464065 
L 494.207041 443.602244 
L 493.307672 436.511085 
L 492.355104 429.174728 
L 491.342764 421.575605 
L 490.262929 413.694194 
L 489.106475 405.508708 
L 487.862564 396.99474 
L 486.518185 388.124821 
L 485.057633 378.867882 
L 483.46176 369.188605 
L 481.707007 359.046601 
L 479.764065 348.395397 
L 477.59606 337.181147 
L 475.156013 325.340985 
L 472.38325 312.800889 
L 469.198141 299.472878 
L 465.494538 285.251262 
L 461.128381 270.007547 
L 455.900414 253.583362 
L 449.530113 235.780415 
L 441.616295 216.345827 
L 431.581138 194.950064 
L 418.603126 171.152431 
L 401.580195 144.344661 
L 379.24598 113.653469 
L 350.587801 77.76 
" clip-path="url(#p95df34cede)" style="fill: none; stroke-dasharray: 5.55,2.4; stroke-dashoffset: 0; stroke: #0000ff; stroke-opacity: 0.5; stroke-width: 1.5"/>
    <path d="M 532.98 567 
L 532.718661 563.065063 
L 532.454444 559.055774 
L 532.187175 554.969268 
L 531.916695 550.802513 
L 531.642822 546.552292 
L 531.365355 542.215195 
L 531.084072 537.787595 
L 530.798734 533.265635 
L 530.509075 528.645204 
L 530.214805 523.921919 
L 529.915601 519.091096 
L 529.611104 514.147723 
L 529.300922 509.086432 
L 528.984608 503.901458 
L 528.661668 498.586605 
L 528.331551 493.135199 
L 527.993636 487.540037 
L 527.647222 481.793333 
L 527.291518 475.886646 
L 526.925624 469.810816 
L 526.54852 463.555868 
L 526.159033 457.110919 
L 525.755821 450.464065 
L 525.337336 443.602244 
L 524.901782 436.511085 
L 524.447066 429.174728 
L 523.970741 421.575605 
L 523.469924 413.694194 
L 522.941197 405.508708 
L 522.380496 396.99474 
L 521.78292 388.124821 
L 521.142549 378.867882 
L 520.452153 369.188605 
L 519.702828 359.046601 
L 518.883485 348.395397 
L 517.980168 337.181147 
L 516.975092 325.340985 
L 515.845286 312.800889 
L 514.560576 299.472878 
L 513.080673 285.251262 
L 511.35068 270.007547 
L 509.293998 253.583362 
L 506.800947 235.780415 
L 503.709453 216.345827 
L 499.771143 194.950064 
L 494.588836 171.152431 
L 487.495197 144.344661 
L 477.308063 113.653469 
L 461.841735 77.76 
" clip-path="url(#p95df34cede)" style="fill: none; stroke-dasharray: 5.55,2.4; stroke-dashoffset: 0; stroke: #0000ff; stroke-opacity: 0.5; stroke-width: 1.5"/>
    <path d="M 558.09 567 
L 557.939125 563.065063 
L 557.789014 559.055774 
L 557.639698 554.969268 
L 557.491233 550.802513 
L 557.34367 546.552292 
L 557.197063 542.215195 
L 557.051465 537.787595 
L 556.906934 533.265635 
L 556.763529 528.645204 
L 556.621312 523.921919 
L 556.480346 519.091096 
L 556.340696 514.147723 
L 556.20243 509.086432 
L 556.065611 503.901458 
L 555.930308 498.586605 
L 555.796587 493.135199 
L 555.664515 487.540037 
L 555.534154 481.793333 
L 555.405566 475.886646 
L 555.278802 469.810816 
L 555.15391 463.555868 
L 555.030924 457.110919 
L 554.909862 450.464065 
L 554.790725 443.602244 
L 554.673483 436.511085 
L 554.558069 429.174728 
L 554.444372 421.575605 
L 554.332217 413.694194 
L 554.221343 405.508708 
L 554.111391 396.99474 
L 554.001848 388.124821 
L 553.892017 378.867882 
L 553.780949 369.188605 
L 553.667356 359.046601 
L 553.549493 348.395397 
L 553.424986 337.181147 
L 553.290599 325.340985 
L 553.141892 312.800889 
L 552.972697 299.472878 
L 552.77437 285.251262 
L 552.534621 270.007547 
L 552.235627 253.583362 
L 551.851033 235.780415 
L 551.340792 216.345827 
L 550.642085 194.950064 
L 549.652386 171.152431 
L 548.195698 144.344661 
L 545.949761 113.653469 
L 542.271731 77.76 
" clip-path="url(#p95df34cede)" style="fill: none; stroke-dasharray: 5.55,2.4; stroke-dashoffset: 0; stroke: #0000ff; stroke-opacity: 0.5; stroke-width: 1.5"/>
    <path d="M 583.2 567 
L 583.129452 563.065063 
L 583.062148 559.055774 
L 582.998252 554.969268 
L 582.937956 550.802513 
L 582.881463 546.552292 
L 582.828987 542.215195 
L 582.780756 537.787595 
L 582.737016 533.265635 
L 582.698029 528.645204 
L 582.66408 523.921919 
L 582.635471 519.091096 
L 582.61253 514.147723 
L 582.595608 509.086432 
L 582.585085 503.901458 
L 582.58137 498.586605 
L 582.584907 493.135199 
L 582.596178 487.540037 
L 582.615704 481.793333 
L 582.644055 475.886646 
L 582.681848 469.810816 
L 582.72976 463.555868 
L 582.78853 457.110919 
L 582.858968 450.464065 
L 582.941967 443.602244 
L 583.038506 436.511085 
L 583.149667 429.174728 
L 583.27665 421.575605 
L 583.420784 413.694194 
L 583.583548 405.508708 
L 583.766598 396.99474 
L 583.97178 388.124821 
L 584.201172 378.867882 
L 584.457116 369.188605 
L 584.74226 359.046601 
L 585.059608 348.395397 
L 585.412578 337.181147 
L 585.805079 325.340985 
L 586.241592 312.800889 
L 586.727255 299.472878 
L 587.267989 285.251262 
L 587.870606 270.007547 
L 588.542901 253.583362 
L 589.293732 235.780415 
L 590.132924 216.345827 
L 591.070855 194.950064 
L 592.117205 171.152431 
L 593.27762 144.344661 
L 594.545042 113.653469 
L 595.876022 77.76 
" clip-path="url(#p95df34cede)" style="fill: none; stroke-dasharray: 5.55,2.4; stroke-dashoffset: 0; stroke: #0000ff; stroke-opacity: 0.5; stroke-width: 1.5"/>
   </g>
   <g id="LineCollection_3">
    <path d="M 229.315277 458.608873 
L 228.359603 461.476323 
L 227.41758 464.30554 
L 226.488839 467.097529 
L 225.573025 469.853258 
L 224.669798 472.573656 
L 223.778828 475.259617 
L 222.899802 477.912003 
L 222.032416 480.531643 
L 221.176377 483.119335 
L 220.331405 485.675849 
L 219.497229 488.201928 
L 218.673586 490.698287 
L 217.860225 493.165619 
L 217.056903 495.60459 
L 216.263385 498.015844 
L 215.479445 500.400005 
L 214.704862 502.757675 
L 213.939425 505.089436 
L 213.182931 507.395852 
L 212.43518 509.677466 
L 211.695981 511.934808 
L 210.965149 514.168388 
L 210.242504 516.378701 
L 209.527873 518.566226 
L 208.821087 520.73143 
L 208.121983 522.874763 
L 207.430402 524.996661 
L 206.746192 527.097551 
L 206.069202 529.177843 
L 205.39929 531.237938 
L 204.736315 533.278224 
L 204.08014 535.299079 
L 203.430633 537.300868 
L 202.787666 539.283949 
L 202.151114 541.248668 
L 201.520856 543.195362 
L 200.896774 545.124358 
L 200.278753 547.035976 
L 199.666682 548.930525 
L 199.060452 550.808308 
L 198.459958 552.669619 
L 197.865096 554.514745 
L 197.275766 556.343964 
L 196.691872 558.157549 
L 196.113317 559.955764 
L 195.54001 561.738868 
L 194.971861 563.507113 
L 194.408781 565.260743 
L 193.850684 567 
" clip-path="url(#p95df34cede)" style="fill: none; stroke-dasharray: 5.55,2.4; stroke-dashoffset: 0; stroke: #008000; stroke-opacity: 0.8; stroke-width: 1.5"/>
    <path d="M 278.90855 458.608873 
L 278.020081 461.476323 
L 277.144501 464.30554 
L 276.28146 467.097529 
L 275.430619 469.853258 
L 274.591657 472.573656 
L 273.764262 475.259617 
L 272.948134 477.912003 
L 272.142987 480.531643 
L 271.348542 483.119335 
L 270.564533 485.675849 
L 269.790703 488.201928 
L 269.026804 490.698287 
L 268.272597 493.165619 
L 267.527852 495.60459 
L 266.792345 498.015844 
L 266.065861 500.400005 
L 265.348194 502.757675 
L 264.639142 505.089436 
L 263.938512 507.395852 
L 263.246116 509.677466 
L 262.561772 511.934808 
L 261.885305 514.168388 
L 261.216545 516.378701 
L 260.555327 518.566226 
L 259.901492 520.73143 
L 259.254885 522.874763 
L 258.615357 524.996661 
L 257.982762 527.097551 
L 257.356959 529.177843 
L 256.737811 531.237938 
L 256.125186 533.278224 
L 255.518956 535.299079 
L 254.918994 537.300868 
L 254.32518 539.283949 
L 253.737396 541.248668 
L 253.155526 543.195362 
L 252.579459 545.124358 
L 252.009087 547.035976 
L 251.444304 548.930525 
L 250.885008 550.808308 
L 250.331099 552.669619 
L 249.782479 554.514745 
L 249.239054 556.343964 
L 248.700732 558.157549 
L 248.167423 559.955764 
L 247.63904 561.738868 
L 247.115497 563.507113 
L 246.596712 565.260743 
L 246.082603 567 
" clip-path="url(#p95df34cede)" style="fill: none; stroke-dasharray: 5.55,2.4; stroke-dashoffset: 0; stroke: #008000; stroke-opacity: 0.8; stroke-width: 1.5"/>
    <path d="M 319.575035 458.608873 
L 318.743974 461.476323 
L 317.925156 464.30554 
L 317.118246 467.097529 
L 316.322922 469.853258 
L 315.538876 472.573656 
L 314.765809 475.259617 
L 314.003438 477.912003 
L 313.251487 480.531643 
L 312.509691 483.119335 
L 311.777797 485.675849 
L 311.055558 488.201928 
L 310.342738 490.698287 
L 309.63911 493.165619 
L 308.944453 495.60459 
L 308.258555 498.015844 
L 307.58121 500.400005 
L 306.912222 502.757675 
L 306.251399 505.089436 
L 305.598556 507.395852 
L 304.953514 509.677466 
L 304.3161 511.934808 
L 303.686146 514.168388 
L 303.063492 516.378701 
L 302.44798 518.566226 
L 301.839458 520.73143 
L 301.237779 522.874763 
L 300.6428 524.996661 
L 300.054384 527.097551 
L 299.472395 529.177843 
L 298.896703 531.237938 
L 298.327184 533.278224 
L 297.763712 535.299079 
L 297.206171 537.300868 
L 296.654443 539.283949 
L 296.108418 541.248668 
L 295.567985 543.195362 
L 295.033038 545.124358 
L 294.503475 547.035976 
L 293.979194 548.930525 
L 293.460099 550.808308 
L 292.946095 552.669619 
L 292.437088 554.514745 
L 291.93299 556.343964 
L 291.433711 558.157549 
L 290.939168 559.955764 
L 290.449277 561.738868 
L 289.963957 563.507113 
L 289.483129 565.260743 
L 289.006716 567 
" clip-path="url(#p95df34cede)" style="fill: none; stroke-dasharray: 5.55,2.4; stroke-dashoffset: 0; stroke: #008000; stroke-opacity: 0.8; stroke-width: 1.5"/>
    <path d="M 363.238173 458.608873 
L 362.471058 461.476323 
L 361.715472 464.30554 
L 360.971095 467.097529 
L 360.237625 469.853258 
L 359.514767 472.573656 
L 358.802241 475.259617 
L 358.099775 477.912003 
L 357.40711 480.531643 
L 356.723996 483.119335 
L 356.05019 485.675849 
L 355.385461 488.201928 
L 354.729584 490.698287 
L 354.082345 493.165619 
L 353.443534 495.60459 
L 352.812952 498.015844 
L 352.190403 500.400005 
L 351.575701 502.757675 
L 350.968665 505.089436 
L 350.369119 507.395852 
L 349.776896 509.677466 
L 349.191831 511.934808 
L 348.613766 514.168388 
L 348.042548 516.378701 
L 347.478029 518.566226 
L 346.920065 520.73143 
L 346.368517 522.874763 
L 345.823251 524.996661 
L 345.284135 527.097551 
L 344.751044 529.177843 
L 344.223853 531.237938 
L 343.702445 533.278224 
L 343.186702 535.299079 
L 342.676514 537.300868 
L 342.171769 539.283949 
L 341.672364 541.248668 
L 341.178194 543.195362 
L 340.689159 545.124358 
L 340.205162 547.035976 
L 339.726109 548.930525 
L 339.251908 550.808308 
L 338.782468 552.669619 
L 338.317703 554.514745 
L 337.857528 556.343964 
L 337.40186 558.157549 
L 336.950619 559.955764 
L 336.503726 561.738868 
L 336.061106 563.507113 
L 335.622684 565.260743 
L 335.188387 567 
" clip-path="url(#p95df34cede)" style="fill: none; stroke-dasharray: 5.55,2.4; stroke-dashoffset: 0; stroke: #008000; stroke-opacity: 0.8; stroke-width: 1.5"/>
    <path d="M 400.83675 458.608873 
L 400.126615 461.476323 
L 399.427376 464.30554 
L 398.738729 467.097529 
L 398.060386 469.853258 
L 397.392067 472.573656 
L 396.733505 475.259617 
L 396.084442 477.912003 
L 395.444632 480.531643 
L 394.813835 483.119335 
L 394.191823 485.675849 
L 393.578375 488.201928 
L 392.973278 490.698287 
L 392.376327 493.165619 
L 391.787325 495.60459 
L 391.20608 498.015844 
L 390.632408 500.400005 
L 390.066132 502.757675 
L 389.50708 505.089436 
L 388.955085 507.395852 
L 388.409987 509.677466 
L 387.871631 511.934808 
L 387.339867 514.168388 
L 386.81455 516.378701 
L 386.295539 518.566226 
L 385.782698 520.73143 
L 385.275895 522.874763 
L 384.775002 524.996661 
L 384.279895 527.097551 
L 383.790454 529.177843 
L 383.306562 531.237938 
L 382.828108 533.278224 
L 382.35498 535.299079 
L 381.887072 537.300868 
L 381.424281 539.283949 
L 380.966507 541.248668 
L 380.513652 543.195362 
L 380.065621 545.124358 
L 379.622322 547.035976 
L 379.183666 548.930525 
L 378.749564 550.808308 
L 378.319934 552.669619 
L 377.894691 554.514745 
L 377.473755 556.343964 
L 377.05705 558.157549 
L 376.644498 559.955764 
L 376.236025 561.738868 
L 375.831559 563.507113 
L 375.431031 565.260743 
L 375.03437 567 
" clip-path="url(#p95df34cede)" style="fill: none; stroke-dasharray: 5.55,2.4; stroke-dashoffset: 0; stroke: #008000; stroke-opacity: 0.8; stroke-width: 1.5"/>
    <path d="M 425.939556 458.608873 
L 425.268451 461.476323 
L 424.607809 464.30554 
L 423.95734 467.097529 
L 423.316764 469.853258 
L 422.685811 472.573656 
L 422.064223 475.259617 
L 421.451752 477.912003 
L 420.84816 480.531643 
L 420.253215 483.119335 
L 419.666699 485.675849 
L 419.088396 488.201928 
L 418.518103 490.698287 
L 417.955621 493.165619 
L 417.40076 495.60459 
L 416.853335 498.015844 
L 416.31317 500.400005 
L 415.780092 502.757675 
L 415.253937 505.089436 
L 414.734544 507.395852 
L 414.221758 509.677466 
L 413.715431 511.934808 
L 413.215417 514.168388 
L 412.721577 516.378701 
L 412.233775 518.566226 
L 411.751879 520.73143 
L 411.275764 522.874763 
L 410.805305 524.996661 
L 410.340384 527.097551 
L 409.880885 529.177843 
L 409.426696 531.237938 
L 408.977708 533.278224 
L 408.533815 535.299079 
L 408.094915 537.300868 
L 407.660908 539.283949 
L 407.231698 541.248668 
L 406.807191 543.195362 
L 406.387296 545.124358 
L 405.971924 547.035976 
L 405.560989 548.930525 
L 405.154407 550.808308 
L 404.752097 552.669619 
L 404.353978 554.514745 
L 403.959975 556.343964 
L 403.570012 558.157549 
L 403.184016 559.955764 
L 402.801916 561.738868 
L 402.423641 563.507113 
L 402.049126 565.260743 
L 401.678303 567 
" clip-path="url(#p95df34cede)" style="fill: none; stroke-dasharray: 5.55,2.4; stroke-dashoffset: 0; stroke: #008000; stroke-opacity: 0.8; stroke-width: 1.5"/>
    <path d="M 460.383379 458.608873 
L 459.767112 461.476323 
L 459.160706 464.30554 
L 458.563884 467.097529 
L 457.976381 469.853258 
L 457.39794 472.573656 
L 456.828318 475.259617 
L 456.267277 477.912003 
L 455.714592 480.531643 
L 455.170044 483.119335 
L 454.633423 485.675849 
L 454.104528 488.201928 
L 453.583164 490.698287 
L 453.069143 493.165619 
L 452.562284 495.60459 
L 452.062414 498.015844 
L 451.569364 500.400005 
L 451.08297 502.757675 
L 450.603077 505.089436 
L 450.129534 507.395852 
L 449.662192 509.677466 
L 449.200911 511.934808 
L 448.745555 514.168388 
L 448.295989 516.378701 
L 447.852087 518.566226 
L 447.413724 520.73143 
L 446.98078 522.874763 
L 446.553138 524.996661 
L 446.130685 527.097551 
L 445.713313 529.177843 
L 445.300915 531.237938 
L 444.893388 533.278224 
L 444.490633 535.299079 
L 444.092552 537.300868 
L 443.699052 539.283949 
L 443.31004 541.248668 
L 442.92543 543.195362 
L 442.545134 545.124358 
L 442.169068 547.035976 
L 441.797151 548.930525 
L 441.429305 550.808308 
L 441.065452 552.669619 
L 440.705517 554.514745 
L 440.349427 556.343964 
L 439.997112 558.157549 
L 439.648503 559.955764 
L 439.303532 561.738868 
L 438.962133 563.507113 
L 438.624244 565.260743 
L 438.289802 567 
" clip-path="url(#p95df34cede)" style="fill: none; stroke-dasharray: 5.55,2.4; stroke-dashoffset: 0; stroke: #008000; stroke-opacity: 0.8; stroke-width: 1.5"/>
    <path d="M 491.307182 458.608873 
L 490.741416 461.476323 
L 490.184959 464.30554 
L 489.637548 467.097529 
L 489.098929 469.853258 
L 488.56886 472.573656 
L 488.047107 475.259617 
L 487.533446 477.912003 
L 487.027661 480.531643 
L 486.529545 483.119335 
L 486.038899 485.675849 
L 485.55553 488.201928 
L 485.079254 490.698287 
L 484.609892 493.165619 
L 484.147273 495.60459 
L 483.691231 498.015844 
L 483.241605 500.400005 
L 482.798243 502.757675 
L 482.360994 505.089436 
L 481.929716 507.395852 
L 481.504268 509.677466 
L 481.084518 511.934808 
L 480.670334 514.168388 
L 480.261591 516.378701 
L 479.858167 518.566226 
L 479.459945 520.73143 
L 479.066811 522.874763 
L 478.678655 524.996661 
L 478.295369 527.097551 
L 477.916849 529.177843 
L 477.542996 531.237938 
L 477.173712 533.278224 
L 476.808902 535.299079 
L 476.448475 537.300868 
L 476.092341 539.283949 
L 475.740415 541.248668 
L 475.392611 543.195362 
L 475.048849 545.124358 
L 474.70905 547.035976 
L 474.373135 548.930525 
L 474.041032 550.808308 
L 473.712666 552.669619 
L 473.387966 554.514745 
L 473.066865 556.343964 
L 472.749295 558.157549 
L 472.435191 559.955764 
L 472.124488 561.738868 
L 471.817126 563.507113 
L 471.513045 565.260743 
L 471.212184 567 
" clip-path="url(#p95df34cede)" style="fill: none; stroke-dasharray: 5.55,2.4; stroke-dashoffset: 0; stroke: #008000; stroke-opacity: 0.8; stroke-width: 1.5"/>
    <path d="M 513.874681 458.608873 
L 513.346527 461.476323 
L 512.827272 464.30554 
L 512.316664 467.097529 
L 511.814458 469.853258 
L 511.320421 472.573656 
L 510.834328 475.259617 
L 510.355964 477.912003 
L 509.885121 480.531643 
L 509.421599 483.119335 
L 508.965208 485.675849 
L 508.515761 488.201928 
L 508.073083 490.698287 
L 507.637 493.165619 
L 507.207349 495.60459 
L 506.783969 498.015844 
L 506.366708 500.400005 
L 505.955417 502.757675 
L 505.549953 505.089436 
L 505.150178 507.395852 
L 504.755958 509.677466 
L 504.367165 511.934808 
L 503.983674 514.168388 
L 503.605364 516.378701 
L 503.232118 518.566226 
L 502.863824 520.73143 
L 502.500372 522.874763 
L 502.141656 524.996661 
L 501.787574 527.097551 
L 501.438026 529.177843 
L 501.092916 531.237938 
L 500.752151 533.278224 
L 500.415639 535.299079 
L 500.083293 537.300868 
L 499.755028 539.283949 
L 499.43076 541.248668 
L 499.110409 543.195362 
L 498.793898 545.124358 
L 498.48115 547.035976 
L 498.172091 548.930525 
L 497.86665 550.808308 
L 497.564757 552.669619 
L 497.266345 554.514745 
L 496.971346 556.343964 
L 496.679698 558.157549 
L 496.391337 559.955764 
L 496.106204 561.738868 
L 495.824238 563.507113 
L 495.545382 565.260743 
L 495.269581 567 
" clip-path="url(#p95df34cede)" style="fill: none; stroke-dasharray: 5.55,2.4; stroke-dashoffset: 0; stroke: #008000; stroke-opacity: 0.8; stroke-width: 1.5"/>
   </g>
   <g id="line2d_48">
    <path d="M 478.088628 527.858963 
L 472.959347 400.613818 
L 453.461178 299.213135 
L 448.245426 266.407976 
L 448.044818 240.486395 
L 447.221754 231.386969 
L 446.487001 213.08829 
L 446.915947 195.470516 
L 450.508293 166.284723 
L 451.647422 156.483171 
L 462.654542 103.146745 
L 466.319521 90.101077 
L 470.331006 77.76 
" clip-path="url(#p95df34cede)" style="fill: none; stroke: #ff0000; stroke-width: 1.5; stroke-linecap: square"/>
   </g>
   <g id="line2d_49">
    <path d="M 232.823396 527.858963 
L 253.699511 400.613818 
" clip-path="url(#p95df34cede)" style="fill: none; stroke: #008000; stroke-width: 1.5; stroke-linecap: square"/>
   </g>
   <g id="line2d_50">
    <path d="M 478.088628 527.858963 
L 316.123274 400.613818 
L 220.050056 299.213135 
L 191.938596 266.407976 
L 170.839409 240.486395 
L 163.692697 231.386969 
L 149.743621 213.08829 
L 136.851732 195.470516 
L 116.651007 166.284723 
L 110.186003 156.483171 
L 77.726402 103.146745 
L 70.465058 90.101077 
L 63.832953 77.76 
" clip-path="url(#p95df34cede)" style="fill: none; stroke: #000000; stroke-width: 1.5; stroke-linecap: square"/>
   </g>
   <g id="Barbs_1">
    <path d="M 583.2 527.858963 
L 604.200599 515.24053 
L 611.873047 522.063466 
L 604.200599 515.24053 
z
" clip-path="url(#pbddf6538b3)" style="stroke: #000000"/>
    <path d="M 583.2 400.613818 
L 606.07272 391.833804 
L 612.443816 399.88539 
L 606.07272 391.833804 
L 603.21363 392.931305 
L 609.584726 400.982892 
L 603.21363 392.931305 
L 600.35454 394.028807 
L 606.725636 402.080394 
L 600.35454 394.028807 
L 597.49545 395.126309 
L 603.866546 403.177895 
L 597.49545 395.126309 
L 594.63636 396.223811 
L 597.821908 400.249604 
L 594.63636 396.223811 
z
" clip-path="url(#pbddf6538b3)" style="stroke: #000000"/>
    <path d="M 583.2 299.213135 
L 607.565786 301.774083 
L 609.587131 311.840516 
L 607.565786 301.774083 
L 604.520063 301.453964 
L 606.541407 311.520397 
L 604.520063 301.453964 
L 601.47434 301.133846 
L 603.495684 311.200279 
L 601.47434 301.133846 
L 598.428617 300.813728 
L 600.449961 310.880161 
L 598.428617 300.813728 
L 595.382893 300.493609 
L 596.393565 305.526826 
L 595.382893 300.493609 
z
" clip-path="url(#pbddf6538b3)" style="stroke: #000000"/>
    <path d="M 583.2 266.407976 
L 607.7 266.407976 
L 604.6375 276.207976 
L 601.575 266.407976 
L 598.5125 266.407976 
L 600.04375 271.307976 
L 598.5125 266.407976 
z
" clip-path="url(#pbddf6538b3)" style="stroke: #000000"/>
    <path d="M 583.2 240.486395 
L 607.696269 240.913979 
L 604.463201 250.659039 
L 601.572201 240.807083 
L 598.510168 240.753635 
L 601.401168 250.605591 
L 598.510168 240.753635 
L 595.448134 240.700187 
L 598.339134 250.552143 
L 595.448134 240.700187 
L 592.386101 240.646739 
L 593.831601 245.572717 
L 592.386101 240.646739 
z
" clip-path="url(#pbddf6538b3)" style="stroke: #000000"/>
    <path d="M 583.2 231.386969 
L 607.32779 235.64135 
L 602.610064 244.760668 
L 601.295842 234.577755 
L 598.279869 234.045957 
L 599.59409 244.22887 
L 598.279869 234.045957 
L 595.263895 233.514159 
L 596.578117 243.697073 
L 595.263895 233.514159 
z
" clip-path="url(#pbddf6538b3)" style="stroke: #000000"/>
    <path d="M 583.2 213.08829 
L 607.7 213.08829 
L 604.6375 222.88829 
L 601.575 213.08829 
L 598.5125 213.08829 
L 601.575 222.88829 
L 598.5125 213.08829 
L 595.45 213.08829 
L 598.5125 222.88829 
L 595.45 213.08829 
L 592.3875 213.08829 
L 595.45 222.88829 
L 592.3875 213.08829 
z
" clip-path="url(#pbddf6538b3)" style="stroke: #000000"/>
    <path d="M 583.2 195.470516 
L 606.972245 201.397603 
L 601.62988 210.165615 
L 601.029184 199.915831 
L 598.057653 199.174945 
L 598.658349 209.424729 
L 598.057653 199.174945 
L 595.086123 198.434059 
L 595.686819 208.683843 
L 595.086123 198.434059 
L 592.114592 197.693174 
L 592.715288 207.942958 
L 592.114592 197.693174 
L 589.143061 196.952288 
L 589.743757 207.202072 
L 589.143061 196.952288 
L 586.171531 196.211402 
L 586.471879 201.336294 
L 586.171531 196.211402 
z
" clip-path="url(#pbddf6538b3)" style="stroke: #000000"/>
    <path d="M 583.2 166.284723 
L 607.072067 171.796024 
L 601.883538 180.655938 
L 601.10405 170.418199 
L 598.120042 169.729286 
L 598.89953 179.967025 
L 598.120042 169.729286 
z
" clip-path="url(#pbddf6538b3)" style="stroke: #000000"/>
    <path d="M 583.2 156.483171 
L 606.750912 163.236286 
L 601.105802 171.812512 
L 600.863184 161.548008 
L 597.91932 160.703868 
L 598.161938 170.968372 
L 597.91932 160.703868 
L 594.975456 159.859729 
L 595.218074 170.124233 
L 594.975456 159.859729 
z
" clip-path="url(#pbddf6538b3)" style="stroke: #000000"/>
    <path d="M 583.2 103.146745 
L 607.60677 101.011429 
L 605.41005 111.041051 
L 601.505078 101.545258 
L 598.454231 101.812172 
L 602.359204 111.307966 
L 598.454231 101.812172 
L 595.403385 102.079087 
L 599.308358 111.57488 
L 595.403385 102.079087 
z
" clip-path="url(#pbddf6538b3)" style="stroke: #000000"/>
    <path d="M 583.2 90.101077 
L 607.640319 91.810111 
L 603.901666 101.37261 
L 601.530239 91.382853 
L 598.4752 91.169223 
L 600.846626 101.15898 
L 598.4752 91.169223 
L 595.42016 90.955594 
L 597.791586 100.945351 
L 595.42016 90.955594 
z
" clip-path="url(#pbddf6538b3)" style="stroke: #000000"/>
    <path d="M 583.2 77.76 
L 607.072067 83.271301 
L 601.883538 92.131215 
L 601.10405 81.893476 
L 598.120042 81.204563 
L 598.89953 91.442302 
L 598.120042 81.204563 
L 595.136033 80.51565 
L 595.525777 85.63452 
L 595.136033 80.51565 
z
" clip-path="url(#pbddf6538b3)" style="stroke: #000000"/>
   </g>
   <g id="patch_3">
    <path d="M 81 77.76 
L 583.2 77.76 
" style="fill: none; stroke: #000000; stroke-width: 0.8; stroke-linejoin: miter; stroke-linecap: square"/>
   </g>
   <g id="patch_4">
    <path d="M 81 567 
L 583.2 567 
" style="fill: none; stroke: #000000; stroke-width: 0.8; stroke-linejoin: miter; stroke-linecap: square"/>
   </g>
   <g id="patch_5">
    <path d="M 81 567 
L 81 77.76 
" style="fill: none; stroke: #000000; stroke-width: 0.8; stroke-linejoin: miter; stroke-linecap: square"/>
   </g>
   <g id="patch_6">
    <path d="M 583.2 567 
L 583.2 77.76 
" style="fill: none; stroke: #000000; stroke-width: 0.8; stroke-linejoin: miter; stroke-linecap: square"/>
   </g>
  </g>
 </g>
 <defs>
  <clipPath id="p95df34cede">
   <rect x="81" y="77.76" width="502.2" height="489.24"/>
  </clipPath>
  <clipPath id="pbddf6538b3">
   <rect x="532.98" y="38.6208" width="100.44" height="567.5184"/>
  </clipPath>
 </defs>
</svg>
