<?xml version="1.0" encoding="utf-8" standalone="no"?>
<!DOCTYPE svg PUBLIC "-//W3C//DTD SVG 1.1//EN"
  "http://www.w3.org/Graphics/SVG/1.1/DTD/svg11.dtd">
<svg xmlns:xlink="http://www.w3.org/1999/xlink" width="648pt" height="648pt" viewBox="0 0 648 648" xmlns="http://www.w3.org/2000/svg" version="1.1">
 <metadata>
  <rdf:RDF xmlns:dc="http://purl.org/dc/elements/1.1/" xmlns:cc="http://creativecommons.org/ns#" xmlns:rdf="http://www.w3.org/1999/02/22-rdf-syntax-ns#">
   <cc:Work>
    <dc:type rdf:resource="http://purl.org/dc/dcmitype/StillImage"/>
    <dc:date>2024-12-04T21:25:45.857605</dc:date>
    <dc:format>image/svg+xml</dc:format>
    <dc:creator>
     <cc:Agent>
      <dc:title>Matplotlib v3.5.3, https://matplotlib.org/</dc:title>
     </cc:Agent>
    </dc:creator>
   </cc:Work>
  </rdf:RDF>
 </metadata>
 <defs>
  <style type="text/css">*{stroke-linejoin: round; stroke-linecap: butt}</style>
 </defs>
 <g id="figure_1">
  <g id="patch_1">
   <path d="M 0 648 
L 648 648 
L 648 0 
L 0 0 
L 0 648 
z
" style="fill: none"/>
  </g>
  <g id="axes_1">
   <g id="patch_2">
    <path d="M 81 567 
L 583.2 567 
L 583.2 77.76 
L 81 77.76 
z
" style="fill: #ffffff"/>
   </g>
   <g id="matplotlib.axis_1">
    <g id="xtick_1">
     <g id="line2d_1">
      <path d="M -1 274.110208 
L 112.362846 77.76 
" clip-path="url(#p45c96a2cea)" style="fill: none; stroke: #b0b0b0; stroke-width: 0.8; stroke-linecap: square"/>
     </g>
    </g>
    <g id="xtick_2">
     <g id="line2d_2">
      <path d="M -1 361.0938 
L 162.582846 77.76 
" clip-path="url(#p45c96a2cea)" style="fill: none; stroke: #b0b0b0; stroke-width: 0.8; stroke-linecap: square"/>
     </g>
    </g>
    <g id="xtick_3">
     <g id="line2d_3">
      <path d="M -1 448.077392 
L 212.802846 77.76 
" clip-path="url(#p45c96a2cea)" style="fill: none; stroke: #b0b0b0; stroke-width: 0.8; stroke-linecap: square"/>
     </g>
    </g>
    <g id="xtick_4">
     <g id="line2d_4">
      <path d="M -1 535.060983 
L 263.022846 77.76 
" clip-path="url(#p45c96a2cea)" style="fill: none; stroke: #b0b0b0; stroke-width: 0.8; stroke-linecap: square"/>
     </g>
    </g>
    <g id="xtick_5">
     <g id="line2d_5">
      <path d="M 30.78 567 
L 313.242846 77.76 
" clip-path="url(#p45c96a2cea)" style="fill: none; stroke: #b0b0b0; stroke-width: 0.8; stroke-linecap: square"/>
     </g>
    </g>
    <g id="xtick_6">
     <g id="line2d_6">
      <path d="M 81 567 
L 363.462846 77.76 
" clip-path="url(#p45c96a2cea)" style="fill: none; stroke: #b0b0b0; stroke-width: 0.8; stroke-linecap: square"/>
     </g>
     <g id="line2d_7">
      <defs>
       <path id="m12790669af" d="M 0 0 
L 0 3.5 
" style="stroke: #000000; stroke-width: 0.8"/>
      </defs>
      <g>
       <use xlink:href="#m12790669af" x="81" y="567" style="stroke: #000000; stroke-width: 0.8"/>
      </g>
     </g>
     <g id="text_1">
      <!-- −50 -->
      <g transform="translate(70.447656 581.598438)scale(0.1 -0.1)">
       <defs>
        <path id="DejaVuSans-2212" d="M 678 2272 
L 4684 2272 
L 4684 1741 
L 678 1741 
L 678 2272 
z
" transform="scale(0.015625)"/>
        <path id="DejaVuSans-35" d="M 691 4666 
L 3169 4666 
L 3169 4134 
L 1269 4134 
L 1269 2991 
Q 1406 3038 1543 3061 
Q 1681 3084 1819 3084 
Q 2600 3084 3056 2656 
Q 3513 2228 3513 1497 
Q 3513 744 3044 326 
Q 2575 -91 1722 -91 
Q 1428 -91 1123 -41 
Q 819 9 494 109 
L 494 744 
Q 775 591 1075 516 
Q 1375 441 1709 441 
Q 2250 441 2565 725 
Q 2881 1009 2881 1497 
Q 2881 1984 2565 2268 
Q 2250 2553 1709 2553 
Q 1456 2553 1204 2497 
Q 953 2441 691 2322 
L 691 4666 
z
" transform="scale(0.015625)"/>
        <path id="DejaVuSans-30" d="M 2034 4250 
Q 1547 4250 1301 3770 
Q 1056 3291 1056 2328 
Q 1056 1369 1301 889 
Q 1547 409 2034 409 
Q 2525 409 2770 889 
Q 3016 1369 3016 2328 
Q 3016 3291 2770 3770 
Q 2525 4250 2034 4250 
z
M 2034 4750 
Q 2819 4750 3233 4129 
Q 3647 3509 3647 2328 
Q 3647 1150 3233 529 
Q 2819 -91 2034 -91 
Q 1250 -91 836 529 
Q 422 1150 422 2328 
Q 422 3509 836 4129 
Q 1250 4750 2034 4750 
z
" transform="scale(0.015625)"/>
       </defs>
       <use xlink:href="#DejaVuSans-2212"/>
       <use xlink:href="#DejaVuSans-35" x="83.789062"/>
       <use xlink:href="#DejaVuSans-30" x="147.412109"/>
      </g>
     </g>
    </g>
    <g id="xtick_7">
     <g id="line2d_8">
      <path d="M 131.22 567 
L 413.682846 77.76 
" clip-path="url(#p45c96a2cea)" style="fill: none; stroke: #b0b0b0; stroke-width: 0.8; stroke-linecap: square"/>
     </g>
     <g id="line2d_9">
      <g>
       <use xlink:href="#m12790669af" x="131.22" y="567" style="stroke: #000000; stroke-width: 0.8"/>
      </g>
     </g>
     <g id="text_2">
      <!-- −40 -->
      <g transform="translate(120.667656 581.598438)scale(0.1 -0.1)">
       <defs>
        <path id="DejaVuSans-34" d="M 2419 4116 
L 825 1625 
L 2419 1625 
L 2419 4116 
z
M 2253 4666 
L 3047 4666 
L 3047 1625 
L 3713 1625 
L 3713 1100 
L 3047 1100 
L 3047 0 
L 2419 0 
L 2419 1100 
L 313 1100 
L 313 1709 
L 2253 4666 
z
" transform="scale(0.015625)"/>
       </defs>
       <use xlink:href="#DejaVuSans-2212"/>
       <use xlink:href="#DejaVuSans-34" x="83.789062"/>
       <use xlink:href="#DejaVuSans-30" x="147.412109"/>
      </g>
     </g>
    </g>
    <g id="xtick_8">
     <g id="line2d_10">
      <path d="M 181.44 567 
L 463.902846 77.76 
" clip-path="url(#p45c96a2cea)" style="fill: none; stroke: #b0b0b0; stroke-width: 0.8; stroke-linecap: square"/>
     </g>
     <g id="line2d_11">
      <g>
       <use xlink:href="#m12790669af" x="181.44" y="567" style="stroke: #000000; stroke-width: 0.8"/>
      </g>
     </g>
     <g id="text_3">
      <!-- −30 -->
      <g transform="translate(170.887656 581.598438)scale(0.1 -0.1)">
       <defs>
        <path id="DejaVuSans-33" d="M 2597 2516 
Q 3050 2419 3304 2112 
Q 3559 1806 3559 1356 
Q 3559 666 3084 287 
Q 2609 -91 1734 -91 
Q 1441 -91 1130 -33 
Q 819 25 488 141 
L 488 750 
Q 750 597 1062 519 
Q 1375 441 1716 441 
Q 2309 441 2620 675 
Q 2931 909 2931 1356 
Q 2931 1769 2642 2001 
Q 2353 2234 1838 2234 
L 1294 2234 
L 1294 2753 
L 1863 2753 
Q 2328 2753 2575 2939 
Q 2822 3125 2822 3475 
Q 2822 3834 2567 4026 
Q 2313 4219 1838 4219 
Q 1578 4219 1281 4162 
Q 984 4106 628 3988 
L 628 4550 
Q 988 4650 1302 4700 
Q 1616 4750 1894 4750 
Q 2613 4750 3031 4423 
Q 3450 4097 3450 3541 
Q 3450 3153 3228 2886 
Q 3006 2619 2597 2516 
z
" transform="scale(0.015625)"/>
       </defs>
       <use xlink:href="#DejaVuSans-2212"/>
       <use xlink:href="#DejaVuSans-33" x="83.789062"/>
       <use xlink:href="#DejaVuSans-30" x="147.412109"/>
      </g>
     </g>
    </g>
    <g id="xtick_9">
     <g id="line2d_12">
      <path d="M 231.66 567 
L 514.122846 77.76 
" clip-path="url(#p45c96a2cea)" style="fill: none; stroke: #b0b0b0; stroke-width: 0.8; stroke-linecap: square"/>
     </g>
     <g id="line2d_13">
      <g>
       <use xlink:href="#m12790669af" x="231.66" y="567" style="stroke: #000000; stroke-width: 0.8"/>
      </g>
     </g>
     <g id="text_4">
      <!-- −20 -->
      <g transform="translate(221.107656 581.598438)scale(0.1 -0.1)">
       <defs>
        <path id="DejaVuSans-32" d="M 1228 531 
L 3431 531 
L 3431 0 
L 469 0 
L 469 531 
Q 828 903 1448 1529 
Q 2069 2156 2228 2338 
Q 2531 2678 2651 2914 
Q 2772 3150 2772 3378 
Q 2772 3750 2511 3984 
Q 2250 4219 1831 4219 
Q 1534 4219 1204 4116 
Q 875 4013 500 3803 
L 500 4441 
Q 881 4594 1212 4672 
Q 1544 4750 1819 4750 
Q 2544 4750 2975 4387 
Q 3406 4025 3406 3419 
Q 3406 3131 3298 2873 
Q 3191 2616 2906 2266 
Q 2828 2175 2409 1742 
Q 1991 1309 1228 531 
z
" transform="scale(0.015625)"/>
       </defs>
       <use xlink:href="#DejaVuSans-2212"/>
       <use xlink:href="#DejaVuSans-32" x="83.789062"/>
       <use xlink:href="#DejaVuSans-30" x="147.412109"/>
      </g>
     </g>
    </g>
    <g id="xtick_10">
     <g id="line2d_14">
      <path d="M 281.88 567 
L 564.342846 77.76 
" clip-path="url(#p45c96a2cea)" style="fill: none; stroke: #b0b0b0; stroke-width: 0.8; stroke-linecap: square"/>
     </g>
     <g id="line2d_15">
      <g>
       <use xlink:href="#m12790669af" x="281.88" y="567" style="stroke: #000000; stroke-width: 0.8"/>
      </g>
     </g>
     <g id="text_5">
      <!-- −10 -->
      <g transform="translate(271.327656 581.598438)scale(0.1 -0.1)">
       <defs>
        <path id="DejaVuSans-31" d="M 794 531 
L 1825 531 
L 1825 4091 
L 703 3866 
L 703 4441 
L 1819 4666 
L 2450 4666 
L 2450 531 
L 3481 531 
L 3481 0 
L 794 0 
L 794 531 
z
" transform="scale(0.015625)"/>
       </defs>
       <use xlink:href="#DejaVuSans-2212"/>
       <use xlink:href="#DejaVuSans-31" x="83.789062"/>
       <use xlink:href="#DejaVuSans-30" x="147.412109"/>
      </g>
     </g>
    </g>
    <g id="xtick_11">
     <g id="line2d_16">
      <path d="M 332.1 567 
L 614.562846 77.76 
" clip-path="url(#p45c96a2cea)" style="fill: none; stroke: #b0b0b0; stroke-width: 0.8; stroke-linecap: square"/>
     </g>
     <g id="line2d_17">
      <g>
       <use xlink:href="#m12790669af" x="332.1" y="567" style="stroke: #000000; stroke-width: 0.8"/>
      </g>
     </g>
     <g id="text_6">
      <!-- 0 -->
      <g transform="translate(328.91875 581.598438)scale(0.1 -0.1)">
       <use xlink:href="#DejaVuSans-30"/>
      </g>
     </g>
    </g>
    <g id="xtick_12">
     <g id="line2d_18">
      <path d="M 382.32 567 
L 649 105.096691 
" clip-path="url(#p45c96a2cea)" style="fill: none; stroke: #b0b0b0; stroke-width: 0.8; stroke-linecap: square"/>
     </g>
     <g id="line2d_19">
      <g>
       <use xlink:href="#m12790669af" x="382.32" y="567" style="stroke: #000000; stroke-width: 0.8"/>
      </g>
     </g>
     <g id="text_7">
      <!-- 10 -->
      <g transform="translate(375.9575 581.598438)scale(0.1 -0.1)">
       <use xlink:href="#DejaVuSans-31"/>
       <use xlink:href="#DejaVuSans-30" x="63.623047"/>
      </g>
     </g>
    </g>
    <g id="xtick_13">
     <g id="line2d_20">
      <path d="M 432.54 567 
L 649 192.080282 
" clip-path="url(#p45c96a2cea)" style="fill: none; stroke: #b0b0b0; stroke-width: 0.8; stroke-linecap: square"/>
     </g>
     <g id="line2d_21">
      <g>
       <use xlink:href="#m12790669af" x="432.54" y="567" style="stroke: #000000; stroke-width: 0.8"/>
      </g>
     </g>
     <g id="text_8">
      <!-- 20 -->
      <g transform="translate(426.1775 581.598438)scale(0.1 -0.1)">
       <use xlink:href="#DejaVuSans-32"/>
       <use xlink:href="#DejaVuSans-30" x="63.623047"/>
      </g>
     </g>
    </g>
    <g id="xtick_14">
     <g id="line2d_22">
      <path d="M 482.76 567 
L 649 279.063874 
" clip-path="url(#p45c96a2cea)" style="fill: none; stroke: #b0b0b0; stroke-width: 0.8; stroke-linecap: square"/>
     </g>
     <g id="line2d_23">
      <g>
       <use xlink:href="#m12790669af" x="482.76" y="567" style="stroke: #000000; stroke-width: 0.8"/>
      </g>
     </g>
     <g id="text_9">
      <!-- 30 -->
      <g transform="translate(476.3975 581.598438)scale(0.1 -0.1)">
       <use xlink:href="#DejaVuSans-33"/>
       <use xlink:href="#DejaVuSans-30" x="63.623047"/>
      </g>
     </g>
    </g>
    <g id="xtick_15">
     <g id="line2d_24">
      <path d="M 532.98 567 
L 649 366.047465 
" clip-path="url(#p45c96a2cea)" style="fill: none; stroke: #b0b0b0; stroke-width: 0.8; stroke-linecap: square"/>
     </g>
     <g id="line2d_25">
      <g>
       <use xlink:href="#m12790669af" x="532.98" y="567" style="stroke: #000000; stroke-width: 0.8"/>
      </g>
     </g>
     <g id="text_10">
      <!-- 40 -->
      <g transform="translate(526.6175 581.598438)scale(0.1 -0.1)">
       <use xlink:href="#DejaVuSans-34"/>
       <use xlink:href="#DejaVuSans-30" x="63.623047"/>
      </g>
     </g>
    </g>
    <g id="xtick_16">
     <g id="line2d_26">
      <path d="M 583.2 567 
L 649 453.031057 
" clip-path="url(#p45c96a2cea)" style="fill: none; stroke: #b0b0b0; stroke-width: 0.8; stroke-linecap: square"/>
     </g>
     <g id="line2d_27">
      <g>
       <use xlink:href="#m12790669af" x="583.2" y="567" style="stroke: #000000; stroke-width: 0.8"/>
      </g>
     </g>
     <g id="text_11">
      <!-- 50 -->
      <g transform="translate(576.8375 581.598438)scale(0.1 -0.1)">
       <use xlink:href="#DejaVuSans-35"/>
       <use xlink:href="#DejaVuSans-30" x="63.623047"/>
      </g>
     </g>
    </g>
    <g id="text_12">
     <!-- degree_Celsius -->
     <g transform="translate(294.354688 595.276562)scale(0.1 -0.1)">
      <defs>
       <path id="DejaVuSans-64" d="M 2906 2969 
L 2906 4863 
L 3481 4863 
L 3481 0 
L 2906 0 
L 2906 525 
Q 2725 213 2448 61 
Q 2172 -91 1784 -91 
Q 1150 -91 751 415 
Q 353 922 353 1747 
Q 353 2572 751 3078 
Q 1150 3584 1784 3584 
Q 2172 3584 2448 3432 
Q 2725 3281 2906 2969 
z
M 947 1747 
Q 947 1113 1208 752 
Q 1469 391 1925 391 
Q 2381 391 2643 752 
Q 2906 1113 2906 1747 
Q 2906 2381 2643 2742 
Q 2381 3103 1925 3103 
Q 1469 3103 1208 2742 
Q 947 2381 947 1747 
z
" transform="scale(0.015625)"/>
       <path id="DejaVuSans-65" d="M 3597 1894 
L 3597 1613 
L 953 1613 
Q 991 1019 1311 708 
Q 1631 397 2203 397 
Q 2534 397 2845 478 
Q 3156 559 3463 722 
L 3463 178 
Q 3153 47 2828 -22 
Q 2503 -91 2169 -91 
Q 1331 -91 842 396 
Q 353 884 353 1716 
Q 353 2575 817 3079 
Q 1281 3584 2069 3584 
Q 2775 3584 3186 3129 
Q 3597 2675 3597 1894 
z
M 3022 2063 
Q 3016 2534 2758 2815 
Q 2500 3097 2075 3097 
Q 1594 3097 1305 2825 
Q 1016 2553 972 2059 
L 3022 2063 
z
" transform="scale(0.015625)"/>
       <path id="DejaVuSans-67" d="M 2906 1791 
Q 2906 2416 2648 2759 
Q 2391 3103 1925 3103 
Q 1463 3103 1205 2759 
Q 947 2416 947 1791 
Q 947 1169 1205 825 
Q 1463 481 1925 481 
Q 2391 481 2648 825 
Q 2906 1169 2906 1791 
z
M 3481 434 
Q 3481 -459 3084 -895 
Q 2688 -1331 1869 -1331 
Q 1566 -1331 1297 -1286 
Q 1028 -1241 775 -1147 
L 775 -588 
Q 1028 -725 1275 -790 
Q 1522 -856 1778 -856 
Q 2344 -856 2625 -561 
Q 2906 -266 2906 331 
L 2906 616 
Q 2728 306 2450 153 
Q 2172 0 1784 0 
Q 1141 0 747 490 
Q 353 981 353 1791 
Q 353 2603 747 3093 
Q 1141 3584 1784 3584 
Q 2172 3584 2450 3431 
Q 2728 3278 2906 2969 
L 2906 3500 
L 3481 3500 
L 3481 434 
z
" transform="scale(0.015625)"/>
       <path id="DejaVuSans-72" d="M 2631 2963 
Q 2534 3019 2420 3045 
Q 2306 3072 2169 3072 
Q 1681 3072 1420 2755 
Q 1159 2438 1159 1844 
L 1159 0 
L 581 0 
L 581 3500 
L 1159 3500 
L 1159 2956 
Q 1341 3275 1631 3429 
Q 1922 3584 2338 3584 
Q 2397 3584 2469 3576 
Q 2541 3569 2628 3553 
L 2631 2963 
z
" transform="scale(0.015625)"/>
       <path id="DejaVuSans-5f" d="M 3263 -1063 
L 3263 -1509 
L -63 -1509 
L -63 -1063 
L 3263 -1063 
z
" transform="scale(0.015625)"/>
       <path id="DejaVuSans-43" d="M 4122 4306 
L 4122 3641 
Q 3803 3938 3442 4084 
Q 3081 4231 2675 4231 
Q 1875 4231 1450 3742 
Q 1025 3253 1025 2328 
Q 1025 1406 1450 917 
Q 1875 428 2675 428 
Q 3081 428 3442 575 
Q 3803 722 4122 1019 
L 4122 359 
Q 3791 134 3420 21 
Q 3050 -91 2638 -91 
Q 1578 -91 968 557 
Q 359 1206 359 2328 
Q 359 3453 968 4101 
Q 1578 4750 2638 4750 
Q 3056 4750 3426 4639 
Q 3797 4528 4122 4306 
z
" transform="scale(0.015625)"/>
       <path id="DejaVuSans-6c" d="M 603 4863 
L 1178 4863 
L 1178 0 
L 603 0 
L 603 4863 
z
" transform="scale(0.015625)"/>
       <path id="DejaVuSans-73" d="M 2834 3397 
L 2834 2853 
Q 2591 2978 2328 3040 
Q 2066 3103 1784 3103 
Q 1356 3103 1142 2972 
Q 928 2841 928 2578 
Q 928 2378 1081 2264 
Q 1234 2150 1697 2047 
L 1894 2003 
Q 2506 1872 2764 1633 
Q 3022 1394 3022 966 
Q 3022 478 2636 193 
Q 2250 -91 1575 -91 
Q 1294 -91 989 -36 
Q 684 19 347 128 
L 347 722 
Q 666 556 975 473 
Q 1284 391 1588 391 
Q 1994 391 2212 530 
Q 2431 669 2431 922 
Q 2431 1156 2273 1281 
Q 2116 1406 1581 1522 
L 1381 1569 
Q 847 1681 609 1914 
Q 372 2147 372 2553 
Q 372 3047 722 3315 
Q 1072 3584 1716 3584 
Q 2034 3584 2315 3537 
Q 2597 3491 2834 3397 
z
" transform="scale(0.015625)"/>
       <path id="DejaVuSans-69" d="M 603 3500 
L 1178 3500 
L 1178 0 
L 603 0 
L 603 3500 
z
M 603 4863 
L 1178 4863 
L 1178 4134 
L 603 4134 
L 603 4863 
z
" transform="scale(0.015625)"/>
       <path id="DejaVuSans-75" d="M 544 1381 
L 544 3500 
L 1119 3500 
L 1119 1403 
Q 1119 906 1312 657 
Q 1506 409 1894 409 
Q 2359 409 2629 706 
Q 2900 1003 2900 1516 
L 2900 3500 
L 3475 3500 
L 3475 0 
L 2900 0 
L 2900 538 
Q 2691 219 2414 64 
Q 2138 -91 1772 -91 
Q 1169 -91 856 284 
Q 544 659 544 1381 
z
M 1991 3584 
L 1991 3584 
z
" transform="scale(0.015625)"/>
      </defs>
      <use xlink:href="#DejaVuSans-64"/>
      <use xlink:href="#DejaVuSans-65" x="63.476562"/>
      <use xlink:href="#DejaVuSans-67" x="125"/>
      <use xlink:href="#DejaVuSans-72" x="188.476562"/>
      <use xlink:href="#DejaVuSans-65" x="227.339844"/>
      <use xlink:href="#DejaVuSans-65" x="288.863281"/>
      <use xlink:href="#DejaVuSans-5f" x="350.386719"/>
      <use xlink:href="#DejaVuSans-43" x="400.386719"/>
      <use xlink:href="#DejaVuSans-65" x="470.210938"/>
      <use xlink:href="#DejaVuSans-6c" x="531.734375"/>
      <use xlink:href="#DejaVuSans-73" x="559.517578"/>
      <use xlink:href="#DejaVuSans-69" x="611.617188"/>
      <use xlink:href="#DejaVuSans-75" x="639.400391"/>
      <use xlink:href="#DejaVuSans-73" x="702.779297"/>
     </g>
    </g>
   </g>
   <g id="matplotlib.axis_2">
    <g id="ytick_1">
     <g id="line2d_28">
      <path d="M 81 300.133173 
L 583.2 300.133173 
" clip-path="url(#p45c96a2cea)" style="fill: none; stroke: #b0b0b0; stroke-width: 0.8; stroke-linecap: square"/>
     </g>
     <g id="line2d_29">
      <defs>
       <path id="m4f4df34d1e" d="M 0 0 
L -3.5 0 
" style="stroke: #000000; stroke-width: 0.8"/>
      </defs>
      <g>
       <use xlink:href="#m4f4df34d1e" x="81" y="300.133173" style="stroke: #000000; stroke-width: 0.8"/>
      </g>
     </g>
     <g id="text_13">
      <!-- 100 -->
      <g transform="translate(54.9125 303.932392)scale(0.1 -0.1)">
       <use xlink:href="#DejaVuSans-31"/>
       <use xlink:href="#DejaVuSans-30" x="63.623047"/>
       <use xlink:href="#DejaVuSans-30" x="127.246094"/>
      </g>
     </g>
    </g>
    <g id="ytick_2">
     <g id="line2d_30">
      <path d="M 81 380.468093 
L 583.2 380.468093 
" clip-path="url(#p45c96a2cea)" style="fill: none; stroke: #b0b0b0; stroke-width: 0.8; stroke-linecap: square"/>
     </g>
     <g id="line2d_31">
      <g>
       <use xlink:href="#m4f4df34d1e" x="81" y="380.468093" style="stroke: #000000; stroke-width: 0.8"/>
      </g>
     </g>
     <g id="text_14">
      <!-- 200 -->
      <g transform="translate(54.9125 384.267312)scale(0.1 -0.1)">
       <use xlink:href="#DejaVuSans-32"/>
       <use xlink:href="#DejaVuSans-30" x="63.623047"/>
       <use xlink:href="#DejaVuSans-30" x="127.246094"/>
      </g>
     </g>
    </g>
    <g id="ytick_3">
     <g id="line2d_32">
      <path d="M 81 427.461009 
L 583.2 427.461009 
" clip-path="url(#p45c96a2cea)" style="fill: none; stroke: #b0b0b0; stroke-width: 0.8; stroke-linecap: square"/>
     </g>
     <g id="line2d_33">
      <g>
       <use xlink:href="#m4f4df34d1e" x="81" y="427.461009" style="stroke: #000000; stroke-width: 0.8"/>
      </g>
     </g>
     <g id="text_15">
      <!-- 300 -->
      <g transform="translate(54.9125 431.260227)scale(0.1 -0.1)">
       <use xlink:href="#DejaVuSans-33"/>
       <use xlink:href="#DejaVuSans-30" x="63.623047"/>
       <use xlink:href="#DejaVuSans-30" x="127.246094"/>
      </g>
     </g>
    </g>
    <g id="ytick_4">
     <g id="line2d_34">
      <path d="M 81 460.803013 
L 583.2 460.803013 
" clip-path="url(#p45c96a2cea)" style="fill: none; stroke: #b0b0b0; stroke-width: 0.8; stroke-linecap: square"/>
     </g>
     <g id="line2d_35">
      <g>
       <use xlink:href="#m4f4df34d1e" x="81" y="460.803013" style="stroke: #000000; stroke-width: 0.8"/>
      </g>
     </g>
     <g id="text_16">
      <!-- 400 -->
      <g transform="translate(54.9125 464.602231)scale(0.1 -0.1)">
       <use xlink:href="#DejaVuSans-34"/>
       <use xlink:href="#DejaVuSans-30" x="63.623047"/>
       <use xlink:href="#DejaVuSans-30" x="127.246094"/>
      </g>
     </g>
    </g>
    <g id="ytick_5">
     <g id="line2d_36">
      <path d="M 81 486.66508 
L 583.2 486.66508 
" clip-path="url(#p45c96a2cea)" style="fill: none; stroke: #b0b0b0; stroke-width: 0.8; stroke-linecap: square"/>
     </g>
     <g id="line2d_37">
      <g>
       <use xlink:href="#m4f4df34d1e" x="81" y="486.66508" style="stroke: #000000; stroke-width: 0.8"/>
      </g>
     </g>
     <g id="text_17">
      <!-- 500 -->
      <g transform="translate(54.9125 490.464299)scale(0.1 -0.1)">
       <use xlink:href="#DejaVuSans-35"/>
       <use xlink:href="#DejaVuSans-30" x="63.623047"/>
       <use xlink:href="#DejaVuSans-30" x="127.246094"/>
      </g>
     </g>
    </g>
    <g id="ytick_6">
     <g id="line2d_38">
      <path d="M 81 507.795928 
L 583.2 507.795928 
" clip-path="url(#p45c96a2cea)" style="fill: none; stroke: #b0b0b0; stroke-width: 0.8; stroke-linecap: square"/>
     </g>
     <g id="line2d_39">
      <g>
       <use xlink:href="#m4f4df34d1e" x="81" y="507.795928" style="stroke: #000000; stroke-width: 0.8"/>
      </g>
     </g>
     <g id="text_18">
      <!-- 600 -->
      <g transform="translate(54.9125 511.595147)scale(0.1 -0.1)">
       <defs>
        <path id="DejaVuSans-36" d="M 2113 2584 
Q 1688 2584 1439 2293 
Q 1191 2003 1191 1497 
Q 1191 994 1439 701 
Q 1688 409 2113 409 
Q 2538 409 2786 701 
Q 3034 994 3034 1497 
Q 3034 2003 2786 2293 
Q 2538 2584 2113 2584 
z
M 3366 4563 
L 3366 3988 
Q 3128 4100 2886 4159 
Q 2644 4219 2406 4219 
Q 1781 4219 1451 3797 
Q 1122 3375 1075 2522 
Q 1259 2794 1537 2939 
Q 1816 3084 2150 3084 
Q 2853 3084 3261 2657 
Q 3669 2231 3669 1497 
Q 3669 778 3244 343 
Q 2819 -91 2113 -91 
Q 1303 -91 875 529 
Q 447 1150 447 2328 
Q 447 3434 972 4092 
Q 1497 4750 2381 4750 
Q 2619 4750 2861 4703 
Q 3103 4656 3366 4563 
z
" transform="scale(0.015625)"/>
       </defs>
       <use xlink:href="#DejaVuSans-36"/>
       <use xlink:href="#DejaVuSans-30" x="63.623047"/>
       <use xlink:href="#DejaVuSans-30" x="127.246094"/>
      </g>
     </g>
    </g>
    <g id="ytick_7">
     <g id="line2d_40">
      <path d="M 81 525.661805 
L 583.2 525.661805 
" clip-path="url(#p45c96a2cea)" style="fill: none; stroke: #b0b0b0; stroke-width: 0.8; stroke-linecap: square"/>
     </g>
     <g id="line2d_41">
      <g>
       <use xlink:href="#m4f4df34d1e" x="81" y="525.661805" style="stroke: #000000; stroke-width: 0.8"/>
      </g>
     </g>
     <g id="text_19">
      <!-- 700 -->
      <g transform="translate(54.9125 529.461024)scale(0.1 -0.1)">
       <defs>
        <path id="DejaVuSans-37" d="M 525 4666 
L 3525 4666 
L 3525 4397 
L 1831 0 
L 1172 0 
L 2766 4134 
L 525 4134 
L 525 4666 
z
" transform="scale(0.015625)"/>
       </defs>
       <use xlink:href="#DejaVuSans-37"/>
       <use xlink:href="#DejaVuSans-30" x="63.623047"/>
       <use xlink:href="#DejaVuSans-30" x="127.246094"/>
      </g>
     </g>
    </g>
    <g id="ytick_8">
     <g id="line2d_42">
      <path d="M 81 541.137932 
L 583.2 541.137932 
" clip-path="url(#p45c96a2cea)" style="fill: none; stroke: #b0b0b0; stroke-width: 0.8; stroke-linecap: square"/>
     </g>
     <g id="line2d_43">
      <g>
       <use xlink:href="#m4f4df34d1e" x="81" y="541.137932" style="stroke: #000000; stroke-width: 0.8"/>
      </g>
     </g>
     <g id="text_20">
      <!-- 800 -->
      <g transform="translate(54.9125 544.937151)scale(0.1 -0.1)">
       <defs>
        <path id="DejaVuSans-38" d="M 2034 2216 
Q 1584 2216 1326 1975 
Q 1069 1734 1069 1313 
Q 1069 891 1326 650 
Q 1584 409 2034 409 
Q 2484 409 2743 651 
Q 3003 894 3003 1313 
Q 3003 1734 2745 1975 
Q 2488 2216 2034 2216 
z
M 1403 2484 
Q 997 2584 770 2862 
Q 544 3141 544 3541 
Q 544 4100 942 4425 
Q 1341 4750 2034 4750 
Q 2731 4750 3128 4425 
Q 3525 4100 3525 3541 
Q 3525 3141 3298 2862 
Q 3072 2584 2669 2484 
Q 3125 2378 3379 2068 
Q 3634 1759 3634 1313 
Q 3634 634 3220 271 
Q 2806 -91 2034 -91 
Q 1263 -91 848 271 
Q 434 634 434 1313 
Q 434 1759 690 2068 
Q 947 2378 1403 2484 
z
M 1172 3481 
Q 1172 3119 1398 2916 
Q 1625 2713 2034 2713 
Q 2441 2713 2670 2916 
Q 2900 3119 2900 3481 
Q 2900 3844 2670 4047 
Q 2441 4250 2034 4250 
Q 1625 4250 1398 4047 
Q 1172 3844 1172 3481 
z
" transform="scale(0.015625)"/>
       </defs>
       <use xlink:href="#DejaVuSans-38"/>
       <use xlink:href="#DejaVuSans-30" x="63.623047"/>
       <use xlink:href="#DejaVuSans-30" x="127.246094"/>
      </g>
     </g>
    </g>
    <g id="ytick_9">
     <g id="line2d_44">
      <path d="M 81 554.788844 
L 583.2 554.788844 
" clip-path="url(#p45c96a2cea)" style="fill: none; stroke: #b0b0b0; stroke-width: 0.8; stroke-linecap: square"/>
     </g>
     <g id="line2d_45">
      <g>
       <use xlink:href="#m4f4df34d1e" x="81" y="554.788844" style="stroke: #000000; stroke-width: 0.8"/>
      </g>
     </g>
     <g id="text_21">
      <!-- 900 -->
      <g transform="translate(54.9125 558.588062)scale(0.1 -0.1)">
       <defs>
        <path id="DejaVuSans-39" d="M 703 97 
L 703 672 
Q 941 559 1184 500 
Q 1428 441 1663 441 
Q 2288 441 2617 861 
Q 2947 1281 2994 2138 
Q 2813 1869 2534 1725 
Q 2256 1581 1919 1581 
Q 1219 1581 811 2004 
Q 403 2428 403 3163 
Q 403 3881 828 4315 
Q 1253 4750 1959 4750 
Q 2769 4750 3195 4129 
Q 3622 3509 3622 2328 
Q 3622 1225 3098 567 
Q 2575 -91 1691 -91 
Q 1453 -91 1209 -44 
Q 966 3 703 97 
z
M 1959 2075 
Q 2384 2075 2632 2365 
Q 2881 2656 2881 3163 
Q 2881 3666 2632 3958 
Q 2384 4250 1959 4250 
Q 1534 4250 1286 3958 
Q 1038 3666 1038 3163 
Q 1038 2656 1286 2365 
Q 1534 2075 1959 2075 
z
" transform="scale(0.015625)"/>
       </defs>
       <use xlink:href="#DejaVuSans-39"/>
       <use xlink:href="#DejaVuSans-30" x="63.623047"/>
       <use xlink:href="#DejaVuSans-30" x="127.246094"/>
      </g>
     </g>
    </g>
    <g id="ytick_10">
     <g id="line2d_46">
      <path d="M 81 567 
L 583.2 567 
" clip-path="url(#p45c96a2cea)" style="fill: none; stroke: #b0b0b0; stroke-width: 0.8; stroke-linecap: square"/>
     </g>
     <g id="line2d_47">
      <g>
       <use xlink:href="#m4f4df34d1e" x="81" y="567" style="stroke: #000000; stroke-width: 0.8"/>
      </g>
     </g>
     <g id="text_22">
      <!-- 1000 -->
      <g transform="translate(48.55 570.799219)scale(0.1 -0.1)">
       <use xlink:href="#DejaVuSans-31"/>
       <use xlink:href="#DejaVuSans-30" x="63.623047"/>
       <use xlink:href="#DejaVuSans-30" x="127.246094"/>
       <use xlink:href="#DejaVuSans-30" x="190.869141"/>
      </g>
     </g>
    </g>
    <g id="ytick_11">
     <g id="line2d_48">
      <defs>
       <path id="m5833890151" d="M 0 0 
L -2 0 
" style="stroke: #000000; stroke-width: 0.6"/>
      </defs>
      <g>
       <use xlink:href="#m5833890151" x="81" y="113.601266" style="stroke: #000000; stroke-width: 0.6"/>
      </g>
     </g>
    </g>
    <g id="ytick_12">
     <g id="line2d_49">
      <g>
       <use xlink:href="#m5833890151" x="81" y="160.594182" style="stroke: #000000; stroke-width: 0.6"/>
      </g>
     </g>
    </g>
    <g id="ytick_13">
     <g id="line2d_50">
      <g>
       <use xlink:href="#m5833890151" x="81" y="193.936186" style="stroke: #000000; stroke-width: 0.6"/>
      </g>
     </g>
    </g>
    <g id="ytick_14">
     <g id="line2d_51">
      <g>
       <use xlink:href="#m5833890151" x="81" y="219.798254" style="stroke: #000000; stroke-width: 0.6"/>
      </g>
     </g>
    </g>
    <g id="ytick_15">
     <g id="line2d_52">
      <g>
       <use xlink:href="#m5833890151" x="81" y="240.929101" style="stroke: #000000; stroke-width: 0.6"/>
      </g>
     </g>
    </g>
    <g id="ytick_16">
     <g id="line2d_53">
      <g>
       <use xlink:href="#m5833890151" x="81" y="258.794979" style="stroke: #000000; stroke-width: 0.6"/>
      </g>
     </g>
    </g>
    <g id="ytick_17">
     <g id="line2d_54">
      <g>
       <use xlink:href="#m5833890151" x="81" y="274.271106" style="stroke: #000000; stroke-width: 0.6"/>
      </g>
     </g>
    </g>
    <g id="ytick_18">
     <g id="line2d_55">
      <g>
       <use xlink:href="#m5833890151" x="81" y="287.922017" style="stroke: #000000; stroke-width: 0.6"/>
      </g>
     </g>
    </g>
    <g id="text_23">
     <!-- hectopascal -->
     <g transform="translate(42.470312 352.439375)rotate(-90)scale(0.1 -0.1)">
      <defs>
       <path id="DejaVuSans-68" d="M 3513 2113 
L 3513 0 
L 2938 0 
L 2938 2094 
Q 2938 2591 2744 2837 
Q 2550 3084 2163 3084 
Q 1697 3084 1428 2787 
Q 1159 2491 1159 1978 
L 1159 0 
L 581 0 
L 581 4863 
L 1159 4863 
L 1159 2956 
Q 1366 3272 1645 3428 
Q 1925 3584 2291 3584 
Q 2894 3584 3203 3211 
Q 3513 2838 3513 2113 
z
" transform="scale(0.015625)"/>
       <path id="DejaVuSans-63" d="M 3122 3366 
L 3122 2828 
Q 2878 2963 2633 3030 
Q 2388 3097 2138 3097 
Q 1578 3097 1268 2742 
Q 959 2388 959 1747 
Q 959 1106 1268 751 
Q 1578 397 2138 397 
Q 2388 397 2633 464 
Q 2878 531 3122 666 
L 3122 134 
Q 2881 22 2623 -34 
Q 2366 -91 2075 -91 
Q 1284 -91 818 406 
Q 353 903 353 1747 
Q 353 2603 823 3093 
Q 1294 3584 2113 3584 
Q 2378 3584 2631 3529 
Q 2884 3475 3122 3366 
z
" transform="scale(0.015625)"/>
       <path id="DejaVuSans-74" d="M 1172 4494 
L 1172 3500 
L 2356 3500 
L 2356 3053 
L 1172 3053 
L 1172 1153 
Q 1172 725 1289 603 
Q 1406 481 1766 481 
L 2356 481 
L 2356 0 
L 1766 0 
Q 1100 0 847 248 
Q 594 497 594 1153 
L 594 3053 
L 172 3053 
L 172 3500 
L 594 3500 
L 594 4494 
L 1172 4494 
z
" transform="scale(0.015625)"/>
       <path id="DejaVuSans-6f" d="M 1959 3097 
Q 1497 3097 1228 2736 
Q 959 2375 959 1747 
Q 959 1119 1226 758 
Q 1494 397 1959 397 
Q 2419 397 2687 759 
Q 2956 1122 2956 1747 
Q 2956 2369 2687 2733 
Q 2419 3097 1959 3097 
z
M 1959 3584 
Q 2709 3584 3137 3096 
Q 3566 2609 3566 1747 
Q 3566 888 3137 398 
Q 2709 -91 1959 -91 
Q 1206 -91 779 398 
Q 353 888 353 1747 
Q 353 2609 779 3096 
Q 1206 3584 1959 3584 
z
" transform="scale(0.015625)"/>
       <path id="DejaVuSans-70" d="M 1159 525 
L 1159 -1331 
L 581 -1331 
L 581 3500 
L 1159 3500 
L 1159 2969 
Q 1341 3281 1617 3432 
Q 1894 3584 2278 3584 
Q 2916 3584 3314 3078 
Q 3713 2572 3713 1747 
Q 3713 922 3314 415 
Q 2916 -91 2278 -91 
Q 1894 -91 1617 61 
Q 1341 213 1159 525 
z
M 3116 1747 
Q 3116 2381 2855 2742 
Q 2594 3103 2138 3103 
Q 1681 3103 1420 2742 
Q 1159 2381 1159 1747 
Q 1159 1113 1420 752 
Q 1681 391 2138 391 
Q 2594 391 2855 752 
Q 3116 1113 3116 1747 
z
" transform="scale(0.015625)"/>
       <path id="DejaVuSans-61" d="M 2194 1759 
Q 1497 1759 1228 1600 
Q 959 1441 959 1056 
Q 959 750 1161 570 
Q 1363 391 1709 391 
Q 2188 391 2477 730 
Q 2766 1069 2766 1631 
L 2766 1759 
L 2194 1759 
z
M 3341 1997 
L 3341 0 
L 2766 0 
L 2766 531 
Q 2569 213 2275 61 
Q 1981 -91 1556 -91 
Q 1019 -91 701 211 
Q 384 513 384 1019 
Q 384 1609 779 1909 
Q 1175 2209 1959 2209 
L 2766 2209 
L 2766 2266 
Q 2766 2663 2505 2880 
Q 2244 3097 1772 3097 
Q 1472 3097 1187 3025 
Q 903 2953 641 2809 
L 641 3341 
Q 956 3463 1253 3523 
Q 1550 3584 1831 3584 
Q 2591 3584 2966 3190 
Q 3341 2797 3341 1997 
z
" transform="scale(0.015625)"/>
      </defs>
      <use xlink:href="#DejaVuSans-68"/>
      <use xlink:href="#DejaVuSans-65" x="63.378906"/>
      <use xlink:href="#DejaVuSans-63" x="124.902344"/>
      <use xlink:href="#DejaVuSans-74" x="179.882812"/>
      <use xlink:href="#DejaVuSans-6f" x="219.091797"/>
      <use xlink:href="#DejaVuSans-70" x="280.273438"/>
      <use xlink:href="#DejaVuSans-61" x="343.75"/>
      <use xlink:href="#DejaVuSans-73" x="405.029297"/>
      <use xlink:href="#DejaVuSans-63" x="457.128906"/>
      <use xlink:href="#DejaVuSans-61" x="512.109375"/>
      <use xlink:href="#DejaVuSans-6c" x="573.388672"/>
     </g>
    </g>
   </g>
   <g id="LineCollection_1">
    <path d="M 81 567 
L 75.873953 564.64569 
L 70.68032 562.242562 
L 65.416828 559.788549 
L 60.08108 557.281449 
L 54.670541 554.718915 
L 49.182535 552.09844 
L 43.614222 549.417342 
L 37.962596 546.67275 
L 32.224463 543.861585 
L 26.396428 540.980534 
L 20.474876 538.026036 
L 14.455953 534.994247 
L 8.335542 531.881015 
L 2.109237 528.681842 
L -1 527.067592 
" clip-path="url(#p45c96a2cea)" style="fill: none; stroke-dasharray: 5.55,2.4; stroke-dashoffset: 0; stroke: #ff0000; stroke-opacity: 0.5; stroke-width: 1.5"/>
    <path d="M 131.22 567 
L 125.803327 564.64569 
L 120.314777 562.242562 
L 114.751921 559.788549 
L 109.112196 557.281449 
L 103.392897 554.718915 
L 97.591157 552.09844 
L 91.703945 549.417342 
L 85.728043 546.67275 
L 79.660035 543.861585 
L 73.496288 540.980534 
L 67.232934 538.026036 
L 60.865845 534.994247 
L 54.390612 531.881015 
L 47.802517 528.681842 
L 41.096502 525.391849 
L 34.267132 522.005729 
L 27.308559 518.517693 
L 20.214474 514.921418 
L 12.978059 511.209969 
L 5.591923 507.375724 
L -1 503.910678 
" clip-path="url(#p45c96a2cea)" style="fill: none; stroke-dasharray: 5.55,2.4; stroke-dashoffset: 0; stroke: #ff0000; stroke-opacity: 0.5; stroke-width: 1.5"/>
    <path d="M 181.44 567 
L 175.732702 564.64569 
L 169.949234 562.242562 
L 164.087014 559.788549 
L 158.143313 557.281449 
L 152.115252 554.718915 
L 145.99978 552.09844 
L 139.793668 549.417342 
L 133.49349 546.67275 
L 127.095607 543.861585 
L 120.596149 540.980534 
L 113.990991 538.026036 
L 107.275736 534.994247 
L 100.445682 531.881015 
L 93.495797 528.681842 
L 86.420685 525.391849 
L 79.214547 522.005729 
L 71.87114 518.517693 
L 64.38373 514.921418 
L 56.745032 511.209969 
L 48.947151 507.375724 
L 40.981506 503.410279 
L 32.838749 499.304337 
L 24.508661 495.047574 
L 15.980038 490.628486 
L 7.240559 486.034202 
L -1 481.636312 
" clip-path="url(#p45c96a2cea)" style="fill: none; stroke-dasharray: 5.55,2.4; stroke-dashoffset: 0; stroke: #ff0000; stroke-opacity: 0.5; stroke-width: 1.5"/>
    <path d="M 231.66 567 
L 225.662076 564.64569 
L 219.583691 562.242562 
L 213.422106 559.788549 
L 207.17443 557.281449 
L 200.837607 554.718915 
L 194.408403 552.09844 
L 187.883391 549.417342 
L 181.258937 546.67275 
L 174.531179 543.861585 
L 167.696009 540.980534 
L 160.749048 538.026036 
L 153.685627 534.994247 
L 146.500752 531.881015 
L 139.189077 528.681842 
L 131.744868 525.391849 
L 124.161962 522.005729 
L 116.433722 518.517693 
L 108.552985 514.921418 
L 100.512004 511.209969 
L 92.302378 507.375724 
L 83.914974 503.410279 
L 75.339837 499.304337 
L 66.566082 495.047574 
L 57.581774 490.628486 
L 48.373778 486.034202 
L 38.927588 481.250253 
L 29.227121 476.260304 
L 19.254469 471.045813 
L 8.989602 465.585614 
L -1 460.174961 
" clip-path="url(#p45c96a2cea)" style="fill: none; stroke-dasharray: 5.55,2.4; stroke-dashoffset: 0; stroke: #ff0000; stroke-opacity: 0.5; stroke-width: 1.5"/>
    <path d="M 281.88 567 
L 275.591451 564.64569 
L 269.218149 562.242562 
L 262.757199 559.788549 
L 256.205547 557.281449 
L 249.559962 554.718915 
L 242.817025 552.09844 
L 235.973114 549.417342 
L 229.024385 546.67275 
L 221.966752 543.861585 
L 214.795869 540.980534 
L 207.507106 538.026036 
L 200.095518 534.994247 
L 192.555822 531.881015 
L 184.882357 528.681842 
L 177.069051 525.391849 
L 169.109377 522.005729 
L 160.996303 518.517693 
L 152.722241 514.921418 
L 144.278977 511.209969 
L 135.657606 507.375724 
L 126.848442 503.410279 
L 117.840924 499.304337 
L 108.623504 495.047574 
L 99.183511 490.628486 
L 89.506998 486.034202 
L 79.578556 481.250253 
L 69.381094 476.260304 
L 58.895575 471.045813 
L 48.100694 465.585614 
L 36.97249 459.855402 
L 25.483866 453.827077 
L 13.603988 447.467909 
L 1.297536 440.739465 
L -1 439.454652 
" clip-path="url(#p45c96a2cea)" style="fill: none; stroke-dasharray: 5.55,2.4; stroke-dashoffset: 0; stroke: #ff0000; stroke-opacity: 0.5; stroke-width: 1.5"/>
    <path d="M 332.1 567 
L 325.520825 564.64569 
L 318.852606 562.242562 
L 312.092292 559.788549 
L 305.236664 557.281449 
L 298.282317 554.718915 
L 291.225648 552.09844 
L 284.062837 549.417342 
L 276.789832 546.67275 
L 269.402324 543.861585 
L 261.895729 540.980534 
L 254.265163 538.026036 
L 246.50541 534.994247 
L 238.610892 531.881015 
L 230.575636 528.681842 
L 222.393234 525.391849 
L 214.056791 522.005729 
L 205.558885 518.517693 
L 196.891496 514.921418 
L 188.04595 511.209969 
L 179.012833 507.375724 
L 169.781909 503.410279 
L 160.342011 499.304337 
L 150.680926 495.047574 
L 140.785247 490.628486 
L 130.640217 486.034202 
L 120.229524 481.250253 
L 109.535067 476.260304 
L 98.53668 471.045813 
L 87.211785 465.585614 
L 75.534977 459.855402 
L 63.47751 453.827077 
L 51.006663 447.467909 
L 38.084931 440.739465 
L 24.669006 433.596198 
L 10.708458 425.98358 
L -1 419.433338 
" clip-path="url(#p45c96a2cea)" style="fill: none; stroke-dasharray: 5.55,2.4; stroke-dashoffset: 0; stroke: #ff0000; stroke-opacity: 0.5; stroke-width: 1.5"/>
    <path d="M 382.32 567 
L 375.4502 564.64569 
L 368.487063 562.242562 
L 361.427385 559.788549 
L 354.267781 557.281449 
L 347.004672 554.718915 
L 339.634271 552.09844 
L 332.15256 549.417342 
L 324.555279 546.67275 
L 316.837896 543.861585 
L 308.99559 540.980534 
L 301.023221 538.026036 
L 292.915301 534.994247 
L 284.665962 531.881015 
L 276.268916 528.681842 
L 267.717416 525.391849 
L 259.004206 522.005729 
L 250.121466 518.517693 
L 241.060752 514.921418 
L 231.812923 511.209969 
L 222.368061 507.375724 
L 212.715377 503.410279 
L 202.843099 499.304337 
L 192.738347 495.047574 
L 182.386984 490.628486 
L 171.773437 486.034202 
L 160.880491 481.250253 
L 149.68904 476.260304 
L 138.177786 471.045813 
L 126.322876 465.585614 
L 114.097463 459.855402 
L 101.471154 453.827077 
L 88.409338 447.467909 
L 74.872325 440.739465 
L 60.814259 433.596198 
L 46.181711 425.98358 
L 30.911837 417.835568 
L 14.929917 409.071116 
L -1 400.071711 
" clip-path="url(#p45c96a2cea)" style="fill: none; stroke-dasharray: 5.55,2.4; stroke-dashoffset: 0; stroke: #ff0000; stroke-opacity: 0.5; stroke-width: 1.5"/>
    <path d="M 432.54 567 
L 425.379574 564.64569 
L 418.12152 562.242562 
L 410.762477 559.788549 
L 403.298897 557.281449 
L 395.727027 554.718915 
L 388.042893 552.09844 
L 380.242283 549.417342 
L 372.320726 546.67275 
L 364.273468 543.861585 
L 356.09545 540.980534 
L 347.781278 538.026036 
L 339.325192 534.994247 
L 330.721032 531.881015 
L 321.962196 528.681842 
L 313.041599 525.391849 
L 303.951621 522.005729 
L 294.684048 518.517693 
L 285.230007 514.921418 
L 275.579895 511.209969 
L 265.723289 507.375724 
L 255.648844 503.410279 
L 245.344186 499.304337 
L 234.795769 495.047574 
L 223.988721 490.628486 
L 212.906657 486.034202 
L 201.531459 481.250253 
L 189.843014 476.260304 
L 177.818892 471.045813 
L 165.433968 465.585614 
L 152.659949 459.855402 
L 139.464799 453.827077 
L 125.812014 447.467909 
L 111.659719 440.739465 
L 96.959512 433.596198 
L 81.654963 425.98358 
L 65.679664 417.835568 
L 48.954602 409.071116 
L 31.384603 399.589262 
L 12.853375 389.262006 
L -1 381.263122 
" clip-path="url(#p45c96a2cea)" style="fill: none; stroke-dasharray: 5.55,2.4; stroke-dashoffset: 0; stroke: #ff0000; stroke-opacity: 0.5; stroke-width: 1.5"/>
    <path d="M 482.76 567 
L 475.308949 564.64569 
L 467.755977 562.242562 
L 460.09757 559.788549 
L 452.330014 557.281449 
L 444.449382 554.718915 
L 436.451516 552.09844 
L 428.332006 549.417342 
L 420.086173 546.67275 
L 411.70904 543.861585 
L 403.19531 540.980534 
L 394.539335 538.026036 
L 385.735083 534.994247 
L 376.776102 531.881015 
L 367.655476 528.681842 
L 358.365782 525.391849 
L 348.899036 522.005729 
L 339.246629 518.517693 
L 329.399263 514.921418 
L 319.346868 511.209969 
L 309.078516 507.375724 
L 298.582312 503.410279 
L 287.845274 499.304337 
L 276.853191 495.047574 
L 265.590457 490.628486 
L 254.039876 486.034202 
L 242.182427 481.250253 
L 229.996987 476.260304 
L 217.459998 471.045813 
L 204.545059 465.585614 
L 191.222436 459.855402 
L 177.458443 453.827077 
L 163.214689 447.467909 
L 148.447114 440.739465 
L 133.104765 433.596198 
L 117.128216 425.98358 
L 100.447491 417.835568 
L 82.979286 409.071116 
L 64.623193 399.589262 
L 45.256431 389.262006 
L 24.726315 377.923708 
L 2.839151 365.354705 
L -1 363.050849 
" clip-path="url(#p45c96a2cea)" style="fill: none; stroke-dasharray: 5.55,2.4; stroke-dashoffset: 0; stroke: #ff0000; stroke-opacity: 0.5; stroke-width: 1.5"/>
    <path d="M 532.98 567 
L 525.238323 564.64569 
L 517.390434 562.242562 
L 509.432663 559.788549 
L 501.361131 557.281449 
L 493.171737 554.718915 
L 484.860139 552.09844 
L 476.421729 549.417342 
L 467.85162 546.67275 
L 459.144612 543.861585 
L 450.295171 540.980534 
L 441.297393 538.026036 
L 432.144975 534.994247 
L 422.831172 531.881015 
L 413.348756 528.681842 
L 403.689965 525.391849 
L 393.846451 522.005729 
L 383.80921 518.517693 
L 373.568518 514.921418 
L 363.113841 511.209969 
L 352.433744 507.375724 
L 341.51578 503.410279 
L 330.346361 499.304337 
L 318.910612 495.047574 
L 307.192194 490.628486 
L 295.173096 486.034202 
L 282.833395 481.250253 
L 270.15096 476.260304 
L 257.101103 471.045813 
L 243.656151 465.585614 
L 229.784922 459.855402 
L 215.452087 453.827077 
L 200.617365 447.467909 
L 185.234508 440.739465 
L 169.250018 433.596198 
L 152.601468 425.98358 
L 135.215317 417.835568 
L 117.00397 409.071116 
L 97.861783 399.589262 
L 77.659487 389.262006 
L 56.236207 377.923708 
L 33.387675 365.354705 
L 8.848185 351.254927 
L -1 345.307526 
" clip-path="url(#p45c96a2cea)" style="fill: none; stroke-dasharray: 5.55,2.4; stroke-dashoffset: 0; stroke: #ff0000; stroke-opacity: 0.5; stroke-width: 1.5"/>
    <path d="M 583.2 567 
L 575.167698 564.64569 
L 567.024892 562.242562 
L 558.767756 559.788549 
L 550.392248 557.281449 
L 541.894092 554.718915 
L 533.268761 552.09844 
L 524.511453 549.417342 
L 515.617067 546.67275 
L 506.580185 543.861585 
L 497.395031 540.980534 
L 488.05545 538.026036 
L 478.554866 534.994247 
L 468.886242 531.881015 
L 459.042035 528.681842 
L 449.014148 525.391849 
L 438.793866 522.005729 
L 428.371792 518.517693 
L 417.737774 514.921418 
L 406.880814 511.209969 
L 395.788971 507.375724 
L 384.449247 503.410279 
L 372.847448 499.304337 
L 360.968034 495.047574 
L 348.79393 490.628486 
L 336.306315 486.034202 
L 323.484362 481.250253 
L 310.304934 476.260304 
L 296.742209 471.045813 
L 282.767242 465.585614 
L 268.347408 459.855402 
L 253.445731 453.827077 
L 238.02004 447.467909 
L 222.021902 440.739465 
L 205.39527 433.596198 
L 188.074721 425.98358 
L 169.983144 417.835568 
L 151.028654 409.071116 
L 131.100373 399.589262 
L 110.062544 389.262006 
L 87.746098 377.923708 
L 63.936198 365.354705 
L 38.353119 351.254927 
L 10.6216 335.199118 
L -1 328.072616 
" clip-path="url(#p45c96a2cea)" style="fill: none; stroke-dasharray: 5.55,2.4; stroke-dashoffset: 0; stroke: #ff0000; stroke-opacity: 0.5; stroke-width: 1.5"/>
   </g>
   <g id="LineCollection_2">
    <path d="M 81 567 
L 75.929377 564.64569 
L 70.785507 562.242562 
L 65.566476 559.788549 
L 60.270256 557.281449 
L 54.894673 554.718915 
L 49.437387 552.09844 
L 43.895889 549.417342 
L 38.267492 546.67275 
L 32.549307 543.861585 
L 26.738229 540.980534 
L 20.830918 538.026036 
L 14.823784 534.994247 
L 8.71295 531.881015 
L 2.494243 528.681842 
L -1 526.866035 
" clip-path="url(#p45c96a2cea)" style="fill: none; stroke-dasharray: 5.55,2.4; stroke-dashoffset: 0; stroke: #0000ff; stroke-opacity: 0.5; stroke-width: 1.5"/>
    <path d="M 131.22 567 
L 125.958437 564.64569 
L 120.610815 562.242562 
L 115.175417 559.788549 
L 109.650418 557.281449 
L 104.033847 554.718915 
L 98.323566 552.09844 
L 92.517263 549.417342 
L 86.612435 546.67275 
L 80.606365 543.861585 
L 74.496106 540.980534 
L 68.27845 538.026036 
L 61.949916 534.994247 
L 55.506708 531.881015 
L 48.944698 528.681842 
L 42.25939 525.391849 
L 35.445881 522.005729 
L 28.498822 518.517693 
L 21.412372 514.921418 
L 14.180143 511.209969 
L 6.795144 507.375724 
L -0.750289 503.410279 
L -1 503.27737 
" clip-path="url(#p45c96a2cea)" style="fill: none; stroke-dasharray: 5.55,2.4; stroke-dashoffset: 0; stroke: #0000ff; stroke-opacity: 0.5; stroke-width: 1.5"/>
    <path d="M 181.44 567 
L 176.116935 564.64569 
L 170.687702 562.242562 
L 165.150603 559.788549 
L 159.503902 557.281449 
L 153.745768 554.718915 
L 147.874268 552.09844 
L 141.887337 549.417342 
L 135.782762 546.67275 
L 129.558152 543.861585 
L 123.210911 540.980534 
L 116.738201 538.026036 
L 110.136923 534.994247 
L 103.403659 531.881015 
L 96.534651 528.681842 
L 89.525758 525.391849 
L 82.372399 522.005729 
L 75.069514 518.517693 
L 67.611499 514.921418 
L 59.99215 511.209969 
L 52.204589 507.375724 
L 44.241192 503.410279 
L 36.093495 499.304337 
L 27.75209 495.047574 
L 19.206509 490.628486 
L 10.445092 486.034202 
L 1.454814 481.250253 
L -1 479.923658 
" clip-path="url(#p45c96a2cea)" style="fill: none; stroke-dasharray: 5.55,2.4; stroke-dashoffset: 0; stroke: #0000ff; stroke-opacity: 0.5; stroke-width: 1.5"/>
    <path d="M 231.66 567 
L 226.501138 564.64569 
L 221.210901 562.242562 
L 215.78649 559.788549 
L 210.22519 557.281449 
L 204.524324 554.718915 
L 198.681247 552.09844 
L 192.693337 549.417342 
L 186.557973 546.67275 
L 180.272514 543.861585 
L 173.834267 540.980534 
L 167.240451 538.026036 
L 160.488165 534.994247 
L 153.574318 531.881015 
L 146.495601 528.681842 
L 139.248415 525.391849 
L 131.828809 522.005729 
L 124.232401 518.517693 
L 116.454311 514.921418 
L 108.489063 511.209969 
L 100.330498 507.375724 
L 91.971669 503.410279 
L 83.404726 499.304337 
L 74.620788 495.047574 
L 65.609798 490.628486 
L 56.360366 486.034202 
L 46.859577 481.250253 
L 37.092775 476.260304 
L 27.043304 471.045813 
L 16.692201 465.585614 
L 6.017831 459.855402 
L -1 456.017238 
" clip-path="url(#p45c96a2cea)" style="fill: none; stroke-dasharray: 5.55,2.4; stroke-dashoffset: 0; stroke: #0000ff; stroke-opacity: 0.5; stroke-width: 1.5"/>
    <path d="M 281.88 567 
L 277.188998 564.64569 
L 272.349824 562.242562 
L 267.356885 559.788549 
L 262.204616 557.281449 
L 256.887425 554.718915 
L 251.399735 552.09844 
L 245.736021 549.417342 
L 239.890833 546.67275 
L 233.858826 543.861585 
L 227.634772 540.980534 
L 221.213582 538.026036 
L 214.590309 534.994247 
L 207.760142 531.881015 
L 200.718385 528.681842 
L 193.460424 525.391849 
L 185.981678 522.005729 
L 178.277519 518.517693 
L 170.343196 514.921418 
L 162.173715 511.209969 
L 153.763707 507.375724 
L 145.10729 503.410279 
L 136.197886 499.304337 
L 127.028034 495.047574 
L 117.589173 490.628486 
L 107.871416 486.034202 
L 97.863286 481.250253 
L 87.551418 476.260304 
L 76.920236 471.045813 
L 65.951568 465.585614 
L 54.624213 459.855402 
L 42.91341 453.827077 
L 30.790206 447.467909 
L 18.220668 440.739465 
L 5.164909 433.596198 
L -1 430.142612 
" clip-path="url(#p45c96a2cea)" style="fill: none; stroke-dasharray: 5.55,2.4; stroke-dashoffset: 0; stroke: #0000ff; stroke-opacity: 0.5; stroke-width: 1.5"/>
    <path d="M 332.1 567 
L 328.150739 564.64569 
L 324.062671 562.242562 
L 319.82803 559.788549 
L 315.438686 557.281449 
L 310.88605 554.718915 
L 306.161082 552.09844 
L 301.254305 549.417342 
L 296.155841 546.67275 
L 290.855415 543.861585 
L 285.342403 540.980534 
L 279.605882 538.026036 
L 273.634686 534.994247 
L 267.417501 531.881015 
L 260.942942 528.681842 
L 254.199652 525.391849 
L 247.176412 522.005729 
L 239.862238 518.517693 
L 232.246475 514.921418 
L 224.318873 511.209969 
L 216.069611 507.375724 
L 207.489312 503.410279 
L 198.568964 499.304337 
L 189.299792 495.047574 
L 179.673034 490.628486 
L 169.679679 486.034202 
L 159.310069 481.250253 
L 148.553447 476.260304 
L 137.397418 471.045813 
L 125.827324 465.585614 
L 113.825552 459.855402 
L 101.37074 453.827077 
L 88.436874 447.467909 
L 74.99225 440.739465 
L 60.998239 433.596198 
L 46.407779 425.98358 
L 31.163466 417.835568 
L 15.195091 409.071116 
L -1 399.91911 
" clip-path="url(#p45c96a2cea)" style="fill: none; stroke-dasharray: 5.55,2.4; stroke-dashoffset: 0; stroke: #0000ff; stroke-opacity: 0.5; stroke-width: 1.5"/>
    <path d="M 357.21 567 
L 353.684868 564.64569 
L 350.035892 562.242562 
L 346.255427 559.788549 
L 342.335326 557.281449 
L 338.266818 554.718915 
L 334.040475 552.09844 
L 329.646178 549.417342 
L 325.073111 546.67275 
L 320.309704 543.861585 
L 315.343618 540.980534 
L 310.161734 538.026036 
L 304.750159 534.994247 
L 299.094234 531.881015 
L 293.178591 528.681842 
L 286.987212 525.391849 
L 280.503529 522.005729 
L 273.710555 518.517693 
L 266.591041 514.921418 
L 259.127672 511.209969 
L 251.303279 507.375724 
L 243.101053 503.410279 
L 234.504768 499.304337 
L 225.498934 495.047574 
L 216.068899 490.628486 
L 206.200847 486.034202 
L 195.881649 481.250253 
L 185.098551 476.260304 
L 173.83867 471.045813 
L 162.088297 465.585614 
L 149.832026 459.855402 
L 137.051674 453.827077 
L 123.725029 447.467909 
L 109.824424 440.739465 
L 95.315104 433.596198 
L 80.153324 425.98358 
L 64.284069 417.835568 
L 47.638243 409.071116 
L 30.128998 399.589262 
L 11.646775 389.262006 
L -1 381.943966 
" clip-path="url(#p45c96a2cea)" style="fill: none; stroke-dasharray: 5.55,2.4; stroke-dashoffset: 0; stroke: #0000ff; stroke-opacity: 0.5; stroke-width: 1.5"/>
    <path d="M 382.32 567 
L 379.2185 564.64569 
L 376.011833 562.242562 
L 372.693238 559.788549 
L 369.255437 557.281449 
L 365.690503 554.718915 
L 361.9898 552.09844 
L 358.143917 549.417342 
L 354.142625 546.67275 
L 349.974767 543.861585 
L 345.628187 540.980534 
L 341.089638 538.026036 
L 336.344707 534.994247 
L 331.377696 531.881015 
L 326.171574 528.681842 
L 320.707898 525.391849 
L 314.966749 522.005729 
L 308.926712 518.517693 
L 302.564881 514.921418 
L 295.85692 511.209969 
L 288.7772 507.375724 
L 281.298973 503.410279 
L 273.394686 499.304337 
L 265.036352 495.047574 
L 256.19602 490.628486 
L 246.846255 486.034202 
L 236.960681 481.250253 
L 226.514406 476.260304 
L 215.484282 471.045813 
L 203.848894 465.585614 
L 191.588166 459.855402 
L 178.682493 453.827077 
L 165.111368 447.467909 
L 150.851493 440.739465 
L 135.874437 433.596198 
L 120.143823 425.98358 
L 103.612062 417.835568 
L 86.216557 409.071116 
L 67.875116 399.589262 
L 48.480145 389.262006 
L 27.89085 377.923708 
L 5.922083 365.354705 
L -1 361.218166 
" clip-path="url(#p45c96a2cea)" style="fill: none; stroke-dasharray: 5.55,2.4; stroke-dashoffset: 0; stroke: #0000ff; stroke-opacity: 0.5; stroke-width: 1.5"/>
    <path d="M 407.43 567 
L 404.727747 564.64569 
L 401.93967 562.242562 
L 399.060292 559.788549 
L 396.083689 557.281449 
L 393.003381 554.718915 
L 389.812261 552.09844 
L 386.502536 549.417342 
L 383.065664 546.67275 
L 379.492237 543.861585 
L 375.771888 540.980534 
L 371.89317 538.026036 
L 367.843441 534.994247 
L 363.608672 531.881015 
L 359.173331 528.681842 
L 354.520183 525.391849 
L 349.63009 522.005729 
L 344.481793 518.517693 
L 339.051693 514.921418 
L 333.313614 511.209969 
L 327.238583 507.375724 
L 320.794628 503.410279 
L 313.946621 499.304337 
L 306.656217 495.047574 
L 298.881913 490.628486 
L 290.579269 486.034202 
L 281.701388 481.250253 
L 272.199657 476.260304 
L 262.024789 471.045813 
L 251.128117 465.585614 
L 239.462979 459.855402 
L 226.986016 453.827077 
L 213.657952 447.467909 
L 199.44348 440.739465 
L 184.309888 433.596198 
L 168.224125 425.98358 
L 151.148277 417.835568 
L 133.033616 409.071116 
L 113.813293 399.589262 
L 93.393696 389.262006 
L 71.643996 377.923708 
L 48.382597 365.354705 
L 23.358059 351.254927 
L -1 336.844087 
" clip-path="url(#p45c96a2cea)" style="fill: none; stroke-dasharray: 5.55,2.4; stroke-dashoffset: 0; stroke: #0000ff; stroke-opacity: 0.5; stroke-width: 1.5"/>
    <path d="M 432.54 567 
L 430.195775 564.64569 
L 427.783403 562.242562 
L 425.298712 559.788549 
L 422.737198 557.281449 
L 420.093929 554.718915 
L 417.363502 552.09844 
L 414.539979 549.417342 
L 411.616849 546.67275 
L 408.586928 543.861585 
L 405.442274 540.980534 
L 402.174087 538.026036 
L 398.772602 534.994247 
L 395.226916 531.881015 
L 391.524865 528.681842 
L 387.652823 525.391849 
L 383.595481 522.005729 
L 379.335586 518.517693 
L 374.853653 514.921418 
L 370.127603 511.209969 
L 365.132355 507.375724 
L 359.839377 503.410279 
L 354.216124 499.304337 
L 348.225439 495.047574 
L 341.824871 490.628486 
L 334.965985 486.034202 
L 327.593617 481.250253 
L 319.645225 476.260304 
L 311.050411 471.045813 
L 301.730802 465.585614 
L 291.600496 459.855402 
L 280.567382 453.827077 
L 268.53557 447.467909 
L 255.409 440.739465 
L 241.095856 433.596198 
L 225.512915 425.98358 
L 208.588068 417.835568 
L 190.259087 409.071116 
L 170.466878 399.589262 
L 149.142621 389.262006 
L 126.189396 377.923708 
L 101.459036 365.354705 
L 74.723755 351.254927 
L 45.63855 335.199118 
L 13.684116 316.555795 
L -1 307.391752 
" clip-path="url(#p45c96a2cea)" style="fill: none; stroke-dasharray: 5.55,2.4; stroke-dashoffset: 0; stroke: #0000ff; stroke-opacity: 0.5; stroke-width: 1.5"/>
    <path d="M 457.65 567 
L 455.613629 564.64569 
L 453.523883 562.242562 
L 451.377703 559.788549 
L 449.171796 557.281449 
L 446.902572 554.718915 
L 444.566108 552.09844 
L 442.158107 549.417342 
L 439.673872 546.67275 
L 437.108236 543.861585 
L 434.455501 540.980534 
L 431.709372 538.026036 
L 428.862875 534.994247 
L 425.90824 531.881015 
L 422.836807 528.681842 
L 419.638882 525.391849 
L 416.303576 522.005729 
L 412.818595 518.517693 
L 409.170029 514.921418 
L 405.342055 511.209969 
L 401.316591 507.375724 
L 397.072904 503.410279 
L 392.587086 499.304337 
L 387.831435 495.047574 
L 382.773677 490.628486 
L 377.376069 486.034202 
L 371.594211 481.250253 
L 365.375641 476.260304 
L 358.658098 471.045813 
L 351.367436 465.585614 
L 343.415199 459.855402 
L 334.695848 453.827077 
L 325.083883 447.467909 
L 314.43129 440.739465 
L 302.566171 433.596198 
L 289.293927 425.98358 
L 274.402952 417.835568 
L 257.676275 409.071116 
L 238.908828 399.589262 
L 217.9249 389.262006 
L 194.584677 377.923708 
L 168.766704 365.354705 
L 140.319986 351.254927 
L 108.989045 335.199118 
L 74.316418 316.555795 
L 35.50803 294.327686 
L -1 271.646546 
" clip-path="url(#p45c96a2cea)" style="fill: none; stroke-dasharray: 5.55,2.4; stroke-dashoffset: 0; stroke: #0000ff; stroke-opacity: 0.5; stroke-width: 1.5"/>
    <path d="M 482.76 567 
L 480.979039 564.64569 
L 479.156281 562.242562 
L 477.289509 559.788549 
L 475.376356 557.281449 
L 473.41425 554.718915 
L 471.400394 552.09844 
L 469.331741 549.417342 
L 467.204979 546.67275 
L 465.016482 543.861585 
L 462.762273 540.980534 
L 460.437983 538.026036 
L 458.038802 534.994247 
L 455.559396 531.881015 
L 452.993858 528.681842 
L 450.335615 525.391849 
L 447.577322 522.005729 
L 444.710739 518.517693 
L 441.726592 514.921418 
L 438.614392 511.209969 
L 435.36221 507.375724 
L 431.956438 503.410279 
L 428.381447 499.304337 
L 424.619186 495.047574 
L 420.64867 490.628486 
L 416.445375 486.034202 
L 411.980402 481.250253 
L 407.219454 476.260304 
L 402.121484 471.045813 
L 396.636937 465.585614 
L 390.705447 459.855402 
L 384.252756 453.827077 
L 377.18659 447.467909 
L 369.391116 440.739465 
L 360.719569 433.596198 
L 350.984455 425.98358 
L 339.944997 417.835568 
L 327.292283 409.071116 
L 312.634434 399.589262 
L 295.488939 389.262006 
L 275.296535 377.923708 
L 251.475524 365.354705 
L 223.51557 351.254927 
L 191.047646 335.199118 
L 153.76866 316.555795 
L 111.155187 294.327686 
L 62.004031 266.799999 
L 3.710199 230.627639 
L -1 227.227539 
" clip-path="url(#p45c96a2cea)" style="fill: none; stroke-dasharray: 5.55,2.4; stroke-dashoffset: 0; stroke: #0000ff; stroke-opacity: 0.5; stroke-width: 1.5"/>
    <path d="M 507.87 567 
L 506.294363 564.64569 
L 504.685587 562.242562 
L 503.042055 559.788549 
L 501.362052 557.281449 
L 499.643723 554.718915 
L 497.885064 552.09844 
L 496.083901 549.417342 
L 494.237885 546.67275 
L 492.344463 543.861585 
L 490.400849 540.980534 
L 488.404005 538.026036 
L 486.350606 534.994247 
L 484.236993 531.881015 
L 482.059143 528.681842 
L 479.812612 525.391849 
L 477.492475 522.005729 
L 475.09325 518.517693 
L 472.60882 514.921418 
L 470.032328 511.209969 
L 467.356047 507.375724 
L 464.571246 503.410279 
L 461.667992 499.304337 
L 458.634933 495.047574 
L 455.459008 490.628486 
L 452.125113 486.034202 
L 448.615642 481.250253 
L 444.90993 476.260304 
L 440.983507 471.045813 
L 436.807137 465.585614 
L 432.345547 459.855402 
L 427.555705 453.827077 
L 422.384454 447.467909 
L 416.765233 440.739465 
L 410.613429 433.596198 
L 403.819652 425.98358 
L 396.239739 417.835568 
L 387.679775 409.071116 
L 377.872905 399.589262 
L 366.443082 389.262006 
L 352.848361 377.923708 
L 336.29476 365.354705 
L 315.621741 351.254927 
L 289.211708 335.199118 
L 255.115791 316.555795 
L 211.625208 294.327686 
L 157.696159 266.799999 
L 91.65367 230.627639 
L 7.703926 177.757813 
L -1 170.623324 
" clip-path="url(#p45c96a2cea)" style="fill: none; stroke-dasharray: 5.55,2.4; stroke-dashoffset: 0; stroke: #0000ff; stroke-opacity: 0.5; stroke-width: 1.5"/>
    <path d="M 532.98 567 
L 531.564558 564.64569 
L 530.122229 562.242562 
L 528.651805 559.788549 
L 527.15201 557.281449 
L 525.621472 554.718915 
L 524.058715 552.09844 
L 522.462148 549.417342 
L 520.830061 546.67275 
L 519.160606 543.861585 
L 517.451779 540.980534 
L 515.701408 538.026036 
L 513.907132 534.994247 
L 512.066369 531.881015 
L 510.176304 528.681842 
L 508.233847 525.391849 
L 506.235601 522.005729 
L 504.17782 518.517693 
L 502.056355 514.921418 
L 499.8666 511.209969 
L 497.603413 507.375724 
L 495.261042 503.410279 
L 492.833014 499.304337 
L 490.312013 495.047574 
L 487.689719 490.628486 
L 484.956634 486.034202 
L 482.101833 481.250253 
L 479.112671 476.260304 
L 475.974397 471.045813 
L 472.669671 465.585614 
L 469.17792 459.855402 
L 465.474496 453.827077 
L 461.529533 447.467909 
L 457.306379 440.739465 
L 452.759427 433.596198 
L 447.831003 425.98358 
L 442.446793 417.835568 
L 436.509006 409.071116 
L 429.885691 399.589262 
L 422.393479 389.262006 
L 413.768535 377.923708 
L 403.614875 365.354705 
L 391.307469 351.254927 
L 375.798271 335.199118 
L 355.207118 316.555795 
L 325.964598 294.327686 
L 281.51656 266.799999 
L 213.408715 230.627639 
L 116.131074 177.757813 
L -1 97.334368 
" clip-path="url(#p45c96a2cea)" style="fill: none; stroke-dasharray: 5.55,2.4; stroke-dashoffset: 0; stroke: #0000ff; stroke-opacity: 0.5; stroke-width: 1.5"/>
    <path d="M 558.09 567 
L 556.795637 564.64569 
L 555.478774 562.242562 
L 554.138469 559.788549 
L 552.773735 557.281449 
L 551.383518 554.718915 
L 549.966682 552.09844 
L 548.522015 549.417342 
L 547.048217 546.67275 
L 545.54389 543.861585 
L 544.00753 540.980534 
L 542.43751 538.026036 
L 540.832077 534.994247 
L 539.189323 531.881015 
L 537.50718 528.681842 
L 535.783394 525.391849 
L 534.015506 522.005729 
L 532.200821 518.517693 
L 530.336378 514.921418 
L 528.418917 511.209969 
L 526.444829 507.375724 
L 524.410113 503.410279 
L 522.31031 499.304337 
L 520.140428 495.047574 
L 517.894855 490.628486 
L 515.567253 486.034202 
L 513.150421 481.250253 
L 510.636133 476.260304 
L 508.014927 471.045813 
L 505.275842 465.585614 
L 502.406085 459.855402 
L 499.390592 453.827077 
L 496.211453 447.467909 
L 492.84714 440.739465 
L 489.271459 433.596198 
L 485.452099 425.98358 
L 481.348548 417.835568 
L 476.909085 409.071116 
L 472.066235 399.589262 
L 466.729689 389.262006 
L 460.774857 377.923708 
L 454.023272 365.354705 
L 446.207189 351.254927 
L 436.90027 335.199118 
L 425.368383 316.555795 
L 410.204415 294.327686 
L 388.265406 266.799999 
L 350.814597 230.627639 
L 269.202169 177.757813 
L 94.514792 77.76 
" clip-path="url(#p45c96a2cea)" style="fill: none; stroke-dasharray: 5.55,2.4; stroke-dashoffset: 0; stroke: #0000ff; stroke-opacity: 0.5; stroke-width: 1.5"/>
    <path d="M 583.2 567 
L 581.993675 564.64569 
L 580.767835 562.242562 
L 579.521713 559.788549 
L 578.254506 557.281449 
L 576.96536 554.718915 
L 575.65336 552.09844 
L 574.317529 549.417342 
L 572.956828 546.67275 
L 571.570143 543.861585 
L 570.156277 540.980534 
L 568.713946 538.026036 
L 567.24177 534.994247 
L 565.738256 531.881015 
L 564.201791 528.681842 
L 562.63063 525.391849 
L 561.022879 522.005729 
L 559.376472 518.517693 
L 557.689157 514.921418 
L 555.958468 511.209969 
L 554.181695 507.375724 
L 552.355855 503.410279 
L 550.477649 499.304337 
L 548.543417 495.047574 
L 546.549075 490.628486 
L 544.490057 486.034202 
L 542.361228 481.250253 
L 540.156781 476.260304 
L 537.870113 471.045813 
L 535.49367 465.585614 
L 533.018753 459.855402 
L 530.435263 453.827077 
L 527.731383 447.467909 
L 524.893145 440.739465 
L 521.903875 433.596198 
L 518.743427 425.98358 
L 515.387114 417.835568 
L 511.804217 409.071116 
L 507.955802 399.589262 
L 503.791441 389.262006 
L 499.244128 377.923708 
L 494.221971 365.354705 
L 488.594011 351.254927 
L 482.164144 335.199118 
L 474.619161 316.555795 
L 465.412658 294.327686 
L 453.461205 266.799999 
L 436.132774 230.627639 
L 404.10478 177.757813 
L 281.311173 77.76 
" clip-path="url(#p45c96a2cea)" style="fill: none; stroke-dasharray: 5.55,2.4; stroke-dashoffset: 0; stroke: #0000ff; stroke-opacity: 0.5; stroke-width: 1.5"/>
   </g>
   <g id="LineCollection_3">
    <path d="M 200.917117 507.795928 
L 200.712707 509.362152 
L 200.511931 510.907492 
L 200.314683 512.432498 
L 200.120862 513.937698 
L 199.93037 515.423601 
L 199.743115 516.890693 
L 199.559006 518.339447 
L 199.377958 519.770315 
L 199.199887 521.183732 
L 199.024715 522.58012 
L 198.852363 523.959884 
L 198.68276 525.323415 
L 198.515833 526.67109 
L 198.351514 528.003275 
L 198.189737 529.320321 
L 198.03044 530.622568 
L 197.87356 531.910346 
L 197.719038 533.183971 
L 197.566817 534.443753 
L 197.416843 535.689989 
L 197.269061 536.922966 
L 197.12342 538.142965 
L 196.979871 539.350255 
L 196.838365 540.545098 
L 196.698856 541.727749 
L 196.561299 542.898454 
L 196.42565 544.057452 
L 196.291866 545.204974 
L 196.159908 546.341246 
L 196.029734 547.466485 
L 195.901308 548.580905 
L 195.774591 549.684712 
L 195.649547 550.778105 
L 195.526141 551.861279 
L 195.40434 552.934423 
L 195.28411 553.997723 
L 195.16542 555.051355 
L 195.048237 556.095496 
L 194.932532 557.130313 
L 194.818276 558.155973 
L 194.70544 559.172635 
L 194.593995 560.180457 
L 194.483916 561.179591 
L 194.375175 562.170185 
L 194.267748 563.152384 
L 194.161609 564.126329 
L 194.056735 565.092158 
L 193.953101 566.050005 
L 193.850684 567 
" clip-path="url(#p45c96a2cea)" style="fill: none; stroke-dasharray: 5.55,2.4; stroke-dashoffset: 0; stroke: #008000; stroke-opacity: 0.8; stroke-width: 1.5"/>
    <path d="M 250.510391 507.795928 
L 250.373185 509.362152 
L 250.238852 510.907492 
L 250.107303 512.432498 
L 249.978456 513.937698 
L 249.85223 515.423601 
L 249.728549 516.890693 
L 249.607339 518.339447 
L 249.488529 519.770315 
L 249.372052 521.183732 
L 249.257843 522.58012 
L 249.145838 523.959884 
L 249.035978 525.323415 
L 248.928205 526.67109 
L 248.822462 528.003275 
L 248.718697 529.320321 
L 248.616857 530.622568 
L 248.516892 531.910346 
L 248.418755 533.183971 
L 248.322399 534.443753 
L 248.227779 535.689989 
L 248.134852 536.922966 
L 248.043576 538.142965 
L 247.953912 539.350255 
L 247.865819 540.545098 
L 247.779261 541.727749 
L 247.694201 542.898454 
L 247.610604 544.057452 
L 247.528436 545.204974 
L 247.447664 546.341246 
L 247.368255 547.466485 
L 247.290179 548.580905 
L 247.213407 549.684712 
L 247.137908 550.778105 
L 247.063656 551.861279 
L 246.990622 552.934423 
L 246.91878 553.997723 
L 246.848105 555.051355 
L 246.778571 556.095496 
L 246.710154 557.130313 
L 246.642832 558.155973 
L 246.576581 559.172635 
L 246.511379 560.180457 
L 246.447204 561.179591 
L 246.384036 562.170185 
L 246.321854 563.152384 
L 246.260639 564.126329 
L 246.200371 565.092158 
L 246.141032 566.050005 
L 246.082603 567 
" clip-path="url(#p45c96a2cea)" style="fill: none; stroke-dasharray: 5.55,2.4; stroke-dashoffset: 0; stroke: #008000; stroke-opacity: 0.8; stroke-width: 1.5"/>
    <path d="M 291.176875 507.795928 
L 291.097078 509.362152 
L 291.019507 510.907492 
L 290.94409 512.432498 
L 290.870759 513.937698 
L 290.799448 515.423601 
L 290.730096 516.890693 
L 290.662642 518.339447 
L 290.597029 519.770315 
L 290.533201 521.183732 
L 290.471106 522.58012 
L 290.410692 523.959884 
L 290.351912 525.323415 
L 290.294717 526.67109 
L 290.239063 528.003275 
L 290.184907 529.320321 
L 290.132206 530.622568 
L 290.08092 531.910346 
L 290.031012 533.183971 
L 289.982442 534.443753 
L 289.935177 535.689989 
L 289.88918 536.922966 
L 289.844418 538.142965 
L 289.800859 539.350255 
L 289.758472 540.545098 
L 289.717228 541.727749 
L 289.677095 542.898454 
L 289.638048 544.057452 
L 289.600058 545.204974 
L 289.5631 546.341246 
L 289.527147 547.466485 
L 289.492177 548.580905 
L 289.458163 549.684712 
L 289.425085 550.778105 
L 289.392919 551.861279 
L 289.361644 552.934423 
L 289.331239 553.997723 
L 289.301683 555.051355 
L 289.272958 556.095496 
L 289.245044 557.130313 
L 289.217923 558.155973 
L 289.191577 559.172635 
L 289.165988 560.180457 
L 289.141139 561.179591 
L 289.117015 562.170185 
L 289.093599 563.152384 
L 289.070876 564.126329 
L 289.048831 565.092158 
L 289.027449 566.050005 
L 289.006716 567 
" clip-path="url(#p45c96a2cea)" style="fill: none; stroke-dasharray: 5.55,2.4; stroke-dashoffset: 0; stroke: #008000; stroke-opacity: 0.8; stroke-width: 1.5"/>
    <path d="M 334.840013 507.795928 
L 334.824162 509.362152 
L 334.809822 510.907492 
L 334.796939 512.432498 
L 334.785461 513.937698 
L 334.77534 515.423601 
L 334.766528 516.890693 
L 334.75898 518.339447 
L 334.752653 519.770315 
L 334.747506 521.183732 
L 334.743499 522.58012 
L 334.740595 523.959884 
L 334.738758 525.323415 
L 334.737952 526.67109 
L 334.738145 528.003275 
L 334.739304 529.320321 
L 334.741398 530.622568 
L 334.744399 531.910346 
L 334.748277 533.183971 
L 334.753006 534.443753 
L 334.758559 535.689989 
L 334.764911 536.922966 
L 334.772037 538.142965 
L 334.779915 539.350255 
L 334.788521 540.545098 
L 334.797834 541.727749 
L 334.807833 542.898454 
L 334.818498 544.057452 
L 334.82981 545.204974 
L 334.841749 546.341246 
L 334.854297 547.466485 
L 334.867438 548.580905 
L 334.881153 549.684712 
L 334.895428 550.778105 
L 334.910245 551.861279 
L 334.92559 552.934423 
L 334.941448 553.997723 
L 334.957805 555.051355 
L 334.974646 556.095496 
L 334.99196 557.130313 
L 335.009732 558.155973 
L 335.02795 559.172635 
L 335.046603 560.180457 
L 335.065677 561.179591 
L 335.085164 562.170185 
L 335.10505 563.152384 
L 335.125325 564.126329 
L 335.14598 565.092158 
L 335.167004 566.050005 
L 335.188387 567 
" clip-path="url(#p45c96a2cea)" style="fill: none; stroke-dasharray: 5.55,2.4; stroke-dashoffset: 0; stroke: #008000; stroke-opacity: 0.8; stroke-width: 1.5"/>
    <path d="M 372.43859 507.795928 
L 372.479719 509.362152 
L 372.521726 510.907492 
L 372.564573 512.432498 
L 372.608222 513.937698 
L 372.65264 515.423601 
L 372.697792 516.890693 
L 372.743646 518.339447 
L 372.790174 519.770315 
L 372.837345 521.183732 
L 372.885132 522.58012 
L 372.93351 523.959884 
L 372.982452 525.323415 
L 373.031935 526.67109 
L 373.081935 528.003275 
L 373.132432 529.320321 
L 373.183404 530.622568 
L 373.23483 531.910346 
L 373.286692 533.183971 
L 373.338971 534.443753 
L 373.39165 535.689989 
L 373.444711 536.922966 
L 373.498139 538.142965 
L 373.551917 539.350255 
L 373.606032 540.545098 
L 373.660467 541.727749 
L 373.715211 542.898454 
L 373.770249 544.057452 
L 373.825569 545.204974 
L 373.881159 546.341246 
L 373.937006 547.466485 
L 373.993101 548.580905 
L 374.049431 549.684712 
L 374.105986 550.778105 
L 374.162757 551.861279 
L 374.219733 552.934423 
L 374.276906 553.997723 
L 374.334267 555.051355 
L 374.391806 556.095496 
L 374.449516 557.130313 
L 374.507388 558.155973 
L 374.565416 559.172635 
L 374.62359 560.180457 
L 374.681905 561.179591 
L 374.740353 562.170185 
L 374.798928 563.152384 
L 374.857624 564.126329 
L 374.916433 565.092158 
L 374.97535 566.050005 
L 375.03437 567 
" clip-path="url(#p45c96a2cea)" style="fill: none; stroke-dasharray: 5.55,2.4; stroke-dashoffset: 0; stroke: #008000; stroke-opacity: 0.8; stroke-width: 1.5"/>
    <path d="M 397.541397 507.795928 
L 397.621555 509.362152 
L 397.70216 510.907492 
L 397.783184 512.432498 
L 397.8646 513.937698 
L 397.946384 515.423601 
L 398.02851 516.890693 
L 398.110956 518.339447 
L 398.193702 519.770315 
L 398.276725 521.183732 
L 398.360008 522.58012 
L 398.443531 523.959884 
L 398.527276 525.323415 
L 398.611228 526.67109 
L 398.69537 528.003275 
L 398.779687 529.320321 
L 398.864165 530.622568 
L 398.94879 531.910346 
L 399.03355 533.183971 
L 399.118431 534.443753 
L 399.203422 535.689989 
L 399.288511 536.922966 
L 399.373689 538.142965 
L 399.458944 539.350255 
L 399.544267 540.545098 
L 399.629649 541.727749 
L 399.71508 542.898454 
L 399.800553 544.057452 
L 399.886059 545.204974 
L 399.97159 546.341246 
L 400.05714 547.466485 
L 400.142701 548.580905 
L 400.228266 549.684712 
L 400.313829 550.778105 
L 400.399384 551.861279 
L 400.484924 552.934423 
L 400.570446 553.997723 
L 400.655942 555.051355 
L 400.741408 556.095496 
L 400.826839 557.130313 
L 400.912231 558.155973 
L 400.997579 559.172635 
L 401.082878 560.180457 
L 401.168125 561.179591 
L 401.253316 562.170185 
L 401.338447 563.152384 
L 401.423514 564.126329 
L 401.508515 565.092158 
L 401.593445 566.050005 
L 401.678303 567 
" clip-path="url(#p45c96a2cea)" style="fill: none; stroke-dasharray: 5.55,2.4; stroke-dashoffset: 0; stroke: #008000; stroke-opacity: 0.8; stroke-width: 1.5"/>
    <path d="M 431.985219 507.795928 
L 432.120216 509.362152 
L 432.255056 510.907492 
L 432.389728 512.432498 
L 432.524217 513.937698 
L 432.658513 515.423601 
L 432.792605 516.890693 
L 432.926481 518.339447 
L 433.060134 519.770315 
L 433.193554 521.183732 
L 433.326732 522.58012 
L 433.459663 523.959884 
L 433.592337 525.323415 
L 433.72475 526.67109 
L 433.856895 528.003275 
L 433.988766 529.320321 
L 434.120359 530.622568 
L 434.251668 531.910346 
L 434.38269 533.183971 
L 434.51342 534.443753 
L 434.643855 535.689989 
L 434.773991 536.922966 
L 434.903826 538.142965 
L 435.033356 539.350255 
L 435.162579 540.545098 
L 435.291493 541.727749 
L 435.420096 542.898454 
L 435.548385 544.057452 
L 435.67636 545.204974 
L 435.804018 546.341246 
L 435.931359 547.466485 
L 436.058381 548.580905 
L 436.185084 549.684712 
L 436.311466 550.778105 
L 436.437527 551.861279 
L 436.563267 552.934423 
L 436.688684 553.997723 
L 436.813779 555.051355 
L 436.938552 556.095496 
L 437.063002 557.130313 
L 437.187129 558.155973 
L 437.310934 559.172635 
L 437.434417 560.180457 
L 437.557577 561.179591 
L 437.680416 562.170185 
L 437.802934 563.152384 
L 437.925131 564.126329 
L 438.047007 565.092158 
L 438.168564 566.050005 
L 438.289802 567 
" clip-path="url(#p45c96a2cea)" style="fill: none; stroke-dasharray: 5.55,2.4; stroke-dashoffset: 0; stroke: #008000; stroke-opacity: 0.8; stroke-width: 1.5"/>
    <path d="M 462.909022 507.795928 
L 463.09452 509.362152 
L 463.27931 510.907492 
L 463.463392 512.432498 
L 463.646766 513.937698 
L 463.829433 515.423601 
L 464.011394 516.890693 
L 464.19265 518.339447 
L 464.373203 519.770315 
L 464.553055 521.183732 
L 464.732208 522.58012 
L 464.910665 523.959884 
L 465.088428 525.323415 
L 465.265499 526.67109 
L 465.441883 528.003275 
L 465.617583 529.320321 
L 465.792601 530.622568 
L 465.966941 531.910346 
L 466.140607 533.183971 
L 466.313603 534.443753 
L 466.485932 535.689989 
L 466.657598 536.922966 
L 466.828605 538.142965 
L 466.998958 539.350255 
L 467.168659 540.545098 
L 467.337715 541.727749 
L 467.506128 542.898454 
L 467.673902 544.057452 
L 467.841043 545.204974 
L 468.007555 546.341246 
L 468.17344 547.466485 
L 468.338705 548.580905 
L 468.503353 549.684712 
L 468.667389 550.778105 
L 468.830817 551.861279 
L 468.993641 552.934423 
L 469.155865 553.997723 
L 469.317495 555.051355 
L 469.478533 556.095496 
L 469.638986 557.130313 
L 469.798856 558.155973 
L 469.958148 559.172635 
L 470.116866 560.180457 
L 470.275015 561.179591 
L 470.432599 562.170185 
L 470.589621 563.152384 
L 470.746087 564.126329 
L 470.902 565.092158 
L 471.057365 566.050005 
L 471.212184 567 
" clip-path="url(#p45c96a2cea)" style="fill: none; stroke-dasharray: 5.55,2.4; stroke-dashoffset: 0; stroke: #008000; stroke-opacity: 0.8; stroke-width: 1.5"/>
    <path d="M 485.476521 507.795928 
L 485.699631 509.362152 
L 485.921623 510.907492 
L 486.142508 512.432498 
L 486.362295 513.937698 
L 486.580994 515.423601 
L 486.798615 516.890693 
L 487.015168 518.339447 
L 487.230663 519.770315 
L 487.445109 521.183732 
L 487.658517 522.58012 
L 487.870896 523.959884 
L 488.082256 525.323415 
L 488.292607 526.67109 
L 488.501959 528.003275 
L 488.710321 529.320321 
L 488.917703 530.622568 
L 489.124115 531.910346 
L 489.329565 533.183971 
L 489.534065 534.443753 
L 489.737621 535.689989 
L 489.940245 536.922966 
L 490.141946 538.142965 
L 490.342731 539.350255 
L 490.542611 540.545098 
L 490.741594 541.727749 
L 490.939689 542.898454 
L 491.136904 544.057452 
L 491.333249 545.204974 
L 491.528732 546.341246 
L 491.72336 547.466485 
L 491.917144 548.580905 
L 492.11009 549.684712 
L 492.302207 550.778105 
L 492.493503 551.861279 
L 492.683986 552.934423 
L 492.873664 553.997723 
L 493.062544 555.051355 
L 493.250634 556.095496 
L 493.437941 557.130313 
L 493.624474 558.155973 
L 493.810239 559.172635 
L 493.995244 560.180457 
L 494.179496 561.179591 
L 494.363002 562.170185 
L 494.545768 563.152384 
L 494.727803 564.126329 
L 494.909112 565.092158 
L 495.089702 566.050005 
L 495.269581 567 
" clip-path="url(#p45c96a2cea)" style="fill: none; stroke-dasharray: 5.55,2.4; stroke-dashoffset: 0; stroke: #008000; stroke-opacity: 0.8; stroke-width: 1.5"/>
   </g>
   <g id="line2d_56">
    <path d="M 435.456907 561.164916 
L 465.172119 528.572099 
L 460.1772 516.434475 
L 455.833952 506.9954 
L 453.743294 503.744822 
L 449.149681 497.174933 
L 444.799604 490.531163 
L 433.753226 479.828678 
L 429.366652 476.118581 
L 416.206755 457.594984 
L 412.913404 453.644057 
L 510.055026 77.76 
" clip-path="url(#p45c96a2cea)" style="fill: none; stroke: #ff0000; stroke-width: 1.5; stroke-linecap: square"/>
   </g>
   <g id="line2d_57">
    <path d="M 302.505266 561.164916 
L 178.292831 528.572099 
L 211.198667 516.434475 
L 223.525157 506.9954 
L 256.387602 503.744822 
L 257.844456 497.174933 
L 236.850083 490.531163 
L 228.867513 479.828678 
L 210.106816 476.118581 
L 88.497041 457.594984 
L 43.547409 453.644057 
L 275.925773 77.76 
" clip-path="url(#p45c96a2cea)" style="fill: none; stroke: #008000; stroke-width: 1.5; stroke-linecap: square"/>
   </g>
   <g id="line2d_58">
    <path d="M 435.456907 561.164916 
L 340.648388 528.572099 
L 307.620657 516.434475 
L 289.153449 506.9954 
L 283.043562 503.744822 
L 270.381519 497.174933 
L 257.183886 490.531163 
L 235.22887 479.828678 
L 227.460005 476.118581 
L 188.023634 457.594984 
L 179.568299 453.644057 
L -1 311.930121 
" clip-path="url(#p45c96a2cea)" style="fill: none; stroke: #000000; stroke-width: 1.5; stroke-linecap: square"/>
   </g>
   <g id="Barbs_1">
    <path d="M 583.2 561.164916 
L 604.200599 548.546483 
L 600.262987 550.912439 
L 604.099211 554.323907 
L 600.262987 550.912439 
z
" clip-path="url(#pfcb00da12f)" style="stroke: #000000"/>
    <path d="M 583.2 497.174933 
L 607.7 497.174933 
L 610.7625 506.974933 
L 607.7 497.174933 
L 604.6375 497.174933 
L 607.7 506.974933 
L 604.6375 497.174933 
L 601.575 497.174933 
L 604.6375 506.974933 
L 601.575 497.174933 
L 598.5125 497.174933 
L 601.575 506.974933 
L 598.5125 497.174933 
z
" clip-path="url(#pfcb00da12f)" style="stroke: #000000"/>
    <path d="M 583.2 453.644057 
L 607.640319 455.353091 
L 610.011746 465.342848 
L 607.640319 455.353091 
L 604.585279 455.139462 
L 606.956706 465.129219 
L 604.585279 455.139462 
L 601.530239 454.925832 
L 603.901666 464.915589 
L 601.530239 454.925832 
L 598.4752 454.712203 
L 599.660913 459.707082 
L 598.4752 454.712203 
z
" clip-path="url(#pfcb00da12f)" style="stroke: #000000"/>
   </g>
   <g id="patch_3">
    <path d="M 81 77.76 
L 583.2 77.76 
" style="fill: none; stroke: #000000; stroke-width: 0.8; stroke-linejoin: miter; stroke-linecap: square"/>
   </g>
   <g id="patch_4">
    <path d="M 81 567 
L 583.2 567 
" style="fill: none; stroke: #000000; stroke-width: 0.8; stroke-linejoin: miter; stroke-linecap: square"/>
   </g>
   <g id="patch_5">
    <path d="M 81 567 
L 81 77.76 
" style="fill: none; stroke: #000000; stroke-width: 0.8; stroke-linejoin: miter; stroke-linecap: square"/>
   </g>
   <g id="patch_6">
    <path d="M 583.2 567 
L 583.2 77.76 
" style="fill: none; stroke: #000000; stroke-width: 0.8; stroke-linejoin: miter; stroke-linecap: square"/>
   </g>
  </g>
 </g>
 <defs>
  <clipPath id="p45c96a2cea">
   <rect x="81" y="77.76" width="502.2" height="489.24"/>
  </clipPath>
  <clipPath id="pfcb00da12f">
   <rect x="532.98" y="38.6208" width="100.44" height="567.5184"/>
  </clipPath>
 </defs>
</svg>
