<?xml version="1.0" encoding="UTF-8" standalone="no"?>
<!DOCTYPE svg PUBLIC "-//W3C//DTD SVG 1.1//EN"
 "http://www.w3.org/Graphics/SVG/1.1/DTD/svg11.dtd">
<!-- Generated by graphviz version 2.43.0 (0)
 -->
<!-- Title: AnalogSensor.cpp Pages: 1 -->
<svg width="163pt" height="192pt"
 viewBox="0.00 0.00 162.50 192.00" xmlns="http://www.w3.org/2000/svg" xmlns:xlink="http://www.w3.org/1999/xlink">
<g id="graph0" class="graph" transform="scale(1 1) rotate(0) translate(4 188)">
<title>AnalogSensor.cpp</title>
<!-- Node1 -->
<g id="Node000001" class="node">
<title>Node1</title>
<g id="a_Node000001"><a xlink:title=" ">
<polygon fill="#999999" stroke="#666666" points="103,-184 0,-184 0,-165 103,-165 103,-184"/>
<text text-anchor="middle" x="51.5" y="-172" font-family="Helvetica,sans-Serif" font-size="10.00">AnalogSensor.cpp</text>
</a>
</g>
</g>
<!-- Node2 -->
<g id="Node000002" class="node">
<title>Node2</title>
<g id="a_Node000002"><a xlink:href="AnalogSensor_8h.html" target="_top" xlink:title=" ">
<polygon fill="white" stroke="#666666" points="97.5,-129 5.5,-129 5.5,-110 97.5,-110 97.5,-129"/>
<text text-anchor="middle" x="51.5" y="-117" font-family="Helvetica,sans-Serif" font-size="10.00">AnalogSensor.h</text>
</a>
</g>
</g>
<!-- Node1&#45;&gt;Node2 -->
<g id="edge1_Node000001_Node000002" class="edge">
<title>Node1&#45;&gt;Node2</title>
<g id="a_edge1_Node000001_Node000002"><a xlink:title=" ">
<path fill="none" stroke="#63b8ff" d="M51.5,-164.75C51.5,-157.8 51.5,-147.85 51.5,-139.13"/>
<polygon fill="#63b8ff" stroke="#63b8ff" points="55,-139.09 51.5,-129.09 48,-139.09 55,-139.09"/>
</a>
</g>
</g>
<!-- Node3 -->
<g id="Node000003" class="node">
<title>Node3</title>
<g id="a_Node000003"><a xlink:title=" ">
<polygon fill="#e0e0e0" stroke="#999999" points="92,-19 29,-19 29,0 92,0 92,-19"/>
<text text-anchor="middle" x="60.5" y="-7" font-family="Helvetica,sans-Serif" font-size="10.00">Arduino.h</text>
</a>
</g>
</g>
<!-- Node2&#45;&gt;Node3 -->
<g id="edge2_Node000002_Node000003" class="edge">
<title>Node2&#45;&gt;Node3</title>
<g id="a_edge2_Node000002_Node000003"><a xlink:title=" ">
<path fill="none" stroke="#63b8ff" d="M40.63,-109.8C27.15,-97.88 6.91,-75.58 15.5,-55 20.36,-43.36 29.92,-33.2 38.98,-25.55"/>
<polygon fill="#63b8ff" stroke="#63b8ff" points="41.3,-28.17 47.01,-19.25 36.98,-22.67 41.3,-28.17"/>
</a>
</g>
</g>
<!-- Node4 -->
<g id="Node000004" class="node">
<title>Node4</title>
<g id="a_Node000004"><a xlink:title=" ">
<polygon fill="#e0e0e0" stroke="#999999" points="78,-74 25,-74 25,-55 78,-55 78,-74"/>
<text text-anchor="middle" x="51.5" y="-62" font-family="Helvetica,sans-Serif" font-size="10.00">string.h</text>
</a>
</g>
</g>
<!-- Node2&#45;&gt;Node4 -->
<g id="edge3_Node000002_Node000004" class="edge">
<title>Node2&#45;&gt;Node4</title>
<g id="a_edge3_Node000002_Node000004"><a xlink:title=" ">
<path fill="none" stroke="#63b8ff" d="M51.5,-109.75C51.5,-102.8 51.5,-92.85 51.5,-84.13"/>
<polygon fill="#63b8ff" stroke="#63b8ff" points="55,-84.09 51.5,-74.09 48,-84.09 55,-84.09"/>
</a>
</g>
</g>
<!-- Node5 -->
<g id="Node000005" class="node">
<title>Node5</title>
<g id="a_Node000005"><a xlink:href="Sensor_8h.html" target="_top" xlink:title=" ">
<polygon fill="white" stroke="#666666" points="154.5,-74 96.5,-74 96.5,-55 154.5,-55 154.5,-74"/>
<text text-anchor="middle" x="125.5" y="-62" font-family="Helvetica,sans-Serif" font-size="10.00">Sensor.h</text>
</a>
</g>
</g>
<!-- Node2&#45;&gt;Node5 -->
<g id="edge4_Node000002_Node000005" class="edge">
<title>Node2&#45;&gt;Node5</title>
<g id="a_edge4_Node000002_Node000005"><a xlink:title=" ">
<path fill="none" stroke="#63b8ff" d="M63.39,-109.98C74.65,-101.92 91.79,-89.65 105.21,-80.03"/>
<polygon fill="#63b8ff" stroke="#63b8ff" points="107.3,-82.84 113.39,-74.17 103.23,-77.15 107.3,-82.84"/>
</a>
</g>
</g>
<!-- Node5&#45;&gt;Node3 -->
<g id="edge5_Node000005_Node000003" class="edge">
<title>Node5&#45;&gt;Node3</title>
<g id="a_edge5_Node000005_Node000003"><a xlink:title=" ">
<path fill="none" stroke="#63b8ff" d="M115.06,-54.98C105.35,-47.07 90.68,-35.11 79,-25.58"/>
<polygon fill="#63b8ff" stroke="#63b8ff" points="81.1,-22.78 71.13,-19.17 76.67,-28.2 81.1,-22.78"/>
</a>
</g>
</g>
</g>
</svg>
