<?xml version="1.0" encoding="UTF-8" standalone="no"?>
<!DOCTYPE svg PUBLIC "-//W3C//DTD SVG 1.1//EN"
 "http://www.w3.org/Graphics/SVG/1.1/DTD/svg11.dtd">
<!-- Generated by graphviz version 2.43.0 (0)
 -->
<!-- Title: AnalogSensor.cpp Pages: 1 -->
<svg width="163pt" height="196pt"
 viewBox="0.00 0.00 162.50 196.00" xmlns="http://www.w3.org/2000/svg" xmlns:xlink="http://www.w3.org/1999/xlink">
<g id="graph0" class="graph" transform="scale(1 1) rotate(0) translate(4 192)">
<title>AnalogSensor.cpp</title>
<!-- Node1 -->
<g id="node1" class="node">
<title>Node1</title>
<g id="a_node1"><a xlink:title=" ">
<polygon fill="#bfbfbf" stroke="black" points="0,-168.5 0,-187.5 103,-187.5 103,-168.5 0,-168.5"/>
<text text-anchor="middle" x="51.5" y="-175.5" font-family="Helvetica,sans-Serif" font-size="10.00">AnalogSensor.cpp</text>
</a>
</g>
</g>
<!-- Node2 -->
<g id="node2" class="node">
<title>Node2</title>
<g id="a_node2"><a xlink:href="AnalogSensor_8h.html" target="_top" xlink:title=" ">
<polygon fill="none" stroke="black" points="5.5,-112.5 5.5,-131.5 97.5,-131.5 97.5,-112.5 5.5,-112.5"/>
<text text-anchor="middle" x="51.5" y="-119.5" font-family="Helvetica,sans-Serif" font-size="10.00">AnalogSensor.h</text>
</a>
</g>
</g>
<!-- Node1&#45;&gt;Node2 -->
<g id="edge1" class="edge">
<title>Node1&#45;&gt;Node2</title>
<path fill="none" stroke="midnightblue" d="M51.5,-168.08C51.5,-161.01 51.5,-150.86 51.5,-141.99"/>
<polygon fill="midnightblue" stroke="midnightblue" points="55,-141.75 51.5,-131.75 48,-141.75 55,-141.75"/>
</g>
<!-- Node3 -->
<g id="node3" class="node">
<title>Node3</title>
<g id="a_node3"><a xlink:title=" ">
<polygon fill="none" stroke="#bfbfbf" points="29,-0.5 29,-19.5 92,-19.5 92,-0.5 29,-0.5"/>
<text text-anchor="middle" x="60.5" y="-7.5" font-family="Helvetica,sans-Serif" font-size="10.00">Arduino.h</text>
</a>
</g>
</g>
<!-- Node2&#45;&gt;Node3 -->
<g id="edge2" class="edge">
<title>Node2&#45;&gt;Node3</title>
<path fill="none" stroke="midnightblue" d="M41.06,-112.48C27.55,-100.35 6.71,-77.21 15.5,-56 20.42,-44.12 30.17,-33.74 39.33,-25.96"/>
<polygon fill="midnightblue" stroke="midnightblue" points="41.75,-28.51 47.44,-19.56 37.42,-23.01 41.75,-28.51"/>
</g>
<!-- Node4 -->
<g id="node4" class="node">
<title>Node4</title>
<g id="a_node4"><a xlink:title=" ">
<polygon fill="none" stroke="#bfbfbf" points="25,-56.5 25,-75.5 78,-75.5 78,-56.5 25,-56.5"/>
<text text-anchor="middle" x="51.5" y="-63.5" font-family="Helvetica,sans-Serif" font-size="10.00">string.h</text>
</a>
</g>
</g>
<!-- Node2&#45;&gt;Node4 -->
<g id="edge3" class="edge">
<title>Node2&#45;&gt;Node4</title>
<path fill="none" stroke="midnightblue" d="M51.5,-112.08C51.5,-105.01 51.5,-94.86 51.5,-85.99"/>
<polygon fill="midnightblue" stroke="midnightblue" points="55,-85.75 51.5,-75.75 48,-85.75 55,-85.75"/>
</g>
<!-- Node5 -->
<g id="node5" class="node">
<title>Node5</title>
<g id="a_node5"><a xlink:href="Sensor_8h.html" target="_top" xlink:title=" ">
<polygon fill="none" stroke="black" points="96.5,-56.5 96.5,-75.5 154.5,-75.5 154.5,-56.5 96.5,-56.5"/>
<text text-anchor="middle" x="125.5" y="-63.5" font-family="Helvetica,sans-Serif" font-size="10.00">Sensor.h</text>
</a>
</g>
</g>
<!-- Node2&#45;&gt;Node5 -->
<g id="edge4" class="edge">
<title>Node2&#45;&gt;Node5</title>
<path fill="none" stroke="midnightblue" d="M63.39,-112.32C74.65,-104.11 91.79,-91.6 105.21,-81.81"/>
<polygon fill="midnightblue" stroke="midnightblue" points="107.38,-84.56 113.39,-75.83 103.25,-78.9 107.38,-84.56"/>
</g>
<!-- Node5&#45;&gt;Node3 -->
<g id="edge5" class="edge">
<title>Node5&#45;&gt;Node3</title>
<path fill="none" stroke="midnightblue" d="M115.06,-56.32C105.35,-48.26 90.68,-36.08 79,-26.37"/>
<polygon fill="midnightblue" stroke="midnightblue" points="81.06,-23.53 71.13,-19.83 76.59,-28.92 81.06,-23.53"/>
</g>
</g>
</svg>
