<?xml version="1.0" encoding="UTF-8" standalone="no"?>
<!DOCTYPE svg PUBLIC "-//W3C//DTD SVG 1.1//EN"
 "http://www.w3.org/Graphics/SVG/1.1/DTD/svg11.dtd">
<!-- Generated by graphviz version 2.43.0 (0)
 -->
<!-- Title: ZOPT220x_Control::getUVIndex Pages: 1 -->
<svg width="595pt" height="127pt"
 viewBox="0.00 0.00 595.00 127.00" xmlns="http://www.w3.org/2000/svg" xmlns:xlink="http://www.w3.org/1999/xlink">
<g id="graph0" class="graph" transform="scale(1 1) rotate(0) translate(4 123)">
<title>ZOPT220x_Control::getUVIndex</title>
<!-- Node1 -->
<g id="node1" class="node">
<title>Node1</title>
<g id="a_node1"><a xlink:title=" ">
<polygon fill="#bfbfbf" stroke="black" points="0,-50 0,-69 170,-69 170,-50 0,-50"/>
<text text-anchor="middle" x="85" y="-57" font-family="Helvetica,sans-Serif" font-size="10.00">ZOPT220x_Control::getUVIndex</text>
</a>
</g>
</g>
<!-- Node2 -->
<g id="node2" class="node">
<title>Node2</title>
<g id="a_node2"><a xlink:href="classZOPT220x__Control.html#af74c3620eaaa1ba7413ebd8417eee271" target="_top" xlink:title=" ">
<polygon fill="none" stroke="black" points="206,-94 206,-113 386,-113 386,-94 206,-94"/>
<text text-anchor="middle" x="296" y="-101" font-family="Helvetica,sans-Serif" font-size="10.00">ZOPT220x_Control::dataAvailable</text>
</a>
</g>
</g>
<!-- Node1&#45;&gt;Node2 -->
<g id="edge1" class="edge">
<title>Node1&#45;&gt;Node2</title>
<path fill="none" stroke="midnightblue" d="M131.35,-69.05C163.12,-75.74 205.77,-84.71 239.56,-91.83"/>
<polygon fill="midnightblue" stroke="midnightblue" points="239.23,-95.34 249.74,-93.97 240.67,-88.49 239.23,-95.34"/>
</g>
<!-- Node4 -->
<g id="node4" class="node">
<title>Node4</title>
<g id="a_node4"><a xlink:href="classZOPT220x__Control.html#ac9b447f5665bc72e2cb357cc6700130e" target="_top" xlink:title=" ">
<polygon fill="none" stroke="black" points="210,-44.5 210,-74.5 382,-74.5 382,-44.5 210,-44.5"/>
<text text-anchor="start" x="218" y="-62.5" font-family="Helvetica,sans-Serif" font-size="10.00">ZOPT220x_Control::getAdjusted</text>
<text text-anchor="middle" x="296" y="-51.5" font-family="Helvetica,sans-Serif" font-size="10.00">UVIndex</text>
</a>
</g>
</g>
<!-- Node1&#45;&gt;Node4 -->
<g id="edge3" class="edge">
<title>Node1&#45;&gt;Node4</title>
<path fill="none" stroke="midnightblue" d="M170.1,-59.5C179.79,-59.5 189.71,-59.5 199.53,-59.5"/>
<polygon fill="midnightblue" stroke="midnightblue" points="199.71,-63 209.7,-59.5 199.7,-56 199.71,-63"/>
</g>
<!-- Node5 -->
<g id="node5" class="node">
<title>Node5</title>
<g id="a_node5"><a xlink:href="classZOPT220x__Control.html#a9d0197ab4de4731ecd692e39ee9c5e64" target="_top" xlink:title=" ">
<polygon fill="none" stroke="black" points="221,-6 221,-25 371,-25 371,-6 221,-6"/>
<text text-anchor="middle" x="296" y="-13" font-family="Helvetica,sans-Serif" font-size="10.00">ZOPT220x_Control::getUVB</text>
</a>
</g>
</g>
<!-- Node1&#45;&gt;Node5 -->
<g id="edge4" class="edge">
<title>Node1&#45;&gt;Node5</title>
<path fill="none" stroke="midnightblue" d="M131.35,-49.95C163.12,-43.26 205.77,-34.29 239.56,-27.17"/>
<polygon fill="midnightblue" stroke="midnightblue" points="240.67,-30.51 249.74,-25.03 239.23,-23.66 240.67,-30.51"/>
</g>
<!-- Node3 -->
<g id="node3" class="node">
<title>Node3</title>
<g id="a_node3"><a xlink:href="classZOPT220x__Control.html#a58c74577acc1183a66b1f9b9281551a3" target="_top" xlink:title=" ">
<polygon fill="none" stroke="black" points="425,-88.5 425,-118.5 584,-118.5 584,-88.5 425,-88.5"/>
<text text-anchor="start" x="433" y="-106.5" font-family="Helvetica,sans-Serif" font-size="10.00">ZOPT220x_Control::zoptRead</text>
<text text-anchor="middle" x="504.5" y="-95.5" font-family="Helvetica,sans-Serif" font-size="10.00">Register</text>
</a>
</g>
</g>
<!-- Node2&#45;&gt;Node3 -->
<g id="edge2" class="edge">
<title>Node2&#45;&gt;Node3</title>
<path fill="none" stroke="midnightblue" d="M386.07,-103.5C395.53,-103.5 405.15,-103.5 414.61,-103.5"/>
<polygon fill="midnightblue" stroke="midnightblue" points="414.79,-107 424.79,-103.5 414.79,-100 414.79,-107"/>
</g>
<!-- Node6 -->
<g id="node6" class="node">
<title>Node6</title>
<g id="a_node6"><a xlink:href="classZOPT220x__Control.html#a76e8b5e30cc7b3a0f9e0dace481e8030" target="_top" xlink:title=" ">
<polygon fill="none" stroke="black" points="422,-0.5 422,-30.5 587,-30.5 587,-0.5 422,-0.5"/>
<text text-anchor="start" x="430" y="-18.5" font-family="Helvetica,sans-Serif" font-size="10.00">ZOPT220x_Control::zoptRead3</text>
<text text-anchor="middle" x="504.5" y="-7.5" font-family="Helvetica,sans-Serif" font-size="10.00">Registers</text>
</a>
</g>
</g>
<!-- Node5&#45;&gt;Node6 -->
<g id="edge5" class="edge">
<title>Node5&#45;&gt;Node6</title>
<path fill="none" stroke="midnightblue" d="M371.26,-15.5C384.34,-15.5 398.1,-15.5 411.6,-15.5"/>
<polygon fill="midnightblue" stroke="midnightblue" points="411.86,-19 421.86,-15.5 411.86,-12 411.86,-19"/>
</g>
</g>
</svg>
