<?xml version="1.0" encoding="UTF-8" standalone="no"?>
<!DOCTYPE svg PUBLIC "-//W3C//DTD SVG 1.1//EN"
 "http://www.w3.org/Graphics/SVG/1.1/DTD/svg11.dtd">
<!-- Generated by graphviz version 2.43.0 (0)
 -->
<!-- Title: ZOPT220x_Control::getUVIndex Pages: 1 -->
<svg width="595pt" height="124pt"
 viewBox="0.00 0.00 595.00 124.00" xmlns="http://www.w3.org/2000/svg" xmlns:xlink="http://www.w3.org/1999/xlink">
<g id="graph0" class="graph" transform="scale(1 1) rotate(0) translate(4 120)">
<title>ZOPT220x_Control::getUVIndex</title>
<!-- Node1 -->
<g id="Node000001" class="node">
<title>Node1</title>
<g id="a_Node000001"><a xlink:title=" ">
<polygon fill="#999999" stroke="#666666" points="170,-67.5 0,-67.5 0,-48.5 170,-48.5 170,-67.5"/>
<text text-anchor="middle" x="85" y="-55.5" font-family="Helvetica,sans-Serif" font-size="10.00">ZOPT220x_Control::getUVIndex</text>
</a>
</g>
</g>
<!-- Node2 -->
<g id="Node000002" class="node">
<title>Node2</title>
<g id="a_Node000002"><a xlink:href="classZOPT220x__Control.html#af74c3620eaaa1ba7413ebd8417eee271" target="_top" xlink:title=" ">
<polygon fill="white" stroke="#666666" points="386,-110.5 206,-110.5 206,-91.5 386,-91.5 386,-110.5"/>
<text text-anchor="middle" x="296" y="-98.5" font-family="Helvetica,sans-Serif" font-size="10.00">ZOPT220x_Control::dataAvailable</text>
</a>
</g>
</g>
<!-- Node1&#45;&gt;Node2 -->
<g id="edge1_Node000001_Node000002" class="edge">
<title>Node1&#45;&gt;Node2</title>
<g id="a_edge1_Node000001_Node000002"><a xlink:title=" ">
<path fill="none" stroke="#63b8ff" d="M132.38,-67.54C163.77,-74 205.42,-82.57 238.7,-89.42"/>
<polygon fill="#63b8ff" stroke="#63b8ff" points="238.25,-92.9 248.75,-91.48 239.66,-86.04 238.25,-92.9"/>
</a>
</g>
</g>
<!-- Node4 -->
<g id="Node000004" class="node">
<title>Node4</title>
<g id="a_Node000004"><a xlink:href="classZOPT220x__Control.html#ac9b447f5665bc72e2cb357cc6700130e" target="_top" xlink:title=" ">
<polygon fill="white" stroke="#666666" points="382,-73 210,-73 210,-43 382,-43 382,-73"/>
<text text-anchor="start" x="218" y="-61" font-family="Helvetica,sans-Serif" font-size="10.00">ZOPT220x_Control::getAdjusted</text>
<text text-anchor="middle" x="296" y="-50" font-family="Helvetica,sans-Serif" font-size="10.00">UVIndex</text>
</a>
</g>
</g>
<!-- Node1&#45;&gt;Node4 -->
<g id="edge3_Node000001_Node000004" class="edge">
<title>Node1&#45;&gt;Node4</title>
<g id="a_edge3_Node000001_Node000004"><a xlink:title=" ">
<path fill="none" stroke="#63b8ff" d="M170.1,-58C179.79,-58 189.71,-58 199.53,-58"/>
<polygon fill="#63b8ff" stroke="#63b8ff" points="199.71,-61.5 209.7,-58 199.7,-54.5 199.71,-61.5"/>
</a>
</g>
</g>
<!-- Node5 -->
<g id="Node000005" class="node">
<title>Node5</title>
<g id="a_Node000005"><a xlink:href="classZOPT220x__Control.html#a9d0197ab4de4731ecd692e39ee9c5e64" target="_top" xlink:title=" ">
<polygon fill="white" stroke="#666666" points="371,-24.5 221,-24.5 221,-5.5 371,-5.5 371,-24.5"/>
<text text-anchor="middle" x="296" y="-12.5" font-family="Helvetica,sans-Serif" font-size="10.00">ZOPT220x_Control::getUVB</text>
</a>
</g>
</g>
<!-- Node1&#45;&gt;Node5 -->
<g id="edge4_Node000001_Node000005" class="edge">
<title>Node1&#45;&gt;Node5</title>
<g id="a_edge4_Node000001_Node000005"><a xlink:title=" ">
<path fill="none" stroke="#63b8ff" d="M132.38,-48.46C163.77,-42 205.42,-33.43 238.7,-26.58"/>
<polygon fill="#63b8ff" stroke="#63b8ff" points="239.66,-29.96 248.75,-24.52 238.25,-23.1 239.66,-29.96"/>
</a>
</g>
</g>
<!-- Node3 -->
<g id="Node000003" class="node">
<title>Node3</title>
<g id="a_Node000003"><a xlink:href="classZOPT220x__Control.html#a58c74577acc1183a66b1f9b9281551a3" target="_top" xlink:title=" ">
<polygon fill="white" stroke="#666666" points="584,-116 425,-116 425,-86 584,-86 584,-116"/>
<text text-anchor="start" x="433" y="-104" font-family="Helvetica,sans-Serif" font-size="10.00">ZOPT220x_Control::zoptRead</text>
<text text-anchor="middle" x="504.5" y="-93" font-family="Helvetica,sans-Serif" font-size="10.00">Register</text>
</a>
</g>
</g>
<!-- Node2&#45;&gt;Node3 -->
<g id="edge2_Node000002_Node000003" class="edge">
<title>Node2&#45;&gt;Node3</title>
<g id="a_edge2_Node000002_Node000003"><a xlink:title=" ">
<path fill="none" stroke="#63b8ff" d="M386.07,-101C395.53,-101 405.15,-101 414.61,-101"/>
<polygon fill="#63b8ff" stroke="#63b8ff" points="414.79,-104.5 424.79,-101 414.79,-97.5 414.79,-104.5"/>
</a>
</g>
</g>
<!-- Node6 -->
<g id="Node000006" class="node">
<title>Node6</title>
<g id="a_Node000006"><a xlink:href="classZOPT220x__Control.html#a76e8b5e30cc7b3a0f9e0dace481e8030" target="_top" xlink:title=" ">
<polygon fill="white" stroke="#666666" points="587,-30 422,-30 422,0 587,0 587,-30"/>
<text text-anchor="start" x="430" y="-18" font-family="Helvetica,sans-Serif" font-size="10.00">ZOPT220x_Control::zoptRead3</text>
<text text-anchor="middle" x="504.5" y="-7" font-family="Helvetica,sans-Serif" font-size="10.00">Registers</text>
</a>
</g>
</g>
<!-- Node5&#45;&gt;Node6 -->
<g id="edge5_Node000005_Node000006" class="edge">
<title>Node5&#45;&gt;Node6</title>
<g id="a_edge5_Node000005_Node000006"><a xlink:title=" ">
<path fill="none" stroke="#63b8ff" d="M371.26,-15C384.34,-15 398.1,-15 411.6,-15"/>
<polygon fill="#63b8ff" stroke="#63b8ff" points="411.86,-18.5 421.86,-15 411.86,-11.5 411.86,-18.5"/>
</a>
</g>
</g>
</g>
</svg>
