<?xml version="1.0" encoding="UTF-8" standalone="no"?>
<!DOCTYPE svg PUBLIC "-//W3C//DTD SVG 1.1//EN"
 "http://www.w3.org/Graphics/SVG/1.1/DTD/svg11.dtd">
<!-- Generated by graphviz version 2.43.0 (0)
 -->
<!-- Title: ZOPT220x_Control::zoptRead3Registers Pages: 1 -->
<svg width="746pt" height="66pt"
 viewBox="0.00 0.00 746.00 66.00" xmlns="http://www.w3.org/2000/svg" xmlns:xlink="http://www.w3.org/1999/xlink">
<g id="graph0" class="graph" transform="scale(1 1) rotate(0) translate(4 62)">
<title>ZOPT220x_Control::zoptRead3Registers</title>
<!-- Node1 -->
<g id="node1" class="node">
<title>Node1</title>
<g id="a_node1"><a xlink:title=" ">
<polygon fill="#bfbfbf" stroke="black" points="573,-14 573,-44 738,-44 738,-14 573,-14"/>
<text text-anchor="start" x="581" y="-32" font-family="Helvetica,sans-Serif" font-size="10.00">ZOPT220x_Control::zoptRead3</text>
<text text-anchor="middle" x="655.5" y="-21" font-family="Helvetica,sans-Serif" font-size="10.00">Registers</text>
</a>
</g>
</g>
<!-- Node2 -->
<g id="node2" class="node">
<title>Node2</title>
<g id="a_node2"><a xlink:href="classZOPT220x__Control.html#a28cf4beaf6bcebce91c1418790e9d843" target="_top" xlink:title=" ">
<polygon fill="none" stroke="black" points="192.5,-38.5 192.5,-57.5 339.5,-57.5 339.5,-38.5 192.5,-38.5"/>
<text text-anchor="middle" x="266" y="-45.5" font-family="Helvetica,sans-Serif" font-size="10.00">ZOPT220x_Control::getALS</text>
</a>
</g>
</g>
<!-- Node1&#45;&gt;Node2 -->
<g id="edge1" class="edge">
<title>Node1&#45;&gt;Node2</title>
<path fill="none" stroke="midnightblue" d="M562.5,-33.51C494.37,-36.85 402.83,-41.34 339.77,-44.43"/>
<polygon fill="midnightblue" stroke="midnightblue" points="562.98,-36.99 572.79,-33.01 562.64,-30 562.98,-36.99"/>
</g>
<!-- Node4 -->
<g id="node4" class="node">
<title>Node4</title>
<g id="a_node4"><a xlink:href="classZOPT220x__Control.html#a9d0197ab4de4731ecd692e39ee9c5e64" target="_top" xlink:title=" ">
<polygon fill="none" stroke="black" points="387,-0.5 387,-19.5 537,-19.5 537,-0.5 387,-0.5"/>
<text text-anchor="middle" x="462" y="-7.5" font-family="Helvetica,sans-Serif" font-size="10.00">ZOPT220x_Control::getUVB</text>
</a>
</g>
</g>
<!-- Node1&#45;&gt;Node4 -->
<g id="edge3" class="edge">
<title>Node1&#45;&gt;Node4</title>
<path fill="none" stroke="midnightblue" d="M562.73,-19.89C554.18,-19.05 545.59,-18.19 537.22,-17.36"/>
<polygon fill="midnightblue" stroke="midnightblue" points="562.43,-23.38 572.73,-20.89 563.13,-16.42 562.43,-23.38"/>
</g>
<!-- Node3 -->
<g id="node3" class="node">
<title>Node3</title>
<g id="a_node3"><a xlink:href="classZOPT220Sensor.html#a6aeb56062c5ff976d199ae407df9ed6c" target="_top" xlink:title="Reads data from the ZOPT220x sensor and returns it in CSV format.">
<polygon fill="none" stroke="black" points="0,-19.5 0,-38.5 145,-38.5 145,-19.5 0,-19.5"/>
<text text-anchor="middle" x="72.5" y="-26.5" font-family="Helvetica,sans-Serif" font-size="10.00">ZOPT220Sensor::readData</text>
</a>
</g>
</g>
<!-- Node2&#45;&gt;Node3 -->
<g id="edge2" class="edge">
<title>Node2&#45;&gt;Node3</title>
<path fill="none" stroke="midnightblue" d="M182.09,-39.77C169.79,-38.55 157.21,-37.31 145.17,-36.11"/>
<polygon fill="midnightblue" stroke="midnightblue" points="182.03,-43.29 192.33,-40.79 182.72,-36.32 182.03,-43.29"/>
</g>
<!-- Node5 -->
<g id="node5" class="node">
<title>Node5</title>
<g id="a_node5"><a xlink:href="classZOPT220x__Control.html#a1233f73c507efe1393d84b9d88b4a023" target="_top" xlink:title=" ">
<polygon fill="none" stroke="black" points="181,-0.5 181,-19.5 351,-19.5 351,-0.5 181,-0.5"/>
<text text-anchor="middle" x="266" y="-7.5" font-family="Helvetica,sans-Serif" font-size="10.00">ZOPT220x_Control::getUVIndex</text>
</a>
</g>
</g>
<!-- Node4&#45;&gt;Node5 -->
<g id="edge4" class="edge">
<title>Node4&#45;&gt;Node5</title>
<path fill="none" stroke="midnightblue" d="M376.62,-10C368.18,-10 359.61,-10 351.18,-10"/>
<polygon fill="midnightblue" stroke="midnightblue" points="376.83,-13.5 386.83,-10 376.83,-6.5 376.83,-13.5"/>
</g>
<!-- Node5&#45;&gt;Node3 -->
<g id="edge5" class="edge">
<title>Node5&#45;&gt;Node3</title>
<path fill="none" stroke="midnightblue" d="M170.7,-19.36C162.13,-20.21 153.55,-21.06 145.23,-21.88"/>
<polygon fill="midnightblue" stroke="midnightblue" points="171.12,-22.83 180.73,-18.36 170.43,-15.87 171.12,-22.83"/>
</g>
</g>
</svg>
