<?xml version="1.0" encoding="UTF-8" standalone="no"?>
<!DOCTYPE svg PUBLIC "-//W3C//DTD SVG 1.1//EN"
 "http://www.w3.org/Graphics/SVG/1.1/DTD/svg11.dtd">
<!-- Generated by graphviz version 2.43.0 (0)
 -->
<!-- Title: ZOPT220x_Control::zopt220xSetupWithAddress Pages: 1 -->
<svg width="617pt" height="188pt"
 viewBox="0.00 0.00 617.00 187.50" xmlns="http://www.w3.org/2000/svg" xmlns:xlink="http://www.w3.org/1999/xlink">
<g id="graph0" class="graph" transform="scale(1 1) rotate(0) translate(4 183.5)">
<title>ZOPT220x_Control::zopt220xSetupWithAddress</title>
<!-- Node1 -->
<g id="Node000001" class="node">
<title>Node1</title>
<g id="a_Node000001"><a xlink:title=" ">
<polygon fill="#999999" stroke="#666666" points="158,-98.5 0,-98.5 0,-68.5 158,-68.5 158,-98.5"/>
<text text-anchor="start" x="8" y="-86.5" font-family="Helvetica,sans-Serif" font-size="10.00">ZOPT220x_Control::zopt220x</text>
<text text-anchor="middle" x="79" y="-75.5" font-family="Helvetica,sans-Serif" font-size="10.00">SetupWithAddress</text>
</a>
</g>
</g>
<!-- Node2 -->
<g id="Node000002" class="node">
<title>Node2</title>
<g id="a_Node000002"><a xlink:href="classZOPT220x__Control.html#a8eb237d4b6eb8513893d99d3163fc094" target="_top" xlink:title=" ">
<polygon fill="white" stroke="#666666" points="389,-179.5 217,-179.5 217,-149.5 389,-149.5 389,-179.5"/>
<text text-anchor="start" x="225" y="-167.5" font-family="Helvetica,sans-Serif" font-size="10.00">ZOPT220x_Control::checkPower</text>
<text text-anchor="middle" x="303" y="-156.5" font-family="Helvetica,sans-Serif" font-size="10.00">OnStatus</text>
</a>
</g>
</g>
<!-- Node1&#45;&gt;Node2 -->
<g id="edge1_Node000001_Node000002" class="edge">
<title>Node1&#45;&gt;Node2</title>
<g id="a_edge1_Node000001_Node000002"><a xlink:title=" ">
<path fill="none" stroke="#63b8ff" d="M109.44,-98.56C132.14,-109.77 164.52,-124.9 194,-135.5 205.2,-139.53 217.24,-143.29 229.06,-146.68"/>
<polygon fill="#63b8ff" stroke="#63b8ff" points="228.35,-150.12 238.92,-149.44 230.24,-143.38 228.35,-150.12"/>
</a>
</g>
</g>
<!-- Node3 -->
<g id="Node000003" class="node">
<title>Node3</title>
<g id="a_Node000003"><a xlink:href="classZOPT220x__Control.html#a58c74577acc1183a66b1f9b9281551a3" target="_top" xlink:title=" ">
<polygon fill="white" stroke="#666666" points="608,-103.5 449,-103.5 449,-73.5 608,-73.5 608,-103.5"/>
<text text-anchor="start" x="457" y="-91.5" font-family="Helvetica,sans-Serif" font-size="10.00">ZOPT220x_Control::zoptRead</text>
<text text-anchor="middle" x="528.5" y="-80.5" font-family="Helvetica,sans-Serif" font-size="10.00">Register</text>
</a>
</g>
</g>
<!-- Node1&#45;&gt;Node3 -->
<g id="edge12_Node000001_Node000003" class="edge">
<title>Node1&#45;&gt;Node3</title>
<g id="a_edge12_Node000001_Node000003"><a xlink:title=" ">
<path fill="none" stroke="#63b8ff" d="M158.28,-98.29C170.21,-100.04 182.4,-101.54 194,-102.5 290.56,-110.49 315.29,-108.34 412,-102.5 420.64,-101.98 429.63,-101.24 438.6,-100.37"/>
<polygon fill="#63b8ff" stroke="#63b8ff" points="439.12,-103.83 448.71,-99.34 438.41,-96.87 439.12,-103.83"/>
</a>
</g>
</g>
<!-- Node4 -->
<g id="Node000004" class="node">
<title>Node4</title>
<g id="a_Node000004"><a xlink:href="classZOPT220x__Control.html#afa9fab0ef429c9e7a46afd752a2ee44d" target="_top" xlink:title=" ">
<polygon fill="white" stroke="#666666" points="378.5,-93 227.5,-93 227.5,-74 378.5,-74 378.5,-93"/>
<text text-anchor="middle" x="303" y="-81" font-family="Helvetica,sans-Serif" font-size="10.00">ZOPT220x_Control::setGain</text>
</a>
</g>
</g>
<!-- Node1&#45;&gt;Node4 -->
<g id="edge3_Node000001_Node000004" class="edge">
<title>Node1&#45;&gt;Node4</title>
<g id="a_edge3_Node000001_Node000004"><a xlink:title=" ">
<path fill="none" stroke="#63b8ff" d="M158.27,-83.5C177.4,-83.5 197.96,-83.5 217.38,-83.5"/>
<polygon fill="#63b8ff" stroke="#63b8ff" points="217.42,-87 227.42,-83.5 217.42,-80 217.42,-87"/>
</a>
</g>
</g>
<!-- Node6 -->
<g id="Node000006" class="node">
<title>Node6</title>
<g id="a_Node000006"><a xlink:href="classZOPT220x__Control.html#a809d1f5db2a9f0884fa82e0b77b944bf" target="_top" xlink:title=" ">
<polygon fill="white" stroke="#666666" points="412,-56 194,-56 194,-37 412,-37 412,-56"/>
<text text-anchor="middle" x="303" y="-44" font-family="Helvetica,sans-Serif" font-size="10.00">ZOPT220x_Control::setMeasurementRate</text>
</a>
</g>
</g>
<!-- Node1&#45;&gt;Node6 -->
<g id="edge6_Node000001_Node000006" class="edge">
<title>Node1&#45;&gt;Node6</title>
<g id="a_edge6_Node000001_Node000006"><a xlink:title=" ">
<path fill="none" stroke="#63b8ff" d="M158.27,-70.46C183.17,-66.3 210.49,-61.75 234.56,-57.74"/>
<polygon fill="#63b8ff" stroke="#63b8ff" points="235.37,-61.15 244.66,-56.06 234.22,-54.25 235.37,-61.15"/>
</a>
</g>
</g>
<!-- Node7 -->
<g id="Node000007" class="node">
<title>Node7</title>
<g id="a_Node000007"><a xlink:href="classZOPT220x__Control.html#aa8d79db36ab65e003f87a493f720233d" target="_top" xlink:title=" ">
<polygon fill="white" stroke="#666666" points="393,-19 213,-19 213,0 393,0 393,-19"/>
<text text-anchor="middle" x="303" y="-7" font-family="Helvetica,sans-Serif" font-size="10.00">ZOPT220x_Control::setResolution</text>
</a>
</g>
</g>
<!-- Node1&#45;&gt;Node7 -->
<g id="edge9_Node000001_Node000007" class="edge">
<title>Node1&#45;&gt;Node7</title>
<g id="a_edge9_Node000001_Node000007"><a xlink:title=" ">
<path fill="none" stroke="#63b8ff" d="M105.36,-68.36C127.88,-55.57 162.09,-37.75 194,-27.5 201.53,-25.08 209.46,-22.97 217.46,-21.14"/>
<polygon fill="#63b8ff" stroke="#63b8ff" points="218.21,-24.56 227.25,-19.04 216.73,-17.72 218.21,-24.56"/>
</a>
</g>
</g>
<!-- Node2&#45;&gt;Node3 -->
<g id="edge2_Node000002_Node000003" class="edge">
<title>Node2&#45;&gt;Node3</title>
<g id="a_edge2_Node000002_Node000003"><a xlink:title=" ">
<path fill="none" stroke="#63b8ff" d="M365.23,-149.48C380.61,-145.31 397,-140.54 412,-135.5 436.2,-127.36 462.62,-116.75 484.07,-107.66"/>
<polygon fill="#63b8ff" stroke="#63b8ff" points="485.73,-110.76 493.55,-103.61 482.98,-104.32 485.73,-110.76"/>
</a>
</g>
</g>
<!-- Node4&#45;&gt;Node3 -->
<g id="edge4_Node000004_Node000003" class="edge">
<title>Node4&#45;&gt;Node3</title>
<g id="a_edge4_Node000004_Node000003"><a xlink:title=" ">
<path fill="none" stroke="#63b8ff" d="M378.73,-85.17C397.86,-85.6 418.62,-86.06 438.39,-86.51"/>
<polygon fill="#63b8ff" stroke="#63b8ff" points="438.55,-90.01 448.63,-86.74 438.71,-83.01 438.55,-90.01"/>
</a>
</g>
</g>
<!-- Node5 -->
<g id="Node000005" class="node">
<title>Node5</title>
<g id="a_Node000005"><a xlink:href="classZOPT220x__Control.html#ab5f43fd630eaaadeea212559e12648be" target="_top" xlink:title=" ">
<polygon fill="white" stroke="#666666" points="609,-55.5 448,-55.5 448,-25.5 609,-25.5 609,-55.5"/>
<text text-anchor="start" x="456" y="-43.5" font-family="Helvetica,sans-Serif" font-size="10.00">ZOPT220x_Control::zoptWrite</text>
<text text-anchor="middle" x="528.5" y="-32.5" font-family="Helvetica,sans-Serif" font-size="10.00">Register</text>
</a>
</g>
</g>
<!-- Node4&#45;&gt;Node5 -->
<g id="edge5_Node000004_Node000005" class="edge">
<title>Node4&#45;&gt;Node5</title>
<g id="a_edge5_Node000004_Node000005"><a xlink:title=" ">
<path fill="none" stroke="#63b8ff" d="M364.36,-73.97C379.91,-71.37 396.6,-68.45 412,-65.5 424.61,-63.09 437.95,-60.36 450.91,-57.62"/>
<polygon fill="#63b8ff" stroke="#63b8ff" points="451.68,-61.03 460.73,-55.52 450.22,-54.19 451.68,-61.03"/>
</a>
</g>
</g>
<!-- Node6&#45;&gt;Node3 -->
<g id="edge7_Node000006_Node000003" class="edge">
<title>Node6&#45;&gt;Node3</title>
<g id="a_edge7_Node000006_Node000003"><a xlink:title=" ">
<path fill="none" stroke="#63b8ff" d="M359.54,-56.03C376.4,-58.98 394.97,-62.31 412,-65.5 422.13,-67.4 432.74,-69.44 443.26,-71.5"/>
<polygon fill="#63b8ff" stroke="#63b8ff" points="442.81,-74.98 453.3,-73.47 444.16,-68.11 442.81,-74.98"/>
</a>
</g>
</g>
<!-- Node6&#45;&gt;Node5 -->
<g id="edge8_Node000006_Node000005" class="edge">
<title>Node6&#45;&gt;Node5</title>
<g id="a_edge8_Node000006_Node000005"><a xlink:title=" ">
<path fill="none" stroke="#63b8ff" d="M412.15,-43.6C420.7,-43.37 429.29,-43.14 437.7,-42.91"/>
<polygon fill="#63b8ff" stroke="#63b8ff" points="437.96,-46.41 447.86,-42.64 437.77,-39.41 437.96,-46.41"/>
</a>
</g>
</g>
<!-- Node7&#45;&gt;Node3 -->
<g id="edge10_Node000007_Node000003" class="edge">
<title>Node7&#45;&gt;Node3</title>
<g id="a_edge10_Node000007_Node000003"><a xlink:title=" ">
<path fill="none" stroke="#63b8ff" d="M391.37,-19.05C398.54,-21.33 405.52,-24.11 412,-27.5 432.33,-38.14 428.39,-52.58 448,-64.5 450.83,-66.22 453.8,-67.83 456.85,-69.33"/>
<polygon fill="#63b8ff" stroke="#63b8ff" points="455.66,-72.63 466.22,-73.5 458.51,-66.23 455.66,-72.63"/>
</a>
</g>
</g>
<!-- Node7&#45;&gt;Node5 -->
<g id="edge11_Node000007_Node000005" class="edge">
<title>Node7&#45;&gt;Node5</title>
<g id="a_edge11_Node000007_Node000005"><a xlink:title=" ">
<path fill="none" stroke="#63b8ff" d="M372.58,-19.01C393.07,-21.85 415.85,-25.01 437.5,-28.02"/>
<polygon fill="#63b8ff" stroke="#63b8ff" points="437.3,-31.52 447.69,-29.43 438.26,-24.59 437.3,-31.52"/>
</a>
</g>
</g>
</g>
</svg>
