<?xml version="1.0" encoding="UTF-8" standalone="no"?>
<!DOCTYPE svg PUBLIC "-//W3C//DTD SVG 1.1//EN"
 "http://www.w3.org/Graphics/SVG/1.1/DTD/svg11.dtd">
<!-- Generated by graphviz version 2.43.0 (0)
 -->
<!-- Title: SDStorage Pages: 1 -->
<svg width="305pt" height="324pt"
 viewBox="0.00 0.00 305.15 324.00" xmlns="http://www.w3.org/2000/svg" xmlns:xlink="http://www.w3.org/1999/xlink">

<svg id="main" version="1.1" xmlns="http://www.w3.org/2000/svg" xmlns:xlink="http://www.w3.org/1999/xlink" xml:space="preserve" onload="init(evt)">
<style type="text/css"><![CDATA[
.node, .edge {opacity: 0.7;}
.node.selected, .edge.selected {opacity: 1;}
.edge:hover path { stroke: red; }
.edge:hover polygon { stroke: red; fill: red; }
]]></style>
<script type="application/ecmascript" xlink:href="svg.min.js"/>
<svg id="graph" class="graph">
<g id="graph0" class="graph" transform="scale(1 1) rotate(0) translate(4 320)">
<title>SDStorage</title>
<!-- Node1 -->
<g id="Node000001" class="node">
<title>Node1</title>
<g id="a_Node000001"><a xlink:title="Implementation of a Storage device to interface with an SD card.">
<polygon fill="#999999" stroke="transparent" points="173.65,-79 93.65,-79 93.65,0 173.65,0 173.65,-79"/>
<text text-anchor="start" x="107.65" y="-66.5" font-family="Helvetica,sans-Serif" font-size="10.00">SDStorage</text>
<text text-anchor="start" x="131.65" y="-51.5" font-family="Helvetica,sans-Serif" font-size="10.00"> </text>
<text text-anchor="start" x="97.65" y="-36.5" font-family="Helvetica,sans-Serif" font-size="10.00">+</text>
<text text-anchor="start" x="110.65" y="-36.5" font-family="Helvetica,sans-Serif" font-size="10.00">SDStorage()</text>
<text text-anchor="start" x="97.65" y="-21.5" font-family="Helvetica,sans-Serif" font-size="10.00">+</text>
<text text-anchor="start" x="110.65" y="-21.5" font-family="Helvetica,sans-Serif" font-size="10.00">verify()</text>
<text text-anchor="start" x="97.65" y="-6.5" font-family="Helvetica,sans-Serif" font-size="10.00">+</text>
<text text-anchor="start" x="110.65" y="-6.5" font-family="Helvetica,sans-Serif" font-size="10.00">store()</text>
<polygon fill="#666666" stroke="#666666" points="93.65,-61.5 93.65,-61.5 173.65,-61.5 173.65,-61.5 93.65,-61.5"/>
<polygon fill="#666666" stroke="#666666" points="93.65,-46.5 93.65,-46.5 173.65,-46.5 173.65,-46.5 93.65,-46.5"/>
<polygon fill="none" stroke="#666666" points="93.65,0 93.65,-79 173.65,-79 173.65,0 93.65,0"/>
</a>
</g>
</g>
<!-- Node2 -->
<g id="Node000002" class="node">
<title>Node2</title>
<g id="a_Node000002"><a xlink:href="classStorage.html" target="_top" xlink:title="Parent class for all data storage devices (sd card, radio, etc)">
<polygon fill="white" stroke="transparent" points="189.65,-220 77.65,-220 77.65,-126 189.65,-126 189.65,-220"/>
<text text-anchor="start" x="114.65" y="-208" font-family="Helvetica,sans-Serif" font-size="10.00">Storage</text>
<text text-anchor="start" x="131.65" y="-193" font-family="Helvetica,sans-Serif" font-size="10.00"> </text>
<text text-anchor="start" x="81.65" y="-178" font-family="Helvetica,sans-Serif" font-size="10.00">+</text>
<text text-anchor="start" x="94.65" y="-178" font-family="Helvetica,sans-Serif" font-size="10.00">Storage()</text>
<text text-anchor="start" x="81.65" y="-163" font-family="Helvetica,sans-Serif" font-size="10.00">+</text>
<text text-anchor="start" x="94.65" y="-163" font-family="Helvetica,sans-Serif" font-size="10.00">getStorageName()</text>
<text text-anchor="start" x="81.65" y="-148" font-family="Helvetica,sans-Serif" font-size="10.00">+</text>
<text text-anchor="start" x="94.65" y="-148" font-family="Helvetica,sans-Serif" font-size="10.00">verify()</text>
<text text-anchor="start" x="81.65" y="-133" font-family="Helvetica,sans-Serif" font-size="10.00">+</text>
<text text-anchor="start" x="94.65" y="-133" font-family="Helvetica,sans-Serif" font-size="10.00">store()</text>
<polygon fill="#666666" stroke="#666666" points="77.65,-203 77.65,-203 189.65,-203 189.65,-203 77.65,-203"/>
<polygon fill="#666666" stroke="#666666" points="77.65,-188 77.65,-188 189.65,-188 189.65,-188 77.65,-188"/>
<polygon fill="none" stroke="#666666" points="77.65,-126 77.65,-220 189.65,-220 189.65,-126 77.65,-126"/>
</a>
</g>
</g>
<!-- Node2&#45;&gt;Node1 -->
<g id="edge1_Node000001_Node000002" class="edge">
<title>Node2&#45;&gt;Node1</title>
<g id="a_edge1_Node000001_Node000002"><a xlink:title=" ">
<path fill="none" stroke="#63b8ff" d="M133.65,-115.46C133.65,-103.18 133.65,-90.46 133.65,-79.06"/>
<polygon fill="none" stroke="#63b8ff" points="130.15,-115.64 133.65,-125.64 137.15,-115.64 130.15,-115.64"/>
</a>
</g>
</g>
<!-- Node3 -->
<g id="Node000003" class="node">
<title>Node3</title>
<g id="a_Node000003"><a xlink:title=" ">
<polygon fill="white" stroke="transparent" points="40.15,-316 1.15,-316 1.15,-267 40.15,-267 40.15,-316"/>
<text text-anchor="start" x="6.65" y="-303.5" font-family="Helvetica,sans-Serif" font-size="10.00">String</text>
<text text-anchor="start" x="19.15" y="-288.5" font-family="Helvetica,sans-Serif" font-size="10.00"> </text>
<text text-anchor="start" x="19.15" y="-273.5" font-family="Helvetica,sans-Serif" font-size="10.00"> </text>
<polygon fill="#666666" stroke="#666666" points="1.65,-298.5 1.65,-298.5 40.65,-298.5 40.65,-298.5 1.65,-298.5"/>
<polygon fill="#666666" stroke="#666666" points="1.65,-283.5 1.65,-283.5 40.65,-283.5 40.65,-283.5 1.65,-283.5"/>
<polygon fill="none" stroke="#666666" points="1.15,-267 1.15,-316 40.15,-316 40.15,-267 1.15,-267"/>
</a>
</g>
</g>
<!-- Node3&#45;&gt;Node1 -->
<g id="edge3_Node000001_Node000003" class="edge">
<title>Node3&#45;&gt;Node1</title>
<g id="a_edge3_Node000001_Node000003"><a xlink:title=" ">
<path fill="none" stroke="#63b8ff" d="M12.68,-266.87C2.9,-233.44 -9.73,-171.36 13.65,-126 28.26,-97.65 57.1,-76.63 82.85,-62.53"/>
<polygon fill="none" stroke="#63b8ff" points="83,-62.45 86.48,-56.13 93.64,-56.91 90.17,-63.23 83,-62.45"/>
</a>
</g>
<text text-anchor="middle" x="41.15" y="-170.5" font-family="Helvetica,sans-Serif" font-size="10.00" fill="grey"> &#45;file_name</text>
</g>
<!-- Node3&#45;&gt;Node2 -->
<g id="edge2_Node000002_Node000003" class="edge">
<title>Node3&#45;&gt;Node2</title>
<g id="a_edge2_Node000002_Node000003"><a xlink:title=" ">
<path fill="none" stroke="#63b8ff" d="M40.33,-270.21C51.53,-258.65 66.16,-243.57 80.5,-228.79"/>
<polygon fill="none" stroke="#63b8ff" points="80.53,-228.76 81.83,-221.67 88.88,-220.15 87.58,-227.24 80.53,-228.76"/>
</a>
</g>
<text text-anchor="middle" x="109.15" y="-241" font-family="Helvetica,sans-Serif" font-size="10.00" fill="grey"> &#45;storage_name</text>
</g>
<!-- Node4 -->
<g id="Node000004" class="node">
<title>Node4</title>
<g id="a_Node000004"><a xlink:title=" ">
<polygon fill="white" stroke="transparent" points="297.15,-197.5 208.15,-197.5 208.15,-148.5 297.15,-148.5 297.15,-197.5"/>
<text text-anchor="start" x="213.65" y="-185" font-family="Helvetica,sans-Serif" font-size="10.00">SPIClassRP2040</text>
<text text-anchor="start" x="251.15" y="-170" font-family="Helvetica,sans-Serif" font-size="10.00"> </text>
<text text-anchor="start" x="251.15" y="-155" font-family="Helvetica,sans-Serif" font-size="10.00"> </text>
<polygon fill="#666666" stroke="#666666" points="208.65,-180 208.65,-180 297.65,-180 297.65,-180 208.65,-180"/>
<polygon fill="#666666" stroke="#666666" points="208.65,-165 208.65,-165 297.65,-165 297.65,-165 208.65,-165"/>
<polygon fill="none" stroke="#666666" points="208.15,-148.5 208.15,-197.5 297.15,-197.5 297.15,-148.5 208.15,-148.5"/>
</a>
</g>
</g>
<!-- Node4&#45;&gt;Node1 -->
<g id="edge4_Node000001_Node000004" class="edge">
<title>Node4&#45;&gt;Node1</title>
<g id="a_edge4_Node000001_Node000004"><a xlink:title=" ">
<path fill="none" stroke="#63b8ff" d="M231.37,-148.49C216.17,-131.69 195.2,-108.52 176.58,-87.95"/>
<polygon fill="none" stroke="#63b8ff" points="176.55,-87.91 169.56,-86.14 168.5,-79.01 175.49,-80.78 176.55,-87.91"/>
</a>
</g>
<text text-anchor="middle" x="218.15" y="-100" font-family="Helvetica,sans-Serif" font-size="10.00" fill="grey"> &#45;sd_spi_1</text>
</g>
</g>
</svg>
</svg>

<style type='text/css'>
<![CDATA[
[data-mouse-over-selected='false'] { opacity: 0.7; }
[data-mouse-over-selected='true']  { opacity: 1.0; }
]]>
</style>
<script type="application/ecmascript"><![CDATA[
document.addEventListener('DOMContentLoaded', (event) => {
  highlightEdges();
  highlightAdjacentNodes();
});
]]></script>
</svg>
