<?xml version="1.0" encoding="UTF-8" standalone="no"?>
<!DOCTYPE svg PUBLIC "-//W3C//DTD SVG 1.1//EN"
 "http://www.w3.org/Graphics/SVG/1.1/DTD/svg11.dtd">
<!-- Generated by graphviz version 2.43.0 (0)
 -->
<!-- Title: SDStorage::store Pages: 1 -->
<svg width="404pt" height="75pt"
 viewBox="0.00 0.00 404.00 75.00" xmlns="http://www.w3.org/2000/svg" xmlns:xlink="http://www.w3.org/1999/xlink">
<g id="graph0" class="graph" transform="scale(1 1) rotate(0) translate(4 71)">
<title>SDStorage::store</title>
<!-- Node1 -->
<g id="node1" class="node">
<title>Node1</title>
<g id="a_node1"><a xlink:title="Store data on the SD card, ending with newline.">
<polygon fill="#bfbfbf" stroke="black" points="0,-28.5 0,-47.5 98,-47.5 98,-28.5 0,-28.5"/>
<text text-anchor="middle" x="49" y="-35.5" font-family="Helvetica,sans-Serif" font-size="10.00">SDStorage::store</text>
</a>
</g>
</g>
<!-- Node2 -->
<g id="node2" class="node">
<title>Node2</title>
<g id="a_node2"><a xlink:href="classErrorDisplay.html#a25018c85cd6b4055a5e796153b997d13" target="_top" xlink:title="Sets the error code to the given value if the given error is of a higher priority then the current er...">
<polygon fill="none" stroke="black" points="271,-47.5 271,-66.5 396,-66.5 396,-47.5 271,-47.5"/>
<text text-anchor="middle" x="333.5" y="-54.5" font-family="Helvetica,sans-Serif" font-size="10.00">ErrorDisplay::addCode</text>
</a>
</g>
</g>
<!-- Node1&#45;&gt;Node2 -->
<g id="edge1" class="edge">
<title>Node1&#45;&gt;Node2</title>
<path fill="none" stroke="midnightblue" d="M84.04,-47.51C99.2,-51.27 117.36,-55.14 134,-57 175.64,-61.65 222.49,-61.88 260.22,-60.85"/>
<polygon fill="midnightblue" stroke="midnightblue" points="260.72,-64.33 270.61,-60.52 260.5,-57.34 260.72,-64.33"/>
</g>
<!-- Node3 -->
<g id="node3" class="node">
<title>Node3</title>
<g id="a_node3"><a xlink:href="classErrorDisplay.html#a164dea875d8b3215203e5d6f0076f237" target="_top" xlink:title="Accesses the only instance of ErrorDisplay (Singleton)">
<polygon fill="none" stroke="black" points="272,-0.5 272,-19.5 395,-19.5 395,-0.5 272,-0.5"/>
<text text-anchor="middle" x="333.5" y="-7.5" font-family="Helvetica,sans-Serif" font-size="10.00">ErrorDisplay::instance</text>
</a>
</g>
</g>
<!-- Node1&#45;&gt;Node3 -->
<g id="edge2" class="edge">
<title>Node1&#45;&gt;Node3</title>
<path fill="none" stroke="midnightblue" d="M85.72,-28.45C100.55,-24.87 118,-21.16 134,-19 176.03,-13.34 223.47,-11.04 261.43,-10.18"/>
<polygon fill="midnightblue" stroke="midnightblue" points="261.95,-13.67 271.88,-9.97 261.81,-6.67 261.95,-13.67"/>
</g>
<!-- Node4 -->
<g id="node4" class="node">
<title>Node4</title>
<g id="a_node4"><a xlink:href="classSDStorage.html#a2a08793ce2cb22bc0675f5cf4916155a" target="_top" xlink:title="Verify SD card connection and create a new, unique file.">
<polygon fill="none" stroke="black" points="134,-28.5 134,-47.5 235,-47.5 235,-28.5 134,-28.5"/>
<text text-anchor="middle" x="184.5" y="-35.5" font-family="Helvetica,sans-Serif" font-size="10.00">SDStorage::verify</text>
</a>
</g>
</g>
<!-- Node1&#45;&gt;Node4 -->
<g id="edge3" class="edge">
<title>Node1&#45;&gt;Node4</title>
<path fill="none" stroke="midnightblue" d="M98.2,-38C106.37,-38 114.95,-38 123.39,-38"/>
<polygon fill="midnightblue" stroke="midnightblue" points="123.58,-41.5 133.58,-38 123.58,-34.5 123.58,-41.5"/>
</g>
<!-- Node4&#45;&gt;Node2 -->
<g id="edge4" class="edge">
<title>Node4&#45;&gt;Node2</title>
<path fill="none" stroke="midnightblue" d="M235.27,-44.43C243.47,-45.49 252.11,-46.61 260.72,-47.72"/>
<polygon fill="midnightblue" stroke="midnightblue" points="260.42,-51.21 270.79,-49.02 261.32,-44.27 260.42,-51.21"/>
</g>
<!-- Node4&#45;&gt;Node3 -->
<g id="edge5" class="edge">
<title>Node4&#45;&gt;Node3</title>
<path fill="none" stroke="midnightblue" d="M235.27,-28.52C247.29,-26.23 260.27,-23.76 272.71,-21.39"/>
<polygon fill="midnightblue" stroke="midnightblue" points="273.37,-24.83 282.53,-19.52 272.06,-17.95 273.37,-24.83"/>
</g>
</g>
</svg>
