<?xml version="1.0" encoding="UTF-8" standalone="no"?>
<!DOCTYPE svg PUBLIC "-//W3C//DTD SVG 1.1//EN"
 "http://www.w3.org/Graphics/SVG/1.1/DTD/svg11.dtd">
<!-- Generated by graphviz version 2.43.0 (0)
 -->
<!-- Title: ZOPT220x_Control::setMeasurementRate Pages: 1 -->
<svg width="423pt" height="88pt"
 viewBox="0.00 0.00 423.00 88.00" xmlns="http://www.w3.org/2000/svg" xmlns:xlink="http://www.w3.org/1999/xlink">
<g id="graph0" class="graph" transform="scale(1 1) rotate(0) translate(4 84)">
<title>ZOPT220x_Control::setMeasurementRate</title>
<!-- Node1 -->
<g id="node1" class="node">
<title>Node1</title>
<g id="a_node1"><a xlink:title=" ">
<polygon fill="#bfbfbf" stroke="black" points="0,-30 0,-49 218,-49 218,-30 0,-30"/>
<text text-anchor="middle" x="109" y="-37" font-family="Helvetica,sans-Serif" font-size="10.00">ZOPT220x_Control::setMeasurementRate</text>
</a>
</g>
</g>
<!-- Node2 -->
<g id="node2" class="node">
<title>Node2</title>
<g id="a_node2"><a xlink:href="classZOPT220x__Control.html#a58c74577acc1183a66b1f9b9281551a3" target="_top" xlink:title=" ">
<polygon fill="none" stroke="black" points="255,-49.5 255,-79.5 414,-79.5 414,-49.5 255,-49.5"/>
<text text-anchor="start" x="263" y="-67.5" font-family="Helvetica,sans-Serif" font-size="10.00">ZOPT220x_Control::zoptRead</text>
<text text-anchor="middle" x="334.5" y="-56.5" font-family="Helvetica,sans-Serif" font-size="10.00">Register</text>
</a>
</g>
</g>
<!-- Node1&#45;&gt;Node2 -->
<g id="edge1" class="edge">
<title>Node1&#45;&gt;Node2</title>
<path fill="none" stroke="midnightblue" d="M195.13,-49.02C211.38,-50.84 228.42,-52.75 244.77,-54.57"/>
<polygon fill="midnightblue" stroke="midnightblue" points="244.52,-58.07 254.85,-55.7 245.3,-51.11 244.52,-58.07"/>
</g>
<!-- Node3 -->
<g id="node3" class="node">
<title>Node3</title>
<g id="a_node3"><a xlink:href="classZOPT220x__Control.html#ab5f43fd630eaaadeea212559e12648be" target="_top" xlink:title=" ">
<polygon fill="none" stroke="black" points="254,-0.5 254,-30.5 415,-30.5 415,-0.5 254,-0.5"/>
<text text-anchor="start" x="262" y="-18.5" font-family="Helvetica,sans-Serif" font-size="10.00">ZOPT220x_Control::zoptWrite</text>
<text text-anchor="middle" x="334.5" y="-7.5" font-family="Helvetica,sans-Serif" font-size="10.00">Register</text>
</a>
</g>
</g>
<!-- Node1&#45;&gt;Node3 -->
<g id="edge2" class="edge">
<title>Node1&#45;&gt;Node3</title>
<path fill="none" stroke="midnightblue" d="M198.65,-29.98C213.41,-28.4 228.72,-26.75 243.51,-25.16"/>
<polygon fill="midnightblue" stroke="midnightblue" points="244.08,-28.62 253.65,-24.07 243.33,-21.66 244.08,-28.62"/>
</g>
</g>
</svg>
