<?xml version="1.0" encoding="UTF-8" standalone="no"?>
<!DOCTYPE svg PUBLIC "-//W3C//DTD SVG 1.1//EN"
 "http://www.w3.org/Graphics/SVG/1.1/DTD/svg11.dtd">
<!-- Generated by graphviz version 2.43.0 (0)
 -->
<!-- Title: GeigerSensor Pages: 1 -->
<svg width="141pt" height="427pt"
 viewBox="0.00 0.00 141.00 427.00" xmlns="http://www.w3.org/2000/svg" xmlns:xlink="http://www.w3.org/1999/xlink">
<g id="graph0" class="graph" transform="scale(1 1) rotate(0) translate(4 423)">
<title>GeigerSensor</title>
<!-- Node1 -->
<g id="Node000001" class="node">
<title>Node1</title>
<g id="a_Node000001"><a xlink:title="A class for interfacing with a Geiger counter sensor.">
<polygon fill="#999999" stroke="transparent" points="130,-109 3,-109 3,0 130,0 130,-109"/>
<text text-anchor="start" x="34" y="-96.5" font-family="Helvetica,sans-Serif" font-size="10.00">GeigerSensor</text>
<text text-anchor="start" x="10" y="-81.5" font-family="Helvetica,sans-Serif" font-size="10.00">&#45;</text>
<text text-anchor="start" x="20.5" y="-81.5" font-family="Helvetica,sans-Serif" font-size="10.00">measuringPeriodStart</text>
<text text-anchor="start" x="7.5" y="-66.5" font-family="Helvetica,sans-Serif" font-size="10.00">+</text>
<text text-anchor="start" x="20.5" y="-66.5" font-family="Helvetica,sans-Serif" font-size="10.00">GeigerSensor()</text>
<text text-anchor="start" x="7.5" y="-51.5" font-family="Helvetica,sans-Serif" font-size="10.00">+</text>
<text text-anchor="start" x="20.5" y="-51.5" font-family="Helvetica,sans-Serif" font-size="10.00">GeigerSensor()</text>
<text text-anchor="start" x="7.5" y="-36.5" font-family="Helvetica,sans-Serif" font-size="10.00">+</text>
<text text-anchor="start" x="20.5" y="-36.5" font-family="Helvetica,sans-Serif" font-size="10.00">verify()</text>
<text text-anchor="start" x="7.5" y="-21.5" font-family="Helvetica,sans-Serif" font-size="10.00">+</text>
<text text-anchor="start" x="20.5" y="-21.5" font-family="Helvetica,sans-Serif" font-size="10.00">readData()</text>
<text text-anchor="start" x="10" y="-6.5" font-family="Helvetica,sans-Serif" font-size="10.00">&#45;</text>
<text text-anchor="start" x="20.5" y="-6.5" font-family="Helvetica,sans-Serif" font-size="10.00">geigerCounter()</text>
<polygon fill="#666666" stroke="#666666" points="3.5,-91.5 3.5,-91.5 130.5,-91.5 130.5,-91.5 3.5,-91.5"/>
<polygon fill="#666666" stroke="#666666" points="3.5,-76.5 3.5,-76.5 18.5,-76.5 18.5,-76.5 3.5,-76.5"/>
<polygon fill="#666666" stroke="#666666" points="18.5,-76.5 18.5,-76.5 130.5,-76.5 130.5,-76.5 18.5,-76.5"/>
<polygon fill="none" stroke="#666666" points="3,0 3,-109 130,-109 130,0 3,0"/>
</a>
</g>
</g>
<!-- Node2 -->
<g id="Node000002" class="node">
<title>Node2</title>
<g id="a_Node000002"><a xlink:href="classSensor.html" target="_top" xlink:title="Parent class for sensor objects.">
<polygon fill="white" stroke="transparent" points="133,-419 0,-419 0,-145 133,-145 133,-419"/>
<text text-anchor="start" x="50" y="-407" font-family="Helvetica,sans-Serif" font-size="10.00">Sensor</text>
<text text-anchor="start" x="7" y="-392" font-family="Helvetica,sans-Serif" font-size="10.00">&#45;</text>
<text text-anchor="start" x="17.5" y="-392" font-family="Helvetica,sans-Serif" font-size="10.00">minimum_period</text>
<text text-anchor="start" x="7" y="-377" font-family="Helvetica,sans-Serif" font-size="10.00">&#45;</text>
<text text-anchor="start" x="17.5" y="-377" font-family="Helvetica,sans-Serif" font-size="10.00">last_execution</text>
<text text-anchor="start" x="7" y="-362" font-family="Helvetica,sans-Serif" font-size="10.00">&#45;</text>
<text text-anchor="start" x="17.5" y="-362" font-family="Helvetica,sans-Serif" font-size="10.00">sensor_name</text>
<text text-anchor="start" x="7" y="-347" font-family="Helvetica,sans-Serif" font-size="10.00">&#45;</text>
<text text-anchor="start" x="17.5" y="-347" font-family="Helvetica,sans-Serif" font-size="10.00">csv_header</text>
<text text-anchor="start" x="7" y="-332" font-family="Helvetica,sans-Serif" font-size="10.00">&#45;</text>
<text text-anchor="start" x="17.5" y="-332" font-family="Helvetica,sans-Serif" font-size="10.00">fields</text>
<text text-anchor="start" x="4.5" y="-317" font-family="Helvetica,sans-Serif" font-size="10.00">+</text>
<text text-anchor="start" x="17.5" y="-317" font-family="Helvetica,sans-Serif" font-size="10.00">Sensor()</text>
<text text-anchor="start" x="4.5" y="-302" font-family="Helvetica,sans-Serif" font-size="10.00">+</text>
<text text-anchor="start" x="17.5" y="-302" font-family="Helvetica,sans-Serif" font-size="10.00">Sensor()</text>
<text text-anchor="start" x="4.5" y="-287" font-family="Helvetica,sans-Serif" font-size="10.00">+</text>
<text text-anchor="start" x="17.5" y="-287" font-family="Helvetica,sans-Serif" font-size="10.00">getPeriod()</text>
<text text-anchor="start" x="4.5" y="-272" font-family="Helvetica,sans-Serif" font-size="10.00">+</text>
<text text-anchor="start" x="17.5" y="-272" font-family="Helvetica,sans-Serif" font-size="10.00">setPeriod()</text>
<text text-anchor="start" x="4.5" y="-257" font-family="Helvetica,sans-Serif" font-size="10.00">+</text>
<text text-anchor="start" x="17.5" y="-257" font-family="Helvetica,sans-Serif" font-size="10.00">getLastExecution()</text>
<text text-anchor="start" x="4.5" y="-242" font-family="Helvetica,sans-Serif" font-size="10.00">+</text>
<text text-anchor="start" x="17.5" y="-242" font-family="Helvetica,sans-Serif" font-size="10.00">setLastExecution()</text>
<text text-anchor="start" x="4.5" y="-227" font-family="Helvetica,sans-Serif" font-size="10.00">+</text>
<text text-anchor="start" x="17.5" y="-227" font-family="Helvetica,sans-Serif" font-size="10.00">getSensorName()</text>
<text text-anchor="start" x="4.5" y="-212" font-family="Helvetica,sans-Serif" font-size="10.00">+</text>
<text text-anchor="start" x="17.5" y="-212" font-family="Helvetica,sans-Serif" font-size="10.00">getSensorCSVHeader()</text>
<text text-anchor="start" x="4.5" y="-197" font-family="Helvetica,sans-Serif" font-size="10.00">+</text>
<text text-anchor="start" x="17.5" y="-197" font-family="Helvetica,sans-Serif" font-size="10.00">verify()</text>
<text text-anchor="start" x="4.5" y="-182" font-family="Helvetica,sans-Serif" font-size="10.00">+</text>
<text text-anchor="start" x="17.5" y="-182" font-family="Helvetica,sans-Serif" font-size="10.00">readData()</text>
<text text-anchor="start" x="4.5" y="-167" font-family="Helvetica,sans-Serif" font-size="10.00">+</text>
<text text-anchor="start" x="17.5" y="-167" font-family="Helvetica,sans-Serif" font-size="10.00">readEmpty()</text>
<text text-anchor="start" x="4.5" y="-152" font-family="Helvetica,sans-Serif" font-size="10.00">+</text>
<text text-anchor="start" x="17.5" y="-152" font-family="Helvetica,sans-Serif" font-size="10.00">getDataCSV()</text>
<polygon fill="#666666" stroke="#666666" points="0.5,-402 0.5,-402 133.5,-402 133.5,-402 0.5,-402"/>
<polygon fill="#666666" stroke="#666666" points="0.5,-327 0.5,-327 15.5,-327 15.5,-327 0.5,-327"/>
<polygon fill="#666666" stroke="#666666" points="15.5,-327 15.5,-327 133.5,-327 133.5,-327 15.5,-327"/>
<polygon fill="none" stroke="#666666" points="0,-145 0,-419 133,-419 133,-145 0,-145"/>
</a>
</g>
</g>
<!-- Node2&#45;&gt;Node1 -->
<g id="edge1_Node000001_Node000002" class="edge">
<title>Node2&#45;&gt;Node1</title>
<g id="a_edge1_Node000001_Node000002"><a xlink:title=" ">
<path fill="none" stroke="#63b8ff" d="M66.5,-134.83C66.5,-125.96 66.5,-117.4 66.5,-109.39"/>
<polygon fill="none" stroke="#63b8ff" points="63,-134.95 66.5,-144.95 70,-134.95 63,-134.95"/>
</a>
</g>
</g>
</g>
</svg>
