<?xml version="1.0" encoding="UTF-8" standalone="no"?>
<!DOCTYPE svg PUBLIC "-//W3C//DTD SVG 1.1//EN"
 "http://www.w3.org/Graphics/SVG/1.1/DTD/svg11.dtd">
<!-- Generated by graphviz version 2.43.0 (0)
 -->
<!-- Title: ErrorDisplay::instance Pages: 1 -->
<svg width="402pt" height="140pt"
 viewBox="0.00 0.00 402.00 140.00" xmlns="http://www.w3.org/2000/svg" xmlns:xlink="http://www.w3.org/1999/xlink">
<g id="graph0" class="graph" transform="scale(1 1) rotate(0) translate(4 136)">
<title>ErrorDisplay::instance</title>
<!-- Node1 -->
<g id="Node000001" class="node">
<title>Node1</title>
<g id="a_Node000001"><a xlink:title="Accesses the only instance of ErrorDisplay (Singleton)">
<polygon fill="#999999" stroke="#666666" points="394,-76 271,-76 271,-57 394,-57 394,-76"/>
<text text-anchor="middle" x="332.5" y="-64" font-family="Helvetica,sans-Serif" font-size="10.00">ErrorDisplay::instance</text>
</a>
</g>
</g>
<!-- Node2 -->
<g id="Node000002" class="node">
<title>Node2</title>
<g id="a_Node000002"><a xlink:href="main_8cpp.html#afe461d27b9c48d5921c00d521181f12f" target="_top" xlink:title="Loop for core 0, handling sensor reads.">
<polygon fill="white" stroke="#666666" points="203.5,-132 165.5,-132 165.5,-113 203.5,-113 203.5,-132"/>
<text text-anchor="middle" x="184.5" y="-120" font-family="Helvetica,sans-Serif" font-size="10.00">loop</text>
</a>
</g>
</g>
<!-- Node1&#45;&gt;Node2 -->
<g id="edge1_Node000001_Node000002" class="edge">
<title>Node1&#45;&gt;Node2</title>
<g id="a_edge1_Node000001_Node000002"><a xlink:title=" ">
<path fill="none" stroke="#63b8ff" d="M298.29,-79.83C279.72,-87.22 256.13,-96.5 235,-104.5 224.74,-108.39 213.22,-112.58 203.88,-115.95"/>
<polygon fill="#63b8ff" stroke="#63b8ff" points="299.78,-83 307.77,-76.04 297.19,-76.5 299.78,-83"/>
</a>
</g>
</g>
<!-- Node3 -->
<g id="Node000003" class="node">
<title>Node3</title>
<g id="a_Node000003"><a xlink:href="main_8cpp.html#a4fc01d736fe50cf5b977f755b675f11d" target="_top" xlink:title="Setup for core 0.">
<polygon fill="white" stroke="#666666" points="206.5,-95 162.5,-95 162.5,-76 206.5,-76 206.5,-95"/>
<text text-anchor="middle" x="184.5" y="-83" font-family="Helvetica,sans-Serif" font-size="10.00">setup</text>
</a>
</g>
</g>
<!-- Node1&#45;&gt;Node3 -->
<g id="edge2_Node000001_Node000003" class="edge">
<title>Node1&#45;&gt;Node3</title>
<g id="a_edge2_Node000001_Node000003"><a xlink:title=" ">
<path fill="none" stroke="#63b8ff" d="M260.86,-75.69C241.04,-78.27 220.99,-80.88 206.56,-82.76"/>
<polygon fill="#63b8ff" stroke="#63b8ff" points="261.39,-79.15 270.85,-74.39 260.48,-72.21 261.39,-79.15"/>
</a>
</g>
</g>
<!-- Node4 -->
<g id="Node000004" class="node">
<title>Node4</title>
<g id="a_Node000004"><a xlink:href="classSDStorage.html#a9450318396c536da92d44d9ebad33ec1" target="_top" xlink:title="Store data on the SD card, ending with newline.">
<polygon fill="white" stroke="#666666" points="98,-38 0,-38 0,-19 98,-19 98,-38"/>
<text text-anchor="middle" x="49" y="-26" font-family="Helvetica,sans-Serif" font-size="10.00">SDStorage::store</text>
</a>
</g>
</g>
<!-- Node1&#45;&gt;Node4 -->
<g id="edge3_Node000001_Node000004" class="edge">
<title>Node1&#45;&gt;Node4</title>
<g id="a_edge3_Node000001_Node000004"><a xlink:title=" ">
<path fill="none" stroke="#63b8ff" d="M260.83,-56.96C209.98,-50.1 142.76,-41.02 98.03,-34.98"/>
<polygon fill="#63b8ff" stroke="#63b8ff" points="260.39,-60.43 270.77,-58.3 261.32,-53.49 260.39,-60.43"/>
</a>
</g>
</g>
<!-- Node5 -->
<g id="Node000005" class="node">
<title>Node5</title>
<g id="a_Node000005"><a xlink:href="classSDStorage.html#a2a08793ce2cb22bc0675f5cf4916155a" target="_top" xlink:title="Verify SD card connection and create a new, unique file.">
<polygon fill="white" stroke="#666666" points="235,-19 134,-19 134,0 235,0 235,-19"/>
<text text-anchor="middle" x="184.5" y="-7" font-family="Helvetica,sans-Serif" font-size="10.00">SDStorage::verify</text>
</a>
</g>
</g>
<!-- Node1&#45;&gt;Node5 -->
<g id="edge4_Node000001_Node000005" class="edge">
<title>Node1&#45;&gt;Node5</title>
<g id="a_edge4_Node000001_Node000005"><a xlink:title=" ">
<path fill="none" stroke="#63b8ff" d="M297.68,-53.3C270.87,-42.83 234.05,-28.45 210.02,-19.07"/>
<polygon fill="#63b8ff" stroke="#63b8ff" points="296.47,-56.58 307.06,-56.96 299.02,-50.06 296.47,-56.58"/>
</a>
</g>
</g>
<!-- Node5&#45;&gt;Node4 -->
<g id="edge5_Node000005_Node000004" class="edge">
<title>Node5&#45;&gt;Node4</title>
<g id="a_edge5_Node000005_Node000004"><a xlink:title=" ">
<path fill="none" stroke="#63b8ff" d="M123.61,-18.02C115.18,-19.22 106.6,-20.44 98.42,-21.61"/>
<polygon fill="#63b8ff" stroke="#63b8ff" points="124.38,-21.45 133.79,-16.57 123.4,-14.52 124.38,-21.45"/>
</a>
</g>
</g>
</g>
</svg>
