<?xml version="1.0" encoding="UTF-8" standalone="no"?>
<!DOCTYPE svg PUBLIC "-//W3C//DTD SVG 1.1//EN"
 "http://www.w3.org/Graphics/SVG/1.1/DTD/svg11.dtd">
<!-- Generated by graphviz version 2.43.0 (0)
 -->
<!-- Title: SDStorage Pages: 1 -->
<svg width="126pt" height="226pt"
 viewBox="0.00 0.00 126.00 226.00" xmlns="http://www.w3.org/2000/svg" xmlns:xlink="http://www.w3.org/1999/xlink">
<g id="graph0" class="graph" transform="scale(1 1) rotate(0) translate(4 222)">
<title>SDStorage</title>
<!-- Node1 -->
<g id="node1" class="node">
<title>Node1</title>
<g id="a_node1"><a xlink:title="Implementation of a Storage device to interface with an SD card.">
<polygon fill="#bfbfbf" stroke="black" points="16,-0.5 16,-90.5 102,-90.5 102,-0.5 16,-0.5"/>
<text text-anchor="middle" x="59" y="-78.5" font-family="Helvetica,sans-Serif" font-size="10.00">SDStorage</text>
<polyline fill="none" stroke="black" points="16,-71.5 102,-71.5 "/>
<text text-anchor="start" x="24" y="-59.5" font-family="Helvetica,sans-Serif" font-size="10.00">&#45; file_name</text>
<text text-anchor="start" x="24" y="-48.5" font-family="Helvetica,sans-Serif" font-size="10.00">&#45; sd_spi_1</text>
<polyline fill="none" stroke="black" points="16,-41.5 102,-41.5 "/>
<text text-anchor="start" x="24" y="-29.5" font-family="Helvetica,sans-Serif" font-size="10.00">+ SDStorage()</text>
<text text-anchor="start" x="24" y="-18.5" font-family="Helvetica,sans-Serif" font-size="10.00">+ verify()</text>
<text text-anchor="start" x="24" y="-7.5" font-family="Helvetica,sans-Serif" font-size="10.00">+ store()</text>
</a>
</g>
</g>
<!-- Node2 -->
<g id="node2" class="node">
<title>Node2</title>
<g id="a_node2"><a xlink:href="classStorage.html" target="_top" xlink:title="Parent class for all data storage devices (sd card, radio, etc)">
<polygon fill="none" stroke="black" points="0,-127.5 0,-217.5 118,-217.5 118,-127.5 0,-127.5"/>
<text text-anchor="middle" x="59" y="-205.5" font-family="Helvetica,sans-Serif" font-size="10.00">Storage</text>
<polyline fill="none" stroke="black" points="0,-198.5 118,-198.5 "/>
<text text-anchor="start" x="8" y="-186.5" font-family="Helvetica,sans-Serif" font-size="10.00">&#45; storage_name</text>
<polyline fill="none" stroke="black" points="0,-179.5 118,-179.5 "/>
<text text-anchor="start" x="8" y="-167.5" font-family="Helvetica,sans-Serif" font-size="10.00">+ Storage()</text>
<text text-anchor="start" x="8" y="-156.5" font-family="Helvetica,sans-Serif" font-size="10.00">+ getStorageName()</text>
<text text-anchor="start" x="8" y="-145.5" font-family="Helvetica,sans-Serif" font-size="10.00">+ verify()</text>
<text text-anchor="start" x="8" y="-134.5" font-family="Helvetica,sans-Serif" font-size="10.00">+ store()</text>
</a>
</g>
</g>
<!-- Node2&#45;&gt;Node1 -->
<g id="edge1" class="edge">
<title>Node2&#45;&gt;Node1</title>
<path fill="none" stroke="midnightblue" d="M59,-117.16C59,-108.28 59,-99.18 59,-90.59"/>
<polygon fill="none" stroke="midnightblue" points="55.5,-117.43 59,-127.43 62.5,-117.43 55.5,-117.43"/>
</g>
</g>
</svg>
