<?xml version="1.0" encoding="UTF-8" standalone="no"?>
<!DOCTYPE svg PUBLIC "-//W3C//DTD SVG 1.1//EN"
 "http://www.w3.org/Graphics/SVG/1.1/DTD/svg11.dtd">
<!-- Generated by graphviz version 2.43.0 (0)
 -->
<!-- Title: SHT31Sensor Pages: 1 -->
<svg width="511pt" height="470pt"
 viewBox="0.00 0.00 510.50 470.00" xmlns="http://www.w3.org/2000/svg" xmlns:xlink="http://www.w3.org/1999/xlink">
<g id="graph0" class="graph" transform="scale(1 1) rotate(0) translate(4 466)">
<title>SHT31Sensor</title>
<!-- Node1 -->
<g id="Node000001" class="node">
<title>Node1</title>
<g id="a_Node000001"><a xlink:title="Interfaces with SHT31 Sensor to collect temperature and humidity data.">
<polygon fill="#999999" stroke="transparent" points="339.5,-94 245.5,-94 245.5,0 339.5,0 339.5,-94"/>
<text text-anchor="start" x="260" y="-82" font-family="Helvetica,sans-Serif" font-size="10.00">SHT31Sensor</text>
<text text-anchor="start" x="290.5" y="-67" font-family="Helvetica,sans-Serif" font-size="10.00"> </text>
<text text-anchor="start" x="249.5" y="-52" font-family="Helvetica,sans-Serif" font-size="10.00">+</text>
<text text-anchor="start" x="262.5" y="-52" font-family="Helvetica,sans-Serif" font-size="10.00">SHT31Sensor()</text>
<text text-anchor="start" x="249.5" y="-37" font-family="Helvetica,sans-Serif" font-size="10.00">+</text>
<text text-anchor="start" x="262.5" y="-37" font-family="Helvetica,sans-Serif" font-size="10.00">SHT31Sensor()</text>
<text text-anchor="start" x="249.5" y="-22" font-family="Helvetica,sans-Serif" font-size="10.00">+</text>
<text text-anchor="start" x="262.5" y="-22" font-family="Helvetica,sans-Serif" font-size="10.00">verify()</text>
<text text-anchor="start" x="249.5" y="-7" font-family="Helvetica,sans-Serif" font-size="10.00">+</text>
<text text-anchor="start" x="262.5" y="-7" font-family="Helvetica,sans-Serif" font-size="10.00">readData()</text>
<polygon fill="#666666" stroke="#666666" points="245.5,-77 245.5,-77 339.5,-77 339.5,-77 245.5,-77"/>
<polygon fill="#666666" stroke="#666666" points="245.5,-62 245.5,-62 339.5,-62 339.5,-62 245.5,-62"/>
<polygon fill="none" stroke="#666666" points="245.5,0 245.5,-94 339.5,-94 339.5,0 245.5,0"/>
</a>
</g>
</g>
<!-- Node2 -->
<g id="Node000002" class="node">
<title>Node2</title>
<g id="a_Node000002"><a xlink:href="classSensor.html" target="_top" xlink:title="Parent class for sensor objects.">
<polygon fill="white" stroke="transparent" points="237,-355 104,-355 104,-141 237,-141 237,-355"/>
<text text-anchor="start" x="154" y="-343" font-family="Helvetica,sans-Serif" font-size="10.00">Sensor</text>
<text text-anchor="start" x="169" y="-328" font-family="Helvetica,sans-Serif" font-size="10.00"> </text>
<text text-anchor="start" x="108.5" y="-313" font-family="Helvetica,sans-Serif" font-size="10.00">+</text>
<text text-anchor="start" x="121.5" y="-313" font-family="Helvetica,sans-Serif" font-size="10.00">Sensor()</text>
<text text-anchor="start" x="108.5" y="-298" font-family="Helvetica,sans-Serif" font-size="10.00">+</text>
<text text-anchor="start" x="121.5" y="-298" font-family="Helvetica,sans-Serif" font-size="10.00">Sensor()</text>
<text text-anchor="start" x="108.5" y="-283" font-family="Helvetica,sans-Serif" font-size="10.00">+</text>
<text text-anchor="start" x="121.5" y="-283" font-family="Helvetica,sans-Serif" font-size="10.00">getPeriod()</text>
<text text-anchor="start" x="108.5" y="-268" font-family="Helvetica,sans-Serif" font-size="10.00">+</text>
<text text-anchor="start" x="121.5" y="-268" font-family="Helvetica,sans-Serif" font-size="10.00">setPeriod()</text>
<text text-anchor="start" x="108.5" y="-253" font-family="Helvetica,sans-Serif" font-size="10.00">+</text>
<text text-anchor="start" x="121.5" y="-253" font-family="Helvetica,sans-Serif" font-size="10.00">getLastExecution()</text>
<text text-anchor="start" x="108.5" y="-238" font-family="Helvetica,sans-Serif" font-size="10.00">+</text>
<text text-anchor="start" x="121.5" y="-238" font-family="Helvetica,sans-Serif" font-size="10.00">setLastExecution()</text>
<text text-anchor="start" x="108.5" y="-223" font-family="Helvetica,sans-Serif" font-size="10.00">+</text>
<text text-anchor="start" x="121.5" y="-223" font-family="Helvetica,sans-Serif" font-size="10.00">getSensorName()</text>
<text text-anchor="start" x="108.5" y="-208" font-family="Helvetica,sans-Serif" font-size="10.00">+</text>
<text text-anchor="start" x="121.5" y="-208" font-family="Helvetica,sans-Serif" font-size="10.00">getSensorCSVHeader()</text>
<text text-anchor="start" x="108.5" y="-193" font-family="Helvetica,sans-Serif" font-size="10.00">+</text>
<text text-anchor="start" x="121.5" y="-193" font-family="Helvetica,sans-Serif" font-size="10.00">verify()</text>
<text text-anchor="start" x="108.5" y="-178" font-family="Helvetica,sans-Serif" font-size="10.00">+</text>
<text text-anchor="start" x="121.5" y="-178" font-family="Helvetica,sans-Serif" font-size="10.00">readData()</text>
<text text-anchor="start" x="108.5" y="-163" font-family="Helvetica,sans-Serif" font-size="10.00">+</text>
<text text-anchor="start" x="121.5" y="-163" font-family="Helvetica,sans-Serif" font-size="10.00">readEmpty()</text>
<text text-anchor="start" x="108.5" y="-148" font-family="Helvetica,sans-Serif" font-size="10.00">+</text>
<text text-anchor="start" x="121.5" y="-148" font-family="Helvetica,sans-Serif" font-size="10.00">getDataCSV()</text>
<polygon fill="#666666" stroke="#666666" points="104.5,-338 104.5,-338 237.5,-338 237.5,-338 104.5,-338"/>
<polygon fill="#666666" stroke="#666666" points="104.5,-323 104.5,-323 237.5,-323 237.5,-323 104.5,-323"/>
<polygon fill="none" stroke="#666666" points="104,-141 104,-355 237,-355 237,-141 104,-141"/>
</a>
</g>
</g>
<!-- Node2&#45;&gt;Node1 -->
<g id="edge1_Node000001_Node000002" class="edge">
<title>Node2&#45;&gt;Node1</title>
<g id="a_edge1_Node000001_Node000002"><a xlink:title=" ">
<path fill="none" stroke="#63b8ff" d="M240.97,-132.05C249.1,-118.79 256.99,-105.91 264.06,-94.38"/>
<polygon fill="none" stroke="#63b8ff" points="237.85,-130.45 235.61,-140.8 243.82,-134.1 237.85,-130.45"/>
</a>
</g>
</g>
<!-- Node3 -->
<g id="Node000003" class="node">
<title>Node3</title>
<g id="a_Node000003"><a xlink:title=" ">
<polygon fill="white" stroke="transparent" points="79,-462 0,-462 0,-413 79,-413 79,-462"/>
<text text-anchor="start" x="5.5" y="-449.5" font-family="Helvetica,sans-Serif" font-size="10.00">unsigned long</text>
<text text-anchor="start" x="38" y="-434.5" font-family="Helvetica,sans-Serif" font-size="10.00"> </text>
<text text-anchor="start" x="38" y="-419.5" font-family="Helvetica,sans-Serif" font-size="10.00"> </text>
<polygon fill="#666666" stroke="#666666" points="0.5,-444.5 0.5,-444.5 79.5,-444.5 79.5,-444.5 0.5,-444.5"/>
<polygon fill="#666666" stroke="#666666" points="0.5,-429.5 0.5,-429.5 79.5,-429.5 79.5,-429.5 0.5,-429.5"/>
<polygon fill="none" stroke="#666666" points="0,-413 0,-462 79,-462 79,-413 0,-413"/>
</a>
</g>
</g>
<!-- Node3&#45;&gt;Node2 -->
<g id="edge2_Node000002_Node000003" class="edge">
<title>Node3&#45;&gt;Node2</title>
<g id="a_edge2_Node000002_Node000003"><a xlink:title=" ">
<path fill="none" stroke="#63b8ff" d="M43.93,-412.88C46.9,-400.48 51.56,-385.33 58.5,-373 68.67,-354.93 81.89,-337.29 95.67,-321.24"/>
<polygon fill="none" stroke="#63b8ff" points="95.89,-320.98 96.86,-313.84 103.82,-311.98 102.86,-319.13 95.89,-320.98"/>
</a>
</g>
<text text-anchor="middle" x="102.5" y="-387" font-family="Helvetica,sans-Serif" font-size="10.00" fill="grey"> &#45;last_execution</text>
<text text-anchor="middle" x="102.5" y="-376" font-family="Helvetica,sans-Serif" font-size="10.00" fill="grey">&#45;minimum_period</text>
</g>
<!-- Node4 -->
<g id="Node000004" class="node">
<title>Node4</title>
<g id="a_Node000004"><a xlink:title=" ">
<polygon fill="white" stroke="transparent" points="269,-462 230,-462 230,-413 269,-413 269,-462"/>
<text text-anchor="start" x="235.5" y="-449.5" font-family="Helvetica,sans-Serif" font-size="10.00">String</text>
<text text-anchor="start" x="248" y="-434.5" font-family="Helvetica,sans-Serif" font-size="10.00"> </text>
<text text-anchor="start" x="248" y="-419.5" font-family="Helvetica,sans-Serif" font-size="10.00"> </text>
<polygon fill="#666666" stroke="#666666" points="230.5,-444.5 230.5,-444.5 269.5,-444.5 269.5,-444.5 230.5,-444.5"/>
<polygon fill="#666666" stroke="#666666" points="230.5,-429.5 230.5,-429.5 269.5,-429.5 269.5,-429.5 230.5,-429.5"/>
<polygon fill="none" stroke="#666666" points="230,-413 230,-462 269,-462 269,-413 230,-413"/>
</a>
</g>
</g>
<!-- Node4&#45;&gt;Node1 -->
<g id="edge6_Node000001_Node000004" class="edge">
<title>Node4&#45;&gt;Node1</title>
<g id="a_edge6_Node000001_Node000004"><a xlink:title=" ">
<path fill="none" stroke="#63b8ff" d="M269.19,-413.19C272.94,-407.56 276.37,-401.33 278.5,-395 295.94,-343.25 295.71,-190.99 294.08,-106.38"/>
<polygon fill="none" stroke="#63b8ff" points="294.08,-106.15 289.95,-100.24 293.83,-94.16 297.95,-100.07 294.08,-106.15"/>
</a>
</g>
<text text-anchor="middle" x="348.5" y="-245.5" font-family="Helvetica,sans-Serif" font-size="10.00" fill="grey"> &#45;csvHeaderCompiled</text>
</g>
<!-- Node4&#45;&gt;Node2 -->
<g id="edge3_Node000002_Node000004" class="edge">
<title>Node4&#45;&gt;Node2</title>
<g id="a_edge3_Node000002_Node000004"><a xlink:title=" ">
<path fill="none" stroke="#63b8ff" d="M229.66,-420.46C222.05,-413.38 213.91,-404.51 208.5,-395 203.48,-386.16 199.1,-376.65 195.3,-366.87"/>
<polygon fill="none" stroke="#63b8ff" points="195.18,-366.56 189.37,-362.29 191.08,-355.29 196.89,-359.56 195.18,-366.56"/>
</a>
</g>
<text text-anchor="middle" x="243.5" y="-387" font-family="Helvetica,sans-Serif" font-size="10.00" fill="grey"> &#45;csv_header</text>
<text text-anchor="middle" x="243.5" y="-376" font-family="Helvetica,sans-Serif" font-size="10.00" fill="grey">&#45;sensor_name</text>
</g>
<!-- Node5 -->
<g id="Node000005" class="node">
<title>Node5</title>
<g id="a_Node000005"><a xlink:title=" ">
<polygon fill="white" stroke="transparent" points="162,-462 139,-462 139,-413 162,-413 162,-462"/>
<text text-anchor="start" x="144.5" y="-449.5" font-family="Helvetica,sans-Serif" font-size="10.00">int</text>
<text text-anchor="start" x="149" y="-434.5" font-family="Helvetica,sans-Serif" font-size="10.00"> </text>
<text text-anchor="start" x="149" y="-419.5" font-family="Helvetica,sans-Serif" font-size="10.00"> </text>
<polygon fill="#666666" stroke="#666666" points="139.5,-444.5 139.5,-444.5 162.5,-444.5 162.5,-444.5 139.5,-444.5"/>
<polygon fill="#666666" stroke="#666666" points="139.5,-429.5 139.5,-429.5 162.5,-429.5 162.5,-429.5 139.5,-429.5"/>
<polygon fill="none" stroke="#666666" points="139,-413 139,-462 162,-462 162,-413 139,-413"/>
</a>
</g>
</g>
<!-- Node5&#45;&gt;Node2 -->
<g id="edge4_Node000002_Node000005" class="edge">
<title>Node5&#45;&gt;Node2</title>
<g id="a_edge4_Node000002_Node000005"><a xlink:title=" ">
<path fill="none" stroke="#63b8ff" d="M150.11,-412.94C150.1,-400.96 150.39,-386.18 151.5,-373 151.66,-371.08 151.83,-369.14 152.02,-367.19"/>
<polygon fill="none" stroke="#63b8ff" points="152.04,-367.02 148.68,-360.64 153.27,-355.09 156.63,-361.47 152.04,-367.02"/>
</a>
</g>
<text text-anchor="middle" x="168.5" y="-381.5" font-family="Helvetica,sans-Serif" font-size="10.00" fill="grey"> &#45;fields</text>
</g>
<!-- Node6 -->
<g id="Node000006" class="node">
<title>Node6</title>
<g id="a_Node000006"><a xlink:title=" ">
<polygon fill="white" stroke="transparent" points="502.5,-272.5 416.5,-272.5 416.5,-223.5 502.5,-223.5 502.5,-272.5"/>
<text text-anchor="start" x="421.5" y="-260" font-family="Helvetica,sans-Serif" font-size="10.00">Adafruit_SHT31</text>
<text text-anchor="start" x="457.5" y="-245" font-family="Helvetica,sans-Serif" font-size="10.00"> </text>
<text text-anchor="start" x="457.5" y="-230" font-family="Helvetica,sans-Serif" font-size="10.00"> </text>
<polygon fill="#666666" stroke="#666666" points="416.5,-255 416.5,-255 502.5,-255 502.5,-255 416.5,-255"/>
<polygon fill="#666666" stroke="#666666" points="416.5,-240 416.5,-240 502.5,-240 502.5,-240 416.5,-240"/>
<polygon fill="none" stroke="#666666" points="416.5,-223.5 416.5,-272.5 502.5,-272.5 502.5,-223.5 416.5,-223.5"/>
</a>
</g>
</g>
<!-- Node6&#45;&gt;Node1 -->
<g id="edge5_Node000001_Node000006" class="edge">
<title>Node6&#45;&gt;Node1</title>
<g id="a_edge5_Node000001_Node000006"><a xlink:title=" ">
<path fill="none" stroke="#63b8ff" d="M449.79,-223.14C439.92,-200.58 423.16,-166.48 402.5,-141 387.15,-122.06 367.53,-104.05 349.13,-89.02"/>
<polygon fill="none" stroke="#63b8ff" points="349.02,-88.93 341.83,-88.31 339.64,-81.44 346.83,-82.06 349.02,-88.93"/>
</a>
</g>
<text text-anchor="middle" x="401.5" y="-115" font-family="Helvetica,sans-Serif" font-size="10.00" fill="grey"> &#45;sht31</text>
</g>
</g>
</svg>
