<?xml version="1.0" encoding="UTF-8" standalone="no"?>
<!DOCTYPE svg PUBLIC "-//W3C//DTD SVG 1.1//EN"
 "http://www.w3.org/Graphics/SVG/1.1/DTD/svg11.dtd">
<!-- Generated by graphviz version 2.43.0 (0)
 -->
<!-- Title: ErrorDisplay::instance Pages: 1 -->
<svg width="402pt" height="142pt"
 viewBox="0.00 0.00 402.00 142.00" xmlns="http://www.w3.org/2000/svg" xmlns:xlink="http://www.w3.org/1999/xlink">
<g id="graph0" class="graph" transform="scale(1 1) rotate(0) translate(4 138)">
<title>ErrorDisplay::instance</title>
<!-- Node1 -->
<g id="node1" class="node">
<title>Node1</title>
<g id="a_node1"><a xlink:title="Accesses the only instance of ErrorDisplay (Singleton)">
<polygon fill="#bfbfbf" stroke="black" points="271,-57.5 271,-76.5 394,-76.5 394,-57.5 271,-57.5"/>
<text text-anchor="middle" x="332.5" y="-64.5" font-family="Helvetica,sans-Serif" font-size="10.00">ErrorDisplay::instance</text>
</a>
</g>
</g>
<!-- Node2 -->
<g id="node2" class="node">
<title>Node2</title>
<g id="a_node2"><a xlink:href="main_8cpp.html#afe461d27b9c48d5921c00d521181f12f" target="_top" xlink:title="Loop for core 0, handling sensor reads.">
<polygon fill="none" stroke="black" points="165.5,-114.5 165.5,-133.5 203.5,-133.5 203.5,-114.5 165.5,-114.5"/>
<text text-anchor="middle" x="184.5" y="-121.5" font-family="Helvetica,sans-Serif" font-size="10.00">loop</text>
</a>
</g>
</g>
<!-- Node1&#45;&gt;Node2 -->
<g id="edge1" class="edge">
<title>Node1&#45;&gt;Node2</title>
<path fill="none" stroke="midnightblue" d="M297.86,-80.33C279.33,-87.65 255.91,-96.87 235,-105 224.7,-109 213.18,-113.43 203.85,-117"/>
<polygon fill="midnightblue" stroke="midnightblue" points="299.32,-83.52 307.33,-76.58 296.74,-77.01 299.32,-83.52"/>
</g>
<!-- Node3 -->
<g id="node3" class="node">
<title>Node3</title>
<g id="a_node3"><a xlink:href="main_8cpp.html#a4fc01d736fe50cf5b977f755b675f11d" target="_top" xlink:title="Setup for core 0.">
<polygon fill="none" stroke="black" points="162.5,-76.5 162.5,-95.5 206.5,-95.5 206.5,-76.5 162.5,-76.5"/>
<text text-anchor="middle" x="184.5" y="-83.5" font-family="Helvetica,sans-Serif" font-size="10.00">setup</text>
</a>
</g>
</g>
<!-- Node1&#45;&gt;Node3 -->
<g id="edge2" class="edge">
<title>Node1&#45;&gt;Node3</title>
<path fill="none" stroke="midnightblue" d="M260.86,-76.19C241.04,-78.77 220.99,-81.38 206.56,-83.26"/>
<polygon fill="midnightblue" stroke="midnightblue" points="261.39,-79.65 270.85,-74.89 260.48,-72.71 261.39,-79.65"/>
</g>
<!-- Node4 -->
<g id="node4" class="node">
<title>Node4</title>
<g id="a_node4"><a xlink:href="classSDStorage.html#a9450318396c536da92d44d9ebad33ec1" target="_top" xlink:title="Store data on the SD card, ending with newline.">
<polygon fill="none" stroke="black" points="0,-19.5 0,-38.5 98,-38.5 98,-19.5 0,-19.5"/>
<text text-anchor="middle" x="49" y="-26.5" font-family="Helvetica,sans-Serif" font-size="10.00">SDStorage::store</text>
</a>
</g>
</g>
<!-- Node1&#45;&gt;Node4 -->
<g id="edge3" class="edge">
<title>Node1&#45;&gt;Node4</title>
<path fill="none" stroke="midnightblue" d="M260.83,-57.46C209.98,-50.6 142.76,-41.52 98.03,-35.48"/>
<polygon fill="midnightblue" stroke="midnightblue" points="260.39,-60.93 270.77,-58.8 261.32,-53.99 260.39,-60.93"/>
</g>
<!-- Node5 -->
<g id="node5" class="node">
<title>Node5</title>
<g id="a_node5"><a xlink:href="classSDStorage.html#a2a08793ce2cb22bc0675f5cf4916155a" target="_top" xlink:title="Verify SD card connection and create a new, unique file.">
<polygon fill="none" stroke="black" points="134,-0.5 134,-19.5 235,-19.5 235,-0.5 134,-0.5"/>
<text text-anchor="middle" x="184.5" y="-7.5" font-family="Helvetica,sans-Serif" font-size="10.00">SDStorage::verify</text>
</a>
</g>
</g>
<!-- Node1&#45;&gt;Node5 -->
<g id="edge4" class="edge">
<title>Node1&#45;&gt;Node5</title>
<path fill="none" stroke="midnightblue" d="M297.68,-53.8C270.87,-43.33 234.05,-28.95 210.02,-19.57"/>
<polygon fill="midnightblue" stroke="midnightblue" points="296.47,-57.08 307.06,-57.46 299.02,-50.56 296.47,-57.08"/>
</g>
<!-- Node5&#45;&gt;Node4 -->
<g id="edge5" class="edge">
<title>Node5&#45;&gt;Node4</title>
<path fill="none" stroke="midnightblue" d="M123.61,-18.52C115.18,-19.72 106.6,-20.94 98.42,-22.11"/>
<polygon fill="midnightblue" stroke="midnightblue" points="124.38,-21.95 133.79,-17.07 123.4,-15.02 124.38,-21.95"/>
</g>
</g>
</svg>
