<?xml version="1.0" encoding="UTF-8" standalone="no"?>
<!DOCTYPE svg PUBLIC "-//W3C//DTD SVG 1.1//EN"
 "http://www.w3.org/Graphics/SVG/1.1/DTD/svg11.dtd">
<!-- Generated by graphviz version 2.43.0 (0)
 -->
<!-- Title: RadioStorage Pages: 1 -->
<svg width="126pt" height="215pt"
 viewBox="0.00 0.00 126.00 215.00" xmlns="http://www.w3.org/2000/svg" xmlns:xlink="http://www.w3.org/1999/xlink">
<g id="graph0" class="graph" transform="scale(1 1) rotate(0) translate(4 211)">
<title>RadioStorage</title>
<!-- Node1 -->
<g id="node1" class="node">
<title>Node1</title>
<g id="a_node1"><a xlink:title="Implementation of a Storage device to interface with an SD card.">
<polygon fill="#bfbfbf" stroke="black" points="8.5,-0.5 8.5,-79.5 109.5,-79.5 109.5,-0.5 8.5,-0.5"/>
<text text-anchor="middle" x="59" y="-67.5" font-family="Helvetica,sans-Serif" font-size="10.00">RadioStorage</text>
<polyline fill="none" stroke="black" points="8.5,-60.5 109.5,-60.5 "/>
<text text-anchor="start" x="16.5" y="-48.5" font-family="Helvetica,sans-Serif" font-size="10.00">&#45; file_name</text>
<polyline fill="none" stroke="black" points="8.5,-41.5 109.5,-41.5 "/>
<text text-anchor="start" x="16.5" y="-29.5" font-family="Helvetica,sans-Serif" font-size="10.00">+ RadioStorage()</text>
<text text-anchor="start" x="16.5" y="-18.5" font-family="Helvetica,sans-Serif" font-size="10.00">+ verify()</text>
<text text-anchor="start" x="16.5" y="-7.5" font-family="Helvetica,sans-Serif" font-size="10.00">+ store()</text>
</a>
</g>
</g>
<!-- Node2 -->
<g id="node2" class="node">
<title>Node2</title>
<g id="a_node2"><a xlink:href="classStorage.html" target="_top" xlink:title="Parent class for all data storage devices (sd card, radio, etc)">
<polygon fill="none" stroke="black" points="0,-116.5 0,-206.5 118,-206.5 118,-116.5 0,-116.5"/>
<text text-anchor="middle" x="59" y="-194.5" font-family="Helvetica,sans-Serif" font-size="10.00">Storage</text>
<polyline fill="none" stroke="black" points="0,-187.5 118,-187.5 "/>
<text text-anchor="start" x="8" y="-175.5" font-family="Helvetica,sans-Serif" font-size="10.00">&#45; storage_name</text>
<polyline fill="none" stroke="black" points="0,-168.5 118,-168.5 "/>
<text text-anchor="start" x="8" y="-156.5" font-family="Helvetica,sans-Serif" font-size="10.00">+ Storage()</text>
<text text-anchor="start" x="8" y="-145.5" font-family="Helvetica,sans-Serif" font-size="10.00">+ getStorageName()</text>
<text text-anchor="start" x="8" y="-134.5" font-family="Helvetica,sans-Serif" font-size="10.00">+ verify()</text>
<text text-anchor="start" x="8" y="-123.5" font-family="Helvetica,sans-Serif" font-size="10.00">+ store()</text>
</a>
</g>
</g>
<!-- Node2&#45;&gt;Node1 -->
<g id="edge1" class="edge">
<title>Node2&#45;&gt;Node1</title>
<path fill="none" stroke="midnightblue" d="M59,-106.08C59,-97.23 59,-88.23 59,-79.86"/>
<polygon fill="none" stroke="midnightblue" points="55.5,-106.34 59,-116.34 62.5,-106.34 55.5,-106.34"/>
</g>
</g>
</svg>
