<?xml version="1.0" encoding="UTF-8" standalone="no"?>
<!DOCTYPE svg PUBLIC "-//W3C//DTD SVG 1.1//EN"
 "http://www.w3.org/Graphics/SVG/1.1/DTD/svg11.dtd">
<!-- Generated by graphviz version 2.43.0 (0)
 -->
<!-- Title: ZOPT220x_Control::zopt220xSetup Pages: 1 -->
<svg width="811pt" height="192pt"
 viewBox="0.00 0.00 811.00 191.50" xmlns="http://www.w3.org/2000/svg" xmlns:xlink="http://www.w3.org/1999/xlink">
<g id="graph0" class="graph" transform="scale(1 1) rotate(0) translate(4 187.5)">
<title>ZOPT220x_Control::zopt220xSetup</title>
<!-- Node1 -->
<g id="node1" class="node">
<title>Node1</title>
<g id="a_node1"><a xlink:title=" ">
<polygon fill="#bfbfbf" stroke="black" points="0,-71 0,-101 158,-101 158,-71 0,-71"/>
<text text-anchor="start" x="8" y="-89" font-family="Helvetica,sans-Serif" font-size="10.00">ZOPT220x_Control::zopt220x</text>
<text text-anchor="middle" x="79" y="-78" font-family="Helvetica,sans-Serif" font-size="10.00">Setup</text>
</a>
</g>
</g>
<!-- Node2 -->
<g id="node2" class="node">
<title>Node2</title>
<g id="a_node2"><a xlink:href="classZOPT220x__Control.html#adc20ce356a572b8039ba96b9160e97c4" target="_top" xlink:title=" ">
<polygon fill="none" stroke="black" points="194,-71 194,-101 352,-101 352,-71 194,-71"/>
<text text-anchor="start" x="202" y="-89" font-family="Helvetica,sans-Serif" font-size="10.00">ZOPT220x_Control::zopt220x</text>
<text text-anchor="middle" x="273" y="-78" font-family="Helvetica,sans-Serif" font-size="10.00">SetupWithAddress</text>
</a>
</g>
</g>
<!-- Node1&#45;&gt;Node2 -->
<g id="edge1" class="edge">
<title>Node1&#45;&gt;Node2</title>
<path fill="none" stroke="midnightblue" d="M158.09,-86C166.6,-86 175.3,-86 183.92,-86"/>
<polygon fill="midnightblue" stroke="midnightblue" points="183.98,-89.5 193.98,-86 183.98,-82.5 183.98,-89.5"/>
</g>
<!-- Node3 -->
<g id="node3" class="node">
<title>Node3</title>
<g id="a_node3"><a xlink:href="classZOPT220x__Control.html#a8eb237d4b6eb8513893d99d3163fc094" target="_top" xlink:title=" ">
<polygon fill="none" stroke="black" points="411,-153 411,-183 583,-183 583,-153 411,-153"/>
<text text-anchor="start" x="419" y="-171" font-family="Helvetica,sans-Serif" font-size="10.00">ZOPT220x_Control::checkPower</text>
<text text-anchor="middle" x="497" y="-160" font-family="Helvetica,sans-Serif" font-size="10.00">OnStatus</text>
</a>
</g>
</g>
<!-- Node2&#45;&gt;Node3 -->
<g id="edge2" class="edge">
<title>Node2&#45;&gt;Node3</title>
<path fill="none" stroke="midnightblue" d="M303.94,-101.23C326.63,-112.37 358.77,-127.35 388,-138 400.09,-142.41 413.15,-146.54 425.86,-150.24"/>
<polygon fill="midnightblue" stroke="midnightblue" points="424.91,-153.61 435.49,-152.99 426.83,-146.88 424.91,-153.61"/>
</g>
<!-- Node4 -->
<g id="node4" class="node">
<title>Node4</title>
<g id="a_node4"><a xlink:href="classZOPT220x__Control.html#a58c74577acc1183a66b1f9b9281551a3" target="_top" xlink:title=" ">
<polygon fill="none" stroke="black" points="643,-76 643,-106 802,-106 802,-76 643,-76"/>
<text text-anchor="start" x="651" y="-94" font-family="Helvetica,sans-Serif" font-size="10.00">ZOPT220x_Control::zoptRead</text>
<text text-anchor="middle" x="722.5" y="-83" font-family="Helvetica,sans-Serif" font-size="10.00">Register</text>
</a>
</g>
</g>
<!-- Node2&#45;&gt;Node4 -->
<g id="edge13" class="edge">
<title>Node2&#45;&gt;Node4</title>
<path fill="none" stroke="midnightblue" d="M352.28,-100.79C364.21,-102.54 376.4,-104.04 388,-105 484.56,-112.99 509.29,-110.84 606,-105 614.64,-104.48 623.63,-103.74 632.6,-102.87"/>
<polygon fill="midnightblue" stroke="midnightblue" points="633.12,-106.33 642.71,-101.84 632.41,-99.37 633.12,-106.33"/>
</g>
<!-- Node5 -->
<g id="node5" class="node">
<title>Node5</title>
<g id="a_node5"><a xlink:href="classZOPT220x__Control.html#afa9fab0ef429c9e7a46afd752a2ee44d" target="_top" xlink:title=" ">
<polygon fill="none" stroke="black" points="421.5,-76.5 421.5,-95.5 572.5,-95.5 572.5,-76.5 421.5,-76.5"/>
<text text-anchor="middle" x="497" y="-83.5" font-family="Helvetica,sans-Serif" font-size="10.00">ZOPT220x_Control::setGain</text>
</a>
</g>
</g>
<!-- Node2&#45;&gt;Node5 -->
<g id="edge4" class="edge">
<title>Node2&#45;&gt;Node5</title>
<path fill="none" stroke="midnightblue" d="M352.27,-86C371.4,-86 391.96,-86 411.38,-86"/>
<polygon fill="midnightblue" stroke="midnightblue" points="411.42,-89.5 421.42,-86 411.42,-82.5 411.42,-89.5"/>
</g>
<!-- Node7 -->
<g id="node7" class="node">
<title>Node7</title>
<g id="a_node7"><a xlink:href="classZOPT220x__Control.html#a809d1f5db2a9f0884fa82e0b77b944bf" target="_top" xlink:title=" ">
<polygon fill="none" stroke="black" points="388,-38.5 388,-57.5 606,-57.5 606,-38.5 388,-38.5"/>
<text text-anchor="middle" x="497" y="-45.5" font-family="Helvetica,sans-Serif" font-size="10.00">ZOPT220x_Control::setMeasurementRate</text>
</a>
</g>
</g>
<!-- Node2&#45;&gt;Node7 -->
<g id="edge7" class="edge">
<title>Node2&#45;&gt;Node7</title>
<path fill="none" stroke="midnightblue" d="M352.27,-72.6C377.83,-68.23 405.94,-63.42 430.47,-59.22"/>
<polygon fill="midnightblue" stroke="midnightblue" points="431.12,-62.66 440.39,-57.52 429.94,-55.76 431.12,-62.66"/>
</g>
<!-- Node8 -->
<g id="node8" class="node">
<title>Node8</title>
<g id="a_node8"><a xlink:href="classZOPT220x__Control.html#aa8d79db36ab65e003f87a493f720233d" target="_top" xlink:title=" ">
<polygon fill="none" stroke="black" points="407,-0.5 407,-19.5 587,-19.5 587,-0.5 407,-0.5"/>
<text text-anchor="middle" x="497" y="-7.5" font-family="Helvetica,sans-Serif" font-size="10.00">ZOPT220x_Control::setResolution</text>
</a>
</g>
</g>
<!-- Node2&#45;&gt;Node8 -->
<g id="edge10" class="edge">
<title>Node2&#45;&gt;Node8</title>
<path fill="none" stroke="midnightblue" d="M298.9,-70.9C321.41,-57.9 355.85,-39.61 388,-29 396.56,-26.17 405.65,-23.74 414.79,-21.66"/>
<polygon fill="midnightblue" stroke="midnightblue" points="415.65,-25.05 424.69,-19.53 414.18,-18.21 415.65,-25.05"/>
</g>
<!-- Node3&#45;&gt;Node4 -->
<g id="edge3" class="edge">
<title>Node3&#45;&gt;Node4</title>
<path fill="none" stroke="midnightblue" d="M556.95,-152.95C572.98,-148.5 590.25,-143.37 606,-138 630.17,-129.76 656.58,-119.13 678.04,-110.07"/>
<polygon fill="midnightblue" stroke="midnightblue" points="679.7,-113.17 687.53,-106.03 676.95,-106.73 679.7,-113.17"/>
</g>
<!-- Node5&#45;&gt;Node4 -->
<g id="edge5" class="edge">
<title>Node5&#45;&gt;Node4</title>
<path fill="none" stroke="midnightblue" d="M572.73,-87.67C591.86,-88.1 612.62,-88.56 632.39,-89.01"/>
<polygon fill="midnightblue" stroke="midnightblue" points="632.55,-92.51 642.63,-89.24 632.71,-85.51 632.55,-92.51"/>
</g>
<!-- Node6 -->
<g id="node6" class="node">
<title>Node6</title>
<g id="a_node6"><a xlink:href="classZOPT220x__Control.html#ab5f43fd630eaaadeea212559e12648be" target="_top" xlink:title=" ">
<polygon fill="none" stroke="black" points="642,-27 642,-57 803,-57 803,-27 642,-27"/>
<text text-anchor="start" x="650" y="-45" font-family="Helvetica,sans-Serif" font-size="10.00">ZOPT220x_Control::zoptWrite</text>
<text text-anchor="middle" x="722.5" y="-34" font-family="Helvetica,sans-Serif" font-size="10.00">Register</text>
</a>
</g>
</g>
<!-- Node5&#45;&gt;Node6 -->
<g id="edge6" class="edge">
<title>Node5&#45;&gt;Node6</title>
<path fill="none" stroke="midnightblue" d="M554.69,-76.46C571.25,-73.55 589.37,-70.26 606,-67 618.31,-64.59 631.33,-61.9 644.02,-59.21"/>
<polygon fill="midnightblue" stroke="midnightblue" points="645.06,-62.56 654.1,-57.05 643.59,-55.72 645.06,-62.56"/>
</g>
<!-- Node7&#45;&gt;Node4 -->
<g id="edge8" class="edge">
<title>Node7&#45;&gt;Node4</title>
<path fill="none" stroke="midnightblue" d="M554.11,-57.53C570.83,-60.47 589.17,-63.77 606,-67 617.39,-69.19 629.4,-71.58 641.19,-73.98"/>
<polygon fill="midnightblue" stroke="midnightblue" points="640.52,-77.42 651.02,-76 641.93,-70.56 640.52,-77.42"/>
</g>
<!-- Node7&#45;&gt;Node6 -->
<g id="edge9" class="edge">
<title>Node7&#45;&gt;Node6</title>
<path fill="none" stroke="midnightblue" d="M606.15,-45.1C614.7,-44.87 623.29,-44.64 631.7,-44.41"/>
<polygon fill="midnightblue" stroke="midnightblue" points="631.96,-47.91 641.86,-44.14 631.77,-40.91 631.96,-47.91"/>
</g>
<!-- Node8&#45;&gt;Node4 -->
<g id="edge11" class="edge">
<title>Node8&#45;&gt;Node4</title>
<path fill="none" stroke="midnightblue" d="M582.91,-19.52C590.95,-22.01 598.79,-25.12 606,-29 626.49,-40.02 622.2,-54.78 642,-67 644.76,-68.7 647.65,-70.29 650.62,-71.77"/>
<polygon fill="midnightblue" stroke="midnightblue" points="649.2,-74.97 659.76,-75.91 652.09,-68.6 649.2,-74.97"/>
</g>
<!-- Node8&#45;&gt;Node6 -->
<g id="edge12" class="edge">
<title>Node8&#45;&gt;Node6</title>
<path fill="none" stroke="midnightblue" d="M564.45,-19.51C585.64,-22.55 609.44,-25.96 631.98,-29.18"/>
<polygon fill="midnightblue" stroke="midnightblue" points="631.49,-32.65 641.89,-30.6 632.49,-25.72 631.49,-32.65"/>
</g>
</g>
</svg>
