<?xml version="1.0" encoding="UTF-8" standalone="no"?>
<!DOCTYPE svg PUBLIC "-//W3C//DTD SVG 1.1//EN"
 "http://www.w3.org/Graphics/SVG/1.1/DTD/svg11.dtd">
<!-- Generated by graphviz version 2.43.0 (0)
 -->
<!-- Title: AS7331Sensor Pages: 1 -->
<svg width="381pt" height="441pt"
 viewBox="0.00 0.00 381.00 441.00" xmlns="http://www.w3.org/2000/svg" xmlns:xlink="http://www.w3.org/1999/xlink">
<g id="graph0" class="graph" transform="scale(1 1) rotate(0) translate(4 437)">
<title>AS7331Sensor</title>
<!-- Node1 -->
<g id="node1" class="node">
<title>Node1</title>
<g id="a_node1"><a xlink:title="Implementation of a Sensor for UVA/B/C sensor.">
<polygon fill="#bfbfbf" stroke="black" points="176,-0.5 176,-90.5 281,-90.5 281,-0.5 176,-0.5"/>
<text text-anchor="middle" x="228.5" y="-78.5" font-family="Helvetica,sans-Serif" font-size="10.00">AS7331Sensor</text>
<polyline fill="none" stroke="black" points="176,-71.5 281,-71.5 "/>
<text text-anchor="middle" x="228.5" y="-59.5" font-family="Helvetica,sans-Serif" font-size="10.00"> </text>
<polyline fill="none" stroke="black" points="176,-52.5 281,-52.5 "/>
<text text-anchor="start" x="184" y="-40.5" font-family="Helvetica,sans-Serif" font-size="10.00">+ AS7331Sensor()</text>
<text text-anchor="start" x="184" y="-29.5" font-family="Helvetica,sans-Serif" font-size="10.00">+ AS7331Sensor()</text>
<text text-anchor="start" x="184" y="-18.5" font-family="Helvetica,sans-Serif" font-size="10.00">+ verify()</text>
<text text-anchor="start" x="184" y="-7.5" font-family="Helvetica,sans-Serif" font-size="10.00">+ readData()</text>
</a>
</g>
</g>
<!-- Node2 -->
<g id="node2" class="node">
<title>Node2</title>
<g id="a_node2"><a xlink:href="classSensor.html" target="_top" xlink:title="Parent class for sensor objects.">
<polygon fill="none" stroke="black" points="46,-138.5 46,-316.5 185,-316.5 185,-138.5 46,-138.5"/>
<text text-anchor="middle" x="115.5" y="-304.5" font-family="Helvetica,sans-Serif" font-size="10.00">Sensor</text>
<polyline fill="none" stroke="black" points="46,-297.5 185,-297.5 "/>
<text text-anchor="middle" x="115.5" y="-285.5" font-family="Helvetica,sans-Serif" font-size="10.00"> </text>
<polyline fill="none" stroke="black" points="46,-278.5 185,-278.5 "/>
<text text-anchor="start" x="54" y="-266.5" font-family="Helvetica,sans-Serif" font-size="10.00">+ Sensor()</text>
<text text-anchor="start" x="54" y="-255.5" font-family="Helvetica,sans-Serif" font-size="10.00">+ Sensor()</text>
<text text-anchor="start" x="54" y="-244.5" font-family="Helvetica,sans-Serif" font-size="10.00">+ getPeriod()</text>
<text text-anchor="start" x="54" y="-233.5" font-family="Helvetica,sans-Serif" font-size="10.00">+ setPeriod()</text>
<text text-anchor="start" x="54" y="-222.5" font-family="Helvetica,sans-Serif" font-size="10.00">+ getLastExecution()</text>
<text text-anchor="start" x="54" y="-211.5" font-family="Helvetica,sans-Serif" font-size="10.00">+ setLastExecution()</text>
<text text-anchor="start" x="54" y="-200.5" font-family="Helvetica,sans-Serif" font-size="10.00">+ getSensorName()</text>
<text text-anchor="start" x="54" y="-189.5" font-family="Helvetica,sans-Serif" font-size="10.00">+ getSensorCSVHeader()</text>
<text text-anchor="start" x="54" y="-178.5" font-family="Helvetica,sans-Serif" font-size="10.00">+ verify()</text>
<text text-anchor="start" x="54" y="-167.5" font-family="Helvetica,sans-Serif" font-size="10.00">+ readData()</text>
<text text-anchor="start" x="54" y="-156.5" font-family="Helvetica,sans-Serif" font-size="10.00">+ readEmpty()</text>
<text text-anchor="start" x="54" y="-145.5" font-family="Helvetica,sans-Serif" font-size="10.00">+ getDataCSV()</text>
</a>
</g>
</g>
<!-- Node2&#45;&gt;Node1 -->
<g id="edge1" class="edge">
<title>Node2&#45;&gt;Node1</title>
<path fill="none" stroke="midnightblue" d="M176.2,-129.81C184.8,-116.12 193.26,-102.64 200.79,-90.64"/>
<polygon fill="none" stroke="midnightblue" points="173.19,-128.02 170.84,-138.35 179.12,-131.74 173.19,-128.02"/>
</g>
<!-- Node3 -->
<g id="node3" class="node">
<title>Node3</title>
<g id="a_node3"><a xlink:title=" ">
<polygon fill="none" stroke="#bfbfbf" points="0,-375.5 0,-432.5 45,-432.5 45,-375.5 0,-375.5"/>
<text text-anchor="middle" x="22.5" y="-420.5" font-family="Helvetica,sans-Serif" font-size="10.00">String</text>
<polyline fill="none" stroke="#bfbfbf" points="0,-413.5 45,-413.5 "/>
<text text-anchor="middle" x="22.5" y="-401.5" font-family="Helvetica,sans-Serif" font-size="10.00"> </text>
<polyline fill="none" stroke="#bfbfbf" points="0,-394.5 45,-394.5 "/>
<text text-anchor="middle" x="22.5" y="-382.5" font-family="Helvetica,sans-Serif" font-size="10.00"> </text>
</a>
</g>
</g>
<!-- Node3&#45;&gt;Node2 -->
<g id="edge2" class="edge">
<title>Node3&#45;&gt;Node2</title>
<path fill="none" stroke="#404040" d="M27.98,-375.45C31.05,-362.77 35.5,-347.75 41.5,-335 42.71,-332.42 43.99,-329.84 45.31,-327.26"/>
<polygon fill="none" stroke="#404040" points="45.33,-327.22 44.66,-320.04 51.04,-316.67 51.7,-323.85 45.33,-327.22"/>
<text text-anchor="middle" x="76.5" y="-349" font-family="Helvetica,sans-Serif" font-size="10.00"> &#45;csv_header</text>
<text text-anchor="middle" x="76.5" y="-338" font-family="Helvetica,sans-Serif" font-size="10.00">&#45;sensor_name</text>
</g>
<!-- Node4 -->
<g id="node4" class="node">
<title>Node4</title>
<g id="a_node4"><a xlink:title=" ">
<polygon fill="none" stroke="#bfbfbf" points="73,-375.5 73,-432.5 158,-432.5 158,-375.5 73,-375.5"/>
<text text-anchor="middle" x="115.5" y="-420.5" font-family="Helvetica,sans-Serif" font-size="10.00">unsigned long</text>
<polyline fill="none" stroke="#bfbfbf" points="73,-413.5 158,-413.5 "/>
<text text-anchor="middle" x="115.5" y="-401.5" font-family="Helvetica,sans-Serif" font-size="10.00"> </text>
<polyline fill="none" stroke="#bfbfbf" points="73,-394.5 158,-394.5 "/>
<text text-anchor="middle" x="115.5" y="-382.5" font-family="Helvetica,sans-Serif" font-size="10.00"> </text>
</a>
</g>
</g>
<!-- Node4&#45;&gt;Node2 -->
<g id="edge3" class="edge">
<title>Node4&#45;&gt;Node2</title>
<path fill="none" stroke="#404040" d="M115.5,-375.35C115.5,-362.44 115.5,-346.18 115.5,-329.24"/>
<polygon fill="none" stroke="#404040" points="115.5,-328.81 111.5,-322.81 115.5,-316.81 119.5,-322.81 115.5,-328.81"/>
<text text-anchor="middle" x="159.5" y="-349" font-family="Helvetica,sans-Serif" font-size="10.00"> &#45;last_execution</text>
<text text-anchor="middle" x="159.5" y="-338" font-family="Helvetica,sans-Serif" font-size="10.00">&#45;minimum_period</text>
</g>
<!-- Node5 -->
<g id="node5" class="node">
<title>Node5</title>
<g id="a_node5"><a xlink:title=" ">
<polygon fill="none" stroke="#bfbfbf" points="212,-375.5 212,-432.5 241,-432.5 241,-375.5 212,-375.5"/>
<text text-anchor="middle" x="226.5" y="-420.5" font-family="Helvetica,sans-Serif" font-size="10.00">int</text>
<polyline fill="none" stroke="#bfbfbf" points="212,-413.5 241,-413.5 "/>
<text text-anchor="middle" x="226.5" y="-401.5" font-family="Helvetica,sans-Serif" font-size="10.00"> </text>
<polyline fill="none" stroke="#bfbfbf" points="212,-394.5 241,-394.5 "/>
<text text-anchor="middle" x="226.5" y="-382.5" font-family="Helvetica,sans-Serif" font-size="10.00"> </text>
</a>
</g>
</g>
<!-- Node5&#45;&gt;Node2 -->
<g id="edge4" class="edge">
<title>Node5&#45;&gt;Node2</title>
<path fill="none" stroke="#404040" d="M220.11,-375.21C216.54,-362.48 211.4,-347.49 204.5,-335 200.83,-328.36 196.72,-321.73 192.32,-315.23"/>
<polygon fill="none" stroke="#404040" points="192.12,-314.94 185.39,-312.33 185.21,-305.12 191.94,-307.73 192.12,-314.94"/>
<text text-anchor="middle" x="231.5" y="-343.5" font-family="Helvetica,sans-Serif" font-size="10.00"> &#45;fields</text>
</g>
<!-- Node6 -->
<g id="node6" class="node">
<title>Node6</title>
<g id="a_node6"><a xlink:title=" ">
<polygon fill="none" stroke="#bfbfbf" points="203.5,-199 203.5,-256 253.5,-256 253.5,-199 203.5,-199"/>
<text text-anchor="middle" x="228.5" y="-244" font-family="Helvetica,sans-Serif" font-size="10.00">uint8_t</text>
<polyline fill="none" stroke="#bfbfbf" points="203.5,-237 253.5,-237 "/>
<text text-anchor="middle" x="228.5" y="-225" font-family="Helvetica,sans-Serif" font-size="10.00"> </text>
<polyline fill="none" stroke="#bfbfbf" points="203.5,-218 253.5,-218 "/>
<text text-anchor="middle" x="228.5" y="-206" font-family="Helvetica,sans-Serif" font-size="10.00"> </text>
</a>
</g>
</g>
<!-- Node6&#45;&gt;Node1 -->
<g id="edge5" class="edge">
<title>Node6&#45;&gt;Node1</title>
<path fill="none" stroke="#404040" d="M228.5,-198.77C228.5,-173.35 228.5,-134.93 228.5,-103.04"/>
<polygon fill="none" stroke="#404040" points="228.5,-102.73 224.5,-96.73 228.5,-90.73 232.5,-96.73 228.5,-102.73"/>
<text text-anchor="middle" x="253" y="-112" font-family="Helvetica,sans-Serif" font-size="10.00"> &#45;i2c_addr</text>
</g>
<!-- Node7 -->
<g id="node7" class="node">
<title>Node7</title>
<g id="a_node7"><a xlink:title=" ">
<polygon fill="none" stroke="#bfbfbf" points="272,-199 272,-256 373,-256 373,-199 272,-199"/>
<text text-anchor="middle" x="322.5" y="-244" font-family="Helvetica,sans-Serif" font-size="10.00">SfeAS7331ArdI2C</text>
<polyline fill="none" stroke="#bfbfbf" points="272,-237 373,-237 "/>
<text text-anchor="middle" x="322.5" y="-225" font-family="Helvetica,sans-Serif" font-size="10.00"> </text>
<polyline fill="none" stroke="#bfbfbf" points="272,-218 373,-218 "/>
<text text-anchor="middle" x="322.5" y="-206" font-family="Helvetica,sans-Serif" font-size="10.00"> </text>
</a>
</g>
</g>
<!-- Node7&#45;&gt;Node1 -->
<g id="edge6" class="edge">
<title>Node7&#45;&gt;Node1</title>
<path fill="none" stroke="#404040" d="M315.9,-198.68C309.35,-174.06 297.91,-137.69 281.5,-109 279.9,-106.2 278.17,-103.41 276.34,-100.64"/>
<polygon fill="none" stroke="#404040" points="276.29,-100.58 269.56,-97.99 269.36,-90.78 276.09,-93.37 276.29,-100.58"/>
<text text-anchor="middle" x="320.5" y="-112" font-family="Helvetica,sans-Serif" font-size="10.00"> &#45;myUVSensor</text>
</g>
</g>
</svg>
