<?xml version="1.0" encoding="UTF-8" standalone="no"?>
<!DOCTYPE svg PUBLIC "-//W3C//DTD SVG 1.1//EN"
 "http://www.w3.org/Graphics/SVG/1.1/DTD/svg11.dtd">
<!-- Generated by graphviz version 2.43.0 (0)
 -->
<!-- Title: ErrorDisplay Pages: 1 -->
<svg width="257pt" height="198pt"
 viewBox="0.00 0.00 256.50 198.00" xmlns="http://www.w3.org/2000/svg" xmlns:xlink="http://www.w3.org/1999/xlink">

<svg id="main" version="1.1" xmlns="http://www.w3.org/2000/svg" xmlns:xlink="http://www.w3.org/1999/xlink" xml:space="preserve" onload="init(evt)">
<style type="text/css"><![CDATA[
.node, .edge {opacity: 0.7;}
.node.selected, .edge.selected {opacity: 1;}
.edge:hover path { stroke: red; }
.edge:hover polygon { stroke: red; fill: red; }
]]></style>
<script type="application/ecmascript" xlink:href="svg.min.js"/>
<svg id="graph" class="graph">
<g id="graph0" class="graph" transform="scale(1 1) rotate(0) translate(4 194)">
<title>ErrorDisplay</title>
<!-- Node1 -->
<g id="Node000001" class="node">
<title>Node1</title>
<g id="a_Node000001"><a xlink:title="Singleton class for the 3 GPIO LED Error Display.">
<polygon fill="#999999" stroke="transparent" points="201,-94 112,-94 112,0 201,0 201,-94"/>
<text text-anchor="start" x="126.5" y="-82" font-family="Helvetica,sans-Serif" font-size="10.00">ErrorDisplay</text>
<text text-anchor="start" x="155" y="-67" font-family="Helvetica,sans-Serif" font-size="10.00"> </text>
<text text-anchor="start" x="116.5" y="-52" font-family="Helvetica,sans-Serif" font-size="10.00">+</text>
<text text-anchor="start" x="129.5" y="-52" font-family="Helvetica,sans-Serif" font-size="10.00">addCode()</text>
<text text-anchor="start" x="116.5" y="-37" font-family="Helvetica,sans-Serif" font-size="10.00">+</text>
<text text-anchor="start" x="129.5" y="-37" font-family="Helvetica,sans-Serif" font-size="10.00">toggle()</text>
<text text-anchor="start" x="116.5" y="-22" font-family="Helvetica,sans-Serif" font-size="10.00">+</text>
<text text-anchor="start" x="129.5" y="-22" font-family="Helvetica,sans-Serif" font-size="10.00">instance()</text>
<text text-anchor="start" x="119" y="-7" font-family="Helvetica,sans-Serif" font-size="10.00">&#45;</text>
<text text-anchor="start" x="129.5" y="-7" font-family="Helvetica,sans-Serif" font-size="10.00">ErrorDisplay()</text>
<polygon fill="#666666" stroke="#666666" points="112.5,-77 112.5,-77 201.5,-77 201.5,-77 112.5,-77"/>
<polygon fill="#666666" stroke="#666666" points="112.5,-62 112.5,-62 201.5,-62 201.5,-62 112.5,-62"/>
<polygon fill="none" stroke="#666666" points="112,0 112,-94 201,-94 201,0 112,0"/>
</a>
</g>
</g>
<!-- Node2 -->
<g id="Node000002" class="node">
<title>Node2</title>
<g id="a_Node000002"><a xlink:title=" ">
<polygon fill="white" stroke="transparent" points="51,-190 0,-190 0,-141 51,-141 51,-190"/>
<text text-anchor="start" x="5.5" y="-177.5" font-family="Helvetica,sans-Serif" font-size="10.00">mutex_t</text>
<text text-anchor="start" x="24" y="-162.5" font-family="Helvetica,sans-Serif" font-size="10.00"> </text>
<text text-anchor="start" x="24" y="-147.5" font-family="Helvetica,sans-Serif" font-size="10.00"> </text>
<polygon fill="#666666" stroke="#666666" points="0.5,-172.5 0.5,-172.5 51.5,-172.5 51.5,-172.5 0.5,-172.5"/>
<polygon fill="#666666" stroke="#666666" points="0.5,-157.5 0.5,-157.5 51.5,-157.5 51.5,-157.5 0.5,-157.5"/>
<polygon fill="none" stroke="#666666" points="0,-141 0,-190 51,-190 51,-141 0,-141"/>
</a>
</g>
</g>
<!-- Node2&#45;&gt;Node1 -->
<g id="edge1_Node000001_Node000002" class="edge">
<title>Node2&#45;&gt;Node1</title>
<g id="a_edge1_Node000001_Node000002"><a xlink:title=" ">
<path fill="none" stroke="#63b8ff" d="M30.21,-140.98C33.08,-131.2 37.57,-120.23 44.5,-112 59.52,-94.14 80.87,-80.22 100.91,-69.99"/>
<polygon fill="none" stroke="#63b8ff" points="101.06,-69.91 104.71,-63.7 111.86,-64.68 108.2,-70.89 101.06,-69.91"/>
</a>
</g>
<text text-anchor="middle" x="98.5" y="-115" font-family="Helvetica,sans-Serif" font-size="10.00" fill="grey"> &#45;error_display_mutex</text>
</g>
<!-- Node3 -->
<g id="Node000003" class="node">
<title>Node3</title>
<g id="a_Node000003"><a xlink:title=" ">
<polygon fill="white" stroke="transparent" points="168,-190 145,-190 145,-141 168,-141 168,-190"/>
<text text-anchor="start" x="150.5" y="-177.5" font-family="Helvetica,sans-Serif" font-size="10.00">int</text>
<text text-anchor="start" x="155" y="-162.5" font-family="Helvetica,sans-Serif" font-size="10.00"> </text>
<text text-anchor="start" x="155" y="-147.5" font-family="Helvetica,sans-Serif" font-size="10.00"> </text>
<polygon fill="#666666" stroke="#666666" points="145.5,-172.5 145.5,-172.5 168.5,-172.5 168.5,-172.5 145.5,-172.5"/>
<polygon fill="#666666" stroke="#666666" points="145.5,-157.5 145.5,-157.5 168.5,-157.5 168.5,-157.5 145.5,-157.5"/>
<polygon fill="none" stroke="#666666" points="145,-141 145,-190 168,-190 168,-141 145,-141"/>
</a>
</g>
</g>
<!-- Node3&#45;&gt;Node1 -->
<g id="edge2_Node000001_Node000003" class="edge">
<title>Node3&#45;&gt;Node1</title>
<g id="a_edge2_Node000001_Node000003"><a xlink:title=" ">
<path fill="none" stroke="#63b8ff" d="M156.5,-140.92C156.5,-130.85 156.5,-118.6 156.5,-106.35"/>
<polygon fill="none" stroke="#63b8ff" points="156.5,-106.17 152.5,-100.17 156.5,-94.17 160.5,-100.17 156.5,-106.17"/>
</a>
</g>
<text text-anchor="middle" x="182.5" y="-115" font-family="Helvetica,sans-Serif" font-size="10.00" fill="grey"> &#45;pin_level</text>
</g>
<!-- Node4 -->
<g id="Node000004" class="node">
<title>Node4</title>
<g id="a_Node000004"><a xlink:title=" ">
<polygon fill="white" stroke="transparent" points="248.5,-190 214.5,-190 214.5,-141 248.5,-141 248.5,-190"/>
<text text-anchor="start" x="219.5" y="-177.5" font-family="Helvetica,sans-Serif" font-size="10.00">Error</text>
<text text-anchor="start" x="229.5" y="-162.5" font-family="Helvetica,sans-Serif" font-size="10.00"> </text>
<text text-anchor="start" x="229.5" y="-147.5" font-family="Helvetica,sans-Serif" font-size="10.00"> </text>
<polygon fill="#666666" stroke="#666666" points="214.5,-172.5 214.5,-172.5 248.5,-172.5 248.5,-172.5 214.5,-172.5"/>
<polygon fill="#666666" stroke="#666666" points="214.5,-157.5 214.5,-157.5 248.5,-157.5 248.5,-157.5 214.5,-157.5"/>
<polygon fill="none" stroke="#666666" points="214.5,-141 214.5,-190 248.5,-190 248.5,-141 214.5,-141"/>
</a>
</g>
</g>
<!-- Node4&#45;&gt;Node1 -->
<g id="edge3_Node000001_Node000004" class="edge">
<title>Node4&#45;&gt;Node1</title>
<g id="a_edge3_Node000001_Node000004"><a xlink:title=" ">
<path fill="none" stroke="#63b8ff" d="M223.28,-140.78C219.63,-131.5 214.92,-120.96 209.5,-112 207.84,-109.26 206.07,-106.51 204.22,-103.78"/>
<polygon fill="none" stroke="#63b8ff" points="204.21,-103.77 197.47,-101.21 197.24,-94 203.98,-96.56 204.21,-103.77"/>
</a>
</g>
<text text-anchor="middle" x="230" y="-115" font-family="Helvetica,sans-Serif" font-size="10.00" fill="grey"> &#45;code</text>
</g>
</g>
</svg>
</svg>

<style type='text/css'>
<![CDATA[
[data-mouse-over-selected='false'] { opacity: 0.7; }
[data-mouse-over-selected='true']  { opacity: 1.0; }
]]>
</style>
<script type="application/ecmascript"><![CDATA[
document.addEventListener('DOMContentLoaded', (event) => {
  highlightEdges();
  highlightAdjacentNodes();
});
]]></script>
</svg>
