<?xml version="1.0" encoding="UTF-8" standalone="no"?>
<!DOCTYPE svg PUBLIC "-//W3C//DTD SVG 1.1//EN"
 "http://www.w3.org/Graphics/SVG/1.1/DTD/svg11.dtd">
<!-- Generated by graphviz version 2.43.0 (0)
 -->
<!-- Title: Sensor Pages: 1 -->
<svg width="272pt" height="329pt"
 viewBox="0.00 0.00 271.50 329.00" xmlns="http://www.w3.org/2000/svg" xmlns:xlink="http://www.w3.org/1999/xlink">

<svg id="main" version="1.1" xmlns="http://www.w3.org/2000/svg" xmlns:xlink="http://www.w3.org/1999/xlink" xml:space="preserve" onload="init(evt)">
<style type="text/css"><![CDATA[
.node, .edge {opacity: 0.7;}
.node.selected, .edge.selected {opacity: 1;}
.edge:hover path { stroke: red; }
.edge:hover polygon { stroke: red; fill: red; }
]]></style>
<script type="application/ecmascript" xlink:href="svg.min.js"/>
<svg id="graph" class="graph">
<g id="graph0" class="graph" transform="scale(1 1) rotate(0) translate(4 325)">
<title>Sensor</title>
<!-- Node1 -->
<g id="Node000001" class="node">
<title>Node1</title>
<g id="a_Node000001"><a xlink:title="Parent class for sensor objects.">
<polygon fill="#999999" stroke="transparent" points="217,-214 84,-214 84,0 217,0 217,-214"/>
<text text-anchor="start" x="134" y="-202" font-family="Helvetica,sans-Serif" font-size="10.00">Sensor</text>
<text text-anchor="start" x="149" y="-187" font-family="Helvetica,sans-Serif" font-size="10.00"> </text>
<text text-anchor="start" x="88.5" y="-172" font-family="Helvetica,sans-Serif" font-size="10.00">+</text>
<text text-anchor="start" x="101.5" y="-172" font-family="Helvetica,sans-Serif" font-size="10.00">Sensor()</text>
<text text-anchor="start" x="88.5" y="-157" font-family="Helvetica,sans-Serif" font-size="10.00">+</text>
<text text-anchor="start" x="101.5" y="-157" font-family="Helvetica,sans-Serif" font-size="10.00">Sensor()</text>
<text text-anchor="start" x="88.5" y="-142" font-family="Helvetica,sans-Serif" font-size="10.00">+</text>
<text text-anchor="start" x="101.5" y="-142" font-family="Helvetica,sans-Serif" font-size="10.00">getPeriod()</text>
<text text-anchor="start" x="88.5" y="-127" font-family="Helvetica,sans-Serif" font-size="10.00">+</text>
<text text-anchor="start" x="101.5" y="-127" font-family="Helvetica,sans-Serif" font-size="10.00">setPeriod()</text>
<text text-anchor="start" x="88.5" y="-112" font-family="Helvetica,sans-Serif" font-size="10.00">+</text>
<text text-anchor="start" x="101.5" y="-112" font-family="Helvetica,sans-Serif" font-size="10.00">getLastExecution()</text>
<text text-anchor="start" x="88.5" y="-97" font-family="Helvetica,sans-Serif" font-size="10.00">+</text>
<text text-anchor="start" x="101.5" y="-97" font-family="Helvetica,sans-Serif" font-size="10.00">setLastExecution()</text>
<text text-anchor="start" x="88.5" y="-82" font-family="Helvetica,sans-Serif" font-size="10.00">+</text>
<text text-anchor="start" x="101.5" y="-82" font-family="Helvetica,sans-Serif" font-size="10.00">getSensorName()</text>
<text text-anchor="start" x="88.5" y="-67" font-family="Helvetica,sans-Serif" font-size="10.00">+</text>
<text text-anchor="start" x="101.5" y="-67" font-family="Helvetica,sans-Serif" font-size="10.00">getSensorCSVHeader()</text>
<text text-anchor="start" x="88.5" y="-52" font-family="Helvetica,sans-Serif" font-size="10.00">+</text>
<text text-anchor="start" x="101.5" y="-52" font-family="Helvetica,sans-Serif" font-size="10.00">verify()</text>
<text text-anchor="start" x="88.5" y="-37" font-family="Helvetica,sans-Serif" font-size="10.00">+</text>
<text text-anchor="start" x="101.5" y="-37" font-family="Helvetica,sans-Serif" font-size="10.00">readData()</text>
<text text-anchor="start" x="88.5" y="-22" font-family="Helvetica,sans-Serif" font-size="10.00">+</text>
<text text-anchor="start" x="101.5" y="-22" font-family="Helvetica,sans-Serif" font-size="10.00">readEmpty()</text>
<text text-anchor="start" x="88.5" y="-7" font-family="Helvetica,sans-Serif" font-size="10.00">+</text>
<text text-anchor="start" x="101.5" y="-7" font-family="Helvetica,sans-Serif" font-size="10.00">getDataCSV()</text>
<polygon fill="#666666" stroke="#666666" points="84.5,-197 84.5,-197 217.5,-197 217.5,-197 84.5,-197"/>
<polygon fill="#666666" stroke="#666666" points="84.5,-182 84.5,-182 217.5,-182 217.5,-182 84.5,-182"/>
<polygon fill="none" stroke="#666666" points="84,0 84,-214 217,-214 217,0 84,0"/>
</a>
</g>
</g>
<!-- Node2 -->
<g id="Node000002" class="node">
<title>Node2</title>
<g id="a_Node000002"><a xlink:title=" ">
<polygon fill="white" stroke="transparent" points="79,-321 0,-321 0,-272 79,-272 79,-321"/>
<text text-anchor="start" x="5.5" y="-308.5" font-family="Helvetica,sans-Serif" font-size="10.00">unsigned long</text>
<text text-anchor="start" x="38" y="-293.5" font-family="Helvetica,sans-Serif" font-size="10.00"> </text>
<text text-anchor="start" x="38" y="-278.5" font-family="Helvetica,sans-Serif" font-size="10.00"> </text>
<polygon fill="#666666" stroke="#666666" points="0.5,-303.5 0.5,-303.5 79.5,-303.5 79.5,-303.5 0.5,-303.5"/>
<polygon fill="#666666" stroke="#666666" points="0.5,-288.5 0.5,-288.5 79.5,-288.5 79.5,-288.5 0.5,-288.5"/>
<polygon fill="none" stroke="#666666" points="0,-272 0,-321 79,-321 79,-272 0,-272"/>
</a>
</g>
</g>
<!-- Node2&#45;&gt;Node1 -->
<g id="edge1_Node000001_Node000002" class="edge">
<title>Node2&#45;&gt;Node1</title>
<g id="a_edge1_Node000001_Node000002"><a xlink:title=" ">
<path fill="none" stroke="#63b8ff" d="M44.5,-271.84C47.6,-259.56 52.21,-244.55 58.5,-232 63.96,-221.1 70.38,-210.17 77.25,-199.55"/>
<polygon fill="none" stroke="#63b8ff" points="77.31,-199.46 77.31,-192.25 83.96,-189.47 83.97,-196.68 77.31,-199.46"/>
</a>
</g>
<text text-anchor="middle" x="102.5" y="-246" font-family="Helvetica,sans-Serif" font-size="10.00" fill="grey"> &#45;last_execution</text>
<text text-anchor="middle" x="102.5" y="-235" font-family="Helvetica,sans-Serif" font-size="10.00" fill="grey">&#45;minimum_period</text>
</g>
<!-- Node3 -->
<g id="Node000003" class="node">
<title>Node3</title>
<g id="a_Node000003"><a xlink:title=" ">
<polygon fill="white" stroke="transparent" points="170,-321 131,-321 131,-272 170,-272 170,-321"/>
<text text-anchor="start" x="136.5" y="-308.5" font-family="Helvetica,sans-Serif" font-size="10.00">String</text>
<text text-anchor="start" x="149" y="-293.5" font-family="Helvetica,sans-Serif" font-size="10.00"> </text>
<text text-anchor="start" x="149" y="-278.5" font-family="Helvetica,sans-Serif" font-size="10.00"> </text>
<polygon fill="#666666" stroke="#666666" points="131.5,-303.5 131.5,-303.5 170.5,-303.5 170.5,-303.5 131.5,-303.5"/>
<polygon fill="#666666" stroke="#666666" points="131.5,-288.5 131.5,-288.5 170.5,-288.5 170.5,-288.5 131.5,-288.5"/>
<polygon fill="none" stroke="#666666" points="131,-272 131,-321 170,-321 170,-272 131,-272"/>
</a>
</g>
</g>
<!-- Node3&#45;&gt;Node1 -->
<g id="edge2_Node000001_Node000003" class="edge">
<title>Node3&#45;&gt;Node1</title>
<g id="a_edge2_Node000001_Node000003"><a xlink:title=" ">
<path fill="none" stroke="#63b8ff" d="M150.5,-271.75C150.5,-259.5 150.5,-243.55 150.5,-226.41"/>
<polygon fill="none" stroke="#63b8ff" points="150.5,-226.39 146.5,-220.39 150.5,-214.39 154.5,-220.39 150.5,-226.39"/>
</a>
</g>
<text text-anchor="middle" x="185.5" y="-246" font-family="Helvetica,sans-Serif" font-size="10.00" fill="grey"> &#45;csv_header</text>
<text text-anchor="middle" x="185.5" y="-235" font-family="Helvetica,sans-Serif" font-size="10.00" fill="grey">&#45;sensor_name</text>
</g>
<!-- Node4 -->
<g id="Node000004" class="node">
<title>Node4</title>
<g id="a_Node000004"><a xlink:title=" ">
<polygon fill="white" stroke="transparent" points="255,-321 232,-321 232,-272 255,-272 255,-321"/>
<text text-anchor="start" x="237.5" y="-308.5" font-family="Helvetica,sans-Serif" font-size="10.00">int</text>
<text text-anchor="start" x="242" y="-293.5" font-family="Helvetica,sans-Serif" font-size="10.00"> </text>
<text text-anchor="start" x="242" y="-278.5" font-family="Helvetica,sans-Serif" font-size="10.00"> </text>
<polygon fill="#666666" stroke="#666666" points="232.5,-303.5 232.5,-303.5 255.5,-303.5 255.5,-303.5 232.5,-303.5"/>
<polygon fill="#666666" stroke="#666666" points="232.5,-288.5 232.5,-288.5 255.5,-288.5 255.5,-288.5 232.5,-288.5"/>
<polygon fill="none" stroke="#666666" points="232,-272 232,-321 255,-321 255,-272 232,-272"/>
</a>
</g>
</g>
<!-- Node4&#45;&gt;Node1 -->
<g id="edge3_Node000001_Node000004" class="edge">
<title>Node4&#45;&gt;Node1</title>
<g id="a_edge3_Node000001_Node000004"><a xlink:title=" ">
<path fill="none" stroke="#63b8ff" d="M236.47,-271.87C232.58,-259.74 227.34,-244.85 221.5,-232 220.46,-229.71 219.39,-227.4 218.29,-225.08"/>
<polygon fill="none" stroke="#63b8ff" points="218.24,-224.99 212.02,-221.35 212.99,-214.2 219.21,-217.85 218.24,-224.99"/>
</a>
</g>
<text text-anchor="middle" x="246.5" y="-240.5" font-family="Helvetica,sans-Serif" font-size="10.00" fill="grey"> &#45;fields</text>
</g>
</g>
</svg>
</svg>

<style type='text/css'>
<![CDATA[
[data-mouse-over-selected='false'] { opacity: 0.7; }
[data-mouse-over-selected='true']  { opacity: 1.0; }
]]>
</style>
<script type="application/ecmascript"><![CDATA[
document.addEventListener('DOMContentLoaded', (event) => {
  highlightEdges();
  highlightAdjacentNodes();
});
]]></script>
</svg>
