<?xml version="1.0" encoding="UTF-8" standalone="no"?>
<!DOCTYPE svg PUBLIC "-//W3C//DTD SVG 1.1//EN"
 "http://www.w3.org/Graphics/SVG/1.1/DTD/svg11.dtd">
<!-- Generated by graphviz version 2.43.0 (0)
 -->
<!-- Title: ZOPT220x_Control::getAdjustedUVIndex Pages: 1 -->
<svg width="567pt" height="38pt"
 viewBox="0.00 0.00 567.00 38.00" xmlns="http://www.w3.org/2000/svg" xmlns:xlink="http://www.w3.org/1999/xlink">
<g id="graph0" class="graph" transform="scale(1 1) rotate(0) translate(4 34)">
<title>ZOPT220x_Control::getAdjustedUVIndex</title>
<!-- Node1 -->
<g id="Node000001" class="node">
<title>Node1</title>
<g id="a_Node000001"><a xlink:title=" ">
<polygon fill="#999999" stroke="#666666" points="559,-30 387,-30 387,0 559,0 559,-30"/>
<text text-anchor="start" x="395" y="-18" font-family="Helvetica,sans-Serif" font-size="10.00">ZOPT220x_Control::getAdjusted</text>
<text text-anchor="middle" x="473" y="-7" font-family="Helvetica,sans-Serif" font-size="10.00">UVIndex</text>
</a>
</g>
</g>
<!-- Node2 -->
<g id="Node000002" class="node">
<title>Node2</title>
<g id="a_Node000002"><a xlink:href="classZOPT220x__Control.html#a1233f73c507efe1393d84b9d88b4a023" target="_top" xlink:title=" ">
<polygon fill="white" stroke="#666666" points="351,-24.5 181,-24.5 181,-5.5 351,-5.5 351,-24.5"/>
<text text-anchor="middle" x="266" y="-12.5" font-family="Helvetica,sans-Serif" font-size="10.00">ZOPT220x_Control::getUVIndex</text>
</a>
</g>
</g>
<!-- Node1&#45;&gt;Node2 -->
<g id="edge1_Node000001_Node000002" class="edge">
<title>Node1&#45;&gt;Node2</title>
<g id="a_edge1_Node000001_Node000002"><a xlink:title=" ">
<path fill="none" stroke="#63b8ff" d="M376.57,-15C368.11,-15 359.59,-15 351.23,-15"/>
<polygon fill="#63b8ff" stroke="#63b8ff" points="376.84,-18.5 386.84,-15 376.84,-11.5 376.84,-18.5"/>
</a>
</g>
</g>
<!-- Node3 -->
<g id="Node000003" class="node">
<title>Node3</title>
<g id="a_Node000003"><a xlink:href="classZOPT220Sensor.html#a6aeb56062c5ff976d199ae407df9ed6c" target="_top" xlink:title="Reads data from the ZOPT220x sensor and returns it in CSV format.">
<polygon fill="white" stroke="#666666" points="145,-24.5 0,-24.5 0,-5.5 145,-5.5 145,-24.5"/>
<text text-anchor="middle" x="72.5" y="-12.5" font-family="Helvetica,sans-Serif" font-size="10.00">ZOPT220Sensor::readData</text>
</a>
</g>
</g>
<!-- Node2&#45;&gt;Node3 -->
<g id="edge2_Node000002_Node000003" class="edge">
<title>Node2&#45;&gt;Node3</title>
<g id="a_edge2_Node000002_Node000003"><a xlink:title=" ">
<path fill="none" stroke="#63b8ff" d="M170.7,-15C162.13,-15 153.55,-15 145.23,-15"/>
<polygon fill="#63b8ff" stroke="#63b8ff" points="170.73,-18.5 180.73,-15 170.73,-11.5 170.73,-18.5"/>
</a>
</g>
</g>
</g>
</svg>
