<?xml version="1.0" encoding="UTF-8" standalone="no"?>
<!DOCTYPE svg PUBLIC "-//W3C//DTD SVG 1.1//EN"
 "http://www.w3.org/Graphics/SVG/1.1/DTD/svg11.dtd">
<!-- Generated by graphviz version 2.43.0 (0)
 -->
<!-- Title: Storage Pages: 1 -->
<svg width="331pt" height="237pt"
 viewBox="0.00 0.00 330.50 237.00" xmlns="http://www.w3.org/2000/svg" xmlns:xlink="http://www.w3.org/1999/xlink">
<g id="graph0" class="graph" transform="scale(1 1) rotate(0) translate(4 233)">
<title>Storage</title>
<!-- Node1 -->
<g id="node1" class="node">
<title>Node1</title>
<g id="a_node1"><a xlink:title="Parent class for all data storage devices (sd card, radio, etc)">
<polygon fill="#bfbfbf" stroke="black" points="108.5,-138.5 108.5,-228.5 226.5,-228.5 226.5,-138.5 108.5,-138.5"/>
<text text-anchor="middle" x="167.5" y="-216.5" font-family="Helvetica,sans-Serif" font-size="10.00">Storage</text>
<polyline fill="none" stroke="black" points="108.5,-209.5 226.5,-209.5 "/>
<text text-anchor="start" x="116.5" y="-197.5" font-family="Helvetica,sans-Serif" font-size="10.00">&#45; storage_name</text>
<polyline fill="none" stroke="black" points="108.5,-190.5 226.5,-190.5 "/>
<text text-anchor="start" x="116.5" y="-178.5" font-family="Helvetica,sans-Serif" font-size="10.00">+ Storage()</text>
<text text-anchor="start" x="116.5" y="-167.5" font-family="Helvetica,sans-Serif" font-size="10.00">+ getStorageName()</text>
<text text-anchor="start" x="116.5" y="-156.5" font-family="Helvetica,sans-Serif" font-size="10.00">+ verify()</text>
<text text-anchor="start" x="116.5" y="-145.5" font-family="Helvetica,sans-Serif" font-size="10.00">+ store()</text>
</a>
</g>
</g>
<!-- Node2 -->
<g id="node2" class="node">
<title>Node2</title>
<g id="a_node2"><a xlink:href="classFlashStorage.html" target="_top" xlink:title=" ">
<polygon fill="none" stroke="black" points="0,-0.5 0,-101.5 99,-101.5 99,-0.5 0,-0.5"/>
<text text-anchor="middle" x="49.5" y="-89.5" font-family="Helvetica,sans-Serif" font-size="10.00">FlashStorage</text>
<polyline fill="none" stroke="black" points="0,-82.5 99,-82.5 "/>
<text text-anchor="start" x="8" y="-70.5" font-family="Helvetica,sans-Serif" font-size="10.00">&#45; file_name</text>
<text text-anchor="start" x="8" y="-59.5" font-family="Helvetica,sans-Serif" font-size="10.00">&#45; flash</text>
<text text-anchor="start" x="8" y="-48.5" font-family="Helvetica,sans-Serif" font-size="10.00">&#45; position</text>
<polyline fill="none" stroke="black" points="0,-41.5 99,-41.5 "/>
<text text-anchor="start" x="8" y="-29.5" font-family="Helvetica,sans-Serif" font-size="10.00">+ FlashStorage()</text>
<text text-anchor="start" x="8" y="-18.5" font-family="Helvetica,sans-Serif" font-size="10.00">+ verify()</text>
<text text-anchor="start" x="8" y="-7.5" font-family="Helvetica,sans-Serif" font-size="10.00">+ store()</text>
</a>
</g>
</g>
<!-- Node1&#45;&gt;Node2 -->
<g id="edge1" class="edge">
<title>Node1&#45;&gt;Node2</title>
<path fill="none" stroke="midnightblue" d="M120.67,-130.71C111.98,-121.09 102.91,-111.07 94.28,-101.52"/>
<polygon fill="none" stroke="midnightblue" points="118.25,-133.25 127.55,-138.32 123.44,-128.55 118.25,-133.25"/>
</g>
<!-- Node3 -->
<g id="node3" class="node">
<title>Node3</title>
<g id="a_node3"><a xlink:href="classRadioStorage.html" target="_top" xlink:title="Implementation of a Storage device to interface with an SD card.">
<polygon fill="none" stroke="black" points="117,-11.5 117,-90.5 218,-90.5 218,-11.5 117,-11.5"/>
<text text-anchor="middle" x="167.5" y="-78.5" font-family="Helvetica,sans-Serif" font-size="10.00">RadioStorage</text>
<polyline fill="none" stroke="black" points="117,-71.5 218,-71.5 "/>
<text text-anchor="start" x="125" y="-59.5" font-family="Helvetica,sans-Serif" font-size="10.00">&#45; file_name</text>
<polyline fill="none" stroke="black" points="117,-52.5 218,-52.5 "/>
<text text-anchor="start" x="125" y="-40.5" font-family="Helvetica,sans-Serif" font-size="10.00">+ RadioStorage()</text>
<text text-anchor="start" x="125" y="-29.5" font-family="Helvetica,sans-Serif" font-size="10.00">+ verify()</text>
<text text-anchor="start" x="125" y="-18.5" font-family="Helvetica,sans-Serif" font-size="10.00">+ store()</text>
</a>
</g>
</g>
<!-- Node1&#45;&gt;Node3 -->
<g id="edge2" class="edge">
<title>Node1&#45;&gt;Node3</title>
<path fill="none" stroke="midnightblue" d="M167.5,-128.02C167.5,-115.55 167.5,-102.55 167.5,-90.89"/>
<polygon fill="none" stroke="midnightblue" points="164,-128.32 167.5,-138.32 171,-128.32 164,-128.32"/>
</g>
<!-- Node4 -->
<g id="node4" class="node">
<title>Node4</title>
<g id="a_node4"><a xlink:href="classSDStorage.html" target="_top" xlink:title="Implementation of a Storage device to interface with an SD card.">
<polygon fill="none" stroke="black" points="236.5,-6 236.5,-96 322.5,-96 322.5,-6 236.5,-6"/>
<text text-anchor="middle" x="279.5" y="-84" font-family="Helvetica,sans-Serif" font-size="10.00">SDStorage</text>
<polyline fill="none" stroke="black" points="236.5,-77 322.5,-77 "/>
<text text-anchor="start" x="244.5" y="-65" font-family="Helvetica,sans-Serif" font-size="10.00">&#45; file_name</text>
<text text-anchor="start" x="244.5" y="-54" font-family="Helvetica,sans-Serif" font-size="10.00">&#45; sd_spi_1</text>
<polyline fill="none" stroke="black" points="236.5,-47 322.5,-47 "/>
<text text-anchor="start" x="244.5" y="-35" font-family="Helvetica,sans-Serif" font-size="10.00">+ SDStorage()</text>
<text text-anchor="start" x="244.5" y="-24" font-family="Helvetica,sans-Serif" font-size="10.00">+ verify()</text>
<text text-anchor="start" x="244.5" y="-13" font-family="Helvetica,sans-Serif" font-size="10.00">+ store()</text>
</a>
</g>
</g>
<!-- Node1&#45;&gt;Node4 -->
<g id="edge3" class="edge">
<title>Node1&#45;&gt;Node4</title>
<path fill="none" stroke="midnightblue" d="M212.09,-130.54C221.87,-119.15 232.14,-107.19 241.62,-96.14"/>
<polygon fill="none" stroke="midnightblue" points="209.27,-128.45 205.42,-138.32 214.59,-133.01 209.27,-128.45"/>
</g>
</g>
</svg>
