<?xml version="1.0" encoding="UTF-8" standalone="no"?>
<!DOCTYPE svg PUBLIC "-//W3C//DTD SVG 1.1//EN"
 "http://www.w3.org/Graphics/SVG/1.1/DTD/svg11.dtd">
<!-- Generated by graphviz version 2.43.0 (0)
 -->
<!-- Title: Sensor::readEmpty Pages: 1 -->
<svg width="496pt" height="66pt"
 viewBox="0.00 0.00 496.00 66.00" xmlns="http://www.w3.org/2000/svg" xmlns:xlink="http://www.w3.org/1999/xlink">
<g id="graph0" class="graph" transform="scale(1 1) rotate(0) translate(4 62)">
<title>Sensor::readEmpty</title>
<!-- Node1 -->
<g id="node1" class="node">
<title>Node1</title>
<g id="a_node1"><a xlink:title="Returns CSV line in the same format as readData() but with &quot;&#45;&quot; instead of data.">
<polygon fill="#bfbfbf" stroke="black" points="379,-19.5 379,-38.5 488,-38.5 488,-19.5 379,-19.5"/>
<text text-anchor="middle" x="433.5" y="-26.5" font-family="Helvetica,sans-Serif" font-size="10.00">Sensor::readEmpty</text>
</a>
</g>
</g>
<!-- Node2 -->
<g id="node2" class="node">
<title>Node2</title>
<g id="a_node2"><a xlink:href="classSensor.html#a2d5ecda6a046ddba40d0e37921226d2f" target="_top" xlink:title="Uses readData and readEmpty to get the data&#45;filled or empty&#45;celled CSV line for the sensor.">
<polygon fill="none" stroke="black" points="217,-38.5 217,-57.5 331,-57.5 331,-38.5 217,-38.5"/>
<text text-anchor="middle" x="274" y="-45.5" font-family="Helvetica,sans-Serif" font-size="10.00">Sensor::getDataCSV</text>
</a>
</g>
</g>
<!-- Node1&#45;&gt;Node2 -->
<g id="edge1" class="edge">
<title>Node1&#45;&gt;Node2</title>
<path fill="none" stroke="midnightblue" d="M368.5,-36.72C356.15,-38.21 343.29,-39.76 331.2,-41.22"/>
<polygon fill="midnightblue" stroke="midnightblue" points="369.23,-40.16 378.74,-35.49 368.39,-33.21 369.23,-40.16"/>
</g>
<!-- Node5 -->
<g id="node5" class="node">
<title>Node5</title>
<g id="a_node5"><a xlink:href="classENS160Sensor.html#a4c6fb31bf074f299bc7c0d4bb1c344ac" target="_top" xlink:title="Reads Air Quality Index, TVOC (ppb), and ECOS (ppm)">
<polygon fill="none" stroke="black" points="205,-0.5 205,-19.5 343,-19.5 343,-0.5 205,-0.5"/>
<text text-anchor="middle" x="274" y="-7.5" font-family="Helvetica,sans-Serif" font-size="10.00">ENS160Sensor::readData</text>
</a>
</g>
</g>
<!-- Node1&#45;&gt;Node5 -->
<g id="edge4" class="edge">
<title>Node1&#45;&gt;Node5</title>
<path fill="none" stroke="midnightblue" d="M368.6,-21.29C360.17,-20.27 351.5,-19.23 343,-18.2"/>
<polygon fill="midnightblue" stroke="midnightblue" points="368.39,-24.79 378.74,-22.51 369.23,-17.84 368.39,-24.79"/>
</g>
<!-- Node3 -->
<g id="node3" class="node">
<title>Node3</title>
<g id="a_node3"><a xlink:href="main_8cpp.html#a9db5e6113d9a0bd03a1b044059ae787b" target="_top" xlink:title="Read data from each verified Sensor.">
<polygon fill="none" stroke="black" points="74,-38.5 74,-57.5 169,-57.5 169,-38.5 74,-38.5"/>
<text text-anchor="middle" x="121.5" y="-45.5" font-family="Helvetica,sans-Serif" font-size="10.00">readSensorData</text>
</a>
</g>
</g>
<!-- Node2&#45;&gt;Node3 -->
<g id="edge2" class="edge">
<title>Node2&#45;&gt;Node3</title>
<path fill="none" stroke="midnightblue" d="M206.89,-48C194.19,-48 181.15,-48 169.23,-48"/>
<polygon fill="midnightblue" stroke="midnightblue" points="206.96,-51.5 216.96,-48 206.96,-44.5 206.96,-51.5"/>
</g>
<!-- Node4 -->
<g id="node4" class="node">
<title>Node4</title>
<g id="a_node4"><a xlink:href="main_8cpp.html#afe461d27b9c48d5921c00d521181f12f" target="_top" xlink:title="Loop for core 0, handling sensor reads.">
<polygon fill="none" stroke="black" points="0,-38.5 0,-57.5 38,-57.5 38,-38.5 0,-38.5"/>
<text text-anchor="middle" x="19" y="-45.5" font-family="Helvetica,sans-Serif" font-size="10.00">loop</text>
</a>
</g>
</g>
<!-- Node3&#45;&gt;Node4 -->
<g id="edge3" class="edge">
<title>Node3&#45;&gt;Node4</title>
<path fill="none" stroke="midnightblue" d="M63.65,-48C54.36,-48 45.39,-48 38.01,-48"/>
<polygon fill="midnightblue" stroke="midnightblue" points="63.78,-51.5 73.78,-48 63.78,-44.5 63.78,-51.5"/>
</g>
</g>
</svg>
