<?xml version="1.0" encoding="UTF-8" standalone="no"?>
<!DOCTYPE svg PUBLIC "-//W3C//DTD SVG 1.1//EN"
 "http://www.w3.org/Graphics/SVG/1.1/DTD/svg11.dtd">
<!-- Generated by graphviz version 2.43.0 (0)
 -->
<!-- Title: Storage Pages: 1 -->
<svg width="368pt" height="292pt"
 viewBox="0.00 0.00 368.00 292.00" xmlns="http://www.w3.org/2000/svg" xmlns:xlink="http://www.w3.org/1999/xlink">
<g id="graph0" class="graph" transform="scale(1 1) rotate(0) translate(4 288)">
<title>Storage</title>
<!-- Node1 -->
<g id="node1" class="node">
<title>Node1</title>
<g id="a_node1"><a xlink:title="Parent class for all data storage devices (sd card, radio, etc)">
<polygon fill="#bfbfbf" stroke="black" points="146,-193.5 146,-283.5 264,-283.5 264,-193.5 146,-193.5"/>
<text text-anchor="middle" x="205" y="-271.5" font-family="Helvetica,sans-Serif" font-size="10.00">Storage</text>
<polyline fill="none" stroke="black" points="146,-264.5 264,-264.5 "/>
<text text-anchor="start" x="154" y="-252.5" font-family="Helvetica,sans-Serif" font-size="10.00">&#45; storage_name</text>
<polyline fill="none" stroke="black" points="146,-245.5 264,-245.5 "/>
<text text-anchor="start" x="154" y="-233.5" font-family="Helvetica,sans-Serif" font-size="10.00">+ Storage()</text>
<text text-anchor="start" x="154" y="-222.5" font-family="Helvetica,sans-Serif" font-size="10.00">+ getStorageName()</text>
<text text-anchor="start" x="154" y="-211.5" font-family="Helvetica,sans-Serif" font-size="10.00">+ verify()</text>
<text text-anchor="start" x="154" y="-200.5" font-family="Helvetica,sans-Serif" font-size="10.00">+ store()</text>
</a>
</g>
</g>
<!-- Node2 -->
<g id="node2" class="node">
<title>Node2</title>
<g id="a_node2"><a xlink:href="classFlashStorage.html" target="_top" xlink:title=" ">
<polygon fill="none" stroke="black" points="0,-0.5 0,-156.5 136,-156.5 136,-0.5 0,-0.5"/>
<text text-anchor="middle" x="68" y="-144.5" font-family="Helvetica,sans-Serif" font-size="10.00">FlashStorage</text>
<polyline fill="none" stroke="black" points="0,-137.5 136,-137.5 "/>
<text text-anchor="start" x="8" y="-125.5" font-family="Helvetica,sans-Serif" font-size="10.00">&#45; flash_spi_1</text>
<text text-anchor="start" x="8" y="-114.5" font-family="Helvetica,sans-Serif" font-size="10.00">&#45; flash</text>
<text text-anchor="start" x="8" y="-103.5" font-family="Helvetica,sans-Serif" font-size="10.00">&#45; position</text>
<text text-anchor="start" x="8" y="-92.5" font-family="Helvetica,sans-Serif" font-size="10.00">&#45; DATA_START_POSITION</text>
<text text-anchor="start" x="8" y="-81.5" font-family="Helvetica,sans-Serif" font-size="10.00">&#45; MAX_SIZE</text>
<polyline fill="none" stroke="black" points="0,-74.5 136,-74.5 "/>
<text text-anchor="start" x="8" y="-62.5" font-family="Helvetica,sans-Serif" font-size="10.00">+ FlashStorage()</text>
<text text-anchor="start" x="8" y="-51.5" font-family="Helvetica,sans-Serif" font-size="10.00">+ verify()</text>
<text text-anchor="start" x="8" y="-40.5" font-family="Helvetica,sans-Serif" font-size="10.00">+ store()</text>
<text text-anchor="start" x="8" y="-29.5" font-family="Helvetica,sans-Serif" font-size="10.00">+ dump()</text>
<text text-anchor="start" x="8" y="-18.5" font-family="Helvetica,sans-Serif" font-size="10.00">+ erase()</text>
<text text-anchor="start" x="8" y="-7.5" font-family="Helvetica,sans-Serif" font-size="10.00">&#45; loadPosition()</text>
</a>
</g>
</g>
<!-- Node1&#45;&gt;Node2 -->
<g id="edge1" class="edge">
<title>Node1&#45;&gt;Node2</title>
<path fill="none" stroke="midnightblue" d="M160.15,-185.77C152.03,-176.41 143.41,-166.46 134.82,-156.56"/>
<polygon fill="none" stroke="midnightblue" points="157.64,-188.23 166.84,-193.49 162.93,-183.64 157.64,-188.23"/>
</g>
<!-- Node3 -->
<g id="node3" class="node">
<title>Node3</title>
<g id="a_node3"><a xlink:href="classRadioStorage.html" target="_top" xlink:title="Implementation of a Storage device to interface with an SD card.">
<polygon fill="none" stroke="black" points="154.5,-39 154.5,-118 255.5,-118 255.5,-39 154.5,-39"/>
<text text-anchor="middle" x="205" y="-106" font-family="Helvetica,sans-Serif" font-size="10.00">RadioStorage</text>
<polyline fill="none" stroke="black" points="154.5,-99 255.5,-99 "/>
<text text-anchor="start" x="162.5" y="-87" font-family="Helvetica,sans-Serif" font-size="10.00">&#45; file_name</text>
<polyline fill="none" stroke="black" points="154.5,-80 255.5,-80 "/>
<text text-anchor="start" x="162.5" y="-68" font-family="Helvetica,sans-Serif" font-size="10.00">+ RadioStorage()</text>
<text text-anchor="start" x="162.5" y="-57" font-family="Helvetica,sans-Serif" font-size="10.00">+ verify()</text>
<text text-anchor="start" x="162.5" y="-46" font-family="Helvetica,sans-Serif" font-size="10.00">+ store()</text>
</a>
</g>
</g>
<!-- Node1&#45;&gt;Node3 -->
<g id="edge2" class="edge">
<title>Node1&#45;&gt;Node3</title>
<path fill="none" stroke="midnightblue" d="M205,-183.23C205,-161.83 205,-137.74 205,-118.17"/>
<polygon fill="none" stroke="midnightblue" points="201.5,-183.49 205,-193.49 208.5,-183.49 201.5,-183.49"/>
</g>
<!-- Node4 -->
<g id="node4" class="node">
<title>Node4</title>
<g id="a_node4"><a xlink:href="classSDStorage.html" target="_top" xlink:title="Implementation of a Storage device to interface with an SD card.">
<polygon fill="none" stroke="black" points="274,-33.5 274,-123.5 360,-123.5 360,-33.5 274,-33.5"/>
<text text-anchor="middle" x="317" y="-111.5" font-family="Helvetica,sans-Serif" font-size="10.00">SDStorage</text>
<polyline fill="none" stroke="black" points="274,-104.5 360,-104.5 "/>
<text text-anchor="start" x="282" y="-92.5" font-family="Helvetica,sans-Serif" font-size="10.00">&#45; file_name</text>
<text text-anchor="start" x="282" y="-81.5" font-family="Helvetica,sans-Serif" font-size="10.00">&#45; sd_spi_1</text>
<polyline fill="none" stroke="black" points="274,-74.5 360,-74.5 "/>
<text text-anchor="start" x="282" y="-62.5" font-family="Helvetica,sans-Serif" font-size="10.00">+ SDStorage()</text>
<text text-anchor="start" x="282" y="-51.5" font-family="Helvetica,sans-Serif" font-size="10.00">+ verify()</text>
<text text-anchor="start" x="282" y="-40.5" font-family="Helvetica,sans-Serif" font-size="10.00">+ store()</text>
</a>
</g>
</g>
<!-- Node1&#45;&gt;Node4 -->
<g id="edge3" class="edge">
<title>Node1&#45;&gt;Node4</title>
<path fill="none" stroke="midnightblue" d="M244.69,-185.03C251.54,-175.75 258.54,-166.13 265,-157 272.58,-146.29 280.57,-134.59 287.95,-123.61"/>
<polygon fill="none" stroke="midnightblue" points="241.87,-182.96 238.72,-193.08 247.49,-187.13 241.87,-182.96"/>
</g>
</g>
</svg>
