<?xml version="1.0" encoding="UTF-8" standalone="no"?>
<!DOCTYPE svg PUBLIC "-//W3C//DTD SVG 1.1//EN"
 "http://www.w3.org/Graphics/SVG/1.1/DTD/svg11.dtd">
<!-- Generated by graphviz version 2.43.0 (0)
 -->
<!-- Title: ZOPT220x_Control::zopt220xSetup Pages: 1 -->
<svg width="811pt" height="188pt"
 viewBox="0.00 0.00 811.00 187.50" xmlns="http://www.w3.org/2000/svg" xmlns:xlink="http://www.w3.org/1999/xlink">
<g id="graph0" class="graph" transform="scale(1 1) rotate(0) translate(4 183.5)">
<title>ZOPT220x_Control::zopt220xSetup</title>
<!-- Node1 -->
<g id="Node000001" class="node">
<title>Node1</title>
<g id="a_Node000001"><a xlink:title=" ">
<polygon fill="#999999" stroke="#666666" points="158,-98.5 0,-98.5 0,-68.5 158,-68.5 158,-98.5"/>
<text text-anchor="start" x="8" y="-86.5" font-family="Helvetica,sans-Serif" font-size="10.00">ZOPT220x_Control::zopt220x</text>
<text text-anchor="middle" x="79" y="-75.5" font-family="Helvetica,sans-Serif" font-size="10.00">Setup</text>
</a>
</g>
</g>
<!-- Node2 -->
<g id="Node000002" class="node">
<title>Node2</title>
<g id="a_Node000002"><a xlink:href="classZOPT220x__Control.html#adc20ce356a572b8039ba96b9160e97c4" target="_top" xlink:title=" ">
<polygon fill="white" stroke="#666666" points="352,-98.5 194,-98.5 194,-68.5 352,-68.5 352,-98.5"/>
<text text-anchor="start" x="202" y="-86.5" font-family="Helvetica,sans-Serif" font-size="10.00">ZOPT220x_Control::zopt220x</text>
<text text-anchor="middle" x="273" y="-75.5" font-family="Helvetica,sans-Serif" font-size="10.00">SetupWithAddress</text>
</a>
</g>
</g>
<!-- Node1&#45;&gt;Node2 -->
<g id="edge1_Node000001_Node000002" class="edge">
<title>Node1&#45;&gt;Node2</title>
<g id="a_edge1_Node000001_Node000002"><a xlink:title=" ">
<path fill="none" stroke="#63b8ff" d="M158.09,-83.5C166.6,-83.5 175.3,-83.5 183.92,-83.5"/>
<polygon fill="#63b8ff" stroke="#63b8ff" points="183.98,-87 193.98,-83.5 183.98,-80 183.98,-87"/>
</a>
</g>
</g>
<!-- Node3 -->
<g id="Node000003" class="node">
<title>Node3</title>
<g id="a_Node000003"><a xlink:href="classZOPT220x__Control.html#a8eb237d4b6eb8513893d99d3163fc094" target="_top" xlink:title=" ">
<polygon fill="white" stroke="#666666" points="583,-179.5 411,-179.5 411,-149.5 583,-149.5 583,-179.5"/>
<text text-anchor="start" x="419" y="-167.5" font-family="Helvetica,sans-Serif" font-size="10.00">ZOPT220x_Control::checkPower</text>
<text text-anchor="middle" x="497" y="-156.5" font-family="Helvetica,sans-Serif" font-size="10.00">OnStatus</text>
</a>
</g>
</g>
<!-- Node2&#45;&gt;Node3 -->
<g id="edge2_Node000002_Node000003" class="edge">
<title>Node2&#45;&gt;Node3</title>
<g id="a_edge2_Node000002_Node000003"><a xlink:title=" ">
<path fill="none" stroke="#63b8ff" d="M303.44,-98.56C326.14,-109.77 358.52,-124.9 388,-135.5 399.2,-139.53 411.24,-143.29 423.06,-146.68"/>
<polygon fill="#63b8ff" stroke="#63b8ff" points="422.35,-150.12 432.92,-149.44 424.24,-143.38 422.35,-150.12"/>
</a>
</g>
</g>
<!-- Node4 -->
<g id="Node000004" class="node">
<title>Node4</title>
<g id="a_Node000004"><a xlink:href="classZOPT220x__Control.html#a58c74577acc1183a66b1f9b9281551a3" target="_top" xlink:title=" ">
<polygon fill="white" stroke="#666666" points="802,-103.5 643,-103.5 643,-73.5 802,-73.5 802,-103.5"/>
<text text-anchor="start" x="651" y="-91.5" font-family="Helvetica,sans-Serif" font-size="10.00">ZOPT220x_Control::zoptRead</text>
<text text-anchor="middle" x="722.5" y="-80.5" font-family="Helvetica,sans-Serif" font-size="10.00">Register</text>
</a>
</g>
</g>
<!-- Node2&#45;&gt;Node4 -->
<g id="edge13_Node000002_Node000004" class="edge">
<title>Node2&#45;&gt;Node4</title>
<g id="a_edge13_Node000002_Node000004"><a xlink:title=" ">
<path fill="none" stroke="#63b8ff" d="M352.28,-98.29C364.21,-100.04 376.4,-101.54 388,-102.5 484.56,-110.49 509.29,-108.34 606,-102.5 614.64,-101.98 623.63,-101.24 632.6,-100.37"/>
<polygon fill="#63b8ff" stroke="#63b8ff" points="633.12,-103.83 642.71,-99.34 632.41,-96.87 633.12,-103.83"/>
</a>
</g>
</g>
<!-- Node5 -->
<g id="Node000005" class="node">
<title>Node5</title>
<g id="a_Node000005"><a xlink:href="classZOPT220x__Control.html#afa9fab0ef429c9e7a46afd752a2ee44d" target="_top" xlink:title=" ">
<polygon fill="white" stroke="#666666" points="572.5,-93 421.5,-93 421.5,-74 572.5,-74 572.5,-93"/>
<text text-anchor="middle" x="497" y="-81" font-family="Helvetica,sans-Serif" font-size="10.00">ZOPT220x_Control::setGain</text>
</a>
</g>
</g>
<!-- Node2&#45;&gt;Node5 -->
<g id="edge4_Node000002_Node000005" class="edge">
<title>Node2&#45;&gt;Node5</title>
<g id="a_edge4_Node000002_Node000005"><a xlink:title=" ">
<path fill="none" stroke="#63b8ff" d="M352.27,-83.5C371.4,-83.5 391.96,-83.5 411.38,-83.5"/>
<polygon fill="#63b8ff" stroke="#63b8ff" points="411.42,-87 421.42,-83.5 411.42,-80 411.42,-87"/>
</a>
</g>
</g>
<!-- Node7 -->
<g id="Node000007" class="node">
<title>Node7</title>
<g id="a_Node000007"><a xlink:href="classZOPT220x__Control.html#a809d1f5db2a9f0884fa82e0b77b944bf" target="_top" xlink:title=" ">
<polygon fill="white" stroke="#666666" points="606,-56 388,-56 388,-37 606,-37 606,-56"/>
<text text-anchor="middle" x="497" y="-44" font-family="Helvetica,sans-Serif" font-size="10.00">ZOPT220x_Control::setMeasurementRate</text>
</a>
</g>
</g>
<!-- Node2&#45;&gt;Node7 -->
<g id="edge7_Node000002_Node000007" class="edge">
<title>Node2&#45;&gt;Node7</title>
<g id="a_edge7_Node000002_Node000007"><a xlink:title=" ">
<path fill="none" stroke="#63b8ff" d="M352.27,-70.46C377.17,-66.3 404.49,-61.75 428.56,-57.74"/>
<polygon fill="#63b8ff" stroke="#63b8ff" points="429.37,-61.15 438.66,-56.06 428.22,-54.25 429.37,-61.15"/>
</a>
</g>
</g>
<!-- Node8 -->
<g id="Node000008" class="node">
<title>Node8</title>
<g id="a_Node000008"><a xlink:href="classZOPT220x__Control.html#aa8d79db36ab65e003f87a493f720233d" target="_top" xlink:title=" ">
<polygon fill="white" stroke="#666666" points="587,-19 407,-19 407,0 587,0 587,-19"/>
<text text-anchor="middle" x="497" y="-7" font-family="Helvetica,sans-Serif" font-size="10.00">ZOPT220x_Control::setResolution</text>
</a>
</g>
</g>
<!-- Node2&#45;&gt;Node8 -->
<g id="edge10_Node000002_Node000008" class="edge">
<title>Node2&#45;&gt;Node8</title>
<g id="a_edge10_Node000002_Node000008"><a xlink:title=" ">
<path fill="none" stroke="#63b8ff" d="M299.36,-68.36C321.88,-55.57 356.09,-37.75 388,-27.5 395.53,-25.08 403.46,-22.97 411.46,-21.14"/>
<polygon fill="#63b8ff" stroke="#63b8ff" points="412.21,-24.56 421.25,-19.04 410.73,-17.72 412.21,-24.56"/>
</a>
</g>
</g>
<!-- Node3&#45;&gt;Node4 -->
<g id="edge3_Node000003_Node000004" class="edge">
<title>Node3&#45;&gt;Node4</title>
<g id="a_edge3_Node000003_Node000004"><a xlink:title=" ">
<path fill="none" stroke="#63b8ff" d="M559.23,-149.48C574.61,-145.31 591,-140.54 606,-135.5 630.2,-127.36 656.62,-116.75 678.07,-107.66"/>
<polygon fill="#63b8ff" stroke="#63b8ff" points="679.73,-110.76 687.55,-103.61 676.98,-104.32 679.73,-110.76"/>
</a>
</g>
</g>
<!-- Node5&#45;&gt;Node4 -->
<g id="edge5_Node000005_Node000004" class="edge">
<title>Node5&#45;&gt;Node4</title>
<g id="a_edge5_Node000005_Node000004"><a xlink:title=" ">
<path fill="none" stroke="#63b8ff" d="M572.73,-85.17C591.86,-85.6 612.62,-86.06 632.39,-86.51"/>
<polygon fill="#63b8ff" stroke="#63b8ff" points="632.55,-90.01 642.63,-86.74 632.71,-83.01 632.55,-90.01"/>
</a>
</g>
</g>
<!-- Node6 -->
<g id="Node000006" class="node">
<title>Node6</title>
<g id="a_Node000006"><a xlink:href="classZOPT220x__Control.html#ab5f43fd630eaaadeea212559e12648be" target="_top" xlink:title=" ">
<polygon fill="white" stroke="#666666" points="803,-55.5 642,-55.5 642,-25.5 803,-25.5 803,-55.5"/>
<text text-anchor="start" x="650" y="-43.5" font-family="Helvetica,sans-Serif" font-size="10.00">ZOPT220x_Control::zoptWrite</text>
<text text-anchor="middle" x="722.5" y="-32.5" font-family="Helvetica,sans-Serif" font-size="10.00">Register</text>
</a>
</g>
</g>
<!-- Node5&#45;&gt;Node6 -->
<g id="edge6_Node000005_Node000006" class="edge">
<title>Node5&#45;&gt;Node6</title>
<g id="a_edge6_Node000005_Node000006"><a xlink:title=" ">
<path fill="none" stroke="#63b8ff" d="M558.36,-73.97C573.91,-71.37 590.6,-68.45 606,-65.5 618.61,-63.09 631.95,-60.36 644.91,-57.62"/>
<polygon fill="#63b8ff" stroke="#63b8ff" points="645.68,-61.03 654.73,-55.52 644.22,-54.19 645.68,-61.03"/>
</a>
</g>
</g>
<!-- Node7&#45;&gt;Node4 -->
<g id="edge8_Node000007_Node000004" class="edge">
<title>Node7&#45;&gt;Node4</title>
<g id="a_edge8_Node000007_Node000004"><a xlink:title=" ">
<path fill="none" stroke="#63b8ff" d="M553.54,-56.03C570.4,-58.98 588.97,-62.31 606,-65.5 616.13,-67.4 626.74,-69.44 637.26,-71.5"/>
<polygon fill="#63b8ff" stroke="#63b8ff" points="636.81,-74.98 647.3,-73.47 638.16,-68.11 636.81,-74.98"/>
</a>
</g>
</g>
<!-- Node7&#45;&gt;Node6 -->
<g id="edge9_Node000007_Node000006" class="edge">
<title>Node7&#45;&gt;Node6</title>
<g id="a_edge9_Node000007_Node000006"><a xlink:title=" ">
<path fill="none" stroke="#63b8ff" d="M606.15,-43.6C614.7,-43.37 623.29,-43.14 631.7,-42.91"/>
<polygon fill="#63b8ff" stroke="#63b8ff" points="631.96,-46.41 641.86,-42.64 631.77,-39.41 631.96,-46.41"/>
</a>
</g>
</g>
<!-- Node8&#45;&gt;Node4 -->
<g id="edge11_Node000008_Node000004" class="edge">
<title>Node8&#45;&gt;Node4</title>
<g id="a_edge11_Node000008_Node000004"><a xlink:title=" ">
<path fill="none" stroke="#63b8ff" d="M585.37,-19.05C592.54,-21.33 599.52,-24.11 606,-27.5 626.33,-38.14 622.39,-52.58 642,-64.5 644.83,-66.22 647.8,-67.83 650.85,-69.33"/>
<polygon fill="#63b8ff" stroke="#63b8ff" points="649.66,-72.63 660.22,-73.5 652.51,-66.23 649.66,-72.63"/>
</a>
</g>
</g>
<!-- Node8&#45;&gt;Node6 -->
<g id="edge12_Node000008_Node000006" class="edge">
<title>Node8&#45;&gt;Node6</title>
<g id="a_edge12_Node000008_Node000006"><a xlink:title=" ">
<path fill="none" stroke="#63b8ff" d="M566.58,-19.01C587.07,-21.85 609.85,-25.01 631.5,-28.02"/>
<polygon fill="#63b8ff" stroke="#63b8ff" points="631.3,-31.52 641.69,-29.43 632.26,-24.59 631.3,-31.52"/>
</a>
</g>
</g>
</g>
</svg>
