<?xml version="1.0" encoding="UTF-8" standalone="no"?>
<!DOCTYPE svg PUBLIC "-//W3C//DTD SVG 1.1//EN"
 "http://www.w3.org/Graphics/SVG/1.1/DTD/svg11.dtd">
<!-- Generated by graphviz version 2.43.0 (0)
 -->
<!-- Title: FlashStorage Pages: 1 -->
<!--zoomable 386 -->
<svg id="main" version="1.1" xmlns="http://www.w3.org/2000/svg" xmlns:xlink="http://www.w3.org/1999/xlink" xml:space="preserve" onload="init(evt)">
<style type="text/css"><![CDATA[
.edge:hover path { stroke: red; }
.edge:hover polygon { stroke: red; fill: red; }
]]></style>
<script type="text/javascript"><![CDATA[
var edges = document.getElementsByTagName('g');
if (edges && edges.length) {
  for (var i=0;i<edges.length;i++) {
    if (edges[i].id.substr(0,4)=='edge') {
      edges[i].setAttribute('class','edge');
    }
  }
}
]]></script>
        <defs>
                <circle id="rim" cx="0" cy="0" r="7"/>
                <circle id="rim2" cx="0" cy="0" r="3.5"/>
                <g id="zoomPlus">
                        <use xlink:href="#rim" fill="#404040">
                                <set attributeName="fill" to="#808080" begin="zoomplus.mouseover" end="zoomplus.mouseout"/>
                        </use>
                        <path d="M-4,0h8M0,-4v8" fill="none" stroke="white" stroke-width="1.5" pointer-events="none"/>
                </g>
                <g id="zoomMin">
                        <use xlink:href="#rim" fill="#404040">
                                <set attributeName="fill" to="#808080" begin="zoomminus.mouseover" end="zoomminus.mouseout"/>
                        </use>
                        <path d="M-4,0h8" fill="none" stroke="white" stroke-width="1.5" pointer-events="none"/>
                </g>
                <g id="dirArrow">
                        <path fill="none" stroke="white" stroke-width="1.5" d="M0,-3.0v7 M-2.5,-0.5L0,-3.0L2.5,-0.5"/>
                </g>
               <g id="resetDef">
                       <use xlink:href="#rim2" fill="#404040">
                               <set attributeName="fill" to="#808080" begin="reset.mouseover" end="reset.mouseout"/>
                       </use>
               </g>
        </defs>

<script type="text/javascript">
var viewWidth = 607;
var viewHeight = 386;
var sectionId = 'dynsection-1';
</script>
<script xlink:href="svgpan.js"/>
<svg id="graph" class="graph">
<g id="viewport">
<title>FlashStorage</title>
<!-- Node1 -->
<g id="node1" class="node">
<title>Node1</title>
<g id="a_node1"><a xlink:title=" ">
<polygon fill="#bfbfbf" stroke="black" points="275.33,-0.5 275.33,-123.5 379.33,-123.5 379.33,-0.5 275.33,-0.5"/>
<text text-anchor="middle" x="327.33" y="-111.5" font-family="Helvetica,sans-Serif" font-size="10.00">FlashStorage</text>
<polyline fill="none" stroke="black" points="275.33,-104.5 379.33,-104.5 "/>
<text text-anchor="middle" x="327.33" y="-92.5" font-family="Helvetica,sans-Serif" font-size="10.00"> </text>
<polyline fill="none" stroke="black" points="275.33,-85.5 379.33,-85.5 "/>
<text text-anchor="start" x="283.33" y="-73.5" font-family="Helvetica,sans-Serif" font-size="10.00">+ FlashStorage()</text>
<text text-anchor="start" x="283.33" y="-62.5" font-family="Helvetica,sans-Serif" font-size="10.00">+ verify()</text>
<text text-anchor="start" x="283.33" y="-51.5" font-family="Helvetica,sans-Serif" font-size="10.00">+ store()</text>
<text text-anchor="start" x="283.33" y="-40.5" font-family="Helvetica,sans-Serif" font-size="10.00">+ dump()</text>
<text text-anchor="start" x="283.33" y="-29.5" font-family="Helvetica,sans-Serif" font-size="10.00">+ erase()</text>
<text text-anchor="start" x="283.33" y="-18.5" font-family="Helvetica,sans-Serif" font-size="10.00">&#45; loadPosition()</text>
<text text-anchor="start" x="283.33" y="-7.5" font-family="Helvetica,sans-Serif" font-size="10.00">&#45; updatePosition()</text>
</a>
</g>
</g>
<!-- Node2 -->
<g id="node2" class="node">
<title>Node2</title>
<g id="a_node2"><a xlink:href="classStorage.html" target="_top" xlink:title="Parent class for all data storage devices (sd card, radio, etc)">
<polygon fill="none" stroke="black" points="81.33,-182.5 81.33,-272.5 199.33,-272.5 199.33,-182.5 81.33,-182.5"/>
<text text-anchor="middle" x="140.33" y="-260.5" font-family="Helvetica,sans-Serif" font-size="10.00">Storage</text>
<polyline fill="none" stroke="black" points="81.33,-253.5 199.33,-253.5 "/>
<text text-anchor="middle" x="140.33" y="-241.5" font-family="Helvetica,sans-Serif" font-size="10.00"> </text>
<polyline fill="none" stroke="black" points="81.33,-234.5 199.33,-234.5 "/>
<text text-anchor="start" x="89.33" y="-222.5" font-family="Helvetica,sans-Serif" font-size="10.00">+ Storage()</text>
<text text-anchor="start" x="89.33" y="-211.5" font-family="Helvetica,sans-Serif" font-size="10.00">+ getStorageName()</text>
<text text-anchor="start" x="89.33" y="-200.5" font-family="Helvetica,sans-Serif" font-size="10.00">+ verify()</text>
<text text-anchor="start" x="89.33" y="-189.5" font-family="Helvetica,sans-Serif" font-size="10.00">+ store()</text>
</a>
</g>
</g>
<!-- Node2&#45;&gt;Node1 -->
<g id="edge1" class="edge">
<title>Node2&#45;&gt;Node1</title>
<path fill="none" stroke="midnightblue" d="M198.72,-175.44C223.15,-154.09 251.32,-129.46 275.05,-108.71"/>
<polygon fill="none" stroke="midnightblue" points="196.16,-173.04 190.93,-182.25 200.76,-178.31 196.16,-173.04"/>
</g>
<!-- Node3 -->
<g id="node3" class="node">
<title>Node3</title>
<g id="a_node3"><a xlink:title=" ">
<polygon fill="none" stroke="#bfbfbf" points="1.83,-320.5 1.83,-377.5 46.83,-377.5 46.83,-320.5 1.83,-320.5"/>
<text text-anchor="middle" x="24.33" y="-365.5" font-family="Helvetica,sans-Serif" font-size="10.00">String</text>
<polyline fill="none" stroke="#bfbfbf" points="1.83,-358.5 46.83,-358.5 "/>
<text text-anchor="middle" x="24.33" y="-346.5" font-family="Helvetica,sans-Serif" font-size="10.00"> </text>
<polyline fill="none" stroke="#bfbfbf" points="1.83,-339.5 46.83,-339.5 "/>
<text text-anchor="middle" x="24.33" y="-327.5" font-family="Helvetica,sans-Serif" font-size="10.00"> </text>
</a>
</g>
</g>
<!-- Node3&#45;&gt;Node1 -->
<g id="edge3" class="edge">
<title>Node3&#45;&gt;Node1</title>
<path fill="none" stroke="#404040" d="M13.78,-320.24C2.27,-284.83 -11.02,-223.24 17.33,-182 72.42,-101.83 189.57,-75.65 263.03,-67.11"/>
<polygon fill="none" stroke="#404040" points="263.39,-67.07 268.93,-62.46 275.32,-65.8 269.78,-70.41 263.39,-67.07"/>
<text text-anchor="middle" x="44.83" y="-225" font-family="Helvetica,sans-Serif" font-size="10.00"> &#45;file_name</text>
</g>
<!-- Node3&#45;&gt;Node2 -->
<g id="edge2" class="edge">
<title>Node3&#45;&gt;Node2</title>
<path fill="none" stroke="#404040" d="M46.97,-324.68C58.98,-312.3 74.27,-296.55 88.98,-281.39"/>
<polygon fill="none" stroke="#404040" points="89.19,-281.18 90.5,-274.09 97.55,-272.57 96.24,-279.66 89.19,-281.18"/>
<text text-anchor="middle" x="117.83" y="-294" font-family="Helvetica,sans-Serif" font-size="10.00"> &#45;storage_name</text>
</g>
<!-- Node4 -->
<g id="node4" class="node">
<title>Node4</title>
<g id="a_node4"><a xlink:title=" ">
<polygon fill="none" stroke="#bfbfbf" points="217.33,-199 217.33,-256 333.33,-256 333.33,-199 217.33,-199"/>
<text text-anchor="middle" x="275.33" y="-244" font-family="Helvetica,sans-Serif" font-size="10.00">static const uint32_t</text>
<polyline fill="none" stroke="#bfbfbf" points="217.33,-237 333.33,-237 "/>
<text text-anchor="middle" x="275.33" y="-225" font-family="Helvetica,sans-Serif" font-size="10.00"> </text>
<polyline fill="none" stroke="#bfbfbf" points="217.33,-218 333.33,-218 "/>
<text text-anchor="middle" x="275.33" y="-206" font-family="Helvetica,sans-Serif" font-size="10.00"> </text>
</a>
</g>
</g>
<!-- Node4&#45;&gt;Node1 -->
<g id="edge4" class="edge">
<title>Node4&#45;&gt;Node1</title>
<path fill="none" stroke="#404040" d="M266.52,-198.82C262.59,-181.99 260.09,-160.29 266.33,-142 267.27,-139.23 268.36,-136.49 269.56,-133.77"/>
<polygon fill="none" stroke="#404040" points="269.69,-133.51 268.83,-126.35 275.11,-122.81 275.97,-129.97 269.69,-133.51"/>
<text text-anchor="middle" x="316.83" y="-156" font-family="Helvetica,sans-Serif" font-size="10.00"> &#45;data_start_position</text>
<text text-anchor="middle" x="316.83" y="-145" font-family="Helvetica,sans-Serif" font-size="10.00">&#45;size_bytes</text>
</g>
<!-- Node5 -->
<g id="node5" class="node">
<title>Node5</title>
<g id="a_node5"><a xlink:title=" ">
<polygon fill="none" stroke="#bfbfbf" points="361.33,-199 361.33,-256 417.33,-256 417.33,-199 361.33,-199"/>
<text text-anchor="middle" x="389.33" y="-244" font-family="Helvetica,sans-Serif" font-size="10.00">uint32_t</text>
<polyline fill="none" stroke="#bfbfbf" points="361.33,-237 417.33,-237 "/>
<text text-anchor="middle" x="389.33" y="-225" font-family="Helvetica,sans-Serif" font-size="10.00"> </text>
<polyline fill="none" stroke="#bfbfbf" points="361.33,-218 417.33,-218 "/>
<text text-anchor="middle" x="389.33" y="-206" font-family="Helvetica,sans-Serif" font-size="10.00"> </text>
</a>
</g>
</g>
<!-- Node5&#45;&gt;Node1 -->
<g id="edge5" class="edge">
<title>Node5&#45;&gt;Node1</title>
<path fill="none" stroke="#404040" d="M383.65,-198.64C379.87,-181.93 374.3,-160.43 367.33,-142 366.44,-139.64 365.49,-137.26 364.51,-134.87"/>
<polygon fill="none" stroke="#404040" points="364.43,-134.67 358.37,-130.75 359.66,-123.66 365.71,-127.58 364.43,-134.67"/>
<text text-anchor="middle" x="396.33" y="-150.5" font-family="Helvetica,sans-Serif" font-size="10.00"> &#45;position</text>
</g>
<!-- Node6 -->
<g id="node6" class="node">
<title>Node6</title>
<g id="a_node6"><a xlink:title=" ">
<polygon fill="none" stroke="#bfbfbf" points="435.33,-199 435.33,-256 485.33,-256 485.33,-199 435.33,-199"/>
<text text-anchor="middle" x="460.33" y="-244" font-family="Helvetica,sans-Serif" font-size="10.00">uint8_t</text>
<polyline fill="none" stroke="#bfbfbf" points="435.33,-237 485.33,-237 "/>
<text text-anchor="middle" x="460.33" y="-225" font-family="Helvetica,sans-Serif" font-size="10.00"> </text>
<polyline fill="none" stroke="#bfbfbf" points="435.33,-218 485.33,-218 "/>
<text text-anchor="middle" x="460.33" y="-206" font-family="Helvetica,sans-Serif" font-size="10.00"> </text>
</a>
</g>
</g>
<!-- Node6&#45;&gt;Node1 -->
<g id="edge6" class="edge">
<title>Node6&#45;&gt;Node1</title>
<path fill="none" stroke="#404040" d="M451.95,-198.88C445.8,-181.47 436.27,-159.12 423.33,-142 413.68,-129.24 401.57,-117.25 389.24,-106.65"/>
<polygon fill="none" stroke="#404040" points="389.04,-106.48 381.87,-105.73 379.8,-98.82 386.97,-99.57 389.04,-106.48"/>
<text text-anchor="middle" x="471.83" y="-156" font-family="Helvetica,sans-Serif" font-size="10.00"> &#45;end_code</text>
<text text-anchor="middle" x="471.83" y="-145" font-family="Helvetica,sans-Serif" font-size="10.00">&#45;end_code_len</text>
</g>
<!-- Node7 -->
<g id="node7" class="node">
<title>Node7</title>
<g id="a_node7"><a xlink:title=" ">
<polygon fill="none" stroke="#bfbfbf" points="507.33,-199 507.33,-256 599.33,-256 599.33,-199 507.33,-199"/>
<text text-anchor="middle" x="553.33" y="-244" font-family="Helvetica,sans-Serif" font-size="10.00">SFE_SPI_FLASH</text>
<polyline fill="none" stroke="#bfbfbf" points="507.33,-237 599.33,-237 "/>
<text text-anchor="middle" x="553.33" y="-225" font-family="Helvetica,sans-Serif" font-size="10.00"> </text>
<polyline fill="none" stroke="#bfbfbf" points="507.33,-218 599.33,-218 "/>
<text text-anchor="middle" x="553.33" y="-206" font-family="Helvetica,sans-Serif" font-size="10.00"> </text>
</a>
</g>
</g>
<!-- Node7&#45;&gt;Node1 -->
<g id="edge7" class="edge">
<title>Node7&#45;&gt;Node1</title>
<path fill="none" stroke="#404040" d="M545.11,-198.7C538.52,-180.54 527.63,-157.42 511.33,-142 477.91,-110.39 429.88,-90.36 391.28,-78.37"/>
<polygon fill="none" stroke="#404040" points="391.13,-78.33 384.24,-80.45 379.62,-74.91 386.52,-72.78 391.13,-78.33"/>
<text text-anchor="middle" x="542.83" y="-150.5" font-family="Helvetica,sans-Serif" font-size="10.00"> &#45;flash</text>
</g>
</g>
</svg>
        <g id="navigator" transform="translate(0 0)" fill="#404254">
                <rect fill="#f2f5e9" fill-opacity="0.5" stroke="#606060" stroke-width=".5" x="0" y="0" width="60" height="60"/>
                <use id="zoomplus" xlink:href="#zoomPlus" x="17" y="9" onmousedown="handleZoom(evt,'in')"/>
                <use id="zoomminus" xlink:href="#zoomMin" x="42" y="9" onmousedown="handleZoom(evt,'out')"/>
                <use id="reset" xlink:href="#resetDef" x="30" y="36" onmousedown="handleReset()"/>
                <g id="arrowUp" xlink:href="#dirArrow" transform="translate(30 24)" onmousedown="handlePan(0,-1)">
                  <use xlink:href="#rim" fill="#404040">
                        <set attributeName="fill" to="#808080" begin="arrowUp.mouseover" end="arrowUp.mouseout"/>
                  </use>
                  <path fill="none" stroke="white" stroke-width="1.5" d="M0,-3.0v7 M-2.5,-0.5L0,-3.0L2.5,-0.5"/>
                </g>
                <g id="arrowRight" xlink:href="#dirArrow" transform="rotate(90) translate(36 -43)" onmousedown="handlePan(1,0)">
                  <use xlink:href="#rim" fill="#404040">
                        <set attributeName="fill" to="#808080" begin="arrowRight.mouseover" end="arrowRight.mouseout"/>
                  </use>
                  <path fill="none" stroke="white" stroke-width="1.5" d="M0,-3.0v7 M-2.5,-0.5L0,-3.0L2.5,-0.5"/>
                </g>
                <g id="arrowDown" xlink:href="#dirArrow" transform="rotate(180) translate(-30 -48)" onmousedown="handlePan(0,1)">
                  <use xlink:href="#rim" fill="#404040">
                        <set attributeName="fill" to="#808080" begin="arrowDown.mouseover" end="arrowDown.mouseout"/>
                  </use>
                  <path fill="none" stroke="white" stroke-width="1.5" d="M0,-3.0v7 M-2.5,-0.5L0,-3.0L2.5,-0.5"/>
                </g>
                <g id="arrowLeft" xlink:href="#dirArrow" transform="rotate(270) translate(-36 17)" onmousedown="handlePan(-1,0)">
                  <use xlink:href="#rim" fill="#404040">
                        <set attributeName="fill" to="#808080" begin="arrowLeft.mouseover" end="arrowLeft.mouseout"/>
                  </use>
                  <path fill="none" stroke="white" stroke-width="1.5" d="M0,-3.0v7 M-2.5,-0.5L0,-3.0L2.5,-0.5"/>
                </g>
        </g>
        <svg viewBox="0 0 15 15" width="100%" height="30px" preserveAspectRatio="xMaxYMin meet">
         <g id="arrow_out" transform="scale(0.3 0.3)">
          <a xlink:href="classFlashStorage__coll__graph_org.svg" target="_base">
           <rect id="button" ry="5" rx="5" y="6" x="6" height="38" width="38"
                fill="#f2f5e9" fill-opacity="0.5" stroke="#606060" stroke-width="1.0"/>
           <path id="arrow"
             d="M 11.500037,31.436501 C 11.940474,20.09759 22.043105,11.32322 32.158766,21.979434 L 37.068811,17.246167 C 37.068811,17.246167 37.088388,32 37.088388,32 L 22.160133,31.978069 C 22.160133,31.978069 26.997745,27.140456 26.997745,27.140456 C 18.528582,18.264221 13.291696,25.230495 11.500037,31.436501 z"
             style="fill:#404040;"/>
          </a>
         </g>
        </svg>
</svg>
