<?xml version="1.0" encoding="UTF-8" standalone="no"?>
<!DOCTYPE svg PUBLIC "-//W3C//DTD SVG 1.1//EN"
 "http://www.w3.org/Graphics/SVG/1.1/DTD/svg11.dtd">
<!-- Generated by graphviz version 2.43.0 (0)
 -->
<!-- Title: ZOPT220Sensor::verify Pages: 1 -->
<svg width="975pt" height="188pt"
 viewBox="0.00 0.00 975.00 187.50" xmlns="http://www.w3.org/2000/svg" xmlns:xlink="http://www.w3.org/1999/xlink">
<g id="graph0" class="graph" transform="scale(1 1) rotate(0) translate(4 183.5)">
<title>ZOPT220Sensor::verify</title>
<!-- Node1 -->
<g id="Node000001" class="node">
<title>Node1</title>
<g id="a_Node000001"><a xlink:title="Verifies the connection to the ZOPT220x sensor.">
<polygon fill="#999999" stroke="#666666" points="128,-93 0,-93 0,-74 128,-74 128,-93"/>
<text text-anchor="middle" x="64" y="-81" font-family="Helvetica,sans-Serif" font-size="10.00">ZOPT220Sensor::verify</text>
</a>
</g>
</g>
<!-- Node2 -->
<g id="Node000002" class="node">
<title>Node2</title>
<g id="a_Node000002"><a xlink:href="classZOPT220x__Control.html#aab772e9154760b2ddbee82953532f08e" target="_top" xlink:title=" ">
<polygon fill="white" stroke="#666666" points="322,-98.5 164,-98.5 164,-68.5 322,-68.5 322,-98.5"/>
<text text-anchor="start" x="172" y="-86.5" font-family="Helvetica,sans-Serif" font-size="10.00">ZOPT220x_Control::zopt220x</text>
<text text-anchor="middle" x="243" y="-75.5" font-family="Helvetica,sans-Serif" font-size="10.00">Setup</text>
</a>
</g>
</g>
<!-- Node1&#45;&gt;Node2 -->
<g id="edge1_Node000001_Node000002" class="edge">
<title>Node1&#45;&gt;Node2</title>
<g id="a_edge1_Node000001_Node000002"><a xlink:title=" ">
<path fill="none" stroke="#63b8ff" d="M128.4,-83.5C136.67,-83.5 145.26,-83.5 153.85,-83.5"/>
<polygon fill="#63b8ff" stroke="#63b8ff" points="153.9,-87 163.9,-83.5 153.9,-80 153.9,-87"/>
</a>
</g>
</g>
<!-- Node3 -->
<g id="Node000003" class="node">
<title>Node3</title>
<g id="a_Node000003"><a xlink:href="classZOPT220x__Control.html#adc20ce356a572b8039ba96b9160e97c4" target="_top" xlink:title=" ">
<polygon fill="white" stroke="#666666" points="516,-98.5 358,-98.5 358,-68.5 516,-68.5 516,-98.5"/>
<text text-anchor="start" x="366" y="-86.5" font-family="Helvetica,sans-Serif" font-size="10.00">ZOPT220x_Control::zopt220x</text>
<text text-anchor="middle" x="437" y="-75.5" font-family="Helvetica,sans-Serif" font-size="10.00">SetupWithAddress</text>
</a>
</g>
</g>
<!-- Node2&#45;&gt;Node3 -->
<g id="edge2_Node000002_Node000003" class="edge">
<title>Node2&#45;&gt;Node3</title>
<g id="a_edge2_Node000002_Node000003"><a xlink:title=" ">
<path fill="none" stroke="#63b8ff" d="M322.09,-83.5C330.6,-83.5 339.3,-83.5 347.92,-83.5"/>
<polygon fill="#63b8ff" stroke="#63b8ff" points="347.98,-87 357.98,-83.5 347.98,-80 347.98,-87"/>
</a>
</g>
</g>
<!-- Node4 -->
<g id="Node000004" class="node">
<title>Node4</title>
<g id="a_Node000004"><a xlink:href="classZOPT220x__Control.html#a8eb237d4b6eb8513893d99d3163fc094" target="_top" xlink:title=" ">
<polygon fill="white" stroke="#666666" points="747,-179.5 575,-179.5 575,-149.5 747,-149.5 747,-179.5"/>
<text text-anchor="start" x="583" y="-167.5" font-family="Helvetica,sans-Serif" font-size="10.00">ZOPT220x_Control::checkPower</text>
<text text-anchor="middle" x="661" y="-156.5" font-family="Helvetica,sans-Serif" font-size="10.00">OnStatus</text>
</a>
</g>
</g>
<!-- Node3&#45;&gt;Node4 -->
<g id="edge3_Node000003_Node000004" class="edge">
<title>Node3&#45;&gt;Node4</title>
<g id="a_edge3_Node000003_Node000004"><a xlink:title=" ">
<path fill="none" stroke="#63b8ff" d="M467.44,-98.56C490.14,-109.77 522.52,-124.9 552,-135.5 563.2,-139.53 575.24,-143.29 587.06,-146.68"/>
<polygon fill="#63b8ff" stroke="#63b8ff" points="586.35,-150.12 596.92,-149.44 588.24,-143.38 586.35,-150.12"/>
</a>
</g>
</g>
<!-- Node5 -->
<g id="Node000005" class="node">
<title>Node5</title>
<g id="a_Node000005"><a xlink:href="classZOPT220x__Control.html#a58c74577acc1183a66b1f9b9281551a3" target="_top" xlink:title=" ">
<polygon fill="white" stroke="#666666" points="966,-103.5 807,-103.5 807,-73.5 966,-73.5 966,-103.5"/>
<text text-anchor="start" x="815" y="-91.5" font-family="Helvetica,sans-Serif" font-size="10.00">ZOPT220x_Control::zoptRead</text>
<text text-anchor="middle" x="886.5" y="-80.5" font-family="Helvetica,sans-Serif" font-size="10.00">Register</text>
</a>
</g>
</g>
<!-- Node3&#45;&gt;Node5 -->
<g id="edge14_Node000003_Node000005" class="edge">
<title>Node3&#45;&gt;Node5</title>
<g id="a_edge14_Node000003_Node000005"><a xlink:title=" ">
<path fill="none" stroke="#63b8ff" d="M516.28,-98.29C528.21,-100.04 540.4,-101.54 552,-102.5 648.56,-110.49 673.29,-108.34 770,-102.5 778.64,-101.98 787.63,-101.24 796.6,-100.37"/>
<polygon fill="#63b8ff" stroke="#63b8ff" points="797.12,-103.83 806.71,-99.34 796.41,-96.87 797.12,-103.83"/>
</a>
</g>
</g>
<!-- Node6 -->
<g id="Node000006" class="node">
<title>Node6</title>
<g id="a_Node000006"><a xlink:href="classZOPT220x__Control.html#afa9fab0ef429c9e7a46afd752a2ee44d" target="_top" xlink:title=" ">
<polygon fill="white" stroke="#666666" points="736.5,-93 585.5,-93 585.5,-74 736.5,-74 736.5,-93"/>
<text text-anchor="middle" x="661" y="-81" font-family="Helvetica,sans-Serif" font-size="10.00">ZOPT220x_Control::setGain</text>
</a>
</g>
</g>
<!-- Node3&#45;&gt;Node6 -->
<g id="edge5_Node000003_Node000006" class="edge">
<title>Node3&#45;&gt;Node6</title>
<g id="a_edge5_Node000003_Node000006"><a xlink:title=" ">
<path fill="none" stroke="#63b8ff" d="M516.27,-83.5C535.4,-83.5 555.96,-83.5 575.38,-83.5"/>
<polygon fill="#63b8ff" stroke="#63b8ff" points="575.42,-87 585.42,-83.5 575.42,-80 575.42,-87"/>
</a>
</g>
</g>
<!-- Node8 -->
<g id="Node000008" class="node">
<title>Node8</title>
<g id="a_Node000008"><a xlink:href="classZOPT220x__Control.html#a809d1f5db2a9f0884fa82e0b77b944bf" target="_top" xlink:title=" ">
<polygon fill="white" stroke="#666666" points="770,-56 552,-56 552,-37 770,-37 770,-56"/>
<text text-anchor="middle" x="661" y="-44" font-family="Helvetica,sans-Serif" font-size="10.00">ZOPT220x_Control::setMeasurementRate</text>
</a>
</g>
</g>
<!-- Node3&#45;&gt;Node8 -->
<g id="edge8_Node000003_Node000008" class="edge">
<title>Node3&#45;&gt;Node8</title>
<g id="a_edge8_Node000003_Node000008"><a xlink:title=" ">
<path fill="none" stroke="#63b8ff" d="M516.27,-70.46C541.17,-66.3 568.49,-61.75 592.56,-57.74"/>
<polygon fill="#63b8ff" stroke="#63b8ff" points="593.37,-61.15 602.66,-56.06 592.22,-54.25 593.37,-61.15"/>
</a>
</g>
</g>
<!-- Node9 -->
<g id="Node000009" class="node">
<title>Node9</title>
<g id="a_Node000009"><a xlink:href="classZOPT220x__Control.html#aa8d79db36ab65e003f87a493f720233d" target="_top" xlink:title=" ">
<polygon fill="white" stroke="#666666" points="751,-19 571,-19 571,0 751,0 751,-19"/>
<text text-anchor="middle" x="661" y="-7" font-family="Helvetica,sans-Serif" font-size="10.00">ZOPT220x_Control::setResolution</text>
</a>
</g>
</g>
<!-- Node3&#45;&gt;Node9 -->
<g id="edge11_Node000003_Node000009" class="edge">
<title>Node3&#45;&gt;Node9</title>
<g id="a_edge11_Node000003_Node000009"><a xlink:title=" ">
<path fill="none" stroke="#63b8ff" d="M463.36,-68.36C485.88,-55.57 520.09,-37.75 552,-27.5 559.53,-25.08 567.46,-22.97 575.46,-21.14"/>
<polygon fill="#63b8ff" stroke="#63b8ff" points="576.21,-24.56 585.25,-19.04 574.73,-17.72 576.21,-24.56"/>
</a>
</g>
</g>
<!-- Node4&#45;&gt;Node5 -->
<g id="edge4_Node000004_Node000005" class="edge">
<title>Node4&#45;&gt;Node5</title>
<g id="a_edge4_Node000004_Node000005"><a xlink:title=" ">
<path fill="none" stroke="#63b8ff" d="M723.23,-149.48C738.61,-145.31 755,-140.54 770,-135.5 794.2,-127.36 820.62,-116.75 842.07,-107.66"/>
<polygon fill="#63b8ff" stroke="#63b8ff" points="843.73,-110.76 851.55,-103.61 840.98,-104.32 843.73,-110.76"/>
</a>
</g>
</g>
<!-- Node6&#45;&gt;Node5 -->
<g id="edge6_Node000006_Node000005" class="edge">
<title>Node6&#45;&gt;Node5</title>
<g id="a_edge6_Node000006_Node000005"><a xlink:title=" ">
<path fill="none" stroke="#63b8ff" d="M736.73,-85.17C755.86,-85.6 776.62,-86.06 796.39,-86.51"/>
<polygon fill="#63b8ff" stroke="#63b8ff" points="796.55,-90.01 806.63,-86.74 796.71,-83.01 796.55,-90.01"/>
</a>
</g>
</g>
<!-- Node7 -->
<g id="Node000007" class="node">
<title>Node7</title>
<g id="a_Node000007"><a xlink:href="classZOPT220x__Control.html#ab5f43fd630eaaadeea212559e12648be" target="_top" xlink:title=" ">
<polygon fill="white" stroke="#666666" points="967,-55.5 806,-55.5 806,-25.5 967,-25.5 967,-55.5"/>
<text text-anchor="start" x="814" y="-43.5" font-family="Helvetica,sans-Serif" font-size="10.00">ZOPT220x_Control::zoptWrite</text>
<text text-anchor="middle" x="886.5" y="-32.5" font-family="Helvetica,sans-Serif" font-size="10.00">Register</text>
</a>
</g>
</g>
<!-- Node6&#45;&gt;Node7 -->
<g id="edge7_Node000006_Node000007" class="edge">
<title>Node6&#45;&gt;Node7</title>
<g id="a_edge7_Node000006_Node000007"><a xlink:title=" ">
<path fill="none" stroke="#63b8ff" d="M722.36,-73.97C737.91,-71.37 754.6,-68.45 770,-65.5 782.61,-63.09 795.95,-60.36 808.91,-57.62"/>
<polygon fill="#63b8ff" stroke="#63b8ff" points="809.68,-61.03 818.73,-55.52 808.22,-54.19 809.68,-61.03"/>
</a>
</g>
</g>
<!-- Node8&#45;&gt;Node5 -->
<g id="edge9_Node000008_Node000005" class="edge">
<title>Node8&#45;&gt;Node5</title>
<g id="a_edge9_Node000008_Node000005"><a xlink:title=" ">
<path fill="none" stroke="#63b8ff" d="M717.54,-56.03C734.4,-58.98 752.97,-62.31 770,-65.5 780.13,-67.4 790.74,-69.44 801.26,-71.5"/>
<polygon fill="#63b8ff" stroke="#63b8ff" points="800.81,-74.98 811.3,-73.47 802.16,-68.11 800.81,-74.98"/>
</a>
</g>
</g>
<!-- Node8&#45;&gt;Node7 -->
<g id="edge10_Node000008_Node000007" class="edge">
<title>Node8&#45;&gt;Node7</title>
<g id="a_edge10_Node000008_Node000007"><a xlink:title=" ">
<path fill="none" stroke="#63b8ff" d="M770.15,-43.6C778.7,-43.37 787.29,-43.14 795.7,-42.91"/>
<polygon fill="#63b8ff" stroke="#63b8ff" points="795.96,-46.41 805.86,-42.64 795.77,-39.41 795.96,-46.41"/>
</a>
</g>
</g>
<!-- Node9&#45;&gt;Node5 -->
<g id="edge12_Node000009_Node000005" class="edge">
<title>Node9&#45;&gt;Node5</title>
<g id="a_edge12_Node000009_Node000005"><a xlink:title=" ">
<path fill="none" stroke="#63b8ff" d="M749.37,-19.05C756.54,-21.33 763.52,-24.11 770,-27.5 790.33,-38.14 786.39,-52.58 806,-64.5 808.83,-66.22 811.8,-67.83 814.85,-69.33"/>
<polygon fill="#63b8ff" stroke="#63b8ff" points="813.66,-72.63 824.22,-73.5 816.51,-66.23 813.66,-72.63"/>
</a>
</g>
</g>
<!-- Node9&#45;&gt;Node7 -->
<g id="edge13_Node000009_Node000007" class="edge">
<title>Node9&#45;&gt;Node7</title>
<g id="a_edge13_Node000009_Node000007"><a xlink:title=" ">
<path fill="none" stroke="#63b8ff" d="M730.58,-19.01C751.07,-21.85 773.85,-25.01 795.5,-28.02"/>
<polygon fill="#63b8ff" stroke="#63b8ff" points="795.3,-31.52 805.69,-29.43 796.26,-24.59 795.3,-31.52"/>
</a>
</g>
</g>
</g>
</svg>
