<?xml version="1.0" encoding="UTF-8" standalone="no"?>
<!DOCTYPE svg PUBLIC "-//W3C//DTD SVG 1.1//EN"
 "http://www.w3.org/Graphics/SVG/1.1/DTD/svg11.dtd">
<!-- Generated by graphviz version 2.43.0 (0)
 -->
<!-- Title: ZOPT220x_Control::standby Pages: 1 -->
<svg width="548pt" height="88pt"
 viewBox="0.00 0.00 548.00 88.00" xmlns="http://www.w3.org/2000/svg" xmlns:xlink="http://www.w3.org/1999/xlink">
<g id="graph0" class="graph" transform="scale(1 1) rotate(0) translate(4 84)">
<title>ZOPT220x_Control::standby</title>
<!-- Node1 -->
<g id="node1" class="node">
<title>Node1</title>
<g id="a_node1"><a xlink:title=" ">
<polygon fill="#bfbfbf" stroke="black" points="0,-30 0,-49 152,-49 152,-30 0,-30"/>
<text text-anchor="middle" x="76" y="-37" font-family="Helvetica,sans-Serif" font-size="10.00">ZOPT220x_Control::standby</text>
</a>
</g>
</g>
<!-- Node2 -->
<g id="node2" class="node">
<title>Node2</title>
<g id="a_node2"><a xlink:href="classZOPT220x__Control.html#a70fedf9d112bc34ef55e21452acd3877" target="_top" xlink:title=" ">
<polygon fill="none" stroke="black" points="188,-30 188,-49 343,-49 343,-30 188,-30"/>
<text text-anchor="middle" x="265.5" y="-37" font-family="Helvetica,sans-Serif" font-size="10.00">ZOPT220x_Control::setMode</text>
</a>
</g>
</g>
<!-- Node1&#45;&gt;Node2 -->
<g id="edge1" class="edge">
<title>Node1&#45;&gt;Node2</title>
<path fill="none" stroke="midnightblue" d="M152.18,-39.5C160.51,-39.5 169.05,-39.5 177.51,-39.5"/>
<polygon fill="midnightblue" stroke="midnightblue" points="177.77,-43 187.77,-39.5 177.77,-36 177.77,-43"/>
</g>
<!-- Node3 -->
<g id="node3" class="node">
<title>Node3</title>
<g id="a_node3"><a xlink:href="classZOPT220x__Control.html#a58c74577acc1183a66b1f9b9281551a3" target="_top" xlink:title=" ">
<polygon fill="none" stroke="black" points="380,-49.5 380,-79.5 539,-79.5 539,-49.5 380,-49.5"/>
<text text-anchor="start" x="388" y="-67.5" font-family="Helvetica,sans-Serif" font-size="10.00">ZOPT220x_Control::zoptRead</text>
<text text-anchor="middle" x="459.5" y="-56.5" font-family="Helvetica,sans-Serif" font-size="10.00">Register</text>
</a>
</g>
</g>
<!-- Node2&#45;&gt;Node3 -->
<g id="edge2" class="edge">
<title>Node2&#45;&gt;Node3</title>
<path fill="none" stroke="midnightblue" d="M339.63,-49.02C349.49,-50.31 359.69,-51.63 369.78,-52.95"/>
<polygon fill="midnightblue" stroke="midnightblue" points="369.45,-56.43 379.81,-54.25 370.35,-49.49 369.45,-56.43"/>
</g>
<!-- Node4 -->
<g id="node4" class="node">
<title>Node4</title>
<g id="a_node4"><a xlink:href="classZOPT220x__Control.html#ab5f43fd630eaaadeea212559e12648be" target="_top" xlink:title=" ">
<polygon fill="none" stroke="black" points="379,-0.5 379,-30.5 540,-30.5 540,-0.5 379,-0.5"/>
<text text-anchor="start" x="387" y="-18.5" font-family="Helvetica,sans-Serif" font-size="10.00">ZOPT220x_Control::zoptWrite</text>
<text text-anchor="middle" x="459.5" y="-7.5" font-family="Helvetica,sans-Serif" font-size="10.00">Register</text>
</a>
</g>
</g>
<!-- Node2&#45;&gt;Node4 -->
<g id="edge3" class="edge">
<title>Node2&#45;&gt;Node4</title>
<path fill="none" stroke="midnightblue" d="M342.66,-29.98C351.24,-28.91 360.04,-27.81 368.77,-26.72"/>
<polygon fill="midnightblue" stroke="midnightblue" points="369.48,-30.16 378.97,-25.44 368.61,-23.21 369.48,-30.16"/>
</g>
</g>
</svg>
