<?xml version="1.0" encoding="UTF-8" standalone="no"?>
<!DOCTYPE svg PUBLIC "-//W3C//DTD SVG 1.1//EN"
 "http://www.w3.org/Graphics/SVG/1.1/DTD/svg11.dtd">
<!-- Generated by graphviz version 2.43.0 (0)
 -->
<!-- Title: ICM20948Sensor Pages: 1 -->
<svg width="442pt" height="474pt"
 viewBox="0.00 0.00 441.50 474.00" xmlns="http://www.w3.org/2000/svg" xmlns:xlink="http://www.w3.org/1999/xlink">
<g id="graph0" class="graph" transform="scale(1 1) rotate(0) translate(4 470)">
<title>ICM20948Sensor</title>
<!-- Node1 -->
<g id="node1" class="node">
<title>Node1</title>
<g id="a_node1"><a xlink:title="Implementation of the Sensor class for the Adafruit ICM20948 (9&#45;axis IMU)">
<polygon fill="#bfbfbf" stroke="black" points="200,-0.5 200,-90.5 317,-90.5 317,-0.5 200,-0.5"/>
<text text-anchor="middle" x="258.5" y="-78.5" font-family="Helvetica,sans-Serif" font-size="10.00">ICM20948Sensor</text>
<polyline fill="none" stroke="black" points="200,-71.5 317,-71.5 "/>
<text text-anchor="middle" x="258.5" y="-59.5" font-family="Helvetica,sans-Serif" font-size="10.00"> </text>
<polyline fill="none" stroke="black" points="200,-52.5 317,-52.5 "/>
<text text-anchor="start" x="208" y="-40.5" font-family="Helvetica,sans-Serif" font-size="10.00">+ ICM20948Sensor()</text>
<text text-anchor="start" x="208" y="-29.5" font-family="Helvetica,sans-Serif" font-size="10.00">+ ICM20948Sensor()</text>
<text text-anchor="start" x="208" y="-18.5" font-family="Helvetica,sans-Serif" font-size="10.00">+ verify()</text>
<text text-anchor="start" x="208" y="-7.5" font-family="Helvetica,sans-Serif" font-size="10.00">+ readData()</text>
</a>
</g>
</g>
<!-- Node2 -->
<g id="node2" class="node">
<title>Node2</title>
<g id="a_node2"><a xlink:href="classSensor.html" target="_top" xlink:title="Parent class for sensor objects.">
<polygon fill="none" stroke="black" points="46,-171.5 46,-349.5 185,-349.5 185,-171.5 46,-171.5"/>
<text text-anchor="middle" x="115.5" y="-337.5" font-family="Helvetica,sans-Serif" font-size="10.00">Sensor</text>
<polyline fill="none" stroke="black" points="46,-330.5 185,-330.5 "/>
<text text-anchor="middle" x="115.5" y="-318.5" font-family="Helvetica,sans-Serif" font-size="10.00"> </text>
<polyline fill="none" stroke="black" points="46,-311.5 185,-311.5 "/>
<text text-anchor="start" x="54" y="-299.5" font-family="Helvetica,sans-Serif" font-size="10.00">+ Sensor()</text>
<text text-anchor="start" x="54" y="-288.5" font-family="Helvetica,sans-Serif" font-size="10.00">+ Sensor()</text>
<text text-anchor="start" x="54" y="-277.5" font-family="Helvetica,sans-Serif" font-size="10.00">+ getPeriod()</text>
<text text-anchor="start" x="54" y="-266.5" font-family="Helvetica,sans-Serif" font-size="10.00">+ setPeriod()</text>
<text text-anchor="start" x="54" y="-255.5" font-family="Helvetica,sans-Serif" font-size="10.00">+ getLastExecution()</text>
<text text-anchor="start" x="54" y="-244.5" font-family="Helvetica,sans-Serif" font-size="10.00">+ setLastExecution()</text>
<text text-anchor="start" x="54" y="-233.5" font-family="Helvetica,sans-Serif" font-size="10.00">+ getSensorName()</text>
<text text-anchor="start" x="54" y="-222.5" font-family="Helvetica,sans-Serif" font-size="10.00">+ getSensorCSVHeader()</text>
<text text-anchor="start" x="54" y="-211.5" font-family="Helvetica,sans-Serif" font-size="10.00">+ verify()</text>
<text text-anchor="start" x="54" y="-200.5" font-family="Helvetica,sans-Serif" font-size="10.00">+ readData()</text>
<text text-anchor="start" x="54" y="-189.5" font-family="Helvetica,sans-Serif" font-size="10.00">+ readEmpty()</text>
<text text-anchor="start" x="54" y="-178.5" font-family="Helvetica,sans-Serif" font-size="10.00">+ getDataCSV()</text>
</a>
</g>
</g>
<!-- Node2&#45;&gt;Node1 -->
<g id="edge1" class="edge">
<title>Node2&#45;&gt;Node1</title>
<path fill="none" stroke="midnightblue" d="M180.41,-162.81C197.35,-137.58 214.78,-111.61 228.87,-90.63"/>
<polygon fill="none" stroke="midnightblue" points="177.36,-161.07 174.7,-171.33 183.18,-164.98 177.36,-161.07"/>
</g>
<!-- Node3 -->
<g id="node3" class="node">
<title>Node3</title>
<g id="a_node3"><a xlink:title=" ">
<polygon fill="none" stroke="#bfbfbf" points="0,-408.5 0,-465.5 45,-465.5 45,-408.5 0,-408.5"/>
<text text-anchor="middle" x="22.5" y="-453.5" font-family="Helvetica,sans-Serif" font-size="10.00">String</text>
<polyline fill="none" stroke="#bfbfbf" points="0,-446.5 45,-446.5 "/>
<text text-anchor="middle" x="22.5" y="-434.5" font-family="Helvetica,sans-Serif" font-size="10.00"> </text>
<polyline fill="none" stroke="#bfbfbf" points="0,-427.5 45,-427.5 "/>
<text text-anchor="middle" x="22.5" y="-415.5" font-family="Helvetica,sans-Serif" font-size="10.00"> </text>
</a>
</g>
</g>
<!-- Node3&#45;&gt;Node2 -->
<g id="edge2" class="edge">
<title>Node3&#45;&gt;Node2</title>
<path fill="none" stroke="#404040" d="M27.98,-408.45C31.05,-395.77 35.5,-380.75 41.5,-368 42.71,-365.42 43.99,-362.84 45.31,-360.26"/>
<polygon fill="none" stroke="#404040" points="45.33,-360.22 44.66,-353.04 51.04,-349.67 51.7,-356.85 45.33,-360.22"/>
<text text-anchor="middle" x="76.5" y="-382" font-family="Helvetica,sans-Serif" font-size="10.00"> &#45;csv_header</text>
<text text-anchor="middle" x="76.5" y="-371" font-family="Helvetica,sans-Serif" font-size="10.00">&#45;sensor_name</text>
</g>
<!-- Node4 -->
<g id="node4" class="node">
<title>Node4</title>
<g id="a_node4"><a xlink:title=" ">
<polygon fill="none" stroke="#bfbfbf" points="73,-408.5 73,-465.5 158,-465.5 158,-408.5 73,-408.5"/>
<text text-anchor="middle" x="115.5" y="-453.5" font-family="Helvetica,sans-Serif" font-size="10.00">unsigned long</text>
<polyline fill="none" stroke="#bfbfbf" points="73,-446.5 158,-446.5 "/>
<text text-anchor="middle" x="115.5" y="-434.5" font-family="Helvetica,sans-Serif" font-size="10.00"> </text>
<polyline fill="none" stroke="#bfbfbf" points="73,-427.5 158,-427.5 "/>
<text text-anchor="middle" x="115.5" y="-415.5" font-family="Helvetica,sans-Serif" font-size="10.00"> </text>
</a>
</g>
</g>
<!-- Node4&#45;&gt;Node2 -->
<g id="edge3" class="edge">
<title>Node4&#45;&gt;Node2</title>
<path fill="none" stroke="#404040" d="M115.5,-408.35C115.5,-395.44 115.5,-379.18 115.5,-362.24"/>
<polygon fill="none" stroke="#404040" points="115.5,-361.81 111.5,-355.81 115.5,-349.81 119.5,-355.81 115.5,-361.81"/>
<text text-anchor="middle" x="159.5" y="-382" font-family="Helvetica,sans-Serif" font-size="10.00"> &#45;last_execution</text>
<text text-anchor="middle" x="159.5" y="-371" font-family="Helvetica,sans-Serif" font-size="10.00">&#45;minimum_period</text>
</g>
<!-- Node5 -->
<g id="node5" class="node">
<title>Node5</title>
<g id="a_node5"><a xlink:title=" ">
<polygon fill="none" stroke="#bfbfbf" points="212,-408.5 212,-465.5 241,-465.5 241,-408.5 212,-408.5"/>
<text text-anchor="middle" x="226.5" y="-453.5" font-family="Helvetica,sans-Serif" font-size="10.00">int</text>
<polyline fill="none" stroke="#bfbfbf" points="212,-446.5 241,-446.5 "/>
<text text-anchor="middle" x="226.5" y="-434.5" font-family="Helvetica,sans-Serif" font-size="10.00"> </text>
<polyline fill="none" stroke="#bfbfbf" points="212,-427.5 241,-427.5 "/>
<text text-anchor="middle" x="226.5" y="-415.5" font-family="Helvetica,sans-Serif" font-size="10.00"> </text>
</a>
</g>
</g>
<!-- Node5&#45;&gt;Node2 -->
<g id="edge4" class="edge">
<title>Node5&#45;&gt;Node2</title>
<path fill="none" stroke="#404040" d="M220.11,-408.21C216.54,-395.48 211.4,-380.49 204.5,-368 200.83,-361.36 196.72,-354.73 192.32,-348.23"/>
<polygon fill="none" stroke="#404040" points="192.12,-347.94 185.39,-345.33 185.21,-338.12 191.94,-340.73 192.12,-347.94"/>
<text text-anchor="middle" x="231.5" y="-376.5" font-family="Helvetica,sans-Serif" font-size="10.00"> &#45;fields</text>
</g>
<!-- Node6 -->
<g id="node6" class="node">
<title>Node6</title>
<g id="a_node6"><a xlink:title=" ">
<polygon fill="none" stroke="#bfbfbf" points="203.5,-232 203.5,-289 313.5,-289 313.5,-232 203.5,-232"/>
<text text-anchor="middle" x="258.5" y="-277" font-family="Helvetica,sans-Serif" font-size="10.00">Adafruit_ICM20948</text>
<polyline fill="none" stroke="#bfbfbf" points="203.5,-270 313.5,-270 "/>
<text text-anchor="middle" x="258.5" y="-258" font-family="Helvetica,sans-Serif" font-size="10.00"> </text>
<polyline fill="none" stroke="#bfbfbf" points="203.5,-251 313.5,-251 "/>
<text text-anchor="middle" x="258.5" y="-239" font-family="Helvetica,sans-Serif" font-size="10.00"> </text>
</a>
</g>
</g>
<!-- Node6&#45;&gt;Node1 -->
<g id="edge5" class="edge">
<title>Node6&#45;&gt;Node1</title>
<path fill="none" stroke="#404040" d="M258.5,-231.65C258.5,-199.09 258.5,-144.35 258.5,-102.81"/>
<polygon fill="none" stroke="#404040" points="258.5,-102.66 254.5,-96.66 258.5,-90.66 262.5,-96.66 258.5,-102.66"/>
<text text-anchor="middle" x="271" y="-128.5" font-family="Helvetica,sans-Serif" font-size="10.00"> &#45;icm</text>
</g>
<!-- Node7 -->
<g id="node7" class="node">
<title>Node7</title>
<g id="a_node7"><a xlink:title=" ">
<polygon fill="none" stroke="#bfbfbf" points="331.5,-232 331.5,-289 433.5,-289 433.5,-232 331.5,-232"/>
<text text-anchor="middle" x="382.5" y="-277" font-family="Helvetica,sans-Serif" font-size="10.00">Adafruit_Sensor *</text>
<polyline fill="none" stroke="#bfbfbf" points="331.5,-270 433.5,-270 "/>
<text text-anchor="middle" x="382.5" y="-258" font-family="Helvetica,sans-Serif" font-size="10.00"> </text>
<polyline fill="none" stroke="#bfbfbf" points="331.5,-251 433.5,-251 "/>
<text text-anchor="middle" x="382.5" y="-239" font-family="Helvetica,sans-Serif" font-size="10.00"> </text>
</a>
</g>
</g>
<!-- Node7&#45;&gt;Node1 -->
<g id="edge6" class="edge">
<title>Node7&#45;&gt;Node1</title>
<path fill="none" stroke="#404040" d="M366.29,-231.65C347.08,-198.67 314.64,-142.93 290.35,-101.21"/>
<polygon fill="none" stroke="#404040" points="290.24,-101.03 283.77,-97.86 284.21,-90.66 290.68,-93.83 290.24,-101.03"/>
<text text-anchor="middle" x="348.5" y="-145" font-family="Helvetica,sans-Serif" font-size="10.00"> &#45;icm_accel</text>
<text text-anchor="middle" x="348.5" y="-134" font-family="Helvetica,sans-Serif" font-size="10.00">&#45;icm_gyro</text>
<text text-anchor="middle" x="348.5" y="-123" font-family="Helvetica,sans-Serif" font-size="10.00">&#45;icm_mag</text>
<text text-anchor="middle" x="348.5" y="-112" font-family="Helvetica,sans-Serif" font-size="10.00">&#45;icm_temp</text>
</g>
</g>
</svg>
