<?xml version="1.0" encoding="UTF-8" standalone="no"?>
<!DOCTYPE svg PUBLIC "-//W3C//DTD SVG 1.1//EN"
 "http://www.w3.org/Graphics/SVG/1.1/DTD/svg11.dtd">
<!-- Generated by graphviz version 2.43.0 (0)
 -->
<!-- Title: FlashStorage Pages: 1 -->
<svg width="483pt" height="375pt"
 viewBox="0.00 0.00 483.00 375.00" xmlns="http://www.w3.org/2000/svg" xmlns:xlink="http://www.w3.org/1999/xlink">
<g id="graph0" class="graph" transform="scale(1 1) rotate(0) translate(4 371)">
<title>FlashStorage</title>
<!-- Node1 -->
<g id="node1" class="node">
<title>Node1</title>
<g id="a_node1"><a xlink:title=" ">
<polygon fill="#bfbfbf" stroke="black" points="215.5,-0.5 215.5,-112.5 314.5,-112.5 314.5,-0.5 215.5,-0.5"/>
<text text-anchor="middle" x="265" y="-100.5" font-family="Helvetica,sans-Serif" font-size="10.00">FlashStorage</text>
<polyline fill="none" stroke="black" points="215.5,-93.5 314.5,-93.5 "/>
<text text-anchor="middle" x="265" y="-81.5" font-family="Helvetica,sans-Serif" font-size="10.00"> </text>
<polyline fill="none" stroke="black" points="215.5,-74.5 314.5,-74.5 "/>
<text text-anchor="start" x="223.5" y="-62.5" font-family="Helvetica,sans-Serif" font-size="10.00">+ FlashStorage()</text>
<text text-anchor="start" x="223.5" y="-51.5" font-family="Helvetica,sans-Serif" font-size="10.00">+ verify()</text>
<text text-anchor="start" x="223.5" y="-40.5" font-family="Helvetica,sans-Serif" font-size="10.00">+ store()</text>
<text text-anchor="start" x="223.5" y="-29.5" font-family="Helvetica,sans-Serif" font-size="10.00">+ dump()</text>
<text text-anchor="start" x="223.5" y="-18.5" font-family="Helvetica,sans-Serif" font-size="10.00">+ erase()</text>
<text text-anchor="start" x="223.5" y="-7.5" font-family="Helvetica,sans-Serif" font-size="10.00">&#45; loadPosition()</text>
</a>
</g>
</g>
<!-- Node2 -->
<g id="node2" class="node">
<title>Node2</title>
<g id="a_node2"><a xlink:href="classStorage.html" target="_top" xlink:title="Parent class for all data storage devices (sd card, radio, etc)">
<polygon fill="none" stroke="black" points="0,-171.5 0,-261.5 118,-261.5 118,-171.5 0,-171.5"/>
<text text-anchor="middle" x="59" y="-249.5" font-family="Helvetica,sans-Serif" font-size="10.00">Storage</text>
<polyline fill="none" stroke="black" points="0,-242.5 118,-242.5 "/>
<text text-anchor="middle" x="59" y="-230.5" font-family="Helvetica,sans-Serif" font-size="10.00"> </text>
<polyline fill="none" stroke="black" points="0,-223.5 118,-223.5 "/>
<text text-anchor="start" x="8" y="-211.5" font-family="Helvetica,sans-Serif" font-size="10.00">+ Storage()</text>
<text text-anchor="start" x="8" y="-200.5" font-family="Helvetica,sans-Serif" font-size="10.00">+ getStorageName()</text>
<text text-anchor="start" x="8" y="-189.5" font-family="Helvetica,sans-Serif" font-size="10.00">+ verify()</text>
<text text-anchor="start" x="8" y="-178.5" font-family="Helvetica,sans-Serif" font-size="10.00">+ store()</text>
</a>
</g>
</g>
<!-- Node2&#45;&gt;Node1 -->
<g id="edge1" class="edge">
<title>Node2&#45;&gt;Node1</title>
<path fill="none" stroke="midnightblue" d="M124.54,-165.23C153.93,-142.69 188.03,-116.54 215.27,-95.64"/>
<polygon fill="none" stroke="midnightblue" points="122.19,-162.63 116.38,-171.49 126.45,-168.18 122.19,-162.63"/>
</g>
<!-- Node3 -->
<g id="node3" class="node">
<title>Node3</title>
<g id="a_node3"><a xlink:title=" ">
<polygon fill="none" stroke="#bfbfbf" points="36.5,-309.5 36.5,-366.5 81.5,-366.5 81.5,-309.5 36.5,-309.5"/>
<text text-anchor="middle" x="59" y="-354.5" font-family="Helvetica,sans-Serif" font-size="10.00">String</text>
<polyline fill="none" stroke="#bfbfbf" points="36.5,-347.5 81.5,-347.5 "/>
<text text-anchor="middle" x="59" y="-335.5" font-family="Helvetica,sans-Serif" font-size="10.00"> </text>
<polyline fill="none" stroke="#bfbfbf" points="36.5,-328.5 81.5,-328.5 "/>
<text text-anchor="middle" x="59" y="-316.5" font-family="Helvetica,sans-Serif" font-size="10.00"> </text>
</a>
</g>
</g>
<!-- Node3&#45;&gt;Node2 -->
<g id="edge2" class="edge">
<title>Node3&#45;&gt;Node2</title>
<path fill="none" stroke="#404040" d="M59,-309.28C59,-298.73 59,-286.29 59,-274.03"/>
<polygon fill="none" stroke="#404040" points="59,-273.91 55,-267.91 59,-261.91 63,-267.91 59,-273.91"/>
<text text-anchor="middle" x="97.5" y="-283" font-family="Helvetica,sans-Serif" font-size="10.00"> &#45;storage_name</text>
</g>
<!-- Node4 -->
<g id="node4" class="node">
<title>Node4</title>
<g id="a_node4"><a xlink:title=" ">
<polygon fill="none" stroke="#bfbfbf" points="136,-188 136,-245 252,-245 252,-188 136,-188"/>
<text text-anchor="middle" x="194" y="-233" font-family="Helvetica,sans-Serif" font-size="10.00">static const uint32_t</text>
<polyline fill="none" stroke="#bfbfbf" points="136,-226 252,-226 "/>
<text text-anchor="middle" x="194" y="-214" font-family="Helvetica,sans-Serif" font-size="10.00"> </text>
<polyline fill="none" stroke="#bfbfbf" points="136,-207 252,-207 "/>
<text text-anchor="middle" x="194" y="-195" font-family="Helvetica,sans-Serif" font-size="10.00"> </text>
</a>
</g>
</g>
<!-- Node4&#45;&gt;Node1 -->
<g id="edge3" class="edge">
<title>Node4&#45;&gt;Node1</title>
<path fill="none" stroke="#404040" d="M189.34,-187.86C187.66,-170.84 187.7,-148.94 195,-131 198.12,-123.32 202.46,-115.99 207.46,-109.12"/>
<polygon fill="none" stroke="#404040" points="207.72,-108.81 208.33,-101.62 215.2,-99.42 214.59,-106.61 207.72,-108.81"/>
<text text-anchor="middle" x="255" y="-145" font-family="Helvetica,sans-Serif" font-size="10.00"> &#45;DATA_START_POSITION</text>
<text text-anchor="middle" x="255" y="-134" font-family="Helvetica,sans-Serif" font-size="10.00">&#45;MAX_SIZE</text>
</g>
<!-- Node5 -->
<g id="node5" class="node">
<title>Node5</title>
<g id="a_node5"><a xlink:title=" ">
<polygon fill="none" stroke="#bfbfbf" points="309,-188 309,-245 365,-245 365,-188 309,-188"/>
<text text-anchor="middle" x="337" y="-233" font-family="Helvetica,sans-Serif" font-size="10.00">uint32_t</text>
<polyline fill="none" stroke="#bfbfbf" points="309,-226 365,-226 "/>
<text text-anchor="middle" x="337" y="-214" font-family="Helvetica,sans-Serif" font-size="10.00"> </text>
<polyline fill="none" stroke="#bfbfbf" points="309,-207 365,-207 "/>
<text text-anchor="middle" x="337" y="-195" font-family="Helvetica,sans-Serif" font-size="10.00"> </text>
</a>
</g>
</g>
<!-- Node5&#45;&gt;Node1 -->
<g id="edge4" class="edge">
<title>Node5&#45;&gt;Node1</title>
<path fill="none" stroke="#404040" d="M332.26,-187.67C328.78,-170.79 323.21,-149.08 315,-131 313.82,-128.39 312.54,-125.77 311.19,-123.16"/>
<polygon fill="none" stroke="#404040" points="311.11,-123.01 304.71,-119.7 305.3,-112.51 311.71,-115.83 311.11,-123.01"/>
<text text-anchor="middle" x="345" y="-139.5" font-family="Helvetica,sans-Serif" font-size="10.00"> &#45;position</text>
</g>
<!-- Node6 -->
<g id="node6" class="node">
<title>Node6</title>
<g id="a_node6"><a xlink:title=" ">
<polygon fill="none" stroke="#bfbfbf" points="383,-188 383,-245 475,-245 475,-188 383,-188"/>
<text text-anchor="middle" x="429" y="-233" font-family="Helvetica,sans-Serif" font-size="10.00">SFE_SPI_FLASH</text>
<polyline fill="none" stroke="#bfbfbf" points="383,-226 475,-226 "/>
<text text-anchor="middle" x="429" y="-214" font-family="Helvetica,sans-Serif" font-size="10.00"> </text>
<polyline fill="none" stroke="#bfbfbf" points="383,-207 475,-207 "/>
<text text-anchor="middle" x="429" y="-195" font-family="Helvetica,sans-Serif" font-size="10.00"> </text>
</a>
</g>
</g>
<!-- Node6&#45;&gt;Node1 -->
<g id="edge5" class="edge">
<title>Node6&#45;&gt;Node1</title>
<path fill="none" stroke="#404040" d="M413.88,-187.69C403.53,-170.2 388.7,-147.84 372,-131 358,-116.89 340.95,-103.77 324.61,-92.65"/>
<polygon fill="none" stroke="#404040" points="324.56,-92.62 317.35,-92.63 314.56,-85.98 321.77,-85.97 324.56,-92.62"/>
<text text-anchor="middle" x="405.5" y="-139.5" font-family="Helvetica,sans-Serif" font-size="10.00"> &#45;flash</text>
</g>
</g>
</svg>
