<?xml version="1.0" encoding="UTF-8" standalone="no"?>
<!DOCTYPE svg PUBLIC "-//W3C//DTD SVG 1.1//EN"
 "http://www.w3.org/Graphics/SVG/1.1/DTD/svg11.dtd">
<!-- Generated by graphviz version 2.43.0 (0)
 -->
<!-- Title: ZOPT220Sensor::readData Pages: 1 -->
<svg width="776pt" height="294pt"
 viewBox="0.00 0.00 776.00 294.00" xmlns="http://www.w3.org/2000/svg" xmlns:xlink="http://www.w3.org/1999/xlink">
<g id="graph0" class="graph" transform="scale(1 1) rotate(0) translate(4 290)">
<title>ZOPT220Sensor::readData</title>
<!-- Node1 -->
<g id="Node000001" class="node">
<title>Node1</title>
<g id="a_Node000001"><a xlink:title="Reads data from the ZOPT220x sensor and returns it in CSV format.">
<polygon fill="#999999" stroke="#666666" points="145,-144 0,-144 0,-125 145,-125 145,-144"/>
<text text-anchor="middle" x="72.5" y="-132" font-family="Helvetica,sans-Serif" font-size="10.00">ZOPT220Sensor::readData</text>
</a>
</g>
</g>
<!-- Node2 -->
<g id="Node000002" class="node">
<title>Node2</title>
<g id="a_Node000002"><a xlink:href="classZOPT220x__Control.html#af74c3620eaaa1ba7413ebd8417eee271" target="_top" xlink:title=" ">
<polygon fill="white" stroke="#666666" points="567,-166 387,-166 387,-147 567,-147 567,-166"/>
<text text-anchor="middle" x="477" y="-154" font-family="Helvetica,sans-Serif" font-size="10.00">ZOPT220x_Control::dataAvailable</text>
</a>
</g>
</g>
<!-- Node1&#45;&gt;Node2 -->
<g id="edge1_Node000001_Node000002" class="edge">
<title>Node1&#45;&gt;Node2</title>
<g id="a_edge1_Node000001_Node000002"><a xlink:title=" ">
<path fill="none" stroke="#63b8ff" d="M107.55,-144.11C128.53,-149.53 156.1,-155.75 181,-158.5 245.95,-165.66 319.44,-165.19 376.82,-162.91"/>
<polygon fill="#63b8ff" stroke="#63b8ff" points="377.13,-166.4 386.97,-162.48 376.84,-159.41 377.13,-166.4"/>
</a>
</g>
</g>
<!-- Node4 -->
<g id="Node000004" class="node">
<title>Node4</title>
<g id="a_Node000004"><a xlink:href="classZOPT220x__Control.html#a27c0821f9341f36d87c9388ce7bf4ee5" target="_top" xlink:title=" ">
<polygon fill="white" stroke="#666666" points="339,-149.5 193,-149.5 193,-119.5 339,-119.5 339,-149.5"/>
<text text-anchor="start" x="201" y="-137.5" font-family="Helvetica,sans-Serif" font-size="10.00">ZOPT220x_Control::enable</text>
<text text-anchor="middle" x="266" y="-126.5" font-family="Helvetica,sans-Serif" font-size="10.00">ALSSensing</text>
</a>
</g>
</g>
<!-- Node1&#45;&gt;Node4 -->
<g id="edge3_Node000001_Node000004" class="edge">
<title>Node1&#45;&gt;Node4</title>
<g id="a_edge3_Node000001_Node000004"><a xlink:title=" ">
<path fill="none" stroke="#63b8ff" d="M145.08,-134.5C157.28,-134.5 170.04,-134.5 182.5,-134.5"/>
<polygon fill="#63b8ff" stroke="#63b8ff" points="182.87,-138 192.87,-134.5 182.87,-131 182.87,-138"/>
</a>
</g>
</g>
<!-- Node7 -->
<g id="Node000007" class="node">
<title>Node7</title>
<g id="a_Node000007"><a xlink:href="classZOPT220x__Control.html#a1172703928cf494b466ea2c3595bbbba" target="_top" xlink:title=" ">
<polygon fill="white" stroke="#666666" points="339,-101.5 193,-101.5 193,-71.5 339,-71.5 339,-101.5"/>
<text text-anchor="start" x="201" y="-89.5" font-family="Helvetica,sans-Serif" font-size="10.00">ZOPT220x_Control::enable</text>
<text text-anchor="middle" x="266" y="-78.5" font-family="Helvetica,sans-Serif" font-size="10.00">UVBSensing</text>
</a>
</g>
</g>
<!-- Node1&#45;&gt;Node7 -->
<g id="edge7_Node000001_Node000007" class="edge">
<title>Node1&#45;&gt;Node7</title>
<g id="a_edge7_Node000001_Node000007"><a xlink:title=" ">
<path fill="none" stroke="#63b8ff" d="M111.79,-124.9C135.62,-118.93 166.97,-111.07 195.11,-104.02"/>
<polygon fill="#63b8ff" stroke="#63b8ff" points="196.06,-107.39 204.9,-101.56 194.35,-100.6 196.06,-107.39"/>
</a>
</g>
</g>
<!-- Node8 -->
<g id="Node000008" class="node">
<title>Node8</title>
<g id="a_Node000008"><a xlink:href="classZOPT220x__Control.html#a28cf4beaf6bcebce91c1418790e9d843" target="_top" xlink:title=" ">
<polygon fill="white" stroke="#666666" points="339.5,-286 192.5,-286 192.5,-267 339.5,-267 339.5,-286"/>
<text text-anchor="middle" x="266" y="-274" font-family="Helvetica,sans-Serif" font-size="10.00">ZOPT220x_Control::getALS</text>
</a>
</g>
</g>
<!-- Node1&#45;&gt;Node8 -->
<g id="edge9_Node000001_Node000008" class="edge">
<title>Node1&#45;&gt;Node8</title>
<g id="a_edge9_Node000001_Node000008"><a xlink:title=" ">
<path fill="none" stroke="#63b8ff" d="M81.95,-144C99.16,-162.98 140.16,-206.17 181,-234.5 196.87,-245.5 216.03,-255.32 232.04,-262.68"/>
<polygon fill="#63b8ff" stroke="#63b8ff" points="230.99,-266.05 241.55,-266.94 233.85,-259.66 230.99,-266.05"/>
</a>
</g>
</g>
<!-- Node10 -->
<g id="Node000010" class="node">
<title>Node10</title>
<g id="a_Node000010"><a xlink:href="classZOPT220x__Control.html#a1233f73c507efe1393d84b9d88b4a023" target="_top" xlink:title=" ">
<polygon fill="white" stroke="#666666" points="351,-225 181,-225 181,-206 351,-206 351,-225"/>
<text text-anchor="middle" x="266" y="-213" font-family="Helvetica,sans-Serif" font-size="10.00">ZOPT220x_Control::getUVIndex</text>
</a>
</g>
</g>
<!-- Node1&#45;&gt;Node10 -->
<g id="edge11_Node000001_Node000010" class="edge">
<title>Node1&#45;&gt;Node10</title>
<g id="a_edge11_Node000001_Node000010"><a xlink:title=" ">
<path fill="none" stroke="#63b8ff" d="M89.03,-144.07C109.5,-156.37 146.91,-177.77 181,-191.5 191.88,-195.88 203.85,-199.81 215.27,-203.15"/>
<polygon fill="#63b8ff" stroke="#63b8ff" points="214.54,-206.58 225.11,-205.94 216.44,-199.85 214.54,-206.58"/>
</a>
</g>
</g>
<!-- Node13 -->
<g id="Node000013" class="node">
<title>Node13</title>
<g id="a_Node000013"><a xlink:href="classZOPT220x__Control.html#afa9fab0ef429c9e7a46afd752a2ee44d" target="_top" xlink:title=" ">
<polygon fill="white" stroke="#666666" points="552.5,-19 401.5,-19 401.5,0 552.5,0 552.5,-19"/>
<text text-anchor="middle" x="477" y="-7" font-family="Helvetica,sans-Serif" font-size="10.00">ZOPT220x_Control::setGain</text>
</a>
</g>
</g>
<!-- Node1&#45;&gt;Node13 -->
<g id="edge16_Node000001_Node000013" class="edge">
<title>Node1&#45;&gt;Node13</title>
<g id="a_edge16_Node000001_Node000013"><a xlink:title=" ">
<path fill="none" stroke="#63b8ff" d="M80.25,-125C95.48,-104.41 134.82,-55.91 181,-35.5 247.24,-6.23 329.89,-1.3 390.84,-2.78"/>
<polygon fill="#63b8ff" stroke="#63b8ff" points="391.09,-6.29 401.2,-3.1 391.31,0.7 391.09,-6.29"/>
</a>
</g>
</g>
<!-- Node14 -->
<g id="Node000014" class="node">
<title>Node14</title>
<g id="a_Node000014"><a xlink:href="classZOPT220x__Control.html#aa8d79db36ab65e003f87a493f720233d" target="_top" xlink:title=" ">
<polygon fill="white" stroke="#666666" points="567,-56 387,-56 387,-37 567,-37 567,-56"/>
<text text-anchor="middle" x="477" y="-44" font-family="Helvetica,sans-Serif" font-size="10.00">ZOPT220x_Control::setResolution</text>
</a>
</g>
</g>
<!-- Node1&#45;&gt;Node14 -->
<g id="edge19_Node000001_Node000014" class="edge">
<title>Node1&#45;&gt;Node14</title>
<g id="a_edge19_Node000001_Node000014"><a xlink:title=" ">
<path fill="none" stroke="#63b8ff" d="M83.75,-124.79C101.74,-108.43 140.94,-75.87 181,-62.5 243.76,-41.55 318.18,-37.65 376.57,-38.94"/>
<polygon fill="#63b8ff" stroke="#63b8ff" points="376.82,-42.45 386.91,-39.22 377.01,-35.45 376.82,-42.45"/>
</a>
</g>
</g>
<!-- Node3 -->
<g id="Node000003" class="node">
<title>Node3</title>
<g id="a_Node000003"><a xlink:href="classZOPT220x__Control.html#a58c74577acc1183a66b1f9b9281551a3" target="_top" xlink:title=" ">
<polygon fill="white" stroke="#666666" points="765,-101.5 606,-101.5 606,-71.5 765,-71.5 765,-101.5"/>
<text text-anchor="start" x="614" y="-89.5" font-family="Helvetica,sans-Serif" font-size="10.00">ZOPT220x_Control::zoptRead</text>
<text text-anchor="middle" x="685.5" y="-78.5" font-family="Helvetica,sans-Serif" font-size="10.00">Register</text>
</a>
</g>
</g>
<!-- Node2&#45;&gt;Node3 -->
<g id="edge2_Node000002_Node000003" class="edge">
<title>Node2&#45;&gt;Node3</title>
<g id="a_edge2_Node000002_Node000003"><a xlink:title=" ">
<path fill="none" stroke="#63b8ff" d="M506.28,-146.91C538.12,-136.12 590.59,-118.33 630.38,-104.85"/>
<polygon fill="#63b8ff" stroke="#63b8ff" points="631.59,-108.13 639.94,-101.61 629.34,-101.5 631.59,-108.13"/>
</a>
</g>
</g>
<!-- Node5 -->
<g id="Node000005" class="node">
<title>Node5</title>
<g id="a_Node000005"><a xlink:href="classZOPT220x__Control.html#a70fedf9d112bc34ef55e21452acd3877" target="_top" xlink:title=" ">
<polygon fill="white" stroke="#666666" points="554.5,-96 399.5,-96 399.5,-77 554.5,-77 554.5,-96"/>
<text text-anchor="middle" x="477" y="-84" font-family="Helvetica,sans-Serif" font-size="10.00">ZOPT220x_Control::setMode</text>
</a>
</g>
</g>
<!-- Node4&#45;&gt;Node5 -->
<g id="edge4_Node000004_Node000005" class="edge">
<title>Node4&#45;&gt;Node5</title>
<g id="a_edge4_Node000004_Node000005"><a xlink:title=" ">
<path fill="none" stroke="#63b8ff" d="M332.56,-119.44C362.2,-112.64 396.71,-104.71 424.46,-98.34"/>
<polygon fill="#63b8ff" stroke="#63b8ff" points="425.39,-101.71 434.35,-96.06 423.83,-94.89 425.39,-101.71"/>
</a>
</g>
</g>
<!-- Node5&#45;&gt;Node3 -->
<g id="edge5_Node000005_Node000003" class="edge">
<title>Node5&#45;&gt;Node3</title>
<g id="a_edge5_Node000005_Node000003"><a xlink:title=" ">
<path fill="none" stroke="#63b8ff" d="M554.6,-86.5C567.95,-86.5 581.95,-86.5 595.6,-86.5"/>
<polygon fill="#63b8ff" stroke="#63b8ff" points="595.95,-90 605.95,-86.5 595.95,-83 595.95,-90"/>
</a>
</g>
</g>
<!-- Node6 -->
<g id="Node000006" class="node">
<title>Node6</title>
<g id="a_Node000006"><a xlink:href="classZOPT220x__Control.html#ab5f43fd630eaaadeea212559e12648be" target="_top" xlink:title=" ">
<polygon fill="white" stroke="#666666" points="766,-53.5 605,-53.5 605,-23.5 766,-23.5 766,-53.5"/>
<text text-anchor="start" x="613" y="-41.5" font-family="Helvetica,sans-Serif" font-size="10.00">ZOPT220x_Control::zoptWrite</text>
<text text-anchor="middle" x="685.5" y="-30.5" font-family="Helvetica,sans-Serif" font-size="10.00">Register</text>
</a>
</g>
</g>
<!-- Node5&#45;&gt;Node6 -->
<g id="edge6_Node000005_Node000006" class="edge">
<title>Node5&#45;&gt;Node6</title>
<g id="a_edge6_Node000005_Node000006"><a xlink:title=" ">
<path fill="none" stroke="#63b8ff" d="M519.29,-76.9C545.21,-70.88 579.38,-62.93 609.92,-55.83"/>
<polygon fill="#63b8ff" stroke="#63b8ff" points="610.75,-59.24 619.7,-53.56 609.16,-52.42 610.75,-59.24"/>
</a>
</g>
</g>
<!-- Node7&#45;&gt;Node5 -->
<g id="edge8_Node000007_Node000005" class="edge">
<title>Node7&#45;&gt;Node5</title>
<g id="a_edge8_Node000007_Node000005"><a xlink:title=" ">
<path fill="none" stroke="#63b8ff" d="M339.22,-86.5C355.24,-86.5 372.39,-86.5 388.94,-86.5"/>
<polygon fill="#63b8ff" stroke="#63b8ff" points="389.15,-90 399.15,-86.5 389.15,-83 389.15,-90"/>
</a>
</g>
</g>
<!-- Node9 -->
<g id="Node000009" class="node">
<title>Node9</title>
<g id="a_Node000009"><a xlink:href="classZOPT220x__Control.html#a76e8b5e30cc7b3a0f9e0dace481e8030" target="_top" xlink:title=" ">
<polygon fill="white" stroke="#666666" points="768,-251.5 603,-251.5 603,-221.5 768,-221.5 768,-251.5"/>
<text text-anchor="start" x="611" y="-239.5" font-family="Helvetica,sans-Serif" font-size="10.00">ZOPT220x_Control::zoptRead3</text>
<text text-anchor="middle" x="685.5" y="-228.5" font-family="Helvetica,sans-Serif" font-size="10.00">Registers</text>
</a>
</g>
</g>
<!-- Node8&#45;&gt;Node9 -->
<g id="edge10_Node000008_Node000009" class="edge">
<title>Node8&#45;&gt;Node9</title>
<g id="a_edge10_Node000008_Node000009"><a xlink:title=" ">
<path fill="none" stroke="#63b8ff" d="M339.71,-275.63C400.64,-274.19 489.79,-270.39 567,-260.5 580.79,-258.73 595.39,-256.26 609.42,-253.56"/>
<polygon fill="#63b8ff" stroke="#63b8ff" points="610.4,-256.93 619.53,-251.56 609.04,-250.06 610.4,-256.93"/>
</a>
</g>
</g>
<!-- Node10&#45;&gt;Node2 -->
<g id="edge12_Node000010_Node000002" class="edge">
<title>Node10&#45;&gt;Node2</title>
<g id="a_edge12_Node000010_Node000002"><a xlink:title=" ">
<path fill="none" stroke="#63b8ff" d="M304.57,-205.97C319.21,-201.95 336.03,-196.93 351,-191.5 367.46,-185.52 370.35,-180.91 387,-175.5 395.19,-172.84 403.92,-170.45 412.6,-168.34"/>
<polygon fill="#63b8ff" stroke="#63b8ff" points="413.39,-171.75 422.34,-166.07 411.81,-164.93 413.39,-171.75"/>
</a>
</g>
</g>
<!-- Node11 -->
<g id="Node000011" class="node">
<title>Node11</title>
<g id="a_Node000011"><a xlink:href="classZOPT220x__Control.html#ac9b447f5665bc72e2cb357cc6700130e" target="_top" xlink:title=" ">
<polygon fill="white" stroke="#666666" points="563,-251.5 391,-251.5 391,-221.5 563,-221.5 563,-251.5"/>
<text text-anchor="start" x="399" y="-239.5" font-family="Helvetica,sans-Serif" font-size="10.00">ZOPT220x_Control::getAdjusted</text>
<text text-anchor="middle" x="477" y="-228.5" font-family="Helvetica,sans-Serif" font-size="10.00">UVIndex</text>
</a>
</g>
</g>
<!-- Node10&#45;&gt;Node11 -->
<g id="edge13_Node000010_Node000011" class="edge">
<title>Node10&#45;&gt;Node11</title>
<g id="a_edge13_Node000010_Node000011"><a xlink:title=" ">
<path fill="none" stroke="#63b8ff" d="M351.1,-223.95C360.79,-224.92 370.71,-225.92 380.53,-226.91"/>
<polygon fill="#63b8ff" stroke="#63b8ff" points="380.41,-230.41 390.7,-227.93 381.11,-223.45 380.41,-230.41"/>
</a>
</g>
</g>
<!-- Node12 -->
<g id="Node000012" class="node">
<title>Node12</title>
<g id="a_Node000012"><a xlink:href="classZOPT220x__Control.html#a9d0197ab4de4731ecd692e39ee9c5e64" target="_top" xlink:title=" ">
<polygon fill="white" stroke="#666666" points="552,-203 402,-203 402,-184 552,-184 552,-203"/>
<text text-anchor="middle" x="477" y="-191" font-family="Helvetica,sans-Serif" font-size="10.00">ZOPT220x_Control::getUVB</text>
</a>
</g>
</g>
<!-- Node10&#45;&gt;Node12 -->
<g id="edge14_Node000010_Node000012" class="edge">
<title>Node10&#45;&gt;Node12</title>
<g id="a_edge14_Node000010_Node000012"><a xlink:title=" ">
<path fill="none" stroke="#63b8ff" d="M351.1,-206.65C364.48,-205.24 378.32,-203.78 391.71,-202.37"/>
<polygon fill="#63b8ff" stroke="#63b8ff" points="392.26,-205.83 401.83,-201.31 391.52,-198.87 392.26,-205.83"/>
</a>
</g>
</g>
<!-- Node12&#45;&gt;Node9 -->
<g id="edge15_Node000012_Node000009" class="edge">
<title>Node12&#45;&gt;Node9</title>
<g id="a_edge15_Node000012_Node000009"><a xlink:title=" ">
<path fill="none" stroke="#63b8ff" d="M523.83,-203.04C546.9,-207.85 575.59,-213.82 602.31,-219.38"/>
<polygon fill="#63b8ff" stroke="#63b8ff" points="601.93,-222.88 612.43,-221.49 603.36,-216.03 601.93,-222.88"/>
</a>
</g>
</g>
<!-- Node13&#45;&gt;Node3 -->
<g id="edge17_Node000013_Node000003" class="edge">
<title>Node13&#45;&gt;Node3</title>
<g id="a_edge17_Node000013_Node000003"><a xlink:title=" ">
<path fill="none" stroke="#63b8ff" d="M546.46,-19.13C553.6,-21.37 560.59,-24.12 567,-27.5 586.74,-37.91 583.73,-51.24 603,-62.5 606.02,-64.27 609.18,-65.91 612.43,-67.44"/>
<polygon fill="#63b8ff" stroke="#63b8ff" points="611.21,-70.72 621.77,-71.46 613.97,-64.29 611.21,-70.72"/>
</a>
</g>
</g>
<!-- Node13&#45;&gt;Node6 -->
<g id="edge18_Node000013_Node000006" class="edge">
<title>Node13&#45;&gt;Node6</title>
<g id="a_edge18_Node000013_Node000006"><a xlink:title=" ">
<path fill="none" stroke="#63b8ff" d="M545.9,-19.04C561.48,-21.22 578.27,-23.58 594.62,-25.88"/>
<polygon fill="#63b8ff" stroke="#63b8ff" points="594.33,-29.37 604.72,-27.3 595.3,-22.44 594.33,-29.37"/>
</a>
</g>
</g>
<!-- Node14&#45;&gt;Node3 -->
<g id="edge20_Node000014_Node000003" class="edge">
<title>Node14&#45;&gt;Node3</title>
<g id="a_edge20_Node000014_Node000003"><a xlink:title=" ">
<path fill="none" stroke="#63b8ff" d="M527.2,-56.03C548.08,-60.07 573.06,-64.91 596.9,-69.53"/>
<polygon fill="#63b8ff" stroke="#63b8ff" points="596.55,-73.03 607.03,-71.49 597.88,-66.16 596.55,-73.03"/>
</a>
</g>
</g>
<!-- Node14&#45;&gt;Node6 -->
<g id="edge21_Node000014_Node000006" class="edge">
<title>Node14&#45;&gt;Node6</title>
<g id="a_edge21_Node000014_Node000006"><a xlink:title=" ">
<path fill="none" stroke="#63b8ff" d="M567.07,-43.05C576.19,-42.7 585.46,-42.34 594.59,-41.98"/>
<polygon fill="#63b8ff" stroke="#63b8ff" points="594.97,-45.47 604.83,-41.59 594.7,-38.48 594.97,-45.47"/>
</a>
</g>
</g>
</g>
</svg>
