<?xml version="1.0" encoding="UTF-8" standalone="no"?>
<!DOCTYPE svg PUBLIC "-//W3C//DTD SVG 1.1//EN"
 "http://www.w3.org/Graphics/SVG/1.1/DTD/svg11.dtd">
<!-- Generated by graphviz version 2.43.0 (0)
 -->
<!-- Title: ZOPT220x_Control::zoptWriteRegister Pages: 1 -->
<!--zoomable 405 -->
<svg id="main" version="1.1" xmlns="http://www.w3.org/2000/svg" xmlns:xlink="http://www.w3.org/1999/xlink" xml:space="preserve" onload="init(evt)">
<style type="text/css"><![CDATA[
.edge:hover path { stroke: red; }
.edge:hover polygon { stroke: red; fill: red; }
]]></style>
<script type="text/javascript"><![CDATA[
var edges = document.getElementsByTagName('g');
if (edges && edges.length) {
  for (var i=0;i<edges.length;i++) {
    if (edges[i].id.substr(0,4)=='edge') {
      edges[i].setAttribute('class','edge');
    }
  }
}
]]></script>
        <defs>
                <circle id="rim" cx="0" cy="0" r="7"/>
                <circle id="rim2" cx="0" cy="0" r="3.5"/>
                <g id="zoomPlus">
                        <use xlink:href="#rim" fill="#404040">
                                <set attributeName="fill" to="#808080" begin="zoomplus.mouseover" end="zoomplus.mouseout"/>
                        </use>
                        <path d="M-4,0h8M0,-4v8" fill="none" stroke="white" stroke-width="1.5" pointer-events="none"/>
                </g>
                <g id="zoomMin">
                        <use xlink:href="#rim" fill="#404040">
                                <set attributeName="fill" to="#808080" begin="zoomminus.mouseover" end="zoomminus.mouseout"/>
                        </use>
                        <path d="M-4,0h8" fill="none" stroke="white" stroke-width="1.5" pointer-events="none"/>
                </g>
                <g id="dirArrow">
                        <path fill="none" stroke="white" stroke-width="1.5" d="M0,-3.0v7 M-2.5,-0.5L0,-3.0L2.5,-0.5"/>
                </g>
               <g id="resetDef">
                       <use xlink:href="#rim2" fill="#404040">
                               <set attributeName="fill" to="#808080" begin="reset.mouseover" end="reset.mouseout"/>
                       </use>
               </g>
        </defs>

<script type="text/javascript">
var viewWidth = 975;
var viewHeight = 405;
var sectionId = 'dynsection-37';
</script>
<script xlink:href="svgpan.js"/>
<svg id="graph" class="graph">
<g id="viewport">
<title>ZOPT220x_Control::zoptWriteRegister</title>
<!-- Node1 -->
<g id="node1" class="node">
<title>Node1</title>
<g id="a_node1"><a xlink:title=" ">
<polygon fill="#bfbfbf" stroke="black" points="806,-147 806,-177 967,-177 967,-147 806,-147"/>
<text text-anchor="start" x="814" y="-165" font-family="Helvetica,sans-Serif" font-size="10.00">ZOPT220x_Control::zoptWrite</text>
<text text-anchor="middle" x="886.5" y="-154" font-family="Helvetica,sans-Serif" font-size="10.00">Register</text>
</a>
</g>
</g>
<!-- Node2 -->
<g id="node2" class="node">
<title>Node2</title>
<g id="a_node2"><a xlink:href="classZOPT220x__Control.html#a1f67c4ca2c2c8f160ea8f790fb433602" target="_top" xlink:title=" ">
<polygon fill="none" stroke="black" points="586.5,-322 586.5,-352 735.5,-352 735.5,-322 586.5,-322"/>
<text text-anchor="start" x="594.5" y="-340" font-family="Helvetica,sans-Serif" font-size="10.00">ZOPT220x_Control::disable</text>
<text text-anchor="middle" x="661" y="-329" font-family="Helvetica,sans-Serif" font-size="10.00">Sensor</text>
</a>
</g>
</g>
<!-- Node1&#45;&gt;Node2 -->
<g id="edge1" class="edge">
<title>Node1&#45;&gt;Node2</title>
<path fill="none" stroke="midnightblue" d="M873.77,-186.48C856.17,-220.47 819.62,-281.31 770,-313 759.64,-319.62 747.71,-324.42 735.64,-327.91"/>
<polygon fill="midnightblue" stroke="midnightblue" points="877.05,-187.76 878.43,-177.26 870.8,-184.61 877.05,-187.76"/>
</g>
<!-- Node3 -->
<g id="node3" class="node">
<title>Node3</title>
<g id="a_node3"><a xlink:href="classZOPT220x__Control.html#a6878d8f2dbff54f6e2f9203df20b9927" target="_top" xlink:title=" ">
<polygon fill="none" stroke="black" points="588,-273 588,-303 734,-303 734,-273 588,-273"/>
<text text-anchor="start" x="596" y="-291" font-family="Helvetica,sans-Serif" font-size="10.00">ZOPT220x_Control::enable</text>
<text text-anchor="middle" x="661" y="-280" font-family="Helvetica,sans-Serif" font-size="10.00">Sensor</text>
</a>
</g>
</g>
<!-- Node1&#45;&gt;Node3 -->
<g id="edge2" class="edge">
<title>Node1&#45;&gt;Node3</title>
<path fill="none" stroke="midnightblue" d="M865.72,-184.94C844.42,-208.16 808.39,-243.35 770,-263 758.86,-268.7 746.42,-273.12 734.05,-276.53"/>
<polygon fill="midnightblue" stroke="midnightblue" points="868.53,-187.05 872.62,-177.27 863.33,-182.36 868.53,-187.05"/>
</g>
<!-- Node4 -->
<g id="node4" class="node">
<title>Node4</title>
<g id="a_node4"><a xlink:href="classZOPT220x__Control.html#afa9fab0ef429c9e7a46afd752a2ee44d" target="_top" xlink:title=" ">
<polygon fill="none" stroke="black" points="585.5,-152.5 585.5,-171.5 736.5,-171.5 736.5,-152.5 585.5,-152.5"/>
<text text-anchor="middle" x="661" y="-159.5" font-family="Helvetica,sans-Serif" font-size="10.00">ZOPT220x_Control::setGain</text>
</a>
</g>
</g>
<!-- Node1&#45;&gt;Node4 -->
<g id="edge3" class="edge">
<title>Node1&#45;&gt;Node4</title>
<path fill="none" stroke="midnightblue" d="M795.65,-162C776.15,-162 755.71,-162 736.85,-162"/>
<polygon fill="midnightblue" stroke="midnightblue" points="795.76,-165.5 805.76,-162 795.76,-158.5 795.76,-165.5"/>
</g>
<!-- Node9 -->
<g id="node9" class="node">
<title>Node9</title>
<g id="a_node9"><a xlink:href="classZOPT220x__Control.html#a7bd39622c1375fed8d64c885aad5ae2d" target="_top" xlink:title=" ">
<polygon fill="none" stroke="black" points="574.5,-76.5 574.5,-95.5 747.5,-95.5 747.5,-76.5 574.5,-76.5"/>
<text text-anchor="middle" x="661" y="-83.5" font-family="Helvetica,sans-Serif" font-size="10.00">ZOPT220x_Control::setI2CAdr52</text>
</a>
</g>
</g>
<!-- Node1&#45;&gt;Node9 -->
<g id="edge8" class="edge">
<title>Node1&#45;&gt;Node9</title>
<path fill="none" stroke="midnightblue" d="M851.45,-141.98C829,-129.61 798.58,-114.35 770,-105 758.24,-101.15 745.49,-98.03 733.01,-95.52"/>
<polygon fill="midnightblue" stroke="midnightblue" points="849.81,-145.08 860.24,-146.91 853.23,-138.97 849.81,-145.08"/>
</g>
<!-- Node10 -->
<g id="node10" class="node">
<title>Node10</title>
<g id="a_node10"><a xlink:href="classZOPT220x__Control.html#ae2ff7f5af470f4f235e7725c4c35ca64" target="_top" xlink:title=" ">
<polygon fill="none" stroke="black" points="574.5,-38.5 574.5,-57.5 747.5,-57.5 747.5,-38.5 574.5,-38.5"/>
<text text-anchor="middle" x="661" y="-45.5" font-family="Helvetica,sans-Serif" font-size="10.00">ZOPT220x_Control::setI2CAdr53</text>
</a>
</g>
</g>
<!-- Node1&#45;&gt;Node10 -->
<g id="edge9" class="edge">
<title>Node1&#45;&gt;Node10</title>
<path fill="none" stroke="midnightblue" d="M864.92,-139.32C843.48,-117.18 807.77,-84.38 770,-67 761.53,-63.1 752.34,-60 743.02,-57.53"/>
<polygon fill="midnightblue" stroke="midnightblue" points="862.47,-141.82 871.9,-146.66 867.55,-137 862.47,-141.82"/>
</g>
<!-- Node11 -->
<g id="node11" class="node">
<title>Node11</title>
<g id="a_node11"><a xlink:href="classZOPT220x__Control.html#a809d1f5db2a9f0884fa82e0b77b944bf" target="_top" xlink:title=" ">
<polygon fill="none" stroke="black" points="552,-114.5 552,-133.5 770,-133.5 770,-114.5 552,-114.5"/>
<text text-anchor="middle" x="661" y="-121.5" font-family="Helvetica,sans-Serif" font-size="10.00">ZOPT220x_Control::setMeasurementRate</text>
</a>
</g>
</g>
<!-- Node1&#45;&gt;Node11 -->
<g id="edge10" class="edge">
<title>Node1&#45;&gt;Node11</title>
<path fill="none" stroke="midnightblue" d="M795.81,-146.75C769.6,-142.29 741.71,-137.55 718.21,-133.56"/>
<polygon fill="midnightblue" stroke="midnightblue" points="795.31,-150.22 805.76,-148.44 796.49,-143.32 795.31,-150.22"/>
</g>
<!-- Node12 -->
<g id="node12" class="node">
<title>Node12</title>
<g id="a_node12"><a xlink:href="classZOPT220x__Control.html#a70fedf9d112bc34ef55e21452acd3877" target="_top" xlink:title=" ">
<polygon fill="none" stroke="black" points="583.5,-234.5 583.5,-253.5 738.5,-253.5 738.5,-234.5 583.5,-234.5"/>
<text text-anchor="middle" x="661" y="-241.5" font-family="Helvetica,sans-Serif" font-size="10.00">ZOPT220x_Control::setMode</text>
</a>
</g>
</g>
<!-- Node1&#45;&gt;Node12 -->
<g id="edge12" class="edge">
<title>Node1&#45;&gt;Node12</title>
<path fill="none" stroke="midnightblue" d="M850.38,-181.98C827.96,-194.07 797.95,-209.02 770,-219 752.15,-225.37 732.04,-230.55 714.06,-234.49"/>
<polygon fill="midnightblue" stroke="midnightblue" points="852.1,-185.04 859.2,-177.17 848.74,-178.89 852.1,-185.04"/>
</g>
<!-- Node17 -->
<g id="node17" class="node">
<title>Node17</title>
<g id="a_node17"><a xlink:href="classZOPT220x__Control.html#aa8d79db36ab65e003f87a493f720233d" target="_top" xlink:title=" ">
<polygon fill="none" stroke="black" points="571,-190.5 571,-209.5 751,-209.5 751,-190.5 571,-190.5"/>
<text text-anchor="middle" x="661" y="-197.5" font-family="Helvetica,sans-Serif" font-size="10.00">ZOPT220x_Control::setResolution</text>
</a>
</g>
</g>
<!-- Node1&#45;&gt;Node17 -->
<g id="edge19" class="edge">
<title>Node1&#45;&gt;Node17</title>
<path fill="none" stroke="midnightblue" d="M795.81,-177.25C769.6,-181.71 741.71,-186.45 718.21,-190.44"/>
<polygon fill="midnightblue" stroke="midnightblue" points="796.49,-180.68 805.76,-175.56 795.31,-173.78 796.49,-180.68"/>
</g>
<!-- Node18 -->
<g id="node18" class="node">
<title>Node18</title>
<g id="a_node18"><a xlink:href="classZOPT220x__Control.html#adf29f97ec2609d414b33101264158486" target="_top" xlink:title=" ">
<polygon fill="none" stroke="black" points="581.5,-0.5 581.5,-19.5 740.5,-19.5 740.5,-0.5 581.5,-0.5"/>
<text text-anchor="middle" x="661" y="-7.5" font-family="Helvetica,sans-Serif" font-size="10.00">ZOPT220x_Control::softReset</text>
</a>
</g>
</g>
<!-- Node1&#45;&gt;Node18 -->
<g id="edge22" class="edge">
<title>Node1&#45;&gt;Node18</title>
<path fill="none" stroke="midnightblue" d="M871.8,-137.87C853.03,-107.23 816.31,-55.21 770,-29 760.97,-23.89 750.89,-20.1 740.62,-17.29"/>
<polygon fill="midnightblue" stroke="midnightblue" points="868.9,-139.85 877.03,-146.64 874.91,-136.26 868.9,-139.85"/>
</g>
<!-- Node5 -->
<g id="node5" class="node">
<title>Node5</title>
<g id="a_node5"><a xlink:href="classZOPT220Sensor.html#a6aeb56062c5ff976d199ae407df9ed6c" target="_top" xlink:title="Reads data from the ZOPT220x sensor and returns it in CSV format.">
<polygon fill="none" stroke="black" points="170.5,-212.5 170.5,-231.5 315.5,-231.5 315.5,-212.5 170.5,-212.5"/>
<text text-anchor="middle" x="243" y="-219.5" font-family="Helvetica,sans-Serif" font-size="10.00">ZOPT220Sensor::readData</text>
</a>
</g>
</g>
<!-- Node4&#45;&gt;Node5 -->
<g id="edge4" class="edge">
<title>Node4&#45;&gt;Node5</title>
<path fill="none" stroke="midnightblue" d="M575.17,-172.82C514.59,-180.72 431.19,-191.93 358,-203 338.76,-205.91 317.73,-209.34 299.03,-212.48"/>
<polygon fill="midnightblue" stroke="midnightblue" points="575.98,-176.24 585.44,-171.48 575.08,-169.3 575.98,-176.24"/>
</g>
<!-- Node6 -->
<g id="node6" class="node">
<title>Node6</title>
<g id="a_node6"><a xlink:href="classZOPT220x__Control.html#adc20ce356a572b8039ba96b9160e97c4" target="_top" xlink:title=" ">
<polygon fill="none" stroke="black" points="358,-103 358,-133 516,-133 516,-103 358,-103"/>
<text text-anchor="start" x="366" y="-121" font-family="Helvetica,sans-Serif" font-size="10.00">ZOPT220x_Control::zopt220x</text>
<text text-anchor="middle" x="437" y="-110" font-family="Helvetica,sans-Serif" font-size="10.00">SetupWithAddress</text>
</a>
</g>
</g>
<!-- Node4&#45;&gt;Node6 -->
<g id="edge5" class="edge">
<title>Node4&#45;&gt;Node6</title>
<path fill="none" stroke="midnightblue" d="M593.44,-150.74C579.72,-148.29 565.38,-145.64 552,-143 536.5,-139.94 519.86,-136.42 504.21,-133.01"/>
<polygon fill="midnightblue" stroke="midnightblue" points="592.85,-154.19 603.31,-152.48 594.07,-147.3 592.85,-154.19"/>
</g>
<!-- Node7 -->
<g id="node7" class="node">
<title>Node7</title>
<g id="a_node7"><a xlink:href="classZOPT220x__Control.html#aab772e9154760b2ddbee82953532f08e" target="_top" xlink:title=" ">
<polygon fill="none" stroke="black" points="164,-103 164,-133 322,-133 322,-103 164,-103"/>
<text text-anchor="start" x="172" y="-121" font-family="Helvetica,sans-Serif" font-size="10.00">ZOPT220x_Control::zopt220x</text>
<text text-anchor="middle" x="243" y="-110" font-family="Helvetica,sans-Serif" font-size="10.00">Setup</text>
</a>
</g>
</g>
<!-- Node6&#45;&gt;Node7 -->
<g id="edge6" class="edge">
<title>Node6&#45;&gt;Node7</title>
<path fill="none" stroke="midnightblue" d="M347.85,-118C339.23,-118 330.53,-118 322.02,-118"/>
<polygon fill="midnightblue" stroke="midnightblue" points="347.91,-121.5 357.91,-118 347.91,-114.5 347.91,-121.5"/>
</g>
<!-- Node8 -->
<g id="node8" class="node">
<title>Node8</title>
<g id="a_node8"><a xlink:href="classZOPT220Sensor.html#a5fab507a3cadaab6d6026c3fea36d0e6" target="_top" xlink:title="Verifies the connection to the ZOPT220x sensor.">
<polygon fill="none" stroke="black" points="0,-108.5 0,-127.5 128,-127.5 128,-108.5 0,-108.5"/>
<text text-anchor="middle" x="64" y="-115.5" font-family="Helvetica,sans-Serif" font-size="10.00">ZOPT220Sensor::verify</text>
</a>
</g>
</g>
<!-- Node7&#45;&gt;Node8 -->
<g id="edge7" class="edge">
<title>Node7&#45;&gt;Node8</title>
<path fill="none" stroke="midnightblue" d="M153.73,-118C145.09,-118 136.45,-118 128.13,-118"/>
<polygon fill="midnightblue" stroke="midnightblue" points="153.85,-121.5 163.85,-118 153.85,-114.5 153.85,-121.5"/>
</g>
<!-- Node11&#45;&gt;Node6 -->
<g id="edge11" class="edge">
<title>Node11&#45;&gt;Node6</title>
<path fill="none" stroke="midnightblue" d="M541.79,-120.81C533.16,-120.57 524.59,-120.34 516.3,-120.12"/>
<polygon fill="midnightblue" stroke="midnightblue" points="541.84,-124.31 551.93,-121.08 542.02,-117.31 541.84,-124.31"/>
</g>
<!-- Node13 -->
<g id="node13" class="node">
<title>Node13</title>
<g id="a_node13"><a xlink:href="classZOPT220x__Control.html#a27c0821f9341f36d87c9388ce7bf4ee5" target="_top" xlink:title=" ">
<polygon fill="none" stroke="black" points="364,-229 364,-259 510,-259 510,-229 364,-229"/>
<text text-anchor="start" x="372" y="-247" font-family="Helvetica,sans-Serif" font-size="10.00">ZOPT220x_Control::enable</text>
<text text-anchor="middle" x="437" y="-236" font-family="Helvetica,sans-Serif" font-size="10.00">ALSSensing</text>
</a>
</g>
</g>
<!-- Node12&#45;&gt;Node13 -->
<g id="edge13" class="edge">
<title>Node12&#45;&gt;Node13</title>
<path fill="none" stroke="midnightblue" d="M573.17,-244C552.34,-244 530.32,-244 510.23,-244"/>
<polygon fill="midnightblue" stroke="midnightblue" points="573.29,-247.5 583.29,-244 573.29,-240.5 573.29,-247.5"/>
</g>
<!-- Node14 -->
<g id="node14" class="node">
<title>Node14</title>
<g id="a_node14"><a xlink:href="classZOPT220x__Control.html#a0d055b74457d1c10173897918d5610ab" target="_top" xlink:title=" ">
<polygon fill="none" stroke="black" points="364,-366 364,-396 510,-396 510,-366 364,-366"/>
<text text-anchor="start" x="372" y="-384" font-family="Helvetica,sans-Serif" font-size="10.00">ZOPT220x_Control::enable</text>
<text text-anchor="middle" x="437" y="-373" font-family="Helvetica,sans-Serif" font-size="10.00">RawSensing</text>
</a>
</g>
</g>
<!-- Node12&#45;&gt;Node14 -->
<g id="edge15" class="edge">
<title>Node12&#45;&gt;Node14</title>
<path fill="none" stroke="midnightblue" d="M573.89,-251.39C565.97,-254.52 558.5,-258.63 552,-264 518.15,-291.96 548.01,-325.94 516,-356 511.85,-359.89 507.1,-363.18 502.03,-365.96"/>
<polygon fill="midnightblue" stroke="midnightblue" points="575.03,-254.7 583.36,-248.16 572.77,-248.08 575.03,-254.7"/>
</g>
<!-- Node15 -->
<g id="node15" class="node">
<title>Node15</title>
<g id="a_node15"><a xlink:href="classZOPT220x__Control.html#a1172703928cf494b466ea2c3595bbbba" target="_top" xlink:title=" ">
<polygon fill="none" stroke="black" points="364,-278 364,-308 510,-308 510,-278 364,-278"/>
<text text-anchor="start" x="372" y="-296" font-family="Helvetica,sans-Serif" font-size="10.00">ZOPT220x_Control::enable</text>
<text text-anchor="middle" x="437" y="-285" font-family="Helvetica,sans-Serif" font-size="10.00">UVBSensing</text>
</a>
</g>
</g>
<!-- Node12&#45;&gt;Node15 -->
<g id="edge16" class="edge">
<title>Node12&#45;&gt;Node15</title>
<path fill="none" stroke="midnightblue" d="M594.54,-255.4C580.47,-258.06 565.71,-260.99 552,-264 533.05,-268.16 512.47,-273.23 494.07,-277.95"/>
<polygon fill="midnightblue" stroke="midnightblue" points="595.45,-258.8 604.64,-253.53 594.17,-251.91 595.45,-258.8"/>
</g>
<!-- Node16 -->
<g id="node16" class="node">
<title>Node16</title>
<g id="a_node16"><a xlink:href="classZOPT220x__Control.html#ac427197b44897ed82f77069e2e88270a" target="_top" xlink:title=" ">
<polygon fill="none" stroke="black" points="361,-327.5 361,-346.5 513,-346.5 513,-327.5 361,-327.5"/>
<text text-anchor="middle" x="437" y="-334.5" font-family="Helvetica,sans-Serif" font-size="10.00">ZOPT220x_Control::standby</text>
</a>
</g>
</g>
<!-- Node12&#45;&gt;Node16 -->
<g id="edge18" class="edge">
<title>Node12&#45;&gt;Node16</title>
<path fill="none" stroke="midnightblue" d="M573.5,-253.42C565.9,-256.18 558.6,-259.65 552,-264 527.92,-279.88 539.63,-301.46 516,-318 510.52,-321.84 504.35,-324.9 497.95,-327.35"/>
<polygon fill="midnightblue" stroke="midnightblue" points="574.79,-256.68 583.25,-250.3 572.66,-250.02 574.79,-256.68"/>
</g>
<!-- Node13&#45;&gt;Node5 -->
<g id="edge14" class="edge">
<title>Node13&#45;&gt;Node5</title>
<path fill="none" stroke="midnightblue" d="M353.89,-234.59C341.22,-233.14 328.22,-231.65 315.81,-230.23"/>
<polygon fill="midnightblue" stroke="midnightblue" points="353.63,-238.08 363.96,-235.75 354.42,-231.13 353.63,-238.08"/>
</g>
<!-- Node15&#45;&gt;Node5 -->
<g id="edge17" class="edge">
<title>Node15&#45;&gt;Node5</title>
<path fill="none" stroke="midnightblue" d="M374.93,-274.8C369.18,-272.91 363.47,-270.96 358,-269 325.36,-257.28 288.38,-241.57 265.62,-231.62"/>
<polygon fill="midnightblue" stroke="midnightblue" points="374,-278.18 384.59,-277.92 376.15,-271.52 374,-278.18"/>
</g>
<!-- Node17&#45;&gt;Node5 -->
<g id="edge20" class="edge">
<title>Node17&#45;&gt;Node5</title>
<path fill="none" stroke="midnightblue" d="M560.77,-205.25C485.38,-209.23 383.46,-214.62 315.82,-218.2"/>
<polygon fill="midnightblue" stroke="midnightblue" points="560.96,-208.74 570.76,-204.72 560.59,-201.75 560.96,-208.74"/>
</g>
<!-- Node17&#45;&gt;Node6 -->
<g id="edge21" class="edge">
<title>Node17&#45;&gt;Node6</title>
<path fill="none" stroke="midnightblue" d="M576.63,-188.21C568.21,-186.16 559.87,-183.78 552,-181 518.1,-169.03 482.33,-147.62 460.1,-133.12"/>
<polygon fill="midnightblue" stroke="midnightblue" points="576.01,-191.65 586.53,-190.45 577.56,-184.83 576.01,-191.65"/>
</g>
</g>
</svg>
        <g id="navigator" transform="translate(0 0)" fill="#404254">
                <rect fill="#f2f5e9" fill-opacity="0.5" stroke="#606060" stroke-width=".5" x="0" y="0" width="60" height="60"/>
                <use id="zoomplus" xlink:href="#zoomPlus" x="17" y="9" onmousedown="handleZoom(evt,'in')"/>
                <use id="zoomminus" xlink:href="#zoomMin" x="42" y="9" onmousedown="handleZoom(evt,'out')"/>
                <use id="reset" xlink:href="#resetDef" x="30" y="36" onmousedown="handleReset()"/>
                <g id="arrowUp" xlink:href="#dirArrow" transform="translate(30 24)" onmousedown="handlePan(0,-1)">
                  <use xlink:href="#rim" fill="#404040">
                        <set attributeName="fill" to="#808080" begin="arrowUp.mouseover" end="arrowUp.mouseout"/>
                  </use>
                  <path fill="none" stroke="white" stroke-width="1.5" d="M0,-3.0v7 M-2.5,-0.5L0,-3.0L2.5,-0.5"/>
                </g>
                <g id="arrowRight" xlink:href="#dirArrow" transform="rotate(90) translate(36 -43)" onmousedown="handlePan(1,0)">
                  <use xlink:href="#rim" fill="#404040">
                        <set attributeName="fill" to="#808080" begin="arrowRight.mouseover" end="arrowRight.mouseout"/>
                  </use>
                  <path fill="none" stroke="white" stroke-width="1.5" d="M0,-3.0v7 M-2.5,-0.5L0,-3.0L2.5,-0.5"/>
                </g>
                <g id="arrowDown" xlink:href="#dirArrow" transform="rotate(180) translate(-30 -48)" onmousedown="handlePan(0,1)">
                  <use xlink:href="#rim" fill="#404040">
                        <set attributeName="fill" to="#808080" begin="arrowDown.mouseover" end="arrowDown.mouseout"/>
                  </use>
                  <path fill="none" stroke="white" stroke-width="1.5" d="M0,-3.0v7 M-2.5,-0.5L0,-3.0L2.5,-0.5"/>
                </g>
                <g id="arrowLeft" xlink:href="#dirArrow" transform="rotate(270) translate(-36 17)" onmousedown="handlePan(-1,0)">
                  <use xlink:href="#rim" fill="#404040">
                        <set attributeName="fill" to="#808080" begin="arrowLeft.mouseover" end="arrowLeft.mouseout"/>
                  </use>
                  <path fill="none" stroke="white" stroke-width="1.5" d="M0,-3.0v7 M-2.5,-0.5L0,-3.0L2.5,-0.5"/>
                </g>
        </g>
        <svg viewBox="0 0 15 15" width="100%" height="30px" preserveAspectRatio="xMaxYMin meet">
         <g id="arrow_out" transform="scale(0.3 0.3)">
          <a xlink:href="classZOPT220x__Control_ab5f43fd630eaaadeea212559e12648be_icgraph_org.svg" target="_base">
           <rect id="button" ry="5" rx="5" y="6" x="6" height="38" width="38"
                fill="#f2f5e9" fill-opacity="0.5" stroke="#606060" stroke-width="1.0"/>
           <path id="arrow"
             d="M 11.500037,31.436501 C 11.940474,20.09759 22.043105,11.32322 32.158766,21.979434 L 37.068811,17.246167 C 37.068811,17.246167 37.088388,32 37.088388,32 L 22.160133,31.978069 C 22.160133,31.978069 26.997745,27.140456 26.997745,27.140456 C 18.528582,18.264221 13.291696,25.230495 11.500037,31.436501 z"
             style="fill:#404040;"/>
          </a>
         </g>
        </svg>
</svg>
