<?xml version="1.0" encoding="UTF-8" standalone="no"?>
<!DOCTYPE svg PUBLIC "-//W3C//DTD SVG 1.1//EN"
 "http://www.w3.org/Graphics/SVG/1.1/DTD/svg11.dtd">
<!-- Generated by graphviz version 2.43.0 (0)
 -->
<!-- Title: ErrorDisplay Pages: 1 -->
<svg width="263pt" height="204pt"
 viewBox="0.00 0.00 263.00 204.00" xmlns="http://www.w3.org/2000/svg" xmlns:xlink="http://www.w3.org/1999/xlink">
<g id="graph0" class="graph" transform="scale(1 1) rotate(0) translate(4 200)">
<title>ErrorDisplay</title>
<!-- Node1 -->
<g id="node1" class="node">
<title>Node1</title>
<g id="a_node1"><a xlink:title="Singleton class for the 3 GPIO LED Error Display.">
<polygon fill="#bfbfbf" stroke="black" points="41.5,-0.5 41.5,-90.5 132.5,-90.5 132.5,-0.5 41.5,-0.5"/>
<text text-anchor="middle" x="87" y="-78.5" font-family="Helvetica,sans-Serif" font-size="10.00">ErrorDisplay</text>
<polyline fill="none" stroke="black" points="41.5,-71.5 132.5,-71.5 "/>
<text text-anchor="middle" x="87" y="-59.5" font-family="Helvetica,sans-Serif" font-size="10.00"> </text>
<polyline fill="none" stroke="black" points="41.5,-52.5 132.5,-52.5 "/>
<text text-anchor="start" x="49.5" y="-40.5" font-family="Helvetica,sans-Serif" font-size="10.00">+ addCode()</text>
<text text-anchor="start" x="49.5" y="-29.5" font-family="Helvetica,sans-Serif" font-size="10.00">+ toggle()</text>
<text text-anchor="start" x="49.5" y="-18.5" font-family="Helvetica,sans-Serif" font-size="10.00">+ instance()</text>
<text text-anchor="start" x="49.5" y="-7.5" font-family="Helvetica,sans-Serif" font-size="10.00">&#45; ErrorDisplay()</text>
</a>
</g>
</g>
<!-- Node2 -->
<g id="node2" class="node">
<title>Node2</title>
<g id="a_node2"><a xlink:title=" ">
<polygon fill="none" stroke="#bfbfbf" points="0,-138.5 0,-195.5 40,-195.5 40,-138.5 0,-138.5"/>
<text text-anchor="middle" x="20" y="-183.5" font-family="Helvetica,sans-Serif" font-size="10.00">Error</text>
<polyline fill="none" stroke="#bfbfbf" points="0,-176.5 40,-176.5 "/>
<text text-anchor="middle" x="20" y="-164.5" font-family="Helvetica,sans-Serif" font-size="10.00"> </text>
<polyline fill="none" stroke="#bfbfbf" points="0,-157.5 40,-157.5 "/>
<text text-anchor="middle" x="20" y="-145.5" font-family="Helvetica,sans-Serif" font-size="10.00"> </text>
</a>
</g>
</g>
<!-- Node2&#45;&gt;Node1 -->
<g id="edge1" class="edge">
<title>Node2&#45;&gt;Node1</title>
<path fill="none" stroke="#404040" d="M35.54,-138.28C41.7,-127.3 49.01,-114.25 56.16,-101.5"/>
<polygon fill="none" stroke="#404040" points="56.23,-101.38 55.68,-94.19 62.1,-90.91 62.65,-98.1 56.23,-101.38"/>
<text text-anchor="middle" x="67.5" y="-112" font-family="Helvetica,sans-Serif" font-size="10.00"> &#45;code</text>
</g>
<!-- Node3 -->
<g id="node3" class="node">
<title>Node3</title>
<g id="a_node3"><a xlink:title=" ">
<polygon fill="none" stroke="#bfbfbf" points="58.5,-138.5 58.5,-195.5 115.5,-195.5 115.5,-138.5 58.5,-138.5"/>
<text text-anchor="middle" x="87" y="-183.5" font-family="Helvetica,sans-Serif" font-size="10.00">mutex_t</text>
<polyline fill="none" stroke="#bfbfbf" points="58.5,-176.5 115.5,-176.5 "/>
<text text-anchor="middle" x="87" y="-164.5" font-family="Helvetica,sans-Serif" font-size="10.00"> </text>
<polyline fill="none" stroke="#bfbfbf" points="58.5,-157.5 115.5,-157.5 "/>
<text text-anchor="middle" x="87" y="-145.5" font-family="Helvetica,sans-Serif" font-size="10.00"> </text>
</a>
</g>
</g>
<!-- Node3&#45;&gt;Node1 -->
<g id="edge2" class="edge">
<title>Node3&#45;&gt;Node1</title>
<path fill="none" stroke="#404040" d="M87,-138.28C87,-127.73 87,-115.29 87,-103.03"/>
<polygon fill="none" stroke="#404040" points="87,-102.91 83,-96.91 87,-90.91 91,-96.91 87,-102.91"/>
<text text-anchor="middle" x="141" y="-112" font-family="Helvetica,sans-Serif" font-size="10.00"> &#45;error_display_mutex</text>
</g>
<!-- Node4 -->
<g id="node4" class="node">
<title>Node4</title>
<g id="a_node4"><a xlink:title=" ">
<polygon fill="none" stroke="#bfbfbf" points="203.5,-138.5 203.5,-195.5 232.5,-195.5 232.5,-138.5 203.5,-138.5"/>
<text text-anchor="middle" x="218" y="-183.5" font-family="Helvetica,sans-Serif" font-size="10.00">int</text>
<polyline fill="none" stroke="#bfbfbf" points="203.5,-176.5 232.5,-176.5 "/>
<text text-anchor="middle" x="218" y="-164.5" font-family="Helvetica,sans-Serif" font-size="10.00"> </text>
<polyline fill="none" stroke="#bfbfbf" points="203.5,-157.5 232.5,-157.5 "/>
<text text-anchor="middle" x="218" y="-145.5" font-family="Helvetica,sans-Serif" font-size="10.00"> </text>
</a>
</g>
</g>
<!-- Node4&#45;&gt;Node1 -->
<g id="edge3" class="edge">
<title>Node4&#45;&gt;Node1</title>
<path fill="none" stroke="#404040" d="M211.54,-138.43C208.16,-128.35 203.18,-117.37 196,-109 181.87,-92.53 162.26,-79.43 143.57,-69.56"/>
<polygon fill="none" stroke="#404040" points="143.44,-69.49 136.29,-70.38 132.71,-64.12 139.87,-63.23 143.44,-69.49"/>
<text text-anchor="middle" x="229" y="-112" font-family="Helvetica,sans-Serif" font-size="10.00"> &#45;pin_level</text>
</g>
</g>
</svg>
