<?xml version="1.0" encoding="UTF-8" standalone="no"?>
<!DOCTYPE svg PUBLIC "-//W3C//DTD SVG 1.1//EN"
 "http://www.w3.org/Graphics/SVG/1.1/DTD/svg11.dtd">
<!-- Generated by graphviz version 2.43.0 (0)
 -->
<!-- Title: PCF8523Sensor Pages: 1 -->
<svg width="320pt" height="485pt"
 viewBox="0.00 0.00 320.00 485.00" xmlns="http://www.w3.org/2000/svg" xmlns:xlink="http://www.w3.org/1999/xlink">
<g id="graph0" class="graph" transform="scale(1 1) rotate(0) translate(4 481)">
<title>PCF8523Sensor</title>
<!-- Node1 -->
<g id="Node000001" class="node">
<title>Node1</title>
<g id="a_Node000001"><a xlink:title=" ">
<polygon fill="#999999" stroke="transparent" points="295,-109 190,-109 190,0 295,0 295,-109"/>
<text text-anchor="start" x="205" y="-96.5" font-family="Helvetica,sans-Serif" font-size="10.00">PCF8523Sensor</text>
<text text-anchor="start" x="241" y="-81.5" font-family="Helvetica,sans-Serif" font-size="10.00"> </text>
<text text-anchor="start" x="194.5" y="-66.5" font-family="Helvetica,sans-Serif" font-size="10.00">+</text>
<text text-anchor="start" x="207.5" y="-66.5" font-family="Helvetica,sans-Serif" font-size="10.00">PCF8523Sensor()</text>
<text text-anchor="start" x="194.5" y="-51.5" font-family="Helvetica,sans-Serif" font-size="10.00">+</text>
<text text-anchor="start" x="207.5" y="-51.5" font-family="Helvetica,sans-Serif" font-size="10.00">PCF8523Sensor()</text>
<text text-anchor="start" x="194.5" y="-36.5" font-family="Helvetica,sans-Serif" font-size="10.00">+</text>
<text text-anchor="start" x="207.5" y="-36.5" font-family="Helvetica,sans-Serif" font-size="10.00">verify()</text>
<text text-anchor="start" x="194.5" y="-21.5" font-family="Helvetica,sans-Serif" font-size="10.00">+</text>
<text text-anchor="start" x="207.5" y="-21.5" font-family="Helvetica,sans-Serif" font-size="10.00">readData()</text>
<text text-anchor="start" x="194.5" y="-6.5" font-family="Helvetica,sans-Serif" font-size="10.00">+</text>
<text text-anchor="start" x="207.5" y="-6.5" font-family="Helvetica,sans-Serif" font-size="10.00">calibrate()</text>
<polygon fill="#666666" stroke="#666666" points="190.5,-91.5 190.5,-91.5 295.5,-91.5 295.5,-91.5 190.5,-91.5"/>
<polygon fill="#666666" stroke="#666666" points="190.5,-76.5 190.5,-76.5 295.5,-76.5 295.5,-76.5 190.5,-76.5"/>
<polygon fill="none" stroke="#666666" points="190,0 190,-109 295,-109 295,0 190,0"/>
</a>
</g>
</g>
<!-- Node2 -->
<g id="Node000002" class="node">
<title>Node2</title>
<g id="a_Node000002"><a xlink:href="classSensor.html" target="_top" xlink:title="Parent class for sensor objects.">
<polygon fill="white" stroke="transparent" points="217,-370 84,-370 84,-156 217,-156 217,-370"/>
<text text-anchor="start" x="134" y="-358" font-family="Helvetica,sans-Serif" font-size="10.00">Sensor</text>
<text text-anchor="start" x="149" y="-343" font-family="Helvetica,sans-Serif" font-size="10.00"> </text>
<text text-anchor="start" x="88.5" y="-328" font-family="Helvetica,sans-Serif" font-size="10.00">+</text>
<text text-anchor="start" x="101.5" y="-328" font-family="Helvetica,sans-Serif" font-size="10.00">Sensor()</text>
<text text-anchor="start" x="88.5" y="-313" font-family="Helvetica,sans-Serif" font-size="10.00">+</text>
<text text-anchor="start" x="101.5" y="-313" font-family="Helvetica,sans-Serif" font-size="10.00">Sensor()</text>
<text text-anchor="start" x="88.5" y="-298" font-family="Helvetica,sans-Serif" font-size="10.00">+</text>
<text text-anchor="start" x="101.5" y="-298" font-family="Helvetica,sans-Serif" font-size="10.00">getPeriod()</text>
<text text-anchor="start" x="88.5" y="-283" font-family="Helvetica,sans-Serif" font-size="10.00">+</text>
<text text-anchor="start" x="101.5" y="-283" font-family="Helvetica,sans-Serif" font-size="10.00">setPeriod()</text>
<text text-anchor="start" x="88.5" y="-268" font-family="Helvetica,sans-Serif" font-size="10.00">+</text>
<text text-anchor="start" x="101.5" y="-268" font-family="Helvetica,sans-Serif" font-size="10.00">getLastExecution()</text>
<text text-anchor="start" x="88.5" y="-253" font-family="Helvetica,sans-Serif" font-size="10.00">+</text>
<text text-anchor="start" x="101.5" y="-253" font-family="Helvetica,sans-Serif" font-size="10.00">setLastExecution()</text>
<text text-anchor="start" x="88.5" y="-238" font-family="Helvetica,sans-Serif" font-size="10.00">+</text>
<text text-anchor="start" x="101.5" y="-238" font-family="Helvetica,sans-Serif" font-size="10.00">getSensorName()</text>
<text text-anchor="start" x="88.5" y="-223" font-family="Helvetica,sans-Serif" font-size="10.00">+</text>
<text text-anchor="start" x="101.5" y="-223" font-family="Helvetica,sans-Serif" font-size="10.00">getSensorCSVHeader()</text>
<text text-anchor="start" x="88.5" y="-208" font-family="Helvetica,sans-Serif" font-size="10.00">+</text>
<text text-anchor="start" x="101.5" y="-208" font-family="Helvetica,sans-Serif" font-size="10.00">verify()</text>
<text text-anchor="start" x="88.5" y="-193" font-family="Helvetica,sans-Serif" font-size="10.00">+</text>
<text text-anchor="start" x="101.5" y="-193" font-family="Helvetica,sans-Serif" font-size="10.00">readData()</text>
<text text-anchor="start" x="88.5" y="-178" font-family="Helvetica,sans-Serif" font-size="10.00">+</text>
<text text-anchor="start" x="101.5" y="-178" font-family="Helvetica,sans-Serif" font-size="10.00">readEmpty()</text>
<text text-anchor="start" x="88.5" y="-163" font-family="Helvetica,sans-Serif" font-size="10.00">+</text>
<text text-anchor="start" x="101.5" y="-163" font-family="Helvetica,sans-Serif" font-size="10.00">getDataCSV()</text>
<polygon fill="#666666" stroke="#666666" points="84.5,-353 84.5,-353 217.5,-353 217.5,-353 84.5,-353"/>
<polygon fill="#666666" stroke="#666666" points="84.5,-338 84.5,-338 217.5,-338 217.5,-338 84.5,-338"/>
<polygon fill="none" stroke="#666666" points="84,-156 84,-370 217,-370 217,-156 84,-156"/>
</a>
</g>
</g>
<!-- Node2&#45;&gt;Node1 -->
<g id="edge1_Node000001_Node000002" class="edge">
<title>Node2&#45;&gt;Node1</title>
<g id="a_edge1_Node000001_Node000002"><a xlink:title=" ">
<path fill="none" stroke="#63b8ff" d="M202.07,-146.25C207.84,-133.29 213.5,-120.6 218.66,-109"/>
<polygon fill="none" stroke="#63b8ff" points="198.72,-145.17 197.85,-155.73 205.11,-148.02 198.72,-145.17"/>
</a>
</g>
</g>
<!-- Node3 -->
<g id="Node000003" class="node">
<title>Node3</title>
<g id="a_Node000003"><a xlink:title=" ">
<polygon fill="white" stroke="transparent" points="79,-477 0,-477 0,-428 79,-428 79,-477"/>
<text text-anchor="start" x="5.5" y="-464.5" font-family="Helvetica,sans-Serif" font-size="10.00">unsigned long</text>
<text text-anchor="start" x="38" y="-449.5" font-family="Helvetica,sans-Serif" font-size="10.00"> </text>
<text text-anchor="start" x="38" y="-434.5" font-family="Helvetica,sans-Serif" font-size="10.00"> </text>
<polygon fill="#666666" stroke="#666666" points="0.5,-459.5 0.5,-459.5 79.5,-459.5 79.5,-459.5 0.5,-459.5"/>
<polygon fill="#666666" stroke="#666666" points="0.5,-444.5 0.5,-444.5 79.5,-444.5 79.5,-444.5 0.5,-444.5"/>
<polygon fill="none" stroke="#666666" points="0,-428 0,-477 79,-477 79,-428 0,-428"/>
</a>
</g>
</g>
<!-- Node3&#45;&gt;Node2 -->
<g id="edge2_Node000002_Node000003" class="edge">
<title>Node3&#45;&gt;Node2</title>
<g id="a_edge2_Node000002_Node000003"><a xlink:title=" ">
<path fill="none" stroke="#63b8ff" d="M44.5,-427.84C47.6,-415.56 52.21,-400.55 58.5,-388 63.96,-377.1 70.38,-366.17 77.25,-355.55"/>
<polygon fill="none" stroke="#63b8ff" points="77.31,-355.46 77.31,-348.25 83.96,-345.47 83.97,-352.68 77.31,-355.46"/>
</a>
</g>
<text text-anchor="middle" x="102.5" y="-402" font-family="Helvetica,sans-Serif" font-size="10.00" fill="grey"> &#45;last_execution</text>
<text text-anchor="middle" x="102.5" y="-391" font-family="Helvetica,sans-Serif" font-size="10.00" fill="grey">&#45;minimum_period</text>
</g>
<!-- Node4 -->
<g id="Node000004" class="node">
<title>Node4</title>
<g id="a_Node000004"><a xlink:title=" ">
<polygon fill="white" stroke="transparent" points="170,-477 131,-477 131,-428 170,-428 170,-477"/>
<text text-anchor="start" x="136.5" y="-464.5" font-family="Helvetica,sans-Serif" font-size="10.00">String</text>
<text text-anchor="start" x="149" y="-449.5" font-family="Helvetica,sans-Serif" font-size="10.00"> </text>
<text text-anchor="start" x="149" y="-434.5" font-family="Helvetica,sans-Serif" font-size="10.00"> </text>
<polygon fill="#666666" stroke="#666666" points="131.5,-459.5 131.5,-459.5 170.5,-459.5 170.5,-459.5 131.5,-459.5"/>
<polygon fill="#666666" stroke="#666666" points="131.5,-444.5 131.5,-444.5 170.5,-444.5 170.5,-444.5 131.5,-444.5"/>
<polygon fill="none" stroke="#666666" points="131,-428 131,-477 170,-477 170,-428 131,-428"/>
</a>
</g>
</g>
<!-- Node4&#45;&gt;Node2 -->
<g id="edge3_Node000002_Node000004" class="edge">
<title>Node4&#45;&gt;Node2</title>
<g id="a_edge3_Node000002_Node000004"><a xlink:title=" ">
<path fill="none" stroke="#63b8ff" d="M150.5,-427.75C150.5,-415.5 150.5,-399.55 150.5,-382.41"/>
<polygon fill="none" stroke="#63b8ff" points="150.5,-382.39 146.5,-376.39 150.5,-370.39 154.5,-376.39 150.5,-382.39"/>
</a>
</g>
<text text-anchor="middle" x="185.5" y="-402" font-family="Helvetica,sans-Serif" font-size="10.00" fill="grey"> &#45;csv_header</text>
<text text-anchor="middle" x="185.5" y="-391" font-family="Helvetica,sans-Serif" font-size="10.00" fill="grey">&#45;sensor_name</text>
</g>
<!-- Node5 -->
<g id="Node000005" class="node">
<title>Node5</title>
<g id="a_Node000005"><a xlink:title=" ">
<polygon fill="white" stroke="transparent" points="255,-477 232,-477 232,-428 255,-428 255,-477"/>
<text text-anchor="start" x="237.5" y="-464.5" font-family="Helvetica,sans-Serif" font-size="10.00">int</text>
<text text-anchor="start" x="242" y="-449.5" font-family="Helvetica,sans-Serif" font-size="10.00"> </text>
<text text-anchor="start" x="242" y="-434.5" font-family="Helvetica,sans-Serif" font-size="10.00"> </text>
<polygon fill="#666666" stroke="#666666" points="232.5,-459.5 232.5,-459.5 255.5,-459.5 255.5,-459.5 232.5,-459.5"/>
<polygon fill="#666666" stroke="#666666" points="232.5,-444.5 232.5,-444.5 255.5,-444.5 255.5,-444.5 232.5,-444.5"/>
<polygon fill="none" stroke="#666666" points="232,-428 232,-477 255,-477 255,-428 232,-428"/>
</a>
</g>
</g>
<!-- Node5&#45;&gt;Node2 -->
<g id="edge4_Node000002_Node000005" class="edge">
<title>Node5&#45;&gt;Node2</title>
<g id="a_edge4_Node000002_Node000005"><a xlink:title=" ">
<path fill="none" stroke="#63b8ff" d="M236.47,-427.87C232.58,-415.74 227.34,-400.85 221.5,-388 220.46,-385.71 219.39,-383.4 218.29,-381.08"/>
<polygon fill="none" stroke="#63b8ff" points="218.24,-380.99 212.02,-377.35 212.99,-370.2 219.21,-373.85 218.24,-380.99"/>
</a>
</g>
<text text-anchor="middle" x="247.5" y="-396.5" font-family="Helvetica,sans-Serif" font-size="10.00" fill="grey"> &#45;fields</text>
</g>
<!-- Node6 -->
<g id="Node000006" class="node">
<title>Node6</title>
<g id="a_Node000006"><a xlink:title=" ">
<polygon fill="white" stroke="transparent" points="312,-287.5 235,-287.5 235,-238.5 312,-238.5 312,-287.5"/>
<text text-anchor="start" x="240.5" y="-275" font-family="Helvetica,sans-Serif" font-size="10.00">RTC_PCF8523</text>
<text text-anchor="start" x="272" y="-260" font-family="Helvetica,sans-Serif" font-size="10.00"> </text>
<text text-anchor="start" x="272" y="-245" font-family="Helvetica,sans-Serif" font-size="10.00"> </text>
<polygon fill="#666666" stroke="#666666" points="235.5,-270 235.5,-270 312.5,-270 312.5,-270 235.5,-270"/>
<polygon fill="#666666" stroke="#666666" points="235.5,-255 235.5,-255 312.5,-255 312.5,-255 235.5,-255"/>
<polygon fill="none" stroke="#666666" points="235,-238.5 235,-287.5 312,-287.5 312,-238.5 235,-238.5"/>
</a>
</g>
</g>
<!-- Node6&#45;&gt;Node1 -->
<g id="edge5_Node000001_Node000006" class="edge">
<title>Node6&#45;&gt;Node1</title>
<g id="a_edge5_Node000001_Node000006"><a xlink:title=" ">
<path fill="none" stroke="#63b8ff" d="M269.94,-238.31C265.69,-209.99 258.4,-161.4 252.4,-121.43"/>
<polygon fill="none" stroke="#63b8ff" points="252.36,-121.21 247.52,-115.87 250.58,-109.34 255.43,-114.68 252.36,-121.21"/>
</a>
</g>
<text text-anchor="middle" x="263.5" y="-130" font-family="Helvetica,sans-Serif" font-size="10.00" fill="grey"> &#45;rtc</text>
</g>
</g>
</svg>
