<?xml version="1.0" encoding="UTF-8" standalone="no"?>
<!DOCTYPE svg PUBLIC "-//W3C//DTD SVG 1.1//EN"
 "http://www.w3.org/Graphics/SVG/1.1/DTD/svg11.dtd">
<!-- Generated by graphviz version 2.43.0 (0)
 -->
<!-- Title: Sensor Pages: 1 -->
<!--zoomable 369 -->
<svg id="main" version="1.1" xmlns="http://www.w3.org/2000/svg" xmlns:xlink="http://www.w3.org/1999/xlink" xml:space="preserve" onload="init(evt)">
<style type="text/css"><![CDATA[
.edge:hover path { stroke: red; }
.edge:hover polygon { stroke: red; fill: red; }
]]></style>
<script type="text/javascript"><![CDATA[
var edges = document.getElementsByTagName('g');
if (edges && edges.length) {
  for (var i=0;i<edges.length;i++) {
    if (edges[i].id.substr(0,4)=='edge') {
      edges[i].setAttribute('class','edge');
    }
  }
}
]]></script>
        <defs>
                <circle id="rim" cx="0" cy="0" r="7"/>
                <circle id="rim2" cx="0" cy="0" r="3.5"/>
                <g id="zoomPlus">
                        <use xlink:href="#rim" fill="#404040">
                                <set attributeName="fill" to="#808080" begin="zoomplus.mouseover" end="zoomplus.mouseout"/>
                        </use>
                        <path d="M-4,0h8M0,-4v8" fill="none" stroke="white" stroke-width="1.5" pointer-events="none"/>
                </g>
                <g id="zoomMin">
                        <use xlink:href="#rim" fill="#404040">
                                <set attributeName="fill" to="#808080" begin="zoomminus.mouseover" end="zoomminus.mouseout"/>
                        </use>
                        <path d="M-4,0h8" fill="none" stroke="white" stroke-width="1.5" pointer-events="none"/>
                </g>
                <g id="dirArrow">
                        <path fill="none" stroke="white" stroke-width="1.5" d="M0,-3.0v7 M-2.5,-0.5L0,-3.0L2.5,-0.5"/>
                </g>
               <g id="resetDef">
                       <use xlink:href="#rim2" fill="#404040">
                               <set attributeName="fill" to="#808080" begin="reset.mouseover" end="reset.mouseout"/>
                       </use>
               </g>
        </defs>

<script type="text/javascript">
var viewWidth = 1273;
var viewHeight = 369;
var sectionId = 'dynsection-0';
</script>
<script xlink:href="svgpan.js"/>
<svg id="graph" class="graph">
<g id="viewport">
<title>Sensor</title>
<!-- Node1 -->
<g id="node1" class="node">
<title>Node1</title>
<g id="a_node1"><a xlink:title="Parent class for sensor objects.">
<polygon fill="#bfbfbf" stroke="black" points="569.5,-138.5 569.5,-360.5 708.5,-360.5 708.5,-138.5 569.5,-138.5"/>
<text text-anchor="middle" x="639" y="-348.5" font-family="Helvetica,sans-Serif" font-size="10.00">Sensor</text>
<polyline fill="none" stroke="black" points="569.5,-341.5 708.5,-341.5 "/>
<text text-anchor="start" x="577.5" y="-329.5" font-family="Helvetica,sans-Serif" font-size="10.00">&#45; minimum_period</text>
<text text-anchor="start" x="577.5" y="-318.5" font-family="Helvetica,sans-Serif" font-size="10.00">&#45; last_execution</text>
<text text-anchor="start" x="577.5" y="-307.5" font-family="Helvetica,sans-Serif" font-size="10.00">&#45; sensor_name</text>
<text text-anchor="start" x="577.5" y="-296.5" font-family="Helvetica,sans-Serif" font-size="10.00">&#45; csv_header</text>
<text text-anchor="start" x="577.5" y="-285.5" font-family="Helvetica,sans-Serif" font-size="10.00">&#45; fields</text>
<polyline fill="none" stroke="black" points="569.5,-278.5 708.5,-278.5 "/>
<text text-anchor="start" x="577.5" y="-266.5" font-family="Helvetica,sans-Serif" font-size="10.00">+ Sensor()</text>
<text text-anchor="start" x="577.5" y="-255.5" font-family="Helvetica,sans-Serif" font-size="10.00">+ Sensor()</text>
<text text-anchor="start" x="577.5" y="-244.5" font-family="Helvetica,sans-Serif" font-size="10.00">+ getPeriod()</text>
<text text-anchor="start" x="577.5" y="-233.5" font-family="Helvetica,sans-Serif" font-size="10.00">+ setPeriod()</text>
<text text-anchor="start" x="577.5" y="-222.5" font-family="Helvetica,sans-Serif" font-size="10.00">+ getLastExecution()</text>
<text text-anchor="start" x="577.5" y="-211.5" font-family="Helvetica,sans-Serif" font-size="10.00">+ setLastExecution()</text>
<text text-anchor="start" x="577.5" y="-200.5" font-family="Helvetica,sans-Serif" font-size="10.00">+ getSensorName()</text>
<text text-anchor="start" x="577.5" y="-189.5" font-family="Helvetica,sans-Serif" font-size="10.00">+ getSensorCSVHeader()</text>
<text text-anchor="start" x="577.5" y="-178.5" font-family="Helvetica,sans-Serif" font-size="10.00">+ verify()</text>
<text text-anchor="start" x="577.5" y="-167.5" font-family="Helvetica,sans-Serif" font-size="10.00">+ readData()</text>
<text text-anchor="start" x="577.5" y="-156.5" font-family="Helvetica,sans-Serif" font-size="10.00">+ readEmpty()</text>
<text text-anchor="start" x="577.5" y="-145.5" font-family="Helvetica,sans-Serif" font-size="10.00">+ getDataCSV()</text>
</a>
</g>
</g>
<!-- Node2 -->
<g id="node2" class="node">
<title>Node2</title>
<g id="a_node2"><a xlink:href="classAnalogSensor.html" target="_top" xlink:title="Implementation of a Sensor for the analog readings.">
<polygon fill="none" stroke="black" points="0,-6 0,-96 102,-96 102,-6 0,-6"/>
<text text-anchor="middle" x="51" y="-84" font-family="Helvetica,sans-Serif" font-size="10.00">AnalogSensor</text>
<polyline fill="none" stroke="black" points="0,-77 102,-77 "/>
<text text-anchor="middle" x="51" y="-65" font-family="Helvetica,sans-Serif" font-size="10.00"> </text>
<polyline fill="none" stroke="black" points="0,-58 102,-58 "/>
<text text-anchor="start" x="8" y="-46" font-family="Helvetica,sans-Serif" font-size="10.00">+ AnalogSensor()</text>
<text text-anchor="start" x="8" y="-35" font-family="Helvetica,sans-Serif" font-size="10.00">+ AnalogSensor()</text>
<text text-anchor="start" x="8" y="-24" font-family="Helvetica,sans-Serif" font-size="10.00">+ verify()</text>
<text text-anchor="start" x="8" y="-13" font-family="Helvetica,sans-Serif" font-size="10.00">+ readData()</text>
</a>
</g>
</g>
<!-- Node1&#45;&gt;Node2 -->
<g id="edge1" class="edge">
<title>Node1&#45;&gt;Node2</title>
<path fill="none" stroke="midnightblue" d="M559.23,-237.17C452.34,-219.63 258.95,-179.53 111,-102 107.64,-100.24 104.29,-98.26 101,-96.14"/>
<polygon fill="none" stroke="midnightblue" points="558.87,-240.65 569.3,-238.79 559.99,-233.74 558.87,-240.65"/>
</g>
<!-- Node3 -->
<g id="node3" class="node">
<title>Node3</title>
<g id="a_node3"><a xlink:href="classBME680Sensor.html" target="_top" xlink:title="A class to interface with the Adafruit BME680 sensor for environmental data collection.">
<polygon fill="none" stroke="black" points="120,-6 120,-96 228,-96 228,-6 120,-6"/>
<text text-anchor="middle" x="174" y="-84" font-family="Helvetica,sans-Serif" font-size="10.00">BME680Sensor</text>
<polyline fill="none" stroke="black" points="120,-77 228,-77 "/>
<text text-anchor="start" x="128" y="-65" font-family="Helvetica,sans-Serif" font-size="10.00">&#45; bme</text>
<polyline fill="none" stroke="black" points="120,-58 228,-58 "/>
<text text-anchor="start" x="128" y="-46" font-family="Helvetica,sans-Serif" font-size="10.00">+ BME680Sensor()</text>
<text text-anchor="start" x="128" y="-35" font-family="Helvetica,sans-Serif" font-size="10.00">+ BME680Sensor()</text>
<text text-anchor="start" x="128" y="-24" font-family="Helvetica,sans-Serif" font-size="10.00">+ verify()</text>
<text text-anchor="start" x="128" y="-13" font-family="Helvetica,sans-Serif" font-size="10.00">+ readData()</text>
</a>
</g>
</g>
<!-- Node1&#45;&gt;Node3 -->
<g id="edge2" class="edge">
<title>Node1&#45;&gt;Node3</title>
<path fill="none" stroke="midnightblue" d="M559.55,-227.76C476.03,-204.12 342.38,-160.97 237,-102 233.71,-100.16 230.41,-98.15 227.15,-96.03"/>
<polygon fill="none" stroke="midnightblue" points="558.65,-231.15 569.23,-230.48 560.55,-224.41 558.65,-231.15"/>
</g>
<!-- Node4 -->
<g id="node4" class="node">
<title>Node4</title>
<g id="a_node4"><a xlink:href="classGeigerSensor.html" target="_top" xlink:title="A class for interfacing with a Geiger counter sensor.">
<polygon fill="none" stroke="black" points="246.5,-0.5 246.5,-101.5 375.5,-101.5 375.5,-0.5 246.5,-0.5"/>
<text text-anchor="middle" x="311" y="-89.5" font-family="Helvetica,sans-Serif" font-size="10.00">GeigerSensor</text>
<polyline fill="none" stroke="black" points="246.5,-82.5 375.5,-82.5 "/>
<text text-anchor="start" x="254.5" y="-70.5" font-family="Helvetica,sans-Serif" font-size="10.00">&#45; measuringPeriodStart</text>
<polyline fill="none" stroke="black" points="246.5,-63.5 375.5,-63.5 "/>
<text text-anchor="start" x="254.5" y="-51.5" font-family="Helvetica,sans-Serif" font-size="10.00">+ GeigerSensor()</text>
<text text-anchor="start" x="254.5" y="-40.5" font-family="Helvetica,sans-Serif" font-size="10.00">+ GeigerSensor()</text>
<text text-anchor="start" x="254.5" y="-29.5" font-family="Helvetica,sans-Serif" font-size="10.00">+ verify()</text>
<text text-anchor="start" x="254.5" y="-18.5" font-family="Helvetica,sans-Serif" font-size="10.00">+ readData()</text>
<text text-anchor="start" x="254.5" y="-7.5" font-family="Helvetica,sans-Serif" font-size="10.00">&#45; geigerCounter()</text>
</a>
</g>
</g>
<!-- Node1&#45;&gt;Node4 -->
<g id="edge3" class="edge">
<title>Node1&#45;&gt;Node4</title>
<path fill="none" stroke="midnightblue" d="M560.55,-205.16C509.92,-176.71 442.93,-138.21 385,-102 381.98,-100.11 378.9,-98.16 375.8,-96.16"/>
<polygon fill="none" stroke="midnightblue" points="559.06,-208.33 569.49,-210.17 562.48,-202.22 559.06,-208.33"/>
</g>
<!-- Node5 -->
<g id="node5" class="node">
<title>Node5</title>
<g id="a_node5"><a xlink:href="classINA260Sensor.html" target="_top" xlink:title="A class to interface with the Adafruit INA260 sensor for current, voltage, and power measurements.">
<polygon fill="none" stroke="black" points="394,-6 394,-96 498,-96 498,-6 394,-6"/>
<text text-anchor="middle" x="446" y="-84" font-family="Helvetica,sans-Serif" font-size="10.00">INA260Sensor</text>
<polyline fill="none" stroke="black" points="394,-77 498,-77 "/>
<text text-anchor="start" x="402" y="-65" font-family="Helvetica,sans-Serif" font-size="10.00">&#45; ina260</text>
<polyline fill="none" stroke="black" points="394,-58 498,-58 "/>
<text text-anchor="start" x="402" y="-46" font-family="Helvetica,sans-Serif" font-size="10.00">+ INA260Sensor()</text>
<text text-anchor="start" x="402" y="-35" font-family="Helvetica,sans-Serif" font-size="10.00">+ INA260Sensor()</text>
<text text-anchor="start" x="402" y="-24" font-family="Helvetica,sans-Serif" font-size="10.00">+ verify()</text>
<text text-anchor="start" x="402" y="-13" font-family="Helvetica,sans-Serif" font-size="10.00">+ readData()</text>
</a>
</g>
</g>
<!-- Node1&#45;&gt;Node5 -->
<g id="edge4" class="edge">
<title>Node1&#45;&gt;Node5</title>
<path fill="none" stroke="midnightblue" d="M562.07,-170.17C537.38,-145.03 510.9,-118.08 489.48,-96.27"/>
<polygon fill="none" stroke="midnightblue" points="559.82,-172.88 569.32,-177.56 564.81,-167.97 559.82,-172.88"/>
</g>
<!-- Node6 -->
<g id="node6" class="node">
<title>Node6</title>
<g id="a_node6"><a xlink:href="classLSM9DS1Sensor.html" target="_top" xlink:title="Implementation of the Sensor class for the LSM9DS1 (9&#45;axis IMU)">
<polygon fill="none" stroke="black" points="516,-6 516,-96 630,-96 630,-6 516,-6"/>
<text text-anchor="middle" x="573" y="-84" font-family="Helvetica,sans-Serif" font-size="10.00">LSM9DS1Sensor</text>
<polyline fill="none" stroke="black" points="516,-77 630,-77 "/>
<text text-anchor="middle" x="573" y="-65" font-family="Helvetica,sans-Serif" font-size="10.00"> </text>
<polyline fill="none" stroke="black" points="516,-58 630,-58 "/>
<text text-anchor="start" x="524" y="-46" font-family="Helvetica,sans-Serif" font-size="10.00">+ LSM9DS1Sensor()</text>
<text text-anchor="start" x="524" y="-35" font-family="Helvetica,sans-Serif" font-size="10.00">+ LSM9DS1Sensor()</text>
<text text-anchor="start" x="524" y="-24" font-family="Helvetica,sans-Serif" font-size="10.00">+ verify()</text>
<text text-anchor="start" x="524" y="-13" font-family="Helvetica,sans-Serif" font-size="10.00">+ readData()</text>
</a>
</g>
</g>
<!-- Node1&#45;&gt;Node6 -->
<g id="edge5" class="edge">
<title>Node1&#45;&gt;Node6</title>
<path fill="none" stroke="midnightblue" d="M598.78,-128.76C594.93,-117.29 591.21,-106.23 587.86,-96.25"/>
<polygon fill="none" stroke="midnightblue" points="595.54,-130.11 602.04,-138.47 602.18,-127.88 595.54,-130.11"/>
</g>
<!-- Node7 -->
<g id="node7" class="node">
<title>Node7</title>
<g id="a_node7"><a xlink:href="classMTK3339Sensor.html" target="_top" xlink:title="Implementation of the Adafruit MTK3339 GPS sensor.">
<polygon fill="none" stroke="black" points="648,-6 648,-96 762,-96 762,-6 648,-6"/>
<text text-anchor="middle" x="705" y="-84" font-family="Helvetica,sans-Serif" font-size="10.00">MTK3339Sensor</text>
<polyline fill="none" stroke="black" points="648,-77 762,-77 "/>
<text text-anchor="start" x="656" y="-65" font-family="Helvetica,sans-Serif" font-size="10.00">&#45; GPS</text>
<polyline fill="none" stroke="black" points="648,-58 762,-58 "/>
<text text-anchor="start" x="656" y="-46" font-family="Helvetica,sans-Serif" font-size="10.00">+ MTK3339Sensor()</text>
<text text-anchor="start" x="656" y="-35" font-family="Helvetica,sans-Serif" font-size="10.00">+ MTK3339Sensor()</text>
<text text-anchor="start" x="656" y="-24" font-family="Helvetica,sans-Serif" font-size="10.00">+ verify()</text>
<text text-anchor="start" x="656" y="-13" font-family="Helvetica,sans-Serif" font-size="10.00">+ readData()</text>
</a>
</g>
</g>
<!-- Node1&#45;&gt;Node7 -->
<g id="edge6" class="edge">
<title>Node1&#45;&gt;Node7</title>
<path fill="none" stroke="midnightblue" d="M679.22,-128.76C683.07,-117.29 686.79,-106.23 690.14,-96.25"/>
<polygon fill="none" stroke="midnightblue" points="675.82,-127.88 675.96,-138.47 682.46,-130.11 675.82,-127.88"/>
</g>
<!-- Node8 -->
<g id="node8" class="node">
<title>Node8</title>
<g id="a_node8"><a xlink:href="classSGP30Sensor.html" target="_top" xlink:title="Implementation of a Sensor for the SGP Air Quality sensor.">
<polygon fill="none" stroke="black" points="780,-6 780,-96 880,-96 880,-6 780,-6"/>
<text text-anchor="middle" x="830" y="-84" font-family="Helvetica,sans-Serif" font-size="10.00">SGP30Sensor</text>
<polyline fill="none" stroke="black" points="780,-77 880,-77 "/>
<text text-anchor="start" x="788" y="-65" font-family="Helvetica,sans-Serif" font-size="10.00">&#45; sgp</text>
<polyline fill="none" stroke="black" points="780,-58 880,-58 "/>
<text text-anchor="start" x="788" y="-46" font-family="Helvetica,sans-Serif" font-size="10.00">+ SGP30Sensor()</text>
<text text-anchor="start" x="788" y="-35" font-family="Helvetica,sans-Serif" font-size="10.00">+ SGP30Sensor()</text>
<text text-anchor="start" x="788" y="-24" font-family="Helvetica,sans-Serif" font-size="10.00">+ verify()</text>
<text text-anchor="start" x="788" y="-13" font-family="Helvetica,sans-Serif" font-size="10.00">+ readData()</text>
</a>
</g>
</g>
<!-- Node1&#45;&gt;Node8 -->
<g id="edge7" class="edge">
<title>Node1&#45;&gt;Node8</title>
<path fill="none" stroke="midnightblue" d="M715.89,-169.39C740.15,-144.44 766.06,-117.78 787.06,-96.18"/>
<polygon fill="none" stroke="midnightblue" points="713.23,-167.11 708.77,-176.72 718.25,-171.99 713.23,-167.11"/>
</g>
<!-- Node9 -->
<g id="node9" class="node">
<title>Node9</title>
<g id="a_node9"><a xlink:href="classSHT31Sensor.html" target="_top" xlink:title="Interfaces with SHT31 Sensor to collect temperature and humidity data.">
<polygon fill="none" stroke="black" points="898,-0.5 898,-101.5 1020,-101.5 1020,-0.5 898,-0.5"/>
<text text-anchor="middle" x="959" y="-89.5" font-family="Helvetica,sans-Serif" font-size="10.00">SHT31Sensor</text>
<polyline fill="none" stroke="black" points="898,-82.5 1020,-82.5 "/>
<text text-anchor="start" x="906" y="-70.5" font-family="Helvetica,sans-Serif" font-size="10.00">&#45; sht31</text>
<text text-anchor="start" x="906" y="-59.5" font-family="Helvetica,sans-Serif" font-size="10.00">&#45; csvHeaderCompiled</text>
<polyline fill="none" stroke="black" points="898,-52.5 1020,-52.5 "/>
<text text-anchor="start" x="906" y="-40.5" font-family="Helvetica,sans-Serif" font-size="10.00">+ SHT31Sensor()</text>
<text text-anchor="start" x="906" y="-29.5" font-family="Helvetica,sans-Serif" font-size="10.00">+ SHT31Sensor()</text>
<text text-anchor="start" x="906" y="-18.5" font-family="Helvetica,sans-Serif" font-size="10.00">+ verify()</text>
<text text-anchor="start" x="906" y="-7.5" font-family="Helvetica,sans-Serif" font-size="10.00">+ readData()</text>
</a>
</g>
</g>
<!-- Node1&#45;&gt;Node9 -->
<g id="edge8" class="edge">
<title>Node1&#45;&gt;Node9</title>
<path fill="none" stroke="midnightblue" d="M717.52,-204.9C767.33,-176.66 832.75,-138.46 889,-102 891.88,-100.13 894.81,-98.2 897.76,-96.22"/>
<polygon fill="none" stroke="midnightblue" points="715.7,-201.91 708.72,-209.88 719.15,-208 715.7,-201.91"/>
</g>
<!-- Node10 -->
<g id="node10" class="node">
<title>Node10</title>
<g id="a_node10"><a xlink:href="classTempSensor.html" target="_top" xlink:title="Implementation of a Sensor for the onboard temperature sensor.">
<polygon fill="none" stroke="black" points="1038.5,-6 1038.5,-96 1133.5,-96 1133.5,-6 1038.5,-6"/>
<text text-anchor="middle" x="1086" y="-84" font-family="Helvetica,sans-Serif" font-size="10.00">TempSensor</text>
<polyline fill="none" stroke="black" points="1038.5,-77 1133.5,-77 "/>
<text text-anchor="middle" x="1086" y="-65" font-family="Helvetica,sans-Serif" font-size="10.00"> </text>
<polyline fill="none" stroke="black" points="1038.5,-58 1133.5,-58 "/>
<text text-anchor="start" x="1046.5" y="-46" font-family="Helvetica,sans-Serif" font-size="10.00">+ TempSensor()</text>
<text text-anchor="start" x="1046.5" y="-35" font-family="Helvetica,sans-Serif" font-size="10.00">+ TempSensor()</text>
<text text-anchor="start" x="1046.5" y="-24" font-family="Helvetica,sans-Serif" font-size="10.00">+ verify()</text>
<text text-anchor="start" x="1046.5" y="-13" font-family="Helvetica,sans-Serif" font-size="10.00">+ readData()</text>
</a>
</g>
</g>
<!-- Node1&#45;&gt;Node10 -->
<g id="edge9" class="edge">
<title>Node1&#45;&gt;Node10</title>
<path fill="none" stroke="midnightblue" d="M718.33,-227.86C799.91,-204.59 928.83,-162 1029,-102 1032.16,-100.11 1035.31,-98.03 1038.42,-95.83"/>
<polygon fill="none" stroke="midnightblue" points="717.29,-224.52 708.62,-230.6 719.19,-231.25 717.29,-224.52"/>
</g>
<!-- Node11 -->
<g id="node11" class="node">
<title>Node11</title>
<g id="a_node11"><a xlink:href="classZOPT220Sensor.html" target="_top" xlink:title="A class to interface with the ZOPT220x UV and ambient light sensor.">
<polygon fill="none" stroke="black" points="1151.5,-6 1151.5,-96 1264.5,-96 1264.5,-6 1151.5,-6"/>
<text text-anchor="middle" x="1208" y="-84" font-family="Helvetica,sans-Serif" font-size="10.00">ZOPT220Sensor</text>
<polyline fill="none" stroke="black" points="1151.5,-77 1264.5,-77 "/>
<text text-anchor="start" x="1159.5" y="-65" font-family="Helvetica,sans-Serif" font-size="10.00">&#45; zopt</text>
<polyline fill="none" stroke="black" points="1151.5,-58 1264.5,-58 "/>
<text text-anchor="start" x="1159.5" y="-46" font-family="Helvetica,sans-Serif" font-size="10.00">+ ZOPT220Sensor()</text>
<text text-anchor="start" x="1159.5" y="-35" font-family="Helvetica,sans-Serif" font-size="10.00">+ ZOPT220Sensor()</text>
<text text-anchor="start" x="1159.5" y="-24" font-family="Helvetica,sans-Serif" font-size="10.00">+ verify()</text>
<text text-anchor="start" x="1159.5" y="-13" font-family="Helvetica,sans-Serif" font-size="10.00">+ readData()</text>
</a>
</g>
</g>
<!-- Node1&#45;&gt;Node11 -->
<g id="edge10" class="edge">
<title>Node1&#45;&gt;Node11</title>
<path fill="none" stroke="midnightblue" d="M718.84,-234.85C821.18,-215.24 1002.21,-173.39 1143,-102 1146.56,-100.2 1150.11,-98.19 1153.62,-96.05"/>
<polygon fill="none" stroke="midnightblue" points="718.05,-231.43 708.88,-236.73 719.35,-238.31 718.05,-231.43"/>
</g>
</g>
</svg>
        <g id="navigator" transform="translate(0 0)" fill="#404254">
                <rect fill="#f2f5e9" fill-opacity="0.5" stroke="#606060" stroke-width=".5" x="0" y="0" width="60" height="60"/>
                <use id="zoomplus" xlink:href="#zoomPlus" x="17" y="9" onmousedown="handleZoom(evt,'in')"/>
                <use id="zoomminus" xlink:href="#zoomMin" x="42" y="9" onmousedown="handleZoom(evt,'out')"/>
                <use id="reset" xlink:href="#resetDef" x="30" y="36" onmousedown="handleReset()"/>
                <g id="arrowUp" xlink:href="#dirArrow" transform="translate(30 24)" onmousedown="handlePan(0,-1)">
                  <use xlink:href="#rim" fill="#404040">
                        <set attributeName="fill" to="#808080" begin="arrowUp.mouseover" end="arrowUp.mouseout"/>
                  </use>
                  <path fill="none" stroke="white" stroke-width="1.5" d="M0,-3.0v7 M-2.5,-0.5L0,-3.0L2.5,-0.5"/>
                </g>
                <g id="arrowRight" xlink:href="#dirArrow" transform="rotate(90) translate(36 -43)" onmousedown="handlePan(1,0)">
                  <use xlink:href="#rim" fill="#404040">
                        <set attributeName="fill" to="#808080" begin="arrowRight.mouseover" end="arrowRight.mouseout"/>
                  </use>
                  <path fill="none" stroke="white" stroke-width="1.5" d="M0,-3.0v7 M-2.5,-0.5L0,-3.0L2.5,-0.5"/>
                </g>
                <g id="arrowDown" xlink:href="#dirArrow" transform="rotate(180) translate(-30 -48)" onmousedown="handlePan(0,1)">
                  <use xlink:href="#rim" fill="#404040">
                        <set attributeName="fill" to="#808080" begin="arrowDown.mouseover" end="arrowDown.mouseout"/>
                  </use>
                  <path fill="none" stroke="white" stroke-width="1.5" d="M0,-3.0v7 M-2.5,-0.5L0,-3.0L2.5,-0.5"/>
                </g>
                <g id="arrowLeft" xlink:href="#dirArrow" transform="rotate(270) translate(-36 17)" onmousedown="handlePan(-1,0)">
                  <use xlink:href="#rim" fill="#404040">
                        <set attributeName="fill" to="#808080" begin="arrowLeft.mouseover" end="arrowLeft.mouseout"/>
                  </use>
                  <path fill="none" stroke="white" stroke-width="1.5" d="M0,-3.0v7 M-2.5,-0.5L0,-3.0L2.5,-0.5"/>
                </g>
        </g>
        <svg viewBox="0 0 15 15" width="100%" height="30px" preserveAspectRatio="xMaxYMin meet">
         <g id="arrow_out" transform="scale(0.3 0.3)">
          <a xlink:href="classSensor__inherit__graph_org.svg" target="_base">
           <rect id="button" ry="5" rx="5" y="6" x="6" height="38" width="38"
                fill="#f2f5e9" fill-opacity="0.5" stroke="#606060" stroke-width="1.0"/>
           <path id="arrow"
             d="M 11.500037,31.436501 C 11.940474,20.09759 22.043105,11.32322 32.158766,21.979434 L 37.068811,17.246167 C 37.068811,17.246167 37.088388,32 37.088388,32 L 22.160133,31.978069 C 22.160133,31.978069 26.997745,27.140456 26.997745,27.140456 C 18.528582,18.264221 13.291696,25.230495 11.500037,31.436501 z"
             style="fill:#404040;"/>
          </a>
         </g>
        </svg>
</svg>
