<?xml version="1.0" encoding="UTF-8" standalone="no"?>
<!DOCTYPE svg PUBLIC "-//W3C//DTD SVG 1.1//EN"
 "http://www.w3.org/Graphics/SVG/1.1/DTD/svg11.dtd">
<!-- Generated by graphviz version 2.43.0 (0)
 -->
<!-- Title: ZOPT220Sensor::readData Pages: 1 -->
<svg width="776pt" height="301pt"
 viewBox="0.00 0.00 776.00 301.00" xmlns="http://www.w3.org/2000/svg" xmlns:xlink="http://www.w3.org/1999/xlink">
<g id="graph0" class="graph" transform="scale(1 1) rotate(0) translate(4 297)">
<title>ZOPT220Sensor::readData</title>
<!-- Node1 -->
<g id="node1" class="node">
<title>Node1</title>
<g id="a_node1"><a xlink:title="Reads data from the ZOPT220x sensor and returns it in CSV format.">
<polygon fill="#bfbfbf" stroke="black" points="0,-128.5 0,-147.5 145,-147.5 145,-128.5 0,-128.5"/>
<text text-anchor="middle" x="72.5" y="-135.5" font-family="Helvetica,sans-Serif" font-size="10.00">ZOPT220Sensor::readData</text>
</a>
</g>
</g>
<!-- Node2 -->
<g id="node2" class="node">
<title>Node2</title>
<g id="a_node2"><a xlink:href="classZOPT220x__Control.html#af74c3620eaaa1ba7413ebd8417eee271" target="_top" xlink:title=" ">
<polygon fill="none" stroke="black" points="387,-150.5 387,-169.5 567,-169.5 567,-150.5 387,-150.5"/>
<text text-anchor="middle" x="477" y="-157.5" font-family="Helvetica,sans-Serif" font-size="10.00">ZOPT220x_Control::dataAvailable</text>
</a>
</g>
</g>
<!-- Node1&#45;&gt;Node2 -->
<g id="edge1" class="edge">
<title>Node1&#45;&gt;Node2</title>
<path fill="none" stroke="midnightblue" d="M106.09,-147.63C127.23,-153.36 155.49,-160.07 181,-163 245.92,-170.45 319.41,-169.73 376.8,-167.13"/>
<polygon fill="midnightblue" stroke="midnightblue" points="377.13,-170.62 386.95,-166.64 376.8,-163.63 377.13,-170.62"/>
</g>
<!-- Node4 -->
<g id="node4" class="node">
<title>Node4</title>
<g id="a_node4"><a xlink:href="classZOPT220x__Control.html#a27c0821f9341f36d87c9388ce7bf4ee5" target="_top" xlink:title=" ">
<polygon fill="none" stroke="black" points="193,-123 193,-153 339,-153 339,-123 193,-123"/>
<text text-anchor="start" x="201" y="-141" font-family="Helvetica,sans-Serif" font-size="10.00">ZOPT220x_Control::enable</text>
<text text-anchor="middle" x="266" y="-130" font-family="Helvetica,sans-Serif" font-size="10.00">ALSSensing</text>
</a>
</g>
</g>
<!-- Node1&#45;&gt;Node4 -->
<g id="edge3" class="edge">
<title>Node1&#45;&gt;Node4</title>
<path fill="none" stroke="midnightblue" d="M145.08,-138C157.28,-138 170.04,-138 182.5,-138"/>
<polygon fill="midnightblue" stroke="midnightblue" points="182.87,-141.5 192.87,-138 182.87,-134.5 182.87,-141.5"/>
</g>
<!-- Node7 -->
<g id="node7" class="node">
<title>Node7</title>
<g id="a_node7"><a xlink:href="classZOPT220x__Control.html#a1172703928cf494b466ea2c3595bbbba" target="_top" xlink:title=" ">
<polygon fill="none" stroke="black" points="193,-74 193,-104 339,-104 339,-74 193,-74"/>
<text text-anchor="start" x="201" y="-92" font-family="Helvetica,sans-Serif" font-size="10.00">ZOPT220x_Control::enable</text>
<text text-anchor="middle" x="266" y="-81" font-family="Helvetica,sans-Serif" font-size="10.00">UVBSensing</text>
</a>
</g>
</g>
<!-- Node1&#45;&gt;Node7 -->
<g id="edge7" class="edge">
<title>Node1&#45;&gt;Node7</title>
<path fill="none" stroke="midnightblue" d="M110.88,-128.44C135.12,-122.23 167.44,-113.96 196.22,-106.6"/>
<polygon fill="midnightblue" stroke="midnightblue" points="197.41,-109.91 206.23,-104.04 195.68,-103.13 197.41,-109.91"/>
</g>
<!-- Node8 -->
<g id="node8" class="node">
<title>Node8</title>
<g id="a_node8"><a xlink:href="classZOPT220x__Control.html#a28cf4beaf6bcebce91c1418790e9d843" target="_top" xlink:title=" ">
<polygon fill="none" stroke="black" points="192.5,-273.5 192.5,-292.5 339.5,-292.5 339.5,-273.5 192.5,-273.5"/>
<text text-anchor="middle" x="266" y="-280.5" font-family="Helvetica,sans-Serif" font-size="10.00">ZOPT220x_Control::getALS</text>
</a>
</g>
</g>
<!-- Node1&#45;&gt;Node8 -->
<g id="edge9" class="edge">
<title>Node1&#45;&gt;Node8</title>
<path fill="none" stroke="midnightblue" d="M81.97,-147.54C99.24,-166.6 140.31,-210.05 181,-239 197.48,-250.73 217.5,-261.33 233.85,-269.19"/>
<polygon fill="midnightblue" stroke="midnightblue" points="232.47,-272.41 243.01,-273.49 235.44,-266.07 232.47,-272.41"/>
</g>
<!-- Node10 -->
<g id="node10" class="node">
<title>Node10</title>
<g id="a_node10"><a xlink:href="classZOPT220x__Control.html#a1233f73c507efe1393d84b9d88b4a023" target="_top" xlink:title=" ">
<polygon fill="none" stroke="black" points="181,-210.5 181,-229.5 351,-229.5 351,-210.5 181,-210.5"/>
<text text-anchor="middle" x="266" y="-217.5" font-family="Helvetica,sans-Serif" font-size="10.00">ZOPT220x_Control::getUVIndex</text>
</a>
</g>
</g>
<!-- Node1&#45;&gt;Node10 -->
<g id="edge11" class="edge">
<title>Node1&#45;&gt;Node10</title>
<path fill="none" stroke="midnightblue" d="M88.65,-147.54C109.01,-160.04 146.63,-182.01 181,-196 191.87,-200.42 203.83,-204.36 215.24,-207.71"/>
<polygon fill="midnightblue" stroke="midnightblue" points="214.51,-211.14 225.09,-210.49 216.42,-204.4 214.51,-211.14"/>
</g>
<!-- Node13 -->
<g id="node13" class="node">
<title>Node13</title>
<g id="a_node13"><a xlink:href="classZOPT220x__Control.html#afa9fab0ef429c9e7a46afd752a2ee44d" target="_top" xlink:title=" ">
<polygon fill="none" stroke="black" points="401.5,-0.5 401.5,-19.5 552.5,-19.5 552.5,-0.5 401.5,-0.5"/>
<text text-anchor="middle" x="477" y="-7.5" font-family="Helvetica,sans-Serif" font-size="10.00">ZOPT220x_Control::setGain</text>
</a>
</g>
</g>
<!-- Node1&#45;&gt;Node13 -->
<g id="edge16" class="edge">
<title>Node1&#45;&gt;Node13</title>
<path fill="none" stroke="midnightblue" d="M80.17,-128.21C95.26,-107 134.33,-57.04 181,-36 247.13,-6.19 329.97,-1.34 391.02,-2.99"/>
<polygon fill="midnightblue" stroke="midnightblue" points="391.27,-6.5 401.39,-3.34 391.51,0.49 391.27,-6.5"/>
</g>
<!-- Node14 -->
<g id="node14" class="node">
<title>Node14</title>
<g id="a_node14"><a xlink:href="classZOPT220x__Control.html#aa8d79db36ab65e003f87a493f720233d" target="_top" xlink:title=" ">
<polygon fill="none" stroke="black" points="387,-38.5 387,-57.5 567,-57.5 567,-38.5 387,-38.5"/>
<text text-anchor="middle" x="477" y="-45.5" font-family="Helvetica,sans-Serif" font-size="10.00">ZOPT220x_Control::setResolution</text>
</a>
</g>
</g>
<!-- Node1&#45;&gt;Node14 -->
<g id="edge19" class="edge">
<title>Node1&#45;&gt;Node14</title>
<path fill="none" stroke="midnightblue" d="M83.41,-128.29C101.19,-111.57 140.47,-77.82 181,-64 243.63,-42.65 318.05,-38.76 376.47,-40.14"/>
<polygon fill="midnightblue" stroke="midnightblue" points="376.72,-43.65 386.82,-40.45 376.93,-36.66 376.72,-43.65"/>
</g>
<!-- Node3 -->
<g id="node3" class="node">
<title>Node3</title>
<g id="a_node3"><a xlink:href="classZOPT220x__Control.html#a58c74577acc1183a66b1f9b9281551a3" target="_top" xlink:title=" ">
<polygon fill="none" stroke="black" points="606,-74 606,-104 765,-104 765,-74 606,-74"/>
<text text-anchor="start" x="614" y="-92" font-family="Helvetica,sans-Serif" font-size="10.00">ZOPT220x_Control::zoptRead</text>
<text text-anchor="middle" x="685.5" y="-81" font-family="Helvetica,sans-Serif" font-size="10.00">Register</text>
</a>
</g>
</g>
<!-- Node2&#45;&gt;Node3 -->
<g id="edge2" class="edge">
<title>Node2&#45;&gt;Node3</title>
<path fill="none" stroke="midnightblue" d="M505.85,-150.42C537.78,-139.44 590.88,-121.19 630.91,-107.43"/>
<polygon fill="midnightblue" stroke="midnightblue" points="632.2,-110.68 640.52,-104.12 629.93,-104.06 632.2,-110.68"/>
</g>
<!-- Node5 -->
<g id="node5" class="node">
<title>Node5</title>
<g id="a_node5"><a xlink:href="classZOPT220x__Control.html#a70fedf9d112bc34ef55e21452acd3877" target="_top" xlink:title=" ">
<polygon fill="none" stroke="black" points="399.5,-79.5 399.5,-98.5 554.5,-98.5 554.5,-79.5 399.5,-79.5"/>
<text text-anchor="middle" x="477" y="-86.5" font-family="Helvetica,sans-Serif" font-size="10.00">ZOPT220x_Control::setMode</text>
</a>
</g>
</g>
<!-- Node4&#45;&gt;Node5 -->
<g id="edge4" class="edge">
<title>Node4&#45;&gt;Node5</title>
<path fill="none" stroke="midnightblue" d="M331.13,-122.97C361.37,-115.87 396.95,-107.53 425.27,-100.89"/>
<polygon fill="midnightblue" stroke="midnightblue" points="426.42,-104.22 435.36,-98.53 424.83,-97.4 426.42,-104.22"/>
</g>
<!-- Node5&#45;&gt;Node3 -->
<g id="edge5" class="edge">
<title>Node5&#45;&gt;Node3</title>
<path fill="none" stroke="midnightblue" d="M554.6,-89C567.95,-89 581.95,-89 595.6,-89"/>
<polygon fill="midnightblue" stroke="midnightblue" points="595.95,-92.5 605.95,-89 595.95,-85.5 595.95,-92.5"/>
</g>
<!-- Node6 -->
<g id="node6" class="node">
<title>Node6</title>
<g id="a_node6"><a xlink:href="classZOPT220x__Control.html#ab5f43fd630eaaadeea212559e12648be" target="_top" xlink:title=" ">
<polygon fill="none" stroke="black" points="605,-25 605,-55 766,-55 766,-25 605,-25"/>
<text text-anchor="start" x="613" y="-43" font-family="Helvetica,sans-Serif" font-size="10.00">ZOPT220x_Control::zoptWrite</text>
<text text-anchor="middle" x="685.5" y="-32" font-family="Helvetica,sans-Serif" font-size="10.00">Register</text>
</a>
</g>
</g>
<!-- Node5&#45;&gt;Node6 -->
<g id="edge6" class="edge">
<title>Node5&#45;&gt;Node6</title>
<path fill="none" stroke="midnightblue" d="M518.31,-79.44C544.68,-73.18 579.91,-64.82 611.14,-57.41"/>
<polygon fill="midnightblue" stroke="midnightblue" points="612.21,-60.75 621.13,-55.04 610.59,-53.94 612.21,-60.75"/>
</g>
<!-- Node7&#45;&gt;Node5 -->
<g id="edge8" class="edge">
<title>Node7&#45;&gt;Node5</title>
<path fill="none" stroke="midnightblue" d="M339.22,-89C355.24,-89 372.39,-89 388.94,-89"/>
<polygon fill="midnightblue" stroke="midnightblue" points="389.15,-92.5 399.15,-89 389.15,-85.5 389.15,-92.5"/>
</g>
<!-- Node9 -->
<g id="node9" class="node">
<title>Node9</title>
<g id="a_node9"><a xlink:href="classZOPT220x__Control.html#a76e8b5e30cc7b3a0f9e0dace481e8030" target="_top" xlink:title=" ">
<polygon fill="none" stroke="black" points="603,-227 603,-257 768,-257 768,-227 603,-227"/>
<text text-anchor="start" x="611" y="-245" font-family="Helvetica,sans-Serif" font-size="10.00">ZOPT220x_Control::zoptRead3</text>
<text text-anchor="middle" x="685.5" y="-234" font-family="Helvetica,sans-Serif" font-size="10.00">Registers</text>
</a>
</g>
</g>
<!-- Node8&#45;&gt;Node9 -->
<g id="edge10" class="edge">
<title>Node8&#45;&gt;Node9</title>
<path fill="none" stroke="midnightblue" d="M339.73,-282.3C400.67,-280.95 489.83,-277.2 567,-267 581.78,-265.05 597.47,-262.23 612.41,-259.19"/>
<polygon fill="midnightblue" stroke="midnightblue" points="613.54,-262.53 622.61,-257.06 612.11,-255.68 613.54,-262.53"/>
</g>
<!-- Node10&#45;&gt;Node2 -->
<g id="edge12" class="edge">
<title>Node10&#45;&gt;Node2</title>
<path fill="none" stroke="midnightblue" d="M305.48,-210.42C319.92,-206.46 336.38,-201.5 351,-196 367.56,-189.77 370.24,-184.66 387,-179 394.85,-176.35 403.23,-173.98 411.58,-171.9"/>
<polygon fill="midnightblue" stroke="midnightblue" points="412.41,-175.3 421.33,-169.59 410.8,-168.49 412.41,-175.3"/>
</g>
<!-- Node11 -->
<g id="node11" class="node">
<title>Node11</title>
<g id="a_node11"><a xlink:href="classZOPT220x__Control.html#ac9b447f5665bc72e2cb357cc6700130e" target="_top" xlink:title=" ">
<polygon fill="none" stroke="black" points="391,-227 391,-257 563,-257 563,-227 391,-227"/>
<text text-anchor="start" x="399" y="-245" font-family="Helvetica,sans-Serif" font-size="10.00">ZOPT220x_Control::getAdjusted</text>
<text text-anchor="middle" x="477" y="-234" font-family="Helvetica,sans-Serif" font-size="10.00">UVIndex</text>
</a>
</g>
</g>
<!-- Node10&#45;&gt;Node11 -->
<g id="edge13" class="edge">
<title>Node10&#45;&gt;Node11</title>
<path fill="none" stroke="midnightblue" d="M351.1,-228.85C360.79,-229.87 370.71,-230.92 380.53,-231.95"/>
<polygon fill="midnightblue" stroke="midnightblue" points="380.39,-235.46 390.7,-233.02 381.13,-228.49 380.39,-235.46"/>
</g>
<!-- Node12 -->
<g id="node12" class="node">
<title>Node12</title>
<g id="a_node12"><a xlink:href="classZOPT220x__Control.html#a9d0197ab4de4731ecd692e39ee9c5e64" target="_top" xlink:title=" ">
<polygon fill="none" stroke="black" points="402,-188.5 402,-207.5 552,-207.5 552,-188.5 402,-188.5"/>
<text text-anchor="middle" x="477" y="-195.5" font-family="Helvetica,sans-Serif" font-size="10.00">ZOPT220x_Control::getUVB</text>
</a>
</g>
</g>
<!-- Node10&#45;&gt;Node12 -->
<g id="edge14" class="edge">
<title>Node10&#45;&gt;Node12</title>
<path fill="none" stroke="midnightblue" d="M351.1,-211.15C364.48,-209.74 378.32,-208.28 391.71,-206.87"/>
<polygon fill="midnightblue" stroke="midnightblue" points="392.26,-210.33 401.83,-205.81 391.52,-203.37 392.26,-210.33"/>
</g>
<!-- Node12&#45;&gt;Node9 -->
<g id="edge15" class="edge">
<title>Node12&#45;&gt;Node9</title>
<path fill="none" stroke="midnightblue" d="M522.81,-207.55C546.47,-212.59 576.24,-218.93 603.77,-224.8"/>
<polygon fill="midnightblue" stroke="midnightblue" points="603.29,-228.27 613.8,-226.93 604.74,-221.43 603.29,-228.27"/>
</g>
<!-- Node13&#45;&gt;Node3 -->
<g id="edge17" class="edge">
<title>Node13&#45;&gt;Node3</title>
<path fill="none" stroke="midnightblue" d="M543.67,-19.59C551.78,-22.04 559.75,-25.13 567,-29 586.68,-39.52 583.8,-52.63 603,-64 606.65,-66.16 610.51,-68.15 614.48,-69.99"/>
<polygon fill="midnightblue" stroke="midnightblue" points="613.34,-73.3 623.91,-73.98 616.07,-66.86 613.34,-73.3"/>
</g>
<!-- Node13&#45;&gt;Node6 -->
<g id="edge18" class="edge">
<title>Node13&#45;&gt;Node6</title>
<path fill="none" stroke="midnightblue" d="M543.62,-19.53C559.91,-21.9 577.65,-24.48 594.87,-26.98"/>
<polygon fill="midnightblue" stroke="midnightblue" points="594.54,-30.47 604.94,-28.44 595.54,-23.54 594.54,-30.47"/>
</g>
<!-- Node14&#45;&gt;Node3 -->
<g id="edge20" class="edge">
<title>Node14&#45;&gt;Node3</title>
<path fill="none" stroke="midnightblue" d="M525.89,-57.51C547.56,-61.81 573.85,-67.03 598.74,-71.97"/>
<polygon fill="midnightblue" stroke="midnightblue" points="598.07,-75.41 608.56,-73.92 599.43,-68.54 598.07,-75.41"/>
</g>
<!-- Node14&#45;&gt;Node6 -->
<g id="edge21" class="edge">
<title>Node14&#45;&gt;Node6</title>
<path fill="none" stroke="midnightblue" d="M567.07,-44.55C576.19,-44.2 585.46,-43.84 594.59,-43.48"/>
<polygon fill="midnightblue" stroke="midnightblue" points="594.97,-46.97 604.83,-43.09 594.7,-39.98 594.97,-46.97"/>
</g>
</g>
</svg>
