<?xml version="1.0" encoding="UTF-8" standalone="no"?>
<!DOCTYPE svg PUBLIC "-//W3C//DTD SVG 1.1//EN"
 "http://www.w3.org/Graphics/SVG/1.1/DTD/svg11.dtd">
<!-- Generated by graphviz version 2.43.0 (0)
 -->
<!-- Title: SGP30Sensor Pages: 1 -->
<svg width="330pt" height="470pt"
 viewBox="0.00 0.00 329.50 470.00" xmlns="http://www.w3.org/2000/svg" xmlns:xlink="http://www.w3.org/1999/xlink">
<g id="graph0" class="graph" transform="scale(1 1) rotate(0) translate(4 466)">
<title>SGP30Sensor</title>
<!-- Node1 -->
<g id="Node000001" class="node">
<title>Node1</title>
<g id="a_Node000001"><a xlink:title="Implementation of a Sensor for the SGP Air Quality sensor.">
<polygon fill="#999999" stroke="transparent" points="261.5,-94 167.5,-94 167.5,0 261.5,0 261.5,-94"/>
<text text-anchor="start" x="182" y="-82" font-family="Helvetica,sans-Serif" font-size="10.00">SGP30Sensor</text>
<text text-anchor="start" x="212.5" y="-67" font-family="Helvetica,sans-Serif" font-size="10.00"> </text>
<text text-anchor="start" x="171.5" y="-52" font-family="Helvetica,sans-Serif" font-size="10.00">+</text>
<text text-anchor="start" x="184.5" y="-52" font-family="Helvetica,sans-Serif" font-size="10.00">SGP30Sensor()</text>
<text text-anchor="start" x="171.5" y="-37" font-family="Helvetica,sans-Serif" font-size="10.00">+</text>
<text text-anchor="start" x="184.5" y="-37" font-family="Helvetica,sans-Serif" font-size="10.00">SGP30Sensor()</text>
<text text-anchor="start" x="171.5" y="-22" font-family="Helvetica,sans-Serif" font-size="10.00">+</text>
<text text-anchor="start" x="184.5" y="-22" font-family="Helvetica,sans-Serif" font-size="10.00">verify()</text>
<text text-anchor="start" x="171.5" y="-7" font-family="Helvetica,sans-Serif" font-size="10.00">+</text>
<text text-anchor="start" x="184.5" y="-7" font-family="Helvetica,sans-Serif" font-size="10.00">readData()</text>
<polygon fill="#666666" stroke="#666666" points="167.5,-77 167.5,-77 261.5,-77 261.5,-77 167.5,-77"/>
<polygon fill="#666666" stroke="#666666" points="167.5,-62 167.5,-62 261.5,-62 261.5,-62 167.5,-62"/>
<polygon fill="none" stroke="#666666" points="167.5,0 167.5,-94 261.5,-94 261.5,0 167.5,0"/>
</a>
</g>
</g>
<!-- Node2 -->
<g id="Node000002" class="node">
<title>Node2</title>
<g id="a_Node000002"><a xlink:href="classSensor.html" target="_top" xlink:title="Parent class for sensor objects.">
<polygon fill="white" stroke="transparent" points="217,-355 84,-355 84,-141 217,-141 217,-355"/>
<text text-anchor="start" x="134" y="-343" font-family="Helvetica,sans-Serif" font-size="10.00">Sensor</text>
<text text-anchor="start" x="149" y="-328" font-family="Helvetica,sans-Serif" font-size="10.00"> </text>
<text text-anchor="start" x="88.5" y="-313" font-family="Helvetica,sans-Serif" font-size="10.00">+</text>
<text text-anchor="start" x="101.5" y="-313" font-family="Helvetica,sans-Serif" font-size="10.00">Sensor()</text>
<text text-anchor="start" x="88.5" y="-298" font-family="Helvetica,sans-Serif" font-size="10.00">+</text>
<text text-anchor="start" x="101.5" y="-298" font-family="Helvetica,sans-Serif" font-size="10.00">Sensor()</text>
<text text-anchor="start" x="88.5" y="-283" font-family="Helvetica,sans-Serif" font-size="10.00">+</text>
<text text-anchor="start" x="101.5" y="-283" font-family="Helvetica,sans-Serif" font-size="10.00">getPeriod()</text>
<text text-anchor="start" x="88.5" y="-268" font-family="Helvetica,sans-Serif" font-size="10.00">+</text>
<text text-anchor="start" x="101.5" y="-268" font-family="Helvetica,sans-Serif" font-size="10.00">setPeriod()</text>
<text text-anchor="start" x="88.5" y="-253" font-family="Helvetica,sans-Serif" font-size="10.00">+</text>
<text text-anchor="start" x="101.5" y="-253" font-family="Helvetica,sans-Serif" font-size="10.00">getLastExecution()</text>
<text text-anchor="start" x="88.5" y="-238" font-family="Helvetica,sans-Serif" font-size="10.00">+</text>
<text text-anchor="start" x="101.5" y="-238" font-family="Helvetica,sans-Serif" font-size="10.00">setLastExecution()</text>
<text text-anchor="start" x="88.5" y="-223" font-family="Helvetica,sans-Serif" font-size="10.00">+</text>
<text text-anchor="start" x="101.5" y="-223" font-family="Helvetica,sans-Serif" font-size="10.00">getSensorName()</text>
<text text-anchor="start" x="88.5" y="-208" font-family="Helvetica,sans-Serif" font-size="10.00">+</text>
<text text-anchor="start" x="101.5" y="-208" font-family="Helvetica,sans-Serif" font-size="10.00">getSensorCSVHeader()</text>
<text text-anchor="start" x="88.5" y="-193" font-family="Helvetica,sans-Serif" font-size="10.00">+</text>
<text text-anchor="start" x="101.5" y="-193" font-family="Helvetica,sans-Serif" font-size="10.00">verify()</text>
<text text-anchor="start" x="88.5" y="-178" font-family="Helvetica,sans-Serif" font-size="10.00">+</text>
<text text-anchor="start" x="101.5" y="-178" font-family="Helvetica,sans-Serif" font-size="10.00">readData()</text>
<text text-anchor="start" x="88.5" y="-163" font-family="Helvetica,sans-Serif" font-size="10.00">+</text>
<text text-anchor="start" x="101.5" y="-163" font-family="Helvetica,sans-Serif" font-size="10.00">readEmpty()</text>
<text text-anchor="start" x="88.5" y="-148" font-family="Helvetica,sans-Serif" font-size="10.00">+</text>
<text text-anchor="start" x="101.5" y="-148" font-family="Helvetica,sans-Serif" font-size="10.00">getDataCSV()</text>
<polygon fill="#666666" stroke="#666666" points="84.5,-338 84.5,-338 217.5,-338 217.5,-338 84.5,-338"/>
<polygon fill="#666666" stroke="#666666" points="84.5,-323 84.5,-323 217.5,-323 217.5,-323 84.5,-323"/>
<polygon fill="none" stroke="#666666" points="84,-141 84,-355 217,-355 217,-141 84,-141"/>
</a>
</g>
</g>
<!-- Node2&#45;&gt;Node1 -->
<g id="edge1_Node000001_Node000002" class="edge">
<title>Node2&#45;&gt;Node1</title>
<g id="a_edge1_Node000001_Node000002"><a xlink:title=" ">
<path fill="none" stroke="#63b8ff" d="M187.84,-130.91C191.97,-118.06 195.98,-105.58 199.58,-94.38"/>
<polygon fill="none" stroke="#63b8ff" points="184.38,-130.21 184.65,-140.8 191.05,-132.35 184.38,-130.21"/>
</a>
</g>
</g>
<!-- Node3 -->
<g id="Node000003" class="node">
<title>Node3</title>
<g id="a_Node000003"><a xlink:title=" ">
<polygon fill="white" stroke="transparent" points="79,-462 0,-462 0,-413 79,-413 79,-462"/>
<text text-anchor="start" x="5.5" y="-449.5" font-family="Helvetica,sans-Serif" font-size="10.00">unsigned long</text>
<text text-anchor="start" x="38" y="-434.5" font-family="Helvetica,sans-Serif" font-size="10.00"> </text>
<text text-anchor="start" x="38" y="-419.5" font-family="Helvetica,sans-Serif" font-size="10.00"> </text>
<polygon fill="#666666" stroke="#666666" points="0.5,-444.5 0.5,-444.5 79.5,-444.5 79.5,-444.5 0.5,-444.5"/>
<polygon fill="#666666" stroke="#666666" points="0.5,-429.5 0.5,-429.5 79.5,-429.5 79.5,-429.5 0.5,-429.5"/>
<polygon fill="none" stroke="#666666" points="0,-413 0,-462 79,-462 79,-413 0,-413"/>
</a>
</g>
</g>
<!-- Node3&#45;&gt;Node2 -->
<g id="edge2_Node000002_Node000003" class="edge">
<title>Node3&#45;&gt;Node2</title>
<g id="a_edge2_Node000002_Node000003"><a xlink:title=" ">
<path fill="none" stroke="#63b8ff" d="M44.5,-412.84C47.6,-400.56 52.21,-385.55 58.5,-373 63.96,-362.1 70.38,-351.17 77.25,-340.55"/>
<polygon fill="none" stroke="#63b8ff" points="77.31,-340.46 77.31,-333.25 83.96,-330.47 83.97,-337.68 77.31,-340.46"/>
</a>
</g>
<text text-anchor="middle" x="102.5" y="-387" font-family="Helvetica,sans-Serif" font-size="10.00" fill="grey"> &#45;last_execution</text>
<text text-anchor="middle" x="102.5" y="-376" font-family="Helvetica,sans-Serif" font-size="10.00" fill="grey">&#45;minimum_period</text>
</g>
<!-- Node4 -->
<g id="Node000004" class="node">
<title>Node4</title>
<g id="a_Node000004"><a xlink:title=" ">
<polygon fill="white" stroke="transparent" points="170,-462 131,-462 131,-413 170,-413 170,-462"/>
<text text-anchor="start" x="136.5" y="-449.5" font-family="Helvetica,sans-Serif" font-size="10.00">String</text>
<text text-anchor="start" x="149" y="-434.5" font-family="Helvetica,sans-Serif" font-size="10.00"> </text>
<text text-anchor="start" x="149" y="-419.5" font-family="Helvetica,sans-Serif" font-size="10.00"> </text>
<polygon fill="#666666" stroke="#666666" points="131.5,-444.5 131.5,-444.5 170.5,-444.5 170.5,-444.5 131.5,-444.5"/>
<polygon fill="#666666" stroke="#666666" points="131.5,-429.5 131.5,-429.5 170.5,-429.5 170.5,-429.5 131.5,-429.5"/>
<polygon fill="none" stroke="#666666" points="131,-413 131,-462 170,-462 170,-413 131,-413"/>
</a>
</g>
</g>
<!-- Node4&#45;&gt;Node2 -->
<g id="edge3_Node000002_Node000004" class="edge">
<title>Node4&#45;&gt;Node2</title>
<g id="a_edge3_Node000002_Node000004"><a xlink:title=" ">
<path fill="none" stroke="#63b8ff" d="M150.5,-412.75C150.5,-400.5 150.5,-384.55 150.5,-367.41"/>
<polygon fill="none" stroke="#63b8ff" points="150.5,-367.39 146.5,-361.39 150.5,-355.39 154.5,-361.39 150.5,-367.39"/>
</a>
</g>
<text text-anchor="middle" x="185.5" y="-387" font-family="Helvetica,sans-Serif" font-size="10.00" fill="grey"> &#45;csv_header</text>
<text text-anchor="middle" x="185.5" y="-376" font-family="Helvetica,sans-Serif" font-size="10.00" fill="grey">&#45;sensor_name</text>
</g>
<!-- Node5 -->
<g id="Node000005" class="node">
<title>Node5</title>
<g id="a_Node000005"><a xlink:title=" ">
<polygon fill="white" stroke="transparent" points="255,-462 232,-462 232,-413 255,-413 255,-462"/>
<text text-anchor="start" x="237.5" y="-449.5" font-family="Helvetica,sans-Serif" font-size="10.00">int</text>
<text text-anchor="start" x="242" y="-434.5" font-family="Helvetica,sans-Serif" font-size="10.00"> </text>
<text text-anchor="start" x="242" y="-419.5" font-family="Helvetica,sans-Serif" font-size="10.00"> </text>
<polygon fill="#666666" stroke="#666666" points="232.5,-444.5 232.5,-444.5 255.5,-444.5 255.5,-444.5 232.5,-444.5"/>
<polygon fill="#666666" stroke="#666666" points="232.5,-429.5 232.5,-429.5 255.5,-429.5 255.5,-429.5 232.5,-429.5"/>
<polygon fill="none" stroke="#666666" points="232,-413 232,-462 255,-462 255,-413 232,-413"/>
</a>
</g>
</g>
<!-- Node5&#45;&gt;Node2 -->
<g id="edge4_Node000002_Node000005" class="edge">
<title>Node5&#45;&gt;Node2</title>
<g id="a_edge4_Node000002_Node000005"><a xlink:title=" ">
<path fill="none" stroke="#63b8ff" d="M236.47,-412.87C232.58,-400.74 227.34,-385.85 221.5,-373 220.46,-370.71 219.39,-368.4 218.29,-366.08"/>
<polygon fill="none" stroke="#63b8ff" points="218.24,-365.99 212.02,-362.35 212.99,-355.2 219.21,-358.85 218.24,-365.99"/>
</a>
</g>
<text text-anchor="middle" x="247.5" y="-381.5" font-family="Helvetica,sans-Serif" font-size="10.00" fill="grey"> &#45;fields</text>
</g>
<!-- Node6 -->
<g id="Node000006" class="node">
<title>Node6</title>
<g id="a_Node000006"><a xlink:title=" ">
<polygon fill="white" stroke="transparent" points="321.5,-272.5 235.5,-272.5 235.5,-223.5 321.5,-223.5 321.5,-272.5"/>
<text text-anchor="start" x="240.5" y="-260" font-family="Helvetica,sans-Serif" font-size="10.00">Adafruit_SGP30</text>
<text text-anchor="start" x="276.5" y="-245" font-family="Helvetica,sans-Serif" font-size="10.00"> </text>
<text text-anchor="start" x="276.5" y="-230" font-family="Helvetica,sans-Serif" font-size="10.00"> </text>
<polygon fill="#666666" stroke="#666666" points="235.5,-255 235.5,-255 321.5,-255 321.5,-255 235.5,-255"/>
<polygon fill="#666666" stroke="#666666" points="235.5,-240 235.5,-240 321.5,-240 321.5,-240 235.5,-240"/>
<polygon fill="none" stroke="#666666" points="235.5,-223.5 235.5,-272.5 321.5,-272.5 321.5,-223.5 235.5,-223.5"/>
</a>
</g>
</g>
<!-- Node6&#45;&gt;Node1 -->
<g id="edge5_Node000001_Node000006" class="edge">
<title>Node6&#45;&gt;Node1</title>
<g id="a_edge5_Node000001_Node000006"><a xlink:title=" ">
<path fill="none" stroke="#63b8ff" d="M270.91,-223.39C261.64,-194.59 245.67,-144.91 233.08,-105.76"/>
<polygon fill="none" stroke="#63b8ff" points="233.05,-105.66 227.4,-101.18 229.37,-94.24 235.02,-98.73 233.05,-105.66"/>
</a>
</g>
<text text-anchor="middle" x="250" y="-115" font-family="Helvetica,sans-Serif" font-size="10.00" fill="grey"> &#45;sgp</text>
</g>
</g>
</svg>
