<?xml version="1.0" encoding="UTF-8" standalone="no"?>
<!DOCTYPE svg PUBLIC "-//W3C//DTD SVG 1.1//EN"
 "http://www.w3.org/Graphics/SVG/1.1/DTD/svg11.dtd">
<!-- Generated by graphviz version 2.43.0 (0)
 -->
<!-- Title: ZOPT220x_Control::enableRawSensing Pages: 1 -->
<svg width="542pt" height="86pt"
 viewBox="0.00 0.00 542.00 86.00" xmlns="http://www.w3.org/2000/svg" xmlns:xlink="http://www.w3.org/1999/xlink">
<g id="graph0" class="graph" transform="scale(1 1) rotate(0) translate(4 82)">
<title>ZOPT220x_Control::enableRawSensing</title>
<!-- Node1 -->
<g id="Node000001" class="node">
<title>Node1</title>
<g id="a_Node000001"><a xlink:title=" ">
<polygon fill="#999999" stroke="#666666" points="146,-54 0,-54 0,-24 146,-24 146,-54"/>
<text text-anchor="start" x="8" y="-42" font-family="Helvetica,sans-Serif" font-size="10.00">ZOPT220x_Control::enable</text>
<text text-anchor="middle" x="73" y="-31" font-family="Helvetica,sans-Serif" font-size="10.00">RawSensing</text>
</a>
</g>
</g>
<!-- Node2 -->
<g id="Node000002" class="node">
<title>Node2</title>
<g id="a_Node000002"><a xlink:href="classZOPT220x__Control.html#a70fedf9d112bc34ef55e21452acd3877" target="_top" xlink:title=" ">
<polygon fill="white" stroke="#666666" points="337,-48.5 182,-48.5 182,-29.5 337,-29.5 337,-48.5"/>
<text text-anchor="middle" x="259.5" y="-36.5" font-family="Helvetica,sans-Serif" font-size="10.00">ZOPT220x_Control::setMode</text>
</a>
</g>
</g>
<!-- Node1&#45;&gt;Node2 -->
<g id="edge1_Node000001_Node000002" class="edge">
<title>Node1&#45;&gt;Node2</title>
<g id="a_edge1_Node000001_Node000002"><a xlink:title=" ">
<path fill="none" stroke="#63b8ff" d="M146.13,-39C154.55,-39 163.21,-39 171.81,-39"/>
<polygon fill="#63b8ff" stroke="#63b8ff" points="171.86,-42.5 181.86,-39 171.86,-35.5 171.86,-42.5"/>
</a>
</g>
</g>
<!-- Node3 -->
<g id="Node000003" class="node">
<title>Node3</title>
<g id="a_Node000003"><a xlink:href="classZOPT220x__Control.html#a58c74577acc1183a66b1f9b9281551a3" target="_top" xlink:title=" ">
<polygon fill="white" stroke="#666666" points="533,-78 374,-78 374,-48 533,-48 533,-78"/>
<text text-anchor="start" x="382" y="-66" font-family="Helvetica,sans-Serif" font-size="10.00">ZOPT220x_Control::zoptRead</text>
<text text-anchor="middle" x="453.5" y="-55" font-family="Helvetica,sans-Serif" font-size="10.00">Register</text>
</a>
</g>
</g>
<!-- Node2&#45;&gt;Node3 -->
<g id="edge2_Node000002_Node000003" class="edge">
<title>Node2&#45;&gt;Node3</title>
<g id="a_edge2_Node000002_Node000003"><a xlink:title=" ">
<path fill="none" stroke="#63b8ff" d="M336.66,-48.52C345.56,-49.63 354.7,-50.77 363.75,-51.91"/>
<polygon fill="#63b8ff" stroke="#63b8ff" points="363.56,-55.41 373.91,-53.18 364.43,-48.46 363.56,-55.41"/>
</a>
</g>
</g>
<!-- Node4 -->
<g id="Node000004" class="node">
<title>Node4</title>
<g id="a_Node000004"><a xlink:href="classZOPT220x__Control.html#ab5f43fd630eaaadeea212559e12648be" target="_top" xlink:title=" ">
<polygon fill="white" stroke="#666666" points="534,-30 373,-30 373,0 534,0 534,-30"/>
<text text-anchor="start" x="381" y="-18" font-family="Helvetica,sans-Serif" font-size="10.00">ZOPT220x_Control::zoptWrite</text>
<text text-anchor="middle" x="453.5" y="-7" font-family="Helvetica,sans-Serif" font-size="10.00">Register</text>
</a>
</g>
</g>
<!-- Node2&#45;&gt;Node4 -->
<g id="edge3_Node000002_Node000004" class="edge">
<title>Node2&#45;&gt;Node4</title>
<g id="a_edge3_Node000002_Node000004"><a xlink:title=" ">
<path fill="none" stroke="#63b8ff" d="M336.66,-29.48C345.24,-28.41 354.04,-27.31 362.77,-26.22"/>
<polygon fill="#63b8ff" stroke="#63b8ff" points="363.48,-29.66 372.97,-24.94 362.61,-22.71 363.48,-29.66"/>
</a>
</g>
</g>
</g>
</svg>
