<?xml version="1.0" encoding="UTF-8" standalone="no"?>
<!DOCTYPE svg PUBLIC "-//W3C//DTD SVG 1.1//EN"
 "http://www.w3.org/Graphics/SVG/1.1/DTD/svg11.dtd">
<!-- Generated by graphviz version 2.43.0 (0)
 -->
<!-- Title: FlashStorage Pages: 1 -->
<svg width="391pt" height="331pt"
 viewBox="0.00 0.00 390.81 331.00" xmlns="http://www.w3.org/2000/svg" xmlns:xlink="http://www.w3.org/1999/xlink">
<g id="graph0" class="graph" transform="scale(1 1) rotate(0) translate(4 327)">
<title>FlashStorage</title>
<!-- Node1 -->
<g id="node1" class="node">
<title>Node1</title>
<g id="a_node1"><a xlink:title=" ">
<polygon fill="#bfbfbf" stroke="black" points="168.31,-0.5 168.31,-79.5 267.31,-79.5 267.31,-0.5 168.31,-0.5"/>
<text text-anchor="middle" x="217.81" y="-67.5" font-family="Helvetica,sans-Serif" font-size="10.00">FlashStorage</text>
<polyline fill="none" stroke="black" points="168.31,-60.5 267.31,-60.5 "/>
<text text-anchor="middle" x="217.81" y="-48.5" font-family="Helvetica,sans-Serif" font-size="10.00"> </text>
<polyline fill="none" stroke="black" points="168.31,-41.5 267.31,-41.5 "/>
<text text-anchor="start" x="176.31" y="-29.5" font-family="Helvetica,sans-Serif" font-size="10.00">+ FlashStorage()</text>
<text text-anchor="start" x="176.31" y="-18.5" font-family="Helvetica,sans-Serif" font-size="10.00">+ verify()</text>
<text text-anchor="start" x="176.31" y="-7.5" font-family="Helvetica,sans-Serif" font-size="10.00">+ store()</text>
</a>
</g>
</g>
<!-- Node2 -->
<g id="node2" class="node">
<title>Node2</title>
<g id="a_node2"><a xlink:href="classStorage.html" target="_top" xlink:title="Parent class for all data storage devices (sd card, radio, etc)">
<polygon fill="none" stroke="black" points="80.81,-127.5 80.81,-217.5 198.81,-217.5 198.81,-127.5 80.81,-127.5"/>
<text text-anchor="middle" x="139.81" y="-205.5" font-family="Helvetica,sans-Serif" font-size="10.00">Storage</text>
<polyline fill="none" stroke="black" points="80.81,-198.5 198.81,-198.5 "/>
<text text-anchor="middle" x="139.81" y="-186.5" font-family="Helvetica,sans-Serif" font-size="10.00"> </text>
<polyline fill="none" stroke="black" points="80.81,-179.5 198.81,-179.5 "/>
<text text-anchor="start" x="88.81" y="-167.5" font-family="Helvetica,sans-Serif" font-size="10.00">+ Storage()</text>
<text text-anchor="start" x="88.81" y="-156.5" font-family="Helvetica,sans-Serif" font-size="10.00">+ getStorageName()</text>
<text text-anchor="start" x="88.81" y="-145.5" font-family="Helvetica,sans-Serif" font-size="10.00">+ verify()</text>
<text text-anchor="start" x="88.81" y="-134.5" font-family="Helvetica,sans-Serif" font-size="10.00">+ store()</text>
</a>
</g>
</g>
<!-- Node2&#45;&gt;Node1 -->
<g id="edge1" class="edge">
<title>Node2&#45;&gt;Node1</title>
<path fill="none" stroke="midnightblue" d="M171.48,-118.51C179.2,-105.59 187.32,-92.01 194.57,-79.89"/>
<polygon fill="none" stroke="midnightblue" points="168.35,-116.94 166.22,-127.32 174.35,-120.53 168.35,-116.94"/>
</g>
<!-- Node3 -->
<g id="node3" class="node">
<title>Node3</title>
<g id="a_node3"><a xlink:title=" ">
<polygon fill="none" stroke="#bfbfbf" points="1.31,-265.5 1.31,-322.5 46.31,-322.5 46.31,-265.5 1.31,-265.5"/>
<text text-anchor="middle" x="23.81" y="-310.5" font-family="Helvetica,sans-Serif" font-size="10.00">String</text>
<polyline fill="none" stroke="#bfbfbf" points="1.31,-303.5 46.31,-303.5 "/>
<text text-anchor="middle" x="23.81" y="-291.5" font-family="Helvetica,sans-Serif" font-size="10.00"> </text>
<polyline fill="none" stroke="#bfbfbf" points="1.31,-284.5 46.31,-284.5 "/>
<text text-anchor="middle" x="23.81" y="-272.5" font-family="Helvetica,sans-Serif" font-size="10.00"> </text>
</a>
</g>
</g>
<!-- Node3&#45;&gt;Node1 -->
<g id="edge3" class="edge">
<title>Node3&#45;&gt;Node1</title>
<path fill="none" stroke="#404040" d="M13.51,-265.41C2.26,-230.17 -10.75,-168.77 16.81,-127 47.48,-80.52 109.03,-59.07 155.98,-49.22"/>
<polygon fill="none" stroke="#404040" points="156.1,-49.2 161.22,-44.13 167.87,-46.91 162.75,-51.98 156.1,-49.2"/>
<text text-anchor="middle" x="44.31" y="-170" font-family="Helvetica,sans-Serif" font-size="10.00"> &#45;file_name</text>
</g>
<!-- Node3&#45;&gt;Node2 -->
<g id="edge2" class="edge">
<title>Node3&#45;&gt;Node2</title>
<path fill="none" stroke="#404040" d="M46.45,-269.68C58.47,-257.3 73.76,-241.55 88.47,-226.39"/>
<polygon fill="none" stroke="#404040" points="88.67,-226.18 89.98,-219.09 97.03,-217.57 95.72,-224.66 88.67,-226.18"/>
<text text-anchor="middle" x="117.31" y="-239" font-family="Helvetica,sans-Serif" font-size="10.00"> &#45;storage_name</text>
</g>
<!-- Node4 -->
<g id="node4" class="node">
<title>Node4</title>
<g id="a_node4"><a xlink:title=" ">
<polygon fill="none" stroke="#bfbfbf" points="216.81,-144 216.81,-201 272.81,-201 272.81,-144 216.81,-144"/>
<text text-anchor="middle" x="244.81" y="-189" font-family="Helvetica,sans-Serif" font-size="10.00">uint64_t</text>
<polyline fill="none" stroke="#bfbfbf" points="216.81,-182 272.81,-182 "/>
<text text-anchor="middle" x="244.81" y="-170" font-family="Helvetica,sans-Serif" font-size="10.00"> </text>
<polyline fill="none" stroke="#bfbfbf" points="216.81,-163 272.81,-163 "/>
<text text-anchor="middle" x="244.81" y="-151" font-family="Helvetica,sans-Serif" font-size="10.00"> </text>
</a>
</g>
</g>
<!-- Node4&#45;&gt;Node1 -->
<g id="edge4" class="edge">
<title>Node4&#45;&gt;Node1</title>
<path fill="none" stroke="#404040" d="M239.09,-143.82C235.94,-128.63 231.94,-109.3 228.26,-91.52"/>
<polygon fill="none" stroke="#404040" points="228.21,-91.28 223.08,-86.21 225.78,-79.53 230.92,-84.59 228.21,-91.28"/>
<text text-anchor="middle" x="253.81" y="-101" font-family="Helvetica,sans-Serif" font-size="10.00"> &#45;position</text>
</g>
<!-- Node5 -->
<g id="node5" class="node">
<title>Node5</title>
<g id="a_node5"><a xlink:title=" ">
<polygon fill="none" stroke="#bfbfbf" points="290.81,-144 290.81,-201 382.81,-201 382.81,-144 290.81,-144"/>
<text text-anchor="middle" x="336.81" y="-189" font-family="Helvetica,sans-Serif" font-size="10.00">SFE_SPI_FLASH</text>
<polyline fill="none" stroke="#bfbfbf" points="290.81,-182 382.81,-182 "/>
<text text-anchor="middle" x="336.81" y="-170" font-family="Helvetica,sans-Serif" font-size="10.00"> </text>
<polyline fill="none" stroke="#bfbfbf" points="290.81,-163 382.81,-163 "/>
<text text-anchor="middle" x="336.81" y="-151" font-family="Helvetica,sans-Serif" font-size="10.00"> </text>
</a>
</g>
</g>
<!-- Node5&#45;&gt;Node1 -->
<g id="edge5" class="edge">
<title>Node5&#45;&gt;Node1</title>
<path fill="none" stroke="#404040" d="M317.47,-143.66C307.18,-129.49 293.95,-112.29 280.81,-98 277.79,-94.71 274.6,-91.4 271.33,-88.13"/>
<polygon fill="none" stroke="#404040" points="271.12,-87.93 264.03,-86.61 262.52,-79.56 269.61,-80.88 271.12,-87.93"/>
<text text-anchor="middle" x="304.31" y="-101" font-family="Helvetica,sans-Serif" font-size="10.00"> &#45;flash</text>
</g>
</g>
</svg>
