<?xml version="1.0" encoding="UTF-8" standalone="no"?>
<!DOCTYPE svg PUBLIC "-//W3C//DTD SVG 1.1//EN"
 "http://www.w3.org/Graphics/SVG/1.1/DTD/svg11.dtd">
<!-- Generated by graphviz version 2.43.0 (0)
 -->
<!-- Title: Sensor Pages: 1 -->
<!--zoomable 369 -->
<svg id="main" version="1.1" xmlns="http://www.w3.org/2000/svg" xmlns:xlink="http://www.w3.org/1999/xlink" xml:space="preserve" onload="init(evt)">
<style type="text/css"><![CDATA[
.edge:hover path { stroke: red; }
.edge:hover polygon { stroke: red; fill: red; }
]]></style>
<script type="text/javascript"><![CDATA[
var edges = document.getElementsByTagName('g');
if (edges && edges.length) {
  for (var i=0;i<edges.length;i++) {
    if (edges[i].id.substr(0,4)=='edge') {
      edges[i].setAttribute('class','edge');
    }
  }
}
]]></script>
        <defs>
                <circle id="rim" cx="0" cy="0" r="7"/>
                <circle id="rim2" cx="0" cy="0" r="3.5"/>
                <g id="zoomPlus">
                        <use xlink:href="#rim" fill="#404040">
                                <set attributeName="fill" to="#808080" begin="zoomplus.mouseover" end="zoomplus.mouseout"/>
                        </use>
                        <path d="M-4,0h8M0,-4v8" fill="none" stroke="white" stroke-width="1.5" pointer-events="none"/>
                </g>
                <g id="zoomMin">
                        <use xlink:href="#rim" fill="#404040">
                                <set attributeName="fill" to="#808080" begin="zoomminus.mouseover" end="zoomminus.mouseout"/>
                        </use>
                        <path d="M-4,0h8" fill="none" stroke="white" stroke-width="1.5" pointer-events="none"/>
                </g>
                <g id="dirArrow">
                        <path fill="none" stroke="white" stroke-width="1.5" d="M0,-3.0v7 M-2.5,-0.5L0,-3.0L2.5,-0.5"/>
                </g>
               <g id="resetDef">
                       <use xlink:href="#rim2" fill="#404040">
                               <set attributeName="fill" to="#808080" begin="reset.mouseover" end="reset.mouseout"/>
                       </use>
               </g>
        </defs>

<script type="text/javascript">
var viewWidth = 903;
var viewHeight = 369;
var sectionId = 'dynsection-0';
</script>
<script xlink:href="svgpan.js"/>
<svg id="graph" class="graph">
<g id="viewport">
<title>Sensor</title>
<!-- Node1 -->
<g id="node1" class="node">
<title>Node1</title>
<g id="a_node1"><a xlink:title="Parent class for sensor objects.">
<polygon fill="#bfbfbf" stroke="black" points="383.5,-138.5 383.5,-360.5 522.5,-360.5 522.5,-138.5 383.5,-138.5"/>
<text text-anchor="middle" x="453" y="-348.5" font-family="Helvetica,sans-Serif" font-size="10.00">Sensor</text>
<polyline fill="none" stroke="black" points="383.5,-341.5 522.5,-341.5 "/>
<text text-anchor="start" x="391.5" y="-329.5" font-family="Helvetica,sans-Serif" font-size="10.00">&#45; minimum_period</text>
<text text-anchor="start" x="391.5" y="-318.5" font-family="Helvetica,sans-Serif" font-size="10.00">&#45; last_execution</text>
<text text-anchor="start" x="391.5" y="-307.5" font-family="Helvetica,sans-Serif" font-size="10.00">&#45; sensor_name</text>
<text text-anchor="start" x="391.5" y="-296.5" font-family="Helvetica,sans-Serif" font-size="10.00">&#45; csv_header</text>
<text text-anchor="start" x="391.5" y="-285.5" font-family="Helvetica,sans-Serif" font-size="10.00">&#45; fields</text>
<polyline fill="none" stroke="black" points="383.5,-278.5 522.5,-278.5 "/>
<text text-anchor="start" x="391.5" y="-266.5" font-family="Helvetica,sans-Serif" font-size="10.00">+ Sensor()</text>
<text text-anchor="start" x="391.5" y="-255.5" font-family="Helvetica,sans-Serif" font-size="10.00">+ Sensor()</text>
<text text-anchor="start" x="391.5" y="-244.5" font-family="Helvetica,sans-Serif" font-size="10.00">+ getPeriod()</text>
<text text-anchor="start" x="391.5" y="-233.5" font-family="Helvetica,sans-Serif" font-size="10.00">+ setPeriod()</text>
<text text-anchor="start" x="391.5" y="-222.5" font-family="Helvetica,sans-Serif" font-size="10.00">+ getLastExecution()</text>
<text text-anchor="start" x="391.5" y="-211.5" font-family="Helvetica,sans-Serif" font-size="10.00">+ setLastExecution()</text>
<text text-anchor="start" x="391.5" y="-200.5" font-family="Helvetica,sans-Serif" font-size="10.00">+ getSensorName()</text>
<text text-anchor="start" x="391.5" y="-189.5" font-family="Helvetica,sans-Serif" font-size="10.00">+ getSensorCSVHeader()</text>
<text text-anchor="start" x="391.5" y="-178.5" font-family="Helvetica,sans-Serif" font-size="10.00">+ verify()</text>
<text text-anchor="start" x="391.5" y="-167.5" font-family="Helvetica,sans-Serif" font-size="10.00">+ readData()</text>
<text text-anchor="start" x="391.5" y="-156.5" font-family="Helvetica,sans-Serif" font-size="10.00">+ readEmpty()</text>
<text text-anchor="start" x="391.5" y="-145.5" font-family="Helvetica,sans-Serif" font-size="10.00">+ getDataCSV()</text>
</a>
</g>
</g>
<!-- Node2 -->
<g id="node2" class="node">
<title>Node2</title>
<g id="a_node2"><a xlink:href="classBME680Sensor.html" target="_top" xlink:title="A class to interface with the Adafruit BME680 sensor for environmental data collection.">
<polygon fill="none" stroke="black" points="0,-6 0,-96 108,-96 108,-6 0,-6"/>
<text text-anchor="middle" x="54" y="-84" font-family="Helvetica,sans-Serif" font-size="10.00">BME680Sensor</text>
<polyline fill="none" stroke="black" points="0,-77 108,-77 "/>
<text text-anchor="start" x="8" y="-65" font-family="Helvetica,sans-Serif" font-size="10.00">&#45; bme</text>
<polyline fill="none" stroke="black" points="0,-58 108,-58 "/>
<text text-anchor="start" x="8" y="-46" font-family="Helvetica,sans-Serif" font-size="10.00">+ BME680Sensor()</text>
<text text-anchor="start" x="8" y="-35" font-family="Helvetica,sans-Serif" font-size="10.00">+ BME680Sensor()</text>
<text text-anchor="start" x="8" y="-24" font-family="Helvetica,sans-Serif" font-size="10.00">+ verify()</text>
<text text-anchor="start" x="8" y="-13" font-family="Helvetica,sans-Serif" font-size="10.00">+ readData()</text>
</a>
</g>
</g>
<!-- Node1&#45;&gt;Node2 -->
<g id="edge1" class="edge">
<title>Node1&#45;&gt;Node2</title>
<path fill="none" stroke="midnightblue" d="M373.54,-220.57C303.6,-194.44 200.23,-152 117,-102 113.89,-100.13 110.76,-98.12 107.65,-96.03"/>
<polygon fill="none" stroke="midnightblue" points="372.59,-223.95 383.18,-224.15 375.02,-217.39 372.59,-223.95"/>
</g>
<!-- Node3 -->
<g id="node3" class="node">
<title>Node3</title>
<g id="a_node3"><a xlink:href="classGeigerSensor.html" target="_top" xlink:title="A class for interfacing with a Geiger counter sensor.">
<polygon fill="none" stroke="black" points="126.5,-0.5 126.5,-101.5 255.5,-101.5 255.5,-0.5 126.5,-0.5"/>
<text text-anchor="middle" x="191" y="-89.5" font-family="Helvetica,sans-Serif" font-size="10.00">GeigerSensor</text>
<polyline fill="none" stroke="black" points="126.5,-82.5 255.5,-82.5 "/>
<text text-anchor="start" x="134.5" y="-70.5" font-family="Helvetica,sans-Serif" font-size="10.00">&#45; measuringPeriodStart</text>
<polyline fill="none" stroke="black" points="126.5,-63.5 255.5,-63.5 "/>
<text text-anchor="start" x="134.5" y="-51.5" font-family="Helvetica,sans-Serif" font-size="10.00">+ GeigerSensor()</text>
<text text-anchor="start" x="134.5" y="-40.5" font-family="Helvetica,sans-Serif" font-size="10.00">+ GeigerSensor()</text>
<text text-anchor="start" x="134.5" y="-29.5" font-family="Helvetica,sans-Serif" font-size="10.00">+ verify()</text>
<text text-anchor="start" x="134.5" y="-18.5" font-family="Helvetica,sans-Serif" font-size="10.00">+ readData()</text>
<text text-anchor="start" x="134.5" y="-7.5" font-family="Helvetica,sans-Serif" font-size="10.00">&#45; geigerCounter()</text>
</a>
</g>
</g>
<!-- Node1&#45;&gt;Node3 -->
<g id="edge2" class="edge">
<title>Node1&#45;&gt;Node3</title>
<path fill="none" stroke="midnightblue" d="M375.47,-190.35C337.42,-161.81 292.09,-127.82 255.89,-100.67"/>
<polygon fill="none" stroke="midnightblue" points="373.38,-193.16 383.48,-196.36 377.58,-187.56 373.38,-193.16"/>
</g>
<!-- Node4 -->
<g id="node4" class="node">
<title>Node4</title>
<g id="a_node4"><a xlink:href="classINA260Sensor.html" target="_top" xlink:title="A class to interface with the Adafruit INA260 sensor for current, voltage, and power measurements.">
<polygon fill="none" stroke="black" points="274,-6 274,-96 378,-96 378,-6 274,-6"/>
<text text-anchor="middle" x="326" y="-84" font-family="Helvetica,sans-Serif" font-size="10.00">INA260Sensor</text>
<polyline fill="none" stroke="black" points="274,-77 378,-77 "/>
<text text-anchor="start" x="282" y="-65" font-family="Helvetica,sans-Serif" font-size="10.00">&#45; ina260</text>
<polyline fill="none" stroke="black" points="274,-58 378,-58 "/>
<text text-anchor="start" x="282" y="-46" font-family="Helvetica,sans-Serif" font-size="10.00">+ INA260Sensor()</text>
<text text-anchor="start" x="282" y="-35" font-family="Helvetica,sans-Serif" font-size="10.00">+ INA260Sensor()</text>
<text text-anchor="start" x="282" y="-24" font-family="Helvetica,sans-Serif" font-size="10.00">+ verify()</text>
<text text-anchor="start" x="282" y="-13" font-family="Helvetica,sans-Serif" font-size="10.00">+ readData()</text>
</a>
</g>
</g>
<!-- Node1&#45;&gt;Node4 -->
<g id="edge3" class="edge">
<title>Node1&#45;&gt;Node4</title>
<path fill="none" stroke="midnightblue" d="M377.91,-132.32C369.66,-119.56 361.68,-107.21 354.56,-96.18"/>
<polygon fill="none" stroke="midnightblue" points="375,-134.27 383.37,-140.76 380.88,-130.47 375,-134.27"/>
</g>
<!-- Node5 -->
<g id="node5" class="node">
<title>Node5</title>
<g id="a_node5"><a xlink:href="classLSM9DS1Sensor.html" target="_top" xlink:title="Implementation of the Sensor class for the LSM9DS1 (9&#45;axis IMU)">
<polygon fill="none" stroke="black" points="396,-6 396,-96 510,-96 510,-6 396,-6"/>
<text text-anchor="middle" x="453" y="-84" font-family="Helvetica,sans-Serif" font-size="10.00">LSM9DS1Sensor</text>
<polyline fill="none" stroke="black" points="396,-77 510,-77 "/>
<text text-anchor="middle" x="453" y="-65" font-family="Helvetica,sans-Serif" font-size="10.00"> </text>
<polyline fill="none" stroke="black" points="396,-58 510,-58 "/>
<text text-anchor="start" x="404" y="-46" font-family="Helvetica,sans-Serif" font-size="10.00">+ LSM9DS1Sensor()</text>
<text text-anchor="start" x="404" y="-35" font-family="Helvetica,sans-Serif" font-size="10.00">+ LSM9DS1Sensor()</text>
<text text-anchor="start" x="404" y="-24" font-family="Helvetica,sans-Serif" font-size="10.00">+ verify()</text>
<text text-anchor="start" x="404" y="-13" font-family="Helvetica,sans-Serif" font-size="10.00">+ readData()</text>
</a>
</g>
</g>
<!-- Node1&#45;&gt;Node5 -->
<g id="edge4" class="edge">
<title>Node1&#45;&gt;Node5</title>
<path fill="none" stroke="midnightblue" d="M453,-128.41C453,-117.07 453,-106.13 453,-96.25"/>
<polygon fill="none" stroke="midnightblue" points="449.5,-128.47 453,-138.47 456.5,-128.47 449.5,-128.47"/>
</g>
<!-- Node6 -->
<g id="node6" class="node">
<title>Node6</title>
<g id="a_node6"><a xlink:href="classSHT31Sensor.html" target="_top" xlink:title="Interfaces with SHT31 Sensor to collect temperature and humidity data.">
<polygon fill="none" stroke="black" points="528,-0.5 528,-101.5 650,-101.5 650,-0.5 528,-0.5"/>
<text text-anchor="middle" x="589" y="-89.5" font-family="Helvetica,sans-Serif" font-size="10.00">SHT31Sensor</text>
<polyline fill="none" stroke="black" points="528,-82.5 650,-82.5 "/>
<text text-anchor="start" x="536" y="-70.5" font-family="Helvetica,sans-Serif" font-size="10.00">&#45; sht31</text>
<text text-anchor="start" x="536" y="-59.5" font-family="Helvetica,sans-Serif" font-size="10.00">&#45; csvHeaderCompiled</text>
<polyline fill="none" stroke="black" points="528,-52.5 650,-52.5 "/>
<text text-anchor="start" x="536" y="-40.5" font-family="Helvetica,sans-Serif" font-size="10.00">+ SHT31Sensor()</text>
<text text-anchor="start" x="536" y="-29.5" font-family="Helvetica,sans-Serif" font-size="10.00">+ SHT31Sensor()</text>
<text text-anchor="start" x="536" y="-18.5" font-family="Helvetica,sans-Serif" font-size="10.00">+ verify()</text>
<text text-anchor="start" x="536" y="-7.5" font-family="Helvetica,sans-Serif" font-size="10.00">+ readData()</text>
</a>
</g>
</g>
<!-- Node1&#45;&gt;Node6 -->
<g id="edge5" class="edge">
<title>Node1&#45;&gt;Node6</title>
<path fill="none" stroke="midnightblue" d="M528.31,-139.69C537.47,-126.46 546.44,-113.49 554.57,-101.75"/>
<polygon fill="none" stroke="midnightblue" points="525.41,-137.73 522.59,-147.95 531.16,-141.72 525.41,-137.73"/>
</g>
<!-- Node7 -->
<g id="node7" class="node">
<title>Node7</title>
<g id="a_node7"><a xlink:href="classTempSensor.html" target="_top" xlink:title="Implementation of a Sensor for the onboard temperature sensor.">
<polygon fill="none" stroke="black" points="668.5,-6 668.5,-96 763.5,-96 763.5,-6 668.5,-6"/>
<text text-anchor="middle" x="716" y="-84" font-family="Helvetica,sans-Serif" font-size="10.00">TempSensor</text>
<polyline fill="none" stroke="black" points="668.5,-77 763.5,-77 "/>
<text text-anchor="middle" x="716" y="-65" font-family="Helvetica,sans-Serif" font-size="10.00"> </text>
<polyline fill="none" stroke="black" points="668.5,-58 763.5,-58 "/>
<text text-anchor="start" x="676.5" y="-46" font-family="Helvetica,sans-Serif" font-size="10.00">+ TempSensor()</text>
<text text-anchor="start" x="676.5" y="-35" font-family="Helvetica,sans-Serif" font-size="10.00">+ TempSensor()</text>
<text text-anchor="start" x="676.5" y="-24" font-family="Helvetica,sans-Serif" font-size="10.00">+ verify()</text>
<text text-anchor="start" x="676.5" y="-13" font-family="Helvetica,sans-Serif" font-size="10.00">+ readData()</text>
</a>
</g>
</g>
<!-- Node1&#45;&gt;Node7 -->
<g id="edge6" class="edge">
<title>Node1&#45;&gt;Node7</title>
<path fill="none" stroke="midnightblue" d="M531.65,-195.37C570.64,-168.33 618.04,-134.39 659,-102 662.1,-99.55 665.25,-96.99 668.41,-94.37"/>
<polygon fill="none" stroke="midnightblue" points="529.19,-192.82 522.95,-201.38 533.17,-198.57 529.19,-192.82"/>
</g>
<!-- Node8 -->
<g id="node8" class="node">
<title>Node8</title>
<g id="a_node8"><a xlink:href="classZOPT220Sensor.html" target="_top" xlink:title="A class to interface with the ZOPT220x UV and ambient light sensor.">
<polygon fill="none" stroke="black" points="781.5,-6 781.5,-96 894.5,-96 894.5,-6 781.5,-6"/>
<text text-anchor="middle" x="838" y="-84" font-family="Helvetica,sans-Serif" font-size="10.00">ZOPT220Sensor</text>
<polyline fill="none" stroke="black" points="781.5,-77 894.5,-77 "/>
<text text-anchor="start" x="789.5" y="-65" font-family="Helvetica,sans-Serif" font-size="10.00">&#45; zopt</text>
<polyline fill="none" stroke="black" points="781.5,-58 894.5,-58 "/>
<text text-anchor="start" x="789.5" y="-46" font-family="Helvetica,sans-Serif" font-size="10.00">+ ZOPT220Sensor()</text>
<text text-anchor="start" x="789.5" y="-35" font-family="Helvetica,sans-Serif" font-size="10.00">+ ZOPT220Sensor()</text>
<text text-anchor="start" x="789.5" y="-24" font-family="Helvetica,sans-Serif" font-size="10.00">+ verify()</text>
<text text-anchor="start" x="789.5" y="-13" font-family="Helvetica,sans-Serif" font-size="10.00">+ readData()</text>
</a>
</g>
</g>
<!-- Node1&#45;&gt;Node8 -->
<g id="edge7" class="edge">
<title>Node1&#45;&gt;Node8</title>
<path fill="none" stroke="midnightblue" d="M532.26,-218.09C598.6,-191.28 694.7,-149.21 773,-102 776.05,-100.16 779.12,-98.21 782.18,-96.17"/>
<polygon fill="none" stroke="midnightblue" points="530.67,-214.96 522.7,-221.94 533.28,-221.46 530.67,-214.96"/>
</g>
</g>
</svg>
        <g id="navigator" transform="translate(0 0)" fill="#404254">
                <rect fill="#f2f5e9" fill-opacity="0.5" stroke="#606060" stroke-width=".5" x="0" y="0" width="60" height="60"/>
                <use id="zoomplus" xlink:href="#zoomPlus" x="17" y="9" onmousedown="handleZoom(evt,'in')"/>
                <use id="zoomminus" xlink:href="#zoomMin" x="42" y="9" onmousedown="handleZoom(evt,'out')"/>
                <use id="reset" xlink:href="#resetDef" x="30" y="36" onmousedown="handleReset()"/>
                <g id="arrowUp" xlink:href="#dirArrow" transform="translate(30 24)" onmousedown="handlePan(0,-1)">
                  <use xlink:href="#rim" fill="#404040">
                        <set attributeName="fill" to="#808080" begin="arrowUp.mouseover" end="arrowUp.mouseout"/>
                  </use>
                  <path fill="none" stroke="white" stroke-width="1.5" d="M0,-3.0v7 M-2.5,-0.5L0,-3.0L2.5,-0.5"/>
                </g>
                <g id="arrowRight" xlink:href="#dirArrow" transform="rotate(90) translate(36 -43)" onmousedown="handlePan(1,0)">
                  <use xlink:href="#rim" fill="#404040">
                        <set attributeName="fill" to="#808080" begin="arrowRight.mouseover" end="arrowRight.mouseout"/>
                  </use>
                  <path fill="none" stroke="white" stroke-width="1.5" d="M0,-3.0v7 M-2.5,-0.5L0,-3.0L2.5,-0.5"/>
                </g>
                <g id="arrowDown" xlink:href="#dirArrow" transform="rotate(180) translate(-30 -48)" onmousedown="handlePan(0,1)">
                  <use xlink:href="#rim" fill="#404040">
                        <set attributeName="fill" to="#808080" begin="arrowDown.mouseover" end="arrowDown.mouseout"/>
                  </use>
                  <path fill="none" stroke="white" stroke-width="1.5" d="M0,-3.0v7 M-2.5,-0.5L0,-3.0L2.5,-0.5"/>
                </g>
                <g id="arrowLeft" xlink:href="#dirArrow" transform="rotate(270) translate(-36 17)" onmousedown="handlePan(-1,0)">
                  <use xlink:href="#rim" fill="#404040">
                        <set attributeName="fill" to="#808080" begin="arrowLeft.mouseover" end="arrowLeft.mouseout"/>
                  </use>
                  <path fill="none" stroke="white" stroke-width="1.5" d="M0,-3.0v7 M-2.5,-0.5L0,-3.0L2.5,-0.5"/>
                </g>
        </g>
        <svg viewBox="0 0 15 15" width="100%" height="30px" preserveAspectRatio="xMaxYMin meet">
         <g id="arrow_out" transform="scale(0.3 0.3)">
          <a xlink:href="classSensor__inherit__graph_org.svg" target="_base">
           <rect id="button" ry="5" rx="5" y="6" x="6" height="38" width="38"
                fill="#f2f5e9" fill-opacity="0.5" stroke="#606060" stroke-width="1.0"/>
           <path id="arrow"
             d="M 11.500037,31.436501 C 11.940474,20.09759 22.043105,11.32322 32.158766,21.979434 L 37.068811,17.246167 C 37.068811,17.246167 37.088388,32 37.088388,32 L 22.160133,31.978069 C 22.160133,31.978069 26.997745,27.140456 26.997745,27.140456 C 18.528582,18.264221 13.291696,25.230495 11.500037,31.436501 z"
             style="fill:#404040;"/>
          </a>
         </g>
        </svg>
</svg>
