<?xml version="1.0" encoding="UTF-8" standalone="no"?>
<!DOCTYPE svg PUBLIC "-//W3C//DTD SVG 1.1//EN"
 "http://www.w3.org/Graphics/SVG/1.1/DTD/svg11.dtd">
<!-- Generated by graphviz version 2.43.0 (0)
 -->
<!-- Title: RadioStorage Pages: 1 -->
<svg width="211pt" height="321pt"
 viewBox="0.00 0.00 210.50 321.00" xmlns="http://www.w3.org/2000/svg" xmlns:xlink="http://www.w3.org/1999/xlink">
<g id="graph0" class="graph" transform="scale(1 1) rotate(0) translate(4 317)">
<title>RadioStorage</title>
<!-- Node1 -->
<g id="node1" class="node">
<title>Node1</title>
<g id="a_node1"><a xlink:title="Implementation of a Storage device to interface with an SD card.">
<polygon fill="#bfbfbf" stroke="black" points="0,-0.5 0,-79.5 101,-79.5 101,-0.5 0,-0.5"/>
<text text-anchor="middle" x="50.5" y="-67.5" font-family="Helvetica,sans-Serif" font-size="10.00">RadioStorage</text>
<polyline fill="none" stroke="black" points="0,-60.5 101,-60.5 "/>
<text text-anchor="middle" x="50.5" y="-48.5" font-family="Helvetica,sans-Serif" font-size="10.00"> </text>
<polyline fill="none" stroke="black" points="0,-41.5 101,-41.5 "/>
<text text-anchor="start" x="8" y="-29.5" font-family="Helvetica,sans-Serif" font-size="10.00">+ RadioStorage()</text>
<text text-anchor="start" x="8" y="-18.5" font-family="Helvetica,sans-Serif" font-size="10.00">+ verify()</text>
<text text-anchor="start" x="8" y="-7.5" font-family="Helvetica,sans-Serif" font-size="10.00">+ store()</text>
</a>
</g>
</g>
<!-- Node2 -->
<g id="node2" class="node">
<title>Node2</title>
<g id="a_node2"><a xlink:href="classStorage.html" target="_top" xlink:title="Parent class for all data storage devices (sd card, radio, etc)">
<polygon fill="none" stroke="black" points="84.5,-117.5 84.5,-207.5 202.5,-207.5 202.5,-117.5 84.5,-117.5"/>
<text text-anchor="middle" x="143.5" y="-195.5" font-family="Helvetica,sans-Serif" font-size="10.00">Storage</text>
<polyline fill="none" stroke="black" points="84.5,-188.5 202.5,-188.5 "/>
<text text-anchor="middle" x="143.5" y="-176.5" font-family="Helvetica,sans-Serif" font-size="10.00"> </text>
<polyline fill="none" stroke="black" points="84.5,-169.5 202.5,-169.5 "/>
<text text-anchor="start" x="92.5" y="-157.5" font-family="Helvetica,sans-Serif" font-size="10.00">+ Storage()</text>
<text text-anchor="start" x="92.5" y="-146.5" font-family="Helvetica,sans-Serif" font-size="10.00">+ getStorageName()</text>
<text text-anchor="start" x="92.5" y="-135.5" font-family="Helvetica,sans-Serif" font-size="10.00">+ verify()</text>
<text text-anchor="start" x="92.5" y="-124.5" font-family="Helvetica,sans-Serif" font-size="10.00">+ store()</text>
</a>
</g>
</g>
<!-- Node2&#45;&gt;Node1 -->
<g id="edge1" class="edge">
<title>Node2&#45;&gt;Node1</title>
<path fill="none" stroke="midnightblue" d="M103.28,-109.39C95.56,-99.39 87.62,-89.09 80.3,-79.61"/>
<polygon fill="none" stroke="midnightblue" points="100.52,-111.54 109.4,-117.31 106.06,-107.26 100.52,-111.54"/>
</g>
<!-- Node3 -->
<g id="node3" class="node">
<title>Node3</title>
<g id="a_node3"><a xlink:title=" ">
<polygon fill="none" stroke="#bfbfbf" points="5,-255.5 5,-312.5 50,-312.5 50,-255.5 5,-255.5"/>
<text text-anchor="middle" x="27.5" y="-300.5" font-family="Helvetica,sans-Serif" font-size="10.00">String</text>
<polyline fill="none" stroke="#bfbfbf" points="5,-293.5 50,-293.5 "/>
<text text-anchor="middle" x="27.5" y="-281.5" font-family="Helvetica,sans-Serif" font-size="10.00"> </text>
<polyline fill="none" stroke="#bfbfbf" points="5,-274.5 50,-274.5 "/>
<text text-anchor="middle" x="27.5" y="-262.5" font-family="Helvetica,sans-Serif" font-size="10.00"> </text>
</a>
</g>
</g>
<!-- Node3&#45;&gt;Node1 -->
<g id="edge3" class="edge">
<title>Node3&#45;&gt;Node1</title>
<path fill="none" stroke="#404040" d="M22.51,-255.4C17.39,-222.23 11.36,-165.03 20.5,-117 22.14,-108.38 24.74,-99.48 27.74,-90.95"/>
<polygon fill="none" stroke="#404040" points="27.79,-90.83 26.16,-83.8 32.03,-79.6 33.65,-86.63 27.79,-90.83"/>
<text text-anchor="middle" x="48" y="-160" font-family="Helvetica,sans-Serif" font-size="10.00"> &#45;file_name</text>
</g>
<!-- Node3&#45;&gt;Node2 -->
<g id="edge2" class="edge">
<title>Node3&#45;&gt;Node2</title>
<path fill="none" stroke="#404040" d="M50.14,-259.68C62.16,-247.3 77.45,-231.55 92.16,-216.39"/>
<polygon fill="none" stroke="#404040" points="92.36,-216.18 93.67,-209.09 100.72,-207.57 99.41,-214.66 92.36,-216.18"/>
<text text-anchor="middle" x="120" y="-229" font-family="Helvetica,sans-Serif" font-size="10.00"> &#45;storage_name</text>
</g>
</g>
</svg>
