<?xml version="1.0" encoding="UTF-8" standalone="no"?>
<!DOCTYPE svg PUBLIC "-//W3C//DTD SVG 1.1//EN"
 "http://www.w3.org/Graphics/SVG/1.1/DTD/svg11.dtd">
<!-- Generated by graphviz version 2.43.0 (0)
 -->
<!-- Title: Storage Pages: 1 -->
<svg width="214pt" height="226pt"
 viewBox="0.00 0.00 213.50 226.00" xmlns="http://www.w3.org/2000/svg" xmlns:xlink="http://www.w3.org/1999/xlink">
<g id="graph0" class="graph" transform="scale(1 1) rotate(0) translate(4 222)">
<title>Storage</title>
<!-- Node1 -->
<g id="node1" class="node">
<title>Node1</title>
<g id="a_node1"><a xlink:title="Parent class for all data storage devices (sd card, radio, etc)">
<polygon fill="#bfbfbf" stroke="black" points="47.5,-127.5 47.5,-217.5 165.5,-217.5 165.5,-127.5 47.5,-127.5"/>
<text text-anchor="middle" x="106.5" y="-205.5" font-family="Helvetica,sans-Serif" font-size="10.00">Storage</text>
<polyline fill="none" stroke="black" points="47.5,-198.5 165.5,-198.5 "/>
<text text-anchor="start" x="55.5" y="-186.5" font-family="Helvetica,sans-Serif" font-size="10.00">&#45; storage_name</text>
<polyline fill="none" stroke="black" points="47.5,-179.5 165.5,-179.5 "/>
<text text-anchor="start" x="55.5" y="-167.5" font-family="Helvetica,sans-Serif" font-size="10.00">+ Storage()</text>
<text text-anchor="start" x="55.5" y="-156.5" font-family="Helvetica,sans-Serif" font-size="10.00">+ getStorageName()</text>
<text text-anchor="start" x="55.5" y="-145.5" font-family="Helvetica,sans-Serif" font-size="10.00">+ verify()</text>
<text text-anchor="start" x="55.5" y="-134.5" font-family="Helvetica,sans-Serif" font-size="10.00">+ store()</text>
</a>
</g>
</g>
<!-- Node2 -->
<g id="node2" class="node">
<title>Node2</title>
<g id="a_node2"><a xlink:href="classRadioStorage.html" target="_top" xlink:title="Implementation of a Storage device to interface with an SD card.">
<polygon fill="none" stroke="black" points="0,-6 0,-85 101,-85 101,-6 0,-6"/>
<text text-anchor="middle" x="50.5" y="-73" font-family="Helvetica,sans-Serif" font-size="10.00">RadioStorage</text>
<polyline fill="none" stroke="black" points="0,-66 101,-66 "/>
<text text-anchor="start" x="8" y="-54" font-family="Helvetica,sans-Serif" font-size="10.00">&#45; file_name</text>
<polyline fill="none" stroke="black" points="0,-47 101,-47 "/>
<text text-anchor="start" x="8" y="-35" font-family="Helvetica,sans-Serif" font-size="10.00">+ RadioStorage()</text>
<text text-anchor="start" x="8" y="-24" font-family="Helvetica,sans-Serif" font-size="10.00">+ verify()</text>
<text text-anchor="start" x="8" y="-13" font-family="Helvetica,sans-Serif" font-size="10.00">+ store()</text>
</a>
</g>
</g>
<!-- Node1&#45;&gt;Node2 -->
<g id="edge1" class="edge">
<title>Node1&#45;&gt;Node2</title>
<path fill="none" stroke="midnightblue" d="M82.64,-118.23C77.66,-107.13 72.51,-95.64 67.83,-85.19"/>
<polygon fill="none" stroke="midnightblue" points="79.47,-119.73 86.76,-127.43 85.86,-116.87 79.47,-119.73"/>
</g>
<!-- Node3 -->
<g id="node3" class="node">
<title>Node3</title>
<g id="a_node3"><a xlink:href="classSDStorage.html" target="_top" xlink:title="Implementation of a Storage device to interface with an SD card.">
<polygon fill="none" stroke="black" points="119.5,-0.5 119.5,-90.5 205.5,-90.5 205.5,-0.5 119.5,-0.5"/>
<text text-anchor="middle" x="162.5" y="-78.5" font-family="Helvetica,sans-Serif" font-size="10.00">SDStorage</text>
<polyline fill="none" stroke="black" points="119.5,-71.5 205.5,-71.5 "/>
<text text-anchor="start" x="127.5" y="-59.5" font-family="Helvetica,sans-Serif" font-size="10.00">&#45; file_name</text>
<text text-anchor="start" x="127.5" y="-48.5" font-family="Helvetica,sans-Serif" font-size="10.00">&#45; sd_spi_1</text>
<polyline fill="none" stroke="black" points="119.5,-41.5 205.5,-41.5 "/>
<text text-anchor="start" x="127.5" y="-29.5" font-family="Helvetica,sans-Serif" font-size="10.00">+ SDStorage()</text>
<text text-anchor="start" x="127.5" y="-18.5" font-family="Helvetica,sans-Serif" font-size="10.00">+ verify()</text>
<text text-anchor="start" x="127.5" y="-7.5" font-family="Helvetica,sans-Serif" font-size="10.00">+ store()</text>
</a>
</g>
</g>
<!-- Node1&#45;&gt;Node3 -->
<g id="edge2" class="edge">
<title>Node1&#45;&gt;Node3</title>
<path fill="none" stroke="midnightblue" d="M130.46,-118.02C134.56,-108.88 138.77,-99.46 142.75,-90.59"/>
<polygon fill="none" stroke="midnightblue" points="127.14,-116.87 126.24,-127.43 133.53,-119.73 127.14,-116.87"/>
</g>
</g>
</svg>
