<?xml version="1.0" encoding="UTF-8" standalone="no"?>
<!DOCTYPE svg PUBLIC "-//W3C//DTD SVG 1.1//EN"
 "http://www.w3.org/Graphics/SVG/1.1/DTD/svg11.dtd">
<!-- Generated by graphviz version 2.43.0 (0)
 -->
<!-- Title: Sensor Pages: 1 -->
<!--zoomable 369 -->
<svg id="main" version="1.1" xmlns="http://www.w3.org/2000/svg" xmlns:xlink="http://www.w3.org/1999/xlink" xml:space="preserve" onload="init(evt)">
<style type="text/css"><![CDATA[
.edge:hover path { stroke: red; }
.edge:hover polygon { stroke: red; fill: red; }
]]></style>
<script type="text/javascript"><![CDATA[
var edges = document.getElementsByTagName('g');
if (edges && edges.length) {
  for (var i=0;i<edges.length;i++) {
    if (edges[i].id.substr(0,4)=='edge') {
      edges[i].setAttribute('class','edge');
    }
  }
}
]]></script>
        <defs>
                <circle id="rim" cx="0" cy="0" r="7"/>
                <circle id="rim2" cx="0" cy="0" r="3.5"/>
                <g id="zoomPlus">
                        <use xlink:href="#rim" fill="#404040">
                                <set attributeName="fill" to="#808080" begin="zoomplus.mouseover" end="zoomplus.mouseout"/>
                        </use>
                        <path d="M-4,0h8M0,-4v8" fill="none" stroke="white" stroke-width="1.5" pointer-events="none"/>
                </g>
                <g id="zoomMin">
                        <use xlink:href="#rim" fill="#404040">
                                <set attributeName="fill" to="#808080" begin="zoomminus.mouseover" end="zoomminus.mouseout"/>
                        </use>
                        <path d="M-4,0h8" fill="none" stroke="white" stroke-width="1.5" pointer-events="none"/>
                </g>
                <g id="dirArrow">
                        <path fill="none" stroke="white" stroke-width="1.5" d="M0,-3.0v7 M-2.5,-0.5L0,-3.0L2.5,-0.5"/>
                </g>
               <g id="resetDef">
                       <use xlink:href="#rim2" fill="#404040">
                               <set attributeName="fill" to="#808080" begin="reset.mouseover" end="reset.mouseout"/>
                       </use>
               </g>
        </defs>

<script type="text/javascript">
var viewWidth = 1646;
var viewHeight = 369;
var sectionId = 'dynsection-0';
</script>
<script xlink:href="svgpan.js"/>
<svg id="graph" class="graph">
<g id="viewport">
<title>Sensor</title>
<!-- Node1 -->
<g id="node1" class="node">
<title>Node1</title>
<g id="a_node1"><a xlink:title="Parent class for sensor objects.">
<polygon fill="#bfbfbf" stroke="black" points="750,-138.5 750,-360.5 889,-360.5 889,-138.5 750,-138.5"/>
<text text-anchor="middle" x="819.5" y="-348.5" font-family="Helvetica,sans-Serif" font-size="10.00">Sensor</text>
<polyline fill="none" stroke="black" points="750,-341.5 889,-341.5 "/>
<text text-anchor="start" x="758" y="-329.5" font-family="Helvetica,sans-Serif" font-size="10.00">&#45; minimum_period</text>
<text text-anchor="start" x="758" y="-318.5" font-family="Helvetica,sans-Serif" font-size="10.00">&#45; last_execution</text>
<text text-anchor="start" x="758" y="-307.5" font-family="Helvetica,sans-Serif" font-size="10.00">&#45; sensor_name</text>
<text text-anchor="start" x="758" y="-296.5" font-family="Helvetica,sans-Serif" font-size="10.00">&#45; csv_header</text>
<text text-anchor="start" x="758" y="-285.5" font-family="Helvetica,sans-Serif" font-size="10.00">&#45; fields</text>
<polyline fill="none" stroke="black" points="750,-278.5 889,-278.5 "/>
<text text-anchor="start" x="758" y="-266.5" font-family="Helvetica,sans-Serif" font-size="10.00">+ Sensor()</text>
<text text-anchor="start" x="758" y="-255.5" font-family="Helvetica,sans-Serif" font-size="10.00">+ Sensor()</text>
<text text-anchor="start" x="758" y="-244.5" font-family="Helvetica,sans-Serif" font-size="10.00">+ getPeriod()</text>
<text text-anchor="start" x="758" y="-233.5" font-family="Helvetica,sans-Serif" font-size="10.00">+ setPeriod()</text>
<text text-anchor="start" x="758" y="-222.5" font-family="Helvetica,sans-Serif" font-size="10.00">+ getLastExecution()</text>
<text text-anchor="start" x="758" y="-211.5" font-family="Helvetica,sans-Serif" font-size="10.00">+ setLastExecution()</text>
<text text-anchor="start" x="758" y="-200.5" font-family="Helvetica,sans-Serif" font-size="10.00">+ getSensorName()</text>
<text text-anchor="start" x="758" y="-189.5" font-family="Helvetica,sans-Serif" font-size="10.00">+ getSensorCSVHeader()</text>
<text text-anchor="start" x="758" y="-178.5" font-family="Helvetica,sans-Serif" font-size="10.00">+ verify()</text>
<text text-anchor="start" x="758" y="-167.5" font-family="Helvetica,sans-Serif" font-size="10.00">+ readData()</text>
<text text-anchor="start" x="758" y="-156.5" font-family="Helvetica,sans-Serif" font-size="10.00">+ readEmpty()</text>
<text text-anchor="start" x="758" y="-145.5" font-family="Helvetica,sans-Serif" font-size="10.00">+ getDataCSV()</text>
</a>
</g>
</g>
<!-- Node2 -->
<g id="node2" class="node">
<title>Node2</title>
<g id="a_node2"><a xlink:href="classAS7331Sensor.html" target="_top" xlink:title=" ">
<polygon fill="none" stroke="black" points="0,-6 0,-96 105,-96 105,-6 0,-6"/>
<text text-anchor="middle" x="52.5" y="-84" font-family="Helvetica,sans-Serif" font-size="10.00">AS7331Sensor</text>
<polyline fill="none" stroke="black" points="0,-77 105,-77 "/>
<text text-anchor="start" x="8" y="-65" font-family="Helvetica,sans-Serif" font-size="10.00">&#45; myUVSensor</text>
<polyline fill="none" stroke="black" points="0,-58 105,-58 "/>
<text text-anchor="start" x="8" y="-46" font-family="Helvetica,sans-Serif" font-size="10.00">+ AS7331Sensor()</text>
<text text-anchor="start" x="8" y="-35" font-family="Helvetica,sans-Serif" font-size="10.00">+ AS7331Sensor()</text>
<text text-anchor="start" x="8" y="-24" font-family="Helvetica,sans-Serif" font-size="10.00">+ verify()</text>
<text text-anchor="start" x="8" y="-13" font-family="Helvetica,sans-Serif" font-size="10.00">+ readData()</text>
</a>
</g>
</g>
<!-- Node1&#45;&gt;Node2 -->
<g id="edge1" class="edge">
<title>Node1&#45;&gt;Node2</title>
<path fill="none" stroke="midnightblue" d="M739.52,-244.09C604.6,-234.05 325.83,-201.95 114.5,-102 110.87,-100.29 107.28,-98.32 103.74,-96.18"/>
<polygon fill="none" stroke="midnightblue" points="739.55,-247.6 749.77,-244.83 740.05,-240.62 739.55,-247.6"/>
</g>
<!-- Node3 -->
<g id="node3" class="node">
<title>Node3</title>
<g id="a_node3"><a xlink:href="classAnalogSensor.html" target="_top" xlink:title="Implementation of a Sensor for the analog readings.">
<polygon fill="none" stroke="black" points="123.5,-6 123.5,-96 225.5,-96 225.5,-6 123.5,-6"/>
<text text-anchor="middle" x="174.5" y="-84" font-family="Helvetica,sans-Serif" font-size="10.00">AnalogSensor</text>
<polyline fill="none" stroke="black" points="123.5,-77 225.5,-77 "/>
<text text-anchor="middle" x="174.5" y="-65" font-family="Helvetica,sans-Serif" font-size="10.00"> </text>
<polyline fill="none" stroke="black" points="123.5,-58 225.5,-58 "/>
<text text-anchor="start" x="131.5" y="-46" font-family="Helvetica,sans-Serif" font-size="10.00">+ AnalogSensor()</text>
<text text-anchor="start" x="131.5" y="-35" font-family="Helvetica,sans-Serif" font-size="10.00">+ AnalogSensor()</text>
<text text-anchor="start" x="131.5" y="-24" font-family="Helvetica,sans-Serif" font-size="10.00">+ verify()</text>
<text text-anchor="start" x="131.5" y="-13" font-family="Helvetica,sans-Serif" font-size="10.00">+ readData()</text>
</a>
</g>
</g>
<!-- Node1&#45;&gt;Node3 -->
<g id="edge2" class="edge">
<title>Node1&#45;&gt;Node3</title>
<path fill="none" stroke="midnightblue" d="M739.52,-239.96C623.04,-225.04 402.35,-187.28 234.5,-102 230.99,-100.22 227.51,-98.2 224.1,-96.02"/>
<polygon fill="none" stroke="midnightblue" points="739.42,-243.47 749.77,-241.25 740.29,-236.53 739.42,-243.47"/>
</g>
<!-- Node4 -->
<g id="node4" class="node">
<title>Node4</title>
<g id="a_node4"><a xlink:href="classBME280Sensor.html" target="_top" xlink:title="Implementation of a Sensor for the BME280.">
<polygon fill="none" stroke="black" points="243.5,-6 243.5,-96 351.5,-96 351.5,-6 243.5,-6"/>
<text text-anchor="middle" x="297.5" y="-84" font-family="Helvetica,sans-Serif" font-size="10.00">BME280Sensor</text>
<polyline fill="none" stroke="black" points="243.5,-77 351.5,-77 "/>
<text text-anchor="start" x="251.5" y="-65" font-family="Helvetica,sans-Serif" font-size="10.00">&#45; bme</text>
<polyline fill="none" stroke="black" points="243.5,-58 351.5,-58 "/>
<text text-anchor="start" x="251.5" y="-46" font-family="Helvetica,sans-Serif" font-size="10.00">+ BME280Sensor()</text>
<text text-anchor="start" x="251.5" y="-35" font-family="Helvetica,sans-Serif" font-size="10.00">+ BME280Sensor()</text>
<text text-anchor="start" x="251.5" y="-24" font-family="Helvetica,sans-Serif" font-size="10.00">+ verify()</text>
<text text-anchor="start" x="251.5" y="-13" font-family="Helvetica,sans-Serif" font-size="10.00">+ readData()</text>
</a>
</g>
</g>
<!-- Node1&#45;&gt;Node4 -->
<g id="edge3" class="edge">
<title>Node1&#45;&gt;Node4</title>
<path fill="none" stroke="midnightblue" d="M740.15,-232.39C645.81,-211.19 485.43,-168.62 360.5,-102 357.17,-100.23 353.85,-98.27 350.56,-96.19"/>
<polygon fill="none" stroke="midnightblue" points="739.39,-235.8 749.91,-234.56 740.91,-228.97 739.39,-235.8"/>
</g>
<!-- Node5 -->
<g id="node5" class="node">
<title>Node5</title>
<g id="a_node5"><a xlink:href="classBME680Sensor.html" target="_top" xlink:title="A class to interface with the Adafruit BME680 sensor for environmental data collection.">
<polygon fill="none" stroke="black" points="369.5,-6 369.5,-96 477.5,-96 477.5,-6 369.5,-6"/>
<text text-anchor="middle" x="423.5" y="-84" font-family="Helvetica,sans-Serif" font-size="10.00">BME680Sensor</text>
<polyline fill="none" stroke="black" points="369.5,-77 477.5,-77 "/>
<text text-anchor="start" x="377.5" y="-65" font-family="Helvetica,sans-Serif" font-size="10.00">&#45; bme</text>
<polyline fill="none" stroke="black" points="369.5,-58 477.5,-58 "/>
<text text-anchor="start" x="377.5" y="-46" font-family="Helvetica,sans-Serif" font-size="10.00">+ BME680Sensor()</text>
<text text-anchor="start" x="377.5" y="-35" font-family="Helvetica,sans-Serif" font-size="10.00">+ BME680Sensor()</text>
<text text-anchor="start" x="377.5" y="-24" font-family="Helvetica,sans-Serif" font-size="10.00">+ verify()</text>
<text text-anchor="start" x="377.5" y="-13" font-family="Helvetica,sans-Serif" font-size="10.00">+ readData()</text>
</a>
</g>
</g>
<!-- Node1&#45;&gt;Node5 -->
<g id="edge4" class="edge">
<title>Node1&#45;&gt;Node5</title>
<path fill="none" stroke="midnightblue" d="M740.44,-220.33C671.14,-194.12 568.89,-151.69 486.5,-102 483.39,-100.13 480.26,-98.12 477.15,-96.02"/>
<polygon fill="none" stroke="midnightblue" points="739.4,-223.68 750,-223.92 741.87,-217.13 739.4,-223.68"/>
</g>
<!-- Node6 -->
<g id="node6" class="node">
<title>Node6</title>
<g id="a_node6"><a xlink:href="classENS160Sensor.html" target="_top" xlink:title="Implementation of a Sensor for the ENS160.">
<polygon fill="none" stroke="black" points="495.5,-6 495.5,-96 601.5,-96 601.5,-6 495.5,-6"/>
<text text-anchor="middle" x="548.5" y="-84" font-family="Helvetica,sans-Serif" font-size="10.00">ENS160Sensor</text>
<polyline fill="none" stroke="black" points="495.5,-77 601.5,-77 "/>
<text text-anchor="start" x="503.5" y="-65" font-family="Helvetica,sans-Serif" font-size="10.00">&#45; ens</text>
<polyline fill="none" stroke="black" points="495.5,-58 601.5,-58 "/>
<text text-anchor="start" x="503.5" y="-46" font-family="Helvetica,sans-Serif" font-size="10.00">+ ENS160Sensor()</text>
<text text-anchor="start" x="503.5" y="-35" font-family="Helvetica,sans-Serif" font-size="10.00">+ ENS160Sensor()</text>
<text text-anchor="start" x="503.5" y="-24" font-family="Helvetica,sans-Serif" font-size="10.00">+ verify()</text>
<text text-anchor="start" x="503.5" y="-13" font-family="Helvetica,sans-Serif" font-size="10.00">+ readData()</text>
</a>
</g>
</g>
<!-- Node1&#45;&gt;Node6 -->
<g id="edge5" class="edge">
<title>Node1&#45;&gt;Node6</title>
<path fill="none" stroke="midnightblue" d="M741.62,-195.75C701.92,-168.4 653.14,-134.08 610.5,-102 607.63,-99.84 604.7,-97.6 601.75,-95.32"/>
<polygon fill="none" stroke="midnightblue" points="739.73,-198.7 749.95,-201.48 743.69,-192.93 739.73,-198.7"/>
</g>
<!-- Node7 -->
<g id="node7" class="node">
<title>Node7</title>
<g id="a_node7"><a xlink:href="classGeigerSensor.html" target="_top" xlink:title="A class for interfacing with a Geiger counter sensor.">
<polygon fill="none" stroke="black" points="620,-0.5 620,-101.5 749,-101.5 749,-0.5 620,-0.5"/>
<text text-anchor="middle" x="684.5" y="-89.5" font-family="Helvetica,sans-Serif" font-size="10.00">GeigerSensor</text>
<polyline fill="none" stroke="black" points="620,-82.5 749,-82.5 "/>
<text text-anchor="start" x="628" y="-70.5" font-family="Helvetica,sans-Serif" font-size="10.00">&#45; measuringPeriodStart</text>
<polyline fill="none" stroke="black" points="620,-63.5 749,-63.5 "/>
<text text-anchor="start" x="628" y="-51.5" font-family="Helvetica,sans-Serif" font-size="10.00">+ GeigerSensor()</text>
<text text-anchor="start" x="628" y="-40.5" font-family="Helvetica,sans-Serif" font-size="10.00">+ GeigerSensor()</text>
<text text-anchor="start" x="628" y="-29.5" font-family="Helvetica,sans-Serif" font-size="10.00">+ verify()</text>
<text text-anchor="start" x="628" y="-18.5" font-family="Helvetica,sans-Serif" font-size="10.00">+ readData()</text>
<text text-anchor="start" x="628" y="-7.5" font-family="Helvetica,sans-Serif" font-size="10.00">&#45; geigerCounter()</text>
</a>
</g>
</g>
<!-- Node1&#45;&gt;Node7 -->
<g id="edge6" class="edge">
<title>Node1&#45;&gt;Node7</title>
<path fill="none" stroke="midnightblue" d="M744,-138.61C735.17,-125.75 726.52,-113.16 718.67,-101.74"/>
<polygon fill="none" stroke="midnightblue" points="741.28,-140.82 749.83,-147.08 747.05,-136.86 741.28,-140.82"/>
</g>
<!-- Node8 -->
<g id="node8" class="node">
<title>Node8</title>
<g id="a_node8"><a xlink:href="classINA260Sensor.html" target="_top" xlink:title="A class to interface with the Adafruit INA260 sensor for current, voltage, and power measurements.">
<polygon fill="none" stroke="black" points="767.5,-6 767.5,-96 871.5,-96 871.5,-6 767.5,-6"/>
<text text-anchor="middle" x="819.5" y="-84" font-family="Helvetica,sans-Serif" font-size="10.00">INA260Sensor</text>
<polyline fill="none" stroke="black" points="767.5,-77 871.5,-77 "/>
<text text-anchor="start" x="775.5" y="-65" font-family="Helvetica,sans-Serif" font-size="10.00">&#45; ina260</text>
<polyline fill="none" stroke="black" points="767.5,-58 871.5,-58 "/>
<text text-anchor="start" x="775.5" y="-46" font-family="Helvetica,sans-Serif" font-size="10.00">+ INA260Sensor()</text>
<text text-anchor="start" x="775.5" y="-35" font-family="Helvetica,sans-Serif" font-size="10.00">+ INA260Sensor()</text>
<text text-anchor="start" x="775.5" y="-24" font-family="Helvetica,sans-Serif" font-size="10.00">+ verify()</text>
<text text-anchor="start" x="775.5" y="-13" font-family="Helvetica,sans-Serif" font-size="10.00">+ readData()</text>
</a>
</g>
</g>
<!-- Node1&#45;&gt;Node8 -->
<g id="edge7" class="edge">
<title>Node1&#45;&gt;Node8</title>
<path fill="none" stroke="midnightblue" d="M819.5,-128.41C819.5,-117.07 819.5,-106.13 819.5,-96.25"/>
<polygon fill="none" stroke="midnightblue" points="816,-128.47 819.5,-138.47 823,-128.47 816,-128.47"/>
</g>
<!-- Node9 -->
<g id="node9" class="node">
<title>Node9</title>
<g id="a_node9"><a xlink:href="classLSM9DS1Sensor.html" target="_top" xlink:title="Implementation of the Sensor class for the LSM9DS1 (9&#45;axis IMU)">
<polygon fill="none" stroke="black" points="889.5,-6 889.5,-96 1003.5,-96 1003.5,-6 889.5,-6"/>
<text text-anchor="middle" x="946.5" y="-84" font-family="Helvetica,sans-Serif" font-size="10.00">LSM9DS1Sensor</text>
<polyline fill="none" stroke="black" points="889.5,-77 1003.5,-77 "/>
<text text-anchor="middle" x="946.5" y="-65" font-family="Helvetica,sans-Serif" font-size="10.00"> </text>
<polyline fill="none" stroke="black" points="889.5,-58 1003.5,-58 "/>
<text text-anchor="start" x="897.5" y="-46" font-family="Helvetica,sans-Serif" font-size="10.00">+ LSM9DS1Sensor()</text>
<text text-anchor="start" x="897.5" y="-35" font-family="Helvetica,sans-Serif" font-size="10.00">+ LSM9DS1Sensor()</text>
<text text-anchor="start" x="897.5" y="-24" font-family="Helvetica,sans-Serif" font-size="10.00">+ verify()</text>
<text text-anchor="start" x="897.5" y="-13" font-family="Helvetica,sans-Serif" font-size="10.00">+ readData()</text>
</a>
</g>
</g>
<!-- Node1&#45;&gt;Node9 -->
<g id="edge8" class="edge">
<title>Node1&#45;&gt;Node9</title>
<path fill="none" stroke="midnightblue" d="M894.59,-132.32C902.84,-119.56 910.82,-107.21 917.94,-96.18"/>
<polygon fill="none" stroke="midnightblue" points="891.62,-130.47 889.13,-140.76 897.5,-134.27 891.62,-130.47"/>
</g>
<!-- Node10 -->
<g id="node10" class="node">
<title>Node10</title>
<g id="a_node10"><a xlink:href="classMTK3339Sensor.html" target="_top" xlink:title="Implementation of the Adafruit MTK3339 GPS sensor.">
<polygon fill="none" stroke="black" points="1021.5,-6 1021.5,-96 1135.5,-96 1135.5,-6 1021.5,-6"/>
<text text-anchor="middle" x="1078.5" y="-84" font-family="Helvetica,sans-Serif" font-size="10.00">MTK3339Sensor</text>
<polyline fill="none" stroke="black" points="1021.5,-77 1135.5,-77 "/>
<text text-anchor="start" x="1029.5" y="-65" font-family="Helvetica,sans-Serif" font-size="10.00">&#45; GPS</text>
<polyline fill="none" stroke="black" points="1021.5,-58 1135.5,-58 "/>
<text text-anchor="start" x="1029.5" y="-46" font-family="Helvetica,sans-Serif" font-size="10.00">+ MTK3339Sensor()</text>
<text text-anchor="start" x="1029.5" y="-35" font-family="Helvetica,sans-Serif" font-size="10.00">+ MTK3339Sensor()</text>
<text text-anchor="start" x="1029.5" y="-24" font-family="Helvetica,sans-Serif" font-size="10.00">+ verify()</text>
<text text-anchor="start" x="1029.5" y="-13" font-family="Helvetica,sans-Serif" font-size="10.00">+ readData()</text>
</a>
</g>
</g>
<!-- Node1&#45;&gt;Node10 -->
<g id="edge9" class="edge">
<title>Node1&#45;&gt;Node10</title>
<path fill="none" stroke="midnightblue" d="M897.37,-189.42C937.22,-159.19 984.87,-123.03 1021.3,-95.4"/>
<polygon fill="none" stroke="midnightblue" points="895.1,-186.75 889.25,-195.58 899.33,-192.33 895.1,-186.75"/>
</g>
<!-- Node11 -->
<g id="node11" class="node">
<title>Node11</title>
<g id="a_node11"><a xlink:href="classSGP30Sensor.html" target="_top" xlink:title="Implementation of a Sensor for the SGP Air Quality sensor.">
<polygon fill="none" stroke="black" points="1153.5,-6 1153.5,-96 1253.5,-96 1253.5,-6 1153.5,-6"/>
<text text-anchor="middle" x="1203.5" y="-84" font-family="Helvetica,sans-Serif" font-size="10.00">SGP30Sensor</text>
<polyline fill="none" stroke="black" points="1153.5,-77 1253.5,-77 "/>
<text text-anchor="start" x="1161.5" y="-65" font-family="Helvetica,sans-Serif" font-size="10.00">&#45; sgp</text>
<polyline fill="none" stroke="black" points="1153.5,-58 1253.5,-58 "/>
<text text-anchor="start" x="1161.5" y="-46" font-family="Helvetica,sans-Serif" font-size="10.00">+ SGP30Sensor()</text>
<text text-anchor="start" x="1161.5" y="-35" font-family="Helvetica,sans-Serif" font-size="10.00">+ SGP30Sensor()</text>
<text text-anchor="start" x="1161.5" y="-24" font-family="Helvetica,sans-Serif" font-size="10.00">+ verify()</text>
<text text-anchor="start" x="1161.5" y="-13" font-family="Helvetica,sans-Serif" font-size="10.00">+ readData()</text>
</a>
</g>
</g>
<!-- Node1&#45;&gt;Node11 -->
<g id="edge10" class="edge">
<title>Node1&#45;&gt;Node11</title>
<path fill="none" stroke="midnightblue" d="M898.6,-220.04C966.42,-193.98 1065.41,-151.95 1144.5,-102 1147.45,-100.14 1150.41,-98.13 1153.35,-96.04"/>
<polygon fill="none" stroke="midnightblue" points="897.34,-216.77 889.25,-223.61 899.84,-223.31 897.34,-216.77"/>
</g>
<!-- Node12 -->
<g id="node12" class="node">
<title>Node12</title>
<g id="a_node12"><a xlink:href="classSHT31Sensor.html" target="_top" xlink:title="Interfaces with SHT31 Sensor to collect temperature and humidity data.">
<polygon fill="none" stroke="black" points="1271.5,-0.5 1271.5,-101.5 1393.5,-101.5 1393.5,-0.5 1271.5,-0.5"/>
<text text-anchor="middle" x="1332.5" y="-89.5" font-family="Helvetica,sans-Serif" font-size="10.00">SHT31Sensor</text>
<polyline fill="none" stroke="black" points="1271.5,-82.5 1393.5,-82.5 "/>
<text text-anchor="start" x="1279.5" y="-70.5" font-family="Helvetica,sans-Serif" font-size="10.00">&#45; sht31</text>
<text text-anchor="start" x="1279.5" y="-59.5" font-family="Helvetica,sans-Serif" font-size="10.00">&#45; csvHeaderCompiled</text>
<polyline fill="none" stroke="black" points="1271.5,-52.5 1393.5,-52.5 "/>
<text text-anchor="start" x="1279.5" y="-40.5" font-family="Helvetica,sans-Serif" font-size="10.00">+ SHT31Sensor()</text>
<text text-anchor="start" x="1279.5" y="-29.5" font-family="Helvetica,sans-Serif" font-size="10.00">+ SHT31Sensor()</text>
<text text-anchor="start" x="1279.5" y="-18.5" font-family="Helvetica,sans-Serif" font-size="10.00">+ verify()</text>
<text text-anchor="start" x="1279.5" y="-7.5" font-family="Helvetica,sans-Serif" font-size="10.00">+ readData()</text>
</a>
</g>
</g>
<!-- Node1&#45;&gt;Node12 -->
<g id="edge11" class="edge">
<title>Node1&#45;&gt;Node12</title>
<path fill="none" stroke="midnightblue" d="M899.18,-229.89C990.13,-206.92 1141.88,-163.24 1262.5,-102 1265.43,-100.51 1268.37,-98.91 1271.31,-97.23"/>
<polygon fill="none" stroke="midnightblue" points="898.06,-226.57 889.21,-232.39 899.76,-233.36 898.06,-226.57"/>
</g>
<!-- Node13 -->
<g id="node13" class="node">
<title>Node13</title>
<g id="a_node13"><a xlink:href="classTempSensor.html" target="_top" xlink:title="Implementation of a Sensor for the onboard temperature sensor.">
<polygon fill="none" stroke="black" points="1412,-6 1412,-96 1507,-96 1507,-6 1412,-6"/>
<text text-anchor="middle" x="1459.5" y="-84" font-family="Helvetica,sans-Serif" font-size="10.00">TempSensor</text>
<polyline fill="none" stroke="black" points="1412,-77 1507,-77 "/>
<text text-anchor="middle" x="1459.5" y="-65" font-family="Helvetica,sans-Serif" font-size="10.00"> </text>
<polyline fill="none" stroke="black" points="1412,-58 1507,-58 "/>
<text text-anchor="start" x="1420" y="-46" font-family="Helvetica,sans-Serif" font-size="10.00">+ TempSensor()</text>
<text text-anchor="start" x="1420" y="-35" font-family="Helvetica,sans-Serif" font-size="10.00">+ TempSensor()</text>
<text text-anchor="start" x="1420" y="-24" font-family="Helvetica,sans-Serif" font-size="10.00">+ verify()</text>
<text text-anchor="start" x="1420" y="-13" font-family="Helvetica,sans-Serif" font-size="10.00">+ readData()</text>
</a>
</g>
</g>
<!-- Node1&#45;&gt;Node13 -->
<g id="edge12" class="edge">
<title>Node1&#45;&gt;Node13</title>
<path fill="none" stroke="midnightblue" d="M899.5,-240.46C1015.94,-226.17 1236.31,-189.18 1402.5,-102 1405.88,-100.23 1409.23,-98.21 1412.5,-96.04"/>
<polygon fill="none" stroke="midnightblue" points="898.76,-237.03 889.25,-241.7 899.59,-243.98 898.76,-237.03"/>
</g>
<!-- Node14 -->
<g id="node14" class="node">
<title>Node14</title>
<g id="a_node14"><a xlink:href="classZOPT220Sensor.html" target="_top" xlink:title="A class to interface with the ZOPT220x UV and ambient light sensor.">
<polygon fill="none" stroke="black" points="1525,-6 1525,-96 1638,-96 1638,-6 1525,-6"/>
<text text-anchor="middle" x="1581.5" y="-84" font-family="Helvetica,sans-Serif" font-size="10.00">ZOPT220Sensor</text>
<polyline fill="none" stroke="black" points="1525,-77 1638,-77 "/>
<text text-anchor="start" x="1533" y="-65" font-family="Helvetica,sans-Serif" font-size="10.00">&#45; zopt</text>
<polyline fill="none" stroke="black" points="1525,-58 1638,-58 "/>
<text text-anchor="start" x="1533" y="-46" font-family="Helvetica,sans-Serif" font-size="10.00">+ ZOPT220Sensor()</text>
<text text-anchor="start" x="1533" y="-35" font-family="Helvetica,sans-Serif" font-size="10.00">+ ZOPT220Sensor()</text>
<text text-anchor="start" x="1533" y="-24" font-family="Helvetica,sans-Serif" font-size="10.00">+ verify()</text>
<text text-anchor="start" x="1533" y="-13" font-family="Helvetica,sans-Serif" font-size="10.00">+ readData()</text>
</a>
</g>
</g>
<!-- Node1&#45;&gt;Node14 -->
<g id="edge13" class="edge">
<title>Node1&#45;&gt;Node14</title>
<path fill="none" stroke="midnightblue" d="M899.37,-243.3C1032.79,-232.12 1307,-198.44 1516.5,-102 1520.25,-100.27 1523.99,-98.3 1527.66,-96.15"/>
<polygon fill="none" stroke="midnightblue" points="898.91,-239.82 889.23,-244.12 899.48,-246.8 898.91,-239.82"/>
</g>
</g>
</svg>
        <g id="navigator" transform="translate(0 0)" fill="#404254">
                <rect fill="#f2f5e9" fill-opacity="0.5" stroke="#606060" stroke-width=".5" x="0" y="0" width="60" height="60"/>
                <use id="zoomplus" xlink:href="#zoomPlus" x="17" y="9" onmousedown="handleZoom(evt,'in')"/>
                <use id="zoomminus" xlink:href="#zoomMin" x="42" y="9" onmousedown="handleZoom(evt,'out')"/>
                <use id="reset" xlink:href="#resetDef" x="30" y="36" onmousedown="handleReset()"/>
                <g id="arrowUp" xlink:href="#dirArrow" transform="translate(30 24)" onmousedown="handlePan(0,-1)">
                  <use xlink:href="#rim" fill="#404040">
                        <set attributeName="fill" to="#808080" begin="arrowUp.mouseover" end="arrowUp.mouseout"/>
                  </use>
                  <path fill="none" stroke="white" stroke-width="1.5" d="M0,-3.0v7 M-2.5,-0.5L0,-3.0L2.5,-0.5"/>
                </g>
                <g id="arrowRight" xlink:href="#dirArrow" transform="rotate(90) translate(36 -43)" onmousedown="handlePan(1,0)">
                  <use xlink:href="#rim" fill="#404040">
                        <set attributeName="fill" to="#808080" begin="arrowRight.mouseover" end="arrowRight.mouseout"/>
                  </use>
                  <path fill="none" stroke="white" stroke-width="1.5" d="M0,-3.0v7 M-2.5,-0.5L0,-3.0L2.5,-0.5"/>
                </g>
                <g id="arrowDown" xlink:href="#dirArrow" transform="rotate(180) translate(-30 -48)" onmousedown="handlePan(0,1)">
                  <use xlink:href="#rim" fill="#404040">
                        <set attributeName="fill" to="#808080" begin="arrowDown.mouseover" end="arrowDown.mouseout"/>
                  </use>
                  <path fill="none" stroke="white" stroke-width="1.5" d="M0,-3.0v7 M-2.5,-0.5L0,-3.0L2.5,-0.5"/>
                </g>
                <g id="arrowLeft" xlink:href="#dirArrow" transform="rotate(270) translate(-36 17)" onmousedown="handlePan(-1,0)">
                  <use xlink:href="#rim" fill="#404040">
                        <set attributeName="fill" to="#808080" begin="arrowLeft.mouseover" end="arrowLeft.mouseout"/>
                  </use>
                  <path fill="none" stroke="white" stroke-width="1.5" d="M0,-3.0v7 M-2.5,-0.5L0,-3.0L2.5,-0.5"/>
                </g>
        </g>
        <svg viewBox="0 0 15 15" width="100%" height="30px" preserveAspectRatio="xMaxYMin meet">
         <g id="arrow_out" transform="scale(0.3 0.3)">
          <a xlink:href="classSensor__inherit__graph_org.svg" target="_base">
           <rect id="button" ry="5" rx="5" y="6" x="6" height="38" width="38"
                fill="#f2f5e9" fill-opacity="0.5" stroke="#606060" stroke-width="1.0"/>
           <path id="arrow"
             d="M 11.500037,31.436501 C 11.940474,20.09759 22.043105,11.32322 32.158766,21.979434 L 37.068811,17.246167 C 37.068811,17.246167 37.088388,32 37.088388,32 L 22.160133,31.978069 C 22.160133,31.978069 26.997745,27.140456 26.997745,27.140456 C 18.528582,18.264221 13.291696,25.230495 11.500037,31.436501 z"
             style="fill:#404040;"/>
          </a>
         </g>
        </svg>
</svg>
