<?xml version="1.0" encoding="UTF-8" standalone="no"?>
<!DOCTYPE svg PUBLIC "-//W3C//DTD SVG 1.1//EN"
 "http://www.w3.org/Graphics/SVG/1.1/DTD/svg11.dtd">
<!-- Generated by graphviz version 2.43.0 (0)
 -->
<!-- Title: SDStorage Pages: 1 -->
<svg width="206pt" height="321pt"
 viewBox="0.00 0.00 205.50 321.00" xmlns="http://www.w3.org/2000/svg" xmlns:xlink="http://www.w3.org/1999/xlink">
<g id="graph0" class="graph" transform="scale(1 1) rotate(0) translate(4 317)">
<title>SDStorage</title>
<!-- Node1 -->
<g id="node1" class="node">
<title>Node1</title>
<g id="a_node1"><a xlink:title="Implementation of a Storage device to interface with an SD card.">
<polygon fill="#bfbfbf" stroke="black" points="2.5,-0.5 2.5,-79.5 88.5,-79.5 88.5,-0.5 2.5,-0.5"/>
<text text-anchor="middle" x="45.5" y="-67.5" font-family="Helvetica,sans-Serif" font-size="10.00">SDStorage</text>
<polyline fill="none" stroke="black" points="2.5,-60.5 88.5,-60.5 "/>
<text text-anchor="middle" x="45.5" y="-48.5" font-family="Helvetica,sans-Serif" font-size="10.00"> </text>
<polyline fill="none" stroke="black" points="2.5,-41.5 88.5,-41.5 "/>
<text text-anchor="start" x="10.5" y="-29.5" font-family="Helvetica,sans-Serif" font-size="10.00">+ SDStorage()</text>
<text text-anchor="start" x="10.5" y="-18.5" font-family="Helvetica,sans-Serif" font-size="10.00">+ verify()</text>
<text text-anchor="start" x="10.5" y="-7.5" font-family="Helvetica,sans-Serif" font-size="10.00">+ store()</text>
</a>
</g>
</g>
<!-- Node2 -->
<g id="node2" class="node">
<title>Node2</title>
<g id="a_node2"><a xlink:href="classStorage.html" target="_top" xlink:title="Parent class for all data storage devices (sd card, radio, etc)">
<polygon fill="none" stroke="black" points="79.5,-117.5 79.5,-207.5 197.5,-207.5 197.5,-117.5 79.5,-117.5"/>
<text text-anchor="middle" x="138.5" y="-195.5" font-family="Helvetica,sans-Serif" font-size="10.00">Storage</text>
<polyline fill="none" stroke="black" points="79.5,-188.5 197.5,-188.5 "/>
<text text-anchor="middle" x="138.5" y="-176.5" font-family="Helvetica,sans-Serif" font-size="10.00"> </text>
<polyline fill="none" stroke="black" points="79.5,-169.5 197.5,-169.5 "/>
<text text-anchor="start" x="87.5" y="-157.5" font-family="Helvetica,sans-Serif" font-size="10.00">+ Storage()</text>
<text text-anchor="start" x="87.5" y="-146.5" font-family="Helvetica,sans-Serif" font-size="10.00">+ getStorageName()</text>
<text text-anchor="start" x="87.5" y="-135.5" font-family="Helvetica,sans-Serif" font-size="10.00">+ verify()</text>
<text text-anchor="start" x="87.5" y="-124.5" font-family="Helvetica,sans-Serif" font-size="10.00">+ store()</text>
</a>
</g>
</g>
<!-- Node2&#45;&gt;Node1 -->
<g id="edge1" class="edge">
<title>Node2&#45;&gt;Node1</title>
<path fill="none" stroke="midnightblue" d="M98.28,-109.39C90.56,-99.39 82.62,-89.09 75.3,-79.61"/>
<polygon fill="none" stroke="midnightblue" points="95.52,-111.54 104.4,-117.31 101.06,-107.26 95.52,-111.54"/>
</g>
<!-- Node3 -->
<g id="node3" class="node">
<title>Node3</title>
<g id="a_node3"><a xlink:title=" ">
<polygon fill="none" stroke="#bfbfbf" points="0,-255.5 0,-312.5 45,-312.5 45,-255.5 0,-255.5"/>
<text text-anchor="middle" x="22.5" y="-300.5" font-family="Helvetica,sans-Serif" font-size="10.00">String</text>
<polyline fill="none" stroke="#bfbfbf" points="0,-293.5 45,-293.5 "/>
<text text-anchor="middle" x="22.5" y="-281.5" font-family="Helvetica,sans-Serif" font-size="10.00"> </text>
<polyline fill="none" stroke="#bfbfbf" points="0,-274.5 45,-274.5 "/>
<text text-anchor="middle" x="22.5" y="-262.5" font-family="Helvetica,sans-Serif" font-size="10.00"> </text>
</a>
</g>
</g>
<!-- Node3&#45;&gt;Node1 -->
<g id="edge3" class="edge">
<title>Node3&#45;&gt;Node1</title>
<path fill="none" stroke="#404040" d="M17.51,-255.4C12.39,-222.23 6.36,-165.03 15.5,-117 17.14,-108.38 19.74,-99.48 22.74,-90.95"/>
<polygon fill="none" stroke="#404040" points="22.79,-90.83 21.16,-83.8 27.03,-79.6 28.65,-86.63 22.79,-90.83"/>
<text text-anchor="middle" x="43" y="-160" font-family="Helvetica,sans-Serif" font-size="10.00"> &#45;file_name</text>
</g>
<!-- Node3&#45;&gt;Node2 -->
<g id="edge2" class="edge">
<title>Node3&#45;&gt;Node2</title>
<path fill="none" stroke="#404040" d="M45.14,-259.68C57.16,-247.3 72.45,-231.55 87.16,-216.39"/>
<polygon fill="none" stroke="#404040" points="87.36,-216.18 88.67,-209.09 95.72,-207.57 94.41,-214.66 87.36,-216.18"/>
<text text-anchor="middle" x="115" y="-229" font-family="Helvetica,sans-Serif" font-size="10.00"> &#45;storage_name</text>
</g>
</g>
</svg>
