<?xml version="1.0" encoding="UTF-8" standalone="no"?>
<!DOCTYPE svg PUBLIC "-//W3C//DTD SVG 1.1//EN"
 "http://www.w3.org/Graphics/SVG/1.1/DTD/svg11.dtd">
<!-- Generated by graphviz version 2.43.0 (0)
 -->
<!-- Title: ZOPT220x_Control::zoptReadRegister Pages: 1 -->
<!--zoomable 469 -->

<svg id="main" version="1.1" xmlns="http://www.w3.org/2000/svg" xmlns:xlink="http://www.w3.org/1999/xlink" xml:space="preserve" onload="init(evt)">
<style type="text/css"><![CDATA[
.node, .edge {opacity: 0.7;}
.node.selected, .edge.selected {opacity: 1;}
.edge:hover path { stroke: red; }
.edge:hover polygon { stroke: red; fill: red; }
]]></style>

<defs>
  <circle id="rim" cx="0" cy="0" r="7"/>
  <circle id="rim2" cx="0" cy="0" r="3.5"/>
  <g id="zoomPlus">
    <use xlink:href="#rim" fill="#404040"><set attributeName="fill" to="#808080" begin="zoomplus.mouseover" end="zoomplus.mouseout"/></use>
    <path d="M-4,0h8M0,-4v8" fill="none" stroke="white" stroke-width="1.5" pointer-events="none"/>
  </g>
  <g id="zoomMin">
    <use xlink:href="#rim" fill="#404040"><set attributeName="fill" to="#808080" begin="zoomminus.mouseover" end="zoomminus.mouseout"/></use>
    <path d="M-4,0h8" fill="none" stroke="white" stroke-width="1.5" pointer-events="none"/>
  </g>
  <g id="arrowUp" transform="translate(30 24)">
    <use xlink:href="#rim"/>
    <path pointer-events="none" fill="none" stroke="white" stroke-width="1.5" d="M0,-3.0v7 M-2.5,-0.5L0,-3.0L2.5,-0.5"/>
  </g>
  <g id="arrowRight" transform="rotate(90) translate(36 -43)">
    <use xlink:href="#rim"/>
    <path pointer-events="none" fill="none" stroke="white" stroke-width="1.5" d="M0,-3.0v7 M-2.5,-0.5L0,-3.0L2.5,-0.5"/>
  </g>
  <g id="arrowDown" transform="rotate(180) translate(-30 -48)">
    <use xlink:href="#rim"/>
    <path pointer-events="none" fill="none" stroke="white" stroke-width="1.5" d="M0,-3.0v7 M-2.5,-0.5L0,-3.0L2.5,-0.5"/>
  </g>
  <g id="arrowLeft" transform="rotate(270) translate(-36 17)">
    <use xlink:href="#rim"/>
    <path pointer-events="none" fill="none" stroke="white" stroke-width="1.5" d="M0,-3.0v7 M-2.5,-0.5L0,-3.0L2.5,-0.5"/>
  </g>
  <g id="resetDef">
    <use xlink:href="#rim2" fill="#404040"><set attributeName="fill" to="#808080" begin="reset.mouseover" end="reset.mouseout"/></use>
  </g>
</defs>
<script type="application/ecmascript">
var viewWidth = 985;
var viewHeight = 469;
var sectionId = 'dynsection-36';
</script>
<script type="application/ecmascript" xlink:href="svg.min.js"/>
<svg id="graph" class="graph">
<g id="viewport">
<title>ZOPT220x_Control::zoptReadRegister</title>
<!-- Node1 -->
<g id="Node000001" class="node">
<title>Node1</title>
<g id="a_Node000001"><a xlink:title=" ">
<polygon fill="#999999" stroke="#666666" points="977,-250.5 818,-250.5 818,-220.5 977,-220.5 977,-250.5"/>
<text text-anchor="start" x="826" y="-238.5" font-family="Helvetica,sans-Serif" font-size="10.00">ZOPT220x_Control::zoptRead</text>
<text text-anchor="middle" x="897.5" y="-227.5" font-family="Helvetica,sans-Serif" font-size="10.00">Register</text>
</a>
</g>
</g>
<!-- Node2 -->
<g id="Node000002" class="node">
<title>Node2</title>
<g id="a_Node000002"><a xlink:href="classZOPT220x__Control.html#a8eb237d4b6eb8513893d99d3163fc094" target="_top" xlink:title=" ">
<polygon fill="white" stroke="#666666" points="759,-423.5 587,-423.5 587,-393.5 759,-393.5 759,-423.5"/>
<text text-anchor="start" x="595" y="-411.5" font-family="Helvetica,sans-Serif" font-size="10.00">ZOPT220x_Control::checkPower</text>
<text text-anchor="middle" x="673" y="-400.5" font-family="Helvetica,sans-Serif" font-size="10.00">OnStatus</text>
</a>
</g>
</g>
<!-- Node1&#45;&gt;Node2 -->
<g id="edge1_Node000001_Node000002" class="edge">
<title>Node1&#45;&gt;Node2</title>
<g id="a_edge1_Node000001_Node000002"><a xlink:title=" ">
<path fill="none" stroke="#63b8ff" d="M884.84,-259.66C867.36,-293.19 831.09,-353.24 782,-384.5 774.95,-388.99 767.18,-392.64 759.14,-395.62"/>
<polygon fill="#63b8ff" stroke="#63b8ff" points="888.06,-261.06 889.47,-250.56 881.82,-257.89 888.06,-261.06"/>
</a>
</g>
</g>
<!-- Node3 -->
<g id="Node000003" class="node">
<title>Node3</title>
<g id="a_Node000003"><a xlink:href="classZOPT220x__Control.html#adc20ce356a572b8039ba96b9160e97c4" target="_top" xlink:title=" ">
<polygon fill="white" stroke="#666666" points="522,-423.5 364,-423.5 364,-393.5 522,-393.5 522,-423.5"/>
<text text-anchor="start" x="372" y="-411.5" font-family="Helvetica,sans-Serif" font-size="10.00">ZOPT220x_Control::zopt220x</text>
<text text-anchor="middle" x="443" y="-400.5" font-family="Helvetica,sans-Serif" font-size="10.00">SetupWithAddress</text>
</a>
</g>
</g>
<!-- Node1&#45;&gt;Node3 -->
<g id="edge29_Node000001_Node000003" class="edge">
<title>Node1&#45;&gt;Node3</title>
<g id="a_edge29_Node000001_Node000003"><a xlink:title=" ">
<path fill="none" stroke="#63b8ff" d="M890.55,-260.66C878.61,-304.8 847.09,-395.04 782,-432.5 685.12,-488.25 545.86,-448.02 480.5,-423.58"/>
<polygon fill="#63b8ff" stroke="#63b8ff" points="894,-261.3 893.12,-250.74 887.23,-259.55 894,-261.3"/>
</a>
</g>
</g>
<!-- Node6 -->
<g id="Node000006" class="node">
<title>Node6</title>
<g id="a_Node000006"><a xlink:href="classZOPT220x__Control.html#af74c3620eaaa1ba7413ebd8417eee271" target="_top" xlink:title=" ">
<polygon fill="white" stroke="#666666" points="763,-264 583,-264 583,-245 763,-245 763,-264"/>
<text text-anchor="middle" x="673" y="-252" font-family="Helvetica,sans-Serif" font-size="10.00">ZOPT220x_Control::dataAvailable</text>
</a>
</g>
</g>
<!-- Node1&#45;&gt;Node6 -->
<g id="edge5_Node000001_Node000006" class="edge">
<title>Node1&#45;&gt;Node6</title>
<g id="a_edge5_Node000001_Node000006"><a xlink:title=" ">
<path fill="none" stroke="#63b8ff" d="M807.71,-243.08C793.09,-244.33 777.92,-245.63 763.28,-246.88"/>
<polygon fill="#63b8ff" stroke="#63b8ff" points="808.08,-246.56 817.74,-242.23 807.48,-239.59 808.08,-246.56"/>
</a>
</g>
</g>
<!-- Node9 -->
<g id="Node000009" class="node">
<title>Node9</title>
<g id="a_Node000009"><a xlink:href="classZOPT220x__Control.html#a1f67c4ca2c2c8f160ea8f790fb433602" target="_top" xlink:title=" ">
<polygon fill="white" stroke="#666666" points="747.5,-189.5 598.5,-189.5 598.5,-159.5 747.5,-159.5 747.5,-189.5"/>
<text text-anchor="start" x="606.5" y="-177.5" font-family="Helvetica,sans-Serif" font-size="10.00">ZOPT220x_Control::disable</text>
<text text-anchor="middle" x="673" y="-166.5" font-family="Helvetica,sans-Serif" font-size="10.00">Sensor</text>
</a>
</g>
</g>
<!-- Node1&#45;&gt;Node9 -->
<g id="edge9_Node000001_Node000009" class="edge">
<title>Node1&#45;&gt;Node9</title>
<g id="a_edge9_Node000001_Node000009"><a xlink:title=" ">
<path fill="none" stroke="#63b8ff" d="M843.76,-217.31C824.45,-210.96 802.35,-204.04 782,-198.5 770.42,-195.35 758.05,-192.31 745.98,-189.51"/>
<polygon fill="#63b8ff" stroke="#63b8ff" points="842.7,-220.65 853.29,-220.48 844.9,-214 842.7,-220.65"/>
</a>
</g>
</g>
<!-- Node10 -->
<g id="Node000010" class="node">
<title>Node10</title>
<g id="a_Node000010"><a xlink:href="classZOPT220x__Control.html#a6878d8f2dbff54f6e2f9203df20b9927" target="_top" xlink:title=" ">
<polygon fill="white" stroke="#666666" points="746,-141.5 600,-141.5 600,-111.5 746,-111.5 746,-141.5"/>
<text text-anchor="start" x="608" y="-129.5" font-family="Helvetica,sans-Serif" font-size="10.00">ZOPT220x_Control::enable</text>
<text text-anchor="middle" x="673" y="-118.5" font-family="Helvetica,sans-Serif" font-size="10.00">Sensor</text>
</a>
</g>
</g>
<!-- Node1&#45;&gt;Node10 -->
<g id="edge10_Node000001_Node000010" class="edge">
<title>Node1&#45;&gt;Node10</title>
<g id="a_edge10_Node000001_Node000010"><a xlink:title=" ">
<path fill="none" stroke="#63b8ff" d="M873.38,-213.68C851.5,-194.23 816.9,-166.45 782,-150.5 770.82,-145.39 758.48,-141.34 746.26,-138.13"/>
<polygon fill="#63b8ff" stroke="#63b8ff" points="871.08,-216.32 880.84,-220.43 875.78,-211.13 871.08,-216.32"/>
</a>
</g>
</g>
<!-- Node11 -->
<g id="Node000011" class="node">
<title>Node11</title>
<g id="a_Node000011"><a xlink:href="classZOPT220x__Control.html#afa9fab0ef429c9e7a46afd752a2ee44d" target="_top" xlink:title=" ">
<polygon fill="white" stroke="#666666" points="748.5,-338 597.5,-338 597.5,-319 748.5,-319 748.5,-338"/>
<text text-anchor="middle" x="673" y="-326" font-family="Helvetica,sans-Serif" font-size="10.00">ZOPT220x_Control::setGain</text>
</a>
</g>
</g>
<!-- Node1&#45;&gt;Node11 -->
<g id="edge11_Node000001_Node000011" class="edge">
<title>Node1&#45;&gt;Node11</title>
<g id="a_edge11_Node000001_Node000011"><a xlink:title=" ">
<path fill="none" stroke="#63b8ff" d="M870.88,-256.8C848.74,-274.05 815.17,-297.54 782,-310.5 771.47,-314.62 759.99,-317.79 748.59,-320.24"/>
<polygon fill="#63b8ff" stroke="#63b8ff" points="873.12,-259.49 878.78,-250.53 868.77,-254.01 873.12,-259.49"/>
</a>
</g>
</g>
<!-- Node12 -->
<g id="Node000012" class="node">
<title>Node12</title>
<g id="a_Node000012"><a xlink:href="classZOPT220x__Control.html#a7bd39622c1375fed8d64c885aad5ae2d" target="_top" xlink:title=" ">
<polygon fill="white" stroke="#666666" points="759.5,-93 586.5,-93 586.5,-74 759.5,-74 759.5,-93"/>
<text text-anchor="middle" x="673" y="-81" font-family="Helvetica,sans-Serif" font-size="10.00">ZOPT220x_Control::setI2CAdr52</text>
</a>
</g>
</g>
<!-- Node1&#45;&gt;Node12 -->
<g id="edge14_Node000001_Node000012" class="edge">
<title>Node1&#45;&gt;Node12</title>
<g id="a_edge14_Node000001_Node000012"><a xlink:title=" ">
<path fill="none" stroke="#63b8ff" d="M882.97,-211.37C864.42,-180.73 828.08,-128.71 782,-102.5 775.05,-98.55 767.47,-95.38 759.66,-92.85"/>
<polygon fill="#63b8ff" stroke="#63b8ff" points="880.05,-213.31 888.14,-220.14 886.07,-209.75 880.05,-213.31"/>
</a>
</g>
</g>
<!-- Node13 -->
<g id="Node000013" class="node">
<title>Node13</title>
<g id="a_Node000013"><a xlink:href="classZOPT220x__Control.html#ae2ff7f5af470f4f235e7725c4c35ca64" target="_top" xlink:title=" ">
<polygon fill="white" stroke="#666666" points="759.5,-56 586.5,-56 586.5,-37 759.5,-37 759.5,-56"/>
<text text-anchor="middle" x="673" y="-44" font-family="Helvetica,sans-Serif" font-size="10.00">ZOPT220x_Control::setI2CAdr53</text>
</a>
</g>
</g>
<!-- Node1&#45;&gt;Node13 -->
<g id="edge15_Node000001_Node000013" class="edge">
<title>Node1&#45;&gt;Node13</title>
<g id="a_edge15_Node000001_Node000013"><a xlink:title=" ">
<path fill="none" stroke="#63b8ff" d="M887.55,-211.02C872.24,-172.93 837.26,-100.15 782,-64.5 775.13,-60.07 767.52,-56.62 759.62,-53.94"/>
<polygon fill="#63b8ff" stroke="#63b8ff" points="884.29,-212.3 891.18,-220.35 890.81,-209.76 884.29,-212.3"/>
</a>
</g>
</g>
<!-- Node14 -->
<g id="Node000014" class="node">
<title>Node14</title>
<g id="a_Node000014"><a xlink:href="classZOPT220x__Control.html#a809d1f5db2a9f0884fa82e0b77b944bf" target="_top" xlink:title=" ">
<polygon fill="white" stroke="#666666" points="782,-375 564,-375 564,-356 782,-356 782,-375"/>
<text text-anchor="middle" x="673" y="-363" font-family="Helvetica,sans-Serif" font-size="10.00">ZOPT220x_Control::setMeasurementRate</text>
</a>
</g>
</g>
<!-- Node1&#45;&gt;Node14 -->
<g id="edge16_Node000001_Node000014" class="edge">
<title>Node1&#45;&gt;Node14</title>
<g id="a_edge16_Node000001_Node000014"><a xlink:title=" ">
<path fill="none" stroke="#63b8ff" d="M879.66,-259.02C859.56,-285.17 823.43,-326.47 782,-347.5 775.3,-350.9 768.1,-353.68 760.71,-355.95"/>
<polygon fill="#63b8ff" stroke="#63b8ff" points="882.64,-260.89 885.84,-250.79 877.04,-256.68 882.64,-260.89"/>
</a>
</g>
</g>
<!-- Node15 -->
<g id="Node000015" class="node">
<title>Node15</title>
<g id="a_Node000015"><a xlink:href="classZOPT220x__Control.html#a70fedf9d112bc34ef55e21452acd3877" target="_top" xlink:title=" ">
<polygon fill="white" stroke="#666666" points="750.5,-227 595.5,-227 595.5,-208 750.5,-208 750.5,-227"/>
<text text-anchor="middle" x="673" y="-215" font-family="Helvetica,sans-Serif" font-size="10.00">ZOPT220x_Control::setMode</text>
</a>
</g>
</g>
<!-- Node1&#45;&gt;Node15 -->
<g id="edge18_Node000001_Node000015" class="edge">
<title>Node1&#45;&gt;Node15</title>
<g id="a_edge18_Node000001_Node000015"><a xlink:title=" ">
<path fill="none" stroke="#63b8ff" d="M807.69,-228.32C788.85,-226.79 769.12,-225.2 750.78,-223.71"/>
<polygon fill="#63b8ff" stroke="#63b8ff" points="807.49,-231.81 817.74,-229.13 808.06,-224.83 807.49,-231.81"/>
</a>
</g>
</g>
<!-- Node20 -->
<g id="Node000020" class="node">
<title>Node20</title>
<g id="a_Node000020"><a xlink:href="classZOPT220x__Control.html#aa8d79db36ab65e003f87a493f720233d" target="_top" xlink:title=" ">
<polygon fill="white" stroke="#666666" points="763,-301 583,-301 583,-282 763,-282 763,-301"/>
<text text-anchor="middle" x="673" y="-289" font-family="Helvetica,sans-Serif" font-size="10.00">ZOPT220x_Control::setResolution</text>
</a>
</g>
</g>
<!-- Node1&#45;&gt;Node20 -->
<g id="edge25_Node000001_Node000020" class="edge">
<title>Node1&#45;&gt;Node20</title>
<g id="a_edge25_Node000001_Node000020"><a xlink:title=" ">
<path fill="none" stroke="#63b8ff" d="M845.12,-253.78C825.53,-260.3 802.9,-267.31 782,-272.5 767.5,-276.1 751.73,-279.28 736.84,-281.96"/>
<polygon fill="#63b8ff" stroke="#63b8ff" points="846.4,-257.04 854.76,-250.53 844.16,-250.41 846.4,-257.04"/>
</a>
</g>
</g>
<!-- Node21 -->
<g id="Node000021" class="node">
<title>Node21</title>
<g id="a_Node000021"><a xlink:href="classZOPT220x__Control.html#adf29f97ec2609d414b33101264158486" target="_top" xlink:title=" ">
<polygon fill="white" stroke="#666666" points="752.5,-19 593.5,-19 593.5,0 752.5,0 752.5,-19"/>
<text text-anchor="middle" x="673" y="-7" font-family="Helvetica,sans-Serif" font-size="10.00">ZOPT220x_Control::softReset</text>
</a>
</g>
</g>
<!-- Node1&#45;&gt;Node21 -->
<g id="edge28_Node000001_Node000021" class="edge">
<title>Node1&#45;&gt;Node21</title>
<g id="a_edge28_Node000001_Node000021"><a xlink:title=" ">
<path fill="none" stroke="#63b8ff" d="M890.47,-210.68C878.26,-166.11 846.15,-72.94 782,-27.5 773.24,-21.29 763.08,-16.95 752.57,-13.95"/>
<polygon fill="#63b8ff" stroke="#63b8ff" points="887.1,-211.63 893.03,-220.41 893.87,-209.85 887.1,-211.63"/>
</a>
</g>
</g>
<!-- Node2&#45;&gt;Node3 -->
<g id="edge2_Node000002_Node000003" class="edge">
<title>Node2&#45;&gt;Node3</title>
<g id="a_edge2_Node000002_Node000003"><a xlink:title=" ">
<path fill="none" stroke="#63b8ff" d="M576.53,-408.5C558.48,-408.5 539.79,-408.5 522.34,-408.5"/>
<polygon fill="#63b8ff" stroke="#63b8ff" points="576.78,-412 586.78,-408.5 576.78,-405 576.78,-412"/>
</a>
</g>
</g>
<!-- Node4 -->
<g id="Node000004" class="node">
<title>Node4</title>
<g id="a_Node000004"><a xlink:href="classZOPT220x__Control.html#aab772e9154760b2ddbee82953532f08e" target="_top" xlink:title=" ">
<polygon fill="white" stroke="#666666" points="322,-423.5 164,-423.5 164,-393.5 322,-393.5 322,-423.5"/>
<text text-anchor="start" x="172" y="-411.5" font-family="Helvetica,sans-Serif" font-size="10.00">ZOPT220x_Control::zopt220x</text>
<text text-anchor="middle" x="243" y="-400.5" font-family="Helvetica,sans-Serif" font-size="10.00">Setup</text>
</a>
</g>
</g>
<!-- Node3&#45;&gt;Node4 -->
<g id="edge3_Node000003_Node000004" class="edge">
<title>Node3&#45;&gt;Node4</title>
<g id="a_edge3_Node000003_Node000004"><a xlink:title=" ">
<path fill="none" stroke="#63b8ff" d="M353.69,-408.5C343.13,-408.5 332.41,-408.5 322.01,-408.5"/>
<polygon fill="#63b8ff" stroke="#63b8ff" points="353.75,-412 363.75,-408.5 353.75,-405 353.75,-412"/>
</a>
</g>
</g>
<!-- Node5 -->
<g id="Node000005" class="node">
<title>Node5</title>
<g id="a_Node000005"><a xlink:href="classZOPT220Sensor.html#a5fab507a3cadaab6d6026c3fea36d0e6" target="_top" xlink:title="Verifies the connection to the ZOPT220x sensor.">
<polygon fill="white" stroke="#666666" points="128,-418 0,-418 0,-399 128,-399 128,-418"/>
<text text-anchor="middle" x="64" y="-406" font-family="Helvetica,sans-Serif" font-size="10.00">ZOPT220Sensor::verify</text>
</a>
</g>
</g>
<!-- Node4&#45;&gt;Node5 -->
<g id="edge4_Node000004_Node000005" class="edge">
<title>Node4&#45;&gt;Node5</title>
<g id="a_edge4_Node000004_Node000005"><a xlink:title=" ">
<path fill="none" stroke="#63b8ff" d="M153.73,-408.5C145.09,-408.5 136.45,-408.5 128.13,-408.5"/>
<polygon fill="#63b8ff" stroke="#63b8ff" points="153.85,-412 163.85,-408.5 153.85,-405 153.85,-412"/>
</a>
</g>
</g>
<!-- Node7 -->
<g id="Node000007" class="node">
<title>Node7</title>
<g id="a_Node000007"><a xlink:href="classZOPT220x__Control.html#a1233f73c507efe1393d84b9d88b4a023" target="_top" xlink:title=" ">
<polygon fill="white" stroke="#666666" points="528,-261 358,-261 358,-242 528,-242 528,-261"/>
<text text-anchor="middle" x="443" y="-249" font-family="Helvetica,sans-Serif" font-size="10.00">ZOPT220x_Control::getUVIndex</text>
</a>
</g>
</g>
<!-- Node6&#45;&gt;Node7 -->
<g id="edge6_Node000006_Node000007" class="edge">
<title>Node6&#45;&gt;Node7</title>
<g id="a_edge6_Node000006_Node000007"><a xlink:title=" ">
<path fill="none" stroke="#63b8ff" d="M572.67,-253.19C557.85,-253 542.69,-252.8 528.22,-252.61"/>
<polygon fill="#63b8ff" stroke="#63b8ff" points="572.82,-256.7 582.87,-253.33 572.92,-249.7 572.82,-256.7"/>
</a>
</g>
</g>
<!-- Node8 -->
<g id="Node000008" class="node">
<title>Node8</title>
<g id="a_Node000008"><a xlink:href="classZOPT220Sensor.html#a6aeb56062c5ff976d199ae407df9ed6c" target="_top" xlink:title="Reads data from the ZOPT220x sensor and returns it in CSV format.">
<polygon fill="white" stroke="#666666" points="315.5,-280 170.5,-280 170.5,-261 315.5,-261 315.5,-280"/>
<text text-anchor="middle" x="243" y="-268" font-family="Helvetica,sans-Serif" font-size="10.00">ZOPT220Sensor::readData</text>
</a>
</g>
</g>
<!-- Node6&#45;&gt;Node8 -->
<g id="edge8_Node000006_Node000008" class="edge">
<title>Node6&#45;&gt;Node8</title>
<g id="a_edge8_Node000006_Node000008"><a xlink:title=" ">
<path fill="none" stroke="#63b8ff" d="M584.2,-265.06C565.67,-266.89 546.21,-268.52 528,-269.5 455.75,-273.38 373.01,-273.14 315.55,-272.23"/>
<polygon fill="#63b8ff" stroke="#63b8ff" points="584.8,-268.52 594.39,-264.03 584.09,-261.55 584.8,-268.52"/>
</a>
</g>
</g>
<!-- Node7&#45;&gt;Node8 -->
<g id="edge7_Node000007_Node000008" class="edge">
<title>Node7&#45;&gt;Node8</title>
<g id="a_edge7_Node000007_Node000008"><a xlink:title=" ">
<path fill="none" stroke="#63b8ff" d="M347.52,-260.57C336.81,-261.59 326.04,-262.63 315.69,-263.62"/>
<polygon fill="#63b8ff" stroke="#63b8ff" points="348.12,-264.02 357.74,-259.59 347.45,-257.06 348.12,-264.02"/>
</a>
</g>
</g>
<!-- Node11&#45;&gt;Node3 -->
<g id="edge13_Node000011_Node000003" class="edge">
<title>Node11&#45;&gt;Node3</title>
<g id="a_edge13_Node000011_Node000003"><a xlink:title=" ">
<path fill="none" stroke="#63b8ff" d="M587.7,-338.59C579.49,-340.97 571.45,-343.9 564,-347.5 544.73,-356.82 546.48,-368.69 528,-379.5 518.68,-384.96 508.18,-389.6 497.83,-393.46"/>
<polygon fill="#63b8ff" stroke="#63b8ff" points="588.6,-341.97 597.39,-336.05 586.83,-335.2 588.6,-341.97"/>
</a>
</g>
</g>
<!-- Node11&#45;&gt;Node8 -->
<g id="edge12_Node000011_Node000008" class="edge">
<title>Node11&#45;&gt;Node8</title>
<g id="a_edge12_Node000011_Node000008"><a xlink:title=" ">
<path fill="none" stroke="#63b8ff" d="M586.89,-325.85C523.4,-322.81 434.75,-316.32 358,-302.5 328.26,-297.15 295.09,-287.39 272.23,-280.05"/>
<polygon fill="#63b8ff" stroke="#63b8ff" points="587.1,-329.36 597.25,-326.32 587.42,-322.37 587.1,-329.36"/>
</a>
</g>
</g>
<!-- Node14&#45;&gt;Node3 -->
<g id="edge17_Node000014_Node000003" class="edge">
<title>Node14&#45;&gt;Node3</title>
<g id="a_edge17_Node000014_Node000003"><a xlink:title=" ">
<path fill="none" stroke="#63b8ff" d="M606.41,-376.79C592.4,-379.27 577.7,-381.93 564,-384.5 549.07,-387.31 533.12,-390.42 517.88,-393.44"/>
<polygon fill="#63b8ff" stroke="#63b8ff" points="607.22,-380.2 616.46,-375.02 606,-373.31 607.22,-380.2"/>
</a>
</g>
</g>
<!-- Node16 -->
<g id="Node000016" class="node">
<title>Node16</title>
<g id="a_Node000016"><a xlink:href="classZOPT220x__Control.html#a27c0821f9341f36d87c9388ce7bf4ee5" target="_top" xlink:title=" ">
<polygon fill="white" stroke="#666666" points="516,-223.5 370,-223.5 370,-193.5 516,-193.5 516,-223.5"/>
<text text-anchor="start" x="378" y="-211.5" font-family="Helvetica,sans-Serif" font-size="10.00">ZOPT220x_Control::enable</text>
<text text-anchor="middle" x="443" y="-200.5" font-family="Helvetica,sans-Serif" font-size="10.00">ALSSensing</text>
</a>
</g>
</g>
<!-- Node15&#45;&gt;Node16 -->
<g id="edge19_Node000015_Node000016" class="edge">
<title>Node15&#45;&gt;Node16</title>
<g id="a_edge19_Node000015_Node000016"><a xlink:title=" ">
<path fill="none" stroke="#63b8ff" d="M585.41,-214.08C562.55,-213.18 538.12,-212.22 516.11,-211.35"/>
<polygon fill="#63b8ff" stroke="#63b8ff" points="585.31,-217.58 595.45,-214.48 585.59,-210.59 585.31,-217.58"/>
</a>
</g>
</g>
<!-- Node17 -->
<g id="Node000017" class="node">
<title>Node17</title>
<g id="a_Node000017"><a xlink:href="classZOPT220x__Control.html#a0d055b74457d1c10173897918d5610ab" target="_top" xlink:title=" ">
<polygon fill="white" stroke="#666666" points="516,-89.5 370,-89.5 370,-59.5 516,-59.5 516,-89.5"/>
<text text-anchor="start" x="378" y="-77.5" font-family="Helvetica,sans-Serif" font-size="10.00">ZOPT220x_Control::enable</text>
<text text-anchor="middle" x="443" y="-66.5" font-family="Helvetica,sans-Serif" font-size="10.00">RawSensing</text>
</a>
</g>
</g>
<!-- Node15&#45;&gt;Node17 -->
<g id="edge21_Node000015_Node000017" class="edge">
<title>Node15&#45;&gt;Node17</title>
<g id="a_edge21_Node000015_Node000017"><a xlink:title=" ">
<path fill="none" stroke="#63b8ff" d="M585.96,-211.21C577.99,-208.1 570.49,-203.96 564,-198.5 527.86,-168.08 562.51,-130.76 528,-98.5 524.34,-95.08 520.23,-92.15 515.85,-89.63"/>
<polygon fill="#63b8ff" stroke="#63b8ff" points="584.9,-214.54 595.49,-214.4 587.12,-207.91 584.9,-214.54"/>
</a>
</g>
</g>
<!-- Node18 -->
<g id="Node000018" class="node">
<title>Node18</title>
<g id="a_Node000018"><a xlink:href="classZOPT220x__Control.html#a1172703928cf494b466ea2c3595bbbba" target="_top" xlink:title=" ">
<polygon fill="white" stroke="#666666" points="516,-175.5 370,-175.5 370,-145.5 516,-145.5 516,-175.5"/>
<text text-anchor="start" x="378" y="-163.5" font-family="Helvetica,sans-Serif" font-size="10.00">ZOPT220x_Control::enable</text>
<text text-anchor="middle" x="443" y="-152.5" font-family="Helvetica,sans-Serif" font-size="10.00">UVBSensing</text>
</a>
</g>
</g>
<!-- Node15&#45;&gt;Node18 -->
<g id="edge22_Node000015_Node000018" class="edge">
<title>Node15&#45;&gt;Node18</title>
<g id="a_edge22_Node000015_Node000018"><a xlink:title=" ">
<path fill="none" stroke="#63b8ff" d="M595.98,-206.07C585.17,-203.88 574.25,-201.36 564,-198.5 547.47,-193.88 544.27,-189.98 528,-184.5 518.8,-181.4 508.95,-178.36 499.35,-175.53"/>
<polygon fill="#63b8ff" stroke="#63b8ff" points="595.37,-209.52 605.86,-207.99 596.71,-202.65 595.37,-209.52"/>
</a>
</g>
</g>
<!-- Node19 -->
<g id="Node000019" class="node">
<title>Node19</title>
<g id="a_Node000019"><a xlink:href="classZOPT220x__Control.html#ac427197b44897ed82f77069e2e88270a" target="_top" xlink:title=" ">
<polygon fill="white" stroke="#666666" points="519,-127 367,-127 367,-108 519,-108 519,-127"/>
<text text-anchor="middle" x="443" y="-115" font-family="Helvetica,sans-Serif" font-size="10.00">ZOPT220x_Control::standby</text>
</a>
</g>
</g>
<!-- Node15&#45;&gt;Node19 -->
<g id="edge24_Node000015_Node000019" class="edge">
<title>Node15&#45;&gt;Node19</title>
<g id="a_edge24_Node000015_Node000019"><a xlink:title=" ">
<path fill="none" stroke="#63b8ff" d="M585.87,-209.59C578.1,-206.78 570.66,-203.15 564,-198.5 537.87,-180.26 553.68,-155.36 528,-136.5 522.82,-132.69 517.01,-129.63 510.93,-127.17"/>
<polygon fill="#63b8ff" stroke="#63b8ff" points="584.9,-212.96 595.49,-212.64 587.01,-206.28 584.9,-212.96"/>
</a>
</g>
</g>
<!-- Node16&#45;&gt;Node8 -->
<g id="edge20_Node000016_Node000008" class="edge">
<title>Node16&#45;&gt;Node8</title>
<g id="a_edge20_Node000016_Node000008"><a xlink:title=" ">
<path fill="none" stroke="#63b8ff" d="M378.17,-226.42C371.35,-228.43 364.52,-230.48 358,-232.5 328.3,-241.69 294.56,-253.05 271.53,-260.95"/>
<polygon fill="#63b8ff" stroke="#63b8ff" points="379.5,-229.68 388.12,-223.52 377.54,-222.96 379.5,-229.68"/>
</a>
</g>
</g>
<!-- Node18&#45;&gt;Node8 -->
<g id="edge23_Node000018_Node000008" class="edge">
<title>Node18&#45;&gt;Node8</title>
<g id="a_edge23_Node000018_Node000008"><a xlink:title=" ">
<path fill="none" stroke="#63b8ff" d="M369.89,-179.17C365.81,-180.82 361.82,-182.6 358,-184.5 315.62,-205.62 273.02,-243.1 254.12,-260.77"/>
<polygon fill="#63b8ff" stroke="#63b8ff" points="371.42,-182.34 379.55,-175.54 368.95,-175.79 371.42,-182.34"/>
</a>
</g>
</g>
<!-- Node20&#45;&gt;Node3 -->
<g id="edge27_Node000020_Node000003" class="edge">
<title>Node20&#45;&gt;Node3</title>
<g id="a_edge27_Node000020_Node000003"><a xlink:title=" ">
<path fill="none" stroke="#63b8ff" d="M580.41,-303.98C574.75,-305.86 569.24,-308.02 564,-310.5 544.92,-319.54 544.26,-328.03 528,-341.5 506.17,-359.59 480.65,-379.82 463.52,-393.27"/>
<polygon fill="#63b8ff" stroke="#63b8ff" points="581.47,-307.31 590.04,-301.07 579.45,-300.61 581.47,-307.31"/>
</a>
</g>
</g>
<!-- Node20&#45;&gt;Node8 -->
<g id="edge26_Node000020_Node000008" class="edge">
<title>Node20&#45;&gt;Node8</title>
<g id="a_edge26_Node000020_Node000008"><a xlink:title=" ">
<path fill="none" stroke="#63b8ff" d="M572.74,-292.43C510.89,-292.32 429.72,-290.89 358,-285.5 341.28,-284.24 323.26,-282.2 306.59,-280.01"/>
<polygon fill="#63b8ff" stroke="#63b8ff" points="572.88,-295.93 582.89,-292.44 572.89,-288.93 572.88,-295.93"/>
</a>
</g>
</g>
</g>
</svg>

<g id="navigator" transform="translate(0 0)" fill="#404254">
  <rect fill="#f2f5e9" fill-opacity="0.5" stroke="#606060" stroke-width=".5" x="0" y="0" width="60" height="60"/>
  <use id="zoomplus" xlink:href="#zoomPlus" x="17" y="9" onmousedown="handleZoom(evt,'in')"/>
  <use id="zoomminus" xlink:href="#zoomMin" x="42" y="9" onmousedown="handleZoom(evt,'out')"/>
  <use id="reset" xlink:href="#resetDef" x="30" y="36" onmousedown="handleReset()"/>
   <use id="arrowup" xlink:href="#arrowUp" x="0" y="0" onmousedown="handlePan(0,-1)"/>
  <use id="arrowright" xlink:href="#arrowRight" x="0" y="0" onmousedown="handlePan(1,0)"/>
  <use id="arrowdown" xlink:href="#arrowDown" x="0" y="0" onmousedown="handlePan(0,1)"/>
  <use id="arrowleft" xlink:href="#arrowLeft" x="0" y="0" onmousedown="handlePan(-1,0)"/>
</g>
<svg viewBox="0 0 15 15" width="100%" height="30px" preserveAspectRatio="xMaxYMin meet">
 <g id="arrow_out" transform="scale(0.3 0.3)">
  <a xlink:href="classZOPT220x__Control_a58c74577acc1183a66b1f9b9281551a3_icgraph_org.svg" target="_base">
   <rect id="button" ry="5" rx="5" y="6" x="6" height="38" width="38"
        fill="#f2f5e9" fill-opacity="0.5" stroke="#606060" stroke-width="1.0"/>
   <path id="arrow"
     d="M 11.500037,31.436501 C 11.940474,20.09759 22.043105,11.32322 32.158766,21.979434 L 37.068811,17.246167 C 37.068811,17.246167 37.088388,32 37.088388,32 L 22.160133,31.978069 C 22.160133,31.978069 26.997745,27.140456 26.997745,27.140456 C 18.528582,18.264221 13.291696,25.230495 11.500037,31.436501 z"
     style="fill:#404040;"/>
  </a>
 </g>
</svg>

<style type='text/css'>
<![CDATA[
[data-mouse-over-selected='false'] { opacity: 0.7; }
[data-mouse-over-selected='true']  { opacity: 1.0; }
]]>
</style>
<script type="application/ecmascript"><![CDATA[
document.addEventListener('DOMContentLoaded', (event) => {
  highlightEdges();
  highlightAdjacentNodes();
});
]]></script>
</svg>
