<?xml version="1.0" encoding="UTF-8" standalone="no"?>
<!DOCTYPE svg PUBLIC "-//W3C//DTD SVG 1.1//EN"
 "http://www.w3.org/Graphics/SVG/1.1/DTD/svg11.dtd">
<!-- Generated by graphviz version 2.43.0 (0)
 -->
<!-- Title: ZOPT220x_Control::softReset Pages: 1 -->
<svg width="364pt" height="86pt"
 viewBox="0.00 0.00 364.00 86.00" xmlns="http://www.w3.org/2000/svg" xmlns:xlink="http://www.w3.org/1999/xlink">
<g id="graph0" class="graph" transform="scale(1 1) rotate(0) translate(4 82)">
<title>ZOPT220x_Control::softReset</title>
<!-- Node1 -->
<g id="Node000001" class="node">
<title>Node1</title>
<g id="a_Node000001"><a xlink:title=" ">
<polygon fill="#999999" stroke="#666666" points="159,-48.5 0,-48.5 0,-29.5 159,-29.5 159,-48.5"/>
<text text-anchor="middle" x="79.5" y="-36.5" font-family="Helvetica,sans-Serif" font-size="10.00">ZOPT220x_Control::softReset</text>
</a>
</g>
</g>
<!-- Node2 -->
<g id="Node000002" class="node">
<title>Node2</title>
<g id="a_Node000002"><a xlink:href="classZOPT220x__Control.html#a58c74577acc1183a66b1f9b9281551a3" target="_top" xlink:title=" ">
<polygon fill="white" stroke="#666666" points="355,-78 196,-78 196,-48 355,-48 355,-78"/>
<text text-anchor="start" x="204" y="-66" font-family="Helvetica,sans-Serif" font-size="10.00">ZOPT220x_Control::zoptRead</text>
<text text-anchor="middle" x="275.5" y="-55" font-family="Helvetica,sans-Serif" font-size="10.00">Register</text>
</a>
</g>
</g>
<!-- Node1&#45;&gt;Node2 -->
<g id="edge1_Node000001_Node000002" class="edge">
<title>Node1&#45;&gt;Node2</title>
<g id="a_edge1_Node000001_Node000002"><a xlink:title=" ">
<path fill="none" stroke="#63b8ff" d="M157.45,-48.52C166.7,-49.66 176.2,-50.84 185.59,-52"/>
<polygon fill="#63b8ff" stroke="#63b8ff" points="185.38,-55.5 195.73,-53.26 186.24,-48.55 185.38,-55.5"/>
</a>
</g>
</g>
<!-- Node3 -->
<g id="Node000003" class="node">
<title>Node3</title>
<g id="a_Node000003"><a xlink:href="classZOPT220x__Control.html#ab5f43fd630eaaadeea212559e12648be" target="_top" xlink:title=" ">
<polygon fill="white" stroke="#666666" points="356,-30 195,-30 195,0 356,0 356,-30"/>
<text text-anchor="start" x="203" y="-18" font-family="Helvetica,sans-Serif" font-size="10.00">ZOPT220x_Control::zoptWrite</text>
<text text-anchor="middle" x="275.5" y="-7" font-family="Helvetica,sans-Serif" font-size="10.00">Register</text>
</a>
</g>
</g>
<!-- Node1&#45;&gt;Node3 -->
<g id="edge2_Node000001_Node000003" class="edge">
<title>Node1&#45;&gt;Node3</title>
<g id="a_edge2_Node000001_Node000003"><a xlink:title=" ">
<path fill="none" stroke="#63b8ff" d="M157.45,-29.48C166.37,-28.38 175.52,-27.24 184.59,-26.12"/>
<polygon fill="#63b8ff" stroke="#63b8ff" points="185.28,-29.56 194.78,-24.86 184.42,-22.62 185.28,-29.56"/>
</a>
</g>
</g>
</g>
</svg>
