<?xml version="1.0" encoding="UTF-8" standalone="no"?>
<!DOCTYPE svg PUBLIC "-//W3C//DTD SVG 1.1//EN"
 "http://www.w3.org/Graphics/SVG/1.1/DTD/svg11.dtd">
<!-- Generated by graphviz version 2.43.0 (0)
 -->
<!-- Title: LSM9DS1Sensor Pages: 1 -->
<svg width="418pt" height="522pt"
 viewBox="0.00 0.00 417.50 522.00" xmlns="http://www.w3.org/2000/svg" xmlns:xlink="http://www.w3.org/1999/xlink">
<g id="graph0" class="graph" transform="scale(1 1) rotate(0) translate(4 518)">
<title>LSM9DS1Sensor</title>
<!-- Node1 -->
<g id="Node000001" class="node">
<title>Node1</title>
<g id="a_Node000001"><a xlink:title="Implementation of the Sensor class for the LSM9DS1 (9&#45;axis IMU)">
<polygon fill="#999999" stroke="transparent" points="339.5,-124 231.5,-124 231.5,0 339.5,0 339.5,-124"/>
<text text-anchor="start" x="246" y="-112" font-family="Helvetica,sans-Serif" font-size="10.00">LSM9DS1Sensor</text>
<text text-anchor="start" x="283.5" y="-97" font-family="Helvetica,sans-Serif" font-size="10.00"> </text>
<text text-anchor="start" x="235.5" y="-82" font-family="Helvetica,sans-Serif" font-size="10.00">+</text>
<text text-anchor="start" x="248.5" y="-82" font-family="Helvetica,sans-Serif" font-size="10.00">LSM9DS1Sensor()</text>
<text text-anchor="start" x="235.5" y="-67" font-family="Helvetica,sans-Serif" font-size="10.00">+</text>
<text text-anchor="start" x="248.5" y="-67" font-family="Helvetica,sans-Serif" font-size="10.00">LSM9DS1Sensor()</text>
<text text-anchor="start" x="235.5" y="-52" font-family="Helvetica,sans-Serif" font-size="10.00">+</text>
<text text-anchor="start" x="248.5" y="-52" font-family="Helvetica,sans-Serif" font-size="10.00">verify()</text>
<text text-anchor="start" x="235.5" y="-37" font-family="Helvetica,sans-Serif" font-size="10.00">+</text>
<text text-anchor="start" x="248.5" y="-37" font-family="Helvetica,sans-Serif" font-size="10.00">readData()</text>
<text text-anchor="start" x="235.5" y="-22" font-family="Helvetica,sans-Serif" font-size="10.00">+</text>
<text text-anchor="start" x="248.5" y="-22" font-family="Helvetica,sans-Serif" font-size="10.00">calibrate()</text>
<text text-anchor="start" x="238" y="-7" font-family="Helvetica,sans-Serif" font-size="10.00">&#45;</text>
<text text-anchor="start" x="248.5" y="-7" font-family="Helvetica,sans-Serif" font-size="10.00">setupSensor()</text>
<polygon fill="#666666" stroke="#666666" points="231.5,-107 231.5,-107 339.5,-107 339.5,-107 231.5,-107"/>
<polygon fill="#666666" stroke="#666666" points="231.5,-92 231.5,-92 339.5,-92 339.5,-92 231.5,-92"/>
<polygon fill="none" stroke="#666666" points="231.5,0 231.5,-124 339.5,-124 339.5,0 231.5,0"/>
</a>
</g>
</g>
<!-- Node2 -->
<g id="Node000002" class="node">
<title>Node2</title>
<g id="a_Node000002"><a xlink:href="classSensor.html" target="_top" xlink:title="Parent class for sensor objects.">
<polygon fill="white" stroke="transparent" points="217,-407 84,-407 84,-193 217,-193 217,-407"/>
<text text-anchor="start" x="134" y="-395" font-family="Helvetica,sans-Serif" font-size="10.00">Sensor</text>
<text text-anchor="start" x="149" y="-380" font-family="Helvetica,sans-Serif" font-size="10.00"> </text>
<text text-anchor="start" x="88.5" y="-365" font-family="Helvetica,sans-Serif" font-size="10.00">+</text>
<text text-anchor="start" x="101.5" y="-365" font-family="Helvetica,sans-Serif" font-size="10.00">Sensor()</text>
<text text-anchor="start" x="88.5" y="-350" font-family="Helvetica,sans-Serif" font-size="10.00">+</text>
<text text-anchor="start" x="101.5" y="-350" font-family="Helvetica,sans-Serif" font-size="10.00">Sensor()</text>
<text text-anchor="start" x="88.5" y="-335" font-family="Helvetica,sans-Serif" font-size="10.00">+</text>
<text text-anchor="start" x="101.5" y="-335" font-family="Helvetica,sans-Serif" font-size="10.00">getPeriod()</text>
<text text-anchor="start" x="88.5" y="-320" font-family="Helvetica,sans-Serif" font-size="10.00">+</text>
<text text-anchor="start" x="101.5" y="-320" font-family="Helvetica,sans-Serif" font-size="10.00">setPeriod()</text>
<text text-anchor="start" x="88.5" y="-305" font-family="Helvetica,sans-Serif" font-size="10.00">+</text>
<text text-anchor="start" x="101.5" y="-305" font-family="Helvetica,sans-Serif" font-size="10.00">getLastExecution()</text>
<text text-anchor="start" x="88.5" y="-290" font-family="Helvetica,sans-Serif" font-size="10.00">+</text>
<text text-anchor="start" x="101.5" y="-290" font-family="Helvetica,sans-Serif" font-size="10.00">setLastExecution()</text>
<text text-anchor="start" x="88.5" y="-275" font-family="Helvetica,sans-Serif" font-size="10.00">+</text>
<text text-anchor="start" x="101.5" y="-275" font-family="Helvetica,sans-Serif" font-size="10.00">getSensorName()</text>
<text text-anchor="start" x="88.5" y="-260" font-family="Helvetica,sans-Serif" font-size="10.00">+</text>
<text text-anchor="start" x="101.5" y="-260" font-family="Helvetica,sans-Serif" font-size="10.00">getSensorCSVHeader()</text>
<text text-anchor="start" x="88.5" y="-245" font-family="Helvetica,sans-Serif" font-size="10.00">+</text>
<text text-anchor="start" x="101.5" y="-245" font-family="Helvetica,sans-Serif" font-size="10.00">verify()</text>
<text text-anchor="start" x="88.5" y="-230" font-family="Helvetica,sans-Serif" font-size="10.00">+</text>
<text text-anchor="start" x="101.5" y="-230" font-family="Helvetica,sans-Serif" font-size="10.00">readData()</text>
<text text-anchor="start" x="88.5" y="-215" font-family="Helvetica,sans-Serif" font-size="10.00">+</text>
<text text-anchor="start" x="101.5" y="-215" font-family="Helvetica,sans-Serif" font-size="10.00">readEmpty()</text>
<text text-anchor="start" x="88.5" y="-200" font-family="Helvetica,sans-Serif" font-size="10.00">+</text>
<text text-anchor="start" x="101.5" y="-200" font-family="Helvetica,sans-Serif" font-size="10.00">getDataCSV()</text>
<polygon fill="#666666" stroke="#666666" points="84.5,-390 84.5,-390 217.5,-390 217.5,-390 84.5,-390"/>
<polygon fill="#666666" stroke="#666666" points="84.5,-375 84.5,-375 217.5,-375 217.5,-375 84.5,-375"/>
<polygon fill="none" stroke="#666666" points="84,-193 84,-407 217,-407 217,-193 84,-193"/>
</a>
</g>
</g>
<!-- Node2&#45;&gt;Node1 -->
<g id="edge1_Node000001_Node000002" class="edge">
<title>Node2&#45;&gt;Node1</title>
<g id="a_edge1_Node000001_Node000002"><a xlink:title=" ">
<path fill="none" stroke="#63b8ff" d="M216.34,-183.91C228.14,-163.27 240.02,-142.51 250.51,-124.16"/>
<polygon fill="none" stroke="#63b8ff" points="213.21,-182.32 211.29,-192.74 219.29,-185.79 213.21,-182.32"/>
</a>
</g>
</g>
<!-- Node3 -->
<g id="Node000003" class="node">
<title>Node3</title>
<g id="a_Node000003"><a xlink:title=" ">
<polygon fill="white" stroke="transparent" points="79,-514 0,-514 0,-465 79,-465 79,-514"/>
<text text-anchor="start" x="5.5" y="-501.5" font-family="Helvetica,sans-Serif" font-size="10.00">unsigned long</text>
<text text-anchor="start" x="38" y="-486.5" font-family="Helvetica,sans-Serif" font-size="10.00"> </text>
<text text-anchor="start" x="38" y="-471.5" font-family="Helvetica,sans-Serif" font-size="10.00"> </text>
<polygon fill="#666666" stroke="#666666" points="0.5,-496.5 0.5,-496.5 79.5,-496.5 79.5,-496.5 0.5,-496.5"/>
<polygon fill="#666666" stroke="#666666" points="0.5,-481.5 0.5,-481.5 79.5,-481.5 79.5,-481.5 0.5,-481.5"/>
<polygon fill="none" stroke="#666666" points="0,-465 0,-514 79,-514 79,-465 0,-465"/>
</a>
</g>
</g>
<!-- Node3&#45;&gt;Node2 -->
<g id="edge2_Node000002_Node000003" class="edge">
<title>Node3&#45;&gt;Node2</title>
<g id="a_edge2_Node000002_Node000003"><a xlink:title=" ">
<path fill="none" stroke="#63b8ff" d="M44.5,-464.84C47.6,-452.56 52.21,-437.55 58.5,-425 63.96,-414.1 70.38,-403.17 77.25,-392.55"/>
<polygon fill="none" stroke="#63b8ff" points="77.31,-392.46 77.31,-385.25 83.96,-382.47 83.97,-389.68 77.31,-392.46"/>
</a>
</g>
<text text-anchor="middle" x="102.5" y="-439" font-family="Helvetica,sans-Serif" font-size="10.00" fill="grey"> &#45;last_execution</text>
<text text-anchor="middle" x="102.5" y="-428" font-family="Helvetica,sans-Serif" font-size="10.00" fill="grey">&#45;minimum_period</text>
</g>
<!-- Node4 -->
<g id="Node000004" class="node">
<title>Node4</title>
<g id="a_Node000004"><a xlink:title=" ">
<polygon fill="white" stroke="transparent" points="170,-514 131,-514 131,-465 170,-465 170,-514"/>
<text text-anchor="start" x="136.5" y="-501.5" font-family="Helvetica,sans-Serif" font-size="10.00">String</text>
<text text-anchor="start" x="149" y="-486.5" font-family="Helvetica,sans-Serif" font-size="10.00"> </text>
<text text-anchor="start" x="149" y="-471.5" font-family="Helvetica,sans-Serif" font-size="10.00"> </text>
<polygon fill="#666666" stroke="#666666" points="131.5,-496.5 131.5,-496.5 170.5,-496.5 170.5,-496.5 131.5,-496.5"/>
<polygon fill="#666666" stroke="#666666" points="131.5,-481.5 131.5,-481.5 170.5,-481.5 170.5,-481.5 131.5,-481.5"/>
<polygon fill="none" stroke="#666666" points="131,-465 131,-514 170,-514 170,-465 131,-465"/>
</a>
</g>
</g>
<!-- Node4&#45;&gt;Node2 -->
<g id="edge3_Node000002_Node000004" class="edge">
<title>Node4&#45;&gt;Node2</title>
<g id="a_edge3_Node000002_Node000004"><a xlink:title=" ">
<path fill="none" stroke="#63b8ff" d="M150.5,-464.75C150.5,-452.5 150.5,-436.55 150.5,-419.41"/>
<polygon fill="none" stroke="#63b8ff" points="150.5,-419.39 146.5,-413.39 150.5,-407.39 154.5,-413.39 150.5,-419.39"/>
</a>
</g>
<text text-anchor="middle" x="185.5" y="-439" font-family="Helvetica,sans-Serif" font-size="10.00" fill="grey"> &#45;csv_header</text>
<text text-anchor="middle" x="185.5" y="-428" font-family="Helvetica,sans-Serif" font-size="10.00" fill="grey">&#45;sensor_name</text>
</g>
<!-- Node5 -->
<g id="Node000005" class="node">
<title>Node5</title>
<g id="a_Node000005"><a xlink:title=" ">
<polygon fill="white" stroke="transparent" points="255,-514 232,-514 232,-465 255,-465 255,-514"/>
<text text-anchor="start" x="237.5" y="-501.5" font-family="Helvetica,sans-Serif" font-size="10.00">int</text>
<text text-anchor="start" x="242" y="-486.5" font-family="Helvetica,sans-Serif" font-size="10.00"> </text>
<text text-anchor="start" x="242" y="-471.5" font-family="Helvetica,sans-Serif" font-size="10.00"> </text>
<polygon fill="#666666" stroke="#666666" points="232.5,-496.5 232.5,-496.5 255.5,-496.5 255.5,-496.5 232.5,-496.5"/>
<polygon fill="#666666" stroke="#666666" points="232.5,-481.5 232.5,-481.5 255.5,-481.5 255.5,-481.5 232.5,-481.5"/>
<polygon fill="none" stroke="#666666" points="232,-465 232,-514 255,-514 255,-465 232,-465"/>
</a>
</g>
</g>
<!-- Node5&#45;&gt;Node2 -->
<g id="edge4_Node000002_Node000005" class="edge">
<title>Node5&#45;&gt;Node2</title>
<g id="a_edge4_Node000002_Node000005"><a xlink:title=" ">
<path fill="none" stroke="#63b8ff" d="M236.47,-464.87C232.58,-452.74 227.34,-437.85 221.5,-425 220.46,-422.71 219.39,-420.4 218.29,-418.08"/>
<polygon fill="none" stroke="#63b8ff" points="218.24,-417.99 212.02,-414.35 212.99,-407.2 219.21,-410.85 218.24,-417.99"/>
</a>
</g>
<text text-anchor="middle" x="247.5" y="-433.5" font-family="Helvetica,sans-Serif" font-size="10.00" fill="grey"> &#45;fields</text>
</g>
<!-- Node6 -->
<g id="Node000006" class="node">
<title>Node6</title>
<g id="a_Node000006"><a xlink:title=" ">
<polygon fill="white" stroke="transparent" points="336,-324.5 235,-324.5 235,-275.5 336,-275.5 336,-324.5"/>
<text text-anchor="start" x="240.5" y="-312" font-family="Helvetica,sans-Serif" font-size="10.00">Adafruit_LSM9DS1</text>
<text text-anchor="start" x="284" y="-297" font-family="Helvetica,sans-Serif" font-size="10.00"> </text>
<text text-anchor="start" x="284" y="-282" font-family="Helvetica,sans-Serif" font-size="10.00"> </text>
<polygon fill="#666666" stroke="#666666" points="235.5,-307 235.5,-307 336.5,-307 336.5,-307 235.5,-307"/>
<polygon fill="#666666" stroke="#666666" points="235.5,-292 235.5,-292 336.5,-292 336.5,-292 235.5,-292"/>
<polygon fill="none" stroke="#666666" points="235,-275.5 235,-324.5 336,-324.5 336,-275.5 235,-275.5"/>
</a>
</g>
</g>
<!-- Node6&#45;&gt;Node1 -->
<g id="edge5_Node000001_Node000006" class="edge">
<title>Node6&#45;&gt;Node1</title>
<g id="a_edge5_Node000001_Node000006"><a xlink:title=" ">
<path fill="none" stroke="#63b8ff" d="M285.5,-275.07C285.5,-242.84 285.5,-184.03 285.5,-136.51"/>
<polygon fill="none" stroke="#63b8ff" points="285.5,-136.38 281.5,-130.38 285.5,-124.38 289.5,-130.38 285.5,-136.38"/>
</a>
</g>
<text text-anchor="middle" x="298" y="-156" font-family="Helvetica,sans-Serif" font-size="10.00" fill="grey"> &#45;lsm</text>
</g>
<!-- Node7 -->
<g id="Node000007" class="node">
<title>Node7</title>
<g id="a_Node000007"><a xlink:title=" ">
<polygon fill="white" stroke="transparent" points="386.5,-324.5 354.5,-324.5 354.5,-275.5 386.5,-275.5 386.5,-324.5"/>
<text text-anchor="start" x="359.5" y="-312" font-family="Helvetica,sans-Serif" font-size="10.00">float</text>
<text text-anchor="start" x="368.5" y="-297" font-family="Helvetica,sans-Serif" font-size="10.00"> </text>
<text text-anchor="start" x="368.5" y="-282" font-family="Helvetica,sans-Serif" font-size="10.00"> </text>
<polygon fill="#666666" stroke="#666666" points="354.5,-307 354.5,-307 386.5,-307 386.5,-307 354.5,-307"/>
<polygon fill="#666666" stroke="#666666" points="354.5,-292 354.5,-292 386.5,-292 386.5,-292 354.5,-292"/>
<polygon fill="none" stroke="#666666" points="354.5,-275.5 354.5,-324.5 386.5,-324.5 386.5,-275.5 354.5,-275.5"/>
</a>
</g>
</g>
<!-- Node7&#45;&gt;Node1 -->
<g id="edge6_Node000001_Node000007" class="edge">
<title>Node7&#45;&gt;Node1</title>
<g id="a_edge6_Node000001_Node000007"><a xlink:title=" ">
<path fill="none" stroke="#63b8ff" d="M366.36,-275.46C362.2,-253.72 355.05,-220.71 345.5,-193 338.89,-173.84 330.41,-153.69 321.91,-135.14"/>
<polygon fill="none" stroke="#63b8ff" points="321.84,-134.99 315.69,-131.24 316.78,-124.12 322.94,-127.87 321.84,-134.99"/>
</a>
</g>
<text text-anchor="middle" x="374" y="-167" font-family="Helvetica,sans-Serif" font-size="10.00" fill="grey"> &#45;accel_offsets</text>
<text text-anchor="middle" x="374" y="-156" font-family="Helvetica,sans-Serif" font-size="10.00" fill="grey">&#45;gyro_offsets</text>
<text text-anchor="middle" x="374" y="-145" font-family="Helvetica,sans-Serif" font-size="10.00" fill="grey">&#45;mag_offsets</text>
</g>
</g>
</svg>
