<?xml version="1.0" encoding="UTF-8" standalone="no"?>
<!DOCTYPE svg PUBLIC "-//W3C//DTD SVG 1.1//EN"
 "http://www.w3.org/Graphics/SVG/1.1/DTD/svg11.dtd">
<!-- Generated by graphviz version 2.43.0 (0)
 -->
<!-- Title: ICM20948Sensor Pages: 1 -->
<svg width="462pt" height="503pt"
 viewBox="0.00 0.00 461.50 503.00" xmlns="http://www.w3.org/2000/svg" xmlns:xlink="http://www.w3.org/1999/xlink">
<g id="graph0" class="graph" transform="scale(1 1) rotate(0) translate(4 499)">
<title>ICM20948Sensor</title>
<!-- Node1 -->
<g id="Node000001" class="node">
<title>Node1</title>
<g id="a_Node000001"><a xlink:title="Implementation of the Sensor class for the Adafruit ICM20948 (9&#45;axis IMU)">
<polygon fill="#999999" stroke="transparent" points="343,-94 232,-94 232,0 343,0 343,-94"/>
<text text-anchor="start" x="247" y="-82" font-family="Helvetica,sans-Serif" font-size="10.00">ICM20948Sensor</text>
<text text-anchor="start" x="286" y="-67" font-family="Helvetica,sans-Serif" font-size="10.00"> </text>
<text text-anchor="start" x="236.5" y="-52" font-family="Helvetica,sans-Serif" font-size="10.00">+</text>
<text text-anchor="start" x="249.5" y="-52" font-family="Helvetica,sans-Serif" font-size="10.00">ICM20948Sensor()</text>
<text text-anchor="start" x="236.5" y="-37" font-family="Helvetica,sans-Serif" font-size="10.00">+</text>
<text text-anchor="start" x="249.5" y="-37" font-family="Helvetica,sans-Serif" font-size="10.00">ICM20948Sensor()</text>
<text text-anchor="start" x="236.5" y="-22" font-family="Helvetica,sans-Serif" font-size="10.00">+</text>
<text text-anchor="start" x="249.5" y="-22" font-family="Helvetica,sans-Serif" font-size="10.00">verify()</text>
<text text-anchor="start" x="236.5" y="-7" font-family="Helvetica,sans-Serif" font-size="10.00">+</text>
<text text-anchor="start" x="249.5" y="-7" font-family="Helvetica,sans-Serif" font-size="10.00">readData()</text>
<polygon fill="#666666" stroke="#666666" points="232.5,-77 232.5,-77 343.5,-77 343.5,-77 232.5,-77"/>
<polygon fill="#666666" stroke="#666666" points="232.5,-62 232.5,-62 343.5,-62 343.5,-62 232.5,-62"/>
<polygon fill="none" stroke="#666666" points="232,0 232,-94 343,-94 343,0 232,0"/>
</a>
</g>
</g>
<!-- Node2 -->
<g id="Node000002" class="node">
<title>Node2</title>
<g id="a_Node000002"><a xlink:href="classSensor.html" target="_top" xlink:title="Parent class for sensor objects.">
<polygon fill="white" stroke="transparent" points="217,-388 84,-388 84,-174 217,-174 217,-388"/>
<text text-anchor="start" x="134" y="-376" font-family="Helvetica,sans-Serif" font-size="10.00">Sensor</text>
<text text-anchor="start" x="149" y="-361" font-family="Helvetica,sans-Serif" font-size="10.00"> </text>
<text text-anchor="start" x="88.5" y="-346" font-family="Helvetica,sans-Serif" font-size="10.00">+</text>
<text text-anchor="start" x="101.5" y="-346" font-family="Helvetica,sans-Serif" font-size="10.00">Sensor()</text>
<text text-anchor="start" x="88.5" y="-331" font-family="Helvetica,sans-Serif" font-size="10.00">+</text>
<text text-anchor="start" x="101.5" y="-331" font-family="Helvetica,sans-Serif" font-size="10.00">Sensor()</text>
<text text-anchor="start" x="88.5" y="-316" font-family="Helvetica,sans-Serif" font-size="10.00">+</text>
<text text-anchor="start" x="101.5" y="-316" font-family="Helvetica,sans-Serif" font-size="10.00">getPeriod()</text>
<text text-anchor="start" x="88.5" y="-301" font-family="Helvetica,sans-Serif" font-size="10.00">+</text>
<text text-anchor="start" x="101.5" y="-301" font-family="Helvetica,sans-Serif" font-size="10.00">setPeriod()</text>
<text text-anchor="start" x="88.5" y="-286" font-family="Helvetica,sans-Serif" font-size="10.00">+</text>
<text text-anchor="start" x="101.5" y="-286" font-family="Helvetica,sans-Serif" font-size="10.00">getLastExecution()</text>
<text text-anchor="start" x="88.5" y="-271" font-family="Helvetica,sans-Serif" font-size="10.00">+</text>
<text text-anchor="start" x="101.5" y="-271" font-family="Helvetica,sans-Serif" font-size="10.00">setLastExecution()</text>
<text text-anchor="start" x="88.5" y="-256" font-family="Helvetica,sans-Serif" font-size="10.00">+</text>
<text text-anchor="start" x="101.5" y="-256" font-family="Helvetica,sans-Serif" font-size="10.00">getSensorName()</text>
<text text-anchor="start" x="88.5" y="-241" font-family="Helvetica,sans-Serif" font-size="10.00">+</text>
<text text-anchor="start" x="101.5" y="-241" font-family="Helvetica,sans-Serif" font-size="10.00">getSensorCSVHeader()</text>
<text text-anchor="start" x="88.5" y="-226" font-family="Helvetica,sans-Serif" font-size="10.00">+</text>
<text text-anchor="start" x="101.5" y="-226" font-family="Helvetica,sans-Serif" font-size="10.00">verify()</text>
<text text-anchor="start" x="88.5" y="-211" font-family="Helvetica,sans-Serif" font-size="10.00">+</text>
<text text-anchor="start" x="101.5" y="-211" font-family="Helvetica,sans-Serif" font-size="10.00">readData()</text>
<text text-anchor="start" x="88.5" y="-196" font-family="Helvetica,sans-Serif" font-size="10.00">+</text>
<text text-anchor="start" x="101.5" y="-196" font-family="Helvetica,sans-Serif" font-size="10.00">readEmpty()</text>
<text text-anchor="start" x="88.5" y="-181" font-family="Helvetica,sans-Serif" font-size="10.00">+</text>
<text text-anchor="start" x="101.5" y="-181" font-family="Helvetica,sans-Serif" font-size="10.00">getDataCSV()</text>
<polygon fill="#666666" stroke="#666666" points="84.5,-371 84.5,-371 217.5,-371 217.5,-371 84.5,-371"/>
<polygon fill="#666666" stroke="#666666" points="84.5,-356 84.5,-356 217.5,-356 217.5,-356 84.5,-356"/>
<polygon fill="none" stroke="#666666" points="84,-174 84,-388 217,-388 217,-174 84,-174"/>
</a>
</g>
</g>
<!-- Node2&#45;&gt;Node1 -->
<g id="edge1_Node000001_Node000002" class="edge">
<title>Node2&#45;&gt;Node1</title>
<g id="a_edge1_Node000001_Node000002"><a xlink:title=" ">
<path fill="none" stroke="#63b8ff" d="M218.44,-164.96C233.29,-139.79 248.19,-114.57 260.32,-94.03"/>
<polygon fill="none" stroke="#63b8ff" points="215.26,-163.45 213.19,-173.84 221.29,-167.01 215.26,-163.45"/>
</a>
</g>
</g>
<!-- Node3 -->
<g id="Node000003" class="node">
<title>Node3</title>
<g id="a_Node000003"><a xlink:title=" ">
<polygon fill="white" stroke="transparent" points="79,-495 0,-495 0,-446 79,-446 79,-495"/>
<text text-anchor="start" x="5.5" y="-482.5" font-family="Helvetica,sans-Serif" font-size="10.00">unsigned long</text>
<text text-anchor="start" x="38" y="-467.5" font-family="Helvetica,sans-Serif" font-size="10.00"> </text>
<text text-anchor="start" x="38" y="-452.5" font-family="Helvetica,sans-Serif" font-size="10.00"> </text>
<polygon fill="#666666" stroke="#666666" points="0.5,-477.5 0.5,-477.5 79.5,-477.5 79.5,-477.5 0.5,-477.5"/>
<polygon fill="#666666" stroke="#666666" points="0.5,-462.5 0.5,-462.5 79.5,-462.5 79.5,-462.5 0.5,-462.5"/>
<polygon fill="none" stroke="#666666" points="0,-446 0,-495 79,-495 79,-446 0,-446"/>
</a>
</g>
</g>
<!-- Node3&#45;&gt;Node2 -->
<g id="edge2_Node000002_Node000003" class="edge">
<title>Node3&#45;&gt;Node2</title>
<g id="a_edge2_Node000002_Node000003"><a xlink:title=" ">
<path fill="none" stroke="#63b8ff" d="M44.5,-445.84C47.6,-433.56 52.21,-418.55 58.5,-406 63.96,-395.1 70.38,-384.17 77.25,-373.55"/>
<polygon fill="none" stroke="#63b8ff" points="77.31,-373.46 77.31,-366.25 83.96,-363.47 83.97,-370.68 77.31,-373.46"/>
</a>
</g>
<text text-anchor="middle" x="102.5" y="-420" font-family="Helvetica,sans-Serif" font-size="10.00" fill="grey"> &#45;last_execution</text>
<text text-anchor="middle" x="102.5" y="-409" font-family="Helvetica,sans-Serif" font-size="10.00" fill="grey">&#45;minimum_period</text>
</g>
<!-- Node4 -->
<g id="Node000004" class="node">
<title>Node4</title>
<g id="a_Node000004"><a xlink:title=" ">
<polygon fill="white" stroke="transparent" points="170,-495 131,-495 131,-446 170,-446 170,-495"/>
<text text-anchor="start" x="136.5" y="-482.5" font-family="Helvetica,sans-Serif" font-size="10.00">String</text>
<text text-anchor="start" x="149" y="-467.5" font-family="Helvetica,sans-Serif" font-size="10.00"> </text>
<text text-anchor="start" x="149" y="-452.5" font-family="Helvetica,sans-Serif" font-size="10.00"> </text>
<polygon fill="#666666" stroke="#666666" points="131.5,-477.5 131.5,-477.5 170.5,-477.5 170.5,-477.5 131.5,-477.5"/>
<polygon fill="#666666" stroke="#666666" points="131.5,-462.5 131.5,-462.5 170.5,-462.5 170.5,-462.5 131.5,-462.5"/>
<polygon fill="none" stroke="#666666" points="131,-446 131,-495 170,-495 170,-446 131,-446"/>
</a>
</g>
</g>
<!-- Node4&#45;&gt;Node2 -->
<g id="edge3_Node000002_Node000004" class="edge">
<title>Node4&#45;&gt;Node2</title>
<g id="a_edge3_Node000002_Node000004"><a xlink:title=" ">
<path fill="none" stroke="#63b8ff" d="M150.5,-445.75C150.5,-433.5 150.5,-417.55 150.5,-400.41"/>
<polygon fill="none" stroke="#63b8ff" points="150.5,-400.39 146.5,-394.39 150.5,-388.39 154.5,-394.39 150.5,-400.39"/>
</a>
</g>
<text text-anchor="middle" x="185.5" y="-420" font-family="Helvetica,sans-Serif" font-size="10.00" fill="grey"> &#45;csv_header</text>
<text text-anchor="middle" x="185.5" y="-409" font-family="Helvetica,sans-Serif" font-size="10.00" fill="grey">&#45;sensor_name</text>
</g>
<!-- Node5 -->
<g id="Node000005" class="node">
<title>Node5</title>
<g id="a_Node000005"><a xlink:title=" ">
<polygon fill="white" stroke="transparent" points="255,-495 232,-495 232,-446 255,-446 255,-495"/>
<text text-anchor="start" x="237.5" y="-482.5" font-family="Helvetica,sans-Serif" font-size="10.00">int</text>
<text text-anchor="start" x="242" y="-467.5" font-family="Helvetica,sans-Serif" font-size="10.00"> </text>
<text text-anchor="start" x="242" y="-452.5" font-family="Helvetica,sans-Serif" font-size="10.00"> </text>
<polygon fill="#666666" stroke="#666666" points="232.5,-477.5 232.5,-477.5 255.5,-477.5 255.5,-477.5 232.5,-477.5"/>
<polygon fill="#666666" stroke="#666666" points="232.5,-462.5 232.5,-462.5 255.5,-462.5 255.5,-462.5 232.5,-462.5"/>
<polygon fill="none" stroke="#666666" points="232,-446 232,-495 255,-495 255,-446 232,-446"/>
</a>
</g>
</g>
<!-- Node5&#45;&gt;Node2 -->
<g id="edge4_Node000002_Node000005" class="edge">
<title>Node5&#45;&gt;Node2</title>
<g id="a_edge4_Node000002_Node000005"><a xlink:title=" ">
<path fill="none" stroke="#63b8ff" d="M236.47,-445.87C232.58,-433.74 227.34,-418.85 221.5,-406 220.46,-403.71 219.39,-401.4 218.29,-399.08"/>
<polygon fill="none" stroke="#63b8ff" points="218.24,-398.99 212.02,-395.35 212.99,-388.2 219.21,-391.85 218.24,-398.99"/>
</a>
</g>
<text text-anchor="middle" x="247.5" y="-414.5" font-family="Helvetica,sans-Serif" font-size="10.00" fill="grey"> &#45;fields</text>
</g>
<!-- Node6 -->
<g id="Node000006" class="node">
<title>Node6</title>
<g id="a_Node000006"><a xlink:title=" ">
<polygon fill="white" stroke="transparent" points="339.5,-305.5 235.5,-305.5 235.5,-256.5 339.5,-256.5 339.5,-305.5"/>
<text text-anchor="start" x="240.5" y="-293" font-family="Helvetica,sans-Serif" font-size="10.00">Adafruit_ICM20948</text>
<text text-anchor="start" x="285.5" y="-278" font-family="Helvetica,sans-Serif" font-size="10.00"> </text>
<text text-anchor="start" x="285.5" y="-263" font-family="Helvetica,sans-Serif" font-size="10.00"> </text>
<polygon fill="#666666" stroke="#666666" points="235.5,-288 235.5,-288 339.5,-288 339.5,-288 235.5,-288"/>
<polygon fill="#666666" stroke="#666666" points="235.5,-273 235.5,-273 339.5,-273 339.5,-273 235.5,-273"/>
<polygon fill="none" stroke="#666666" points="235.5,-256.5 235.5,-305.5 339.5,-305.5 339.5,-256.5 235.5,-256.5"/>
</a>
</g>
</g>
<!-- Node6&#45;&gt;Node1 -->
<g id="edge5_Node000001_Node000006" class="edge">
<title>Node6&#45;&gt;Node1</title>
<g id="a_edge5_Node000001_Node000006"><a xlink:title=" ">
<path fill="none" stroke="#63b8ff" d="M287.5,-256.48C287.5,-221.61 287.5,-155.12 287.5,-106.57"/>
<polygon fill="none" stroke="#63b8ff" points="287.5,-106.34 283.5,-100.34 287.5,-94.34 291.5,-100.34 287.5,-106.34"/>
</a>
</g>
<text text-anchor="middle" x="300" y="-131.5" font-family="Helvetica,sans-Serif" font-size="10.00" fill="grey"> &#45;icm</text>
</g>
<!-- Node7 -->
<g id="Node000007" class="node">
<title>Node7</title>
<g id="a_Node000007"><a xlink:title=" ">
<polygon fill="white" stroke="transparent" points="453.5,-305.5 357.5,-305.5 357.5,-256.5 453.5,-256.5 453.5,-305.5"/>
<text text-anchor="start" x="362.5" y="-293" font-family="Helvetica,sans-Serif" font-size="10.00">Adafruit_Sensor *</text>
<text text-anchor="start" x="403.5" y="-278" font-family="Helvetica,sans-Serif" font-size="10.00"> </text>
<text text-anchor="start" x="403.5" y="-263" font-family="Helvetica,sans-Serif" font-size="10.00"> </text>
<polygon fill="#666666" stroke="#666666" points="357.5,-288 357.5,-288 453.5,-288 453.5,-288 357.5,-288"/>
<polygon fill="#666666" stroke="#666666" points="357.5,-273 357.5,-273 453.5,-273 453.5,-273 357.5,-273"/>
<polygon fill="none" stroke="#666666" points="357.5,-256.5 357.5,-305.5 453.5,-305.5 453.5,-256.5 357.5,-256.5"/>
</a>
</g>
</g>
<!-- Node7&#45;&gt;Node1 -->
<g id="edge6_Node000001_Node000007" class="edge">
<title>Node7&#45;&gt;Node1</title>
<g id="a_edge6_Node000001_Node000007"><a xlink:title=" ">
<path fill="none" stroke="#63b8ff" d="M393.54,-256.48C375.61,-221.24 341.26,-153.7 316.51,-105.03"/>
<polygon fill="none" stroke="#63b8ff" points="316.51,-105.03 310.22,-101.5 311.07,-94.34 317.35,-97.87 316.51,-105.03"/>
</a>
</g>
<text text-anchor="middle" x="366.5" y="-148" font-family="Helvetica,sans-Serif" font-size="10.00" fill="grey"> &#45;icm_accel</text>
<text text-anchor="middle" x="366.5" y="-137" font-family="Helvetica,sans-Serif" font-size="10.00" fill="grey">&#45;icm_gyro</text>
<text text-anchor="middle" x="366.5" y="-126" font-family="Helvetica,sans-Serif" font-size="10.00" fill="grey">&#45;icm_mag</text>
<text text-anchor="middle" x="366.5" y="-115" font-family="Helvetica,sans-Serif" font-size="10.00" fill="grey">&#45;icm_temp</text>
</g>
</g>
</svg>
