<?xml version="1.0" encoding="UTF-8" standalone="no"?>
<!DOCTYPE svg PUBLIC "-//W3C//DTD SVG 1.1//EN"
 "http://www.w3.org/Graphics/SVG/1.1/DTD/svg11.dtd">
<!-- Generated by graphviz version 2.43.0 (0)
 -->
<!-- Title: ZOPT220x_Control::setMode Pages: 1 -->
<svg width="532pt" height="176pt"
 viewBox="0.00 0.00 532.00 175.50" xmlns="http://www.w3.org/2000/svg" xmlns:xlink="http://www.w3.org/1999/xlink">
<g id="graph0" class="graph" transform="scale(1 1) rotate(0) translate(4 171.5)">
<title>ZOPT220x_Control::setMode</title>
<!-- Node1 -->
<g id="node1" class="node">
<title>Node1</title>
<g id="a_node1"><a xlink:title=" ">
<polygon fill="#bfbfbf" stroke="black" points="369,-68.5 369,-87.5 524,-87.5 524,-68.5 369,-68.5"/>
<text text-anchor="middle" x="446.5" y="-75.5" font-family="Helvetica,sans-Serif" font-size="10.00">ZOPT220x_Control::setMode</text>
</a>
</g>
</g>
<!-- Node2 -->
<g id="node2" class="node">
<title>Node2</title>
<g id="a_node2"><a xlink:href="classZOPT220x__Control.html#a27c0821f9341f36d87c9388ce7bf4ee5" target="_top" xlink:title=" ">
<polygon fill="none" stroke="black" points="184,-137 184,-167 330,-167 330,-137 184,-137"/>
<text text-anchor="start" x="192" y="-155" font-family="Helvetica,sans-Serif" font-size="10.00">ZOPT220x_Control::enable</text>
<text text-anchor="middle" x="257" y="-144" font-family="Helvetica,sans-Serif" font-size="10.00">ALSSensing</text>
</a>
</g>
</g>
<!-- Node1&#45;&gt;Node2 -->
<g id="edge1" class="edge">
<title>Node1&#45;&gt;Node2</title>
<path fill="none" stroke="midnightblue" d="M416.54,-91.91C394.03,-102.47 361.88,-117 333,-128 324.95,-131.07 316.32,-134.08 307.89,-136.87"/>
<polygon fill="midnightblue" stroke="midnightblue" points="418.31,-94.95 425.86,-87.51 415.32,-88.62 418.31,-94.95"/>
</g>
<!-- Node4 -->
<g id="node4" class="node">
<title>Node4</title>
<g id="a_node4"><a xlink:href="classZOPT220x__Control.html#a0d055b74457d1c10173897918d5610ab" target="_top" xlink:title=" ">
<polygon fill="none" stroke="black" points="184,-88 184,-118 330,-118 330,-88 184,-88"/>
<text text-anchor="start" x="192" y="-106" font-family="Helvetica,sans-Serif" font-size="10.00">ZOPT220x_Control::enable</text>
<text text-anchor="middle" x="257" y="-95" font-family="Helvetica,sans-Serif" font-size="10.00">RawSensing</text>
</a>
</g>
</g>
<!-- Node1&#45;&gt;Node4 -->
<g id="edge3" class="edge">
<title>Node1&#45;&gt;Node4</title>
<path fill="none" stroke="midnightblue" d="M363.86,-88.89C352.64,-90.38 341.19,-91.91 330.15,-93.38"/>
<polygon fill="midnightblue" stroke="midnightblue" points="364.63,-92.31 374.08,-87.52 363.7,-85.38 364.63,-92.31"/>
</g>
<!-- Node5 -->
<g id="node5" class="node">
<title>Node5</title>
<g id="a_node5"><a xlink:href="classZOPT220x__Control.html#a1172703928cf494b466ea2c3595bbbba" target="_top" xlink:title=" ">
<polygon fill="none" stroke="black" points="184,-39 184,-69 330,-69 330,-39 184,-39"/>
<text text-anchor="start" x="192" y="-57" font-family="Helvetica,sans-Serif" font-size="10.00">ZOPT220x_Control::enable</text>
<text text-anchor="middle" x="257" y="-46" font-family="Helvetica,sans-Serif" font-size="10.00">UVBSensing</text>
</a>
</g>
</g>
<!-- Node1&#45;&gt;Node5 -->
<g id="edge4" class="edge">
<title>Node1&#45;&gt;Node5</title>
<path fill="none" stroke="midnightblue" d="M360.92,-67.17C350.64,-65.86 340.22,-64.52 330.14,-63.23"/>
<polygon fill="midnightblue" stroke="midnightblue" points="360.76,-70.68 371.13,-68.48 361.65,-63.74 360.76,-70.68"/>
</g>
<!-- Node6 -->
<g id="node6" class="node">
<title>Node6</title>
<g id="a_node6"><a xlink:href="classZOPT220x__Control.html#ac427197b44897ed82f77069e2e88270a" target="_top" xlink:title=" ">
<polygon fill="none" stroke="black" points="181,-0.5 181,-19.5 333,-19.5 333,-0.5 181,-0.5"/>
<text text-anchor="middle" x="257" y="-7.5" font-family="Helvetica,sans-Serif" font-size="10.00">ZOPT220x_Control::standby</text>
</a>
</g>
</g>
<!-- Node1&#45;&gt;Node6 -->
<g id="edge6" class="edge">
<title>Node1&#45;&gt;Node6</title>
<path fill="none" stroke="midnightblue" d="M416.22,-64.14C393.77,-53.85 361.85,-39.95 333,-30 321.79,-26.14 309.42,-22.56 298.02,-19.54"/>
<polygon fill="midnightblue" stroke="midnightblue" points="414.97,-67.42 425.52,-68.44 417.91,-61.07 414.97,-67.42"/>
</g>
<!-- Node3 -->
<g id="node3" class="node">
<title>Node3</title>
<g id="a_node3"><a xlink:href="classZOPT220Sensor.html#a6aeb56062c5ff976d199ae407df9ed6c" target="_top" xlink:title="Reads data from the ZOPT220x sensor and returns it in CSV format.">
<polygon fill="none" stroke="black" points="0,-93.5 0,-112.5 145,-112.5 145,-93.5 0,-93.5"/>
<text text-anchor="middle" x="72.5" y="-100.5" font-family="Helvetica,sans-Serif" font-size="10.00">ZOPT220Sensor::readData</text>
</a>
</g>
</g>
<!-- Node2&#45;&gt;Node3 -->
<g id="edge2" class="edge">
<title>Node2&#45;&gt;Node3</title>
<path fill="none" stroke="midnightblue" d="M189.84,-134.24C162.48,-126.89 131.85,-118.67 108.89,-112.5"/>
<polygon fill="midnightblue" stroke="midnightblue" points="189.19,-137.69 199.75,-136.9 191,-130.93 189.19,-137.69"/>
</g>
<!-- Node5&#45;&gt;Node3 -->
<g id="edge5" class="edge">
<title>Node5&#45;&gt;Node3</title>
<path fill="none" stroke="midnightblue" d="M189.84,-71.76C162.48,-79.11 131.85,-87.33 108.89,-93.5"/>
<polygon fill="midnightblue" stroke="midnightblue" points="191,-75.07 199.75,-69.1 189.19,-68.31 191,-75.07"/>
</g>
</g>
</svg>
