<?xml version="1.0" encoding="UTF-8" standalone="no"?>
<!DOCTYPE svg PUBLIC "-//W3C//DTD SVG 1.1//EN"
 "http://www.w3.org/Graphics/SVG/1.1/DTD/svg11.dtd">
<!-- Generated by graphviz version 2.43.0 (0)
 -->
<!-- Title: Sensor Pages: 1 -->
<svg width="1905pt" height="413pt"
 viewBox="0.00 0.00 1905.00 413.00" xmlns="http://www.w3.org/2000/svg" xmlns:xlink="http://www.w3.org/1999/xlink">
<g id="graph0" class="graph" transform="scale(1 1) rotate(0) translate(4 409)">
<title>Sensor</title>
<!-- Node1 -->
<g id="node1" class="node">
<title>Node1</title>
<g id="a_node1"><a xlink:title="Parent class for sensor objects.">
<polygon fill="#bfbfbf" stroke="black" points="880,-182.5 880,-404.5 1019,-404.5 1019,-182.5 880,-182.5"/>
<text text-anchor="middle" x="949.5" y="-392.5" font-family="Helvetica,sans-Serif" font-size="10.00">Sensor</text>
<polyline fill="none" stroke="black" points="880,-385.5 1019,-385.5 "/>
<text text-anchor="start" x="888" y="-373.5" font-family="Helvetica,sans-Serif" font-size="10.00">&#45; minimum_period</text>
<text text-anchor="start" x="888" y="-362.5" font-family="Helvetica,sans-Serif" font-size="10.00">&#45; last_execution</text>
<text text-anchor="start" x="888" y="-351.5" font-family="Helvetica,sans-Serif" font-size="10.00">&#45; sensor_name</text>
<text text-anchor="start" x="888" y="-340.5" font-family="Helvetica,sans-Serif" font-size="10.00">&#45; csv_header</text>
<text text-anchor="start" x="888" y="-329.5" font-family="Helvetica,sans-Serif" font-size="10.00">&#45; fields</text>
<polyline fill="none" stroke="black" points="880,-322.5 1019,-322.5 "/>
<text text-anchor="start" x="888" y="-310.5" font-family="Helvetica,sans-Serif" font-size="10.00">+ Sensor()</text>
<text text-anchor="start" x="888" y="-299.5" font-family="Helvetica,sans-Serif" font-size="10.00">+ Sensor()</text>
<text text-anchor="start" x="888" y="-288.5" font-family="Helvetica,sans-Serif" font-size="10.00">+ getPeriod()</text>
<text text-anchor="start" x="888" y="-277.5" font-family="Helvetica,sans-Serif" font-size="10.00">+ setPeriod()</text>
<text text-anchor="start" x="888" y="-266.5" font-family="Helvetica,sans-Serif" font-size="10.00">+ getLastExecution()</text>
<text text-anchor="start" x="888" y="-255.5" font-family="Helvetica,sans-Serif" font-size="10.00">+ setLastExecution()</text>
<text text-anchor="start" x="888" y="-244.5" font-family="Helvetica,sans-Serif" font-size="10.00">+ getSensorName()</text>
<text text-anchor="start" x="888" y="-233.5" font-family="Helvetica,sans-Serif" font-size="10.00">+ getSensorCSVHeader()</text>
<text text-anchor="start" x="888" y="-222.5" font-family="Helvetica,sans-Serif" font-size="10.00">+ verify()</text>
<text text-anchor="start" x="888" y="-211.5" font-family="Helvetica,sans-Serif" font-size="10.00">+ readData()</text>
<text text-anchor="start" x="888" y="-200.5" font-family="Helvetica,sans-Serif" font-size="10.00">+ readEmpty()</text>
<text text-anchor="start" x="888" y="-189.5" font-family="Helvetica,sans-Serif" font-size="10.00">+ getDataCSV()</text>
</a>
</g>
</g>
<!-- Node2 -->
<g id="node2" class="node">
<title>Node2</title>
<g id="a_node2"><a xlink:href="classAS7331Sensor.html" target="_top" xlink:title="Implementation of a Sensor for UVA/B/C sensor.">
<polygon fill="none" stroke="black" points="0,-28 0,-118 105,-118 105,-28 0,-28"/>
<text text-anchor="middle" x="52.5" y="-106" font-family="Helvetica,sans-Serif" font-size="10.00">AS7331Sensor</text>
<polyline fill="none" stroke="black" points="0,-99 105,-99 "/>
<text text-anchor="start" x="8" y="-87" font-family="Helvetica,sans-Serif" font-size="10.00">&#45; myUVSensor</text>
<polyline fill="none" stroke="black" points="0,-80 105,-80 "/>
<text text-anchor="start" x="8" y="-68" font-family="Helvetica,sans-Serif" font-size="10.00">+ AS7331Sensor()</text>
<text text-anchor="start" x="8" y="-57" font-family="Helvetica,sans-Serif" font-size="10.00">+ AS7331Sensor()</text>
<text text-anchor="start" x="8" y="-46" font-family="Helvetica,sans-Serif" font-size="10.00">+ verify()</text>
<text text-anchor="start" x="8" y="-35" font-family="Helvetica,sans-Serif" font-size="10.00">+ readData()</text>
</a>
</g>
</g>
<!-- Node1&#45;&gt;Node2 -->
<g id="edge1" class="edge">
<title>Node1&#45;&gt;Node2</title>
<path fill="none" stroke="midnightblue" d="M869.78,-285.39C686.99,-267.99 243.46,-219.29 114.5,-146 102.31,-139.07 91.38,-128.81 82.22,-118.19"/>
<polygon fill="none" stroke="midnightblue" points="869.58,-288.88 879.87,-286.34 870.24,-281.91 869.58,-288.88"/>
</g>
<!-- Node3 -->
<g id="node3" class="node">
<title>Node3</title>
<g id="a_node3"><a xlink:href="classAnalogSensor.html" target="_top" xlink:title="Implementation of a Sensor for the analog readings.">
<polygon fill="none" stroke="black" points="123.5,-28 123.5,-118 225.5,-118 225.5,-28 123.5,-28"/>
<text text-anchor="middle" x="174.5" y="-106" font-family="Helvetica,sans-Serif" font-size="10.00">AnalogSensor</text>
<polyline fill="none" stroke="black" points="123.5,-99 225.5,-99 "/>
<text text-anchor="middle" x="174.5" y="-87" font-family="Helvetica,sans-Serif" font-size="10.00"> </text>
<polyline fill="none" stroke="black" points="123.5,-80 225.5,-80 "/>
<text text-anchor="start" x="131.5" y="-68" font-family="Helvetica,sans-Serif" font-size="10.00">+ AnalogSensor()</text>
<text text-anchor="start" x="131.5" y="-57" font-family="Helvetica,sans-Serif" font-size="10.00">+ AnalogSensor()</text>
<text text-anchor="start" x="131.5" y="-46" font-family="Helvetica,sans-Serif" font-size="10.00">+ verify()</text>
<text text-anchor="start" x="131.5" y="-35" font-family="Helvetica,sans-Serif" font-size="10.00">+ readData()</text>
</a>
</g>
</g>
<!-- Node1&#45;&gt;Node3 -->
<g id="edge2" class="edge">
<title>Node1&#45;&gt;Node3</title>
<path fill="none" stroke="midnightblue" d="M869.68,-292.9C730.73,-290.12 439.64,-268.71 234.5,-146 222.77,-138.98 212.28,-128.82 203.47,-118.33"/>
<polygon fill="none" stroke="midnightblue" points="869.76,-296.4 879.82,-293.07 869.88,-289.4 869.76,-296.4"/>
</g>
<!-- Node4 -->
<g id="node4" class="node">
<title>Node4</title>
<g id="a_node4"><a xlink:href="classBME280Sensor.html" target="_top" xlink:title="Implementation of a Sensor for the BME280.">
<polygon fill="none" stroke="black" points="243.5,-28 243.5,-118 351.5,-118 351.5,-28 243.5,-28"/>
<text text-anchor="middle" x="297.5" y="-106" font-family="Helvetica,sans-Serif" font-size="10.00">BME280Sensor</text>
<polyline fill="none" stroke="black" points="243.5,-99 351.5,-99 "/>
<text text-anchor="start" x="251.5" y="-87" font-family="Helvetica,sans-Serif" font-size="10.00">&#45; bme</text>
<polyline fill="none" stroke="black" points="243.5,-80 351.5,-80 "/>
<text text-anchor="start" x="251.5" y="-68" font-family="Helvetica,sans-Serif" font-size="10.00">+ BME280Sensor()</text>
<text text-anchor="start" x="251.5" y="-57" font-family="Helvetica,sans-Serif" font-size="10.00">+ BME280Sensor()</text>
<text text-anchor="start" x="251.5" y="-46" font-family="Helvetica,sans-Serif" font-size="10.00">+ verify()</text>
<text text-anchor="start" x="251.5" y="-35" font-family="Helvetica,sans-Serif" font-size="10.00">+ readData()</text>
</a>
</g>
</g>
<!-- Node1&#45;&gt;Node4 -->
<g id="edge3" class="edge">
<title>Node1&#45;&gt;Node4</title>
<path fill="none" stroke="midnightblue" d="M869.81,-287.76C750.88,-277.52 523.51,-245.46 360.5,-146 348.73,-138.82 337.97,-128.73 328.8,-118.36"/>
<polygon fill="none" stroke="midnightblue" points="869.67,-291.26 879.93,-288.6 870.25,-284.29 869.67,-291.26"/>
</g>
<!-- Node5 -->
<g id="node5" class="node">
<title>Node5</title>
<g id="a_node5"><a xlink:href="classBME680Sensor.html" target="_top" xlink:title="A class to interface with the Adafruit BME680 sensor for environmental data collection.">
<polygon fill="none" stroke="black" points="369.5,-28 369.5,-118 477.5,-118 477.5,-28 369.5,-28"/>
<text text-anchor="middle" x="423.5" y="-106" font-family="Helvetica,sans-Serif" font-size="10.00">BME680Sensor</text>
<polyline fill="none" stroke="black" points="369.5,-99 477.5,-99 "/>
<text text-anchor="start" x="377.5" y="-87" font-family="Helvetica,sans-Serif" font-size="10.00">&#45; bme</text>
<polyline fill="none" stroke="black" points="369.5,-80 477.5,-80 "/>
<text text-anchor="start" x="377.5" y="-68" font-family="Helvetica,sans-Serif" font-size="10.00">+ BME680Sensor()</text>
<text text-anchor="start" x="377.5" y="-57" font-family="Helvetica,sans-Serif" font-size="10.00">+ BME680Sensor()</text>
<text text-anchor="start" x="377.5" y="-46" font-family="Helvetica,sans-Serif" font-size="10.00">+ verify()</text>
<text text-anchor="start" x="377.5" y="-35" font-family="Helvetica,sans-Serif" font-size="10.00">+ readData()</text>
</a>
</g>
</g>
<!-- Node1&#45;&gt;Node5 -->
<g id="edge4" class="edge">
<title>Node1&#45;&gt;Node5</title>
<path fill="none" stroke="midnightblue" d="M869.67,-280.78C772.64,-263.64 606.95,-224.78 486.5,-146 475.1,-138.55 464.54,-128.48 455.45,-118.24"/>
<polygon fill="none" stroke="midnightblue" points="869.26,-284.26 879.71,-282.52 870.46,-277.37 869.26,-284.26"/>
</g>
<!-- Node6 -->
<g id="node6" class="node">
<title>Node6</title>
<g id="a_node6"><a xlink:href="classDS3231Sensor.html" target="_top" xlink:title="Implementation of a Sensor for the DS3231 Real Time Clock.">
<polygon fill="none" stroke="black" points="495.5,-22.5 495.5,-123.5 601.5,-123.5 601.5,-22.5 495.5,-22.5"/>
<text text-anchor="middle" x="548.5" y="-111.5" font-family="Helvetica,sans-Serif" font-size="10.00">DS3231Sensor</text>
<polyline fill="none" stroke="black" points="495.5,-104.5 601.5,-104.5 "/>
<text text-anchor="start" x="503.5" y="-92.5" font-family="Helvetica,sans-Serif" font-size="10.00">&#45; rtc</text>
<polyline fill="none" stroke="black" points="495.5,-85.5 601.5,-85.5 "/>
<text text-anchor="start" x="503.5" y="-73.5" font-family="Helvetica,sans-Serif" font-size="10.00">+ DS3231Sensor()</text>
<text text-anchor="start" x="503.5" y="-62.5" font-family="Helvetica,sans-Serif" font-size="10.00">+ DS3231Sensor()</text>
<text text-anchor="start" x="503.5" y="-51.5" font-family="Helvetica,sans-Serif" font-size="10.00">+ verify()</text>
<text text-anchor="start" x="503.5" y="-40.5" font-family="Helvetica,sans-Serif" font-size="10.00">+ readData()</text>
<text text-anchor="start" x="503.5" y="-29.5" font-family="Helvetica,sans-Serif" font-size="10.00">+ setTime()</text>
</a>
</g>
</g>
<!-- Node1&#45;&gt;Node6 -->
<g id="edge5" class="edge">
<title>Node1&#45;&gt;Node6</title>
<path fill="none" stroke="midnightblue" d="M869.84,-269.44C797.57,-246 690.43,-204.76 610.5,-146 601.86,-139.65 593.61,-131.88 586.11,-123.83"/>
<polygon fill="none" stroke="midnightblue" points="869.21,-272.92 879.8,-272.63 871.34,-266.25 869.21,-272.92"/>
</g>
<!-- Node7 -->
<g id="node7" class="node">
<title>Node7</title>
<g id="a_node7"><a xlink:href="classENS160Sensor.html" target="_top" xlink:title="Implementation of a Sensor for the ENS160.">
<polygon fill="none" stroke="black" points="619.5,-28 619.5,-118 725.5,-118 725.5,-28 619.5,-28"/>
<text text-anchor="middle" x="672.5" y="-106" font-family="Helvetica,sans-Serif" font-size="10.00">ENS160Sensor</text>
<polyline fill="none" stroke="black" points="619.5,-99 725.5,-99 "/>
<text text-anchor="start" x="627.5" y="-87" font-family="Helvetica,sans-Serif" font-size="10.00">&#45; ens</text>
<polyline fill="none" stroke="black" points="619.5,-80 725.5,-80 "/>
<text text-anchor="start" x="627.5" y="-68" font-family="Helvetica,sans-Serif" font-size="10.00">+ ENS160Sensor()</text>
<text text-anchor="start" x="627.5" y="-57" font-family="Helvetica,sans-Serif" font-size="10.00">+ ENS160Sensor()</text>
<text text-anchor="start" x="627.5" y="-46" font-family="Helvetica,sans-Serif" font-size="10.00">+ verify()</text>
<text text-anchor="start" x="627.5" y="-35" font-family="Helvetica,sans-Serif" font-size="10.00">+ readData()</text>
</a>
</g>
</g>
<!-- Node1&#45;&gt;Node7 -->
<g id="edge6" class="edge">
<title>Node1&#45;&gt;Node7</title>
<path fill="none" stroke="midnightblue" d="M871.2,-246.15C828.77,-219.36 776.57,-183.58 734.5,-146 725.15,-137.65 715.89,-127.91 707.48,-118.34"/>
<polygon fill="none" stroke="midnightblue" points="869.49,-249.21 879.82,-251.56 873.21,-243.28 869.49,-249.21"/>
</g>
<!-- Node8 -->
<g id="node8" class="node">
<title>Node8</title>
<g id="a_node8"><a xlink:href="classGeigerSensor.html" target="_top" xlink:title="A class for interfacing with a Geiger counter sensor.">
<polygon fill="none" stroke="black" points="744,-22.5 744,-123.5 873,-123.5 873,-22.5 744,-22.5"/>
<text text-anchor="middle" x="808.5" y="-111.5" font-family="Helvetica,sans-Serif" font-size="10.00">GeigerSensor</text>
<polyline fill="none" stroke="black" points="744,-104.5 873,-104.5 "/>
<text text-anchor="start" x="752" y="-92.5" font-family="Helvetica,sans-Serif" font-size="10.00">&#45; measuringPeriodStart</text>
<polyline fill="none" stroke="black" points="744,-85.5 873,-85.5 "/>
<text text-anchor="start" x="752" y="-73.5" font-family="Helvetica,sans-Serif" font-size="10.00">+ GeigerSensor()</text>
<text text-anchor="start" x="752" y="-62.5" font-family="Helvetica,sans-Serif" font-size="10.00">+ GeigerSensor()</text>
<text text-anchor="start" x="752" y="-51.5" font-family="Helvetica,sans-Serif" font-size="10.00">+ verify()</text>
<text text-anchor="start" x="752" y="-40.5" font-family="Helvetica,sans-Serif" font-size="10.00">+ readData()</text>
<text text-anchor="start" x="752" y="-29.5" font-family="Helvetica,sans-Serif" font-size="10.00">&#45; geigerCounter()</text>
</a>
</g>
</g>
<!-- Node1&#45;&gt;Node8 -->
<g id="edge7" class="edge">
<title>Node1&#45;&gt;Node8</title>
<path fill="none" stroke="midnightblue" d="M874.36,-176.05C862.46,-157.63 850.75,-139.47 840.57,-123.7"/>
<polygon fill="none" stroke="midnightblue" points="871.46,-178.03 879.83,-184.53 877.34,-174.23 871.46,-178.03"/>
</g>
<!-- Node9 -->
<g id="node9" class="node">
<title>Node9</title>
<g id="a_node9"><a xlink:href="classICM20948Sensor.html" target="_top" xlink:title="Implementation of the Sensor class for the Adafruit ICM20948 (9&#45;axis IMU)">
<polygon fill="none" stroke="black" points="891,-6 891,-140 1008,-140 1008,-6 891,-6"/>
<text text-anchor="middle" x="949.5" y="-128" font-family="Helvetica,sans-Serif" font-size="10.00">ICM20948Sensor</text>
<polyline fill="none" stroke="black" points="891,-121 1008,-121 "/>
<text text-anchor="start" x="899" y="-109" font-family="Helvetica,sans-Serif" font-size="10.00">&#45; icm</text>
<text text-anchor="start" x="899" y="-98" font-family="Helvetica,sans-Serif" font-size="10.00">&#45; icm_accel</text>
<text text-anchor="start" x="899" y="-87" font-family="Helvetica,sans-Serif" font-size="10.00">&#45; icm_gyro</text>
<text text-anchor="start" x="899" y="-76" font-family="Helvetica,sans-Serif" font-size="10.00">&#45; icm_mag</text>
<text text-anchor="start" x="899" y="-65" font-family="Helvetica,sans-Serif" font-size="10.00">&#45; icm_temp</text>
<polyline fill="none" stroke="black" points="891,-58 1008,-58 "/>
<text text-anchor="start" x="899" y="-46" font-family="Helvetica,sans-Serif" font-size="10.00">+ ICM20948Sensor()</text>
<text text-anchor="start" x="899" y="-35" font-family="Helvetica,sans-Serif" font-size="10.00">+ ICM20948Sensor()</text>
<text text-anchor="start" x="899" y="-24" font-family="Helvetica,sans-Serif" font-size="10.00">+ verify()</text>
<text text-anchor="start" x="899" y="-13" font-family="Helvetica,sans-Serif" font-size="10.00">+ readData()</text>
</a>
</g>
</g>
<!-- Node1&#45;&gt;Node9 -->
<g id="edge8" class="edge">
<title>Node1&#45;&gt;Node9</title>
<path fill="none" stroke="midnightblue" d="M949.5,-172.16C949.5,-161.17 949.5,-150.33 949.5,-140.09"/>
<polygon fill="none" stroke="midnightblue" points="946,-172.29 949.5,-182.29 953,-172.29 946,-172.29"/>
</g>
<!-- Node10 -->
<g id="node10" class="node">
<title>Node10</title>
<g id="a_node10"><a xlink:href="classINA260Sensor.html" target="_top" xlink:title="A class to interface with the Adafruit INA260 sensor for current, voltage, and power measurements.">
<polygon fill="none" stroke="black" points="1026.5,-28 1026.5,-118 1130.5,-118 1130.5,-28 1026.5,-28"/>
<text text-anchor="middle" x="1078.5" y="-106" font-family="Helvetica,sans-Serif" font-size="10.00">INA260Sensor</text>
<polyline fill="none" stroke="black" points="1026.5,-99 1130.5,-99 "/>
<text text-anchor="start" x="1034.5" y="-87" font-family="Helvetica,sans-Serif" font-size="10.00">&#45; ina260</text>
<polyline fill="none" stroke="black" points="1026.5,-80 1130.5,-80 "/>
<text text-anchor="start" x="1034.5" y="-68" font-family="Helvetica,sans-Serif" font-size="10.00">+ INA260Sensor()</text>
<text text-anchor="start" x="1034.5" y="-57" font-family="Helvetica,sans-Serif" font-size="10.00">+ INA260Sensor()</text>
<text text-anchor="start" x="1034.5" y="-46" font-family="Helvetica,sans-Serif" font-size="10.00">+ verify()</text>
<text text-anchor="start" x="1034.5" y="-35" font-family="Helvetica,sans-Serif" font-size="10.00">+ readData()</text>
</a>
</g>
</g>
<!-- Node1&#45;&gt;Node10 -->
<g id="edge9" class="edge">
<title>Node1&#45;&gt;Node10</title>
<path fill="none" stroke="midnightblue" d="M1019.77,-173.48C1031.45,-153.69 1042.88,-134.33 1052.51,-118.02"/>
<polygon fill="none" stroke="midnightblue" points="1016.64,-171.9 1014.57,-182.29 1022.66,-175.46 1016.64,-171.9"/>
</g>
<!-- Node11 -->
<g id="node11" class="node">
<title>Node11</title>
<g id="a_node11"><a xlink:href="classLSM9DS1Sensor.html" target="_top" xlink:title="Implementation of the Sensor class for the LSM9DS1 (9&#45;axis IMU)">
<polygon fill="none" stroke="black" points="1148.5,-0.5 1148.5,-145.5 1262.5,-145.5 1262.5,-0.5 1148.5,-0.5"/>
<text text-anchor="middle" x="1205.5" y="-133.5" font-family="Helvetica,sans-Serif" font-size="10.00">LSM9DS1Sensor</text>
<polyline fill="none" stroke="black" points="1148.5,-126.5 1262.5,-126.5 "/>
<text text-anchor="start" x="1156.5" y="-114.5" font-family="Helvetica,sans-Serif" font-size="10.00">&#45; lsm</text>
<text text-anchor="start" x="1156.5" y="-103.5" font-family="Helvetica,sans-Serif" font-size="10.00">&#45; accel_offsets</text>
<text text-anchor="start" x="1156.5" y="-92.5" font-family="Helvetica,sans-Serif" font-size="10.00">&#45; gyro_offsets</text>
<text text-anchor="start" x="1156.5" y="-81.5" font-family="Helvetica,sans-Serif" font-size="10.00">&#45; mag_offsets</text>
<polyline fill="none" stroke="black" points="1148.5,-74.5 1262.5,-74.5 "/>
<text text-anchor="start" x="1156.5" y="-62.5" font-family="Helvetica,sans-Serif" font-size="10.00">+ LSM9DS1Sensor()</text>
<text text-anchor="start" x="1156.5" y="-51.5" font-family="Helvetica,sans-Serif" font-size="10.00">+ LSM9DS1Sensor()</text>
<text text-anchor="start" x="1156.5" y="-40.5" font-family="Helvetica,sans-Serif" font-size="10.00">+ verify()</text>
<text text-anchor="start" x="1156.5" y="-29.5" font-family="Helvetica,sans-Serif" font-size="10.00">+ readData()</text>
<text text-anchor="start" x="1156.5" y="-18.5" font-family="Helvetica,sans-Serif" font-size="10.00">+ calibrate()</text>
<text text-anchor="start" x="1156.5" y="-7.5" font-family="Helvetica,sans-Serif" font-size="10.00">&#45; setupSensor()</text>
</a>
</g>
</g>
<!-- Node1&#45;&gt;Node11 -->
<g id="edge10" class="edge">
<title>Node1&#45;&gt;Node11</title>
<path fill="none" stroke="midnightblue" d="M1027.43,-237.16C1062.78,-210.87 1104.42,-178.21 1139.5,-146 1142.37,-143.36 1145.26,-140.62 1148.14,-137.81"/>
<polygon fill="none" stroke="midnightblue" points="1025.02,-234.59 1019.06,-243.35 1029.18,-240.22 1025.02,-234.59"/>
</g>
<!-- Node12 -->
<g id="node12" class="node">
<title>Node12</title>
<g id="a_node12"><a xlink:href="classMTK3339Sensor.html" target="_top" xlink:title="Implementation of the Adafruit MTK3339 GPS sensor.">
<polygon fill="none" stroke="black" points="1280.5,-28 1280.5,-118 1394.5,-118 1394.5,-28 1280.5,-28"/>
<text text-anchor="middle" x="1337.5" y="-106" font-family="Helvetica,sans-Serif" font-size="10.00">MTK3339Sensor</text>
<polyline fill="none" stroke="black" points="1280.5,-99 1394.5,-99 "/>
<text text-anchor="start" x="1288.5" y="-87" font-family="Helvetica,sans-Serif" font-size="10.00">&#45; GPS</text>
<polyline fill="none" stroke="black" points="1280.5,-80 1394.5,-80 "/>
<text text-anchor="start" x="1288.5" y="-68" font-family="Helvetica,sans-Serif" font-size="10.00">+ MTK3339Sensor()</text>
<text text-anchor="start" x="1288.5" y="-57" font-family="Helvetica,sans-Serif" font-size="10.00">+ MTK3339Sensor()</text>
<text text-anchor="start" x="1288.5" y="-46" font-family="Helvetica,sans-Serif" font-size="10.00">+ verify()</text>
<text text-anchor="start" x="1288.5" y="-35" font-family="Helvetica,sans-Serif" font-size="10.00">+ readData()</text>
</a>
</g>
</g>
<!-- Node1&#45;&gt;Node12 -->
<g id="edge11" class="edge">
<title>Node1&#45;&gt;Node12</title>
<path fill="none" stroke="midnightblue" d="M1028.96,-266.54C1097.19,-241.96 1196.18,-200.68 1271.5,-146 1282.48,-138.03 1293.04,-128.01 1302.37,-118"/>
<polygon fill="none" stroke="midnightblue" points="1027.36,-263.39 1019.12,-270.05 1029.71,-269.99 1027.36,-263.39"/>
</g>
<!-- Node13 -->
<g id="node13" class="node">
<title>Node13</title>
<g id="a_node13"><a xlink:href="classSGP30Sensor.html" target="_top" xlink:title="Implementation of a Sensor for the SGP Air Quality sensor.">
<polygon fill="none" stroke="black" points="1412.5,-28 1412.5,-118 1512.5,-118 1512.5,-28 1412.5,-28"/>
<text text-anchor="middle" x="1462.5" y="-106" font-family="Helvetica,sans-Serif" font-size="10.00">SGP30Sensor</text>
<polyline fill="none" stroke="black" points="1412.5,-99 1512.5,-99 "/>
<text text-anchor="start" x="1420.5" y="-87" font-family="Helvetica,sans-Serif" font-size="10.00">&#45; sgp</text>
<polyline fill="none" stroke="black" points="1412.5,-80 1512.5,-80 "/>
<text text-anchor="start" x="1420.5" y="-68" font-family="Helvetica,sans-Serif" font-size="10.00">+ SGP30Sensor()</text>
<text text-anchor="start" x="1420.5" y="-57" font-family="Helvetica,sans-Serif" font-size="10.00">+ SGP30Sensor()</text>
<text text-anchor="start" x="1420.5" y="-46" font-family="Helvetica,sans-Serif" font-size="10.00">+ verify()</text>
<text text-anchor="start" x="1420.5" y="-35" font-family="Helvetica,sans-Serif" font-size="10.00">+ readData()</text>
</a>
</g>
</g>
<!-- Node1&#45;&gt;Node13 -->
<g id="edge12" class="edge">
<title>Node1&#45;&gt;Node13</title>
<path fill="none" stroke="midnightblue" d="M1029.01,-280.92C1124.7,-263.98 1287,-225.4 1403.5,-146 1414.45,-138.54 1424.44,-128.47 1432.96,-118.23"/>
<polygon fill="none" stroke="midnightblue" points="1028.36,-277.48 1019.11,-282.64 1029.56,-284.38 1028.36,-277.48"/>
</g>
<!-- Node14 -->
<g id="node14" class="node">
<title>Node14</title>
<g id="a_node14"><a xlink:href="classSHT31Sensor.html" target="_top" xlink:title="Interfaces with SHT31 Sensor to collect temperature and humidity data.">
<polygon fill="none" stroke="black" points="1530.5,-22.5 1530.5,-123.5 1652.5,-123.5 1652.5,-22.5 1530.5,-22.5"/>
<text text-anchor="middle" x="1591.5" y="-111.5" font-family="Helvetica,sans-Serif" font-size="10.00">SHT31Sensor</text>
<polyline fill="none" stroke="black" points="1530.5,-104.5 1652.5,-104.5 "/>
<text text-anchor="start" x="1538.5" y="-92.5" font-family="Helvetica,sans-Serif" font-size="10.00">&#45; sht31</text>
<text text-anchor="start" x="1538.5" y="-81.5" font-family="Helvetica,sans-Serif" font-size="10.00">&#45; csvHeaderCompiled</text>
<polyline fill="none" stroke="black" points="1530.5,-74.5 1652.5,-74.5 "/>
<text text-anchor="start" x="1538.5" y="-62.5" font-family="Helvetica,sans-Serif" font-size="10.00">+ SHT31Sensor()</text>
<text text-anchor="start" x="1538.5" y="-51.5" font-family="Helvetica,sans-Serif" font-size="10.00">+ SHT31Sensor()</text>
<text text-anchor="start" x="1538.5" y="-40.5" font-family="Helvetica,sans-Serif" font-size="10.00">+ verify()</text>
<text text-anchor="start" x="1538.5" y="-29.5" font-family="Helvetica,sans-Serif" font-size="10.00">+ readData()</text>
</a>
</g>
</g>
<!-- Node1&#45;&gt;Node14 -->
<g id="edge13" class="edge">
<title>Node1&#45;&gt;Node14</title>
<path fill="none" stroke="midnightblue" d="M1029.4,-285.8C1144.93,-273.19 1362.21,-238.28 1521.5,-146 1531.76,-140.06 1541.51,-132.19 1550.29,-123.84"/>
<polygon fill="none" stroke="midnightblue" points="1028.8,-282.34 1019.22,-286.88 1029.54,-289.31 1028.8,-282.34"/>
</g>
<!-- Node15 -->
<g id="node15" class="node">
<title>Node15</title>
<g id="a_node15"><a xlink:href="classTempSensor.html" target="_top" xlink:title="Implementation of a Sensor for the onboard temperature sensor.">
<polygon fill="none" stroke="black" points="1671,-28 1671,-118 1766,-118 1766,-28 1671,-28"/>
<text text-anchor="middle" x="1718.5" y="-106" font-family="Helvetica,sans-Serif" font-size="10.00">TempSensor</text>
<polyline fill="none" stroke="black" points="1671,-99 1766,-99 "/>
<text text-anchor="middle" x="1718.5" y="-87" font-family="Helvetica,sans-Serif" font-size="10.00"> </text>
<polyline fill="none" stroke="black" points="1671,-80 1766,-80 "/>
<text text-anchor="start" x="1679" y="-68" font-family="Helvetica,sans-Serif" font-size="10.00">+ TempSensor()</text>
<text text-anchor="start" x="1679" y="-57" font-family="Helvetica,sans-Serif" font-size="10.00">+ TempSensor()</text>
<text text-anchor="start" x="1679" y="-46" font-family="Helvetica,sans-Serif" font-size="10.00">+ verify()</text>
<text text-anchor="start" x="1679" y="-35" font-family="Helvetica,sans-Serif" font-size="10.00">+ readData()</text>
</a>
</g>
</g>
<!-- Node1&#45;&gt;Node15 -->
<g id="edge14" class="edge">
<title>Node1&#45;&gt;Node15</title>
<path fill="none" stroke="midnightblue" d="M1028.96,-283.09C1191.53,-262.74 1555.72,-211.15 1661.5,-146 1672.9,-138.98 1682.96,-128.81 1691.33,-118.32"/>
<polygon fill="none" stroke="midnightblue" points="1028.51,-279.62 1019.02,-284.33 1029.37,-286.57 1028.51,-279.62"/>
</g>
<!-- Node16 -->
<g id="node16" class="node">
<title>Node16</title>
<g id="a_node16"><a xlink:href="classZOPT220Sensor.html" target="_top" xlink:title="A class to interface with the ZOPT220x UV and ambient light sensor.">
<polygon fill="none" stroke="black" points="1784,-28 1784,-118 1897,-118 1897,-28 1784,-28"/>
<text text-anchor="middle" x="1840.5" y="-106" font-family="Helvetica,sans-Serif" font-size="10.00">ZOPT220Sensor</text>
<polyline fill="none" stroke="black" points="1784,-99 1897,-99 "/>
<text text-anchor="start" x="1792" y="-87" font-family="Helvetica,sans-Serif" font-size="10.00">&#45; zopt</text>
<polyline fill="none" stroke="black" points="1784,-80 1897,-80 "/>
<text text-anchor="start" x="1792" y="-68" font-family="Helvetica,sans-Serif" font-size="10.00">+ ZOPT220Sensor()</text>
<text text-anchor="start" x="1792" y="-57" font-family="Helvetica,sans-Serif" font-size="10.00">+ ZOPT220Sensor()</text>
<text text-anchor="start" x="1792" y="-46" font-family="Helvetica,sans-Serif" font-size="10.00">+ verify()</text>
<text text-anchor="start" x="1792" y="-35" font-family="Helvetica,sans-Serif" font-size="10.00">+ readData()</text>
</a>
</g>
</g>
<!-- Node1&#45;&gt;Node16 -->
<g id="edge15" class="edge">
<title>Node1&#45;&gt;Node16</title>
<path fill="none" stroke="midnightblue" d="M1029.24,-285C1210.43,-266.89 1647.35,-217.01 1775.5,-146 1788.02,-139.06 1799.39,-128.79 1809,-118.17"/>
<polygon fill="none" stroke="midnightblue" points="1028.84,-281.52 1019.24,-285.99 1029.54,-288.48 1028.84,-281.52"/>
</g>
</g>
</svg>
