<?xml version="1.0" encoding="UTF-8" standalone="no"?>
<!DOCTYPE svg PUBLIC "-//W3C//DTD SVG 1.1//EN"
 "http://www.w3.org/Graphics/SVG/1.1/DTD/svg11.dtd">
<!-- Generated by graphviz version 2.43.0 (0)
 -->
<!-- Title: ErrorDisplay::addCode Pages: 1 -->
<svg width="404pt" height="104pt"
 viewBox="0.00 0.00 404.00 104.00" xmlns="http://www.w3.org/2000/svg" xmlns:xlink="http://www.w3.org/1999/xlink">
<g id="graph0" class="graph" transform="scale(1 1) rotate(0) translate(4 100)">
<title>ErrorDisplay::addCode</title>
<!-- Node1 -->
<g id="node1" class="node">
<title>Node1</title>
<g id="a_node1"><a xlink:title="Sets the error code to the given value if the given error is of a higher priority then the current er...">
<polygon fill="#bfbfbf" stroke="black" points="271,-38.5 271,-57.5 396,-57.5 396,-38.5 271,-38.5"/>
<text text-anchor="middle" x="333.5" y="-45.5" font-family="Helvetica,sans-Serif" font-size="10.00">ErrorDisplay::addCode</text>
</a>
</g>
</g>
<!-- Node2 -->
<g id="node2" class="node">
<title>Node2</title>
<g id="a_node2"><a xlink:href="main_8cpp.html#a4fc01d736fe50cf5b977f755b675f11d" target="_top" xlink:title="Setup for core 0.">
<polygon fill="none" stroke="black" points="162.5,-76.5 162.5,-95.5 206.5,-95.5 206.5,-76.5 162.5,-76.5"/>
<text text-anchor="middle" x="184.5" y="-83.5" font-family="Helvetica,sans-Serif" font-size="10.00">setup</text>
</a>
</g>
</g>
<!-- Node1&#45;&gt;Node2 -->
<g id="edge1" class="edge">
<title>Node1&#45;&gt;Node2</title>
<path fill="none" stroke="midnightblue" d="M285.54,-60.14C259.02,-67 227.17,-75.23 206.65,-80.53"/>
<polygon fill="midnightblue" stroke="midnightblue" points="286.6,-63.48 295.41,-57.59 284.85,-56.7 286.6,-63.48"/>
</g>
<!-- Node3 -->
<g id="node3" class="node">
<title>Node3</title>
<g id="a_node3"><a xlink:href="classSDStorage.html#a9450318396c536da92d44d9ebad33ec1" target="_top" xlink:title="Store data on the SD card, ending with newline.">
<polygon fill="none" stroke="black" points="0,-19.5 0,-38.5 98,-38.5 98,-19.5 0,-19.5"/>
<text text-anchor="middle" x="49" y="-26.5" font-family="Helvetica,sans-Serif" font-size="10.00">SDStorage::store</text>
</a>
</g>
</g>
<!-- Node1&#45;&gt;Node3 -->
<g id="edge2" class="edge">
<title>Node1&#45;&gt;Node3</title>
<path fill="none" stroke="midnightblue" d="M260.59,-43.16C209.76,-39.74 143,-35.26 98.41,-32.26"/>
<polygon fill="midnightblue" stroke="midnightblue" points="260.64,-46.67 270.85,-43.85 261.11,-39.69 260.64,-46.67"/>
</g>
<!-- Node4 -->
<g id="node4" class="node">
<title>Node4</title>
<g id="a_node4"><a xlink:href="classSDStorage.html#a2a08793ce2cb22bc0675f5cf4916155a" target="_top" xlink:title="Verify SD card connection and create a new, unique file.">
<polygon fill="none" stroke="black" points="134,-0.5 134,-19.5 235,-19.5 235,-0.5 134,-0.5"/>
<text text-anchor="middle" x="184.5" y="-7.5" font-family="Helvetica,sans-Serif" font-size="10.00">SDStorage::verify</text>
</a>
</g>
</g>
<!-- Node1&#45;&gt;Node4 -->
<g id="edge3" class="edge">
<title>Node1&#45;&gt;Node4</title>
<path fill="none" stroke="midnightblue" d="M285.65,-35.89C265.17,-30.6 241.51,-24.48 222.33,-19.52"/>
<polygon fill="midnightblue" stroke="midnightblue" points="284.85,-39.3 295.41,-38.41 286.6,-32.52 284.85,-39.3"/>
</g>
<!-- Node4&#45;&gt;Node3 -->
<g id="edge4" class="edge">
<title>Node4&#45;&gt;Node3</title>
<path fill="none" stroke="midnightblue" d="M123.61,-18.52C115.18,-19.72 106.6,-20.94 98.42,-22.11"/>
<polygon fill="midnightblue" stroke="midnightblue" points="124.38,-21.95 133.79,-17.07 123.4,-15.02 124.38,-21.95"/>
</g>
</g>
</svg>
