<?xml version="1.0" encoding="UTF-8" standalone="no"?>
<!DOCTYPE svg PUBLIC "-//W3C//DTD SVG 1.1//EN"
 "http://www.w3.org/Graphics/SVG/1.1/DTD/svg11.dtd">
<!-- Generated by graphviz version 2.43.0 (0)
 -->
<!-- Title: LSM9DS1Sensor Pages: 1 -->
<svg width="378pt" height="485pt"
 viewBox="0.00 0.00 378.00 485.00" xmlns="http://www.w3.org/2000/svg" xmlns:xlink="http://www.w3.org/1999/xlink">
<g id="graph0" class="graph" transform="scale(1 1) rotate(0) translate(4 481)">
<title>LSM9DS1Sensor</title>
<!-- Node1 -->
<g id="node1" class="node">
<title>Node1</title>
<g id="a_node1"><a xlink:title="Implementation of the Sensor class for the LSM9DS1 (9&#45;axis IMU)">
<polygon fill="#bfbfbf" stroke="black" points="165.5,-0.5 165.5,-112.5 279.5,-112.5 279.5,-0.5 165.5,-0.5"/>
<text text-anchor="middle" x="222.5" y="-100.5" font-family="Helvetica,sans-Serif" font-size="10.00">LSM9DS1Sensor</text>
<polyline fill="none" stroke="black" points="165.5,-93.5 279.5,-93.5 "/>
<text text-anchor="middle" x="222.5" y="-81.5" font-family="Helvetica,sans-Serif" font-size="10.00"> </text>
<polyline fill="none" stroke="black" points="165.5,-74.5 279.5,-74.5 "/>
<text text-anchor="start" x="173.5" y="-62.5" font-family="Helvetica,sans-Serif" font-size="10.00">+ LSM9DS1Sensor()</text>
<text text-anchor="start" x="173.5" y="-51.5" font-family="Helvetica,sans-Serif" font-size="10.00">+ LSM9DS1Sensor()</text>
<text text-anchor="start" x="173.5" y="-40.5" font-family="Helvetica,sans-Serif" font-size="10.00">+ verify()</text>
<text text-anchor="start" x="173.5" y="-29.5" font-family="Helvetica,sans-Serif" font-size="10.00">+ readData()</text>
<text text-anchor="start" x="173.5" y="-18.5" font-family="Helvetica,sans-Serif" font-size="10.00">+ calibrate()</text>
<text text-anchor="start" x="173.5" y="-7.5" font-family="Helvetica,sans-Serif" font-size="10.00">&#45; setupSensor()</text>
</a>
</g>
</g>
<!-- Node2 -->
<g id="node2" class="node">
<title>Node2</title>
<g id="a_node2"><a xlink:href="classSensor.html" target="_top" xlink:title="Parent class for sensor objects.">
<polygon fill="none" stroke="black" points="46,-182.5 46,-360.5 185,-360.5 185,-182.5 46,-182.5"/>
<text text-anchor="middle" x="115.5" y="-348.5" font-family="Helvetica,sans-Serif" font-size="10.00">Sensor</text>
<polyline fill="none" stroke="black" points="46,-341.5 185,-341.5 "/>
<text text-anchor="middle" x="115.5" y="-329.5" font-family="Helvetica,sans-Serif" font-size="10.00"> </text>
<polyline fill="none" stroke="black" points="46,-322.5 185,-322.5 "/>
<text text-anchor="start" x="54" y="-310.5" font-family="Helvetica,sans-Serif" font-size="10.00">+ Sensor()</text>
<text text-anchor="start" x="54" y="-299.5" font-family="Helvetica,sans-Serif" font-size="10.00">+ Sensor()</text>
<text text-anchor="start" x="54" y="-288.5" font-family="Helvetica,sans-Serif" font-size="10.00">+ getPeriod()</text>
<text text-anchor="start" x="54" y="-277.5" font-family="Helvetica,sans-Serif" font-size="10.00">+ setPeriod()</text>
<text text-anchor="start" x="54" y="-266.5" font-family="Helvetica,sans-Serif" font-size="10.00">+ getLastExecution()</text>
<text text-anchor="start" x="54" y="-255.5" font-family="Helvetica,sans-Serif" font-size="10.00">+ setLastExecution()</text>
<text text-anchor="start" x="54" y="-244.5" font-family="Helvetica,sans-Serif" font-size="10.00">+ getSensorName()</text>
<text text-anchor="start" x="54" y="-233.5" font-family="Helvetica,sans-Serif" font-size="10.00">+ getSensorCSVHeader()</text>
<text text-anchor="start" x="54" y="-222.5" font-family="Helvetica,sans-Serif" font-size="10.00">+ verify()</text>
<text text-anchor="start" x="54" y="-211.5" font-family="Helvetica,sans-Serif" font-size="10.00">+ readData()</text>
<text text-anchor="start" x="54" y="-200.5" font-family="Helvetica,sans-Serif" font-size="10.00">+ readEmpty()</text>
<text text-anchor="start" x="54" y="-189.5" font-family="Helvetica,sans-Serif" font-size="10.00">+ getDataCSV()</text>
</a>
</g>
</g>
<!-- Node2&#45;&gt;Node1 -->
<g id="edge1" class="edge">
<title>Node2&#45;&gt;Node1</title>
<path fill="none" stroke="midnightblue" d="M164.4,-173.16C174.82,-152.41 185.48,-131.2 194.77,-112.7"/>
<polygon fill="none" stroke="midnightblue" points="161.15,-171.82 159.79,-182.33 167.41,-174.96 161.15,-171.82"/>
</g>
<!-- Node3 -->
<g id="node3" class="node">
<title>Node3</title>
<g id="a_node3"><a xlink:title=" ">
<polygon fill="none" stroke="#bfbfbf" points="0,-419.5 0,-476.5 45,-476.5 45,-419.5 0,-419.5"/>
<text text-anchor="middle" x="22.5" y="-464.5" font-family="Helvetica,sans-Serif" font-size="10.00">String</text>
<polyline fill="none" stroke="#bfbfbf" points="0,-457.5 45,-457.5 "/>
<text text-anchor="middle" x="22.5" y="-445.5" font-family="Helvetica,sans-Serif" font-size="10.00"> </text>
<polyline fill="none" stroke="#bfbfbf" points="0,-438.5 45,-438.5 "/>
<text text-anchor="middle" x="22.5" y="-426.5" font-family="Helvetica,sans-Serif" font-size="10.00"> </text>
</a>
</g>
</g>
<!-- Node3&#45;&gt;Node2 -->
<g id="edge2" class="edge">
<title>Node3&#45;&gt;Node2</title>
<path fill="none" stroke="#404040" d="M27.98,-419.45C31.05,-406.77 35.5,-391.75 41.5,-379 42.71,-376.42 43.99,-373.84 45.31,-371.26"/>
<polygon fill="none" stroke="#404040" points="45.33,-371.22 44.66,-364.04 51.04,-360.67 51.7,-367.85 45.33,-371.22"/>
<text text-anchor="middle" x="76.5" y="-393" font-family="Helvetica,sans-Serif" font-size="10.00"> &#45;csv_header</text>
<text text-anchor="middle" x="76.5" y="-382" font-family="Helvetica,sans-Serif" font-size="10.00">&#45;sensor_name</text>
</g>
<!-- Node4 -->
<g id="node4" class="node">
<title>Node4</title>
<g id="a_node4"><a xlink:title=" ">
<polygon fill="none" stroke="#bfbfbf" points="73,-419.5 73,-476.5 158,-476.5 158,-419.5 73,-419.5"/>
<text text-anchor="middle" x="115.5" y="-464.5" font-family="Helvetica,sans-Serif" font-size="10.00">unsigned long</text>
<polyline fill="none" stroke="#bfbfbf" points="73,-457.5 158,-457.5 "/>
<text text-anchor="middle" x="115.5" y="-445.5" font-family="Helvetica,sans-Serif" font-size="10.00"> </text>
<polyline fill="none" stroke="#bfbfbf" points="73,-438.5 158,-438.5 "/>
<text text-anchor="middle" x="115.5" y="-426.5" font-family="Helvetica,sans-Serif" font-size="10.00"> </text>
</a>
</g>
</g>
<!-- Node4&#45;&gt;Node2 -->
<g id="edge3" class="edge">
<title>Node4&#45;&gt;Node2</title>
<path fill="none" stroke="#404040" d="M115.5,-419.35C115.5,-406.44 115.5,-390.18 115.5,-373.24"/>
<polygon fill="none" stroke="#404040" points="115.5,-372.81 111.5,-366.81 115.5,-360.81 119.5,-366.81 115.5,-372.81"/>
<text text-anchor="middle" x="159.5" y="-393" font-family="Helvetica,sans-Serif" font-size="10.00"> &#45;last_execution</text>
<text text-anchor="middle" x="159.5" y="-382" font-family="Helvetica,sans-Serif" font-size="10.00">&#45;minimum_period</text>
</g>
<!-- Node5 -->
<g id="node5" class="node">
<title>Node5</title>
<g id="a_node5"><a xlink:title=" ">
<polygon fill="none" stroke="#bfbfbf" points="212,-419.5 212,-476.5 241,-476.5 241,-419.5 212,-419.5"/>
<text text-anchor="middle" x="226.5" y="-464.5" font-family="Helvetica,sans-Serif" font-size="10.00">int</text>
<polyline fill="none" stroke="#bfbfbf" points="212,-457.5 241,-457.5 "/>
<text text-anchor="middle" x="226.5" y="-445.5" font-family="Helvetica,sans-Serif" font-size="10.00"> </text>
<polyline fill="none" stroke="#bfbfbf" points="212,-438.5 241,-438.5 "/>
<text text-anchor="middle" x="226.5" y="-426.5" font-family="Helvetica,sans-Serif" font-size="10.00"> </text>
</a>
</g>
</g>
<!-- Node5&#45;&gt;Node2 -->
<g id="edge4" class="edge">
<title>Node5&#45;&gt;Node2</title>
<path fill="none" stroke="#404040" d="M220.11,-419.21C216.54,-406.48 211.4,-391.49 204.5,-379 200.83,-372.36 196.72,-365.73 192.32,-359.23"/>
<polygon fill="none" stroke="#404040" points="192.12,-358.94 185.39,-356.33 185.21,-349.12 191.94,-351.73 192.12,-358.94"/>
<text text-anchor="middle" x="230.5" y="-387.5" font-family="Helvetica,sans-Serif" font-size="10.00"> &#45;fields</text>
</g>
<!-- Node6 -->
<g id="node6" class="node">
<title>Node6</title>
<g id="a_node6"><a xlink:title=" ">
<polygon fill="none" stroke="#bfbfbf" points="203.5,-243 203.5,-300 241.5,-300 241.5,-243 203.5,-243"/>
<text text-anchor="middle" x="222.5" y="-288" font-family="Helvetica,sans-Serif" font-size="10.00">float</text>
<polyline fill="none" stroke="#bfbfbf" points="203.5,-281 241.5,-281 "/>
<text text-anchor="middle" x="222.5" y="-269" font-family="Helvetica,sans-Serif" font-size="10.00"> </text>
<polyline fill="none" stroke="#bfbfbf" points="203.5,-262 241.5,-262 "/>
<text text-anchor="middle" x="222.5" y="-250" font-family="Helvetica,sans-Serif" font-size="10.00"> </text>
</a>
</g>
</g>
<!-- Node6&#45;&gt;Node1 -->
<g id="edge5" class="edge">
<title>Node6&#45;&gt;Node1</title>
<path fill="none" stroke="#404040" d="M222.5,-242.65C222.5,-212.92 222.5,-164.69 222.5,-124.91"/>
<polygon fill="none" stroke="#404040" points="222.5,-124.87 218.5,-118.87 222.5,-112.87 226.5,-118.87 222.5,-124.87"/>
<text text-anchor="middle" x="258" y="-156" font-family="Helvetica,sans-Serif" font-size="10.00"> &#45;accel_offsets</text>
<text text-anchor="middle" x="258" y="-145" font-family="Helvetica,sans-Serif" font-size="10.00">&#45;gyro_offsets</text>
<text text-anchor="middle" x="258" y="-134" font-family="Helvetica,sans-Serif" font-size="10.00">&#45;mag_offsets</text>
</g>
<!-- Node7 -->
<g id="node7" class="node">
<title>Node7</title>
<g id="a_node7"><a xlink:title=" ">
<polygon fill="none" stroke="#bfbfbf" points="263,-243 263,-300 370,-300 370,-243 263,-243"/>
<text text-anchor="middle" x="316.5" y="-288" font-family="Helvetica,sans-Serif" font-size="10.00">Adafruit_LSM9DS1</text>
<polyline fill="none" stroke="#bfbfbf" points="263,-281 370,-281 "/>
<text text-anchor="middle" x="316.5" y="-269" font-family="Helvetica,sans-Serif" font-size="10.00"> </text>
<polyline fill="none" stroke="#bfbfbf" points="263,-262 370,-262 "/>
<text text-anchor="middle" x="316.5" y="-250" font-family="Helvetica,sans-Serif" font-size="10.00"> </text>
</a>
</g>
</g>
<!-- Node7&#45;&gt;Node1 -->
<g id="edge6" class="edge">
<title>Node7&#45;&gt;Node1</title>
<path fill="none" stroke="#404040" d="M317.01,-242.78C316.46,-213.5 312.45,-166.71 294.5,-131 292.24,-126.51 289.61,-122.12 286.72,-117.86"/>
<polygon fill="none" stroke="#404040" points="286.69,-117.82 279.9,-115.38 279.54,-108.18 286.33,-110.62 286.69,-117.82"/>
<text text-anchor="middle" x="319" y="-145" font-family="Helvetica,sans-Serif" font-size="10.00"> &#45;lsm</text>
</g>
</g>
</svg>
