<?xml version="1.0" encoding="UTF-8" standalone="no"?>
<!DOCTYPE svg PUBLIC "-//W3C//DTD SVG 1.1//EN"
 "http://www.w3.org/Graphics/SVG/1.1/DTD/svg11.dtd">
<!-- Generated by graphviz version 2.43.0 (0)
 -->
<!-- Title: GeigerSensor Pages: 1 -->
<svg width="380pt" height="442pt"
 viewBox="0.00 0.00 379.50 442.00" xmlns="http://www.w3.org/2000/svg" xmlns:xlink="http://www.w3.org/1999/xlink">
<g id="graph0" class="graph" transform="scale(1 1) rotate(0) translate(4 438)">
<title>GeigerSensor</title>
<!-- Node1 -->
<g id="node1" class="node">
<title>Node1</title>
<g id="a_node1"><a xlink:title="A class for interfacing with a Geiger counter sensor.">
<polygon fill="#bfbfbf" stroke="black" points="158,-0.5 158,-101.5 259,-101.5 259,-0.5 158,-0.5"/>
<text text-anchor="middle" x="208.5" y="-89.5" font-family="Helvetica,sans-Serif" font-size="10.00">GeigerSensor</text>
<polyline fill="none" stroke="black" points="158,-82.5 259,-82.5 "/>
<text text-anchor="middle" x="208.5" y="-70.5" font-family="Helvetica,sans-Serif" font-size="10.00"> </text>
<polyline fill="none" stroke="black" points="158,-63.5 259,-63.5 "/>
<text text-anchor="start" x="166" y="-51.5" font-family="Helvetica,sans-Serif" font-size="10.00">+ GeigerSensor()</text>
<text text-anchor="start" x="166" y="-40.5" font-family="Helvetica,sans-Serif" font-size="10.00">+ GeigerSensor()</text>
<text text-anchor="start" x="166" y="-29.5" font-family="Helvetica,sans-Serif" font-size="10.00">+ verify()</text>
<text text-anchor="start" x="166" y="-18.5" font-family="Helvetica,sans-Serif" font-size="10.00">+ readData()</text>
<text text-anchor="start" x="166" y="-7.5" font-family="Helvetica,sans-Serif" font-size="10.00">&#45; geigerCounter()</text>
</a>
</g>
</g>
<!-- Node2 -->
<g id="node2" class="node">
<title>Node2</title>
<g id="a_node2"><a xlink:href="classSensor.html" target="_top" xlink:title="Parent class for sensor objects.">
<polygon fill="none" stroke="black" points="73,-139.5 73,-317.5 212,-317.5 212,-139.5 73,-139.5"/>
<text text-anchor="middle" x="142.5" y="-305.5" font-family="Helvetica,sans-Serif" font-size="10.00">Sensor</text>
<polyline fill="none" stroke="black" points="73,-298.5 212,-298.5 "/>
<text text-anchor="middle" x="142.5" y="-286.5" font-family="Helvetica,sans-Serif" font-size="10.00"> </text>
<polyline fill="none" stroke="black" points="73,-279.5 212,-279.5 "/>
<text text-anchor="start" x="81" y="-267.5" font-family="Helvetica,sans-Serif" font-size="10.00">+ Sensor()</text>
<text text-anchor="start" x="81" y="-256.5" font-family="Helvetica,sans-Serif" font-size="10.00">+ Sensor()</text>
<text text-anchor="start" x="81" y="-245.5" font-family="Helvetica,sans-Serif" font-size="10.00">+ getPeriod()</text>
<text text-anchor="start" x="81" y="-234.5" font-family="Helvetica,sans-Serif" font-size="10.00">+ setPeriod()</text>
<text text-anchor="start" x="81" y="-223.5" font-family="Helvetica,sans-Serif" font-size="10.00">+ getLastExecution()</text>
<text text-anchor="start" x="81" y="-212.5" font-family="Helvetica,sans-Serif" font-size="10.00">+ setLastExecution()</text>
<text text-anchor="start" x="81" y="-201.5" font-family="Helvetica,sans-Serif" font-size="10.00">+ getSensorName()</text>
<text text-anchor="start" x="81" y="-190.5" font-family="Helvetica,sans-Serif" font-size="10.00">+ getSensorCSVHeader()</text>
<text text-anchor="start" x="81" y="-179.5" font-family="Helvetica,sans-Serif" font-size="10.00">+ verify()</text>
<text text-anchor="start" x="81" y="-168.5" font-family="Helvetica,sans-Serif" font-size="10.00">+ readData()</text>
<text text-anchor="start" x="81" y="-157.5" font-family="Helvetica,sans-Serif" font-size="10.00">+ readEmpty()</text>
<text text-anchor="start" x="81" y="-146.5" font-family="Helvetica,sans-Serif" font-size="10.00">+ getDataCSV()</text>
</a>
</g>
</g>
<!-- Node2&#45;&gt;Node1 -->
<g id="edge1" class="edge">
<title>Node2&#45;&gt;Node1</title>
<path fill="none" stroke="midnightblue" d="M179.14,-130.07C182.83,-120.27 186.45,-110.63 189.83,-101.66"/>
<polygon fill="none" stroke="midnightblue" points="175.84,-128.9 175.6,-139.49 182.39,-131.36 175.84,-128.9"/>
</g>
<!-- Node3 -->
<g id="node3" class="node">
<title>Node3</title>
<g id="a_node3"><a xlink:title=" ">
<polygon fill="none" stroke="#bfbfbf" points="0,-376.5 0,-433.5 45,-433.5 45,-376.5 0,-376.5"/>
<text text-anchor="middle" x="22.5" y="-421.5" font-family="Helvetica,sans-Serif" font-size="10.00">String</text>
<polyline fill="none" stroke="#bfbfbf" points="0,-414.5 45,-414.5 "/>
<text text-anchor="middle" x="22.5" y="-402.5" font-family="Helvetica,sans-Serif" font-size="10.00"> </text>
<polyline fill="none" stroke="#bfbfbf" points="0,-395.5 45,-395.5 "/>
<text text-anchor="middle" x="22.5" y="-383.5" font-family="Helvetica,sans-Serif" font-size="10.00"> </text>
</a>
</g>
</g>
<!-- Node3&#45;&gt;Node2 -->
<g id="edge2" class="edge">
<title>Node3&#45;&gt;Node2</title>
<path fill="none" stroke="#404040" d="M27.04,-376.33C29.93,-363.49 34.49,-348.37 41.5,-336 48.11,-324.34 56.27,-312.98 65.05,-302.28"/>
<polygon fill="none" stroke="#404040" points="65.13,-302.19 65.98,-295.03 72.92,-293.06 72.07,-300.22 65.13,-302.19"/>
<text text-anchor="middle" x="76.5" y="-350" font-family="Helvetica,sans-Serif" font-size="10.00"> &#45;csv_header</text>
<text text-anchor="middle" x="76.5" y="-339" font-family="Helvetica,sans-Serif" font-size="10.00">&#45;sensor_name</text>
</g>
<!-- Node4 -->
<g id="node4" class="node">
<title>Node4</title>
<g id="a_node4"><a xlink:title=" ">
<polygon fill="none" stroke="#bfbfbf" points="73,-376.5 73,-433.5 158,-433.5 158,-376.5 73,-376.5"/>
<text text-anchor="middle" x="115.5" y="-421.5" font-family="Helvetica,sans-Serif" font-size="10.00">unsigned long</text>
<polyline fill="none" stroke="#bfbfbf" points="73,-414.5 158,-414.5 "/>
<text text-anchor="middle" x="115.5" y="-402.5" font-family="Helvetica,sans-Serif" font-size="10.00"> </text>
<polyline fill="none" stroke="#bfbfbf" points="73,-395.5 158,-395.5 "/>
<text text-anchor="middle" x="115.5" y="-383.5" font-family="Helvetica,sans-Serif" font-size="10.00"> </text>
</a>
</g>
</g>
<!-- Node4&#45;&gt;Node2 -->
<g id="edge3" class="edge">
<title>Node4&#45;&gt;Node2</title>
<path fill="none" stroke="#404040" d="M114.5,-376.44C114.42,-364.03 114.81,-349.23 116.5,-336 116.78,-333.83 117.08,-331.64 117.41,-329.43"/>
<polygon fill="none" stroke="#404040" points="117.42,-329.38 114.46,-322.81 119.39,-317.55 122.35,-324.12 117.42,-329.38"/>
<text text-anchor="middle" x="160.5" y="-350" font-family="Helvetica,sans-Serif" font-size="10.00"> &#45;last_execution</text>
<text text-anchor="middle" x="160.5" y="-339" font-family="Helvetica,sans-Serif" font-size="10.00">&#45;minimum_period</text>
</g>
<!-- Node5 -->
<g id="node5" class="node">
<title>Node5</title>
<g id="a_node5"><a xlink:title=" ">
<polygon fill="none" stroke="#bfbfbf" points="236,-376.5 236,-433.5 265,-433.5 265,-376.5 236,-376.5"/>
<text text-anchor="middle" x="250.5" y="-421.5" font-family="Helvetica,sans-Serif" font-size="10.00">int</text>
<polyline fill="none" stroke="#bfbfbf" points="236,-414.5 265,-414.5 "/>
<text text-anchor="middle" x="250.5" y="-402.5" font-family="Helvetica,sans-Serif" font-size="10.00"> </text>
<polyline fill="none" stroke="#bfbfbf" points="236,-395.5 265,-395.5 "/>
<text text-anchor="middle" x="250.5" y="-383.5" font-family="Helvetica,sans-Serif" font-size="10.00"> </text>
</a>
</g>
</g>
<!-- Node5&#45;&gt;Node1 -->
<g id="edge5" class="edge">
<title>Node5&#45;&gt;Node1</title>
<path fill="none" stroke="#404040" d="M257.5,-376.43C258.75,-370.39 259.85,-364.01 260.5,-358 261.54,-348.28 261.38,-345.74 260.5,-336 253.47,-258.52 235.85,-170.6 223.06,-113.37"/>
<polygon fill="none" stroke="#404040" points="223.06,-113.35 217.83,-108.38 220.41,-101.64 225.64,-106.61 223.06,-113.35"/>
<text text-anchor="middle" x="315" y="-226" font-family="Helvetica,sans-Serif" font-size="10.00"> &#45;measuringPeriodStart</text>
</g>
<!-- Node5&#45;&gt;Node2 -->
<g id="edge4" class="edge">
<title>Node5&#45;&gt;Node2</title>
<path fill="none" stroke="#404040" d="M235.93,-380.47C227.26,-366.44 215.59,-347.59 203.45,-327.98"/>
<polygon fill="none" stroke="#404040" points="203.38,-327.87 196.82,-324.87 197.07,-317.67 203.63,-320.66 203.38,-327.87"/>
<text text-anchor="middle" x="239.5" y="-344.5" font-family="Helvetica,sans-Serif" font-size="10.00"> &#45;fields</text>
</g>
</g>
</svg>
