<?xml version="1.0" encoding="UTF-8" standalone="no"?>
<!DOCTYPE svg PUBLIC "-//W3C//DTD SVG 1.1//EN"
 "http://www.w3.org/Graphics/SVG/1.1/DTD/svg11.dtd">
<!-- Generated by graphviz version 2.43.0 (0)
 -->
<!-- Title: FlashStorage Pages: 1 -->
<svg width="584pt" height="375pt"
 viewBox="0.00 0.00 584.00 375.00" xmlns="http://www.w3.org/2000/svg" xmlns:xlink="http://www.w3.org/1999/xlink">
<g id="graph0" class="graph" transform="scale(1 1) rotate(0) translate(4 371)">
<title>FlashStorage</title>
<!-- Node1 -->
<g id="node1" class="node">
<title>Node1</title>
<g id="a_node1"><a xlink:title=" ">
<polygon fill="#bfbfbf" stroke="black" points="287.5,-0.5 287.5,-112.5 386.5,-112.5 386.5,-0.5 287.5,-0.5"/>
<text text-anchor="middle" x="337" y="-100.5" font-family="Helvetica,sans-Serif" font-size="10.00">FlashStorage</text>
<polyline fill="none" stroke="black" points="287.5,-93.5 386.5,-93.5 "/>
<text text-anchor="middle" x="337" y="-81.5" font-family="Helvetica,sans-Serif" font-size="10.00"> </text>
<polyline fill="none" stroke="black" points="287.5,-74.5 386.5,-74.5 "/>
<text text-anchor="start" x="295.5" y="-62.5" font-family="Helvetica,sans-Serif" font-size="10.00">+ FlashStorage()</text>
<text text-anchor="start" x="295.5" y="-51.5" font-family="Helvetica,sans-Serif" font-size="10.00">+ verify()</text>
<text text-anchor="start" x="295.5" y="-40.5" font-family="Helvetica,sans-Serif" font-size="10.00">+ store()</text>
<text text-anchor="start" x="295.5" y="-29.5" font-family="Helvetica,sans-Serif" font-size="10.00">+ dump()</text>
<text text-anchor="start" x="295.5" y="-18.5" font-family="Helvetica,sans-Serif" font-size="10.00">+ erase()</text>
<text text-anchor="start" x="295.5" y="-7.5" font-family="Helvetica,sans-Serif" font-size="10.00">&#45; loadPosition()</text>
</a>
</g>
</g>
<!-- Node2 -->
<g id="node2" class="node">
<title>Node2</title>
<g id="a_node2"><a xlink:href="classStorage.html" target="_top" xlink:title="Parent class for all data storage devices (sd card, radio, etc)">
<polygon fill="none" stroke="black" points="0,-171.5 0,-261.5 118,-261.5 118,-171.5 0,-171.5"/>
<text text-anchor="middle" x="59" y="-249.5" font-family="Helvetica,sans-Serif" font-size="10.00">Storage</text>
<polyline fill="none" stroke="black" points="0,-242.5 118,-242.5 "/>
<text text-anchor="middle" x="59" y="-230.5" font-family="Helvetica,sans-Serif" font-size="10.00"> </text>
<polyline fill="none" stroke="black" points="0,-223.5 118,-223.5 "/>
<text text-anchor="start" x="8" y="-211.5" font-family="Helvetica,sans-Serif" font-size="10.00">+ Storage()</text>
<text text-anchor="start" x="8" y="-200.5" font-family="Helvetica,sans-Serif" font-size="10.00">+ getStorageName()</text>
<text text-anchor="start" x="8" y="-189.5" font-family="Helvetica,sans-Serif" font-size="10.00">+ verify()</text>
<text text-anchor="start" x="8" y="-178.5" font-family="Helvetica,sans-Serif" font-size="10.00">+ store()</text>
</a>
</g>
</g>
<!-- Node2&#45;&gt;Node1 -->
<g id="edge1" class="edge">
<title>Node2&#45;&gt;Node1</title>
<path fill="none" stroke="midnightblue" d="M126.73,-171.17C126.82,-171.11 126.91,-171.06 127,-171 155.64,-152.82 162.4,-147.57 192,-131 223.27,-113.49 259.21,-95.26 287.47,-81.34"/>
<polygon fill="none" stroke="midnightblue" points="124.82,-168.24 118.28,-176.57 128.59,-174.14 124.82,-168.24"/>
</g>
<!-- Node3 -->
<g id="node3" class="node">
<title>Node3</title>
<g id="a_node3"><a xlink:title=" ">
<polygon fill="none" stroke="#bfbfbf" points="36.5,-309.5 36.5,-366.5 81.5,-366.5 81.5,-309.5 36.5,-309.5"/>
<text text-anchor="middle" x="59" y="-354.5" font-family="Helvetica,sans-Serif" font-size="10.00">String</text>
<polyline fill="none" stroke="#bfbfbf" points="36.5,-347.5 81.5,-347.5 "/>
<text text-anchor="middle" x="59" y="-335.5" font-family="Helvetica,sans-Serif" font-size="10.00"> </text>
<polyline fill="none" stroke="#bfbfbf" points="36.5,-328.5 81.5,-328.5 "/>
<text text-anchor="middle" x="59" y="-316.5" font-family="Helvetica,sans-Serif" font-size="10.00"> </text>
</a>
</g>
</g>
<!-- Node3&#45;&gt;Node2 -->
<g id="edge2" class="edge">
<title>Node3&#45;&gt;Node2</title>
<path fill="none" stroke="#404040" d="M59,-309.28C59,-298.73 59,-286.29 59,-274.03"/>
<polygon fill="none" stroke="#404040" points="59,-273.91 55,-267.91 59,-261.91 63,-267.91 59,-273.91"/>
<text text-anchor="middle" x="97.5" y="-283" font-family="Helvetica,sans-Serif" font-size="10.00"> &#45;storage_name</text>
</g>
<!-- Node4 -->
<g id="node4" class="node">
<title>Node4</title>
<g id="a_node4"><a xlink:title=" ">
<polygon fill="none" stroke="#bfbfbf" points="136,-188 136,-245 252,-245 252,-188 136,-188"/>
<text text-anchor="middle" x="194" y="-233" font-family="Helvetica,sans-Serif" font-size="10.00">static const uint32_t</text>
<polyline fill="none" stroke="#bfbfbf" points="136,-226 252,-226 "/>
<text text-anchor="middle" x="194" y="-214" font-family="Helvetica,sans-Serif" font-size="10.00"> </text>
<polyline fill="none" stroke="#bfbfbf" points="136,-207 252,-207 "/>
<text text-anchor="middle" x="194" y="-195" font-family="Helvetica,sans-Serif" font-size="10.00"> </text>
</a>
</g>
</g>
<!-- Node4&#45;&gt;Node1 -->
<g id="edge3" class="edge">
<title>Node4&#45;&gt;Node1</title>
<path fill="none" stroke="#404040" d="M191.53,-187.79C191.34,-170.12 193.79,-147.53 205,-131 221.87,-106.14 250.07,-88.81 276.08,-77.25"/>
<polygon fill="none" stroke="#404040" points="276.38,-77.13 280.37,-71.12 287.45,-72.49 283.46,-78.5 276.38,-77.13"/>
<text text-anchor="middle" x="265" y="-145" font-family="Helvetica,sans-Serif" font-size="10.00"> &#45;DATA_START_POSITION</text>
<text text-anchor="middle" x="265" y="-134" font-family="Helvetica,sans-Serif" font-size="10.00">&#45;MAX_SIZE</text>
</g>
<!-- Node5 -->
<g id="node5" class="node">
<title>Node5</title>
<g id="a_node5"><a xlink:title=" ">
<polygon fill="none" stroke="#bfbfbf" points="296,-188 296,-245 352,-245 352,-188 296,-188"/>
<text text-anchor="middle" x="324" y="-233" font-family="Helvetica,sans-Serif" font-size="10.00">uint32_t</text>
<polyline fill="none" stroke="#bfbfbf" points="296,-226 352,-226 "/>
<text text-anchor="middle" x="324" y="-214" font-family="Helvetica,sans-Serif" font-size="10.00"> </text>
<polyline fill="none" stroke="#bfbfbf" points="296,-207 352,-207 "/>
<text text-anchor="middle" x="324" y="-195" font-family="Helvetica,sans-Serif" font-size="10.00"> </text>
</a>
</g>
</g>
<!-- Node5&#45;&gt;Node1 -->
<g id="edge4" class="edge">
<title>Node5&#45;&gt;Node1</title>
<path fill="none" stroke="#404040" d="M326.26,-187.98C327.71,-170.45 329.64,-146.93 331.47,-124.68"/>
<polygon fill="none" stroke="#404040" points="331.49,-124.46 328,-118.16 332.47,-112.5 335.97,-118.81 331.49,-124.46"/>
<text text-anchor="middle" x="353" y="-139.5" font-family="Helvetica,sans-Serif" font-size="10.00"> &#45;position</text>
</g>
<!-- Node6 -->
<g id="node6" class="node">
<title>Node6</title>
<g id="a_node6"><a xlink:title=" ">
<polygon fill="none" stroke="#bfbfbf" points="370.5,-188 370.5,-245 465.5,-245 465.5,-188 370.5,-188"/>
<text text-anchor="middle" x="418" y="-233" font-family="Helvetica,sans-Serif" font-size="10.00">SPIClassRP2040</text>
<polyline fill="none" stroke="#bfbfbf" points="370.5,-226 465.5,-226 "/>
<text text-anchor="middle" x="418" y="-214" font-family="Helvetica,sans-Serif" font-size="10.00"> </text>
<polyline fill="none" stroke="#bfbfbf" points="370.5,-207 465.5,-207 "/>
<text text-anchor="middle" x="418" y="-195" font-family="Helvetica,sans-Serif" font-size="10.00"> </text>
</a>
</g>
</g>
<!-- Node6&#45;&gt;Node1 -->
<g id="edge5" class="edge">
<title>Node6&#45;&gt;Node1</title>
<path fill="none" stroke="#404040" d="M406.41,-187.75C399.23,-171.09 389.58,-149.59 380,-131 378.69,-128.45 377.32,-125.86 375.93,-123.26"/>
<polygon fill="none" stroke="#404040" points="375.81,-123.05 369.42,-119.72 370.04,-112.53 376.44,-115.87 375.81,-123.05"/>
<text text-anchor="middle" x="420.5" y="-139.5" font-family="Helvetica,sans-Serif" font-size="10.00"> &#45;flash_spi_1</text>
</g>
<!-- Node7 -->
<g id="node7" class="node">
<title>Node7</title>
<g id="a_node7"><a xlink:title=" ">
<polygon fill="none" stroke="#bfbfbf" points="484,-188 484,-245 576,-245 576,-188 484,-188"/>
<text text-anchor="middle" x="530" y="-233" font-family="Helvetica,sans-Serif" font-size="10.00">SFE_SPI_FLASH</text>
<polyline fill="none" stroke="#bfbfbf" points="484,-226 576,-226 "/>
<text text-anchor="middle" x="530" y="-214" font-family="Helvetica,sans-Serif" font-size="10.00"> </text>
<polyline fill="none" stroke="#bfbfbf" points="484,-207 576,-207 "/>
<text text-anchor="middle" x="530" y="-195" font-family="Helvetica,sans-Serif" font-size="10.00"> </text>
</a>
</g>
</g>
<!-- Node7&#45;&gt;Node1 -->
<g id="edge6" class="edge">
<title>Node7&#45;&gt;Node1</title>
<path fill="none" stroke="#404040" d="M508.82,-187.77C494.69,-170.31 475.09,-147.95 455,-131 437.34,-116.09 416.38,-102.05 397.06,-90.32"/>
<polygon fill="none" stroke="#404040" points="396.83,-90.19 389.63,-90.55 386.52,-84.04 393.72,-83.68 396.83,-90.19"/>
<text text-anchor="middle" x="492.5" y="-139.5" font-family="Helvetica,sans-Serif" font-size="10.00"> &#45;flash</text>
</g>
</g>
</svg>
