<?xml version="1.0" encoding="UTF-8" standalone="no"?>
<!DOCTYPE svg PUBLIC "-//W3C//DTD SVG 1.1//EN"
 "http://www.w3.org/Graphics/SVG/1.1/DTD/svg11.dtd">
<!-- Generated by graphviz version 2.43.0 (0)
 -->
<!-- Title: SDStorage Pages: 1 -->
<svg width="319pt" height="331pt"
 viewBox="0.00 0.00 319.00 331.00" xmlns="http://www.w3.org/2000/svg" xmlns:xlink="http://www.w3.org/1999/xlink">
<g id="graph0" class="graph" transform="scale(1 1) rotate(0) translate(4 327)">
<title>SDStorage</title>
<!-- Node1 -->
<g id="node1" class="node">
<title>Node1</title>
<g id="a_node1"><a xlink:title="Implementation of a Storage device to interface with an SD card.">
<polygon fill="#bfbfbf" stroke="black" points="95.5,-0.5 95.5,-79.5 181.5,-79.5 181.5,-0.5 95.5,-0.5"/>
<text text-anchor="middle" x="138.5" y="-67.5" font-family="Helvetica,sans-Serif" font-size="10.00">SDStorage</text>
<polyline fill="none" stroke="black" points="95.5,-60.5 181.5,-60.5 "/>
<text text-anchor="middle" x="138.5" y="-48.5" font-family="Helvetica,sans-Serif" font-size="10.00"> </text>
<polyline fill="none" stroke="black" points="95.5,-41.5 181.5,-41.5 "/>
<text text-anchor="start" x="103.5" y="-29.5" font-family="Helvetica,sans-Serif" font-size="10.00">+ SDStorage()</text>
<text text-anchor="start" x="103.5" y="-18.5" font-family="Helvetica,sans-Serif" font-size="10.00">+ verify()</text>
<text text-anchor="start" x="103.5" y="-7.5" font-family="Helvetica,sans-Serif" font-size="10.00">+ store()</text>
</a>
</g>
</g>
<!-- Node2 -->
<g id="node2" class="node">
<title>Node2</title>
<g id="a_node2"><a xlink:href="classStorage.html" target="_top" xlink:title="Parent class for all data storage devices (sd card, radio, etc)">
<polygon fill="none" stroke="black" points="79.5,-127.5 79.5,-217.5 197.5,-217.5 197.5,-127.5 79.5,-127.5"/>
<text text-anchor="middle" x="138.5" y="-205.5" font-family="Helvetica,sans-Serif" font-size="10.00">Storage</text>
<polyline fill="none" stroke="black" points="79.5,-198.5 197.5,-198.5 "/>
<text text-anchor="middle" x="138.5" y="-186.5" font-family="Helvetica,sans-Serif" font-size="10.00"> </text>
<polyline fill="none" stroke="black" points="79.5,-179.5 197.5,-179.5 "/>
<text text-anchor="start" x="87.5" y="-167.5" font-family="Helvetica,sans-Serif" font-size="10.00">+ Storage()</text>
<text text-anchor="start" x="87.5" y="-156.5" font-family="Helvetica,sans-Serif" font-size="10.00">+ getStorageName()</text>
<text text-anchor="start" x="87.5" y="-145.5" font-family="Helvetica,sans-Serif" font-size="10.00">+ verify()</text>
<text text-anchor="start" x="87.5" y="-134.5" font-family="Helvetica,sans-Serif" font-size="10.00">+ store()</text>
</a>
</g>
</g>
<!-- Node2&#45;&gt;Node1 -->
<g id="edge1" class="edge">
<title>Node2&#45;&gt;Node1</title>
<path fill="none" stroke="midnightblue" d="M138.5,-117.02C138.5,-104.55 138.5,-91.55 138.5,-79.89"/>
<polygon fill="none" stroke="midnightblue" points="135,-117.32 138.5,-127.32 142,-117.32 135,-117.32"/>
</g>
<!-- Node3 -->
<g id="node3" class="node">
<title>Node3</title>
<g id="a_node3"><a xlink:title=" ">
<polygon fill="none" stroke="#bfbfbf" points="0,-265.5 0,-322.5 45,-322.5 45,-265.5 0,-265.5"/>
<text text-anchor="middle" x="22.5" y="-310.5" font-family="Helvetica,sans-Serif" font-size="10.00">String</text>
<polyline fill="none" stroke="#bfbfbf" points="0,-303.5 45,-303.5 "/>
<text text-anchor="middle" x="22.5" y="-291.5" font-family="Helvetica,sans-Serif" font-size="10.00"> </text>
<polyline fill="none" stroke="#bfbfbf" points="0,-284.5 45,-284.5 "/>
<text text-anchor="middle" x="22.5" y="-272.5" font-family="Helvetica,sans-Serif" font-size="10.00"> </text>
</a>
</g>
</g>
<!-- Node3&#45;&gt;Node1 -->
<g id="edge3" class="edge">
<title>Node3&#45;&gt;Node1</title>
<path fill="none" stroke="#404040" d="M13.33,-265.32C3.62,-230.81 -7.42,-171 15.5,-127 30.14,-98.89 58.64,-78.08 84.51,-63.98"/>
<polygon fill="none" stroke="#404040" points="84.74,-63.86 88.23,-57.55 95.39,-58.34 91.91,-64.65 84.74,-63.86"/>
<text text-anchor="middle" x="43" y="-170" font-family="Helvetica,sans-Serif" font-size="10.00"> &#45;file_name</text>
</g>
<!-- Node3&#45;&gt;Node2 -->
<g id="edge2" class="edge">
<title>Node3&#45;&gt;Node2</title>
<path fill="none" stroke="#404040" d="M45.14,-269.68C57.16,-257.3 72.45,-241.55 87.16,-226.39"/>
<polygon fill="none" stroke="#404040" points="87.36,-226.18 88.67,-219.09 95.72,-217.57 94.41,-224.66 87.36,-226.18"/>
<text text-anchor="middle" x="116" y="-239" font-family="Helvetica,sans-Serif" font-size="10.00"> &#45;storage_name</text>
</g>
<!-- Node4 -->
<g id="node4" class="node">
<title>Node4</title>
<g id="a_node4"><a xlink:title=" ">
<polygon fill="none" stroke="#bfbfbf" points="216,-144 216,-201 311,-201 311,-144 216,-144"/>
<text text-anchor="middle" x="263.5" y="-189" font-family="Helvetica,sans-Serif" font-size="10.00">SPIClassRP2040</text>
<polyline fill="none" stroke="#bfbfbf" points="216,-182 311,-182 "/>
<text text-anchor="middle" x="263.5" y="-170" font-family="Helvetica,sans-Serif" font-size="10.00"> </text>
<polyline fill="none" stroke="#bfbfbf" points="216,-163 311,-163 "/>
<text text-anchor="middle" x="263.5" y="-151" font-family="Helvetica,sans-Serif" font-size="10.00"> </text>
</a>
</g>
</g>
<!-- Node4&#45;&gt;Node1 -->
<g id="edge4" class="edge">
<title>Node4&#45;&gt;Node1</title>
<path fill="none" stroke="#404040" d="M236.99,-143.82C221.52,-127.68 201.6,-106.87 183.72,-88.21"/>
<polygon fill="none" stroke="#404040" points="183.7,-88.19 176.66,-86.63 175.4,-79.53 182.44,-81.09 183.7,-88.19"/>
<text text-anchor="middle" x="226" y="-101" font-family="Helvetica,sans-Serif" font-size="10.00"> &#45;sd_spi_1</text>
</g>
</g>
</svg>
