<?xml version="1.0" encoding="UTF-8" standalone="no"?>
<!DOCTYPE svg PUBLIC "-//W3C//DTD SVG 1.1//EN"
 "http://www.w3.org/Graphics/SVG/1.1/DTD/svg11.dtd">
<!-- Generated by graphviz version 2.43.0 (0)
 -->
<!-- Title: ZOPT220x_Control::setI2CAdr53 Pages: 1 -->
<svg width="378pt" height="86pt"
 viewBox="0.00 0.00 378.00 86.00" xmlns="http://www.w3.org/2000/svg" xmlns:xlink="http://www.w3.org/1999/xlink">
<g id="graph0" class="graph" transform="scale(1 1) rotate(0) translate(4 82)">
<title>ZOPT220x_Control::setI2CAdr53</title>
<!-- Node1 -->
<g id="Node000001" class="node">
<title>Node1</title>
<g id="a_Node000001"><a xlink:title=" ">
<polygon fill="#999999" stroke="#666666" points="173,-48.5 0,-48.5 0,-29.5 173,-29.5 173,-48.5"/>
<text text-anchor="middle" x="86.5" y="-36.5" font-family="Helvetica,sans-Serif" font-size="10.00">ZOPT220x_Control::setI2CAdr53</text>
</a>
</g>
</g>
<!-- Node2 -->
<g id="Node000002" class="node">
<title>Node2</title>
<g id="a_Node000002"><a xlink:href="classZOPT220x__Control.html#a58c74577acc1183a66b1f9b9281551a3" target="_top" xlink:title=" ">
<polygon fill="white" stroke="#666666" points="369,-78 210,-78 210,-48 369,-48 369,-78"/>
<text text-anchor="start" x="218" y="-66" font-family="Helvetica,sans-Serif" font-size="10.00">ZOPT220x_Control::zoptRead</text>
<text text-anchor="middle" x="289.5" y="-55" font-family="Helvetica,sans-Serif" font-size="10.00">Register</text>
</a>
</g>
</g>
<!-- Node1&#45;&gt;Node2 -->
<g id="edge1_Node000001_Node000002" class="edge">
<title>Node1&#45;&gt;Node2</title>
<g id="a_edge1_Node000001_Node000002"><a xlink:title=" ">
<path fill="none" stroke="#63b8ff" d="M167.23,-48.52C177.86,-49.79 188.82,-51.1 199.59,-52.38"/>
<polygon fill="#63b8ff" stroke="#63b8ff" points="199.51,-55.9 209.85,-53.61 200.34,-48.95 199.51,-55.9"/>
</a>
</g>
</g>
<!-- Node3 -->
<g id="Node000003" class="node">
<title>Node3</title>
<g id="a_Node000003"><a xlink:href="classZOPT220x__Control.html#ab5f43fd630eaaadeea212559e12648be" target="_top" xlink:title=" ">
<polygon fill="white" stroke="#666666" points="370,-30 209,-30 209,0 370,0 370,-30"/>
<text text-anchor="start" x="217" y="-18" font-family="Helvetica,sans-Serif" font-size="10.00">ZOPT220x_Control::zoptWrite</text>
<text text-anchor="middle" x="289.5" y="-7" font-family="Helvetica,sans-Serif" font-size="10.00">Register</text>
</a>
</g>
</g>
<!-- Node1&#45;&gt;Node3 -->
<g id="edge2_Node000001_Node000003" class="edge">
<title>Node1&#45;&gt;Node3</title>
<g id="a_edge2_Node000001_Node000003"><a xlink:title=" ">
<path fill="none" stroke="#63b8ff" d="M167.23,-29.48C177.61,-28.24 188.3,-26.96 198.83,-25.71"/>
<polygon fill="#63b8ff" stroke="#63b8ff" points="199.35,-29.17 208.87,-24.51 198.52,-22.22 199.35,-29.17"/>
</a>
</g>
</g>
</g>
</svg>
