<?xml version="1.0" encoding="UTF-8" standalone="no"?>
<!DOCTYPE svg PUBLIC "-//W3C//DTD SVG 1.1//EN"
 "http://www.w3.org/Graphics/SVG/1.1/DTD/svg11.dtd">
<!-- Generated by graphviz version 2.43.0 (0)
 -->
<!-- Title: ZOPT220x_Control::setMode Pages: 1 -->
<svg width="532pt" height="172pt"
 viewBox="0.00 0.00 532.00 171.50" xmlns="http://www.w3.org/2000/svg" xmlns:xlink="http://www.w3.org/1999/xlink">
<g id="graph0" class="graph" transform="scale(1 1) rotate(0) translate(4 167.5)">
<title>ZOPT220x_Control::setMode</title>
<!-- Node1 -->
<g id="Node000001" class="node">
<title>Node1</title>
<g id="a_Node000001"><a xlink:title=" ">
<polygon fill="#999999" stroke="#666666" points="524,-86 369,-86 369,-67 524,-67 524,-86"/>
<text text-anchor="middle" x="446.5" y="-74" font-family="Helvetica,sans-Serif" font-size="10.00">ZOPT220x_Control::setMode</text>
</a>
</g>
</g>
<!-- Node2 -->
<g id="Node000002" class="node">
<title>Node2</title>
<g id="a_Node000002"><a xlink:href="classZOPT220x__Control.html#a27c0821f9341f36d87c9388ce7bf4ee5" target="_top" xlink:title=" ">
<polygon fill="white" stroke="#666666" points="330,-163.5 184,-163.5 184,-133.5 330,-133.5 330,-163.5"/>
<text text-anchor="start" x="192" y="-151.5" font-family="Helvetica,sans-Serif" font-size="10.00">ZOPT220x_Control::enable</text>
<text text-anchor="middle" x="257" y="-140.5" font-family="Helvetica,sans-Serif" font-size="10.00">ALSSensing</text>
</a>
</g>
</g>
<!-- Node1&#45;&gt;Node2 -->
<g id="edge1_Node000001_Node000002" class="edge">
<title>Node1&#45;&gt;Node2</title>
<g id="a_edge1_Node000001_Node000002"><a xlink:title=" ">
<path fill="none" stroke="#63b8ff" d="M415.25,-90.32C392.78,-100.36 361.26,-113.98 333,-124.5 324.8,-127.55 316.01,-130.58 307.44,-133.4"/>
<polygon fill="#63b8ff" stroke="#63b8ff" points="416.9,-93.41 424.59,-86.12 414.03,-87.03 416.9,-93.41"/>
</a>
</g>
</g>
<!-- Node4 -->
<g id="Node000004" class="node">
<title>Node4</title>
<g id="a_Node000004"><a xlink:href="classZOPT220x__Control.html#a0d055b74457d1c10173897918d5610ab" target="_top" xlink:title=" ">
<polygon fill="white" stroke="#666666" points="330,-115.5 184,-115.5 184,-85.5 330,-85.5 330,-115.5"/>
<text text-anchor="start" x="192" y="-103.5" font-family="Helvetica,sans-Serif" font-size="10.00">ZOPT220x_Control::enable</text>
<text text-anchor="middle" x="257" y="-92.5" font-family="Helvetica,sans-Serif" font-size="10.00">RawSensing</text>
</a>
</g>
</g>
<!-- Node1&#45;&gt;Node4 -->
<g id="edge3_Node000001_Node000004" class="edge">
<title>Node1&#45;&gt;Node4</title>
<g id="a_edge3_Node000001_Node000004"><a xlink:title=" ">
<path fill="none" stroke="#63b8ff" d="M360.92,-87.33C350.64,-88.64 340.22,-89.98 330.14,-91.27"/>
<polygon fill="#63b8ff" stroke="#63b8ff" points="361.65,-90.76 371.13,-86.02 360.76,-83.82 361.65,-90.76"/>
</a>
</g>
</g>
<!-- Node5 -->
<g id="Node000005" class="node">
<title>Node5</title>
<g id="a_Node000005"><a xlink:href="classZOPT220x__Control.html#a1172703928cf494b466ea2c3595bbbba" target="_top" xlink:title=" ">
<polygon fill="white" stroke="#666666" points="330,-67.5 184,-67.5 184,-37.5 330,-37.5 330,-67.5"/>
<text text-anchor="start" x="192" y="-55.5" font-family="Helvetica,sans-Serif" font-size="10.00">ZOPT220x_Control::enable</text>
<text text-anchor="middle" x="257" y="-44.5" font-family="Helvetica,sans-Serif" font-size="10.00">UVBSensing</text>
</a>
</g>
</g>
<!-- Node1&#45;&gt;Node5 -->
<g id="edge4_Node000001_Node000005" class="edge">
<title>Node1&#45;&gt;Node5</title>
<g id="a_edge4_Node000001_Node000005"><a xlink:title=" ">
<path fill="none" stroke="#63b8ff" d="M360.92,-65.67C350.64,-64.36 340.22,-63.02 330.14,-61.73"/>
<polygon fill="#63b8ff" stroke="#63b8ff" points="360.76,-69.18 371.13,-66.98 361.65,-62.24 360.76,-69.18"/>
</a>
</g>
</g>
<!-- Node6 -->
<g id="Node000006" class="node">
<title>Node6</title>
<g id="a_Node000006"><a xlink:href="classZOPT220x__Control.html#ac427197b44897ed82f77069e2e88270a" target="_top" xlink:title=" ">
<polygon fill="white" stroke="#666666" points="333,-19 181,-19 181,0 333,0 333,-19"/>
<text text-anchor="middle" x="257" y="-7" font-family="Helvetica,sans-Serif" font-size="10.00">ZOPT220x_Control::standby</text>
</a>
</g>
</g>
<!-- Node1&#45;&gt;Node6 -->
<g id="edge6_Node000001_Node000006" class="edge">
<title>Node1&#45;&gt;Node6</title>
<g id="a_edge6_Node000001_Node000006"><a xlink:title=" ">
<path fill="none" stroke="#63b8ff" d="M416.25,-62.54C393.83,-52.2 361.92,-38.27 333,-28.5 322.56,-24.98 311.12,-21.76 300.38,-19.02"/>
<polygon fill="#63b8ff" stroke="#63b8ff" points="415,-65.82 425.54,-66.87 417.96,-59.47 415,-65.82"/>
</a>
</g>
</g>
<!-- Node3 -->
<g id="Node000003" class="node">
<title>Node3</title>
<g id="a_Node000003"><a xlink:href="classZOPT220Sensor.html#a6aeb56062c5ff976d199ae407df9ed6c" target="_top" xlink:title="Reads data from the ZOPT220x sensor and returns it in CSV format.">
<polygon fill="white" stroke="#666666" points="145,-110 0,-110 0,-91 145,-91 145,-110"/>
<text text-anchor="middle" x="72.5" y="-98" font-family="Helvetica,sans-Serif" font-size="10.00">ZOPT220Sensor::readData</text>
</a>
</g>
</g>
<!-- Node2&#45;&gt;Node3 -->
<g id="edge2_Node000002_Node000003" class="edge">
<title>Node2&#45;&gt;Node3</title>
<g id="a_edge2_Node000002_Node000003"><a xlink:title=" ">
<path fill="none" stroke="#63b8ff" d="M189.05,-130.89C162.27,-123.85 132.49,-116.01 109.86,-110.06"/>
<polygon fill="#63b8ff" stroke="#63b8ff" points="188.2,-134.29 198.76,-133.44 189.98,-127.52 188.2,-134.29"/>
</a>
</g>
</g>
<!-- Node5&#45;&gt;Node3 -->
<g id="edge5_Node000005_Node000003" class="edge">
<title>Node5&#45;&gt;Node3</title>
<g id="a_edge5_Node000005_Node000003"><a xlink:title=" ">
<path fill="none" stroke="#63b8ff" d="M189.05,-70.11C162.27,-77.15 132.49,-84.99 109.86,-90.94"/>
<polygon fill="#63b8ff" stroke="#63b8ff" points="189.98,-73.48 198.76,-67.56 188.2,-66.71 189.98,-73.48"/>
</a>
</g>
</g>
</g>
</svg>
