<?xml version="1.0" encoding="UTF-8" standalone="no"?>
<!DOCTYPE svg PUBLIC "-//W3C//DTD SVG 1.1//EN"
 "http://www.w3.org/Graphics/SVG/1.1/DTD/svg11.dtd">
<!-- Generated by graphviz version 2.43.0 (0)
 -->
<!-- Title: Sensor Pages: 1 -->
<!--zoomable 413 -->
<svg id="main" version="1.1" xmlns="http://www.w3.org/2000/svg" xmlns:xlink="http://www.w3.org/1999/xlink" xml:space="preserve" onload="init(evt)">
<style type="text/css"><![CDATA[
.edge:hover path { stroke: red; }
.edge:hover polygon { stroke: red; fill: red; }
]]></style>
<script type="text/javascript"><![CDATA[
var edges = document.getElementsByTagName('g');
if (edges && edges.length) {
  for (var i=0;i<edges.length;i++) {
    if (edges[i].id.substr(0,4)=='edge') {
      edges[i].setAttribute('class','edge');
    }
  }
}
]]></script>
        <defs>
                <circle id="rim" cx="0" cy="0" r="7"/>
                <circle id="rim2" cx="0" cy="0" r="3.5"/>
                <g id="zoomPlus">
                        <use xlink:href="#rim" fill="#404040">
                                <set attributeName="fill" to="#808080" begin="zoomplus.mouseover" end="zoomplus.mouseout"/>
                        </use>
                        <path d="M-4,0h8M0,-4v8" fill="none" stroke="white" stroke-width="1.5" pointer-events="none"/>
                </g>
                <g id="zoomMin">
                        <use xlink:href="#rim" fill="#404040">
                                <set attributeName="fill" to="#808080" begin="zoomminus.mouseover" end="zoomminus.mouseout"/>
                        </use>
                        <path d="M-4,0h8" fill="none" stroke="white" stroke-width="1.5" pointer-events="none"/>
                </g>
                <g id="dirArrow">
                        <path fill="none" stroke="white" stroke-width="1.5" d="M0,-3.0v7 M-2.5,-0.5L0,-3.0L2.5,-0.5"/>
                </g>
               <g id="resetDef">
                       <use xlink:href="#rim2" fill="#404040">
                               <set attributeName="fill" to="#808080" begin="reset.mouseover" end="reset.mouseout"/>
                       </use>
               </g>
        </defs>

<script type="text/javascript">
var viewWidth = 1646;
var viewHeight = 413;
var sectionId = 'dynsection-0';
</script>
<script xlink:href="svgpan.js"/>
<svg id="graph" class="graph">
<g id="viewport">
<title>Sensor</title>
<!-- Node1 -->
<g id="node1" class="node">
<title>Node1</title>
<g id="a_node1"><a xlink:title="Parent class for sensor objects.">
<polygon fill="#bfbfbf" stroke="black" points="750,-182.5 750,-404.5 889,-404.5 889,-182.5 750,-182.5"/>
<text text-anchor="middle" x="819.5" y="-392.5" font-family="Helvetica,sans-Serif" font-size="10.00">Sensor</text>
<polyline fill="none" stroke="black" points="750,-385.5 889,-385.5 "/>
<text text-anchor="start" x="758" y="-373.5" font-family="Helvetica,sans-Serif" font-size="10.00">&#45; minimum_period</text>
<text text-anchor="start" x="758" y="-362.5" font-family="Helvetica,sans-Serif" font-size="10.00">&#45; last_execution</text>
<text text-anchor="start" x="758" y="-351.5" font-family="Helvetica,sans-Serif" font-size="10.00">&#45; sensor_name</text>
<text text-anchor="start" x="758" y="-340.5" font-family="Helvetica,sans-Serif" font-size="10.00">&#45; csv_header</text>
<text text-anchor="start" x="758" y="-329.5" font-family="Helvetica,sans-Serif" font-size="10.00">&#45; fields</text>
<polyline fill="none" stroke="black" points="750,-322.5 889,-322.5 "/>
<text text-anchor="start" x="758" y="-310.5" font-family="Helvetica,sans-Serif" font-size="10.00">+ Sensor()</text>
<text text-anchor="start" x="758" y="-299.5" font-family="Helvetica,sans-Serif" font-size="10.00">+ Sensor()</text>
<text text-anchor="start" x="758" y="-288.5" font-family="Helvetica,sans-Serif" font-size="10.00">+ getPeriod()</text>
<text text-anchor="start" x="758" y="-277.5" font-family="Helvetica,sans-Serif" font-size="10.00">+ setPeriod()</text>
<text text-anchor="start" x="758" y="-266.5" font-family="Helvetica,sans-Serif" font-size="10.00">+ getLastExecution()</text>
<text text-anchor="start" x="758" y="-255.5" font-family="Helvetica,sans-Serif" font-size="10.00">+ setLastExecution()</text>
<text text-anchor="start" x="758" y="-244.5" font-family="Helvetica,sans-Serif" font-size="10.00">+ getSensorName()</text>
<text text-anchor="start" x="758" y="-233.5" font-family="Helvetica,sans-Serif" font-size="10.00">+ getSensorCSVHeader()</text>
<text text-anchor="start" x="758" y="-222.5" font-family="Helvetica,sans-Serif" font-size="10.00">+ verify()</text>
<text text-anchor="start" x="758" y="-211.5" font-family="Helvetica,sans-Serif" font-size="10.00">+ readData()</text>
<text text-anchor="start" x="758" y="-200.5" font-family="Helvetica,sans-Serif" font-size="10.00">+ readEmpty()</text>
<text text-anchor="start" x="758" y="-189.5" font-family="Helvetica,sans-Serif" font-size="10.00">+ getDataCSV()</text>
</a>
</g>
</g>
<!-- Node2 -->
<g id="node2" class="node">
<title>Node2</title>
<g id="a_node2"><a xlink:href="classAS7331Sensor.html" target="_top" xlink:title=" ">
<polygon fill="none" stroke="black" points="0,-28 0,-118 105,-118 105,-28 0,-28"/>
<text text-anchor="middle" x="52.5" y="-106" font-family="Helvetica,sans-Serif" font-size="10.00">AS7331Sensor</text>
<polyline fill="none" stroke="black" points="0,-99 105,-99 "/>
<text text-anchor="start" x="8" y="-87" font-family="Helvetica,sans-Serif" font-size="10.00">&#45; myUVSensor</text>
<polyline fill="none" stroke="black" points="0,-80 105,-80 "/>
<text text-anchor="start" x="8" y="-68" font-family="Helvetica,sans-Serif" font-size="10.00">+ AS7331Sensor()</text>
<text text-anchor="start" x="8" y="-57" font-family="Helvetica,sans-Serif" font-size="10.00">+ AS7331Sensor()</text>
<text text-anchor="start" x="8" y="-46" font-family="Helvetica,sans-Serif" font-size="10.00">+ verify()</text>
<text text-anchor="start" x="8" y="-35" font-family="Helvetica,sans-Serif" font-size="10.00">+ readData()</text>
</a>
</g>
</g>
<!-- Node1&#45;&gt;Node2 -->
<g id="edge1" class="edge">
<title>Node1&#45;&gt;Node2</title>
<path fill="none" stroke="midnightblue" d="M739.92,-292.24C602.79,-288.42 317.17,-265.4 114.5,-146 102.56,-138.97 91.78,-128.8 82.69,-118.31"/>
<polygon fill="none" stroke="midnightblue" points="739.85,-295.74 749.94,-292.49 740.03,-288.74 739.85,-295.74"/>
</g>
<!-- Node3 -->
<g id="node3" class="node">
<title>Node3</title>
<g id="a_node3"><a xlink:href="classAnalogSensor.html" target="_top" xlink:title="Implementation of a Sensor for the analog readings.">
<polygon fill="none" stroke="black" points="123.5,-28 123.5,-118 225.5,-118 225.5,-28 123.5,-28"/>
<text text-anchor="middle" x="174.5" y="-106" font-family="Helvetica,sans-Serif" font-size="10.00">AnalogSensor</text>
<polyline fill="none" stroke="black" points="123.5,-99 225.5,-99 "/>
<text text-anchor="middle" x="174.5" y="-87" font-family="Helvetica,sans-Serif" font-size="10.00"> </text>
<polyline fill="none" stroke="black" points="123.5,-80 225.5,-80 "/>
<text text-anchor="start" x="131.5" y="-68" font-family="Helvetica,sans-Serif" font-size="10.00">+ AnalogSensor()</text>
<text text-anchor="start" x="131.5" y="-57" font-family="Helvetica,sans-Serif" font-size="10.00">+ AnalogSensor()</text>
<text text-anchor="start" x="131.5" y="-46" font-family="Helvetica,sans-Serif" font-size="10.00">+ verify()</text>
<text text-anchor="start" x="131.5" y="-35" font-family="Helvetica,sans-Serif" font-size="10.00">+ readData()</text>
</a>
</g>
</g>
<!-- Node1&#45;&gt;Node3 -->
<g id="edge2" class="edge">
<title>Node1&#45;&gt;Node3</title>
<path fill="none" stroke="midnightblue" d="M739.56,-288.09C620.91,-278.28 394.96,-246.76 234.5,-146 223.06,-138.82 212.73,-128.72 204,-118.36"/>
<polygon fill="none" stroke="midnightblue" points="739.41,-291.59 749.66,-288.89 739.97,-284.61 739.41,-291.59"/>
</g>
<!-- Node4 -->
<g id="node4" class="node">
<title>Node4</title>
<g id="a_node4"><a xlink:href="classBME280Sensor.html" target="_top" xlink:title="Implementation of a Sensor for the BME280.">
<polygon fill="none" stroke="black" points="243.5,-28 243.5,-118 351.5,-118 351.5,-28 243.5,-28"/>
<text text-anchor="middle" x="297.5" y="-106" font-family="Helvetica,sans-Serif" font-size="10.00">BME280Sensor</text>
<polyline fill="none" stroke="black" points="243.5,-99 351.5,-99 "/>
<text text-anchor="start" x="251.5" y="-87" font-family="Helvetica,sans-Serif" font-size="10.00">&#45; bme</text>
<polyline fill="none" stroke="black" points="243.5,-80 351.5,-80 "/>
<text text-anchor="start" x="251.5" y="-68" font-family="Helvetica,sans-Serif" font-size="10.00">+ BME280Sensor()</text>
<text text-anchor="start" x="251.5" y="-57" font-family="Helvetica,sans-Serif" font-size="10.00">+ BME280Sensor()</text>
<text text-anchor="start" x="251.5" y="-46" font-family="Helvetica,sans-Serif" font-size="10.00">+ verify()</text>
<text text-anchor="start" x="251.5" y="-35" font-family="Helvetica,sans-Serif" font-size="10.00">+ readData()</text>
</a>
</g>
</g>
<!-- Node1&#45;&gt;Node4 -->
<g id="edge3" class="edge">
<title>Node1&#45;&gt;Node4</title>
<path fill="none" stroke="midnightblue" d="M739.95,-280.55C643.7,-263.21 479.74,-224.2 360.5,-146 349.11,-138.53 338.55,-128.46 329.47,-118.22"/>
<polygon fill="none" stroke="midnightblue" points="739.46,-284.02 749.91,-282.31 740.68,-277.13 739.46,-284.02"/>
</g>
<!-- Node5 -->
<g id="node5" class="node">
<title>Node5</title>
<g id="a_node5"><a xlink:href="classBME680Sensor.html" target="_top" xlink:title="A class to interface with the Adafruit BME680 sensor for environmental data collection.">
<polygon fill="none" stroke="black" points="369.5,-28 369.5,-118 477.5,-118 477.5,-28 369.5,-28"/>
<text text-anchor="middle" x="423.5" y="-106" font-family="Helvetica,sans-Serif" font-size="10.00">BME680Sensor</text>
<polyline fill="none" stroke="black" points="369.5,-99 477.5,-99 "/>
<text text-anchor="start" x="377.5" y="-87" font-family="Helvetica,sans-Serif" font-size="10.00">&#45; bme</text>
<polyline fill="none" stroke="black" points="369.5,-80 477.5,-80 "/>
<text text-anchor="start" x="377.5" y="-68" font-family="Helvetica,sans-Serif" font-size="10.00">+ BME680Sensor()</text>
<text text-anchor="start" x="377.5" y="-57" font-family="Helvetica,sans-Serif" font-size="10.00">+ BME680Sensor()</text>
<text text-anchor="start" x="377.5" y="-46" font-family="Helvetica,sans-Serif" font-size="10.00">+ verify()</text>
<text text-anchor="start" x="377.5" y="-35" font-family="Helvetica,sans-Serif" font-size="10.00">+ readData()</text>
</a>
</g>
</g>
<!-- Node1&#45;&gt;Node5 -->
<g id="edge4" class="edge">
<title>Node1&#45;&gt;Node5</title>
<path fill="none" stroke="midnightblue" d="M740.05,-268.57C669.17,-244.76 564.79,-203.47 486.5,-146 475.79,-138.14 465.62,-128.16 456.7,-118.15"/>
<polygon fill="none" stroke="midnightblue" points="739.23,-271.98 749.83,-271.81 741.44,-265.34 739.23,-271.98"/>
</g>
<!-- Node6 -->
<g id="node6" class="node">
<title>Node6</title>
<g id="a_node6"><a xlink:href="classENS160Sensor.html" target="_top" xlink:title="Implementation of a Sensor for the ENS160.">
<polygon fill="none" stroke="black" points="495.5,-28 495.5,-118 601.5,-118 601.5,-28 495.5,-28"/>
<text text-anchor="middle" x="548.5" y="-106" font-family="Helvetica,sans-Serif" font-size="10.00">ENS160Sensor</text>
<polyline fill="none" stroke="black" points="495.5,-99 601.5,-99 "/>
<text text-anchor="start" x="503.5" y="-87" font-family="Helvetica,sans-Serif" font-size="10.00">&#45; ens</text>
<polyline fill="none" stroke="black" points="495.5,-80 601.5,-80 "/>
<text text-anchor="start" x="503.5" y="-68" font-family="Helvetica,sans-Serif" font-size="10.00">+ ENS160Sensor()</text>
<text text-anchor="start" x="503.5" y="-57" font-family="Helvetica,sans-Serif" font-size="10.00">+ ENS160Sensor()</text>
<text text-anchor="start" x="503.5" y="-46" font-family="Helvetica,sans-Serif" font-size="10.00">+ verify()</text>
<text text-anchor="start" x="503.5" y="-35" font-family="Helvetica,sans-Serif" font-size="10.00">+ readData()</text>
</a>
</g>
</g>
<!-- Node1&#45;&gt;Node6 -->
<g id="edge5" class="edge">
<title>Node1&#45;&gt;Node6</title>
<path fill="none" stroke="midnightblue" d="M741.37,-244.42C700.55,-217.69 650.83,-182.51 610.5,-146 601.21,-137.59 591.96,-127.82 583.57,-118.25"/>
<polygon fill="none" stroke="midnightblue" points="739.65,-247.48 749.94,-250 743.46,-241.61 739.65,-247.48"/>
</g>
<!-- Node7 -->
<g id="node7" class="node">
<title>Node7</title>
<g id="a_node7"><a xlink:href="classGeigerSensor.html" target="_top" xlink:title="A class for interfacing with a Geiger counter sensor.">
<polygon fill="none" stroke="black" points="620,-22.5 620,-123.5 749,-123.5 749,-22.5 620,-22.5"/>
<text text-anchor="middle" x="684.5" y="-111.5" font-family="Helvetica,sans-Serif" font-size="10.00">GeigerSensor</text>
<polyline fill="none" stroke="black" points="620,-104.5 749,-104.5 "/>
<text text-anchor="start" x="628" y="-92.5" font-family="Helvetica,sans-Serif" font-size="10.00">&#45; measuringPeriodStart</text>
<polyline fill="none" stroke="black" points="620,-85.5 749,-85.5 "/>
<text text-anchor="start" x="628" y="-73.5" font-family="Helvetica,sans-Serif" font-size="10.00">+ GeigerSensor()</text>
<text text-anchor="start" x="628" y="-62.5" font-family="Helvetica,sans-Serif" font-size="10.00">+ GeigerSensor()</text>
<text text-anchor="start" x="628" y="-51.5" font-family="Helvetica,sans-Serif" font-size="10.00">+ verify()</text>
<text text-anchor="start" x="628" y="-40.5" font-family="Helvetica,sans-Serif" font-size="10.00">+ readData()</text>
<text text-anchor="start" x="628" y="-29.5" font-family="Helvetica,sans-Serif" font-size="10.00">&#45; geigerCounter()</text>
</a>
</g>
</g>
<!-- Node1&#45;&gt;Node7 -->
<g id="edge6" class="edge">
<title>Node1&#45;&gt;Node7</title>
<path fill="none" stroke="midnightblue" d="M746.05,-173.62C735.16,-156 724.48,-138.71 715.16,-123.62"/>
<polygon fill="none" stroke="midnightblue" points="743.17,-175.62 751.41,-182.29 749.13,-171.94 743.17,-175.62"/>
</g>
<!-- Node8 -->
<g id="node8" class="node">
<title>Node8</title>
<g id="a_node8"><a xlink:href="classINA260Sensor.html" target="_top" xlink:title="A class to interface with the Adafruit INA260 sensor for current, voltage, and power measurements.">
<polygon fill="none" stroke="black" points="767.5,-28 767.5,-118 871.5,-118 871.5,-28 767.5,-28"/>
<text text-anchor="middle" x="819.5" y="-106" font-family="Helvetica,sans-Serif" font-size="10.00">INA260Sensor</text>
<polyline fill="none" stroke="black" points="767.5,-99 871.5,-99 "/>
<text text-anchor="start" x="775.5" y="-87" font-family="Helvetica,sans-Serif" font-size="10.00">&#45; ina260</text>
<polyline fill="none" stroke="black" points="767.5,-80 871.5,-80 "/>
<text text-anchor="start" x="775.5" y="-68" font-family="Helvetica,sans-Serif" font-size="10.00">+ INA260Sensor()</text>
<text text-anchor="start" x="775.5" y="-57" font-family="Helvetica,sans-Serif" font-size="10.00">+ INA260Sensor()</text>
<text text-anchor="start" x="775.5" y="-46" font-family="Helvetica,sans-Serif" font-size="10.00">+ verify()</text>
<text text-anchor="start" x="775.5" y="-35" font-family="Helvetica,sans-Serif" font-size="10.00">+ readData()</text>
</a>
</g>
</g>
<!-- Node1&#45;&gt;Node8 -->
<g id="edge7" class="edge">
<title>Node1&#45;&gt;Node8</title>
<path fill="none" stroke="midnightblue" d="M819.5,-172.15C819.5,-152.82 819.5,-133.96 819.5,-118.02"/>
<polygon fill="none" stroke="midnightblue" points="816,-172.29 819.5,-182.29 823,-172.29 816,-172.29"/>
</g>
<!-- Node9 -->
<g id="node9" class="node">
<title>Node9</title>
<g id="a_node9"><a xlink:href="classLSM9DS1Sensor.html" target="_top" xlink:title="Implementation of the Sensor class for the LSM9DS1 (9&#45;axis IMU)">
<polygon fill="none" stroke="black" points="889.5,-0.5 889.5,-145.5 1003.5,-145.5 1003.5,-0.5 889.5,-0.5"/>
<text text-anchor="middle" x="946.5" y="-133.5" font-family="Helvetica,sans-Serif" font-size="10.00">LSM9DS1Sensor</text>
<polyline fill="none" stroke="black" points="889.5,-126.5 1003.5,-126.5 "/>
<text text-anchor="start" x="897.5" y="-114.5" font-family="Helvetica,sans-Serif" font-size="10.00">&#45; lsm</text>
<text text-anchor="start" x="897.5" y="-103.5" font-family="Helvetica,sans-Serif" font-size="10.00">&#45; accel_offsets</text>
<text text-anchor="start" x="897.5" y="-92.5" font-family="Helvetica,sans-Serif" font-size="10.00">&#45; gyro_offsets</text>
<text text-anchor="start" x="897.5" y="-81.5" font-family="Helvetica,sans-Serif" font-size="10.00">&#45; mag_offsets</text>
<polyline fill="none" stroke="black" points="889.5,-74.5 1003.5,-74.5 "/>
<text text-anchor="start" x="897.5" y="-62.5" font-family="Helvetica,sans-Serif" font-size="10.00">+ LSM9DS1Sensor()</text>
<text text-anchor="start" x="897.5" y="-51.5" font-family="Helvetica,sans-Serif" font-size="10.00">+ LSM9DS1Sensor()</text>
<text text-anchor="start" x="897.5" y="-40.5" font-family="Helvetica,sans-Serif" font-size="10.00">+ verify()</text>
<text text-anchor="start" x="897.5" y="-29.5" font-family="Helvetica,sans-Serif" font-size="10.00">+ readData()</text>
<text text-anchor="start" x="897.5" y="-18.5" font-family="Helvetica,sans-Serif" font-size="10.00">+ calibrate()</text>
<text text-anchor="start" x="897.5" y="-7.5" font-family="Helvetica,sans-Serif" font-size="10.00">&#45; setupSensor()</text>
</a>
</g>
</g>
<!-- Node1&#45;&gt;Node9 -->
<g id="edge8" class="edge">
<title>Node1&#45;&gt;Node9</title>
<path fill="none" stroke="midnightblue" d="M888.62,-173.58C894.13,-164.11 899.57,-154.74 904.79,-145.75"/>
<polygon fill="none" stroke="midnightblue" points="885.56,-171.89 883.56,-182.29 891.61,-175.4 885.56,-171.89"/>
</g>
<!-- Node10 -->
<g id="node10" class="node">
<title>Node10</title>
<g id="a_node10"><a xlink:href="classMTK3339Sensor.html" target="_top" xlink:title="Implementation of the Adafruit MTK3339 GPS sensor.">
<polygon fill="none" stroke="black" points="1021.5,-28 1021.5,-118 1135.5,-118 1135.5,-28 1021.5,-28"/>
<text text-anchor="middle" x="1078.5" y="-106" font-family="Helvetica,sans-Serif" font-size="10.00">MTK3339Sensor</text>
<polyline fill="none" stroke="black" points="1021.5,-99 1135.5,-99 "/>
<text text-anchor="start" x="1029.5" y="-87" font-family="Helvetica,sans-Serif" font-size="10.00">&#45; GPS</text>
<polyline fill="none" stroke="black" points="1021.5,-80 1135.5,-80 "/>
<text text-anchor="start" x="1029.5" y="-68" font-family="Helvetica,sans-Serif" font-size="10.00">+ MTK3339Sensor()</text>
<text text-anchor="start" x="1029.5" y="-57" font-family="Helvetica,sans-Serif" font-size="10.00">+ MTK3339Sensor()</text>
<text text-anchor="start" x="1029.5" y="-46" font-family="Helvetica,sans-Serif" font-size="10.00">+ verify()</text>
<text text-anchor="start" x="1029.5" y="-35" font-family="Helvetica,sans-Serif" font-size="10.00">+ readData()</text>
</a>
</g>
</g>
<!-- Node1&#45;&gt;Node10 -->
<g id="edge9" class="edge">
<title>Node1&#45;&gt;Node10</title>
<path fill="none" stroke="midnightblue" d="M897.41,-238.3C933.61,-211.89 976.51,-178.8 1012.5,-146 1021.9,-137.43 1031.46,-127.71 1040.27,-118.23"/>
<polygon fill="none" stroke="midnightblue" points="895.35,-235.47 889.32,-244.17 899.46,-241.13 895.35,-235.47"/>
</g>
<!-- Node11 -->
<g id="node11" class="node">
<title>Node11</title>
<g id="a_node11"><a xlink:href="classSGP30Sensor.html" target="_top" xlink:title="Implementation of a Sensor for the SGP Air Quality sensor.">
<polygon fill="none" stroke="black" points="1153.5,-28 1153.5,-118 1253.5,-118 1253.5,-28 1153.5,-28"/>
<text text-anchor="middle" x="1203.5" y="-106" font-family="Helvetica,sans-Serif" font-size="10.00">SGP30Sensor</text>
<polyline fill="none" stroke="black" points="1153.5,-99 1253.5,-99 "/>
<text text-anchor="start" x="1161.5" y="-87" font-family="Helvetica,sans-Serif" font-size="10.00">&#45; sgp</text>
<polyline fill="none" stroke="black" points="1153.5,-80 1253.5,-80 "/>
<text text-anchor="start" x="1161.5" y="-68" font-family="Helvetica,sans-Serif" font-size="10.00">+ SGP30Sensor()</text>
<text text-anchor="start" x="1161.5" y="-57" font-family="Helvetica,sans-Serif" font-size="10.00">+ SGP30Sensor()</text>
<text text-anchor="start" x="1161.5" y="-46" font-family="Helvetica,sans-Serif" font-size="10.00">+ verify()</text>
<text text-anchor="start" x="1161.5" y="-35" font-family="Helvetica,sans-Serif" font-size="10.00">+ readData()</text>
</a>
</g>
</g>
<!-- Node1&#45;&gt;Node11 -->
<g id="edge10" class="edge">
<title>Node1&#45;&gt;Node11</title>
<path fill="none" stroke="midnightblue" d="M898.75,-268.32C968.18,-244.58 1069.43,-203.53 1144.5,-146 1154.76,-138.14 1164.37,-128.16 1172.73,-118.15"/>
<polygon fill="none" stroke="midnightblue" points="897.53,-265.04 889.17,-271.56 899.77,-271.67 897.53,-265.04"/>
</g>
<!-- Node12 -->
<g id="node12" class="node">
<title>Node12</title>
<g id="a_node12"><a xlink:href="classSHT31Sensor.html" target="_top" xlink:title="Interfaces with SHT31 Sensor to collect temperature and humidity data.">
<polygon fill="none" stroke="black" points="1271.5,-22.5 1271.5,-123.5 1393.5,-123.5 1393.5,-22.5 1271.5,-22.5"/>
<text text-anchor="middle" x="1332.5" y="-111.5" font-family="Helvetica,sans-Serif" font-size="10.00">SHT31Sensor</text>
<polyline fill="none" stroke="black" points="1271.5,-104.5 1393.5,-104.5 "/>
<text text-anchor="start" x="1279.5" y="-92.5" font-family="Helvetica,sans-Serif" font-size="10.00">&#45; sht31</text>
<text text-anchor="start" x="1279.5" y="-81.5" font-family="Helvetica,sans-Serif" font-size="10.00">&#45; csvHeaderCompiled</text>
<polyline fill="none" stroke="black" points="1271.5,-74.5 1393.5,-74.5 "/>
<text text-anchor="start" x="1279.5" y="-62.5" font-family="Helvetica,sans-Serif" font-size="10.00">+ SHT31Sensor()</text>
<text text-anchor="start" x="1279.5" y="-51.5" font-family="Helvetica,sans-Serif" font-size="10.00">+ SHT31Sensor()</text>
<text text-anchor="start" x="1279.5" y="-40.5" font-family="Helvetica,sans-Serif" font-size="10.00">+ verify()</text>
<text text-anchor="start" x="1279.5" y="-29.5" font-family="Helvetica,sans-Serif" font-size="10.00">+ readData()</text>
</a>
</g>
</g>
<!-- Node1&#45;&gt;Node12 -->
<g id="edge11" class="edge">
<title>Node1&#45;&gt;Node12</title>
<path fill="none" stroke="midnightblue" d="M899.06,-278.2C991.74,-258.92 1146.9,-218.38 1262.5,-146 1272.4,-139.8 1281.91,-131.92 1290.56,-123.65"/>
<polygon fill="none" stroke="midnightblue" points="898.28,-274.78 889.18,-280.22 899.68,-281.64 898.28,-274.78"/>
</g>
<!-- Node13 -->
<g id="node13" class="node">
<title>Node13</title>
<g id="a_node13"><a xlink:href="classTempSensor.html" target="_top" xlink:title="Implementation of a Sensor for the onboard temperature sensor.">
<polygon fill="none" stroke="black" points="1412,-28 1412,-118 1507,-118 1507,-28 1412,-28"/>
<text text-anchor="middle" x="1459.5" y="-106" font-family="Helvetica,sans-Serif" font-size="10.00">TempSensor</text>
<polyline fill="none" stroke="black" points="1412,-99 1507,-99 "/>
<text text-anchor="middle" x="1459.5" y="-87" font-family="Helvetica,sans-Serif" font-size="10.00"> </text>
<polyline fill="none" stroke="black" points="1412,-80 1507,-80 "/>
<text text-anchor="start" x="1420" y="-68" font-family="Helvetica,sans-Serif" font-size="10.00">+ TempSensor()</text>
<text text-anchor="start" x="1420" y="-57" font-family="Helvetica,sans-Serif" font-size="10.00">+ TempSensor()</text>
<text text-anchor="start" x="1420" y="-46" font-family="Helvetica,sans-Serif" font-size="10.00">+ verify()</text>
<text text-anchor="start" x="1420" y="-35" font-family="Helvetica,sans-Serif" font-size="10.00">+ readData()</text>
</a>
</g>
</g>
<!-- Node1&#45;&gt;Node13 -->
<g id="edge12" class="edge">
<title>Node1&#45;&gt;Node13</title>
<path fill="none" stroke="midnightblue" d="M899.49,-288.54C1018.16,-279.29 1243.87,-248.5 1402.5,-146 1413.61,-138.82 1423.51,-128.73 1431.82,-118.36"/>
<polygon fill="none" stroke="midnightblue" points="899.11,-285.06 889.4,-289.29 899.63,-292.04 899.11,-285.06"/>
</g>
<!-- Node14 -->
<g id="node14" class="node">
<title>Node14</title>
<g id="a_node14"><a xlink:href="classZOPT220Sensor.html" target="_top" xlink:title="A class to interface with the ZOPT220x UV and ambient light sensor.">
<polygon fill="none" stroke="black" points="1525,-28 1525,-118 1638,-118 1638,-28 1525,-28"/>
<text text-anchor="middle" x="1581.5" y="-106" font-family="Helvetica,sans-Serif" font-size="10.00">ZOPT220Sensor</text>
<polyline fill="none" stroke="black" points="1525,-99 1638,-99 "/>
<text text-anchor="start" x="1533" y="-87" font-family="Helvetica,sans-Serif" font-size="10.00">&#45; zopt</text>
<polyline fill="none" stroke="black" points="1525,-80 1638,-80 "/>
<text text-anchor="start" x="1533" y="-68" font-family="Helvetica,sans-Serif" font-size="10.00">+ ZOPT220Sensor()</text>
<text text-anchor="start" x="1533" y="-57" font-family="Helvetica,sans-Serif" font-size="10.00">+ ZOPT220Sensor()</text>
<text text-anchor="start" x="1533" y="-46" font-family="Helvetica,sans-Serif" font-size="10.00">+ verify()</text>
<text text-anchor="start" x="1533" y="-35" font-family="Helvetica,sans-Serif" font-size="10.00">+ readData()</text>
</a>
</g>
</g>
<!-- Node1&#45;&gt;Node14 -->
<g id="edge13" class="edge">
<title>Node1&#45;&gt;Node14</title>
<path fill="none" stroke="midnightblue" d="M899.35,-291.47C1035.07,-286.43 1315.52,-261.56 1516.5,-146 1528.76,-138.95 1539.98,-128.77 1549.51,-118.28"/>
<polygon fill="none" stroke="midnightblue" points="898.92,-287.98 889.05,-291.82 899.16,-294.98 898.92,-287.98"/>
</g>
</g>
</svg>
        <g id="navigator" transform="translate(0 0)" fill="#404254">
                <rect fill="#f2f5e9" fill-opacity="0.5" stroke="#606060" stroke-width=".5" x="0" y="0" width="60" height="60"/>
                <use id="zoomplus" xlink:href="#zoomPlus" x="17" y="9" onmousedown="handleZoom(evt,'in')"/>
                <use id="zoomminus" xlink:href="#zoomMin" x="42" y="9" onmousedown="handleZoom(evt,'out')"/>
                <use id="reset" xlink:href="#resetDef" x="30" y="36" onmousedown="handleReset()"/>
                <g id="arrowUp" xlink:href="#dirArrow" transform="translate(30 24)" onmousedown="handlePan(0,-1)">
                  <use xlink:href="#rim" fill="#404040">
                        <set attributeName="fill" to="#808080" begin="arrowUp.mouseover" end="arrowUp.mouseout"/>
                  </use>
                  <path fill="none" stroke="white" stroke-width="1.5" d="M0,-3.0v7 M-2.5,-0.5L0,-3.0L2.5,-0.5"/>
                </g>
                <g id="arrowRight" xlink:href="#dirArrow" transform="rotate(90) translate(36 -43)" onmousedown="handlePan(1,0)">
                  <use xlink:href="#rim" fill="#404040">
                        <set attributeName="fill" to="#808080" begin="arrowRight.mouseover" end="arrowRight.mouseout"/>
                  </use>
                  <path fill="none" stroke="white" stroke-width="1.5" d="M0,-3.0v7 M-2.5,-0.5L0,-3.0L2.5,-0.5"/>
                </g>
                <g id="arrowDown" xlink:href="#dirArrow" transform="rotate(180) translate(-30 -48)" onmousedown="handlePan(0,1)">
                  <use xlink:href="#rim" fill="#404040">
                        <set attributeName="fill" to="#808080" begin="arrowDown.mouseover" end="arrowDown.mouseout"/>
                  </use>
                  <path fill="none" stroke="white" stroke-width="1.5" d="M0,-3.0v7 M-2.5,-0.5L0,-3.0L2.5,-0.5"/>
                </g>
                <g id="arrowLeft" xlink:href="#dirArrow" transform="rotate(270) translate(-36 17)" onmousedown="handlePan(-1,0)">
                  <use xlink:href="#rim" fill="#404040">
                        <set attributeName="fill" to="#808080" begin="arrowLeft.mouseover" end="arrowLeft.mouseout"/>
                  </use>
                  <path fill="none" stroke="white" stroke-width="1.5" d="M0,-3.0v7 M-2.5,-0.5L0,-3.0L2.5,-0.5"/>
                </g>
        </g>
        <svg viewBox="0 0 15 15" width="100%" height="30px" preserveAspectRatio="xMaxYMin meet">
         <g id="arrow_out" transform="scale(0.3 0.3)">
          <a xlink:href="classSensor__inherit__graph_org.svg" target="_base">
           <rect id="button" ry="5" rx="5" y="6" x="6" height="38" width="38"
                fill="#f2f5e9" fill-opacity="0.5" stroke="#606060" stroke-width="1.0"/>
           <path id="arrow"
             d="M 11.500037,31.436501 C 11.940474,20.09759 22.043105,11.32322 32.158766,21.979434 L 37.068811,17.246167 C 37.068811,17.246167 37.088388,32 37.088388,32 L 22.160133,31.978069 C 22.160133,31.978069 26.997745,27.140456 26.997745,27.140456 C 18.528582,18.264221 13.291696,25.230495 11.500037,31.436501 z"
             style="fill:#404040;"/>
          </a>
         </g>
        </svg>
</svg>
