<?xml version="1.0" encoding="UTF-8" standalone="no"?>
<!DOCTYPE svg PUBLIC "-//W3C//DTD SVG 1.1//EN"
 "http://www.w3.org/Graphics/SVG/1.1/DTD/svg11.dtd">
<!-- Generated by graphviz version 2.43.0 (0)
 -->
<!-- Title: FlashStorage Pages: 1 -->
<svg width="447pt" height="380pt"
 viewBox="0.00 0.00 447.00 380.00" xmlns="http://www.w3.org/2000/svg" xmlns:xlink="http://www.w3.org/1999/xlink">

<svg id="main" version="1.1" xmlns="http://www.w3.org/2000/svg" xmlns:xlink="http://www.w3.org/1999/xlink" xml:space="preserve" onload="init(evt)">
<style type="text/css"><![CDATA[
.node, .edge {opacity: 0.7;}
.node.selected, .edge.selected {opacity: 1;}
.edge:hover path { stroke: red; }
.edge:hover polygon { stroke: red; fill: red; }
]]></style>
<script type="application/ecmascript" xlink:href="svg.min.js"/>
<svg id="graph" class="graph">
<g id="graph0" class="graph" transform="scale(1 1) rotate(0) translate(4 376)">
<title>FlashStorage</title>
<!-- Node1 -->
<g id="Node000001" class="node">
<title>Node1</title>
<g id="a_Node000001"><a xlink:title=" ">
<polygon fill="#999999" stroke="transparent" points="302.5,-124 209.5,-124 209.5,0 302.5,0 302.5,-124"/>
<text text-anchor="start" x="224.5" y="-112" font-family="Helvetica,sans-Serif" font-size="10.00">FlashStorage</text>
<text text-anchor="start" x="254.5" y="-97" font-family="Helvetica,sans-Serif" font-size="10.00"> </text>
<text text-anchor="start" x="214" y="-82" font-family="Helvetica,sans-Serif" font-size="10.00">+</text>
<text text-anchor="start" x="227" y="-82" font-family="Helvetica,sans-Serif" font-size="10.00">FlashStorage()</text>
<text text-anchor="start" x="214" y="-67" font-family="Helvetica,sans-Serif" font-size="10.00">+</text>
<text text-anchor="start" x="227" y="-67" font-family="Helvetica,sans-Serif" font-size="10.00">verify()</text>
<text text-anchor="start" x="214" y="-52" font-family="Helvetica,sans-Serif" font-size="10.00">+</text>
<text text-anchor="start" x="227" y="-52" font-family="Helvetica,sans-Serif" font-size="10.00">store()</text>
<text text-anchor="start" x="214" y="-37" font-family="Helvetica,sans-Serif" font-size="10.00">+</text>
<text text-anchor="start" x="227" y="-37" font-family="Helvetica,sans-Serif" font-size="10.00">dump()</text>
<text text-anchor="start" x="214" y="-22" font-family="Helvetica,sans-Serif" font-size="10.00">+</text>
<text text-anchor="start" x="227" y="-22" font-family="Helvetica,sans-Serif" font-size="10.00">erase()</text>
<text text-anchor="start" x="216.5" y="-7" font-family="Helvetica,sans-Serif" font-size="10.00">&#45;</text>
<text text-anchor="start" x="227" y="-7" font-family="Helvetica,sans-Serif" font-size="10.00">loadPosition()</text>
<polygon fill="#666666" stroke="#666666" points="210,-107 210,-107 303,-107 303,-107 210,-107"/>
<polygon fill="#666666" stroke="#666666" points="210,-92 210,-92 303,-92 303,-92 210,-92"/>
<polygon fill="none" stroke="#666666" points="209.5,0 209.5,-124 302.5,-124 302.5,0 209.5,0"/>
</a>
</g>
</g>
<!-- Node2 -->
<g id="Node000002" class="node">
<title>Node2</title>
<g id="a_Node000002"><a xlink:href="classStorage.html" target="_top" xlink:title="Parent class for all data storage devices (sd card, radio, etc)">
<polygon fill="white" stroke="transparent" points="112,-276 0,-276 0,-182 112,-182 112,-276"/>
<text text-anchor="start" x="37" y="-264" font-family="Helvetica,sans-Serif" font-size="10.00">Storage</text>
<text text-anchor="start" x="54" y="-249" font-family="Helvetica,sans-Serif" font-size="10.00"> </text>
<text text-anchor="start" x="4" y="-234" font-family="Helvetica,sans-Serif" font-size="10.00">+</text>
<text text-anchor="start" x="17" y="-234" font-family="Helvetica,sans-Serif" font-size="10.00">Storage()</text>
<text text-anchor="start" x="4" y="-219" font-family="Helvetica,sans-Serif" font-size="10.00">+</text>
<text text-anchor="start" x="17" y="-219" font-family="Helvetica,sans-Serif" font-size="10.00">getStorageName()</text>
<text text-anchor="start" x="4" y="-204" font-family="Helvetica,sans-Serif" font-size="10.00">+</text>
<text text-anchor="start" x="17" y="-204" font-family="Helvetica,sans-Serif" font-size="10.00">verify()</text>
<text text-anchor="start" x="4" y="-189" font-family="Helvetica,sans-Serif" font-size="10.00">+</text>
<text text-anchor="start" x="17" y="-189" font-family="Helvetica,sans-Serif" font-size="10.00">store()</text>
<polygon fill="#666666" stroke="#666666" points="0,-259 0,-259 112,-259 112,-259 0,-259"/>
<polygon fill="#666666" stroke="#666666" points="0,-244 0,-244 112,-244 112,-244 0,-244"/>
<polygon fill="none" stroke="#666666" points="0,-182 0,-276 112,-276 112,-182 0,-182"/>
</a>
</g>
</g>
<!-- Node2&#45;&gt;Node1 -->
<g id="edge1_Node000001_Node000002" class="edge">
<title>Node2&#45;&gt;Node1</title>
<g id="a_edge1_Node000001_Node000002"><a xlink:title=" ">
<path fill="none" stroke="#63b8ff" d="M120.05,-175.16C149.13,-151.17 182.89,-123.32 209.49,-101.37"/>
<polygon fill="none" stroke="#63b8ff" points="117.46,-172.76 111.98,-181.82 121.92,-178.15 117.46,-172.76"/>
</a>
</g>
</g>
<!-- Node3 -->
<g id="Node000003" class="node">
<title>Node3</title>
<g id="a_Node000003"><a xlink:title=" ">
<polygon fill="white" stroke="transparent" points="75.5,-372 36.5,-372 36.5,-323 75.5,-323 75.5,-372"/>
<text text-anchor="start" x="42" y="-359.5" font-family="Helvetica,sans-Serif" font-size="10.00">String</text>
<text text-anchor="start" x="54.5" y="-344.5" font-family="Helvetica,sans-Serif" font-size="10.00"> </text>
<text text-anchor="start" x="54.5" y="-329.5" font-family="Helvetica,sans-Serif" font-size="10.00"> </text>
<polygon fill="#666666" stroke="#666666" points="37,-354.5 37,-354.5 76,-354.5 76,-354.5 37,-354.5"/>
<polygon fill="#666666" stroke="#666666" points="37,-339.5 37,-339.5 76,-339.5 76,-339.5 37,-339.5"/>
<polygon fill="none" stroke="#666666" points="36.5,-323 36.5,-372 75.5,-372 75.5,-323 36.5,-323"/>
</a>
</g>
</g>
<!-- Node3&#45;&gt;Node2 -->
<g id="edge2_Node000002_Node000003" class="edge">
<title>Node3&#45;&gt;Node2</title>
<g id="a_edge2_Node000002_Node000003"><a xlink:title=" ">
<path fill="none" stroke="#63b8ff" d="M56,-322.92C56,-312.85 56,-300.6 56,-288.35"/>
<polygon fill="none" stroke="#63b8ff" points="56,-288.17 52,-282.17 56,-276.17 60,-282.17 56,-288.17"/>
</a>
</g>
<text text-anchor="middle" x="94.5" y="-297" font-family="Helvetica,sans-Serif" font-size="10.00" fill="grey"> &#45;storage_name</text>
</g>
<!-- Node4 -->
<g id="Node000004" class="node">
<title>Node4</title>
<g id="a_Node000004"><a xlink:title=" ">
<polygon fill="white" stroke="transparent" points="240,-253.5 130,-253.5 130,-204.5 240,-204.5 240,-253.5"/>
<text text-anchor="start" x="135" y="-241" font-family="Helvetica,sans-Serif" font-size="10.00">static const uint32_t</text>
<text text-anchor="start" x="183" y="-226" font-family="Helvetica,sans-Serif" font-size="10.00"> </text>
<text text-anchor="start" x="183" y="-211" font-family="Helvetica,sans-Serif" font-size="10.00"> </text>
<polygon fill="#666666" stroke="#666666" points="130,-236 130,-236 240,-236 240,-236 130,-236"/>
<polygon fill="#666666" stroke="#666666" points="130,-221 130,-221 240,-221 240,-221 130,-221"/>
<polygon fill="none" stroke="#666666" points="130,-204.5 130,-253.5 240,-253.5 240,-204.5 130,-204.5"/>
</a>
</g>
</g>
<!-- Node4&#45;&gt;Node1 -->
<g id="edge3_Node000001_Node000004" class="edge">
<title>Node4&#45;&gt;Node1</title>
<g id="a_edge3_Node000001_Node000004"><a xlink:title=" ">
<path fill="none" stroke="#63b8ff" d="M180.92,-204.17C178.9,-186.42 178.31,-161.92 186,-142 189.79,-132.19 195.4,-122.8 201.82,-114.15"/>
<polygon fill="none" stroke="#63b8ff" points="201.87,-114.08 202.49,-106.9 209.36,-104.7 208.74,-111.89 201.87,-114.08"/>
</a>
</g>
<text text-anchor="middle" x="246" y="-156" font-family="Helvetica,sans-Serif" font-size="10.00" fill="grey"> &#45;DATA_START_POSITION</text>
<text text-anchor="middle" x="246" y="-145" font-family="Helvetica,sans-Serif" font-size="10.00" fill="grey">&#45;MAX_SIZE</text>
</g>
<!-- Node5 -->
<g id="Node000005" class="node">
<title>Node5</title>
<g id="a_Node000005"><a xlink:title=" ">
<polygon fill="white" stroke="transparent" points="371,-253.5 285,-253.5 285,-204.5 371,-204.5 371,-253.5"/>
<text text-anchor="start" x="290" y="-241" font-family="Helvetica,sans-Serif" font-size="10.00">SFE_SPI_FLASH</text>
<text text-anchor="start" x="326" y="-226" font-family="Helvetica,sans-Serif" font-size="10.00"> </text>
<text text-anchor="start" x="326" y="-211" font-family="Helvetica,sans-Serif" font-size="10.00"> </text>
<polygon fill="#666666" stroke="#666666" points="285,-236 285,-236 371,-236 371,-236 285,-236"/>
<polygon fill="#666666" stroke="#666666" points="285,-221 285,-221 371,-221 371,-221 285,-221"/>
<polygon fill="none" stroke="#666666" points="285,-204.5 285,-253.5 371,-253.5 371,-204.5 285,-204.5"/>
</a>
</g>
</g>
<!-- Node5&#45;&gt;Node1 -->
<g id="edge4_Node000001_Node000005" class="edge">
<title>Node5&#45;&gt;Node1</title>
<g id="a_edge4_Node000001_Node000005"><a xlink:title=" ">
<path fill="none" stroke="#63b8ff" d="M324.03,-204.35C320.57,-186.7 314.73,-162.23 306,-142 305,-139.67 303.93,-137.33 302.81,-134.99"/>
<polygon fill="none" stroke="#63b8ff" points="302.69,-134.77 296.4,-131.25 297.23,-124.08 303.52,-127.6 302.69,-134.77"/>
</a>
</g>
<text text-anchor="middle" x="328.5" y="-150.5" font-family="Helvetica,sans-Serif" font-size="10.00" fill="grey"> &#45;flash</text>
</g>
<!-- Node6 -->
<g id="Node000006" class="node">
<title>Node6</title>
<g id="a_Node000006"><a xlink:title=" ">
<polygon fill="white" stroke="transparent" points="439,-253.5 389,-253.5 389,-204.5 439,-204.5 439,-253.5"/>
<text text-anchor="start" x="394" y="-241" font-family="Helvetica,sans-Serif" font-size="10.00">uint32_t</text>
<text text-anchor="start" x="412" y="-226" font-family="Helvetica,sans-Serif" font-size="10.00"> </text>
<text text-anchor="start" x="412" y="-211" font-family="Helvetica,sans-Serif" font-size="10.00"> </text>
<polygon fill="#666666" stroke="#666666" points="389,-236 389,-236 439,-236 439,-236 389,-236"/>
<polygon fill="#666666" stroke="#666666" points="389,-221 389,-221 439,-221 439,-221 389,-221"/>
<polygon fill="none" stroke="#666666" points="389,-204.5 389,-253.5 439,-253.5 439,-204.5 389,-204.5"/>
</a>
</g>
</g>
<!-- Node6&#45;&gt;Node1 -->
<g id="edge5_Node000001_Node000006" class="edge">
<title>Node6&#45;&gt;Node1</title>
<g id="a_edge5_Node000001_Node000006"><a xlink:title=" ">
<path fill="none" stroke="#63b8ff" d="M396.88,-204.47C391.53,-197.22 385.57,-189.24 380,-182 366.12,-163.95 363.82,-158.38 348,-142 336.93,-130.54 324.36,-118.94 312.15,-108.3"/>
<polygon fill="none" stroke="#63b8ff" points="312.01,-108.19 304.85,-107.31 302.91,-100.37 310.07,-101.24 312.01,-108.19"/>
</a>
</g>
<text text-anchor="middle" x="389" y="-150.5" font-family="Helvetica,sans-Serif" font-size="10.00" fill="grey"> &#45;position</text>
</g>
</g>
</svg>
</svg>

<style type='text/css'>
<![CDATA[
[data-mouse-over-selected='false'] { opacity: 0.7; }
[data-mouse-over-selected='true']  { opacity: 1.0; }
]]>
</style>
<script type="application/ecmascript"><![CDATA[
document.addEventListener('DOMContentLoaded', (event) => {
  highlightEdges();
  highlightAdjacentNodes();
});
]]></script>
</svg>
