<?xml version="1.0" encoding="UTF-8" standalone="no"?>
<!DOCTYPE svg PUBLIC "-//W3C//DTD SVG 1.1//EN"
 "http://www.w3.org/Graphics/SVG/1.1/DTD/svg11.dtd">
<!-- Generated by graphviz version 2.43.0 (0)
 -->
<!-- Title: RadioStorage Pages: 1 -->
<svg width="202pt" height="314pt"
 viewBox="0.00 0.00 202.00 314.00" xmlns="http://www.w3.org/2000/svg" xmlns:xlink="http://www.w3.org/1999/xlink">
<g id="graph0" class="graph" transform="scale(1 1) rotate(0) translate(4 310)">
<title>RadioStorage</title>
<!-- Node1 -->
<g id="Node000001" class="node">
<title>Node1</title>
<g id="a_Node000001"><a xlink:title="Implementation of a Storage device to interface with an SD card.">
<polygon fill="#999999" stroke="transparent" points="94,-79 0,-79 0,0 94,0 94,-79"/>
<text text-anchor="start" x="14" y="-66.5" font-family="Helvetica,sans-Serif" font-size="10.00">RadioStorage</text>
<text text-anchor="start" x="45" y="-51.5" font-family="Helvetica,sans-Serif" font-size="10.00"> </text>
<text text-anchor="start" x="4" y="-36.5" font-family="Helvetica,sans-Serif" font-size="10.00">+</text>
<text text-anchor="start" x="17" y="-36.5" font-family="Helvetica,sans-Serif" font-size="10.00">RadioStorage()</text>
<text text-anchor="start" x="4" y="-21.5" font-family="Helvetica,sans-Serif" font-size="10.00">+</text>
<text text-anchor="start" x="17" y="-21.5" font-family="Helvetica,sans-Serif" font-size="10.00">verify()</text>
<text text-anchor="start" x="4" y="-6.5" font-family="Helvetica,sans-Serif" font-size="10.00">+</text>
<text text-anchor="start" x="17" y="-6.5" font-family="Helvetica,sans-Serif" font-size="10.00">store()</text>
<polygon fill="#666666" stroke="#666666" points="0,-61.5 0,-61.5 94,-61.5 94,-61.5 0,-61.5"/>
<polygon fill="#666666" stroke="#666666" points="0,-46.5 0,-46.5 94,-46.5 94,-46.5 0,-46.5"/>
<polygon fill="none" stroke="#666666" points="0,0 0,-79 94,-79 94,0 0,0"/>
</a>
</g>
</g>
<!-- Node2 -->
<g id="Node000002" class="node">
<title>Node2</title>
<g id="a_Node000002"><a xlink:href="classStorage.html" target="_top" xlink:title="Parent class for all data storage devices (sd card, radio, etc)">
<polygon fill="white" stroke="transparent" points="194,-210 82,-210 82,-116 194,-116 194,-210"/>
<text text-anchor="start" x="119" y="-198" font-family="Helvetica,sans-Serif" font-size="10.00">Storage</text>
<text text-anchor="start" x="136" y="-183" font-family="Helvetica,sans-Serif" font-size="10.00"> </text>
<text text-anchor="start" x="86" y="-168" font-family="Helvetica,sans-Serif" font-size="10.00">+</text>
<text text-anchor="start" x="99" y="-168" font-family="Helvetica,sans-Serif" font-size="10.00">Storage()</text>
<text text-anchor="start" x="86" y="-153" font-family="Helvetica,sans-Serif" font-size="10.00">+</text>
<text text-anchor="start" x="99" y="-153" font-family="Helvetica,sans-Serif" font-size="10.00">getStorageName()</text>
<text text-anchor="start" x="86" y="-138" font-family="Helvetica,sans-Serif" font-size="10.00">+</text>
<text text-anchor="start" x="99" y="-138" font-family="Helvetica,sans-Serif" font-size="10.00">verify()</text>
<text text-anchor="start" x="86" y="-123" font-family="Helvetica,sans-Serif" font-size="10.00">+</text>
<text text-anchor="start" x="99" y="-123" font-family="Helvetica,sans-Serif" font-size="10.00">store()</text>
<polygon fill="#666666" stroke="#666666" points="82,-193 82,-193 194,-193 194,-193 82,-193"/>
<polygon fill="#666666" stroke="#666666" points="82,-178 82,-178 194,-178 194,-178 82,-178"/>
<polygon fill="none" stroke="#666666" points="82,-116 82,-210 194,-210 194,-116 82,-116"/>
</a>
</g>
</g>
<!-- Node2&#45;&gt;Node1 -->
<g id="edge1_Node000001_Node000002" class="edge">
<title>Node2&#45;&gt;Node1</title>
<g id="a_edge1_Node000001_Node000002"><a xlink:title=" ">
<path fill="none" stroke="#63b8ff" d="M97.33,-107.7C90.12,-98.07 82.74,-88.22 75.94,-79.14"/>
<polygon fill="none" stroke="#63b8ff" points="94.54,-109.81 103.34,-115.72 100.14,-105.62 94.54,-109.81"/>
</a>
</g>
</g>
<!-- Node3 -->
<g id="Node000003" class="node">
<title>Node3</title>
<g id="a_Node000003"><a xlink:title=" ">
<polygon fill="white" stroke="transparent" points="44.5,-306 5.5,-306 5.5,-257 44.5,-257 44.5,-306"/>
<text text-anchor="start" x="11" y="-293.5" font-family="Helvetica,sans-Serif" font-size="10.00">String</text>
<text text-anchor="start" x="23.5" y="-278.5" font-family="Helvetica,sans-Serif" font-size="10.00"> </text>
<text text-anchor="start" x="23.5" y="-263.5" font-family="Helvetica,sans-Serif" font-size="10.00"> </text>
<polygon fill="#666666" stroke="#666666" points="6,-288.5 6,-288.5 45,-288.5 45,-288.5 6,-288.5"/>
<polygon fill="#666666" stroke="#666666" points="6,-273.5 6,-273.5 45,-273.5 45,-273.5 6,-273.5"/>
<polygon fill="none" stroke="#666666" points="5.5,-257 5.5,-306 44.5,-306 44.5,-257 5.5,-257"/>
</a>
</g>
</g>
<!-- Node3&#45;&gt;Node1 -->
<g id="edge3_Node000001_Node000003" class="edge">
<title>Node3&#45;&gt;Node1</title>
<g id="a_edge3_Node000001_Node000003"><a xlink:title=" ">
<path fill="none" stroke="#63b8ff" d="M20.69,-256.84C15.58,-224.67 8.83,-165.47 18,-116 19.55,-107.65 21.98,-99.03 24.8,-90.73"/>
<polygon fill="none" stroke="#63b8ff" points="24.87,-90.55 23.17,-83.54 28.99,-79.28 30.68,-86.29 24.87,-90.55"/>
</a>
</g>
<text text-anchor="middle" x="45.5" y="-160.5" font-family="Helvetica,sans-Serif" font-size="10.00" fill="grey"> &#45;file_name</text>
</g>
<!-- Node3&#45;&gt;Node2 -->
<g id="edge2_Node000002_Node000003" class="edge">
<title>Node3&#45;&gt;Node2</title>
<g id="a_edge2_Node000002_Node000003"><a xlink:title=" ">
<path fill="none" stroke="#63b8ff" d="M44.68,-260.21C55.89,-248.65 70.52,-233.57 84.86,-218.79"/>
<polygon fill="none" stroke="#63b8ff" points="84.88,-218.76 86.19,-211.67 93.24,-210.15 91.93,-217.24 84.88,-218.76"/>
</a>
</g>
<text text-anchor="middle" x="112.5" y="-231" font-family="Helvetica,sans-Serif" font-size="10.00" fill="grey"> &#45;storage_name</text>
</g>
</g>
</svg>
