<?xml version="1.0" encoding="UTF-8" standalone="no"?>
<!DOCTYPE svg PUBLIC "-//W3C//DTD SVG 1.1//EN"
 "http://www.w3.org/Graphics/SVG/1.1/DTD/svg11.dtd">
<!-- Generated by graphviz version 2.43.0 (0)
 -->
<!-- Title: ZOPT220x_Control Pages: 1 -->
<svg width="178pt" height="281pt"
 viewBox="0.00 0.00 178.00 281.00" xmlns="http://www.w3.org/2000/svg" xmlns:xlink="http://www.w3.org/1999/xlink">
<g id="graph0" class="graph" transform="scale(1 1) rotate(0) translate(4 277)">
<title>ZOPT220x_Control</title>
<!-- Node1 -->
<g id="node1" class="node">
<title>Node1</title>
<g id="a_node1"><a xlink:title=" ">
<polygon fill="#bfbfbf" stroke="black" points="0,-0.5 0,-167.5 170,-167.5 170,-0.5 0,-0.5"/>
<text text-anchor="middle" x="85" y="-155.5" font-family="Helvetica,sans-Serif" font-size="10.00">ZOPT220x_Control</text>
<polyline fill="none" stroke="black" points="0,-148.5 170,-148.5 "/>
<text text-anchor="middle" x="85" y="-136.5" font-family="Helvetica,sans-Serif" font-size="10.00"> </text>
<polyline fill="none" stroke="black" points="0,-129.5 170,-129.5 "/>
<text text-anchor="start" x="8" y="-117.5" font-family="Helvetica,sans-Serif" font-size="10.00">+ zopt220xSetup()</text>
<text text-anchor="start" x="8" y="-106.5" font-family="Helvetica,sans-Serif" font-size="10.00">+ zopt220xSetupWithAddress()</text>
<text text-anchor="start" x="8" y="-95.5" font-family="Helvetica,sans-Serif" font-size="10.00">+ getUVIndex()</text>
<text text-anchor="start" x="8" y="-84.5" font-family="Helvetica,sans-Serif" font-size="10.00">+ getAdjustedUVIndex()</text>
<text text-anchor="start" x="8" y="-73.5" font-family="Helvetica,sans-Serif" font-size="10.00">+ getUVB()</text>
<text text-anchor="start" x="8" y="-62.5" font-family="Helvetica,sans-Serif" font-size="10.00">+ getALS()</text>
<text text-anchor="start" x="8" y="-51.5" font-family="Helvetica,sans-Serif" font-size="10.00">+ setMeasurementRate()</text>
<text text-anchor="start" x="8" y="-40.5" font-family="Helvetica,sans-Serif" font-size="10.00">+ setResolution()</text>
<text text-anchor="start" x="8" y="-29.5" font-family="Helvetica,sans-Serif" font-size="10.00">+ setGain()</text>
<text text-anchor="start" x="8" y="-18.5" font-family="Helvetica,sans-Serif" font-size="10.00">+ checkPowerOnStatus()</text>
<text text-anchor="start" x="8" y="-7.5" font-family="Helvetica,sans-Serif" font-size="10.00">and 14 more...</text>
</a>
</g>
</g>
<!-- Node2 -->
<g id="node2" class="node">
<title>Node2</title>
<g id="a_node2"><a xlink:title=" ">
<polygon fill="none" stroke="#bfbfbf" points="66,-215.5 66,-272.5 104,-272.5 104,-215.5 66,-215.5"/>
<text text-anchor="middle" x="85" y="-260.5" font-family="Helvetica,sans-Serif" font-size="10.00">byte</text>
<polyline fill="none" stroke="#bfbfbf" points="66,-253.5 104,-253.5 "/>
<text text-anchor="middle" x="85" y="-241.5" font-family="Helvetica,sans-Serif" font-size="10.00"> </text>
<polyline fill="none" stroke="#bfbfbf" points="66,-234.5 104,-234.5 "/>
<text text-anchor="middle" x="85" y="-222.5" font-family="Helvetica,sans-Serif" font-size="10.00"> </text>
</a>
</g>
</g>
<!-- Node2&#45;&gt;Node1 -->
<g id="edge1" class="edge">
<title>Node2&#45;&gt;Node1</title>
<path fill="none" stroke="#404040" d="M85,-215.48C85,-205.12 85,-192.67 85,-179.63"/>
<polygon fill="none" stroke="#404040" points="85,-179.54 81,-173.54 85,-167.54 89,-173.54 85,-179.54"/>
<text text-anchor="middle" x="118.5" y="-189" font-family="Helvetica,sans-Serif" font-size="10.00"> &#45;zoptAddress</text>
</g>
</g>
</svg>
