<?xml version="1.0" encoding="UTF-8" standalone="no"?>
<!DOCTYPE svg PUBLIC "-//W3C//DTD SVG 1.1//EN"
 "http://www.w3.org/Graphics/SVG/1.1/DTD/svg11.dtd">
<!-- Generated by graphviz version 2.43.0 (0)
 -->
<!-- Title: ZOPT220x_Control::zoptWriteRegister Pages: 1 -->
<!--zoomable 396 -->

<svg id="main" version="1.1" xmlns="http://www.w3.org/2000/svg" xmlns:xlink="http://www.w3.org/1999/xlink" xml:space="preserve" onload="init(evt)">
<style type="text/css"><![CDATA[
.node, .edge {opacity: 0.7;}
.node.selected, .edge.selected {opacity: 1;}
.edge:hover path { stroke: red; }
.edge:hover polygon { stroke: red; fill: red; }
]]></style>

<defs>
  <circle id="rim" cx="0" cy="0" r="7"/>
  <circle id="rim2" cx="0" cy="0" r="3.5"/>
  <g id="zoomPlus">
    <use xlink:href="#rim" fill="#404040"><set attributeName="fill" to="#808080" begin="zoomplus.mouseover" end="zoomplus.mouseout"/></use>
    <path d="M-4,0h8M0,-4v8" fill="none" stroke="white" stroke-width="1.5" pointer-events="none"/>
  </g>
  <g id="zoomMin">
    <use xlink:href="#rim" fill="#404040"><set attributeName="fill" to="#808080" begin="zoomminus.mouseover" end="zoomminus.mouseout"/></use>
    <path d="M-4,0h8" fill="none" stroke="white" stroke-width="1.5" pointer-events="none"/>
  </g>
  <g id="arrowUp" transform="translate(30 24)">
    <use xlink:href="#rim"/>
    <path pointer-events="none" fill="none" stroke="white" stroke-width="1.5" d="M0,-3.0v7 M-2.5,-0.5L0,-3.0L2.5,-0.5"/>
  </g>
  <g id="arrowRight" transform="rotate(90) translate(36 -43)">
    <use xlink:href="#rim"/>
    <path pointer-events="none" fill="none" stroke="white" stroke-width="1.5" d="M0,-3.0v7 M-2.5,-0.5L0,-3.0L2.5,-0.5"/>
  </g>
  <g id="arrowDown" transform="rotate(180) translate(-30 -48)">
    <use xlink:href="#rim"/>
    <path pointer-events="none" fill="none" stroke="white" stroke-width="1.5" d="M0,-3.0v7 M-2.5,-0.5L0,-3.0L2.5,-0.5"/>
  </g>
  <g id="arrowLeft" transform="rotate(270) translate(-36 17)">
    <use xlink:href="#rim"/>
    <path pointer-events="none" fill="none" stroke="white" stroke-width="1.5" d="M0,-3.0v7 M-2.5,-0.5L0,-3.0L2.5,-0.5"/>
  </g>
  <g id="resetDef">
    <use xlink:href="#rim2" fill="#404040"><set attributeName="fill" to="#808080" begin="reset.mouseover" end="reset.mouseout"/></use>
  </g>
</defs>
<script type="application/ecmascript">
var viewWidth = 975;
var viewHeight = 396;
var sectionId = 'dynsection-37';
</script>
<script type="application/ecmascript" xlink:href="svg.min.js"/>
<svg id="graph" class="graph">
<g id="viewport">
<title>ZOPT220x_Control::zoptWriteRegister</title>
<!-- Node1 -->
<g id="Node000001" class="node">
<title>Node1</title>
<g id="a_Node000001"><a xlink:title=" ">
<polygon fill="#999999" stroke="#666666" points="967,-172.5 806,-172.5 806,-142.5 967,-142.5 967,-172.5"/>
<text text-anchor="start" x="814" y="-160.5" font-family="Helvetica,sans-Serif" font-size="10.00">ZOPT220x_Control::zoptWrite</text>
<text text-anchor="middle" x="886.5" y="-149.5" font-family="Helvetica,sans-Serif" font-size="10.00">Register</text>
</a>
</g>
</g>
<!-- Node2 -->
<g id="Node000002" class="node">
<title>Node2</title>
<g id="a_Node000002"><a xlink:href="classZOPT220x__Control.html#a1f67c4ca2c2c8f160ea8f790fb433602" target="_top" xlink:title=" ">
<polygon fill="white" stroke="#666666" points="735.5,-344.5 586.5,-344.5 586.5,-314.5 735.5,-314.5 735.5,-344.5"/>
<text text-anchor="start" x="594.5" y="-332.5" font-family="Helvetica,sans-Serif" font-size="10.00">ZOPT220x_Control::disable</text>
<text text-anchor="middle" x="661" y="-321.5" font-family="Helvetica,sans-Serif" font-size="10.00">Sensor</text>
</a>
</g>
</g>
<!-- Node1&#45;&gt;Node2 -->
<g id="edge1_Node000001_Node000002" class="edge">
<title>Node1&#45;&gt;Node2</title>
<g id="a_edge1_Node000001_Node000002"><a xlink:title=" ">
<path fill="none" stroke="#63b8ff" d="M873.37,-182.01C855.51,-215.41 818.91,-274.61 770,-305.5 759.61,-312.07 747.66,-316.85 735.59,-320.33"/>
<polygon fill="#63b8ff" stroke="#63b8ff" points="876.59,-183.41 878.1,-172.92 870.38,-180.17 876.59,-183.41"/>
</a>
</g>
</g>
<!-- Node3 -->
<g id="Node000003" class="node">
<title>Node3</title>
<g id="a_Node000003"><a xlink:href="classZOPT220x__Control.html#a6878d8f2dbff54f6e2f9203df20b9927" target="_top" xlink:title=" ">
<polygon fill="white" stroke="#666666" points="734,-296.5 588,-296.5 588,-266.5 734,-266.5 734,-296.5"/>
<text text-anchor="start" x="596" y="-284.5" font-family="Helvetica,sans-Serif" font-size="10.00">ZOPT220x_Control::enable</text>
<text text-anchor="middle" x="661" y="-273.5" font-family="Helvetica,sans-Serif" font-size="10.00">Sensor</text>
</a>
</g>
</g>
<!-- Node1&#45;&gt;Node3 -->
<g id="edge2_Node000001_Node000003" class="edge">
<title>Node1&#45;&gt;Node3</title>
<g id="a_edge2_Node000001_Node000003"><a xlink:title=" ">
<path fill="none" stroke="#63b8ff" d="M865.71,-180.27C844.4,-203.31 808.36,-238.2 770,-257.5 758.85,-263.11 746.4,-267.42 734.02,-270.73"/>
<polygon fill="#63b8ff" stroke="#63b8ff" points="868.48,-182.42 872.61,-172.66 863.3,-177.72 868.48,-182.42"/>
</a>
</g>
</g>
<!-- Node4 -->
<g id="Node000004" class="node">
<title>Node4</title>
<g id="a_Node000004"><a xlink:href="classZOPT220x__Control.html#afa9fab0ef429c9e7a46afd752a2ee44d" target="_top" xlink:title=" ">
<polygon fill="white" stroke="#666666" points="736.5,-167 585.5,-167 585.5,-148 736.5,-148 736.5,-167"/>
<text text-anchor="middle" x="661" y="-155" font-family="Helvetica,sans-Serif" font-size="10.00">ZOPT220x_Control::setGain</text>
</a>
</g>
</g>
<!-- Node1&#45;&gt;Node4 -->
<g id="edge3_Node000001_Node000004" class="edge">
<title>Node1&#45;&gt;Node4</title>
<g id="a_edge3_Node000001_Node000004"><a xlink:title=" ">
<path fill="none" stroke="#63b8ff" d="M795.65,-157.5C776.15,-157.5 755.71,-157.5 736.85,-157.5"/>
<polygon fill="#63b8ff" stroke="#63b8ff" points="795.76,-161 805.76,-157.5 795.76,-154 795.76,-161"/>
</a>
</g>
</g>
<!-- Node9 -->
<g id="Node000009" class="node">
<title>Node9</title>
<g id="a_Node000009"><a xlink:href="classZOPT220x__Control.html#a7bd39622c1375fed8d64c885aad5ae2d" target="_top" xlink:title=" ">
<polygon fill="white" stroke="#666666" points="747.5,-93 574.5,-93 574.5,-74 747.5,-74 747.5,-93"/>
<text text-anchor="middle" x="661" y="-81" font-family="Helvetica,sans-Serif" font-size="10.00">ZOPT220x_Control::setI2CAdr52</text>
</a>
</g>
</g>
<!-- Node1&#45;&gt;Node9 -->
<g id="edge8_Node000001_Node000009" class="edge">
<title>Node1&#45;&gt;Node9</title>
<g id="a_edge8_Node000001_Node000009"><a xlink:title=" ">
<path fill="none" stroke="#63b8ff" d="M850.99,-137.53C828.58,-125.39 798.37,-110.53 770,-101.5 759.31,-98.1 747.82,-95.31 736.45,-93.03"/>
<polygon fill="#63b8ff" stroke="#63b8ff" points="849.33,-140.61 859.78,-142.37 852.71,-134.48 849.33,-140.61"/>
</a>
</g>
</g>
<!-- Node10 -->
<g id="Node000010" class="node">
<title>Node10</title>
<g id="a_Node000010"><a xlink:href="classZOPT220x__Control.html#ae2ff7f5af470f4f235e7725c4c35ca64" target="_top" xlink:title=" ">
<polygon fill="white" stroke="#666666" points="747.5,-56 574.5,-56 574.5,-37 747.5,-37 747.5,-56"/>
<text text-anchor="middle" x="661" y="-44" font-family="Helvetica,sans-Serif" font-size="10.00">ZOPT220x_Control::setI2CAdr53</text>
</a>
</g>
</g>
<!-- Node1&#45;&gt;Node10 -->
<g id="edge9_Node000001_Node000010" class="edge">
<title>Node1&#45;&gt;Node10</title>
<g id="a_edge9_Node000001_Node000010"><a xlink:title=" ">
<path fill="none" stroke="#63b8ff" d="M864.86,-135.23C843.36,-113.52 807.61,-81.37 770,-64.5 762.37,-61.08 754.17,-58.3 745.82,-56.05"/>
<polygon fill="#63b8ff" stroke="#63b8ff" points="862.37,-137.7 871.85,-142.44 867.4,-132.82 862.37,-137.7"/>
</a>
</g>
</g>
<!-- Node11 -->
<g id="Node000011" class="node">
<title>Node11</title>
<g id="a_Node000011"><a xlink:href="classZOPT220x__Control.html#a809d1f5db2a9f0884fa82e0b77b944bf" target="_top" xlink:title=" ">
<polygon fill="white" stroke="#666666" points="770,-130 552,-130 552,-111 770,-111 770,-130"/>
<text text-anchor="middle" x="661" y="-118" font-family="Helvetica,sans-Serif" font-size="10.00">ZOPT220x_Control::setMeasurementRate</text>
</a>
</g>
</g>
<!-- Node1&#45;&gt;Node11 -->
<g id="edge10_Node000001_Node000011" class="edge">
<title>Node1&#45;&gt;Node11</title>
<g id="a_edge10_Node000001_Node000011"><a xlink:title=" ">
<path fill="none" stroke="#63b8ff" d="M795.64,-142.62C769.99,-138.38 742.74,-133.87 719.59,-130.03"/>
<polygon fill="#63b8ff" stroke="#63b8ff" points="795.32,-146.12 805.76,-144.3 796.46,-139.21 795.32,-146.12"/>
</a>
</g>
</g>
<!-- Node12 -->
<g id="Node000012" class="node">
<title>Node12</title>
<g id="a_Node000012"><a xlink:href="classZOPT220x__Control.html#a70fedf9d112bc34ef55e21452acd3877" target="_top" xlink:title=" ">
<polygon fill="white" stroke="#666666" points="738.5,-248 583.5,-248 583.5,-229 738.5,-229 738.5,-248"/>
<text text-anchor="middle" x="661" y="-236" font-family="Helvetica,sans-Serif" font-size="10.00">ZOPT220x_Control::setMode</text>
</a>
</g>
</g>
<!-- Node1&#45;&gt;Node12 -->
<g id="edge12_Node000001_Node000012" class="edge">
<title>Node1&#45;&gt;Node12</title>
<g id="a_edge12_Node000001_Node000012"><a xlink:title=" ">
<path fill="none" stroke="#63b8ff" d="M849.6,-177.5C827.24,-189.29 797.58,-203.76 770,-213.5 752.03,-219.84 731.81,-225.02 713.77,-228.98"/>
<polygon fill="#63b8ff" stroke="#63b8ff" points="851.53,-180.43 858.7,-172.63 848.23,-174.25 851.53,-180.43"/>
</a>
</g>
</g>
<!-- Node17 -->
<g id="Node000017" class="node">
<title>Node17</title>
<g id="a_Node000017"><a xlink:href="classZOPT220x__Control.html#aa8d79db36ab65e003f87a493f720233d" target="_top" xlink:title=" ">
<polygon fill="white" stroke="#666666" points="751,-204 571,-204 571,-185 751,-185 751,-204"/>
<text text-anchor="middle" x="661" y="-192" font-family="Helvetica,sans-Serif" font-size="10.00">ZOPT220x_Control::setResolution</text>
</a>
</g>
</g>
<!-- Node1&#45;&gt;Node17 -->
<g id="edge19_Node000001_Node000017" class="edge">
<title>Node1&#45;&gt;Node17</title>
<g id="a_edge19_Node000001_Node000017"><a xlink:title=" ">
<path fill="none" stroke="#63b8ff" d="M795.64,-172.38C769.99,-176.62 742.74,-181.13 719.59,-184.97"/>
<polygon fill="#63b8ff" stroke="#63b8ff" points="796.46,-175.79 805.76,-170.7 795.32,-168.88 796.46,-175.79"/>
</a>
</g>
</g>
<!-- Node18 -->
<g id="Node000018" class="node">
<title>Node18</title>
<g id="a_Node000018"><a xlink:href="classZOPT220x__Control.html#adf29f97ec2609d414b33101264158486" target="_top" xlink:title=" ">
<polygon fill="white" stroke="#666666" points="740.5,-19 581.5,-19 581.5,0 740.5,0 740.5,-19"/>
<text text-anchor="middle" x="661" y="-7" font-family="Helvetica,sans-Serif" font-size="10.00">ZOPT220x_Control::softReset</text>
</a>
</g>
</g>
<!-- Node1&#45;&gt;Node18 -->
<g id="edge22_Node000001_Node000018" class="edge">
<title>Node1&#45;&gt;Node18</title>
<g id="a_edge22_Node000001_Node000018"><a xlink:title=" ">
<path fill="none" stroke="#63b8ff" d="M871.69,-133.85C852.81,-103.83 815.98,-52.9 770,-27.5 760.93,-22.49 750.83,-18.8 740.55,-16.09"/>
<polygon fill="#63b8ff" stroke="#63b8ff" points="868.75,-135.75 876.97,-142.44 874.72,-132.09 868.75,-135.75"/>
</a>
</g>
</g>
<!-- Node5 -->
<g id="Node000005" class="node">
<title>Node5</title>
<g id="a_Node000005"><a xlink:href="classZOPT220Sensor.html#a6aeb56062c5ff976d199ae407df9ed6c" target="_top" xlink:title="Reads data from the ZOPT220x sensor and returns it in CSV format.">
<polygon fill="white" stroke="#666666" points="315.5,-226 170.5,-226 170.5,-207 315.5,-207 315.5,-226"/>
<text text-anchor="middle" x="243" y="-214" font-family="Helvetica,sans-Serif" font-size="10.00">ZOPT220Sensor::readData</text>
</a>
</g>
</g>
<!-- Node4&#45;&gt;Node5 -->
<g id="edge4_Node000004_Node000005" class="edge">
<title>Node4&#45;&gt;Node5</title>
<g id="a_edge4_Node000004_Node000005"><a xlink:title=" ">
<path fill="none" stroke="#63b8ff" d="M575.16,-167.97C514.57,-175.63 431.18,-186.56 358,-197.5 338.65,-200.39 317.51,-203.84 298.74,-207"/>
<polygon fill="#63b8ff" stroke="#63b8ff" points="575.95,-171.39 585.44,-166.67 575.08,-164.45 575.95,-171.39"/>
</a>
</g>
</g>
<!-- Node6 -->
<g id="Node000006" class="node">
<title>Node6</title>
<g id="a_Node000006"><a xlink:href="classZOPT220x__Control.html#adc20ce356a572b8039ba96b9160e97c4" target="_top" xlink:title=" ">
<polygon fill="white" stroke="#666666" points="516,-129.5 358,-129.5 358,-99.5 516,-99.5 516,-129.5"/>
<text text-anchor="start" x="366" y="-117.5" font-family="Helvetica,sans-Serif" font-size="10.00">ZOPT220x_Control::zopt220x</text>
<text text-anchor="middle" x="437" y="-106.5" font-family="Helvetica,sans-Serif" font-size="10.00">SetupWithAddress</text>
</a>
</g>
</g>
<!-- Node4&#45;&gt;Node6 -->
<g id="edge5_Node000004_Node000006" class="edge">
<title>Node4&#45;&gt;Node6</title>
<g id="a_edge5_Node000004_Node000006"><a xlink:title=" ">
<path fill="none" stroke="#63b8ff" d="M593.92,-146.24C580.06,-143.77 565.54,-141.12 552,-138.5 537.6,-135.72 522.22,-132.59 507.56,-129.53"/>
<polygon fill="#63b8ff" stroke="#63b8ff" points="593.42,-149.7 603.88,-147.99 594.64,-142.81 593.42,-149.7"/>
</a>
</g>
</g>
<!-- Node7 -->
<g id="Node000007" class="node">
<title>Node7</title>
<g id="a_Node000007"><a xlink:href="classZOPT220x__Control.html#aab772e9154760b2ddbee82953532f08e" target="_top" xlink:title=" ">
<polygon fill="white" stroke="#666666" points="322,-129.5 164,-129.5 164,-99.5 322,-99.5 322,-129.5"/>
<text text-anchor="start" x="172" y="-117.5" font-family="Helvetica,sans-Serif" font-size="10.00">ZOPT220x_Control::zopt220x</text>
<text text-anchor="middle" x="243" y="-106.5" font-family="Helvetica,sans-Serif" font-size="10.00">Setup</text>
</a>
</g>
</g>
<!-- Node6&#45;&gt;Node7 -->
<g id="edge6_Node000006_Node000007" class="edge">
<title>Node6&#45;&gt;Node7</title>
<g id="a_edge6_Node000006_Node000007"><a xlink:title=" ">
<path fill="none" stroke="#63b8ff" d="M347.85,-114.5C339.23,-114.5 330.53,-114.5 322.02,-114.5"/>
<polygon fill="#63b8ff" stroke="#63b8ff" points="347.91,-118 357.91,-114.5 347.91,-111 347.91,-118"/>
</a>
</g>
</g>
<!-- Node8 -->
<g id="Node000008" class="node">
<title>Node8</title>
<g id="a_Node000008"><a xlink:href="classZOPT220Sensor.html#a5fab507a3cadaab6d6026c3fea36d0e6" target="_top" xlink:title="Verifies the connection to the ZOPT220x sensor.">
<polygon fill="white" stroke="#666666" points="128,-124 0,-124 0,-105 128,-105 128,-124"/>
<text text-anchor="middle" x="64" y="-112" font-family="Helvetica,sans-Serif" font-size="10.00">ZOPT220Sensor::verify</text>
</a>
</g>
</g>
<!-- Node7&#45;&gt;Node8 -->
<g id="edge7_Node000007_Node000008" class="edge">
<title>Node7&#45;&gt;Node8</title>
<g id="a_edge7_Node000007_Node000008"><a xlink:title=" ">
<path fill="none" stroke="#63b8ff" d="M153.73,-114.5C145.09,-114.5 136.45,-114.5 128.13,-114.5"/>
<polygon fill="#63b8ff" stroke="#63b8ff" points="153.85,-118 163.85,-114.5 153.85,-111 153.85,-118"/>
</a>
</g>
</g>
<!-- Node11&#45;&gt;Node6 -->
<g id="edge11_Node000011_Node000006" class="edge">
<title>Node11&#45;&gt;Node6</title>
<g id="a_edge11_Node000011_Node000006"><a xlink:title=" ">
<path fill="none" stroke="#63b8ff" d="M541.79,-117.31C533.16,-117.07 524.59,-116.84 516.3,-116.62"/>
<polygon fill="#63b8ff" stroke="#63b8ff" points="541.84,-120.81 551.93,-117.58 542.02,-113.81 541.84,-120.81"/>
</a>
</g>
</g>
<!-- Node13 -->
<g id="Node000013" class="node">
<title>Node13</title>
<g id="a_Node000013"><a xlink:href="classZOPT220x__Control.html#a27c0821f9341f36d87c9388ce7bf4ee5" target="_top" xlink:title=" ">
<polygon fill="white" stroke="#666666" points="510,-253.5 364,-253.5 364,-223.5 510,-223.5 510,-253.5"/>
<text text-anchor="start" x="372" y="-241.5" font-family="Helvetica,sans-Serif" font-size="10.00">ZOPT220x_Control::enable</text>
<text text-anchor="middle" x="437" y="-230.5" font-family="Helvetica,sans-Serif" font-size="10.00">ALSSensing</text>
</a>
</g>
</g>
<!-- Node12&#45;&gt;Node13 -->
<g id="edge13_Node000012_Node000013" class="edge">
<title>Node12&#45;&gt;Node13</title>
<g id="a_edge13_Node000012_Node000013"><a xlink:title=" ">
<path fill="none" stroke="#63b8ff" d="M573.17,-238.5C552.34,-238.5 530.32,-238.5 510.23,-238.5"/>
<polygon fill="#63b8ff" stroke="#63b8ff" points="573.29,-242 583.29,-238.5 573.29,-235 573.29,-242"/>
</a>
</g>
</g>
<!-- Node14 -->
<g id="Node000014" class="node">
<title>Node14</title>
<g id="a_Node000014"><a xlink:href="classZOPT220x__Control.html#a0d055b74457d1c10173897918d5610ab" target="_top" xlink:title=" ">
<polygon fill="white" stroke="#666666" points="510,-387.5 364,-387.5 364,-357.5 510,-357.5 510,-387.5"/>
<text text-anchor="start" x="372" y="-375.5" font-family="Helvetica,sans-Serif" font-size="10.00">ZOPT220x_Control::enable</text>
<text text-anchor="middle" x="437" y="-364.5" font-family="Helvetica,sans-Serif" font-size="10.00">RawSensing</text>
</a>
</g>
</g>
<!-- Node12&#45;&gt;Node14 -->
<g id="edge15_Node000012_Node000014" class="edge">
<title>Node12&#45;&gt;Node14</title>
<g id="a_edge15_Node000012_Node000014"><a xlink:title=" ">
<path fill="none" stroke="#63b8ff" d="M573.68,-245.18C565.85,-248.22 558.45,-252.24 552,-257.5 518.29,-284.99 547.93,-318.97 516,-348.5 512.26,-351.96 508.02,-354.93 503.51,-357.46"/>
<polygon fill="#63b8ff" stroke="#63b8ff" points="575.04,-248.41 583.42,-241.92 572.82,-241.77 575.04,-248.41"/>
</a>
</g>
</g>
<!-- Node15 -->
<g id="Node000015" class="node">
<title>Node15</title>
<g id="a_Node000015"><a xlink:href="classZOPT220x__Control.html#a1172703928cf494b466ea2c3595bbbba" target="_top" xlink:title=" ">
<polygon fill="white" stroke="#666666" points="510,-301.5 364,-301.5 364,-271.5 510,-271.5 510,-301.5"/>
<text text-anchor="start" x="372" y="-289.5" font-family="Helvetica,sans-Serif" font-size="10.00">ZOPT220x_Control::enable</text>
<text text-anchor="middle" x="437" y="-278.5" font-family="Helvetica,sans-Serif" font-size="10.00">UVBSensing</text>
</a>
</g>
</g>
<!-- Node12&#45;&gt;Node15 -->
<g id="edge16_Node000012_Node000015" class="edge">
<title>Node12&#45;&gt;Node15</title>
<g id="a_edge16_Node000012_Node000015"><a xlink:title=" ">
<path fill="none" stroke="#63b8ff" d="M591.37,-249.78C578.26,-252.16 564.68,-254.78 552,-257.5 532.93,-261.6 512.23,-266.67 493.76,-271.43"/>
<polygon fill="#63b8ff" stroke="#63b8ff" points="592.04,-253.21 601.27,-248.01 590.81,-246.32 592.04,-253.21"/>
</a>
</g>
</g>
<!-- Node16 -->
<g id="Node000016" class="node">
<title>Node16</title>
<g id="a_Node000016"><a xlink:href="classZOPT220x__Control.html#ac427197b44897ed82f77069e2e88270a" target="_top" xlink:title=" ">
<polygon fill="white" stroke="#666666" points="513,-339 361,-339 361,-320 513,-320 513,-339"/>
<text text-anchor="middle" x="437" y="-327" font-family="Helvetica,sans-Serif" font-size="10.00">ZOPT220x_Control::standby</text>
</a>
</g>
</g>
<!-- Node12&#45;&gt;Node16 -->
<g id="edge18_Node000012_Node000016" class="edge">
<title>Node12&#45;&gt;Node16</title>
<g id="a_edge18_Node000012_Node000016"><a xlink:title=" ">
<path fill="none" stroke="#63b8ff" d="M573.56,-247.13C565.95,-249.81 558.63,-253.21 552,-257.5 528.09,-272.97 539.4,-294.27 516,-310.5 510.39,-314.39 504.07,-317.49 497.51,-319.96"/>
<polygon fill="#63b8ff" stroke="#63b8ff" points="574.81,-250.41 583.32,-244.1 572.73,-243.72 574.81,-250.41"/>
</a>
</g>
</g>
<!-- Node13&#45;&gt;Node5 -->
<g id="edge14_Node000013_Node000005" class="edge">
<title>Node13&#45;&gt;Node5</title>
<g id="a_edge14_Node000013_Node000005"><a xlink:title=" ">
<path fill="none" stroke="#63b8ff" d="M353.89,-229.09C341.22,-227.64 328.22,-226.15 315.81,-224.73"/>
<polygon fill="#63b8ff" stroke="#63b8ff" points="353.63,-232.58 363.96,-230.25 354.42,-225.63 353.63,-232.58"/>
</a>
</g>
</g>
<!-- Node15&#45;&gt;Node5 -->
<g id="edge17_Node000015_Node000005" class="edge">
<title>Node15&#45;&gt;Node5</title>
<g id="a_edge17_Node000015_Node000005"><a xlink:title=" ">
<path fill="none" stroke="#63b8ff" d="M375.21,-268.35C369.37,-266.44 363.56,-264.47 358,-262.5 325.62,-251.01 288.88,-235.78 266.07,-226.05"/>
<polygon fill="#63b8ff" stroke="#63b8ff" points="374.43,-271.77 385.03,-271.5 376.57,-265.11 374.43,-271.77"/>
</a>
</g>
</g>
<!-- Node17&#45;&gt;Node5 -->
<g id="edge20_Node000017_Node000005" class="edge">
<title>Node17&#45;&gt;Node5</title>
<g id="a_edge20_Node000017_Node000005"><a xlink:title=" ">
<path fill="none" stroke="#63b8ff" d="M560.77,-199.75C485.38,-203.73 383.46,-209.12 315.82,-212.7"/>
<polygon fill="#63b8ff" stroke="#63b8ff" points="560.96,-203.24 570.76,-199.22 560.59,-196.25 560.96,-203.24"/>
</a>
</g>
</g>
<!-- Node17&#45;&gt;Node6 -->
<g id="edge21_Node000017_Node000006" class="edge">
<title>Node17&#45;&gt;Node6</title>
<g id="a_edge21_Node000017_Node000006"><a xlink:title=" ">
<path fill="none" stroke="#63b8ff" d="M577.37,-182.76C568.7,-180.7 560.11,-178.3 552,-175.5 518.69,-163.99 483.36,-143.65 461.02,-129.65"/>
<polygon fill="#63b8ff" stroke="#63b8ff" points="576.63,-186.19 587.16,-184.95 578.16,-179.35 576.63,-186.19"/>
</a>
</g>
</g>
</g>
</svg>

<g id="navigator" transform="translate(0 0)" fill="#404254">
  <rect fill="#f2f5e9" fill-opacity="0.5" stroke="#606060" stroke-width=".5" x="0" y="0" width="60" height="60"/>
  <use id="zoomplus" xlink:href="#zoomPlus" x="17" y="9" onmousedown="handleZoom(evt,'in')"/>
  <use id="zoomminus" xlink:href="#zoomMin" x="42" y="9" onmousedown="handleZoom(evt,'out')"/>
  <use id="reset" xlink:href="#resetDef" x="30" y="36" onmousedown="handleReset()"/>
   <use id="arrowup" xlink:href="#arrowUp" x="0" y="0" onmousedown="handlePan(0,-1)"/>
  <use id="arrowright" xlink:href="#arrowRight" x="0" y="0" onmousedown="handlePan(1,0)"/>
  <use id="arrowdown" xlink:href="#arrowDown" x="0" y="0" onmousedown="handlePan(0,1)"/>
  <use id="arrowleft" xlink:href="#arrowLeft" x="0" y="0" onmousedown="handlePan(-1,0)"/>
</g>
<svg viewBox="0 0 15 15" width="100%" height="30px" preserveAspectRatio="xMaxYMin meet">
 <g id="arrow_out" transform="scale(0.3 0.3)">
  <a xlink:href="classZOPT220x__Control_ab5f43fd630eaaadeea212559e12648be_icgraph_org.svg" target="_base">
   <rect id="button" ry="5" rx="5" y="6" x="6" height="38" width="38"
        fill="#f2f5e9" fill-opacity="0.5" stroke="#606060" stroke-width="1.0"/>
   <path id="arrow"
     d="M 11.500037,31.436501 C 11.940474,20.09759 22.043105,11.32322 32.158766,21.979434 L 37.068811,17.246167 C 37.068811,17.246167 37.088388,32 37.088388,32 L 22.160133,31.978069 C 22.160133,31.978069 26.997745,27.140456 26.997745,27.140456 C 18.528582,18.264221 13.291696,25.230495 11.500037,31.436501 z"
     style="fill:#404040;"/>
  </a>
 </g>
</svg>

<style type='text/css'>
<![CDATA[
[data-mouse-over-selected='false'] { opacity: 0.7; }
[data-mouse-over-selected='true']  { opacity: 1.0; }
]]>
</style>
<script type="application/ecmascript"><![CDATA[
document.addEventListener('DOMContentLoaded', (event) => {
  highlightEdges();
  highlightAdjacentNodes();
});
]]></script>
</svg>
