<?xml version="1.0" encoding="UTF-8" standalone="no"?>
<!DOCTYPE svg PUBLIC "-//W3C//DTD SVG 1.1//EN"
 "http://www.w3.org/Graphics/SVG/1.1/DTD/svg11.dtd">
<!-- Generated by graphviz version 2.43.0 (0)
 -->
<!-- Title: GeigerSensor Pages: 1 -->
<svg width="398pt" height="475pt"
 viewBox="0.00 0.00 397.50 475.00" xmlns="http://www.w3.org/2000/svg" xmlns:xlink="http://www.w3.org/1999/xlink">
<g id="graph0" class="graph" transform="scale(1 1) rotate(0) translate(4 471)">
<title>GeigerSensor</title>
<!-- Node1 -->
<g id="Node000001" class="node">
<title>Node1</title>
<g id="a_Node000001"><a xlink:title="A class for interfacing with a Geiger counter sensor.">
<polygon fill="#999999" stroke="transparent" points="280.5,-109 182.5,-109 182.5,0 280.5,0 280.5,-109"/>
<text text-anchor="start" x="198.5" y="-96.5" font-family="Helvetica,sans-Serif" font-size="10.00">GeigerSensor</text>
<text text-anchor="start" x="229.5" y="-81.5" font-family="Helvetica,sans-Serif" font-size="10.00"> </text>
<text text-anchor="start" x="186.5" y="-66.5" font-family="Helvetica,sans-Serif" font-size="10.00">+</text>
<text text-anchor="start" x="199.5" y="-66.5" font-family="Helvetica,sans-Serif" font-size="10.00">GeigerSensor()</text>
<text text-anchor="start" x="186.5" y="-51.5" font-family="Helvetica,sans-Serif" font-size="10.00">+</text>
<text text-anchor="start" x="199.5" y="-51.5" font-family="Helvetica,sans-Serif" font-size="10.00">GeigerSensor()</text>
<text text-anchor="start" x="186.5" y="-36.5" font-family="Helvetica,sans-Serif" font-size="10.00">+</text>
<text text-anchor="start" x="199.5" y="-36.5" font-family="Helvetica,sans-Serif" font-size="10.00">verify()</text>
<text text-anchor="start" x="186.5" y="-21.5" font-family="Helvetica,sans-Serif" font-size="10.00">+</text>
<text text-anchor="start" x="199.5" y="-21.5" font-family="Helvetica,sans-Serif" font-size="10.00">readData()</text>
<text text-anchor="start" x="189" y="-6.5" font-family="Helvetica,sans-Serif" font-size="10.00">&#45;</text>
<text text-anchor="start" x="199.5" y="-6.5" font-family="Helvetica,sans-Serif" font-size="10.00">geigerCounter()</text>
<polygon fill="#666666" stroke="#666666" points="182.5,-91.5 182.5,-91.5 280.5,-91.5 280.5,-91.5 182.5,-91.5"/>
<polygon fill="#666666" stroke="#666666" points="182.5,-76.5 182.5,-76.5 280.5,-76.5 280.5,-76.5 182.5,-76.5"/>
<polygon fill="none" stroke="#666666" points="182.5,0 182.5,-109 280.5,-109 280.5,0 182.5,0"/>
</a>
</g>
</g>
<!-- Node2 -->
<g id="Node000002" class="node">
<title>Node2</title>
<g id="a_Node000002"><a xlink:href="classSensor.html" target="_top" xlink:title="Parent class for sensor objects.">
<polygon fill="white" stroke="transparent" points="237,-360 104,-360 104,-146 237,-146 237,-360"/>
<text text-anchor="start" x="154" y="-348" font-family="Helvetica,sans-Serif" font-size="10.00">Sensor</text>
<text text-anchor="start" x="169" y="-333" font-family="Helvetica,sans-Serif" font-size="10.00"> </text>
<text text-anchor="start" x="108.5" y="-318" font-family="Helvetica,sans-Serif" font-size="10.00">+</text>
<text text-anchor="start" x="121.5" y="-318" font-family="Helvetica,sans-Serif" font-size="10.00">Sensor()</text>
<text text-anchor="start" x="108.5" y="-303" font-family="Helvetica,sans-Serif" font-size="10.00">+</text>
<text text-anchor="start" x="121.5" y="-303" font-family="Helvetica,sans-Serif" font-size="10.00">Sensor()</text>
<text text-anchor="start" x="108.5" y="-288" font-family="Helvetica,sans-Serif" font-size="10.00">+</text>
<text text-anchor="start" x="121.5" y="-288" font-family="Helvetica,sans-Serif" font-size="10.00">getPeriod()</text>
<text text-anchor="start" x="108.5" y="-273" font-family="Helvetica,sans-Serif" font-size="10.00">+</text>
<text text-anchor="start" x="121.5" y="-273" font-family="Helvetica,sans-Serif" font-size="10.00">setPeriod()</text>
<text text-anchor="start" x="108.5" y="-258" font-family="Helvetica,sans-Serif" font-size="10.00">+</text>
<text text-anchor="start" x="121.5" y="-258" font-family="Helvetica,sans-Serif" font-size="10.00">getLastExecution()</text>
<text text-anchor="start" x="108.5" y="-243" font-family="Helvetica,sans-Serif" font-size="10.00">+</text>
<text text-anchor="start" x="121.5" y="-243" font-family="Helvetica,sans-Serif" font-size="10.00">setLastExecution()</text>
<text text-anchor="start" x="108.5" y="-228" font-family="Helvetica,sans-Serif" font-size="10.00">+</text>
<text text-anchor="start" x="121.5" y="-228" font-family="Helvetica,sans-Serif" font-size="10.00">getSensorName()</text>
<text text-anchor="start" x="108.5" y="-213" font-family="Helvetica,sans-Serif" font-size="10.00">+</text>
<text text-anchor="start" x="121.5" y="-213" font-family="Helvetica,sans-Serif" font-size="10.00">getSensorCSVHeader()</text>
<text text-anchor="start" x="108.5" y="-198" font-family="Helvetica,sans-Serif" font-size="10.00">+</text>
<text text-anchor="start" x="121.5" y="-198" font-family="Helvetica,sans-Serif" font-size="10.00">verify()</text>
<text text-anchor="start" x="108.5" y="-183" font-family="Helvetica,sans-Serif" font-size="10.00">+</text>
<text text-anchor="start" x="121.5" y="-183" font-family="Helvetica,sans-Serif" font-size="10.00">readData()</text>
<text text-anchor="start" x="108.5" y="-168" font-family="Helvetica,sans-Serif" font-size="10.00">+</text>
<text text-anchor="start" x="121.5" y="-168" font-family="Helvetica,sans-Serif" font-size="10.00">readEmpty()</text>
<text text-anchor="start" x="108.5" y="-153" font-family="Helvetica,sans-Serif" font-size="10.00">+</text>
<text text-anchor="start" x="121.5" y="-153" font-family="Helvetica,sans-Serif" font-size="10.00">getDataCSV()</text>
<polygon fill="#666666" stroke="#666666" points="104.5,-343 104.5,-343 237.5,-343 237.5,-343 104.5,-343"/>
<polygon fill="#666666" stroke="#666666" points="104.5,-328 104.5,-328 237.5,-328 237.5,-328 104.5,-328"/>
<polygon fill="none" stroke="#666666" points="104,-146 104,-360 237,-360 237,-146 104,-146"/>
</a>
</g>
</g>
<!-- Node2&#45;&gt;Node1 -->
<g id="edge1_Node000001_Node000002" class="edge">
<title>Node2&#45;&gt;Node1</title>
<g id="a_edge1_Node000001_Node000002"><a xlink:title=" ">
<path fill="none" stroke="#63b8ff" d="M206.44,-136.22C209.33,-126.91 212.15,-117.82 214.8,-109.29"/>
<polygon fill="none" stroke="#63b8ff" points="203.03,-135.4 203.41,-145.99 209.72,-137.47 203.03,-135.4"/>
</a>
</g>
</g>
<!-- Node3 -->
<g id="Node000003" class="node">
<title>Node3</title>
<g id="a_Node000003"><a xlink:title=" ">
<polygon fill="white" stroke="transparent" points="79,-467 0,-467 0,-418 79,-418 79,-467"/>
<text text-anchor="start" x="5.5" y="-454.5" font-family="Helvetica,sans-Serif" font-size="10.00">unsigned long</text>
<text text-anchor="start" x="38" y="-439.5" font-family="Helvetica,sans-Serif" font-size="10.00"> </text>
<text text-anchor="start" x="38" y="-424.5" font-family="Helvetica,sans-Serif" font-size="10.00"> </text>
<polygon fill="#666666" stroke="#666666" points="0.5,-449.5 0.5,-449.5 79.5,-449.5 79.5,-449.5 0.5,-449.5"/>
<polygon fill="#666666" stroke="#666666" points="0.5,-434.5 0.5,-434.5 79.5,-434.5 79.5,-434.5 0.5,-434.5"/>
<polygon fill="none" stroke="#666666" points="0,-418 0,-467 79,-467 79,-418 0,-418"/>
</a>
</g>
</g>
<!-- Node3&#45;&gt;Node2 -->
<g id="edge2_Node000002_Node000003" class="edge">
<title>Node3&#45;&gt;Node2</title>
<g id="a_edge2_Node000002_Node000003"><a xlink:title=" ">
<path fill="none" stroke="#63b8ff" d="M43.93,-417.88C46.9,-405.48 51.56,-390.33 58.5,-378 68.67,-359.93 81.89,-342.29 95.67,-326.24"/>
<polygon fill="none" stroke="#63b8ff" points="95.89,-325.98 96.86,-318.84 103.82,-316.98 102.86,-324.13 95.89,-325.98"/>
</a>
</g>
<text text-anchor="middle" x="102.5" y="-392" font-family="Helvetica,sans-Serif" font-size="10.00" fill="grey"> &#45;last_execution</text>
<text text-anchor="middle" x="102.5" y="-381" font-family="Helvetica,sans-Serif" font-size="10.00" fill="grey">&#45;minimum_period</text>
</g>
<!-- Node4 -->
<g id="Node000004" class="node">
<title>Node4</title>
<g id="a_Node000004"><a xlink:title=" ">
<polygon fill="white" stroke="transparent" points="170,-467 131,-467 131,-418 170,-418 170,-467"/>
<text text-anchor="start" x="136.5" y="-454.5" font-family="Helvetica,sans-Serif" font-size="10.00">String</text>
<text text-anchor="start" x="149" y="-439.5" font-family="Helvetica,sans-Serif" font-size="10.00"> </text>
<text text-anchor="start" x="149" y="-424.5" font-family="Helvetica,sans-Serif" font-size="10.00"> </text>
<polygon fill="#666666" stroke="#666666" points="131.5,-449.5 131.5,-449.5 170.5,-449.5 170.5,-449.5 131.5,-449.5"/>
<polygon fill="#666666" stroke="#666666" points="131.5,-434.5 131.5,-434.5 170.5,-434.5 170.5,-434.5 131.5,-434.5"/>
<polygon fill="none" stroke="#666666" points="131,-418 131,-467 170,-467 170,-418 131,-418"/>
</a>
</g>
</g>
<!-- Node4&#45;&gt;Node2 -->
<g id="edge3_Node000002_Node000004" class="edge">
<title>Node4&#45;&gt;Node2</title>
<g id="a_edge3_Node000002_Node000004"><a xlink:title=" ">
<path fill="none" stroke="#63b8ff" d="M150.11,-417.94C150.1,-405.96 150.39,-391.18 151.5,-378 151.66,-376.08 151.83,-374.14 152.02,-372.19"/>
<polygon fill="none" stroke="#63b8ff" points="152.04,-372.02 148.68,-365.64 153.27,-360.09 156.63,-366.47 152.04,-372.02"/>
</a>
</g>
<text text-anchor="middle" x="186.5" y="-392" font-family="Helvetica,sans-Serif" font-size="10.00" fill="grey"> &#45;csv_header</text>
<text text-anchor="middle" x="186.5" y="-381" font-family="Helvetica,sans-Serif" font-size="10.00" fill="grey">&#45;sensor_name</text>
</g>
<!-- Node5 -->
<g id="Node000005" class="node">
<title>Node5</title>
<g id="a_Node000005"><a xlink:title=" ">
<polygon fill="white" stroke="transparent" points="279,-467 256,-467 256,-418 279,-418 279,-467"/>
<text text-anchor="start" x="261.5" y="-454.5" font-family="Helvetica,sans-Serif" font-size="10.00">int</text>
<text text-anchor="start" x="266" y="-439.5" font-family="Helvetica,sans-Serif" font-size="10.00"> </text>
<text text-anchor="start" x="266" y="-424.5" font-family="Helvetica,sans-Serif" font-size="10.00"> </text>
<polygon fill="#666666" stroke="#666666" points="256.5,-449.5 256.5,-449.5 279.5,-449.5 279.5,-449.5 256.5,-449.5"/>
<polygon fill="#666666" stroke="#666666" points="256.5,-434.5 256.5,-434.5 279.5,-434.5 279.5,-434.5 256.5,-434.5"/>
<polygon fill="none" stroke="#666666" points="256,-418 256,-467 279,-467 279,-418 256,-418"/>
</a>
</g>
</g>
<!-- Node5&#45;&gt;Node1 -->
<g id="edge5_Node000001_Node000005" class="edge">
<title>Node5&#45;&gt;Node1</title>
<g id="a_edge5_Node000001_Node000005"><a xlink:title=" ">
<path fill="none" stroke="#63b8ff" d="M274.97,-417.57C276.43,-411.87 277.75,-405.77 278.5,-400 279.76,-390.3 279.19,-387.75 278.5,-378 271.15,-274.11 260.79,-249.02 245.5,-146 244.31,-137.97 243.03,-129.54 241.76,-121.2"/>
<polygon fill="none" stroke="#63b8ff" points="241.72,-120.94 236.86,-115.62 239.9,-109.08 244.76,-114.4 241.72,-120.94"/>
</a>
</g>
<text text-anchor="middle" x="333" y="-250.5" font-family="Helvetica,sans-Serif" font-size="10.00" fill="grey"> &#45;measuringPeriodStart</text>
</g>
<!-- Node5&#45;&gt;Node2 -->
<g id="edge4_Node000002_Node000005" class="edge">
<title>Node5&#45;&gt;Node2</title>
<g id="a_edge4_Node000002_Node000005"><a xlink:title=" ">
<path fill="none" stroke="#63b8ff" d="M255.88,-420.9C252.19,-414.25 248.13,-406.84 244.5,-400 239.51,-390.6 234.4,-380.82 229.31,-370.98"/>
<polygon fill="none" stroke="#63b8ff" points="229.3,-370.96 222.99,-367.46 223.8,-360.29 230.1,-363.79 229.3,-370.96"/>
</a>
</g>
<text text-anchor="middle" x="261.5" y="-386.5" font-family="Helvetica,sans-Serif" font-size="10.00" fill="grey"> &#45;fields</text>
</g>
</g>
</svg>
