<?xml version="1.0" encoding="UTF-8" standalone="no"?>
<!DOCTYPE svg PUBLIC "-//W3C//DTD SVG 1.1//EN"
 "http://www.w3.org/Graphics/SVG/1.1/DTD/svg11.dtd">
<!-- Generated by graphviz version 2.43.0 (0)
 -->
<!-- Title: BME280Sensor Pages: 1 -->
<!--zoomable 470 -->

<svg id="main" version="1.1" xmlns="http://www.w3.org/2000/svg" xmlns:xlink="http://www.w3.org/1999/xlink" xml:space="preserve" onload="init(evt)">
<style type="text/css"><![CDATA[
.node, .edge {opacity: 0.7;}
.node.selected, .edge.selected {opacity: 1;}
.edge:hover path { stroke: red; }
.edge:hover polygon { stroke: red; fill: red; }
]]></style>

<defs>
  <circle id="rim" cx="0" cy="0" r="7"/>
  <circle id="rim2" cx="0" cy="0" r="3.5"/>
  <g id="zoomPlus">
    <use xlink:href="#rim" fill="#404040"><set attributeName="fill" to="#808080" begin="zoomplus.mouseover" end="zoomplus.mouseout"/></use>
    <path d="M-4,0h8M0,-4v8" fill="none" stroke="white" stroke-width="1.5" pointer-events="none"/>
  </g>
  <g id="zoomMin">
    <use xlink:href="#rim" fill="#404040"><set attributeName="fill" to="#808080" begin="zoomminus.mouseover" end="zoomminus.mouseout"/></use>
    <path d="M-4,0h8" fill="none" stroke="white" stroke-width="1.5" pointer-events="none"/>
  </g>
  <g id="arrowUp" transform="translate(30 24)">
    <use xlink:href="#rim"/>
    <path pointer-events="none" fill="none" stroke="white" stroke-width="1.5" d="M0,-3.0v7 M-2.5,-0.5L0,-3.0L2.5,-0.5"/>
  </g>
  <g id="arrowRight" transform="rotate(90) translate(36 -43)">
    <use xlink:href="#rim"/>
    <path pointer-events="none" fill="none" stroke="white" stroke-width="1.5" d="M0,-3.0v7 M-2.5,-0.5L0,-3.0L2.5,-0.5"/>
  </g>
  <g id="arrowDown" transform="rotate(180) translate(-30 -48)">
    <use xlink:href="#rim"/>
    <path pointer-events="none" fill="none" stroke="white" stroke-width="1.5" d="M0,-3.0v7 M-2.5,-0.5L0,-3.0L2.5,-0.5"/>
  </g>
  <g id="arrowLeft" transform="rotate(270) translate(-36 17)">
    <use xlink:href="#rim"/>
    <path pointer-events="none" fill="none" stroke="white" stroke-width="1.5" d="M0,-3.0v7 M-2.5,-0.5L0,-3.0L2.5,-0.5"/>
  </g>
  <g id="resetDef">
    <use xlink:href="#rim2" fill="#404040"><set attributeName="fill" to="#808080" begin="reset.mouseover" end="reset.mouseout"/></use>
  </g>
</defs>
<script type="application/ecmascript">
var viewWidth = 294;
var viewHeight = 470;
var sectionId = 'dynsection-1';
</script>
<script type="application/ecmascript" xlink:href="svg.min.js"/>
<svg id="graph" class="graph">
<g id="viewport">
<title>BME280Sensor</title>
<!-- Node1 -->
<g id="Node000001" class="node">
<title>Node1</title>
<g id="a_Node000001"><a xlink:title="Implementation of a Sensor for the BME280.">
<polygon fill="#999999" stroke="transparent" points="256.5,-94 154.5,-94 154.5,0 256.5,0 256.5,-94"/>
<text text-anchor="start" x="169" y="-82" font-family="Helvetica,sans-Serif" font-size="10.00">BME280Sensor</text>
<text text-anchor="start" x="203.5" y="-67" font-family="Helvetica,sans-Serif" font-size="10.00"> </text>
<text text-anchor="start" x="158.5" y="-52" font-family="Helvetica,sans-Serif" font-size="10.00">+</text>
<text text-anchor="start" x="171.5" y="-52" font-family="Helvetica,sans-Serif" font-size="10.00">BME280Sensor()</text>
<text text-anchor="start" x="158.5" y="-37" font-family="Helvetica,sans-Serif" font-size="10.00">+</text>
<text text-anchor="start" x="171.5" y="-37" font-family="Helvetica,sans-Serif" font-size="10.00">BME280Sensor()</text>
<text text-anchor="start" x="158.5" y="-22" font-family="Helvetica,sans-Serif" font-size="10.00">+</text>
<text text-anchor="start" x="171.5" y="-22" font-family="Helvetica,sans-Serif" font-size="10.00">verify()</text>
<text text-anchor="start" x="158.5" y="-7" font-family="Helvetica,sans-Serif" font-size="10.00">+</text>
<text text-anchor="start" x="171.5" y="-7" font-family="Helvetica,sans-Serif" font-size="10.00">readData()</text>
<polygon fill="#666666" stroke="#666666" points="154.5,-77 154.5,-77 256.5,-77 256.5,-77 154.5,-77"/>
<polygon fill="#666666" stroke="#666666" points="154.5,-62 154.5,-62 256.5,-62 256.5,-62 154.5,-62"/>
<polygon fill="none" stroke="#666666" points="154.5,0 154.5,-94 256.5,-94 256.5,0 154.5,0"/>
</a>
</g>
</g>
<!-- Node2 -->
<g id="Node000002" class="node">
<title>Node2</title>
<g id="a_Node000002"><a xlink:href="classSensor.html" target="_top" xlink:title="Parent class for sensor objects.">
<polygon fill="white" stroke="transparent" points="217,-355 84,-355 84,-141 217,-141 217,-355"/>
<text text-anchor="start" x="134" y="-343" font-family="Helvetica,sans-Serif" font-size="10.00">Sensor</text>
<text text-anchor="start" x="149" y="-328" font-family="Helvetica,sans-Serif" font-size="10.00"> </text>
<text text-anchor="start" x="88.5" y="-313" font-family="Helvetica,sans-Serif" font-size="10.00">+</text>
<text text-anchor="start" x="101.5" y="-313" font-family="Helvetica,sans-Serif" font-size="10.00">Sensor()</text>
<text text-anchor="start" x="88.5" y="-298" font-family="Helvetica,sans-Serif" font-size="10.00">+</text>
<text text-anchor="start" x="101.5" y="-298" font-family="Helvetica,sans-Serif" font-size="10.00">Sensor()</text>
<text text-anchor="start" x="88.5" y="-283" font-family="Helvetica,sans-Serif" font-size="10.00">+</text>
<text text-anchor="start" x="101.5" y="-283" font-family="Helvetica,sans-Serif" font-size="10.00">getPeriod()</text>
<text text-anchor="start" x="88.5" y="-268" font-family="Helvetica,sans-Serif" font-size="10.00">+</text>
<text text-anchor="start" x="101.5" y="-268" font-family="Helvetica,sans-Serif" font-size="10.00">setPeriod()</text>
<text text-anchor="start" x="88.5" y="-253" font-family="Helvetica,sans-Serif" font-size="10.00">+</text>
<text text-anchor="start" x="101.5" y="-253" font-family="Helvetica,sans-Serif" font-size="10.00">getLastExecution()</text>
<text text-anchor="start" x="88.5" y="-238" font-family="Helvetica,sans-Serif" font-size="10.00">+</text>
<text text-anchor="start" x="101.5" y="-238" font-family="Helvetica,sans-Serif" font-size="10.00">setLastExecution()</text>
<text text-anchor="start" x="88.5" y="-223" font-family="Helvetica,sans-Serif" font-size="10.00">+</text>
<text text-anchor="start" x="101.5" y="-223" font-family="Helvetica,sans-Serif" font-size="10.00">getSensorName()</text>
<text text-anchor="start" x="88.5" y="-208" font-family="Helvetica,sans-Serif" font-size="10.00">+</text>
<text text-anchor="start" x="101.5" y="-208" font-family="Helvetica,sans-Serif" font-size="10.00">getSensorCSVHeader()</text>
<text text-anchor="start" x="88.5" y="-193" font-family="Helvetica,sans-Serif" font-size="10.00">+</text>
<text text-anchor="start" x="101.5" y="-193" font-family="Helvetica,sans-Serif" font-size="10.00">verify()</text>
<text text-anchor="start" x="88.5" y="-178" font-family="Helvetica,sans-Serif" font-size="10.00">+</text>
<text text-anchor="start" x="101.5" y="-178" font-family="Helvetica,sans-Serif" font-size="10.00">readData()</text>
<text text-anchor="start" x="88.5" y="-163" font-family="Helvetica,sans-Serif" font-size="10.00">+</text>
<text text-anchor="start" x="101.5" y="-163" font-family="Helvetica,sans-Serif" font-size="10.00">readEmpty()</text>
<text text-anchor="start" x="88.5" y="-148" font-family="Helvetica,sans-Serif" font-size="10.00">+</text>
<text text-anchor="start" x="101.5" y="-148" font-family="Helvetica,sans-Serif" font-size="10.00">getDataCSV()</text>
<polygon fill="#666666" stroke="#666666" points="84.5,-338 84.5,-338 217.5,-338 217.5,-338 84.5,-338"/>
<polygon fill="#666666" stroke="#666666" points="84.5,-323 84.5,-323 217.5,-323 217.5,-323 84.5,-323"/>
<polygon fill="none" stroke="#666666" points="84,-141 84,-355 217,-355 217,-141 84,-141"/>
</a>
</g>
</g>
<!-- Node2&#45;&gt;Node1 -->
<g id="edge1_Node000001_Node000002" class="edge">
<title>Node2&#45;&gt;Node1</title>
<g id="a_edge1_Node000001_Node000002"><a xlink:title=" ">
<path fill="none" stroke="#63b8ff" d="M182.58,-130.91C186.14,-118.06 189.58,-105.58 192.68,-94.38"/>
<polygon fill="none" stroke="#63b8ff" points="179.14,-130.23 179.85,-140.8 185.89,-132.09 179.14,-130.23"/>
</a>
</g>
</g>
<!-- Node3 -->
<g id="Node000003" class="node">
<title>Node3</title>
<g id="a_Node000003"><a xlink:title=" ">
<polygon fill="white" stroke="transparent" points="79,-462 0,-462 0,-413 79,-413 79,-462"/>
<text text-anchor="start" x="5.5" y="-449.5" font-family="Helvetica,sans-Serif" font-size="10.00">unsigned long</text>
<text text-anchor="start" x="38" y="-434.5" font-family="Helvetica,sans-Serif" font-size="10.00"> </text>
<text text-anchor="start" x="38" y="-419.5" font-family="Helvetica,sans-Serif" font-size="10.00"> </text>
<polygon fill="#666666" stroke="#666666" points="0.5,-444.5 0.5,-444.5 79.5,-444.5 79.5,-444.5 0.5,-444.5"/>
<polygon fill="#666666" stroke="#666666" points="0.5,-429.5 0.5,-429.5 79.5,-429.5 79.5,-429.5 0.5,-429.5"/>
<polygon fill="none" stroke="#666666" points="0,-413 0,-462 79,-462 79,-413 0,-413"/>
</a>
</g>
</g>
<!-- Node3&#45;&gt;Node2 -->
<g id="edge2_Node000002_Node000003" class="edge">
<title>Node3&#45;&gt;Node2</title>
<g id="a_edge2_Node000002_Node000003"><a xlink:title=" ">
<path fill="none" stroke="#63b8ff" d="M44.5,-412.84C47.6,-400.56 52.21,-385.55 58.5,-373 63.96,-362.1 70.38,-351.17 77.25,-340.55"/>
<polygon fill="none" stroke="#63b8ff" points="77.31,-340.46 77.31,-333.25 83.96,-330.47 83.97,-337.68 77.31,-340.46"/>
</a>
</g>
<text text-anchor="middle" x="102.5" y="-387" font-family="Helvetica,sans-Serif" font-size="10.00" fill="grey"> &#45;last_execution</text>
<text text-anchor="middle" x="102.5" y="-376" font-family="Helvetica,sans-Serif" font-size="10.00" fill="grey">&#45;minimum_period</text>
</g>
<!-- Node4 -->
<g id="Node000004" class="node">
<title>Node4</title>
<g id="a_Node000004"><a xlink:title=" ">
<polygon fill="white" stroke="transparent" points="170,-462 131,-462 131,-413 170,-413 170,-462"/>
<text text-anchor="start" x="136.5" y="-449.5" font-family="Helvetica,sans-Serif" font-size="10.00">String</text>
<text text-anchor="start" x="149" y="-434.5" font-family="Helvetica,sans-Serif" font-size="10.00"> </text>
<text text-anchor="start" x="149" y="-419.5" font-family="Helvetica,sans-Serif" font-size="10.00"> </text>
<polygon fill="#666666" stroke="#666666" points="131.5,-444.5 131.5,-444.5 170.5,-444.5 170.5,-444.5 131.5,-444.5"/>
<polygon fill="#666666" stroke="#666666" points="131.5,-429.5 131.5,-429.5 170.5,-429.5 170.5,-429.5 131.5,-429.5"/>
<polygon fill="none" stroke="#666666" points="131,-413 131,-462 170,-462 170,-413 131,-413"/>
</a>
</g>
</g>
<!-- Node4&#45;&gt;Node2 -->
<g id="edge3_Node000002_Node000004" class="edge">
<title>Node4&#45;&gt;Node2</title>
<g id="a_edge3_Node000002_Node000004"><a xlink:title=" ">
<path fill="none" stroke="#63b8ff" d="M150.5,-412.75C150.5,-400.5 150.5,-384.55 150.5,-367.41"/>
<polygon fill="none" stroke="#63b8ff" points="150.5,-367.39 146.5,-361.39 150.5,-355.39 154.5,-361.39 150.5,-367.39"/>
</a>
</g>
<text text-anchor="middle" x="185.5" y="-387" font-family="Helvetica,sans-Serif" font-size="10.00" fill="grey"> &#45;csv_header</text>
<text text-anchor="middle" x="185.5" y="-376" font-family="Helvetica,sans-Serif" font-size="10.00" fill="grey">&#45;sensor_name</text>
</g>
<!-- Node5 -->
<g id="Node000005" class="node">
<title>Node5</title>
<g id="a_Node000005"><a xlink:title=" ">
<polygon fill="white" stroke="transparent" points="255,-462 232,-462 232,-413 255,-413 255,-462"/>
<text text-anchor="start" x="237.5" y="-449.5" font-family="Helvetica,sans-Serif" font-size="10.00">int</text>
<text text-anchor="start" x="242" y="-434.5" font-family="Helvetica,sans-Serif" font-size="10.00"> </text>
<text text-anchor="start" x="242" y="-419.5" font-family="Helvetica,sans-Serif" font-size="10.00"> </text>
<polygon fill="#666666" stroke="#666666" points="232.5,-444.5 232.5,-444.5 255.5,-444.5 255.5,-444.5 232.5,-444.5"/>
<polygon fill="#666666" stroke="#666666" points="232.5,-429.5 232.5,-429.5 255.5,-429.5 255.5,-429.5 232.5,-429.5"/>
<polygon fill="none" stroke="#666666" points="232,-413 232,-462 255,-462 255,-413 232,-413"/>
</a>
</g>
</g>
<!-- Node5&#45;&gt;Node2 -->
<g id="edge4_Node000002_Node000005" class="edge">
<title>Node5&#45;&gt;Node2</title>
<g id="a_edge4_Node000002_Node000005"><a xlink:title=" ">
<path fill="none" stroke="#63b8ff" d="M236.47,-412.87C232.58,-400.74 227.34,-385.85 221.5,-373 220.46,-370.71 219.39,-368.4 218.29,-366.08"/>
<polygon fill="none" stroke="#63b8ff" points="218.24,-365.99 212.02,-362.35 212.99,-355.2 219.21,-358.85 218.24,-365.99"/>
</a>
</g>
<text text-anchor="middle" x="246.5" y="-381.5" font-family="Helvetica,sans-Serif" font-size="10.00" fill="grey"> &#45;fields</text>
</g>
<!-- Node6 -->
<g id="Node000006" class="node">
<title>Node6</title>
<g id="a_Node000006"><a xlink:title=" ">
<polygon fill="white" stroke="transparent" points="285.5,-272.5 235.5,-272.5 235.5,-223.5 285.5,-223.5 285.5,-272.5"/>
<text text-anchor="start" x="240.5" y="-260" font-family="Helvetica,sans-Serif" font-size="10.00">BME280</text>
<text text-anchor="start" x="258.5" y="-245" font-family="Helvetica,sans-Serif" font-size="10.00"> </text>
<text text-anchor="start" x="258.5" y="-230" font-family="Helvetica,sans-Serif" font-size="10.00"> </text>
<polygon fill="#666666" stroke="#666666" points="235.5,-255 235.5,-255 285.5,-255 285.5,-255 235.5,-255"/>
<polygon fill="#666666" stroke="#666666" points="235.5,-240 235.5,-240 285.5,-240 285.5,-240 235.5,-240"/>
<polygon fill="none" stroke="#666666" points="235.5,-223.5 235.5,-272.5 285.5,-272.5 285.5,-223.5 235.5,-223.5"/>
</a>
</g>
</g>
<!-- Node6&#45;&gt;Node1 -->
<g id="edge5_Node000001_Node000006" class="edge">
<title>Node6&#45;&gt;Node1</title>
<g id="a_edge5_Node000001_Node000006"><a xlink:title=" ">
<path fill="none" stroke="#63b8ff" d="M253.97,-223.39C246.03,-194.65 232.34,-145.12 221.53,-106.01"/>
<polygon fill="none" stroke="#63b8ff" points="221.48,-105.81 216.02,-101.09 218.28,-94.24 223.73,-98.96 221.48,-105.81"/>
</a>
</g>
<text text-anchor="middle" x="240" y="-115" font-family="Helvetica,sans-Serif" font-size="10.00" fill="grey"> &#45;bme</text>
</g>
</g>
</svg>

<g id="navigator" transform="translate(0 0)" fill="#404254">
  <rect fill="#f2f5e9" fill-opacity="0.5" stroke="#606060" stroke-width=".5" x="0" y="0" width="60" height="60"/>
  <use id="zoomplus" xlink:href="#zoomPlus" x="17" y="9" onmousedown="handleZoom(evt,'in')"/>
  <use id="zoomminus" xlink:href="#zoomMin" x="42" y="9" onmousedown="handleZoom(evt,'out')"/>
  <use id="reset" xlink:href="#resetDef" x="30" y="36" onmousedown="handleReset()"/>
   <use id="arrowup" xlink:href="#arrowUp" x="0" y="0" onmousedown="handlePan(0,-1)"/>
  <use id="arrowright" xlink:href="#arrowRight" x="0" y="0" onmousedown="handlePan(1,0)"/>
  <use id="arrowdown" xlink:href="#arrowDown" x="0" y="0" onmousedown="handlePan(0,1)"/>
  <use id="arrowleft" xlink:href="#arrowLeft" x="0" y="0" onmousedown="handlePan(-1,0)"/>
</g>
<svg viewBox="0 0 15 15" width="100%" height="30px" preserveAspectRatio="xMaxYMin meet">
 <g id="arrow_out" transform="scale(0.3 0.3)">
  <a xlink:href="classBME280Sensor__coll__graph_org.svg" target="_base">
   <rect id="button" ry="5" rx="5" y="6" x="6" height="38" width="38"
        fill="#f2f5e9" fill-opacity="0.5" stroke="#606060" stroke-width="1.0"/>
   <path id="arrow"
     d="M 11.500037,31.436501 C 11.940474,20.09759 22.043105,11.32322 32.158766,21.979434 L 37.068811,17.246167 C 37.068811,17.246167 37.088388,32 37.088388,32 L 22.160133,31.978069 C 22.160133,31.978069 26.997745,27.140456 26.997745,27.140456 C 18.528582,18.264221 13.291696,25.230495 11.500037,31.436501 z"
     style="fill:#404040;"/>
  </a>
 </g>
</svg>

<style type='text/css'>
<![CDATA[
[data-mouse-over-selected='false'] { opacity: 0.7; }
[data-mouse-over-selected='true']  { opacity: 1.0; }
]]>
</style>
<script type="application/ecmascript"><![CDATA[
document.addEventListener('DOMContentLoaded', (event) => {
  highlightEdges();
  highlightAdjacentNodes();
});
]]></script>
</svg>
