<?xml version="1.0" encoding="UTF-8" standalone="no"?>
<!DOCTYPE svg PUBLIC "-//W3C//DTD SVG 1.1//EN"
 "http://www.w3.org/Graphics/SVG/1.1/DTD/svg11.dtd">
<!-- Generated by graphviz version 2.43.0 (0)
 -->
<!-- Title: ZOPT220Sensor::verify Pages: 1 -->
<svg width="975pt" height="192pt"
 viewBox="0.00 0.00 975.00 191.50" xmlns="http://www.w3.org/2000/svg" xmlns:xlink="http://www.w3.org/1999/xlink">
<g id="graph0" class="graph" transform="scale(1 1) rotate(0) translate(4 187.5)">
<title>ZOPT220Sensor::verify</title>
<!-- Node1 -->
<g id="node1" class="node">
<title>Node1</title>
<g id="a_node1"><a xlink:title="Verifies the connection to the ZOPT220x sensor.">
<polygon fill="#bfbfbf" stroke="black" points="0,-76.5 0,-95.5 128,-95.5 128,-76.5 0,-76.5"/>
<text text-anchor="middle" x="64" y="-83.5" font-family="Helvetica,sans-Serif" font-size="10.00">ZOPT220Sensor::verify</text>
</a>
</g>
</g>
<!-- Node2 -->
<g id="node2" class="node">
<title>Node2</title>
<g id="a_node2"><a xlink:href="classZOPT220x__Control.html#aab772e9154760b2ddbee82953532f08e" target="_top" xlink:title=" ">
<polygon fill="none" stroke="black" points="164,-71 164,-101 322,-101 322,-71 164,-71"/>
<text text-anchor="start" x="172" y="-89" font-family="Helvetica,sans-Serif" font-size="10.00">ZOPT220x_Control::zopt220x</text>
<text text-anchor="middle" x="243" y="-78" font-family="Helvetica,sans-Serif" font-size="10.00">Setup</text>
</a>
</g>
</g>
<!-- Node1&#45;&gt;Node2 -->
<g id="edge1" class="edge">
<title>Node1&#45;&gt;Node2</title>
<path fill="none" stroke="midnightblue" d="M128.4,-86C136.67,-86 145.26,-86 153.85,-86"/>
<polygon fill="midnightblue" stroke="midnightblue" points="153.9,-89.5 163.9,-86 153.9,-82.5 153.9,-89.5"/>
</g>
<!-- Node3 -->
<g id="node3" class="node">
<title>Node3</title>
<g id="a_node3"><a xlink:href="classZOPT220x__Control.html#adc20ce356a572b8039ba96b9160e97c4" target="_top" xlink:title=" ">
<polygon fill="none" stroke="black" points="358,-71 358,-101 516,-101 516,-71 358,-71"/>
<text text-anchor="start" x="366" y="-89" font-family="Helvetica,sans-Serif" font-size="10.00">ZOPT220x_Control::zopt220x</text>
<text text-anchor="middle" x="437" y="-78" font-family="Helvetica,sans-Serif" font-size="10.00">SetupWithAddress</text>
</a>
</g>
</g>
<!-- Node2&#45;&gt;Node3 -->
<g id="edge2" class="edge">
<title>Node2&#45;&gt;Node3</title>
<path fill="none" stroke="midnightblue" d="M322.09,-86C330.6,-86 339.3,-86 347.92,-86"/>
<polygon fill="midnightblue" stroke="midnightblue" points="347.98,-89.5 357.98,-86 347.98,-82.5 347.98,-89.5"/>
</g>
<!-- Node4 -->
<g id="node4" class="node">
<title>Node4</title>
<g id="a_node4"><a xlink:href="classZOPT220x__Control.html#a8eb237d4b6eb8513893d99d3163fc094" target="_top" xlink:title=" ">
<polygon fill="none" stroke="black" points="575,-153 575,-183 747,-183 747,-153 575,-153"/>
<text text-anchor="start" x="583" y="-171" font-family="Helvetica,sans-Serif" font-size="10.00">ZOPT220x_Control::checkPower</text>
<text text-anchor="middle" x="661" y="-160" font-family="Helvetica,sans-Serif" font-size="10.00">OnStatus</text>
</a>
</g>
</g>
<!-- Node3&#45;&gt;Node4 -->
<g id="edge3" class="edge">
<title>Node3&#45;&gt;Node4</title>
<path fill="none" stroke="midnightblue" d="M467.94,-101.23C490.63,-112.37 522.77,-127.35 552,-138 564.09,-142.41 577.15,-146.54 589.86,-150.24"/>
<polygon fill="midnightblue" stroke="midnightblue" points="588.91,-153.61 599.49,-152.99 590.83,-146.88 588.91,-153.61"/>
</g>
<!-- Node5 -->
<g id="node5" class="node">
<title>Node5</title>
<g id="a_node5"><a xlink:href="classZOPT220x__Control.html#a58c74577acc1183a66b1f9b9281551a3" target="_top" xlink:title=" ">
<polygon fill="none" stroke="black" points="807,-76 807,-106 966,-106 966,-76 807,-76"/>
<text text-anchor="start" x="815" y="-94" font-family="Helvetica,sans-Serif" font-size="10.00">ZOPT220x_Control::zoptRead</text>
<text text-anchor="middle" x="886.5" y="-83" font-family="Helvetica,sans-Serif" font-size="10.00">Register</text>
</a>
</g>
</g>
<!-- Node3&#45;&gt;Node5 -->
<g id="edge14" class="edge">
<title>Node3&#45;&gt;Node5</title>
<path fill="none" stroke="midnightblue" d="M516.28,-100.79C528.21,-102.54 540.4,-104.04 552,-105 648.56,-112.99 673.29,-110.84 770,-105 778.64,-104.48 787.63,-103.74 796.6,-102.87"/>
<polygon fill="midnightblue" stroke="midnightblue" points="797.12,-106.33 806.71,-101.84 796.41,-99.37 797.12,-106.33"/>
</g>
<!-- Node6 -->
<g id="node6" class="node">
<title>Node6</title>
<g id="a_node6"><a xlink:href="classZOPT220x__Control.html#afa9fab0ef429c9e7a46afd752a2ee44d" target="_top" xlink:title=" ">
<polygon fill="none" stroke="black" points="585.5,-76.5 585.5,-95.5 736.5,-95.5 736.5,-76.5 585.5,-76.5"/>
<text text-anchor="middle" x="661" y="-83.5" font-family="Helvetica,sans-Serif" font-size="10.00">ZOPT220x_Control::setGain</text>
</a>
</g>
</g>
<!-- Node3&#45;&gt;Node6 -->
<g id="edge5" class="edge">
<title>Node3&#45;&gt;Node6</title>
<path fill="none" stroke="midnightblue" d="M516.27,-86C535.4,-86 555.96,-86 575.38,-86"/>
<polygon fill="midnightblue" stroke="midnightblue" points="575.42,-89.5 585.42,-86 575.42,-82.5 575.42,-89.5"/>
</g>
<!-- Node8 -->
<g id="node8" class="node">
<title>Node8</title>
<g id="a_node8"><a xlink:href="classZOPT220x__Control.html#a809d1f5db2a9f0884fa82e0b77b944bf" target="_top" xlink:title=" ">
<polygon fill="none" stroke="black" points="552,-38.5 552,-57.5 770,-57.5 770,-38.5 552,-38.5"/>
<text text-anchor="middle" x="661" y="-45.5" font-family="Helvetica,sans-Serif" font-size="10.00">ZOPT220x_Control::setMeasurementRate</text>
</a>
</g>
</g>
<!-- Node3&#45;&gt;Node8 -->
<g id="edge8" class="edge">
<title>Node3&#45;&gt;Node8</title>
<path fill="none" stroke="midnightblue" d="M516.27,-72.6C541.83,-68.23 569.94,-63.42 594.47,-59.22"/>
<polygon fill="midnightblue" stroke="midnightblue" points="595.12,-62.66 604.39,-57.52 593.94,-55.76 595.12,-62.66"/>
</g>
<!-- Node9 -->
<g id="node9" class="node">
<title>Node9</title>
<g id="a_node9"><a xlink:href="classZOPT220x__Control.html#aa8d79db36ab65e003f87a493f720233d" target="_top" xlink:title=" ">
<polygon fill="none" stroke="black" points="571,-0.5 571,-19.5 751,-19.5 751,-0.5 571,-0.5"/>
<text text-anchor="middle" x="661" y="-7.5" font-family="Helvetica,sans-Serif" font-size="10.00">ZOPT220x_Control::setResolution</text>
</a>
</g>
</g>
<!-- Node3&#45;&gt;Node9 -->
<g id="edge11" class="edge">
<title>Node3&#45;&gt;Node9</title>
<path fill="none" stroke="midnightblue" d="M462.9,-70.9C485.41,-57.9 519.85,-39.61 552,-29 560.56,-26.17 569.65,-23.74 578.79,-21.66"/>
<polygon fill="midnightblue" stroke="midnightblue" points="579.65,-25.05 588.69,-19.53 578.18,-18.21 579.65,-25.05"/>
</g>
<!-- Node4&#45;&gt;Node5 -->
<g id="edge4" class="edge">
<title>Node4&#45;&gt;Node5</title>
<path fill="none" stroke="midnightblue" d="M720.95,-152.95C736.98,-148.5 754.25,-143.37 770,-138 794.17,-129.76 820.58,-119.13 842.04,-110.07"/>
<polygon fill="midnightblue" stroke="midnightblue" points="843.7,-113.17 851.53,-106.03 840.95,-106.73 843.7,-113.17"/>
</g>
<!-- Node6&#45;&gt;Node5 -->
<g id="edge6" class="edge">
<title>Node6&#45;&gt;Node5</title>
<path fill="none" stroke="midnightblue" d="M736.73,-87.67C755.86,-88.1 776.62,-88.56 796.39,-89.01"/>
<polygon fill="midnightblue" stroke="midnightblue" points="796.55,-92.51 806.63,-89.24 796.71,-85.51 796.55,-92.51"/>
</g>
<!-- Node7 -->
<g id="node7" class="node">
<title>Node7</title>
<g id="a_node7"><a xlink:href="classZOPT220x__Control.html#ab5f43fd630eaaadeea212559e12648be" target="_top" xlink:title=" ">
<polygon fill="none" stroke="black" points="806,-27 806,-57 967,-57 967,-27 806,-27"/>
<text text-anchor="start" x="814" y="-45" font-family="Helvetica,sans-Serif" font-size="10.00">ZOPT220x_Control::zoptWrite</text>
<text text-anchor="middle" x="886.5" y="-34" font-family="Helvetica,sans-Serif" font-size="10.00">Register</text>
</a>
</g>
</g>
<!-- Node6&#45;&gt;Node7 -->
<g id="edge7" class="edge">
<title>Node6&#45;&gt;Node7</title>
<path fill="none" stroke="midnightblue" d="M718.69,-76.46C735.25,-73.55 753.37,-70.26 770,-67 782.31,-64.59 795.33,-61.9 808.02,-59.21"/>
<polygon fill="midnightblue" stroke="midnightblue" points="809.06,-62.56 818.1,-57.05 807.59,-55.72 809.06,-62.56"/>
</g>
<!-- Node8&#45;&gt;Node5 -->
<g id="edge9" class="edge">
<title>Node8&#45;&gt;Node5</title>
<path fill="none" stroke="midnightblue" d="M718.11,-57.53C734.83,-60.47 753.17,-63.77 770,-67 781.39,-69.19 793.4,-71.58 805.19,-73.98"/>
<polygon fill="midnightblue" stroke="midnightblue" points="804.52,-77.42 815.02,-76 805.93,-70.56 804.52,-77.42"/>
</g>
<!-- Node8&#45;&gt;Node7 -->
<g id="edge10" class="edge">
<title>Node8&#45;&gt;Node7</title>
<path fill="none" stroke="midnightblue" d="M770.15,-45.1C778.7,-44.87 787.29,-44.64 795.7,-44.41"/>
<polygon fill="midnightblue" stroke="midnightblue" points="795.96,-47.91 805.86,-44.14 795.77,-40.91 795.96,-47.91"/>
</g>
<!-- Node9&#45;&gt;Node5 -->
<g id="edge12" class="edge">
<title>Node9&#45;&gt;Node5</title>
<path fill="none" stroke="midnightblue" d="M746.91,-19.52C754.95,-22.01 762.79,-25.12 770,-29 790.49,-40.02 786.2,-54.78 806,-67 808.76,-68.7 811.65,-70.29 814.62,-71.77"/>
<polygon fill="midnightblue" stroke="midnightblue" points="813.2,-74.97 823.76,-75.91 816.09,-68.6 813.2,-74.97"/>
</g>
<!-- Node9&#45;&gt;Node7 -->
<g id="edge13" class="edge">
<title>Node9&#45;&gt;Node7</title>
<path fill="none" stroke="midnightblue" d="M728.45,-19.51C749.64,-22.55 773.44,-25.96 795.98,-29.18"/>
<polygon fill="midnightblue" stroke="midnightblue" points="795.49,-32.65 805.89,-30.6 796.49,-25.72 795.49,-32.65"/>
</g>
</g>
</svg>
