<?xml version="1.0" encoding="UTF-8" standalone="no"?>
<!DOCTYPE svg PUBLIC "-//W3C//DTD SVG 1.1//EN"
 "http://www.w3.org/Graphics/SVG/1.1/DTD/svg11.dtd">
<!-- Generated by graphviz version 2.43.0 (0)
 -->
<!-- Title: SHT31Sensor Pages: 1 -->
<svg width="396pt" height="441pt"
 viewBox="0.00 0.00 396.49 441.00" xmlns="http://www.w3.org/2000/svg" xmlns:xlink="http://www.w3.org/1999/xlink">
<g id="graph0" class="graph" transform="scale(1 1) rotate(0) translate(4 437)">
<title>SHT31Sensor</title>
<!-- Node1 -->
<g id="node1" class="node">
<title>Node1</title>
<g id="a_node1"><a xlink:title="Interfaces with SHT31 Sensor to collect temperature and humidity data.">
<polygon fill="#bfbfbf" stroke="black" points="158.49,-0.5 158.49,-90.5 258.49,-90.5 258.49,-0.5 158.49,-0.5"/>
<text text-anchor="middle" x="208.49" y="-78.5" font-family="Helvetica,sans-Serif" font-size="10.00">SHT31Sensor</text>
<polyline fill="none" stroke="black" points="158.49,-71.5 258.49,-71.5 "/>
<text text-anchor="middle" x="208.49" y="-59.5" font-family="Helvetica,sans-Serif" font-size="10.00"> </text>
<polyline fill="none" stroke="black" points="158.49,-52.5 258.49,-52.5 "/>
<text text-anchor="start" x="166.49" y="-40.5" font-family="Helvetica,sans-Serif" font-size="10.00">+ SHT31Sensor()</text>
<text text-anchor="start" x="166.49" y="-29.5" font-family="Helvetica,sans-Serif" font-size="10.00">+ SHT31Sensor()</text>
<text text-anchor="start" x="166.49" y="-18.5" font-family="Helvetica,sans-Serif" font-size="10.00">+ verify()</text>
<text text-anchor="start" x="166.49" y="-7.5" font-family="Helvetica,sans-Serif" font-size="10.00">+ readData()</text>
</a>
</g>
</g>
<!-- Node2 -->
<g id="node2" class="node">
<title>Node2</title>
<g id="a_node2"><a xlink:href="classSensor.html" target="_top" xlink:title="Parent class for sensor objects.">
<polygon fill="none" stroke="black" points="138.99,-138.5 138.99,-316.5 277.99,-316.5 277.99,-138.5 138.99,-138.5"/>
<text text-anchor="middle" x="208.49" y="-304.5" font-family="Helvetica,sans-Serif" font-size="10.00">Sensor</text>
<polyline fill="none" stroke="black" points="138.99,-297.5 277.99,-297.5 "/>
<text text-anchor="middle" x="208.49" y="-285.5" font-family="Helvetica,sans-Serif" font-size="10.00"> </text>
<polyline fill="none" stroke="black" points="138.99,-278.5 277.99,-278.5 "/>
<text text-anchor="start" x="146.99" y="-266.5" font-family="Helvetica,sans-Serif" font-size="10.00">+ Sensor()</text>
<text text-anchor="start" x="146.99" y="-255.5" font-family="Helvetica,sans-Serif" font-size="10.00">+ Sensor()</text>
<text text-anchor="start" x="146.99" y="-244.5" font-family="Helvetica,sans-Serif" font-size="10.00">+ getPeriod()</text>
<text text-anchor="start" x="146.99" y="-233.5" font-family="Helvetica,sans-Serif" font-size="10.00">+ setPeriod()</text>
<text text-anchor="start" x="146.99" y="-222.5" font-family="Helvetica,sans-Serif" font-size="10.00">+ getLastExecution()</text>
<text text-anchor="start" x="146.99" y="-211.5" font-family="Helvetica,sans-Serif" font-size="10.00">+ setLastExecution()</text>
<text text-anchor="start" x="146.99" y="-200.5" font-family="Helvetica,sans-Serif" font-size="10.00">+ getSensorName()</text>
<text text-anchor="start" x="146.99" y="-189.5" font-family="Helvetica,sans-Serif" font-size="10.00">+ getSensorCSVHeader()</text>
<text text-anchor="start" x="146.99" y="-178.5" font-family="Helvetica,sans-Serif" font-size="10.00">+ verify()</text>
<text text-anchor="start" x="146.99" y="-167.5" font-family="Helvetica,sans-Serif" font-size="10.00">+ readData()</text>
<text text-anchor="start" x="146.99" y="-156.5" font-family="Helvetica,sans-Serif" font-size="10.00">+ readEmpty()</text>
<text text-anchor="start" x="146.99" y="-145.5" font-family="Helvetica,sans-Serif" font-size="10.00">+ getDataCSV()</text>
</a>
</g>
</g>
<!-- Node2&#45;&gt;Node1 -->
<g id="edge1" class="edge">
<title>Node2&#45;&gt;Node1</title>
<path fill="none" stroke="midnightblue" d="M208.49,-128.26C208.49,-115.1 208.49,-102.18 208.49,-90.64"/>
<polygon fill="none" stroke="midnightblue" points="204.99,-128.35 208.49,-138.35 211.99,-128.35 204.99,-128.35"/>
</g>
<!-- Node3 -->
<g id="node3" class="node">
<title>Node3</title>
<g id="a_node3"><a xlink:title=" ">
<polygon fill="none" stroke="#bfbfbf" points="42.99,-375.5 42.99,-432.5 87.99,-432.5 87.99,-375.5 42.99,-375.5"/>
<text text-anchor="middle" x="65.49" y="-420.5" font-family="Helvetica,sans-Serif" font-size="10.00">String</text>
<polyline fill="none" stroke="#bfbfbf" points="42.99,-413.5 87.99,-413.5 "/>
<text text-anchor="middle" x="65.49" y="-401.5" font-family="Helvetica,sans-Serif" font-size="10.00"> </text>
<polyline fill="none" stroke="#bfbfbf" points="42.99,-394.5 87.99,-394.5 "/>
<text text-anchor="middle" x="65.49" y="-382.5" font-family="Helvetica,sans-Serif" font-size="10.00"> </text>
</a>
</g>
</g>
<!-- Node3&#45;&gt;Node1 -->
<g id="edge5" class="edge">
<title>Node3&#45;&gt;Node1</title>
<path fill="none" stroke="#404040" d="M47.87,-375.16C38.62,-358.89 28.25,-337.56 23.49,-317 5.58,-239.49 -18.48,-205.58 23.49,-138 50.19,-95.01 103.73,-71.61 146.37,-59.26"/>
<polygon fill="none" stroke="#404040" points="146.51,-59.23 151.24,-53.79 158.08,-56.07 153.35,-61.51 146.51,-59.23"/>
<text text-anchor="middle" x="76.49" y="-225" font-family="Helvetica,sans-Serif" font-size="10.00"> &#45;csvHeaderCompiled</text>
</g>
<!-- Node3&#45;&gt;Node2 -->
<g id="edge2" class="edge">
<title>Node3&#45;&gt;Node2</title>
<path fill="none" stroke="#404040" d="M86.16,-375.27C95.56,-362.84 106.93,-348.06 117.49,-335 121.9,-329.55 126.47,-323.97 131.11,-318.37"/>
<polygon fill="none" stroke="#404040" points="131.29,-318.16 132.05,-310.99 138.96,-308.94 138.2,-316.11 131.29,-318.16"/>
<text text-anchor="middle" x="152.49" y="-349" font-family="Helvetica,sans-Serif" font-size="10.00"> &#45;csv_header</text>
<text text-anchor="middle" x="152.49" y="-338" font-family="Helvetica,sans-Serif" font-size="10.00">&#45;sensor_name</text>
</g>
<!-- Node4 -->
<g id="node4" class="node">
<title>Node4</title>
<g id="a_node4"><a xlink:title=" ">
<polygon fill="none" stroke="#bfbfbf" points="148.99,-375.5 148.99,-432.5 233.99,-432.5 233.99,-375.5 148.99,-375.5"/>
<text text-anchor="middle" x="191.49" y="-420.5" font-family="Helvetica,sans-Serif" font-size="10.00">unsigned long</text>
<polyline fill="none" stroke="#bfbfbf" points="148.99,-413.5 233.99,-413.5 "/>
<text text-anchor="middle" x="191.49" y="-401.5" font-family="Helvetica,sans-Serif" font-size="10.00"> </text>
<polyline fill="none" stroke="#bfbfbf" points="148.99,-394.5 233.99,-394.5 "/>
<text text-anchor="middle" x="191.49" y="-382.5" font-family="Helvetica,sans-Serif" font-size="10.00"> </text>
</a>
</g>
</g>
<!-- Node4&#45;&gt;Node2 -->
<g id="edge3" class="edge">
<title>Node4&#45;&gt;Node2</title>
<path fill="none" stroke="#404040" d="M191.06,-375.5C191.08,-363.1 191.4,-348.3 192.49,-335 192.66,-332.95 192.85,-330.88 193.04,-328.79"/>
<polygon fill="none" stroke="#404040" points="193.06,-328.66 189.7,-322.28 194.31,-316.73 197.66,-323.11 193.06,-328.66"/>
<text text-anchor="middle" x="236.49" y="-349" font-family="Helvetica,sans-Serif" font-size="10.00"> &#45;last_execution</text>
<text text-anchor="middle" x="236.49" y="-338" font-family="Helvetica,sans-Serif" font-size="10.00">&#45;minimum_period</text>
</g>
<!-- Node5 -->
<g id="node5" class="node">
<title>Node5</title>
<g id="a_node5"><a xlink:title=" ">
<polygon fill="none" stroke="#bfbfbf" points="287.99,-375.5 287.99,-432.5 316.99,-432.5 316.99,-375.5 287.99,-375.5"/>
<text text-anchor="middle" x="302.49" y="-420.5" font-family="Helvetica,sans-Serif" font-size="10.00">int</text>
<polyline fill="none" stroke="#bfbfbf" points="287.99,-413.5 316.99,-413.5 "/>
<text text-anchor="middle" x="302.49" y="-401.5" font-family="Helvetica,sans-Serif" font-size="10.00"> </text>
<polyline fill="none" stroke="#bfbfbf" points="287.99,-394.5 316.99,-394.5 "/>
<text text-anchor="middle" x="302.49" y="-382.5" font-family="Helvetica,sans-Serif" font-size="10.00"> </text>
</a>
</g>
</g>
<!-- Node5&#45;&gt;Node2 -->
<g id="edge4" class="edge">
<title>Node5&#45;&gt;Node2</title>
<path fill="none" stroke="#404040" d="M295.42,-375.18C291.73,-362.59 286.69,-347.71 280.49,-335 279.23,-332.42 277.92,-329.83 276.56,-327.24"/>
<polygon fill="none" stroke="#404040" points="276.49,-327.11 270.1,-323.77 270.73,-316.58 277.12,-319.92 276.49,-327.11"/>
<text text-anchor="middle" x="305.49" y="-343.5" font-family="Helvetica,sans-Serif" font-size="10.00"> &#45;fields</text>
</g>
<!-- Node6 -->
<g id="node6" class="node">
<title>Node6</title>
<g id="a_node6"><a xlink:title=" ">
<polygon fill="none" stroke="#bfbfbf" points="296.49,-199 296.49,-256 388.49,-256 388.49,-199 296.49,-199"/>
<text text-anchor="middle" x="342.49" y="-244" font-family="Helvetica,sans-Serif" font-size="10.00">Adafruit_SHT31</text>
<polyline fill="none" stroke="#bfbfbf" points="296.49,-237 388.49,-237 "/>
<text text-anchor="middle" x="342.49" y="-225" font-family="Helvetica,sans-Serif" font-size="10.00"> </text>
<polyline fill="none" stroke="#bfbfbf" points="296.49,-218 388.49,-218 "/>
<text text-anchor="middle" x="342.49" y="-206" font-family="Helvetica,sans-Serif" font-size="10.00"> </text>
</a>
</g>
</g>
<!-- Node6&#45;&gt;Node1 -->
<g id="edge6" class="edge">
<title>Node6&#45;&gt;Node1</title>
<path fill="none" stroke="#404040" d="M326.71,-198.66C316.25,-180.86 301.86,-157.53 287.49,-138 278.18,-125.34 267.55,-112.25 257.18,-100.07"/>
<polygon fill="none" stroke="#404040" points="257.16,-100.05 250.21,-98.11 249.32,-90.96 256.27,-92.89 257.16,-100.05"/>
<text text-anchor="middle" x="290.49" y="-112" font-family="Helvetica,sans-Serif" font-size="10.00"> &#45;sht31</text>
</g>
</g>
</svg>
