<?xml version="1.0" encoding="UTF-8" standalone="no"?>
<!DOCTYPE svg PUBLIC "-//W3C//DTD SVG 1.1//EN"
 "http://www.w3.org/Graphics/SVG/1.1/DTD/svg11.dtd">
<!-- Generated by graphviz version 2.43.0 (0)
 -->
<!-- Title: ErrorDisplay Pages: 1 -->
<svg width="122pt" height="204pt"
 viewBox="0.00 0.00 122.00 204.00" xmlns="http://www.w3.org/2000/svg" xmlns:xlink="http://www.w3.org/1999/xlink">
<g id="graph0" class="graph" transform="scale(1 1) rotate(0) translate(4 200)">
<title>ErrorDisplay</title>
<!-- Node1 -->
<g id="node1" class="node">
<title>Node1</title>
<g id="a_node1"><a xlink:title="Singleton class for the 3 GPIO LED Error Display.">
<polygon fill="#bfbfbf" stroke="black" points="1.5,-0.5 1.5,-90.5 92.5,-90.5 92.5,-0.5 1.5,-0.5"/>
<text text-anchor="middle" x="47" y="-78.5" font-family="Helvetica,sans-Serif" font-size="10.00">ErrorDisplay</text>
<polyline fill="none" stroke="black" points="1.5,-71.5 92.5,-71.5 "/>
<text text-anchor="middle" x="47" y="-59.5" font-family="Helvetica,sans-Serif" font-size="10.00"> </text>
<polyline fill="none" stroke="black" points="1.5,-52.5 92.5,-52.5 "/>
<text text-anchor="start" x="9.5" y="-40.5" font-family="Helvetica,sans-Serif" font-size="10.00">+ addCode()</text>
<text text-anchor="start" x="9.5" y="-29.5" font-family="Helvetica,sans-Serif" font-size="10.00">+ toggle()</text>
<text text-anchor="start" x="9.5" y="-18.5" font-family="Helvetica,sans-Serif" font-size="10.00">+ instance()</text>
<text text-anchor="start" x="9.5" y="-7.5" font-family="Helvetica,sans-Serif" font-size="10.00">&#45; ErrorDisplay()</text>
</a>
</g>
</g>
<!-- Node2 -->
<g id="node2" class="node">
<title>Node2</title>
<g id="a_node2"><a xlink:title=" ">
<polygon fill="none" stroke="#bfbfbf" points="0,-138.5 0,-195.5 40,-195.5 40,-138.5 0,-138.5"/>
<text text-anchor="middle" x="20" y="-183.5" font-family="Helvetica,sans-Serif" font-size="10.00">Error</text>
<polyline fill="none" stroke="#bfbfbf" points="0,-176.5 40,-176.5 "/>
<text text-anchor="middle" x="20" y="-164.5" font-family="Helvetica,sans-Serif" font-size="10.00"> </text>
<polyline fill="none" stroke="#bfbfbf" points="0,-157.5 40,-157.5 "/>
<text text-anchor="middle" x="20" y="-145.5" font-family="Helvetica,sans-Serif" font-size="10.00"> </text>
</a>
</g>
</g>
<!-- Node2&#45;&gt;Node1 -->
<g id="edge1" class="edge">
<title>Node2&#45;&gt;Node1</title>
<path fill="none" stroke="#404040" d="M18.41,-138.22C18.42,-128.86 19.04,-118.4 21,-109 21.48,-106.71 22.04,-104.41 22.66,-102.09"/>
<polygon fill="none" stroke="#404040" points="22.69,-102.02 20.67,-95.1 26.28,-90.57 28.3,-97.49 22.69,-102.02"/>
<text text-anchor="middle" x="36.5" y="-112" font-family="Helvetica,sans-Serif" font-size="10.00"> &#45;code</text>
</g>
<!-- Node3 -->
<g id="node3" class="node">
<title>Node3</title>
<g id="a_node3"><a xlink:title=" ">
<polygon fill="none" stroke="#bfbfbf" points="59.5,-138.5 59.5,-195.5 88.5,-195.5 88.5,-138.5 59.5,-138.5"/>
<text text-anchor="middle" x="74" y="-183.5" font-family="Helvetica,sans-Serif" font-size="10.00">int</text>
<polyline fill="none" stroke="#bfbfbf" points="59.5,-176.5 88.5,-176.5 "/>
<text text-anchor="middle" x="74" y="-164.5" font-family="Helvetica,sans-Serif" font-size="10.00"> </text>
<polyline fill="none" stroke="#bfbfbf" points="59.5,-157.5 88.5,-157.5 "/>
<text text-anchor="middle" x="74" y="-145.5" font-family="Helvetica,sans-Serif" font-size="10.00"> </text>
</a>
</g>
</g>
<!-- Node3&#45;&gt;Node1 -->
<g id="edge2" class="edge">
<title>Node3&#45;&gt;Node1</title>
<path fill="none" stroke="#404040" d="M67.74,-138.28C65.33,-127.62 62.48,-115.03 59.69,-102.65"/>
<polygon fill="none" stroke="#404040" points="59.68,-102.62 54.46,-97.65 57.03,-90.91 62.26,-95.88 59.68,-102.62"/>
<text text-anchor="middle" x="88" y="-112" font-family="Helvetica,sans-Serif" font-size="10.00"> &#45;pin_level</text>
</g>
</g>
</svg>
