<?xml version="1.0" encoding="UTF-8" standalone="no"?>
<!DOCTYPE svg PUBLIC "-//W3C//DTD SVG 1.1//EN"
 "http://www.w3.org/Graphics/SVG/1.1/DTD/svg11.dtd">
<!-- Generated by graphviz version 2.43.0 (0)
 -->
<!-- Title: ZOPT220x_Control::zoptReadRegister Pages: 1 -->
<!--zoomable 480 -->
<svg id="main" version="1.1" xmlns="http://www.w3.org/2000/svg" xmlns:xlink="http://www.w3.org/1999/xlink" xml:space="preserve" onload="init(evt)">
<style type="text/css"><![CDATA[
.edge:hover path { stroke: red; }
.edge:hover polygon { stroke: red; fill: red; }
]]></style>
<script type="text/javascript"><![CDATA[
var edges = document.getElementsByTagName('g');
if (edges && edges.length) {
  for (var i=0;i<edges.length;i++) {
    if (edges[i].id.substr(0,4)=='edge') {
      edges[i].setAttribute('class','edge');
    }
  }
}
]]></script>
        <defs>
                <circle id="rim" cx="0" cy="0" r="7"/>
                <circle id="rim2" cx="0" cy="0" r="3.5"/>
                <g id="zoomPlus">
                        <use xlink:href="#rim" fill="#404040">
                                <set attributeName="fill" to="#808080" begin="zoomplus.mouseover" end="zoomplus.mouseout"/>
                        </use>
                        <path d="M-4,0h8M0,-4v8" fill="none" stroke="white" stroke-width="1.5" pointer-events="none"/>
                </g>
                <g id="zoomMin">
                        <use xlink:href="#rim" fill="#404040">
                                <set attributeName="fill" to="#808080" begin="zoomminus.mouseover" end="zoomminus.mouseout"/>
                        </use>
                        <path d="M-4,0h8" fill="none" stroke="white" stroke-width="1.5" pointer-events="none"/>
                </g>
                <g id="dirArrow">
                        <path fill="none" stroke="white" stroke-width="1.5" d="M0,-3.0v7 M-2.5,-0.5L0,-3.0L2.5,-0.5"/>
                </g>
               <g id="resetDef">
                       <use xlink:href="#rim2" fill="#404040">
                               <set attributeName="fill" to="#808080" begin="reset.mouseover" end="reset.mouseout"/>
                       </use>
               </g>
        </defs>

<script type="text/javascript">
var viewWidth = 985;
var viewHeight = 480;
var sectionId = 'dynsection-36';
</script>
<script xlink:href="svgpan.js"/>
<svg id="graph" class="graph">
<g id="viewport">
<title>ZOPT220x_Control::zoptReadRegister</title>
<!-- Node1 -->
<g id="node1" class="node">
<title>Node1</title>
<g id="a_node1"><a xlink:title=" ">
<polygon fill="#bfbfbf" stroke="black" points="818,-227 818,-257 977,-257 977,-227 818,-227"/>
<text text-anchor="start" x="826" y="-245" font-family="Helvetica,sans-Serif" font-size="10.00">ZOPT220x_Control::zoptRead</text>
<text text-anchor="middle" x="897.5" y="-234" font-family="Helvetica,sans-Serif" font-size="10.00">Register</text>
</a>
</g>
</g>
<!-- Node2 -->
<g id="node2" class="node">
<title>Node2</title>
<g id="a_node2"><a xlink:href="classZOPT220x__Control.html#a8eb237d4b6eb8513893d99d3163fc094" target="_top" xlink:title=" ">
<polygon fill="none" stroke="black" points="587,-404 587,-434 759,-434 759,-404 587,-404"/>
<text text-anchor="start" x="595" y="-422" font-family="Helvetica,sans-Serif" font-size="10.00">ZOPT220x_Control::checkPower</text>
<text text-anchor="middle" x="673" y="-411" font-family="Helvetica,sans-Serif" font-size="10.00">OnStatus</text>
</a>
</g>
</g>
<!-- Node1&#45;&gt;Node2 -->
<g id="edge1" class="edge">
<title>Node1&#45;&gt;Node2</title>
<path fill="none" stroke="midnightblue" d="M884.94,-266.58C867.56,-300.72 831.42,-361.88 782,-394 774.98,-398.56 767.23,-402.3 759.19,-405.35"/>
<polygon fill="midnightblue" stroke="midnightblue" points="888.22,-267.83 889.53,-257.32 881.95,-264.73 888.22,-267.83"/>
</g>
<!-- Node3 -->
<g id="node3" class="node">
<title>Node3</title>
<g id="a_node3"><a xlink:href="classZOPT220x__Control.html#adc20ce356a572b8039ba96b9160e97c4" target="_top" xlink:title=" ">
<polygon fill="none" stroke="black" points="364,-404 364,-434 522,-434 522,-404 364,-404"/>
<text text-anchor="start" x="372" y="-422" font-family="Helvetica,sans-Serif" font-size="10.00">ZOPT220x_Control::zopt220x</text>
<text text-anchor="middle" x="443" y="-411" font-family="Helvetica,sans-Serif" font-size="10.00">SetupWithAddress</text>
</a>
</g>
</g>
<!-- Node1&#45;&gt;Node3 -->
<g id="edge29" class="edge">
<title>Node1&#45;&gt;Node3</title>
<path fill="none" stroke="midnightblue" d="M891,-266.84C879.58,-311.7 848.59,-405.2 782,-444 685.02,-500.5 544.91,-458.92 479.78,-434.06"/>
<polygon fill="midnightblue" stroke="midnightblue" points="894.42,-267.58 893.38,-257.04 887.62,-265.93 894.42,-267.58"/>
</g>
<!-- Node6 -->
<g id="node6" class="node">
<title>Node6</title>
<g id="a_node6"><a xlink:href="classZOPT220x__Control.html#af74c3620eaaa1ba7413ebd8417eee271" target="_top" xlink:title=" ">
<polygon fill="none" stroke="black" points="583,-251.5 583,-270.5 763,-270.5 763,-251.5 583,-251.5"/>
<text text-anchor="middle" x="673" y="-258.5" font-family="Helvetica,sans-Serif" font-size="10.00">ZOPT220x_Control::dataAvailable</text>
</a>
</g>
</g>
<!-- Node1&#45;&gt;Node6 -->
<g id="edge5" class="edge">
<title>Node1&#45;&gt;Node6</title>
<path fill="none" stroke="midnightblue" d="M807.71,-249.58C793.09,-250.83 777.92,-252.13 763.28,-253.38"/>
<polygon fill="midnightblue" stroke="midnightblue" points="808.08,-253.06 817.74,-248.73 807.48,-246.09 808.08,-253.06"/>
</g>
<!-- Node9 -->
<g id="node9" class="node">
<title>Node9</title>
<g id="a_node9"><a xlink:href="classZOPT220x__Control.html#a1f67c4ca2c2c8f160ea8f790fb433602" target="_top" xlink:title=" ">
<polygon fill="none" stroke="black" points="598.5,-164 598.5,-194 747.5,-194 747.5,-164 598.5,-164"/>
<text text-anchor="start" x="606.5" y="-182" font-family="Helvetica,sans-Serif" font-size="10.00">ZOPT220x_Control::disable</text>
<text text-anchor="middle" x="673" y="-171" font-family="Helvetica,sans-Serif" font-size="10.00">Sensor</text>
</a>
</g>
</g>
<!-- Node1&#45;&gt;Node9 -->
<g id="edge9" class="edge">
<title>Node1&#45;&gt;Node9</title>
<path fill="none" stroke="midnightblue" d="M844.75,-223.69C825.21,-217.08 802.7,-209.82 782,-204 769.59,-200.51 756.27,-197.14 743.38,-194.05"/>
<polygon fill="midnightblue" stroke="midnightblue" points="843.78,-227.06 854.38,-226.98 846.04,-220.44 843.78,-227.06"/>
</g>
<!-- Node10 -->
<g id="node10" class="node">
<title>Node10</title>
<g id="a_node10"><a xlink:href="classZOPT220x__Control.html#a6878d8f2dbff54f6e2f9203df20b9927" target="_top" xlink:title=" ">
<polygon fill="none" stroke="black" points="600,-115 600,-145 746,-145 746,-115 600,-115"/>
<text text-anchor="start" x="608" y="-133" font-family="Helvetica,sans-Serif" font-size="10.00">ZOPT220x_Control::enable</text>
<text text-anchor="middle" x="673" y="-122" font-family="Helvetica,sans-Serif" font-size="10.00">Sensor</text>
</a>
</g>
</g>
<!-- Node1&#45;&gt;Node10 -->
<g id="edge10" class="edge">
<title>Node1&#45;&gt;Node10</title>
<path fill="none" stroke="midnightblue" d="M873.9,-219.73C852.14,-199.56 817.4,-170.54 782,-154 770.78,-148.76 758.35,-144.63 746.04,-141.4"/>
<polygon fill="midnightblue" stroke="midnightblue" points="871.63,-222.4 881.3,-226.72 876.44,-217.31 871.63,-222.4"/>
</g>
<!-- Node11 -->
<g id="node11" class="node">
<title>Node11</title>
<g id="a_node11"><a xlink:href="classZOPT220x__Control.html#afa9fab0ef429c9e7a46afd752a2ee44d" target="_top" xlink:title=" ">
<polygon fill="none" stroke="black" points="597.5,-327.5 597.5,-346.5 748.5,-346.5 748.5,-327.5 597.5,-327.5"/>
<text text-anchor="middle" x="673" y="-334.5" font-family="Helvetica,sans-Serif" font-size="10.00">ZOPT220x_Control::setGain</text>
</a>
</g>
</g>
<!-- Node1&#45;&gt;Node11 -->
<g id="edge11" class="edge">
<title>Node1&#45;&gt;Node11</title>
<path fill="none" stroke="midnightblue" d="M870.89,-263.52C848.77,-280.96 815.2,-304.74 782,-318 771.48,-322.2 760.02,-325.48 748.62,-328.03"/>
<polygon fill="midnightblue" stroke="midnightblue" points="873.18,-266.17 878.79,-257.18 868.8,-260.71 873.18,-266.17"/>
</g>
<!-- Node12 -->
<g id="node12" class="node">
<title>Node12</title>
<g id="a_node12"><a xlink:href="classZOPT220x__Control.html#a7bd39622c1375fed8d64c885aad5ae2d" target="_top" xlink:title=" ">
<polygon fill="none" stroke="black" points="586.5,-76.5 586.5,-95.5 759.5,-95.5 759.5,-76.5 586.5,-76.5"/>
<text text-anchor="middle" x="673" y="-83.5" font-family="Helvetica,sans-Serif" font-size="10.00">ZOPT220x_Control::setI2CAdr52</text>
</a>
</g>
</g>
<!-- Node1&#45;&gt;Node12 -->
<g id="edge14" class="edge">
<title>Node1&#45;&gt;Node12</title>
<path fill="none" stroke="midnightblue" d="M883.44,-217.64C865.18,-186.15 828.93,-132.15 782,-105 775.08,-101 767.52,-97.8 759.72,-95.24"/>
<polygon fill="midnightblue" stroke="midnightblue" points="880.55,-219.65 888.52,-226.63 886.65,-216.21 880.55,-219.65"/>
</g>
<!-- Node13 -->
<g id="node13" class="node">
<title>Node13</title>
<g id="a_node13"><a xlink:href="classZOPT220x__Control.html#ae2ff7f5af470f4f235e7725c4c35ca64" target="_top" xlink:title=" ">
<polygon fill="none" stroke="black" points="586.5,-38.5 586.5,-57.5 759.5,-57.5 759.5,-38.5 586.5,-38.5"/>
<text text-anchor="middle" x="673" y="-45.5" font-family="Helvetica,sans-Serif" font-size="10.00">ZOPT220x_Control::setI2CAdr53</text>
</a>
</g>
</g>
<!-- Node1&#45;&gt;Node13 -->
<g id="edge15" class="edge">
<title>Node1&#45;&gt;Node13</title>
<path fill="none" stroke="midnightblue" d="M887.79,-217.31C872.72,-178.5 837.93,-103.87 782,-67 775.16,-62.49 767.58,-58.97 759.69,-56.22"/>
<polygon fill="midnightblue" stroke="midnightblue" points="884.56,-218.67 891.35,-226.8 891.11,-216.21 884.56,-218.67"/>
</g>
<!-- Node14 -->
<g id="node14" class="node">
<title>Node14</title>
<g id="a_node14"><a xlink:href="classZOPT220x__Control.html#a809d1f5db2a9f0884fa82e0b77b944bf" target="_top" xlink:title=" ">
<polygon fill="none" stroke="black" points="564,-365.5 564,-384.5 782,-384.5 782,-365.5 564,-365.5"/>
<text text-anchor="middle" x="673" y="-372.5" font-family="Helvetica,sans-Serif" font-size="10.00">ZOPT220x_Control::setMeasurementRate</text>
</a>
</g>
</g>
<!-- Node1&#45;&gt;Node14 -->
<g id="edge16" class="edge">
<title>Node1&#45;&gt;Node14</title>
<path fill="none" stroke="midnightblue" d="M880.04,-265.45C860.07,-291.98 823.83,-334.29 782,-356 774.56,-359.86 766.5,-362.95 758.23,-365.43"/>
<polygon fill="midnightblue" stroke="midnightblue" points="883.07,-267.24 886.18,-257.12 877.43,-263.1 883.07,-267.24"/>
</g>
<!-- Node15 -->
<g id="node15" class="node">
<title>Node15</title>
<g id="a_node15"><a xlink:href="classZOPT220x__Control.html#a70fedf9d112bc34ef55e21452acd3877" target="_top" xlink:title=" ">
<polygon fill="none" stroke="black" points="595.5,-213.5 595.5,-232.5 750.5,-232.5 750.5,-213.5 595.5,-213.5"/>
<text text-anchor="middle" x="673" y="-220.5" font-family="Helvetica,sans-Serif" font-size="10.00">ZOPT220x_Control::setMode</text>
</a>
</g>
</g>
<!-- Node1&#45;&gt;Node15 -->
<g id="edge18" class="edge">
<title>Node1&#45;&gt;Node15</title>
<path fill="none" stroke="midnightblue" d="M807.69,-234.42C788.85,-232.81 769.12,-231.12 750.78,-229.56"/>
<polygon fill="midnightblue" stroke="midnightblue" points="807.48,-237.91 817.74,-235.27 808.08,-230.94 807.48,-237.91"/>
</g>
<!-- Node20 -->
<g id="node20" class="node">
<title>Node20</title>
<g id="a_node20"><a xlink:href="classZOPT220x__Control.html#aa8d79db36ab65e003f87a493f720233d" target="_top" xlink:title=" ">
<polygon fill="none" stroke="black" points="583,-289.5 583,-308.5 763,-308.5 763,-289.5 583,-289.5"/>
<text text-anchor="middle" x="673" y="-296.5" font-family="Helvetica,sans-Serif" font-size="10.00">ZOPT220x_Control::setResolution</text>
</a>
</g>
</g>
<!-- Node1&#45;&gt;Node20 -->
<g id="edge25" class="edge">
<title>Node1&#45;&gt;Node20</title>
<path fill="none" stroke="midnightblue" d="M846.64,-260.31C826.73,-267.16 803.47,-274.58 782,-280 767.6,-283.63 751.95,-286.82 737.15,-289.49"/>
<polygon fill="midnightblue" stroke="midnightblue" points="847.83,-263.6 856.12,-257.01 845.53,-256.99 847.83,-263.6"/>
</g>
<!-- Node21 -->
<g id="node21" class="node">
<title>Node21</title>
<g id="a_node21"><a xlink:href="classZOPT220x__Control.html#adf29f97ec2609d414b33101264158486" target="_top" xlink:title=" ">
<polygon fill="none" stroke="black" points="593.5,-0.5 593.5,-19.5 752.5,-19.5 752.5,-0.5 593.5,-0.5"/>
<text text-anchor="middle" x="673" y="-7.5" font-family="Helvetica,sans-Serif" font-size="10.00">ZOPT220x_Control::softReset</text>
</a>
</g>
</g>
<!-- Node1&#45;&gt;Node21 -->
<g id="edge28" class="edge">
<title>Node1&#45;&gt;Node21</title>
<path fill="none" stroke="midnightblue" d="M890.71,-216.99C878.8,-171.6 847.05,-76.02 782,-29 773.28,-22.7 763.15,-18.25 752.66,-15.15"/>
<polygon fill="midnightblue" stroke="midnightblue" points="887.36,-218.04 893.19,-226.89 894.15,-216.33 887.36,-218.04"/>
</g>
<!-- Node2&#45;&gt;Node3 -->
<g id="edge2" class="edge">
<title>Node2&#45;&gt;Node3</title>
<path fill="none" stroke="midnightblue" d="M576.53,-419C558.48,-419 539.79,-419 522.34,-419"/>
<polygon fill="midnightblue" stroke="midnightblue" points="576.78,-422.5 586.78,-419 576.78,-415.5 576.78,-422.5"/>
</g>
<!-- Node4 -->
<g id="node4" class="node">
<title>Node4</title>
<g id="a_node4"><a xlink:href="classZOPT220x__Control.html#aab772e9154760b2ddbee82953532f08e" target="_top" xlink:title=" ">
<polygon fill="none" stroke="black" points="164,-404 164,-434 322,-434 322,-404 164,-404"/>
<text text-anchor="start" x="172" y="-422" font-family="Helvetica,sans-Serif" font-size="10.00">ZOPT220x_Control::zopt220x</text>
<text text-anchor="middle" x="243" y="-411" font-family="Helvetica,sans-Serif" font-size="10.00">Setup</text>
</a>
</g>
</g>
<!-- Node3&#45;&gt;Node4 -->
<g id="edge3" class="edge">
<title>Node3&#45;&gt;Node4</title>
<path fill="none" stroke="midnightblue" d="M353.69,-419C343.13,-419 332.41,-419 322.01,-419"/>
<polygon fill="midnightblue" stroke="midnightblue" points="353.75,-422.5 363.75,-419 353.75,-415.5 353.75,-422.5"/>
</g>
<!-- Node5 -->
<g id="node5" class="node">
<title>Node5</title>
<g id="a_node5"><a xlink:href="classZOPT220Sensor.html#a5fab507a3cadaab6d6026c3fea36d0e6" target="_top" xlink:title="Verifies the connection to the ZOPT220x sensor.">
<polygon fill="none" stroke="black" points="0,-409.5 0,-428.5 128,-428.5 128,-409.5 0,-409.5"/>
<text text-anchor="middle" x="64" y="-416.5" font-family="Helvetica,sans-Serif" font-size="10.00">ZOPT220Sensor::verify</text>
</a>
</g>
</g>
<!-- Node4&#45;&gt;Node5 -->
<g id="edge4" class="edge">
<title>Node4&#45;&gt;Node5</title>
<path fill="none" stroke="midnightblue" d="M153.73,-419C145.09,-419 136.45,-419 128.13,-419"/>
<polygon fill="midnightblue" stroke="midnightblue" points="153.85,-422.5 163.85,-419 153.85,-415.5 153.85,-422.5"/>
</g>
<!-- Node7 -->
<g id="node7" class="node">
<title>Node7</title>
<g id="a_node7"><a xlink:href="classZOPT220x__Control.html#a1233f73c507efe1393d84b9d88b4a023" target="_top" xlink:title=" ">
<polygon fill="none" stroke="black" points="358,-251.5 358,-270.5 528,-270.5 528,-251.5 358,-251.5"/>
<text text-anchor="middle" x="443" y="-258.5" font-family="Helvetica,sans-Serif" font-size="10.00">ZOPT220x_Control::getUVIndex</text>
</a>
</g>
</g>
<!-- Node6&#45;&gt;Node7 -->
<g id="edge6" class="edge">
<title>Node6&#45;&gt;Node7</title>
<path fill="none" stroke="midnightblue" d="M572.67,-261C557.85,-261 542.69,-261 528.22,-261"/>
<polygon fill="midnightblue" stroke="midnightblue" points="572.87,-264.5 582.87,-261 572.87,-257.5 572.87,-264.5"/>
</g>
<!-- Node8 -->
<g id="node8" class="node">
<title>Node8</title>
<g id="a_node8"><a xlink:href="classZOPT220Sensor.html#a6aeb56062c5ff976d199ae407df9ed6c" target="_top" xlink:title="Reads data from the ZOPT220x sensor and returns it in CSV format.">
<polygon fill="none" stroke="black" points="170.5,-270.5 170.5,-289.5 315.5,-289.5 315.5,-270.5 170.5,-270.5"/>
<text text-anchor="middle" x="243" y="-277.5" font-family="Helvetica,sans-Serif" font-size="10.00">ZOPT220Sensor::readData</text>
</a>
</g>
</g>
<!-- Node6&#45;&gt;Node8 -->
<g id="edge8" class="edge">
<title>Node6&#45;&gt;Node8</title>
<path fill="none" stroke="midnightblue" d="M603.33,-271.93C579.54,-275.22 552.66,-278.38 528,-280 455.8,-284.74 373.05,-284.05 315.57,-282.59"/>
<polygon fill="midnightblue" stroke="midnightblue" points="603.91,-275.38 613.32,-270.51 602.93,-268.45 603.91,-275.38"/>
</g>
<!-- Node7&#45;&gt;Node8 -->
<g id="edge7" class="edge">
<title>Node7&#45;&gt;Node8</title>
<path fill="none" stroke="midnightblue" d="M347.52,-270.07C336.81,-271.09 326.04,-272.13 315.69,-273.12"/>
<polygon fill="midnightblue" stroke="midnightblue" points="348.12,-273.52 357.74,-269.09 347.45,-266.56 348.12,-273.52"/>
</g>
<!-- Node11&#45;&gt;Node3 -->
<g id="edge13" class="edge">
<title>Node11&#45;&gt;Node3</title>
<path fill="none" stroke="midnightblue" d="M587.64,-346.97C579.44,-349.37 571.43,-352.34 564,-356 544.53,-365.6 546.59,-377.79 528,-389 518.32,-394.84 507.33,-399.78 496.56,-403.87"/>
<polygon fill="midnightblue" stroke="midnightblue" points="588.55,-350.35 597.32,-344.41 586.76,-343.59 588.55,-350.35"/>
</g>
<!-- Node11&#45;&gt;Node8 -->
<g id="edge12" class="edge">
<title>Node11&#45;&gt;Node8</title>
<path fill="none" stroke="midnightblue" d="M586.89,-334.69C523.4,-331.89 434.75,-325.69 358,-312 328.25,-306.69 295.08,-296.93 272.22,-289.58"/>
<polygon fill="midnightblue" stroke="midnightblue" points="587.11,-338.2 597.25,-335.13 587.41,-331.21 587.11,-338.2"/>
</g>
<!-- Node14&#45;&gt;Node3 -->
<g id="edge17" class="edge">
<title>Node14&#45;&gt;Node3</title>
<path fill="none" stroke="midnightblue" d="M609.61,-386.4C594.66,-389.17 578.76,-392.16 564,-395 549.19,-397.85 533.36,-400.97 518.22,-403.98"/>
<polygon fill="midnightblue" stroke="midnightblue" points="610.59,-389.78 619.79,-384.51 609.32,-382.89 610.59,-389.78"/>
</g>
<!-- Node16 -->
<g id="node16" class="node">
<title>Node16</title>
<g id="a_node16"><a xlink:href="classZOPT220x__Control.html#a27c0821f9341f36d87c9388ce7bf4ee5" target="_top" xlink:title=" ">
<polygon fill="none" stroke="black" points="370,-202 370,-232 516,-232 516,-202 370,-202"/>
<text text-anchor="start" x="378" y="-220" font-family="Helvetica,sans-Serif" font-size="10.00">ZOPT220x_Control::enable</text>
<text text-anchor="middle" x="443" y="-209" font-family="Helvetica,sans-Serif" font-size="10.00">ALSSensing</text>
</a>
</g>
</g>
<!-- Node15&#45;&gt;Node16 -->
<g id="edge19" class="edge">
<title>Node15&#45;&gt;Node16</title>
<path fill="none" stroke="midnightblue" d="M585.41,-220.72C562.55,-220.12 538.12,-219.48 516.11,-218.9"/>
<polygon fill="midnightblue" stroke="midnightblue" points="585.36,-224.22 595.45,-220.99 585.54,-217.22 585.36,-224.22"/>
</g>
<!-- Node17 -->
<g id="node17" class="node">
<title>Node17</title>
<g id="a_node17"><a xlink:href="classZOPT220x__Control.html#a0d055b74457d1c10173897918d5610ab" target="_top" xlink:title=" ">
<polygon fill="none" stroke="black" points="370,-65 370,-95 516,-95 516,-65 370,-65"/>
<text text-anchor="start" x="378" y="-83" font-family="Helvetica,sans-Serif" font-size="10.00">ZOPT220x_Control::enable</text>
<text text-anchor="middle" x="443" y="-72" font-family="Helvetica,sans-Serif" font-size="10.00">RawSensing</text>
</a>
</g>
</g>
<!-- Node15&#45;&gt;Node17 -->
<g id="edge21" class="edge">
<title>Node15&#45;&gt;Node17</title>
<path fill="none" stroke="midnightblue" d="M585.52,-215.64C577.72,-212.5 570.37,-208.38 564,-203 528.54,-173.07 561.82,-136.76 528,-105 523.9,-101.15 519.22,-97.88 514.23,-95.12"/>
<polygon fill="midnightblue" stroke="midnightblue" points="584.63,-219.04 595.22,-219.01 586.92,-212.42 584.63,-219.04"/>
</g>
<!-- Node18 -->
<g id="node18" class="node">
<title>Node18</title>
<g id="a_node18"><a xlink:href="classZOPT220x__Control.html#a1172703928cf494b466ea2c3595bbbba" target="_top" xlink:title=" ">
<polygon fill="none" stroke="black" points="370,-153 370,-183 516,-183 516,-153 370,-153"/>
<text text-anchor="start" x="378" y="-171" font-family="Helvetica,sans-Serif" font-size="10.00">ZOPT220x_Control::enable</text>
<text text-anchor="middle" x="443" y="-160" font-family="Helvetica,sans-Serif" font-size="10.00">UVBSensing</text>
</a>
</g>
</g>
<!-- Node15&#45;&gt;Node18 -->
<g id="edge22" class="edge">
<title>Node15&#45;&gt;Node18</title>
<path fill="none" stroke="midnightblue" d="M603.73,-211.57C590.49,-209.01 576.77,-206.12 564,-203 547.75,-199.03 544.04,-196.74 528,-192 518.11,-189.08 507.55,-186.01 497.37,-183.09"/>
<polygon fill="midnightblue" stroke="midnightblue" points="603.25,-215.04 613.73,-213.46 604.55,-208.16 603.25,-215.04"/>
</g>
<!-- Node19 -->
<g id="node19" class="node">
<title>Node19</title>
<g id="a_node19"><a xlink:href="classZOPT220x__Control.html#ac427197b44897ed82f77069e2e88270a" target="_top" xlink:title=" ">
<polygon fill="none" stroke="black" points="367,-114.5 367,-133.5 519,-133.5 519,-114.5 367,-114.5"/>
<text text-anchor="middle" x="443" y="-121.5" font-family="Helvetica,sans-Serif" font-size="10.00">ZOPT220x_Control::standby</text>
</a>
</g>
</g>
<!-- Node15&#45;&gt;Node19 -->
<g id="edge24" class="edge">
<title>Node15&#45;&gt;Node19</title>
<path fill="none" stroke="midnightblue" d="M585.72,-214.07C578.01,-211.22 570.63,-207.6 564,-203 538.45,-185.27 553.19,-161.23 528,-143 522.67,-139.14 516.69,-136.05 510.44,-133.57"/>
<polygon fill="midnightblue" stroke="midnightblue" points="584.67,-217.41 595.27,-217.17 586.84,-210.75 584.67,-217.41"/>
</g>
<!-- Node16&#45;&gt;Node8 -->
<g id="edge20" class="edge">
<title>Node16&#45;&gt;Node8</title>
<path fill="none" stroke="midnightblue" d="M380.74,-234.98C373.07,-237.3 365.35,-239.68 358,-242 328.55,-251.29 295.05,-262.54 272.03,-270.38"/>
<polygon fill="midnightblue" stroke="midnightblue" points="381.82,-238.31 390.39,-232.07 379.8,-231.61 381.82,-238.31"/>
</g>
<!-- Node18&#45;&gt;Node8 -->
<g id="edge23" class="edge">
<title>Node18&#45;&gt;Node8</title>
<path fill="none" stroke="midnightblue" d="M369.62,-186.72C365.63,-188.36 361.73,-190.11 358,-192 315.15,-213.65 272.45,-252.32 253.78,-270.31"/>
<polygon fill="midnightblue" stroke="midnightblue" points="370.97,-189.96 379.07,-183.12 368.47,-183.41 370.97,-189.96"/>
</g>
<!-- Node20&#45;&gt;Node3 -->
<g id="edge27" class="edge">
<title>Node20&#45;&gt;Node3</title>
<path fill="none" stroke="midnightblue" d="M579.39,-311.61C574.08,-313.46 568.91,-315.58 564,-318 544.53,-327.6 544.44,-336.83 528,-351 506.25,-369.74 480.5,-390.37 463.29,-403.93"/>
<polygon fill="midnightblue" stroke="midnightblue" points="580.58,-314.91 589.06,-308.56 578.48,-308.23 580.58,-314.91"/>
</g>
<!-- Node20&#45;&gt;Node8 -->
<g id="edge26" class="edge">
<title>Node20&#45;&gt;Node8</title>
<path fill="none" stroke="midnightblue" d="M572.74,-301.34C510.89,-301.99 429.71,-301.35 358,-296 339.46,-294.62 319.35,-292.13 301.25,-289.52"/>
<polygon fill="midnightblue" stroke="midnightblue" points="572.92,-304.84 582.88,-301.22 572.84,-297.84 572.92,-304.84"/>
</g>
</g>
</svg>
        <g id="navigator" transform="translate(0 0)" fill="#404254">
                <rect fill="#f2f5e9" fill-opacity="0.5" stroke="#606060" stroke-width=".5" x="0" y="0" width="60" height="60"/>
                <use id="zoomplus" xlink:href="#zoomPlus" x="17" y="9" onmousedown="handleZoom(evt,'in')"/>
                <use id="zoomminus" xlink:href="#zoomMin" x="42" y="9" onmousedown="handleZoom(evt,'out')"/>
                <use id="reset" xlink:href="#resetDef" x="30" y="36" onmousedown="handleReset()"/>
                <g id="arrowUp" xlink:href="#dirArrow" transform="translate(30 24)" onmousedown="handlePan(0,-1)">
                  <use xlink:href="#rim" fill="#404040">
                        <set attributeName="fill" to="#808080" begin="arrowUp.mouseover" end="arrowUp.mouseout"/>
                  </use>
                  <path fill="none" stroke="white" stroke-width="1.5" d="M0,-3.0v7 M-2.5,-0.5L0,-3.0L2.5,-0.5"/>
                </g>
                <g id="arrowRight" xlink:href="#dirArrow" transform="rotate(90) translate(36 -43)" onmousedown="handlePan(1,0)">
                  <use xlink:href="#rim" fill="#404040">
                        <set attributeName="fill" to="#808080" begin="arrowRight.mouseover" end="arrowRight.mouseout"/>
                  </use>
                  <path fill="none" stroke="white" stroke-width="1.5" d="M0,-3.0v7 M-2.5,-0.5L0,-3.0L2.5,-0.5"/>
                </g>
                <g id="arrowDown" xlink:href="#dirArrow" transform="rotate(180) translate(-30 -48)" onmousedown="handlePan(0,1)">
                  <use xlink:href="#rim" fill="#404040">
                        <set attributeName="fill" to="#808080" begin="arrowDown.mouseover" end="arrowDown.mouseout"/>
                  </use>
                  <path fill="none" stroke="white" stroke-width="1.5" d="M0,-3.0v7 M-2.5,-0.5L0,-3.0L2.5,-0.5"/>
                </g>
                <g id="arrowLeft" xlink:href="#dirArrow" transform="rotate(270) translate(-36 17)" onmousedown="handlePan(-1,0)">
                  <use xlink:href="#rim" fill="#404040">
                        <set attributeName="fill" to="#808080" begin="arrowLeft.mouseover" end="arrowLeft.mouseout"/>
                  </use>
                  <path fill="none" stroke="white" stroke-width="1.5" d="M0,-3.0v7 M-2.5,-0.5L0,-3.0L2.5,-0.5"/>
                </g>
        </g>
        <svg viewBox="0 0 15 15" width="100%" height="30px" preserveAspectRatio="xMaxYMin meet">
         <g id="arrow_out" transform="scale(0.3 0.3)">
          <a xlink:href="classZOPT220x__Control_a58c74577acc1183a66b1f9b9281551a3_icgraph_org.svg" target="_base">
           <rect id="button" ry="5" rx="5" y="6" x="6" height="38" width="38"
                fill="#f2f5e9" fill-opacity="0.5" stroke="#606060" stroke-width="1.0"/>
           <path id="arrow"
             d="M 11.500037,31.436501 C 11.940474,20.09759 22.043105,11.32322 32.158766,21.979434 L 37.068811,17.246167 C 37.068811,17.246167 37.088388,32 37.088388,32 L 22.160133,31.978069 C 22.160133,31.978069 26.997745,27.140456 26.997745,27.140456 C 18.528582,18.264221 13.291696,25.230495 11.500037,31.436501 z"
             style="fill:#404040;"/>
          </a>
         </g>
        </svg>
</svg>
