<?xml version="1.0" encoding="UTF-8" standalone="no"?>
<!DOCTYPE svg PUBLIC "-//W3C//DTD SVG 1.1//EN"
 "http://www.w3.org/Graphics/SVG/1.1/DTD/svg11.dtd">
<!-- Generated by graphviz version 2.43.0 (0)
 -->
<!-- Title: ZOPT220x_Control::setMeasurementRate Pages: 1 -->
<svg width="778pt" height="39pt"
 viewBox="0.00 0.00 778.00 39.00" xmlns="http://www.w3.org/2000/svg" xmlns:xlink="http://www.w3.org/1999/xlink">
<g id="graph0" class="graph" transform="scale(1 1) rotate(0) translate(4 35)">
<title>ZOPT220x_Control::setMeasurementRate</title>
<!-- Node1 -->
<g id="node1" class="node">
<title>Node1</title>
<g id="a_node1"><a xlink:title=" ">
<polygon fill="#bfbfbf" stroke="black" points="552,-6 552,-25 770,-25 770,-6 552,-6"/>
<text text-anchor="middle" x="661" y="-13" font-family="Helvetica,sans-Serif" font-size="10.00">ZOPT220x_Control::setMeasurementRate</text>
</a>
</g>
</g>
<!-- Node2 -->
<g id="node2" class="node">
<title>Node2</title>
<g id="a_node2"><a xlink:href="classZOPT220x__Control.html#adc20ce356a572b8039ba96b9160e97c4" target="_top" xlink:title=" ">
<polygon fill="none" stroke="black" points="358,-0.5 358,-30.5 516,-30.5 516,-0.5 358,-0.5"/>
<text text-anchor="start" x="366" y="-18.5" font-family="Helvetica,sans-Serif" font-size="10.00">ZOPT220x_Control::zopt220x</text>
<text text-anchor="middle" x="437" y="-7.5" font-family="Helvetica,sans-Serif" font-size="10.00">SetupWithAddress</text>
</a>
</g>
</g>
<!-- Node1&#45;&gt;Node2 -->
<g id="edge1" class="edge">
<title>Node1&#45;&gt;Node2</title>
<path fill="none" stroke="midnightblue" d="M541.79,-15.5C533.16,-15.5 524.59,-15.5 516.3,-15.5"/>
<polygon fill="midnightblue" stroke="midnightblue" points="541.93,-19 551.93,-15.5 541.93,-12 541.93,-19"/>
</g>
<!-- Node3 -->
<g id="node3" class="node">
<title>Node3</title>
<g id="a_node3"><a xlink:href="classZOPT220x__Control.html#aab772e9154760b2ddbee82953532f08e" target="_top" xlink:title=" ">
<polygon fill="none" stroke="black" points="164,-0.5 164,-30.5 322,-30.5 322,-0.5 164,-0.5"/>
<text text-anchor="start" x="172" y="-18.5" font-family="Helvetica,sans-Serif" font-size="10.00">ZOPT220x_Control::zopt220x</text>
<text text-anchor="middle" x="243" y="-7.5" font-family="Helvetica,sans-Serif" font-size="10.00">Setup</text>
</a>
</g>
</g>
<!-- Node2&#45;&gt;Node3 -->
<g id="edge2" class="edge">
<title>Node2&#45;&gt;Node3</title>
<path fill="none" stroke="midnightblue" d="M347.85,-15.5C339.23,-15.5 330.53,-15.5 322.02,-15.5"/>
<polygon fill="midnightblue" stroke="midnightblue" points="347.91,-19 357.91,-15.5 347.91,-12 347.91,-19"/>
</g>
<!-- Node4 -->
<g id="node4" class="node">
<title>Node4</title>
<g id="a_node4"><a xlink:href="classZOPT220Sensor.html#a5fab507a3cadaab6d6026c3fea36d0e6" target="_top" xlink:title="Verifies the connection to the ZOPT220x sensor.">
<polygon fill="none" stroke="black" points="0,-6 0,-25 128,-25 128,-6 0,-6"/>
<text text-anchor="middle" x="64" y="-13" font-family="Helvetica,sans-Serif" font-size="10.00">ZOPT220Sensor::verify</text>
</a>
</g>
</g>
<!-- Node3&#45;&gt;Node4 -->
<g id="edge3" class="edge">
<title>Node3&#45;&gt;Node4</title>
<path fill="none" stroke="midnightblue" d="M153.73,-15.5C145.09,-15.5 136.45,-15.5 128.13,-15.5"/>
<polygon fill="midnightblue" stroke="midnightblue" points="153.85,-19 163.85,-15.5 153.85,-12 153.85,-19"/>
</g>
</g>
</svg>
