<?xml version="1.0" encoding="UTF-8" standalone="no"?>
<!DOCTYPE svg PUBLIC "-//W3C//DTD SVG 1.1//EN"
 "http://www.w3.org/Graphics/SVG/1.1/DTD/svg11.dtd">
<!-- Generated by graphviz version 2.43.0 (0)
 -->
<!-- Title: DS3231Sensor Pages: 1 -->
<svg width="288pt" height="452pt"
 viewBox="0.00 0.00 288.00 452.00" xmlns="http://www.w3.org/2000/svg" xmlns:xlink="http://www.w3.org/1999/xlink">
<g id="graph0" class="graph" transform="scale(1 1) rotate(0) translate(4 448)">
<title>DS3231Sensor</title>
<!-- Node1 -->
<g id="node1" class="node">
<title>Node1</title>
<g id="a_node1"><a xlink:title=" ">
<polygon fill="#bfbfbf" stroke="black" points="156.5,-0.5 156.5,-101.5 262.5,-101.5 262.5,-0.5 156.5,-0.5"/>
<text text-anchor="middle" x="209.5" y="-89.5" font-family="Helvetica,sans-Serif" font-size="10.00">DS3231Sensor</text>
<polyline fill="none" stroke="black" points="156.5,-82.5 262.5,-82.5 "/>
<text text-anchor="middle" x="209.5" y="-70.5" font-family="Helvetica,sans-Serif" font-size="10.00"> </text>
<polyline fill="none" stroke="black" points="156.5,-63.5 262.5,-63.5 "/>
<text text-anchor="start" x="164.5" y="-51.5" font-family="Helvetica,sans-Serif" font-size="10.00">+ DS3231Sensor()</text>
<text text-anchor="start" x="164.5" y="-40.5" font-family="Helvetica,sans-Serif" font-size="10.00">+ DS3231Sensor()</text>
<text text-anchor="start" x="164.5" y="-29.5" font-family="Helvetica,sans-Serif" font-size="10.00">+ verify()</text>
<text text-anchor="start" x="164.5" y="-18.5" font-family="Helvetica,sans-Serif" font-size="10.00">+ readData()</text>
<text text-anchor="start" x="164.5" y="-7.5" font-family="Helvetica,sans-Serif" font-size="10.00">+ setTime()</text>
</a>
</g>
</g>
<!-- Node2 -->
<g id="node2" class="node">
<title>Node2</title>
<g id="a_node2"><a xlink:href="classSensor.html" target="_top" xlink:title="Parent class for sensor objects.">
<polygon fill="none" stroke="black" points="46,-149.5 46,-327.5 185,-327.5 185,-149.5 46,-149.5"/>
<text text-anchor="middle" x="115.5" y="-315.5" font-family="Helvetica,sans-Serif" font-size="10.00">Sensor</text>
<polyline fill="none" stroke="black" points="46,-308.5 185,-308.5 "/>
<text text-anchor="middle" x="115.5" y="-296.5" font-family="Helvetica,sans-Serif" font-size="10.00"> </text>
<polyline fill="none" stroke="black" points="46,-289.5 185,-289.5 "/>
<text text-anchor="start" x="54" y="-277.5" font-family="Helvetica,sans-Serif" font-size="10.00">+ Sensor()</text>
<text text-anchor="start" x="54" y="-266.5" font-family="Helvetica,sans-Serif" font-size="10.00">+ Sensor()</text>
<text text-anchor="start" x="54" y="-255.5" font-family="Helvetica,sans-Serif" font-size="10.00">+ getPeriod()</text>
<text text-anchor="start" x="54" y="-244.5" font-family="Helvetica,sans-Serif" font-size="10.00">+ setPeriod()</text>
<text text-anchor="start" x="54" y="-233.5" font-family="Helvetica,sans-Serif" font-size="10.00">+ getLastExecution()</text>
<text text-anchor="start" x="54" y="-222.5" font-family="Helvetica,sans-Serif" font-size="10.00">+ setLastExecution()</text>
<text text-anchor="start" x="54" y="-211.5" font-family="Helvetica,sans-Serif" font-size="10.00">+ getSensorName()</text>
<text text-anchor="start" x="54" y="-200.5" font-family="Helvetica,sans-Serif" font-size="10.00">+ getSensorCSVHeader()</text>
<text text-anchor="start" x="54" y="-189.5" font-family="Helvetica,sans-Serif" font-size="10.00">+ verify()</text>
<text text-anchor="start" x="54" y="-178.5" font-family="Helvetica,sans-Serif" font-size="10.00">+ readData()</text>
<text text-anchor="start" x="54" y="-167.5" font-family="Helvetica,sans-Serif" font-size="10.00">+ readEmpty()</text>
<text text-anchor="start" x="54" y="-156.5" font-family="Helvetica,sans-Serif" font-size="10.00">+ getDataCSV()</text>
</a>
</g>
</g>
<!-- Node2&#45;&gt;Node1 -->
<g id="edge1" class="edge">
<title>Node2&#45;&gt;Node1</title>
<path fill="none" stroke="midnightblue" d="M164.85,-140.11C171.63,-126.74 178.34,-113.5 184.41,-101.5"/>
<polygon fill="none" stroke="midnightblue" points="161.56,-138.87 160.16,-149.37 167.8,-142.03 161.56,-138.87"/>
</g>
<!-- Node3 -->
<g id="node3" class="node">
<title>Node3</title>
<g id="a_node3"><a xlink:title=" ">
<polygon fill="none" stroke="#bfbfbf" points="0,-386.5 0,-443.5 45,-443.5 45,-386.5 0,-386.5"/>
<text text-anchor="middle" x="22.5" y="-431.5" font-family="Helvetica,sans-Serif" font-size="10.00">String</text>
<polyline fill="none" stroke="#bfbfbf" points="0,-424.5 45,-424.5 "/>
<text text-anchor="middle" x="22.5" y="-412.5" font-family="Helvetica,sans-Serif" font-size="10.00"> </text>
<polyline fill="none" stroke="#bfbfbf" points="0,-405.5 45,-405.5 "/>
<text text-anchor="middle" x="22.5" y="-393.5" font-family="Helvetica,sans-Serif" font-size="10.00"> </text>
</a>
</g>
</g>
<!-- Node3&#45;&gt;Node2 -->
<g id="edge2" class="edge">
<title>Node3&#45;&gt;Node2</title>
<path fill="none" stroke="#404040" d="M27.98,-386.45C31.05,-373.77 35.5,-358.75 41.5,-346 42.71,-343.42 43.99,-340.84 45.31,-338.26"/>
<polygon fill="none" stroke="#404040" points="45.33,-338.22 44.66,-331.04 51.04,-327.67 51.7,-334.85 45.33,-338.22"/>
<text text-anchor="middle" x="76.5" y="-360" font-family="Helvetica,sans-Serif" font-size="10.00"> &#45;csv_header</text>
<text text-anchor="middle" x="76.5" y="-349" font-family="Helvetica,sans-Serif" font-size="10.00">&#45;sensor_name</text>
</g>
<!-- Node4 -->
<g id="node4" class="node">
<title>Node4</title>
<g id="a_node4"><a xlink:title=" ">
<polygon fill="none" stroke="#bfbfbf" points="73,-386.5 73,-443.5 158,-443.5 158,-386.5 73,-386.5"/>
<text text-anchor="middle" x="115.5" y="-431.5" font-family="Helvetica,sans-Serif" font-size="10.00">unsigned long</text>
<polyline fill="none" stroke="#bfbfbf" points="73,-424.5 158,-424.5 "/>
<text text-anchor="middle" x="115.5" y="-412.5" font-family="Helvetica,sans-Serif" font-size="10.00"> </text>
<polyline fill="none" stroke="#bfbfbf" points="73,-405.5 158,-405.5 "/>
<text text-anchor="middle" x="115.5" y="-393.5" font-family="Helvetica,sans-Serif" font-size="10.00"> </text>
</a>
</g>
</g>
<!-- Node4&#45;&gt;Node2 -->
<g id="edge3" class="edge">
<title>Node4&#45;&gt;Node2</title>
<path fill="none" stroke="#404040" d="M115.5,-386.35C115.5,-373.44 115.5,-357.18 115.5,-340.24"/>
<polygon fill="none" stroke="#404040" points="115.5,-339.81 111.5,-333.81 115.5,-327.81 119.5,-333.81 115.5,-339.81"/>
<text text-anchor="middle" x="159.5" y="-360" font-family="Helvetica,sans-Serif" font-size="10.00"> &#45;last_execution</text>
<text text-anchor="middle" x="159.5" y="-349" font-family="Helvetica,sans-Serif" font-size="10.00">&#45;minimum_period</text>
</g>
<!-- Node5 -->
<g id="node5" class="node">
<title>Node5</title>
<g id="a_node5"><a xlink:title=" ">
<polygon fill="none" stroke="#bfbfbf" points="212,-386.5 212,-443.5 241,-443.5 241,-386.5 212,-386.5"/>
<text text-anchor="middle" x="226.5" y="-431.5" font-family="Helvetica,sans-Serif" font-size="10.00">int</text>
<polyline fill="none" stroke="#bfbfbf" points="212,-424.5 241,-424.5 "/>
<text text-anchor="middle" x="226.5" y="-412.5" font-family="Helvetica,sans-Serif" font-size="10.00"> </text>
<polyline fill="none" stroke="#bfbfbf" points="212,-405.5 241,-405.5 "/>
<text text-anchor="middle" x="226.5" y="-393.5" font-family="Helvetica,sans-Serif" font-size="10.00"> </text>
</a>
</g>
</g>
<!-- Node5&#45;&gt;Node2 -->
<g id="edge4" class="edge">
<title>Node5&#45;&gt;Node2</title>
<path fill="none" stroke="#404040" d="M220.11,-386.21C216.54,-373.48 211.4,-358.49 204.5,-346 200.83,-339.36 196.72,-332.73 192.32,-326.23"/>
<polygon fill="none" stroke="#404040" points="192.12,-325.94 185.39,-323.33 185.21,-316.12 191.94,-318.73 192.12,-325.94"/>
<text text-anchor="middle" x="230.5" y="-354.5" font-family="Helvetica,sans-Serif" font-size="10.00"> &#45;fields</text>
</g>
<!-- Node6 -->
<g id="node6" class="node">
<title>Node6</title>
<g id="a_node6"><a xlink:title=" ">
<polygon fill="none" stroke="#bfbfbf" points="203,-210 203,-267 280,-267 280,-210 203,-210"/>
<text text-anchor="middle" x="241.5" y="-255" font-family="Helvetica,sans-Serif" font-size="10.00">RTC_DS3231</text>
<polyline fill="none" stroke="#bfbfbf" points="203,-248 280,-248 "/>
<text text-anchor="middle" x="241.5" y="-236" font-family="Helvetica,sans-Serif" font-size="10.00"> </text>
<polyline fill="none" stroke="#bfbfbf" points="203,-229 280,-229 "/>
<text text-anchor="middle" x="241.5" y="-217" font-family="Helvetica,sans-Serif" font-size="10.00"> </text>
</a>
</g>
</g>
<!-- Node6&#45;&gt;Node1 -->
<g id="edge5" class="edge">
<title>Node6&#45;&gt;Node1</title>
<path fill="none" stroke="#404040" d="M236.71,-209.73C232.35,-184.46 225.76,-146.25 220.15,-113.77"/>
<polygon fill="none" stroke="#404040" points="220.1,-113.46 215.14,-108.23 218.06,-101.64 223.02,-106.87 220.1,-113.46"/>
<text text-anchor="middle" x="232.5" y="-123" font-family="Helvetica,sans-Serif" font-size="10.00"> &#45;rtc</text>
</g>
</g>
</svg>
