<?xml version="1.0" encoding="UTF-8" standalone="no"?>
<!DOCTYPE svg PUBLIC "-//W3C//DTD SVG 1.1//EN"
 "http://www.w3.org/Graphics/SVG/1.1/DTD/svg11.dtd">
<!-- Generated by graphviz version 2.43.0 (0)
 -->
<!-- Title: ENS160Sensor.cpp Pages: 1 -->
<svg width="264pt" height="196pt"
 viewBox="0.00 0.00 263.50 196.00" xmlns="http://www.w3.org/2000/svg" xmlns:xlink="http://www.w3.org/1999/xlink">
<g id="graph0" class="graph" transform="scale(1 1) rotate(0) translate(4 192)">
<title>ENS160Sensor.cpp</title>
<!-- Node1 -->
<g id="node1" class="node">
<title>Node1</title>
<g id="a_node1"><a xlink:title=" ">
<polygon fill="#bfbfbf" stroke="black" points="41.5,-168.5 41.5,-187.5 148.5,-187.5 148.5,-168.5 41.5,-168.5"/>
<text text-anchor="middle" x="95" y="-175.5" font-family="Helvetica,sans-Serif" font-size="10.00">ENS160Sensor.cpp</text>
</a>
</g>
</g>
<!-- Node2 -->
<g id="node2" class="node">
<title>Node2</title>
<g id="a_node2"><a xlink:href="ENS160Sensor_8h.html" target="_top" xlink:title=" ">
<polygon fill="none" stroke="black" points="47.5,-112.5 47.5,-131.5 142.5,-131.5 142.5,-112.5 47.5,-112.5"/>
<text text-anchor="middle" x="95" y="-119.5" font-family="Helvetica,sans-Serif" font-size="10.00">ENS160Sensor.h</text>
</a>
</g>
</g>
<!-- Node1&#45;&gt;Node2 -->
<g id="edge1" class="edge">
<title>Node1&#45;&gt;Node2</title>
<path fill="none" stroke="midnightblue" d="M95,-168.08C95,-161.01 95,-150.86 95,-141.99"/>
<polygon fill="midnightblue" stroke="midnightblue" points="98.5,-141.75 95,-131.75 91.5,-141.75 98.5,-141.75"/>
</g>
<!-- Node3 -->
<g id="node3" class="node">
<title>Node3</title>
<g id="a_node3"><a xlink:title=" ">
<polygon fill="none" stroke="#bfbfbf" points="0,-56.5 0,-75.5 48,-75.5 48,-56.5 0,-56.5"/>
<text text-anchor="middle" x="24" y="-63.5" font-family="Helvetica,sans-Serif" font-size="10.00">Wire.h</text>
</a>
</g>
</g>
<!-- Node2&#45;&gt;Node3 -->
<g id="edge2" class="edge">
<title>Node2&#45;&gt;Node3</title>
<path fill="none" stroke="midnightblue" d="M83.59,-112.32C72.89,-104.18 56.66,-91.84 43.84,-82.09"/>
<polygon fill="midnightblue" stroke="midnightblue" points="45.69,-79.1 35.61,-75.83 41.46,-84.67 45.69,-79.1"/>
</g>
<!-- Node4 -->
<g id="node4" class="node">
<title>Node4</title>
<g id="a_node4"><a xlink:href="Sensor_8h.html" target="_top" xlink:title=" ">
<polygon fill="none" stroke="black" points="66,-56.5 66,-75.5 124,-75.5 124,-56.5 66,-56.5"/>
<text text-anchor="middle" x="95" y="-63.5" font-family="Helvetica,sans-Serif" font-size="10.00">Sensor.h</text>
</a>
</g>
</g>
<!-- Node2&#45;&gt;Node4 -->
<g id="edge3" class="edge">
<title>Node2&#45;&gt;Node4</title>
<path fill="none" stroke="midnightblue" d="M95,-112.08C95,-105.01 95,-94.86 95,-85.99"/>
<polygon fill="midnightblue" stroke="midnightblue" points="98.5,-85.75 95,-75.75 91.5,-85.75 98.5,-85.75"/>
</g>
<!-- Node6 -->
<g id="node6" class="node">
<title>Node6</title>
<g id="a_node6"><a xlink:title=" ">
<polygon fill="none" stroke="#bfbfbf" points="142.5,-56.5 142.5,-75.5 255.5,-75.5 255.5,-56.5 142.5,-56.5"/>
<text text-anchor="middle" x="199" y="-63.5" font-family="Helvetica,sans-Serif" font-size="10.00">SparkFun_ENS160.h</text>
</a>
</g>
</g>
<!-- Node2&#45;&gt;Node6 -->
<g id="edge5" class="edge">
<title>Node2&#45;&gt;Node6</title>
<path fill="none" stroke="midnightblue" d="M111.71,-112.32C128.31,-103.7 154,-90.36 173.22,-80.39"/>
<polygon fill="midnightblue" stroke="midnightblue" points="175.07,-83.37 182.33,-75.65 171.84,-77.16 175.07,-83.37"/>
</g>
<!-- Node5 -->
<g id="node5" class="node">
<title>Node5</title>
<g id="a_node5"><a xlink:title=" ">
<polygon fill="none" stroke="#bfbfbf" points="63.5,-0.5 63.5,-19.5 126.5,-19.5 126.5,-0.5 63.5,-0.5"/>
<text text-anchor="middle" x="95" y="-7.5" font-family="Helvetica,sans-Serif" font-size="10.00">Arduino.h</text>
</a>
</g>
</g>
<!-- Node4&#45;&gt;Node5 -->
<g id="edge4" class="edge">
<title>Node4&#45;&gt;Node5</title>
<path fill="none" stroke="midnightblue" d="M95,-56.08C95,-49.01 95,-38.86 95,-29.99"/>
<polygon fill="midnightblue" stroke="midnightblue" points="98.5,-29.75 95,-19.75 91.5,-29.75 98.5,-29.75"/>
</g>
</g>
</svg>
