<?xml version="1.0" encoding="UTF-8" standalone="no"?>
<!DOCTYPE svg PUBLIC "-//W3C//DTD SVG 1.1//EN"
 "http://www.w3.org/Graphics/SVG/1.1/DTD/svg11.dtd">
<!-- Generated by graphviz version 2.43.0 (0)
 -->
<!-- Title: FlashStorage.cpp Pages: 1 -->
<svg width="411pt" height="196pt"
 viewBox="0.00 0.00 411.00 196.00" xmlns="http://www.w3.org/2000/svg" xmlns:xlink="http://www.w3.org/1999/xlink">
<g id="graph0" class="graph" transform="scale(1 1) rotate(0) translate(4 192)">
<title>FlashStorage.cpp</title>
<!-- Node1 -->
<g id="node1" class="node">
<title>Node1</title>
<g id="a_node1"><a xlink:title=" ">
<polygon fill="#bfbfbf" stroke="black" points="126,-168.5 126,-187.5 227,-187.5 227,-168.5 126,-168.5"/>
<text text-anchor="middle" x="176.5" y="-175.5" font-family="Helvetica,sans-Serif" font-size="10.00">FlashStorage.cpp</text>
</a>
</g>
</g>
<!-- Node2 -->
<g id="node2" class="node">
<title>Node2</title>
<g id="a_node2"><a xlink:href="FlashStorage_8h.html" target="_top" xlink:title=" ">
<polygon fill="none" stroke="black" points="132,-112.5 132,-131.5 221,-131.5 221,-112.5 132,-112.5"/>
<text text-anchor="middle" x="176.5" y="-119.5" font-family="Helvetica,sans-Serif" font-size="10.00">FlashStorage.h</text>
</a>
</g>
</g>
<!-- Node1&#45;&gt;Node2 -->
<g id="edge1" class="edge">
<title>Node1&#45;&gt;Node2</title>
<path fill="none" stroke="midnightblue" d="M176.5,-168.08C176.5,-161.01 176.5,-150.86 176.5,-141.99"/>
<polygon fill="midnightblue" stroke="midnightblue" points="180,-141.75 176.5,-131.75 173,-141.75 180,-141.75"/>
</g>
<!-- Node3 -->
<g id="node3" class="node">
<title>Node3</title>
<g id="a_node3"><a xlink:title=" ">
<polygon fill="none" stroke="#bfbfbf" points="0,-56.5 0,-75.5 41,-75.5 41,-56.5 0,-56.5"/>
<text text-anchor="middle" x="20.5" y="-63.5" font-family="Helvetica,sans-Serif" font-size="10.00">SPI.h</text>
</a>
</g>
</g>
<!-- Node2&#45;&gt;Node3 -->
<g id="edge2" class="edge">
<title>Node2&#45;&gt;Node3</title>
<path fill="none" stroke="midnightblue" d="M151.78,-112.44C124.42,-102.97 80.31,-87.7 50.87,-77.51"/>
<polygon fill="midnightblue" stroke="midnightblue" points="51.71,-74.1 41.12,-74.14 49.42,-80.72 51.71,-74.1"/>
</g>
<!-- Node4 -->
<g id="node4" class="node">
<title>Node4</title>
<g id="a_node4"><a xlink:href="PayloadConfig_8h.html" target="_top" xlink:title=" ">
<polygon fill="none" stroke="black" points="59,-56.5 59,-75.5 154,-75.5 154,-56.5 59,-56.5"/>
<text text-anchor="middle" x="106.5" y="-63.5" font-family="Helvetica,sans-Serif" font-size="10.00">PayloadConfig.h</text>
</a>
</g>
</g>
<!-- Node2&#45;&gt;Node4 -->
<g id="edge3" class="edge">
<title>Node2&#45;&gt;Node4</title>
<path fill="none" stroke="midnightblue" d="M165.25,-112.32C154.7,-104.18 138.7,-91.84 126.06,-82.09"/>
<polygon fill="midnightblue" stroke="midnightblue" points="128.01,-79.17 117.95,-75.83 123.73,-84.71 128.01,-79.17"/>
</g>
<!-- Node5 -->
<g id="node5" class="node">
<title>Node5</title>
<g id="a_node5"><a xlink:title=" ">
<polygon fill="none" stroke="#bfbfbf" points="172.5,-56.5 172.5,-75.5 322.5,-75.5 322.5,-56.5 172.5,-56.5"/>
<text text-anchor="middle" x="247.5" y="-63.5" font-family="Helvetica,sans-Serif" font-size="10.00">SparkFun_SPI_SerialFlash.h</text>
</a>
</g>
</g>
<!-- Node2&#45;&gt;Node5 -->
<g id="edge4" class="edge">
<title>Node2&#45;&gt;Node5</title>
<path fill="none" stroke="midnightblue" d="M187.91,-112.32C198.61,-104.18 214.84,-91.84 227.66,-82.09"/>
<polygon fill="midnightblue" stroke="midnightblue" points="230.04,-84.67 235.89,-75.83 225.81,-79.1 230.04,-84.67"/>
</g>
<!-- Node6 -->
<g id="node6" class="node">
<title>Node6</title>
<g id="a_node6"><a xlink:href="Storage_8h.html" target="_top" xlink:title=" ">
<polygon fill="none" stroke="black" points="340,-56.5 340,-75.5 403,-75.5 403,-56.5 340,-56.5"/>
<text text-anchor="middle" x="371.5" y="-63.5" font-family="Helvetica,sans-Serif" font-size="10.00">Storage.h</text>
</a>
</g>
</g>
<!-- Node2&#45;&gt;Node6 -->
<g id="edge5" class="edge">
<title>Node2&#45;&gt;Node6</title>
<path fill="none" stroke="midnightblue" d="M207.4,-112.44C240.77,-103.2 294.09,-88.44 330.85,-78.26"/>
<polygon fill="midnightblue" stroke="midnightblue" points="332.04,-81.56 340.75,-75.52 330.17,-74.81 332.04,-81.56"/>
</g>
<!-- Node7 -->
<g id="node7" class="node">
<title>Node7</title>
<g id="a_node7"><a xlink:title=" ">
<polygon fill="none" stroke="#bfbfbf" points="340,-0.5 340,-19.5 403,-19.5 403,-0.5 340,-0.5"/>
<text text-anchor="middle" x="371.5" y="-7.5" font-family="Helvetica,sans-Serif" font-size="10.00">Arduino.h</text>
</a>
</g>
</g>
<!-- Node6&#45;&gt;Node7 -->
<g id="edge6" class="edge">
<title>Node6&#45;&gt;Node7</title>
<path fill="none" stroke="midnightblue" d="M371.5,-56.08C371.5,-49.01 371.5,-38.86 371.5,-29.99"/>
<polygon fill="midnightblue" stroke="midnightblue" points="375,-29.75 371.5,-19.75 368,-29.75 375,-29.75"/>
</g>
</g>
</svg>
