<?xml version="1.0" encoding="UTF-8" standalone="no"?>
<!DOCTYPE svg PUBLIC "-//W3C//DTD SVG 1.1//EN"
 "http://www.w3.org/Graphics/SVG/1.1/DTD/svg11.dtd">
<!-- Generated by graphviz version 2.43.0 (0)
 -->
<!-- Title: GeigerSensor.h Pages: 1 -->
<svg width="111pt" height="140pt"
 viewBox="0.00 0.00 111.00 140.00" xmlns="http://www.w3.org/2000/svg" xmlns:xlink="http://www.w3.org/1999/xlink">
<g id="graph0" class="graph" transform="scale(1 1) rotate(0) translate(4 136)">
<title>GeigerSensor.h</title>
<!-- Node1 -->
<g id="node1" class="node">
<title>Node1</title>
<g id="a_node1"><a xlink:title=" ">
<polygon fill="#bfbfbf" stroke="black" points="0,-112.5 0,-131.5 90,-131.5 90,-112.5 0,-112.5"/>
<text text-anchor="middle" x="45" y="-119.5" font-family="Helvetica,sans-Serif" font-size="10.00">GeigerSensor.h</text>
</a>
</g>
</g>
<!-- Node2 -->
<g id="node2" class="node">
<title>Node2</title>
<g id="a_node2"><a xlink:title=" ">
<polygon fill="none" stroke="#bfbfbf" points="13.5,-0.5 13.5,-19.5 76.5,-19.5 76.5,-0.5 13.5,-0.5"/>
<text text-anchor="middle" x="45" y="-7.5" font-family="Helvetica,sans-Serif" font-size="10.00">Arduino.h</text>
</a>
</g>
</g>
<!-- Node1&#45;&gt;Node2 -->
<g id="edge1" class="edge">
<title>Node1&#45;&gt;Node2</title>
<path fill="none" stroke="midnightblue" d="M42.45,-112.19C39.13,-99.72 34,-76.18 36,-56 36.87,-47.17 38.69,-37.51 40.47,-29.4"/>
<polygon fill="midnightblue" stroke="midnightblue" points="43.9,-30.08 42.77,-19.55 37.08,-28.49 43.9,-30.08"/>
</g>
<!-- Node3 -->
<g id="node3" class="node">
<title>Node3</title>
<g id="a_node3"><a xlink:href="Sensor_8h.html" target="_top" xlink:title=" ">
<polygon fill="none" stroke="black" points="45,-56.5 45,-75.5 103,-75.5 103,-56.5 45,-56.5"/>
<text text-anchor="middle" x="74" y="-63.5" font-family="Helvetica,sans-Serif" font-size="10.00">Sensor.h</text>
</a>
</g>
</g>
<!-- Node1&#45;&gt;Node3 -->
<g id="edge2" class="edge">
<title>Node1&#45;&gt;Node3</title>
<path fill="none" stroke="midnightblue" d="M49.79,-112.08C53.76,-104.69 59.53,-93.95 64.43,-84.81"/>
<polygon fill="midnightblue" stroke="midnightblue" points="67.65,-86.22 69.3,-75.75 61.49,-82.91 67.65,-86.22"/>
</g>
<!-- Node3&#45;&gt;Node2 -->
<g id="edge3" class="edge">
<title>Node3&#45;&gt;Node2</title>
<path fill="none" stroke="midnightblue" d="M69.21,-56.08C65.24,-48.69 59.47,-37.95 54.57,-28.81"/>
<polygon fill="midnightblue" stroke="midnightblue" points="57.51,-26.91 49.7,-19.75 51.35,-30.22 57.51,-26.91"/>
</g>
</g>
</svg>
