<?xml version="1.0" encoding="UTF-8" standalone="no"?>
<!DOCTYPE svg PUBLIC "-//W3C//DTD SVG 1.1//EN"
 "http://www.w3.org/Graphics/SVG/1.1/DTD/svg11.dtd">
<!-- Generated by graphviz version 2.43.0 (0)
 -->
<!-- Title: /home/runner/work/Fall&#45;2024/Fall&#45;2024/ascendfsw/include/GeigerSensor.h Pages: 1 -->
<svg width="154pt" height="162pt"
 viewBox="0.00 0.00 154.00 162.00" xmlns="http://www.w3.org/2000/svg" xmlns:xlink="http://www.w3.org/1999/xlink">
<g id="graph0" class="graph" transform="scale(1 1) rotate(0) translate(4 158)">
<title>/home/runner/work/Fall&#45;2024/Fall&#45;2024/ascendfsw/include/GeigerSensor.h</title>
<!-- Node1 -->
<g id="node1" class="node">
<title>Node1</title>
<g id="a_node1"><a xlink:title=" ">
<polygon fill="#bfbfbf" stroke="black" points="0,-112.5 0,-153.5 146,-153.5 146,-112.5 0,-112.5"/>
<text text-anchor="start" x="8" y="-141.5" font-family="Helvetica,sans-Serif" font-size="10.00">/home/runner/work/Fall</text>
<text text-anchor="start" x="8" y="-130.5" font-family="Helvetica,sans-Serif" font-size="10.00">&#45;2024/Fall&#45;2024/ascendfsw</text>
<text text-anchor="middle" x="73" y="-119.5" font-family="Helvetica,sans-Serif" font-size="10.00">/include/GeigerSensor.h</text>
</a>
</g>
</g>
<!-- Node2 -->
<g id="node2" class="node">
<title>Node2</title>
<g id="a_node2"><a xlink:title=" ">
<polygon fill="none" stroke="#bfbfbf" points="41.5,-0.5 41.5,-19.5 104.5,-19.5 104.5,-0.5 41.5,-0.5"/>
<text text-anchor="middle" x="73" y="-7.5" font-family="Helvetica,sans-Serif" font-size="10.00">Arduino.h</text>
</a>
</g>
</g>
<!-- Node1&#45;&gt;Node2 -->
<g id="edge1" class="edge">
<title>Node1&#45;&gt;Node2</title>
<path fill="none" stroke="midnightblue" d="M68.32,-112.34C65.24,-97.01 62.1,-75.17 64,-56 64.87,-47.17 66.69,-37.51 68.47,-29.4"/>
<polygon fill="midnightblue" stroke="midnightblue" points="71.9,-30.08 70.77,-19.55 65.08,-28.49 71.9,-30.08"/>
</g>
<!-- Node3 -->
<g id="node3" class="node">
<title>Node3</title>
<g id="a_node3"><a xlink:href="Sensor_8h.html" target="_top" xlink:title=" ">
<polygon fill="none" stroke="black" points="73,-56.5 73,-75.5 131,-75.5 131,-56.5 73,-56.5"/>
<text text-anchor="middle" x="102" y="-63.5" font-family="Helvetica,sans-Serif" font-size="10.00">Sensor.h</text>
</a>
</g>
</g>
<!-- Node1&#45;&gt;Node3 -->
<g id="edge2" class="edge">
<title>Node1&#45;&gt;Node3</title>
<path fill="none" stroke="midnightblue" d="M81.7,-112.5C85.59,-103.78 90.15,-93.56 93.96,-85.02"/>
<polygon fill="midnightblue" stroke="midnightblue" points="97.26,-86.21 98.14,-75.65 90.87,-83.36 97.26,-86.21"/>
</g>
<!-- Node3&#45;&gt;Node2 -->
<g id="edge3" class="edge">
<title>Node3&#45;&gt;Node2</title>
<path fill="none" stroke="midnightblue" d="M97.21,-56.08C93.24,-48.69 87.47,-37.95 82.57,-28.81"/>
<polygon fill="midnightblue" stroke="midnightblue" points="85.51,-26.91 77.7,-19.75 79.35,-30.22 85.51,-26.91"/>
</g>
</g>
</svg>
