<?xml version="1.0" encoding="UTF-8" standalone="no"?>
<!DOCTYPE svg PUBLIC "-//W3C//DTD SVG 1.1//EN"
 "http://www.w3.org/Graphics/SVG/1.1/DTD/svg11.dtd">
<!-- Generated by graphviz version 2.43.0 (0)
 -->
<!-- Title: ICM20948Sensor.h Pages: 1 -->
<svg width="636pt" height="137pt"
 viewBox="0.00 0.00 636.00 137.00" xmlns="http://www.w3.org/2000/svg" xmlns:xlink="http://www.w3.org/1999/xlink">
<g id="graph0" class="graph" transform="scale(1 1) rotate(0) translate(4 133)">
<title>ICM20948Sensor.h</title>
<!-- Node1 -->
<g id="Node000001" class="node">
<title>Node1</title>
<g id="a_Node000001"><a xlink:title=" ">
<polygon fill="#999999" stroke="#666666" points="415,-129 308,-129 308,-110 415,-110 415,-129"/>
<text text-anchor="middle" x="361.5" y="-117" font-family="Helvetica,sans-Serif" font-size="10.00">ICM20948Sensor.h</text>
</a>
</g>
</g>
<!-- Node2 -->
<g id="Node000002" class="node">
<title>Node2</title>
<g id="a_Node000002"><a xlink:title=" ">
<polygon fill="#e0e0e0" stroke="#999999" points="119,-74 0,-74 0,-55 119,-55 119,-74"/>
<text text-anchor="middle" x="59.5" y="-62" font-family="Helvetica,sans-Serif" font-size="10.00">Adafruit_ICM20948.h</text>
</a>
</g>
</g>
<!-- Node1&#45;&gt;Node2 -->
<g id="edge1_Node000001_Node000002" class="edge">
<title>Node1&#45;&gt;Node2</title>
<g id="a_edge1_Node000001_Node000002"><a xlink:title=" ">
<path fill="none" stroke="#63b8ff" d="M312.98,-109.98C259.89,-100.67 174.81,-85.74 118.06,-75.78"/>
<polygon fill="#63b8ff" stroke="#63b8ff" points="118.61,-72.32 108.15,-74.04 117.4,-79.21 118.61,-72.32"/>
</a>
</g>
</g>
<!-- Node3 -->
<g id="Node000003" class="node">
<title>Node3</title>
<g id="a_Node000003"><a xlink:title=" ">
<polygon fill="#e0e0e0" stroke="#999999" points="244,-74 137,-74 137,-55 244,-55 244,-74"/>
<text text-anchor="middle" x="190.5" y="-62" font-family="Helvetica,sans-Serif" font-size="10.00">Adafruit_ICM20X.h</text>
</a>
</g>
</g>
<!-- Node1&#45;&gt;Node3 -->
<g id="edge2_Node000001_Node000003" class="edge">
<title>Node1&#45;&gt;Node3</title>
<g id="a_edge2_Node000001_Node000003"><a xlink:title=" ">
<path fill="none" stroke="#63b8ff" d="M334.03,-109.98C305.32,-101.09 260.08,-87.07 228.08,-77.15"/>
<polygon fill="#63b8ff" stroke="#63b8ff" points="228.78,-73.7 218.19,-74.08 226.7,-80.39 228.78,-73.7"/>
</a>
</g>
</g>
<!-- Node4 -->
<g id="Node000004" class="node">
<title>Node4</title>
<g id="a_Node000004"><a xlink:title=" ">
<polygon fill="#e0e0e0" stroke="#999999" points="364.5,-74 262.5,-74 262.5,-55 364.5,-55 364.5,-74"/>
<text text-anchor="middle" x="313.5" y="-62" font-family="Helvetica,sans-Serif" font-size="10.00">Adafruit_Sensor.h</text>
</a>
</g>
</g>
<!-- Node1&#45;&gt;Node4 -->
<g id="edge3_Node000001_Node000004" class="edge">
<title>Node1&#45;&gt;Node4</title>
<g id="a_edge3_Node000001_Node000004"><a xlink:title=" ">
<path fill="none" stroke="#63b8ff" d="M353.57,-109.75C346.65,-102.11 336.43,-90.82 328.05,-81.56"/>
<polygon fill="#63b8ff" stroke="#63b8ff" points="330.59,-79.15 321.28,-74.09 325.4,-83.85 330.59,-79.15"/>
</a>
</g>
</g>
<!-- Node5 -->
<g id="Node000005" class="node">
<title>Node5</title>
<g id="a_Node000005"><a xlink:title=" ">
<polygon fill="#e0e0e0" stroke="#999999" points="436,-74 383,-74 383,-55 436,-55 436,-74"/>
<text text-anchor="middle" x="409.5" y="-62" font-family="Helvetica,sans-Serif" font-size="10.00">string.h</text>
</a>
</g>
</g>
<!-- Node1&#45;&gt;Node5 -->
<g id="edge4_Node000001_Node000005" class="edge">
<title>Node1&#45;&gt;Node5</title>
<g id="a_edge4_Node000001_Node000005"><a xlink:title=" ">
<path fill="none" stroke="#63b8ff" d="M369.43,-109.75C376.35,-102.11 386.57,-90.82 394.95,-81.56"/>
<polygon fill="#63b8ff" stroke="#63b8ff" points="397.6,-83.85 401.72,-74.09 392.41,-79.15 397.6,-83.85"/>
</a>
</g>
</g>
<!-- Node6 -->
<g id="Node000006" class="node">
<title>Node6</title>
<g id="a_Node000006"><a xlink:href="PayloadConfig_8h.html" target="_top" xlink:title=" ">
<polygon fill="white" stroke="#666666" points="549,-74 454,-74 454,-55 549,-55 549,-74"/>
<text text-anchor="middle" x="501.5" y="-62" font-family="Helvetica,sans-Serif" font-size="10.00">PayloadConfig.h</text>
</a>
</g>
</g>
<!-- Node1&#45;&gt;Node6 -->
<g id="edge5_Node000001_Node000006" class="edge">
<title>Node1&#45;&gt;Node6</title>
<g id="a_edge5_Node000001_Node000006"><a xlink:title=" ">
<path fill="none" stroke="#63b8ff" d="M383.99,-109.98C407.02,-101.27 443.04,-87.63 469.13,-77.75"/>
<polygon fill="#63b8ff" stroke="#63b8ff" points="470.48,-80.98 478.6,-74.17 468.01,-74.44 470.48,-80.98"/>
</a>
</g>
</g>
<!-- Node7 -->
<g id="Node000007" class="node">
<title>Node7</title>
<g id="a_Node000007"><a xlink:href="Sensor_8h.html" target="_top" xlink:title=" ">
<polygon fill="white" stroke="#666666" points="625.5,-74 567.5,-74 567.5,-55 625.5,-55 625.5,-74"/>
<text text-anchor="middle" x="596.5" y="-62" font-family="Helvetica,sans-Serif" font-size="10.00">Sensor.h</text>
</a>
</g>
</g>
<!-- Node1&#45;&gt;Node7 -->
<g id="edge6_Node000001_Node000007" class="edge">
<title>Node1&#45;&gt;Node7</title>
<g id="a_edge6_Node000001_Node000007"><a xlink:title=" ">
<path fill="none" stroke="#63b8ff" d="M399.26,-109.98C442.62,-100.21 513.41,-84.24 557.35,-74.33"/>
<polygon fill="#63b8ff" stroke="#63b8ff" points="558.39,-77.68 567.37,-72.07 556.85,-70.85 558.39,-77.68"/>
</a>
</g>
</g>
<!-- Node8 -->
<g id="Node000008" class="node">
<title>Node8</title>
<g id="a_Node000008"><a xlink:title=" ">
<polygon fill="#e0e0e0" stroke="#999999" points="628,-19 565,-19 565,0 628,0 628,-19"/>
<text text-anchor="middle" x="596.5" y="-7" font-family="Helvetica,sans-Serif" font-size="10.00">Arduino.h</text>
</a>
</g>
</g>
<!-- Node7&#45;&gt;Node8 -->
<g id="edge7_Node000007_Node000008" class="edge">
<title>Node7&#45;&gt;Node8</title>
<g id="a_edge7_Node000007_Node000008"><a xlink:title=" ">
<path fill="none" stroke="#63b8ff" d="M596.5,-54.75C596.5,-47.8 596.5,-37.85 596.5,-29.13"/>
<polygon fill="#63b8ff" stroke="#63b8ff" points="600,-29.09 596.5,-19.09 593,-29.09 600,-29.09"/>
</a>
</g>
</g>
</g>
</svg>
