<?xml version="1.0" encoding="UTF-8" standalone="no"?>
<!DOCTYPE svg PUBLIC "-//W3C//DTD SVG 1.1//EN"
 "http://www.w3.org/Graphics/SVG/1.1/DTD/svg11.dtd">
<!-- Generated by graphviz version 2.43.0 (0)
 -->
<!-- Title: /home/runner/work/Fall&#45;2024/Fall&#45;2024/ascendfsw/include/INA260Sensor.h Pages: 1 -->
<svg width="275pt" height="162pt"
 viewBox="0.00 0.00 274.62 162.00" xmlns="http://www.w3.org/2000/svg" xmlns:xlink="http://www.w3.org/1999/xlink">
<g id="graph0" class="graph" transform="scale(1 1) rotate(0) translate(4 158)">
<title>/home/runner/work/Fall&#45;2024/Fall&#45;2024/ascendfsw/include/INA260Sensor.h</title>
<!-- Node1 -->
<g id="node1" class="node">
<title>Node1</title>
<g id="a_node1"><a xlink:title=" ">
<polygon fill="#bfbfbf" stroke="black" points="15.62,-112.5 15.62,-153.5 161.62,-153.5 161.62,-112.5 15.62,-112.5"/>
<text text-anchor="start" x="23.62" y="-141.5" font-family="Helvetica,sans-Serif" font-size="10.00">/home/runner/work/Fall</text>
<text text-anchor="start" x="23.62" y="-130.5" font-family="Helvetica,sans-Serif" font-size="10.00">&#45;2024/Fall&#45;2024/ascendfsw</text>
<text text-anchor="middle" x="88.62" y="-119.5" font-family="Helvetica,sans-Serif" font-size="10.00">/include/INA260Sensor.h</text>
</a>
</g>
</g>
<!-- Node2 -->
<g id="node2" class="node">
<title>Node2</title>
<g id="a_node2"><a xlink:title=" ">
<polygon fill="none" stroke="#bfbfbf" points="80.12,-0.5 80.12,-19.5 143.12,-19.5 143.12,-0.5 80.12,-0.5"/>
<text text-anchor="middle" x="111.62" y="-7.5" font-family="Helvetica,sans-Serif" font-size="10.00">Arduino.h</text>
</a>
</g>
</g>
<!-- Node1&#45;&gt;Node2 -->
<g id="edge1" class="edge">
<title>Node1&#45;&gt;Node2</title>
<path fill="none" stroke="midnightblue" d="M41.08,-112.4C14.63,-98.48 -10.24,-78.36 4.62,-56 19.15,-34.11 46.64,-22.85 70.11,-17.06"/>
<polygon fill="midnightblue" stroke="midnightblue" points="70.86,-20.48 79.87,-14.9 69.35,-13.65 70.86,-20.48"/>
</g>
<!-- Node3 -->
<g id="node3" class="node">
<title>Node3</title>
<g id="a_node3"><a xlink:title=" ">
<polygon fill="none" stroke="#bfbfbf" points="14.12,-56.5 14.12,-75.5 67.12,-75.5 67.12,-56.5 14.12,-56.5"/>
<text text-anchor="middle" x="40.62" y="-63.5" font-family="Helvetica,sans-Serif" font-size="10.00">string.h</text>
</a>
</g>
</g>
<!-- Node1&#45;&gt;Node3 -->
<g id="edge2" class="edge">
<title>Node1&#45;&gt;Node3</title>
<path fill="none" stroke="midnightblue" d="M74.21,-112.5C67.49,-103.39 59.57,-92.66 53.1,-83.91"/>
<polygon fill="midnightblue" stroke="midnightblue" points="55.76,-81.62 47.01,-75.65 50.13,-85.78 55.76,-81.62"/>
</g>
<!-- Node4 -->
<g id="node4" class="node">
<title>Node4</title>
<g id="a_node4"><a xlink:title=" ">
<polygon fill="none" stroke="#bfbfbf" points="85.12,-56.5 85.12,-75.5 190.12,-75.5 190.12,-56.5 85.12,-56.5"/>
<text text-anchor="middle" x="137.62" y="-63.5" font-family="Helvetica,sans-Serif" font-size="10.00">Adafruit_INA260.h</text>
</a>
</g>
</g>
<!-- Node1&#45;&gt;Node4 -->
<g id="edge3" class="edge">
<title>Node1&#45;&gt;Node4</title>
<path fill="none" stroke="midnightblue" d="M103.32,-112.5C110.18,-103.39 118.27,-92.66 124.87,-83.91"/>
<polygon fill="midnightblue" stroke="midnightblue" points="127.87,-85.74 131.09,-75.65 122.28,-81.53 127.87,-85.74"/>
</g>
<!-- Node5 -->
<g id="node5" class="node">
<title>Node5</title>
<g id="a_node5"><a xlink:href="Sensor_8h.html" target="_top" xlink:title=" ">
<polygon fill="none" stroke="black" points="208.62,-56.5 208.62,-75.5 266.62,-75.5 266.62,-56.5 208.62,-56.5"/>
<text text-anchor="middle" x="237.62" y="-63.5" font-family="Helvetica,sans-Serif" font-size="10.00">Sensor.h</text>
</a>
</g>
</g>
<!-- Node1&#45;&gt;Node5 -->
<g id="edge4" class="edge">
<title>Node1&#45;&gt;Node5</title>
<path fill="none" stroke="midnightblue" d="M133.32,-112.5C157.7,-101.86 187.18,-89 208.57,-79.67"/>
<polygon fill="midnightblue" stroke="midnightblue" points="210.02,-82.86 217.78,-75.65 207.22,-76.44 210.02,-82.86"/>
</g>
<!-- Node5&#45;&gt;Node2 -->
<g id="edge5" class="edge">
<title>Node5&#45;&gt;Node2</title>
<path fill="none" stroke="midnightblue" d="M217.65,-56.44C197.01,-47.6 164.55,-33.69 140.98,-23.59"/>
<polygon fill="midnightblue" stroke="midnightblue" points="142.06,-20.24 131.49,-19.52 139.3,-26.67 142.06,-20.24"/>
</g>
</g>
</svg>
