<?xml version="1.0" encoding="UTF-8" standalone="no"?>
<!DOCTYPE svg PUBLIC "-//W3C//DTD SVG 1.1//EN"
 "http://www.w3.org/Graphics/SVG/1.1/DTD/svg11.dtd">
<!-- Generated by graphviz version 2.43.0 (0)
 -->
<!-- Title: INA260Sensor.h Pages: 1 -->
<svg width="274pt" height="140pt"
 viewBox="0.00 0.00 274.26 140.00" xmlns="http://www.w3.org/2000/svg" xmlns:xlink="http://www.w3.org/1999/xlink">
<g id="graph0" class="graph" transform="scale(1 1) rotate(0) translate(4 136)">
<title>INA260Sensor.h</title>
<!-- Node1 -->
<g id="node1" class="node">
<title>Node1</title>
<g id="a_node1"><a xlink:title=" ">
<polygon fill="#bfbfbf" stroke="black" points="41.76,-112.5 41.76,-131.5 134.76,-131.5 134.76,-112.5 41.76,-112.5"/>
<text text-anchor="middle" x="88.26" y="-119.5" font-family="Helvetica,sans-Serif" font-size="10.00">INA260Sensor.h</text>
</a>
</g>
</g>
<!-- Node2 -->
<g id="node2" class="node">
<title>Node2</title>
<g id="a_node2"><a xlink:title=" ">
<polygon fill="none" stroke="#bfbfbf" points="79.76,-0.5 79.76,-19.5 142.76,-19.5 142.76,-0.5 79.76,-0.5"/>
<text text-anchor="middle" x="111.26" y="-7.5" font-family="Helvetica,sans-Serif" font-size="10.00">Arduino.h</text>
</a>
</g>
</g>
<!-- Node1&#45;&gt;Node2 -->
<g id="edge1" class="edge">
<title>Node1&#45;&gt;Node2</title>
<path fill="none" stroke="midnightblue" d="M59.5,-112.48C28.9,-101.85 -12.93,-81.88 4.26,-56 18.8,-34.11 46.28,-22.85 69.75,-17.06"/>
<polygon fill="midnightblue" stroke="midnightblue" points="70.51,-20.48 79.51,-14.9 68.99,-13.65 70.51,-20.48"/>
</g>
<!-- Node3 -->
<g id="node3" class="node">
<title>Node3</title>
<g id="a_node3"><a xlink:title=" ">
<polygon fill="none" stroke="#bfbfbf" points="13.76,-56.5 13.76,-75.5 66.76,-75.5 66.76,-56.5 13.76,-56.5"/>
<text text-anchor="middle" x="40.26" y="-63.5" font-family="Helvetica,sans-Serif" font-size="10.00">string.h</text>
</a>
</g>
</g>
<!-- Node1&#45;&gt;Node3 -->
<g id="edge2" class="edge">
<title>Node1&#45;&gt;Node3</title>
<path fill="none" stroke="midnightblue" d="M80.33,-112.08C73.41,-104.3 63.19,-92.8 54.81,-83.37"/>
<polygon fill="midnightblue" stroke="midnightblue" points="57.3,-80.9 48.04,-75.75 52.07,-85.55 57.3,-80.9"/>
</g>
<!-- Node4 -->
<g id="node4" class="node">
<title>Node4</title>
<g id="a_node4"><a xlink:title=" ">
<polygon fill="none" stroke="#bfbfbf" points="84.76,-56.5 84.76,-75.5 189.76,-75.5 189.76,-56.5 84.76,-56.5"/>
<text text-anchor="middle" x="137.26" y="-63.5" font-family="Helvetica,sans-Serif" font-size="10.00">Adafruit_INA260.h</text>
</a>
</g>
</g>
<!-- Node1&#45;&gt;Node4 -->
<g id="edge3" class="edge">
<title>Node1&#45;&gt;Node4</title>
<path fill="none" stroke="midnightblue" d="M96.35,-112.08C103.41,-104.3 113.85,-92.8 122.41,-83.37"/>
<polygon fill="midnightblue" stroke="midnightblue" points="125.19,-85.51 129.32,-75.75 120.01,-80.8 125.19,-85.51"/>
</g>
<!-- Node5 -->
<g id="node5" class="node">
<title>Node5</title>
<g id="a_node5"><a xlink:href="Sensor_8h.html" target="_top" xlink:title=" ">
<polygon fill="none" stroke="black" points="208.26,-56.5 208.26,-75.5 266.26,-75.5 266.26,-56.5 208.26,-56.5"/>
<text text-anchor="middle" x="237.26" y="-63.5" font-family="Helvetica,sans-Serif" font-size="10.00">Sensor.h</text>
</a>
</g>
</g>
<!-- Node1&#45;&gt;Node5 -->
<g id="edge4" class="edge">
<title>Node1&#45;&gt;Node5</title>
<path fill="none" stroke="midnightblue" d="M111.87,-112.44C136.72,-103.44 176.03,-89.19 204.01,-79.05"/>
<polygon fill="midnightblue" stroke="midnightblue" points="205.55,-82.21 213.76,-75.52 203.17,-75.63 205.55,-82.21"/>
</g>
<!-- Node5&#45;&gt;Node2 -->
<g id="edge5" class="edge">
<title>Node5&#45;&gt;Node2</title>
<path fill="none" stroke="midnightblue" d="M217.29,-56.44C196.65,-47.6 164.2,-33.69 140.63,-23.59"/>
<polygon fill="midnightblue" stroke="midnightblue" points="141.7,-20.24 131.13,-19.52 138.94,-26.67 141.7,-20.24"/>
</g>
</g>
</svg>
