<?xml version="1.0" encoding="UTF-8" standalone="no"?>
<!DOCTYPE svg PUBLIC "-//W3C//DTD SVG 1.1//EN"
 "http://www.w3.org/Graphics/SVG/1.1/DTD/svg11.dtd">
<!-- Generated by graphviz version 2.43.0 (0)
 -->
<!-- Title: Graphical Class Hierarchy Pages: 1 -->
<svg width="189pt" height="446pt"
 viewBox="0.00 0.00 189.00 446.00" xmlns="http://www.w3.org/2000/svg" xmlns:xlink="http://www.w3.org/1999/xlink">
<g id="graph0" class="graph" transform="scale(1 1) rotate(0) translate(4 442)">
<title>Graphical Class Hierarchy</title>
<!-- Node0 -->
<g id="node1" class="node">
<title>Node0</title>
<g id="a_node1"><a xlink:href="classSensor.html" target="_top" xlink:title="Parent class for sensor objects.">
<polygon fill="none" stroke="black" points="0,-209.5 0,-228.5 50,-228.5 50,-209.5 0,-209.5"/>
<text text-anchor="middle" x="25" y="-216.5" font-family="Helvetica,sans-Serif" font-size="10.00">Sensor</text>
</a>
</g>
</g>
<!-- Node1 -->
<g id="node2" class="node">
<title>Node1</title>
<g id="a_node2"><a xlink:href="classAnalogSensor.html" target="_top" xlink:title="Implementation of a Sensor for the analog readings.">
<polygon fill="none" stroke="black" points="92,-418.5 92,-437.5 175,-437.5 175,-418.5 92,-418.5"/>
<text text-anchor="middle" x="133.5" y="-425.5" font-family="Helvetica,sans-Serif" font-size="10.00">AnalogSensor</text>
</a>
</g>
</g>
<!-- Node0&#45;&gt;Node1 -->
<g id="edge1" class="edge">
<title>Node0&#45;&gt;Node1</title>
<path fill="none" stroke="midnightblue" d="M26.89,-238.92C29.63,-276.81 40.76,-359.89 86,-409 89.55,-412.85 93.98,-415.94 98.7,-418.41"/>
<polygon fill="midnightblue" stroke="midnightblue" points="30.37,-238.47 26.28,-228.69 23.39,-238.88 30.37,-238.47"/>
</g>
<!-- Node2 -->
<g id="node3" class="node">
<title>Node2</title>
<g id="a_node3"><a xlink:href="classBME280Sensor.html" target="_top" xlink:title="Implementation of a Sensor for the BME280.">
<polygon fill="none" stroke="black" points="89,-380.5 89,-399.5 178,-399.5 178,-380.5 89,-380.5"/>
<text text-anchor="middle" x="133.5" y="-387.5" font-family="Helvetica,sans-Serif" font-size="10.00">BME280Sensor</text>
</a>
</g>
</g>
<!-- Node0&#45;&gt;Node2 -->
<g id="edge2" class="edge">
<title>Node0&#45;&gt;Node2</title>
<path fill="none" stroke="midnightblue" d="M28.75,-238.85C34.16,-270.74 49.06,-333.62 86,-371 89.8,-374.85 94.49,-377.94 99.41,-380.43"/>
<polygon fill="midnightblue" stroke="midnightblue" points="32.15,-237.95 27.16,-228.6 25.24,-239.02 32.15,-237.95"/>
</g>
<!-- Node3 -->
<g id="node4" class="node">
<title>Node3</title>
<g id="a_node4"><a xlink:href="classBME680Sensor.html" target="_top" xlink:title="A class to interface with the Adafruit BME680 sensor for environmental data collection.">
<polygon fill="none" stroke="black" points="89,-342.5 89,-361.5 178,-361.5 178,-342.5 89,-342.5"/>
<text text-anchor="middle" x="133.5" y="-349.5" font-family="Helvetica,sans-Serif" font-size="10.00">BME680Sensor</text>
</a>
</g>
</g>
<!-- Node0&#45;&gt;Node3 -->
<g id="edge3" class="edge">
<title>Node0&#45;&gt;Node3</title>
<path fill="none" stroke="midnightblue" d="M31.62,-238.45C39.78,-263.47 57.15,-306.81 86,-333 90.13,-336.75 95.1,-339.81 100.24,-342.3"/>
<polygon fill="midnightblue" stroke="midnightblue" points="34.9,-237.19 28.6,-228.66 28.21,-239.25 34.9,-237.19"/>
</g>
<!-- Node4 -->
<g id="node5" class="node">
<title>Node4</title>
<g id="a_node5"><a xlink:href="classENS160Sensor.html" target="_top" xlink:title="Implementation of a Sensor for the ENS160.">
<polygon fill="none" stroke="black" points="90,-304.5 90,-323.5 177,-323.5 177,-304.5 90,-304.5"/>
<text text-anchor="middle" x="133.5" y="-311.5" font-family="Helvetica,sans-Serif" font-size="10.00">ENS160Sensor</text>
</a>
</g>
</g>
<!-- Node0&#45;&gt;Node4 -->
<g id="edge4" class="edge">
<title>Node0&#45;&gt;Node4</title>
<path fill="none" stroke="midnightblue" d="M36.83,-237.68C47.47,-254.62 65.12,-279.28 86,-295 90.88,-298.67 96.56,-301.76 102.25,-304.3"/>
<polygon fill="midnightblue" stroke="midnightblue" points="39.58,-235.46 31.4,-228.72 33.59,-239.09 39.58,-235.46"/>
</g>
<!-- Node5 -->
<g id="node6" class="node">
<title>Node5</title>
<g id="a_node6"><a xlink:href="classGeigerSensor.html" target="_top" xlink:title="A class for interfacing with a Geiger counter sensor.">
<polygon fill="none" stroke="black" points="92.5,-266.5 92.5,-285.5 174.5,-285.5 174.5,-266.5 92.5,-266.5"/>
<text text-anchor="middle" x="133.5" y="-273.5" font-family="Helvetica,sans-Serif" font-size="10.00">GeigerSensor</text>
</a>
</g>
</g>
<!-- Node0&#45;&gt;Node5 -->
<g id="edge5" class="edge">
<title>Node0&#45;&gt;Node5</title>
<path fill="none" stroke="midnightblue" d="M48.47,-234.56C59.5,-241.85 73.16,-250.38 86,-257 92.51,-260.36 99.75,-263.56 106.55,-266.34"/>
<polygon fill="midnightblue" stroke="midnightblue" points="50.14,-231.47 39.89,-228.79 46.23,-237.27 50.14,-231.47"/>
</g>
<!-- Node6 -->
<g id="node7" class="node">
<title>Node6</title>
<g id="a_node7"><a xlink:href="classINA260Sensor.html" target="_top" xlink:title="A class to interface with the Adafruit INA260 sensor for current, voltage, and power measurements.">
<polygon fill="none" stroke="black" points="91,-228.5 91,-247.5 176,-247.5 176,-228.5 91,-228.5"/>
<text text-anchor="middle" x="133.5" y="-235.5" font-family="Helvetica,sans-Serif" font-size="10.00">INA260Sensor</text>
</a>
</g>
</g>
<!-- Node0&#45;&gt;Node6 -->
<g id="edge6" class="edge">
<title>Node0&#45;&gt;Node6</title>
<path fill="none" stroke="midnightblue" d="M60.28,-225.12C70.03,-226.85 80.74,-228.77 90.87,-230.57"/>
<polygon fill="midnightblue" stroke="midnightblue" points="60.63,-221.62 50.17,-223.31 59.4,-228.51 60.63,-221.62"/>
</g>
<!-- Node7 -->
<g id="node8" class="node">
<title>Node7</title>
<g id="a_node8"><a xlink:href="classLSM9DS1Sensor.html" target="_top" xlink:title="Implementation of the Sensor class for the LSM9DS1 (9&#45;axis IMU)">
<polygon fill="none" stroke="black" points="86,-190.5 86,-209.5 181,-209.5 181,-190.5 86,-190.5"/>
<text text-anchor="middle" x="133.5" y="-197.5" font-family="Helvetica,sans-Serif" font-size="10.00">LSM9DS1Sensor</text>
</a>
</g>
</g>
<!-- Node0&#45;&gt;Node7 -->
<g id="edge7" class="edge">
<title>Node0&#45;&gt;Node7</title>
<path fill="none" stroke="midnightblue" d="M60.08,-212.92C68.25,-211.46 77.12,-209.88 85.76,-208.34"/>
<polygon fill="midnightblue" stroke="midnightblue" points="59.4,-209.49 50.17,-214.69 60.63,-216.38 59.4,-209.49"/>
</g>
<!-- Node8 -->
<g id="node9" class="node">
<title>Node8</title>
<g id="a_node9"><a xlink:href="classMTK3339Sensor.html" target="_top" xlink:title="Implementation of the Adafruit MTK3339 GPS sensor.">
<polygon fill="none" stroke="black" points="86,-152.5 86,-171.5 181,-171.5 181,-152.5 86,-152.5"/>
<text text-anchor="middle" x="133.5" y="-159.5" font-family="Helvetica,sans-Serif" font-size="10.00">MTK3339Sensor</text>
</a>
</g>
</g>
<!-- Node0&#45;&gt;Node8 -->
<g id="edge8" class="edge">
<title>Node0&#45;&gt;Node8</title>
<path fill="none" stroke="midnightblue" d="M48.47,-203.44C59.5,-196.15 73.16,-187.62 86,-181 92.51,-177.64 99.75,-174.44 106.55,-171.66"/>
<polygon fill="midnightblue" stroke="midnightblue" points="46.23,-200.73 39.89,-209.21 50.14,-206.53 46.23,-200.73"/>
</g>
<!-- Node9 -->
<g id="node10" class="node">
<title>Node9</title>
<g id="a_node10"><a xlink:href="classSGP30Sensor.html" target="_top" xlink:title="Implementation of a Sensor for the SGP Air Quality sensor.">
<polygon fill="none" stroke="black" points="93,-114.5 93,-133.5 174,-133.5 174,-114.5 93,-114.5"/>
<text text-anchor="middle" x="133.5" y="-121.5" font-family="Helvetica,sans-Serif" font-size="10.00">SGP30Sensor</text>
</a>
</g>
</g>
<!-- Node0&#45;&gt;Node9 -->
<g id="edge9" class="edge">
<title>Node0&#45;&gt;Node9</title>
<path fill="none" stroke="midnightblue" d="M36.83,-200.32C47.47,-183.38 65.12,-158.72 86,-143 90.88,-139.33 96.56,-136.24 102.25,-133.7"/>
<polygon fill="midnightblue" stroke="midnightblue" points="33.59,-198.91 31.4,-209.28 39.58,-202.54 33.59,-198.91"/>
</g>
<!-- Node10 -->
<g id="node11" class="node">
<title>Node10</title>
<g id="a_node11"><a xlink:href="classSHT31Sensor.html" target="_top" xlink:title="Interfaces with SHT31 Sensor to collect temperature and humidity data.">
<polygon fill="none" stroke="black" points="93,-76.5 93,-95.5 174,-95.5 174,-76.5 93,-76.5"/>
<text text-anchor="middle" x="133.5" y="-83.5" font-family="Helvetica,sans-Serif" font-size="10.00">SHT31Sensor</text>
</a>
</g>
</g>
<!-- Node0&#45;&gt;Node10 -->
<g id="edge10" class="edge">
<title>Node0&#45;&gt;Node10</title>
<path fill="none" stroke="midnightblue" d="M31.62,-199.55C39.78,-174.53 57.15,-131.19 86,-105 90.13,-101.25 95.1,-98.19 100.24,-95.7"/>
<polygon fill="midnightblue" stroke="midnightblue" points="28.21,-198.75 28.6,-209.34 34.9,-200.81 28.21,-198.75"/>
</g>
<!-- Node11 -->
<g id="node12" class="node">
<title>Node11</title>
<g id="a_node12"><a xlink:href="classTempSensor.html" target="_top" xlink:title="Implementation of a Sensor for the onboard temperature sensor.">
<polygon fill="none" stroke="black" points="95.5,-38.5 95.5,-57.5 171.5,-57.5 171.5,-38.5 95.5,-38.5"/>
<text text-anchor="middle" x="133.5" y="-45.5" font-family="Helvetica,sans-Serif" font-size="10.00">TempSensor</text>
</a>
</g>
</g>
<!-- Node0&#45;&gt;Node11 -->
<g id="edge11" class="edge">
<title>Node0&#45;&gt;Node11</title>
<path fill="none" stroke="midnightblue" d="M28.75,-199.15C34.16,-167.26 49.06,-104.38 86,-67 89.8,-63.15 94.49,-60.06 99.41,-57.57"/>
<polygon fill="midnightblue" stroke="midnightblue" points="25.24,-198.98 27.16,-209.4 32.15,-200.05 25.24,-198.98"/>
</g>
<!-- Node12 -->
<g id="node13" class="node">
<title>Node12</title>
<g id="a_node13"><a xlink:href="classZOPT220Sensor.html" target="_top" xlink:title="A class to interface with the ZOPT220x UV and ambient light sensor.">
<polygon fill="none" stroke="black" points="86.5,-0.5 86.5,-19.5 180.5,-19.5 180.5,-0.5 86.5,-0.5"/>
<text text-anchor="middle" x="133.5" y="-7.5" font-family="Helvetica,sans-Serif" font-size="10.00">ZOPT220Sensor</text>
</a>
</g>
</g>
<!-- Node0&#45;&gt;Node12 -->
<g id="edge12" class="edge">
<title>Node0&#45;&gt;Node12</title>
<path fill="none" stroke="midnightblue" d="M26.89,-199.08C29.63,-161.19 40.76,-78.11 86,-29 89.55,-25.15 93.98,-22.06 98.7,-19.59"/>
<polygon fill="midnightblue" stroke="midnightblue" points="23.39,-199.12 26.28,-209.31 30.37,-199.53 23.39,-199.12"/>
</g>
</g>
</svg>
