<?xml version="1.0" encoding="UTF-8" standalone="no"?>
<!DOCTYPE svg PUBLIC "-//W3C//DTD SVG 1.1//EN"
 "http://www.w3.org/Graphics/SVG/1.1/DTD/svg11.dtd">
<!-- Generated by graphviz version 2.43.0 (0)
 -->
<!-- Title: Graphical Class Hierarchy Pages: 1 -->
<svg width="192pt" height="560pt"
 viewBox="0.00 0.00 192.00 560.00" xmlns="http://www.w3.org/2000/svg" xmlns:xlink="http://www.w3.org/1999/xlink">
<g id="graph0" class="graph" transform="scale(1 1) rotate(0) translate(4 556)">
<title>Graphical Class Hierarchy</title>
<!-- Node0 -->
<g id="node1" class="node">
<title>Node0</title>
<g id="a_node1"><a xlink:href="classSensor.html" target="_top" xlink:title="Parent class for sensor objects.">
<polygon fill="none" stroke="black" points="0,-266.5 0,-285.5 50,-285.5 50,-266.5 0,-266.5"/>
<text text-anchor="middle" x="25" y="-273.5" font-family="Helvetica,sans-Serif" font-size="10.00">Sensor</text>
</a>
</g>
</g>
<!-- Node1 -->
<g id="node2" class="node">
<title>Node1</title>
<g id="a_node2"><a xlink:href="classAS7331Sensor.html" target="_top" xlink:title="Implementation of a Sensor for UVA/B/C sensor.">
<polygon fill="none" stroke="black" points="92,-532.5 92,-551.5 178,-551.5 178,-532.5 92,-532.5"/>
<text text-anchor="middle" x="135" y="-539.5" font-family="Helvetica,sans-Serif" font-size="10.00">AS7331Sensor</text>
</a>
</g>
</g>
<!-- Node0&#45;&gt;Node1 -->
<g id="edge1" class="edge">
<title>Node0&#45;&gt;Node1</title>
<path fill="none" stroke="midnightblue" d="M28.43,-295.68C35.24,-347.92 55.98,-488.5 86,-523 89.29,-526.79 93.44,-529.83 97.92,-532.26"/>
<polygon fill="midnightblue" stroke="midnightblue" points="31.89,-295.16 27.16,-285.68 24.95,-296.04 31.89,-295.16"/>
</g>
<!-- Node2 -->
<g id="node3" class="node">
<title>Node2</title>
<g id="a_node3"><a xlink:href="classAnalogSensor.html" target="_top" xlink:title="Implementation of a Sensor for the analog readings.">
<polygon fill="none" stroke="black" points="93.5,-494.5 93.5,-513.5 176.5,-513.5 176.5,-494.5 93.5,-494.5"/>
<text text-anchor="middle" x="135" y="-501.5" font-family="Helvetica,sans-Serif" font-size="10.00">AnalogSensor</text>
</a>
</g>
</g>
<!-- Node0&#45;&gt;Node2 -->
<g id="edge2" class="edge">
<title>Node0&#45;&gt;Node2</title>
<path fill="none" stroke="midnightblue" d="M26.15,-295.96C27.52,-336.7 36.26,-430.17 86,-485 89.49,-488.85 93.87,-491.93 98.54,-494.39"/>
<polygon fill="midnightblue" stroke="midnightblue" points="29.64,-295.66 25.93,-285.74 22.64,-295.81 29.64,-295.66"/>
</g>
<!-- Node3 -->
<g id="node4" class="node">
<title>Node3</title>
<g id="a_node4"><a xlink:href="classBME280Sensor.html" target="_top" xlink:title="Implementation of a Sensor for the BME280.">
<polygon fill="none" stroke="black" points="90.5,-456.5 90.5,-475.5 179.5,-475.5 179.5,-456.5 90.5,-456.5"/>
<text text-anchor="middle" x="135" y="-463.5" font-family="Helvetica,sans-Serif" font-size="10.00">BME280Sensor</text>
</a>
</g>
</g>
<!-- Node0&#45;&gt;Node3 -->
<g id="edge3" class="edge">
<title>Node0&#45;&gt;Node3</title>
<path fill="none" stroke="midnightblue" d="M27.67,-295.88C31.65,-330.92 44.67,-404 86,-447 89.73,-450.88 94.34,-453.98 99.23,-456.46"/>
<polygon fill="midnightblue" stroke="midnightblue" points="31.12,-295.16 26.65,-285.56 24.15,-295.86 31.12,-295.16"/>
</g>
<!-- Node4 -->
<g id="node5" class="node">
<title>Node4</title>
<g id="a_node5"><a xlink:href="classBME680Sensor.html" target="_top" xlink:title="A class to interface with the Adafruit BME680 sensor for environmental data collection.">
<polygon fill="none" stroke="black" points="90.5,-418.5 90.5,-437.5 179.5,-437.5 179.5,-418.5 90.5,-418.5"/>
<text text-anchor="middle" x="135" y="-425.5" font-family="Helvetica,sans-Serif" font-size="10.00">BME680Sensor</text>
</a>
</g>
</g>
<!-- Node0&#45;&gt;Node4 -->
<g id="edge4" class="edge">
<title>Node0&#45;&gt;Node4</title>
<path fill="none" stroke="midnightblue" d="M29.99,-295.84C36.73,-324.5 52.99,-377.51 86,-409 90.02,-412.84 94.91,-415.93 100.01,-418.41"/>
<polygon fill="midnightblue" stroke="midnightblue" points="33.35,-294.84 27.79,-285.82 26.52,-296.34 33.35,-294.84"/>
</g>
<!-- Node5 -->
<g id="node6" class="node">
<title>Node5</title>
<g id="a_node6"><a xlink:href="classDS3231Sensor.html" target="_top" xlink:title="Implementation of a Sensor for the DS3231 Real Time Clock.">
<polygon fill="none" stroke="black" points="91.5,-380.5 91.5,-399.5 178.5,-399.5 178.5,-380.5 91.5,-380.5"/>
<text text-anchor="middle" x="135" y="-387.5" font-family="Helvetica,sans-Serif" font-size="10.00">DS3231Sensor</text>
</a>
</g>
</g>
<!-- Node0&#45;&gt;Node5 -->
<g id="edge5" class="edge">
<title>Node0&#45;&gt;Node5</title>
<path fill="none" stroke="midnightblue" d="M33.67,-295.03C43.09,-316.23 60.96,-350.24 86,-371 90.62,-374.83 96.11,-377.96 101.7,-380.49"/>
<polygon fill="midnightblue" stroke="midnightblue" points="36.86,-293.6 29.73,-285.77 30.42,-296.34 36.86,-293.6"/>
</g>
<!-- Node6 -->
<g id="node7" class="node">
<title>Node6</title>
<g id="a_node7"><a xlink:href="classENS160Sensor.html" target="_top" xlink:title="Implementation of a Sensor for the ENS160.">
<polygon fill="none" stroke="black" points="91.5,-342.5 91.5,-361.5 178.5,-361.5 178.5,-342.5 91.5,-342.5"/>
<text text-anchor="middle" x="135" y="-349.5" font-family="Helvetica,sans-Serif" font-size="10.00">ENS160Sensor</text>
</a>
</g>
</g>
<!-- Node0&#45;&gt;Node6 -->
<g id="edge6" class="edge">
<title>Node0&#45;&gt;Node6</title>
<path fill="none" stroke="midnightblue" d="M41.02,-293.47C52.37,-305.83 68.88,-322.07 86,-333 91.74,-336.67 98.3,-339.83 104.69,-342.47"/>
<polygon fill="midnightblue" stroke="midnightblue" points="43.31,-290.78 34.04,-285.66 38.09,-295.45 43.31,-290.78"/>
</g>
<!-- Node7 -->
<g id="node8" class="node">
<title>Node7</title>
<g id="a_node8"><a xlink:href="classGeigerSensor.html" target="_top" xlink:title="A class for interfacing with a Geiger counter sensor.">
<polygon fill="none" stroke="black" points="94,-304.5 94,-323.5 176,-323.5 176,-304.5 94,-304.5"/>
<text text-anchor="middle" x="135" y="-311.5" font-family="Helvetica,sans-Serif" font-size="10.00">GeigerSensor</text>
</a>
</g>
</g>
<!-- Node0&#45;&gt;Node7 -->
<g id="edge7" class="edge">
<title>Node0&#45;&gt;Node7</title>
<path fill="none" stroke="midnightblue" d="M59.77,-287.88C74.91,-293.21 92.53,-299.41 106.8,-304.43"/>
<polygon fill="midnightblue" stroke="midnightblue" points="60.83,-284.55 50.24,-284.53 58.51,-291.15 60.83,-284.55"/>
</g>
<!-- Node8 -->
<g id="node9" class="node">
<title>Node8</title>
<g id="a_node9"><a xlink:href="classICM20948Sensor.html" target="_top" xlink:title="Implementation of the Sensor class for the Adafruit ICM20948 (9&#45;axis IMU)">
<polygon fill="none" stroke="black" points="86,-266.5 86,-285.5 184,-285.5 184,-266.5 86,-266.5"/>
<text text-anchor="middle" x="135" y="-273.5" font-family="Helvetica,sans-Serif" font-size="10.00">ICM20948Sensor</text>
</a>
</g>
</g>
<!-- Node0&#45;&gt;Node8 -->
<g id="edge8" class="edge">
<title>Node0&#45;&gt;Node8</title>
<path fill="none" stroke="midnightblue" d="M60.44,-276C68.56,-276 77.36,-276 85.96,-276"/>
<polygon fill="midnightblue" stroke="midnightblue" points="60.24,-272.5 50.24,-276 60.24,-279.5 60.24,-272.5"/>
</g>
<!-- Node9 -->
<g id="node10" class="node">
<title>Node9</title>
<g id="a_node10"><a xlink:href="classINA260Sensor.html" target="_top" xlink:title="A class to interface with the Adafruit INA260 sensor for current, voltage, and power measurements.">
<polygon fill="none" stroke="black" points="92.5,-228.5 92.5,-247.5 177.5,-247.5 177.5,-228.5 92.5,-228.5"/>
<text text-anchor="middle" x="135" y="-235.5" font-family="Helvetica,sans-Serif" font-size="10.00">INA260Sensor</text>
</a>
</g>
</g>
<!-- Node0&#45;&gt;Node9 -->
<g id="edge9" class="edge">
<title>Node0&#45;&gt;Node9</title>
<path fill="none" stroke="midnightblue" d="M59.77,-264.12C74.91,-258.79 92.53,-252.59 106.8,-247.57"/>
<polygon fill="midnightblue" stroke="midnightblue" points="58.51,-260.85 50.24,-267.47 60.83,-267.45 58.51,-260.85"/>
</g>
<!-- Node10 -->
<g id="node11" class="node">
<title>Node10</title>
<g id="a_node11"><a xlink:href="classLSM9DS1Sensor.html" target="_top" xlink:title="Implementation of the Sensor class for the LSM9DS1 (9&#45;axis IMU)">
<polygon fill="none" stroke="black" points="87.5,-190.5 87.5,-209.5 182.5,-209.5 182.5,-190.5 87.5,-190.5"/>
<text text-anchor="middle" x="135" y="-197.5" font-family="Helvetica,sans-Serif" font-size="10.00">LSM9DS1Sensor</text>
</a>
</g>
</g>
<!-- Node0&#45;&gt;Node10 -->
<g id="edge10" class="edge">
<title>Node0&#45;&gt;Node10</title>
<path fill="none" stroke="midnightblue" d="M41.02,-258.53C52.37,-246.17 68.88,-229.93 86,-219 91.74,-215.33 98.3,-212.17 104.69,-209.53"/>
<polygon fill="midnightblue" stroke="midnightblue" points="38.09,-256.55 34.04,-266.34 43.31,-261.22 38.09,-256.55"/>
</g>
<!-- Node11 -->
<g id="node12" class="node">
<title>Node11</title>
<g id="a_node12"><a xlink:href="classMTK3339Sensor.html" target="_top" xlink:title="Implementation of the Adafruit MTK3339 GPS sensor.">
<polygon fill="none" stroke="black" points="87.5,-152.5 87.5,-171.5 182.5,-171.5 182.5,-152.5 87.5,-152.5"/>
<text text-anchor="middle" x="135" y="-159.5" font-family="Helvetica,sans-Serif" font-size="10.00">MTK3339Sensor</text>
</a>
</g>
</g>
<!-- Node0&#45;&gt;Node11 -->
<g id="edge11" class="edge">
<title>Node0&#45;&gt;Node11</title>
<path fill="none" stroke="midnightblue" d="M33.67,-256.97C43.09,-235.77 60.96,-201.76 86,-181 90.62,-177.17 96.11,-174.04 101.7,-171.51"/>
<polygon fill="midnightblue" stroke="midnightblue" points="30.42,-255.66 29.73,-266.23 36.86,-258.4 30.42,-255.66"/>
</g>
<!-- Node12 -->
<g id="node13" class="node">
<title>Node12</title>
<g id="a_node13"><a xlink:href="classSGP30Sensor.html" target="_top" xlink:title="Implementation of a Sensor for the SGP Air Quality sensor.">
<polygon fill="none" stroke="black" points="94.5,-114.5 94.5,-133.5 175.5,-133.5 175.5,-114.5 94.5,-114.5"/>
<text text-anchor="middle" x="135" y="-121.5" font-family="Helvetica,sans-Serif" font-size="10.00">SGP30Sensor</text>
</a>
</g>
</g>
<!-- Node0&#45;&gt;Node12 -->
<g id="edge12" class="edge">
<title>Node0&#45;&gt;Node12</title>
<path fill="none" stroke="midnightblue" d="M29.99,-256.16C36.73,-227.5 52.99,-174.49 86,-143 90.02,-139.16 94.91,-136.07 100.01,-133.59"/>
<polygon fill="midnightblue" stroke="midnightblue" points="26.52,-255.66 27.79,-266.18 33.35,-257.16 26.52,-255.66"/>
</g>
<!-- Node13 -->
<g id="node14" class="node">
<title>Node13</title>
<g id="a_node14"><a xlink:href="classSHT31Sensor.html" target="_top" xlink:title="Interfaces with SHT31 Sensor to collect temperature and humidity data.">
<polygon fill="none" stroke="black" points="94.5,-76.5 94.5,-95.5 175.5,-95.5 175.5,-76.5 94.5,-76.5"/>
<text text-anchor="middle" x="135" y="-83.5" font-family="Helvetica,sans-Serif" font-size="10.00">SHT31Sensor</text>
</a>
</g>
</g>
<!-- Node0&#45;&gt;Node13 -->
<g id="edge13" class="edge">
<title>Node0&#45;&gt;Node13</title>
<path fill="none" stroke="midnightblue" d="M27.67,-256.12C31.65,-221.08 44.67,-148 86,-105 89.73,-101.12 94.34,-98.02 99.23,-95.54"/>
<polygon fill="midnightblue" stroke="midnightblue" points="24.15,-256.14 26.65,-266.44 31.12,-256.84 24.15,-256.14"/>
</g>
<!-- Node14 -->
<g id="node15" class="node">
<title>Node14</title>
<g id="a_node15"><a xlink:href="classTempSensor.html" target="_top" xlink:title="Implementation of a Sensor for the onboard temperature sensor.">
<polygon fill="none" stroke="black" points="97,-38.5 97,-57.5 173,-57.5 173,-38.5 97,-38.5"/>
<text text-anchor="middle" x="135" y="-45.5" font-family="Helvetica,sans-Serif" font-size="10.00">TempSensor</text>
</a>
</g>
</g>
<!-- Node0&#45;&gt;Node14 -->
<g id="edge14" class="edge">
<title>Node0&#45;&gt;Node14</title>
<path fill="none" stroke="midnightblue" d="M26.15,-256.04C27.52,-215.3 36.26,-121.83 86,-67 89.49,-63.15 93.87,-60.07 98.54,-57.61"/>
<polygon fill="midnightblue" stroke="midnightblue" points="22.64,-256.19 25.93,-266.26 29.64,-256.34 22.64,-256.19"/>
</g>
<!-- Node15 -->
<g id="node16" class="node">
<title>Node15</title>
<g id="a_node16"><a xlink:href="classZOPT220Sensor.html" target="_top" xlink:title="A class to interface with the ZOPT220x UV and ambient light sensor.">
<polygon fill="none" stroke="black" points="88,-0.5 88,-19.5 182,-19.5 182,-0.5 88,-0.5"/>
<text text-anchor="middle" x="135" y="-7.5" font-family="Helvetica,sans-Serif" font-size="10.00">ZOPT220Sensor</text>
</a>
</g>
</g>
<!-- Node0&#45;&gt;Node15 -->
<g id="edge15" class="edge">
<title>Node0&#45;&gt;Node15</title>
<path fill="none" stroke="midnightblue" d="M28.43,-256.32C35.24,-204.08 55.98,-63.5 86,-29 89.29,-25.21 93.44,-22.17 97.92,-19.74"/>
<polygon fill="midnightblue" stroke="midnightblue" points="24.95,-255.96 27.16,-266.32 31.89,-256.84 24.95,-255.96"/>
</g>
</g>
</svg>
