<?xml version="1.0" encoding="UTF-8" standalone="no"?>
<!DOCTYPE svg PUBLIC "-//W3C//DTD SVG 1.1//EN"
 "http://www.w3.org/Graphics/SVG/1.1/DTD/svg11.dtd">
<!-- Generated by graphviz version 2.43.0 (0)
 -->
<!-- Title: Graphical Class Hierarchy Pages: 1 -->
<svg width="189pt" height="370pt"
 viewBox="0.00 0.00 189.00 370.00" xmlns="http://www.w3.org/2000/svg" xmlns:xlink="http://www.w3.org/1999/xlink">
<g id="graph0" class="graph" transform="scale(1 1) rotate(0) translate(4 366)">
<title>Graphical Class Hierarchy</title>
<!-- Node0 -->
<g id="node1" class="node">
<title>Node0</title>
<g id="a_node1"><a xlink:href="classSensor.html" target="_top" xlink:title="Parent class for sensor objects.">
<polygon fill="none" stroke="black" points="0,-171.5 0,-190.5 50,-190.5 50,-171.5 0,-171.5"/>
<text text-anchor="middle" x="25" y="-178.5" font-family="Helvetica,sans-Serif" font-size="10.00">Sensor</text>
</a>
</g>
</g>
<!-- Node1 -->
<g id="node2" class="node">
<title>Node1</title>
<g id="a_node2"><a xlink:href="classAnalogSensor.html" target="_top" xlink:title="Implementation of a Sensor for the analog readings.">
<polygon fill="none" stroke="black" points="92,-342.5 92,-361.5 175,-361.5 175,-342.5 92,-342.5"/>
<text text-anchor="middle" x="133.5" y="-349.5" font-family="Helvetica,sans-Serif" font-size="10.00">AnalogSensor</text>
</a>
</g>
</g>
<!-- Node0&#45;&gt;Node1 -->
<g id="edge1" class="edge">
<title>Node0&#45;&gt;Node1</title>
<path fill="none" stroke="midnightblue" d="M28.75,-200.85C34.16,-232.74 49.06,-295.62 86,-333 89.8,-336.85 94.49,-339.94 99.41,-342.43"/>
<polygon fill="midnightblue" stroke="midnightblue" points="32.15,-199.95 27.16,-190.6 25.24,-201.02 32.15,-199.95"/>
</g>
<!-- Node2 -->
<g id="node3" class="node">
<title>Node2</title>
<g id="a_node3"><a xlink:href="classBME680Sensor.html" target="_top" xlink:title="A class to interface with the Adafruit BME680 sensor for environmental data collection.">
<polygon fill="none" stroke="black" points="89,-304.5 89,-323.5 178,-323.5 178,-304.5 89,-304.5"/>
<text text-anchor="middle" x="133.5" y="-311.5" font-family="Helvetica,sans-Serif" font-size="10.00">BME680Sensor</text>
</a>
</g>
</g>
<!-- Node0&#45;&gt;Node2 -->
<g id="edge2" class="edge">
<title>Node0&#45;&gt;Node2</title>
<path fill="none" stroke="midnightblue" d="M31.62,-200.45C39.78,-225.47 57.15,-268.81 86,-295 90.13,-298.75 95.1,-301.81 100.24,-304.3"/>
<polygon fill="midnightblue" stroke="midnightblue" points="34.9,-199.19 28.6,-190.66 28.21,-201.25 34.9,-199.19"/>
</g>
<!-- Node3 -->
<g id="node4" class="node">
<title>Node3</title>
<g id="a_node4"><a xlink:href="classGeigerSensor.html" target="_top" xlink:title="A class for interfacing with a Geiger counter sensor.">
<polygon fill="none" stroke="black" points="92.5,-266.5 92.5,-285.5 174.5,-285.5 174.5,-266.5 92.5,-266.5"/>
<text text-anchor="middle" x="133.5" y="-273.5" font-family="Helvetica,sans-Serif" font-size="10.00">GeigerSensor</text>
</a>
</g>
</g>
<!-- Node0&#45;&gt;Node3 -->
<g id="edge3" class="edge">
<title>Node0&#45;&gt;Node3</title>
<path fill="none" stroke="midnightblue" d="M36.83,-199.68C47.47,-216.62 65.12,-241.28 86,-257 90.88,-260.67 96.56,-263.76 102.25,-266.3"/>
<polygon fill="midnightblue" stroke="midnightblue" points="39.58,-197.46 31.4,-190.72 33.59,-201.09 39.58,-197.46"/>
</g>
<!-- Node4 -->
<g id="node5" class="node">
<title>Node4</title>
<g id="a_node5"><a xlink:href="classINA260Sensor.html" target="_top" xlink:title="A class to interface with the Adafruit INA260 sensor for current, voltage, and power measurements.">
<polygon fill="none" stroke="black" points="91,-228.5 91,-247.5 176,-247.5 176,-228.5 91,-228.5"/>
<text text-anchor="middle" x="133.5" y="-235.5" font-family="Helvetica,sans-Serif" font-size="10.00">INA260Sensor</text>
</a>
</g>
</g>
<!-- Node0&#45;&gt;Node4 -->
<g id="edge4" class="edge">
<title>Node0&#45;&gt;Node4</title>
<path fill="none" stroke="midnightblue" d="M48.47,-196.56C59.5,-203.85 73.16,-212.38 86,-219 92.51,-222.36 99.75,-225.56 106.55,-228.34"/>
<polygon fill="midnightblue" stroke="midnightblue" points="50.14,-193.47 39.89,-190.79 46.23,-199.27 50.14,-193.47"/>
</g>
<!-- Node5 -->
<g id="node6" class="node">
<title>Node5</title>
<g id="a_node6"><a xlink:href="classLSM9DS1Sensor.html" target="_top" xlink:title="Implementation of the Sensor class for the LSM9DS1 (9&#45;axis IMU)">
<polygon fill="none" stroke="black" points="86,-190.5 86,-209.5 181,-209.5 181,-190.5 86,-190.5"/>
<text text-anchor="middle" x="133.5" y="-197.5" font-family="Helvetica,sans-Serif" font-size="10.00">LSM9DS1Sensor</text>
</a>
</g>
</g>
<!-- Node0&#45;&gt;Node5 -->
<g id="edge5" class="edge">
<title>Node0&#45;&gt;Node5</title>
<path fill="none" stroke="midnightblue" d="M60.08,-187.08C68.25,-188.54 77.12,-190.12 85.76,-191.66"/>
<polygon fill="midnightblue" stroke="midnightblue" points="60.63,-183.62 50.17,-185.31 59.4,-190.51 60.63,-183.62"/>
</g>
<!-- Node6 -->
<g id="node7" class="node">
<title>Node6</title>
<g id="a_node7"><a xlink:href="classMTK3339Sensor.html" target="_top" xlink:title="Implementation of the Adafruit MTK3339 GPS sensor.">
<polygon fill="none" stroke="black" points="86,-152.5 86,-171.5 181,-171.5 181,-152.5 86,-152.5"/>
<text text-anchor="middle" x="133.5" y="-159.5" font-family="Helvetica,sans-Serif" font-size="10.00">MTK3339Sensor</text>
</a>
</g>
</g>
<!-- Node0&#45;&gt;Node6 -->
<g id="edge6" class="edge">
<title>Node0&#45;&gt;Node6</title>
<path fill="none" stroke="midnightblue" d="M60.08,-174.92C68.25,-173.46 77.12,-171.88 85.76,-170.34"/>
<polygon fill="midnightblue" stroke="midnightblue" points="59.4,-171.49 50.17,-176.69 60.63,-178.38 59.4,-171.49"/>
</g>
<!-- Node7 -->
<g id="node8" class="node">
<title>Node7</title>
<g id="a_node8"><a xlink:href="classSGP30Sensor.html" target="_top" xlink:title="Implementation of a Sensor for the SGP Air Quality sensor.">
<polygon fill="none" stroke="black" points="93,-114.5 93,-133.5 174,-133.5 174,-114.5 93,-114.5"/>
<text text-anchor="middle" x="133.5" y="-121.5" font-family="Helvetica,sans-Serif" font-size="10.00">SGP30Sensor</text>
</a>
</g>
</g>
<!-- Node0&#45;&gt;Node7 -->
<g id="edge7" class="edge">
<title>Node0&#45;&gt;Node7</title>
<path fill="none" stroke="midnightblue" d="M48.47,-165.44C59.5,-158.15 73.16,-149.62 86,-143 92.51,-139.64 99.75,-136.44 106.55,-133.66"/>
<polygon fill="midnightblue" stroke="midnightblue" points="46.23,-162.73 39.89,-171.21 50.14,-168.53 46.23,-162.73"/>
</g>
<!-- Node8 -->
<g id="node9" class="node">
<title>Node8</title>
<g id="a_node9"><a xlink:href="classSHT31Sensor.html" target="_top" xlink:title="Interfaces with SHT31 Sensor to collect temperature and humidity data.">
<polygon fill="none" stroke="black" points="93,-76.5 93,-95.5 174,-95.5 174,-76.5 93,-76.5"/>
<text text-anchor="middle" x="133.5" y="-83.5" font-family="Helvetica,sans-Serif" font-size="10.00">SHT31Sensor</text>
</a>
</g>
</g>
<!-- Node0&#45;&gt;Node8 -->
<g id="edge8" class="edge">
<title>Node0&#45;&gt;Node8</title>
<path fill="none" stroke="midnightblue" d="M36.83,-162.32C47.47,-145.38 65.12,-120.72 86,-105 90.88,-101.33 96.56,-98.24 102.25,-95.7"/>
<polygon fill="midnightblue" stroke="midnightblue" points="33.59,-160.91 31.4,-171.28 39.58,-164.54 33.59,-160.91"/>
</g>
<!-- Node9 -->
<g id="node10" class="node">
<title>Node9</title>
<g id="a_node10"><a xlink:href="classTempSensor.html" target="_top" xlink:title="Implementation of a Sensor for the onboard temperature sensor.">
<polygon fill="none" stroke="black" points="95.5,-38.5 95.5,-57.5 171.5,-57.5 171.5,-38.5 95.5,-38.5"/>
<text text-anchor="middle" x="133.5" y="-45.5" font-family="Helvetica,sans-Serif" font-size="10.00">TempSensor</text>
</a>
</g>
</g>
<!-- Node0&#45;&gt;Node9 -->
<g id="edge9" class="edge">
<title>Node0&#45;&gt;Node9</title>
<path fill="none" stroke="midnightblue" d="M31.62,-161.55C39.78,-136.53 57.15,-93.19 86,-67 90.13,-63.25 95.1,-60.19 100.24,-57.7"/>
<polygon fill="midnightblue" stroke="midnightblue" points="28.21,-160.75 28.6,-171.34 34.9,-162.81 28.21,-160.75"/>
</g>
<!-- Node10 -->
<g id="node11" class="node">
<title>Node10</title>
<g id="a_node11"><a xlink:href="classZOPT220Sensor.html" target="_top" xlink:title="A class to interface with the ZOPT220x UV and ambient light sensor.">
<polygon fill="none" stroke="black" points="86.5,-0.5 86.5,-19.5 180.5,-19.5 180.5,-0.5 86.5,-0.5"/>
<text text-anchor="middle" x="133.5" y="-7.5" font-family="Helvetica,sans-Serif" font-size="10.00">ZOPT220Sensor</text>
</a>
</g>
</g>
<!-- Node0&#45;&gt;Node10 -->
<g id="edge10" class="edge">
<title>Node0&#45;&gt;Node10</title>
<path fill="none" stroke="midnightblue" d="M28.75,-161.15C34.16,-129.26 49.06,-66.38 86,-29 89.8,-25.15 94.49,-22.06 99.41,-19.57"/>
<polygon fill="midnightblue" stroke="midnightblue" points="25.24,-160.98 27.16,-171.4 32.15,-162.05 25.24,-160.98"/>
</g>
</g>
</svg>
