<?xml version="1.0" encoding="UTF-8" standalone="no"?>
<!DOCTYPE svg PUBLIC "-//W3C//DTD SVG 1.1//EN"
 "http://www.w3.org/Graphics/SVG/1.1/DTD/svg11.dtd">
<!-- Generated by graphviz version 2.43.0 (0)
 -->
<!-- Title: Graphical Class Hierarchy Pages: 1 -->
<svg width="189pt" height="522pt"
 viewBox="0.00 0.00 189.00 522.00" xmlns="http://www.w3.org/2000/svg" xmlns:xlink="http://www.w3.org/1999/xlink">
<g id="graph0" class="graph" transform="scale(1 1) rotate(0) translate(4 518)">
<title>Graphical Class Hierarchy</title>
<!-- Node0 -->
<g id="node1" class="node">
<title>Node0</title>
<g id="a_node1"><a xlink:href="classSensor.html" target="_top" xlink:title="Parent class for sensor objects.">
<polygon fill="none" stroke="black" points="0,-247.5 0,-266.5 50,-266.5 50,-247.5 0,-247.5"/>
<text text-anchor="middle" x="25" y="-254.5" font-family="Helvetica,sans-Serif" font-size="10.00">Sensor</text>
</a>
</g>
</g>
<!-- Node1 -->
<g id="node2" class="node">
<title>Node1</title>
<g id="a_node2"><a xlink:href="classAS7331Sensor.html" target="_top" xlink:title="Implementation of a Sensor for UVA/B/C sensor.">
<polygon fill="none" stroke="black" points="90.5,-494.5 90.5,-513.5 176.5,-513.5 176.5,-494.5 90.5,-494.5"/>
<text text-anchor="middle" x="133.5" y="-501.5" font-family="Helvetica,sans-Serif" font-size="10.00">AS7331Sensor</text>
</a>
</g>
</g>
<!-- Node0&#45;&gt;Node1 -->
<g id="edge1" class="edge">
<title>Node0&#45;&gt;Node1</title>
<path fill="none" stroke="midnightblue" d="M25.61,-276.64C25.81,-319.75 32.23,-423.71 86,-485 89.34,-488.8 93.55,-491.86 98.07,-494.31"/>
<polygon fill="midnightblue" stroke="midnightblue" points="29.11,-276.64 25.67,-266.61 22.11,-276.59 29.11,-276.64"/>
</g>
<!-- Node2 -->
<g id="node3" class="node">
<title>Node2</title>
<g id="a_node3"><a xlink:href="classAnalogSensor.html" target="_top" xlink:title="Implementation of a Sensor for the analog readings.">
<polygon fill="none" stroke="black" points="92,-456.5 92,-475.5 175,-475.5 175,-456.5 92,-456.5"/>
<text text-anchor="middle" x="133.5" y="-463.5" font-family="Helvetica,sans-Serif" font-size="10.00">AnalogSensor</text>
</a>
</g>
</g>
<!-- Node0&#45;&gt;Node2 -->
<g id="edge2" class="edge">
<title>Node0&#45;&gt;Node2</title>
<path fill="none" stroke="midnightblue" d="M26.89,-276.92C29.63,-314.81 40.76,-397.89 86,-447 89.55,-450.85 93.98,-453.94 98.7,-456.41"/>
<polygon fill="midnightblue" stroke="midnightblue" points="30.37,-276.47 26.28,-266.69 23.39,-276.88 30.37,-276.47"/>
</g>
<!-- Node3 -->
<g id="node4" class="node">
<title>Node3</title>
<g id="a_node4"><a xlink:href="classBME280Sensor.html" target="_top" xlink:title="Implementation of a Sensor for the BME280.">
<polygon fill="none" stroke="black" points="89,-418.5 89,-437.5 178,-437.5 178,-418.5 89,-418.5"/>
<text text-anchor="middle" x="133.5" y="-425.5" font-family="Helvetica,sans-Serif" font-size="10.00">BME280Sensor</text>
</a>
</g>
</g>
<!-- Node0&#45;&gt;Node3 -->
<g id="edge3" class="edge">
<title>Node0&#45;&gt;Node3</title>
<path fill="none" stroke="midnightblue" d="M28.75,-276.85C34.16,-308.74 49.06,-371.62 86,-409 89.8,-412.85 94.49,-415.94 99.41,-418.43"/>
<polygon fill="midnightblue" stroke="midnightblue" points="32.15,-275.95 27.16,-266.6 25.24,-277.02 32.15,-275.95"/>
</g>
<!-- Node4 -->
<g id="node5" class="node">
<title>Node4</title>
<g id="a_node5"><a xlink:href="classBME680Sensor.html" target="_top" xlink:title="A class to interface with the Adafruit BME680 sensor for environmental data collection.">
<polygon fill="none" stroke="black" points="89,-380.5 89,-399.5 178,-399.5 178,-380.5 89,-380.5"/>
<text text-anchor="middle" x="133.5" y="-387.5" font-family="Helvetica,sans-Serif" font-size="10.00">BME680Sensor</text>
</a>
</g>
</g>
<!-- Node0&#45;&gt;Node4 -->
<g id="edge4" class="edge">
<title>Node0&#45;&gt;Node4</title>
<path fill="none" stroke="midnightblue" d="M31.62,-276.45C39.78,-301.47 57.15,-344.81 86,-371 90.13,-374.75 95.1,-377.81 100.24,-380.3"/>
<polygon fill="midnightblue" stroke="midnightblue" points="34.9,-275.19 28.6,-266.66 28.21,-277.25 34.9,-275.19"/>
</g>
<!-- Node5 -->
<g id="node6" class="node">
<title>Node5</title>
<g id="a_node6"><a xlink:href="classDS3231Sensor.html" target="_top" xlink:title="Implementation of a Sensor for the DS3231 Real Time Clock.">
<polygon fill="none" stroke="black" points="90,-342.5 90,-361.5 177,-361.5 177,-342.5 90,-342.5"/>
<text text-anchor="middle" x="133.5" y="-349.5" font-family="Helvetica,sans-Serif" font-size="10.00">DS3231Sensor</text>
</a>
</g>
</g>
<!-- Node0&#45;&gt;Node5 -->
<g id="edge5" class="edge">
<title>Node0&#45;&gt;Node5</title>
<path fill="none" stroke="midnightblue" d="M36.83,-275.68C47.47,-292.62 65.12,-317.28 86,-333 90.88,-336.67 96.56,-339.76 102.25,-342.3"/>
<polygon fill="midnightblue" stroke="midnightblue" points="39.58,-273.46 31.4,-266.72 33.59,-277.09 39.58,-273.46"/>
</g>
<!-- Node6 -->
<g id="node7" class="node">
<title>Node6</title>
<g id="a_node7"><a xlink:href="classENS160Sensor.html" target="_top" xlink:title="Implementation of a Sensor for the ENS160.">
<polygon fill="none" stroke="black" points="90,-304.5 90,-323.5 177,-323.5 177,-304.5 90,-304.5"/>
<text text-anchor="middle" x="133.5" y="-311.5" font-family="Helvetica,sans-Serif" font-size="10.00">ENS160Sensor</text>
</a>
</g>
</g>
<!-- Node0&#45;&gt;Node6 -->
<g id="edge6" class="edge">
<title>Node0&#45;&gt;Node6</title>
<path fill="none" stroke="midnightblue" d="M48.47,-272.56C59.5,-279.85 73.16,-288.38 86,-295 92.51,-298.36 99.75,-301.56 106.55,-304.34"/>
<polygon fill="midnightblue" stroke="midnightblue" points="50.14,-269.47 39.89,-266.79 46.23,-275.27 50.14,-269.47"/>
</g>
<!-- Node7 -->
<g id="node8" class="node">
<title>Node7</title>
<g id="a_node8"><a xlink:href="classGeigerSensor.html" target="_top" xlink:title="A class for interfacing with a Geiger counter sensor.">
<polygon fill="none" stroke="black" points="92.5,-266.5 92.5,-285.5 174.5,-285.5 174.5,-266.5 92.5,-266.5"/>
<text text-anchor="middle" x="133.5" y="-273.5" font-family="Helvetica,sans-Serif" font-size="10.00">GeigerSensor</text>
</a>
</g>
</g>
<!-- Node0&#45;&gt;Node7 -->
<g id="edge7" class="edge">
<title>Node0&#45;&gt;Node7</title>
<path fill="none" stroke="midnightblue" d="M60.29,-263.12C70.43,-264.93 81.64,-266.93 92.13,-268.8"/>
<polygon fill="midnightblue" stroke="midnightblue" points="60.63,-259.62 50.17,-261.31 59.4,-266.51 60.63,-259.62"/>
</g>
<!-- Node8 -->
<g id="node9" class="node">
<title>Node8</title>
<g id="a_node9"><a xlink:href="classINA260Sensor.html" target="_top" xlink:title="A class to interface with the Adafruit INA260 sensor for current, voltage, and power measurements.">
<polygon fill="none" stroke="black" points="91,-228.5 91,-247.5 176,-247.5 176,-228.5 91,-228.5"/>
<text text-anchor="middle" x="133.5" y="-235.5" font-family="Helvetica,sans-Serif" font-size="10.00">INA260Sensor</text>
</a>
</g>
</g>
<!-- Node0&#45;&gt;Node8 -->
<g id="edge8" class="edge">
<title>Node0&#45;&gt;Node8</title>
<path fill="none" stroke="midnightblue" d="M60.28,-250.88C70.03,-249.15 80.74,-247.23 90.87,-245.43"/>
<polygon fill="midnightblue" stroke="midnightblue" points="59.4,-247.49 50.17,-252.69 60.63,-254.38 59.4,-247.49"/>
</g>
<!-- Node9 -->
<g id="node10" class="node">
<title>Node9</title>
<g id="a_node10"><a xlink:href="classLSM9DS1Sensor.html" target="_top" xlink:title="Implementation of the Sensor class for the LSM9DS1 (9&#45;axis IMU)">
<polygon fill="none" stroke="black" points="86,-190.5 86,-209.5 181,-209.5 181,-190.5 86,-190.5"/>
<text text-anchor="middle" x="133.5" y="-197.5" font-family="Helvetica,sans-Serif" font-size="10.00">LSM9DS1Sensor</text>
</a>
</g>
</g>
<!-- Node0&#45;&gt;Node9 -->
<g id="edge9" class="edge">
<title>Node0&#45;&gt;Node9</title>
<path fill="none" stroke="midnightblue" d="M48.47,-241.44C59.5,-234.15 73.16,-225.62 86,-219 92.51,-215.64 99.75,-212.44 106.55,-209.66"/>
<polygon fill="midnightblue" stroke="midnightblue" points="46.23,-238.73 39.89,-247.21 50.14,-244.53 46.23,-238.73"/>
</g>
<!-- Node10 -->
<g id="node11" class="node">
<title>Node10</title>
<g id="a_node11"><a xlink:href="classMTK3339Sensor.html" target="_top" xlink:title="Implementation of the Adafruit MTK3339 GPS sensor.">
<polygon fill="none" stroke="black" points="86,-152.5 86,-171.5 181,-171.5 181,-152.5 86,-152.5"/>
<text text-anchor="middle" x="133.5" y="-159.5" font-family="Helvetica,sans-Serif" font-size="10.00">MTK3339Sensor</text>
</a>
</g>
</g>
<!-- Node0&#45;&gt;Node10 -->
<g id="edge10" class="edge">
<title>Node0&#45;&gt;Node10</title>
<path fill="none" stroke="midnightblue" d="M36.83,-238.32C47.47,-221.38 65.12,-196.72 86,-181 90.88,-177.33 96.56,-174.24 102.25,-171.7"/>
<polygon fill="midnightblue" stroke="midnightblue" points="33.59,-236.91 31.4,-247.28 39.58,-240.54 33.59,-236.91"/>
</g>
<!-- Node11 -->
<g id="node12" class="node">
<title>Node11</title>
<g id="a_node12"><a xlink:href="classSGP30Sensor.html" target="_top" xlink:title="Implementation of a Sensor for the SGP Air Quality sensor.">
<polygon fill="none" stroke="black" points="93,-114.5 93,-133.5 174,-133.5 174,-114.5 93,-114.5"/>
<text text-anchor="middle" x="133.5" y="-121.5" font-family="Helvetica,sans-Serif" font-size="10.00">SGP30Sensor</text>
</a>
</g>
</g>
<!-- Node0&#45;&gt;Node11 -->
<g id="edge11" class="edge">
<title>Node0&#45;&gt;Node11</title>
<path fill="none" stroke="midnightblue" d="M31.62,-237.55C39.78,-212.53 57.15,-169.19 86,-143 90.13,-139.25 95.1,-136.19 100.24,-133.7"/>
<polygon fill="midnightblue" stroke="midnightblue" points="28.21,-236.75 28.6,-247.34 34.9,-238.81 28.21,-236.75"/>
</g>
<!-- Node12 -->
<g id="node13" class="node">
<title>Node12</title>
<g id="a_node13"><a xlink:href="classSHT31Sensor.html" target="_top" xlink:title="Interfaces with SHT31 Sensor to collect temperature and humidity data.">
<polygon fill="none" stroke="black" points="93,-76.5 93,-95.5 174,-95.5 174,-76.5 93,-76.5"/>
<text text-anchor="middle" x="133.5" y="-83.5" font-family="Helvetica,sans-Serif" font-size="10.00">SHT31Sensor</text>
</a>
</g>
</g>
<!-- Node0&#45;&gt;Node12 -->
<g id="edge12" class="edge">
<title>Node0&#45;&gt;Node12</title>
<path fill="none" stroke="midnightblue" d="M28.75,-237.15C34.16,-205.26 49.06,-142.38 86,-105 89.8,-101.15 94.49,-98.06 99.41,-95.57"/>
<polygon fill="midnightblue" stroke="midnightblue" points="25.24,-236.98 27.16,-247.4 32.15,-238.05 25.24,-236.98"/>
</g>
<!-- Node13 -->
<g id="node14" class="node">
<title>Node13</title>
<g id="a_node14"><a xlink:href="classTempSensor.html" target="_top" xlink:title="Implementation of a Sensor for the onboard temperature sensor.">
<polygon fill="none" stroke="black" points="95.5,-38.5 95.5,-57.5 171.5,-57.5 171.5,-38.5 95.5,-38.5"/>
<text text-anchor="middle" x="133.5" y="-45.5" font-family="Helvetica,sans-Serif" font-size="10.00">TempSensor</text>
</a>
</g>
</g>
<!-- Node0&#45;&gt;Node13 -->
<g id="edge13" class="edge">
<title>Node0&#45;&gt;Node13</title>
<path fill="none" stroke="midnightblue" d="M26.89,-237.08C29.63,-199.19 40.76,-116.11 86,-67 89.55,-63.15 93.98,-60.06 98.7,-57.59"/>
<polygon fill="midnightblue" stroke="midnightblue" points="23.39,-237.12 26.28,-247.31 30.37,-237.53 23.39,-237.12"/>
</g>
<!-- Node14 -->
<g id="node15" class="node">
<title>Node14</title>
<g id="a_node15"><a xlink:href="classZOPT220Sensor.html" target="_top" xlink:title="A class to interface with the ZOPT220x UV and ambient light sensor.">
<polygon fill="none" stroke="black" points="86.5,-0.5 86.5,-19.5 180.5,-19.5 180.5,-0.5 86.5,-0.5"/>
<text text-anchor="middle" x="133.5" y="-7.5" font-family="Helvetica,sans-Serif" font-size="10.00">ZOPT220Sensor</text>
</a>
</g>
</g>
<!-- Node0&#45;&gt;Node14 -->
<g id="edge14" class="edge">
<title>Node0&#45;&gt;Node14</title>
<path fill="none" stroke="midnightblue" d="M25.61,-237.36C25.81,-194.25 32.23,-90.29 86,-29 89.34,-25.2 93.55,-22.14 98.07,-19.69"/>
<polygon fill="midnightblue" stroke="midnightblue" points="22.11,-237.41 25.67,-247.39 29.11,-237.36 22.11,-237.41"/>
</g>
</g>
</svg>
