<?xml version="1.0" encoding="UTF-8" standalone="no"?>
<!DOCTYPE svg PUBLIC "-//W3C//DTD SVG 1.1//EN"
 "http://www.w3.org/Graphics/SVG/1.1/DTD/svg11.dtd">
<!-- Generated by graphviz version 2.43.0 (0)
 -->
<!-- Title: Graphical Class Hierarchy Pages: 1 -->
<svg width="189pt" height="294pt"
 viewBox="0.00 0.00 189.00 294.00" xmlns="http://www.w3.org/2000/svg" xmlns:xlink="http://www.w3.org/1999/xlink">
<g id="graph0" class="graph" transform="scale(1 1) rotate(0) translate(4 290)">
<title>Graphical Class Hierarchy</title>
<!-- Node0 -->
<g id="node1" class="node">
<title>Node0</title>
<g id="a_node1"><a xlink:href="classSensor.html" target="_top" xlink:title="Parent class for sensor objects.">
<polygon fill="none" stroke="black" points="0,-133.5 0,-152.5 50,-152.5 50,-133.5 0,-133.5"/>
<text text-anchor="middle" x="25" y="-140.5" font-family="Helvetica,sans-Serif" font-size="10.00">Sensor</text>
</a>
</g>
</g>
<!-- Node1 -->
<g id="node2" class="node">
<title>Node1</title>
<g id="a_node2"><a xlink:href="classAnalogSensor.html" target="_top" xlink:title="Implementation of a Sensor for the analog readings.">
<polygon fill="none" stroke="black" points="92,-266.5 92,-285.5 175,-285.5 175,-266.5 92,-266.5"/>
<text text-anchor="middle" x="133.5" y="-273.5" font-family="Helvetica,sans-Serif" font-size="10.00">AnalogSensor</text>
</a>
</g>
</g>
<!-- Node0&#45;&gt;Node1 -->
<g id="edge1" class="edge">
<title>Node0&#45;&gt;Node1</title>
<path fill="none" stroke="midnightblue" d="M31.62,-162.45C39.78,-187.47 57.15,-230.81 86,-257 90.13,-260.75 95.1,-263.81 100.24,-266.3"/>
<polygon fill="midnightblue" stroke="midnightblue" points="34.9,-161.19 28.6,-152.66 28.21,-163.25 34.9,-161.19"/>
</g>
<!-- Node2 -->
<g id="node3" class="node">
<title>Node2</title>
<g id="a_node3"><a xlink:href="classBME680Sensor.html" target="_top" xlink:title="A class to interface with the Adafruit BME680 sensor for environmental data collection.">
<polygon fill="none" stroke="black" points="89,-228.5 89,-247.5 178,-247.5 178,-228.5 89,-228.5"/>
<text text-anchor="middle" x="133.5" y="-235.5" font-family="Helvetica,sans-Serif" font-size="10.00">BME680Sensor</text>
</a>
</g>
</g>
<!-- Node0&#45;&gt;Node2 -->
<g id="edge2" class="edge">
<title>Node0&#45;&gt;Node2</title>
<path fill="none" stroke="midnightblue" d="M36.83,-161.68C47.47,-178.62 65.12,-203.28 86,-219 90.88,-222.67 96.56,-225.76 102.25,-228.3"/>
<polygon fill="midnightblue" stroke="midnightblue" points="39.58,-159.46 31.4,-152.72 33.59,-163.09 39.58,-159.46"/>
</g>
<!-- Node3 -->
<g id="node4" class="node">
<title>Node3</title>
<g id="a_node4"><a xlink:href="classGeigerSensor.html" target="_top" xlink:title="A class for interfacing with a Geiger counter sensor.">
<polygon fill="none" stroke="black" points="92.5,-190.5 92.5,-209.5 174.5,-209.5 174.5,-190.5 92.5,-190.5"/>
<text text-anchor="middle" x="133.5" y="-197.5" font-family="Helvetica,sans-Serif" font-size="10.00">GeigerSensor</text>
</a>
</g>
</g>
<!-- Node0&#45;&gt;Node3 -->
<g id="edge3" class="edge">
<title>Node0&#45;&gt;Node3</title>
<path fill="none" stroke="midnightblue" d="M48.47,-158.56C59.5,-165.85 73.16,-174.38 86,-181 92.51,-184.36 99.75,-187.56 106.55,-190.34"/>
<polygon fill="midnightblue" stroke="midnightblue" points="50.14,-155.47 39.89,-152.79 46.23,-161.27 50.14,-155.47"/>
</g>
<!-- Node4 -->
<g id="node5" class="node">
<title>Node4</title>
<g id="a_node5"><a xlink:href="classINA260Sensor.html" target="_top" xlink:title="A class to interface with the Adafruit INA260 sensor for current, voltage, and power measurements.">
<polygon fill="none" stroke="black" points="91,-152.5 91,-171.5 176,-171.5 176,-152.5 91,-152.5"/>
<text text-anchor="middle" x="133.5" y="-159.5" font-family="Helvetica,sans-Serif" font-size="10.00">INA260Sensor</text>
</a>
</g>
</g>
<!-- Node0&#45;&gt;Node4 -->
<g id="edge4" class="edge">
<title>Node0&#45;&gt;Node4</title>
<path fill="none" stroke="midnightblue" d="M60.28,-149.12C70.03,-150.85 80.74,-152.77 90.87,-154.57"/>
<polygon fill="midnightblue" stroke="midnightblue" points="60.63,-145.62 50.17,-147.31 59.4,-152.51 60.63,-145.62"/>
</g>
<!-- Node5 -->
<g id="node6" class="node">
<title>Node5</title>
<g id="a_node6"><a xlink:href="classLSM9DS1Sensor.html" target="_top" xlink:title="Implementation of the Sensor class for the LSM9DS1 (9&#45;axis IMU)">
<polygon fill="none" stroke="black" points="86,-114.5 86,-133.5 181,-133.5 181,-114.5 86,-114.5"/>
<text text-anchor="middle" x="133.5" y="-121.5" font-family="Helvetica,sans-Serif" font-size="10.00">LSM9DS1Sensor</text>
</a>
</g>
</g>
<!-- Node0&#45;&gt;Node5 -->
<g id="edge5" class="edge">
<title>Node0&#45;&gt;Node5</title>
<path fill="none" stroke="midnightblue" d="M60.08,-136.92C68.25,-135.46 77.12,-133.88 85.76,-132.34"/>
<polygon fill="midnightblue" stroke="midnightblue" points="59.4,-133.49 50.17,-138.69 60.63,-140.38 59.4,-133.49"/>
</g>
<!-- Node6 -->
<g id="node7" class="node">
<title>Node6</title>
<g id="a_node7"><a xlink:href="classSHT31Sensor.html" target="_top" xlink:title="Interfaces with SHT31 Sensor to collect temperature and humidity data.">
<polygon fill="none" stroke="black" points="93,-76.5 93,-95.5 174,-95.5 174,-76.5 93,-76.5"/>
<text text-anchor="middle" x="133.5" y="-83.5" font-family="Helvetica,sans-Serif" font-size="10.00">SHT31Sensor</text>
</a>
</g>
</g>
<!-- Node0&#45;&gt;Node6 -->
<g id="edge6" class="edge">
<title>Node0&#45;&gt;Node6</title>
<path fill="none" stroke="midnightblue" d="M48.47,-127.44C59.5,-120.15 73.16,-111.62 86,-105 92.51,-101.64 99.75,-98.44 106.55,-95.66"/>
<polygon fill="midnightblue" stroke="midnightblue" points="46.23,-124.73 39.89,-133.21 50.14,-130.53 46.23,-124.73"/>
</g>
<!-- Node7 -->
<g id="node8" class="node">
<title>Node7</title>
<g id="a_node8"><a xlink:href="classTempSensor.html" target="_top" xlink:title="Implementation of a Sensor for the onboard temperature sensor.">
<polygon fill="none" stroke="black" points="95.5,-38.5 95.5,-57.5 171.5,-57.5 171.5,-38.5 95.5,-38.5"/>
<text text-anchor="middle" x="133.5" y="-45.5" font-family="Helvetica,sans-Serif" font-size="10.00">TempSensor</text>
</a>
</g>
</g>
<!-- Node0&#45;&gt;Node7 -->
<g id="edge7" class="edge">
<title>Node0&#45;&gt;Node7</title>
<path fill="none" stroke="midnightblue" d="M36.83,-124.32C47.47,-107.38 65.12,-82.72 86,-67 90.88,-63.33 96.56,-60.24 102.25,-57.7"/>
<polygon fill="midnightblue" stroke="midnightblue" points="33.59,-122.91 31.4,-133.28 39.58,-126.54 33.59,-122.91"/>
</g>
<!-- Node8 -->
<g id="node9" class="node">
<title>Node8</title>
<g id="a_node9"><a xlink:href="classZOPT220Sensor.html" target="_top" xlink:title="A class to interface with the ZOPT220x UV and ambient light sensor.">
<polygon fill="none" stroke="black" points="86.5,-0.5 86.5,-19.5 180.5,-19.5 180.5,-0.5 86.5,-0.5"/>
<text text-anchor="middle" x="133.5" y="-7.5" font-family="Helvetica,sans-Serif" font-size="10.00">ZOPT220Sensor</text>
</a>
</g>
</g>
<!-- Node0&#45;&gt;Node8 -->
<g id="edge8" class="edge">
<title>Node0&#45;&gt;Node8</title>
<path fill="none" stroke="midnightblue" d="M31.62,-123.55C39.78,-98.53 57.15,-55.19 86,-29 90.13,-25.25 95.1,-22.19 100.24,-19.7"/>
<polygon fill="midnightblue" stroke="midnightblue" points="28.21,-122.75 28.6,-133.34 34.9,-124.81 28.21,-122.75"/>
</g>
</g>
</svg>
