<?xml version="1.0" encoding="UTF-8" standalone="no"?>
<!DOCTYPE svg PUBLIC "-//W3C//DTD SVG 1.1//EN"
 "http://www.w3.org/Graphics/SVG/1.1/DTD/svg11.dtd">
<!-- Generated by graphviz version 2.43.0 (0)
 -->
<!-- Title: Graphical Class Hierarchy Pages: 1 -->
<svg width="189pt" height="484pt"
 viewBox="0.00 0.00 189.00 484.00" xmlns="http://www.w3.org/2000/svg" xmlns:xlink="http://www.w3.org/1999/xlink">
<g id="graph0" class="graph" transform="scale(1 1) rotate(0) translate(4 480)">
<title>Graphical Class Hierarchy</title>
<!-- Node0 -->
<g id="node1" class="node">
<title>Node0</title>
<g id="a_node1"><a xlink:href="classSensor.html" target="_top" xlink:title="Parent class for sensor objects.">
<polygon fill="none" stroke="black" points="0,-228.5 0,-247.5 50,-247.5 50,-228.5 0,-228.5"/>
<text text-anchor="middle" x="25" y="-235.5" font-family="Helvetica,sans-Serif" font-size="10.00">Sensor</text>
</a>
</g>
</g>
<!-- Node1 -->
<g id="node2" class="node">
<title>Node1</title>
<g id="a_node2"><a xlink:href="classAS7331Sensor.html" target="_top" xlink:title=" ">
<polygon fill="none" stroke="black" points="90.5,-456.5 90.5,-475.5 176.5,-475.5 176.5,-456.5 90.5,-456.5"/>
<text text-anchor="middle" x="133.5" y="-463.5" font-family="Helvetica,sans-Serif" font-size="10.00">AS7331Sensor</text>
</a>
</g>
</g>
<!-- Node0&#45;&gt;Node1 -->
<g id="edge1" class="edge">
<title>Node0&#45;&gt;Node1</title>
<path fill="none" stroke="midnightblue" d="M26.2,-257.92C27.66,-298.57 36.56,-391.9 86,-447 89.49,-450.89 93.9,-454.01 98.61,-456.49"/>
<polygon fill="midnightblue" stroke="midnightblue" points="29.69,-257.63 25.95,-247.72 22.69,-257.8 29.69,-257.63"/>
</g>
<!-- Node2 -->
<g id="node3" class="node">
<title>Node2</title>
<g id="a_node3"><a xlink:href="classAnalogSensor.html" target="_top" xlink:title="Implementation of a Sensor for the analog readings.">
<polygon fill="none" stroke="black" points="92,-418.5 92,-437.5 175,-437.5 175,-418.5 92,-418.5"/>
<text text-anchor="middle" x="133.5" y="-425.5" font-family="Helvetica,sans-Serif" font-size="10.00">AnalogSensor</text>
</a>
</g>
</g>
<!-- Node0&#45;&gt;Node2 -->
<g id="edge2" class="edge">
<title>Node0&#45;&gt;Node2</title>
<path fill="none" stroke="midnightblue" d="M27.72,-257.84C31.77,-292.8 44.9,-365.78 86,-409 89.61,-412.79 94.08,-415.85 98.81,-418.31"/>
<polygon fill="midnightblue" stroke="midnightblue" points="31.17,-257.13 26.67,-247.53 24.2,-257.84 31.17,-257.13"/>
</g>
<!-- Node3 -->
<g id="node4" class="node">
<title>Node3</title>
<g id="a_node4"><a xlink:href="classBME280Sensor.html" target="_top" xlink:title="Implementation of a Sensor for the BME280.">
<polygon fill="none" stroke="black" points="89,-380.5 89,-399.5 178,-399.5 178,-380.5 89,-380.5"/>
<text text-anchor="middle" x="133.5" y="-387.5" font-family="Helvetica,sans-Serif" font-size="10.00">BME280Sensor</text>
</a>
</g>
</g>
<!-- Node0&#45;&gt;Node3 -->
<g id="edge3" class="edge">
<title>Node0&#45;&gt;Node3</title>
<path fill="none" stroke="midnightblue" d="M30.04,-257.79C36.84,-286.4 53.17,-339.33 86,-371 89.89,-374.75 94.63,-377.8 99.57,-380.27"/>
<polygon fill="midnightblue" stroke="midnightblue" points="33.4,-256.8 27.82,-247.79 26.57,-258.31 33.4,-256.8"/>
</g>
<!-- Node4 -->
<g id="node5" class="node">
<title>Node4</title>
<g id="a_node5"><a xlink:href="classBME680Sensor.html" target="_top" xlink:title="A class to interface with the Adafruit BME680 sensor for environmental data collection.">
<polygon fill="none" stroke="black" points="89,-342.5 89,-361.5 178,-361.5 178,-342.5 89,-342.5"/>
<text text-anchor="middle" x="133.5" y="-349.5" font-family="Helvetica,sans-Serif" font-size="10.00">BME680Sensor</text>
</a>
</g>
</g>
<!-- Node0&#45;&gt;Node4 -->
<g id="edge4" class="edge">
<title>Node0&#45;&gt;Node4</title>
<path fill="none" stroke="midnightblue" d="M33.71,-256.98C43.17,-278.13 61.08,-312.11 86,-333 90.54,-336.81 95.96,-339.94 101.45,-342.47"/>
<polygon fill="midnightblue" stroke="midnightblue" points="36.91,-255.55 29.75,-247.74 30.47,-258.31 36.91,-255.55"/>
</g>
<!-- Node5 -->
<g id="node6" class="node">
<title>Node5</title>
<g id="a_node6"><a xlink:href="classENS160Sensor.html" target="_top" xlink:title="Implementation of a Sensor for the ENS160.">
<polygon fill="none" stroke="black" points="90,-304.5 90,-323.5 177,-323.5 177,-304.5 90,-304.5"/>
<text text-anchor="middle" x="133.5" y="-311.5" font-family="Helvetica,sans-Serif" font-size="10.00">ENS160Sensor</text>
</a>
</g>
</g>
<!-- Node0&#45;&gt;Node5 -->
<g id="edge5" class="edge">
<title>Node0&#45;&gt;Node5</title>
<path fill="none" stroke="midnightblue" d="M41.05,-255.42C52.42,-267.74 68.94,-283.97 86,-295 91.57,-298.6 97.93,-301.73 104.12,-304.37"/>
<polygon fill="midnightblue" stroke="midnightblue" points="43.34,-252.73 34.06,-247.62 38.13,-257.4 43.34,-252.73"/>
</g>
<!-- Node6 -->
<g id="node7" class="node">
<title>Node6</title>
<g id="a_node7"><a xlink:href="classGeigerSensor.html" target="_top" xlink:title="A class for interfacing with a Geiger counter sensor.">
<polygon fill="none" stroke="black" points="92.5,-266.5 92.5,-285.5 174.5,-285.5 174.5,-266.5 92.5,-266.5"/>
<text text-anchor="middle" x="133.5" y="-273.5" font-family="Helvetica,sans-Serif" font-size="10.00">GeigerSensor</text>
</a>
</g>
</g>
<!-- Node0&#45;&gt;Node6 -->
<g id="edge6" class="edge">
<title>Node0&#45;&gt;Node6</title>
<path fill="none" stroke="midnightblue" d="M59.99,-250.13C74.81,-255.42 91.93,-261.52 105.81,-266.48"/>
<polygon fill="midnightblue" stroke="midnightblue" points="60.76,-246.69 50.17,-246.62 58.41,-253.28 60.76,-246.69"/>
</g>
<!-- Node7 -->
<g id="node8" class="node">
<title>Node7</title>
<g id="a_node8"><a xlink:href="classINA260Sensor.html" target="_top" xlink:title="A class to interface with the Adafruit INA260 sensor for current, voltage, and power measurements.">
<polygon fill="none" stroke="black" points="91,-228.5 91,-247.5 176,-247.5 176,-228.5 91,-228.5"/>
<text text-anchor="middle" x="133.5" y="-235.5" font-family="Helvetica,sans-Serif" font-size="10.00">INA260Sensor</text>
</a>
</g>
</g>
<!-- Node0&#45;&gt;Node7 -->
<g id="edge7" class="edge">
<title>Node0&#45;&gt;Node7</title>
<path fill="none" stroke="midnightblue" d="M60.28,-238C70.03,-238 80.74,-238 90.87,-238"/>
<polygon fill="midnightblue" stroke="midnightblue" points="60.17,-234.5 50.17,-238 60.17,-241.5 60.17,-234.5"/>
</g>
<!-- Node8 -->
<g id="node9" class="node">
<title>Node8</title>
<g id="a_node9"><a xlink:href="classLSM9DS1Sensor.html" target="_top" xlink:title="Implementation of the Sensor class for the LSM9DS1 (9&#45;axis IMU)">
<polygon fill="none" stroke="black" points="86,-190.5 86,-209.5 181,-209.5 181,-190.5 86,-190.5"/>
<text text-anchor="middle" x="133.5" y="-197.5" font-family="Helvetica,sans-Serif" font-size="10.00">LSM9DS1Sensor</text>
</a>
</g>
</g>
<!-- Node0&#45;&gt;Node8 -->
<g id="edge8" class="edge">
<title>Node0&#45;&gt;Node8</title>
<path fill="none" stroke="midnightblue" d="M59.99,-225.87C74.81,-220.58 91.93,-214.48 105.81,-209.52"/>
<polygon fill="midnightblue" stroke="midnightblue" points="58.41,-222.72 50.17,-229.38 60.76,-229.31 58.41,-222.72"/>
</g>
<!-- Node9 -->
<g id="node10" class="node">
<title>Node9</title>
<g id="a_node10"><a xlink:href="classMTK3339Sensor.html" target="_top" xlink:title="Implementation of the Adafruit MTK3339 GPS sensor.">
<polygon fill="none" stroke="black" points="86,-152.5 86,-171.5 181,-171.5 181,-152.5 86,-152.5"/>
<text text-anchor="middle" x="133.5" y="-159.5" font-family="Helvetica,sans-Serif" font-size="10.00">MTK3339Sensor</text>
</a>
</g>
</g>
<!-- Node0&#45;&gt;Node9 -->
<g id="edge9" class="edge">
<title>Node0&#45;&gt;Node9</title>
<path fill="none" stroke="midnightblue" d="M41.05,-220.58C52.42,-208.26 68.94,-192.03 86,-181 91.57,-177.4 97.93,-174.27 104.12,-171.63"/>
<polygon fill="midnightblue" stroke="midnightblue" points="38.13,-218.6 34.06,-228.38 43.34,-223.27 38.13,-218.6"/>
</g>
<!-- Node10 -->
<g id="node11" class="node">
<title>Node10</title>
<g id="a_node11"><a xlink:href="classSGP30Sensor.html" target="_top" xlink:title="Implementation of a Sensor for the SGP Air Quality sensor.">
<polygon fill="none" stroke="black" points="93,-114.5 93,-133.5 174,-133.5 174,-114.5 93,-114.5"/>
<text text-anchor="middle" x="133.5" y="-121.5" font-family="Helvetica,sans-Serif" font-size="10.00">SGP30Sensor</text>
</a>
</g>
</g>
<!-- Node0&#45;&gt;Node10 -->
<g id="edge10" class="edge">
<title>Node0&#45;&gt;Node10</title>
<path fill="none" stroke="midnightblue" d="M33.71,-219.02C43.17,-197.87 61.08,-163.89 86,-143 90.54,-139.19 95.96,-136.06 101.45,-133.53"/>
<polygon fill="midnightblue" stroke="midnightblue" points="30.47,-217.69 29.75,-228.26 36.91,-220.45 30.47,-217.69"/>
</g>
<!-- Node11 -->
<g id="node12" class="node">
<title>Node11</title>
<g id="a_node12"><a xlink:href="classSHT31Sensor.html" target="_top" xlink:title="Interfaces with SHT31 Sensor to collect temperature and humidity data.">
<polygon fill="none" stroke="black" points="93,-76.5 93,-95.5 174,-95.5 174,-76.5 93,-76.5"/>
<text text-anchor="middle" x="133.5" y="-83.5" font-family="Helvetica,sans-Serif" font-size="10.00">SHT31Sensor</text>
</a>
</g>
</g>
<!-- Node0&#45;&gt;Node11 -->
<g id="edge11" class="edge">
<title>Node0&#45;&gt;Node11</title>
<path fill="none" stroke="midnightblue" d="M30.04,-218.21C36.84,-189.6 53.17,-136.67 86,-105 89.89,-101.25 94.63,-98.2 99.57,-95.73"/>
<polygon fill="midnightblue" stroke="midnightblue" points="26.57,-217.69 27.82,-228.21 33.4,-219.2 26.57,-217.69"/>
</g>
<!-- Node12 -->
<g id="node13" class="node">
<title>Node12</title>
<g id="a_node13"><a xlink:href="classTempSensor.html" target="_top" xlink:title="Implementation of a Sensor for the onboard temperature sensor.">
<polygon fill="none" stroke="black" points="95.5,-38.5 95.5,-57.5 171.5,-57.5 171.5,-38.5 95.5,-38.5"/>
<text text-anchor="middle" x="133.5" y="-45.5" font-family="Helvetica,sans-Serif" font-size="10.00">TempSensor</text>
</a>
</g>
</g>
<!-- Node0&#45;&gt;Node12 -->
<g id="edge12" class="edge">
<title>Node0&#45;&gt;Node12</title>
<path fill="none" stroke="midnightblue" d="M27.72,-218.16C31.77,-183.2 44.9,-110.22 86,-67 89.61,-63.21 94.08,-60.15 98.81,-57.69"/>
<polygon fill="midnightblue" stroke="midnightblue" points="24.2,-218.16 26.67,-228.47 31.17,-218.87 24.2,-218.16"/>
</g>
<!-- Node13 -->
<g id="node14" class="node">
<title>Node13</title>
<g id="a_node14"><a xlink:href="classZOPT220Sensor.html" target="_top" xlink:title="A class to interface with the ZOPT220x UV and ambient light sensor.">
<polygon fill="none" stroke="black" points="86.5,-0.5 86.5,-19.5 180.5,-19.5 180.5,-0.5 86.5,-0.5"/>
<text text-anchor="middle" x="133.5" y="-7.5" font-family="Helvetica,sans-Serif" font-size="10.00">ZOPT220Sensor</text>
</a>
</g>
</g>
<!-- Node0&#45;&gt;Node13 -->
<g id="edge13" class="edge">
<title>Node0&#45;&gt;Node13</title>
<path fill="none" stroke="midnightblue" d="M26.2,-218.08C27.66,-177.43 36.56,-84.1 86,-29 89.49,-25.11 93.9,-21.99 98.61,-19.51"/>
<polygon fill="midnightblue" stroke="midnightblue" points="22.69,-218.2 25.95,-228.28 29.69,-218.37 22.69,-218.2"/>
</g>
</g>
</svg>
