<?xml version="1.0" encoding="UTF-8" standalone="no"?>
<!DOCTYPE svg PUBLIC "-//W3C//DTD SVG 1.1//EN"
 "http://www.w3.org/Graphics/SVG/1.1/DTD/svg11.dtd">
<!-- Generated by graphviz version 2.43.0 (0)
 -->
<!-- Title: Graphical Class Hierarchy Pages: 1 -->
<svg width="180pt" height="101pt"
 viewBox="0.00 0.00 180.00 101.00" xmlns="http://www.w3.org/2000/svg" xmlns:xlink="http://www.w3.org/1999/xlink">
<g id="graph0" class="graph" transform="scale(1 1) rotate(0) translate(4 97)">
<title>Graphical Class Hierarchy</title>
<!-- Node0 -->
<g id="Node000000" class="node">
<title>Node0</title>
<g id="a_Node000000"><a xlink:href="classStorage.html" target="_top" xlink:title="Parent class for all data storage devices (sd card, radio, etc)">
<polygon fill="white" stroke="#666666" points="54,-56 0,-56 0,-37 54,-37 54,-56"/>
<text text-anchor="middle" x="27" y="-44" font-family="Helvetica,sans-Serif" font-size="10.00">Storage</text>
</a>
</g>
</g>
<!-- Node1 -->
<g id="Node000001" class="node">
<title>Node1</title>
<g id="a_Node000001"><a xlink:href="classFlashStorage.html" target="_top" xlink:title=" ">
<polygon fill="white" stroke="#666666" points="171,-93 91,-93 91,-74 171,-74 171,-93"/>
<text text-anchor="middle" x="131" y="-81" font-family="Helvetica,sans-Serif" font-size="10.00">FlashStorage</text>
</a>
</g>
</g>
<!-- Node0&#45;&gt;Node1 -->
<g id="edge17_Node000000_Node000001" class="edge">
<title>Node0&#45;&gt;Node1</title>
<g id="a_edge17_Node000000_Node000001"><a xlink:title=" ">
<path fill="none" stroke="#63b8ff" d="M63.71,-59.45C76.86,-64.22 91.51,-69.54 103.69,-73.96"/>
<polygon fill="#63b8ff" stroke="#63b8ff" points="64.6,-56.05 54,-55.93 62.21,-62.63 64.6,-56.05"/>
</a>
</g>
</g>
<!-- Node2 -->
<g id="Node000002" class="node">
<title>Node2</title>
<g id="a_Node000002"><a xlink:href="classRadioStorage.html" target="_top" xlink:title="Implementation of a Storage device to interface with an SD card.">
<polygon fill="white" stroke="#666666" points="172,-56 90,-56 90,-37 172,-37 172,-56"/>
<text text-anchor="middle" x="131" y="-44" font-family="Helvetica,sans-Serif" font-size="10.00">RadioStorage</text>
</a>
</g>
</g>
<!-- Node0&#45;&gt;Node2 -->
<g id="edge18_Node000000_Node000002" class="edge">
<title>Node0&#45;&gt;Node2</title>
<g id="a_edge18_Node000000_Node000002"><a xlink:title=" ">
<path fill="none" stroke="#63b8ff" d="M64.13,-46.5C72.43,-46.5 81.3,-46.5 89.76,-46.5"/>
<polygon fill="#63b8ff" stroke="#63b8ff" points="64,-43 54,-46.5 64,-50 64,-43"/>
</a>
</g>
</g>
<!-- Node3 -->
<g id="Node000003" class="node">
<title>Node3</title>
<g id="a_Node000003"><a xlink:href="classSDStorage.html" target="_top" xlink:title="Implementation of a Storage device to interface with an SD card.">
<polygon fill="white" stroke="#666666" points="165,-19 97,-19 97,0 165,0 165,-19"/>
<text text-anchor="middle" x="131" y="-7" font-family="Helvetica,sans-Serif" font-size="10.00">SDStorage</text>
</a>
</g>
</g>
<!-- Node0&#45;&gt;Node3 -->
<g id="edge19_Node000000_Node000003" class="edge">
<title>Node0&#45;&gt;Node3</title>
<g id="a_edge19_Node000000_Node000003"><a xlink:title=" ">
<path fill="none" stroke="#63b8ff" d="M63.71,-33.55C76.86,-28.78 91.51,-23.46 103.69,-19.04"/>
<polygon fill="#63b8ff" stroke="#63b8ff" points="62.21,-30.37 54,-37.07 64.6,-36.95 62.21,-30.37"/>
</a>
</g>
</g>
</g>
</svg>
