<?xml version="1.0" encoding="UTF-8" standalone="no"?>
<!DOCTYPE svg PUBLIC "-//W3C//DTD SVG 1.1//EN"
 "http://www.w3.org/Graphics/SVG/1.1/DTD/svg11.dtd">
<!-- Generated by graphviz version 2.43.0 (0)
 -->
<!-- Title: Graphical Class Hierarchy Pages: 1 -->
<svg width="189pt" height="256pt"
 viewBox="0.00 0.00 189.00 256.00" xmlns="http://www.w3.org/2000/svg" xmlns:xlink="http://www.w3.org/1999/xlink">
<g id="graph0" class="graph" transform="scale(1 1) rotate(0) translate(4 252)">
<title>Graphical Class Hierarchy</title>
<!-- Node0 -->
<g id="node1" class="node">
<title>Node0</title>
<g id="a_node1"><a xlink:href="classSensor.html" target="_top" xlink:title="Parent class for sensor objects.">
<polygon fill="none" stroke="black" points="0,-114.5 0,-133.5 50,-133.5 50,-114.5 0,-114.5"/>
<text text-anchor="middle" x="25" y="-121.5" font-family="Helvetica,sans-Serif" font-size="10.00">Sensor</text>
</a>
</g>
</g>
<!-- Node1 -->
<g id="node2" class="node">
<title>Node1</title>
<g id="a_node2"><a xlink:href="classBME680Sensor.html" target="_top" xlink:title="A class to interface with the Adafruit BME680 sensor for environmental data collection.">
<polygon fill="none" stroke="black" points="89,-228.5 89,-247.5 178,-247.5 178,-228.5 89,-228.5"/>
<text text-anchor="middle" x="133.5" y="-235.5" font-family="Helvetica,sans-Serif" font-size="10.00">BME680Sensor</text>
</a>
</g>
</g>
<!-- Node0&#45;&gt;Node1 -->
<g id="edge1" class="edge">
<title>Node0&#45;&gt;Node1</title>
<path fill="none" stroke="midnightblue" d="M33.71,-142.98C43.17,-164.13 61.08,-198.11 86,-219 90.54,-222.81 95.96,-225.94 101.45,-228.47"/>
<polygon fill="midnightblue" stroke="midnightblue" points="36.91,-141.55 29.75,-133.74 30.47,-144.31 36.91,-141.55"/>
</g>
<!-- Node2 -->
<g id="node3" class="node">
<title>Node2</title>
<g id="a_node3"><a xlink:href="classGeigerSensor.html" target="_top" xlink:title="A class for interfacing with a Geiger counter sensor.">
<polygon fill="none" stroke="black" points="92.5,-190.5 92.5,-209.5 174.5,-209.5 174.5,-190.5 92.5,-190.5"/>
<text text-anchor="middle" x="133.5" y="-197.5" font-family="Helvetica,sans-Serif" font-size="10.00">GeigerSensor</text>
</a>
</g>
</g>
<!-- Node0&#45;&gt;Node2 -->
<g id="edge2" class="edge">
<title>Node0&#45;&gt;Node2</title>
<path fill="none" stroke="midnightblue" d="M41.05,-141.42C52.42,-153.74 68.94,-169.97 86,-181 91.57,-184.6 97.93,-187.73 104.12,-190.37"/>
<polygon fill="midnightblue" stroke="midnightblue" points="43.34,-138.73 34.06,-133.62 38.13,-143.4 43.34,-138.73"/>
</g>
<!-- Node3 -->
<g id="node4" class="node">
<title>Node3</title>
<g id="a_node4"><a xlink:href="classINA260Sensor.html" target="_top" xlink:title="A class to interface with the Adafruit INA260 sensor for current, voltage, and power measurements.">
<polygon fill="none" stroke="black" points="91,-152.5 91,-171.5 176,-171.5 176,-152.5 91,-152.5"/>
<text text-anchor="middle" x="133.5" y="-159.5" font-family="Helvetica,sans-Serif" font-size="10.00">INA260Sensor</text>
</a>
</g>
</g>
<!-- Node0&#45;&gt;Node3 -->
<g id="edge3" class="edge">
<title>Node0&#45;&gt;Node3</title>
<path fill="none" stroke="midnightblue" d="M59.99,-136.13C74.81,-141.42 91.93,-147.52 105.81,-152.48"/>
<polygon fill="midnightblue" stroke="midnightblue" points="60.76,-132.69 50.17,-132.62 58.41,-139.28 60.76,-132.69"/>
</g>
<!-- Node4 -->
<g id="node5" class="node">
<title>Node4</title>
<g id="a_node5"><a xlink:href="classLSM9DS1Sensor.html" target="_top" xlink:title="Implementation of the Sensor class for the LSM9DS1 (9&#45;axis IMU)">
<polygon fill="none" stroke="black" points="86,-114.5 86,-133.5 181,-133.5 181,-114.5 86,-114.5"/>
<text text-anchor="middle" x="133.5" y="-121.5" font-family="Helvetica,sans-Serif" font-size="10.00">LSM9DS1Sensor</text>
</a>
</g>
</g>
<!-- Node0&#45;&gt;Node4 -->
<g id="edge4" class="edge">
<title>Node0&#45;&gt;Node4</title>
<path fill="none" stroke="midnightblue" d="M60.35,-124C68.45,-124 77.22,-124 85.76,-124"/>
<polygon fill="midnightblue" stroke="midnightblue" points="60.17,-120.5 50.17,-124 60.17,-127.5 60.17,-120.5"/>
</g>
<!-- Node5 -->
<g id="node6" class="node">
<title>Node5</title>
<g id="a_node6"><a xlink:href="classSHT31Sensor.html" target="_top" xlink:title="Interfaces with SHT31 Sensor to collect temperature and humidity data.">
<polygon fill="none" stroke="black" points="93,-76.5 93,-95.5 174,-95.5 174,-76.5 93,-76.5"/>
<text text-anchor="middle" x="133.5" y="-83.5" font-family="Helvetica,sans-Serif" font-size="10.00">SHT31Sensor</text>
</a>
</g>
</g>
<!-- Node0&#45;&gt;Node5 -->
<g id="edge5" class="edge">
<title>Node0&#45;&gt;Node5</title>
<path fill="none" stroke="midnightblue" d="M59.99,-111.87C74.81,-106.58 91.93,-100.48 105.81,-95.52"/>
<polygon fill="midnightblue" stroke="midnightblue" points="58.41,-108.72 50.17,-115.38 60.76,-115.31 58.41,-108.72"/>
</g>
<!-- Node6 -->
<g id="node7" class="node">
<title>Node6</title>
<g id="a_node7"><a xlink:href="classTempSensor.html" target="_top" xlink:title="Implementation of a Sensor for the onboard temperature sensor.">
<polygon fill="none" stroke="black" points="95.5,-38.5 95.5,-57.5 171.5,-57.5 171.5,-38.5 95.5,-38.5"/>
<text text-anchor="middle" x="133.5" y="-45.5" font-family="Helvetica,sans-Serif" font-size="10.00">TempSensor</text>
</a>
</g>
</g>
<!-- Node0&#45;&gt;Node6 -->
<g id="edge6" class="edge">
<title>Node0&#45;&gt;Node6</title>
<path fill="none" stroke="midnightblue" d="M41.05,-106.58C52.42,-94.26 68.94,-78.03 86,-67 91.57,-63.4 97.93,-60.27 104.12,-57.63"/>
<polygon fill="midnightblue" stroke="midnightblue" points="38.13,-104.6 34.06,-114.38 43.34,-109.27 38.13,-104.6"/>
</g>
<!-- Node7 -->
<g id="node8" class="node">
<title>Node7</title>
<g id="a_node8"><a xlink:href="classZOPT220Sensor.html" target="_top" xlink:title="A class to interface with the ZOPT220x UV and ambient light sensor.">
<polygon fill="none" stroke="black" points="86.5,-0.5 86.5,-19.5 180.5,-19.5 180.5,-0.5 86.5,-0.5"/>
<text text-anchor="middle" x="133.5" y="-7.5" font-family="Helvetica,sans-Serif" font-size="10.00">ZOPT220Sensor</text>
</a>
</g>
</g>
<!-- Node0&#45;&gt;Node7 -->
<g id="edge7" class="edge">
<title>Node0&#45;&gt;Node7</title>
<path fill="none" stroke="midnightblue" d="M33.71,-105.02C43.17,-83.87 61.08,-49.89 86,-29 90.54,-25.19 95.96,-22.06 101.45,-19.53"/>
<polygon fill="midnightblue" stroke="midnightblue" points="30.47,-103.69 29.75,-114.26 36.91,-106.45 30.47,-103.69"/>
</g>
</g>
</svg>
