<?xml version="1.0" encoding="UTF-8" standalone="no"?>
<!DOCTYPE svg PUBLIC "-//W3C//DTD SVG 1.1//EN"
 "http://www.w3.org/Graphics/SVG/1.1/DTD/svg11.dtd">
<!-- Generated by graphviz version 2.43.0 (0)
 -->
<!-- Title: Graphical Class Hierarchy Pages: 1 -->
<svg width="192pt" height="582pt"
 viewBox="0.00 0.00 192.00 582.00" xmlns="http://www.w3.org/2000/svg" xmlns:xlink="http://www.w3.org/1999/xlink">
<g id="graph0" class="graph" transform="scale(1 1) rotate(0) translate(4 578)">
<title>Graphical Class Hierarchy</title>
<!-- Node0 -->
<g id="Node000000" class="node">
<title>Node0</title>
<g id="a_Node000000"><a xlink:href="classSensor.html" target="_top" xlink:title="Parent class for sensor objects.">
<polygon fill="white" stroke="#666666" points="50,-296 0,-296 0,-277 50,-277 50,-296"/>
<text text-anchor="middle" x="25" y="-284" font-family="Helvetica,sans-Serif" font-size="10.00">Sensor</text>
</a>
</g>
</g>
<!-- Node1 -->
<g id="Node000001" class="node">
<title>Node1</title>
<g id="a_Node000001"><a xlink:href="classAS7331Sensor.html" target="_top" xlink:title="Implementation of a Sensor for UVA/B/C sensor.">
<polygon fill="white" stroke="#666666" points="178,-574 92,-574 92,-555 178,-555 178,-574"/>
<text text-anchor="middle" x="135" y="-562" font-family="Helvetica,sans-Serif" font-size="10.00">AS7331Sensor</text>
</a>
</g>
</g>
<!-- Node0&#45;&gt;Node1 -->
<g id="edge1_Node000000_Node000001" class="edge">
<title>Node0&#45;&gt;Node1</title>
<g id="a_edge1_Node000000_Node000001"><a xlink:title=" ">
<path fill="none" stroke="#63b8ff" d="M28.13,-306.16C34.36,-360.33 54.15,-510.15 86,-546.5 88.93,-549.85 92.55,-552.57 96.47,-554.79"/>
<polygon fill="#63b8ff" stroke="#63b8ff" points="31.6,-305.67 27.01,-296.12 24.64,-306.45 31.6,-305.67"/>
</a>
</g>
</g>
<!-- Node2 -->
<g id="Node000002" class="node">
<title>Node2</title>
<g id="a_Node000002"><a xlink:href="classAnalogSensor.html" target="_top" xlink:title="Implementation of a Sensor for the analog readings.">
<polygon fill="white" stroke="#666666" points="176.5,-537 93.5,-537 93.5,-518 176.5,-518 176.5,-537"/>
<text text-anchor="middle" x="135" y="-525" font-family="Helvetica,sans-Serif" font-size="10.00">AnalogSensor</text>
</a>
</g>
</g>
<!-- Node0&#45;&gt;Node2 -->
<g id="edge2_Node000000_Node000002" class="edge">
<title>Node0&#45;&gt;Node2</title>
<g id="a_edge2_Node000000_Node000002"><a xlink:title=" ">
<path fill="none" stroke="#63b8ff" d="M25.63,-306.7C25.93,-349.62 32.66,-450.78 86,-509.5 89.11,-512.93 92.94,-515.7 97.06,-517.95"/>
<polygon fill="#63b8ff" stroke="#63b8ff" points="29.13,-306.45 25.67,-296.44 22.13,-306.42 29.13,-306.45"/>
</a>
</g>
</g>
<!-- Node3 -->
<g id="Node000003" class="node">
<title>Node3</title>
<g id="a_Node000003"><a xlink:href="classBME280Sensor.html" target="_top" xlink:title="Implementation of a Sensor for the BME280.">
<polygon fill="white" stroke="#666666" points="179.5,-500 90.5,-500 90.5,-481 179.5,-481 179.5,-500"/>
<text text-anchor="middle" x="135" y="-488" font-family="Helvetica,sans-Serif" font-size="10.00">BME280Sensor</text>
</a>
</g>
</g>
<!-- Node0&#45;&gt;Node3 -->
<g id="edge3_Node000000_Node000003" class="edge">
<title>Node0&#45;&gt;Node3</title>
<g id="a_edge3_Node000000_Node000003"><a xlink:title=" ">
<path fill="none" stroke="#63b8ff" d="M26.9,-306.12C29.64,-343.44 40.78,-425.12 86,-472.5 89.2,-475.85 93.07,-478.58 97.22,-480.8"/>
<polygon fill="#63b8ff" stroke="#63b8ff" points="30.39,-305.82 26.29,-296.05 23.4,-306.25 30.39,-305.82"/>
</a>
</g>
</g>
<!-- Node4 -->
<g id="Node000004" class="node">
<title>Node4</title>
<g id="a_Node000004"><a xlink:href="classBME680Sensor.html" target="_top" xlink:title="A class to interface with the Adafruit BME680 sensor for environmental data collection.">
<polygon fill="white" stroke="#666666" points="179.5,-463 90.5,-463 90.5,-444 179.5,-444 179.5,-463"/>
<text text-anchor="middle" x="135" y="-451" font-family="Helvetica,sans-Serif" font-size="10.00">BME680Sensor</text>
</a>
</g>
</g>
<!-- Node0&#45;&gt;Node4 -->
<g id="edge4_Node000000_Node000004" class="edge">
<title>Node0&#45;&gt;Node4</title>
<g id="a_edge4_Node000000_Node000004"><a xlink:title=" ">
<path fill="none" stroke="#63b8ff" d="M28.82,-306.54C34.29,-338.12 49.21,-399.59 86,-435.5 89.44,-438.86 93.56,-441.6 97.93,-443.84"/>
<polygon fill="#63b8ff" stroke="#63b8ff" points="32.23,-305.69 27.21,-296.35 25.32,-306.78 32.23,-305.69"/>
</a>
</g>
</g>
<!-- Node5 -->
<g id="Node000005" class="node">
<title>Node5</title>
<g id="a_Node000005"><a xlink:href="classDS3231Sensor.html" target="_top" xlink:title="Implementation of a Sensor for the DS3231 Real Time Clock.">
<polygon fill="white" stroke="#666666" points="178.5,-426 91.5,-426 91.5,-407 178.5,-407 178.5,-426"/>
<text text-anchor="middle" x="135" y="-414" font-family="Helvetica,sans-Serif" font-size="10.00">DS3231Sensor</text>
</a>
</g>
</g>
<!-- Node0&#45;&gt;Node5 -->
<g id="edge5_Node000000_Node000005" class="edge">
<title>Node0&#45;&gt;Node5</title>
<g id="a_edge5_Node000000_Node000005"><a xlink:title=" ">
<path fill="none" stroke="#63b8ff" d="M31.6,-305.74C39.73,-330.46 57.08,-373.19 86,-398.5 89.88,-401.9 94.47,-404.68 99.25,-406.95"/>
<polygon fill="#63b8ff" stroke="#63b8ff" points="34.91,-304.57 28.59,-296.06 28.22,-306.65 34.91,-304.57"/>
</a>
</g>
</g>
<!-- Node6 -->
<g id="Node000006" class="node">
<title>Node6</title>
<g id="a_Node000006"><a xlink:href="classENS160Sensor.html" target="_top" xlink:title="Implementation of a Sensor for the ENS160.">
<polygon fill="white" stroke="#666666" points="178.5,-389 91.5,-389 91.5,-370 178.5,-370 178.5,-389"/>
<text text-anchor="middle" x="135" y="-377" font-family="Helvetica,sans-Serif" font-size="10.00">ENS160Sensor</text>
</a>
</g>
</g>
<!-- Node0&#45;&gt;Node6 -->
<g id="edge6_Node000000_Node000006" class="edge">
<title>Node0&#45;&gt;Node6</title>
<g id="a_edge6_Node000000_Node000006"><a xlink:title=" ">
<path fill="none" stroke="#63b8ff" d="M36.78,-305.07C47.38,-321.88 65.01,-346.28 86,-361.5 90.61,-364.84 95.92,-367.64 101.28,-369.96"/>
<polygon fill="#63b8ff" stroke="#63b8ff" points="39.56,-302.9 31.37,-296.17 33.57,-306.54 39.56,-302.9"/>
</a>
</g>
</g>
<!-- Node7 -->
<g id="Node000007" class="node">
<title>Node7</title>
<g id="a_Node000007"><a xlink:href="classGeigerSensor.html" target="_top" xlink:title="A class for interfacing with a Geiger counter sensor.">
<polygon fill="white" stroke="#666666" points="176,-352 94,-352 94,-333 176,-333 176,-352"/>
<text text-anchor="middle" x="135" y="-340" font-family="Helvetica,sans-Serif" font-size="10.00">GeigerSensor</text>
</a>
</g>
</g>
<!-- Node0&#45;&gt;Node7 -->
<g id="edge7_Node000000_Node000007" class="edge">
<title>Node0&#45;&gt;Node7</title>
<g id="a_edge7_Node000000_Node000007"><a xlink:title=" ">
<path fill="none" stroke="#63b8ff" d="M47.94,-301.93C59.03,-309.33 72.89,-317.98 86,-324.5 92.22,-327.59 99.1,-330.47 105.67,-332.98"/>
<polygon fill="#63b8ff" stroke="#63b8ff" points="49.59,-298.82 39.35,-296.09 45.65,-304.61 49.59,-298.82"/>
</a>
</g>
</g>
<!-- Node8 -->
<g id="Node000008" class="node">
<title>Node8</title>
<g id="a_Node000008"><a xlink:href="classICM20948Sensor.html" target="_top" xlink:title="Implementation of the Sensor class for the Adafruit ICM20948 (9&#45;axis IMU)">
<polygon fill="white" stroke="#666666" points="184,-315 86,-315 86,-296 184,-296 184,-315"/>
<text text-anchor="middle" x="135" y="-303" font-family="Helvetica,sans-Serif" font-size="10.00">ICM20948Sensor</text>
</a>
</g>
</g>
<!-- Node0&#45;&gt;Node8 -->
<g id="edge8_Node000000_Node000008" class="edge">
<title>Node0&#45;&gt;Node8</title>
<g id="a_edge8_Node000000_Node000008"><a xlink:title=" ">
<path fill="none" stroke="#63b8ff" d="M60.17,-292.51C68.36,-293.95 77.27,-295.52 85.96,-297.05"/>
<polygon fill="#63b8ff" stroke="#63b8ff" points="60.69,-289.05 50.24,-290.76 59.48,-295.94 60.69,-289.05"/>
</a>
</g>
</g>
<!-- Node9 -->
<g id="Node000009" class="node">
<title>Node9</title>
<g id="a_Node000009"><a xlink:href="classINA260Sensor.html" target="_top" xlink:title="A class to interface with the Adafruit INA260 sensor for current, voltage, and power measurements.">
<polygon fill="white" stroke="#666666" points="177.5,-278 92.5,-278 92.5,-259 177.5,-259 177.5,-278"/>
<text text-anchor="middle" x="135" y="-266" font-family="Helvetica,sans-Serif" font-size="10.00">INA260Sensor</text>
</a>
</g>
</g>
<!-- Node0&#45;&gt;Node9 -->
<g id="edge9_Node000000_Node000009" class="edge">
<title>Node0&#45;&gt;Node9</title>
<g id="a_edge9_Node000000_Node000009"><a xlink:title=" ">
<path fill="none" stroke="#63b8ff" d="M60.39,-280.77C70.59,-279.07 81.86,-277.19 92.45,-275.42"/>
<polygon fill="#63b8ff" stroke="#63b8ff" points="59.53,-277.36 50.24,-282.46 60.68,-284.27 59.53,-277.36"/>
</a>
</g>
</g>
<!-- Node10 -->
<g id="Node000010" class="node">
<title>Node10</title>
<g id="a_Node000010"><a xlink:href="classLSM9DS1Sensor.html" target="_top" xlink:title="Implementation of the Sensor class for the LSM9DS1 (9&#45;axis IMU)">
<polygon fill="white" stroke="#666666" points="182.5,-241 87.5,-241 87.5,-222 182.5,-222 182.5,-241"/>
<text text-anchor="middle" x="135" y="-229" font-family="Helvetica,sans-Serif" font-size="10.00">LSM9DS1Sensor</text>
</a>
</g>
</g>
<!-- Node0&#45;&gt;Node10 -->
<g id="edge10_Node000000_Node000010" class="edge">
<title>Node0&#45;&gt;Node10</title>
<g id="a_edge10_Node000000_Node000010"><a xlink:title=" ">
<path fill="none" stroke="#63b8ff" d="M48.98,-271.51C59.95,-264.66 73.41,-256.72 86,-250.5 92.83,-247.13 100.42,-243.9 107.5,-241.09"/>
<polygon fill="#63b8ff" stroke="#63b8ff" points="46.99,-268.62 40.42,-276.93 50.74,-274.53 46.99,-268.62"/>
</a>
</g>
</g>
<!-- Node11 -->
<g id="Node000011" class="node">
<title>Node11</title>
<g id="a_Node000011"><a xlink:href="classMTK3339Sensor.html" target="_top" xlink:title="Implementation of the Adafruit MTK3339 GPS sensor.">
<polygon fill="white" stroke="#666666" points="182.5,-204 87.5,-204 87.5,-185 182.5,-185 182.5,-204"/>
<text text-anchor="middle" x="135" y="-192" font-family="Helvetica,sans-Serif" font-size="10.00">MTK3339Sensor</text>
</a>
</g>
</g>
<!-- Node0&#45;&gt;Node11 -->
<g id="edge11_Node000000_Node000011" class="edge">
<title>Node0&#45;&gt;Node11</title>
<g id="a_edge11_Node000000_Node000011"><a xlink:title=" ">
<path fill="none" stroke="#63b8ff" d="M37.3,-268C48.06,-251.72 65.61,-228.36 86,-213.5 91.14,-209.75 97.12,-206.62 103.08,-204.05"/>
<polygon fill="#63b8ff" stroke="#63b8ff" points="34.21,-266.33 31.78,-276.64 40.11,-270.1 34.21,-266.33"/>
</a>
</g>
</g>
<!-- Node12 -->
<g id="Node000012" class="node">
<title>Node12</title>
<g id="a_Node000012"><a xlink:href="classPCF8523Sensor.html" target="_top" xlink:title=" ">
<polygon fill="white" stroke="#666666" points="181,-167 89,-167 89,-148 181,-148 181,-167"/>
<text text-anchor="middle" x="135" y="-155" font-family="Helvetica,sans-Serif" font-size="10.00">PCF8523Sensor</text>
</a>
</g>
</g>
<!-- Node0&#45;&gt;Node12 -->
<g id="edge12_Node000000_Node000012" class="edge">
<title>Node0&#45;&gt;Node12</title>
<g id="a_edge12_Node000000_Node000012"><a xlink:title=" ">
<path fill="none" stroke="#63b8ff" d="M31.89,-267.32C40.25,-243.07 57.75,-201.48 86,-176.5 90.3,-172.7 95.44,-169.61 100.75,-167.12"/>
<polygon fill="#63b8ff" stroke="#63b8ff" points="28.56,-266.24 28.78,-276.83 35.21,-268.42 28.56,-266.24"/>
</a>
</g>
</g>
<!-- Node13 -->
<g id="Node000013" class="node">
<title>Node13</title>
<g id="a_Node000013"><a xlink:href="classSGP30Sensor.html" target="_top" xlink:title="Implementation of a Sensor for the SGP Air Quality sensor.">
<polygon fill="white" stroke="#666666" points="175.5,-130 94.5,-130 94.5,-111 175.5,-111 175.5,-130"/>
<text text-anchor="middle" x="135" y="-118" font-family="Helvetica,sans-Serif" font-size="10.00">SGP30Sensor</text>
</a>
</g>
</g>
<!-- Node0&#45;&gt;Node13 -->
<g id="edge13_Node000000_Node000013" class="edge">
<title>Node0&#45;&gt;Node13</title>
<g id="a_edge13_Node000000_Node000013"><a xlink:title=" ">
<path fill="none" stroke="#63b8ff" d="M28.98,-266.8C34.66,-235.74 49.88,-175.24 86,-139.5 89.82,-135.72 94.49,-132.66 99.4,-130.21"/>
<polygon fill="#63b8ff" stroke="#63b8ff" points="25.5,-266.37 27.3,-276.82 32.41,-267.54 25.5,-266.37"/>
</a>
</g>
</g>
<!-- Node14 -->
<g id="Node000014" class="node">
<title>Node14</title>
<g id="a_Node000014"><a xlink:href="classSHT31Sensor.html" target="_top" xlink:title="Interfaces with SHT31 Sensor to collect temperature and humidity data.">
<polygon fill="white" stroke="#666666" points="175.5,-93 94.5,-93 94.5,-74 175.5,-74 175.5,-93"/>
<text text-anchor="middle" x="135" y="-81" font-family="Helvetica,sans-Serif" font-size="10.00">SHT31Sensor</text>
</a>
</g>
</g>
<!-- Node0&#45;&gt;Node14 -->
<g id="edge14_Node000000_Node000014" class="edge">
<title>Node0&#45;&gt;Node14</title>
<g id="a_edge14_Node000000_Node000014"><a xlink:title=" ">
<path fill="none" stroke="#63b8ff" d="M27.08,-266.64C30.14,-229.61 41.78,-149.53 86,-102.5 89.56,-98.71 93.97,-95.67 98.67,-93.22"/>
<polygon fill="#63b8ff" stroke="#63b8ff" points="23.59,-266.44 26.38,-276.66 30.57,-266.93 23.59,-266.44"/>
</a>
</g>
</g>
<!-- Node15 -->
<g id="Node000015" class="node">
<title>Node15</title>
<g id="a_Node000015"><a xlink:href="classTempSensor.html" target="_top" xlink:title="Implementation of a Sensor for the onboard temperature sensor.">
<polygon fill="white" stroke="#666666" points="173,-56 97,-56 97,-37 173,-37 173,-56"/>
<text text-anchor="middle" x="135" y="-44" font-family="Helvetica,sans-Serif" font-size="10.00">TempSensor</text>
</a>
</g>
</g>
<!-- Node0&#45;&gt;Node15 -->
<g id="edge15_Node000000_Node000015" class="edge">
<title>Node0&#45;&gt;Node15</title>
<g id="a_edge15_Node000000_Node000015"><a xlink:title=" ">
<path fill="none" stroke="#63b8ff" d="M25.77,-266.55C26.34,-224.15 33.57,-124.14 86,-65.5 89.46,-61.62 93.82,-58.53 98.49,-56.06"/>
<polygon fill="#63b8ff" stroke="#63b8ff" points="22.27,-266.68 25.74,-276.69 29.27,-266.7 22.27,-266.68"/>
</a>
</g>
</g>
<!-- Node16 -->
<g id="Node000016" class="node">
<title>Node16</title>
<g id="a_Node000016"><a xlink:href="classZOPT220Sensor.html" target="_top" xlink:title="A class to interface with the ZOPT220x UV and ambient light sensor.">
<polygon fill="white" stroke="#666666" points="182,-19 88,-19 88,0 182,0 182,-19"/>
<text text-anchor="middle" x="135" y="-7" font-family="Helvetica,sans-Serif" font-size="10.00">ZOPT220Sensor</text>
</a>
</g>
</g>
<!-- Node0&#45;&gt;Node16 -->
<g id="edge16_Node000000_Node000016" class="edge">
<title>Node0&#45;&gt;Node16</title>
<g id="a_edge16_Node000000_Node000016"><a xlink:title=" ">
<path fill="none" stroke="#63b8ff" d="M28.18,-267.02C34.56,-213.34 54.68,-64.85 86,-28.5 89.28,-24.7 93.42,-21.65 97.88,-19.21"/>
<polygon fill="#63b8ff" stroke="#63b8ff" points="24.71,-266.63 27.03,-276.96 31.66,-267.43 24.71,-266.63"/>
</a>
</g>
</g>
</g>
</svg>
