<?xml version="1.0" encoding="UTF-8" standalone="no"?>
<!DOCTYPE svg PUBLIC "-//W3C//DTD SVG 1.1//EN"
 "http://www.w3.org/Graphics/SVG/1.1/DTD/svg11.dtd">
<!-- Generated by graphviz version 2.43.0 (0)
 -->
<!-- Title: Graphical Class Hierarchy Pages: 1 -->
<svg width="192pt" height="598pt"
 viewBox="0.00 0.00 192.00 598.00" xmlns="http://www.w3.org/2000/svg" xmlns:xlink="http://www.w3.org/1999/xlink">
<g id="graph0" class="graph" transform="scale(1 1) rotate(0) translate(4 594)">
<title>Graphical Class Hierarchy</title>
<!-- Node0 -->
<g id="node1" class="node">
<title>Node0</title>
<g id="a_node1"><a xlink:href="classSensor.html" target="_top" xlink:title="Parent class for sensor objects.">
<polygon fill="none" stroke="black" points="0,-285.5 0,-304.5 50,-304.5 50,-285.5 0,-285.5"/>
<text text-anchor="middle" x="25" y="-292.5" font-family="Helvetica,sans-Serif" font-size="10.00">Sensor</text>
</a>
</g>
</g>
<!-- Node1 -->
<g id="node2" class="node">
<title>Node1</title>
<g id="a_node2"><a xlink:href="classAS7331Sensor.html" target="_top" xlink:title="Implementation of a Sensor for UVA/B/C sensor.">
<polygon fill="none" stroke="black" points="92,-570.5 92,-589.5 178,-589.5 178,-570.5 92,-570.5"/>
<text text-anchor="middle" x="135" y="-577.5" font-family="Helvetica,sans-Serif" font-size="10.00">AS7331Sensor</text>
</a>
</g>
</g>
<!-- Node0&#45;&gt;Node1 -->
<g id="edge1" class="edge">
<title>Node0&#45;&gt;Node1</title>
<path fill="none" stroke="midnightblue" d="M28.06,-314.71C34.17,-369.72 53.81,-523.39 86,-561 89.26,-564.81 93.4,-567.87 97.86,-570.31"/>
<polygon fill="midnightblue" stroke="midnightblue" points="31.52,-314.11 26.96,-304.54 24.56,-314.86 31.52,-314.11"/>
</g>
<!-- Node2 -->
<g id="node3" class="node">
<title>Node2</title>
<g id="a_node3"><a xlink:href="classAnalogSensor.html" target="_top" xlink:title="Implementation of a Sensor for the analog readings.">
<polygon fill="none" stroke="black" points="93.5,-532.5 93.5,-551.5 176.5,-551.5 176.5,-532.5 93.5,-532.5"/>
<text text-anchor="middle" x="135" y="-539.5" font-family="Helvetica,sans-Serif" font-size="10.00">AnalogSensor</text>
</a>
</g>
</g>
<!-- Node0&#45;&gt;Node2 -->
<g id="edge2" class="edge">
<title>Node0&#45;&gt;Node2</title>
<path fill="none" stroke="midnightblue" d="M25.56,-314.68C25.66,-357.88 31.89,-462 86,-523 89.45,-526.89 93.8,-529.99 98.47,-532.46"/>
<polygon fill="midnightblue" stroke="midnightblue" points="29.06,-314.67 25.65,-304.64 22.06,-314.6 29.06,-314.67"/>
</g>
<!-- Node3 -->
<g id="node4" class="node">
<title>Node3</title>
<g id="a_node4"><a xlink:href="classBME280Sensor.html" target="_top" xlink:title="Implementation of a Sensor for the BME280.">
<polygon fill="none" stroke="black" points="90.5,-494.5 90.5,-513.5 179.5,-513.5 179.5,-494.5 90.5,-494.5"/>
<text text-anchor="middle" x="135" y="-501.5" font-family="Helvetica,sans-Serif" font-size="10.00">BME280Sensor</text>
</a>
</g>
</g>
<!-- Node0&#45;&gt;Node3 -->
<g id="edge3" class="edge">
<title>Node0&#45;&gt;Node3</title>
<path fill="none" stroke="midnightblue" d="M26.84,-314.96C29.5,-352.94 40.49,-436.14 86,-485 89.54,-488.8 93.94,-491.86 98.63,-494.31"/>
<polygon fill="midnightblue" stroke="midnightblue" points="30.32,-314.5 26.26,-304.72 23.34,-314.9 30.32,-314.5"/>
</g>
<!-- Node4 -->
<g id="node5" class="node">
<title>Node4</title>
<g id="a_node5"><a xlink:href="classBME680Sensor.html" target="_top" xlink:title="A class to interface with the Adafruit BME680 sensor for environmental data collection.">
<polygon fill="none" stroke="black" points="90.5,-456.5 90.5,-475.5 179.5,-475.5 179.5,-456.5 90.5,-456.5"/>
<text text-anchor="middle" x="135" y="-463.5" font-family="Helvetica,sans-Serif" font-size="10.00">BME680Sensor</text>
</a>
</g>
</g>
<!-- Node0&#45;&gt;Node4 -->
<g id="edge4" class="edge">
<title>Node0&#45;&gt;Node4</title>
<path fill="none" stroke="midnightblue" d="M28.7,-314.89C34.05,-346.86 48.85,-409.82 86,-447 89.8,-450.8 94.46,-453.87 99.36,-456.33"/>
<polygon fill="midnightblue" stroke="midnightblue" points="32.11,-313.98 27.14,-304.62 25.19,-315.04 32.11,-313.98"/>
</g>
<!-- Node5 -->
<g id="node6" class="node">
<title>Node5</title>
<g id="a_node6"><a xlink:href="classDS3231Sensor.html" target="_top" xlink:title="Implementation of a Sensor for the DS3231 Real Time Clock.">
<polygon fill="none" stroke="black" points="91.5,-418.5 91.5,-437.5 178.5,-437.5 178.5,-418.5 91.5,-418.5"/>
<text text-anchor="middle" x="135" y="-425.5" font-family="Helvetica,sans-Serif" font-size="10.00">DS3231Sensor</text>
</a>
</g>
</g>
<!-- Node0&#45;&gt;Node5 -->
<g id="edge5" class="edge">
<title>Node0&#45;&gt;Node5</title>
<path fill="none" stroke="midnightblue" d="M31.58,-314.5C39.69,-339.57 57.01,-382.97 86,-409 90.27,-412.83 95.4,-415.94 100.7,-418.44"/>
<polygon fill="midnightblue" stroke="midnightblue" points="34.85,-313.23 28.58,-304.69 28.16,-315.28 34.85,-313.23"/>
</g>
<!-- Node6 -->
<g id="node7" class="node">
<title>Node6</title>
<g id="a_node7"><a xlink:href="classENS160Sensor.html" target="_top" xlink:title="Implementation of a Sensor for the ENS160.">
<polygon fill="none" stroke="black" points="91.5,-380.5 91.5,-399.5 178.5,-399.5 178.5,-380.5 91.5,-380.5"/>
<text text-anchor="middle" x="135" y="-387.5" font-family="Helvetica,sans-Serif" font-size="10.00">ENS160Sensor</text>
</a>
</g>
</g>
<!-- Node0&#45;&gt;Node6 -->
<g id="edge6" class="edge">
<title>Node0&#45;&gt;Node6</title>
<path fill="none" stroke="midnightblue" d="M36.79,-313.73C47.4,-330.71 65.03,-355.4 86,-371 91.03,-374.75 96.9,-377.86 102.77,-380.42"/>
<polygon fill="midnightblue" stroke="midnightblue" points="39.54,-311.51 31.38,-304.75 33.54,-315.12 39.54,-311.51"/>
</g>
<!-- Node7 -->
<g id="node8" class="node">
<title>Node7</title>
<g id="a_node8"><a xlink:href="classGeigerSensor.html" target="_top" xlink:title="A class for interfacing with a Geiger counter sensor.">
<polygon fill="none" stroke="black" points="94,-342.5 94,-361.5 176,-361.5 176,-342.5 94,-342.5"/>
<text text-anchor="middle" x="135" y="-349.5" font-family="Helvetica,sans-Serif" font-size="10.00">GeigerSensor</text>
</a>
</g>
</g>
<!-- Node0&#45;&gt;Node7 -->
<g id="edge7" class="edge">
<title>Node0&#45;&gt;Node7</title>
<path fill="none" stroke="midnightblue" d="M47.99,-310.33C59.1,-317.7 72.95,-326.36 86,-333 92.71,-336.41 100.18,-339.63 107.2,-342.42"/>
<polygon fill="midnightblue" stroke="midnightblue" points="49.64,-307.21 39.39,-304.51 45.71,-313.01 49.64,-307.21"/>
</g>
<!-- Node8 -->
<g id="node9" class="node">
<title>Node8</title>
<g id="a_node9"><a xlink:href="classICM20948Sensor.html" target="_top" xlink:title="Implementation of the Sensor class for the Adafruit ICM20948 (9&#45;axis IMU)">
<polygon fill="none" stroke="black" points="86,-304.5 86,-323.5 184,-323.5 184,-304.5 86,-304.5"/>
<text text-anchor="middle" x="135" y="-311.5" font-family="Helvetica,sans-Serif" font-size="10.00">ICM20948Sensor</text>
</a>
</g>
</g>
<!-- Node0&#45;&gt;Node8 -->
<g id="edge8" class="edge">
<title>Node0&#45;&gt;Node8</title>
<path fill="none" stroke="midnightblue" d="M60.17,-301.01C68.36,-302.45 77.27,-304.02 85.96,-305.55"/>
<polygon fill="midnightblue" stroke="midnightblue" points="60.69,-297.55 50.24,-299.26 59.48,-304.44 60.69,-297.55"/>
</g>
<!-- Node9 -->
<g id="node10" class="node">
<title>Node9</title>
<g id="a_node10"><a xlink:href="classINA260Sensor.html" target="_top" xlink:title="A class to interface with the Adafruit INA260 sensor for current, voltage, and power measurements.">
<polygon fill="none" stroke="black" points="92.5,-266.5 92.5,-285.5 177.5,-285.5 177.5,-266.5 92.5,-266.5"/>
<text text-anchor="middle" x="135" y="-273.5" font-family="Helvetica,sans-Serif" font-size="10.00">INA260Sensor</text>
</a>
</g>
</g>
<!-- Node0&#45;&gt;Node9 -->
<g id="edge9" class="edge">
<title>Node0&#45;&gt;Node9</title>
<path fill="none" stroke="midnightblue" d="M60.39,-288.95C70.59,-287.16 81.86,-285.17 92.45,-283.31"/>
<polygon fill="midnightblue" stroke="midnightblue" points="59.48,-285.56 50.24,-290.74 60.69,-292.45 59.48,-285.56"/>
</g>
<!-- Node10 -->
<g id="node11" class="node">
<title>Node10</title>
<g id="a_node11"><a xlink:href="classLSM9DS1Sensor.html" target="_top" xlink:title="Implementation of the Sensor class for the LSM9DS1 (9&#45;axis IMU)">
<polygon fill="none" stroke="black" points="87.5,-228.5 87.5,-247.5 182.5,-247.5 182.5,-228.5 87.5,-228.5"/>
<text text-anchor="middle" x="135" y="-235.5" font-family="Helvetica,sans-Serif" font-size="10.00">LSM9DS1Sensor</text>
</a>
</g>
</g>
<!-- Node0&#45;&gt;Node10 -->
<g id="edge10" class="edge">
<title>Node0&#45;&gt;Node10</title>
<path fill="none" stroke="midnightblue" d="M47.99,-279.67C59.1,-272.3 72.95,-263.64 86,-257 92.71,-253.59 100.18,-250.37 107.2,-247.58"/>
<polygon fill="midnightblue" stroke="midnightblue" points="45.71,-276.99 39.39,-285.49 49.64,-282.79 45.71,-276.99"/>
</g>
<!-- Node11 -->
<g id="node12" class="node">
<title>Node11</title>
<g id="a_node12"><a xlink:href="classMTK3339Sensor.html" target="_top" xlink:title="Implementation of the Adafruit MTK3339 GPS sensor.">
<polygon fill="none" stroke="black" points="87.5,-190.5 87.5,-209.5 182.5,-209.5 182.5,-190.5 87.5,-190.5"/>
<text text-anchor="middle" x="135" y="-197.5" font-family="Helvetica,sans-Serif" font-size="10.00">MTK3339Sensor</text>
</a>
</g>
</g>
<!-- Node0&#45;&gt;Node11 -->
<g id="edge11" class="edge">
<title>Node0&#45;&gt;Node11</title>
<path fill="none" stroke="midnightblue" d="M36.79,-276.27C47.4,-259.29 65.03,-234.6 86,-219 91.03,-215.25 96.9,-212.14 102.77,-209.58"/>
<polygon fill="midnightblue" stroke="midnightblue" points="33.54,-274.88 31.38,-285.25 39.54,-278.49 33.54,-274.88"/>
</g>
<!-- Node12 -->
<g id="node13" class="node">
<title>Node12</title>
<g id="a_node13"><a xlink:href="classPCF8523Sensor.html" target="_top" xlink:title=" ">
<polygon fill="none" stroke="black" points="89,-152.5 89,-171.5 181,-171.5 181,-152.5 89,-152.5"/>
<text text-anchor="middle" x="135" y="-159.5" font-family="Helvetica,sans-Serif" font-size="10.00">PCF8523Sensor</text>
</a>
</g>
</g>
<!-- Node0&#45;&gt;Node12 -->
<g id="edge12" class="edge">
<title>Node0&#45;&gt;Node12</title>
<path fill="none" stroke="midnightblue" d="M31.58,-275.5C39.69,-250.43 57.01,-207.03 86,-181 90.27,-177.17 95.4,-174.06 100.7,-171.56"/>
<polygon fill="midnightblue" stroke="midnightblue" points="28.16,-274.72 28.58,-285.31 34.85,-276.77 28.16,-274.72"/>
</g>
<!-- Node13 -->
<g id="node14" class="node">
<title>Node13</title>
<g id="a_node14"><a xlink:href="classSGP30Sensor.html" target="_top" xlink:title="Implementation of a Sensor for the SGP Air Quality sensor.">
<polygon fill="none" stroke="black" points="94.5,-114.5 94.5,-133.5 175.5,-133.5 175.5,-114.5 94.5,-114.5"/>
<text text-anchor="middle" x="135" y="-121.5" font-family="Helvetica,sans-Serif" font-size="10.00">SGP30Sensor</text>
</a>
</g>
</g>
<!-- Node0&#45;&gt;Node13 -->
<g id="edge13" class="edge">
<title>Node0&#45;&gt;Node13</title>
<path fill="none" stroke="midnightblue" d="M28.7,-275.11C34.05,-243.14 48.85,-180.18 86,-143 89.8,-139.2 94.46,-136.13 99.36,-133.67"/>
<polygon fill="midnightblue" stroke="midnightblue" points="25.19,-274.96 27.14,-285.38 32.11,-276.02 25.19,-274.96"/>
</g>
<!-- Node14 -->
<g id="node15" class="node">
<title>Node14</title>
<g id="a_node15"><a xlink:href="classSHT31Sensor.html" target="_top" xlink:title="Interfaces with SHT31 Sensor to collect temperature and humidity data.">
<polygon fill="none" stroke="black" points="94.5,-76.5 94.5,-95.5 175.5,-95.5 175.5,-76.5 94.5,-76.5"/>
<text text-anchor="middle" x="135" y="-83.5" font-family="Helvetica,sans-Serif" font-size="10.00">SHT31Sensor</text>
</a>
</g>
</g>
<!-- Node0&#45;&gt;Node14 -->
<g id="edge14" class="edge">
<title>Node0&#45;&gt;Node14</title>
<path fill="none" stroke="midnightblue" d="M26.84,-275.04C29.5,-237.06 40.49,-153.86 86,-105 89.54,-101.2 93.94,-98.14 98.63,-95.69"/>
<polygon fill="midnightblue" stroke="midnightblue" points="23.34,-275.1 26.26,-285.28 30.32,-275.5 23.34,-275.1"/>
</g>
<!-- Node15 -->
<g id="node16" class="node">
<title>Node15</title>
<g id="a_node16"><a xlink:href="classTempSensor.html" target="_top" xlink:title="Implementation of a Sensor for the onboard temperature sensor.">
<polygon fill="none" stroke="black" points="97,-38.5 97,-57.5 173,-57.5 173,-38.5 97,-38.5"/>
<text text-anchor="middle" x="135" y="-45.5" font-family="Helvetica,sans-Serif" font-size="10.00">TempSensor</text>
</a>
</g>
</g>
<!-- Node0&#45;&gt;Node15 -->
<g id="edge15" class="edge">
<title>Node0&#45;&gt;Node15</title>
<path fill="none" stroke="midnightblue" d="M25.56,-275.32C25.66,-232.12 31.89,-128 86,-67 89.45,-63.11 93.8,-60.01 98.47,-57.54"/>
<polygon fill="midnightblue" stroke="midnightblue" points="22.06,-275.4 25.65,-285.36 29.06,-275.33 22.06,-275.4"/>
</g>
<!-- Node16 -->
<g id="node17" class="node">
<title>Node16</title>
<g id="a_node17"><a xlink:href="classZOPT220Sensor.html" target="_top" xlink:title="A class to interface with the ZOPT220x UV and ambient light sensor.">
<polygon fill="none" stroke="black" points="88,-0.5 88,-19.5 182,-19.5 182,-0.5 88,-0.5"/>
<text text-anchor="middle" x="135" y="-7.5" font-family="Helvetica,sans-Serif" font-size="10.00">ZOPT220Sensor</text>
</a>
</g>
</g>
<!-- Node0&#45;&gt;Node16 -->
<g id="edge16" class="edge">
<title>Node0&#45;&gt;Node16</title>
<path fill="none" stroke="midnightblue" d="M28.06,-275.29C34.17,-220.28 53.81,-66.61 86,-29 89.26,-25.19 93.4,-22.13 97.86,-19.69"/>
<polygon fill="midnightblue" stroke="midnightblue" points="24.56,-275.14 26.96,-285.46 31.52,-275.89 24.56,-275.14"/>
</g>
</g>
</svg>
