<?xml version="1.0" encoding="UTF-8" standalone="no"?>
<!DOCTYPE svg PUBLIC "-//W3C//DTD SVG 1.1//EN"
 "http://www.w3.org/Graphics/SVG/1.1/DTD/svg11.dtd">
<!-- Generated by graphviz version 2.43.0 (0)
 -->
<!-- Title: LSM9DS1Sensor.h Pages: 1 -->
<svg width="395pt" height="140pt"
 viewBox="0.00 0.00 394.50 140.00" xmlns="http://www.w3.org/2000/svg" xmlns:xlink="http://www.w3.org/1999/xlink">
<g id="graph0" class="graph" transform="scale(1 1) rotate(0) translate(4 136)">
<title>LSM9DS1Sensor.h</title>
<!-- Node1 -->
<g id="node1" class="node">
<title>Node1</title>
<g id="a_node1"><a xlink:title=" ">
<polygon fill="#bfbfbf" stroke="black" points="181,-112.5 181,-131.5 285,-131.5 285,-112.5 181,-112.5"/>
<text text-anchor="middle" x="233" y="-119.5" font-family="Helvetica,sans-Serif" font-size="10.00">LSM9DS1Sensor.h</text>
</a>
</g>
</g>
<!-- Node2 -->
<g id="node2" class="node">
<title>Node2</title>
<g id="a_node2"><a xlink:title=" ">
<polygon fill="none" stroke="#bfbfbf" points="0,-56.5 0,-75.5 116,-75.5 116,-56.5 0,-56.5"/>
<text text-anchor="middle" x="58" y="-63.5" font-family="Helvetica,sans-Serif" font-size="10.00">Adafruit_LSM9DS1.h</text>
</a>
</g>
</g>
<!-- Node1&#45;&gt;Node2 -->
<g id="edge1" class="edge">
<title>Node1&#45;&gt;Node2</title>
<path fill="none" stroke="midnightblue" d="M205.27,-112.44C175.57,-103.28 128.28,-88.69 95.33,-78.52"/>
<polygon fill="midnightblue" stroke="midnightblue" points="96.19,-75.12 85.6,-75.52 94.12,-81.81 96.19,-75.12"/>
</g>
<!-- Node3 -->
<g id="node3" class="node">
<title>Node3</title>
<g id="a_node3"><a xlink:title=" ">
<polygon fill="none" stroke="#bfbfbf" points="134,-56.5 134,-75.5 236,-75.5 236,-56.5 134,-56.5"/>
<text text-anchor="middle" x="185" y="-63.5" font-family="Helvetica,sans-Serif" font-size="10.00">Adafruit_Sensor.h</text>
</a>
</g>
</g>
<!-- Node1&#45;&gt;Node3 -->
<g id="edge2" class="edge">
<title>Node1&#45;&gt;Node3</title>
<path fill="none" stroke="midnightblue" d="M225.07,-112.08C218.15,-104.3 207.93,-92.8 199.55,-83.37"/>
<polygon fill="midnightblue" stroke="midnightblue" points="202.04,-80.9 192.78,-75.75 196.81,-85.55 202.04,-80.9"/>
</g>
<!-- Node4 -->
<g id="node4" class="node">
<title>Node4</title>
<g id="a_node4"><a xlink:title=" ">
<polygon fill="none" stroke="#bfbfbf" points="254.5,-56.5 254.5,-75.5 307.5,-75.5 307.5,-56.5 254.5,-56.5"/>
<text text-anchor="middle" x="281" y="-63.5" font-family="Helvetica,sans-Serif" font-size="10.00">string.h</text>
</a>
</g>
</g>
<!-- Node1&#45;&gt;Node4 -->
<g id="edge3" class="edge">
<title>Node1&#45;&gt;Node4</title>
<path fill="none" stroke="midnightblue" d="M240.93,-112.08C247.85,-104.3 258.07,-92.8 266.45,-83.37"/>
<polygon fill="midnightblue" stroke="midnightblue" points="269.19,-85.55 273.22,-75.75 263.96,-80.9 269.19,-85.55"/>
</g>
<!-- Node5 -->
<g id="node5" class="node">
<title>Node5</title>
<g id="a_node5"><a xlink:href="Sensor_8h.html" target="_top" xlink:title=" ">
<polygon fill="none" stroke="black" points="326,-56.5 326,-75.5 384,-75.5 384,-56.5 326,-56.5"/>
<text text-anchor="middle" x="355" y="-63.5" font-family="Helvetica,sans-Serif" font-size="10.00">Sensor.h</text>
</a>
</g>
</g>
<!-- Node1&#45;&gt;Node5 -->
<g id="edge4" class="edge">
<title>Node1&#45;&gt;Node5</title>
<path fill="none" stroke="midnightblue" d="M252.33,-112.44C272.32,-103.6 303.74,-89.69 326.56,-79.59"/>
<polygon fill="midnightblue" stroke="midnightblue" points="328.03,-82.76 335.76,-75.52 325.2,-76.36 328.03,-82.76"/>
</g>
<!-- Node6 -->
<g id="node6" class="node">
<title>Node6</title>
<g id="a_node6"><a xlink:title=" ">
<polygon fill="none" stroke="#bfbfbf" points="323.5,-0.5 323.5,-19.5 386.5,-19.5 386.5,-0.5 323.5,-0.5"/>
<text text-anchor="middle" x="355" y="-7.5" font-family="Helvetica,sans-Serif" font-size="10.00">Arduino.h</text>
</a>
</g>
</g>
<!-- Node5&#45;&gt;Node6 -->
<g id="edge5" class="edge">
<title>Node5&#45;&gt;Node6</title>
<path fill="none" stroke="midnightblue" d="M355,-56.08C355,-49.01 355,-38.86 355,-29.99"/>
<polygon fill="midnightblue" stroke="midnightblue" points="358.5,-29.75 355,-19.75 351.5,-29.75 358.5,-29.75"/>
</g>
</g>
</svg>
