<?xml version="1.0" encoding="UTF-8" standalone="no"?>
<!DOCTYPE svg PUBLIC "-//W3C//DTD SVG 1.1//EN"
 "http://www.w3.org/Graphics/SVG/1.1/DTD/svg11.dtd">
<!-- Generated by graphviz version 2.43.0 (0)
 -->
<!-- Title: LSM9DS1Sensor.h Pages: 1 -->
<svg width="508pt" height="137pt"
 viewBox="0.00 0.00 507.50 137.00" xmlns="http://www.w3.org/2000/svg" xmlns:xlink="http://www.w3.org/1999/xlink">
<g id="graph0" class="graph" transform="scale(1 1) rotate(0) translate(4 133)">
<title>LSM9DS1Sensor.h</title>
<!-- Node1 -->
<g id="Node000001" class="node">
<title>Node1</title>
<g id="a_Node000001"><a xlink:title=" ">
<polygon fill="#999999" stroke="#666666" points="333,-129 229,-129 229,-110 333,-110 333,-129"/>
<text text-anchor="middle" x="281" y="-117" font-family="Helvetica,sans-Serif" font-size="10.00">LSM9DS1Sensor.h</text>
</a>
</g>
</g>
<!-- Node2 -->
<g id="Node000002" class="node">
<title>Node2</title>
<g id="a_Node000002"><a xlink:title=" ">
<polygon fill="#e0e0e0" stroke="#999999" points="116,-74 0,-74 0,-55 116,-55 116,-74"/>
<text text-anchor="middle" x="58" y="-62" font-family="Helvetica,sans-Serif" font-size="10.00">Adafruit_LSM9DS1.h</text>
</a>
</g>
</g>
<!-- Node1&#45;&gt;Node2 -->
<g id="edge1_Node000001_Node000002" class="edge">
<title>Node1&#45;&gt;Node2</title>
<g id="a_edge1_Node000001_Node000002"><a xlink:title=" ">
<path fill="none" stroke="#63b8ff" d="M245.17,-109.98C206.84,-100.87 145.92,-86.4 104.05,-76.45"/>
<polygon fill="#63b8ff" stroke="#63b8ff" points="104.65,-72.99 94.11,-74.08 103.03,-79.8 104.65,-72.99"/>
</a>
</g>
</g>
<!-- Node3 -->
<g id="Node000003" class="node">
<title>Node3</title>
<g id="a_Node000003"><a xlink:title=" ">
<polygon fill="#e0e0e0" stroke="#999999" points="236,-74 134,-74 134,-55 236,-55 236,-74"/>
<text text-anchor="middle" x="185" y="-62" font-family="Helvetica,sans-Serif" font-size="10.00">Adafruit_Sensor.h</text>
</a>
</g>
</g>
<!-- Node1&#45;&gt;Node3 -->
<g id="edge2_Node000001_Node000003" class="edge">
<title>Node1&#45;&gt;Node3</title>
<g id="a_edge2_Node000001_Node000003"><a xlink:title=" ">
<path fill="none" stroke="#63b8ff" d="M265.58,-109.98C250.55,-101.69 227.46,-88.94 209.84,-79.22"/>
<polygon fill="#63b8ff" stroke="#63b8ff" points="211.15,-75.94 200.7,-74.17 207.77,-82.07 211.15,-75.94"/>
</a>
</g>
</g>
<!-- Node4 -->
<g id="Node000004" class="node">
<title>Node4</title>
<g id="a_Node000004"><a xlink:title=" ">
<polygon fill="#e0e0e0" stroke="#999999" points="307.5,-74 254.5,-74 254.5,-55 307.5,-55 307.5,-74"/>
<text text-anchor="middle" x="281" y="-62" font-family="Helvetica,sans-Serif" font-size="10.00">string.h</text>
</a>
</g>
</g>
<!-- Node1&#45;&gt;Node4 -->
<g id="edge3_Node000001_Node000004" class="edge">
<title>Node1&#45;&gt;Node4</title>
<g id="a_edge3_Node000001_Node000004"><a xlink:title=" ">
<path fill="none" stroke="#63b8ff" d="M281,-109.75C281,-102.8 281,-92.85 281,-84.13"/>
<polygon fill="#63b8ff" stroke="#63b8ff" points="284.5,-84.09 281,-74.09 277.5,-84.09 284.5,-84.09"/>
</a>
</g>
</g>
<!-- Node5 -->
<g id="Node000005" class="node">
<title>Node5</title>
<g id="a_Node000005"><a xlink:href="PayloadConfig_8h.html" target="_top" xlink:title=" ">
<polygon fill="white" stroke="#666666" points="420.5,-74 325.5,-74 325.5,-55 420.5,-55 420.5,-74"/>
<text text-anchor="middle" x="373" y="-62" font-family="Helvetica,sans-Serif" font-size="10.00">PayloadConfig.h</text>
</a>
</g>
</g>
<!-- Node1&#45;&gt;Node5 -->
<g id="edge4_Node000001_Node000005" class="edge">
<title>Node1&#45;&gt;Node5</title>
<g id="a_edge4_Node000001_Node000005"><a xlink:title=" ">
<path fill="none" stroke="#63b8ff" d="M295.78,-109.98C310.18,-101.69 332.31,-88.94 349.19,-79.22"/>
<polygon fill="#63b8ff" stroke="#63b8ff" points="351.03,-82.19 357.95,-74.17 347.54,-76.13 351.03,-82.19"/>
</a>
</g>
</g>
<!-- Node6 -->
<g id="Node000006" class="node">
<title>Node6</title>
<g id="a_Node000006"><a xlink:href="Sensor_8h.html" target="_top" xlink:title=" ">
<polygon fill="white" stroke="#666666" points="497,-74 439,-74 439,-55 497,-55 497,-74"/>
<text text-anchor="middle" x="468" y="-62" font-family="Helvetica,sans-Serif" font-size="10.00">Sensor.h</text>
</a>
</g>
</g>
<!-- Node1&#45;&gt;Node6 -->
<g id="edge5_Node000001_Node000006" class="edge">
<title>Node1&#45;&gt;Node6</title>
<g id="a_edge5_Node000001_Node000006"><a xlink:title=" ">
<path fill="none" stroke="#63b8ff" d="M311.04,-109.98C343.09,-100.9 393.96,-86.49 429.05,-76.54"/>
<polygon fill="#63b8ff" stroke="#63b8ff" points="430.29,-79.83 438.95,-73.73 428.38,-73.09 430.29,-79.83"/>
</a>
</g>
</g>
<!-- Node7 -->
<g id="Node000007" class="node">
<title>Node7</title>
<g id="a_Node000007"><a xlink:title=" ">
<polygon fill="#e0e0e0" stroke="#999999" points="499.5,-19 436.5,-19 436.5,0 499.5,0 499.5,-19"/>
<text text-anchor="middle" x="468" y="-7" font-family="Helvetica,sans-Serif" font-size="10.00">Arduino.h</text>
</a>
</g>
</g>
<!-- Node6&#45;&gt;Node7 -->
<g id="edge6_Node000006_Node000007" class="edge">
<title>Node6&#45;&gt;Node7</title>
<g id="a_edge6_Node000006_Node000007"><a xlink:title=" ">
<path fill="none" stroke="#63b8ff" d="M468,-54.75C468,-47.8 468,-37.85 468,-29.13"/>
<polygon fill="#63b8ff" stroke="#63b8ff" points="471.5,-29.09 468,-19.09 464.5,-29.09 471.5,-29.09"/>
</a>
</g>
</g>
</g>
</svg>
