<?xml version="1.0" encoding="UTF-8" standalone="no"?>
<!DOCTYPE svg PUBLIC "-//W3C//DTD SVG 1.1//EN"
 "http://www.w3.org/Graphics/SVG/1.1/DTD/svg11.dtd">
<!-- Generated by graphviz version 2.43.0 (0)
 -->
<!-- Title: main.cpp Pages: 1 -->
<svg width="2521pt" height="196pt"
 viewBox="0.00 0.00 2520.50 196.00" xmlns="http://www.w3.org/2000/svg" xmlns:xlink="http://www.w3.org/1999/xlink">
<g id="graph0" class="graph" transform="scale(1 1) rotate(0) translate(4 192)">
<title>main.cpp</title>
<!-- Node1 -->
<g id="node1" class="node">
<title>Node1</title>
<g id="a_node1"><a xlink:title=" ">
<polygon fill="#bfbfbf" stroke="black" points="960.5,-168.5 960.5,-187.5 1022.5,-187.5 1022.5,-168.5 960.5,-168.5"/>
<text text-anchor="middle" x="991.5" y="-175.5" font-family="Helvetica,sans-Serif" font-size="10.00">main.cpp</text>
</a>
</g>
</g>
<!-- Node2 -->
<g id="node2" class="node">
<title>Node2</title>
<g id="a_node2"><a xlink:title=" ">
<polygon fill="none" stroke="#bfbfbf" points="516,-0.5 516,-19.5 579,-19.5 579,-0.5 516,-0.5"/>
<text text-anchor="middle" x="547.5" y="-7.5" font-family="Helvetica,sans-Serif" font-size="10.00">Arduino.h</text>
</a>
</g>
</g>
<!-- Node1&#45;&gt;Node2 -->
<g id="edge1" class="edge">
<title>Node1&#45;&gt;Node2</title>
<path fill="none" stroke="midnightblue" d="M960.37,-176.51C832.21,-174.29 349.24,-163.86 289.5,-132 255.26,-113.74 221.17,-85.4 246.5,-56 279.41,-17.8 430.56,-11.55 505.35,-10.84"/>
<polygon fill="midnightblue" stroke="midnightblue" points="505.83,-14.34 515.81,-10.77 505.78,-7.34 505.83,-14.34"/>
</g>
<!-- Node3 -->
<g id="node3" class="node">
<title>Node3</title>
<g id="a_node3"><a xlink:href="ErrorDisplay_8h.html" target="_top" xlink:title=" ">
<polygon fill="none" stroke="black" points="57.5,-56.5 57.5,-75.5 141.5,-75.5 141.5,-56.5 57.5,-56.5"/>
<text text-anchor="middle" x="99.5" y="-63.5" font-family="Helvetica,sans-Serif" font-size="10.00">ErrorDisplay.h</text>
</a>
</g>
</g>
<!-- Node1&#45;&gt;Node3 -->
<g id="edge2" class="edge">
<title>Node1&#45;&gt;Node3</title>
<path fill="none" stroke="midnightblue" d="M960.49,-176.4C808.94,-173.35 152.19,-158.63 118.5,-132 104.83,-121.19 100.62,-101.11 99.5,-86.12"/>
<polygon fill="midnightblue" stroke="midnightblue" points="102.99,-85.75 99.14,-75.88 95.99,-86 102.99,-85.75"/>
</g>
<!-- Node6 -->
<g id="node6" class="node">
<title>Node6</title>
<g id="a_node6"><a xlink:href="Sensor_8h.html" target="_top" xlink:title=" ">
<polygon fill="none" stroke="black" points="1089.5,-56.5 1089.5,-75.5 1147.5,-75.5 1147.5,-56.5 1089.5,-56.5"/>
<text text-anchor="middle" x="1118.5" y="-63.5" font-family="Helvetica,sans-Serif" font-size="10.00">Sensor.h</text>
</a>
</g>
</g>
<!-- Node1&#45;&gt;Node6 -->
<g id="edge6" class="edge">
<title>Node1&#45;&gt;Node6</title>
<path fill="none" stroke="midnightblue" d="M1022.58,-172.32C1047.72,-166.9 1082.15,-155.5 1102.5,-132 1113.54,-119.24 1117.21,-100.05 1118.31,-85.82"/>
<polygon fill="midnightblue" stroke="midnightblue" points="1121.81,-85.83 1118.74,-75.7 1114.82,-85.54 1121.81,-85.83"/>
</g>
<!-- Node7 -->
<g id="node7" class="node">
<title>Node7</title>
<g id="a_node7"><a xlink:href="Storage_8h.html" target="_top" xlink:title=" ">
<polygon fill="none" stroke="black" points="256,-56.5 256,-75.5 319,-75.5 319,-56.5 256,-56.5"/>
<text text-anchor="middle" x="287.5" y="-63.5" font-family="Helvetica,sans-Serif" font-size="10.00">Storage.h</text>
</a>
</g>
</g>
<!-- Node1&#45;&gt;Node7 -->
<g id="edge8" class="edge">
<title>Node1&#45;&gt;Node7</title>
<path fill="none" stroke="midnightblue" d="M960.4,-177C833.5,-176.7 359.19,-172.87 307.5,-132 293.77,-121.15 289.24,-101.07 287.85,-86.09"/>
<polygon fill="midnightblue" stroke="midnightblue" points="291.33,-85.67 287.3,-75.87 284.34,-86.04 291.33,-85.67"/>
</g>
<!-- Node8 -->
<g id="node8" class="node">
<title>Node8</title>
<g id="a_node8"><a xlink:href="AS7331Sensor_8h.html" target="_top" xlink:title=" ">
<polygon fill="none" stroke="black" points="888,-112.5 888,-131.5 983,-131.5 983,-112.5 888,-112.5"/>
<text text-anchor="middle" x="935.5" y="-119.5" font-family="Helvetica,sans-Serif" font-size="10.00">AS7331Sensor.h</text>
</a>
</g>
</g>
<!-- Node1&#45;&gt;Node8 -->
<g id="edge10" class="edge">
<title>Node1&#45;&gt;Node8</title>
<path fill="none" stroke="midnightblue" d="M982.5,-168.32C974.31,-160.42 961.99,-148.55 952.03,-138.94"/>
<polygon fill="midnightblue" stroke="midnightblue" points="954.29,-136.26 944.66,-131.83 949.43,-141.29 954.29,-136.26"/>
</g>
<!-- Node12 -->
<g id="node12" class="node">
<title>Node12</title>
<g id="a_node12"><a xlink:href="AnalogSensor_8h.html" target="_top" xlink:title=" ">
<polygon fill="none" stroke="black" points="1001.5,-112.5 1001.5,-131.5 1093.5,-131.5 1093.5,-112.5 1001.5,-112.5"/>
<text text-anchor="middle" x="1047.5" y="-119.5" font-family="Helvetica,sans-Serif" font-size="10.00">AnalogSensor.h</text>
</a>
</g>
</g>
<!-- Node1&#45;&gt;Node12 -->
<g id="edge15" class="edge">
<title>Node1&#45;&gt;Node12</title>
<path fill="none" stroke="midnightblue" d="M1000.5,-168.32C1008.69,-160.42 1021.01,-148.55 1030.97,-138.94"/>
<polygon fill="midnightblue" stroke="midnightblue" points="1033.57,-141.29 1038.34,-131.83 1028.71,-136.26 1033.57,-141.29"/>
</g>
<!-- Node13 -->
<g id="node13" class="node">
<title>Node13</title>
<g id="a_node13"><a xlink:href="BME280Sensor_8h.html" target="_top" xlink:title=" ">
<polygon fill="none" stroke="black" points="1828.5,-112.5 1828.5,-131.5 1926.5,-131.5 1926.5,-112.5 1828.5,-112.5"/>
<text text-anchor="middle" x="1877.5" y="-119.5" font-family="Helvetica,sans-Serif" font-size="10.00">BME280Sensor.h</text>
</a>
</g>
</g>
<!-- Node1&#45;&gt;Node13 -->
<g id="edge19" class="edge">
<title>Node1&#45;&gt;Node13</title>
<path fill="none" stroke="midnightblue" d="M1022.83,-176.45C1131.52,-174.32 1502.45,-165 1818.15,-132.15"/>
<polygon fill="midnightblue" stroke="midnightblue" points="1818.84,-135.6 1828.42,-131.08 1818.11,-128.64 1818.84,-135.6"/>
</g>
<!-- Node15 -->
<g id="node15" class="node">
<title>Node15</title>
<g id="a_node15"><a xlink:href="BME680Sensor_8h.html" target="_top" xlink:title=" ">
<polygon fill="none" stroke="black" points="1373.5,-112.5 1373.5,-131.5 1471.5,-131.5 1471.5,-112.5 1373.5,-112.5"/>
<text text-anchor="middle" x="1422.5" y="-119.5" font-family="Helvetica,sans-Serif" font-size="10.00">BME680Sensor.h</text>
</a>
</g>
</g>
<!-- Node1&#45;&gt;Node15 -->
<g id="edge22" class="edge">
<title>Node1&#45;&gt;Node15</title>
<path fill="none" stroke="midnightblue" d="M1022.98,-173.57C1085.69,-166.65 1230.86,-150.24 1363.53,-132.09"/>
<polygon fill="midnightblue" stroke="midnightblue" points="1364.04,-135.56 1373.47,-130.73 1363.09,-128.62 1364.04,-135.56"/>
</g>
<!-- Node19 -->
<g id="node19" class="node">
<title>Node19</title>
<g id="a_node19"><a xlink:href="DS3231Sensor_8h.html" target="_top" xlink:title=" ">
<polygon fill="none" stroke="black" points="1945,-112.5 1945,-131.5 2040,-131.5 2040,-112.5 1945,-112.5"/>
<text text-anchor="middle" x="1992.5" y="-119.5" font-family="Helvetica,sans-Serif" font-size="10.00">DS3231Sensor.h</text>
</a>
</g>
</g>
<!-- Node1&#45;&gt;Node19 -->
<g id="edge29" class="edge">
<title>Node1&#45;&gt;Node19</title>
<path fill="none" stroke="midnightblue" d="M1022.56,-176.75C1140.26,-175.53 1570.18,-168.75 1935,-131.92"/>
<polygon fill="midnightblue" stroke="midnightblue" points="1935.37,-135.4 1944.96,-130.9 1934.66,-128.43 1935.37,-135.4"/>
</g>
<!-- Node21 -->
<g id="node21" class="node">
<title>Node21</title>
<g id="a_node21"><a xlink:href="ENS160Sensor_8h.html" target="_top" xlink:title=" ">
<polygon fill="none" stroke="black" points="775,-112.5 775,-131.5 870,-131.5 870,-112.5 775,-112.5"/>
<text text-anchor="middle" x="822.5" y="-119.5" font-family="Helvetica,sans-Serif" font-size="10.00">ENS160Sensor.h</text>
</a>
</g>
</g>
<!-- Node1&#45;&gt;Node21 -->
<g id="edge32" class="edge">
<title>Node1&#45;&gt;Node21</title>
<path fill="none" stroke="midnightblue" d="M964.72,-168.44C936.17,-159.32 890.77,-144.81 858.96,-134.65"/>
<polygon fill="midnightblue" stroke="midnightblue" points="859.74,-131.23 849.15,-131.52 857.61,-137.89 859.74,-131.23"/>
</g>
<!-- Node23 -->
<g id="node23" class="node">
<title>Node23</title>
<g id="a_node23"><a xlink:href="GeigerSensor_8h.html" target="_top" xlink:title=" ">
<polygon fill="none" stroke="black" points="666.5,-112.5 666.5,-131.5 756.5,-131.5 756.5,-112.5 666.5,-112.5"/>
<text text-anchor="middle" x="711.5" y="-119.5" font-family="Helvetica,sans-Serif" font-size="10.00">GeigerSensor.h</text>
</a>
</g>
</g>
<!-- Node1&#45;&gt;Node23 -->
<g id="edge36" class="edge">
<title>Node1&#45;&gt;Node23</title>
<path fill="none" stroke="midnightblue" d="M960.47,-171.01C913.59,-161.97 824.05,-144.71 766.1,-133.53"/>
<polygon fill="midnightblue" stroke="midnightblue" points="766.51,-130.04 756.02,-131.59 765.18,-136.92 766.51,-130.04"/>
</g>
<!-- Node24 -->
<g id="node24" class="node">
<title>Node24</title>
<g id="a_node24"><a xlink:href="ICM20948Sensor_8h.html" target="_top" xlink:title=" ">
<polygon fill="none" stroke="black" points="1597,-112.5 1597,-131.5 1704,-131.5 1704,-112.5 1597,-112.5"/>
<text text-anchor="middle" x="1650.5" y="-119.5" font-family="Helvetica,sans-Serif" font-size="10.00">ICM20948Sensor.h</text>
</a>
</g>
</g>
<!-- Node1&#45;&gt;Node24 -->
<g id="edge39" class="edge">
<title>Node1&#45;&gt;Node24</title>
<path fill="none" stroke="midnightblue" d="M1022.65,-175.41C1109.96,-170.8 1364.7,-156.23 1586.56,-132.15"/>
<polygon fill="midnightblue" stroke="midnightblue" points="1587.2,-135.6 1596.76,-131.03 1586.44,-128.64 1587.2,-135.6"/>
</g>
<!-- Node27 -->
<g id="node27" class="node">
<title>Node27</title>
<g id="a_node27"><a xlink:href="INA260Sensor_8h.html" target="_top" xlink:title=" ">
<polygon fill="none" stroke="black" points="433,-112.5 433,-131.5 526,-131.5 526,-112.5 433,-112.5"/>
<text text-anchor="middle" x="479.5" y="-119.5" font-family="Helvetica,sans-Serif" font-size="10.00">INA260Sensor.h</text>
</a>
</g>
</g>
<!-- Node1&#45;&gt;Node27 -->
<g id="edge45" class="edge">
<title>Node1&#45;&gt;Node27</title>
<path fill="none" stroke="midnightblue" d="M960.46,-174.59C888.16,-168.85 702.68,-153.3 536.62,-132.07"/>
<polygon fill="midnightblue" stroke="midnightblue" points="536.59,-128.53 526.22,-130.73 535.69,-135.48 536.59,-128.53"/>
</g>
<!-- Node29 -->
<g id="node29" class="node">
<title>Node29</title>
<g id="a_node29"><a xlink:href="LSM9DS1Sensor_8h.html" target="_top" xlink:title=" ">
<polygon fill="none" stroke="black" points="1251.5,-112.5 1251.5,-131.5 1355.5,-131.5 1355.5,-112.5 1251.5,-112.5"/>
<text text-anchor="middle" x="1303.5" y="-119.5" font-family="Helvetica,sans-Serif" font-size="10.00">LSM9DS1Sensor.h</text>
</a>
</g>
</g>
<!-- Node1&#45;&gt;Node29 -->
<g id="edge50" class="edge">
<title>Node1&#45;&gt;Node29</title>
<path fill="none" stroke="midnightblue" d="M1022.56,-171.62C1074.06,-162.71 1177.99,-144.72 1243.98,-133.3"/>
<polygon fill="midnightblue" stroke="midnightblue" points="1244.98,-136.68 1254.23,-131.53 1243.78,-129.78 1244.98,-136.68"/>
</g>
<!-- Node31 -->
<g id="node31" class="node">
<title>Node31</title>
<g id="a_node31"><a xlink:href="MTK3339Sensor_8h.html" target="_top" xlink:title=" ">
<polygon fill="none" stroke="black" points="544.5,-112.5 544.5,-131.5 648.5,-131.5 648.5,-112.5 544.5,-112.5"/>
<text text-anchor="middle" x="596.5" y="-119.5" font-family="Helvetica,sans-Serif" font-size="10.00">MTK3339Sensor.h</text>
</a>
</g>
</g>
<!-- Node1&#45;&gt;Node31 -->
<g id="edge55" class="edge">
<title>Node1&#45;&gt;Node31</title>
<path fill="none" stroke="midnightblue" d="M960.17,-172.91C902.67,-165.38 776.17,-148.68 658.96,-132.19"/>
<polygon fill="midnightblue" stroke="midnightblue" points="659.13,-128.68 648.74,-130.75 658.15,-135.61 659.13,-128.68"/>
</g>
<!-- Node33 -->
<g id="node33" class="node">
<title>Node33</title>
<g id="a_node33"><a xlink:href="SGP30Sensor_8h.html" target="_top" xlink:title=" ">
<polygon fill="none" stroke="black" points="1722,-112.5 1722,-131.5 1811,-131.5 1811,-112.5 1722,-112.5"/>
<text text-anchor="middle" x="1766.5" y="-119.5" font-family="Helvetica,sans-Serif" font-size="10.00">SGP30Sensor.h</text>
</a>
</g>
</g>
<!-- Node1&#45;&gt;Node33 -->
<g id="edge60" class="edge">
<title>Node1&#45;&gt;Node33</title>
<path fill="none" stroke="midnightblue" d="M1022.57,-176.24C1121.66,-173.57 1439.26,-163.09 1711.65,-132.1"/>
<polygon fill="midnightblue" stroke="midnightblue" points="1712.19,-135.56 1721.73,-130.95 1711.39,-128.61 1712.19,-135.56"/>
</g>
<!-- Node36 -->
<g id="node36" class="node">
<title>Node36</title>
<g id="a_node36"><a xlink:href="SHT31Sensor_8h.html" target="_top" xlink:title=" ">
<polygon fill="none" stroke="black" points="1490,-112.5 1490,-131.5 1579,-131.5 1579,-112.5 1490,-112.5"/>
<text text-anchor="middle" x="1534.5" y="-119.5" font-family="Helvetica,sans-Serif" font-size="10.00">SHT31Sensor.h</text>
</a>
</g>
</g>
<!-- Node1&#45;&gt;Node36 -->
<g id="edge66" class="edge">
<title>Node1&#45;&gt;Node36</title>
<path fill="none" stroke="midnightblue" d="M1022.77,-174.92C1098.98,-169.69 1300.56,-154.82 1479.62,-132.02"/>
<polygon fill="midnightblue" stroke="midnightblue" points="1480.28,-135.46 1489.75,-130.72 1479.38,-128.52 1480.28,-135.46"/>
</g>
<!-- Node38 -->
<g id="node38" class="node">
<title>Node38</title>
<g id="a_node38"><a xlink:href="TempSensor_8h.html" target="_top" xlink:title=" ">
<polygon fill="none" stroke="black" points="1149.5,-112.5 1149.5,-131.5 1233.5,-131.5 1233.5,-112.5 1149.5,-112.5"/>
<text text-anchor="middle" x="1191.5" y="-119.5" font-family="Helvetica,sans-Serif" font-size="10.00">TempSensor.h</text>
</a>
</g>
</g>
<!-- Node1&#45;&gt;Node38 -->
<g id="edge72" class="edge">
<title>Node1&#45;&gt;Node38</title>
<path fill="none" stroke="midnightblue" d="M1022.75,-168.56C1057.04,-159.3 1112.23,-144.4 1150.1,-134.18"/>
<polygon fill="midnightblue" stroke="midnightblue" points="1151.07,-137.54 1159.81,-131.56 1149.24,-130.78 1151.07,-137.54"/>
</g>
<!-- Node39 -->
<g id="node39" class="node">
<title>Node39</title>
<g id="a_node39"><a xlink:href="RadioStorage_8h.html" target="_top" xlink:title=" ">
<polygon fill="none" stroke="black" points="316,-112.5 316,-131.5 407,-131.5 407,-112.5 316,-112.5"/>
<text text-anchor="middle" x="361.5" y="-119.5" font-family="Helvetica,sans-Serif" font-size="10.00">RadioStorage.h</text>
</a>
</g>
</g>
<!-- Node1&#45;&gt;Node39 -->
<g id="edge74" class="edge">
<title>Node1&#45;&gt;Node39</title>
<path fill="none" stroke="midnightblue" d="M960.4,-175.22C874.77,-170.17 628.39,-154.63 424.5,-132 422.14,-131.74 419.73,-131.46 417.29,-131.16"/>
<polygon fill="midnightblue" stroke="midnightblue" points="417.58,-127.67 407.22,-129.87 416.7,-134.61 417.58,-127.67"/>
</g>
<!-- Node40 -->
<g id="node40" class="node">
<title>Node40</title>
<g id="a_node40"><a xlink:href="SDStorage_8h.html" target="_top" xlink:title=" ">
<polygon fill="none" stroke="black" points="128,-112.5 128,-131.5 205,-131.5 205,-112.5 128,-112.5"/>
<text text-anchor="middle" x="166.5" y="-119.5" font-family="Helvetica,sans-Serif" font-size="10.00">SDStorage.h</text>
</a>
</g>
</g>
<!-- Node1&#45;&gt;Node40 -->
<g id="edge77" class="edge">
<title>Node1&#45;&gt;Node40</title>
<path fill="none" stroke="midnightblue" d="M960.14,-176.41C855.07,-174.16 505.97,-164.57 219.5,-132 218.2,-131.85 216.88,-131.69 215.54,-131.52"/>
<polygon fill="midnightblue" stroke="midnightblue" points="215.61,-128 205.22,-130.08 214.64,-134.93 215.61,-128"/>
</g>
<!-- Node3&#45;&gt;Node2 -->
<g id="edge3" class="edge">
<title>Node3&#45;&gt;Node2</title>
<path fill="none" stroke="midnightblue" d="M141.77,-57.33C144.72,-56.86 147.65,-56.41 150.5,-56 279.56,-37.32 433.17,-21.8 505.67,-14.88"/>
<polygon fill="midnightblue" stroke="midnightblue" points="506.14,-18.35 515.77,-13.92 505.48,-11.39 506.14,-18.35"/>
</g>
<!-- Node4 -->
<g id="node4" class="node">
<title>Node4</title>
<g id="a_node4"><a xlink:title=" ">
<polygon fill="none" stroke="#bfbfbf" points="0,-0.5 0,-19.5 95,-19.5 95,-0.5 0,-0.5"/>
<text text-anchor="middle" x="47.5" y="-7.5" font-family="Helvetica,sans-Serif" font-size="10.00">pico/multicore.h</text>
</a>
</g>
</g>
<!-- Node3&#45;&gt;Node4 -->
<g id="edge4" class="edge">
<title>Node3&#45;&gt;Node4</title>
<path fill="none" stroke="midnightblue" d="M90.91,-56.08C83.34,-48.22 72.12,-36.57 62.99,-27.08"/>
<polygon fill="midnightblue" stroke="midnightblue" points="65.38,-24.53 55.93,-19.75 60.34,-29.38 65.38,-24.53"/>
</g>
<!-- Node5 -->
<g id="node5" class="node">
<title>Node5</title>
<g id="a_node5"><a xlink:title=" ">
<polygon fill="none" stroke="#bfbfbf" points="113.5,-0.5 113.5,-19.5 189.5,-19.5 189.5,-0.5 113.5,-0.5"/>
<text text-anchor="middle" x="151.5" y="-7.5" font-family="Helvetica,sans-Serif" font-size="10.00">pico/stdlib.h</text>
</a>
</g>
</g>
<!-- Node3&#45;&gt;Node5 -->
<g id="edge5" class="edge">
<title>Node3&#45;&gt;Node5</title>
<path fill="none" stroke="midnightblue" d="M108.09,-56.08C115.66,-48.22 126.88,-36.57 136.01,-27.08"/>
<polygon fill="midnightblue" stroke="midnightblue" points="138.66,-29.38 143.07,-19.75 133.62,-24.53 138.66,-29.38"/>
</g>
<!-- Node6&#45;&gt;Node2 -->
<g id="edge7" class="edge">
<title>Node6&#45;&gt;Node2</title>
<path fill="none" stroke="midnightblue" d="M1089.44,-58.42C1084.8,-57.51 1080.03,-56.66 1075.5,-56 895.57,-29.6 678.7,-17.14 589.22,-12.83"/>
<polygon fill="midnightblue" stroke="midnightblue" points="589.35,-9.33 579.2,-12.36 589.02,-16.33 589.35,-9.33"/>
</g>
<!-- Node7&#45;&gt;Node2 -->
<g id="edge9" class="edge">
<title>Node7&#45;&gt;Node2</title>
<path fill="none" stroke="midnightblue" d="M319.12,-58.43C365.94,-48.71 453.75,-30.47 505.79,-19.66"/>
<polygon fill="midnightblue" stroke="midnightblue" points="506.61,-23.07 515.69,-17.61 505.19,-16.21 506.61,-23.07"/>
</g>
<!-- Node8&#45;&gt;Node6 -->
<g id="edge14" class="edge">
<title>Node8&#45;&gt;Node6</title>
<path fill="none" stroke="midnightblue" d="M964.5,-112.44C995.68,-103.24 1045.43,-88.56 1079.91,-78.39"/>
<polygon fill="midnightblue" stroke="midnightblue" points="1081.04,-81.7 1089.64,-75.52 1079.06,-74.99 1081.04,-81.7"/>
</g>
<!-- Node9 -->
<g id="node9" class="node">
<title>Node9</title>
<g id="a_node9"><a xlink:title=" ">
<polygon fill="none" stroke="#bfbfbf" points="920,-56.5 920,-75.5 1033,-75.5 1033,-56.5 920,-56.5"/>
<text text-anchor="middle" x="976.5" y="-63.5" font-family="Helvetica,sans-Serif" font-size="10.00">SparkFun_AS7331.h</text>
</a>
</g>
</g>
<!-- Node8&#45;&gt;Node9 -->
<g id="edge11" class="edge">
<title>Node8&#45;&gt;Node9</title>
<path fill="none" stroke="midnightblue" d="M942.27,-112.08C948.06,-104.46 956.56,-93.26 963.64,-83.94"/>
<polygon fill="midnightblue" stroke="midnightblue" points="966.6,-85.83 969.86,-75.75 961.02,-81.6 966.6,-85.83"/>
</g>
<!-- Node10 -->
<g id="node10" class="node">
<title>Node10</title>
<g id="a_node10"><a xlink:title=" ">
<polygon fill="none" stroke="#bfbfbf" points="853.5,-56.5 853.5,-75.5 901.5,-75.5 901.5,-56.5 853.5,-56.5"/>
<text text-anchor="middle" x="877.5" y="-63.5" font-family="Helvetica,sans-Serif" font-size="10.00">Wire.h</text>
</a>
</g>
</g>
<!-- Node8&#45;&gt;Node10 -->
<g id="edge12" class="edge">
<title>Node8&#45;&gt;Node10</title>
<path fill="none" stroke="midnightblue" d="M926.18,-112.32C917.61,-104.34 904.69,-92.31 894.31,-82.65"/>
<polygon fill="midnightblue" stroke="midnightblue" points="896.69,-80.09 886.99,-75.83 891.92,-85.21 896.69,-80.09"/>
</g>
<!-- Node11 -->
<g id="node11" class="node">
<title>Node11</title>
<g id="a_node11"><a xlink:title=" ">
<polygon fill="none" stroke="#bfbfbf" points="1300,-56.5 1300,-75.5 1353,-75.5 1353,-56.5 1300,-56.5"/>
<text text-anchor="middle" x="1326.5" y="-63.5" font-family="Helvetica,sans-Serif" font-size="10.00">string.h</text>
</a>
</g>
</g>
<!-- Node8&#45;&gt;Node11 -->
<g id="edge13" class="edge">
<title>Node8&#45;&gt;Node11</title>
<path fill="none" stroke="midnightblue" d="M983.07,-113.36C986.26,-112.89 989.42,-112.43 992.5,-112 1121.41,-94.04 1157.56,-99.92 1289.74,-75.92"/>
<polygon fill="midnightblue" stroke="midnightblue" points="1290.64,-79.31 1299.84,-74.06 1289.38,-72.42 1290.64,-79.31"/>
</g>
<!-- Node12&#45;&gt;Node2 -->
<g id="edge16" class="edge">
<title>Node12&#45;&gt;Node2</title>
<path fill="none" stroke="midnightblue" d="M1049.9,-112.44C1053.22,-98.51 1057.28,-70.99 1042.5,-56 1010.92,-23.98 702.46,-14.27 589.05,-11.77"/>
<polygon fill="midnightblue" stroke="midnightblue" points="589.09,-8.27 579.02,-11.55 588.94,-15.26 589.09,-8.27"/>
</g>
<!-- Node12&#45;&gt;Node6 -->
<g id="edge18" class="edge">
<title>Node12&#45;&gt;Node6</title>
<path fill="none" stroke="midnightblue" d="M1058.91,-112.32C1069.61,-104.18 1085.84,-91.84 1098.66,-82.09"/>
<polygon fill="midnightblue" stroke="midnightblue" points="1101.04,-84.67 1106.89,-75.83 1096.81,-79.1 1101.04,-84.67"/>
</g>
<!-- Node12&#45;&gt;Node11 -->
<g id="edge17" class="edge">
<title>Node12&#45;&gt;Node11</title>
<path fill="none" stroke="midnightblue" d="M1093.8,-113.3C1140.72,-105.31 1215.59,-92.01 1289.82,-76.04"/>
<polygon fill="midnightblue" stroke="midnightblue" points="1290.78,-79.41 1299.81,-73.87 1289.29,-72.57 1290.78,-79.41"/>
</g>
<!-- Node13&#45;&gt;Node6 -->
<g id="edge20" class="edge">
<title>Node13&#45;&gt;Node6</title>
<path fill="none" stroke="midnightblue" d="M1828.42,-112.92C1825.74,-112.59 1823.09,-112.27 1820.5,-112 1529.9,-81.26 1450.78,-117.39 1157.92,-75.94"/>
<polygon fill="midnightblue" stroke="midnightblue" points="1158.25,-72.45 1147.86,-74.5 1157.26,-79.38 1158.25,-72.45"/>
</g>
<!-- Node14 -->
<g id="node14" class="node">
<title>Node14</title>
<g id="a_node14"><a xlink:title=" ">
<polygon fill="none" stroke="#bfbfbf" points="2328.5,-56.5 2328.5,-75.5 2438.5,-75.5 2438.5,-56.5 2328.5,-56.5"/>
<text text-anchor="middle" x="2383.5" y="-63.5" font-family="Helvetica,sans-Serif" font-size="10.00">SparkFunBME280.h</text>
</a>
</g>
</g>
<!-- Node13&#45;&gt;Node14 -->
<g id="edge21" class="edge">
<title>Node13&#45;&gt;Node14</title>
<path fill="none" stroke="midnightblue" d="M1926.73,-113.27C1930.03,-112.82 1933.31,-112.39 1936.5,-112 2102.96,-91.5 2147.99,-95.74 2318.3,-76.09"/>
<polygon fill="midnightblue" stroke="midnightblue" points="2318.83,-79.55 2328.36,-74.92 2318.03,-72.6 2318.83,-79.55"/>
</g>
<!-- Node15&#45;&gt;Node6 -->
<g id="edge28" class="edge">
<title>Node15&#45;&gt;Node6</title>
<path fill="none" stroke="midnightblue" d="M1373.47,-113.1C1312.48,-103.2 1210.8,-86.49 1157.49,-76.07"/>
<polygon fill="midnightblue" stroke="midnightblue" points="1158,-72.6 1147.5,-74.07 1156.62,-79.46 1158,-72.6"/>
</g>
<!-- Node15&#45;&gt;Node10 -->
<g id="edge26" class="edge">
<title>Node15&#45;&gt;Node10</title>
<path fill="none" stroke="midnightblue" d="M1373.49,-113.13C1370.45,-112.73 1367.44,-112.34 1364.5,-112 1163.9,-88.5 1110.59,-109.98 911.5,-76 911.4,-75.98 911.3,-75.97 911.19,-75.95"/>
<polygon fill="midnightblue" stroke="midnightblue" points="912.03,-72.55 901.53,-73.93 910.6,-79.4 912.03,-72.55"/>
</g>
<!-- Node15&#45;&gt;Node11 -->
<g id="edge27" class="edge">
<title>Node15&#45;&gt;Node11</title>
<path fill="none" stroke="midnightblue" d="M1407.08,-112.32C1391.96,-103.82 1368.68,-90.73 1351.03,-80.8"/>
<polygon fill="midnightblue" stroke="midnightblue" points="1352.32,-77.51 1341.89,-75.65 1348.89,-83.61 1352.32,-77.51"/>
</g>
<!-- Node16 -->
<g id="node16" class="node">
<title>Node16</title>
<g id="a_node16"><a xlink:title=" ">
<polygon fill="none" stroke="#bfbfbf" points="1371.5,-56.5 1371.5,-75.5 1481.5,-75.5 1481.5,-56.5 1371.5,-56.5"/>
<text text-anchor="middle" x="1426.5" y="-63.5" font-family="Helvetica,sans-Serif" font-size="10.00">Adafruit_BME680.h</text>
</a>
</g>
</g>
<!-- Node15&#45;&gt;Node16 -->
<g id="edge23" class="edge">
<title>Node15&#45;&gt;Node16</title>
<path fill="none" stroke="midnightblue" d="M1423.16,-112.08C1423.68,-105.01 1424.44,-94.86 1425.09,-85.99"/>
<polygon fill="midnightblue" stroke="midnightblue" points="1428.6,-85.98 1425.85,-75.75 1421.62,-85.47 1428.6,-85.98"/>
</g>
<!-- Node17 -->
<g id="node17" class="node">
<title>Node17</title>
<g id="a_node17"><a xlink:title=" ">
<polygon fill="none" stroke="#bfbfbf" points="1499.5,-56.5 1499.5,-75.5 1601.5,-75.5 1601.5,-56.5 1499.5,-56.5"/>
<text text-anchor="middle" x="1550.5" y="-63.5" font-family="Helvetica,sans-Serif" font-size="10.00">Adafruit_Sensor.h</text>
</a>
</g>
</g>
<!-- Node15&#45;&gt;Node17 -->
<g id="edge24" class="edge">
<title>Node15&#45;&gt;Node17</title>
<path fill="none" stroke="midnightblue" d="M1442.78,-112.44C1463.85,-103.56 1497.02,-89.56 1520.99,-79.45"/>
<polygon fill="midnightblue" stroke="midnightblue" points="1522.46,-82.63 1530.31,-75.52 1519.74,-76.18 1522.46,-82.63"/>
</g>
<!-- Node18 -->
<g id="node18" class="node">
<title>Node18</title>
<g id="a_node18"><a xlink:title=" ">
<polygon fill="none" stroke="#bfbfbf" points="1620,-56.5 1620,-75.5 1661,-75.5 1661,-56.5 1620,-56.5"/>
<text text-anchor="middle" x="1640.5" y="-63.5" font-family="Helvetica,sans-Serif" font-size="10.00">SPI.h</text>
</a>
</g>
</g>
<!-- Node15&#45;&gt;Node18 -->
<g id="edge25" class="edge">
<title>Node15&#45;&gt;Node18</title>
<path fill="none" stroke="midnightblue" d="M1460.83,-112.49C1496.85,-104.35 1552.47,-91.4 1609.9,-76.04"/>
<polygon fill="midnightblue" stroke="midnightblue" points="1611.14,-79.33 1619.89,-73.35 1609.32,-72.57 1611.14,-79.33"/>
</g>
<!-- Node19&#45;&gt;Node6 -->
<g id="edge31" class="edge">
<title>Node19&#45;&gt;Node6</title>
<path fill="none" stroke="midnightblue" d="M1944.97,-113.09C1941.77,-112.68 1938.59,-112.31 1935.5,-112 1593.97,-77.25 1501.49,-123.26 1157.84,-75.91"/>
<polygon fill="midnightblue" stroke="midnightblue" points="1158.24,-72.44 1147.86,-74.52 1157.28,-79.37 1158.24,-72.44"/>
</g>
<!-- Node20 -->
<g id="node20" class="node">
<title>Node20</title>
<g id="a_node20"><a xlink:title=" ">
<polygon fill="none" stroke="#bfbfbf" points="2456.5,-56.5 2456.5,-75.5 2512.5,-75.5 2512.5,-56.5 2456.5,-56.5"/>
<text text-anchor="middle" x="2484.5" y="-63.5" font-family="Helvetica,sans-Serif" font-size="10.00">RTClib.h</text>
</a>
</g>
</g>
<!-- Node19&#45;&gt;Node20 -->
<g id="edge30" class="edge">
<title>Node19&#45;&gt;Node20</title>
<path fill="none" stroke="midnightblue" d="M2040.28,-118.48C2121.7,-113.71 2292.64,-101.61 2446.21,-76"/>
<polygon fill="midnightblue" stroke="midnightblue" points="2447.03,-79.41 2456.3,-74.29 2445.86,-72.51 2447.03,-79.41"/>
</g>
<!-- Node21&#45;&gt;Node6 -->
<g id="edge34" class="edge">
<title>Node21&#45;&gt;Node6</title>
<path fill="none" stroke="midnightblue" d="M869.4,-112.44C927.44,-101.85 1025.22,-84.02 1079.4,-74.13"/>
<polygon fill="midnightblue" stroke="midnightblue" points="1080.1,-77.56 1089.31,-72.32 1078.85,-70.68 1080.1,-77.56"/>
</g>
<!-- Node21&#45;&gt;Node10 -->
<g id="edge33" class="edge">
<title>Node21&#45;&gt;Node10</title>
<path fill="none" stroke="midnightblue" d="M831.58,-112.08C839.67,-104.14 851.7,-92.34 861.41,-82.8"/>
<polygon fill="midnightblue" stroke="midnightblue" points="863.9,-85.25 868.59,-75.75 859,-80.26 863.9,-85.25"/>
</g>
<!-- Node22 -->
<g id="node22" class="node">
<title>Node22</title>
<g id="a_node22"><a xlink:title=" ">
<polygon fill="none" stroke="#bfbfbf" points="722,-56.5 722,-75.5 835,-75.5 835,-56.5 722,-56.5"/>
<text text-anchor="middle" x="778.5" y="-63.5" font-family="Helvetica,sans-Serif" font-size="10.00">SparkFun_ENS160.h</text>
</a>
</g>
</g>
<!-- Node21&#45;&gt;Node22 -->
<g id="edge35" class="edge">
<title>Node21&#45;&gt;Node22</title>
<path fill="none" stroke="midnightblue" d="M815.23,-112.08C808.96,-104.38 799.71,-93.03 792.07,-83.65"/>
<polygon fill="midnightblue" stroke="midnightblue" points="794.66,-81.29 785.63,-75.75 789.23,-85.71 794.66,-81.29"/>
</g>
<!-- Node23&#45;&gt;Node2 -->
<g id="edge37" class="edge">
<title>Node23&#45;&gt;Node2</title>
<path fill="none" stroke="midnightblue" d="M708.71,-112.11C703.92,-98.21 692.82,-71.34 674.5,-56 650.09,-35.56 615.73,-24.14 588.91,-17.92"/>
<polygon fill="midnightblue" stroke="midnightblue" points="589.55,-14.48 579.03,-15.78 588.07,-21.32 589.55,-14.48"/>
</g>
<!-- Node23&#45;&gt;Node6 -->
<g id="edge38" class="edge">
<title>Node23&#45;&gt;Node6</title>
<path fill="none" stroke="midnightblue" d="M756.5,-113.5C759.88,-112.98 763.24,-112.47 766.5,-112 826.23,-103.3 1000.76,-81.55 1079.34,-71.83"/>
<polygon fill="midnightblue" stroke="midnightblue" points="1079.84,-75.3 1089.33,-70.6 1078.98,-68.35 1079.84,-75.3"/>
</g>
<!-- Node24&#45;&gt;Node6 -->
<g id="edge44" class="edge">
<title>Node24&#45;&gt;Node6</title>
<path fill="none" stroke="midnightblue" d="M1596.76,-112.99C1593.97,-112.64 1591.2,-112.31 1588.5,-112 1400.35,-90.52 1348.53,-105.75 1157.94,-76.01"/>
<polygon fill="midnightblue" stroke="midnightblue" points="1158.3,-72.52 1147.87,-74.41 1157.2,-79.43 1158.3,-72.52"/>
</g>
<!-- Node24&#45;&gt;Node11 -->
<g id="edge43" class="edge">
<title>Node24&#45;&gt;Node11</title>
<path fill="none" stroke="midnightblue" d="M1596.79,-113.2C1530.38,-103.46 1420.11,-86.94 1363.16,-75.94"/>
<polygon fill="midnightblue" stroke="midnightblue" points="1363.67,-72.47 1353.18,-73.95 1362.3,-79.34 1363.67,-72.47"/>
</g>
<!-- Node24&#45;&gt;Node17 -->
<g id="edge42" class="edge">
<title>Node24&#45;&gt;Node17</title>
<path fill="none" stroke="midnightblue" d="M1634.43,-112.32C1618.54,-103.74 1593.99,-90.49 1575.54,-80.52"/>
<polygon fill="midnightblue" stroke="midnightblue" points="1576.99,-77.33 1566.53,-75.65 1573.66,-83.49 1576.99,-77.33"/>
</g>
<!-- Node25 -->
<g id="node25" class="node">
<title>Node25</title>
<g id="a_node25"><a xlink:title=" ">
<polygon fill="none" stroke="#bfbfbf" points="1837,-56.5 1837,-75.5 1956,-75.5 1956,-56.5 1837,-56.5"/>
<text text-anchor="middle" x="1896.5" y="-63.5" font-family="Helvetica,sans-Serif" font-size="10.00">Adafruit_ICM20948.h</text>
</a>
</g>
</g>
<!-- Node24&#45;&gt;Node25 -->
<g id="edge40" class="edge">
<title>Node24&#45;&gt;Node25</title>
<path fill="none" stroke="midnightblue" d="M1689.48,-112.44C1732.39,-103.02 1801.45,-87.87 1847.87,-77.68"/>
<polygon fill="midnightblue" stroke="midnightblue" points="1848.69,-81.08 1857.7,-75.52 1847.19,-74.24 1848.69,-81.08"/>
</g>
<!-- Node26 -->
<g id="node26" class="node">
<title>Node26</title>
<g id="a_node26"><a xlink:title=" ">
<polygon fill="none" stroke="#bfbfbf" points="1974,-56.5 1974,-75.5 2081,-75.5 2081,-56.5 1974,-56.5"/>
<text text-anchor="middle" x="2027.5" y="-63.5" font-family="Helvetica,sans-Serif" font-size="10.00">Adafruit_ICM20X.h</text>
</a>
</g>
</g>
<!-- Node24&#45;&gt;Node26 -->
<g id="edge41" class="edge">
<title>Node24&#45;&gt;Node26</title>
<path fill="none" stroke="midnightblue" d="M1704.03,-113.36C1782.08,-102.21 1921.76,-82.26 1963.74,-76.25"/>
<polygon fill="midnightblue" stroke="midnightblue" points="1964.33,-79.7 1973.73,-74.81 1963.34,-72.77 1964.33,-79.7"/>
</g>
<!-- Node27&#45;&gt;Node2 -->
<g id="edge46" class="edge">
<title>Node27&#45;&gt;Node2</title>
<path fill="none" stroke="midnightblue" d="M455.7,-112.46C427.96,-101.16 388.03,-79.87 405.5,-56 428.24,-24.93 472.56,-14.78 505.67,-11.72"/>
<polygon fill="midnightblue" stroke="midnightblue" points="506.27,-15.19 515.98,-10.96 505.75,-8.21 506.27,-15.19"/>
</g>
<!-- Node27&#45;&gt;Node6 -->
<g id="edge49" class="edge">
<title>Node27&#45;&gt;Node6</title>
<path fill="none" stroke="midnightblue" d="M526.21,-113.18C529.35,-112.75 532.47,-112.35 535.5,-112 759.91,-86.05 817.6,-97.29 1042.5,-76 1054.47,-74.87 1067.47,-73.41 1079.28,-72"/>
<polygon fill="midnightblue" stroke="midnightblue" points="1079.8,-75.46 1089.3,-70.78 1078.95,-68.52 1079.8,-75.46"/>
</g>
<!-- Node27&#45;&gt;Node11 -->
<g id="edge47" class="edge">
<title>Node27&#45;&gt;Node11</title>
<path fill="none" stroke="midnightblue" d="M526.2,-113.09C529.34,-112.69 532.46,-112.32 535.5,-112 866.38,-77.63 956.4,-124.05 1289.94,-75.73"/>
<polygon fill="midnightblue" stroke="midnightblue" points="1290.49,-79.19 1299.88,-74.28 1289.48,-72.26 1290.49,-79.19"/>
</g>
<!-- Node28 -->
<g id="node28" class="node">
<title>Node28</title>
<g id="a_node28"><a xlink:title=" ">
<polygon fill="none" stroke="#bfbfbf" points="414,-56.5 414,-75.5 519,-75.5 519,-56.5 414,-56.5"/>
<text text-anchor="middle" x="466.5" y="-63.5" font-family="Helvetica,sans-Serif" font-size="10.00">Adafruit_INA260.h</text>
</a>
</g>
</g>
<!-- Node27&#45;&gt;Node28 -->
<g id="edge48" class="edge">
<title>Node27&#45;&gt;Node28</title>
<path fill="none" stroke="midnightblue" d="M477.35,-112.08C475.63,-104.93 473.15,-94.64 471,-85.69"/>
<polygon fill="midnightblue" stroke="midnightblue" points="474.35,-84.65 468.61,-75.75 467.54,-86.29 474.35,-84.65"/>
</g>
<!-- Node29&#45;&gt;Node6 -->
<g id="edge54" class="edge">
<title>Node29&#45;&gt;Node6</title>
<path fill="none" stroke="midnightblue" d="M1274.19,-112.44C1242.66,-103.24 1192.37,-88.56 1157.51,-78.39"/>
<polygon fill="midnightblue" stroke="midnightblue" points="1158.26,-74.96 1147.68,-75.52 1156.3,-81.68 1158.26,-74.96"/>
</g>
<!-- Node29&#45;&gt;Node11 -->
<g id="edge53" class="edge">
<title>Node29&#45;&gt;Node11</title>
<path fill="none" stroke="midnightblue" d="M1307.3,-112.08C1310.41,-104.77 1314.92,-94.18 1318.79,-85.1"/>
<polygon fill="midnightblue" stroke="midnightblue" points="1322.07,-86.32 1322.77,-75.75 1315.63,-83.58 1322.07,-86.32"/>
</g>
<!-- Node29&#45;&gt;Node17 -->
<g id="edge52" class="edge">
<title>Node29&#45;&gt;Node17</title>
<path fill="none" stroke="midnightblue" d="M1342.64,-112.44C1385.73,-103.02 1455.06,-87.87 1501.67,-77.68"/>
<polygon fill="midnightblue" stroke="midnightblue" points="1502.52,-81.07 1511.55,-75.52 1501.03,-74.23 1502.52,-81.07"/>
</g>
<!-- Node30 -->
<g id="node30" class="node">
<title>Node30</title>
<g id="a_node30"><a xlink:title=" ">
<polygon fill="none" stroke="#bfbfbf" points="1165.5,-56.5 1165.5,-75.5 1281.5,-75.5 1281.5,-56.5 1165.5,-56.5"/>
<text text-anchor="middle" x="1223.5" y="-63.5" font-family="Helvetica,sans-Serif" font-size="10.00">Adafruit_LSM9DS1.h</text>
</a>
</g>
</g>
<!-- Node29&#45;&gt;Node30 -->
<g id="edge51" class="edge">
<title>Node29&#45;&gt;Node30</title>
<path fill="none" stroke="midnightblue" d="M1290.65,-112.32C1278.28,-103.98 1259.37,-91.21 1244.76,-81.35"/>
<polygon fill="midnightblue" stroke="midnightblue" points="1246.57,-78.35 1236.32,-75.65 1242.65,-84.15 1246.57,-78.35"/>
</g>
<!-- Node31&#45;&gt;Node2 -->
<g id="edge57" class="edge">
<title>Node31&#45;&gt;Node2</title>
<path fill="none" stroke="midnightblue" d="M589.97,-112.45C583.53,-103.69 573.77,-89.48 567.5,-76 560.5,-60.95 555.15,-42.82 551.76,-29.53"/>
<polygon fill="midnightblue" stroke="midnightblue" points="555.13,-28.58 549.37,-19.69 548.33,-30.23 555.13,-28.58"/>
</g>
<!-- Node31&#45;&gt;Node6 -->
<g id="edge59" class="edge">
<title>Node31&#45;&gt;Node6</title>
<path fill="none" stroke="midnightblue" d="M648.72,-113.11C651.69,-112.72 654.63,-112.35 657.5,-112 828.12,-91.45 871.6,-94.11 1042.5,-76 1054.46,-74.73 1067.46,-73.24 1079.27,-71.83"/>
<polygon fill="midnightblue" stroke="midnightblue" points="1079.77,-75.3 1089.29,-70.63 1078.94,-68.35 1079.77,-75.3"/>
</g>
<!-- Node31&#45;&gt;Node10 -->
<g id="edge58" class="edge">
<title>Node31&#45;&gt;Node10</title>
<path fill="none" stroke="midnightblue" d="M648.54,-112.91C696.74,-105.11 770.6,-92.39 843.59,-76.05"/>
<polygon fill="midnightblue" stroke="midnightblue" points="844.43,-79.45 853.41,-73.83 842.88,-72.62 844.43,-79.45"/>
</g>
<!-- Node32 -->
<g id="node32" class="node">
<title>Node32</title>
<g id="a_node32"><a xlink:title=" ">
<polygon fill="none" stroke="#bfbfbf" points="576,-56.5 576,-75.5 665,-75.5 665,-56.5 576,-56.5"/>
<text text-anchor="middle" x="620.5" y="-63.5" font-family="Helvetica,sans-Serif" font-size="10.00">Adafruit_GPS.h</text>
</a>
</g>
</g>
<!-- Node31&#45;&gt;Node32 -->
<g id="edge56" class="edge">
<title>Node31&#45;&gt;Node32</title>
<path fill="none" stroke="midnightblue" d="M600.46,-112.08C603.71,-104.77 608.42,-94.18 612.45,-85.1"/>
<polygon fill="midnightblue" stroke="midnightblue" points="615.75,-86.31 616.61,-75.75 609.35,-83.47 615.75,-86.31"/>
</g>
<!-- Node33&#45;&gt;Node2 -->
<g id="edge61" class="edge">
<title>Node33&#45;&gt;Node2</title>
<path fill="none" stroke="midnightblue" d="M1811.01,-113.32C1813.88,-112.86 1816.73,-112.42 1819.5,-112 1941.11,-93.6 2176.19,-144.22 2090.5,-56 2063.59,-28.3 833.46,-13.99 589.35,-11.42"/>
<polygon fill="midnightblue" stroke="midnightblue" points="589.16,-7.92 579.12,-11.32 589.09,-14.92 589.16,-7.92"/>
</g>
<!-- Node33&#45;&gt;Node6 -->
<g id="edge65" class="edge">
<title>Node33&#45;&gt;Node6</title>
<path fill="none" stroke="midnightblue" d="M1721.73,-113.06C1718.95,-112.67 1716.19,-112.31 1713.5,-112 1470.35,-83.58 1403.59,-111.95 1157.81,-75.95"/>
<polygon fill="midnightblue" stroke="midnightblue" points="1158.27,-72.48 1147.86,-74.47 1157.24,-79.4 1158.27,-72.48"/>
</g>
<!-- Node33&#45;&gt;Node11 -->
<g id="edge63" class="edge">
<title>Node33&#45;&gt;Node11</title>
<path fill="none" stroke="midnightblue" d="M1722,-113.22C1719.13,-112.79 1716.27,-112.38 1713.5,-112 1561.3,-91.3 1518.7,-102.6 1363.07,-75.84"/>
<polygon fill="midnightblue" stroke="midnightblue" points="1363.6,-72.38 1353.15,-74.11 1362.4,-79.28 1363.6,-72.38"/>
</g>
<!-- Node34 -->
<g id="node34" class="node">
<title>Node34</title>
<g id="a_node34"><a xlink:title=" ">
<polygon fill="none" stroke="#bfbfbf" points="2257,-56.5 2257,-75.5 2310,-75.5 2310,-56.5 2257,-56.5"/>
<text text-anchor="middle" x="2283.5" y="-63.5" font-family="Helvetica,sans-Serif" font-size="10.00">stdint.h</text>
</a>
</g>
</g>
<!-- Node33&#45;&gt;Node34 -->
<g id="edge62" class="edge">
<title>Node33&#45;&gt;Node34</title>
<path fill="none" stroke="midnightblue" d="M1811.28,-113.12C1814.06,-112.72 1816.81,-112.34 1819.5,-112 2006.08,-88.37 2058.08,-107.27 2246.87,-76.02"/>
<polygon fill="midnightblue" stroke="midnightblue" points="2247.56,-79.45 2256.85,-74.35 2246.4,-72.55 2247.56,-79.45"/>
</g>
<!-- Node35 -->
<g id="node35" class="node">
<title>Node35</title>
<g id="a_node35"><a xlink:title=" ">
<polygon fill="none" stroke="#bfbfbf" points="2138,-56.5 2138,-75.5 2239,-75.5 2239,-56.5 2138,-56.5"/>
<text text-anchor="middle" x="2188.5" y="-63.5" font-family="Helvetica,sans-Serif" font-size="10.00">Adafruit_SGP30.h</text>
</a>
</g>
</g>
<!-- Node33&#45;&gt;Node35 -->
<g id="edge64" class="edge">
<title>Node33&#45;&gt;Node35</title>
<path fill="none" stroke="midnightblue" d="M1811.01,-113.28C1813.88,-112.83 1816.73,-112.4 1819.5,-112 1954.17,-92.61 1988.55,-93.33 2123.5,-76 2124.8,-75.83 2126.12,-75.66 2127.45,-75.49"/>
<polygon fill="midnightblue" stroke="midnightblue" points="2128.32,-78.9 2137.77,-74.12 2127.4,-71.97 2128.32,-78.9"/>
</g>
<!-- Node36&#45;&gt;Node2 -->
<g id="edge67" class="edge">
<title>Node36&#45;&gt;Node2</title>
<path fill="none" stroke="midnightblue" d="M1577.42,-112.5C1612.96,-104.48 1659.36,-91.42 1670.5,-76 1675.71,-68.79 1676.66,-62.41 1670.5,-56 1632.36,-16.3 788.49,-11.62 589.34,-11.07"/>
<polygon fill="midnightblue" stroke="midnightblue" points="589.29,-7.57 579.28,-11.05 589.27,-14.57 589.29,-7.57"/>
</g>
<!-- Node36&#45;&gt;Node6 -->
<g id="edge71" class="edge">
<title>Node36&#45;&gt;Node6</title>
<path fill="none" stroke="midnightblue" d="M1489.74,-113.35C1486.62,-112.87 1483.51,-112.42 1480.5,-112 1340.21,-92.53 1301.01,-100.37 1157.92,-76.06"/>
<polygon fill="midnightblue" stroke="midnightblue" points="1158.33,-72.58 1147.89,-74.33 1157.15,-79.48 1158.33,-72.58"/>
</g>
<!-- Node36&#45;&gt;Node10 -->
<g id="edge68" class="edge">
<title>Node36&#45;&gt;Node10</title>
<path fill="none" stroke="midnightblue" d="M1489.76,-113.18C1486.63,-112.75 1483.52,-112.35 1480.5,-112 1228.76,-83.13 1161.62,-116.61 911.5,-76 911.4,-75.98 911.3,-75.97 911.19,-75.95"/>
<polygon fill="midnightblue" stroke="midnightblue" points="912.02,-72.55 901.52,-73.98 910.62,-79.41 912.02,-72.55"/>
</g>
<!-- Node36&#45;&gt;Node11 -->
<g id="edge69" class="edge">
<title>Node36&#45;&gt;Node11</title>
<path fill="none" stroke="midnightblue" d="M1501.54,-112.44C1463.79,-102.64 1402.12,-86.63 1362.96,-76.47"/>
<polygon fill="midnightblue" stroke="midnightblue" points="1363.59,-73.01 1353.03,-73.89 1361.83,-79.79 1363.59,-73.01"/>
</g>
<!-- Node37 -->
<g id="node37" class="node">
<title>Node37</title>
<g id="a_node37"><a xlink:title=" ">
<polygon fill="none" stroke="#bfbfbf" points="1718,-56.5 1718,-75.5 1819,-75.5 1819,-56.5 1718,-56.5"/>
<text text-anchor="middle" x="1768.5" y="-63.5" font-family="Helvetica,sans-Serif" font-size="10.00">Adafruit_SHT31.h</text>
</a>
</g>
</g>
<!-- Node36&#45;&gt;Node37 -->
<g id="edge70" class="edge">
<title>Node36&#45;&gt;Node37</title>
<path fill="none" stroke="midnightblue" d="M1571.58,-112.44C1612.23,-103.06 1677.53,-87.99 1721.68,-77.8"/>
<polygon fill="midnightblue" stroke="midnightblue" points="1722.64,-81.18 1731.6,-75.52 1721.06,-74.35 1722.64,-81.18"/>
</g>
<!-- Node38&#45;&gt;Node6 -->
<g id="edge73" class="edge">
<title>Node38&#45;&gt;Node6</title>
<path fill="none" stroke="midnightblue" d="M1179.77,-112.32C1168.66,-104.11 1151.76,-91.6 1138.52,-81.81"/>
<polygon fill="midnightblue" stroke="midnightblue" points="1140.56,-78.97 1130.44,-75.83 1136.4,-84.59 1140.56,-78.97"/>
</g>
<!-- Node39&#45;&gt;Node2 -->
<g id="edge75" class="edge">
<title>Node39&#45;&gt;Node2</title>
<path fill="none" stroke="midnightblue" d="M363.77,-112.45C367.91,-98.54 378.01,-71.05 396.5,-56 427.7,-30.6 472.9,-19.53 505.7,-14.71"/>
<polygon fill="midnightblue" stroke="midnightblue" points="506.43,-18.15 515.89,-13.36 505.51,-11.21 506.43,-18.15"/>
</g>
<!-- Node39&#45;&gt;Node7 -->
<g id="edge76" class="edge">
<title>Node39&#45;&gt;Node7</title>
<path fill="none" stroke="midnightblue" d="M349.61,-112.32C338.35,-104.11 321.21,-91.6 307.79,-81.81"/>
<polygon fill="midnightblue" stroke="midnightblue" points="309.75,-78.9 299.61,-75.83 305.62,-84.56 309.75,-78.9"/>
</g>
<!-- Node40&#45;&gt;Node3 -->
<g id="edge78" class="edge">
<title>Node40&#45;&gt;Node3</title>
<path fill="none" stroke="midnightblue" d="M155.74,-112.32C145.73,-104.26 130.61,-92.08 118.57,-82.37"/>
<polygon fill="midnightblue" stroke="midnightblue" points="120.44,-79.38 110.46,-75.83 116.05,-84.83 120.44,-79.38"/>
</g>
<!-- Node40&#45;&gt;Node7 -->
<g id="edge80" class="edge">
<title>Node40&#45;&gt;Node7</title>
<path fill="none" stroke="midnightblue" d="M185.67,-112.44C205.41,-103.64 236.39,-89.81 258.99,-79.72"/>
<polygon fill="midnightblue" stroke="midnightblue" points="260.71,-82.79 268.42,-75.52 257.86,-76.4 260.71,-82.79"/>
</g>
<!-- Node41 -->
<g id="node41" class="node">
<title>Node41</title>
<g id="a_node41"><a xlink:title=" ">
<polygon fill="none" stroke="#bfbfbf" points="160,-56.5 160,-75.5 199,-75.5 199,-56.5 160,-56.5"/>
<text text-anchor="middle" x="179.5" y="-63.5" font-family="Helvetica,sans-Serif" font-size="10.00">SD.h</text>
</a>
</g>
</g>
<!-- Node40&#45;&gt;Node41 -->
<g id="edge79" class="edge">
<title>Node40&#45;&gt;Node41</title>
<path fill="none" stroke="midnightblue" d="M168.65,-112.08C170.37,-104.93 172.85,-94.64 175,-85.69"/>
<polygon fill="midnightblue" stroke="midnightblue" points="178.46,-86.29 177.39,-75.75 171.65,-84.65 178.46,-86.29"/>
</g>
</g>
</svg>
