<?xml version="1.0" encoding="UTF-8" standalone="no"?>
<!DOCTYPE svg PUBLIC "-//W3C//DTD SVG 1.1//EN"
 "http://www.w3.org/Graphics/SVG/1.1/DTD/svg11.dtd">
<!-- Generated by graphviz version 2.43.0 (0)
 -->
<!-- Title: main.cpp Pages: 1 -->
<!--zoomable 196 -->
<svg id="main" version="1.1" xmlns="http://www.w3.org/2000/svg" xmlns:xlink="http://www.w3.org/1999/xlink" xml:space="preserve" onload="init(evt)">
<style type="text/css"><![CDATA[
.edge:hover path { stroke: red; }
.edge:hover polygon { stroke: red; fill: red; }
]]></style>
<script type="text/javascript"><![CDATA[
var edges = document.getElementsByTagName('g');
if (edges && edges.length) {
  for (var i=0;i<edges.length;i++) {
    if (edges[i].id.substr(0,4)=='edge') {
      edges[i].setAttribute('class','edge');
    }
  }
}
]]></script>
        <defs>
                <circle id="rim" cx="0" cy="0" r="7"/>
                <circle id="rim2" cx="0" cy="0" r="3.5"/>
                <g id="zoomPlus">
                        <use xlink:href="#rim" fill="#404040">
                                <set attributeName="fill" to="#808080" begin="zoomplus.mouseover" end="zoomplus.mouseout"/>
                        </use>
                        <path d="M-4,0h8M0,-4v8" fill="none" stroke="white" stroke-width="1.5" pointer-events="none"/>
                </g>
                <g id="zoomMin">
                        <use xlink:href="#rim" fill="#404040">
                                <set attributeName="fill" to="#808080" begin="zoomminus.mouseover" end="zoomminus.mouseout"/>
                        </use>
                        <path d="M-4,0h8" fill="none" stroke="white" stroke-width="1.5" pointer-events="none"/>
                </g>
                <g id="dirArrow">
                        <path fill="none" stroke="white" stroke-width="1.5" d="M0,-3.0v7 M-2.5,-0.5L0,-3.0L2.5,-0.5"/>
                </g>
               <g id="resetDef">
                       <use xlink:href="#rim2" fill="#404040">
                               <set attributeName="fill" to="#808080" begin="reset.mouseover" end="reset.mouseout"/>
                       </use>
               </g>
        </defs>

<script type="text/javascript">
var viewWidth = 1925;
var viewHeight = 196;
var sectionId = 'dynsection-0';
</script>
<script xlink:href="svgpan.js"/>
<svg id="graph" class="graph">
<g id="viewport">
<title>main.cpp</title>
<!-- Node1 -->
<g id="node1" class="node">
<title>Node1</title>
<g id="a_node1"><a xlink:title=" ">
<polygon fill="#bfbfbf" stroke="black" points="900.5,-168.5 900.5,-187.5 962.5,-187.5 962.5,-168.5 900.5,-168.5"/>
<text text-anchor="middle" x="931.5" y="-175.5" font-family="Helvetica,sans-Serif" font-size="10.00">main.cpp</text>
</a>
</g>
</g>
<!-- Node2 -->
<g id="node2" class="node">
<title>Node2</title>
<g id="a_node2"><a xlink:title=" ">
<polygon fill="none" stroke="#bfbfbf" points="799,-0.5 799,-19.5 862,-19.5 862,-0.5 799,-0.5"/>
<text text-anchor="middle" x="830.5" y="-7.5" font-family="Helvetica,sans-Serif" font-size="10.00">Arduino.h</text>
</a>
</g>
</g>
<!-- Node1&#45;&gt;Node2 -->
<g id="edge1" class="edge">
<title>Node1&#45;&gt;Node2</title>
<path fill="none" stroke="midnightblue" d="M900.15,-174.8C772.33,-165.52 295.33,-127.6 254.5,-76 248.98,-69.03 248.46,-62.53 254.5,-56 290.6,-16.97 662.06,-11.72 788.57,-11.07"/>
<polygon fill="midnightblue" stroke="midnightblue" points="788.66,-14.57 798.65,-11.03 788.63,-7.57 788.66,-14.57"/>
</g>
<!-- Node3 -->
<g id="node3" class="node">
<title>Node3</title>
<g id="a_node3"><a xlink:href="Sensor_8h.html" target="_top" xlink:title=" ">
<polygon fill="none" stroke="black" points="1222.5,-56.5 1222.5,-75.5 1280.5,-75.5 1280.5,-56.5 1222.5,-56.5"/>
<text text-anchor="middle" x="1251.5" y="-63.5" font-family="Helvetica,sans-Serif" font-size="10.00">Sensor.h</text>
</a>
</g>
</g>
<!-- Node1&#45;&gt;Node3 -->
<g id="edge2" class="edge">
<title>Node1&#45;&gt;Node3</title>
<path fill="none" stroke="midnightblue" d="M962.82,-175.31C1008.66,-171.88 1095.88,-161.7 1163.5,-132 1191.04,-119.9 1218.19,-97.89 1234.89,-82.87"/>
<polygon fill="midnightblue" stroke="midnightblue" points="1237.64,-85.09 1242.61,-75.74 1232.89,-79.95 1237.64,-85.09"/>
</g>
<!-- Node4 -->
<g id="node4" class="node">
<title>Node4</title>
<g id="a_node4"><a xlink:href="Storage_8h.html" target="_top" xlink:title=" ">
<polygon fill="none" stroke="black" points="86,-56.5 86,-75.5 149,-75.5 149,-56.5 86,-56.5"/>
<text text-anchor="middle" x="117.5" y="-63.5" font-family="Helvetica,sans-Serif" font-size="10.00">Storage.h</text>
</a>
</g>
</g>
<!-- Node1&#45;&gt;Node4 -->
<g id="edge4" class="edge">
<title>Node1&#45;&gt;Node4</title>
<path fill="none" stroke="midnightblue" d="M900.35,-177.26C761.22,-178.13 200.87,-178.71 139.5,-132 125.45,-121.31 120.29,-101.21 118.44,-86.18"/>
<polygon fill="midnightblue" stroke="midnightblue" points="121.91,-85.58 117.58,-75.91 114.93,-86.17 121.91,-85.58"/>
</g>
<!-- Node5 -->
<g id="node5" class="node">
<title>Node5</title>
<g id="a_node5"><a xlink:href="AS7331Sensor_8h.html" target="_top" xlink:title=" ">
<polygon fill="none" stroke="black" points="720,-112.5 720,-131.5 815,-131.5 815,-112.5 720,-112.5"/>
<text text-anchor="middle" x="767.5" y="-119.5" font-family="Helvetica,sans-Serif" font-size="10.00">AS7331Sensor.h</text>
</a>
</g>
</g>
<!-- Node1&#45;&gt;Node5 -->
<g id="edge6" class="edge">
<title>Node1&#45;&gt;Node5</title>
<path fill="none" stroke="midnightblue" d="M905.51,-168.44C877.8,-159.32 833.75,-144.81 802.88,-134.65"/>
<polygon fill="midnightblue" stroke="midnightblue" points="803.96,-131.32 793.36,-131.52 801.77,-137.97 803.96,-131.32"/>
</g>
<!-- Node9 -->
<g id="node9" class="node">
<title>Node9</title>
<g id="a_node9"><a xlink:href="AnalogSensor_8h.html" target="_top" xlink:title=" ">
<polygon fill="none" stroke="black" points="940.5,-112.5 940.5,-131.5 1032.5,-131.5 1032.5,-112.5 940.5,-112.5"/>
<text text-anchor="middle" x="986.5" y="-119.5" font-family="Helvetica,sans-Serif" font-size="10.00">AnalogSensor.h</text>
</a>
</g>
</g>
<!-- Node1&#45;&gt;Node9 -->
<g id="edge11" class="edge">
<title>Node1&#45;&gt;Node9</title>
<path fill="none" stroke="midnightblue" d="M940.58,-168.08C948.67,-160.14 960.7,-148.34 970.41,-138.8"/>
<polygon fill="midnightblue" stroke="midnightblue" points="972.9,-141.25 977.59,-131.75 968,-136.26 972.9,-141.25"/>
</g>
<!-- Node10 -->
<g id="node10" class="node">
<title>Node10</title>
<g id="a_node10"><a xlink:href="BME280Sensor_8h.html" target="_top" xlink:title=" ">
<polygon fill="none" stroke="black" points="1648.5,-112.5 1648.5,-131.5 1746.5,-131.5 1746.5,-112.5 1648.5,-112.5"/>
<text text-anchor="middle" x="1697.5" y="-119.5" font-family="Helvetica,sans-Serif" font-size="10.00">BME280Sensor.h</text>
</a>
</g>
</g>
<!-- Node1&#45;&gt;Node10 -->
<g id="edge15" class="edge">
<title>Node1&#45;&gt;Node10</title>
<path fill="none" stroke="midnightblue" d="M962.64,-176.03C1060.5,-172.76 1370.7,-160.77 1638.2,-132.04"/>
<polygon fill="midnightblue" stroke="midnightblue" points="1638.93,-135.48 1648.49,-130.92 1638.17,-128.52 1638.93,-135.48"/>
</g>
<!-- Node12 -->
<g id="node12" class="node">
<title>Node12</title>
<g id="a_node12"><a xlink:href="BME680Sensor_8h.html" target="_top" xlink:title=" ">
<polygon fill="none" stroke="black" points="1312.5,-112.5 1312.5,-131.5 1410.5,-131.5 1410.5,-112.5 1312.5,-112.5"/>
<text text-anchor="middle" x="1361.5" y="-119.5" font-family="Helvetica,sans-Serif" font-size="10.00">BME680Sensor.h</text>
</a>
</g>
</g>
<!-- Node1&#45;&gt;Node12 -->
<g id="edge18" class="edge">
<title>Node1&#45;&gt;Node12</title>
<path fill="none" stroke="midnightblue" d="M962.9,-173.56C1025.44,-166.64 1170.22,-150.22 1302.56,-132.09"/>
<polygon fill="midnightblue" stroke="midnightblue" points="1303.04,-135.56 1312.47,-130.73 1302.09,-128.62 1303.04,-135.56"/>
</g>
<!-- Node16 -->
<g id="node16" class="node">
<title>Node16</title>
<g id="a_node16"><a xlink:href="ENS160Sensor_8h.html" target="_top" xlink:title=" ">
<polygon fill="none" stroke="black" points="500,-112.5 500,-131.5 595,-131.5 595,-112.5 500,-112.5"/>
<text text-anchor="middle" x="547.5" y="-119.5" font-family="Helvetica,sans-Serif" font-size="10.00">ENS160Sensor.h</text>
</a>
</g>
</g>
<!-- Node1&#45;&gt;Node16 -->
<g id="edge25" class="edge">
<title>Node1&#45;&gt;Node16</title>
<path fill="none" stroke="midnightblue" d="M900.36,-172.92C843.83,-165.48 720.32,-149.01 605.12,-132.07"/>
<polygon fill="midnightblue" stroke="midnightblue" points="605.48,-128.58 595.07,-130.58 604.46,-135.51 605.48,-128.58"/>
</g>
<!-- Node18 -->
<g id="node18" class="node">
<title>Node18</title>
<g id="a_node18"><a xlink:href="GeigerSensor_8h.html" target="_top" xlink:title=" ">
<polygon fill="none" stroke="black" points="1428.5,-112.5 1428.5,-131.5 1518.5,-131.5 1518.5,-112.5 1428.5,-112.5"/>
<text text-anchor="middle" x="1473.5" y="-119.5" font-family="Helvetica,sans-Serif" font-size="10.00">GeigerSensor.h</text>
</a>
</g>
</g>
<!-- Node1&#45;&gt;Node18 -->
<g id="edge29" class="edge">
<title>Node1&#45;&gt;Node18</title>
<path fill="none" stroke="midnightblue" d="M962.7,-174.92C1038.76,-169.68 1239.93,-154.79 1418.36,-132.06"/>
<polygon fill="midnightblue" stroke="midnightblue" points="1418.98,-135.51 1428.46,-130.76 1418.09,-128.56 1418.98,-135.51"/>
</g>
<!-- Node19 -->
<g id="node19" class="node">
<title>Node19</title>
<g id="a_node19"><a xlink:href="INA260Sensor_8h.html" target="_top" xlink:title=" ">
<polygon fill="none" stroke="black" points="1537,-112.5 1537,-131.5 1630,-131.5 1630,-112.5 1537,-112.5"/>
<text text-anchor="middle" x="1583.5" y="-119.5" font-family="Helvetica,sans-Serif" font-size="10.00">INA260Sensor.h</text>
</a>
</g>
</g>
<!-- Node1&#45;&gt;Node19 -->
<g id="edge32" class="edge">
<title>Node1&#45;&gt;Node19</title>
<path fill="none" stroke="midnightblue" d="M962.61,-175.57C1049.83,-171.38 1304.26,-157.81 1526.56,-132.01"/>
<polygon fill="midnightblue" stroke="midnightblue" points="1527.27,-135.45 1536.79,-130.81 1526.45,-128.5 1527.27,-135.45"/>
</g>
<!-- Node21 -->
<g id="node21" class="node">
<title>Node21</title>
<g id="a_node21"><a xlink:href="LSM9DS1Sensor_8h.html" target="_top" xlink:title=" ">
<polygon fill="none" stroke="black" points="1050.5,-112.5 1050.5,-131.5 1154.5,-131.5 1154.5,-112.5 1050.5,-112.5"/>
<text text-anchor="middle" x="1102.5" y="-119.5" font-family="Helvetica,sans-Serif" font-size="10.00">LSM9DS1Sensor.h</text>
</a>
</g>
</g>
<!-- Node1&#45;&gt;Node21 -->
<g id="edge37" class="edge">
<title>Node1&#45;&gt;Node21</title>
<path fill="none" stroke="midnightblue" d="M958.6,-168.44C987.49,-159.32 1033.42,-144.81 1065.61,-134.65"/>
<polygon fill="midnightblue" stroke="midnightblue" points="1067.05,-137.87 1075.53,-131.52 1064.94,-131.19 1067.05,-137.87"/>
</g>
<!-- Node23 -->
<g id="node23" class="node">
<title>Node23</title>
<g id="a_node23"><a xlink:href="SGP30Sensor_8h.html" target="_top" xlink:title=" ">
<polygon fill="none" stroke="black" points="833,-112.5 833,-131.5 922,-131.5 922,-112.5 833,-112.5"/>
<text text-anchor="middle" x="877.5" y="-119.5" font-family="Helvetica,sans-Serif" font-size="10.00">SGP30Sensor.h</text>
</a>
</g>
</g>
<!-- Node1&#45;&gt;Node23 -->
<g id="edge42" class="edge">
<title>Node1&#45;&gt;Node23</title>
<path fill="none" stroke="midnightblue" d="M922.58,-168.08C914.72,-160.22 903.07,-148.57 893.58,-139.08"/>
<polygon fill="midnightblue" stroke="midnightblue" points="895.8,-136.35 886.25,-131.75 890.85,-141.3 895.8,-136.35"/>
</g>
<!-- Node26 -->
<g id="node26" class="node">
<title>Node26</title>
<g id="a_node26"><a xlink:href="SHT31Sensor_8h.html" target="_top" xlink:title=" ">
<polygon fill="none" stroke="black" points="613,-112.5 613,-131.5 702,-131.5 702,-112.5 613,-112.5"/>
<text text-anchor="middle" x="657.5" y="-119.5" font-family="Helvetica,sans-Serif" font-size="10.00">SHT31Sensor.h</text>
</a>
</g>
</g>
<!-- Node1&#45;&gt;Node26 -->
<g id="edge48" class="edge">
<title>Node1&#45;&gt;Node26</title>
<path fill="none" stroke="midnightblue" d="M900.34,-170.86C854.25,-161.78 767.32,-144.64 710.94,-133.53"/>
<polygon fill="midnightblue" stroke="midnightblue" points="711.27,-130.03 700.78,-131.53 709.92,-136.9 711.27,-130.03"/>
</g>
<!-- Node28 -->
<g id="node28" class="node">
<title>Node28</title>
<g id="a_node28"><a xlink:href="TempSensor_8h.html" target="_top" xlink:title=" ">
<polygon fill="none" stroke="black" points="1210.5,-112.5 1210.5,-131.5 1294.5,-131.5 1294.5,-112.5 1210.5,-112.5"/>
<text text-anchor="middle" x="1252.5" y="-119.5" font-family="Helvetica,sans-Serif" font-size="10.00">TempSensor.h</text>
</a>
</g>
</g>
<!-- Node1&#45;&gt;Node28 -->
<g id="edge54" class="edge">
<title>Node1&#45;&gt;Node28</title>
<path fill="none" stroke="midnightblue" d="M962.57,-171.77C1017.64,-162.51 1132.92,-143.12 1200.35,-131.77"/>
<polygon fill="midnightblue" stroke="midnightblue" points="1201.06,-135.2 1210.34,-130.09 1199.9,-128.3 1201.06,-135.2"/>
</g>
<!-- Node29 -->
<g id="node29" class="node">
<title>Node29</title>
<g id="a_node29"><a xlink:href="RadioStorage_8h.html" target="_top" xlink:title=" ">
<polygon fill="none" stroke="black" points="0,-112.5 0,-131.5 91,-131.5 91,-112.5 0,-112.5"/>
<text text-anchor="middle" x="45.5" y="-119.5" font-family="Helvetica,sans-Serif" font-size="10.00">RadioStorage.h</text>
</a>
</g>
</g>
<!-- Node1&#45;&gt;Node29 -->
<g id="edge56" class="edge">
<title>Node1&#45;&gt;Node29</title>
<path fill="none" stroke="midnightblue" d="M900.29,-176.36C790.85,-173.9 414.46,-163.52 105.5,-132 104.2,-131.87 102.89,-131.73 101.57,-131.58"/>
<polygon fill="midnightblue" stroke="midnightblue" points="101.66,-128.06 91.31,-130.33 100.81,-135.01 101.66,-128.06"/>
</g>
<!-- Node30 -->
<g id="node30" class="node">
<title>Node30</title>
<g id="a_node30"><a xlink:href="SDStorage_8h.html" target="_top" xlink:title=" ">
<polygon fill="none" stroke="black" points="148,-112.5 148,-131.5 225,-131.5 225,-112.5 148,-112.5"/>
<text text-anchor="middle" x="186.5" y="-119.5" font-family="Helvetica,sans-Serif" font-size="10.00">SDStorage.h</text>
</a>
</g>
</g>
<!-- Node1&#45;&gt;Node30 -->
<g id="edge59" class="edge">
<title>Node1&#45;&gt;Node30</title>
<path fill="none" stroke="midnightblue" d="M900.36,-176.12C802.66,-173.12 493.6,-161.76 239.5,-132 238.2,-131.85 236.88,-131.68 235.54,-131.51"/>
<polygon fill="midnightblue" stroke="midnightblue" points="235.61,-127.99 225.22,-130.05 234.63,-134.92 235.61,-127.99"/>
</g>
<!-- Node3&#45;&gt;Node2 -->
<g id="edge3" class="edge">
<title>Node3&#45;&gt;Node2</title>
<path fill="none" stroke="midnightblue" d="M1222.11,-57.69C1219.21,-57.07 1216.3,-56.5 1213.5,-56 1090.59,-34.3 943.58,-20.34 872.75,-14.36"/>
<polygon fill="midnightblue" stroke="midnightblue" points="872.72,-10.84 862.46,-13.5 872.13,-17.82 872.72,-10.84"/>
</g>
<!-- Node4&#45;&gt;Node2 -->
<g id="edge5" class="edge">
<title>Node4&#45;&gt;Node2</title>
<path fill="none" stroke="midnightblue" d="M149.2,-57.55C152.33,-56.96 155.47,-56.43 158.5,-56 395.2,-22.29 682.5,-13.72 788.56,-11.64"/>
<polygon fill="midnightblue" stroke="midnightblue" points="788.9,-15.13 798.84,-11.45 788.77,-8.13 788.9,-15.13"/>
</g>
<!-- Node5&#45;&gt;Node3 -->
<g id="edge10" class="edge">
<title>Node5&#45;&gt;Node3</title>
<path fill="none" stroke="midnightblue" d="M815.05,-113.26C818.25,-112.81 821.42,-112.39 824.5,-112 993.59,-90.85 1040.43,-103.58 1212.24,-76"/>
<polygon fill="midnightblue" stroke="midnightblue" points="1212.82,-79.45 1222.12,-74.39 1211.69,-72.54 1212.82,-79.45"/>
</g>
<!-- Node6 -->
<g id="node6" class="node">
<title>Node6</title>
<g id="a_node6"><a xlink:title=" ">
<polygon fill="none" stroke="#bfbfbf" points="618,-56.5 618,-75.5 731,-75.5 731,-56.5 618,-56.5"/>
<text text-anchor="middle" x="674.5" y="-63.5" font-family="Helvetica,sans-Serif" font-size="10.00">SparkFun_AS7331.h</text>
</a>
</g>
</g>
<!-- Node5&#45;&gt;Node6 -->
<g id="edge7" class="edge">
<title>Node5&#45;&gt;Node6</title>
<path fill="none" stroke="midnightblue" d="M752.56,-112.32C737.91,-103.82 715.37,-90.73 698.26,-80.8"/>
<polygon fill="midnightblue" stroke="midnightblue" points="699.81,-77.65 689.4,-75.65 696.3,-83.7 699.81,-77.65"/>
</g>
<!-- Node7 -->
<g id="node7" class="node">
<title>Node7</title>
<g id="a_node7"><a xlink:title=" ">
<polygon fill="none" stroke="#bfbfbf" points="551.5,-56.5 551.5,-75.5 599.5,-75.5 599.5,-56.5 551.5,-56.5"/>
<text text-anchor="middle" x="575.5" y="-63.5" font-family="Helvetica,sans-Serif" font-size="10.00">Wire.h</text>
</a>
</g>
</g>
<!-- Node5&#45;&gt;Node7 -->
<g id="edge8" class="edge">
<title>Node5&#45;&gt;Node7</title>
<path fill="none" stroke="midnightblue" d="M737.08,-112.44C702.43,-102.7 645.96,-86.82 609.78,-76.64"/>
<polygon fill="midnightblue" stroke="midnightblue" points="610.28,-73.14 599.7,-73.81 608.38,-79.88 610.28,-73.14"/>
</g>
<!-- Node8 -->
<g id="node8" class="node">
<title>Node8</title>
<g id="a_node8"><a xlink:title=" ">
<polygon fill="none" stroke="#bfbfbf" points="1017,-56.5 1017,-75.5 1070,-75.5 1070,-56.5 1017,-56.5"/>
<text text-anchor="middle" x="1043.5" y="-63.5" font-family="Helvetica,sans-Serif" font-size="10.00">string.h</text>
</a>
</g>
</g>
<!-- Node5&#45;&gt;Node8 -->
<g id="edge9" class="edge">
<title>Node5&#45;&gt;Node8</title>
<path fill="none" stroke="midnightblue" d="M811.23,-112.44C865.27,-101.87 956.25,-84.07 1006.81,-74.18"/>
<polygon fill="midnightblue" stroke="midnightblue" points="1007.52,-77.61 1016.66,-72.25 1006.18,-70.74 1007.52,-77.61"/>
</g>
<!-- Node9&#45;&gt;Node2 -->
<g id="edge12" class="edge">
<title>Node9&#45;&gt;Node2</title>
<path fill="none" stroke="midnightblue" d="M986.72,-112.17C986.57,-98.36 984.24,-71.6 969.5,-56 944.31,-29.32 903.21,-18.43 872.22,-13.99"/>
<polygon fill="midnightblue" stroke="midnightblue" points="872.49,-10.5 862.14,-12.72 871.62,-17.45 872.49,-10.5"/>
</g>
<!-- Node9&#45;&gt;Node3 -->
<g id="edge14" class="edge">
<title>Node9&#45;&gt;Node3</title>
<path fill="none" stroke="midnightblue" d="M1032.26,-112.44C1076.02,-104.14 1144.12,-90.93 1212.41,-76.18"/>
<polygon fill="midnightblue" stroke="midnightblue" points="1213.45,-79.53 1222.48,-73.99 1211.96,-72.69 1213.45,-79.53"/>
</g>
<!-- Node9&#45;&gt;Node8 -->
<g id="edge13" class="edge">
<title>Node9&#45;&gt;Node8</title>
<path fill="none" stroke="midnightblue" d="M995.66,-112.32C1004,-104.42 1016.53,-92.55 1026.68,-82.94"/>
<polygon fill="midnightblue" stroke="midnightblue" points="1029.32,-85.25 1034.18,-75.83 1024.51,-80.17 1029.32,-85.25"/>
</g>
<!-- Node10&#45;&gt;Node3 -->
<g id="edge16" class="edge">
<title>Node10&#45;&gt;Node3</title>
<path fill="none" stroke="midnightblue" d="M1648.48,-113.21C1645.44,-112.79 1642.43,-112.38 1639.5,-112 1487.59,-92.41 1445.41,-101.67 1290.75,-76.02"/>
<polygon fill="midnightblue" stroke="midnightblue" points="1291.32,-72.56 1280.88,-74.36 1290.16,-79.47 1291.32,-72.56"/>
</g>
<!-- Node11 -->
<g id="node11" class="node">
<title>Node11</title>
<g id="a_node11"><a xlink:title=" ">
<polygon fill="none" stroke="#bfbfbf" points="1806.5,-56.5 1806.5,-75.5 1916.5,-75.5 1916.5,-56.5 1806.5,-56.5"/>
<text text-anchor="middle" x="1861.5" y="-63.5" font-family="Helvetica,sans-Serif" font-size="10.00">SparkFunBME280.h</text>
</a>
</g>
</g>
<!-- Node10&#45;&gt;Node11 -->
<g id="edge17" class="edge">
<title>Node10&#45;&gt;Node11</title>
<path fill="none" stroke="midnightblue" d="M1723.49,-112.44C1751.2,-103.32 1795.25,-88.81 1826.12,-78.65"/>
<polygon fill="midnightblue" stroke="midnightblue" points="1827.23,-81.97 1835.64,-75.52 1825.04,-75.32 1827.23,-81.97"/>
</g>
<!-- Node12&#45;&gt;Node3 -->
<g id="edge24" class="edge">
<title>Node12&#45;&gt;Node3</title>
<path fill="none" stroke="midnightblue" d="M1343.83,-112.32C1326.11,-103.62 1298.6,-90.12 1278.21,-80.11"/>
<polygon fill="midnightblue" stroke="midnightblue" points="1279.65,-76.92 1269.13,-75.65 1276.56,-83.2 1279.65,-76.92"/>
</g>
<!-- Node12&#45;&gt;Node7 -->
<g id="edge22" class="edge">
<title>Node12&#45;&gt;Node7</title>
<path fill="none" stroke="midnightblue" d="M1312.5,-113.04C1309.46,-112.65 1306.44,-112.3 1303.5,-112 996.27,-80.28 914.64,-123.77 609.5,-76 609.4,-75.98 609.3,-75.97 609.19,-75.95"/>
<polygon fill="midnightblue" stroke="midnightblue" points="610.01,-72.55 599.52,-74.01 608.63,-79.41 610.01,-72.55"/>
</g>
<!-- Node12&#45;&gt;Node8 -->
<g id="edge23" class="edge">
<title>Node12&#45;&gt;Node8</title>
<path fill="none" stroke="midnightblue" d="M1312.31,-113.26C1242.44,-102.26 1119.31,-82.81 1080.07,-75.81"/>
<polygon fill="midnightblue" stroke="midnightblue" points="1080.65,-72.36 1070.18,-73.94 1079.35,-79.24 1080.65,-72.36"/>
</g>
<!-- Node13 -->
<g id="node13" class="node">
<title>Node13</title>
<g id="a_node13"><a xlink:title=" ">
<polygon fill="none" stroke="#bfbfbf" points="1418.5,-56.5 1418.5,-75.5 1528.5,-75.5 1528.5,-56.5 1418.5,-56.5"/>
<text text-anchor="middle" x="1473.5" y="-63.5" font-family="Helvetica,sans-Serif" font-size="10.00">Adafruit_BME680.h</text>
</a>
</g>
</g>
<!-- Node12&#45;&gt;Node13 -->
<g id="edge19" class="edge">
<title>Node12&#45;&gt;Node13</title>
<path fill="none" stroke="midnightblue" d="M1379.49,-112.32C1397.54,-103.62 1425.55,-90.12 1446.3,-80.11"/>
<polygon fill="midnightblue" stroke="midnightblue" points="1448.06,-83.15 1455.55,-75.65 1445.02,-76.84 1448.06,-83.15"/>
</g>
<!-- Node14 -->
<g id="node14" class="node">
<title>Node14</title>
<g id="a_node14"><a xlink:title=" ">
<polygon fill="none" stroke="#bfbfbf" points="1298.5,-56.5 1298.5,-75.5 1400.5,-75.5 1400.5,-56.5 1298.5,-56.5"/>
<text text-anchor="middle" x="1349.5" y="-63.5" font-family="Helvetica,sans-Serif" font-size="10.00">Adafruit_Sensor.h</text>
</a>
</g>
</g>
<!-- Node12&#45;&gt;Node14 -->
<g id="edge20" class="edge">
<title>Node12&#45;&gt;Node14</title>
<path fill="none" stroke="midnightblue" d="M1359.52,-112.08C1357.93,-104.93 1355.64,-94.64 1353.65,-85.69"/>
<polygon fill="midnightblue" stroke="midnightblue" points="1357.03,-84.75 1351.44,-75.75 1350.2,-86.27 1357.03,-84.75"/>
</g>
<!-- Node15 -->
<g id="node15" class="node">
<title>Node15</title>
<g id="a_node15"><a xlink:title=" ">
<polygon fill="none" stroke="#bfbfbf" points="1547,-56.5 1547,-75.5 1588,-75.5 1588,-56.5 1547,-56.5"/>
<text text-anchor="middle" x="1567.5" y="-63.5" font-family="Helvetica,sans-Serif" font-size="10.00">SPI.h</text>
</a>
</g>
</g>
<!-- Node12&#45;&gt;Node15 -->
<g id="edge21" class="edge">
<title>Node12&#45;&gt;Node15</title>
<path fill="none" stroke="midnightblue" d="M1396.68,-112.46C1430.27,-104.2 1482.53,-91.09 1537.04,-76.04"/>
<polygon fill="midnightblue" stroke="midnightblue" points="1538.18,-79.36 1546.88,-73.31 1536.3,-72.61 1538.18,-79.36"/>
</g>
<!-- Node16&#45;&gt;Node3 -->
<g id="edge27" class="edge">
<title>Node16&#45;&gt;Node3</title>
<path fill="none" stroke="midnightblue" d="M595.04,-113.14C598.24,-112.72 601.41,-112.33 604.5,-112 870.77,-83.18 943.47,-114.61 1212.09,-75.95"/>
<polygon fill="midnightblue" stroke="midnightblue" points="1212.75,-79.39 1222.14,-74.49 1211.74,-72.47 1212.75,-79.39"/>
</g>
<!-- Node16&#45;&gt;Node7 -->
<g id="edge26" class="edge">
<title>Node16&#45;&gt;Node7</title>
<path fill="none" stroke="midnightblue" d="M552.12,-112.08C555.96,-104.69 561.52,-93.95 566.26,-84.81"/>
<polygon fill="midnightblue" stroke="midnightblue" points="569.47,-86.24 570.96,-75.75 563.25,-83.02 569.47,-86.24"/>
</g>
<!-- Node17 -->
<g id="node17" class="node">
<title>Node17</title>
<g id="a_node17"><a xlink:title=" ">
<polygon fill="none" stroke="#bfbfbf" points="263,-56.5 263,-75.5 376,-75.5 376,-56.5 263,-56.5"/>
<text text-anchor="middle" x="319.5" y="-63.5" font-family="Helvetica,sans-Serif" font-size="10.00">SparkFun_ENS160.h</text>
</a>
</g>
</g>
<!-- Node16&#45;&gt;Node17 -->
<g id="edge28" class="edge">
<title>Node16&#45;&gt;Node17</title>
<path fill="none" stroke="midnightblue" d="M511.37,-112.44C471.85,-103.08 408.4,-88.06 365.39,-77.87"/>
<polygon fill="midnightblue" stroke="midnightblue" points="366,-74.42 355.46,-75.52 364.38,-81.23 366,-74.42"/>
</g>
<!-- Node18&#45;&gt;Node2 -->
<g id="edge30" class="edge">
<title>Node18&#45;&gt;Node2</title>
<path fill="none" stroke="midnightblue" d="M1518.55,-113.52C1564.46,-104.08 1625.27,-85.44 1597.5,-56 1572.45,-29.44 1029.1,-15.39 872.43,-11.89"/>
<polygon fill="midnightblue" stroke="midnightblue" points="872.33,-8.38 862.26,-11.66 872.18,-15.38 872.33,-8.38"/>
</g>
<!-- Node18&#45;&gt;Node3 -->
<g id="edge31" class="edge">
<title>Node18&#45;&gt;Node3</title>
<path fill="none" stroke="midnightblue" d="M1438.32,-112.44C1398.11,-102.66 1332.48,-86.7 1290.67,-76.53"/>
<polygon fill="midnightblue" stroke="midnightblue" points="1291.38,-73.1 1280.84,-74.14 1289.73,-79.9 1291.38,-73.1"/>
</g>
<!-- Node19&#45;&gt;Node2 -->
<g id="edge33" class="edge">
<title>Node19&#45;&gt;Node2</title>
<path fill="none" stroke="midnightblue" d="M1593.23,-112.44C1607.37,-98.99 1630.29,-72.73 1614.5,-56 1588.85,-28.84 1032.26,-15.2 872.83,-11.84"/>
<polygon fill="midnightblue" stroke="midnightblue" points="872.55,-8.33 862.48,-11.62 872.4,-15.33 872.55,-8.33"/>
</g>
<!-- Node19&#45;&gt;Node3 -->
<g id="edge36" class="edge">
<title>Node19&#45;&gt;Node3</title>
<path fill="none" stroke="midnightblue" d="M1536.75,-113.45C1533.62,-112.96 1530.52,-112.47 1527.5,-112 1425,-96.01 1396.25,-96.31 1290.99,-76.17"/>
<polygon fill="midnightblue" stroke="midnightblue" points="1291.39,-72.68 1280.91,-74.22 1290.06,-79.55 1291.39,-72.68"/>
</g>
<!-- Node19&#45;&gt;Node8 -->
<g id="edge34" class="edge">
<title>Node19&#45;&gt;Node8</title>
<path fill="none" stroke="midnightblue" d="M1536.79,-113.21C1533.65,-112.77 1530.53,-112.36 1527.5,-112 1332.47,-88.53 1278.4,-107.67 1080.29,-75.83"/>
<polygon fill="midnightblue" stroke="midnightblue" points="1080.57,-72.33 1070.13,-74.18 1079.44,-79.24 1080.57,-72.33"/>
</g>
<!-- Node20 -->
<g id="node20" class="node">
<title>Node20</title>
<g id="a_node20"><a xlink:title=" ">
<polygon fill="none" stroke="#bfbfbf" points="1683,-56.5 1683,-75.5 1788,-75.5 1788,-56.5 1683,-56.5"/>
<text text-anchor="middle" x="1735.5" y="-63.5" font-family="Helvetica,sans-Serif" font-size="10.00">Adafruit_INA260.h</text>
</a>
</g>
</g>
<!-- Node19&#45;&gt;Node20 -->
<g id="edge35" class="edge">
<title>Node19&#45;&gt;Node20</title>
<path fill="none" stroke="midnightblue" d="M1607.58,-112.44C1633.04,-103.4 1673.39,-89.06 1701.96,-78.92"/>
<polygon fill="midnightblue" stroke="midnightblue" points="1703.28,-82.16 1711.53,-75.52 1700.93,-75.57 1703.28,-82.16"/>
</g>
<!-- Node21&#45;&gt;Node3 -->
<g id="edge41" class="edge">
<title>Node21&#45;&gt;Node3</title>
<path fill="none" stroke="midnightblue" d="M1126.11,-112.44C1150.96,-103.44 1190.27,-89.19 1218.25,-79.05"/>
<polygon fill="midnightblue" stroke="midnightblue" points="1219.79,-82.21 1228,-75.52 1217.41,-75.63 1219.79,-82.21"/>
</g>
<!-- Node21&#45;&gt;Node8 -->
<g id="edge40" class="edge">
<title>Node21&#45;&gt;Node8</title>
<path fill="none" stroke="midnightblue" d="M1093.02,-112.32C1084.3,-104.34 1071.16,-92.31 1060.6,-82.65"/>
<polygon fill="midnightblue" stroke="midnightblue" points="1062.89,-80 1053.15,-75.83 1058.17,-85.17 1062.89,-80"/>
</g>
<!-- Node21&#45;&gt;Node14 -->
<g id="edge39" class="edge">
<title>Node21&#45;&gt;Node14</title>
<path fill="none" stroke="midnightblue" d="M1141.64,-112.44C1184.73,-103.02 1254.06,-87.87 1300.67,-77.68"/>
<polygon fill="midnightblue" stroke="midnightblue" points="1301.52,-81.07 1310.55,-75.52 1300.03,-74.23 1301.52,-81.07"/>
</g>
<!-- Node22 -->
<g id="node22" class="node">
<title>Node22</title>
<g id="a_node22"><a xlink:title=" ">
<polygon fill="none" stroke="#bfbfbf" points="1088.5,-56.5 1088.5,-75.5 1204.5,-75.5 1204.5,-56.5 1088.5,-56.5"/>
<text text-anchor="middle" x="1146.5" y="-63.5" font-family="Helvetica,sans-Serif" font-size="10.00">Adafruit_LSM9DS1.h</text>
</a>
</g>
</g>
<!-- Node21&#45;&gt;Node22 -->
<g id="edge38" class="edge">
<title>Node21&#45;&gt;Node22</title>
<path fill="none" stroke="midnightblue" d="M1109.77,-112.08C1116.04,-104.38 1125.29,-93.03 1132.93,-83.65"/>
<polygon fill="midnightblue" stroke="midnightblue" points="1135.77,-85.71 1139.37,-75.75 1130.34,-81.29 1135.77,-85.71"/>
</g>
<!-- Node23&#45;&gt;Node2 -->
<g id="edge43" class="edge">
<title>Node23&#45;&gt;Node2</title>
<path fill="none" stroke="midnightblue" d="M871.46,-112.38C865.5,-103.56 856.44,-89.31 850.5,-76 843.74,-60.84 838.37,-42.72 834.9,-29.47"/>
<polygon fill="midnightblue" stroke="midnightblue" points="838.27,-28.51 832.45,-19.65 831.48,-30.2 838.27,-28.51"/>
</g>
<!-- Node23&#45;&gt;Node3 -->
<g id="edge47" class="edge">
<title>Node23&#45;&gt;Node3</title>
<path fill="none" stroke="midnightblue" d="M922.27,-113.4C925.39,-112.92 928.49,-112.44 931.5,-112 1053.33,-94.08 1087.47,-98.35 1212.17,-76.08"/>
<polygon fill="midnightblue" stroke="midnightblue" points="1212.89,-79.51 1222.11,-74.29 1211.64,-72.62 1212.89,-79.51"/>
</g>
<!-- Node23&#45;&gt;Node8 -->
<g id="edge45" class="edge">
<title>Node23&#45;&gt;Node8</title>
<path fill="none" stroke="midnightblue" d="M903.8,-112.44C931.85,-103.32 976.44,-88.81 1007.68,-78.65"/>
<polygon fill="midnightblue" stroke="midnightblue" points="1008.89,-81.94 1017.32,-75.52 1006.73,-75.28 1008.89,-81.94"/>
</g>
<!-- Node24 -->
<g id="node24" class="node">
<title>Node24</title>
<g id="a_node24"><a xlink:title=" ">
<polygon fill="none" stroke="#bfbfbf" points="749,-56.5 749,-75.5 802,-75.5 802,-56.5 749,-56.5"/>
<text text-anchor="middle" x="775.5" y="-63.5" font-family="Helvetica,sans-Serif" font-size="10.00">stdint.h</text>
</a>
</g>
</g>
<!-- Node23&#45;&gt;Node24 -->
<g id="edge44" class="edge">
<title>Node23&#45;&gt;Node24</title>
<path fill="none" stroke="midnightblue" d="M861.11,-112.32C844.83,-103.7 819.63,-90.36 800.78,-80.39"/>
<polygon fill="midnightblue" stroke="midnightblue" points="802.32,-77.24 791.85,-75.65 799.05,-83.43 802.32,-77.24"/>
</g>
<!-- Node25 -->
<g id="node25" class="node">
<title>Node25</title>
<g id="a_node25"><a xlink:title=" ">
<polygon fill="none" stroke="#bfbfbf" points="859,-56.5 859,-75.5 960,-75.5 960,-56.5 859,-56.5"/>
<text text-anchor="middle" x="909.5" y="-63.5" font-family="Helvetica,sans-Serif" font-size="10.00">Adafruit_SGP30.h</text>
</a>
</g>
</g>
<!-- Node23&#45;&gt;Node25 -->
<g id="edge46" class="edge">
<title>Node23&#45;&gt;Node25</title>
<path fill="none" stroke="midnightblue" d="M882.78,-112.08C887.21,-104.61 893.66,-93.72 899.12,-84.52"/>
<polygon fill="midnightblue" stroke="midnightblue" points="902.23,-86.14 904.31,-75.75 896.21,-82.57 902.23,-86.14"/>
</g>
<!-- Node26&#45;&gt;Node2 -->
<g id="edge49" class="edge">
<title>Node26&#45;&gt;Node2</title>
<path fill="none" stroke="midnightblue" d="M612.99,-112.65C571.14,-102.87 518.27,-84.31 542.5,-56 573.71,-19.54 716.77,-12.4 788.8,-11.15"/>
<polygon fill="midnightblue" stroke="midnightblue" points="788.95,-14.65 798.89,-11.01 788.85,-7.65 788.95,-14.65"/>
</g>
<!-- Node26&#45;&gt;Node3 -->
<g id="edge53" class="edge">
<title>Node26&#45;&gt;Node3</title>
<path fill="none" stroke="midnightblue" d="M702.24,-113.21C705.37,-112.77 708.48,-112.36 711.5,-112 930.37,-85.97 990.64,-109.18 1212.15,-75.97"/>
<polygon fill="midnightblue" stroke="midnightblue" points="1212.77,-79.41 1222.13,-74.45 1211.72,-72.49 1212.77,-79.41"/>
</g>
<!-- Node26&#45;&gt;Node7 -->
<g id="edge50" class="edge">
<title>Node26&#45;&gt;Node7</title>
<path fill="none" stroke="midnightblue" d="M644.33,-112.32C631.65,-103.98 612.27,-91.21 597.29,-81.35"/>
<polygon fill="midnightblue" stroke="midnightblue" points="598.92,-78.23 588.64,-75.65 595.07,-84.08 598.92,-78.23"/>
</g>
<!-- Node26&#45;&gt;Node8 -->
<g id="edge51" class="edge">
<title>Node26&#45;&gt;Node8</title>
<path fill="none" stroke="midnightblue" d="M702.27,-113.43C705.39,-112.94 708.49,-112.45 711.5,-112 818.61,-95.82 945.57,-79.37 1006.82,-71.6"/>
<polygon fill="midnightblue" stroke="midnightblue" points="1007.3,-75.07 1016.78,-70.34 1006.42,-68.12 1007.3,-75.07"/>
</g>
<!-- Node27 -->
<g id="node27" class="node">
<title>Node27</title>
<g id="a_node27"><a xlink:title=" ">
<polygon fill="none" stroke="#bfbfbf" points="394,-56.5 394,-75.5 495,-75.5 495,-56.5 394,-56.5"/>
<text text-anchor="middle" x="444.5" y="-63.5" font-family="Helvetica,sans-Serif" font-size="10.00">Adafruit_SHT31.h</text>
</a>
</g>
</g>
<!-- Node26&#45;&gt;Node27 -->
<g id="edge52" class="edge">
<title>Node26&#45;&gt;Node27</title>
<path fill="none" stroke="midnightblue" d="M623.75,-112.44C586.98,-103.12 528.05,-88.18 487.88,-78"/>
<polygon fill="midnightblue" stroke="midnightblue" points="488.65,-74.58 478.09,-75.52 486.93,-81.37 488.65,-74.58"/>
</g>
<!-- Node28&#45;&gt;Node3 -->
<g id="edge55" class="edge">
<title>Node28&#45;&gt;Node3</title>
<path fill="none" stroke="midnightblue" d="M1252.33,-112.08C1252.2,-105.01 1252.02,-94.86 1251.85,-85.99"/>
<polygon fill="midnightblue" stroke="midnightblue" points="1255.35,-85.68 1251.66,-75.75 1248.35,-85.81 1255.35,-85.68"/>
</g>
<!-- Node29&#45;&gt;Node2 -->
<g id="edge57" class="edge">
<title>Node29&#45;&gt;Node2</title>
<path fill="none" stroke="midnightblue" d="M46.77,-112.46C49.42,-98.03 57,-69.13 76.5,-56 135.65,-16.16 638.69,-11.54 788.54,-11.04"/>
<polygon fill="midnightblue" stroke="midnightblue" points="788.72,-14.54 798.71,-11.02 788.7,-7.54 788.72,-14.54"/>
</g>
<!-- Node29&#45;&gt;Node4 -->
<g id="edge58" class="edge">
<title>Node29&#45;&gt;Node4</title>
<path fill="none" stroke="midnightblue" d="M57.07,-112.32C67.92,-104.18 84.38,-91.84 97.38,-82.09"/>
<polygon fill="midnightblue" stroke="midnightblue" points="99.82,-84.63 105.72,-75.83 95.62,-79.03 99.82,-84.63"/>
</g>
<!-- Node30&#45;&gt;Node4 -->
<g id="edge61" class="edge">
<title>Node30&#45;&gt;Node4</title>
<path fill="none" stroke="midnightblue" d="M175.41,-112.32C165.01,-104.18 149.24,-91.84 136.78,-82.09"/>
<polygon fill="midnightblue" stroke="midnightblue" points="138.82,-79.24 128.79,-75.83 134.51,-84.75 138.82,-79.24"/>
</g>
<!-- Node31 -->
<g id="node31" class="node">
<title>Node31</title>
<g id="a_node31"><a xlink:title=" ">
<polygon fill="none" stroke="#bfbfbf" points="167,-56.5 167,-75.5 206,-75.5 206,-56.5 167,-56.5"/>
<text text-anchor="middle" x="186.5" y="-63.5" font-family="Helvetica,sans-Serif" font-size="10.00">SD.h</text>
</a>
</g>
</g>
<!-- Node30&#45;&gt;Node31 -->
<g id="edge60" class="edge">
<title>Node30&#45;&gt;Node31</title>
<path fill="none" stroke="midnightblue" d="M186.5,-112.08C186.5,-105.01 186.5,-94.86 186.5,-85.99"/>
<polygon fill="midnightblue" stroke="midnightblue" points="190,-85.75 186.5,-75.75 183,-85.75 190,-85.75"/>
</g>
</g>
</svg>
        <g id="navigator" transform="translate(0 0)" fill="#404254">
                <rect fill="#f2f5e9" fill-opacity="0.5" stroke="#606060" stroke-width=".5" x="0" y="0" width="60" height="60"/>
                <use id="zoomplus" xlink:href="#zoomPlus" x="17" y="9" onmousedown="handleZoom(evt,'in')"/>
                <use id="zoomminus" xlink:href="#zoomMin" x="42" y="9" onmousedown="handleZoom(evt,'out')"/>
                <use id="reset" xlink:href="#resetDef" x="30" y="36" onmousedown="handleReset()"/>
                <g id="arrowUp" xlink:href="#dirArrow" transform="translate(30 24)" onmousedown="handlePan(0,-1)">
                  <use xlink:href="#rim" fill="#404040">
                        <set attributeName="fill" to="#808080" begin="arrowUp.mouseover" end="arrowUp.mouseout"/>
                  </use>
                  <path fill="none" stroke="white" stroke-width="1.5" d="M0,-3.0v7 M-2.5,-0.5L0,-3.0L2.5,-0.5"/>
                </g>
                <g id="arrowRight" xlink:href="#dirArrow" transform="rotate(90) translate(36 -43)" onmousedown="handlePan(1,0)">
                  <use xlink:href="#rim" fill="#404040">
                        <set attributeName="fill" to="#808080" begin="arrowRight.mouseover" end="arrowRight.mouseout"/>
                  </use>
                  <path fill="none" stroke="white" stroke-width="1.5" d="M0,-3.0v7 M-2.5,-0.5L0,-3.0L2.5,-0.5"/>
                </g>
                <g id="arrowDown" xlink:href="#dirArrow" transform="rotate(180) translate(-30 -48)" onmousedown="handlePan(0,1)">
                  <use xlink:href="#rim" fill="#404040">
                        <set attributeName="fill" to="#808080" begin="arrowDown.mouseover" end="arrowDown.mouseout"/>
                  </use>
                  <path fill="none" stroke="white" stroke-width="1.5" d="M0,-3.0v7 M-2.5,-0.5L0,-3.0L2.5,-0.5"/>
                </g>
                <g id="arrowLeft" xlink:href="#dirArrow" transform="rotate(270) translate(-36 17)" onmousedown="handlePan(-1,0)">
                  <use xlink:href="#rim" fill="#404040">
                        <set attributeName="fill" to="#808080" begin="arrowLeft.mouseover" end="arrowLeft.mouseout"/>
                  </use>
                  <path fill="none" stroke="white" stroke-width="1.5" d="M0,-3.0v7 M-2.5,-0.5L0,-3.0L2.5,-0.5"/>
                </g>
        </g>
        <svg viewBox="0 0 15 15" width="100%" height="30px" preserveAspectRatio="xMaxYMin meet">
         <g id="arrow_out" transform="scale(0.3 0.3)">
          <a xlink:href="main_8cpp__incl_org.svg" target="_base">
           <rect id="button" ry="5" rx="5" y="6" x="6" height="38" width="38"
                fill="#f2f5e9" fill-opacity="0.5" stroke="#606060" stroke-width="1.0"/>
           <path id="arrow"
             d="M 11.500037,31.436501 C 11.940474,20.09759 22.043105,11.32322 32.158766,21.979434 L 37.068811,17.246167 C 37.068811,17.246167 37.088388,32 37.088388,32 L 22.160133,31.978069 C 22.160133,31.978069 26.997745,27.140456 26.997745,27.140456 C 18.528582,18.264221 13.291696,25.230495 11.500037,31.436501 z"
             style="fill:#404040;"/>
          </a>
         </g>
        </svg>
</svg>
