<?xml version="1.0" encoding="UTF-8" standalone="no"?>
<!DOCTYPE svg PUBLIC "-//W3C//DTD SVG 1.1//EN"
 "http://www.w3.org/Graphics/SVG/1.1/DTD/svg11.dtd">
<!-- Generated by graphviz version 2.43.0 (0)
 -->
<!-- Title: readSensorData Pages: 1 -->
<svg width="398pt" height="66pt"
 viewBox="0.00 0.00 398.00 66.00" xmlns="http://www.w3.org/2000/svg" xmlns:xlink="http://www.w3.org/1999/xlink">
<g id="graph0" class="graph" transform="scale(1 1) rotate(0) translate(4 62)">
<title>readSensorData</title>
<!-- Node1 -->
<g id="node1" class="node">
<title>Node1</title>
<g id="a_node1"><a xlink:title="Read data from each verified Sensor.">
<polygon fill="#bfbfbf" stroke="black" points="0,-19.5 0,-38.5 95,-38.5 95,-19.5 0,-19.5"/>
<text text-anchor="middle" x="47.5" y="-26.5" font-family="Helvetica,sans-Serif" font-size="10.00">readSensorData</text>
</a>
</g>
</g>
<!-- Node2 -->
<g id="node2" class="node">
<title>Node2</title>
<g id="a_node2"><a xlink:href="classSensor.html#a2d5ecda6a046ddba40d0e37921226d2f" target="_top" xlink:title="Uses readData and readEmpty to get the data&#45;filled or empty&#45;celled CSV line for the sensor.">
<polygon fill="none" stroke="black" points="131,-19.5 131,-38.5 245,-38.5 245,-19.5 131,-19.5"/>
<text text-anchor="middle" x="188" y="-26.5" font-family="Helvetica,sans-Serif" font-size="10.00">Sensor::getDataCSV</text>
</a>
</g>
</g>
<!-- Node1&#45;&gt;Node2 -->
<g id="edge1" class="edge">
<title>Node1&#45;&gt;Node2</title>
<path fill="none" stroke="midnightblue" d="M95,-29C103.25,-29 111.98,-29 120.65,-29"/>
<polygon fill="midnightblue" stroke="midnightblue" points="120.77,-32.5 130.77,-29 120.77,-25.5 120.77,-32.5"/>
</g>
<!-- Node3 -->
<g id="node3" class="node">
<title>Node3</title>
<g id="a_node3"><a xlink:href="classSensor.html#a56153cab066abc01692301d11965f9b8" target="_top" xlink:title="Returns the collected data from the sensor in CSV format.">
<polygon fill="none" stroke="black" points="285,-38.5 285,-57.5 386,-57.5 386,-38.5 285,-38.5"/>
<text text-anchor="middle" x="335.5" y="-45.5" font-family="Helvetica,sans-Serif" font-size="10.00">Sensor::readData</text>
</a>
</g>
</g>
<!-- Node2&#45;&gt;Node3 -->
<g id="edge2" class="edge">
<title>Node2&#45;&gt;Node3</title>
<path fill="none" stroke="midnightblue" d="M245.25,-36.35C254.87,-37.6 264.89,-38.91 274.6,-40.18"/>
<polygon fill="midnightblue" stroke="midnightblue" points="274.2,-43.65 284.57,-41.48 275.1,-36.71 274.2,-43.65"/>
</g>
<!-- Node4 -->
<g id="node4" class="node">
<title>Node4</title>
<g id="a_node4"><a xlink:href="classSensor.html#a62d72a2f81422ac2d2fa8ae86ba08571" target="_top" xlink:title="Returns CSV line in the same format as readData() but with &quot;&#45;&quot; instead of data.">
<polygon fill="none" stroke="black" points="281,-0.5 281,-19.5 390,-19.5 390,-0.5 281,-0.5"/>
<text text-anchor="middle" x="335.5" y="-7.5" font-family="Helvetica,sans-Serif" font-size="10.00">Sensor::readEmpty</text>
</a>
</g>
</g>
<!-- Node2&#45;&gt;Node4 -->
<g id="edge3" class="edge">
<title>Node2&#45;&gt;Node4</title>
<path fill="none" stroke="midnightblue" d="M245.25,-21.65C253.55,-20.57 262.16,-19.45 270.6,-18.34"/>
<polygon fill="midnightblue" stroke="midnightblue" points="271.32,-21.78 280.78,-17.01 270.42,-14.84 271.32,-21.78"/>
</g>
</g>
</svg>
