<?xml version="1.0" encoding="UTF-8" standalone="no"?>
<!DOCTYPE svg PUBLIC "-//W3C//DTD SVG 1.1//EN"
 "http://www.w3.org/Graphics/SVG/1.1/DTD/svg11.dtd">
<!-- Generated by graphviz version 2.43.0 (0)
 -->
<!-- Title: main.cpp Pages: 1 -->
<!--zoomable 196 -->
<svg id="main" version="1.1" xmlns="http://www.w3.org/2000/svg" xmlns:xlink="http://www.w3.org/1999/xlink" xml:space="preserve" onload="init(evt)">
<style type="text/css"><![CDATA[
.edge:hover path { stroke: red; }
.edge:hover polygon { stroke: red; fill: red; }
]]></style>
<script type="text/javascript"><![CDATA[
var edges = document.getElementsByTagName('g');
if (edges && edges.length) {
  for (var i=0;i<edges.length;i++) {
    if (edges[i].id.substr(0,4)=='edge') {
      edges[i].setAttribute('class','edge');
    }
  }
}
]]></script>
        <defs>
                <circle id="rim" cx="0" cy="0" r="7"/>
                <circle id="rim2" cx="0" cy="0" r="3.5"/>
                <g id="zoomPlus">
                        <use xlink:href="#rim" fill="#404040">
                                <set attributeName="fill" to="#808080" begin="zoomplus.mouseover" end="zoomplus.mouseout"/>
                        </use>
                        <path d="M-4,0h8M0,-4v8" fill="none" stroke="white" stroke-width="1.5" pointer-events="none"/>
                </g>
                <g id="zoomMin">
                        <use xlink:href="#rim" fill="#404040">
                                <set attributeName="fill" to="#808080" begin="zoomminus.mouseover" end="zoomminus.mouseout"/>
                        </use>
                        <path d="M-4,0h8" fill="none" stroke="white" stroke-width="1.5" pointer-events="none"/>
                </g>
                <g id="dirArrow">
                        <path fill="none" stroke="white" stroke-width="1.5" d="M0,-3.0v7 M-2.5,-0.5L0,-3.0L2.5,-0.5"/>
                </g>
               <g id="resetDef">
                       <use xlink:href="#rim2" fill="#404040">
                               <set attributeName="fill" to="#808080" begin="reset.mouseover" end="reset.mouseout"/>
                       </use>
               </g>
        </defs>

<script type="text/javascript">
var viewWidth = 1979;
var viewHeight = 196;
var sectionId = 'dynsection-0';
</script>
<script xlink:href="svgpan.js"/>
<svg id="graph" class="graph">
<g id="viewport">
<title>main.cpp</title>
<!-- Node1 -->
<g id="node1" class="node">
<title>Node1</title>
<g id="a_node1"><a xlink:title=" ">
<polygon fill="#bfbfbf" stroke="black" points="1169.5,-168.5 1169.5,-187.5 1231.5,-187.5 1231.5,-168.5 1169.5,-168.5"/>
<text text-anchor="middle" x="1200.5" y="-175.5" font-family="Helvetica,sans-Serif" font-size="10.00">main.cpp</text>
</a>
</g>
</g>
<!-- Node2 -->
<g id="node2" class="node">
<title>Node2</title>
<g id="a_node2"><a xlink:title=" ">
<polygon fill="none" stroke="#bfbfbf" points="1274,-0.5 1274,-19.5 1337,-19.5 1337,-0.5 1274,-0.5"/>
<text text-anchor="middle" x="1305.5" y="-7.5" font-family="Helvetica,sans-Serif" font-size="10.00">Arduino.h</text>
</a>
</g>
</g>
<!-- Node1&#45;&gt;Node2 -->
<g id="edge1" class="edge">
<title>Node1&#45;&gt;Node2</title>
<path fill="none" stroke="midnightblue" d="M1231.85,-172.63C1273.64,-166.09 1344.14,-152.31 1359.5,-132 1372.58,-114.7 1337.09,-57.22 1317.48,-28.15"/>
<polygon fill="midnightblue" stroke="midnightblue" points="1320.3,-26.07 1311.76,-19.8 1314.52,-30.03 1320.3,-26.07"/>
</g>
<!-- Node3 -->
<g id="node3" class="node">
<title>Node3</title>
<g id="a_node3"><a xlink:href="ErrorDisplay_8h.html" target="_top" xlink:title=" ">
<polygon fill="none" stroke="black" points="1886.5,-56.5 1886.5,-75.5 1970.5,-75.5 1970.5,-56.5 1886.5,-56.5"/>
<text text-anchor="middle" x="1928.5" y="-63.5" font-family="Helvetica,sans-Serif" font-size="10.00">ErrorDisplay.h</text>
</a>
</g>
</g>
<!-- Node1&#45;&gt;Node3 -->
<g id="edge2" class="edge">
<title>Node1&#45;&gt;Node3</title>
<path fill="none" stroke="midnightblue" d="M1231.92,-176.78C1360.13,-175.62 1839.6,-168.85 1895.5,-132 1911.48,-121.46 1920.1,-100.68 1924.48,-85.44"/>
<polygon fill="midnightblue" stroke="midnightblue" points="1927.92,-86.1 1926.96,-75.55 1921.13,-84.4 1927.92,-86.1"/>
</g>
<!-- Node4 -->
<g id="node4" class="node">
<title>Node4</title>
<g id="a_node4"><a xlink:href="Sensor_8h.html" target="_top" xlink:title=" ">
<polygon fill="none" stroke="black" points="1162.5,-56.5 1162.5,-75.5 1220.5,-75.5 1220.5,-56.5 1162.5,-56.5"/>
<text text-anchor="middle" x="1191.5" y="-63.5" font-family="Helvetica,sans-Serif" font-size="10.00">Sensor.h</text>
</a>
</g>
</g>
<!-- Node1&#45;&gt;Node4 -->
<g id="edge4" class="edge">
<title>Node1&#45;&gt;Node4</title>
<path fill="none" stroke="midnightblue" d="M1184.77,-168.24C1172.61,-160.48 1156.69,-147.93 1149.5,-132 1141.25,-113.71 1156.92,-94.64 1171.41,-81.92"/>
<polygon fill="midnightblue" stroke="midnightblue" points="1173.66,-84.6 1179.18,-75.56 1169.22,-79.19 1173.66,-84.6"/>
</g>
<!-- Node5 -->
<g id="node5" class="node">
<title>Node5</title>
<g id="a_node5"><a xlink:href="Storage_8h.html" target="_top" xlink:title=" ">
<polygon fill="none" stroke="black" points="1748,-56.5 1748,-75.5 1811,-75.5 1811,-56.5 1748,-56.5"/>
<text text-anchor="middle" x="1779.5" y="-63.5" font-family="Helvetica,sans-Serif" font-size="10.00">Storage.h</text>
</a>
</g>
</g>
<!-- Node1&#45;&gt;Node5 -->
<g id="edge6" class="edge">
<title>Node1&#45;&gt;Node5</title>
<path fill="none" stroke="midnightblue" d="M1231.51,-176.53C1343.04,-174.57 1719.32,-165.52 1760.5,-132 1774.01,-121 1778.25,-100.95 1779.42,-86.01"/>
<polygon fill="midnightblue" stroke="midnightblue" points="1782.92,-85.95 1779.82,-75.83 1775.93,-85.68 1782.92,-85.95"/>
</g>
<!-- Node6 -->
<g id="node6" class="node">
<title>Node6</title>
<g id="a_node6"><a xlink:href="AS7331Sensor_8h.html" target="_top" xlink:title=" ">
<polygon fill="none" stroke="black" points="439,-112.5 439,-131.5 534,-131.5 534,-112.5 439,-112.5"/>
<text text-anchor="middle" x="486.5" y="-119.5" font-family="Helvetica,sans-Serif" font-size="10.00">AS7331Sensor.h</text>
</a>
</g>
</g>
<!-- Node1&#45;&gt;Node6 -->
<g id="edge8" class="edge">
<title>Node1&#45;&gt;Node6</title>
<path fill="none" stroke="midnightblue" d="M1169.29,-175.84C1076.08,-172.17 791.42,-159.47 544.3,-131.98"/>
<polygon fill="midnightblue" stroke="midnightblue" points="544.37,-128.47 534.04,-130.83 543.59,-135.42 544.37,-128.47"/>
</g>
<!-- Node10 -->
<g id="node10" class="node">
<title>Node10</title>
<g id="a_node10"><a xlink:href="AnalogSensor_8h.html" target="_top" xlink:title=" ">
<polygon fill="none" stroke="black" points="1010.5,-112.5 1010.5,-131.5 1102.5,-131.5 1102.5,-112.5 1010.5,-112.5"/>
<text text-anchor="middle" x="1056.5" y="-119.5" font-family="Helvetica,sans-Serif" font-size="10.00">AnalogSensor.h</text>
</a>
</g>
</g>
<!-- Node1&#45;&gt;Node10 -->
<g id="edge13" class="edge">
<title>Node1&#45;&gt;Node10</title>
<path fill="none" stroke="midnightblue" d="M1177.68,-168.44C1153.67,-159.44 1115.67,-145.19 1088.63,-135.05"/>
<polygon fill="midnightblue" stroke="midnightblue" points="1089.8,-131.75 1079.21,-131.52 1087.34,-138.3 1089.8,-131.75"/>
</g>
<!-- Node11 -->
<g id="node11" class="node">
<title>Node11</title>
<g id="a_node11"><a xlink:href="BME280Sensor_8h.html" target="_top" xlink:title=" ">
<polygon fill="none" stroke="black" points="1513.5,-112.5 1513.5,-131.5 1611.5,-131.5 1611.5,-112.5 1513.5,-112.5"/>
<text text-anchor="middle" x="1562.5" y="-119.5" font-family="Helvetica,sans-Serif" font-size="10.00">BME280Sensor.h</text>
</a>
</g>
</g>
<!-- Node1&#45;&gt;Node11 -->
<g id="edge17" class="edge">
<title>Node1&#45;&gt;Node11</title>
<path fill="none" stroke="midnightblue" d="M1231.69,-172.5C1285.19,-164.77 1398.15,-148.34 1503.24,-132.34"/>
<polygon fill="midnightblue" stroke="midnightblue" points="1504.02,-135.76 1513.38,-130.79 1502.97,-128.84 1504.02,-135.76"/>
</g>
<!-- Node13 -->
<g id="node13" class="node">
<title>Node13</title>
<g id="a_node13"><a xlink:href="BME680Sensor_8h.html" target="_top" xlink:title=" ">
<polygon fill="none" stroke="black" points="552.5,-112.5 552.5,-131.5 650.5,-131.5 650.5,-112.5 552.5,-112.5"/>
<text text-anchor="middle" x="601.5" y="-119.5" font-family="Helvetica,sans-Serif" font-size="10.00">BME680Sensor.h</text>
</a>
</g>
</g>
<!-- Node1&#45;&gt;Node13 -->
<g id="edge20" class="edge">
<title>Node1&#45;&gt;Node13</title>
<path fill="none" stroke="midnightblue" d="M1169.32,-175.18C1087.63,-170.26 860.47,-155.5 660.61,-132.05"/>
<polygon fill="midnightblue" stroke="midnightblue" points="660.86,-128.56 650.51,-130.86 660.03,-135.51 660.86,-128.56"/>
</g>
<!-- Node17 -->
<g id="node17" class="node">
<title>Node17</title>
<g id="a_node17"><a xlink:href="ENS160Sensor_8h.html" target="_top" xlink:title=" ">
<polygon fill="none" stroke="black" points="287,-112.5 287,-131.5 382,-131.5 382,-112.5 287,-112.5"/>
<text text-anchor="middle" x="334.5" y="-119.5" font-family="Helvetica,sans-Serif" font-size="10.00">ENS160Sensor.h</text>
</a>
</g>
</g>
<!-- Node1&#45;&gt;Node17 -->
<g id="edge27" class="edge">
<title>Node1&#45;&gt;Node17</title>
<path fill="none" stroke="midnightblue" d="M1169.26,-175.58C1064.57,-170.75 716.6,-153.97 429.5,-132 417.5,-131.08 404.66,-129.96 392.42,-128.82"/>
<polygon fill="midnightblue" stroke="midnightblue" points="392.6,-125.32 382.31,-127.87 391.94,-132.29 392.6,-125.32"/>
</g>
<!-- Node19 -->
<g id="node19" class="node">
<title>Node19</title>
<g id="a_node19"><a xlink:href="GeigerSensor_8h.html" target="_top" xlink:title=" ">
<polygon fill="none" stroke="black" points="1260.5,-112.5 1260.5,-131.5 1350.5,-131.5 1350.5,-112.5 1260.5,-112.5"/>
<text text-anchor="middle" x="1305.5" y="-119.5" font-family="Helvetica,sans-Serif" font-size="10.00">GeigerSensor.h</text>
</a>
</g>
</g>
<!-- Node1&#45;&gt;Node19 -->
<g id="edge31" class="edge">
<title>Node1&#45;&gt;Node19</title>
<path fill="none" stroke="midnightblue" d="M1217.37,-168.32C1234.21,-159.66 1260.31,-146.24 1279.74,-136.25"/>
<polygon fill="midnightblue" stroke="midnightblue" points="1281.38,-139.34 1288.67,-131.65 1278.18,-133.12 1281.38,-139.34"/>
</g>
<!-- Node20 -->
<g id="node20" class="node">
<title>Node20</title>
<g id="a_node20"><a xlink:href="INA260Sensor_8h.html" target="_top" xlink:title=" ">
<polygon fill="none" stroke="black" points="899,-112.5 899,-131.5 992,-131.5 992,-112.5 899,-112.5"/>
<text text-anchor="middle" x="945.5" y="-119.5" font-family="Helvetica,sans-Serif" font-size="10.00">INA260Sensor.h</text>
</a>
</g>
</g>
<!-- Node1&#45;&gt;Node20 -->
<g id="edge34" class="edge">
<title>Node1&#45;&gt;Node20</title>
<path fill="none" stroke="midnightblue" d="M1169.49,-170.43C1126.31,-161.29 1047.57,-144.62 995.9,-133.67"/>
<polygon fill="midnightblue" stroke="midnightblue" points="996.45,-130.21 985.94,-131.56 995,-137.06 996.45,-130.21"/>
</g>
<!-- Node22 -->
<g id="node22" class="node">
<title>Node22</title>
<g id="a_node22"><a xlink:href="LSM9DS1Sensor_8h.html" target="_top" xlink:title=" ">
<polygon fill="none" stroke="black" points="776.5,-112.5 776.5,-131.5 880.5,-131.5 880.5,-112.5 776.5,-112.5"/>
<text text-anchor="middle" x="828.5" y="-119.5" font-family="Helvetica,sans-Serif" font-size="10.00">LSM9DS1Sensor.h</text>
</a>
</g>
</g>
<!-- Node1&#45;&gt;Node22 -->
<g id="edge39" class="edge">
<title>Node1&#45;&gt;Node22</title>
<path fill="none" stroke="midnightblue" d="M1169.42,-172.49C1108.22,-163.6 971.04,-143.69 890.59,-132.01"/>
<polygon fill="midnightblue" stroke="midnightblue" points="890.99,-128.53 880.59,-130.56 889.98,-135.46 890.99,-128.53"/>
</g>
<!-- Node24 -->
<g id="node24" class="node">
<title>Node24</title>
<g id="a_node24"><a xlink:href="SGP30Sensor_8h.html" target="_top" xlink:title=" ">
<polygon fill="none" stroke="black" points="1407,-112.5 1407,-131.5 1496,-131.5 1496,-112.5 1407,-112.5"/>
<text text-anchor="middle" x="1451.5" y="-119.5" font-family="Helvetica,sans-Serif" font-size="10.00">SGP30Sensor.h</text>
</a>
</g>
</g>
<!-- Node1&#45;&gt;Node24 -->
<g id="edge44" class="edge">
<title>Node1&#45;&gt;Node24</title>
<path fill="none" stroke="midnightblue" d="M1231.53,-170.32C1274.11,-161.16 1351.13,-144.59 1401.79,-133.69"/>
<polygon fill="midnightblue" stroke="midnightblue" points="1402.83,-137.05 1411.87,-131.53 1401.36,-130.21 1402.83,-137.05"/>
</g>
<!-- Node27 -->
<g id="node27" class="node">
<title>Node27</title>
<g id="a_node27"><a xlink:href="SHT31Sensor_8h.html" target="_top" xlink:title=" ">
<polygon fill="none" stroke="black" points="669,-112.5 669,-131.5 758,-131.5 758,-112.5 669,-112.5"/>
<text text-anchor="middle" x="713.5" y="-119.5" font-family="Helvetica,sans-Serif" font-size="10.00">SHT31Sensor.h</text>
</a>
</g>
</g>
<!-- Node1&#45;&gt;Node27 -->
<g id="edge50" class="edge">
<title>Node1&#45;&gt;Node27</title>
<path fill="none" stroke="midnightblue" d="M1169.44,-174.43C1099.75,-168.53 925.38,-152.99 768.56,-132.06"/>
<polygon fill="midnightblue" stroke="midnightblue" points="768.63,-128.54 758.26,-130.68 767.7,-135.48 768.63,-128.54"/>
</g>
<!-- Node29 -->
<g id="node29" class="node">
<title>Node29</title>
<g id="a_node29"><a xlink:href="TempSensor_8h.html" target="_top" xlink:title=" ">
<polygon fill="none" stroke="black" points="1158.5,-112.5 1158.5,-131.5 1242.5,-131.5 1242.5,-112.5 1158.5,-112.5"/>
<text text-anchor="middle" x="1200.5" y="-119.5" font-family="Helvetica,sans-Serif" font-size="10.00">TempSensor.h</text>
</a>
</g>
</g>
<!-- Node1&#45;&gt;Node29 -->
<g id="edge56" class="edge">
<title>Node1&#45;&gt;Node29</title>
<path fill="none" stroke="midnightblue" d="M1200.5,-168.08C1200.5,-161.01 1200.5,-150.86 1200.5,-141.99"/>
<polygon fill="midnightblue" stroke="midnightblue" points="1204,-141.75 1200.5,-131.75 1197,-141.75 1204,-141.75"/>
</g>
<!-- Node30 -->
<g id="node30" class="node">
<title>Node30</title>
<g id="a_node30"><a xlink:href="RadioStorage_8h.html" target="_top" xlink:title=" ">
<polygon fill="none" stroke="black" points="1660,-112.5 1660,-131.5 1751,-131.5 1751,-112.5 1660,-112.5"/>
<text text-anchor="middle" x="1705.5" y="-119.5" font-family="Helvetica,sans-Serif" font-size="10.00">RadioStorage.h</text>
</a>
</g>
</g>
<!-- Node1&#45;&gt;Node30 -->
<g id="edge58" class="edge">
<title>Node1&#45;&gt;Node30</title>
<path fill="none" stroke="midnightblue" d="M1231.71,-173.66C1314.95,-164.76 1543.16,-140.36 1649.54,-128.98"/>
<polygon fill="midnightblue" stroke="midnightblue" points="1650.18,-132.44 1659.75,-127.89 1649.44,-125.48 1650.18,-132.44"/>
</g>
<!-- Node31 -->
<g id="node31" class="node">
<title>Node31</title>
<g id="a_node31"><a xlink:href="SDStorage_8h.html" target="_top" xlink:title=" ">
<polygon fill="none" stroke="black" points="1809,-112.5 1809,-131.5 1886,-131.5 1886,-112.5 1809,-112.5"/>
<text text-anchor="middle" x="1847.5" y="-119.5" font-family="Helvetica,sans-Serif" font-size="10.00">SDStorage.h</text>
</a>
</g>
</g>
<!-- Node1&#45;&gt;Node31 -->
<g id="edge61" class="edge">
<title>Node1&#45;&gt;Node31</title>
<path fill="none" stroke="midnightblue" d="M1231.78,-175.61C1320.22,-171.48 1579.53,-157.9 1793.5,-132 1795.22,-131.79 1796.97,-131.57 1798.73,-131.33"/>
<polygon fill="midnightblue" stroke="midnightblue" points="1799.52,-134.75 1808.92,-129.86 1798.52,-127.83 1799.52,-134.75"/>
</g>
<!-- Node3&#45;&gt;Node2 -->
<g id="edge3" class="edge">
<title>Node3&#45;&gt;Node2</title>
<path fill="none" stroke="midnightblue" d="M1886.25,-57.22C1883.29,-56.78 1880.35,-56.36 1877.5,-56 1679.87,-30.85 1441.91,-17.53 1347.26,-12.91"/>
<polygon fill="midnightblue" stroke="midnightblue" points="1347.39,-9.41 1337.23,-12.42 1347.05,-16.4 1347.39,-9.41"/>
</g>
<!-- Node4&#45;&gt;Node2 -->
<g id="edge5" class="edge">
<title>Node4&#45;&gt;Node2</title>
<path fill="none" stroke="midnightblue" d="M1209.56,-56.44C1228.07,-47.68 1257.08,-33.94 1278.36,-23.86"/>
<polygon fill="midnightblue" stroke="midnightblue" points="1279.98,-26.96 1287.52,-19.52 1276.99,-20.63 1279.98,-26.96"/>
</g>
<!-- Node5&#45;&gt;Node2 -->
<g id="edge7" class="edge">
<title>Node5&#45;&gt;Node2</title>
<path fill="none" stroke="midnightblue" d="M1747.89,-58.43C1743.08,-57.55 1738.17,-56.7 1733.5,-56 1592.54,-34.84 1423.98,-20.23 1347.24,-14.15"/>
<polygon fill="midnightblue" stroke="midnightblue" points="1347.28,-10.65 1337.03,-13.35 1346.73,-17.63 1347.28,-10.65"/>
</g>
<!-- Node6&#45;&gt;Node4 -->
<g id="edge12" class="edge">
<title>Node6&#45;&gt;Node4</title>
<path fill="none" stroke="midnightblue" d="M534.04,-113.14C537.24,-112.72 540.41,-112.33 543.5,-112 810.21,-83.14 883.03,-114.66 1152.07,-75.95"/>
<polygon fill="midnightblue" stroke="midnightblue" points="1152.75,-79.39 1162.14,-74.49 1151.74,-72.46 1152.75,-79.39"/>
</g>
<!-- Node7 -->
<g id="node7" class="node">
<title>Node7</title>
<g id="a_node7"><a xlink:title=" ">
<polygon fill="none" stroke="#bfbfbf" points="131,-56.5 131,-75.5 244,-75.5 244,-56.5 131,-56.5"/>
<text text-anchor="middle" x="187.5" y="-63.5" font-family="Helvetica,sans-Serif" font-size="10.00">SparkFun_AS7331.h</text>
</a>
</g>
</g>
<!-- Node6&#45;&gt;Node7 -->
<g id="edge9" class="edge">
<title>Node6&#45;&gt;Node7</title>
<path fill="none" stroke="midnightblue" d="M439.12,-112.44C386.42,-102.92 301.27,-87.55 244.84,-77.36"/>
<polygon fill="midnightblue" stroke="midnightblue" points="245.12,-73.85 234.66,-75.52 243.87,-80.74 245.12,-73.85"/>
</g>
<!-- Node8 -->
<g id="node8" class="node">
<title>Node8</title>
<g id="a_node8"><a xlink:title=" ">
<polygon fill="none" stroke="#bfbfbf" points="262.5,-56.5 262.5,-75.5 310.5,-75.5 310.5,-56.5 262.5,-56.5"/>
<text text-anchor="middle" x="286.5" y="-63.5" font-family="Helvetica,sans-Serif" font-size="10.00">Wire.h</text>
</a>
</g>
</g>
<!-- Node6&#45;&gt;Node8 -->
<g id="edge10" class="edge">
<title>Node6&#45;&gt;Node8</title>
<path fill="none" stroke="midnightblue" d="M454.79,-112.49C423.16,-103.99 372.92,-90.47 320.46,-76.26"/>
<polygon fill="midnightblue" stroke="midnightblue" points="321.22,-72.83 310.65,-73.59 319.38,-79.59 321.22,-72.83"/>
</g>
<!-- Node9 -->
<g id="node9" class="node">
<title>Node9</title>
<g id="a_node9"><a xlink:title=" ">
<polygon fill="none" stroke="#bfbfbf" points="929,-56.5 929,-75.5 982,-75.5 982,-56.5 929,-56.5"/>
<text text-anchor="middle" x="955.5" y="-63.5" font-family="Helvetica,sans-Serif" font-size="10.00">string.h</text>
</a>
</g>
</g>
<!-- Node6&#45;&gt;Node9 -->
<g id="edge11" class="edge">
<title>Node6&#45;&gt;Node9</title>
<path fill="none" stroke="midnightblue" d="M534.05,-113.27C537.25,-112.82 540.42,-112.39 543.5,-112 706.79,-91.31 752.29,-103.92 918.76,-75.86"/>
<polygon fill="midnightblue" stroke="midnightblue" points="919.59,-79.27 928.86,-74.13 918.41,-72.37 919.59,-79.27"/>
</g>
<!-- Node10&#45;&gt;Node2 -->
<g id="edge14" class="edge">
<title>Node10&#45;&gt;Node2</title>
<path fill="none" stroke="midnightblue" d="M1102.63,-114.83C1138.71,-108.65 1189.33,-96.96 1229.5,-76 1253.66,-63.39 1276.76,-41.82 1291.02,-27"/>
<polygon fill="midnightblue" stroke="midnightblue" points="1293.7,-29.26 1297.98,-19.57 1288.59,-24.48 1293.7,-29.26"/>
</g>
<!-- Node10&#45;&gt;Node4 -->
<g id="edge16" class="edge">
<title>Node10&#45;&gt;Node4</title>
<path fill="none" stroke="midnightblue" d="M1077.89,-112.44C1100.21,-103.52 1135.4,-89.44 1160.71,-79.32"/>
<polygon fill="midnightblue" stroke="midnightblue" points="1162.22,-82.48 1170.21,-75.52 1159.62,-75.98 1162.22,-82.48"/>
</g>
<!-- Node10&#45;&gt;Node9 -->
<g id="edge15" class="edge">
<title>Node10&#45;&gt;Node9</title>
<path fill="none" stroke="midnightblue" d="M1040.27,-112.32C1024.15,-103.7 999.2,-90.36 980.54,-80.39"/>
<polygon fill="midnightblue" stroke="midnightblue" points="982.16,-77.28 971.69,-75.65 978.86,-83.46 982.16,-77.28"/>
</g>
<!-- Node11&#45;&gt;Node4 -->
<g id="edge18" class="edge">
<title>Node11&#45;&gt;Node4</title>
<path fill="none" stroke="midnightblue" d="M1513.38,-113.2C1510.72,-112.79 1508.08,-112.39 1505.5,-112 1406.61,-97.11 1290.01,-80.7 1230.59,-72.42"/>
<polygon fill="midnightblue" stroke="midnightblue" points="1230.91,-68.93 1220.52,-71.02 1229.95,-75.86 1230.91,-68.93"/>
</g>
<!-- Node12 -->
<g id="node12" class="node">
<title>Node12</title>
<g id="a_node12"><a xlink:title=" ">
<polygon fill="none" stroke="#bfbfbf" points="1581.5,-56.5 1581.5,-75.5 1691.5,-75.5 1691.5,-56.5 1581.5,-56.5"/>
<text text-anchor="middle" x="1636.5" y="-63.5" font-family="Helvetica,sans-Serif" font-size="10.00">SparkFunBME280.h</text>
</a>
</g>
</g>
<!-- Node11&#45;&gt;Node12 -->
<g id="edge19" class="edge">
<title>Node11&#45;&gt;Node12</title>
<path fill="none" stroke="midnightblue" d="M1574.39,-112.32C1585.65,-104.11 1602.79,-91.6 1616.21,-81.81"/>
<polygon fill="midnightblue" stroke="midnightblue" points="1618.38,-84.56 1624.39,-75.83 1614.25,-78.9 1618.38,-84.56"/>
</g>
<!-- Node13&#45;&gt;Node4 -->
<g id="edge26" class="edge">
<title>Node13&#45;&gt;Node4</title>
<path fill="none" stroke="midnightblue" d="M650.51,-113.11C653.55,-112.71 656.56,-112.33 659.5,-112 874.91,-87.48 934.14,-108.81 1151.98,-76"/>
<polygon fill="midnightblue" stroke="midnightblue" points="1152.78,-79.41 1162.13,-74.45 1151.72,-72.5 1152.78,-79.41"/>
</g>
<!-- Node13&#45;&gt;Node8 -->
<g id="edge24" class="edge">
<title>Node13&#45;&gt;Node8</title>
<path fill="none" stroke="midnightblue" d="M552.42,-113.46C484,-102.92 364.19,-84.29 320.56,-75.92"/>
<polygon fill="midnightblue" stroke="midnightblue" points="321.07,-72.45 310.58,-73.89 319.68,-79.31 321.07,-72.45"/>
</g>
<!-- Node13&#45;&gt;Node9 -->
<g id="edge25" class="edge">
<title>Node13&#45;&gt;Node9</title>
<path fill="none" stroke="midnightblue" d="M650.54,-113.33C653.57,-112.88 656.58,-112.43 659.5,-112 771.76,-95.52 803.26,-98.02 918.88,-75.93"/>
<polygon fill="midnightblue" stroke="midnightblue" points="919.68,-79.34 928.83,-74.01 918.35,-72.47 919.68,-79.34"/>
</g>
<!-- Node14 -->
<g id="node14" class="node">
<title>Node14</title>
<g id="a_node14"><a xlink:title=" ">
<polygon fill="none" stroke="#bfbfbf" points="388.5,-56.5 388.5,-75.5 498.5,-75.5 498.5,-56.5 388.5,-56.5"/>
<text text-anchor="middle" x="443.5" y="-63.5" font-family="Helvetica,sans-Serif" font-size="10.00">Adafruit_BME680.h</text>
</a>
</g>
</g>
<!-- Node13&#45;&gt;Node14 -->
<g id="edge21" class="edge">
<title>Node13&#45;&gt;Node14</title>
<path fill="none" stroke="midnightblue" d="M576.46,-112.44C549.88,-103.36 507.69,-88.94 477.98,-78.78"/>
<polygon fill="midnightblue" stroke="midnightblue" points="479.01,-75.44 468.42,-75.52 476.75,-82.06 479.01,-75.44"/>
</g>
<!-- Node15 -->
<g id="node15" class="node">
<title>Node15</title>
<g id="a_node15"><a xlink:title=" ">
<polygon fill="none" stroke="#bfbfbf" points="674.5,-56.5 674.5,-75.5 776.5,-75.5 776.5,-56.5 674.5,-56.5"/>
<text text-anchor="middle" x="725.5" y="-63.5" font-family="Helvetica,sans-Serif" font-size="10.00">Adafruit_Sensor.h</text>
</a>
</g>
</g>
<!-- Node13&#45;&gt;Node15 -->
<g id="edge22" class="edge">
<title>Node13&#45;&gt;Node15</title>
<path fill="none" stroke="midnightblue" d="M621.15,-112.44C641.46,-103.6 673.4,-89.69 696.6,-79.59"/>
<polygon fill="midnightblue" stroke="midnightblue" points="698.17,-82.72 705.94,-75.52 695.38,-76.3 698.17,-82.72"/>
</g>
<!-- Node16 -->
<g id="node16" class="node">
<title>Node16</title>
<g id="a_node16"><a xlink:title=" ">
<polygon fill="none" stroke="#bfbfbf" points="329,-56.5 329,-75.5 370,-75.5 370,-56.5 329,-56.5"/>
<text text-anchor="middle" x="349.5" y="-63.5" font-family="Helvetica,sans-Serif" font-size="10.00">SPI.h</text>
</a>
</g>
</g>
<!-- Node13&#45;&gt;Node16 -->
<g id="edge23" class="edge">
<title>Node13&#45;&gt;Node16</title>
<path fill="none" stroke="midnightblue" d="M552.71,-112.44C509.74,-104.6 445.3,-92.12 380.13,-75.96"/>
<polygon fill="midnightblue" stroke="midnightblue" points="380.64,-72.48 370.09,-73.45 378.94,-79.27 380.64,-72.48"/>
</g>
<!-- Node17&#45;&gt;Node4 -->
<g id="edge29" class="edge">
<title>Node17&#45;&gt;Node4</title>
<path fill="none" stroke="midnightblue" d="M382.31,-116.05C397.39,-114.6 414.13,-113.11 429.5,-112 747.54,-89.04 832.79,-120.65 1152.14,-75.93"/>
<polygon fill="midnightblue" stroke="midnightblue" points="1152.73,-79.38 1162.14,-74.51 1151.75,-72.45 1152.73,-79.38"/>
</g>
<!-- Node17&#45;&gt;Node8 -->
<g id="edge28" class="edge">
<title>Node17&#45;&gt;Node8</title>
<path fill="none" stroke="midnightblue" d="M326.57,-112.08C319.65,-104.3 309.43,-92.8 301.05,-83.37"/>
<polygon fill="midnightblue" stroke="midnightblue" points="303.54,-80.9 294.28,-75.75 298.31,-85.55 303.54,-80.9"/>
</g>
<!-- Node18 -->
<g id="node18" class="node">
<title>Node18</title>
<g id="a_node18"><a xlink:title=" ">
<polygon fill="none" stroke="#bfbfbf" points="0,-56.5 0,-75.5 113,-75.5 113,-56.5 0,-56.5"/>
<text text-anchor="middle" x="56.5" y="-63.5" font-family="Helvetica,sans-Serif" font-size="10.00">SparkFun_ENS160.h</text>
</a>
</g>
</g>
<!-- Node17&#45;&gt;Node18 -->
<g id="edge30" class="edge">
<title>Node17&#45;&gt;Node18</title>
<path fill="none" stroke="midnightblue" d="M290.45,-112.44C241.65,-102.96 162.94,-87.67 110.47,-77.48"/>
<polygon fill="midnightblue" stroke="midnightblue" points="110.83,-73.99 100.34,-75.52 109.49,-80.86 110.83,-73.99"/>
</g>
<!-- Node19&#45;&gt;Node2 -->
<g id="edge32" class="edge">
<title>Node19&#45;&gt;Node2</title>
<path fill="none" stroke="midnightblue" d="M1305.5,-112.37C1305.5,-94.62 1305.5,-53.67 1305.5,-29.6"/>
<polygon fill="midnightblue" stroke="midnightblue" points="1309,-29.59 1305.5,-19.59 1302,-29.59 1309,-29.59"/>
</g>
<!-- Node19&#45;&gt;Node4 -->
<g id="edge33" class="edge">
<title>Node19&#45;&gt;Node4</title>
<path fill="none" stroke="midnightblue" d="M1287.44,-112.44C1268.93,-103.68 1239.92,-89.94 1218.64,-79.86"/>
<polygon fill="midnightblue" stroke="midnightblue" points="1220.01,-76.63 1209.48,-75.52 1217.02,-82.96 1220.01,-76.63"/>
</g>
<!-- Node20&#45;&gt;Node2 -->
<g id="edge35" class="edge">
<title>Node20&#45;&gt;Node2</title>
<path fill="none" stroke="midnightblue" d="M953.97,-112.15C968.28,-97.8 998.78,-69.69 1030.5,-56 1108.11,-22.5 1207.9,-13.76 1263.42,-11.6"/>
<polygon fill="midnightblue" stroke="midnightblue" points="1263.71,-15.09 1273.59,-11.25 1263.48,-8.09 1263.71,-15.09"/>
</g>
<!-- Node20&#45;&gt;Node4 -->
<g id="edge38" class="edge">
<title>Node20&#45;&gt;Node4</title>
<path fill="none" stroke="midnightblue" d="M986.21,-112.44C1026.13,-103.99 1088.97,-90.54 1152.66,-76.16"/>
<polygon fill="midnightblue" stroke="midnightblue" points="1153.49,-79.56 1162.47,-73.94 1151.94,-72.73 1153.49,-79.56"/>
</g>
<!-- Node20&#45;&gt;Node9 -->
<g id="edge36" class="edge">
<title>Node20&#45;&gt;Node9</title>
<path fill="none" stroke="midnightblue" d="M947.15,-112.08C948.48,-104.93 950.38,-94.64 952.04,-85.69"/>
<polygon fill="midnightblue" stroke="midnightblue" points="955.5,-86.22 953.88,-75.75 948.62,-84.95 955.5,-86.22"/>
</g>
<!-- Node21 -->
<g id="node21" class="node">
<title>Node21</title>
<g id="a_node21"><a xlink:title=" ">
<polygon fill="none" stroke="#bfbfbf" points="1039,-56.5 1039,-75.5 1144,-75.5 1144,-56.5 1039,-56.5"/>
<text text-anchor="middle" x="1091.5" y="-63.5" font-family="Helvetica,sans-Serif" font-size="10.00">Adafruit_INA260.h</text>
</a>
</g>
</g>
<!-- Node20&#45;&gt;Node21 -->
<g id="edge37" class="edge">
<title>Node20&#45;&gt;Node21</title>
<path fill="none" stroke="midnightblue" d="M968.63,-112.44C992.98,-103.44 1031.51,-89.19 1058.92,-79.05"/>
<polygon fill="midnightblue" stroke="midnightblue" points="1060.31,-82.27 1068.47,-75.52 1057.88,-75.7 1060.31,-82.27"/>
</g>
<!-- Node22&#45;&gt;Node4 -->
<g id="edge43" class="edge">
<title>Node22&#45;&gt;Node4</title>
<path fill="none" stroke="midnightblue" d="M880.59,-113.41C883.94,-112.93 887.27,-112.46 890.5,-112 1004.13,-95.98 1035.8,-97.52 1152.09,-76.12"/>
<polygon fill="midnightblue" stroke="midnightblue" points="1152.91,-79.53 1162.1,-74.26 1151.63,-72.64 1152.91,-79.53"/>
</g>
<!-- Node22&#45;&gt;Node9 -->
<g id="edge42" class="edge">
<title>Node22&#45;&gt;Node9</title>
<path fill="none" stroke="midnightblue" d="M848.62,-112.44C869.52,-103.56 902.43,-89.56 926.22,-79.45"/>
<polygon fill="midnightblue" stroke="midnightblue" points="927.64,-82.65 935.47,-75.52 924.9,-76.21 927.64,-82.65"/>
</g>
<!-- Node22&#45;&gt;Node15 -->
<g id="edge41" class="edge">
<title>Node22&#45;&gt;Node15</title>
<path fill="none" stroke="midnightblue" d="M811.95,-112.32C795.51,-103.7 770.07,-90.36 751.03,-80.39"/>
<polygon fill="midnightblue" stroke="midnightblue" points="752.49,-77.2 742.01,-75.65 749.24,-83.4 752.49,-77.2"/>
</g>
<!-- Node23 -->
<g id="node23" class="node">
<title>Node23</title>
<g id="a_node23"><a xlink:title=" ">
<polygon fill="none" stroke="#bfbfbf" points="794.5,-56.5 794.5,-75.5 910.5,-75.5 910.5,-56.5 794.5,-56.5"/>
<text text-anchor="middle" x="852.5" y="-63.5" font-family="Helvetica,sans-Serif" font-size="10.00">Adafruit_LSM9DS1.h</text>
</a>
</g>
</g>
<!-- Node22&#45;&gt;Node23 -->
<g id="edge40" class="edge">
<title>Node22&#45;&gt;Node23</title>
<path fill="none" stroke="midnightblue" d="M832.46,-112.08C835.71,-104.77 840.42,-94.18 844.45,-85.1"/>
<polygon fill="midnightblue" stroke="midnightblue" points="847.75,-86.31 848.61,-75.75 841.35,-83.47 847.75,-86.31"/>
</g>
<!-- Node24&#45;&gt;Node2 -->
<g id="edge45" class="edge">
<title>Node24&#45;&gt;Node2</title>
<path fill="none" stroke="midnightblue" d="M1437.15,-112.36C1422.94,-103.64 1400.75,-89.57 1382.5,-76 1361.18,-60.14 1338.06,-40.22 1322.77,-26.64"/>
<polygon fill="midnightblue" stroke="midnightblue" points="1324.93,-23.88 1315.15,-19.82 1320.26,-29.09 1324.93,-23.88"/>
</g>
<!-- Node24&#45;&gt;Node4 -->
<g id="edge49" class="edge">
<title>Node24&#45;&gt;Node4</title>
<path fill="none" stroke="midnightblue" d="M1410.3,-112.44C1361.08,-102.22 1279.31,-85.24 1230.9,-75.18"/>
<polygon fill="midnightblue" stroke="midnightblue" points="1231.31,-71.69 1220.81,-73.09 1229.88,-78.55 1231.31,-71.69"/>
</g>
<!-- Node24&#45;&gt;Node9 -->
<g id="edge47" class="edge">
<title>Node24&#45;&gt;Node9</title>
<path fill="none" stroke="midnightblue" d="M1406.93,-116.43C1330.06,-108.5 1167.63,-91.56 1030.5,-76 1018.1,-74.59 1004.56,-72.99 992.44,-71.53"/>
<polygon fill="midnightblue" stroke="midnightblue" points="992.57,-68.02 982.22,-70.29 991.72,-74.97 992.57,-68.02"/>
</g>
<!-- Node25 -->
<g id="node25" class="node">
<title>Node25</title>
<g id="a_node25"><a xlink:title=" ">
<polygon fill="none" stroke="#bfbfbf" points="1391,-56.5 1391,-75.5 1444,-75.5 1444,-56.5 1391,-56.5"/>
<text text-anchor="middle" x="1417.5" y="-63.5" font-family="Helvetica,sans-Serif" font-size="10.00">stdint.h</text>
</a>
</g>
</g>
<!-- Node24&#45;&gt;Node25 -->
<g id="edge46" class="edge">
<title>Node24&#45;&gt;Node25</title>
<path fill="none" stroke="midnightblue" d="M1445.89,-112.08C1441.13,-104.53 1434.18,-93.49 1428.35,-84.23"/>
<polygon fill="midnightblue" stroke="midnightblue" points="1431.3,-82.35 1423.01,-75.75 1425.38,-86.08 1431.3,-82.35"/>
</g>
<!-- Node26 -->
<g id="node26" class="node">
<title>Node26</title>
<g id="a_node26"><a xlink:title=" ">
<polygon fill="none" stroke="#bfbfbf" points="1462,-56.5 1462,-75.5 1563,-75.5 1563,-56.5 1462,-56.5"/>
<text text-anchor="middle" x="1512.5" y="-63.5" font-family="Helvetica,sans-Serif" font-size="10.00">Adafruit_SGP30.h</text>
</a>
</g>
</g>
<!-- Node24&#45;&gt;Node26 -->
<g id="edge48" class="edge">
<title>Node24&#45;&gt;Node26</title>
<path fill="none" stroke="midnightblue" d="M1461.3,-112.32C1470.32,-104.34 1483.91,-92.31 1494.82,-82.65"/>
<polygon fill="midnightblue" stroke="midnightblue" points="1497.35,-85.08 1502.52,-75.83 1492.71,-79.84 1497.35,-85.08"/>
</g>
<!-- Node27&#45;&gt;Node2 -->
<g id="edge51" class="edge">
<title>Node27&#45;&gt;Node2</title>
<path fill="none" stroke="midnightblue" d="M699.1,-112.31C679.35,-99.38 648.19,-74.57 665.5,-56 706.22,-12.32 1127.8,-10.24 1263.6,-10.72"/>
<polygon fill="midnightblue" stroke="midnightblue" points="1263.97,-14.22 1273.99,-10.76 1264,-7.22 1263.97,-14.22"/>
</g>
<!-- Node27&#45;&gt;Node4 -->
<g id="edge55" class="edge">
<title>Node27&#45;&gt;Node4</title>
<path fill="none" stroke="midnightblue" d="M758.25,-113.29C761.38,-112.83 764.48,-112.39 767.5,-112 935.11,-90.24 981.71,-103.4 1152.06,-76.03"/>
<polygon fill="midnightblue" stroke="midnightblue" points="1152.82,-79.45 1162.12,-74.39 1151.69,-72.54 1152.82,-79.45"/>
</g>
<!-- Node27&#45;&gt;Node8 -->
<g id="edge52" class="edge">
<title>Node27&#45;&gt;Node8</title>
<path fill="none" stroke="midnightblue" d="M668.74,-113.33C665.62,-112.86 662.51,-112.41 659.5,-112 512.17,-91.94 470.61,-103.56 320.59,-75.92"/>
<polygon fill="midnightblue" stroke="midnightblue" points="321.02,-72.44 310.55,-74.04 319.73,-79.32 321.02,-72.44"/>
</g>
<!-- Node27&#45;&gt;Node9 -->
<g id="edge53" class="edge">
<title>Node27&#45;&gt;Node9</title>
<path fill="none" stroke="midnightblue" d="M754.23,-112.48C793.73,-104.13 855.61,-90.83 918.66,-76.14"/>
<polygon fill="midnightblue" stroke="midnightblue" points="919.85,-79.46 928.79,-73.77 918.25,-72.64 919.85,-79.46"/>
</g>
<!-- Node28 -->
<g id="node28" class="node">
<title>Node28</title>
<g id="a_node28"><a xlink:title=" ">
<polygon fill="none" stroke="#bfbfbf" points="517,-56.5 517,-75.5 618,-75.5 618,-56.5 517,-56.5"/>
<text text-anchor="middle" x="567.5" y="-63.5" font-family="Helvetica,sans-Serif" font-size="10.00">Adafruit_SHT31.h</text>
</a>
</g>
</g>
<!-- Node27&#45;&gt;Node28 -->
<g id="edge54" class="edge">
<title>Node27&#45;&gt;Node28</title>
<path fill="none" stroke="midnightblue" d="M690.37,-112.44C666.02,-103.44 627.49,-89.19 600.08,-79.05"/>
<polygon fill="midnightblue" stroke="midnightblue" points="601.12,-75.7 590.53,-75.52 598.69,-82.27 601.12,-75.7"/>
</g>
<!-- Node29&#45;&gt;Node4 -->
<g id="edge57" class="edge">
<title>Node29&#45;&gt;Node4</title>
<path fill="none" stroke="midnightblue" d="M1199.01,-112.08C1197.82,-104.93 1196.11,-94.64 1194.62,-85.69"/>
<polygon fill="midnightblue" stroke="midnightblue" points="1198.05,-85.04 1192.96,-75.75 1191.15,-86.19 1198.05,-85.04"/>
</g>
<!-- Node30&#45;&gt;Node2 -->
<g id="edge59" class="edge">
<title>Node30&#45;&gt;Node2</title>
<path fill="none" stroke="midnightblue" d="M1707.86,-112.48C1711.13,-98.6 1715.11,-71.16 1700.5,-56 1676.29,-30.88 1443.97,-17.37 1347.34,-12.8"/>
<polygon fill="midnightblue" stroke="midnightblue" points="1347.21,-9.29 1337.06,-12.32 1346.89,-16.28 1347.21,-9.29"/>
</g>
<!-- Node30&#45;&gt;Node5 -->
<g id="edge60" class="edge">
<title>Node30&#45;&gt;Node5</title>
<path fill="none" stroke="midnightblue" d="M1717.39,-112.32C1728.65,-104.11 1745.79,-91.6 1759.21,-81.81"/>
<polygon fill="midnightblue" stroke="midnightblue" points="1761.38,-84.56 1767.39,-75.83 1757.25,-78.9 1761.38,-84.56"/>
</g>
<!-- Node31&#45;&gt;Node3 -->
<g id="edge62" class="edge">
<title>Node31&#45;&gt;Node3</title>
<path fill="none" stroke="midnightblue" d="M1860.51,-112.32C1873.03,-103.98 1892.18,-91.21 1906.97,-81.35"/>
<polygon fill="midnightblue" stroke="midnightblue" points="1909.14,-84.11 1915.52,-75.65 1905.26,-78.29 1909.14,-84.11"/>
</g>
<!-- Node31&#45;&gt;Node5 -->
<g id="edge64" class="edge">
<title>Node31&#45;&gt;Node5</title>
<path fill="none" stroke="midnightblue" d="M1836.57,-112.32C1826.33,-104.18 1810.78,-91.84 1798.5,-82.09"/>
<polygon fill="midnightblue" stroke="midnightblue" points="1800.63,-79.31 1790.62,-75.83 1796.28,-84.79 1800.63,-79.31"/>
</g>
<!-- Node32 -->
<g id="node32" class="node">
<title>Node32</title>
<g id="a_node32"><a xlink:title=" ">
<polygon fill="none" stroke="#bfbfbf" points="1829,-56.5 1829,-75.5 1868,-75.5 1868,-56.5 1829,-56.5"/>
<text text-anchor="middle" x="1848.5" y="-63.5" font-family="Helvetica,sans-Serif" font-size="10.00">SD.h</text>
</a>
</g>
</g>
<!-- Node31&#45;&gt;Node32 -->
<g id="edge63" class="edge">
<title>Node31&#45;&gt;Node32</title>
<path fill="none" stroke="midnightblue" d="M1847.67,-112.08C1847.8,-105.01 1847.98,-94.86 1848.15,-85.99"/>
<polygon fill="midnightblue" stroke="midnightblue" points="1851.65,-85.81 1848.34,-75.75 1844.65,-85.68 1851.65,-85.81"/>
</g>
</g>
</svg>
        <g id="navigator" transform="translate(0 0)" fill="#404254">
                <rect fill="#f2f5e9" fill-opacity="0.5" stroke="#606060" stroke-width=".5" x="0" y="0" width="60" height="60"/>
                <use id="zoomplus" xlink:href="#zoomPlus" x="17" y="9" onmousedown="handleZoom(evt,'in')"/>
                <use id="zoomminus" xlink:href="#zoomMin" x="42" y="9" onmousedown="handleZoom(evt,'out')"/>
                <use id="reset" xlink:href="#resetDef" x="30" y="36" onmousedown="handleReset()"/>
                <g id="arrowUp" xlink:href="#dirArrow" transform="translate(30 24)" onmousedown="handlePan(0,-1)">
                  <use xlink:href="#rim" fill="#404040">
                        <set attributeName="fill" to="#808080" begin="arrowUp.mouseover" end="arrowUp.mouseout"/>
                  </use>
                  <path fill="none" stroke="white" stroke-width="1.5" d="M0,-3.0v7 M-2.5,-0.5L0,-3.0L2.5,-0.5"/>
                </g>
                <g id="arrowRight" xlink:href="#dirArrow" transform="rotate(90) translate(36 -43)" onmousedown="handlePan(1,0)">
                  <use xlink:href="#rim" fill="#404040">
                        <set attributeName="fill" to="#808080" begin="arrowRight.mouseover" end="arrowRight.mouseout"/>
                  </use>
                  <path fill="none" stroke="white" stroke-width="1.5" d="M0,-3.0v7 M-2.5,-0.5L0,-3.0L2.5,-0.5"/>
                </g>
                <g id="arrowDown" xlink:href="#dirArrow" transform="rotate(180) translate(-30 -48)" onmousedown="handlePan(0,1)">
                  <use xlink:href="#rim" fill="#404040">
                        <set attributeName="fill" to="#808080" begin="arrowDown.mouseover" end="arrowDown.mouseout"/>
                  </use>
                  <path fill="none" stroke="white" stroke-width="1.5" d="M0,-3.0v7 M-2.5,-0.5L0,-3.0L2.5,-0.5"/>
                </g>
                <g id="arrowLeft" xlink:href="#dirArrow" transform="rotate(270) translate(-36 17)" onmousedown="handlePan(-1,0)">
                  <use xlink:href="#rim" fill="#404040">
                        <set attributeName="fill" to="#808080" begin="arrowLeft.mouseover" end="arrowLeft.mouseout"/>
                  </use>
                  <path fill="none" stroke="white" stroke-width="1.5" d="M0,-3.0v7 M-2.5,-0.5L0,-3.0L2.5,-0.5"/>
                </g>
        </g>
        <svg viewBox="0 0 15 15" width="100%" height="30px" preserveAspectRatio="xMaxYMin meet">
         <g id="arrow_out" transform="scale(0.3 0.3)">
          <a xlink:href="main_8cpp__incl_org.svg" target="_base">
           <rect id="button" ry="5" rx="5" y="6" x="6" height="38" width="38"
                fill="#f2f5e9" fill-opacity="0.5" stroke="#606060" stroke-width="1.0"/>
           <path id="arrow"
             d="M 11.500037,31.436501 C 11.940474,20.09759 22.043105,11.32322 32.158766,21.979434 L 37.068811,17.246167 C 37.068811,17.246167 37.088388,32 37.088388,32 L 22.160133,31.978069 C 22.160133,31.978069 26.997745,27.140456 26.997745,27.140456 C 18.528582,18.264221 13.291696,25.230495 11.500037,31.436501 z"
             style="fill:#404040;"/>
          </a>
         </g>
        </svg>
</svg>
