<?xml version="1.0" encoding="UTF-8" standalone="no"?>
<!DOCTYPE svg PUBLIC "-//W3C//DTD SVG 1.1//EN"
 "http://www.w3.org/Graphics/SVG/1.1/DTD/svg11.dtd">
<!-- Generated by graphviz version 2.43.0 (0)
 -->
<!-- Title: setup Pages: 1 -->
<svg width="429pt" height="332pt"
 viewBox="0.00 0.00 429.00 332.00" xmlns="http://www.w3.org/2000/svg" xmlns:xlink="http://www.w3.org/1999/xlink">
<g id="graph0" class="graph" transform="scale(1 1) rotate(0) translate(4 328)">
<title>setup</title>
<!-- Node1 -->
<g id="node1" class="node">
<title>Node1</title>
<g id="a_node1"><a xlink:title="Setup for core 0.">
<polygon fill="#bfbfbf" stroke="black" points="0,-152.5 0,-171.5 44,-171.5 44,-152.5 0,-152.5"/>
<text text-anchor="middle" x="22" y="-159.5" font-family="Helvetica,sans-Serif" font-size="10.00">setup</text>
</a>
</g>
</g>
<!-- Node2 -->
<g id="node2" class="node">
<title>Node2</title>
<g id="a_node2"><a xlink:href="classErrorDisplay.html#a25018c85cd6b4055a5e796153b997d13" target="_top" xlink:title="Sets the error code to the given value if the given error is of a higher priority then the current er...">
<polygon fill="none" stroke="black" points="97,-304.5 97,-323.5 222,-323.5 222,-304.5 97,-304.5"/>
<text text-anchor="middle" x="159.5" y="-311.5" font-family="Helvetica,sans-Serif" font-size="10.00">ErrorDisplay::addCode</text>
</a>
</g>
</g>
<!-- Node1&#45;&gt;Node2 -->
<g id="edge1" class="edge">
<title>Node1&#45;&gt;Node2</title>
<path fill="none" stroke="midnightblue" d="M24.2,-171.77C27.78,-196.47 40.67,-261.76 80,-295 82.39,-297.02 84.95,-298.83 87.65,-300.45"/>
<polygon fill="midnightblue" stroke="midnightblue" points="86.14,-303.61 96.64,-305.03 89.31,-297.37 86.14,-303.61"/>
</g>
<!-- Node3 -->
<g id="node3" class="node">
<title>Node3</title>
<g id="a_node3"><a xlink:href="classSensor.html#a8a69f0a1c04c3b90d8225d67301a75b6" target="_top" xlink:title="Get the csv header string associated with this sensor.">
<polygon fill="none" stroke="black" points="80,-266.5 80,-285.5 239,-285.5 239,-266.5 80,-266.5"/>
<text text-anchor="middle" x="159.5" y="-273.5" font-family="Helvetica,sans-Serif" font-size="10.00">Sensor::getSensorCSVHeader</text>
</a>
</g>
</g>
<!-- Node1&#45;&gt;Node3 -->
<g id="edge2" class="edge">
<title>Node1&#45;&gt;Node3</title>
<path fill="none" stroke="midnightblue" d="M25.92,-171.53C32.35,-190.85 49.63,-234.67 80,-257 82.65,-258.95 85.48,-260.71 88.43,-262.28"/>
<polygon fill="midnightblue" stroke="midnightblue" points="87.04,-265.49 97.58,-266.49 89.96,-259.13 87.04,-265.49"/>
</g>
<!-- Node4 -->
<g id="node4" class="node">
<title>Node4</title>
<g id="a_node4"><a xlink:href="classStorage.html#ade89a8cb71d3f08ac75390d0f1e842cb" target="_top" xlink:title="Get the name of the storage device.">
<polygon fill="none" stroke="black" points="88,-228.5 88,-247.5 231,-247.5 231,-228.5 88,-228.5"/>
<text text-anchor="middle" x="159.5" y="-235.5" font-family="Helvetica,sans-Serif" font-size="10.00">Storage::getStorageName</text>
</a>
</g>
</g>
<!-- Node1&#45;&gt;Node4 -->
<g id="edge3" class="edge">
<title>Node1&#45;&gt;Node4</title>
<path fill="none" stroke="midnightblue" d="M29.93,-171.69C39.63,-184.52 58.52,-206.94 80,-219 84.14,-221.32 88.55,-223.36 93.1,-225.16"/>
<polygon fill="midnightblue" stroke="midnightblue" points="91.98,-228.47 102.58,-228.5 94.31,-221.87 91.98,-228.47"/>
</g>
<!-- Node5 -->
<g id="node5" class="node">
<title>Node5</title>
<g id="a_node5"><a xlink:href="classErrorDisplay.html#a164dea875d8b3215203e5d6f0076f237" target="_top" xlink:title="Accesses the only instance of ErrorDisplay (Singleton)">
<polygon fill="none" stroke="black" points="98,-190.5 98,-209.5 221,-209.5 221,-190.5 98,-190.5"/>
<text text-anchor="middle" x="159.5" y="-197.5" font-family="Helvetica,sans-Serif" font-size="10.00">ErrorDisplay::instance</text>
</a>
</g>
</g>
<!-- Node1&#45;&gt;Node5 -->
<g id="edge4" class="edge">
<title>Node1&#45;&gt;Node5</title>
<path fill="none" stroke="midnightblue" d="M44.25,-169.56C54.91,-173.23 68.07,-177.57 80,-181 88.52,-183.45 97.62,-185.84 106.49,-188.07"/>
<polygon fill="midnightblue" stroke="midnightblue" points="105.82,-191.5 116.37,-190.49 107.49,-184.71 105.82,-191.5"/>
</g>
<!-- Node6 -->
<g id="node6" class="node">
<title>Node6</title>
<g id="a_node6"><a xlink:href="classFlashStorage.html#a4890571487bb855dd72c050dc37a73f1" target="_top" xlink:title="Store data on flash.">
<polygon fill="none" stroke="black" points="104,-152.5 104,-171.5 215,-171.5 215,-152.5 104,-152.5"/>
<text text-anchor="middle" x="159.5" y="-159.5" font-family="Helvetica,sans-Serif" font-size="10.00">FlashStorage::store</text>
</a>
</g>
</g>
<!-- Node1&#45;&gt;Node6 -->
<g id="edge5" class="edge">
<title>Node1&#45;&gt;Node6</title>
<path fill="none" stroke="midnightblue" d="M44.17,-162C57.55,-162 75.62,-162 93.45,-162"/>
<polygon fill="midnightblue" stroke="midnightblue" points="93.88,-165.5 103.88,-162 93.88,-158.5 93.88,-165.5"/>
</g>
<!-- Node7 -->
<g id="node7" class="node">
<title>Node7</title>
<g id="a_node7"><a xlink:href="classErrorDisplay.html#a493bde338b369414abffe90e0d49e93b" target="_top" xlink:title="Toggles the level of the error display.">
<polygon fill="none" stroke="black" points="103,-114.5 103,-133.5 216,-133.5 216,-114.5 103,-114.5"/>
<text text-anchor="middle" x="159.5" y="-121.5" font-family="Helvetica,sans-Serif" font-size="10.00">ErrorDisplay::toggle</text>
</a>
</g>
</g>
<!-- Node1&#45;&gt;Node7 -->
<g id="edge6" class="edge">
<title>Node1&#45;&gt;Node7</title>
<path fill="none" stroke="midnightblue" d="M44.25,-154.44C54.91,-150.77 68.07,-146.43 80,-143 88.52,-140.55 97.62,-138.16 106.49,-135.93"/>
<polygon fill="midnightblue" stroke="midnightblue" points="107.49,-139.29 116.37,-133.51 105.82,-132.5 107.49,-139.29"/>
</g>
<!-- Node8 -->
<g id="node8" class="node">
<title>Node8</title>
<g id="a_node8"><a xlink:href="classFlashStorage.html#addf2a0a14a0a92ccce2d55eac60282e4" target="_top" xlink:title="Verify flash memory connection and create a new file.">
<polygon fill="none" stroke="black" points="102.5,-76.5 102.5,-95.5 216.5,-95.5 216.5,-76.5 102.5,-76.5"/>
<text text-anchor="middle" x="159.5" y="-83.5" font-family="Helvetica,sans-Serif" font-size="10.00">FlashStorage::verify</text>
</a>
</g>
</g>
<!-- Node1&#45;&gt;Node8 -->
<g id="edge7" class="edge">
<title>Node1&#45;&gt;Node8</title>
<path fill="none" stroke="midnightblue" d="M29.93,-152.31C39.63,-139.48 58.52,-117.06 80,-105 84.14,-102.68 88.55,-100.64 93.1,-98.84"/>
<polygon fill="midnightblue" stroke="midnightblue" points="94.31,-102.13 102.58,-95.5 91.98,-95.53 94.31,-102.13"/>
</g>
<!-- Node10 -->
<g id="node10" class="node">
<title>Node10</title>
<g id="a_node10"><a xlink:href="main_8cpp.html#aef42a5a8a5d889c599fa964be60eca24" target="_top" xlink:title="Verifies each sensor by calling each verify() function.">
<polygon fill="none" stroke="black" points="118,-38.5 118,-57.5 201,-57.5 201,-38.5 118,-38.5"/>
<text text-anchor="middle" x="159.5" y="-45.5" font-family="Helvetica,sans-Serif" font-size="10.00">verifySensors</text>
</a>
</g>
</g>
<!-- Node1&#45;&gt;Node10 -->
<g id="edge9" class="edge">
<title>Node1&#45;&gt;Node10</title>
<path fill="none" stroke="midnightblue" d="M25.92,-152.47C32.35,-133.15 49.63,-89.33 80,-67 88.22,-60.96 98.11,-56.82 108.05,-53.98"/>
<polygon fill="midnightblue" stroke="midnightblue" points="109.07,-57.33 117.95,-51.56 107.41,-50.53 109.07,-57.33"/>
</g>
<!-- Node11 -->
<g id="node11" class="node">
<title>Node11</title>
<g id="a_node11"><a xlink:href="main_8cpp.html#a339ac134cdee34bfe9d5f539ab14ba00" target="_top" xlink:title="Verifies the connection with each storage device, and defines the header_condensed field.">
<polygon fill="none" stroke="black" points="118.5,-0.5 118.5,-19.5 200.5,-19.5 200.5,-0.5 118.5,-0.5"/>
<text text-anchor="middle" x="159.5" y="-7.5" font-family="Helvetica,sans-Serif" font-size="10.00">verifyStorage</text>
</a>
</g>
</g>
<!-- Node1&#45;&gt;Node11 -->
<g id="edge10" class="edge">
<title>Node1&#45;&gt;Node11</title>
<path fill="none" stroke="midnightblue" d="M24.2,-152.23C27.78,-127.53 40.67,-62.24 80,-29 88.03,-22.21 98.1,-17.77 108.32,-14.88"/>
<polygon fill="midnightblue" stroke="midnightblue" points="109.18,-18.27 118.1,-12.56 107.56,-11.46 109.18,-18.27"/>
</g>
<!-- Node9 -->
<g id="node9" class="node">
<title>Node9</title>
<g id="a_node9"><a xlink:href="classFlashStorage.html#a859b93e00991f74dd5abc09e3065c255" target="_top" xlink:title="Read position from flash.">
<polygon fill="none" stroke="black" points="275,-76.5 275,-95.5 421,-95.5 421,-76.5 275,-76.5"/>
<text text-anchor="middle" x="348" y="-83.5" font-family="Helvetica,sans-Serif" font-size="10.00">FlashStorage::loadPosition</text>
</a>
</g>
</g>
<!-- Node8&#45;&gt;Node9 -->
<g id="edge8" class="edge">
<title>Node8&#45;&gt;Node9</title>
<path fill="none" stroke="midnightblue" d="M216.71,-86C231.81,-86 248.45,-86 264.66,-86"/>
<polygon fill="midnightblue" stroke="midnightblue" points="264.67,-89.5 274.67,-86 264.67,-82.5 264.67,-89.5"/>
</g>
</g>
</svg>
