<?xml version="1.0" encoding="UTF-8" standalone="no"?>
<!DOCTYPE svg PUBLIC "-//W3C//DTD SVG 1.1//EN"
 "http://www.w3.org/Graphics/SVG/1.1/DTD/svg11.dtd">
<!-- Generated by graphviz version 2.43.0 (0)
 -->
<!-- Title: main.cpp Pages: 1 -->
<!--zoomable 196 -->
<svg id="main" version="1.1" xmlns="http://www.w3.org/2000/svg" xmlns:xlink="http://www.w3.org/1999/xlink" xml:space="preserve" onload="init(evt)">
<style type="text/css"><![CDATA[
.edge:hover path { stroke: red; }
.edge:hover polygon { stroke: red; fill: red; }
]]></style>
<script type="text/javascript"><![CDATA[
var edges = document.getElementsByTagName('g');
if (edges && edges.length) {
  for (var i=0;i<edges.length;i++) {
    if (edges[i].id.substr(0,4)=='edge') {
      edges[i].setAttribute('class','edge');
    }
  }
}
]]></script>
        <defs>
                <circle id="rim" cx="0" cy="0" r="7"/>
                <circle id="rim2" cx="0" cy="0" r="3.5"/>
                <g id="zoomPlus">
                        <use xlink:href="#rim" fill="#404040">
                                <set attributeName="fill" to="#808080" begin="zoomplus.mouseover" end="zoomplus.mouseout"/>
                        </use>
                        <path d="M-4,0h8M0,-4v8" fill="none" stroke="white" stroke-width="1.5" pointer-events="none"/>
                </g>
                <g id="zoomMin">
                        <use xlink:href="#rim" fill="#404040">
                                <set attributeName="fill" to="#808080" begin="zoomminus.mouseover" end="zoomminus.mouseout"/>
                        </use>
                        <path d="M-4,0h8" fill="none" stroke="white" stroke-width="1.5" pointer-events="none"/>
                </g>
                <g id="dirArrow">
                        <path fill="none" stroke="white" stroke-width="1.5" d="M0,-3.0v7 M-2.5,-0.5L0,-3.0L2.5,-0.5"/>
                </g>
               <g id="resetDef">
                       <use xlink:href="#rim2" fill="#404040">
                               <set attributeName="fill" to="#808080" begin="reset.mouseover" end="reset.mouseout"/>
                       </use>
               </g>
        </defs>

<script type="text/javascript">
var viewWidth = 2138;
var viewHeight = 196;
var sectionId = 'dynsection-0';
</script>
<script xlink:href="svgpan.js"/>
<svg id="graph" class="graph">
<g id="viewport">
<title>main.cpp</title>
<!-- Node1 -->
<g id="node1" class="node">
<title>Node1</title>
<g id="a_node1"><a xlink:title=" ">
<polygon fill="#bfbfbf" stroke="black" points="721.74,-168.5 721.74,-187.5 783.74,-187.5 783.74,-168.5 721.74,-168.5"/>
<text text-anchor="middle" x="752.74" y="-175.5" font-family="Helvetica,sans-Serif" font-size="10.00">main.cpp</text>
</a>
</g>
</g>
<!-- Node2 -->
<g id="node2" class="node">
<title>Node2</title>
<g id="a_node2"><a xlink:title=" ">
<polygon fill="none" stroke="#bfbfbf" points="651.24,-0.5 651.24,-19.5 714.24,-19.5 714.24,-0.5 651.24,-0.5"/>
<text text-anchor="middle" x="682.74" y="-7.5" font-family="Helvetica,sans-Serif" font-size="10.00">Arduino.h</text>
</a>
</g>
</g>
<!-- Node1&#45;&gt;Node2 -->
<g id="edge1" class="edge">
<title>Node1&#45;&gt;Node2</title>
<path fill="none" stroke="midnightblue" d="M721.47,-176.29C583.34,-173.02 33.54,-158.35 8.74,-132 -8.42,-113.77 2.99,-74.58 26.74,-56 74.98,-18.24 503.55,-12.16 640.71,-11.19"/>
<polygon fill="midnightblue" stroke="midnightblue" points="640.85,-14.69 650.83,-11.12 640.8,-7.69 640.85,-14.69"/>
</g>
<!-- Node3 -->
<g id="node3" class="node">
<title>Node3</title>
<g id="a_node3"><a xlink:href="Sensor_8h.html" target="_top" xlink:title=" ">
<polygon fill="none" stroke="black" points="748.74,-56.5 748.74,-75.5 806.74,-75.5 806.74,-56.5 748.74,-56.5"/>
<text text-anchor="middle" x="777.74" y="-63.5" font-family="Helvetica,sans-Serif" font-size="10.00">Sensor.h</text>
</a>
</g>
</g>
<!-- Node1&#45;&gt;Node3 -->
<g id="edge2" class="edge">
<title>Node1&#45;&gt;Node3</title>
<path fill="none" stroke="midnightblue" d="M783.76,-172.8C825.98,-166.37 898.08,-152.63 913.74,-132 919.11,-124.92 918.94,-119.21 913.74,-112 907.82,-103.81 854.63,-87.89 816.56,-77.35"/>
<polygon fill="midnightblue" stroke="midnightblue" points="817.32,-73.93 806.76,-74.66 815.47,-80.68 817.32,-73.93"/>
</g>
<!-- Node4 -->
<g id="node4" class="node">
<title>Node4</title>
<g id="a_node4"><a xlink:href="Storage_8h.html" target="_top" xlink:title=" ">
<polygon fill="none" stroke="black" points="93.24,-56.5 93.24,-75.5 156.24,-75.5 156.24,-56.5 93.24,-56.5"/>
<text text-anchor="middle" x="124.74" y="-63.5" font-family="Helvetica,sans-Serif" font-size="10.00">Storage.h</text>
</a>
</g>
</g>
<!-- Node1&#45;&gt;Node4 -->
<g id="edge4" class="edge">
<title>Node1&#45;&gt;Node4</title>
<path fill="none" stroke="midnightblue" d="M721.48,-176.74C603.41,-175.5 188.92,-168.54 143.74,-132 130.19,-121.04 125.96,-100.98 124.8,-86.04"/>
<polygon fill="midnightblue" stroke="midnightblue" points="128.29,-85.7 124.41,-75.84 121.29,-85.96 128.29,-85.7"/>
</g>
<!-- Node5 -->
<g id="node5" class="node">
<title>Node5</title>
<g id="a_node5"><a xlink:href="AS7331Sensor_8h.html" target="_top" xlink:title=" ">
<polygon fill="none" stroke="black" points="1068.24,-112.5 1068.24,-131.5 1163.24,-131.5 1163.24,-112.5 1068.24,-112.5"/>
<text text-anchor="middle" x="1115.74" y="-119.5" font-family="Helvetica,sans-Serif" font-size="10.00">AS7331Sensor.h</text>
</a>
</g>
</g>
<!-- Node1&#45;&gt;Node5 -->
<g id="edge6" class="edge">
<title>Node1&#45;&gt;Node5</title>
<path fill="none" stroke="midnightblue" d="M784.14,-172.54C838.05,-164.86 951.94,-148.49 1058.16,-132.23"/>
<polygon fill="midnightblue" stroke="midnightblue" points="1058.73,-135.68 1068.08,-130.7 1057.67,-128.76 1058.73,-135.68"/>
</g>
<!-- Node9 -->
<g id="node9" class="node">
<title>Node9</title>
<g id="a_node9"><a xlink:href="AnalogSensor_8h.html" target="_top" xlink:title=" ">
<polygon fill="none" stroke="black" points="812.74,-112.5 812.74,-131.5 904.74,-131.5 904.74,-112.5 812.74,-112.5"/>
<text text-anchor="middle" x="858.74" y="-119.5" font-family="Helvetica,sans-Serif" font-size="10.00">AnalogSensor.h</text>
</a>
</g>
</g>
<!-- Node1&#45;&gt;Node9 -->
<g id="edge11" class="edge">
<title>Node1&#45;&gt;Node9</title>
<path fill="none" stroke="midnightblue" d="M769.77,-168.32C786.77,-159.66 813.11,-146.24 832.73,-136.25"/>
<polygon fill="midnightblue" stroke="midnightblue" points="834.43,-139.31 841.75,-131.65 831.25,-133.08 834.43,-139.31"/>
</g>
<!-- Node10 -->
<g id="node10" class="node">
<title>Node10</title>
<g id="a_node10"><a xlink:href="BME280Sensor_8h.html" target="_top" xlink:title=" ">
<polygon fill="none" stroke="black" points="480.74,-112.5 480.74,-131.5 578.74,-131.5 578.74,-112.5 480.74,-112.5"/>
<text text-anchor="middle" x="529.74" y="-119.5" font-family="Helvetica,sans-Serif" font-size="10.00">BME280Sensor.h</text>
</a>
</g>
</g>
<!-- Node1&#45;&gt;Node10 -->
<g id="edge15" class="edge">
<title>Node1&#45;&gt;Node10</title>
<path fill="none" stroke="midnightblue" d="M721.73,-169.49C683.53,-160.24 618.36,-144.46 574.68,-133.88"/>
<polygon fill="midnightblue" stroke="midnightblue" points="575.43,-130.46 564.89,-131.51 573.78,-137.27 575.43,-130.46"/>
</g>
<!-- Node12 -->
<g id="node12" class="node">
<title>Node12</title>
<g id="a_node12"><a xlink:href="BME680Sensor_8h.html" target="_top" xlink:title=" ">
<polygon fill="none" stroke="black" points="1804.74,-112.5 1804.74,-131.5 1902.74,-131.5 1902.74,-112.5 1804.74,-112.5"/>
<text text-anchor="middle" x="1853.74" y="-119.5" font-family="Helvetica,sans-Serif" font-size="10.00">BME680Sensor.h</text>
</a>
</g>
</g>
<!-- Node1&#45;&gt;Node12 -->
<g id="edge18" class="edge">
<title>Node1&#45;&gt;Node12</title>
<path fill="none" stroke="midnightblue" d="M783.91,-175.47C935.09,-168.06 1592.74,-135.8 1794.6,-125.9"/>
<polygon fill="midnightblue" stroke="midnightblue" points="1794.89,-129.39 1804.71,-125.4 1794.55,-122.4 1794.89,-129.39"/>
</g>
<!-- Node16 -->
<g id="node16" class="node">
<title>Node16</title>
<g id="a_node16"><a xlink:href="ENS160Sensor_8h.html" target="_top" xlink:title=" ">
<polygon fill="none" stroke="black" points="597.24,-112.5 597.24,-131.5 692.24,-131.5 692.24,-112.5 597.24,-112.5"/>
<text text-anchor="middle" x="644.74" y="-119.5" font-family="Helvetica,sans-Serif" font-size="10.00">ENS160Sensor.h</text>
</a>
</g>
</g>
<!-- Node1&#45;&gt;Node16 -->
<g id="edge25" class="edge">
<title>Node1&#45;&gt;Node16</title>
<path fill="none" stroke="midnightblue" d="M735.38,-168.32C718.06,-159.66 691.22,-146.24 671.23,-136.25"/>
<polygon fill="midnightblue" stroke="midnightblue" points="672.55,-133 662.04,-131.65 669.42,-139.26 672.55,-133"/>
</g>
<!-- Node18 -->
<g id="node18" class="node">
<title>Node18</title>
<g id="a_node18"><a xlink:href="GeigerSensor_8h.html" target="_top" xlink:title=" ">
<polygon fill="none" stroke="black" points="372.74,-112.5 372.74,-131.5 462.74,-131.5 462.74,-112.5 372.74,-112.5"/>
<text text-anchor="middle" x="417.74" y="-119.5" font-family="Helvetica,sans-Serif" font-size="10.00">GeigerSensor.h</text>
</a>
</g>
</g>
<!-- Node1&#45;&gt;Node18 -->
<g id="edge29" class="edge">
<title>Node1&#45;&gt;Node18</title>
<path fill="none" stroke="midnightblue" d="M721.54,-172.07C671.39,-164.13 569.49,-147.94 472.76,-132.16"/>
<polygon fill="midnightblue" stroke="midnightblue" points="473.25,-128.69 462.81,-130.53 472.12,-135.6 473.25,-128.69"/>
</g>
<!-- Node19 -->
<g id="node19" class="node">
<title>Node19</title>
<g id="a_node19"><a xlink:href="INA260Sensor_8h.html" target="_top" xlink:title=" ">
<polygon fill="none" stroke="black" points="261.24,-112.5 261.24,-131.5 354.24,-131.5 354.24,-112.5 261.24,-112.5"/>
<text text-anchor="middle" x="307.74" y="-119.5" font-family="Helvetica,sans-Serif" font-size="10.00">INA260Sensor.h</text>
</a>
</g>
</g>
<!-- Node1&#45;&gt;Node19 -->
<g id="edge32" class="edge">
<title>Node1&#45;&gt;Node19</title>
<path fill="none" stroke="midnightblue" d="M721.67,-173.88C657.2,-167.3 503.98,-151.13 364.48,-132.05"/>
<polygon fill="midnightblue" stroke="midnightblue" points="364.85,-128.56 354.46,-130.67 363.89,-135.5 364.85,-128.56"/>
</g>
<!-- Node21 -->
<g id="node21" class="node">
<title>Node21</title>
<g id="a_node21"><a xlink:href="LSM9DS1Sensor_8h.html" target="_top" xlink:title=" ">
<polygon fill="none" stroke="black" points="1409.74,-112.5 1409.74,-131.5 1513.74,-131.5 1513.74,-112.5 1409.74,-112.5"/>
<text text-anchor="middle" x="1461.74" y="-119.5" font-family="Helvetica,sans-Serif" font-size="10.00">LSM9DS1Sensor.h</text>
</a>
</g>
</g>
<!-- Node1&#45;&gt;Node21 -->
<g id="edge37" class="edge">
<title>Node1&#45;&gt;Node21</title>
<path fill="none" stroke="midnightblue" d="M783.84,-175.69C876.08,-171.64 1156.37,-158.01 1399.44,-132.06"/>
<polygon fill="midnightblue" stroke="midnightblue" points="1399.96,-135.52 1409.53,-130.97 1399.21,-128.56 1399.96,-135.52"/>
</g>
<!-- Node23 -->
<g id="node23" class="node">
<title>Node23</title>
<g id="a_node23"><a xlink:href="SGP30Sensor_8h.html" target="_top" xlink:title=" ">
<polygon fill="none" stroke="black" points="1302.24,-112.5 1302.24,-131.5 1391.24,-131.5 1391.24,-112.5 1302.24,-112.5"/>
<text text-anchor="middle" x="1346.74" y="-119.5" font-family="Helvetica,sans-Serif" font-size="10.00">SGP30Sensor.h</text>
</a>
</g>
</g>
<!-- Node1&#45;&gt;Node23 -->
<g id="edge42" class="edge">
<title>Node1&#45;&gt;Node23</title>
<path fill="none" stroke="midnightblue" d="M783.87,-175.3C865.45,-170.66 1092.27,-156.53 1291.9,-132"/>
<polygon fill="midnightblue" stroke="midnightblue" points="1292.5,-135.45 1301.99,-130.75 1291.63,-128.51 1292.5,-135.45"/>
</g>
<!-- Node26 -->
<g id="node26" class="node">
<title>Node26</title>
<g id="a_node26"><a xlink:href="SHT31Sensor_8h.html" target="_top" xlink:title=" ">
<polygon fill="none" stroke="black" points="961.24,-112.5 961.24,-131.5 1050.24,-131.5 1050.24,-112.5 961.24,-112.5"/>
<text text-anchor="middle" x="1005.74" y="-119.5" font-family="Helvetica,sans-Serif" font-size="10.00">SHT31Sensor.h</text>
</a>
</g>
</g>
<!-- Node1&#45;&gt;Node26 -->
<g id="edge48" class="edge">
<title>Node1&#45;&gt;Node26</title>
<path fill="none" stroke="midnightblue" d="M783.76,-170.38C826.68,-161.22 904.67,-144.57 955.84,-133.65"/>
<polygon fill="midnightblue" stroke="midnightblue" points="956.65,-137.06 965.7,-131.55 955.19,-130.21 956.65,-137.06"/>
</g>
<!-- Node28 -->
<g id="node28" class="node">
<title>Node28</title>
<g id="a_node28"><a xlink:href="TempSensor_8h.html" target="_top" xlink:title=" ">
<polygon fill="none" stroke="black" points="710.74,-112.5 710.74,-131.5 794.74,-131.5 794.74,-112.5 710.74,-112.5"/>
<text text-anchor="middle" x="752.74" y="-119.5" font-family="Helvetica,sans-Serif" font-size="10.00">TempSensor.h</text>
</a>
</g>
</g>
<!-- Node1&#45;&gt;Node28 -->
<g id="edge54" class="edge">
<title>Node1&#45;&gt;Node28</title>
<path fill="none" stroke="midnightblue" d="M752.74,-168.08C752.74,-161.01 752.74,-150.86 752.74,-141.99"/>
<polygon fill="midnightblue" stroke="midnightblue" points="756.24,-141.75 752.74,-131.75 749.24,-141.75 756.24,-141.75"/>
</g>
<!-- Node29 -->
<g id="node29" class="node">
<title>Node29</title>
<g id="a_node29"><a xlink:href="ZOPT220Sensor_8h.html" target="_top" xlink:title=" ">
<polygon fill="none" stroke="black" points="1181.74,-112.5 1181.74,-131.5 1283.74,-131.5 1283.74,-112.5 1181.74,-112.5"/>
<text text-anchor="middle" x="1232.74" y="-119.5" font-family="Helvetica,sans-Serif" font-size="10.00">ZOPT220Sensor.h</text>
</a>
</g>
</g>
<!-- Node1&#45;&gt;Node29 -->
<g id="edge56" class="edge">
<title>Node1&#45;&gt;Node29</title>
<path fill="none" stroke="midnightblue" d="M783.88,-174.12C852.12,-167.7 1020.2,-151.37 1171.74,-132.08"/>
<polygon fill="midnightblue" stroke="midnightblue" points="1172.22,-135.55 1181.69,-130.81 1171.33,-128.6 1172.22,-135.55"/>
</g>
<!-- Node31 -->
<g id="node31" class="node">
<title>Node31</title>
<g id="a_node31"><a xlink:href="RadioStorage_8h.html" target="_top" xlink:title=" ">
<polygon fill="none" stroke="black" points="152.24,-112.5 152.24,-131.5 243.24,-131.5 243.24,-112.5 152.24,-112.5"/>
<text text-anchor="middle" x="197.74" y="-119.5" font-family="Helvetica,sans-Serif" font-size="10.00">RadioStorage.h</text>
</a>
</g>
</g>
<!-- Node1&#45;&gt;Node31 -->
<g id="edge65" class="edge">
<title>Node1&#45;&gt;Node31</title>
<path fill="none" stroke="midnightblue" d="M721.64,-174.99C644.36,-169.82 437.22,-154.95 253.44,-131.99"/>
<polygon fill="midnightblue" stroke="midnightblue" points="253.68,-128.5 243.32,-130.72 252.8,-135.44 253.68,-128.5"/>
</g>
<!-- Node32 -->
<g id="node32" class="node">
<title>Node32</title>
<g id="a_node32"><a xlink:href="SDStorage_8h.html" target="_top" xlink:title=" ">
<polygon fill="none" stroke="black" points="18.24,-112.5 18.24,-131.5 95.24,-131.5 95.24,-112.5 18.24,-112.5"/>
<text text-anchor="middle" x="56.74" y="-119.5" font-family="Helvetica,sans-Serif" font-size="10.00">SDStorage.h</text>
</a>
</g>
</g>
<!-- Node1&#45;&gt;Node32 -->
<g id="edge68" class="edge">
<title>Node1&#45;&gt;Node32</title>
<path fill="none" stroke="midnightblue" d="M721.52,-175.9C628.3,-172.4 343.91,-160.01 109.74,-132 108.43,-131.84 107.11,-131.68 105.78,-131.5"/>
<polygon fill="midnightblue" stroke="midnightblue" points="105.85,-127.98 95.46,-130.03 104.86,-134.91 105.85,-127.98"/>
</g>
<!-- Node3&#45;&gt;Node2 -->
<g id="edge3" class="edge">
<title>Node3&#45;&gt;Node2</title>
<path fill="none" stroke="midnightblue" d="M762.47,-56.32C747.51,-47.82 724.48,-34.73 707.01,-24.8"/>
<polygon fill="midnightblue" stroke="midnightblue" points="708.38,-21.55 697.96,-19.65 704.93,-27.64 708.38,-21.55"/>
</g>
<!-- Node4&#45;&gt;Node2 -->
<g id="edge5" class="edge">
<title>Node4&#45;&gt;Node2</title>
<path fill="none" stroke="midnightblue" d="M156.34,-58.36C161.15,-57.48 166.06,-56.66 170.74,-56 344.57,-31.42 553.63,-18.04 641.09,-13.17"/>
<polygon fill="midnightblue" stroke="midnightblue" points="641.35,-16.66 651.14,-12.61 640.97,-9.67 641.35,-16.66"/>
</g>
<!-- Node5&#45;&gt;Node3 -->
<g id="edge10" class="edge">
<title>Node5&#45;&gt;Node3</title>
<path fill="none" stroke="midnightblue" d="M1068.08,-113.34C1065.26,-112.88 1062.46,-112.44 1059.74,-112 973.04,-98.12 871.35,-81.91 816.89,-73.23"/>
<polygon fill="midnightblue" stroke="midnightblue" points="817.39,-69.77 806.97,-71.65 816.29,-76.68 817.39,-69.77"/>
</g>
<!-- Node6 -->
<g id="node6" class="node">
<title>Node6</title>
<g id="a_node6"><a xlink:title=" ">
<polygon fill="none" stroke="#bfbfbf" points="1021.24,-56.5 1021.24,-75.5 1134.24,-75.5 1134.24,-56.5 1021.24,-56.5"/>
<text text-anchor="middle" x="1077.74" y="-63.5" font-family="Helvetica,sans-Serif" font-size="10.00">SparkFun_AS7331.h</text>
</a>
</g>
</g>
<!-- Node5&#45;&gt;Node6 -->
<g id="edge7" class="edge">
<title>Node5&#45;&gt;Node6</title>
<path fill="none" stroke="midnightblue" d="M1109.46,-112.08C1104.09,-104.46 1096.22,-93.26 1089.66,-83.94"/>
<polygon fill="midnightblue" stroke="midnightblue" points="1092.51,-81.91 1083.89,-75.75 1086.79,-85.94 1092.51,-81.91"/>
</g>
<!-- Node7 -->
<g id="node7" class="node">
<title>Node7</title>
<g id="a_node7"><a xlink:title=" ">
<polygon fill="none" stroke="#bfbfbf" points="1212.74,-0.5 1212.74,-19.5 1260.74,-19.5 1260.74,-0.5 1212.74,-0.5"/>
<text text-anchor="middle" x="1236.74" y="-7.5" font-family="Helvetica,sans-Serif" font-size="10.00">Wire.h</text>
</a>
</g>
</g>
<!-- Node5&#45;&gt;Node7 -->
<g id="edge8" class="edge">
<title>Node5&#45;&gt;Node7</title>
<path fill="none" stroke="midnightblue" d="M1124.21,-112.37C1136.73,-99.72 1161.05,-75.51 1182.74,-56 1194.08,-45.8 1207.22,-34.83 1217.7,-26.28"/>
<polygon fill="midnightblue" stroke="midnightblue" points="1220.21,-28.75 1225.77,-19.73 1215.8,-23.31 1220.21,-28.75"/>
</g>
<!-- Node8 -->
<g id="node8" class="node">
<title>Node8</title>
<g id="a_node8"><a xlink:title=" ">
<polygon fill="none" stroke="#bfbfbf" points="1191.24,-56.5 1191.24,-75.5 1244.24,-75.5 1244.24,-56.5 1191.24,-56.5"/>
<text text-anchor="middle" x="1217.74" y="-63.5" font-family="Helvetica,sans-Serif" font-size="10.00">string.h</text>
</a>
</g>
</g>
<!-- Node5&#45;&gt;Node8 -->
<g id="edge9" class="edge">
<title>Node5&#45;&gt;Node8</title>
<path fill="none" stroke="midnightblue" d="M1132.12,-112.32C1148.41,-103.7 1173.6,-90.36 1192.45,-80.39"/>
<polygon fill="midnightblue" stroke="midnightblue" points="1194.19,-83.43 1201.39,-75.65 1190.91,-77.24 1194.19,-83.43"/>
</g>
<!-- Node9&#45;&gt;Node2 -->
<g id="edge12" class="edge">
<title>Node9&#45;&gt;Node2</title>
<path fill="none" stroke="midnightblue" d="M822.96,-112.43C798.12,-105.34 765.06,-93.56 739.74,-76 721.12,-63.09 704.64,-42.81 694.25,-28.34"/>
<polygon fill="midnightblue" stroke="midnightblue" points="696.91,-26.03 688.34,-19.8 691.15,-30.01 696.91,-26.03"/>
</g>
<!-- Node9&#45;&gt;Node3 -->
<g id="edge14" class="edge">
<title>Node9&#45;&gt;Node3</title>
<path fill="none" stroke="midnightblue" d="M845.72,-112.32C833.2,-103.98 814.05,-91.21 799.26,-81.35"/>
<polygon fill="midnightblue" stroke="midnightblue" points="800.98,-78.29 790.72,-75.65 797.1,-84.11 800.98,-78.29"/>
</g>
<!-- Node9&#45;&gt;Node8 -->
<g id="edge13" class="edge">
<title>Node9&#45;&gt;Node8</title>
<path fill="none" stroke="midnightblue" d="M904.93,-114.05C977.2,-103.18 1115.49,-82.38 1181.26,-72.49"/>
<polygon fill="midnightblue" stroke="midnightblue" points="1181.8,-75.95 1191.17,-71 1180.76,-69.02 1181.8,-75.95"/>
</g>
<!-- Node10&#45;&gt;Node3 -->
<g id="edge16" class="edge">
<title>Node10&#45;&gt;Node3</title>
<path fill="none" stroke="midnightblue" d="M569.03,-112.44C615.51,-102.32 692.39,-85.58 738.73,-75.49"/>
<polygon fill="midnightblue" stroke="midnightblue" points="739.67,-78.87 748.7,-73.32 738.18,-72.03 739.67,-78.87"/>
</g>
<!-- Node11 -->
<g id="node11" class="node">
<title>Node11</title>
<g id="a_node11"><a xlink:title=" ">
<polygon fill="none" stroke="#bfbfbf" points="412.74,-56.5 412.74,-75.5 522.74,-75.5 522.74,-56.5 412.74,-56.5"/>
<text text-anchor="middle" x="467.74" y="-63.5" font-family="Helvetica,sans-Serif" font-size="10.00">SparkFunBME280.h</text>
</a>
</g>
</g>
<!-- Node10&#45;&gt;Node11 -->
<g id="edge17" class="edge">
<title>Node10&#45;&gt;Node11</title>
<path fill="none" stroke="midnightblue" d="M519.77,-112.32C510.61,-104.34 496.8,-92.31 485.71,-82.65"/>
<polygon fill="midnightblue" stroke="midnightblue" points="487.72,-79.76 477.88,-75.83 483.12,-85.04 487.72,-79.76"/>
</g>
<!-- Node12&#45;&gt;Node3 -->
<g id="edge24" class="edge">
<title>Node12&#45;&gt;Node3</title>
<path fill="none" stroke="midnightblue" d="M1804.62,-119.25C1630.42,-112.98 1042.6,-91.19 854.74,-76 842.49,-75.01 829.19,-73.58 817.14,-72.15"/>
<polygon fill="midnightblue" stroke="midnightblue" points="817.29,-68.65 806.94,-70.91 816.44,-75.59 817.29,-68.65"/>
</g>
<!-- Node12&#45;&gt;Node7 -->
<g id="edge22" class="edge">
<title>Node12&#45;&gt;Node7</title>
<path fill="none" stroke="midnightblue" d="M1871.85,-112.34C1895.7,-99.85 1932.52,-76.07 1913.74,-56 1891.57,-32.32 1406.28,-16.07 1271.3,-12"/>
<polygon fill="midnightblue" stroke="midnightblue" points="1271.22,-8.5 1261.12,-11.7 1271.01,-15.49 1271.22,-8.5"/>
</g>
<!-- Node12&#45;&gt;Node8 -->
<g id="edge23" class="edge">
<title>Node12&#45;&gt;Node8</title>
<path fill="none" stroke="midnightblue" d="M1804.62,-116.83C1681.68,-106.39 1362.78,-79.31 1254.4,-70.11"/>
<polygon fill="midnightblue" stroke="midnightblue" points="1254.55,-66.61 1244.29,-69.25 1253.96,-73.59 1254.55,-66.61"/>
</g>
<!-- Node13 -->
<g id="node13" class="node">
<title>Node13</title>
<g id="a_node13"><a xlink:title=" ">
<polygon fill="none" stroke="#bfbfbf" points="1960.74,-56.5 1960.74,-75.5 2070.74,-75.5 2070.74,-56.5 1960.74,-56.5"/>
<text text-anchor="middle" x="2015.74" y="-63.5" font-family="Helvetica,sans-Serif" font-size="10.00">Adafruit_BME680.h</text>
</a>
</g>
</g>
<!-- Node12&#45;&gt;Node13 -->
<g id="edge19" class="edge">
<title>Node12&#45;&gt;Node13</title>
<path fill="none" stroke="midnightblue" d="M1879.41,-112.44C1906.66,-103.36 1949.92,-88.94 1980.39,-78.78"/>
<polygon fill="midnightblue" stroke="midnightblue" points="1981.81,-82 1990.19,-75.52 1979.59,-75.36 1981.81,-82"/>
</g>
<!-- Node14 -->
<g id="node14" class="node">
<title>Node14</title>
<g id="a_node14"><a xlink:title=" ">
<polygon fill="none" stroke="#bfbfbf" points="1802.74,-56.5 1802.74,-75.5 1904.74,-75.5 1904.74,-56.5 1802.74,-56.5"/>
<text text-anchor="middle" x="1853.74" y="-63.5" font-family="Helvetica,sans-Serif" font-size="10.00">Adafruit_Sensor.h</text>
</a>
</g>
</g>
<!-- Node12&#45;&gt;Node14 -->
<g id="edge20" class="edge">
<title>Node12&#45;&gt;Node14</title>
<path fill="none" stroke="midnightblue" d="M1853.74,-112.08C1853.74,-105.01 1853.74,-94.86 1853.74,-85.99"/>
<polygon fill="midnightblue" stroke="midnightblue" points="1857.24,-85.75 1853.74,-75.75 1850.24,-85.75 1857.24,-85.75"/>
</g>
<!-- Node15 -->
<g id="node15" class="node">
<title>Node15</title>
<g id="a_node15"><a xlink:title=" ">
<polygon fill="none" stroke="#bfbfbf" points="2089.24,-56.5 2089.24,-75.5 2130.24,-75.5 2130.24,-56.5 2089.24,-56.5"/>
<text text-anchor="middle" x="2109.74" y="-63.5" font-family="Helvetica,sans-Serif" font-size="10.00">SPI.h</text>
</a>
</g>
</g>
<!-- Node12&#45;&gt;Node15 -->
<g id="edge21" class="edge">
<title>Node12&#45;&gt;Node15</title>
<path fill="none" stroke="midnightblue" d="M1902.97,-112.59C1946.8,-104.79 2012.82,-92.27 2079.34,-75.9"/>
<polygon fill="midnightblue" stroke="midnightblue" points="2080.29,-79.27 2089.15,-73.46 2078.6,-72.48 2080.29,-79.27"/>
</g>
<!-- Node16&#45;&gt;Node3 -->
<g id="edge27" class="edge">
<title>Node16&#45;&gt;Node3</title>
<path fill="none" stroke="midnightblue" d="M665.81,-112.44C687.8,-103.52 722.47,-89.44 747.4,-79.32"/>
<polygon fill="midnightblue" stroke="midnightblue" points="748.81,-82.52 756.76,-75.52 746.18,-76.04 748.81,-82.52"/>
</g>
<!-- Node16&#45;&gt;Node7 -->
<g id="edge26" class="edge">
<title>Node16&#45;&gt;Node7</title>
<path fill="none" stroke="midnightblue" d="M653.8,-112.37C669.72,-97.81 704.38,-68.71 739.74,-56 825.29,-25.24 1104.62,-14.67 1202.49,-11.86"/>
<polygon fill="midnightblue" stroke="midnightblue" points="1202.81,-15.35 1212.71,-11.58 1202.62,-8.36 1202.81,-15.35"/>
</g>
<!-- Node17 -->
<g id="node17" class="node">
<title>Node17</title>
<g id="a_node17"><a xlink:title=" ">
<polygon fill="none" stroke="#bfbfbf" points="541.24,-56.5 541.24,-75.5 654.24,-75.5 654.24,-56.5 541.24,-56.5"/>
<text text-anchor="middle" x="597.74" y="-63.5" font-family="Helvetica,sans-Serif" font-size="10.00">SparkFun_ENS160.h</text>
</a>
</g>
</g>
<!-- Node16&#45;&gt;Node17 -->
<g id="edge28" class="edge">
<title>Node16&#45;&gt;Node17</title>
<path fill="none" stroke="midnightblue" d="M636.97,-112.08C630.2,-104.3 620.19,-92.8 611.98,-83.37"/>
<polygon fill="midnightblue" stroke="midnightblue" points="614.56,-81 605.35,-75.75 609.28,-85.59 614.56,-81"/>
</g>
<!-- Node18&#45;&gt;Node2 -->
<g id="edge30" class="edge">
<title>Node18&#45;&gt;Node2</title>
<path fill="none" stroke="midnightblue" d="M411.77,-112.3C403.22,-98.68 389.96,-72.17 403.74,-56 433.69,-20.83 570.57,-13.05 640.84,-11.4"/>
<polygon fill="midnightblue" stroke="midnightblue" points="641.18,-14.89 651.11,-11.19 641.04,-7.89 641.18,-14.89"/>
</g>
<!-- Node18&#45;&gt;Node3 -->
<g id="edge31" class="edge">
<title>Node18&#45;&gt;Node3</title>
<path fill="none" stroke="midnightblue" d="M462.81,-113.42C465.83,-112.93 468.83,-112.46 471.74,-112 567.37,-97 680.06,-80.81 738.36,-72.54"/>
<polygon fill="midnightblue" stroke="midnightblue" points="739.18,-75.96 748.6,-71.1 738.2,-69.03 739.18,-75.96"/>
</g>
<!-- Node19&#45;&gt;Node2 -->
<g id="edge33" class="edge">
<title>Node19&#45;&gt;Node2</title>
<path fill="none" stroke="midnightblue" d="M288.01,-112.45C262.56,-100.27 223.7,-77.08 242.74,-56 269.14,-26.76 535.92,-15.48 640.76,-12.16"/>
<polygon fill="midnightblue" stroke="midnightblue" points="641.08,-15.65 650.97,-11.84 640.87,-8.65 641.08,-15.65"/>
</g>
<!-- Node19&#45;&gt;Node3 -->
<g id="edge36" class="edge">
<title>Node19&#45;&gt;Node3</title>
<path fill="none" stroke="midnightblue" d="M354.46,-113.31C357.6,-112.85 360.71,-112.41 363.74,-112 501.01,-93.52 664.68,-77.5 738.36,-70.6"/>
<polygon fill="midnightblue" stroke="midnightblue" points="738.93,-74.07 748.56,-69.65 738.28,-67.1 738.93,-74.07"/>
</g>
<!-- Node19&#45;&gt;Node8 -->
<g id="edge34" class="edge">
<title>Node19&#45;&gt;Node8</title>
<path fill="none" stroke="midnightblue" d="M354.43,-113.09C357.58,-112.68 360.7,-112.31 363.74,-112 708.94,-76.41 797.91,-104.97 1143.74,-76 1155.91,-74.98 1169.16,-73.49 1181.04,-72.01"/>
<polygon fill="midnightblue" stroke="midnightblue" points="1181.59,-75.47 1191.07,-70.73 1180.71,-68.53 1181.59,-75.47"/>
</g>
<!-- Node20 -->
<g id="node20" class="node">
<title>Node20</title>
<g id="a_node20"><a xlink:title=" ">
<polygon fill="none" stroke="#bfbfbf" points="251.24,-56.5 251.24,-75.5 356.24,-75.5 356.24,-56.5 251.24,-56.5"/>
<text text-anchor="middle" x="303.74" y="-63.5" font-family="Helvetica,sans-Serif" font-size="10.00">Adafruit_INA260.h</text>
</a>
</g>
</g>
<!-- Node19&#45;&gt;Node20 -->
<g id="edge35" class="edge">
<title>Node19&#45;&gt;Node20</title>
<path fill="none" stroke="midnightblue" d="M307.08,-112.08C306.55,-105.01 305.8,-94.86 305.14,-85.99"/>
<polygon fill="midnightblue" stroke="midnightblue" points="308.61,-85.47 304.38,-75.75 301.63,-85.98 308.61,-85.47"/>
</g>
<!-- Node21&#45;&gt;Node3 -->
<g id="edge41" class="edge">
<title>Node21&#45;&gt;Node3</title>
<path fill="none" stroke="midnightblue" d="M1409.53,-113.01C1406.56,-112.65 1403.61,-112.31 1400.74,-112 1158.91,-86.23 1096.92,-98.12 854.74,-76 842.5,-74.88 829.21,-73.42 817.16,-72"/>
<polygon fill="midnightblue" stroke="midnightblue" points="817.3,-68.49 806.95,-70.77 816.46,-75.44 817.3,-68.49"/>
</g>
<!-- Node21&#45;&gt;Node8 -->
<g id="edge40" class="edge">
<title>Node21&#45;&gt;Node8</title>
<path fill="none" stroke="midnightblue" d="M1423.07,-112.44C1376.82,-102.21 1299.96,-85.2 1254.55,-75.15"/>
<polygon fill="midnightblue" stroke="midnightblue" points="1255.05,-71.67 1244.53,-72.93 1253.54,-78.51 1255.05,-71.67"/>
</g>
<!-- Node21&#45;&gt;Node14 -->
<g id="edge39" class="edge">
<title>Node21&#45;&gt;Node14</title>
<path fill="none" stroke="midnightblue" d="M1513.81,-114.17C1577.16,-105.82 1687.66,-91.08 1792.55,-76.15"/>
<polygon fill="midnightblue" stroke="midnightblue" points="1793.27,-79.59 1802.68,-74.71 1792.29,-72.66 1793.27,-79.59"/>
</g>
<!-- Node22 -->
<g id="node22" class="node">
<title>Node22</title>
<g id="a_node22"><a xlink:title=" ">
<polygon fill="none" stroke="#bfbfbf" points="1668.74,-56.5 1668.74,-75.5 1784.74,-75.5 1784.74,-56.5 1668.74,-56.5"/>
<text text-anchor="middle" x="1726.74" y="-63.5" font-family="Helvetica,sans-Serif" font-size="10.00">Adafruit_LSM9DS1.h</text>
</a>
</g>
</g>
<!-- Node21&#45;&gt;Node22 -->
<g id="edge38" class="edge">
<title>Node21&#45;&gt;Node22</title>
<path fill="none" stroke="midnightblue" d="M1503.73,-112.44C1550.15,-102.98 1624.96,-87.74 1674.98,-77.55"/>
<polygon fill="midnightblue" stroke="midnightblue" points="1675.84,-80.94 1684.94,-75.52 1674.44,-74.08 1675.84,-80.94"/>
</g>
<!-- Node23&#45;&gt;Node2 -->
<g id="edge43" class="edge">
<title>Node23&#45;&gt;Node2</title>
<path fill="none" stroke="midnightblue" d="M1339.77,-112.32C1327.43,-97.68 1300.17,-68.47 1269.74,-56 1170.81,-15.48 841.61,-11.13 724.52,-10.9"/>
<polygon fill="midnightblue" stroke="midnightblue" points="724.51,-7.4 714.51,-10.89 724.51,-14.4 724.51,-7.4"/>
</g>
<!-- Node23&#45;&gt;Node3 -->
<g id="edge47" class="edge">
<title>Node23&#45;&gt;Node3</title>
<path fill="none" stroke="midnightblue" d="M1301.99,-113.25C1298.86,-112.8 1295.75,-112.37 1292.74,-112 1098.9,-87.92 1049.1,-95.34 854.74,-76 842.51,-74.78 829.22,-73.29 817.17,-71.87"/>
<polygon fill="midnightblue" stroke="midnightblue" points="817.31,-68.36 806.96,-70.66 816.48,-75.32 817.31,-68.36"/>
</g>
<!-- Node23&#45;&gt;Node8 -->
<g id="edge45" class="edge">
<title>Node23&#45;&gt;Node8</title>
<path fill="none" stroke="midnightblue" d="M1326.3,-112.44C1305.07,-103.56 1271.64,-89.56 1247.48,-79.45"/>
<polygon fill="midnightblue" stroke="midnightblue" points="1248.66,-76.15 1238.08,-75.52 1245.95,-82.61 1248.66,-76.15"/>
</g>
<!-- Node24 -->
<g id="node24" class="node">
<title>Node24</title>
<g id="a_node24"><a xlink:title=" ">
<polygon fill="none" stroke="#bfbfbf" points="1511.24,-0.5 1511.24,-19.5 1564.24,-19.5 1564.24,-0.5 1511.24,-0.5"/>
<text text-anchor="middle" x="1537.74" y="-7.5" font-family="Helvetica,sans-Serif" font-size="10.00">stdint.h</text>
</a>
</g>
</g>
<!-- Node23&#45;&gt;Node24 -->
<g id="edge44" class="edge">
<title>Node23&#45;&gt;Node24</title>
<path fill="none" stroke="midnightblue" d="M1391.52,-113.52C1394.64,-113.01 1397.73,-112.49 1400.74,-112 1449.83,-103.91 1589.5,-113.91 1621.74,-76 1640.49,-53.94 1604.64,-34.49 1574.12,-22.75"/>
<polygon fill="midnightblue" stroke="midnightblue" points="1575.06,-19.37 1564.47,-19.21 1572.65,-25.94 1575.06,-19.37"/>
</g>
<!-- Node25 -->
<g id="node25" class="node">
<title>Node25</title>
<g id="a_node25"><a xlink:title=" ">
<polygon fill="none" stroke="#bfbfbf" points="1511.24,-56.5 1511.24,-75.5 1612.24,-75.5 1612.24,-56.5 1511.24,-56.5"/>
<text text-anchor="middle" x="1561.74" y="-63.5" font-family="Helvetica,sans-Serif" font-size="10.00">Adafruit_SGP30.h</text>
</a>
</g>
</g>
<!-- Node23&#45;&gt;Node25 -->
<g id="edge46" class="edge">
<title>Node23&#45;&gt;Node25</title>
<path fill="none" stroke="midnightblue" d="M1380.8,-112.44C1417.92,-103.12 1477.4,-88.18 1517.95,-78"/>
<polygon fill="midnightblue" stroke="midnightblue" points="1518.98,-81.35 1527.83,-75.52 1517.28,-74.56 1518.98,-81.35"/>
</g>
<!-- Node26&#45;&gt;Node2 -->
<g id="edge49" class="edge">
<title>Node26&#45;&gt;Node2</title>
<path fill="none" stroke="midnightblue" d="M970.33,-112.42C939.32,-104.45 893.32,-91.49 854.74,-76 836.66,-68.74 833.68,-63.59 815.74,-56 784.78,-42.91 748.59,-30.87 721.78,-22.54"/>
<polygon fill="midnightblue" stroke="midnightblue" points="722.58,-19.12 711.99,-19.54 720.53,-25.82 722.58,-19.12"/>
</g>
<!-- Node26&#45;&gt;Node3 -->
<g id="edge53" class="edge">
<title>Node26&#45;&gt;Node3</title>
<path fill="none" stroke="midnightblue" d="M969.61,-112.44C927.88,-102.56 859.47,-86.36 816.61,-76.21"/>
<polygon fill="midnightblue" stroke="midnightblue" points="817.36,-72.79 806.82,-73.89 815.75,-79.6 817.36,-72.79"/>
</g>
<!-- Node26&#45;&gt;Node7 -->
<g id="edge50" class="edge">
<title>Node26&#45;&gt;Node7</title>
<path fill="none" stroke="midnightblue" d="M1003.74,-112.13C1001.2,-98.25 998.66,-71.42 1012.74,-56 1037.8,-28.55 1146.22,-17.17 1202.52,-13.05"/>
<polygon fill="midnightblue" stroke="midnightblue" points="1202.98,-16.52 1212.72,-12.34 1202.5,-9.54 1202.98,-16.52"/>
</g>
<!-- Node26&#45;&gt;Node8 -->
<g id="edge51" class="edge">
<title>Node26&#45;&gt;Node8</title>
<path fill="none" stroke="midnightblue" d="M1039.33,-112.44C1077.99,-102.59 1141.28,-86.47 1181.16,-76.32"/>
<polygon fill="midnightblue" stroke="midnightblue" points="1182.19,-79.67 1191.01,-73.81 1180.46,-72.88 1182.19,-79.67"/>
</g>
<!-- Node27 -->
<g id="node27" class="node">
<title>Node27</title>
<g id="a_node27"><a xlink:title=" ">
<polygon fill="none" stroke="#bfbfbf" points="863.24,-56.5 863.24,-75.5 964.24,-75.5 964.24,-56.5 863.24,-56.5"/>
<text text-anchor="middle" x="913.74" y="-63.5" font-family="Helvetica,sans-Serif" font-size="10.00">Adafruit_SHT31.h</text>
</a>
</g>
</g>
<!-- Node26&#45;&gt;Node27 -->
<g id="edge52" class="edge">
<title>Node26&#45;&gt;Node27</title>
<path fill="none" stroke="midnightblue" d="M990.95,-112.32C976.47,-103.82 954.16,-90.73 937.24,-80.8"/>
<polygon fill="midnightblue" stroke="midnightblue" points="938.88,-77.7 928.48,-75.65 935.33,-83.74 938.88,-77.7"/>
</g>
<!-- Node28&#45;&gt;Node3 -->
<g id="edge55" class="edge">
<title>Node28&#45;&gt;Node3</title>
<path fill="none" stroke="midnightblue" d="M756.86,-112.08C760.25,-104.77 765.15,-94.18 769.35,-85.1"/>
<polygon fill="midnightblue" stroke="midnightblue" points="772.66,-86.3 773.68,-75.75 766.31,-83.36 772.66,-86.3"/>
</g>
<!-- Node29&#45;&gt;Node2 -->
<g id="edge57" class="edge">
<title>Node29&#45;&gt;Node2</title>
<path fill="none" stroke="midnightblue" d="M1240.3,-112.27C1251.22,-98.59 1268.55,-72.02 1253.74,-56 1217.99,-17.33 850.46,-11.84 724.68,-11.1"/>
<polygon fill="midnightblue" stroke="midnightblue" points="724.33,-7.6 714.31,-11.05 724.29,-14.6 724.33,-7.6"/>
</g>
<!-- Node29&#45;&gt;Node3 -->
<g id="edge60" class="edge">
<title>Node29&#45;&gt;Node3</title>
<path fill="none" stroke="midnightblue" d="M1181.69,-113.21C1178.66,-112.79 1175.66,-112.38 1172.74,-112 1031.71,-93.45 996.04,-92.26 854.74,-76 842.53,-74.6 829.24,-73.05 817.2,-71.64"/>
<polygon fill="midnightblue" stroke="midnightblue" points="817.32,-68.13 806.98,-70.44 816.51,-75.08 817.32,-68.13"/>
</g>
<!-- Node29&#45;&gt;Node7 -->
<g id="edge58" class="edge">
<title>Node29&#45;&gt;Node7</title>
<path fill="none" stroke="midnightblue" d="M1249.37,-112.46C1262.22,-104.84 1279.08,-92.36 1286.74,-76 1295.73,-56.79 1277.31,-37.92 1260.35,-25.5"/>
<polygon fill="midnightblue" stroke="midnightblue" points="1261.99,-22.38 1251.76,-19.63 1258.04,-28.16 1261.99,-22.38"/>
</g>
<!-- Node29&#45;&gt;Node8 -->
<g id="edge59" class="edge">
<title>Node29&#45;&gt;Node8</title>
<path fill="none" stroke="midnightblue" d="M1230.26,-112.08C1228.25,-104.85 1225.35,-94.41 1222.85,-85.4"/>
<polygon fill="midnightblue" stroke="midnightblue" points="1226.22,-84.45 1220.17,-75.75 1219.47,-86.32 1226.22,-84.45"/>
</g>
<!-- Node30 -->
<g id="node30" class="node">
<title>Node30</title>
<g id="a_node30"><a xlink:href="ZOPT220x__Control_8h.html" target="_top" xlink:title=" ">
<polygon fill="none" stroke="black" points="1376.74,-56.5 1376.74,-75.5 1492.74,-75.5 1492.74,-56.5 1376.74,-56.5"/>
<text text-anchor="middle" x="1434.74" y="-63.5" font-family="Helvetica,sans-Serif" font-size="10.00">ZOPT220x_Control.h</text>
</a>
</g>
</g>
<!-- Node29&#45;&gt;Node30 -->
<g id="edge61" class="edge">
<title>Node29&#45;&gt;Node30</title>
<path fill="none" stroke="midnightblue" d="M1264.74,-112.44C1299.46,-103.16 1355.02,-88.31 1393.11,-78.13"/>
<polygon fill="midnightblue" stroke="midnightblue" points="1394.12,-81.48 1402.88,-75.52 1392.31,-74.72 1394.12,-81.48"/>
</g>
<!-- Node30&#45;&gt;Node2 -->
<g id="edge62" class="edge">
<title>Node30&#45;&gt;Node2</title>
<path fill="none" stroke="midnightblue" d="M1376.61,-57.44C1371.92,-56.92 1367.25,-56.43 1362.74,-56 1121.38,-32.95 830.69,-17.97 724.31,-12.91"/>
<polygon fill="midnightblue" stroke="midnightblue" points="724.46,-9.41 714.31,-12.43 724.13,-16.4 724.46,-9.41"/>
</g>
<!-- Node30&#45;&gt;Node7 -->
<g id="edge63" class="edge">
<title>Node30&#45;&gt;Node7</title>
<path fill="none" stroke="midnightblue" d="M1403.36,-56.44C1367.18,-46.58 1307.92,-30.41 1270.68,-20.26"/>
<polygon fill="midnightblue" stroke="midnightblue" points="1271.37,-16.82 1260.8,-17.56 1269.53,-23.57 1271.37,-16.82"/>
</g>
<!-- Node30&#45;&gt;Node24 -->
<g id="edge64" class="edge">
<title>Node30&#45;&gt;Node24</title>
<path fill="none" stroke="midnightblue" d="M1451.28,-56.32C1467.73,-47.7 1493.17,-34.36 1512.2,-24.39"/>
<polygon fill="midnightblue" stroke="midnightblue" points="1514,-27.4 1521.23,-19.65 1510.75,-21.2 1514,-27.4"/>
</g>
<!-- Node31&#45;&gt;Node2 -->
<g id="edge66" class="edge">
<title>Node31&#45;&gt;Node2</title>
<path fill="none" stroke="midnightblue" d="M199.71,-112.05C203.41,-97.55 212.9,-69.23 232.74,-56 298.91,-11.86 542.23,-9.4 640.83,-10.3"/>
<polygon fill="midnightblue" stroke="midnightblue" points="640.98,-13.8 651.01,-10.41 641.05,-6.8 640.98,-13.8"/>
</g>
<!-- Node31&#45;&gt;Node4 -->
<g id="edge67" class="edge">
<title>Node31&#45;&gt;Node4</title>
<path fill="none" stroke="midnightblue" d="M186.01,-112.32C174.9,-104.11 157.99,-91.6 144.75,-81.81"/>
<polygon fill="midnightblue" stroke="midnightblue" points="146.8,-78.97 136.68,-75.83 142.64,-84.59 146.8,-78.97"/>
</g>
<!-- Node32&#45;&gt;Node4 -->
<g id="edge70" class="edge">
<title>Node32&#45;&gt;Node4</title>
<path fill="none" stroke="midnightblue" d="M67.66,-112.32C77.91,-104.18 93.46,-91.84 105.74,-82.09"/>
<polygon fill="midnightblue" stroke="midnightblue" points="107.96,-84.79 113.61,-75.83 103.6,-79.31 107.96,-84.79"/>
</g>
<!-- Node33 -->
<g id="node33" class="node">
<title>Node33</title>
<g id="a_node33"><a xlink:title=" ">
<polygon fill="none" stroke="#bfbfbf" points="36.24,-56.5 36.24,-75.5 75.24,-75.5 75.24,-56.5 36.24,-56.5"/>
<text text-anchor="middle" x="55.74" y="-63.5" font-family="Helvetica,sans-Serif" font-size="10.00">SD.h</text>
</a>
</g>
</g>
<!-- Node32&#45;&gt;Node33 -->
<g id="edge69" class="edge">
<title>Node32&#45;&gt;Node33</title>
<path fill="none" stroke="midnightblue" d="M56.57,-112.08C56.44,-105.01 56.25,-94.86 56.09,-85.99"/>
<polygon fill="midnightblue" stroke="midnightblue" points="59.58,-85.68 55.9,-75.75 52.58,-85.81 59.58,-85.68"/>
</g>
</g>
</svg>
        <g id="navigator" transform="translate(0 0)" fill="#404254">
                <rect fill="#f2f5e9" fill-opacity="0.5" stroke="#606060" stroke-width=".5" x="0" y="0" width="60" height="60"/>
                <use id="zoomplus" xlink:href="#zoomPlus" x="17" y="9" onmousedown="handleZoom(evt,'in')"/>
                <use id="zoomminus" xlink:href="#zoomMin" x="42" y="9" onmousedown="handleZoom(evt,'out')"/>
                <use id="reset" xlink:href="#resetDef" x="30" y="36" onmousedown="handleReset()"/>
                <g id="arrowUp" xlink:href="#dirArrow" transform="translate(30 24)" onmousedown="handlePan(0,-1)">
                  <use xlink:href="#rim" fill="#404040">
                        <set attributeName="fill" to="#808080" begin="arrowUp.mouseover" end="arrowUp.mouseout"/>
                  </use>
                  <path fill="none" stroke="white" stroke-width="1.5" d="M0,-3.0v7 M-2.5,-0.5L0,-3.0L2.5,-0.5"/>
                </g>
                <g id="arrowRight" xlink:href="#dirArrow" transform="rotate(90) translate(36 -43)" onmousedown="handlePan(1,0)">
                  <use xlink:href="#rim" fill="#404040">
                        <set attributeName="fill" to="#808080" begin="arrowRight.mouseover" end="arrowRight.mouseout"/>
                  </use>
                  <path fill="none" stroke="white" stroke-width="1.5" d="M0,-3.0v7 M-2.5,-0.5L0,-3.0L2.5,-0.5"/>
                </g>
                <g id="arrowDown" xlink:href="#dirArrow" transform="rotate(180) translate(-30 -48)" onmousedown="handlePan(0,1)">
                  <use xlink:href="#rim" fill="#404040">
                        <set attributeName="fill" to="#808080" begin="arrowDown.mouseover" end="arrowDown.mouseout"/>
                  </use>
                  <path fill="none" stroke="white" stroke-width="1.5" d="M0,-3.0v7 M-2.5,-0.5L0,-3.0L2.5,-0.5"/>
                </g>
                <g id="arrowLeft" xlink:href="#dirArrow" transform="rotate(270) translate(-36 17)" onmousedown="handlePan(-1,0)">
                  <use xlink:href="#rim" fill="#404040">
                        <set attributeName="fill" to="#808080" begin="arrowLeft.mouseover" end="arrowLeft.mouseout"/>
                  </use>
                  <path fill="none" stroke="white" stroke-width="1.5" d="M0,-3.0v7 M-2.5,-0.5L0,-3.0L2.5,-0.5"/>
                </g>
        </g>
        <svg viewBox="0 0 15 15" width="100%" height="30px" preserveAspectRatio="xMaxYMin meet">
         <g id="arrow_out" transform="scale(0.3 0.3)">
          <a xlink:href="main_8cpp__incl_org.svg" target="_base">
           <rect id="button" ry="5" rx="5" y="6" x="6" height="38" width="38"
                fill="#f2f5e9" fill-opacity="0.5" stroke="#606060" stroke-width="1.0"/>
           <path id="arrow"
             d="M 11.500037,31.436501 C 11.940474,20.09759 22.043105,11.32322 32.158766,21.979434 L 37.068811,17.246167 C 37.068811,17.246167 37.088388,32 37.088388,32 L 22.160133,31.978069 C 22.160133,31.978069 26.997745,27.140456 26.997745,27.140456 C 18.528582,18.264221 13.291696,25.230495 11.500037,31.436501 z"
             style="fill:#404040;"/>
          </a>
         </g>
        </svg>
</svg>
