<?xml version="1.0" encoding="UTF-8" standalone="no"?>
<!DOCTYPE svg PUBLIC "-//W3C//DTD SVG 1.1//EN"
 "http://www.w3.org/Graphics/SVG/1.1/DTD/svg11.dtd">
<!-- Generated by graphviz version 2.43.0 (0)
 -->
<!-- Title: main.cpp Pages: 1 -->
<!--zoomable 196 -->
<svg id="main" version="1.1" xmlns="http://www.w3.org/2000/svg" xmlns:xlink="http://www.w3.org/1999/xlink" xml:space="preserve" onload="init(evt)">
<style type="text/css"><![CDATA[
.edge:hover path { stroke: red; }
.edge:hover polygon { stroke: red; fill: red; }
]]></style>
<script type="text/javascript"><![CDATA[
var edges = document.getElementsByTagName('g');
if (edges && edges.length) {
  for (var i=0;i<edges.length;i++) {
    if (edges[i].id.substr(0,4)=='edge') {
      edges[i].setAttribute('class','edge');
    }
  }
}
]]></script>
        <defs>
                <circle id="rim" cx="0" cy="0" r="7"/>
                <circle id="rim2" cx="0" cy="0" r="3.5"/>
                <g id="zoomPlus">
                        <use xlink:href="#rim" fill="#404040">
                                <set attributeName="fill" to="#808080" begin="zoomplus.mouseover" end="zoomplus.mouseout"/>
                        </use>
                        <path d="M-4,0h8M0,-4v8" fill="none" stroke="white" stroke-width="1.5" pointer-events="none"/>
                </g>
                <g id="zoomMin">
                        <use xlink:href="#rim" fill="#404040">
                                <set attributeName="fill" to="#808080" begin="zoomminus.mouseover" end="zoomminus.mouseout"/>
                        </use>
                        <path d="M-4,0h8" fill="none" stroke="white" stroke-width="1.5" pointer-events="none"/>
                </g>
                <g id="dirArrow">
                        <path fill="none" stroke="white" stroke-width="1.5" d="M0,-3.0v7 M-2.5,-0.5L0,-3.0L2.5,-0.5"/>
                </g>
               <g id="resetDef">
                       <use xlink:href="#rim2" fill="#404040">
                               <set attributeName="fill" to="#808080" begin="reset.mouseover" end="reset.mouseout"/>
                       </use>
               </g>
        </defs>

<script type="text/javascript">
var viewWidth = 2732;
var viewHeight = 196;
var sectionId = 'dynsection-0';
</script>
<script xlink:href="svgpan.js"/>
<svg id="graph" class="graph">
<g id="viewport">
<title>main.cpp</title>
<!-- Node1 -->
<g id="node1" class="node">
<title>Node1</title>
<g id="a_node1"><a xlink:title=" ">
<polygon fill="#bfbfbf" stroke="black" points="1125.5,-168.5 1125.5,-187.5 1187.5,-187.5 1187.5,-168.5 1125.5,-168.5"/>
<text text-anchor="middle" x="1156.5" y="-175.5" font-family="Helvetica,sans-Serif" font-size="10.00">main.cpp</text>
</a>
</g>
</g>
<!-- Node2 -->
<g id="node2" class="node">
<title>Node2</title>
<g id="a_node2"><a xlink:title=" ">
<polygon fill="none" stroke="#bfbfbf" points="609,-0.5 609,-19.5 672,-19.5 672,-0.5 609,-0.5"/>
<text text-anchor="middle" x="640.5" y="-7.5" font-family="Helvetica,sans-Serif" font-size="10.00">Arduino.h</text>
</a>
</g>
</g>
<!-- Node1&#45;&gt;Node2 -->
<g id="edge1" class="edge">
<title>Node1&#45;&gt;Node2</title>
<path fill="none" stroke="midnightblue" d="M1125.3,-176.72C964.97,-175.11 239.89,-165.96 207.5,-132 193.61,-117.44 192.9,-78.92 217.5,-56 245.06,-30.32 497.38,-16.99 598.69,-12.64"/>
<polygon fill="midnightblue" stroke="midnightblue" points="599.01,-16.13 608.86,-12.21 598.72,-9.13 599.01,-16.13"/>
</g>
<!-- Node3 -->
<g id="node3" class="node">
<title>Node3</title>
<g id="a_node3"><a xlink:href="ErrorDisplay_8h.html" target="_top" xlink:title=" ">
<polygon fill="none" stroke="black" points="57.5,-56.5 57.5,-75.5 141.5,-75.5 141.5,-56.5 57.5,-56.5"/>
<text text-anchor="middle" x="99.5" y="-63.5" font-family="Helvetica,sans-Serif" font-size="10.00">ErrorDisplay.h</text>
</a>
</g>
</g>
<!-- Node1&#45;&gt;Node3 -->
<g id="edge2" class="edge">
<title>Node1&#45;&gt;Node3</title>
<path fill="none" stroke="midnightblue" d="M1125.35,-177.06C965.84,-177.17 244.49,-175.24 155.5,-132 134.64,-121.87 118.44,-100.02 108.95,-84.45"/>
<polygon fill="midnightblue" stroke="midnightblue" points="111.95,-82.65 103.92,-75.73 105.88,-86.14 111.95,-82.65"/>
</g>
<!-- Node4 -->
<g id="node4" class="node">
<title>Node4</title>
<g id="a_node4"><a xlink:href="PayloadConfig_8h.html" target="_top" xlink:title=" ">
<polygon fill="none" stroke="black" points="1292,-0.5 1292,-19.5 1387,-19.5 1387,-0.5 1292,-0.5"/>
<text text-anchor="middle" x="1339.5" y="-7.5" font-family="Helvetica,sans-Serif" font-size="10.00">PayloadConfig.h</text>
</a>
</g>
</g>
<!-- Node1&#45;&gt;Node4 -->
<g id="edge7" class="edge">
<title>Node1&#45;&gt;Node4</title>
<path fill="none" stroke="midnightblue" d="M1187.61,-176.2C1403,-170.49 2665.66,-134.6 2719.5,-76 2725.51,-69.45 2725.68,-62.39 2719.5,-56 2672.87,-7.82 1653.34,-9.49 1397.38,-10.67"/>
<polygon fill="midnightblue" stroke="midnightblue" points="1397.17,-7.17 1387.19,-10.72 1397.2,-14.17 1397.17,-7.17"/>
</g>
<!-- Node7 -->
<g id="node7" class="node">
<title>Node7</title>
<g id="a_node7"><a xlink:href="Sensor_8h.html" target="_top" xlink:title=" ">
<polygon fill="none" stroke="black" points="1125.5,-56.5 1125.5,-75.5 1183.5,-75.5 1183.5,-56.5 1125.5,-56.5"/>
<text text-anchor="middle" x="1154.5" y="-63.5" font-family="Helvetica,sans-Serif" font-size="10.00">Sensor.h</text>
</a>
</g>
</g>
<!-- Node1&#45;&gt;Node7 -->
<g id="edge8" class="edge">
<title>Node1&#45;&gt;Node7</title>
<path fill="none" stroke="midnightblue" d="M1171.75,-168.44C1190.34,-156.79 1218.04,-134.78 1207.5,-112 1201.58,-99.21 1190.03,-88.72 1179.22,-81.1"/>
<polygon fill="midnightblue" stroke="midnightblue" points="1181.12,-78.16 1170.83,-75.61 1177.29,-84.02 1181.12,-78.16"/>
</g>
<!-- Node8 -->
<g id="node8" class="node">
<title>Node8</title>
<g id="a_node8"><a xlink:href="Storage_8h.html" target="_top" xlink:title=" ">
<polygon fill="none" stroke="black" points="293,-56.5 293,-75.5 356,-75.5 356,-56.5 293,-56.5"/>
<text text-anchor="middle" x="324.5" y="-63.5" font-family="Helvetica,sans-Serif" font-size="10.00">Storage.h</text>
</a>
</g>
</g>
<!-- Node1&#45;&gt;Node8 -->
<g id="edge10" class="edge">
<title>Node1&#45;&gt;Node8</title>
<path fill="none" stroke="midnightblue" d="M1125.42,-176.98C986.62,-176.65 427.3,-172.79 361.5,-132 344.8,-121.65 334.92,-100.83 329.63,-85.54"/>
<polygon fill="midnightblue" stroke="midnightblue" points="332.85,-84.12 326.55,-75.6 326.17,-86.19 332.85,-84.12"/>
</g>
<!-- Node9 -->
<g id="node9" class="node">
<title>Node9</title>
<g id="a_node9"><a xlink:href="AS7331Sensor_8h.html" target="_top" xlink:title=" ">
<polygon fill="none" stroke="black" points="767,-112.5 767,-131.5 862,-131.5 862,-112.5 767,-112.5"/>
<text text-anchor="middle" x="814.5" y="-119.5" font-family="Helvetica,sans-Serif" font-size="10.00">AS7331Sensor.h</text>
</a>
</g>
</g>
<!-- Node1&#45;&gt;Node9 -->
<g id="edge12" class="edge">
<title>Node1&#45;&gt;Node9</title>
<path fill="none" stroke="midnightblue" d="M1125.24,-172.06C1067.84,-163 944.84,-143.58 871.98,-132.08"/>
<polygon fill="midnightblue" stroke="midnightblue" points="872.47,-128.61 862.04,-130.51 871.38,-135.52 872.47,-128.61"/>
</g>
<!-- Node13 -->
<g id="node13" class="node">
<title>Node13</title>
<g id="a_node13"><a xlink:href="BME280Sensor_8h.html" target="_top" xlink:title=" ">
<polygon fill="none" stroke="black" points="1254.5,-112.5 1254.5,-131.5 1352.5,-131.5 1352.5,-112.5 1254.5,-112.5"/>
<text text-anchor="middle" x="1303.5" y="-119.5" font-family="Helvetica,sans-Serif" font-size="10.00">BME280Sensor.h</text>
</a>
</g>
</g>
<!-- Node1&#45;&gt;Node13 -->
<g id="edge17" class="edge">
<title>Node1&#45;&gt;Node13</title>
<path fill="none" stroke="midnightblue" d="M1179.79,-168.44C1204.31,-159.44 1243.1,-145.19 1270.7,-135.05"/>
<polygon fill="midnightblue" stroke="midnightblue" points="1272.14,-138.25 1280.32,-131.52 1269.72,-131.68 1272.14,-138.25"/>
</g>
<!-- Node15 -->
<g id="node15" class="node">
<title>Node15</title>
<g id="a_node15"><a xlink:href="BME680Sensor_8h.html" target="_top" xlink:title=" ">
<polygon fill="none" stroke="black" points="1370.5,-112.5 1370.5,-131.5 1468.5,-131.5 1468.5,-112.5 1370.5,-112.5"/>
<text text-anchor="middle" x="1419.5" y="-119.5" font-family="Helvetica,sans-Serif" font-size="10.00">BME680Sensor.h</text>
</a>
</g>
</g>
<!-- Node1&#45;&gt;Node15 -->
<g id="edge20" class="edge">
<title>Node1&#45;&gt;Node15</title>
<path fill="none" stroke="midnightblue" d="M1187.7,-170.59C1232.19,-161.46 1314.37,-144.59 1367.97,-133.58"/>
<polygon fill="midnightblue" stroke="midnightblue" points="1368.87,-136.97 1377.96,-131.53 1367.46,-130.11 1368.87,-136.97"/>
</g>
<!-- Node19 -->
<g id="node19" class="node">
<title>Node19</title>
<g id="a_node19"><a xlink:href="ENS160Sensor_8h.html" target="_top" xlink:title=" ">
<polygon fill="none" stroke="black" points="654,-112.5 654,-131.5 749,-131.5 749,-112.5 654,-112.5"/>
<text text-anchor="middle" x="701.5" y="-119.5" font-family="Helvetica,sans-Serif" font-size="10.00">ENS160Sensor.h</text>
</a>
</g>
</g>
<!-- Node1&#45;&gt;Node19 -->
<g id="edge28" class="edge">
<title>Node1&#45;&gt;Node19</title>
<path fill="none" stroke="midnightblue" d="M1125.4,-174C1059.73,-167.54 901.88,-151.47 759.37,-132.2"/>
<polygon fill="midnightblue" stroke="midnightblue" points="759.52,-128.69 749.14,-130.81 758.57,-135.63 759.52,-128.69"/>
</g>
<!-- Node21 -->
<g id="node21" class="node">
<title>Node21</title>
<g id="a_node21"><a xlink:href="ICM20948Sensor_8h.html" target="_top" xlink:title=" ">
<polygon fill="none" stroke="black" points="1717,-112.5 1717,-131.5 1824,-131.5 1824,-112.5 1717,-112.5"/>
<text text-anchor="middle" x="1770.5" y="-119.5" font-family="Helvetica,sans-Serif" font-size="10.00">ICM20948Sensor.h</text>
</a>
</g>
</g>
<!-- Node1&#45;&gt;Node21 -->
<g id="edge32" class="edge">
<title>Node1&#45;&gt;Node21</title>
<path fill="none" stroke="midnightblue" d="M1187.63,-175.12C1270.31,-169.98 1502.42,-154.65 1706.89,-132"/>
<polygon fill="midnightblue" stroke="midnightblue" points="1707.36,-135.47 1716.91,-130.88 1706.59,-128.51 1707.36,-135.47"/>
</g>
<!-- Node24 -->
<g id="node24" class="node">
<title>Node24</title>
<g id="a_node24"><a xlink:href="INA260Sensor_8h.html" target="_top" xlink:title=" ">
<polygon fill="none" stroke="black" points="1003,-112.5 1003,-131.5 1096,-131.5 1096,-112.5 1003,-112.5"/>
<text text-anchor="middle" x="1049.5" y="-119.5" font-family="Helvetica,sans-Serif" font-size="10.00">INA260Sensor.h</text>
</a>
</g>
</g>
<!-- Node1&#45;&gt;Node24 -->
<g id="edge39" class="edge">
<title>Node1&#45;&gt;Node24</title>
<path fill="none" stroke="midnightblue" d="M1139.31,-168.32C1122.15,-159.66 1095.55,-146.24 1075.75,-136.25"/>
<polygon fill="midnightblue" stroke="midnightblue" points="1077.15,-133.04 1066.65,-131.65 1074,-139.28 1077.15,-133.04"/>
</g>
<!-- Node26 -->
<g id="node26" class="node">
<title>Node26</title>
<g id="a_node26"><a xlink:href="LSM9DS1Sensor_8h.html" target="_top" xlink:title=" ">
<polygon fill="none" stroke="black" points="1594.5,-112.5 1594.5,-131.5 1698.5,-131.5 1698.5,-112.5 1594.5,-112.5"/>
<text text-anchor="middle" x="1646.5" y="-119.5" font-family="Helvetica,sans-Serif" font-size="10.00">LSM9DS1Sensor.h</text>
</a>
</g>
</g>
<!-- Node1&#45;&gt;Node26 -->
<g id="edge44" class="edge">
<title>Node1&#45;&gt;Node26</title>
<path fill="none" stroke="midnightblue" d="M1187.51,-174.2C1256.68,-167.85 1429.1,-151.49 1584.09,-132.13"/>
<polygon fill="midnightblue" stroke="midnightblue" points="1584.79,-135.57 1594.28,-130.85 1583.92,-128.63 1584.79,-135.57"/>
</g>
<!-- Node28 -->
<g id="node28" class="node">
<title>Node28</title>
<g id="a_node28"><a xlink:href="MTK3339Sensor_8h.html" target="_top" xlink:title=" ">
<polygon fill="none" stroke="black" points="880.5,-112.5 880.5,-131.5 984.5,-131.5 984.5,-112.5 880.5,-112.5"/>
<text text-anchor="middle" x="932.5" y="-119.5" font-family="Helvetica,sans-Serif" font-size="10.00">MTK3339Sensor.h</text>
</a>
</g>
</g>
<!-- Node1&#45;&gt;Node28 -->
<g id="edge50" class="edge">
<title>Node1&#45;&gt;Node28</title>
<path fill="none" stroke="midnightblue" d="M1125.35,-169.49C1086.99,-160.24 1021.52,-144.46 977.65,-133.88"/>
<polygon fill="midnightblue" stroke="midnightblue" points="978.35,-130.45 967.81,-131.51 976.71,-137.26 978.35,-130.45"/>
</g>
<!-- Node30 -->
<g id="node30" class="node">
<title>Node30</title>
<g id="a_node30"><a xlink:href="PCF8523Sensor_8h.html" target="_top" xlink:title=" ">
<polygon fill="none" stroke="black" points="1842,-112.5 1842,-131.5 1943,-131.5 1943,-112.5 1842,-112.5"/>
<text text-anchor="middle" x="1892.5" y="-119.5" font-family="Helvetica,sans-Serif" font-size="10.00">PCF8523Sensor.h</text>
</a>
</g>
</g>
<!-- Node1&#45;&gt;Node30 -->
<g id="edge57" class="edge">
<title>Node1&#45;&gt;Node30</title>
<path fill="none" stroke="midnightblue" d="M1187.62,-175.87C1282.62,-172.24 1577.34,-159.48 1831.52,-132.14"/>
<polygon fill="midnightblue" stroke="midnightblue" points="1832.12,-135.59 1841.69,-131.03 1831.37,-128.63 1832.12,-135.59"/>
</g>
<!-- Node32 -->
<g id="node32" class="node">
<title>Node32</title>
<g id="a_node32"><a xlink:href="SGP30Sensor_8h.html" target="_top" xlink:title=" ">
<polygon fill="none" stroke="black" points="1487,-112.5 1487,-131.5 1576,-131.5 1576,-112.5 1487,-112.5"/>
<text text-anchor="middle" x="1531.5" y="-119.5" font-family="Helvetica,sans-Serif" font-size="10.00">SGP30Sensor.h</text>
</a>
</g>
</g>
<!-- Node1&#45;&gt;Node32 -->
<g id="edge60" class="edge">
<title>Node1&#45;&gt;Node32</title>
<path fill="none" stroke="midnightblue" d="M1187.53,-172.92C1243.18,-165.55 1363.91,-149.29 1476.55,-132.11"/>
<polygon fill="midnightblue" stroke="midnightblue" points="1477.37,-135.53 1486.73,-130.55 1476.31,-128.61 1477.37,-135.53"/>
</g>
<!-- Node35 -->
<g id="node35" class="node">
<title>Node35</title>
<g id="a_node35"><a xlink:href="TempSensor_8h.html" target="_top" xlink:title=" ">
<polygon fill="none" stroke="black" points="1114.5,-112.5 1114.5,-131.5 1198.5,-131.5 1198.5,-112.5 1114.5,-112.5"/>
<text text-anchor="middle" x="1156.5" y="-119.5" font-family="Helvetica,sans-Serif" font-size="10.00">TempSensor.h</text>
</a>
</g>
</g>
<!-- Node1&#45;&gt;Node35 -->
<g id="edge66" class="edge">
<title>Node1&#45;&gt;Node35</title>
<path fill="none" stroke="midnightblue" d="M1156.5,-168.08C1156.5,-161.01 1156.5,-150.86 1156.5,-141.99"/>
<polygon fill="midnightblue" stroke="midnightblue" points="1160,-141.75 1156.5,-131.75 1153,-141.75 1160,-141.75"/>
</g>
<!-- Node36 -->
<g id="node36" class="node">
<title>Node36</title>
<g id="a_node36"><a xlink:href="FlashStorage_8h.html" target="_top" xlink:title=" ">
<polygon fill="none" stroke="black" points="1961,-112.5 1961,-131.5 2050,-131.5 2050,-112.5 1961,-112.5"/>
<text text-anchor="middle" x="2005.5" y="-119.5" font-family="Helvetica,sans-Serif" font-size="10.00">FlashStorage.h</text>
</a>
</g>
</g>
<!-- Node1&#45;&gt;Node36 -->
<g id="edge68" class="edge">
<title>Node1&#45;&gt;Node36</title>
<path fill="none" stroke="midnightblue" d="M1187.71,-176.49C1293.45,-174.49 1648.01,-165.64 1950.45,-132.12"/>
<polygon fill="midnightblue" stroke="midnightblue" points="1951.18,-135.56 1960.73,-130.96 1950.4,-128.6 1951.18,-135.56"/>
</g>
<!-- Node38 -->
<g id="node38" class="node">
<title>Node38</title>
<g id="a_node38"><a xlink:href="RadioStorage_8h.html" target="_top" xlink:title=" ">
<polygon fill="none" stroke="black" points="371,-112.5 371,-131.5 462,-131.5 462,-112.5 371,-112.5"/>
<text text-anchor="middle" x="416.5" y="-119.5" font-family="Helvetica,sans-Serif" font-size="10.00">RadioStorage.h</text>
</a>
</g>
</g>
<!-- Node1&#45;&gt;Node38 -->
<g id="edge73" class="edge">
<title>Node1&#45;&gt;Node38</title>
<path fill="none" stroke="midnightblue" d="M1125.18,-174.71C1011.4,-166.41 619.04,-137.78 472.39,-127.08"/>
<polygon fill="midnightblue" stroke="midnightblue" points="472.49,-123.58 462.26,-126.34 471.98,-130.56 472.49,-123.58"/>
</g>
<!-- Node39 -->
<g id="node39" class="node">
<title>Node39</title>
<g id="a_node39"><a xlink:href="SDStorage_8h.html" target="_top" xlink:title=" ">
<polygon fill="none" stroke="black" points="217,-112.5 217,-131.5 294,-131.5 294,-112.5 217,-112.5"/>
<text text-anchor="middle" x="255.5" y="-119.5" font-family="Helvetica,sans-Serif" font-size="10.00">SDStorage.h</text>
</a>
</g>
</g>
<!-- Node1&#45;&gt;Node39 -->
<g id="edge77" class="edge">
<title>Node1&#45;&gt;Node39</title>
<path fill="none" stroke="midnightblue" d="M1125.15,-176.37C1014.36,-173.93 631.1,-163.57 316.5,-132 312.54,-131.6 308.44,-131.13 304.33,-130.61"/>
<polygon fill="midnightblue" stroke="midnightblue" points="304.53,-127.11 294.16,-129.26 303.61,-134.05 304.53,-127.11"/>
</g>
<!-- Node3&#45;&gt;Node2 -->
<g id="edge3" class="edge">
<title>Node3&#45;&gt;Node2</title>
<path fill="none" stroke="midnightblue" d="M141.65,-57.92C146.32,-57.22 151.01,-56.57 155.5,-56 319.02,-35.3 514.69,-20.03 598.76,-13.93"/>
<polygon fill="midnightblue" stroke="midnightblue" points="599.21,-17.4 608.93,-13.19 598.7,-10.42 599.21,-17.4"/>
</g>
<!-- Node3&#45;&gt;Node4 -->
<g id="edge4" class="edge">
<title>Node3&#45;&gt;Node4</title>
<path fill="none" stroke="midnightblue" d="M141.57,-60.46C157.79,-58.85 176.49,-57.15 193.5,-56 610.4,-27.88 1113.89,-15.62 1281.86,-12.12"/>
<polygon fill="midnightblue" stroke="midnightblue" points="1282.04,-15.62 1291.96,-11.91 1281.89,-8.62 1282.04,-15.62"/>
</g>
<!-- Node5 -->
<g id="node5" class="node">
<title>Node5</title>
<g id="a_node5"><a xlink:title=" ">
<polygon fill="none" stroke="#bfbfbf" points="0,-0.5 0,-19.5 95,-19.5 95,-0.5 0,-0.5"/>
<text text-anchor="middle" x="47.5" y="-7.5" font-family="Helvetica,sans-Serif" font-size="10.00">pico/multicore.h</text>
</a>
</g>
</g>
<!-- Node3&#45;&gt;Node5 -->
<g id="edge5" class="edge">
<title>Node3&#45;&gt;Node5</title>
<path fill="none" stroke="midnightblue" d="M90.91,-56.08C83.34,-48.22 72.12,-36.57 62.99,-27.08"/>
<polygon fill="midnightblue" stroke="midnightblue" points="65.38,-24.53 55.93,-19.75 60.34,-29.38 65.38,-24.53"/>
</g>
<!-- Node6 -->
<g id="node6" class="node">
<title>Node6</title>
<g id="a_node6"><a xlink:title=" ">
<polygon fill="none" stroke="#bfbfbf" points="113.5,-0.5 113.5,-19.5 189.5,-19.5 189.5,-0.5 113.5,-0.5"/>
<text text-anchor="middle" x="151.5" y="-7.5" font-family="Helvetica,sans-Serif" font-size="10.00">pico/stdlib.h</text>
</a>
</g>
</g>
<!-- Node3&#45;&gt;Node6 -->
<g id="edge6" class="edge">
<title>Node3&#45;&gt;Node6</title>
<path fill="none" stroke="midnightblue" d="M108.09,-56.08C115.66,-48.22 126.88,-36.57 136.01,-27.08"/>
<polygon fill="midnightblue" stroke="midnightblue" points="138.66,-29.38 143.07,-19.75 133.62,-24.53 138.66,-29.38"/>
</g>
<!-- Node7&#45;&gt;Node2 -->
<g id="edge9" class="edge">
<title>Node7&#45;&gt;Node2</title>
<path fill="none" stroke="midnightblue" d="M1125.12,-57.62C1122.22,-57.02 1119.31,-56.46 1116.5,-56 957.26,-29.74 765.32,-17.41 682.22,-13"/>
<polygon fill="midnightblue" stroke="midnightblue" points="682.33,-9.5 672.16,-12.48 681.97,-16.49 682.33,-9.5"/>
</g>
<!-- Node8&#45;&gt;Node2 -->
<g id="edge11" class="edge">
<title>Node8&#45;&gt;Node2</title>
<path fill="none" stroke="midnightblue" d="M356.15,-58.69C360.95,-57.76 365.86,-56.84 370.5,-56 451.16,-41.39 545.71,-26.04 598.81,-17.58"/>
<polygon fill="midnightblue" stroke="midnightblue" points="599.53,-21.01 608.86,-15.98 598.43,-14.09 599.53,-21.01"/>
</g>
<!-- Node9&#45;&gt;Node7 -->
<g id="edge16" class="edge">
<title>Node9&#45;&gt;Node7</title>
<path fill="none" stroke="midnightblue" d="M862.08,-113.45C865.27,-112.95 868.43,-112.47 871.5,-112 977.11,-95.9 1006.69,-96.64 1115.06,-76.14"/>
<polygon fill="midnightblue" stroke="midnightblue" points="1115.93,-79.54 1125.1,-74.23 1114.62,-72.67 1115.93,-79.54"/>
</g>
<!-- Node10 -->
<g id="node10" class="node">
<title>Node10</title>
<g id="a_node10"><a xlink:title=" ">
<polygon fill="none" stroke="#bfbfbf" points="582,-56.5 582,-75.5 695,-75.5 695,-56.5 582,-56.5"/>
<text text-anchor="middle" x="638.5" y="-63.5" font-family="Helvetica,sans-Serif" font-size="10.00">SparkFun_AS7331.h</text>
</a>
</g>
</g>
<!-- Node9&#45;&gt;Node10 -->
<g id="edge13" class="edge">
<title>Node9&#45;&gt;Node10</title>
<path fill="none" stroke="midnightblue" d="M786.61,-112.44C756.75,-103.28 709.19,-88.69 676.04,-78.52"/>
<polygon fill="midnightblue" stroke="midnightblue" points="676.84,-75.1 666.26,-75.52 674.79,-81.8 676.84,-75.1"/>
</g>
<!-- Node11 -->
<g id="node11" class="node">
<title>Node11</title>
<g id="a_node11"><a xlink:title=" ">
<polygon fill="none" stroke="#bfbfbf" points="713.5,-56.5 713.5,-75.5 761.5,-75.5 761.5,-56.5 713.5,-56.5"/>
<text text-anchor="middle" x="737.5" y="-63.5" font-family="Helvetica,sans-Serif" font-size="10.00">Wire.h</text>
</a>
</g>
</g>
<!-- Node9&#45;&gt;Node11 -->
<g id="edge14" class="edge">
<title>Node9&#45;&gt;Node11</title>
<path fill="none" stroke="midnightblue" d="M802.13,-112.32C790.34,-104.06 772.37,-91.45 758.36,-81.63"/>
<polygon fill="midnightblue" stroke="midnightblue" points="760.04,-78.53 749.84,-75.65 756.02,-84.26 760.04,-78.53"/>
</g>
<!-- Node12 -->
<g id="node12" class="node">
<title>Node12</title>
<g id="a_node12"><a xlink:title=" ">
<polygon fill="none" stroke="#bfbfbf" points="1496,-56.5 1496,-75.5 1549,-75.5 1549,-56.5 1496,-56.5"/>
<text text-anchor="middle" x="1522.5" y="-63.5" font-family="Helvetica,sans-Serif" font-size="10.00">string.h</text>
</a>
</g>
</g>
<!-- Node9&#45;&gt;Node12 -->
<g id="edge15" class="edge">
<title>Node9&#45;&gt;Node12</title>
<path fill="none" stroke="midnightblue" d="M862.04,-113.14C865.24,-112.72 868.41,-112.33 871.5,-112 1140.4,-82.97 1214.05,-116.54 1485.71,-75.79"/>
<polygon fill="midnightblue" stroke="midnightblue" points="1486.52,-79.21 1495.88,-74.24 1485.46,-72.29 1486.52,-79.21"/>
</g>
<!-- Node13&#45;&gt;Node7 -->
<g id="edge18" class="edge">
<title>Node13&#45;&gt;Node7</title>
<path fill="none" stroke="midnightblue" d="M1279.89,-112.44C1255.04,-103.44 1215.73,-89.19 1187.75,-79.05"/>
<polygon fill="midnightblue" stroke="midnightblue" points="1188.59,-75.63 1178,-75.52 1186.21,-82.21 1188.59,-75.63"/>
</g>
<!-- Node14 -->
<g id="node14" class="node">
<title>Node14</title>
<g id="a_node14"><a xlink:title=" ">
<polygon fill="none" stroke="#bfbfbf" points="1201.5,-56.5 1201.5,-75.5 1311.5,-75.5 1311.5,-56.5 1201.5,-56.5"/>
<text text-anchor="middle" x="1256.5" y="-63.5" font-family="Helvetica,sans-Serif" font-size="10.00">SparkFunBME280.h</text>
</a>
</g>
</g>
<!-- Node13&#45;&gt;Node14 -->
<g id="edge19" class="edge">
<title>Node13&#45;&gt;Node14</title>
<path fill="none" stroke="midnightblue" d="M1295.74,-112.08C1288.96,-104.3 1278.96,-92.8 1270.74,-83.37"/>
<polygon fill="midnightblue" stroke="midnightblue" points="1273.32,-81 1264.12,-75.75 1268.04,-85.59 1273.32,-81"/>
</g>
<!-- Node15&#45;&gt;Node4 -->
<g id="edge26" class="edge">
<title>Node15&#45;&gt;Node4</title>
<path fill="none" stroke="midnightblue" d="M1402.32,-112.41C1388.55,-104.68 1369.73,-92.07 1358.5,-76 1348.93,-62.3 1344.13,-43.76 1341.75,-29.99"/>
<polygon fill="midnightblue" stroke="midnightblue" points="1345.17,-29.15 1340.27,-19.76 1338.24,-30.15 1345.17,-29.15"/>
</g>
<!-- Node15&#45;&gt;Node7 -->
<g id="edge27" class="edge">
<title>Node15&#45;&gt;Node7</title>
<path fill="none" stroke="midnightblue" d="M1373.74,-112.44C1329.98,-104.14 1261.88,-90.93 1193.59,-76.18"/>
<polygon fill="midnightblue" stroke="midnightblue" points="1194.04,-72.69 1183.52,-73.99 1192.55,-79.53 1194.04,-72.69"/>
</g>
<!-- Node15&#45;&gt;Node11 -->
<g id="edge24" class="edge">
<title>Node15&#45;&gt;Node11</title>
<path fill="none" stroke="midnightblue" d="M1370.49,-113.07C1367.45,-112.68 1364.44,-112.32 1361.5,-112 1103.18,-84.15 1031.94,-117.97 771.66,-75.83"/>
<polygon fill="midnightblue" stroke="midnightblue" points="771.96,-72.33 761.52,-74.17 770.83,-79.24 771.96,-72.33"/>
</g>
<!-- Node15&#45;&gt;Node12 -->
<g id="edge25" class="edge">
<title>Node15&#45;&gt;Node12</title>
<path fill="none" stroke="midnightblue" d="M1436.05,-112.32C1452.49,-103.7 1477.93,-90.36 1496.97,-80.39"/>
<polygon fill="midnightblue" stroke="midnightblue" points="1498.76,-83.4 1505.99,-75.65 1495.51,-77.2 1498.76,-83.4"/>
</g>
<!-- Node16 -->
<g id="node16" class="node">
<title>Node16</title>
<g id="a_node16"><a xlink:title=" ">
<polygon fill="none" stroke="#bfbfbf" points="1367.5,-56.5 1367.5,-75.5 1477.5,-75.5 1477.5,-56.5 1367.5,-56.5"/>
<text text-anchor="middle" x="1422.5" y="-63.5" font-family="Helvetica,sans-Serif" font-size="10.00">Adafruit_BME680.h</text>
</a>
</g>
</g>
<!-- Node15&#45;&gt;Node16 -->
<g id="edge21" class="edge">
<title>Node15&#45;&gt;Node16</title>
<path fill="none" stroke="midnightblue" d="M1420,-112.08C1420.39,-105.01 1420.95,-94.86 1421.45,-85.99"/>
<polygon fill="midnightblue" stroke="midnightblue" points="1424.95,-85.93 1422.01,-75.75 1417.96,-85.54 1424.95,-85.93"/>
</g>
<!-- Node17 -->
<g id="node17" class="node">
<title>Node17</title>
<g id="a_node17"><a xlink:title=" ">
<polygon fill="none" stroke="#bfbfbf" points="2026.5,-56.5 2026.5,-75.5 2128.5,-75.5 2128.5,-56.5 2026.5,-56.5"/>
<text text-anchor="middle" x="2077.5" y="-63.5" font-family="Helvetica,sans-Serif" font-size="10.00">Adafruit_Sensor.h</text>
</a>
</g>
</g>
<!-- Node15&#45;&gt;Node17 -->
<g id="edge22" class="edge">
<title>Node15&#45;&gt;Node17</title>
<path fill="none" stroke="midnightblue" d="M1468.72,-113.19C1472.02,-112.76 1475.31,-112.36 1478.5,-112 1700.35,-87.15 1757,-94.21 1979.5,-76 1991.41,-75.03 2004.12,-73.91 2016.31,-72.81"/>
<polygon fill="midnightblue" stroke="midnightblue" points="2016.76,-76.28 2026.4,-71.89 2016.12,-69.31 2016.76,-76.28"/>
</g>
<!-- Node18 -->
<g id="node18" class="node">
<title>Node18</title>
<g id="a_node18"><a xlink:title=" ">
<polygon fill="none" stroke="#bfbfbf" points="1567,-56.5 1567,-75.5 1608,-75.5 1608,-56.5 1567,-56.5"/>
<text text-anchor="middle" x="1587.5" y="-63.5" font-family="Helvetica,sans-Serif" font-size="10.00">SPI.h</text>
</a>
</g>
</g>
<!-- Node15&#45;&gt;Node18 -->
<g id="edge23" class="edge">
<title>Node15&#45;&gt;Node18</title>
<path fill="none" stroke="midnightblue" d="M1446.12,-112.44C1476.34,-102.73 1525.55,-86.91 1557.21,-76.74"/>
<polygon fill="midnightblue" stroke="midnightblue" points="1558.38,-80.04 1566.83,-73.64 1556.24,-73.37 1558.38,-80.04"/>
</g>
<!-- Node19&#45;&gt;Node7 -->
<g id="edge30" class="edge">
<title>Node19&#45;&gt;Node7</title>
<path fill="none" stroke="midnightblue" d="M749.13,-113.15C751.96,-112.74 754.77,-112.36 757.5,-112 913.25,-91.69 956.59,-102.09 1115.02,-76.05"/>
<polygon fill="midnightblue" stroke="midnightblue" points="1115.83,-79.46 1125.12,-74.36 1114.68,-72.56 1115.83,-79.46"/>
</g>
<!-- Node19&#45;&gt;Node11 -->
<g id="edge29" class="edge">
<title>Node19&#45;&gt;Node11</title>
<path fill="none" stroke="midnightblue" d="M707.44,-112.08C712.48,-104.53 719.84,-93.49 726.01,-84.23"/>
<polygon fill="midnightblue" stroke="midnightblue" points="729.03,-86.01 731.67,-75.75 723.21,-82.13 729.03,-86.01"/>
</g>
<!-- Node20 -->
<g id="node20" class="node">
<title>Node20</title>
<g id="a_node20"><a xlink:title=" ">
<polygon fill="none" stroke="#bfbfbf" points="451,-56.5 451,-75.5 564,-75.5 564,-56.5 451,-56.5"/>
<text text-anchor="middle" x="507.5" y="-63.5" font-family="Helvetica,sans-Serif" font-size="10.00">SparkFun_ENS160.h</text>
</a>
</g>
</g>
<!-- Node19&#45;&gt;Node20 -->
<g id="edge31" class="edge">
<title>Node19&#45;&gt;Node20</title>
<path fill="none" stroke="midnightblue" d="M670.76,-112.44C637.56,-103.2 584.51,-88.44 547.94,-78.26"/>
<polygon fill="midnightblue" stroke="midnightblue" points="548.67,-74.83 538.1,-75.52 546.79,-81.57 548.67,-74.83"/>
</g>
<!-- Node21&#45;&gt;Node4 -->
<g id="edge37" class="edge">
<title>Node21&#45;&gt;Node4</title>
<path fill="none" stroke="midnightblue" d="M1824.09,-113.13C1827.27,-112.73 1830.43,-112.35 1833.5,-112 1929.25,-101.16 2329.96,-125.78 2263.5,-56 2233.56,-24.56 1594.84,-14.13 1397.23,-11.64"/>
<polygon fill="midnightblue" stroke="midnightblue" points="1397.1,-8.14 1387.06,-11.52 1397.01,-15.14 1397.1,-8.14"/>
</g>
<!-- Node21&#45;&gt;Node7 -->
<g id="edge38" class="edge">
<title>Node21&#45;&gt;Node7</title>
<path fill="none" stroke="midnightblue" d="M1716.92,-113.08C1713.73,-112.69 1710.58,-112.33 1707.5,-112 1482.57,-88.1 1421.06,-109.92 1193.76,-75.95"/>
<polygon fill="midnightblue" stroke="midnightblue" points="1194.28,-72.49 1183.87,-74.45 1193.23,-79.41 1194.28,-72.49"/>
</g>
<!-- Node21&#45;&gt;Node12 -->
<g id="edge36" class="edge">
<title>Node21&#45;&gt;Node12</title>
<path fill="none" stroke="midnightblue" d="M1728.17,-112.48C1687.4,-104.17 1623.75,-90.93 1559.16,-76.09"/>
<polygon fill="midnightblue" stroke="midnightblue" points="1559.74,-72.63 1549.21,-73.79 1558.17,-79.45 1559.74,-72.63"/>
</g>
<!-- Node21&#45;&gt;Node17 -->
<g id="edge35" class="edge">
<title>Node21&#45;&gt;Node17</title>
<path fill="none" stroke="midnightblue" d="M1819.15,-112.44C1873.37,-102.9 1961.05,-87.48 2018.98,-77.29"/>
<polygon fill="midnightblue" stroke="midnightblue" points="2019.84,-80.7 2029.08,-75.52 2018.63,-73.8 2019.84,-80.7"/>
</g>
<!-- Node22 -->
<g id="node22" class="node">
<title>Node22</title>
<g id="a_node22"><a xlink:title=" ">
<polygon fill="none" stroke="#bfbfbf" points="2311,-56.5 2311,-75.5 2430,-75.5 2430,-56.5 2311,-56.5"/>
<text text-anchor="middle" x="2370.5" y="-63.5" font-family="Helvetica,sans-Serif" font-size="10.00">Adafruit_ICM20948.h</text>
</a>
</g>
</g>
<!-- Node21&#45;&gt;Node22 -->
<g id="edge33" class="edge">
<title>Node21&#45;&gt;Node22</title>
<path fill="none" stroke="midnightblue" d="M1824.09,-113.11C1827.27,-112.71 1830.43,-112.34 1833.5,-112 2038.66,-89.39 2091.12,-96.46 2296.5,-76 2297.8,-75.87 2299.12,-75.74 2300.45,-75.6"/>
<polygon fill="midnightblue" stroke="midnightblue" points="2301.18,-79.04 2310.75,-74.49 2300.43,-72.08 2301.18,-79.04"/>
</g>
<!-- Node23 -->
<g id="node23" class="node">
<title>Node23</title>
<g id="a_node23"><a xlink:title=" ">
<polygon fill="none" stroke="#bfbfbf" points="2147,-56.5 2147,-75.5 2254,-75.5 2254,-56.5 2147,-56.5"/>
<text text-anchor="middle" x="2200.5" y="-63.5" font-family="Helvetica,sans-Serif" font-size="10.00">Adafruit_ICM20X.h</text>
</a>
</g>
</g>
<!-- Node21&#45;&gt;Node23 -->
<g id="edge34" class="edge">
<title>Node21&#45;&gt;Node23</title>
<path fill="none" stroke="midnightblue" d="M1824.1,-113.25C1827.28,-112.82 1830.43,-112.4 1833.5,-112 1965.25,-94.79 2000.93,-93.67 2136.93,-76.04"/>
<polygon fill="midnightblue" stroke="midnightblue" points="2137.43,-79.51 2146.9,-74.75 2136.53,-72.57 2137.43,-79.51"/>
</g>
<!-- Node24&#45;&gt;Node2 -->
<g id="edge40" class="edge">
<title>Node24&#45;&gt;Node2</title>
<path fill="none" stroke="midnightblue" d="M1033.8,-112.43C1007.58,-98.5 952.89,-70.96 903.5,-56 827.23,-32.89 734.7,-20.52 682.21,-14.89"/>
<polygon fill="midnightblue" stroke="midnightblue" points="682.57,-11.41 672.26,-13.85 681.84,-18.37 682.57,-11.41"/>
</g>
<!-- Node24&#45;&gt;Node7 -->
<g id="edge43" class="edge">
<title>Node24&#45;&gt;Node7</title>
<path fill="none" stroke="midnightblue" d="M1066.37,-112.32C1083.21,-103.66 1109.31,-90.24 1128.74,-80.25"/>
<polygon fill="midnightblue" stroke="midnightblue" points="1130.38,-83.34 1137.67,-75.65 1127.18,-77.12 1130.38,-83.34"/>
</g>
<!-- Node24&#45;&gt;Node12 -->
<g id="edge41" class="edge">
<title>Node24&#45;&gt;Node12</title>
<path fill="none" stroke="midnightblue" d="M1096.22,-113.26C1099.36,-112.81 1102.47,-112.39 1105.5,-112 1271.01,-90.9 1317.11,-104.18 1485.89,-75.83"/>
<polygon fill="midnightblue" stroke="midnightblue" points="1486.59,-79.27 1495.86,-74.14 1485.41,-72.36 1486.59,-79.27"/>
</g>
<!-- Node25 -->
<g id="node25" class="node">
<title>Node25</title>
<g id="a_node25"><a xlink:title=" ">
<polygon fill="none" stroke="#bfbfbf" points="1002,-56.5 1002,-75.5 1107,-75.5 1107,-56.5 1002,-56.5"/>
<text text-anchor="middle" x="1054.5" y="-63.5" font-family="Helvetica,sans-Serif" font-size="10.00">Adafruit_INA260.h</text>
</a>
</g>
</g>
<!-- Node24&#45;&gt;Node25 -->
<g id="edge42" class="edge">
<title>Node24&#45;&gt;Node25</title>
<path fill="none" stroke="midnightblue" d="M1050.33,-112.08C1050.98,-105.01 1051.92,-94.86 1052.74,-85.99"/>
<polygon fill="midnightblue" stroke="midnightblue" points="1056.25,-86.03 1053.69,-75.75 1049.28,-85.39 1056.25,-86.03"/>
</g>
<!-- Node26&#45;&gt;Node4 -->
<g id="edge48" class="edge">
<title>Node26&#45;&gt;Node4</title>
<path fill="none" stroke="midnightblue" d="M1698.59,-113.39C1701.94,-112.92 1705.27,-112.45 1708.5,-112 1830.32,-95.07 2063.36,-145.96 1979.5,-56 1940.28,-13.93 1547.75,-10.45 1397.54,-10.68"/>
<polygon fill="midnightblue" stroke="midnightblue" points="1397.14,-7.18 1387.15,-10.7 1397.16,-14.18 1397.14,-7.18"/>
</g>
<!-- Node26&#45;&gt;Node7 -->
<g id="edge49" class="edge">
<title>Node26&#45;&gt;Node7</title>
<path fill="none" stroke="midnightblue" d="M1594.28,-113.1C1591.31,-112.71 1588.37,-112.34 1585.5,-112 1414.57,-91.58 1367.34,-103.81 1193.85,-76.01"/>
<polygon fill="midnightblue" stroke="midnightblue" points="1194.31,-72.54 1183.88,-74.39 1193.19,-79.45 1194.31,-72.54"/>
</g>
<!-- Node26&#45;&gt;Node12 -->
<g id="edge47" class="edge">
<title>Node26&#45;&gt;Node12</title>
<path fill="none" stroke="midnightblue" d="M1626.85,-112.44C1606.54,-103.6 1574.6,-89.69 1551.4,-79.59"/>
<polygon fill="midnightblue" stroke="midnightblue" points="1552.62,-76.3 1542.06,-75.52 1549.83,-82.72 1552.62,-76.3"/>
</g>
<!-- Node26&#45;&gt;Node17 -->
<g id="edge46" class="edge">
<title>Node26&#45;&gt;Node17</title>
<path fill="none" stroke="midnightblue" d="M1698.58,-113.34C1701.94,-112.88 1705.26,-112.43 1708.5,-112 1843.39,-94.23 1877.55,-93.33 2012.5,-76 2013.77,-75.84 2015.06,-75.67 2016.35,-75.5"/>
<polygon fill="midnightblue" stroke="midnightblue" points="2016.96,-78.95 2026.42,-74.17 2016.05,-72.01 2016.96,-78.95"/>
</g>
<!-- Node27 -->
<g id="node27" class="node">
<title>Node27</title>
<g id="a_node27"><a xlink:title=" ">
<polygon fill="none" stroke="#bfbfbf" points="1854.5,-56.5 1854.5,-75.5 1970.5,-75.5 1970.5,-56.5 1854.5,-56.5"/>
<text text-anchor="middle" x="1912.5" y="-63.5" font-family="Helvetica,sans-Serif" font-size="10.00">Adafruit_LSM9DS1.h</text>
</a>
</g>
</g>
<!-- Node26&#45;&gt;Node27 -->
<g id="edge45" class="edge">
<title>Node26&#45;&gt;Node27</title>
<path fill="none" stroke="midnightblue" d="M1688.65,-112.44C1735.25,-102.98 1810.34,-87.74 1860.55,-77.55"/>
<polygon fill="midnightblue" stroke="midnightblue" points="1861.44,-80.94 1870.55,-75.52 1860.05,-74.08 1861.44,-80.94"/>
</g>
<!-- Node28&#45;&gt;Node2 -->
<g id="edge52" class="edge">
<title>Node28&#45;&gt;Node2</title>
<path fill="none" stroke="midnightblue" d="M927.74,-112.19C919.52,-97.89 901.25,-69.85 877.5,-56 816.2,-20.24 732.22,-12.1 682.43,-10.69"/>
<polygon fill="midnightblue" stroke="midnightblue" points="682.42,-7.19 672.35,-10.48 682.28,-14.19 682.42,-7.19"/>
</g>
<!-- Node28&#45;&gt;Node4 -->
<g id="edge55" class="edge">
<title>Node28&#45;&gt;Node4</title>
<path fill="none" stroke="midnightblue" d="M937.64,-112.48C946.84,-98.1 967.6,-69.26 993.5,-56 1042.59,-30.86 1196.91,-18.72 1281.92,-13.8"/>
<polygon fill="midnightblue" stroke="midnightblue" points="1282.14,-17.29 1291.93,-13.24 1281.75,-10.3 1282.14,-17.29"/>
</g>
<!-- Node28&#45;&gt;Node7 -->
<g id="edge56" class="edge">
<title>Node28&#45;&gt;Node7</title>
<path fill="none" stroke="midnightblue" d="M967.68,-112.44C1007.89,-102.66 1073.52,-86.7 1115.33,-76.53"/>
<polygon fill="midnightblue" stroke="midnightblue" points="1116.27,-79.9 1125.16,-74.14 1114.62,-73.1 1116.27,-79.9"/>
</g>
<!-- Node28&#45;&gt;Node11 -->
<g id="edge54" class="edge">
<title>Node28&#45;&gt;Node11</title>
<path fill="none" stroke="midnightblue" d="M901.6,-112.44C866.16,-102.63 808.24,-86.59 771.54,-76.43"/>
<polygon fill="midnightblue" stroke="midnightblue" points="772.36,-73.02 761.78,-73.73 770.49,-79.77 772.36,-73.02"/>
</g>
<!-- Node28&#45;&gt;Node18 -->
<g id="edge53" class="edge">
<title>Node28&#45;&gt;Node18</title>
<path fill="none" stroke="midnightblue" d="M984.56,-113.13C987.92,-112.72 991.25,-112.34 994.5,-112 1241.03,-86.28 1309.68,-120.62 1556.74,-75.92"/>
<polygon fill="midnightblue" stroke="midnightblue" points="1557.53,-79.34 1566.74,-74.09 1556.27,-72.45 1557.53,-79.34"/>
</g>
<!-- Node29 -->
<g id="node29" class="node">
<title>Node29</title>
<g id="a_node29"><a xlink:title=" ">
<polygon fill="none" stroke="#bfbfbf" points="780,-56.5 780,-75.5 869,-75.5 869,-56.5 780,-56.5"/>
<text text-anchor="middle" x="824.5" y="-63.5" font-family="Helvetica,sans-Serif" font-size="10.00">Adafruit_GPS.h</text>
</a>
</g>
</g>
<!-- Node28&#45;&gt;Node29 -->
<g id="edge51" class="edge">
<title>Node28&#45;&gt;Node29</title>
<path fill="none" stroke="midnightblue" d="M915.15,-112.32C897.83,-103.66 870.98,-90.24 851,-80.25"/>
<polygon fill="midnightblue" stroke="midnightblue" points="852.32,-77 841.81,-75.65 849.19,-83.26 852.32,-77"/>
</g>
<!-- Node30&#45;&gt;Node7 -->
<g id="edge59" class="edge">
<title>Node30&#45;&gt;Node7</title>
<path fill="none" stroke="midnightblue" d="M1841.69,-112.94C1838.92,-112.59 1836.18,-112.28 1833.5,-112 1553.02,-82.8 1476.65,-116.24 1194,-75.96"/>
<polygon fill="midnightblue" stroke="midnightblue" points="1194.26,-72.46 1183.86,-74.49 1193.26,-79.39 1194.26,-72.46"/>
</g>
<!-- Node31 -->
<g id="node31" class="node">
<title>Node31</title>
<g id="a_node31"><a xlink:title=" ">
<polygon fill="none" stroke="#bfbfbf" points="2448.5,-56.5 2448.5,-75.5 2504.5,-75.5 2504.5,-56.5 2448.5,-56.5"/>
<text text-anchor="middle" x="2476.5" y="-63.5" font-family="Helvetica,sans-Serif" font-size="10.00">RTClib.h</text>
</a>
</g>
</g>
<!-- Node30&#45;&gt;Node31 -->
<g id="edge58" class="edge">
<title>Node30&#45;&gt;Node31</title>
<path fill="none" stroke="midnightblue" d="M1943.2,-113.12C1946.35,-112.72 1949.46,-112.34 1952.5,-112 2164.93,-88.25 2223.35,-109.11 2438.29,-75.93"/>
<polygon fill="midnightblue" stroke="midnightblue" points="2438.98,-79.37 2448.31,-74.36 2437.89,-72.45 2438.98,-79.37"/>
</g>
<!-- Node32&#45;&gt;Node2 -->
<g id="edge61" class="edge">
<title>Node32&#45;&gt;Node2</title>
<path fill="none" stroke="midnightblue" d="M1576.29,-113.52C1579.4,-113 1582.5,-112.49 1585.5,-112 1685.91,-95.49 1878.05,-129.33 1807.5,-56 1787.58,-35.3 887.92,-15.98 682.12,-11.82"/>
<polygon fill="midnightblue" stroke="midnightblue" points="682.1,-8.32 672.03,-11.62 681.95,-15.32 682.1,-8.32"/>
</g>
<!-- Node32&#45;&gt;Node7 -->
<g id="edge65" class="edge">
<title>Node32&#45;&gt;Node7</title>
<path fill="none" stroke="midnightblue" d="M1486.73,-113.4C1483.61,-112.91 1480.51,-112.44 1477.5,-112 1354.38,-93.97 1319.87,-98.49 1193.93,-76.1"/>
<polygon fill="midnightblue" stroke="midnightblue" points="1194.36,-72.62 1183.89,-74.29 1193.11,-79.51 1194.36,-72.62"/>
</g>
<!-- Node32&#45;&gt;Node12 -->
<g id="edge63" class="edge">
<title>Node32&#45;&gt;Node12</title>
<path fill="none" stroke="midnightblue" d="M1530.01,-112.08C1528.82,-104.93 1527.11,-94.64 1525.62,-85.69"/>
<polygon fill="midnightblue" stroke="midnightblue" points="1529.05,-85.04 1523.96,-75.75 1522.15,-86.19 1529.05,-85.04"/>
</g>
<!-- Node33 -->
<g id="node33" class="node">
<title>Node33</title>
<g id="a_node33"><a xlink:title=" ">
<polygon fill="none" stroke="#bfbfbf" points="1745,-56.5 1745,-75.5 1798,-75.5 1798,-56.5 1745,-56.5"/>
<text text-anchor="middle" x="1771.5" y="-63.5" font-family="Helvetica,sans-Serif" font-size="10.00">stdint.h</text>
</a>
</g>
</g>
<!-- Node32&#45;&gt;Node33 -->
<g id="edge62" class="edge">
<title>Node32&#45;&gt;Node33</title>
<path fill="none" stroke="midnightblue" d="M1572.44,-112.46C1611.78,-104.16 1673.16,-90.94 1734.87,-76.33"/>
<polygon fill="midnightblue" stroke="midnightblue" points="1735.85,-79.7 1744.77,-73.98 1734.23,-72.89 1735.85,-79.7"/>
</g>
<!-- Node34 -->
<g id="node34" class="node">
<title>Node34</title>
<g id="a_node34"><a xlink:title=" ">
<polygon fill="none" stroke="#bfbfbf" points="1626,-56.5 1626,-75.5 1727,-75.5 1727,-56.5 1626,-56.5"/>
<text text-anchor="middle" x="1676.5" y="-63.5" font-family="Helvetica,sans-Serif" font-size="10.00">Adafruit_SGP30.h</text>
</a>
</g>
</g>
<!-- Node32&#45;&gt;Node34 -->
<g id="edge64" class="edge">
<title>Node32&#45;&gt;Node34</title>
<path fill="none" stroke="midnightblue" d="M1554.48,-112.44C1578.66,-103.44 1616.92,-89.19 1644.15,-79.05"/>
<polygon fill="midnightblue" stroke="midnightblue" points="1645.48,-82.29 1653.63,-75.52 1643.04,-75.73 1645.48,-82.29"/>
</g>
<!-- Node35&#45;&gt;Node7 -->
<g id="edge67" class="edge">
<title>Node35&#45;&gt;Node7</title>
<path fill="none" stroke="midnightblue" d="M1156.17,-112.08C1155.91,-105.01 1155.53,-94.86 1155.2,-85.99"/>
<polygon fill="midnightblue" stroke="midnightblue" points="1158.69,-85.61 1154.82,-75.75 1151.7,-85.87 1158.69,-85.61"/>
</g>
<!-- Node36&#45;&gt;Node4 -->
<g id="edge70" class="edge">
<title>Node36&#45;&gt;Node4</title>
<path fill="none" stroke="midnightblue" d="M2050.38,-120.41C2168.76,-118.38 2482.53,-109.84 2513.5,-76 2519.5,-69.44 2519.66,-62.4 2513.5,-56 2474.43,-15.41 1628.05,-11.36 1397.21,-11.02"/>
<polygon fill="midnightblue" stroke="midnightblue" points="1397.01,-7.52 1387.01,-11 1397,-14.52 1397.01,-7.52"/>
</g>
<!-- Node36&#45;&gt;Node8 -->
<g id="edge72" class="edge">
<title>Node36&#45;&gt;Node8</title>
<path fill="none" stroke="midnightblue" d="M1960.74,-112.93C1957.96,-112.58 1955.19,-112.26 1952.5,-112 1283.85,-47.6 1112.4,-109.77 441.5,-76 416.56,-74.74 388.67,-72.63 366.39,-70.76"/>
<polygon fill="midnightblue" stroke="midnightblue" points="366.51,-67.26 356.25,-69.9 365.92,-74.24 366.51,-67.26"/>
</g>
<!-- Node36&#45;&gt;Node18 -->
<g id="edge69" class="edge">
<title>Node36&#45;&gt;Node18</title>
<path fill="none" stroke="midnightblue" d="M1961,-113.24C1958.12,-112.8 1955.27,-112.38 1952.5,-112 1807.36,-91.9 1766.05,-105.05 1617.94,-75.7"/>
<polygon fill="midnightblue" stroke="midnightblue" points="1618.52,-72.25 1608.03,-73.7 1617.14,-79.11 1618.52,-72.25"/>
</g>
<!-- Node37 -->
<g id="node37" class="node">
<title>Node37</title>
<g id="a_node37"><a xlink:title=" ">
<polygon fill="none" stroke="#bfbfbf" points="2560.5,-56.5 2560.5,-75.5 2710.5,-75.5 2710.5,-56.5 2560.5,-56.5"/>
<text text-anchor="middle" x="2635.5" y="-63.5" font-family="Helvetica,sans-Serif" font-size="10.00">SparkFun_SPI_SerialFlash.h</text>
</a>
</g>
</g>
<!-- Node36&#45;&gt;Node37 -->
<g id="edge71" class="edge">
<title>Node36&#45;&gt;Node37</title>
<path fill="none" stroke="midnightblue" d="M2050.06,-117.56C2142.59,-110.37 2362.32,-92.97 2546.5,-76 2547.62,-75.9 2548.75,-75.79 2549.89,-75.69"/>
<polygon fill="midnightblue" stroke="midnightblue" points="2550.62,-79.13 2560.25,-74.7 2549.96,-72.16 2550.62,-79.13"/>
</g>
<!-- Node38&#45;&gt;Node2 -->
<g id="edge74" class="edge">
<title>Node38&#45;&gt;Node2</title>
<path fill="none" stroke="midnightblue" d="M411.8,-112.3C405.15,-98.66 395.19,-72.14 408.5,-56 432.14,-27.33 538.46,-16.71 598.64,-12.94"/>
<polygon fill="midnightblue" stroke="midnightblue" points="599.17,-16.41 608.95,-12.33 598.76,-9.43 599.17,-16.41"/>
</g>
<!-- Node38&#45;&gt;Node4 -->
<g id="edge75" class="edge">
<title>Node38&#45;&gt;Node4</title>
<path fill="none" stroke="midnightblue" d="M417,-112.04C418.34,-97.53 423.29,-69.19 441.5,-56 475.54,-31.34 1088.12,-16.32 1281.5,-12.18"/>
<polygon fill="midnightblue" stroke="midnightblue" points="1281.82,-15.67 1291.75,-11.96 1281.67,-8.67 1281.82,-15.67"/>
</g>
<!-- Node38&#45;&gt;Node8 -->
<g id="edge76" class="edge">
<title>Node38&#45;&gt;Node8</title>
<path fill="none" stroke="midnightblue" d="M401.72,-112.32C387.23,-103.82 364.93,-90.73 348.01,-80.8"/>
<polygon fill="midnightblue" stroke="midnightblue" points="349.64,-77.7 339.24,-75.65 346.1,-83.74 349.64,-77.7"/>
</g>
<!-- Node39&#45;&gt;Node3 -->
<g id="edge78" class="edge">
<title>Node39&#45;&gt;Node3</title>
<path fill="none" stroke="midnightblue" d="M230.78,-112.44C204.65,-103.4 163.24,-89.06 133.92,-78.92"/>
<polygon fill="midnightblue" stroke="midnightblue" points="134.7,-75.48 124.1,-75.52 132.41,-82.1 134.7,-75.48"/>
</g>
<!-- Node39&#45;&gt;Node4 -->
<g id="edge79" class="edge">
<title>Node39&#45;&gt;Node4</title>
<path fill="none" stroke="midnightblue" d="M246.17,-112.36C232.62,-98.8 210.75,-72.4 226.5,-56 244.94,-36.8 1055.53,-17.33 1281.54,-12.26"/>
<polygon fill="midnightblue" stroke="midnightblue" points="1281.93,-15.76 1291.85,-12.03 1281.78,-8.76 1281.93,-15.76"/>
</g>
<!-- Node39&#45;&gt;Node8 -->
<g id="edge81" class="edge">
<title>Node39&#45;&gt;Node8</title>
<path fill="none" stroke="midnightblue" d="M266.59,-112.32C276.99,-104.18 292.76,-91.84 305.22,-82.09"/>
<polygon fill="midnightblue" stroke="midnightblue" points="307.49,-84.75 313.21,-75.83 303.18,-79.24 307.49,-84.75"/>
</g>
<!-- Node40 -->
<g id="node40" class="node">
<title>Node40</title>
<g id="a_node40"><a xlink:title=" ">
<polygon fill="none" stroke="#bfbfbf" points="236,-56.5 236,-75.5 275,-75.5 275,-56.5 236,-56.5"/>
<text text-anchor="middle" x="255.5" y="-63.5" font-family="Helvetica,sans-Serif" font-size="10.00">SD.h</text>
</a>
</g>
</g>
<!-- Node39&#45;&gt;Node40 -->
<g id="edge80" class="edge">
<title>Node39&#45;&gt;Node40</title>
<path fill="none" stroke="midnightblue" d="M255.5,-112.08C255.5,-105.01 255.5,-94.86 255.5,-85.99"/>
<polygon fill="midnightblue" stroke="midnightblue" points="259,-85.75 255.5,-75.75 252,-85.75 259,-85.75"/>
</g>
</g>
</svg>
        <g id="navigator" transform="translate(0 0)" fill="#404254">
                <rect fill="#f2f5e9" fill-opacity="0.5" stroke="#606060" stroke-width=".5" x="0" y="0" width="60" height="60"/>
                <use id="zoomplus" xlink:href="#zoomPlus" x="17" y="9" onmousedown="handleZoom(evt,'in')"/>
                <use id="zoomminus" xlink:href="#zoomMin" x="42" y="9" onmousedown="handleZoom(evt,'out')"/>
                <use id="reset" xlink:href="#resetDef" x="30" y="36" onmousedown="handleReset()"/>
                <g id="arrowUp" xlink:href="#dirArrow" transform="translate(30 24)" onmousedown="handlePan(0,-1)">
                  <use xlink:href="#rim" fill="#404040">
                        <set attributeName="fill" to="#808080" begin="arrowUp.mouseover" end="arrowUp.mouseout"/>
                  </use>
                  <path fill="none" stroke="white" stroke-width="1.5" d="M0,-3.0v7 M-2.5,-0.5L0,-3.0L2.5,-0.5"/>
                </g>
                <g id="arrowRight" xlink:href="#dirArrow" transform="rotate(90) translate(36 -43)" onmousedown="handlePan(1,0)">
                  <use xlink:href="#rim" fill="#404040">
                        <set attributeName="fill" to="#808080" begin="arrowRight.mouseover" end="arrowRight.mouseout"/>
                  </use>
                  <path fill="none" stroke="white" stroke-width="1.5" d="M0,-3.0v7 M-2.5,-0.5L0,-3.0L2.5,-0.5"/>
                </g>
                <g id="arrowDown" xlink:href="#dirArrow" transform="rotate(180) translate(-30 -48)" onmousedown="handlePan(0,1)">
                  <use xlink:href="#rim" fill="#404040">
                        <set attributeName="fill" to="#808080" begin="arrowDown.mouseover" end="arrowDown.mouseout"/>
                  </use>
                  <path fill="none" stroke="white" stroke-width="1.5" d="M0,-3.0v7 M-2.5,-0.5L0,-3.0L2.5,-0.5"/>
                </g>
                <g id="arrowLeft" xlink:href="#dirArrow" transform="rotate(270) translate(-36 17)" onmousedown="handlePan(-1,0)">
                  <use xlink:href="#rim" fill="#404040">
                        <set attributeName="fill" to="#808080" begin="arrowLeft.mouseover" end="arrowLeft.mouseout"/>
                  </use>
                  <path fill="none" stroke="white" stroke-width="1.5" d="M0,-3.0v7 M-2.5,-0.5L0,-3.0L2.5,-0.5"/>
                </g>
        </g>
        <svg viewBox="0 0 15 15" width="100%" height="30px" preserveAspectRatio="xMaxYMin meet">
         <g id="arrow_out" transform="scale(0.3 0.3)">
          <a xlink:href="main_8cpp__incl_org.svg" target="_base">
           <rect id="button" ry="5" rx="5" y="6" x="6" height="38" width="38"
                fill="#f2f5e9" fill-opacity="0.5" stroke="#606060" stroke-width="1.0"/>
           <path id="arrow"
             d="M 11.500037,31.436501 C 11.940474,20.09759 22.043105,11.32322 32.158766,21.979434 L 37.068811,17.246167 C 37.068811,17.246167 37.088388,32 37.088388,32 L 22.160133,31.978069 C 22.160133,31.978069 26.997745,27.140456 26.997745,27.140456 C 18.528582,18.264221 13.291696,25.230495 11.500037,31.436501 z"
             style="fill:#404040;"/>
          </a>
         </g>
        </svg>
</svg>
