<?xml version="1.0" encoding="UTF-8" standalone="no"?>
<!DOCTYPE svg PUBLIC "-//W3C//DTD SVG 1.1//EN"
 "http://www.w3.org/Graphics/SVG/1.1/DTD/svg11.dtd">
<!-- Generated by graphviz version 2.43.0 (0)
 -->
<!-- Title: main.cpp Pages: 1 -->
<!--zoomable 196 -->
<svg id="main" version="1.1" xmlns="http://www.w3.org/2000/svg" xmlns:xlink="http://www.w3.org/1999/xlink" xml:space="preserve" onload="init(evt)">
<style type="text/css"><![CDATA[
.edge:hover path { stroke: red; }
.edge:hover polygon { stroke: red; fill: red; }
]]></style>
<script type="text/javascript"><![CDATA[
var edges = document.getElementsByTagName('g');
if (edges && edges.length) {
  for (var i=0;i<edges.length;i++) {
    if (edges[i].id.substr(0,4)=='edge') {
      edges[i].setAttribute('class','edge');
    }
  }
}
]]></script>
        <defs>
                <circle id="rim" cx="0" cy="0" r="7"/>
                <circle id="rim2" cx="0" cy="0" r="3.5"/>
                <g id="zoomPlus">
                        <use xlink:href="#rim" fill="#404040">
                                <set attributeName="fill" to="#808080" begin="zoomplus.mouseover" end="zoomplus.mouseout"/>
                        </use>
                        <path d="M-4,0h8M0,-4v8" fill="none" stroke="white" stroke-width="1.5" pointer-events="none"/>
                </g>
                <g id="zoomMin">
                        <use xlink:href="#rim" fill="#404040">
                                <set attributeName="fill" to="#808080" begin="zoomminus.mouseover" end="zoomminus.mouseout"/>
                        </use>
                        <path d="M-4,0h8" fill="none" stroke="white" stroke-width="1.5" pointer-events="none"/>
                </g>
                <g id="dirArrow">
                        <path fill="none" stroke="white" stroke-width="1.5" d="M0,-3.0v7 M-2.5,-0.5L0,-3.0L2.5,-0.5"/>
                </g>
               <g id="resetDef">
                       <use xlink:href="#rim2" fill="#404040">
                               <set attributeName="fill" to="#808080" begin="reset.mouseover" end="reset.mouseout"/>
                       </use>
               </g>
        </defs>

<script type="text/javascript">
var viewWidth = 2686;
var viewHeight = 196;
var sectionId = 'dynsection-0';
</script>
<script xlink:href="svgpan.js"/>
<svg id="graph" class="graph">
<g id="viewport">
<title>main.cpp</title>
<!-- Node1 -->
<g id="node1" class="node">
<title>Node1</title>
<g id="a_node1"><a xlink:title=" ">
<polygon fill="#bfbfbf" stroke="black" points="1065.5,-168.5 1065.5,-187.5 1127.5,-187.5 1127.5,-168.5 1065.5,-168.5"/>
<text text-anchor="middle" x="1096.5" y="-175.5" font-family="Helvetica,sans-Serif" font-size="10.00">main.cpp</text>
</a>
</g>
</g>
<!-- Node2 -->
<g id="node2" class="node">
<title>Node2</title>
<g id="a_node2"><a xlink:title=" ">
<polygon fill="none" stroke="#bfbfbf" points="623,-0.5 623,-19.5 686,-19.5 686,-0.5 623,-0.5"/>
<text text-anchor="middle" x="654.5" y="-7.5" font-family="Helvetica,sans-Serif" font-size="10.00">Arduino.h</text>
</a>
</g>
</g>
<!-- Node1&#45;&gt;Node2 -->
<g id="edge1" class="edge">
<title>Node1&#45;&gt;Node2</title>
<path fill="none" stroke="midnightblue" d="M1065.32,-176.52C961.88,-174.6 630.9,-165.9 530.5,-132 486.93,-117.29 465.52,-116.37 443.5,-76 439.24,-68.2 437.91,-62.91 443.5,-56 464.36,-30.22 557.33,-18.57 612.66,-13.84"/>
<polygon fill="midnightblue" stroke="midnightblue" points="613.18,-17.31 622.86,-13.01 612.61,-10.34 613.18,-17.31"/>
</g>
<!-- Node3 -->
<g id="node3" class="node">
<title>Node3</title>
<g id="a_node3"><a xlink:href="ErrorDisplay_8h.html" target="_top" xlink:title=" ">
<polygon fill="none" stroke="black" points="57.5,-56.5 57.5,-75.5 141.5,-75.5 141.5,-56.5 57.5,-56.5"/>
<text text-anchor="middle" x="99.5" y="-63.5" font-family="Helvetica,sans-Serif" font-size="10.00">ErrorDisplay.h</text>
</a>
</g>
</g>
<!-- Node1&#45;&gt;Node3 -->
<g id="edge2" class="edge">
<title>Node1&#45;&gt;Node3</title>
<path fill="none" stroke="midnightblue" d="M1065.39,-176.79C913.13,-175.61 250.43,-168.41 166.5,-132 143.13,-121.86 123.21,-99.68 111.3,-84.05"/>
<polygon fill="midnightblue" stroke="midnightblue" points="113.97,-81.78 105.25,-75.76 108.32,-85.9 113.97,-81.78"/>
</g>
<!-- Node4 -->
<g id="node4" class="node">
<title>Node4</title>
<g id="a_node4"><a xlink:href="PayloadConfig_8h.html" target="_top" xlink:title=" ">
<polygon fill="none" stroke="black" points="2014,-0.5 2014,-19.5 2109,-19.5 2109,-0.5 2014,-0.5"/>
<text text-anchor="middle" x="2061.5" y="-7.5" font-family="Helvetica,sans-Serif" font-size="10.00">PayloadConfig.h</text>
</a>
</g>
</g>
<!-- Node1&#45;&gt;Node4 -->
<g id="edge7" class="edge">
<title>Node1&#45;&gt;Node4</title>
<path fill="none" stroke="midnightblue" d="M1127.74,-176.54C1298.73,-173.92 2122.65,-160.04 2375.5,-132 2509.44,-117.14 2587.46,-179.72 2673.5,-76 2679.18,-69.16 2679.55,-62.51 2673.5,-56 2636.23,-15.89 2264.2,-11.18 2119.06,-10.88"/>
<polygon fill="midnightblue" stroke="midnightblue" points="2119.01,-7.38 2109.01,-10.87 2119,-14.38 2119.01,-7.38"/>
</g>
<!-- Node7 -->
<g id="node7" class="node">
<title>Node7</title>
<g id="a_node7"><a xlink:href="Sensor_8h.html" target="_top" xlink:title=" ">
<polygon fill="none" stroke="black" points="1119.5,-56.5 1119.5,-75.5 1177.5,-75.5 1177.5,-56.5 1119.5,-56.5"/>
<text text-anchor="middle" x="1148.5" y="-63.5" font-family="Helvetica,sans-Serif" font-size="10.00">Sensor.h</text>
</a>
</g>
</g>
<!-- Node1&#45;&gt;Node7 -->
<g id="edge8" class="edge">
<title>Node1&#45;&gt;Node7</title>
<path fill="none" stroke="midnightblue" d="M1127.58,-172.63C1151.73,-167.43 1183.69,-156.17 1199.5,-132 1211.5,-113.66 1191.01,-94.06 1172.53,-81.23"/>
<polygon fill="midnightblue" stroke="midnightblue" points="1174.33,-78.22 1164.04,-75.68 1170.5,-84.08 1174.33,-78.22"/>
</g>
<!-- Node8 -->
<g id="node8" class="node">
<title>Node8</title>
<g id="a_node8"><a xlink:href="Storage_8h.html" target="_top" xlink:title=" ">
<polygon fill="none" stroke="black" points="256,-56.5 256,-75.5 319,-75.5 319,-56.5 256,-56.5"/>
<text text-anchor="middle" x="287.5" y="-63.5" font-family="Helvetica,sans-Serif" font-size="10.00">Storage.h</text>
</a>
</g>
</g>
<!-- Node1&#45;&gt;Node8 -->
<g id="edge10" class="edge">
<title>Node1&#45;&gt;Node8</title>
<path fill="none" stroke="midnightblue" d="M1065.17,-176.28C921.46,-172.85 331.01,-157.24 301.5,-132 288.5,-120.88 285.86,-100.85 285.94,-85.95"/>
<polygon fill="midnightblue" stroke="midnightblue" points="289.45,-85.94 286.41,-75.79 282.45,-85.62 289.45,-85.94"/>
</g>
<!-- Node9 -->
<g id="node9" class="node">
<title>Node9</title>
<g id="a_node9"><a xlink:href="AS7331Sensor_8h.html" target="_top" xlink:title=" ">
<polygon fill="none" stroke="black" points="1247,-112.5 1247,-131.5 1342,-131.5 1342,-112.5 1247,-112.5"/>
<text text-anchor="middle" x="1294.5" y="-119.5" font-family="Helvetica,sans-Serif" font-size="10.00">AS7331Sensor.h</text>
</a>
</g>
</g>
<!-- Node1&#45;&gt;Node9 -->
<g id="edge12" class="edge">
<title>Node1&#45;&gt;Node9</title>
<path fill="none" stroke="midnightblue" d="M1127.87,-168.44C1161.76,-159.2 1215.9,-144.44 1253.22,-134.26"/>
<polygon fill="midnightblue" stroke="midnightblue" points="1254.55,-137.52 1263.27,-131.52 1252.7,-130.77 1254.55,-137.52"/>
</g>
<!-- Node13 -->
<g id="node13" class="node">
<title>Node13</title>
<g id="a_node13"><a xlink:href="BME280Sensor_8h.html" target="_top" xlink:title=" ">
<polygon fill="none" stroke="black" points="883.5,-112.5 883.5,-131.5 981.5,-131.5 981.5,-112.5 883.5,-112.5"/>
<text text-anchor="middle" x="932.5" y="-119.5" font-family="Helvetica,sans-Serif" font-size="10.00">BME280Sensor.h</text>
</a>
</g>
</g>
<!-- Node1&#45;&gt;Node13 -->
<g id="edge17" class="edge">
<title>Node1&#45;&gt;Node13</title>
<path fill="none" stroke="midnightblue" d="M1070.51,-168.44C1042.8,-159.32 998.75,-144.81 967.88,-134.65"/>
<polygon fill="midnightblue" stroke="midnightblue" points="968.96,-131.32 958.36,-131.52 966.77,-137.97 968.96,-131.32"/>
</g>
<!-- Node15 -->
<g id="node15" class="node">
<title>Node15</title>
<g id="a_node15"><a xlink:href="BME680Sensor_8h.html" target="_top" xlink:title=" ">
<polygon fill="none" stroke="black" points="1763.5,-112.5 1763.5,-131.5 1861.5,-131.5 1861.5,-112.5 1763.5,-112.5"/>
<text text-anchor="middle" x="1812.5" y="-119.5" font-family="Helvetica,sans-Serif" font-size="10.00">BME680Sensor.h</text>
</a>
</g>
</g>
<!-- Node1&#45;&gt;Node15 -->
<g id="edge20" class="edge">
<title>Node1&#45;&gt;Node15</title>
<path fill="none" stroke="midnightblue" d="M1127.73,-174.64C1237.6,-166.36 1607.55,-138.46 1753.03,-127.49"/>
<polygon fill="midnightblue" stroke="midnightblue" points="1753.4,-130.97 1763.11,-126.73 1752.87,-123.99 1753.4,-130.97"/>
</g>
<!-- Node19 -->
<g id="node19" class="node">
<title>Node19</title>
<g id="a_node19"><a xlink:href="DS3231Sensor_8h.html" target="_top" xlink:title=" ">
<polygon fill="none" stroke="black" points="1578,-112.5 1578,-131.5 1673,-131.5 1673,-112.5 1578,-112.5"/>
<text text-anchor="middle" x="1625.5" y="-119.5" font-family="Helvetica,sans-Serif" font-size="10.00">DS3231Sensor.h</text>
</a>
</g>
</g>
<!-- Node1&#45;&gt;Node19 -->
<g id="edge28" class="edge">
<title>Node1&#45;&gt;Node19</title>
<path fill="none" stroke="midnightblue" d="M1127.57,-174.74C1201.86,-169.19 1395.82,-153.83 1567.88,-132.14"/>
<polygon fill="midnightblue" stroke="midnightblue" points="1568.39,-135.6 1577.87,-130.87 1567.51,-128.66 1568.39,-135.6"/>
</g>
<!-- Node21 -->
<g id="node21" class="node">
<title>Node21</title>
<g id="a_node21"><a xlink:href="ENS160Sensor_8h.html" target="_top" xlink:title=" ">
<polygon fill="none" stroke="black" points="662,-112.5 662,-131.5 757,-131.5 757,-112.5 662,-112.5"/>
<text text-anchor="middle" x="709.5" y="-119.5" font-family="Helvetica,sans-Serif" font-size="10.00">ENS160Sensor.h</text>
</a>
</g>
</g>
<!-- Node1&#45;&gt;Node21 -->
<g id="edge31" class="edge">
<title>Node1&#45;&gt;Node21</title>
<path fill="none" stroke="midnightblue" d="M1065.07,-172.94C1008.03,-165.52 883.37,-149.08 767.21,-132.08"/>
<polygon fill="midnightblue" stroke="midnightblue" points="767.48,-128.58 757.07,-130.59 766.46,-135.5 767.48,-128.58"/>
</g>
<!-- Node23 -->
<g id="node23" class="node">
<title>Node23</title>
<g id="a_node23"><a xlink:href="GeigerSensor_8h.html" target="_top" xlink:title=" ">
<polygon fill="none" stroke="black" points="775.5,-112.5 775.5,-131.5 865.5,-131.5 865.5,-112.5 775.5,-112.5"/>
<text text-anchor="middle" x="820.5" y="-119.5" font-family="Helvetica,sans-Serif" font-size="10.00">GeigerSensor.h</text>
</a>
</g>
</g>
<!-- Node1&#45;&gt;Node23 -->
<g id="edge35" class="edge">
<title>Node1&#45;&gt;Node23</title>
<path fill="none" stroke="midnightblue" d="M1065.38,-170.91C1018.96,-161.83 930.98,-144.62 874.09,-133.49"/>
<polygon fill="midnightblue" stroke="midnightblue" points="874.68,-130.03 864.19,-131.55 873.34,-136.9 874.68,-130.03"/>
</g>
<!-- Node24 -->
<g id="node24" class="node">
<title>Node24</title>
<g id="a_node24"><a xlink:href="ICM20948Sensor_8h.html" target="_top" xlink:title=" ">
<polygon fill="none" stroke="black" points="2259,-112.5 2259,-131.5 2366,-131.5 2366,-112.5 2259,-112.5"/>
<text text-anchor="middle" x="2312.5" y="-119.5" font-family="Helvetica,sans-Serif" font-size="10.00">ICM20948Sensor.h</text>
</a>
</g>
</g>
<!-- Node1&#45;&gt;Node24 -->
<g id="edge38" class="edge">
<title>Node1&#45;&gt;Node24</title>
<path fill="none" stroke="midnightblue" d="M1127.78,-175.61C1288.88,-168.46 2026.04,-135.72 2248.66,-125.84"/>
<polygon fill="midnightblue" stroke="midnightblue" points="2249.03,-129.32 2258.87,-125.38 2248.72,-122.33 2249.03,-129.32"/>
</g>
<!-- Node27 -->
<g id="node27" class="node">
<title>Node27</title>
<g id="a_node27"><a xlink:href="INA260Sensor_8h.html" target="_top" xlink:title=" ">
<polygon fill="none" stroke="black" points="1360,-112.5 1360,-131.5 1453,-131.5 1453,-112.5 1360,-112.5"/>
<text text-anchor="middle" x="1406.5" y="-119.5" font-family="Helvetica,sans-Serif" font-size="10.00">INA260Sensor.h</text>
</a>
</g>
</g>
<!-- Node1&#45;&gt;Node27 -->
<g id="edge45" class="edge">
<title>Node1&#45;&gt;Node27</title>
<path fill="none" stroke="midnightblue" d="M1127.64,-171.58C1179.53,-162.54 1284.4,-144.27 1349.71,-132.89"/>
<polygon fill="midnightblue" stroke="midnightblue" points="1350.58,-136.29 1359.84,-131.13 1349.38,-129.4 1350.58,-136.29"/>
</g>
<!-- Node29 -->
<g id="node29" class="node">
<title>Node29</title>
<g id="a_node29"><a xlink:href="LSM9DS1Sensor_8h.html" target="_top" xlink:title=" ">
<polygon fill="none" stroke="black" points="1963.5,-112.5 1963.5,-131.5 2067.5,-131.5 2067.5,-112.5 1963.5,-112.5"/>
<text text-anchor="middle" x="2015.5" y="-119.5" font-family="Helvetica,sans-Serif" font-size="10.00">LSM9DS1Sensor.h</text>
</a>
</g>
</g>
<!-- Node1&#45;&gt;Node29 -->
<g id="edge50" class="edge">
<title>Node1&#45;&gt;Node29</title>
<path fill="none" stroke="midnightblue" d="M1127.84,-175.22C1232.85,-169.26 1581.96,-149.34 1870.5,-132 1897.61,-130.37 1927.56,-128.52 1953.17,-126.92"/>
<polygon fill="midnightblue" stroke="midnightblue" points="1953.73,-130.39 1963.49,-126.28 1953.29,-123.41 1953.73,-130.39"/>
</g>
<!-- Node31 -->
<g id="node31" class="node">
<title>Node31</title>
<g id="a_node31"><a xlink:href="MTK3339Sensor_8h.html" target="_top" xlink:title=" ">
<polygon fill="none" stroke="black" points="539.5,-112.5 539.5,-131.5 643.5,-131.5 643.5,-112.5 539.5,-112.5"/>
<text text-anchor="middle" x="591.5" y="-119.5" font-family="Helvetica,sans-Serif" font-size="10.00">MTK3339Sensor.h</text>
</a>
</g>
</g>
<!-- Node1&#45;&gt;Node31 -->
<g id="edge56" class="edge">
<title>Node1&#45;&gt;Node31</title>
<path fill="none" stroke="midnightblue" d="M1065.3,-174.29C992.86,-167.91 807.72,-151.02 653.5,-132 653.4,-131.99 653.3,-131.98 653.2,-131.96"/>
<polygon fill="midnightblue" stroke="midnightblue" points="653.94,-128.53 643.57,-130.72 653.05,-135.47 653.94,-128.53"/>
</g>
<!-- Node33 -->
<g id="node33" class="node">
<title>Node33</title>
<g id="a_node33"><a xlink:href="SGP30Sensor_8h.html" target="_top" xlink:title=" ">
<polygon fill="none" stroke="black" points="1471,-112.5 1471,-131.5 1560,-131.5 1560,-112.5 1471,-112.5"/>
<text text-anchor="middle" x="1515.5" y="-119.5" font-family="Helvetica,sans-Serif" font-size="10.00">SGP30Sensor.h</text>
</a>
</g>
</g>
<!-- Node1&#45;&gt;Node33 -->
<g id="edge61" class="edge">
<title>Node1&#45;&gt;Node33</title>
<path fill="none" stroke="midnightblue" d="M1127.9,-173.63C1189.66,-166.9 1331.53,-150.91 1460.91,-132.18"/>
<polygon fill="midnightblue" stroke="midnightblue" points="1461.6,-135.62 1470.99,-130.71 1460.59,-128.69 1461.6,-135.62"/>
</g>
<!-- Node36 -->
<g id="node36" class="node">
<title>Node36</title>
<g id="a_node36"><a xlink:href="SHT31Sensor_8h.html" target="_top" xlink:title=" ">
<polygon fill="none" stroke="black" points="1000,-112.5 1000,-131.5 1089,-131.5 1089,-112.5 1000,-112.5"/>
<text text-anchor="middle" x="1044.5" y="-119.5" font-family="Helvetica,sans-Serif" font-size="10.00">SHT31Sensor.h</text>
</a>
</g>
</g>
<!-- Node1&#45;&gt;Node36 -->
<g id="edge67" class="edge">
<title>Node1&#45;&gt;Node36</title>
<path fill="none" stroke="midnightblue" d="M1087.91,-168.08C1080.34,-160.22 1069.12,-148.57 1059.99,-139.08"/>
<polygon fill="midnightblue" stroke="midnightblue" points="1062.38,-136.53 1052.93,-131.75 1057.34,-141.38 1062.38,-136.53"/>
</g>
<!-- Node38 -->
<g id="node38" class="node">
<title>Node38</title>
<g id="a_node38"><a xlink:href="TempSensor_8h.html" target="_top" xlink:title=" ">
<polygon fill="none" stroke="black" points="1106.5,-112.5 1106.5,-131.5 1190.5,-131.5 1190.5,-112.5 1106.5,-112.5"/>
<text text-anchor="middle" x="1148.5" y="-119.5" font-family="Helvetica,sans-Serif" font-size="10.00">TempSensor.h</text>
</a>
</g>
</g>
<!-- Node1&#45;&gt;Node38 -->
<g id="edge73" class="edge">
<title>Node1&#45;&gt;Node38</title>
<path fill="none" stroke="midnightblue" d="M1105.09,-168.08C1112.66,-160.22 1123.88,-148.57 1133.01,-139.08"/>
<polygon fill="midnightblue" stroke="midnightblue" points="1135.66,-141.38 1140.07,-131.75 1130.62,-136.53 1135.66,-141.38"/>
</g>
<!-- Node39 -->
<g id="node39" class="node">
<title>Node39</title>
<g id="a_node39"><a xlink:href="RadioStorage_8h.html" target="_top" xlink:title=" ">
<polygon fill="none" stroke="black" points="310,-112.5 310,-131.5 401,-131.5 401,-112.5 310,-112.5"/>
<text text-anchor="middle" x="355.5" y="-119.5" font-family="Helvetica,sans-Serif" font-size="10.00">RadioStorage.h</text>
</a>
</g>
</g>
<!-- Node1&#45;&gt;Node39 -->
<g id="edge75" class="edge">
<title>Node1&#45;&gt;Node39</title>
<path fill="none" stroke="midnightblue" d="M1065.2,-175.86C968.37,-172.12 665.24,-158.94 415.5,-132 414.2,-131.86 412.89,-131.71 411.57,-131.56"/>
<polygon fill="midnightblue" stroke="midnightblue" points="411.67,-128.04 401.31,-130.27 410.8,-134.99 411.67,-128.04"/>
</g>
<!-- Node40 -->
<g id="node40" class="node">
<title>Node40</title>
<g id="a_node40"><a xlink:href="SDStorage_8h.html" target="_top" xlink:title=" ">
<polygon fill="none" stroke="black" points="176,-112.5 176,-131.5 253,-131.5 253,-112.5 176,-112.5"/>
<text text-anchor="middle" x="214.5" y="-119.5" font-family="Helvetica,sans-Serif" font-size="10.00">SDStorage.h</text>
</a>
</g>
</g>
<!-- Node1&#45;&gt;Node40 -->
<g id="edge79" class="edge">
<title>Node1&#45;&gt;Node40</title>
<path fill="none" stroke="midnightblue" d="M1065.15,-176.58C955.24,-174.85 577.27,-166.59 267.5,-132 266.2,-131.85 264.87,-131.7 263.54,-131.53"/>
<polygon fill="midnightblue" stroke="midnightblue" points="263.6,-128.01 253.22,-130.1 262.64,-134.94 263.6,-128.01"/>
</g>
<!-- Node3&#45;&gt;Node2 -->
<g id="edge3" class="edge">
<title>Node3&#45;&gt;Node2</title>
<path fill="none" stroke="midnightblue" d="M141.76,-57.26C144.71,-56.8 147.65,-56.38 150.5,-56 321.25,-33.35 526.1,-19 612.64,-13.52"/>
<polygon fill="midnightblue" stroke="midnightblue" points="613.08,-17 622.85,-12.88 612.65,-10.01 613.08,-17"/>
</g>
<!-- Node3&#45;&gt;Node4 -->
<g id="edge4" class="edge">
<title>Node3&#45;&gt;Node4</title>
<path fill="none" stroke="midnightblue" d="M141.73,-57.04C144.69,-56.64 147.64,-56.28 150.5,-56 523.41,-18.92 1725.67,-12.24 2003.73,-11.18"/>
<polygon fill="midnightblue" stroke="midnightblue" points="2004,-14.68 2013.99,-11.14 2003.98,-7.68 2004,-14.68"/>
</g>
<!-- Node5 -->
<g id="node5" class="node">
<title>Node5</title>
<g id="a_node5"><a xlink:title=" ">
<polygon fill="none" stroke="#bfbfbf" points="0,-0.5 0,-19.5 95,-19.5 95,-0.5 0,-0.5"/>
<text text-anchor="middle" x="47.5" y="-7.5" font-family="Helvetica,sans-Serif" font-size="10.00">pico/multicore.h</text>
</a>
</g>
</g>
<!-- Node3&#45;&gt;Node5 -->
<g id="edge5" class="edge">
<title>Node3&#45;&gt;Node5</title>
<path fill="none" stroke="midnightblue" d="M90.91,-56.08C83.34,-48.22 72.12,-36.57 62.99,-27.08"/>
<polygon fill="midnightblue" stroke="midnightblue" points="65.38,-24.53 55.93,-19.75 60.34,-29.38 65.38,-24.53"/>
</g>
<!-- Node6 -->
<g id="node6" class="node">
<title>Node6</title>
<g id="a_node6"><a xlink:title=" ">
<polygon fill="none" stroke="#bfbfbf" points="113.5,-0.5 113.5,-19.5 189.5,-19.5 189.5,-0.5 113.5,-0.5"/>
<text text-anchor="middle" x="151.5" y="-7.5" font-family="Helvetica,sans-Serif" font-size="10.00">pico/stdlib.h</text>
</a>
</g>
</g>
<!-- Node3&#45;&gt;Node6 -->
<g id="edge6" class="edge">
<title>Node3&#45;&gt;Node6</title>
<path fill="none" stroke="midnightblue" d="M108.09,-56.08C115.66,-48.22 126.88,-36.57 136.01,-27.08"/>
<polygon fill="midnightblue" stroke="midnightblue" points="138.66,-29.38 143.07,-19.75 133.62,-24.53 138.66,-29.38"/>
</g>
<!-- Node7&#45;&gt;Node2 -->
<g id="edge9" class="edge">
<title>Node7&#45;&gt;Node2</title>
<path fill="none" stroke="midnightblue" d="M1119.12,-57.63C1116.22,-57.03 1113.31,-56.47 1110.5,-56 959.19,-30.73 777.08,-18 696.44,-13.25"/>
<polygon fill="midnightblue" stroke="midnightblue" points="696.39,-9.74 686.2,-12.66 695.99,-16.73 696.39,-9.74"/>
</g>
<!-- Node8&#45;&gt;Node2 -->
<g id="edge11" class="edge">
<title>Node8&#45;&gt;Node2</title>
<path fill="none" stroke="midnightblue" d="M319.13,-58.58C323.94,-57.67 328.85,-56.78 333.5,-56 433.44,-39.23 551.62,-23.79 612.92,-16.1"/>
<polygon fill="midnightblue" stroke="midnightblue" points="613.49,-19.56 622.97,-14.85 612.62,-12.61 613.49,-19.56"/>
</g>
<!-- Node9&#45;&gt;Node7 -->
<g id="edge16" class="edge">
<title>Node9&#45;&gt;Node7</title>
<path fill="none" stroke="midnightblue" d="M1271.37,-112.44C1247.02,-103.44 1208.49,-89.19 1181.08,-79.05"/>
<polygon fill="midnightblue" stroke="midnightblue" points="1182.12,-75.7 1171.53,-75.52 1179.69,-82.27 1182.12,-75.7"/>
</g>
<!-- Node10 -->
<g id="node10" class="node">
<title>Node10</title>
<g id="a_node10"><a xlink:title=" ">
<polygon fill="none" stroke="#bfbfbf" points="1196,-56.5 1196,-75.5 1309,-75.5 1309,-56.5 1196,-56.5"/>
<text text-anchor="middle" x="1252.5" y="-63.5" font-family="Helvetica,sans-Serif" font-size="10.00">SparkFun_AS7331.h</text>
</a>
</g>
</g>
<!-- Node9&#45;&gt;Node10 -->
<g id="edge13" class="edge">
<title>Node9&#45;&gt;Node10</title>
<path fill="none" stroke="midnightblue" d="M1287.56,-112.08C1281.57,-104.38 1272.75,-93.03 1265.45,-83.65"/>
<polygon fill="midnightblue" stroke="midnightblue" points="1268.21,-81.5 1259.31,-75.75 1262.68,-85.79 1268.21,-81.5"/>
</g>
<!-- Node11 -->
<g id="node11" class="node">
<title>Node11</title>
<g id="a_node11"><a xlink:title=" ">
<polygon fill="none" stroke="#bfbfbf" points="1053.5,-56.5 1053.5,-75.5 1101.5,-75.5 1101.5,-56.5 1053.5,-56.5"/>
<text text-anchor="middle" x="1077.5" y="-63.5" font-family="Helvetica,sans-Serif" font-size="10.00">Wire.h</text>
</a>
</g>
</g>
<!-- Node9&#45;&gt;Node11 -->
<g id="edge14" class="edge">
<title>Node9&#45;&gt;Node11</title>
<path fill="none" stroke="midnightblue" d="M1258.47,-112.48C1223.35,-104.12 1168.21,-90.81 1111.49,-76.21"/>
<polygon fill="midnightblue" stroke="midnightblue" points="1112.19,-72.77 1101.63,-73.66 1110.44,-79.55 1112.19,-72.77"/>
</g>
<!-- Node12 -->
<g id="node12" class="node">
<title>Node12</title>
<g id="a_node12"><a xlink:title=" ">
<polygon fill="none" stroke="#bfbfbf" points="1489,-56.5 1489,-75.5 1542,-75.5 1542,-56.5 1489,-56.5"/>
<text text-anchor="middle" x="1515.5" y="-63.5" font-family="Helvetica,sans-Serif" font-size="10.00">string.h</text>
</a>
</g>
</g>
<!-- Node9&#45;&gt;Node12 -->
<g id="edge15" class="edge">
<title>Node9&#45;&gt;Node12</title>
<path fill="none" stroke="midnightblue" d="M1330.54,-112.44C1365.99,-103.99 1421.9,-90.56 1478.86,-76.39"/>
<polygon fill="midnightblue" stroke="midnightblue" points="1479.9,-79.73 1488.76,-73.92 1478.21,-72.94 1479.9,-79.73"/>
</g>
<!-- Node13&#45;&gt;Node7 -->
<g id="edge18" class="edge">
<title>Node13&#45;&gt;Node7</title>
<path fill="none" stroke="midnightblue" d="M966.73,-112.44C1005.55,-102.74 1068.73,-86.94 1109.44,-76.76"/>
<polygon fill="midnightblue" stroke="midnightblue" points="1110.43,-80.13 1119.28,-74.3 1108.73,-73.33 1110.43,-80.13"/>
</g>
<!-- Node14 -->
<g id="node14" class="node">
<title>Node14</title>
<g id="a_node14"><a xlink:title=" ">
<polygon fill="none" stroke="#bfbfbf" points="767.5,-56.5 767.5,-75.5 877.5,-75.5 877.5,-56.5 767.5,-56.5"/>
<text text-anchor="middle" x="822.5" y="-63.5" font-family="Helvetica,sans-Serif" font-size="10.00">SparkFunBME280.h</text>
</a>
</g>
</g>
<!-- Node13&#45;&gt;Node14 -->
<g id="edge19" class="edge">
<title>Node13&#45;&gt;Node14</title>
<path fill="none" stroke="midnightblue" d="M914.83,-112.32C897.11,-103.62 869.6,-90.12 849.21,-80.11"/>
<polygon fill="midnightblue" stroke="midnightblue" points="850.65,-76.92 840.13,-75.65 847.56,-83.2 850.65,-76.92"/>
</g>
<!-- Node15&#45;&gt;Node4 -->
<g id="edge26" class="edge">
<title>Node15&#45;&gt;Node4</title>
<path fill="none" stroke="midnightblue" d="M1861.67,-117.31C1921.16,-111.87 2016.58,-99.66 2042.5,-76 2055.37,-64.25 2059.71,-44.32 2061.08,-29.62"/>
<polygon fill="midnightblue" stroke="midnightblue" points="2064.57,-29.8 2061.64,-19.62 2057.58,-29.4 2064.57,-29.8"/>
</g>
<!-- Node15&#45;&gt;Node7 -->
<g id="edge27" class="edge">
<title>Node15&#45;&gt;Node7</title>
<path fill="none" stroke="midnightblue" d="M1763.44,-117.57C1628.46,-108.12 1257.43,-82.05 1187.99,-75.41"/>
<polygon fill="midnightblue" stroke="midnightblue" points="1188.12,-71.9 1177.79,-74.27 1187.35,-78.86 1188.12,-71.9"/>
</g>
<!-- Node15&#45;&gt;Node11 -->
<g id="edge24" class="edge">
<title>Node15&#45;&gt;Node11</title>
<path fill="none" stroke="midnightblue" d="M1763.43,-117.53C1739.09,-115.83 1709.25,-113.77 1682.5,-112 1431.68,-95.42 1363.57,-117.14 1111.72,-75.85"/>
<polygon fill="midnightblue" stroke="midnightblue" points="1111.96,-72.34 1101.53,-74.16 1110.82,-79.25 1111.96,-72.34"/>
</g>
<!-- Node15&#45;&gt;Node12 -->
<g id="edge25" class="edge">
<title>Node15&#45;&gt;Node12</title>
<path fill="none" stroke="midnightblue" d="M1765.44,-112.44C1706.4,-101.71 1606.39,-83.53 1552.52,-73.73"/>
<polygon fill="midnightblue" stroke="midnightblue" points="1552.85,-70.23 1542.38,-71.89 1551.59,-77.12 1552.85,-70.23"/>
</g>
<!-- Node16 -->
<g id="node16" class="node">
<title>Node16</title>
<g id="a_node16"><a xlink:title=" ">
<polygon fill="none" stroke="#bfbfbf" points="1923.5,-56.5 1923.5,-75.5 2033.5,-75.5 2033.5,-56.5 1923.5,-56.5"/>
<text text-anchor="middle" x="1978.5" y="-63.5" font-family="Helvetica,sans-Serif" font-size="10.00">Adafruit_BME680.h</text>
</a>
</g>
</g>
<!-- Node15&#45;&gt;Node16 -->
<g id="edge21" class="edge">
<title>Node15&#45;&gt;Node16</title>
<path fill="none" stroke="midnightblue" d="M1838.8,-112.44C1866.85,-103.32 1911.44,-88.81 1942.68,-78.65"/>
<polygon fill="midnightblue" stroke="midnightblue" points="1943.89,-81.94 1952.32,-75.52 1941.73,-75.28 1943.89,-81.94"/>
</g>
<!-- Node17 -->
<g id="node17" class="node">
<title>Node17</title>
<g id="a_node17"><a xlink:title=" ">
<polygon fill="none" stroke="#bfbfbf" points="2261.5,-56.5 2261.5,-75.5 2363.5,-75.5 2363.5,-56.5 2261.5,-56.5"/>
<text text-anchor="middle" x="2312.5" y="-63.5" font-family="Helvetica,sans-Serif" font-size="10.00">Adafruit_Sensor.h</text>
</a>
</g>
</g>
<!-- Node15&#45;&gt;Node17 -->
<g id="edge22" class="edge">
<title>Node15&#45;&gt;Node17</title>
<path fill="none" stroke="midnightblue" d="M1861.75,-116.72C1941.36,-109.65 2103.49,-94.54 2251.3,-76.1"/>
<polygon fill="midnightblue" stroke="midnightblue" points="2251.97,-79.54 2261.46,-74.82 2251.1,-72.6 2251.97,-79.54"/>
</g>
<!-- Node18 -->
<g id="node18" class="node">
<title>Node18</title>
<g id="a_node18"><a xlink:title=" ">
<polygon fill="none" stroke="#bfbfbf" points="1864,-56.5 1864,-75.5 1905,-75.5 1905,-56.5 1864,-56.5"/>
<text text-anchor="middle" x="1884.5" y="-63.5" font-family="Helvetica,sans-Serif" font-size="10.00">SPI.h</text>
</a>
</g>
</g>
<!-- Node15&#45;&gt;Node18 -->
<g id="edge23" class="edge">
<title>Node15&#45;&gt;Node18</title>
<path fill="none" stroke="midnightblue" d="M1824.07,-112.32C1834.92,-104.18 1851.38,-91.84 1864.38,-82.09"/>
<polygon fill="midnightblue" stroke="midnightblue" points="1866.82,-84.63 1872.72,-75.83 1862.62,-79.03 1866.82,-84.63"/>
</g>
<!-- Node19&#45;&gt;Node7 -->
<g id="edge30" class="edge">
<title>Node19&#45;&gt;Node7</title>
<path fill="none" stroke="midnightblue" d="M1577.87,-113.13C1575.04,-112.73 1572.24,-112.35 1569.5,-112 1403.56,-90.87 1357.58,-102.76 1187.83,-75.82"/>
<polygon fill="midnightblue" stroke="midnightblue" points="1188.23,-72.34 1177.8,-74.2 1187.12,-79.25 1188.23,-72.34"/>
</g>
<!-- Node20 -->
<g id="node20" class="node">
<title>Node20</title>
<g id="a_node20"><a xlink:title=" ">
<polygon fill="none" stroke="#bfbfbf" points="1789.5,-56.5 1789.5,-75.5 1845.5,-75.5 1845.5,-56.5 1789.5,-56.5"/>
<text text-anchor="middle" x="1817.5" y="-63.5" font-family="Helvetica,sans-Serif" font-size="10.00">RTClib.h</text>
</a>
</g>
</g>
<!-- Node19&#45;&gt;Node20 -->
<g id="edge29" class="edge">
<title>Node19&#45;&gt;Node20</title>
<path fill="none" stroke="midnightblue" d="M1655.92,-112.44C1689.46,-103.01 1743.45,-87.83 1779.69,-77.63"/>
<polygon fill="midnightblue" stroke="midnightblue" points="1780.73,-80.98 1789.41,-74.9 1778.83,-74.24 1780.73,-80.98"/>
</g>
<!-- Node21&#45;&gt;Node7 -->
<g id="edge33" class="edge">
<title>Node21&#45;&gt;Node7</title>
<path fill="none" stroke="midnightblue" d="M757.06,-113.3C760.25,-112.84 763.42,-112.4 766.5,-112 915.64,-92.44 957.18,-101.36 1108.96,-76.07"/>
<polygon fill="midnightblue" stroke="midnightblue" points="1109.84,-79.47 1119.12,-74.35 1108.67,-72.57 1109.84,-79.47"/>
</g>
<!-- Node21&#45;&gt;Node11 -->
<g id="edge32" class="edge">
<title>Node21&#45;&gt;Node11</title>
<path fill="none" stroke="midnightblue" d="M757.07,-113.39C760.26,-112.91 763.43,-112.44 766.5,-112 886.57,-94.75 920.56,-100.14 1043.27,-76"/>
<polygon fill="midnightblue" stroke="midnightblue" points="1044.32,-79.36 1053.44,-73.97 1042.95,-72.5 1044.32,-79.36"/>
</g>
<!-- Node22 -->
<g id="node22" class="node">
<title>Node22</title>
<g id="a_node22"><a xlink:title=" ">
<polygon fill="none" stroke="#bfbfbf" points="598,-56.5 598,-75.5 711,-75.5 711,-56.5 598,-56.5"/>
<text text-anchor="middle" x="654.5" y="-63.5" font-family="Helvetica,sans-Serif" font-size="10.00">SparkFun_ENS160.h</text>
</a>
</g>
</g>
<!-- Node21&#45;&gt;Node22 -->
<g id="edge34" class="edge">
<title>Node21&#45;&gt;Node22</title>
<path fill="none" stroke="midnightblue" d="M700.42,-112.08C692.33,-104.14 680.3,-92.34 670.59,-82.8"/>
<polygon fill="midnightblue" stroke="midnightblue" points="673,-80.26 663.41,-75.75 668.1,-85.25 673,-80.26"/>
</g>
<!-- Node23&#45;&gt;Node2 -->
<g id="edge36" class="edge">
<title>Node23&#45;&gt;Node2</title>
<path fill="none" stroke="midnightblue" d="M807.47,-112.37C778.99,-93.49 710.92,-48.38 675.98,-25.24"/>
<polygon fill="midnightblue" stroke="midnightblue" points="677.73,-22.2 667.47,-19.59 673.87,-28.03 677.73,-22.2"/>
</g>
<!-- Node23&#45;&gt;Node7 -->
<g id="edge37" class="edge">
<title>Node23&#45;&gt;Node7</title>
<path fill="none" stroke="midnightblue" d="M865.57,-113.44C868.59,-112.95 871.59,-112.46 874.5,-112 976.1,-95.78 1004.64,-96.2 1109.08,-76.15"/>
<polygon fill="midnightblue" stroke="midnightblue" points="1109.94,-79.55 1119.09,-74.21 1108.61,-72.68 1109.94,-79.55"/>
</g>
<!-- Node24&#45;&gt;Node4 -->
<g id="edge43" class="edge">
<title>Node24&#45;&gt;Node4</title>
<path fill="none" stroke="midnightblue" d="M2330.8,-112.33C2354.4,-100.02 2390.39,-76.67 2372.5,-56 2340.4,-18.92 2199.96,-11.73 2119.21,-10.73"/>
<polygon fill="midnightblue" stroke="midnightblue" points="2119.23,-7.23 2109.19,-10.64 2119.16,-14.23 2119.23,-7.23"/>
</g>
<!-- Node24&#45;&gt;Node7 -->
<g id="edge44" class="edge">
<title>Node24&#45;&gt;Node7</title>
<path fill="none" stroke="midnightblue" d="M2258.95,-118.92C2048.79,-110.77 1287.42,-81.17 1188.02,-75.15"/>
<polygon fill="midnightblue" stroke="midnightblue" points="1188.02,-71.64 1177.78,-74.37 1187.49,-78.62 1188.02,-71.64"/>
</g>
<!-- Node24&#45;&gt;Node12 -->
<g id="edge42" class="edge">
<title>Node24&#45;&gt;Node12</title>
<path fill="none" stroke="midnightblue" d="M2258.98,-118.71C2139.11,-113.36 1840.02,-98.73 1590.5,-76 1578.08,-74.87 1564.53,-73.33 1552.41,-71.85"/>
<polygon fill="midnightblue" stroke="midnightblue" points="1552.55,-68.34 1542.19,-70.58 1551.68,-75.29 1552.55,-68.34"/>
</g>
<!-- Node24&#45;&gt;Node17 -->
<g id="edge41" class="edge">
<title>Node24&#45;&gt;Node17</title>
<path fill="none" stroke="midnightblue" d="M2312.5,-112.08C2312.5,-105.01 2312.5,-94.86 2312.5,-85.99"/>
<polygon fill="midnightblue" stroke="midnightblue" points="2316,-85.75 2312.5,-75.75 2309,-85.75 2316,-85.75"/>
</g>
<!-- Node25 -->
<g id="node25" class="node">
<title>Node25</title>
<g id="a_node25"><a xlink:title=" ">
<polygon fill="none" stroke="#bfbfbf" points="2420,-56.5 2420,-75.5 2539,-75.5 2539,-56.5 2420,-56.5"/>
<text text-anchor="middle" x="2479.5" y="-63.5" font-family="Helvetica,sans-Serif" font-size="10.00">Adafruit_ICM20948.h</text>
</a>
</g>
</g>
<!-- Node24&#45;&gt;Node25 -->
<g id="edge39" class="edge">
<title>Node24&#45;&gt;Node25</title>
<path fill="none" stroke="midnightblue" d="M2338.96,-112.44C2367.18,-103.32 2412.04,-88.81 2443.47,-78.65"/>
<polygon fill="midnightblue" stroke="midnightblue" points="2444.72,-81.92 2453.16,-75.52 2442.57,-75.26 2444.72,-81.92"/>
</g>
<!-- Node26 -->
<g id="node26" class="node">
<title>Node26</title>
<g id="a_node26"><a xlink:title=" ">
<polygon fill="none" stroke="#bfbfbf" points="2557,-56.5 2557,-75.5 2664,-75.5 2664,-56.5 2557,-56.5"/>
<text text-anchor="middle" x="2610.5" y="-63.5" font-family="Helvetica,sans-Serif" font-size="10.00">Adafruit_ICM20X.h</text>
</a>
</g>
</g>
<!-- Node24&#45;&gt;Node26 -->
<g id="edge40" class="edge">
<title>Node24&#45;&gt;Node26</title>
<path fill="none" stroke="midnightblue" d="M2359.72,-112.44C2412.25,-102.92 2497.11,-87.55 2553.35,-77.36"/>
<polygon fill="midnightblue" stroke="midnightblue" points="2554.29,-80.74 2563.5,-75.52 2553.04,-73.86 2554.29,-80.74"/>
</g>
<!-- Node27&#45;&gt;Node2 -->
<g id="edge46" class="edge">
<title>Node27&#45;&gt;Node2</title>
<path fill="none" stroke="midnightblue" d="M1398.27,-112.28C1383.77,-97.59 1352.02,-68.31 1318.5,-56 1203.51,-13.77 823.47,-10.63 696.34,-10.79"/>
<polygon fill="midnightblue" stroke="midnightblue" points="696.23,-7.29 686.23,-10.81 696.24,-14.29 696.23,-7.29"/>
</g>
<!-- Node27&#45;&gt;Node7 -->
<g id="edge49" class="edge">
<title>Node27&#45;&gt;Node7</title>
<path fill="none" stroke="midnightblue" d="M1363.22,-112.43C1321.07,-104.01 1254.93,-90.6 1187.78,-76.02"/>
<polygon fill="midnightblue" stroke="midnightblue" points="1188.39,-72.57 1177.87,-73.86 1186.9,-79.41 1188.39,-72.57"/>
</g>
<!-- Node27&#45;&gt;Node12 -->
<g id="edge47" class="edge">
<title>Node27&#45;&gt;Node12</title>
<path fill="none" stroke="midnightblue" d="M1424.01,-112.32C1441.57,-103.62 1468.83,-90.12 1489.03,-80.11"/>
<polygon fill="midnightblue" stroke="midnightblue" points="1490.62,-83.23 1498.03,-75.65 1487.52,-76.96 1490.62,-83.23"/>
</g>
<!-- Node28 -->
<g id="node28" class="node">
<title>Node28</title>
<g id="a_node28"><a xlink:title=" ">
<polygon fill="none" stroke="#bfbfbf" points="1366,-56.5 1366,-75.5 1471,-75.5 1471,-56.5 1366,-56.5"/>
<text text-anchor="middle" x="1418.5" y="-63.5" font-family="Helvetica,sans-Serif" font-size="10.00">Adafruit_INA260.h</text>
</a>
</g>
</g>
<!-- Node27&#45;&gt;Node28 -->
<g id="edge48" class="edge">
<title>Node27&#45;&gt;Node28</title>
<path fill="none" stroke="midnightblue" d="M1408.48,-112.08C1410.07,-104.93 1412.36,-94.64 1414.35,-85.69"/>
<polygon fill="midnightblue" stroke="midnightblue" points="1417.8,-86.27 1416.56,-75.75 1410.97,-84.75 1417.8,-86.27"/>
</g>
<!-- Node29&#45;&gt;Node4 -->
<g id="edge54" class="edge">
<title>Node29&#45;&gt;Node4</title>
<path fill="none" stroke="midnightblue" d="M2034.8,-112.48C2048.93,-105.08 2067.06,-92.89 2075.5,-76 2082.9,-61.19 2077.62,-42.57 2071.53,-29.06"/>
<polygon fill="midnightblue" stroke="midnightblue" points="2074.54,-27.24 2066.93,-19.87 2068.28,-30.38 2074.54,-27.24"/>
</g>
<!-- Node29&#45;&gt;Node7 -->
<g id="edge55" class="edge">
<title>Node29&#45;&gt;Node7</title>
<path fill="none" stroke="midnightblue" d="M1963.5,-117.65C1935.87,-115.91 1901.35,-113.77 1870.5,-112 1570.28,-94.77 1490.23,-117.83 1187.72,-75.73"/>
<polygon fill="midnightblue" stroke="midnightblue" points="1188.17,-72.26 1177.78,-74.33 1187.2,-79.19 1188.17,-72.26"/>
</g>
<!-- Node29&#45;&gt;Node12 -->
<g id="edge53" class="edge">
<title>Node29&#45;&gt;Node12</title>
<path fill="none" stroke="midnightblue" d="M1963.46,-115.73C1883.32,-107.55 1724.87,-91.18 1590.5,-76 1578.1,-74.6 1564.56,-73 1552.44,-71.54"/>
<polygon fill="midnightblue" stroke="midnightblue" points="1552.57,-68.03 1542.22,-70.3 1551.72,-74.98 1552.57,-68.03"/>
</g>
<!-- Node29&#45;&gt;Node17 -->
<g id="edge52" class="edge">
<title>Node29&#45;&gt;Node17</title>
<path fill="none" stroke="midnightblue" d="M2062.56,-112.44C2114.91,-102.92 2199.49,-87.55 2255.54,-77.36"/>
<polygon fill="midnightblue" stroke="midnightblue" points="2256.45,-80.75 2265.66,-75.52 2255.19,-73.86 2256.45,-80.75"/>
</g>
<!-- Node30 -->
<g id="node30" class="node">
<title>Node30</title>
<g id="a_node30"><a xlink:title=" ">
<polygon fill="none" stroke="#bfbfbf" points="2127.5,-56.5 2127.5,-75.5 2243.5,-75.5 2243.5,-56.5 2127.5,-56.5"/>
<text text-anchor="middle" x="2185.5" y="-63.5" font-family="Helvetica,sans-Serif" font-size="10.00">Adafruit_LSM9DS1.h</text>
</a>
</g>
</g>
<!-- Node29&#45;&gt;Node30 -->
<g id="edge51" class="edge">
<title>Node29&#45;&gt;Node30</title>
<path fill="none" stroke="midnightblue" d="M2042.44,-112.44C2071.16,-103.32 2116.83,-88.81 2148.82,-78.65"/>
<polygon fill="midnightblue" stroke="midnightblue" points="2150.22,-81.88 2158.69,-75.52 2148.1,-75.21 2150.22,-81.88"/>
</g>
<!-- Node31&#45;&gt;Node2 -->
<g id="edge58" class="edge">
<title>Node31&#45;&gt;Node2</title>
<path fill="none" stroke="midnightblue" d="M588.7,-112.41C585,-99.38 579.96,-74.2 589.5,-56 596.78,-42.11 610.51,-31.65 623.48,-24.33"/>
<polygon fill="midnightblue" stroke="midnightblue" points="625.43,-27.27 632.69,-19.55 622.2,-21.05 625.43,-27.27"/>
</g>
<!-- Node31&#45;&gt;Node7 -->
<g id="edge60" class="edge">
<title>Node31&#45;&gt;Node7</title>
<path fill="none" stroke="midnightblue" d="M643.56,-113.19C646.92,-112.76 650.26,-112.36 653.5,-112 852.72,-89.72 907.47,-106.99 1109.1,-75.99"/>
<polygon fill="midnightblue" stroke="midnightblue" points="1109.79,-79.43 1119.13,-74.43 1108.71,-72.51 1109.79,-79.43"/>
</g>
<!-- Node31&#45;&gt;Node11 -->
<g id="edge59" class="edge">
<title>Node31&#45;&gt;Node11</title>
<path fill="none" stroke="midnightblue" d="M643.57,-113.24C646.93,-112.8 650.26,-112.38 653.5,-112 823.58,-91.84 871.03,-106.51 1043.54,-75.86"/>
<polygon fill="midnightblue" stroke="midnightblue" points="1044.24,-79.29 1053.46,-74.08 1043,-72.41 1044.24,-79.29"/>
</g>
<!-- Node32 -->
<g id="node32" class="node">
<title>Node32</title>
<g id="a_node32"><a xlink:title=" ">
<polygon fill="none" stroke="#bfbfbf" points="452,-56.5 452,-75.5 541,-75.5 541,-56.5 452,-56.5"/>
<text text-anchor="middle" x="496.5" y="-63.5" font-family="Helvetica,sans-Serif" font-size="10.00">Adafruit_GPS.h</text>
</a>
</g>
</g>
<!-- Node31&#45;&gt;Node32 -->
<g id="edge57" class="edge">
<title>Node31&#45;&gt;Node32</title>
<path fill="none" stroke="midnightblue" d="M576.24,-112.32C561.28,-103.82 538.25,-90.73 520.77,-80.8"/>
<polygon fill="midnightblue" stroke="midnightblue" points="522.15,-77.55 511.73,-75.65 518.69,-83.64 522.15,-77.55"/>
</g>
<!-- Node33&#45;&gt;Node2 -->
<g id="edge62" class="edge">
<title>Node33&#45;&gt;Node2</title>
<path fill="none" stroke="midnightblue" d="M1526.58,-112.33C1542.38,-98.97 1567.77,-73.11 1551.5,-56 1521.68,-24.65 869.16,-13.83 696.24,-11.51"/>
<polygon fill="midnightblue" stroke="midnightblue" points="696.06,-8.01 686.02,-11.38 695.97,-15.01 696.06,-8.01"/>
</g>
<!-- Node33&#45;&gt;Node7 -->
<g id="edge66" class="edge">
<title>Node33&#45;&gt;Node7</title>
<path fill="none" stroke="midnightblue" d="M1470.99,-113.31C1468.12,-112.86 1465.27,-112.42 1462.5,-112 1343.82,-94.16 1310.55,-97.68 1187.98,-75.91"/>
<polygon fill="midnightblue" stroke="midnightblue" points="1188.29,-72.41 1177.82,-74.09 1187.05,-79.3 1188.29,-72.41"/>
</g>
<!-- Node33&#45;&gt;Node12 -->
<g id="edge64" class="edge">
<title>Node33&#45;&gt;Node12</title>
<path fill="none" stroke="midnightblue" d="M1515.5,-112.08C1515.5,-105.01 1515.5,-94.86 1515.5,-85.99"/>
<polygon fill="midnightblue" stroke="midnightblue" points="1519,-85.75 1515.5,-75.75 1512,-85.75 1519,-85.75"/>
</g>
<!-- Node34 -->
<g id="node34" class="node">
<title>Node34</title>
<g id="a_node34"><a xlink:title=" ">
<polygon fill="none" stroke="#bfbfbf" points="1718,-56.5 1718,-75.5 1771,-75.5 1771,-56.5 1718,-56.5"/>
<text text-anchor="middle" x="1744.5" y="-63.5" font-family="Helvetica,sans-Serif" font-size="10.00">stdint.h</text>
</a>
</g>
</g>
<!-- Node33&#45;&gt;Node34 -->
<g id="edge63" class="edge">
<title>Node33&#45;&gt;Node34</title>
<path fill="none" stroke="midnightblue" d="M1553.48,-112.47C1590.57,-104.08 1648.87,-90.72 1707.9,-76.35"/>
<polygon fill="midnightblue" stroke="midnightblue" points="1708.88,-79.72 1717.76,-73.94 1707.22,-72.92 1708.88,-79.72"/>
</g>
<!-- Node35 -->
<g id="node35" class="node">
<title>Node35</title>
<g id="a_node35"><a xlink:title=" ">
<polygon fill="none" stroke="#bfbfbf" points="1599,-56.5 1599,-75.5 1700,-75.5 1700,-56.5 1599,-56.5"/>
<text text-anchor="middle" x="1649.5" y="-63.5" font-family="Helvetica,sans-Serif" font-size="10.00">Adafruit_SGP30.h</text>
</a>
</g>
</g>
<!-- Node33&#45;&gt;Node35 -->
<g id="edge65" class="edge">
<title>Node33&#45;&gt;Node35</title>
<path fill="none" stroke="midnightblue" d="M1536.73,-112.44C1558.88,-103.52 1593.82,-89.44 1618.94,-79.32"/>
<polygon fill="midnightblue" stroke="midnightblue" points="1620.4,-82.5 1628.37,-75.52 1617.78,-76.01 1620.4,-82.5"/>
</g>
<!-- Node36&#45;&gt;Node2 -->
<g id="edge68" class="edge">
<title>Node36&#45;&gt;Node2</title>
<path fill="none" stroke="midnightblue" d="M1019.56,-112.49C995.25,-103.98 957.4,-90.16 925.5,-76 907.7,-68.1 904.91,-62.36 886.5,-56 821.97,-33.7 743.3,-21.38 696.14,-15.48"/>
<polygon fill="midnightblue" stroke="midnightblue" points="696.35,-11.98 686,-14.25 695.51,-18.93 696.35,-11.98"/>
</g>
<!-- Node36&#45;&gt;Node7 -->
<g id="edge72" class="edge">
<title>Node36&#45;&gt;Node7</title>
<path fill="none" stroke="midnightblue" d="M1061.21,-112.32C1077.81,-103.7 1103.5,-90.36 1122.72,-80.39"/>
<polygon fill="midnightblue" stroke="midnightblue" points="1124.57,-83.37 1131.83,-75.65 1121.34,-77.16 1124.57,-83.37"/>
</g>
<!-- Node36&#45;&gt;Node11 -->
<g id="edge69" class="edge">
<title>Node36&#45;&gt;Node11</title>
<path fill="none" stroke="midnightblue" d="M1049.95,-112.08C1054.51,-104.61 1061.17,-93.72 1066.79,-84.52"/>
<polygon fill="midnightblue" stroke="midnightblue" points="1069.92,-86.11 1072.15,-75.75 1063.95,-82.46 1069.92,-86.11"/>
</g>
<!-- Node36&#45;&gt;Node12 -->
<g id="edge70" class="edge">
<title>Node36&#45;&gt;Node12</title>
<path fill="none" stroke="midnightblue" d="M1089.28,-113.15C1092.06,-112.74 1094.82,-112.35 1097.5,-112 1263.78,-90.1 1310.31,-104.8 1478.88,-76.04"/>
<polygon fill="midnightblue" stroke="midnightblue" points="1479.59,-79.47 1488.84,-74.32 1478.39,-72.58 1479.59,-79.47"/>
</g>
<!-- Node37 -->
<g id="node37" class="node">
<title>Node37</title>
<g id="a_node37"><a xlink:title=" ">
<polygon fill="none" stroke="#bfbfbf" points="934,-56.5 934,-75.5 1035,-75.5 1035,-56.5 934,-56.5"/>
<text text-anchor="middle" x="984.5" y="-63.5" font-family="Helvetica,sans-Serif" font-size="10.00">Adafruit_SHT31.h</text>
</a>
</g>
</g>
<!-- Node36&#45;&gt;Node37 -->
<g id="edge71" class="edge">
<title>Node36&#45;&gt;Node37</title>
<path fill="none" stroke="midnightblue" d="M1034.86,-112.32C1025.99,-104.34 1012.63,-92.31 1001.89,-82.65"/>
<polygon fill="midnightblue" stroke="midnightblue" points="1004.09,-79.92 994.32,-75.83 999.41,-85.13 1004.09,-79.92"/>
</g>
<!-- Node38&#45;&gt;Node7 -->
<g id="edge74" class="edge">
<title>Node38&#45;&gt;Node7</title>
<path fill="none" stroke="midnightblue" d="M1148.5,-112.08C1148.5,-105.01 1148.5,-94.86 1148.5,-85.99"/>
<polygon fill="midnightblue" stroke="midnightblue" points="1152,-85.75 1148.5,-75.75 1145,-85.75 1152,-85.75"/>
</g>
<!-- Node39&#45;&gt;Node2 -->
<g id="edge76" class="edge">
<title>Node39&#45;&gt;Node2</title>
<path fill="none" stroke="midnightblue" d="M354.87,-112.36C354.35,-98.32 355.59,-70.63 371.5,-56 405.94,-24.33 542.55,-14.9 612.6,-12.13"/>
<polygon fill="midnightblue" stroke="midnightblue" points="612.97,-15.62 622.84,-11.76 612.71,-8.63 612.97,-15.62"/>
</g>
<!-- Node39&#45;&gt;Node4 -->
<g id="edge77" class="edge">
<title>Node39&#45;&gt;Node4</title>
<path fill="none" stroke="midnightblue" d="M363.68,-112.14C378.11,-97.24 409.74,-67.64 443.5,-56 518.58,-30.12 1723.08,-14.85 2003.49,-11.64"/>
<polygon fill="midnightblue" stroke="midnightblue" points="2003.88,-15.13 2013.84,-11.52 2003.8,-8.14 2003.88,-15.13"/>
</g>
<!-- Node39&#45;&gt;Node8 -->
<g id="edge78" class="edge">
<title>Node39&#45;&gt;Node8</title>
<path fill="none" stroke="midnightblue" d="M344.57,-112.32C334.33,-104.18 318.78,-91.84 306.5,-82.09"/>
<polygon fill="midnightblue" stroke="midnightblue" points="308.63,-79.31 298.62,-75.83 304.28,-84.79 308.63,-79.31"/>
</g>
<!-- Node40&#45;&gt;Node3 -->
<g id="edge80" class="edge">
<title>Node40&#45;&gt;Node3</title>
<path fill="none" stroke="midnightblue" d="M196.28,-112.44C177.6,-103.68 148.34,-89.94 126.88,-79.86"/>
<polygon fill="midnightblue" stroke="midnightblue" points="128.18,-76.6 117.64,-75.52 125.2,-82.93 128.18,-76.6"/>
</g>
<!-- Node40&#45;&gt;Node4 -->
<g id="edge81" class="edge">
<title>Node40&#45;&gt;Node4</title>
<path fill="none" stroke="midnightblue" d="M215.99,-112.37C219.01,-97.8 227.38,-68.7 247.5,-56 323.4,-8.1 1702.06,-9.82 2003.56,-10.78"/>
<polygon fill="midnightblue" stroke="midnightblue" points="2003.82,-14.28 2013.83,-10.81 2003.84,-7.28 2003.82,-14.28"/>
</g>
<!-- Node40&#45;&gt;Node8 -->
<g id="edge83" class="edge">
<title>Node40&#45;&gt;Node8</title>
<path fill="none" stroke="midnightblue" d="M226.23,-112.32C237.34,-104.11 254.24,-91.6 267.48,-81.81"/>
<polygon fill="midnightblue" stroke="midnightblue" points="269.6,-84.59 275.56,-75.83 265.44,-78.97 269.6,-84.59"/>
</g>
<!-- Node41 -->
<g id="node41" class="node">
<title>Node41</title>
<g id="a_node41"><a xlink:title=" ">
<polygon fill="none" stroke="#bfbfbf" points="160,-56.5 160,-75.5 199,-75.5 199,-56.5 160,-56.5"/>
<text text-anchor="middle" x="179.5" y="-63.5" font-family="Helvetica,sans-Serif" font-size="10.00">SD.h</text>
</a>
</g>
</g>
<!-- Node40&#45;&gt;Node41 -->
<g id="edge82" class="edge">
<title>Node40&#45;&gt;Node41</title>
<path fill="none" stroke="midnightblue" d="M208.72,-112.08C203.83,-104.53 196.67,-93.49 190.67,-84.23"/>
<polygon fill="midnightblue" stroke="midnightblue" points="193.55,-82.24 185.17,-75.75 187.67,-86.05 193.55,-82.24"/>
</g>
</g>
</svg>
        <g id="navigator" transform="translate(0 0)" fill="#404254">
                <rect fill="#f2f5e9" fill-opacity="0.5" stroke="#606060" stroke-width=".5" x="0" y="0" width="60" height="60"/>
                <use id="zoomplus" xlink:href="#zoomPlus" x="17" y="9" onmousedown="handleZoom(evt,'in')"/>
                <use id="zoomminus" xlink:href="#zoomMin" x="42" y="9" onmousedown="handleZoom(evt,'out')"/>
                <use id="reset" xlink:href="#resetDef" x="30" y="36" onmousedown="handleReset()"/>
                <g id="arrowUp" xlink:href="#dirArrow" transform="translate(30 24)" onmousedown="handlePan(0,-1)">
                  <use xlink:href="#rim" fill="#404040">
                        <set attributeName="fill" to="#808080" begin="arrowUp.mouseover" end="arrowUp.mouseout"/>
                  </use>
                  <path fill="none" stroke="white" stroke-width="1.5" d="M0,-3.0v7 M-2.5,-0.5L0,-3.0L2.5,-0.5"/>
                </g>
                <g id="arrowRight" xlink:href="#dirArrow" transform="rotate(90) translate(36 -43)" onmousedown="handlePan(1,0)">
                  <use xlink:href="#rim" fill="#404040">
                        <set attributeName="fill" to="#808080" begin="arrowRight.mouseover" end="arrowRight.mouseout"/>
                  </use>
                  <path fill="none" stroke="white" stroke-width="1.5" d="M0,-3.0v7 M-2.5,-0.5L0,-3.0L2.5,-0.5"/>
                </g>
                <g id="arrowDown" xlink:href="#dirArrow" transform="rotate(180) translate(-30 -48)" onmousedown="handlePan(0,1)">
                  <use xlink:href="#rim" fill="#404040">
                        <set attributeName="fill" to="#808080" begin="arrowDown.mouseover" end="arrowDown.mouseout"/>
                  </use>
                  <path fill="none" stroke="white" stroke-width="1.5" d="M0,-3.0v7 M-2.5,-0.5L0,-3.0L2.5,-0.5"/>
                </g>
                <g id="arrowLeft" xlink:href="#dirArrow" transform="rotate(270) translate(-36 17)" onmousedown="handlePan(-1,0)">
                  <use xlink:href="#rim" fill="#404040">
                        <set attributeName="fill" to="#808080" begin="arrowLeft.mouseover" end="arrowLeft.mouseout"/>
                  </use>
                  <path fill="none" stroke="white" stroke-width="1.5" d="M0,-3.0v7 M-2.5,-0.5L0,-3.0L2.5,-0.5"/>
                </g>
        </g>
        <svg viewBox="0 0 15 15" width="100%" height="30px" preserveAspectRatio="xMaxYMin meet">
         <g id="arrow_out" transform="scale(0.3 0.3)">
          <a xlink:href="main_8cpp__incl_org.svg" target="_base">
           <rect id="button" ry="5" rx="5" y="6" x="6" height="38" width="38"
                fill="#f2f5e9" fill-opacity="0.5" stroke="#606060" stroke-width="1.0"/>
           <path id="arrow"
             d="M 11.500037,31.436501 C 11.940474,20.09759 22.043105,11.32322 32.158766,21.979434 L 37.068811,17.246167 C 37.068811,17.246167 37.088388,32 37.088388,32 L 22.160133,31.978069 C 22.160133,31.978069 26.997745,27.140456 26.997745,27.140456 C 18.528582,18.264221 13.291696,25.230495 11.500037,31.436501 z"
             style="fill:#404040;"/>
          </a>
         </g>
        </svg>
</svg>
