<?xml version="1.0" encoding="UTF-8" standalone="no"?>
<!DOCTYPE svg PUBLIC "-//W3C//DTD SVG 1.1//EN"
 "http://www.w3.org/Graphics/SVG/1.1/DTD/svg11.dtd">
<!-- Generated by graphviz version 2.43.0 (0)
 -->
<!-- Title: main.cpp Pages: 1 -->
<svg width="1950pt" height="196pt"
 viewBox="0.00 0.00 1949.97 196.00" xmlns="http://www.w3.org/2000/svg" xmlns:xlink="http://www.w3.org/1999/xlink">
<g id="graph0" class="graph" transform="scale(1 1) rotate(0) translate(4 192)">
<title>main.cpp</title>
<!-- Node1 -->
<g id="node1" class="node">
<title>Node1</title>
<g id="a_node1"><a xlink:title=" ">
<polygon fill="#bfbfbf" stroke="black" points="1017.47,-168.5 1017.47,-187.5 1079.47,-187.5 1079.47,-168.5 1017.47,-168.5"/>
<text text-anchor="middle" x="1048.47" y="-175.5" font-family="Helvetica,sans-Serif" font-size="10.00">main.cpp</text>
</a>
</g>
</g>
<!-- Node2 -->
<g id="node2" class="node">
<title>Node2</title>
<g id="a_node2"><a xlink:title=" ">
<polygon fill="none" stroke="#bfbfbf" points="1396.97,-0.5 1396.97,-19.5 1459.97,-19.5 1459.97,-0.5 1396.97,-0.5"/>
<text text-anchor="middle" x="1428.47" y="-7.5" font-family="Helvetica,sans-Serif" font-size="10.00">Arduino.h</text>
</a>
</g>
</g>
<!-- Node1&#45;&gt;Node2 -->
<g id="edge1" class="edge">
<title>Node1&#45;&gt;Node2</title>
<path fill="none" stroke="midnightblue" d="M1079.79,-175.72C1176.48,-170.99 1466.5,-150.68 1512.47,-76 1527.02,-52.37 1495.44,-34.06 1466.93,-22.98"/>
<polygon fill="midnightblue" stroke="midnightblue" points="1468.05,-19.66 1457.45,-19.5 1465.64,-26.23 1468.05,-19.66"/>
</g>
<!-- Node3 -->
<g id="node3" class="node">
<title>Node3</title>
<g id="a_node3"><a xlink:href="Sensor_8h.html" target="_top" xlink:title=" ">
<polygon fill="none" stroke="black" points="657.47,-56.5 657.47,-75.5 715.47,-75.5 715.47,-56.5 657.47,-56.5"/>
<text text-anchor="middle" x="686.47" y="-63.5" font-family="Helvetica,sans-Serif" font-size="10.00">Sensor.h</text>
</a>
</g>
</g>
<!-- Node1&#45;&gt;Node3 -->
<g id="edge2" class="edge">
<title>Node1&#45;&gt;Node3</title>
<path fill="none" stroke="midnightblue" d="M1017.34,-173.49C973.86,-167.96 892.93,-155.35 827.47,-132 809.5,-125.59 806.67,-120.27 789.47,-112 765.18,-100.32 737.12,-88.14 716.42,-79.41"/>
<polygon fill="midnightblue" stroke="midnightblue" points="717.77,-76.17 707.19,-75.53 715.06,-82.63 717.77,-76.17"/>
</g>
<!-- Node4 -->
<g id="node4" class="node">
<title>Node4</title>
<g id="a_node4"><a xlink:href="Storage_8h.html" target="_top" xlink:title=" ">
<polygon fill="none" stroke="black" points="1833.97,-56.5 1833.97,-75.5 1896.97,-75.5 1896.97,-56.5 1833.97,-56.5"/>
<text text-anchor="middle" x="1865.47" y="-63.5" font-family="Helvetica,sans-Serif" font-size="10.00">Storage.h</text>
</a>
</g>
</g>
<!-- Node1&#45;&gt;Node4 -->
<g id="edge4" class="edge">
<title>Node1&#45;&gt;Node4</title>
<path fill="none" stroke="midnightblue" d="M1079.56,-176.48C1213.45,-174.09 1737.06,-162.8 1803.47,-132 1825.5,-121.78 1843.66,-99.95 1854.52,-84.41"/>
<polygon fill="midnightblue" stroke="midnightblue" points="1857.68,-85.98 1860.3,-75.71 1851.85,-82.1 1857.68,-85.98"/>
</g>
<!-- Node5 -->
<g id="node5" class="node">
<title>Node5</title>
<g id="a_node5"><a xlink:href="AnalogSensor_8h.html" target="_top" xlink:title=" ">
<polygon fill="none" stroke="black" points="836.47,-112.5 836.47,-131.5 928.47,-131.5 928.47,-112.5 836.47,-112.5"/>
<text text-anchor="middle" x="882.47" y="-119.5" font-family="Helvetica,sans-Serif" font-size="10.00">AnalogSensor.h</text>
</a>
</g>
</g>
<!-- Node1&#45;&gt;Node5 -->
<g id="edge6" class="edge">
<title>Node1&#45;&gt;Node5</title>
<path fill="none" stroke="midnightblue" d="M1022.17,-168.44C994.12,-159.32 949.53,-144.81 918.29,-134.65"/>
<polygon fill="midnightblue" stroke="midnightblue" points="919.24,-131.28 908.65,-131.52 917.08,-137.94 919.24,-131.28"/>
</g>
<!-- Node7 -->
<g id="node7" class="node">
<title>Node7</title>
<g id="a_node7"><a xlink:href="BME280Sensor_8h.html" target="_top" xlink:title=" ">
<polygon fill="none" stroke="black" points="472.47,-112.5 472.47,-131.5 570.47,-131.5 570.47,-112.5 472.47,-112.5"/>
<text text-anchor="middle" x="521.47" y="-119.5" font-family="Helvetica,sans-Serif" font-size="10.00">BME280Sensor.h</text>
</a>
</g>
</g>
<!-- Node1&#45;&gt;Node7 -->
<g id="edge10" class="edge">
<title>Node1&#45;&gt;Node7</title>
<path fill="none" stroke="midnightblue" d="M1017.4,-174.65C943.54,-168.93 751.53,-153.26 580.43,-132.05"/>
<polygon fill="midnightblue" stroke="midnightblue" points="580.85,-128.58 570.49,-130.81 579.98,-135.52 580.85,-128.58"/>
</g>
<!-- Node9 -->
<g id="node9" class="node">
<title>Node9</title>
<g id="a_node9"><a xlink:href="BME680Sensor_8h.html" target="_top" xlink:title=" ">
<polygon fill="none" stroke="black" points="199.47,-112.5 199.47,-131.5 297.47,-131.5 297.47,-112.5 199.47,-112.5"/>
<text text-anchor="middle" x="248.47" y="-119.5" font-family="Helvetica,sans-Serif" font-size="10.00">BME680Sensor.h</text>
</a>
</g>
</g>
<!-- Node1&#45;&gt;Node9 -->
<g id="edge13" class="edge">
<title>Node1&#45;&gt;Node9</title>
<path fill="none" stroke="midnightblue" d="M1017.45,-175.28C919.4,-169.77 607.43,-151.79 349.47,-132 335.97,-130.96 321.47,-129.74 307.79,-128.53"/>
<polygon fill="midnightblue" stroke="midnightblue" points="307.78,-125.02 297.51,-127.61 307.16,-131.99 307.78,-125.02"/>
</g>
<!-- Node14 -->
<g id="node14" class="node">
<title>Node14</title>
<g id="a_node14"><a xlink:href="ENS160Sensor_8h.html" target="_top" xlink:title=" ">
<polygon fill="none" stroke="black" points="358.97,-112.5 358.97,-131.5 453.97,-131.5 453.97,-112.5 358.97,-112.5"/>
<text text-anchor="middle" x="406.47" y="-119.5" font-family="Helvetica,sans-Serif" font-size="10.00">ENS160Sensor.h</text>
</a>
</g>
</g>
<!-- Node1&#45;&gt;Node14 -->
<g id="edge20" class="edge">
<title>Node1&#45;&gt;Node14</title>
<path fill="none" stroke="midnightblue" d="M1017.31,-175.48C931.13,-171.09 682.1,-157.16 464.05,-131.97"/>
<polygon fill="midnightblue" stroke="midnightblue" points="464.36,-128.48 454.02,-130.8 463.55,-135.43 464.36,-128.48"/>
</g>
<!-- Node16 -->
<g id="node16" class="node">
<title>Node16</title>
<g id="a_node16"><a xlink:href="GeigerSensor_8h.html" target="_top" xlink:title=" ">
<polygon fill="none" stroke="black" points="588.47,-112.5 588.47,-131.5 678.47,-131.5 678.47,-112.5 588.47,-112.5"/>
<text text-anchor="middle" x="633.47" y="-119.5" font-family="Helvetica,sans-Serif" font-size="10.00">GeigerSensor.h</text>
</a>
</g>
</g>
<!-- Node1&#45;&gt;Node16 -->
<g id="edge24" class="edge">
<title>Node1&#45;&gt;Node16</title>
<path fill="none" stroke="midnightblue" d="M1017.03,-173.52C955.86,-166.66 816.36,-150.54 688.5,-132.1"/>
<polygon fill="midnightblue" stroke="midnightblue" points="688.93,-128.62 678.53,-130.65 687.93,-135.55 688.93,-128.62"/>
</g>
<!-- Node17 -->
<g id="node17" class="node">
<title>Node17</title>
<g id="a_node17"><a xlink:href="INA260Sensor_8h.html" target="_top" xlink:title=" ">
<polygon fill="none" stroke="black" points="1176.97,-112.5 1176.97,-131.5 1269.97,-131.5 1269.97,-112.5 1176.97,-112.5"/>
<text text-anchor="middle" x="1223.47" y="-119.5" font-family="Helvetica,sans-Serif" font-size="10.00">INA260Sensor.h</text>
</a>
</g>
</g>
<!-- Node1&#45;&gt;Node17 -->
<g id="edge27" class="edge">
<title>Node1&#45;&gt;Node17</title>
<path fill="none" stroke="midnightblue" d="M1076.2,-168.44C1105.9,-159.28 1153.19,-144.69 1186.14,-134.52"/>
<polygon fill="midnightblue" stroke="midnightblue" points="1187.35,-137.81 1195.87,-131.52 1185.29,-131.12 1187.35,-137.81"/>
</g>
<!-- Node19 -->
<g id="node19" class="node">
<title>Node19</title>
<g id="a_node19"><a xlink:href="LSM9DS1Sensor_8h.html" target="_top" xlink:title=" ">
<polygon fill="none" stroke="black" points="1054.47,-112.5 1054.47,-131.5 1158.47,-131.5 1158.47,-112.5 1054.47,-112.5"/>
<text text-anchor="middle" x="1106.47" y="-119.5" font-family="Helvetica,sans-Serif" font-size="10.00">LSM9DS1Sensor.h</text>
</a>
</g>
</g>
<!-- Node1&#45;&gt;Node19 -->
<g id="edge32" class="edge">
<title>Node1&#45;&gt;Node19</title>
<path fill="none" stroke="midnightblue" d="M1057.79,-168.32C1066.36,-160.34 1079.28,-148.31 1089.66,-138.65"/>
<polygon fill="midnightblue" stroke="midnightblue" points="1092.05,-141.21 1096.98,-131.83 1087.28,-136.09 1092.05,-141.21"/>
</g>
<!-- Node21 -->
<g id="node21" class="node">
<title>Node21</title>
<g id="a_node21"><a xlink:href="SGP30Sensor_8h.html" target="_top" xlink:title=" ">
<polygon fill="none" stroke="black" points="1580.97,-112.5 1580.97,-131.5 1669.97,-131.5 1669.97,-112.5 1580.97,-112.5"/>
<text text-anchor="middle" x="1625.47" y="-119.5" font-family="Helvetica,sans-Serif" font-size="10.00">SGP30Sensor.h</text>
</a>
</g>
</g>
<!-- Node1&#45;&gt;Node21 -->
<g id="edge36" class="edge">
<title>Node1&#45;&gt;Node21</title>
<path fill="none" stroke="midnightblue" d="M1079.49,-175.01C1160.01,-169.69 1382.28,-154.03 1566.47,-132 1567.77,-131.84 1569.09,-131.68 1570.42,-131.51"/>
<polygon fill="midnightblue" stroke="midnightblue" points="1571.29,-134.93 1580.74,-130.14 1570.36,-127.99 1571.29,-134.93"/>
</g>
<!-- Node24 -->
<g id="node24" class="node">
<title>Node24</title>
<g id="a_node24"><a xlink:href="SHT31Sensor_8h.html" target="_top" xlink:title=" ">
<polygon fill="none" stroke="black" points="946.97,-112.5 946.97,-131.5 1035.97,-131.5 1035.97,-112.5 946.97,-112.5"/>
<text text-anchor="middle" x="991.47" y="-119.5" font-family="Helvetica,sans-Serif" font-size="10.00">SHT31Sensor.h</text>
</a>
</g>
</g>
<!-- Node1&#45;&gt;Node24 -->
<g id="edge42" class="edge">
<title>Node1&#45;&gt;Node24</title>
<path fill="none" stroke="midnightblue" d="M1039.31,-168.32C1030.97,-160.42 1018.44,-148.55 1008.3,-138.94"/>
<polygon fill="midnightblue" stroke="midnightblue" points="1010.46,-136.17 1000.8,-131.83 1005.65,-141.25 1010.46,-136.17"/>
</g>
<!-- Node26 -->
<g id="node26" class="node">
<title>Node26</title>
<g id="a_node26"><a xlink:href="TempSensor_8h.html" target="_top" xlink:title=" ">
<polygon fill="none" stroke="black" points="696.47,-112.5 696.47,-131.5 780.47,-131.5 780.47,-112.5 696.47,-112.5"/>
<text text-anchor="middle" x="738.47" y="-119.5" font-family="Helvetica,sans-Serif" font-size="10.00">TempSensor.h</text>
</a>
</g>
</g>
<!-- Node1&#45;&gt;Node26 -->
<g id="edge48" class="edge">
<title>Node1&#45;&gt;Node26</title>
<path fill="none" stroke="midnightblue" d="M1017.33,-171.58C964.21,-162.32 855.54,-143.39 790.66,-132.09"/>
<polygon fill="midnightblue" stroke="midnightblue" points="791.09,-128.61 780.63,-130.34 789.88,-135.51 791.09,-128.61"/>
</g>
<!-- Node27 -->
<g id="node27" class="node">
<title>Node27</title>
<g id="a_node27"><a xlink:href="ZOPT220Sensor_8h.html" target="_top" xlink:title=" ">
<polygon fill="none" stroke="black" points="1290.47,-112.5 1290.47,-131.5 1392.47,-131.5 1392.47,-112.5 1290.47,-112.5"/>
<text text-anchor="middle" x="1341.47" y="-119.5" font-family="Helvetica,sans-Serif" font-size="10.00">ZOPT220Sensor.h</text>
</a>
</g>
</g>
<!-- Node1&#45;&gt;Node27 -->
<g id="edge50" class="edge">
<title>Node1&#45;&gt;Node27</title>
<path fill="none" stroke="midnightblue" d="M1079.55,-171.27C1128.45,-162.26 1224.07,-144.64 1285.26,-133.36"/>
<polygon fill="midnightblue" stroke="midnightblue" points="1285.94,-136.79 1295.14,-131.54 1284.67,-129.91 1285.94,-136.79"/>
</g>
<!-- Node29 -->
<g id="node29" class="node">
<title>Node29</title>
<g id="a_node29"><a xlink:href="RadioStorage_8h.html" target="_top" xlink:title=" ">
<polygon fill="none" stroke="black" points="1850.97,-112.5 1850.97,-131.5 1941.97,-131.5 1941.97,-112.5 1850.97,-112.5"/>
<text text-anchor="middle" x="1896.47" y="-119.5" font-family="Helvetica,sans-Serif" font-size="10.00">RadioStorage.h</text>
</a>
</g>
</g>
<!-- Node1&#45;&gt;Node29 -->
<g id="edge59" class="edge">
<title>Node1&#45;&gt;Node29</title>
<path fill="none" stroke="midnightblue" d="M1079.71,-176.25C1185.97,-173.47 1543.08,-162.32 1836.47,-132 1837.77,-131.87 1839.08,-131.72 1840.4,-131.57"/>
<polygon fill="midnightblue" stroke="midnightblue" points="1841.17,-135.01 1850.66,-130.31 1840.31,-128.06 1841.17,-135.01"/>
</g>
<!-- Node30 -->
<g id="node30" class="node">
<title>Node30</title>
<g id="a_node30"><a xlink:href="SDStorage_8h.html" target="_top" xlink:title=" ">
<polygon fill="none" stroke="black" points="1716.97,-112.5 1716.97,-131.5 1793.97,-131.5 1793.97,-112.5 1716.97,-112.5"/>
<text text-anchor="middle" x="1755.47" y="-119.5" font-family="Helvetica,sans-Serif" font-size="10.00">SDStorage.h</text>
</a>
</g>
</g>
<!-- Node1&#45;&gt;Node30 -->
<g id="edge62" class="edge">
<title>Node1&#45;&gt;Node30</title>
<path fill="none" stroke="midnightblue" d="M1079.65,-175.27C1171.49,-170.07 1448.94,-153.6 1678.47,-132 1687.62,-131.14 1697.37,-130.1 1706.75,-129.03"/>
<polygon fill="midnightblue" stroke="midnightblue" points="1707.2,-132.5 1716.73,-127.87 1706.39,-125.55 1707.2,-132.5"/>
</g>
<!-- Node3&#45;&gt;Node2 -->
<g id="edge3" class="edge">
<title>Node3&#45;&gt;Node2</title>
<path fill="none" stroke="midnightblue" d="M715.52,-58.34C720.17,-57.44 724.94,-56.62 729.47,-56 977.27,-22.27 1278.03,-13.69 1386.75,-11.62"/>
<polygon fill="midnightblue" stroke="midnightblue" points="1387.03,-15.12 1396.96,-11.44 1386.9,-8.12 1387.03,-15.12"/>
</g>
<!-- Node4&#45;&gt;Node2 -->
<g id="edge5" class="edge">
<title>Node4&#45;&gt;Node2</title>
<path fill="none" stroke="midnightblue" d="M1833.66,-57.51C1830.9,-56.96 1828.14,-56.45 1825.47,-56 1696.72,-34.28 1542.66,-20.17 1470.13,-14.22"/>
<polygon fill="midnightblue" stroke="midnightblue" points="1470.28,-10.73 1460.03,-13.41 1469.71,-17.7 1470.28,-10.73"/>
</g>
<!-- Node5&#45;&gt;Node2 -->
<g id="edge7" class="edge">
<title>Node5&#45;&gt;Node2</title>
<path fill="none" stroke="midnightblue" d="M856.26,-112.49C824.82,-100.97 778.87,-79.2 800.47,-56 840.31,-13.21 1252.22,-10.51 1386.44,-10.78"/>
<polygon fill="midnightblue" stroke="midnightblue" points="1386.71,-14.28 1396.72,-10.81 1386.73,-7.28 1386.71,-14.28"/>
</g>
<!-- Node5&#45;&gt;Node3 -->
<g id="edge9" class="edge">
<title>Node5&#45;&gt;Node3</title>
<path fill="none" stroke="midnightblue" d="M851.42,-112.44C817.38,-103.07 762.69,-88 725.71,-77.81"/>
<polygon fill="midnightblue" stroke="midnightblue" points="726.35,-74.36 715.78,-75.08 724.49,-81.11 726.35,-74.36"/>
</g>
<!-- Node6 -->
<g id="node6" class="node">
<title>Node6</title>
<g id="a_node6"><a xlink:title=" ">
<polygon fill="none" stroke="#bfbfbf" points="1099.97,-56.5 1099.97,-75.5 1152.97,-75.5 1152.97,-56.5 1099.97,-56.5"/>
<text text-anchor="middle" x="1126.47" y="-63.5" font-family="Helvetica,sans-Serif" font-size="10.00">string.h</text>
</a>
</g>
</g>
<!-- Node5&#45;&gt;Node6 -->
<g id="edge8" class="edge">
<title>Node5&#45;&gt;Node6</title>
<path fill="none" stroke="midnightblue" d="M924,-112.42C963.99,-104.07 1026.43,-90.8 1089.97,-76.06"/>
<polygon fill="midnightblue" stroke="midnightblue" points="1090.81,-79.46 1099.76,-73.78 1089.23,-72.64 1090.81,-79.46"/>
</g>
<!-- Node7&#45;&gt;Node3 -->
<g id="edge11" class="edge">
<title>Node7&#45;&gt;Node3</title>
<path fill="none" stroke="midnightblue" d="M547.62,-112.44C575.5,-103.32 619.82,-88.81 650.87,-78.65"/>
<polygon fill="midnightblue" stroke="midnightblue" points="652.03,-81.95 660.45,-75.52 649.86,-75.3 652.03,-81.95"/>
</g>
<!-- Node8 -->
<g id="node8" class="node">
<title>Node8</title>
<g id="a_node8"><a xlink:title=" ">
<polygon fill="none" stroke="#bfbfbf" points="491.47,-56.5 491.47,-75.5 601.47,-75.5 601.47,-56.5 491.47,-56.5"/>
<text text-anchor="middle" x="546.47" y="-63.5" font-family="Helvetica,sans-Serif" font-size="10.00">SparkFunBME280.h</text>
</a>
</g>
</g>
<!-- Node7&#45;&gt;Node8 -->
<g id="edge12" class="edge">
<title>Node7&#45;&gt;Node8</title>
<path fill="none" stroke="midnightblue" d="M525.6,-112.08C528.99,-104.77 533.89,-94.18 538.09,-85.1"/>
<polygon fill="midnightblue" stroke="midnightblue" points="541.4,-86.3 542.42,-75.75 535.04,-83.36 541.4,-86.3"/>
</g>
<!-- Node9&#45;&gt;Node3 -->
<g id="edge19" class="edge">
<title>Node9&#45;&gt;Node3</title>
<path fill="none" stroke="midnightblue" d="M297.86,-114.91C385.65,-104.09 567.12,-81.71 647.13,-71.85"/>
<polygon fill="midnightblue" stroke="midnightblue" points="647.77,-75.3 657.27,-70.6 646.92,-68.35 647.77,-75.3"/>
</g>
<!-- Node9&#45;&gt;Node6 -->
<g id="edge18" class="edge">
<title>Node9&#45;&gt;Node6</title>
<path fill="none" stroke="midnightblue" d="M297.5,-116.23C314,-114.73 332.52,-113.17 349.47,-112 675.04,-89.59 762.51,-123.51 1089.61,-75.78"/>
<polygon fill="midnightblue" stroke="midnightblue" points="1090.47,-79.19 1099.85,-74.27 1089.45,-72.27 1090.47,-79.19"/>
</g>
<!-- Node10 -->
<g id="node10" class="node">
<title>Node10</title>
<g id="a_node10"><a xlink:title=" ">
<polygon fill="none" stroke="#bfbfbf" points="193.47,-56.5 193.47,-75.5 303.47,-75.5 303.47,-56.5 193.47,-56.5"/>
<text text-anchor="middle" x="248.47" y="-63.5" font-family="Helvetica,sans-Serif" font-size="10.00">Adafruit_BME680.h</text>
</a>
</g>
</g>
<!-- Node9&#45;&gt;Node10 -->
<g id="edge14" class="edge">
<title>Node9&#45;&gt;Node10</title>
<path fill="none" stroke="midnightblue" d="M248.47,-112.08C248.47,-105.01 248.47,-94.86 248.47,-85.99"/>
<polygon fill="midnightblue" stroke="midnightblue" points="251.97,-85.75 248.47,-75.75 244.97,-85.75 251.97,-85.75"/>
</g>
<!-- Node11 -->
<g id="node11" class="node">
<title>Node11</title>
<g id="a_node11"><a xlink:title=" ">
<polygon fill="none" stroke="#bfbfbf" points="13.47,-56.5 13.47,-75.5 115.47,-75.5 115.47,-56.5 13.47,-56.5"/>
<text text-anchor="middle" x="64.47" y="-63.5" font-family="Helvetica,sans-Serif" font-size="10.00">Adafruit_Sensor.h</text>
</a>
</g>
</g>
<!-- Node9&#45;&gt;Node11 -->
<g id="edge15" class="edge">
<title>Node9&#45;&gt;Node11</title>
<path fill="none" stroke="midnightblue" d="M219.32,-112.44C187.96,-103.24 137.94,-88.56 103.28,-78.39"/>
<polygon fill="midnightblue" stroke="midnightblue" points="104.07,-74.97 93.49,-75.52 102.1,-81.69 104.07,-74.97"/>
</g>
<!-- Node12 -->
<g id="node12" class="node">
<title>Node12</title>
<g id="a_node12"><a xlink:title=" ">
<polygon fill="none" stroke="#bfbfbf" points="133.97,-56.5 133.97,-75.5 174.97,-75.5 174.97,-56.5 133.97,-56.5"/>
<text text-anchor="middle" x="154.47" y="-63.5" font-family="Helvetica,sans-Serif" font-size="10.00">SPI.h</text>
</a>
</g>
</g>
<!-- Node9&#45;&gt;Node12 -->
<g id="edge16" class="edge">
<title>Node9&#45;&gt;Node12</title>
<path fill="none" stroke="midnightblue" d="M233.37,-112.32C218.57,-103.82 195.78,-90.73 178.49,-80.8"/>
<polygon fill="midnightblue" stroke="midnightblue" points="179.95,-77.6 169.54,-75.65 176.47,-83.67 179.95,-77.6"/>
</g>
<!-- Node13 -->
<g id="node13" class="node">
<title>Node13</title>
<g id="a_node13"><a xlink:title=" ">
<polygon fill="none" stroke="#bfbfbf" points="757.47,-0.5 757.47,-19.5 805.47,-19.5 805.47,-0.5 757.47,-0.5"/>
<text text-anchor="middle" x="781.47" y="-7.5" font-family="Helvetica,sans-Serif" font-size="10.00">Wire.h</text>
</a>
</g>
</g>
<!-- Node9&#45;&gt;Node13 -->
<g id="edge17" class="edge">
<title>Node9&#45;&gt;Node13</title>
<path fill="none" stroke="midnightblue" d="M199.26,-119.11C135.26,-115.51 28.76,-105.17 4.47,-76 -1.21,-69.17 -1.63,-62.46 4.47,-56 30.32,-28.62 600.33,-14.8 747.2,-11.69"/>
<polygon fill="midnightblue" stroke="midnightblue" points="747.49,-15.18 757.42,-11.47 747.35,-8.18 747.49,-15.18"/>
</g>
<!-- Node14&#45;&gt;Node3 -->
<g id="edge22" class="edge">
<title>Node14&#45;&gt;Node3</title>
<path fill="none" stroke="midnightblue" d="M450.84,-112.44C504.94,-102.01 595.53,-84.54 647.21,-74.57"/>
<polygon fill="midnightblue" stroke="midnightblue" points="648.15,-77.95 657.31,-72.62 646.83,-71.08 648.15,-77.95"/>
</g>
<!-- Node14&#45;&gt;Node13 -->
<g id="edge21" class="edge">
<title>Node14&#45;&gt;Node13</title>
<path fill="none" stroke="midnightblue" d="M413.82,-112.09C426.29,-97.65 453.1,-69.42 482.47,-56 571.52,-15.33 689.49,-10.03 747,-10.16"/>
<polygon fill="midnightblue" stroke="midnightblue" points="747.31,-13.66 757.34,-10.24 747.37,-6.66 747.31,-13.66"/>
</g>
<!-- Node15 -->
<g id="node15" class="node">
<title>Node15</title>
<g id="a_node15"><a xlink:title=" ">
<polygon fill="none" stroke="#bfbfbf" points="321.97,-56.5 321.97,-75.5 434.97,-75.5 434.97,-56.5 321.97,-56.5"/>
<text text-anchor="middle" x="378.47" y="-63.5" font-family="Helvetica,sans-Serif" font-size="10.00">SparkFun_ENS160.h</text>
</a>
</g>
</g>
<!-- Node14&#45;&gt;Node15 -->
<g id="edge23" class="edge">
<title>Node14&#45;&gt;Node15</title>
<path fill="none" stroke="midnightblue" d="M401.85,-112.08C398.02,-104.69 392.45,-93.95 387.71,-84.81"/>
<polygon fill="midnightblue" stroke="midnightblue" points="390.72,-83.02 383.01,-75.75 384.51,-86.24 390.72,-83.02"/>
</g>
<!-- Node16&#45;&gt;Node2 -->
<g id="edge25" class="edge">
<title>Node16&#45;&gt;Node2</title>
<path fill="none" stroke="midnightblue" d="M632.53,-112.19C631.55,-97.91 632.01,-69.89 648.47,-56 705.04,-8.27 1232.13,-9.22 1386.31,-10.53"/>
<polygon fill="midnightblue" stroke="midnightblue" points="1386.72,-14.04 1396.75,-10.63 1386.78,-7.04 1386.72,-14.04"/>
</g>
<!-- Node16&#45;&gt;Node3 -->
<g id="edge26" class="edge">
<title>Node16&#45;&gt;Node3</title>
<path fill="none" stroke="midnightblue" d="M642.22,-112.08C649.94,-104.22 661.38,-92.57 670.69,-83.08"/>
<polygon fill="midnightblue" stroke="midnightblue" points="673.38,-85.34 677.88,-75.75 668.38,-80.44 673.38,-85.34"/>
</g>
<!-- Node17&#45;&gt;Node2 -->
<g id="edge28" class="edge">
<title>Node17&#45;&gt;Node2</title>
<path fill="none" stroke="midnightblue" d="M1239.56,-112.37C1275.19,-93.25 1360.95,-47.23 1403.57,-24.36"/>
<polygon fill="midnightblue" stroke="midnightblue" points="1405.3,-27.4 1412.46,-19.59 1401.99,-21.24 1405.3,-27.4"/>
</g>
<!-- Node17&#45;&gt;Node3 -->
<g id="edge31" class="edge">
<title>Node17&#45;&gt;Node3</title>
<path fill="none" stroke="midnightblue" d="M1176.75,-113.26C1173.62,-112.81 1170.5,-112.38 1167.47,-112 1082.18,-101.17 824.98,-78.82 725.94,-70.35"/>
<polygon fill="midnightblue" stroke="midnightblue" points="726.02,-66.85 715.76,-69.48 725.43,-73.82 726.02,-66.85"/>
</g>
<!-- Node17&#45;&gt;Node6 -->
<g id="edge29" class="edge">
<title>Node17&#45;&gt;Node6</title>
<path fill="none" stroke="midnightblue" d="M1207.89,-112.32C1192.47,-103.74 1168.66,-90.49 1150.76,-80.52"/>
<polygon fill="midnightblue" stroke="midnightblue" points="1152.46,-77.46 1142.02,-75.65 1149.05,-83.58 1152.46,-77.46"/>
</g>
<!-- Node18 -->
<g id="node18" class="node">
<title>Node18</title>
<g id="a_node18"><a xlink:title=" ">
<polygon fill="none" stroke="#bfbfbf" points="1170.97,-56.5 1170.97,-75.5 1275.97,-75.5 1275.97,-56.5 1170.97,-56.5"/>
<text text-anchor="middle" x="1223.47" y="-63.5" font-family="Helvetica,sans-Serif" font-size="10.00">Adafruit_INA260.h</text>
</a>
</g>
</g>
<!-- Node17&#45;&gt;Node18 -->
<g id="edge30" class="edge">
<title>Node17&#45;&gt;Node18</title>
<path fill="none" stroke="midnightblue" d="M1223.47,-112.08C1223.47,-105.01 1223.47,-94.86 1223.47,-85.99"/>
<polygon fill="midnightblue" stroke="midnightblue" points="1226.97,-85.75 1223.47,-75.75 1219.97,-85.75 1226.97,-85.75"/>
</g>
<!-- Node19&#45;&gt;Node3 -->
<g id="edge35" class="edge">
<title>Node19&#45;&gt;Node3</title>
<path fill="none" stroke="midnightblue" d="M1054.39,-113.37C1051.03,-112.9 1047.71,-112.44 1044.47,-112 928.69,-96.32 791.58,-79.6 725.68,-71.68"/>
<polygon fill="midnightblue" stroke="midnightblue" points="726.08,-68.2 715.73,-70.49 725.24,-75.15 726.08,-68.2"/>
</g>
<!-- Node19&#45;&gt;Node6 -->
<g id="edge34" class="edge">
<title>Node19&#45;&gt;Node6</title>
<path fill="none" stroke="midnightblue" d="M1109.77,-112.08C1112.45,-104.85 1116.32,-94.41 1119.66,-85.4"/>
<polygon fill="midnightblue" stroke="midnightblue" points="1123.04,-86.34 1123.23,-75.75 1116.48,-83.91 1123.04,-86.34"/>
</g>
<!-- Node20 -->
<g id="node20" class="node">
<title>Node20</title>
<g id="a_node20"><a xlink:title=" ">
<polygon fill="none" stroke="#bfbfbf" points="967.47,-56.5 967.47,-75.5 1081.47,-75.5 1081.47,-56.5 967.47,-56.5"/>
<text text-anchor="middle" x="1024.47" y="-63.5" font-family="Helvetica,sans-Serif" font-size="10.00">Arduino_LSM9DS1.h</text>
</a>
</g>
</g>
<!-- Node19&#45;&gt;Node20 -->
<g id="edge33" class="edge">
<title>Node19&#45;&gt;Node20</title>
<path fill="none" stroke="midnightblue" d="M1093.3,-112.32C1080.63,-103.98 1061.24,-91.21 1046.27,-81.35"/>
<polygon fill="midnightblue" stroke="midnightblue" points="1047.89,-78.23 1037.61,-75.65 1044.04,-84.08 1047.89,-78.23"/>
</g>
<!-- Node21&#45;&gt;Node2 -->
<g id="edge37" class="edge">
<title>Node21&#45;&gt;Node2</title>
<path fill="none" stroke="midnightblue" d="M1619.68,-112.08C1610.19,-98.15 1590.01,-71.24 1566.47,-56 1537.08,-36.97 1498.94,-25.35 1470.21,-18.69"/>
<polygon fill="midnightblue" stroke="midnightblue" points="1470.6,-15.19 1460.09,-16.46 1469.1,-22.03 1470.6,-15.19"/>
</g>
<!-- Node21&#45;&gt;Node3 -->
<g id="edge41" class="edge">
<title>Node21&#45;&gt;Node3</title>
<path fill="none" stroke="midnightblue" d="M1580.73,-118.94C1456.74,-113.16 1098.17,-95.87 800.47,-76 775.5,-74.33 747.49,-72.13 725.48,-70.32"/>
<polygon fill="midnightblue" stroke="midnightblue" points="725.76,-66.83 715.51,-69.49 725.18,-73.8 725.76,-66.83"/>
</g>
<!-- Node21&#45;&gt;Node6 -->
<g id="edge39" class="edge">
<title>Node21&#45;&gt;Node6</title>
<path fill="none" stroke="midnightblue" d="M1580.69,-118.97C1499.26,-114.77 1321.41,-103.31 1163.05,-76.04"/>
<polygon fill="midnightblue" stroke="midnightblue" points="1163.59,-72.58 1153.13,-74.31 1162.38,-79.48 1163.59,-72.58"/>
</g>
<!-- Node22 -->
<g id="node22" class="node">
<title>Node22</title>
<g id="a_node22"><a xlink:title=" ">
<polygon fill="none" stroke="#bfbfbf" points="1599.97,-0.5 1599.97,-19.5 1652.97,-19.5 1652.97,-0.5 1599.97,-0.5"/>
<text text-anchor="middle" x="1626.47" y="-7.5" font-family="Helvetica,sans-Serif" font-size="10.00">stdint.h</text>
</a>
</g>
</g>
<!-- Node21&#45;&gt;Node22 -->
<g id="edge38" class="edge">
<title>Node21&#45;&gt;Node22</title>
<path fill="none" stroke="midnightblue" d="M1670.14,-113.22C1691.63,-106.98 1715.49,-95.84 1728.47,-76 1747.44,-47.01 1699.59,-28.39 1663.17,-18.81"/>
<polygon fill="midnightblue" stroke="midnightblue" points="1663.82,-15.37 1653.27,-16.35 1662.13,-22.16 1663.82,-15.37"/>
</g>
<!-- Node23 -->
<g id="node23" class="node">
<title>Node23</title>
<g id="a_node23"><a xlink:title=" ">
<polygon fill="none" stroke="#bfbfbf" points="1618.97,-56.5 1618.97,-75.5 1719.97,-75.5 1719.97,-56.5 1618.97,-56.5"/>
<text text-anchor="middle" x="1669.47" y="-63.5" font-family="Helvetica,sans-Serif" font-size="10.00">Adafruit_SGP30.h</text>
</a>
</g>
</g>
<!-- Node21&#45;&gt;Node23 -->
<g id="edge40" class="edge">
<title>Node21&#45;&gt;Node23</title>
<path fill="none" stroke="midnightblue" d="M1632.74,-112.08C1639.02,-104.38 1648.26,-93.03 1655.9,-83.65"/>
<polygon fill="midnightblue" stroke="midnightblue" points="1658.74,-85.71 1662.34,-75.75 1653.31,-81.29 1658.74,-85.71"/>
</g>
<!-- Node24&#45;&gt;Node2 -->
<g id="edge43" class="edge">
<title>Node24&#45;&gt;Node2</title>
<path fill="none" stroke="midnightblue" d="M980.91,-112.12C966.2,-98.71 942.98,-73.05 958.47,-56 987.01,-24.6 1276.89,-14.55 1386.65,-11.86"/>
<polygon fill="midnightblue" stroke="midnightblue" points="1386.79,-15.36 1396.7,-11.62 1386.62,-8.36 1386.79,-15.36"/>
</g>
<!-- Node24&#45;&gt;Node3 -->
<g id="edge47" class="edge">
<title>Node24&#45;&gt;Node3</title>
<path fill="none" stroke="midnightblue" d="M946.8,-113.09C887.14,-102.53 782.4,-83.98 725.67,-73.94"/>
<polygon fill="midnightblue" stroke="midnightblue" points="726.11,-70.46 715.65,-72.17 724.89,-77.36 726.11,-70.46"/>
</g>
<!-- Node24&#45;&gt;Node6 -->
<g id="edge45" class="edge">
<title>Node24&#45;&gt;Node6</title>
<path fill="none" stroke="midnightblue" d="M1012.86,-112.44C1035.18,-103.52 1070.38,-89.44 1095.68,-79.32"/>
<polygon fill="midnightblue" stroke="midnightblue" points="1097.2,-82.48 1105.18,-75.52 1094.6,-75.98 1097.2,-82.48"/>
</g>
<!-- Node24&#45;&gt;Node13 -->
<g id="edge44" class="edge">
<title>Node24&#45;&gt;Node13</title>
<path fill="none" stroke="midnightblue" d="M946.71,-112.9C893.67,-102.93 811.1,-86.08 800.47,-76 787.95,-64.13 783.54,-44.5 782.06,-29.92"/>
<polygon fill="midnightblue" stroke="midnightblue" points="785.53,-29.3 781.4,-19.55 778.54,-29.75 785.53,-29.3"/>
</g>
<!-- Node25 -->
<g id="node25" class="node">
<title>Node25</title>
<g id="a_node25"><a xlink:title=" ">
<polygon fill="none" stroke="#bfbfbf" points="809.97,-56.5 809.97,-75.5 910.97,-75.5 910.97,-56.5 809.97,-56.5"/>
<text text-anchor="middle" x="860.47" y="-63.5" font-family="Helvetica,sans-Serif" font-size="10.00">Adafruit_SHT31.h</text>
</a>
</g>
</g>
<!-- Node24&#45;&gt;Node25 -->
<g id="edge46" class="edge">
<title>Node24&#45;&gt;Node25</title>
<path fill="none" stroke="midnightblue" d="M970.71,-112.44C949.16,-103.56 915.21,-89.56 890.68,-79.45"/>
<polygon fill="midnightblue" stroke="midnightblue" points="891.71,-76.09 881.13,-75.52 889.04,-82.56 891.71,-76.09"/>
</g>
<!-- Node26&#45;&gt;Node3 -->
<g id="edge49" class="edge">
<title>Node26&#45;&gt;Node3</title>
<path fill="none" stroke="midnightblue" d="M729.89,-112.08C722.31,-104.22 711.09,-92.57 701.96,-83.08"/>
<polygon fill="midnightblue" stroke="midnightblue" points="704.36,-80.53 694.9,-75.75 699.31,-85.38 704.36,-80.53"/>
</g>
<!-- Node27&#45;&gt;Node2 -->
<g id="edge51" class="edge">
<title>Node27&#45;&gt;Node2</title>
<path fill="none" stroke="midnightblue" d="M1392.77,-112.77C1432.56,-105.21 1482.98,-92.66 1495.47,-76 1510.56,-55.88 1482.74,-36.27 1458.48,-23.94"/>
<polygon fill="midnightblue" stroke="midnightblue" points="1459.99,-20.78 1449.46,-19.59 1456.95,-27.09 1459.99,-20.78"/>
</g>
<!-- Node27&#45;&gt;Node3 -->
<g id="edge54" class="edge">
<title>Node27&#45;&gt;Node3</title>
<path fill="none" stroke="midnightblue" d="M1290.28,-113.4C1286.29,-112.89 1282.32,-112.42 1278.47,-112 1066.68,-88.92 1012.89,-92.38 800.47,-76 775.52,-74.08 747.51,-71.86 725.49,-70.12"/>
<polygon fill="midnightblue" stroke="midnightblue" points="725.77,-66.63 715.52,-69.32 725.21,-73.6 725.77,-66.63"/>
</g>
<!-- Node27&#45;&gt;Node6 -->
<g id="edge53" class="edge">
<title>Node27&#45;&gt;Node6</title>
<path fill="none" stroke="midnightblue" d="M1306.95,-112.44C1272.75,-103.95 1218.63,-90.46 1163.21,-76.43"/>
<polygon fill="midnightblue" stroke="midnightblue" points="1163.77,-72.96 1153.22,-73.9 1162.05,-79.75 1163.77,-72.96"/>
</g>
<!-- Node27&#45;&gt;Node13 -->
<g id="edge52" class="edge">
<title>Node27&#45;&gt;Node13</title>
<path fill="none" stroke="midnightblue" d="M1336.87,-112.38C1328.58,-97.84 1309.63,-68.78 1284.47,-56 1202.17,-14.19 914.93,-10.71 815.59,-10.8"/>
<polygon fill="midnightblue" stroke="midnightblue" points="815.49,-7.3 805.49,-10.82 815.5,-14.3 815.49,-7.3"/>
</g>
<!-- Node28 -->
<g id="node28" class="node">
<title>Node28</title>
<g id="a_node28"><a xlink:href="ZOPT220x__Control_8h.html" target="_top" xlink:title=" ">
<polygon fill="none" stroke="black" points="1370.47,-56.5 1370.47,-75.5 1486.47,-75.5 1486.47,-56.5 1370.47,-56.5"/>
<text text-anchor="middle" x="1428.47" y="-63.5" font-family="Helvetica,sans-Serif" font-size="10.00">ZOPT220x_Control.h</text>
</a>
</g>
</g>
<!-- Node27&#45;&gt;Node28 -->
<g id="edge55" class="edge">
<title>Node27&#45;&gt;Node28</title>
<path fill="none" stroke="midnightblue" d="M1355.45,-112.32C1369.02,-103.9 1389.85,-90.97 1405.8,-81.07"/>
<polygon fill="midnightblue" stroke="midnightblue" points="1407.88,-83.9 1414.53,-75.65 1404.19,-77.95 1407.88,-83.9"/>
</g>
<!-- Node28&#45;&gt;Node2 -->
<g id="edge56" class="edge">
<title>Node28&#45;&gt;Node2</title>
<path fill="none" stroke="midnightblue" d="M1428.47,-56.08C1428.47,-49.01 1428.47,-38.86 1428.47,-29.99"/>
<polygon fill="midnightblue" stroke="midnightblue" points="1431.97,-29.75 1428.47,-19.75 1424.97,-29.75 1431.97,-29.75"/>
</g>
<!-- Node28&#45;&gt;Node13 -->
<g id="edge57" class="edge">
<title>Node28&#45;&gt;Node13</title>
<path fill="none" stroke="midnightblue" d="M1370.34,-57.5C1365.65,-56.97 1360.98,-56.46 1356.47,-56 1151.62,-35.19 904.85,-18.78 815.69,-13.12"/>
<polygon fill="midnightblue" stroke="midnightblue" points="815.81,-9.62 805.61,-12.49 815.37,-16.61 815.81,-9.62"/>
</g>
<!-- Node28&#45;&gt;Node22 -->
<g id="edge58" class="edge">
<title>Node28&#45;&gt;Node22</title>
<path fill="none" stroke="midnightblue" d="M1459.85,-56.44C1495.13,-46.82 1552.37,-31.21 1589.72,-21.02"/>
<polygon fill="midnightblue" stroke="midnightblue" points="1590.96,-24.31 1599.69,-18.3 1589.12,-17.56 1590.96,-24.31"/>
</g>
<!-- Node29&#45;&gt;Node2 -->
<g id="edge60" class="edge">
<title>Node29&#45;&gt;Node2</title>
<path fill="none" stroke="midnightblue" d="M1901.76,-112.15C1909.26,-98.32 1920.61,-71.54 1906.47,-56 1891.85,-39.94 1584,-20.19 1470.24,-13.41"/>
<polygon fill="midnightblue" stroke="midnightblue" points="1470.36,-9.92 1460.17,-12.82 1469.94,-16.9 1470.36,-9.92"/>
</g>
<!-- Node29&#45;&gt;Node4 -->
<g id="edge61" class="edge">
<title>Node29&#45;&gt;Node4</title>
<path fill="none" stroke="midnightblue" d="M1891.35,-112.08C1887.06,-104.61 1880.81,-93.72 1875.53,-84.52"/>
<polygon fill="midnightblue" stroke="midnightblue" points="1878.51,-82.68 1870.5,-75.75 1872.44,-86.17 1878.51,-82.68"/>
</g>
<!-- Node30&#45;&gt;Node4 -->
<g id="edge64" class="edge">
<title>Node30&#45;&gt;Node4</title>
<path fill="none" stroke="midnightblue" d="M1773.15,-112.32C1790.87,-103.62 1818.38,-90.12 1838.76,-80.11"/>
<polygon fill="midnightblue" stroke="midnightblue" points="1840.41,-83.2 1847.84,-75.65 1837.32,-76.92 1840.41,-83.2"/>
</g>
<!-- Node31 -->
<g id="node31" class="node">
<title>Node31</title>
<g id="a_node31"><a xlink:title=" ">
<polygon fill="none" stroke="#bfbfbf" points="1776.97,-56.5 1776.97,-75.5 1815.97,-75.5 1815.97,-56.5 1776.97,-56.5"/>
<text text-anchor="middle" x="1796.47" y="-63.5" font-family="Helvetica,sans-Serif" font-size="10.00">SD.h</text>
</a>
</g>
</g>
<!-- Node30&#45;&gt;Node31 -->
<g id="edge63" class="edge">
<title>Node30&#45;&gt;Node31</title>
<path fill="none" stroke="midnightblue" d="M1762.24,-112.08C1768.03,-104.46 1776.53,-93.26 1783.61,-83.94"/>
<polygon fill="midnightblue" stroke="midnightblue" points="1786.57,-85.83 1789.83,-75.75 1780.99,-81.6 1786.57,-85.83"/>
</g>
</g>
</svg>
