<?xml version="1.0" encoding="UTF-8" standalone="no"?>
<!DOCTYPE svg PUBLIC "-//W3C//DTD SVG 1.1//EN"
 "http://www.w3.org/Graphics/SVG/1.1/DTD/svg11.dtd">
<!-- Generated by graphviz version 2.43.0 (0)
 -->
<!-- Title: main.cpp Pages: 1 -->
<svg width="2752pt" height="196pt"
 viewBox="0.00 0.00 2751.67 196.00" xmlns="http://www.w3.org/2000/svg" xmlns:xlink="http://www.w3.org/1999/xlink">
<g id="graph0" class="graph" transform="scale(1 1) rotate(0) translate(4 192)">
<title>main.cpp</title>
<!-- Node1 -->
<g id="node1" class="node">
<title>Node1</title>
<g id="a_node1"><a xlink:title=" ">
<polygon fill="#bfbfbf" stroke="black" points="1462.56,-168.5 1462.56,-187.5 1524.56,-187.5 1524.56,-168.5 1462.56,-168.5"/>
<text text-anchor="middle" x="1493.56" y="-175.5" font-family="Helvetica,sans-Serif" font-size="10.00">main.cpp</text>
</a>
</g>
</g>
<!-- Node2 -->
<g id="node2" class="node">
<title>Node2</title>
<g id="a_node2"><a xlink:title=" ">
<polygon fill="none" stroke="#bfbfbf" points="1830.06,-0.5 1830.06,-19.5 1893.06,-19.5 1893.06,-0.5 1830.06,-0.5"/>
<text text-anchor="middle" x="1861.56" y="-7.5" font-family="Helvetica,sans-Serif" font-size="10.00">Arduino.h</text>
</a>
</g>
</g>
<!-- Node1&#45;&gt;Node2 -->
<g id="edge1" class="edge">
<title>Node1&#45;&gt;Node2</title>
<path fill="none" stroke="midnightblue" d="M1524.8,-176.8C1698.87,-175.56 2545.37,-167.71 2655.56,-132 2698.25,-118.17 2718.39,-115.56 2739.56,-76 2743.76,-68.16 2745.68,-62.44 2739.56,-56 2710.44,-25.35 2073.79,-14.04 1903.26,-11.56"/>
<polygon fill="midnightblue" stroke="midnightblue" points="1903.22,-8.06 1893.17,-11.41 1903.12,-15.06 1903.22,-8.06"/>
</g>
<!-- Node3 -->
<g id="node3" class="node">
<title>Node3</title>
<g id="a_node3"><a xlink:href="ErrorDisplay_8h.html" target="_top" xlink:title=" ">
<polygon fill="none" stroke="black" points="1169.56,-56.5 1169.56,-75.5 1253.56,-75.5 1253.56,-56.5 1169.56,-56.5"/>
<text text-anchor="middle" x="1211.56" y="-63.5" font-family="Helvetica,sans-Serif" font-size="10.00">ErrorDisplay.h</text>
</a>
</g>
</g>
<!-- Node1&#45;&gt;Node3 -->
<g id="edge2" class="edge">
<title>Node1&#45;&gt;Node3</title>
<path fill="none" stroke="midnightblue" d="M1462.24,-175.44C1401.04,-171.79 1268.56,-160.71 1234.56,-132 1221.01,-120.55 1215.44,-100.57 1213.15,-85.78"/>
<polygon fill="midnightblue" stroke="midnightblue" points="1216.61,-85.22 1211.97,-75.7 1209.66,-86.04 1216.61,-85.22"/>
</g>
<!-- Node4 -->
<g id="node4" class="node">
<title>Node4</title>
<g id="a_node4"><a xlink:href="PayloadConfig_8h.html" target="_top" xlink:title=" ">
<polygon fill="none" stroke="black" points="1164.06,-0.5 1164.06,-19.5 1259.06,-19.5 1259.06,-0.5 1164.06,-0.5"/>
<text text-anchor="middle" x="1211.56" y="-7.5" font-family="Helvetica,sans-Serif" font-size="10.00">PayloadConfig.h</text>
</a>
</g>
</g>
<!-- Node1&#45;&gt;Node4 -->
<g id="edge7" class="edge">
<title>Node1&#45;&gt;Node4</title>
<path fill="none" stroke="midnightblue" d="M1462.18,-176.61C1334.98,-174.84 845.51,-166.05 444.56,-132 248.14,-115.32 134.86,-223.93 4.56,-76 -1.31,-69.33 -1.62,-62.38 4.56,-56 47.61,-11.58 1024.81,-25.04 1154.01,-19.57"/>
<polygon fill="midnightblue" stroke="midnightblue" points="1154.26,-23.06 1164.03,-18.96 1153.84,-16.08 1154.26,-23.06"/>
</g>
<!-- Node7 -->
<g id="node7" class="node">
<title>Node7</title>
<g id="a_node7"><a xlink:href="Sensor_8h.html" target="_top" xlink:title=" ">
<polygon fill="none" stroke="black" points="1403.56,-56.5 1403.56,-75.5 1461.56,-75.5 1461.56,-56.5 1403.56,-56.5"/>
<text text-anchor="middle" x="1432.56" y="-63.5" font-family="Helvetica,sans-Serif" font-size="10.00">Sensor.h</text>
</a>
</g>
</g>
<!-- Node1&#45;&gt;Node7 -->
<g id="edge8" class="edge">
<title>Node1&#45;&gt;Node7</title>
<path fill="none" stroke="midnightblue" d="M1462.32,-173.19C1437.15,-168.3 1403.29,-157.18 1386.56,-132 1374.9,-114.45 1393.44,-94.75 1410.34,-81.69"/>
<polygon fill="midnightblue" stroke="midnightblue" points="1412.82,-84.21 1418.86,-75.51 1408.71,-78.55 1412.82,-84.21"/>
</g>
<!-- Node8 -->
<g id="node8" class="node">
<title>Node8</title>
<g id="a_node8"><a xlink:href="Storage_8h.html" target="_top" xlink:title=" ">
<polygon fill="none" stroke="black" points="2315.06,-56.5 2315.06,-75.5 2378.06,-75.5 2378.06,-56.5 2315.06,-56.5"/>
<text text-anchor="middle" x="2346.56" y="-63.5" font-family="Helvetica,sans-Serif" font-size="10.00">Storage.h</text>
</a>
</g>
</g>
<!-- Node1&#45;&gt;Node8 -->
<g id="edge10" class="edge">
<title>Node1&#45;&gt;Node8</title>
<path fill="none" stroke="midnightblue" d="M1524.64,-176.61C1640.76,-174.9 2048.84,-166.51 2173.56,-132 2192.34,-126.8 2194.61,-119.57 2212.56,-112 2243.74,-98.86 2280.21,-86.82 2307.22,-78.51"/>
<polygon fill="midnightblue" stroke="midnightblue" points="2308.53,-81.77 2317.08,-75.51 2306.49,-75.07 2308.53,-81.77"/>
</g>
<!-- Node9 -->
<g id="node9" class="node">
<title>Node9</title>
<g id="a_node9"><a xlink:href="AS7331Sensor_8h.html" target="_top" xlink:title=" ">
<polygon fill="none" stroke="black" points="960.06,-112.5 960.06,-131.5 1055.06,-131.5 1055.06,-112.5 960.06,-112.5"/>
<text text-anchor="middle" x="1007.56" y="-119.5" font-family="Helvetica,sans-Serif" font-size="10.00">AS7331Sensor.h</text>
</a>
</g>
</g>
<!-- Node1&#45;&gt;Node9 -->
<g id="edge12" class="edge">
<title>Node1&#45;&gt;Node9</title>
<path fill="none" stroke="midnightblue" d="M1462.47,-174.34C1393.09,-168.27 1220.21,-152.45 1065.37,-132.18"/>
<polygon fill="midnightblue" stroke="midnightblue" points="1065.57,-128.68 1055.19,-130.84 1064.65,-135.62 1065.57,-128.68"/>
</g>
<!-- Node13 -->
<g id="node13" class="node">
<title>Node13</title>
<g id="a_node13"><a xlink:href="BME280Sensor_8h.html" target="_top" xlink:title=" ">
<polygon fill="none" stroke="black" points="1619.56,-112.5 1619.56,-131.5 1717.56,-131.5 1717.56,-112.5 1619.56,-112.5"/>
<text text-anchor="middle" x="1668.56" y="-119.5" font-family="Helvetica,sans-Serif" font-size="10.00">BME280Sensor.h</text>
</a>
</g>
</g>
<!-- Node1&#45;&gt;Node13 -->
<g id="edge17" class="edge">
<title>Node1&#45;&gt;Node13</title>
<path fill="none" stroke="midnightblue" d="M1521.29,-168.44C1550.99,-159.28 1598.28,-144.69 1631.23,-134.52"/>
<polygon fill="midnightblue" stroke="midnightblue" points="1632.44,-137.81 1640.96,-131.52 1630.37,-131.12 1632.44,-137.81"/>
</g>
<!-- Node15 -->
<g id="node15" class="node">
<title>Node15</title>
<g id="a_node15"><a xlink:href="BME680Sensor_8h.html" target="_top" xlink:title=" ">
<polygon fill="none" stroke="black" points="843.56,-112.5 843.56,-131.5 941.56,-131.5 941.56,-112.5 843.56,-112.5"/>
<text text-anchor="middle" x="892.56" y="-119.5" font-family="Helvetica,sans-Serif" font-size="10.00">BME680Sensor.h</text>
</a>
</g>
</g>
<!-- Node1&#45;&gt;Node15 -->
<g id="edge20" class="edge">
<title>Node1&#45;&gt;Node15</title>
<path fill="none" stroke="midnightblue" d="M1462.26,-175.19C1380.27,-170.28 1152.27,-155.56 951.71,-132.05"/>
<polygon fill="midnightblue" stroke="midnightblue" points="951.92,-128.56 941.58,-130.86 951.1,-135.51 951.92,-128.56"/>
</g>
<!-- Node19 -->
<g id="node19" class="node">
<title>Node19</title>
<g id="a_node19"><a xlink:href="ENS160Sensor_8h.html" target="_top" xlink:title=" ">
<polygon fill="none" stroke="black" points="1244.06,-112.5 1244.06,-131.5 1339.06,-131.5 1339.06,-112.5 1244.06,-112.5"/>
<text text-anchor="middle" x="1291.56" y="-119.5" font-family="Helvetica,sans-Serif" font-size="10.00">ENS160Sensor.h</text>
</a>
</g>
</g>
<!-- Node1&#45;&gt;Node19 -->
<g id="edge28" class="edge">
<title>Node1&#45;&gt;Node19</title>
<path fill="none" stroke="midnightblue" d="M1462.44,-168.68C1427.8,-159.42 1371.64,-144.41 1333.23,-134.14"/>
<polygon fill="midnightblue" stroke="midnightblue" points="1333.95,-130.71 1323.38,-131.51 1332.14,-137.47 1333.95,-130.71"/>
</g>
<!-- Node21 -->
<g id="node21" class="node">
<title>Node21</title>
<g id="a_node21"><a xlink:href="ICM20948Sensor_8h.html" target="_top" xlink:title=" ">
<polygon fill="none" stroke="black" points="454.06,-112.5 454.06,-131.5 561.06,-131.5 561.06,-112.5 454.06,-112.5"/>
<text text-anchor="middle" x="507.56" y="-119.5" font-family="Helvetica,sans-Serif" font-size="10.00">ICM20948Sensor.h</text>
</a>
</g>
</g>
<!-- Node1&#45;&gt;Node21 -->
<g id="edge32" class="edge">
<title>Node1&#45;&gt;Node21</title>
<path fill="none" stroke="midnightblue" d="M1462.22,-175.51C1350.6,-170.15 962.04,-151.22 641.56,-132 618.65,-130.63 593.55,-128.98 571.33,-127.47"/>
<polygon fill="midnightblue" stroke="midnightblue" points="571.56,-123.98 561.34,-126.79 571.08,-130.96 571.56,-123.98"/>
</g>
<!-- Node24 -->
<g id="node24" class="node">
<title>Node24</title>
<g id="a_node24"><a xlink:href="INA260Sensor_8h.html" target="_top" xlink:title=" ">
<polygon fill="none" stroke="black" points="1736.06,-112.5 1736.06,-131.5 1829.06,-131.5 1829.06,-112.5 1736.06,-112.5"/>
<text text-anchor="middle" x="1782.56" y="-119.5" font-family="Helvetica,sans-Serif" font-size="10.00">INA260Sensor.h</text>
</a>
</g>
</g>
<!-- Node1&#45;&gt;Node24 -->
<g id="edge39" class="edge">
<title>Node1&#45;&gt;Node24</title>
<path fill="none" stroke="midnightblue" d="M1524.76,-171.17C1573.12,-162.13 1666.85,-144.62 1726.98,-133.39"/>
<polygon fill="midnightblue" stroke="midnightblue" points="1727.88,-136.78 1737.06,-131.5 1726.59,-129.9 1727.88,-136.78"/>
</g>
<!-- Node26 -->
<g id="node26" class="node">
<title>Node26</title>
<g id="a_node26"><a xlink:href="LSM9DS1Sensor_8h.html" target="_top" xlink:title=" ">
<polygon fill="none" stroke="black" points="650.56,-112.5 650.56,-131.5 754.56,-131.5 754.56,-112.5 650.56,-112.5"/>
<text text-anchor="middle" x="702.56" y="-119.5" font-family="Helvetica,sans-Serif" font-size="10.00">LSM9DS1Sensor.h</text>
</a>
</g>
</g>
<!-- Node1&#45;&gt;Node26 -->
<g id="edge44" class="edge">
<title>Node1&#45;&gt;Node26</title>
<path fill="none" stroke="midnightblue" d="M1462.55,-174.88C1344.89,-166.85 924.56,-138.16 764.8,-127.25"/>
<polygon fill="midnightblue" stroke="midnightblue" points="764.87,-123.75 754.66,-126.56 764.39,-130.73 764.87,-123.75"/>
</g>
<!-- Node28 -->
<g id="node28" class="node">
<title>Node28</title>
<g id="a_node28"><a xlink:href="MTK3339Sensor_8h.html" target="_top" xlink:title=" ">
<polygon fill="none" stroke="black" points="1497.56,-112.5 1497.56,-131.5 1601.56,-131.5 1601.56,-112.5 1497.56,-112.5"/>
<text text-anchor="middle" x="1549.56" y="-119.5" font-family="Helvetica,sans-Serif" font-size="10.00">MTK3339Sensor.h</text>
</a>
</g>
</g>
<!-- Node1&#45;&gt;Node28 -->
<g id="edge50" class="edge">
<title>Node1&#45;&gt;Node28</title>
<path fill="none" stroke="midnightblue" d="M1502.56,-168.32C1510.76,-160.42 1523.07,-148.55 1533.03,-138.94"/>
<polygon fill="midnightblue" stroke="midnightblue" points="1535.63,-141.29 1540.4,-131.83 1530.77,-136.26 1535.63,-141.29"/>
</g>
<!-- Node30 -->
<g id="node30" class="node">
<title>Node30</title>
<g id="a_node30"><a xlink:href="PCF8523Sensor_8h.html" target="_top" xlink:title=" ">
<polygon fill="none" stroke="black" points="2328.06,-112.5 2328.06,-131.5 2429.06,-131.5 2429.06,-112.5 2328.06,-112.5"/>
<text text-anchor="middle" x="2378.56" y="-119.5" font-family="Helvetica,sans-Serif" font-size="10.00">PCF8523Sensor.h</text>
</a>
</g>
</g>
<!-- Node1&#45;&gt;Node30 -->
<g id="edge57" class="edge">
<title>Node1&#45;&gt;Node30</title>
<path fill="none" stroke="midnightblue" d="M1524.78,-176.39C1633.05,-174.04 2002.58,-164.12 2317.51,-132.12"/>
<polygon fill="midnightblue" stroke="midnightblue" points="2318.16,-135.57 2327.75,-131.07 2317.45,-128.61 2318.16,-135.57"/>
</g>
<!-- Node32 -->
<g id="node32" class="node">
<title>Node32</title>
<g id="a_node32"><a xlink:href="SGP30Sensor_8h.html" target="_top" xlink:title=" ">
<polygon fill="none" stroke="black" points="2221.06,-112.5 2221.06,-131.5 2310.06,-131.5 2310.06,-112.5 2221.06,-112.5"/>
<text text-anchor="middle" x="2265.56" y="-119.5" font-family="Helvetica,sans-Serif" font-size="10.00">SGP30Sensor.h</text>
</a>
</g>
</g>
<!-- Node1&#45;&gt;Node32 -->
<g id="edge60" class="edge">
<title>Node1&#45;&gt;Node32</title>
<path fill="none" stroke="midnightblue" d="M1524.57,-176.02C1623.98,-172.68 1943.58,-160.3 2206.56,-132 2207.87,-131.86 2209.18,-131.71 2210.51,-131.56"/>
<polygon fill="midnightblue" stroke="midnightblue" points="2211.36,-134.98 2220.84,-130.25 2210.48,-128.03 2211.36,-134.98"/>
</g>
<!-- Node35 -->
<g id="node35" class="node">
<title>Node35</title>
<g id="a_node35"><a xlink:href="SHT31Sensor_8h.html" target="_top" xlink:title=" ">
<polygon fill="none" stroke="black" points="1073.06,-112.5 1073.06,-131.5 1162.06,-131.5 1162.06,-112.5 1073.06,-112.5"/>
<text text-anchor="middle" x="1117.56" y="-119.5" font-family="Helvetica,sans-Serif" font-size="10.00">SHT31Sensor.h</text>
</a>
</g>
</g>
<!-- Node1&#45;&gt;Node35 -->
<g id="edge66" class="edge">
<title>Node1&#45;&gt;Node35</title>
<path fill="none" stroke="midnightblue" d="M1462.47,-172.54C1398.74,-163.38 1252.54,-142.39 1172.47,-130.89"/>
<polygon fill="midnightblue" stroke="midnightblue" points="1172.49,-127.35 1162.1,-129.4 1171.5,-134.28 1172.49,-127.35"/>
</g>
<!-- Node37 -->
<g id="node37" class="node">
<title>Node37</title>
<g id="a_node37"><a xlink:href="TempSensor_8h.html" target="_top" xlink:title=" ">
<polygon fill="none" stroke="black" points="1395.56,-112.5 1395.56,-131.5 1479.56,-131.5 1479.56,-112.5 1395.56,-112.5"/>
<text text-anchor="middle" x="1437.56" y="-119.5" font-family="Helvetica,sans-Serif" font-size="10.00">TempSensor.h</text>
</a>
</g>
</g>
<!-- Node1&#45;&gt;Node37 -->
<g id="edge72" class="edge">
<title>Node1&#45;&gt;Node37</title>
<path fill="none" stroke="midnightblue" d="M1484.56,-168.32C1476.37,-160.42 1464.06,-148.55 1454.09,-138.94"/>
<polygon fill="midnightblue" stroke="midnightblue" points="1456.35,-136.26 1446.72,-131.83 1451.49,-141.29 1456.35,-136.26"/>
</g>
<!-- Node38 -->
<g id="node38" class="node">
<title>Node38</title>
<g id="a_node38"><a xlink:href="FlashStorage_8h.html" target="_top" xlink:title=" ">
<polygon fill="none" stroke="black" points="2075.06,-112.5 2075.06,-131.5 2164.06,-131.5 2164.06,-112.5 2075.06,-112.5"/>
<text text-anchor="middle" x="2119.56" y="-119.5" font-family="Helvetica,sans-Serif" font-size="10.00">FlashStorage.h</text>
</a>
</g>
</g>
<!-- Node1&#45;&gt;Node38 -->
<g id="edge74" class="edge">
<title>Node1&#45;&gt;Node38</title>
<path fill="none" stroke="midnightblue" d="M1524.72,-175.54C1609.7,-171.35 1852.83,-157.95 2064.72,-132.13"/>
<polygon fill="midnightblue" stroke="midnightblue" points="2065.29,-135.59 2074.78,-130.89 2064.43,-128.64 2065.29,-135.59"/>
</g>
<!-- Node40 -->
<g id="node40" class="node">
<title>Node40</title>
<g id="a_node40"><a xlink:href="RadioStorage_8h.html" target="_top" xlink:title=" ">
<polygon fill="none" stroke="black" points="2555.06,-112.5 2555.06,-131.5 2646.06,-131.5 2646.06,-112.5 2555.06,-112.5"/>
<text text-anchor="middle" x="2600.56" y="-119.5" font-family="Helvetica,sans-Serif" font-size="10.00">RadioStorage.h</text>
</a>
</g>
</g>
<!-- Node1&#45;&gt;Node40 -->
<g id="edge79" class="edge">
<title>Node1&#45;&gt;Node40</title>
<path fill="none" stroke="midnightblue" d="M1524.56,-175.61C1643.15,-170.29 2079.34,-150.53 2438.56,-132 2473.82,-130.18 2513.38,-127.99 2544.59,-126.22"/>
<polygon fill="midnightblue" stroke="midnightblue" points="2545.04,-129.7 2554.83,-125.64 2544.65,-122.71 2545.04,-129.7"/>
</g>
<!-- Node41 -->
<g id="node41" class="node">
<title>Node41</title>
<g id="a_node41"><a xlink:href="SDStorage_8h.html" target="_top" xlink:title=" ">
<polygon fill="none" stroke="black" points="1980.06,-112.5 1980.06,-131.5 2057.06,-131.5 2057.06,-112.5 1980.06,-112.5"/>
<text text-anchor="middle" x="2018.56" y="-119.5" font-family="Helvetica,sans-Serif" font-size="10.00">SDStorage.h</text>
</a>
</g>
</g>
<!-- Node1&#45;&gt;Node41 -->
<g id="edge83" class="edge">
<title>Node1&#45;&gt;Node41</title>
<path fill="none" stroke="midnightblue" d="M1524.83,-173.78C1612.85,-164.73 1863.21,-138.98 1969.68,-128.03"/>
<polygon fill="midnightblue" stroke="midnightblue" points="1970.23,-131.49 1979.82,-126.98 1969.52,-124.53 1970.23,-131.49"/>
</g>
<!-- Node3&#45;&gt;Node2 -->
<g id="edge3" class="edge">
<title>Node3&#45;&gt;Node2</title>
<path fill="none" stroke="midnightblue" d="M1253.81,-57.21C1256.77,-56.77 1259.71,-56.36 1262.56,-56 1470.97,-29.85 1722.22,-16.99 1819.9,-12.7"/>
<polygon fill="midnightblue" stroke="midnightblue" points="1820.11,-16.19 1829.95,-12.26 1819.81,-9.2 1820.11,-16.19"/>
</g>
<!-- Node3&#45;&gt;Node4 -->
<g id="edge4" class="edge">
<title>Node3&#45;&gt;Node4</title>
<path fill="none" stroke="midnightblue" d="M1211.56,-56.08C1211.56,-49.01 1211.56,-38.86 1211.56,-29.99"/>
<polygon fill="midnightblue" stroke="midnightblue" points="1215.06,-29.75 1211.56,-19.75 1208.06,-29.75 1215.06,-29.75"/>
</g>
<!-- Node5 -->
<g id="node5" class="node">
<title>Node5</title>
<g id="a_node5"><a xlink:title=" ">
<polygon fill="none" stroke="#bfbfbf" points="1277.06,-0.5 1277.06,-19.5 1372.06,-19.5 1372.06,-0.5 1277.06,-0.5"/>
<text text-anchor="middle" x="1324.56" y="-7.5" font-family="Helvetica,sans-Serif" font-size="10.00">pico/multicore.h</text>
</a>
</g>
</g>
<!-- Node3&#45;&gt;Node5 -->
<g id="edge5" class="edge">
<title>Node3&#45;&gt;Node5</title>
<path fill="none" stroke="midnightblue" d="M1229.47,-56.44C1247.82,-47.68 1276.57,-33.94 1297.66,-23.86"/>
<polygon fill="midnightblue" stroke="midnightblue" points="1299.23,-26.99 1306.74,-19.52 1296.21,-20.67 1299.23,-26.99"/>
</g>
<!-- Node6 -->
<g id="node6" class="node">
<title>Node6</title>
<g id="a_node6"><a xlink:title=" ">
<polygon fill="none" stroke="#bfbfbf" points="1069.56,-0.5 1069.56,-19.5 1145.56,-19.5 1145.56,-0.5 1069.56,-0.5"/>
<text text-anchor="middle" x="1107.56" y="-7.5" font-family="Helvetica,sans-Serif" font-size="10.00">pico/stdlib.h</text>
</a>
</g>
</g>
<!-- Node3&#45;&gt;Node6 -->
<g id="edge6" class="edge">
<title>Node3&#45;&gt;Node6</title>
<path fill="none" stroke="midnightblue" d="M1194.85,-56.32C1178.25,-47.7 1152.56,-34.36 1133.34,-24.39"/>
<polygon fill="midnightblue" stroke="midnightblue" points="1134.72,-21.16 1124.23,-19.65 1131.49,-27.37 1134.72,-21.16"/>
</g>
<!-- Node7&#45;&gt;Node2 -->
<g id="edge9" class="edge">
<title>Node7&#45;&gt;Node2</title>
<path fill="none" stroke="midnightblue" d="M1461.88,-57.86C1465.13,-57.18 1468.41,-56.54 1471.56,-56 1597.42,-34.29 1747.98,-20.25 1819.65,-14.29"/>
<polygon fill="midnightblue" stroke="midnightblue" points="1820.37,-17.74 1830.05,-13.43 1819.8,-10.76 1820.37,-17.74"/>
</g>
<!-- Node8&#45;&gt;Node2 -->
<g id="edge11" class="edge">
<title>Node8&#45;&gt;Node2</title>
<path fill="none" stroke="midnightblue" d="M2314.75,-57.48C2311.99,-56.94 2309.23,-56.43 2306.56,-56 2159.31,-32.08 1982.44,-18.72 1903.35,-13.54"/>
<polygon fill="midnightblue" stroke="midnightblue" points="1903.5,-10.04 1893.3,-12.89 1903.05,-17.03 1903.5,-10.04"/>
</g>
<!-- Node9&#45;&gt;Node7 -->
<g id="edge16" class="edge">
<title>Node9&#45;&gt;Node7</title>
<path fill="none" stroke="midnightblue" d="M1055.2,-113.18C1058.02,-112.76 1060.83,-112.37 1063.56,-112 1206.49,-92.73 1246.32,-100.27 1392.97,-75.89"/>
<polygon fill="midnightblue" stroke="midnightblue" points="1393.97,-79.27 1403.25,-74.16 1392.81,-72.37 1393.97,-79.27"/>
</g>
<!-- Node10 -->
<g id="node10" class="node">
<title>Node10</title>
<g id="a_node10"><a xlink:title=" ">
<polygon fill="none" stroke="#bfbfbf" points="743.06,-56.5 743.06,-75.5 856.06,-75.5 856.06,-56.5 743.06,-56.5"/>
<text text-anchor="middle" x="799.56" y="-63.5" font-family="Helvetica,sans-Serif" font-size="10.00">SparkFun_AS7331.h</text>
</a>
</g>
</g>
<!-- Node9&#45;&gt;Node10 -->
<g id="edge13" class="edge">
<title>Node9&#45;&gt;Node10</title>
<path fill="none" stroke="midnightblue" d="M974.6,-112.44C938.78,-103.14 881.4,-88.25 842.17,-78.06"/>
<polygon fill="midnightblue" stroke="midnightblue" points="842.92,-74.64 832.37,-75.52 841.17,-81.42 842.92,-74.64"/>
</g>
<!-- Node11 -->
<g id="node11" class="node">
<title>Node11</title>
<g id="a_node11"><a xlink:title=" ">
<polygon fill="none" stroke="#bfbfbf" points="983.56,-56.5 983.56,-75.5 1031.56,-75.5 1031.56,-56.5 983.56,-56.5"/>
<text text-anchor="middle" x="1007.56" y="-63.5" font-family="Helvetica,sans-Serif" font-size="10.00">Wire.h</text>
</a>
</g>
</g>
<!-- Node9&#45;&gt;Node11 -->
<g id="edge14" class="edge">
<title>Node9&#45;&gt;Node11</title>
<path fill="none" stroke="midnightblue" d="M1007.56,-112.08C1007.56,-105.01 1007.56,-94.86 1007.56,-85.99"/>
<polygon fill="midnightblue" stroke="midnightblue" points="1011.06,-85.75 1007.56,-75.75 1004.06,-85.75 1011.06,-85.75"/>
</g>
<!-- Node12 -->
<g id="node12" class="node">
<title>Node12</title>
<g id="a_node12"><a xlink:title=" ">
<polygon fill="none" stroke="#bfbfbf" points="874.06,-56.5 874.06,-75.5 927.06,-75.5 927.06,-56.5 874.06,-56.5"/>
<text text-anchor="middle" x="900.56" y="-63.5" font-family="Helvetica,sans-Serif" font-size="10.00">string.h</text>
</a>
</g>
</g>
<!-- Node9&#45;&gt;Node12 -->
<g id="edge15" class="edge">
<title>Node9&#45;&gt;Node12</title>
<path fill="none" stroke="midnightblue" d="M990.37,-112.32C973.21,-103.66 946.62,-90.24 926.81,-80.25"/>
<polygon fill="midnightblue" stroke="midnightblue" points="928.22,-77.04 917.71,-75.65 925.06,-83.28 928.22,-77.04"/>
</g>
<!-- Node13&#45;&gt;Node7 -->
<g id="edge18" class="edge">
<title>Node13&#45;&gt;Node7</title>
<path fill="none" stroke="midnightblue" d="M1631.16,-112.48C1593.54,-103.91 1533.6,-90.23 1471.87,-76.07"/>
<polygon fill="midnightblue" stroke="midnightblue" points="1472.48,-72.62 1461.95,-73.79 1470.91,-79.44 1472.48,-72.62"/>
</g>
<!-- Node14 -->
<g id="node14" class="node">
<title>Node14</title>
<g id="a_node14"><a xlink:title=" ">
<polygon fill="none" stroke="#bfbfbf" points="1723.56,-56.5 1723.56,-75.5 1833.56,-75.5 1833.56,-56.5 1723.56,-56.5"/>
<text text-anchor="middle" x="1778.56" y="-63.5" font-family="Helvetica,sans-Serif" font-size="10.00">SparkFunBME280.h</text>
</a>
</g>
</g>
<!-- Node13&#45;&gt;Node14 -->
<g id="edge19" class="edge">
<title>Node13&#45;&gt;Node14</title>
<path fill="none" stroke="midnightblue" d="M1686.24,-112.32C1703.96,-103.62 1731.47,-90.12 1751.85,-80.11"/>
<polygon fill="midnightblue" stroke="midnightblue" points="1753.5,-83.2 1760.93,-75.65 1750.41,-76.92 1753.5,-83.2"/>
</g>
<!-- Node15&#45;&gt;Node4 -->
<g id="edge26" class="edge">
<title>Node15&#45;&gt;Node4</title>
<path fill="none" stroke="midnightblue" d="M843.34,-116.74C765.4,-109.5 620.81,-93.82 605.56,-76 599.78,-69.25 599.49,-62.49 605.56,-56 645.68,-13.17 1058.7,-25.64 1153.83,-19.68"/>
<polygon fill="midnightblue" stroke="midnightblue" points="1154.34,-23.15 1164.02,-18.84 1153.76,-16.18 1154.34,-23.15"/>
</g>
<!-- Node15&#45;&gt;Node7 -->
<g id="edge27" class="edge">
<title>Node15&#45;&gt;Node7</title>
<path fill="none" stroke="midnightblue" d="M941.58,-113.14C944.61,-112.73 947.63,-112.35 950.56,-112 1143.48,-89.22 1196.61,-105.72 1393.18,-75.8"/>
<polygon fill="midnightblue" stroke="midnightblue" points="1393.91,-79.23 1403.26,-74.24 1392.85,-72.31 1393.91,-79.23"/>
</g>
<!-- Node15&#45;&gt;Node11 -->
<g id="edge24" class="edge">
<title>Node15&#45;&gt;Node11</title>
<path fill="none" stroke="midnightblue" d="M910.78,-112.44C929.46,-103.68 958.72,-89.94 980.18,-79.86"/>
<polygon fill="midnightblue" stroke="midnightblue" points="981.86,-82.93 989.43,-75.52 978.89,-76.6 981.86,-82.93"/>
</g>
<!-- Node15&#45;&gt;Node12 -->
<g id="edge25" class="edge">
<title>Node15&#45;&gt;Node12</title>
<path fill="none" stroke="midnightblue" d="M893.88,-112.08C894.94,-104.93 896.47,-94.64 897.79,-85.69"/>
<polygon fill="midnightblue" stroke="midnightblue" points="901.26,-86.16 899.27,-75.75 894.34,-85.13 901.26,-86.16"/>
</g>
<!-- Node16 -->
<g id="node16" class="node">
<title>Node16</title>
<g id="a_node16"><a xlink:title=" ">
<polygon fill="none" stroke="#bfbfbf" points="614.56,-56.5 614.56,-75.5 724.56,-75.5 724.56,-56.5 614.56,-56.5"/>
<text text-anchor="middle" x="669.56" y="-63.5" font-family="Helvetica,sans-Serif" font-size="10.00">Adafruit_BME680.h</text>
</a>
</g>
</g>
<!-- Node15&#45;&gt;Node16 -->
<g id="edge21" class="edge">
<title>Node15&#45;&gt;Node16</title>
<path fill="none" stroke="midnightblue" d="M857.23,-112.44C818.65,-103.1 756.78,-88.12 714.71,-77.93"/>
<polygon fill="midnightblue" stroke="midnightblue" points="715.27,-74.47 704.73,-75.52 713.63,-81.27 715.27,-74.47"/>
</g>
<!-- Node17 -->
<g id="node17" class="node">
<title>Node17</title>
<g id="a_node17"><a xlink:title=" ">
<polygon fill="none" stroke="#bfbfbf" points="456.56,-56.5 456.56,-75.5 558.56,-75.5 558.56,-56.5 456.56,-56.5"/>
<text text-anchor="middle" x="507.56" y="-63.5" font-family="Helvetica,sans-Serif" font-size="10.00">Adafruit_Sensor.h</text>
</a>
</g>
</g>
<!-- Node15&#45;&gt;Node17 -->
<g id="edge22" class="edge">
<title>Node15&#45;&gt;Node17</title>
<path fill="none" stroke="midnightblue" d="M843.41,-114.11C773.28,-104.27 644.58,-86.22 568.48,-75.54"/>
<polygon fill="midnightblue" stroke="midnightblue" points="568.95,-72.08 558.56,-74.15 567.98,-79.01 568.95,-72.08"/>
</g>
<!-- Node18 -->
<g id="node18" class="node">
<title>Node18</title>
<g id="a_node18"><a xlink:title=" ">
<polygon fill="none" stroke="#bfbfbf" points="1480.06,-56.5 1480.06,-75.5 1521.06,-75.5 1521.06,-56.5 1480.06,-56.5"/>
<text text-anchor="middle" x="1500.56" y="-63.5" font-family="Helvetica,sans-Serif" font-size="10.00">SPI.h</text>
</a>
</g>
</g>
<!-- Node15&#45;&gt;Node18 -->
<g id="edge23" class="edge">
<title>Node15&#45;&gt;Node18</title>
<path fill="none" stroke="midnightblue" d="M941.57,-113.1C944.61,-112.7 947.63,-112.33 950.56,-112 1177.53,-86.58 1240.87,-116.66 1470.07,-75.62"/>
<polygon fill="midnightblue" stroke="midnightblue" points="1470.84,-79.04 1480.05,-73.81 1469.59,-72.15 1470.84,-79.04"/>
</g>
<!-- Node19&#45;&gt;Node7 -->
<g id="edge30" class="edge">
<title>Node19&#45;&gt;Node7</title>
<path fill="none" stroke="midnightblue" d="M1313.9,-112.44C1337.31,-103.48 1374.3,-89.31 1400.75,-79.18"/>
<polygon fill="midnightblue" stroke="midnightblue" points="1402.24,-82.36 1410.32,-75.52 1399.73,-75.82 1402.24,-82.36"/>
</g>
<!-- Node19&#45;&gt;Node11 -->
<g id="edge29" class="edge">
<title>Node19&#45;&gt;Node11</title>
<path fill="none" stroke="midnightblue" d="M1243.66,-113.71C1195.14,-106.04 1117.75,-93.01 1041.86,-76.13"/>
<polygon fill="midnightblue" stroke="midnightblue" points="1042.17,-72.61 1031.65,-73.84 1040.64,-79.44 1042.17,-72.61"/>
</g>
<!-- Node20 -->
<g id="node20" class="node">
<title>Node20</title>
<g id="a_node20"><a xlink:title=" ">
<polygon fill="none" stroke="#bfbfbf" points="1272.06,-56.5 1272.06,-75.5 1385.06,-75.5 1385.06,-56.5 1272.06,-56.5"/>
<text text-anchor="middle" x="1328.56" y="-63.5" font-family="Helvetica,sans-Serif" font-size="10.00">SparkFun_ENS160.h</text>
</a>
</g>
</g>
<!-- Node19&#45;&gt;Node20 -->
<g id="edge31" class="edge">
<title>Node19&#45;&gt;Node20</title>
<path fill="none" stroke="midnightblue" d="M1297.67,-112.08C1302.84,-104.53 1310.41,-93.49 1316.76,-84.23"/>
<polygon fill="midnightblue" stroke="midnightblue" points="1319.8,-85.98 1322.57,-75.75 1314.03,-82.02 1319.8,-85.98"/>
</g>
<!-- Node21&#45;&gt;Node4 -->
<g id="edge37" class="edge">
<title>Node21&#45;&gt;Node4</title>
<path fill="none" stroke="midnightblue" d="M453.8,-120.11C331.72,-117.55 41.88,-108.1 12.56,-76 6.57,-69.44 6.38,-62.38 12.56,-56 55.27,-11.93 1023.75,-25 1153.68,-19.59"/>
<polygon fill="midnightblue" stroke="midnightblue" points="1154.26,-23.06 1164.03,-18.96 1153.84,-16.07 1154.26,-23.06"/>
</g>
<!-- Node21&#45;&gt;Node7 -->
<g id="edge38" class="edge">
<title>Node21&#45;&gt;Node7</title>
<path fill="none" stroke="midnightblue" d="M561.34,-117.15C585.81,-115.46 615.14,-113.52 641.56,-112 972.35,-92.98 1060.39,-121.24 1393.36,-75.72"/>
<polygon fill="midnightblue" stroke="midnightblue" points="1393.85,-79.18 1403.28,-74.35 1392.89,-72.25 1393.85,-79.18"/>
</g>
<!-- Node21&#45;&gt;Node12 -->
<g id="edge36" class="edge">
<title>Node21&#45;&gt;Node12</title>
<path fill="none" stroke="midnightblue" d="M561.1,-116.27C629.21,-109.8 750.6,-96.78 864.01,-75.89"/>
<polygon fill="midnightblue" stroke="midnightblue" points="864.72,-79.32 873.9,-74.04 863.43,-72.44 864.72,-79.32"/>
</g>
<!-- Node21&#45;&gt;Node17 -->
<g id="edge35" class="edge">
<title>Node21&#45;&gt;Node17</title>
<path fill="none" stroke="midnightblue" d="M507.56,-112.08C507.56,-105.01 507.56,-94.86 507.56,-85.99"/>
<polygon fill="midnightblue" stroke="midnightblue" points="511.06,-85.75 507.56,-75.75 504.06,-85.75 511.06,-85.75"/>
</g>
<!-- Node22 -->
<g id="node22" class="node">
<title>Node22</title>
<g id="a_node22"><a xlink:title=" ">
<polygon fill="none" stroke="#bfbfbf" points="147.06,-56.5 147.06,-75.5 266.06,-75.5 266.06,-56.5 147.06,-56.5"/>
<text text-anchor="middle" x="206.56" y="-63.5" font-family="Helvetica,sans-Serif" font-size="10.00">Adafruit_ICM20948.h</text>
</a>
</g>
</g>
<!-- Node21&#45;&gt;Node22 -->
<g id="edge33" class="edge">
<title>Node21&#45;&gt;Node22</title>
<path fill="none" stroke="midnightblue" d="M459.87,-112.44C406.7,-102.9 320.74,-87.48 263.94,-77.29"/>
<polygon fill="midnightblue" stroke="midnightblue" points="264.49,-73.84 254.03,-75.52 263.26,-80.73 264.49,-73.84"/>
</g>
<!-- Node23 -->
<g id="node23" class="node">
<title>Node23</title>
<g id="a_node23"><a xlink:title=" ">
<polygon fill="none" stroke="#bfbfbf" points="22.06,-56.5 22.06,-75.5 129.06,-75.5 129.06,-56.5 22.06,-56.5"/>
<text text-anchor="middle" x="75.56" y="-63.5" font-family="Helvetica,sans-Serif" font-size="10.00">Adafruit_ICM20X.h</text>
</a>
</g>
</g>
<!-- Node21&#45;&gt;Node23 -->
<g id="edge34" class="edge">
<title>Node21&#45;&gt;Node23</title>
<path fill="none" stroke="midnightblue" d="M453.9,-114.87C383.84,-106.77 257.14,-91.84 139.24,-76.2"/>
<polygon fill="midnightblue" stroke="midnightblue" points="139.69,-72.73 129.32,-74.88 138.77,-79.67 139.69,-72.73"/>
</g>
<!-- Node24&#45;&gt;Node2 -->
<g id="edge40" class="edge">
<title>Node24&#45;&gt;Node2</title>
<path fill="none" stroke="midnightblue" d="M1799.46,-112.35C1813,-104.58 1831.51,-91.95 1842.56,-76 1852.08,-62.26 1856.89,-43.73 1859.28,-29.97"/>
<polygon fill="midnightblue" stroke="midnightblue" points="1862.79,-30.15 1860.77,-19.74 1855.86,-29.13 1862.79,-30.15"/>
</g>
<!-- Node24&#45;&gt;Node7 -->
<g id="edge43" class="edge">
<title>Node24&#45;&gt;Node7</title>
<path fill="none" stroke="midnightblue" d="M1735.82,-113.42C1732.69,-112.93 1729.58,-112.46 1726.56,-112 1616.59,-95.4 1585.82,-96.79 1472.06,-75.94"/>
<polygon fill="midnightblue" stroke="midnightblue" points="1472.36,-72.43 1461.89,-74.06 1471.09,-79.32 1472.36,-72.43"/>
</g>
<!-- Node24&#45;&gt;Node12 -->
<g id="edge41" class="edge">
<title>Node24&#45;&gt;Node12</title>
<path fill="none" stroke="midnightblue" d="M1735.86,-113.1C1732.72,-112.69 1729.6,-112.32 1726.56,-112 1393.75,-77.4 1307.97,-104.22 974.56,-76 962.39,-74.97 949.14,-73.48 937.26,-72"/>
<polygon fill="midnightblue" stroke="midnightblue" points="937.59,-68.52 927.23,-70.72 936.71,-75.46 937.59,-68.52"/>
</g>
<!-- Node25 -->
<g id="node25" class="node">
<title>Node25</title>
<g id="a_node25"><a xlink:title=" ">
<polygon fill="none" stroke="#bfbfbf" points="1890.06,-56.5 1890.06,-75.5 1995.06,-75.5 1995.06,-56.5 1890.06,-56.5"/>
<text text-anchor="middle" x="1942.56" y="-63.5" font-family="Helvetica,sans-Serif" font-size="10.00">Adafruit_INA260.h</text>
</a>
</g>
</g>
<!-- Node24&#45;&gt;Node25 -->
<g id="edge42" class="edge">
<title>Node24&#45;&gt;Node25</title>
<path fill="none" stroke="midnightblue" d="M1807.91,-112.44C1834.83,-103.36 1877.56,-88.94 1907.65,-78.78"/>
<polygon fill="midnightblue" stroke="midnightblue" points="1908.97,-82.03 1917.33,-75.52 1906.73,-75.4 1908.97,-82.03"/>
</g>
<!-- Node26&#45;&gt;Node4 -->
<g id="edge48" class="edge">
<title>Node26&#45;&gt;Node4</title>
<path fill="none" stroke="midnightblue" d="M650.3,-116.79C546.78,-108.21 324.64,-88.44 313.56,-76 307.65,-69.36 307.41,-62.42 313.56,-56 344.62,-23.58 1048.17,-24.52 1154,-19.57"/>
<polygon fill="midnightblue" stroke="midnightblue" points="1154.28,-23.06 1164.03,-18.92 1153.82,-16.08 1154.28,-23.06"/>
</g>
<!-- Node26&#45;&gt;Node7 -->
<g id="edge49" class="edge">
<title>Node26&#45;&gt;Node7</title>
<path fill="none" stroke="midnightblue" d="M754.59,-117.41C778.89,-115.74 808.2,-113.75 834.56,-112 1079.7,-95.75 1145.51,-111.68 1393.24,-75.76"/>
<polygon fill="midnightblue" stroke="midnightblue" points="1393.88,-79.21 1403.27,-74.3 1392.87,-72.28 1393.88,-79.21"/>
</g>
<!-- Node26&#45;&gt;Node12 -->
<g id="edge47" class="edge">
<title>Node26&#45;&gt;Node12</title>
<path fill="none" stroke="midnightblue" d="M733.94,-112.44C769.22,-102.82 826.46,-87.21 863.81,-77.02"/>
<polygon fill="midnightblue" stroke="midnightblue" points="865.05,-80.31 873.78,-74.3 863.21,-73.56 865.05,-80.31"/>
</g>
<!-- Node26&#45;&gt;Node17 -->
<g id="edge46" class="edge">
<title>Node26&#45;&gt;Node17</title>
<path fill="none" stroke="midnightblue" d="M671.66,-112.44C638.29,-103.2 584.97,-88.44 548.21,-78.26"/>
<polygon fill="midnightblue" stroke="midnightblue" points="548.89,-74.81 538.32,-75.52 547.02,-81.56 548.89,-74.81"/>
</g>
<!-- Node27 -->
<g id="node27" class="node">
<title>Node27</title>
<g id="a_node27"><a xlink:title=" ">
<polygon fill="none" stroke="#bfbfbf" points="322.56,-56.5 322.56,-75.5 438.56,-75.5 438.56,-56.5 322.56,-56.5"/>
<text text-anchor="middle" x="380.56" y="-63.5" font-family="Helvetica,sans-Serif" font-size="10.00">Adafruit_LSM9DS1.h</text>
</a>
</g>
</g>
<!-- Node26&#45;&gt;Node27 -->
<g id="edge45" class="edge">
<title>Node26&#45;&gt;Node27</title>
<path fill="none" stroke="midnightblue" d="M651.54,-112.44C594.54,-102.89 502.32,-87.42 441.56,-77.23"/>
<polygon fill="midnightblue" stroke="midnightblue" points="441.79,-73.72 431.35,-75.52 440.63,-80.62 441.79,-73.72"/>
</g>
<!-- Node28&#45;&gt;Node2 -->
<g id="edge52" class="edge">
<title>Node28&#45;&gt;Node2</title>
<path fill="none" stroke="midnightblue" d="M1577.26,-112.46C1603.28,-104.14 1643.13,-90.63 1676.56,-76 1694.05,-68.35 1696.92,-63.27 1714.56,-56 1749.37,-41.66 1790.45,-29.46 1820.32,-21.4"/>
<polygon fill="midnightblue" stroke="midnightblue" points="1821.23,-24.78 1830,-18.82 1819.43,-18.01 1821.23,-24.78"/>
</g>
<!-- Node28&#45;&gt;Node4 -->
<g id="edge55" class="edge">
<title>Node28&#45;&gt;Node4</title>
<path fill="none" stroke="midnightblue" d="M1549.79,-112.28C1549.65,-98.12 1547.13,-70.27 1530.56,-56 1487.97,-19.3 1340.65,-27.74 1269.18,-20"/>
<polygon fill="midnightblue" stroke="midnightblue" points="1269.57,-16.52 1259.21,-18.74 1268.69,-23.47 1269.57,-16.52"/>
</g>
<!-- Node28&#45;&gt;Node7 -->
<g id="edge56" class="edge">
<title>Node28&#45;&gt;Node7</title>
<path fill="none" stroke="midnightblue" d="M1531.02,-112.44C1511.94,-103.64 1481.99,-89.81 1460.13,-79.72"/>
<polygon fill="midnightblue" stroke="midnightblue" points="1461.56,-76.53 1451.01,-75.52 1458.63,-82.88 1461.56,-76.53"/>
</g>
<!-- Node28&#45;&gt;Node11 -->
<g id="edge54" class="edge">
<title>Node28&#45;&gt;Node11</title>
<path fill="none" stroke="midnightblue" d="M1497.35,-113.06C1494.38,-112.68 1491.43,-112.33 1488.56,-112 1293.39,-89.78 1239.12,-109.74 1041.72,-75.87"/>
<polygon fill="midnightblue" stroke="midnightblue" points="1042.05,-72.38 1031.6,-74.11 1040.85,-79.27 1042.05,-72.38"/>
</g>
<!-- Node28&#45;&gt;Node18 -->
<g id="edge53" class="edge">
<title>Node28&#45;&gt;Node18</title>
<path fill="none" stroke="midnightblue" d="M1541.47,-112.08C1534.41,-104.3 1523.97,-92.8 1515.41,-83.37"/>
<polygon fill="midnightblue" stroke="midnightblue" points="1517.81,-80.8 1508.5,-75.75 1512.63,-85.51 1517.81,-80.8"/>
</g>
<!-- Node29 -->
<g id="node29" class="node">
<title>Node29</title>
<g id="a_node29"><a xlink:title=" ">
<polygon fill="none" stroke="#bfbfbf" points="1578.06,-56.5 1578.06,-75.5 1667.06,-75.5 1667.06,-56.5 1578.06,-56.5"/>
<text text-anchor="middle" x="1622.56" y="-63.5" font-family="Helvetica,sans-Serif" font-size="10.00">Adafruit_GPS.h</text>
</a>
</g>
</g>
<!-- Node28&#45;&gt;Node29 -->
<g id="edge51" class="edge">
<title>Node28&#45;&gt;Node29</title>
<path fill="none" stroke="midnightblue" d="M1561.29,-112.32C1572.4,-104.11 1589.3,-91.6 1602.55,-81.81"/>
<polygon fill="midnightblue" stroke="midnightblue" points="1604.66,-84.59 1610.62,-75.83 1600.5,-78.97 1604.66,-84.59"/>
</g>
<!-- Node30&#45;&gt;Node7 -->
<g id="edge59" class="edge">
<title>Node30&#45;&gt;Node7</title>
<path fill="none" stroke="midnightblue" d="M2327.76,-112.89C2324.99,-112.56 2322.24,-112.26 2319.56,-112 1947.4,-75.82 1847.13,-125.73 1471.89,-75.72"/>
<polygon fill="midnightblue" stroke="midnightblue" points="1472.22,-72.23 1461.84,-74.37 1471.29,-79.17 1472.22,-72.23"/>
</g>
<!-- Node31 -->
<g id="node31" class="node">
<title>Node31</title>
<g id="a_node31"><a xlink:title=" ">
<polygon fill="none" stroke="#bfbfbf" points="2624.56,-56.5 2624.56,-75.5 2680.56,-75.5 2680.56,-56.5 2624.56,-56.5"/>
<text text-anchor="middle" x="2652.56" y="-63.5" font-family="Helvetica,sans-Serif" font-size="10.00">RTClib.h</text>
</a>
</g>
</g>
<!-- Node30&#45;&gt;Node31 -->
<g id="edge58" class="edge">
<title>Node30&#45;&gt;Node31</title>
<path fill="none" stroke="midnightblue" d="M2423.96,-112.47C2470.77,-103.6 2545.84,-89.21 2610.56,-76 2611.79,-75.75 2613.05,-75.49 2614.31,-75.23"/>
<polygon fill="midnightblue" stroke="midnightblue" points="2615.04,-78.65 2624.11,-73.18 2613.61,-71.8 2615.04,-78.65"/>
</g>
<!-- Node32&#45;&gt;Node2 -->
<g id="edge61" class="edge">
<title>Node32&#45;&gt;Node2</title>
<path fill="none" stroke="midnightblue" d="M2310.34,-113.44C2313.46,-112.95 2316.56,-112.46 2319.56,-112 2435.55,-94.25 2657.89,-141.53 2577.56,-56 2554.38,-31.31 2053.62,-16.09 1903.64,-12.07"/>
<polygon fill="midnightblue" stroke="midnightblue" points="1903.55,-8.57 1893.46,-11.8 1903.36,-15.56 1903.55,-8.57"/>
</g>
<!-- Node32&#45;&gt;Node7 -->
<g id="edge65" class="edge">
<title>Node32&#45;&gt;Node7</title>
<path fill="none" stroke="midnightblue" d="M2220.68,-116.19C2205.7,-114.7 2188.93,-113.14 2173.56,-112 1865.36,-89.03 1782.73,-118.64 1472.05,-75.76"/>
<polygon fill="midnightblue" stroke="midnightblue" points="1472.23,-72.25 1461.85,-74.34 1471.27,-79.19 1472.23,-72.25"/>
</g>
<!-- Node32&#45;&gt;Node12 -->
<g id="edge63" class="edge">
<title>Node32&#45;&gt;Node12</title>
<path fill="none" stroke="midnightblue" d="M2220.69,-116C2205.72,-114.49 2188.94,-112.98 2173.56,-112 1641.52,-78.03 1506.17,-116.22 974.56,-76 962.38,-75.08 949.13,-73.61 937.25,-72.13"/>
<polygon fill="midnightblue" stroke="midnightblue" points="937.59,-68.65 927.22,-70.84 936.69,-75.59 937.59,-68.65"/>
</g>
<!-- Node33 -->
<g id="node33" class="node">
<title>Node33</title>
<g id="a_node33"><a xlink:title=" ">
<polygon fill="none" stroke="#bfbfbf" points="2515.06,-56.5 2515.06,-75.5 2568.06,-75.5 2568.06,-56.5 2515.06,-56.5"/>
<text text-anchor="middle" x="2541.56" y="-63.5" font-family="Helvetica,sans-Serif" font-size="10.00">stdint.h</text>
</a>
</g>
</g>
<!-- Node32&#45;&gt;Node33 -->
<g id="edge62" class="edge">
<title>Node32&#45;&gt;Node33</title>
<path fill="none" stroke="midnightblue" d="M2310.16,-113.6C2356.59,-105.68 2431.62,-92.32 2504.98,-76.25"/>
<polygon fill="midnightblue" stroke="midnightblue" points="2505.84,-79.64 2514.85,-74.06 2504.33,-72.8 2505.84,-79.64"/>
</g>
<!-- Node34 -->
<g id="node34" class="node">
<title>Node34</title>
<g id="a_node34"><a xlink:title=" ">
<polygon fill="none" stroke="#bfbfbf" points="2396.06,-56.5 2396.06,-75.5 2497.06,-75.5 2497.06,-56.5 2396.06,-56.5"/>
<text text-anchor="middle" x="2446.56" y="-63.5" font-family="Helvetica,sans-Serif" font-size="10.00">Adafruit_SGP30.h</text>
</a>
</g>
</g>
<!-- Node32&#45;&gt;Node34 -->
<g id="edge64" class="edge">
<title>Node32&#45;&gt;Node34</title>
<path fill="none" stroke="midnightblue" d="M2294.24,-112.44C2325.09,-103.24 2374.29,-88.56 2408.39,-78.39"/>
<polygon fill="midnightblue" stroke="midnightblue" points="2409.43,-81.73 2418.02,-75.52 2407.43,-75.02 2409.43,-81.73"/>
</g>
<!-- Node35&#45;&gt;Node2 -->
<g id="edge67" class="edge">
<title>Node35&#45;&gt;Node2</title>
<path fill="none" stroke="midnightblue" d="M1072.83,-112.88C1035.44,-105.08 986.38,-92.11 974.56,-76 969.3,-68.83 968.44,-62.44 974.56,-56 1004.01,-25.02 1647.87,-13.95 1819.72,-11.54"/>
<polygon fill="midnightblue" stroke="midnightblue" points="1819.93,-15.04 1829.88,-11.4 1819.84,-8.04 1819.93,-15.04"/>
</g>
<!-- Node35&#45;&gt;Node7 -->
<g id="edge71" class="edge">
<title>Node35&#45;&gt;Node7</title>
<path fill="none" stroke="midnightblue" d="M1162.18,-114.64C1214.91,-106.92 1305.5,-93.03 1393.35,-75.92"/>
<polygon fill="midnightblue" stroke="midnightblue" points="1394.08,-79.35 1403.22,-73.99 1392.73,-72.48 1394.08,-79.35"/>
</g>
<!-- Node35&#45;&gt;Node11 -->
<g id="edge68" class="edge">
<title>Node35&#45;&gt;Node11</title>
<path fill="none" stroke="midnightblue" d="M1099.89,-112.32C1082.17,-103.62 1054.66,-90.12 1034.27,-80.11"/>
<polygon fill="midnightblue" stroke="midnightblue" points="1035.71,-76.92 1025.19,-75.65 1032.63,-83.2 1035.71,-76.92"/>
</g>
<!-- Node35&#45;&gt;Node12 -->
<g id="edge69" class="edge">
<title>Node35&#45;&gt;Node12</title>
<path fill="none" stroke="midnightblue" d="M1083.18,-112.44C1043.3,-102.52 977.82,-86.23 937.06,-76.08"/>
<polygon fill="midnightblue" stroke="midnightblue" points="937.81,-72.66 927.26,-73.64 936.12,-79.46 937.81,-72.66"/>
</g>
<!-- Node36 -->
<g id="node36" class="node">
<title>Node36</title>
<g id="a_node36"><a xlink:title=" ">
<polygon fill="none" stroke="#bfbfbf" points="1050.06,-56.5 1050.06,-75.5 1151.06,-75.5 1151.06,-56.5 1050.06,-56.5"/>
<text text-anchor="middle" x="1100.56" y="-63.5" font-family="Helvetica,sans-Serif" font-size="10.00">Adafruit_SHT31.h</text>
</a>
</g>
</g>
<!-- Node35&#45;&gt;Node36 -->
<g id="edge70" class="edge">
<title>Node35&#45;&gt;Node36</title>
<path fill="none" stroke="midnightblue" d="M1114.75,-112.08C1112.48,-104.85 1109.19,-94.41 1106.35,-85.4"/>
<polygon fill="midnightblue" stroke="midnightblue" points="1109.66,-84.24 1103.32,-75.75 1102.98,-86.34 1109.66,-84.24"/>
</g>
<!-- Node37&#45;&gt;Node7 -->
<g id="edge73" class="edge">
<title>Node37&#45;&gt;Node7</title>
<path fill="none" stroke="midnightblue" d="M1436.74,-112.08C1436.08,-105.01 1435.14,-94.86 1434.32,-85.99"/>
<polygon fill="midnightblue" stroke="midnightblue" points="1437.78,-85.39 1433.37,-75.75 1430.81,-86.03 1437.78,-85.39"/>
</g>
<!-- Node38&#45;&gt;Node4 -->
<g id="edge76" class="edge">
<title>Node38&#45;&gt;Node4</title>
<path fill="none" stroke="midnightblue" d="M2119.94,-112.1C2120,-97.69 2117.77,-69.49 2100.56,-56 2029.79,-0.52 1398.35,-27.65 1269.44,-19.84"/>
<polygon fill="midnightblue" stroke="midnightblue" points="1269.41,-16.33 1259.17,-19.04 1268.87,-23.31 1269.41,-16.33"/>
</g>
<!-- Node38&#45;&gt;Node8 -->
<g id="edge78" class="edge">
<title>Node38&#45;&gt;Node8</title>
<path fill="none" stroke="midnightblue" d="M2155.53,-112.44C2196.15,-102.78 2262.16,-87.08 2304.97,-76.89"/>
<polygon fill="midnightblue" stroke="midnightblue" points="2305.87,-80.28 2314.79,-74.56 2304.25,-73.47 2305.87,-80.28"/>
</g>
<!-- Node38&#45;&gt;Node18 -->
<g id="edge75" class="edge">
<title>Node38&#45;&gt;Node18</title>
<path fill="none" stroke="midnightblue" d="M2074.79,-113.09C2072.01,-112.69 2069.25,-112.32 2066.56,-112 1846.69,-85.43 1789.9,-98.33 1569.56,-76 1557.01,-74.73 1543.22,-73 1531.29,-71.39"/>
<polygon fill="midnightblue" stroke="midnightblue" points="1531.74,-67.92 1521.36,-70.03 1530.79,-74.86 1531.74,-67.92"/>
</g>
<!-- Node39 -->
<g id="node39" class="node">
<title>Node39</title>
<g id="a_node39"><a xlink:title=" ">
<polygon fill="none" stroke="#bfbfbf" points="2147.56,-56.5 2147.56,-75.5 2297.56,-75.5 2297.56,-56.5 2147.56,-56.5"/>
<text text-anchor="middle" x="2222.56" y="-63.5" font-family="Helvetica,sans-Serif" font-size="10.00">SparkFun_SPI_SerialFlash.h</text>
</a>
</g>
</g>
<!-- Node38&#45;&gt;Node39 -->
<g id="edge77" class="edge">
<title>Node38&#45;&gt;Node39</title>
<path fill="none" stroke="midnightblue" d="M2136.11,-112.32C2152.55,-103.7 2178,-90.36 2197.03,-80.39"/>
<polygon fill="midnightblue" stroke="midnightblue" points="2198.82,-83.4 2206.05,-75.65 2195.57,-77.2 2198.82,-83.4"/>
</g>
<!-- Node40&#45;&gt;Node2 -->
<g id="edge80" class="edge">
<title>Node40&#45;&gt;Node2</title>
<path fill="none" stroke="midnightblue" d="M2646.18,-113.09C2691.26,-103.42 2749.82,-84.72 2722.56,-56 2694.06,-25.97 2071.68,-14.24 1903.26,-11.6"/>
<polygon fill="midnightblue" stroke="midnightblue" points="1903.12,-8.1 1893.06,-11.45 1903.01,-15.1 1903.12,-8.1"/>
</g>
<!-- Node40&#45;&gt;Node4 -->
<g id="edge81" class="edge">
<title>Node40&#45;&gt;Node4</title>
<path fill="none" stroke="midnightblue" d="M2629.85,-112.41C2663.9,-101.05 2712.67,-79.7 2689.56,-56 2662.97,-28.73 1403.1,-23.97 1269.34,-19.59"/>
<polygon fill="midnightblue" stroke="midnightblue" points="1269.32,-16.08 1259.17,-19.1 1268.98,-23.07 1269.32,-16.08"/>
</g>
<!-- Node40&#45;&gt;Node8 -->
<g id="edge82" class="edge">
<title>Node40&#45;&gt;Node8</title>
<path fill="none" stroke="midnightblue" d="M2559.71,-112.47C2518.91,-103.93 2454.13,-90.3 2388.46,-76.18"/>
<polygon fill="midnightblue" stroke="midnightblue" points="2388.85,-72.69 2378.34,-74 2387.38,-79.53 2388.85,-72.69"/>
</g>
<!-- Node41&#45;&gt;Node3 -->
<g id="edge84" class="edge">
<title>Node41&#45;&gt;Node3</title>
<path fill="none" stroke="midnightblue" d="M1979.74,-118.95C1840.42,-111.57 1368.79,-86.27 1263.79,-75.91"/>
<polygon fill="midnightblue" stroke="midnightblue" points="1264.12,-72.43 1253.81,-74.84 1263.38,-79.39 1264.12,-72.43"/>
</g>
<!-- Node41&#45;&gt;Node4 -->
<g id="edge85" class="edge">
<title>Node41&#45;&gt;Node4</title>
<path fill="none" stroke="midnightblue" d="M2019.67,-112.19C2020.9,-97.91 2020.93,-69.89 2004.56,-56 1944.07,-4.66 1386.77,-26.95 1269.4,-19.83"/>
<polygon fill="midnightblue" stroke="midnightblue" points="1269.42,-16.32 1259.17,-19.02 1268.86,-23.3 1269.42,-16.32"/>
</g>
<!-- Node41&#45;&gt;Node8 -->
<g id="edge87" class="edge">
<title>Node41&#45;&gt;Node8</title>
<path fill="none" stroke="midnightblue" d="M2057.31,-113.61C2060.44,-113.05 2063.55,-112.51 2066.56,-112 2169.7,-94.6 2198.8,-95.76 2304.59,-76.27"/>
<polygon fill="midnightblue" stroke="midnightblue" points="2305.54,-79.65 2314.73,-74.38 2304.26,-72.77 2305.54,-79.65"/>
</g>
<!-- Node42 -->
<g id="node42" class="node">
<title>Node42</title>
<g id="a_node42"><a xlink:title=" ">
<polygon fill="none" stroke="#bfbfbf" points="2052.06,-56.5 2052.06,-75.5 2091.06,-75.5 2091.06,-56.5 2052.06,-56.5"/>
<text text-anchor="middle" x="2071.56" y="-63.5" font-family="Helvetica,sans-Serif" font-size="10.00">SD.h</text>
</a>
</g>
</g>
<!-- Node41&#45;&gt;Node42 -->
<g id="edge86" class="edge">
<title>Node41&#45;&gt;Node42</title>
<path fill="none" stroke="midnightblue" d="M2027.31,-112.08C2035.03,-104.22 2046.47,-92.57 2055.78,-83.08"/>
<polygon fill="midnightblue" stroke="midnightblue" points="2058.47,-85.34 2062.97,-75.75 2053.47,-80.44 2058.47,-85.34"/>
</g>
</g>
</svg>
