<?xml version="1.0" encoding="UTF-8" standalone="no"?>
<!DOCTYPE svg PUBLIC "-//W3C//DTD SVG 1.1//EN"
 "http://www.w3.org/Graphics/SVG/1.1/DTD/svg11.dtd">
<!-- Generated by graphviz version 2.43.0 (0)
 -->
<!-- Title: main.cpp Pages: 1 -->
<!--zoomable 196 -->
<svg id="main" version="1.1" xmlns="http://www.w3.org/2000/svg" xmlns:xlink="http://www.w3.org/1999/xlink" xml:space="preserve" onload="init(evt)">
<style type="text/css"><![CDATA[
.edge:hover path { stroke: red; }
.edge:hover polygon { stroke: red; fill: red; }
]]></style>
<script type="text/javascript"><![CDATA[
var edges = document.getElementsByTagName('g');
if (edges && edges.length) {
  for (var i=0;i<edges.length;i++) {
    if (edges[i].id.substr(0,4)=='edge') {
      edges[i].setAttribute('class','edge');
    }
  }
}
]]></script>
        <defs>
                <circle id="rim" cx="0" cy="0" r="7"/>
                <circle id="rim2" cx="0" cy="0" r="3.5"/>
                <g id="zoomPlus">
                        <use xlink:href="#rim" fill="#404040">
                                <set attributeName="fill" to="#808080" begin="zoomplus.mouseover" end="zoomplus.mouseout"/>
                        </use>
                        <path d="M-4,0h8M0,-4v8" fill="none" stroke="white" stroke-width="1.5" pointer-events="none"/>
                </g>
                <g id="zoomMin">
                        <use xlink:href="#rim" fill="#404040">
                                <set attributeName="fill" to="#808080" begin="zoomminus.mouseover" end="zoomminus.mouseout"/>
                        </use>
                        <path d="M-4,0h8" fill="none" stroke="white" stroke-width="1.5" pointer-events="none"/>
                </g>
                <g id="dirArrow">
                        <path fill="none" stroke="white" stroke-width="1.5" d="M0,-3.0v7 M-2.5,-0.5L0,-3.0L2.5,-0.5"/>
                </g>
               <g id="resetDef">
                       <use xlink:href="#rim2" fill="#404040">
                               <set attributeName="fill" to="#808080" begin="reset.mouseover" end="reset.mouseout"/>
                       </use>
               </g>
        </defs>

<script type="text/javascript">
var viewWidth = 2627;
var viewHeight = 196;
var sectionId = 'dynsection-0';
</script>
<script xlink:href="svgpan.js"/>
<svg id="graph" class="graph">
<g id="viewport">
<title>main.cpp</title>
<!-- Node1 -->
<g id="node1" class="node">
<title>Node1</title>
<g id="a_node1"><a xlink:title=" ">
<polygon fill="#bfbfbf" stroke="black" points="1122.5,-168.5 1122.5,-187.5 1184.5,-187.5 1184.5,-168.5 1122.5,-168.5"/>
<text text-anchor="middle" x="1153.5" y="-175.5" font-family="Helvetica,sans-Serif" font-size="10.00">main.cpp</text>
</a>
</g>
</g>
<!-- Node2 -->
<g id="node2" class="node">
<title>Node2</title>
<g id="a_node2"><a xlink:title=" ">
<polygon fill="none" stroke="#bfbfbf" points="523,-0.5 523,-19.5 586,-19.5 586,-0.5 523,-0.5"/>
<text text-anchor="middle" x="554.5" y="-7.5" font-family="Helvetica,sans-Serif" font-size="10.00">Arduino.h</text>
</a>
</g>
</g>
<!-- Node1&#45;&gt;Node2 -->
<g id="edge1" class="edge">
<title>Node1&#45;&gt;Node2</title>
<path fill="none" stroke="midnightblue" d="M1122.29,-176.59C961.6,-174.34 231.43,-162.52 135.5,-132 91.68,-118.06 70.52,-116.37 48.5,-76 44.24,-68.2 42.5,-62.56 48.5,-56 79.6,-22.01 397.11,-13.53 512.7,-11.56"/>
<polygon fill="midnightblue" stroke="midnightblue" points="512.98,-15.05 522.92,-11.39 512.87,-8.05 512.98,-15.05"/>
</g>
<!-- Node3 -->
<g id="node3" class="node">
<title>Node3</title>
<g id="a_node3"><a xlink:href="ErrorDisplay_8h.html" target="_top" xlink:title=" ">
<polygon fill="none" stroke="black" points="57.5,-56.5 57.5,-75.5 141.5,-75.5 141.5,-56.5 57.5,-56.5"/>
<text text-anchor="middle" x="99.5" y="-63.5" font-family="Helvetica,sans-Serif" font-size="10.00">ErrorDisplay.h</text>
</a>
</g>
</g>
<!-- Node1&#45;&gt;Node3 -->
<g id="edge2" class="edge">
<title>Node1&#45;&gt;Node3</title>
<path fill="none" stroke="midnightblue" d="M1122.45,-176.85C965.02,-175.9 259.1,-169.57 169.5,-132 145.46,-121.92 124.56,-99.72 112,-84.08"/>
<polygon fill="midnightblue" stroke="midnightblue" points="114.48,-81.56 105.61,-75.77 108.93,-85.83 114.48,-81.56"/>
</g>
<!-- Node4 -->
<g id="node4" class="node">
<title>Node4</title>
<g id="a_node4"><a xlink:href="PayloadConfig_8h.html" target="_top" xlink:title=" ">
<polygon fill="none" stroke="black" points="1075,-0.5 1075,-19.5 1170,-19.5 1170,-0.5 1075,-0.5"/>
<text text-anchor="middle" x="1122.5" y="-7.5" font-family="Helvetica,sans-Serif" font-size="10.00">PayloadConfig.h</text>
</a>
</g>
</g>
<!-- Node1&#45;&gt;Node4 -->
<g id="edge7" class="edge">
<title>Node1&#45;&gt;Node4</title>
<path fill="none" stroke="midnightblue" d="M1184.84,-176.85C1405.7,-175.49 2716.26,-162.94 2612.5,-56 2587.12,-29.84 1451.83,-14.87 1180.36,-11.66"/>
<polygon fill="midnightblue" stroke="midnightblue" points="1180.36,-8.16 1170.32,-11.54 1180.28,-15.16 1180.36,-8.16"/>
</g>
<!-- Node7 -->
<g id="node7" class="node">
<title>Node7</title>
<g id="a_node7"><a xlink:href="Sensor_8h.html" target="_top" xlink:title=" ">
<polygon fill="none" stroke="black" points="1302.5,-56.5 1302.5,-75.5 1360.5,-75.5 1360.5,-56.5 1302.5,-56.5"/>
<text text-anchor="middle" x="1331.5" y="-63.5" font-family="Helvetica,sans-Serif" font-size="10.00">Sensor.h</text>
</a>
</g>
</g>
<!-- Node1&#45;&gt;Node7 -->
<g id="edge8" class="edge">
<title>Node1&#45;&gt;Node7</title>
<path fill="none" stroke="midnightblue" d="M1165.39,-168.42C1183.3,-155.62 1218.41,-131 1249.5,-112 1268.03,-100.67 1289.58,-88.9 1305.94,-80.24"/>
<polygon fill="midnightblue" stroke="midnightblue" points="1307.68,-83.27 1314.91,-75.52 1304.43,-77.08 1307.68,-83.27"/>
</g>
<!-- Node8 -->
<g id="node8" class="node">
<title>Node8</title>
<g id="a_node8"><a xlink:href="Storage_8h.html" target="_top" xlink:title=" ">
<polygon fill="none" stroke="black" points="255,-56.5 255,-75.5 318,-75.5 318,-56.5 255,-56.5"/>
<text text-anchor="middle" x="286.5" y="-63.5" font-family="Helvetica,sans-Serif" font-size="10.00">Storage.h</text>
</a>
</g>
</g>
<!-- Node1&#45;&gt;Node8 -->
<g id="edge10" class="edge">
<title>Node1&#45;&gt;Node8</title>
<path fill="none" stroke="midnightblue" d="M1122.07,-177.04C979.03,-176.98 393.55,-174.15 324.5,-132 307.62,-121.7 297.42,-100.87 291.9,-85.56"/>
<polygon fill="midnightblue" stroke="midnightblue" points="295.09,-84.05 288.68,-75.61 288.43,-86.2 295.09,-84.05"/>
</g>
<!-- Node9 -->
<g id="node9" class="node">
<title>Node9</title>
<g id="a_node9"><a xlink:href="AS7331Sensor_8h.html" target="_top" xlink:title=" ">
<polygon fill="none" stroke="black" points="1474,-112.5 1474,-131.5 1569,-131.5 1569,-112.5 1474,-112.5"/>
<text text-anchor="middle" x="1521.5" y="-119.5" font-family="Helvetica,sans-Serif" font-size="10.00">AS7331Sensor.h</text>
</a>
</g>
</g>
<!-- Node1&#45;&gt;Node9 -->
<g id="edge12" class="edge">
<title>Node1&#45;&gt;Node9</title>
<path fill="none" stroke="midnightblue" d="M1184.52,-172.69C1238.94,-165.11 1355.38,-148.7 1463.73,-132.25"/>
<polygon fill="midnightblue" stroke="midnightblue" points="1464.49,-135.68 1473.85,-130.71 1463.44,-128.76 1464.49,-135.68"/>
</g>
<!-- Node13 -->
<g id="node13" class="node">
<title>Node13</title>
<g id="a_node13"><a xlink:href="BME280Sensor_8h.html" target="_top" xlink:title=" ">
<polygon fill="none" stroke="black" points="1104.5,-112.5 1104.5,-131.5 1202.5,-131.5 1202.5,-112.5 1104.5,-112.5"/>
<text text-anchor="middle" x="1153.5" y="-119.5" font-family="Helvetica,sans-Serif" font-size="10.00">BME280Sensor.h</text>
</a>
</g>
</g>
<!-- Node1&#45;&gt;Node13 -->
<g id="edge17" class="edge">
<title>Node1&#45;&gt;Node13</title>
<path fill="none" stroke="midnightblue" d="M1153.5,-168.08C1153.5,-161.01 1153.5,-150.86 1153.5,-141.99"/>
<polygon fill="midnightblue" stroke="midnightblue" points="1157,-141.75 1153.5,-131.75 1150,-141.75 1157,-141.75"/>
</g>
<!-- Node15 -->
<g id="node15" class="node">
<title>Node15</title>
<g id="a_node15"><a xlink:href="BME680Sensor_8h.html" target="_top" xlink:title=" ">
<polygon fill="none" stroke="black" points="1587.5,-112.5 1587.5,-131.5 1685.5,-131.5 1685.5,-112.5 1587.5,-112.5"/>
<text text-anchor="middle" x="1636.5" y="-119.5" font-family="Helvetica,sans-Serif" font-size="10.00">BME680Sensor.h</text>
</a>
</g>
</g>
<!-- Node1&#45;&gt;Node15 -->
<g id="edge20" class="edge">
<title>Node1&#45;&gt;Node15</title>
<path fill="none" stroke="midnightblue" d="M1184.75,-174.21C1253.65,-167.96 1424.01,-151.88 1577.4,-132.09"/>
<polygon fill="midnightblue" stroke="midnightblue" points="1578.01,-135.54 1587.48,-130.78 1577.11,-128.6 1578.01,-135.54"/>
</g>
<!-- Node19 -->
<g id="node19" class="node">
<title>Node19</title>
<g id="a_node19"><a xlink:href="DS3231Sensor_8h.html" target="_top" xlink:title=" ">
<polygon fill="none" stroke="black" points="1361,-112.5 1361,-131.5 1456,-131.5 1456,-112.5 1361,-112.5"/>
<text text-anchor="middle" x="1408.5" y="-119.5" font-family="Helvetica,sans-Serif" font-size="10.00">DS3231Sensor.h</text>
</a>
</g>
</g>
<!-- Node1&#45;&gt;Node19 -->
<g id="edge28" class="edge">
<title>Node1&#45;&gt;Node19</title>
<path fill="none" stroke="midnightblue" d="M1184.51,-170.43C1227.69,-161.29 1306.43,-144.62 1358.1,-133.67"/>
<polygon fill="midnightblue" stroke="midnightblue" points="1359,-137.06 1368.06,-131.56 1357.55,-130.21 1359,-137.06"/>
</g>
<!-- Node21 -->
<g id="node21" class="node">
<title>Node21</title>
<g id="a_node21"><a xlink:href="ENS160Sensor_8h.html" target="_top" xlink:title=" ">
<polygon fill="none" stroke="black" points="651,-112.5 651,-131.5 746,-131.5 746,-112.5 651,-112.5"/>
<text text-anchor="middle" x="698.5" y="-119.5" font-family="Helvetica,sans-Serif" font-size="10.00">ENS160Sensor.h</text>
</a>
</g>
</g>
<!-- Node1&#45;&gt;Node21 -->
<g id="edge31" class="edge">
<title>Node1&#45;&gt;Node21</title>
<path fill="none" stroke="midnightblue" d="M1122.48,-173.96C1056.98,-167.45 899.55,-151.26 756.35,-132.06"/>
<polygon fill="midnightblue" stroke="midnightblue" points="756.44,-128.54 746.06,-130.67 755.5,-135.48 756.44,-128.54"/>
</g>
<!-- Node23 -->
<g id="node23" class="node">
<title>Node23</title>
<g id="a_node23"><a xlink:href="ICM20948Sensor_8h.html" target="_top" xlink:title=" ">
<polygon fill="none" stroke="black" points="1858,-112.5 1858,-131.5 1965,-131.5 1965,-112.5 1858,-112.5"/>
<text text-anchor="middle" x="1911.5" y="-119.5" font-family="Helvetica,sans-Serif" font-size="10.00">ICM20948Sensor.h</text>
</a>
</g>
</g>
<!-- Node1&#45;&gt;Node23 -->
<g id="edge35" class="edge">
<title>Node1&#45;&gt;Node23</title>
<path fill="none" stroke="midnightblue" d="M1184.63,-175.44C1280.91,-170.51 1582.4,-154.27 1831.5,-132 1836.67,-131.54 1842.03,-131.02 1847.41,-130.47"/>
<polygon fill="midnightblue" stroke="midnightblue" points="1848.16,-133.91 1857.74,-129.39 1847.43,-126.95 1848.16,-133.91"/>
</g>
<!-- Node26 -->
<g id="node26" class="node">
<title>Node26</title>
<g id="a_node26"><a xlink:href="INA260Sensor_8h.html" target="_top" xlink:title=" ">
<polygon fill="none" stroke="black" points="887,-112.5 887,-131.5 980,-131.5 980,-112.5 887,-112.5"/>
<text text-anchor="middle" x="933.5" y="-119.5" font-family="Helvetica,sans-Serif" font-size="10.00">INA260Sensor.h</text>
</a>
</g>
</g>
<!-- Node1&#45;&gt;Node26 -->
<g id="edge42" class="edge">
<title>Node1&#45;&gt;Node26</title>
<path fill="none" stroke="midnightblue" d="M1122.45,-169.38C1084.84,-160.15 1021.2,-144.53 978.29,-133.99"/>
<polygon fill="midnightblue" stroke="midnightblue" points="978.94,-130.55 968.39,-131.56 977.27,-137.35 978.94,-130.55"/>
</g>
<!-- Node28 -->
<g id="node28" class="node">
<title>Node28</title>
<g id="a_node28"><a xlink:href="LSM9DS1Sensor_8h.html" target="_top" xlink:title=" ">
<polygon fill="none" stroke="black" points="1718.5,-112.5 1718.5,-131.5 1822.5,-131.5 1822.5,-112.5 1718.5,-112.5"/>
<text text-anchor="middle" x="1770.5" y="-119.5" font-family="Helvetica,sans-Serif" font-size="10.00">LSM9DS1Sensor.h</text>
</a>
</g>
</g>
<!-- Node1&#45;&gt;Node28 -->
<g id="edge47" class="edge">
<title>Node1&#45;&gt;Node28</title>
<path fill="none" stroke="midnightblue" d="M1184.64,-174.79C1267.6,-168.83 1500.86,-151.51 1694.5,-132 1698.93,-131.55 1703.51,-131.07 1708.11,-130.57"/>
<polygon fill="midnightblue" stroke="midnightblue" points="1708.65,-134.03 1718.2,-129.44 1707.87,-127.07 1708.65,-134.03"/>
</g>
<!-- Node30 -->
<g id="node30" class="node">
<title>Node30</title>
<g id="a_node30"><a xlink:href="MTK3339Sensor_8h.html" target="_top" xlink:title=" ">
<polygon fill="none" stroke="black" points="764.5,-112.5 764.5,-131.5 868.5,-131.5 868.5,-112.5 764.5,-112.5"/>
<text text-anchor="middle" x="816.5" y="-119.5" font-family="Helvetica,sans-Serif" font-size="10.00">MTK3339Sensor.h</text>
</a>
</g>
</g>
<!-- Node1&#45;&gt;Node30 -->
<g id="edge53" class="edge">
<title>Node1&#45;&gt;Node30</title>
<path fill="none" stroke="midnightblue" d="M1122.4,-172.02C1067.08,-163.15 950.6,-144.49 878.41,-132.92"/>
<polygon fill="midnightblue" stroke="midnightblue" points="878.96,-129.46 868.53,-131.34 877.85,-136.38 878.96,-129.46"/>
</g>
<!-- Node32 -->
<g id="node32" class="node">
<title>Node32</title>
<g id="a_node32"><a xlink:href="SGP30Sensor_8h.html" target="_top" xlink:title=" ">
<polygon fill="none" stroke="black" points="2190,-112.5 2190,-131.5 2279,-131.5 2279,-112.5 2190,-112.5"/>
<text text-anchor="middle" x="2234.5" y="-119.5" font-family="Helvetica,sans-Serif" font-size="10.00">SGP30Sensor.h</text>
</a>
</g>
</g>
<!-- Node1&#45;&gt;Node32 -->
<g id="edge60" class="edge">
<title>Node1&#45;&gt;Node32</title>
<path fill="none" stroke="midnightblue" d="M1184.69,-175.44C1335.02,-167.93 1985.55,-135.44 2179.64,-125.74"/>
<polygon fill="midnightblue" stroke="midnightblue" points="2180.07,-129.22 2189.88,-125.23 2179.72,-122.23 2180.07,-129.22"/>
</g>
<!-- Node35 -->
<g id="node35" class="node">
<title>Node35</title>
<g id="a_node35"><a xlink:href="SHT31Sensor_8h.html" target="_top" xlink:title=" ">
<polygon fill="none" stroke="black" points="998,-112.5 998,-131.5 1087,-131.5 1087,-112.5 998,-112.5"/>
<text text-anchor="middle" x="1042.5" y="-119.5" font-family="Helvetica,sans-Serif" font-size="10.00">SHT31Sensor.h</text>
</a>
</g>
</g>
<!-- Node1&#45;&gt;Node35 -->
<g id="edge66" class="edge">
<title>Node1&#45;&gt;Node35</title>
<path fill="none" stroke="midnightblue" d="M1135.67,-168.32C1117.78,-159.62 1090.02,-146.12 1069.45,-136.11"/>
<polygon fill="midnightblue" stroke="midnightblue" points="1070.81,-132.88 1060.29,-131.65 1067.75,-139.18 1070.81,-132.88"/>
</g>
<!-- Node37 -->
<g id="node37" class="node">
<title>Node37</title>
<g id="a_node37"><a xlink:href="TempSensor_8h.html" target="_top" xlink:title=" ">
<polygon fill="none" stroke="black" points="1258.5,-112.5 1258.5,-131.5 1342.5,-131.5 1342.5,-112.5 1258.5,-112.5"/>
<text text-anchor="middle" x="1300.5" y="-119.5" font-family="Helvetica,sans-Serif" font-size="10.00">TempSensor.h</text>
</a>
</g>
</g>
<!-- Node1&#45;&gt;Node37 -->
<g id="edge72" class="edge">
<title>Node1&#45;&gt;Node37</title>
<path fill="none" stroke="midnightblue" d="M1176.79,-168.44C1201.31,-159.44 1240.1,-145.19 1267.7,-135.05"/>
<polygon fill="midnightblue" stroke="midnightblue" points="1269.14,-138.25 1277.32,-131.52 1266.72,-131.68 1269.14,-138.25"/>
</g>
<!-- Node38 -->
<g id="node38" class="node">
<title>Node38</title>
<g id="a_node38"><a xlink:href="RadioStorage_8h.html" target="_top" xlink:title=" ">
<polygon fill="none" stroke="black" points="333,-112.5 333,-131.5 424,-131.5 424,-112.5 333,-112.5"/>
<text text-anchor="middle" x="378.5" y="-119.5" font-family="Helvetica,sans-Serif" font-size="10.00">RadioStorage.h</text>
</a>
</g>
</g>
<!-- Node1&#45;&gt;Node38 -->
<g id="edge74" class="edge">
<title>Node1&#45;&gt;Node38</title>
<path fill="none" stroke="midnightblue" d="M1122.16,-174.82C1004.23,-166.6 586.18,-137.47 434.23,-126.88"/>
<polygon fill="midnightblue" stroke="midnightblue" points="434.4,-123.39 424.18,-126.18 433.92,-130.37 434.4,-123.39"/>
</g>
<!-- Node39 -->
<g id="node39" class="node">
<title>Node39</title>
<g id="a_node39"><a xlink:href="SDStorage_8h.html" target="_top" xlink:title=" ">
<polygon fill="none" stroke="black" points="179,-112.5 179,-131.5 256,-131.5 256,-112.5 179,-112.5"/>
<text text-anchor="middle" x="217.5" y="-119.5" font-family="Helvetica,sans-Serif" font-size="10.00">SDStorage.h</text>
</a>
</g>
</g>
<!-- Node1&#45;&gt;Node39 -->
<g id="edge78" class="edge">
<title>Node1&#45;&gt;Node39</title>
<path fill="none" stroke="midnightblue" d="M1122.42,-176.47C1009.13,-174.31 607.72,-164.68 278.5,-132 274.54,-131.61 270.44,-131.14 266.33,-130.62"/>
<polygon fill="midnightblue" stroke="midnightblue" points="266.53,-127.12 256.15,-129.27 265.61,-134.06 266.53,-127.12"/>
</g>
<!-- Node3&#45;&gt;Node2 -->
<g id="edge3" class="edge">
<title>Node3&#45;&gt;Node2</title>
<path fill="none" stroke="midnightblue" d="M141.67,-58.01C146.33,-57.3 151.01,-56.61 155.5,-56 285.51,-38.23 440.06,-22.26 512.77,-15.05"/>
<polygon fill="midnightblue" stroke="midnightblue" points="513.28,-18.52 522.89,-14.06 512.59,-11.55 513.28,-18.52"/>
</g>
<!-- Node3&#45;&gt;Node4 -->
<g id="edge4" class="edge">
<title>Node3&#45;&gt;Node4</title>
<path fill="none" stroke="midnightblue" d="M141.63,-57.71C146.3,-57.05 150.99,-56.47 155.5,-56 498.95,-20.52 913.93,-13.01 1064.44,-11.42"/>
<polygon fill="midnightblue" stroke="midnightblue" points="1064.85,-14.92 1074.82,-11.32 1064.78,-7.92 1064.85,-14.92"/>
</g>
<!-- Node5 -->
<g id="node5" class="node">
<title>Node5</title>
<g id="a_node5"><a xlink:title=" ">
<polygon fill="none" stroke="#bfbfbf" points="0,-0.5 0,-19.5 95,-19.5 95,-0.5 0,-0.5"/>
<text text-anchor="middle" x="47.5" y="-7.5" font-family="Helvetica,sans-Serif" font-size="10.00">pico/multicore.h</text>
</a>
</g>
</g>
<!-- Node3&#45;&gt;Node5 -->
<g id="edge5" class="edge">
<title>Node3&#45;&gt;Node5</title>
<path fill="none" stroke="midnightblue" d="M90.91,-56.08C83.34,-48.22 72.12,-36.57 62.99,-27.08"/>
<polygon fill="midnightblue" stroke="midnightblue" points="65.38,-24.53 55.93,-19.75 60.34,-29.38 65.38,-24.53"/>
</g>
<!-- Node6 -->
<g id="node6" class="node">
<title>Node6</title>
<g id="a_node6"><a xlink:title=" ">
<polygon fill="none" stroke="#bfbfbf" points="113.5,-0.5 113.5,-19.5 189.5,-19.5 189.5,-0.5 113.5,-0.5"/>
<text text-anchor="middle" x="151.5" y="-7.5" font-family="Helvetica,sans-Serif" font-size="10.00">pico/stdlib.h</text>
</a>
</g>
</g>
<!-- Node3&#45;&gt;Node6 -->
<g id="edge6" class="edge">
<title>Node3&#45;&gt;Node6</title>
<path fill="none" stroke="midnightblue" d="M108.09,-56.08C115.66,-48.22 126.88,-36.57 136.01,-27.08"/>
<polygon fill="midnightblue" stroke="midnightblue" points="138.66,-29.38 143.07,-19.75 133.62,-24.53 138.66,-29.38"/>
</g>
<!-- Node7&#45;&gt;Node2 -->
<g id="edge9" class="edge">
<title>Node7&#45;&gt;Node2</title>
<path fill="none" stroke="midnightblue" d="M1302.14,-57.52C1299.23,-56.94 1296.32,-56.42 1293.5,-56 1030.2,-17.1 709.35,-11.69 596.31,-11.04"/>
<polygon fill="midnightblue" stroke="midnightblue" points="596.05,-7.54 586.03,-10.99 596.02,-14.54 596.05,-7.54"/>
</g>
<!-- Node8&#45;&gt;Node2 -->
<g id="edge11" class="edge">
<title>Node8&#45;&gt;Node2</title>
<path fill="none" stroke="midnightblue" d="M318.03,-58.65C366.39,-48.9 458.9,-30.26 512.76,-19.41"/>
<polygon fill="midnightblue" stroke="midnightblue" points="513.56,-22.82 522.67,-17.41 512.18,-15.96 513.56,-22.82"/>
</g>
<!-- Node9&#45;&gt;Node7 -->
<g id="edge16" class="edge">
<title>Node9&#45;&gt;Node7</title>
<path fill="none" stroke="midnightblue" d="M1491.39,-112.44C1458.59,-103.12 1406,-88.17 1370.16,-77.99"/>
<polygon fill="midnightblue" stroke="midnightblue" points="1371.11,-74.62 1360.53,-75.25 1369.19,-81.35 1371.11,-74.62"/>
</g>
<!-- Node10 -->
<g id="node10" class="node">
<title>Node10</title>
<g id="a_node10"><a xlink:title=" ">
<polygon fill="none" stroke="#bfbfbf" points="1453,-56.5 1453,-75.5 1566,-75.5 1566,-56.5 1453,-56.5"/>
<text text-anchor="middle" x="1509.5" y="-63.5" font-family="Helvetica,sans-Serif" font-size="10.00">SparkFun_AS7331.h</text>
</a>
</g>
</g>
<!-- Node9&#45;&gt;Node10 -->
<g id="edge13" class="edge">
<title>Node9&#45;&gt;Node10</title>
<path fill="none" stroke="midnightblue" d="M1519.52,-112.08C1517.93,-104.93 1515.64,-94.64 1513.65,-85.69"/>
<polygon fill="midnightblue" stroke="midnightblue" points="1517.03,-84.75 1511.44,-75.75 1510.2,-86.27 1517.03,-84.75"/>
</g>
<!-- Node11 -->
<g id="node11" class="node">
<title>Node11</title>
<g id="a_node11"><a xlink:title=" ">
<polygon fill="none" stroke="#bfbfbf" points="928.5,-56.5 928.5,-75.5 976.5,-75.5 976.5,-56.5 928.5,-56.5"/>
<text text-anchor="middle" x="952.5" y="-63.5" font-family="Helvetica,sans-Serif" font-size="10.00">Wire.h</text>
</a>
</g>
</g>
<!-- Node9&#45;&gt;Node11 -->
<g id="edge14" class="edge">
<title>Node9&#45;&gt;Node11</title>
<path fill="none" stroke="midnightblue" d="M1473.88,-113.07C1471.05,-112.68 1468.24,-112.32 1465.5,-112 1253.47,-87.04 1197.02,-111.46 986.5,-76 986.4,-75.98 986.3,-75.97 986.19,-75.95"/>
<polygon fill="midnightblue" stroke="midnightblue" points="987.03,-72.55 976.53,-73.94 985.61,-79.4 987.03,-72.55"/>
</g>
<!-- Node12 -->
<g id="node12" class="node">
<title>Node12</title>
<g id="a_node12"><a xlink:title=" ">
<polygon fill="none" stroke="#bfbfbf" points="1623,-56.5 1623,-75.5 1676,-75.5 1676,-56.5 1623,-56.5"/>
<text text-anchor="middle" x="1649.5" y="-63.5" font-family="Helvetica,sans-Serif" font-size="10.00">string.h</text>
</a>
</g>
</g>
<!-- Node9&#45;&gt;Node12 -->
<g id="edge15" class="edge">
<title>Node9&#45;&gt;Node12</title>
<path fill="none" stroke="midnightblue" d="M1541.78,-112.44C1562.85,-103.56 1596.02,-89.56 1619.99,-79.45"/>
<polygon fill="midnightblue" stroke="midnightblue" points="1621.46,-82.63 1629.31,-75.52 1618.74,-76.18 1621.46,-82.63"/>
</g>
<!-- Node13&#45;&gt;Node7 -->
<g id="edge18" class="edge">
<title>Node13&#45;&gt;Node7</title>
<path fill="none" stroke="midnightblue" d="M1181.7,-112.44C1211.91,-103.28 1260.01,-88.69 1293.53,-78.52"/>
<polygon fill="midnightblue" stroke="midnightblue" points="1294.87,-81.77 1303.43,-75.52 1292.84,-75.07 1294.87,-81.77"/>
</g>
<!-- Node14 -->
<g id="node14" class="node">
<title>Node14</title>
<g id="a_node14"><a xlink:title=" ">
<polygon fill="none" stroke="#bfbfbf" points="1114.5,-56.5 1114.5,-75.5 1224.5,-75.5 1224.5,-56.5 1114.5,-56.5"/>
<text text-anchor="middle" x="1169.5" y="-63.5" font-family="Helvetica,sans-Serif" font-size="10.00">SparkFunBME280.h</text>
</a>
</g>
</g>
<!-- Node13&#45;&gt;Node14 -->
<g id="edge19" class="edge">
<title>Node13&#45;&gt;Node14</title>
<path fill="none" stroke="midnightblue" d="M1156.14,-112.08C1158.29,-104.85 1161.38,-94.41 1164.05,-85.4"/>
<polygon fill="midnightblue" stroke="midnightblue" points="1167.42,-86.33 1166.91,-75.75 1160.71,-84.34 1167.42,-86.33"/>
</g>
<!-- Node15&#45;&gt;Node4 -->
<g id="edge26" class="edge">
<title>Node15&#45;&gt;Node4</title>
<path fill="none" stroke="midnightblue" d="M1631.4,-112.4C1622.26,-97.89 1601.59,-68.87 1575.5,-56 1507.41,-22.43 1286.43,-13.9 1180.35,-11.74"/>
<polygon fill="midnightblue" stroke="midnightblue" points="1180.21,-8.23 1170.15,-11.54 1180.08,-15.23 1180.21,-8.23"/>
</g>
<!-- Node15&#45;&gt;Node7 -->
<g id="edge27" class="edge">
<title>Node15&#45;&gt;Node7</title>
<path fill="none" stroke="midnightblue" d="M1587.29,-113.1C1526.07,-103.21 1424.01,-86.5 1370.53,-76.07"/>
<polygon fill="midnightblue" stroke="midnightblue" points="1370.99,-72.6 1360.5,-74.08 1369.63,-79.46 1370.99,-72.6"/>
</g>
<!-- Node15&#45;&gt;Node11 -->
<g id="edge24" class="edge">
<title>Node15&#45;&gt;Node11</title>
<path fill="none" stroke="midnightblue" d="M1587.49,-113.07C1584.45,-112.68 1581.44,-112.32 1578.5,-112 1316.42,-83.76 1246.74,-117.93 986.5,-76 986.4,-75.98 986.3,-75.97 986.19,-75.95"/>
<polygon fill="midnightblue" stroke="midnightblue" points="987.02,-72.55 976.52,-73.99 985.62,-79.41 987.02,-72.55"/>
</g>
<!-- Node15&#45;&gt;Node12 -->
<g id="edge25" class="edge">
<title>Node15&#45;&gt;Node12</title>
<path fill="none" stroke="midnightblue" d="M1638.65,-112.08C1640.37,-104.93 1642.85,-94.64 1645,-85.69"/>
<polygon fill="midnightblue" stroke="midnightblue" points="1648.46,-86.29 1647.39,-75.75 1641.65,-84.65 1648.46,-86.29"/>
</g>
<!-- Node16 -->
<g id="node16" class="node">
<title>Node16</title>
<g id="a_node16"><a xlink:title=" ">
<polygon fill="none" stroke="#bfbfbf" points="1694.5,-56.5 1694.5,-75.5 1804.5,-75.5 1804.5,-56.5 1694.5,-56.5"/>
<text text-anchor="middle" x="1749.5" y="-63.5" font-family="Helvetica,sans-Serif" font-size="10.00">Adafruit_BME680.h</text>
</a>
</g>
</g>
<!-- Node15&#45;&gt;Node16 -->
<g id="edge21" class="edge">
<title>Node15&#45;&gt;Node16</title>
<path fill="none" stroke="midnightblue" d="M1654.41,-112.44C1672.75,-103.68 1701.51,-89.94 1722.59,-79.86"/>
<polygon fill="midnightblue" stroke="midnightblue" points="1724.17,-82.99 1731.68,-75.52 1721.15,-76.67 1724.17,-82.99"/>
</g>
<!-- Node17 -->
<g id="node17" class="node">
<title>Node17</title>
<g id="a_node17"><a xlink:title=" ">
<polygon fill="none" stroke="#bfbfbf" points="1860.5,-56.5 1860.5,-75.5 1962.5,-75.5 1962.5,-56.5 1860.5,-56.5"/>
<text text-anchor="middle" x="1911.5" y="-63.5" font-family="Helvetica,sans-Serif" font-size="10.00">Adafruit_Sensor.h</text>
</a>
</g>
</g>
<!-- Node15&#45;&gt;Node17 -->
<g id="edge22" class="edge">
<title>Node15&#45;&gt;Node17</title>
<path fill="none" stroke="midnightblue" d="M1680.07,-112.44C1728.35,-102.96 1806.21,-87.67 1858.11,-77.48"/>
<polygon fill="midnightblue" stroke="midnightblue" points="1858.99,-80.88 1868.13,-75.52 1857.64,-74.01 1858.99,-80.88"/>
</g>
<!-- Node18 -->
<g id="node18" class="node">
<title>Node18</title>
<g id="a_node18"><a xlink:title=" ">
<polygon fill="none" stroke="#bfbfbf" points="1243,-56.5 1243,-75.5 1284,-75.5 1284,-56.5 1243,-56.5"/>
<text text-anchor="middle" x="1263.5" y="-63.5" font-family="Helvetica,sans-Serif" font-size="10.00">SPI.h</text>
</a>
</g>
</g>
<!-- Node15&#45;&gt;Node18 -->
<g id="edge23" class="edge">
<title>Node15&#45;&gt;Node18</title>
<path fill="none" stroke="midnightblue" d="M1587.47,-113.29C1584.43,-112.85 1581.43,-112.41 1578.5,-112 1455.28,-94.66 1420.18,-102.03 1294.08,-75.77"/>
<polygon fill="midnightblue" stroke="midnightblue" points="1294.55,-72.29 1284.04,-73.65 1293.1,-79.14 1294.55,-72.29"/>
</g>
<!-- Node19&#45;&gt;Node7 -->
<g id="edge30" class="edge">
<title>Node19&#45;&gt;Node7</title>
<path fill="none" stroke="midnightblue" d="M1396.13,-112.32C1384.34,-104.06 1366.37,-91.45 1352.36,-81.63"/>
<polygon fill="midnightblue" stroke="midnightblue" points="1354.04,-78.53 1343.84,-75.65 1350.02,-84.26 1354.04,-78.53"/>
</g>
<!-- Node20 -->
<g id="node20" class="node">
<title>Node20</title>
<g id="a_node20"><a xlink:title=" ">
<polygon fill="none" stroke="#bfbfbf" points="1378.5,-56.5 1378.5,-75.5 1434.5,-75.5 1434.5,-56.5 1378.5,-56.5"/>
<text text-anchor="middle" x="1406.5" y="-63.5" font-family="Helvetica,sans-Serif" font-size="10.00">RTClib.h</text>
</a>
</g>
</g>
<!-- Node19&#45;&gt;Node20 -->
<g id="edge29" class="edge">
<title>Node19&#45;&gt;Node20</title>
<path fill="none" stroke="midnightblue" d="M1408.17,-112.08C1407.91,-105.01 1407.53,-94.86 1407.2,-85.99"/>
<polygon fill="midnightblue" stroke="midnightblue" points="1410.69,-85.61 1406.82,-75.75 1403.7,-85.87 1410.69,-85.61"/>
</g>
<!-- Node21&#45;&gt;Node7 -->
<g id="edge33" class="edge">
<title>Node21&#45;&gt;Node7</title>
<path fill="none" stroke="midnightblue" d="M746.04,-113.17C749.24,-112.74 752.41,-112.35 755.5,-112 990.4,-85.65 1054.78,-111.02 1292.16,-75.96"/>
<polygon fill="midnightblue" stroke="midnightblue" points="1292.76,-79.41 1302.14,-74.46 1291.73,-72.48 1292.76,-79.41"/>
</g>
<!-- Node21&#45;&gt;Node11 -->
<g id="edge32" class="edge">
<title>Node21&#45;&gt;Node11</title>
<path fill="none" stroke="midnightblue" d="M738.75,-112.44C788.43,-101.88 872.03,-84.11 918.59,-74.21"/>
<polygon fill="midnightblue" stroke="midnightblue" points="919.44,-77.61 928.49,-72.1 917.98,-70.76 919.44,-77.61"/>
</g>
<!-- Node22 -->
<g id="node22" class="node">
<title>Node22</title>
<g id="a_node22"><a xlink:title=" ">
<polygon fill="none" stroke="#bfbfbf" points="413,-56.5 413,-75.5 526,-75.5 526,-56.5 413,-56.5"/>
<text text-anchor="middle" x="469.5" y="-63.5" font-family="Helvetica,sans-Serif" font-size="10.00">SparkFun_ENS160.h</text>
</a>
</g>
</g>
<!-- Node21&#45;&gt;Node22 -->
<g id="edge34" class="edge">
<title>Node21&#45;&gt;Node22</title>
<path fill="none" stroke="midnightblue" d="M662.21,-112.44C622.52,-103.08 558.79,-88.06 515.59,-77.87"/>
<polygon fill="midnightblue" stroke="midnightblue" points="516.15,-74.41 505.62,-75.52 514.55,-81.22 516.15,-74.41"/>
</g>
<!-- Node23&#45;&gt;Node4 -->
<g id="edge40" class="edge">
<title>Node23&#45;&gt;Node4</title>
<path fill="none" stroke="midnightblue" d="M1965.22,-119.39C2036.76,-115.47 2149.48,-102.04 2105.5,-56 2073.42,-22.42 1386.48,-13.42 1180.42,-11.47"/>
<polygon fill="midnightblue" stroke="midnightblue" points="1180.15,-7.97 1170.12,-11.37 1180.08,-14.97 1180.15,-7.97"/>
</g>
<!-- Node23&#45;&gt;Node7 -->
<g id="edge41" class="edge">
<title>Node23&#45;&gt;Node7</title>
<path fill="none" stroke="midnightblue" d="M1857.74,-114.7C1848.97,-113.74 1839.99,-112.81 1831.5,-112 1629.77,-92.8 1574.74,-107.34 1371,-76.01"/>
<polygon fill="midnightblue" stroke="midnightblue" points="1371.29,-72.51 1360.87,-74.43 1370.21,-79.43 1371.29,-72.51"/>
</g>
<!-- Node23&#45;&gt;Node12 -->
<g id="edge39" class="edge">
<title>Node23&#45;&gt;Node12</title>
<path fill="none" stroke="midnightblue" d="M1865.05,-112.43C1821.41,-104.23 1754.05,-91.18 1686.21,-76.07"/>
<polygon fill="midnightblue" stroke="midnightblue" points="1686.73,-72.6 1676.2,-73.83 1685.19,-79.43 1686.73,-72.6"/>
</g>
<!-- Node23&#45;&gt;Node17 -->
<g id="edge38" class="edge">
<title>Node23&#45;&gt;Node17</title>
<path fill="none" stroke="midnightblue" d="M1911.5,-112.08C1911.5,-105.01 1911.5,-94.86 1911.5,-85.99"/>
<polygon fill="midnightblue" stroke="midnightblue" points="1915,-85.75 1911.5,-75.75 1908,-85.75 1915,-85.75"/>
</g>
<!-- Node24 -->
<g id="node24" class="node">
<title>Node24</title>
<g id="a_node24"><a xlink:title=" ">
<polygon fill="none" stroke="#bfbfbf" points="2153,-56.5 2153,-75.5 2272,-75.5 2272,-56.5 2153,-56.5"/>
<text text-anchor="middle" x="2212.5" y="-63.5" font-family="Helvetica,sans-Serif" font-size="10.00">Adafruit_ICM20948.h</text>
</a>
</g>
</g>
<!-- Node23&#45;&gt;Node24 -->
<g id="edge36" class="edge">
<title>Node23&#45;&gt;Node24</title>
<path fill="none" stroke="midnightblue" d="M1959.19,-112.44C2012.36,-102.9 2098.32,-87.48 2155.13,-77.29"/>
<polygon fill="midnightblue" stroke="midnightblue" points="2155.8,-80.73 2165.03,-75.52 2154.57,-73.84 2155.8,-80.73"/>
</g>
<!-- Node25 -->
<g id="node25" class="node">
<title>Node25</title>
<g id="a_node25"><a xlink:title=" ">
<polygon fill="none" stroke="#bfbfbf" points="2290,-56.5 2290,-75.5 2397,-75.5 2397,-56.5 2290,-56.5"/>
<text text-anchor="middle" x="2343.5" y="-63.5" font-family="Helvetica,sans-Serif" font-size="10.00">Adafruit_ICM20X.h</text>
</a>
</g>
</g>
<!-- Node23&#45;&gt;Node25 -->
<g id="edge37" class="edge">
<title>Node23&#45;&gt;Node25</title>
<path fill="none" stroke="midnightblue" d="M1965.16,-114.87C2035.22,-106.77 2161.92,-91.84 2279.82,-76.2"/>
<polygon fill="midnightblue" stroke="midnightblue" points="2280.29,-79.67 2289.74,-74.88 2279.37,-72.73 2280.29,-79.67"/>
</g>
<!-- Node26&#45;&gt;Node2 -->
<g id="edge43" class="edge">
<title>Node26&#45;&gt;Node2</title>
<path fill="none" stroke="midnightblue" d="M889.15,-112.45C853.26,-104.86 801.76,-92.42 758.5,-76 740.29,-69.09 737.66,-63.05 719.5,-56 678.61,-40.14 629.97,-27.6 596.14,-19.83"/>
<polygon fill="midnightblue" stroke="midnightblue" points="596.67,-16.36 586.14,-17.57 595.12,-23.19 596.67,-16.36"/>
</g>
<!-- Node26&#45;&gt;Node7 -->
<g id="edge46" class="edge">
<title>Node26&#45;&gt;Node7</title>
<path fill="none" stroke="midnightblue" d="M980.23,-113.34C983.36,-112.87 986.48,-112.42 989.5,-112 1121.09,-93.64 1157.82,-99.43 1292.26,-76.05"/>
<polygon fill="midnightblue" stroke="midnightblue" points="1292.87,-79.49 1302.11,-74.31 1291.66,-72.6 1292.87,-79.49"/>
</g>
<!-- Node26&#45;&gt;Node12 -->
<g id="edge44" class="edge">
<title>Node26&#45;&gt;Node12</title>
<path fill="none" stroke="midnightblue" d="M980.2,-113.14C983.35,-112.72 986.47,-112.34 989.5,-112 1248.85,-83.26 1315.65,-99.76 1575.5,-76 1587.66,-74.89 1600.91,-73.37 1612.79,-71.9"/>
<polygon fill="midnightblue" stroke="midnightblue" points="1613.34,-75.36 1622.82,-70.63 1612.46,-68.42 1613.34,-75.36"/>
</g>
<!-- Node27 -->
<g id="node27" class="node">
<title>Node27</title>
<g id="a_node27"><a xlink:title=" ">
<polygon fill="none" stroke="#bfbfbf" points="767,-56.5 767,-75.5 872,-75.5 872,-56.5 767,-56.5"/>
<text text-anchor="middle" x="819.5" y="-63.5" font-family="Helvetica,sans-Serif" font-size="10.00">Adafruit_INA260.h</text>
</a>
</g>
</g>
<!-- Node26&#45;&gt;Node27 -->
<g id="edge45" class="edge">
<title>Node26&#45;&gt;Node27</title>
<path fill="none" stroke="midnightblue" d="M915.44,-112.44C896.93,-103.68 867.92,-89.94 846.64,-79.86"/>
<polygon fill="midnightblue" stroke="midnightblue" points="848.01,-76.63 837.48,-75.52 845.02,-82.96 848.01,-76.63"/>
</g>
<!-- Node28&#45;&gt;Node4 -->
<g id="edge51" class="edge">
<title>Node28&#45;&gt;Node4</title>
<path fill="none" stroke="midnightblue" d="M1783.42,-112.35C1801.5,-99.24 1830.34,-73.97 1813.5,-56 1770.62,-10.24 1338.54,-9.18 1180.23,-10.35"/>
<polygon fill="midnightblue" stroke="midnightblue" points="1180.18,-6.85 1170.21,-10.43 1180.23,-13.85 1180.18,-6.85"/>
</g>
<!-- Node28&#45;&gt;Node7 -->
<g id="edge52" class="edge">
<title>Node28&#45;&gt;Node7</title>
<path fill="none" stroke="midnightblue" d="M1718.18,-114.75C1710.24,-113.82 1702.16,-112.88 1694.5,-112 1553.36,-95.83 1514.43,-100.56 1370.94,-76.07"/>
<polygon fill="midnightblue" stroke="midnightblue" points="1371.33,-72.59 1360.89,-74.33 1370.14,-79.48 1371.33,-72.59"/>
</g>
<!-- Node28&#45;&gt;Node12 -->
<g id="edge50" class="edge">
<title>Node28&#45;&gt;Node12</title>
<path fill="none" stroke="midnightblue" d="M1751.33,-112.44C1731.59,-103.64 1700.61,-89.81 1678.01,-79.72"/>
<polygon fill="midnightblue" stroke="midnightblue" points="1679.14,-76.4 1668.58,-75.52 1676.29,-82.79 1679.14,-76.4"/>
</g>
<!-- Node28&#45;&gt;Node17 -->
<g id="edge49" class="edge">
<title>Node28&#45;&gt;Node17</title>
<path fill="none" stroke="midnightblue" d="M1792.84,-112.44C1816.25,-103.48 1853.24,-89.31 1879.69,-79.18"/>
<polygon fill="midnightblue" stroke="midnightblue" points="1881.18,-82.36 1889.26,-75.52 1878.67,-75.82 1881.18,-82.36"/>
</g>
<!-- Node29 -->
<g id="node29" class="node">
<title>Node29</title>
<g id="a_node29"><a xlink:title=" ">
<polygon fill="none" stroke="#bfbfbf" points="1980.5,-56.5 1980.5,-75.5 2096.5,-75.5 2096.5,-56.5 1980.5,-56.5"/>
<text text-anchor="middle" x="2038.5" y="-63.5" font-family="Helvetica,sans-Serif" font-size="10.00">Adafruit_LSM9DS1.h</text>
</a>
</g>
</g>
<!-- Node28&#45;&gt;Node29 -->
<g id="edge48" class="edge">
<title>Node28&#45;&gt;Node29</title>
<path fill="none" stroke="midnightblue" d="M1812.97,-112.44C1859.91,-102.98 1935.58,-87.74 1986.15,-77.55"/>
<polygon fill="midnightblue" stroke="midnightblue" points="1987.12,-80.92 1996.23,-75.52 1985.74,-74.06 1987.12,-80.92"/>
</g>
<!-- Node30&#45;&gt;Node2 -->
<g id="edge55" class="edge">
<title>Node30&#45;&gt;Node2</title>
<path fill="none" stroke="midnightblue" d="M764.24,-112.46C696.35,-101.17 585.59,-82 578.5,-76 564.89,-64.49 558.99,-44.52 556.44,-29.74"/>
<polygon fill="midnightblue" stroke="midnightblue" points="559.89,-29.12 555.07,-19.68 552.95,-30.06 559.89,-29.12"/>
</g>
<!-- Node30&#45;&gt;Node4 -->
<g id="edge58" class="edge">
<title>Node30&#45;&gt;Node4</title>
<path fill="none" stroke="midnightblue" d="M764.39,-112.95C707.17,-103.59 622.05,-87.89 612.5,-76 606.93,-69.07 606.5,-62.56 612.5,-56 642.53,-23.2 937.28,-14.18 1064.51,-11.81"/>
<polygon fill="midnightblue" stroke="midnightblue" points="1064.9,-15.3 1074.83,-11.62 1064.77,-8.3 1064.9,-15.3"/>
</g>
<!-- Node30&#45;&gt;Node7 -->
<g id="edge59" class="edge">
<title>Node30&#45;&gt;Node7</title>
<path fill="none" stroke="midnightblue" d="M868.57,-113.22C871.93,-112.79 875.26,-112.38 878.5,-112 1059.17,-91.07 1108.97,-104.91 1292.16,-76"/>
<polygon fill="midnightblue" stroke="midnightblue" points="1292.8,-79.44 1302.13,-74.4 1291.7,-72.53 1292.8,-79.44"/>
</g>
<!-- Node30&#45;&gt;Node11 -->
<g id="edge57" class="edge">
<title>Node30&#45;&gt;Node11</title>
<path fill="none" stroke="midnightblue" d="M838.05,-112.44C860.53,-103.52 895.99,-89.44 921.48,-79.32"/>
<polygon fill="midnightblue" stroke="midnightblue" points="923.05,-82.46 931.05,-75.52 920.47,-75.95 923.05,-82.46"/>
</g>
<!-- Node30&#45;&gt;Node18 -->
<g id="edge56" class="edge">
<title>Node30&#45;&gt;Node18</title>
<path fill="none" stroke="midnightblue" d="M868.57,-113.27C871.93,-112.83 875.26,-112.4 878.5,-112 1032.67,-93 1076.18,-106.35 1232.97,-75.7"/>
<polygon fill="midnightblue" stroke="midnightblue" points="1233.85,-79.1 1242.97,-73.72 1232.48,-72.23 1233.85,-79.1"/>
</g>
<!-- Node31 -->
<g id="node31" class="node">
<title>Node31</title>
<g id="a_node31"><a xlink:title=" ">
<polygon fill="none" stroke="#bfbfbf" points="621,-56.5 621,-75.5 710,-75.5 710,-56.5 621,-56.5"/>
<text text-anchor="middle" x="665.5" y="-63.5" font-family="Helvetica,sans-Serif" font-size="10.00">Adafruit_GPS.h</text>
</a>
</g>
</g>
<!-- Node30&#45;&gt;Node31 -->
<g id="edge54" class="edge">
<title>Node30&#45;&gt;Node31</title>
<path fill="none" stroke="midnightblue" d="M792.57,-112.44C767.28,-103.4 727.2,-89.06 698.82,-78.92"/>
<polygon fill="midnightblue" stroke="midnightblue" points="699.91,-75.59 689.31,-75.52 697.55,-82.18 699.91,-75.59"/>
</g>
<!-- Node32&#45;&gt;Node2 -->
<g id="edge61" class="edge">
<title>Node32&#45;&gt;Node2</title>
<path fill="none" stroke="midnightblue" d="M2279.27,-119.79C2385.76,-116.16 2641.99,-102.5 2596.5,-56 2587.42,-46.72 885.48,-16.75 596.09,-11.72"/>
<polygon fill="midnightblue" stroke="midnightblue" points="596.07,-8.22 586.02,-11.54 595.95,-15.22 596.07,-8.22"/>
</g>
<!-- Node32&#45;&gt;Node7 -->
<g id="edge65" class="edge">
<title>Node32&#45;&gt;Node7</title>
<path fill="none" stroke="midnightblue" d="M2189.77,-119.15C2029.46,-112.45 1487.39,-89.22 1371.04,-75.81"/>
<polygon fill="midnightblue" stroke="midnightblue" points="1371.22,-72.31 1360.86,-74.51 1370.33,-79.25 1371.22,-72.31"/>
</g>
<!-- Node32&#45;&gt;Node12 -->
<g id="edge63" class="edge">
<title>Node32&#45;&gt;Node12</title>
<path fill="none" stroke="midnightblue" d="M2189.72,-119.8C2097.32,-116.8 1878.79,-106.95 1686.16,-75.82"/>
<polygon fill="midnightblue" stroke="midnightblue" points="1686.57,-72.34 1676.14,-74.17 1685.44,-79.25 1686.57,-72.34"/>
</g>
<!-- Node33 -->
<g id="node33" class="node">
<title>Node33</title>
<g id="a_node33"><a xlink:title=" ">
<polygon fill="none" stroke="#bfbfbf" points="2415,-56.5 2415,-75.5 2468,-75.5 2468,-56.5 2415,-56.5"/>
<text text-anchor="middle" x="2441.5" y="-63.5" font-family="Helvetica,sans-Serif" font-size="10.00">stdint.h</text>
</a>
</g>
</g>
<!-- Node32&#45;&gt;Node33 -->
<g id="edge62" class="edge">
<title>Node32&#45;&gt;Node33</title>
<path fill="none" stroke="midnightblue" d="M2267.3,-112.44C2304.76,-102.67 2365.9,-86.72 2404.89,-76.55"/>
<polygon fill="midnightblue" stroke="midnightblue" points="2405.99,-79.88 2414.78,-73.97 2404.22,-73.11 2405.99,-79.88"/>
</g>
<!-- Node34 -->
<g id="node34" class="node">
<title>Node34</title>
<g id="a_node34"><a xlink:title=" ">
<polygon fill="none" stroke="#bfbfbf" points="2486,-56.5 2486,-75.5 2587,-75.5 2587,-56.5 2486,-56.5"/>
<text text-anchor="middle" x="2536.5" y="-63.5" font-family="Helvetica,sans-Serif" font-size="10.00">Adafruit_SGP30.h</text>
</a>
</g>
</g>
<!-- Node32&#45;&gt;Node34 -->
<g id="edge64" class="edge">
<title>Node32&#45;&gt;Node34</title>
<path fill="none" stroke="midnightblue" d="M2279.06,-113.03C2332,-103.57 2420.44,-87.75 2478.62,-77.35"/>
<polygon fill="midnightblue" stroke="midnightblue" points="2479.53,-80.74 2488.76,-75.54 2478.3,-73.85 2479.53,-80.74"/>
</g>
<!-- Node35&#45;&gt;Node2 -->
<g id="edge67" class="edge">
<title>Node35&#45;&gt;Node2</title>
<path fill="none" stroke="midnightblue" d="M1015.7,-112.35C990.51,-103.95 951.92,-90.39 919.5,-76 902.05,-68.26 899.67,-61.83 881.5,-56 782.73,-24.29 660.13,-14.93 596.8,-12.16"/>
<polygon fill="midnightblue" stroke="midnightblue" points="596.55,-8.65 586.42,-11.74 596.27,-15.64 596.55,-8.65"/>
</g>
<!-- Node35&#45;&gt;Node7 -->
<g id="edge71" class="edge">
<title>Node35&#45;&gt;Node7</title>
<path fill="none" stroke="midnightblue" d="M1087.2,-113.29C1144.4,-103.38 1241.33,-86.4 1292.58,-76.08"/>
<polygon fill="midnightblue" stroke="midnightblue" points="1293.4,-79.48 1302.49,-74.04 1291.99,-72.63 1293.4,-79.48"/>
</g>
<!-- Node35&#45;&gt;Node11 -->
<g id="edge68" class="edge">
<title>Node35&#45;&gt;Node11</title>
<path fill="none" stroke="midnightblue" d="M1028.04,-112.32C1014,-103.9 992.45,-90.97 975.96,-81.07"/>
<polygon fill="midnightblue" stroke="midnightblue" points="977.3,-77.8 966.92,-75.65 973.7,-83.8 977.3,-77.8"/>
</g>
<!-- Node35&#45;&gt;Node12 -->
<g id="edge69" class="edge">
<title>Node35&#45;&gt;Node12</title>
<path fill="none" stroke="midnightblue" d="M1087.28,-113.09C1090.06,-112.7 1092.81,-112.33 1095.5,-112 1307.85,-86.06 1362.59,-96.92 1575.5,-76 1587.65,-74.81 1600.9,-73.27 1612.79,-71.8"/>
<polygon fill="midnightblue" stroke="midnightblue" points="1613.33,-75.26 1622.82,-70.55 1612.46,-68.32 1613.33,-75.26"/>
</g>
<!-- Node36 -->
<g id="node36" class="node">
<title>Node36</title>
<g id="a_node36"><a xlink:title=" ">
<polygon fill="none" stroke="#bfbfbf" points="995,-56.5 995,-75.5 1096,-75.5 1096,-56.5 995,-56.5"/>
<text text-anchor="middle" x="1045.5" y="-63.5" font-family="Helvetica,sans-Serif" font-size="10.00">Adafruit_SHT31.h</text>
</a>
</g>
</g>
<!-- Node35&#45;&gt;Node36 -->
<g id="edge70" class="edge">
<title>Node35&#45;&gt;Node36</title>
<path fill="none" stroke="midnightblue" d="M1043,-112.08C1043.39,-105.01 1043.95,-94.86 1044.45,-85.99"/>
<polygon fill="midnightblue" stroke="midnightblue" points="1047.95,-85.93 1045.01,-75.75 1040.96,-85.54 1047.95,-85.93"/>
</g>
<!-- Node37&#45;&gt;Node7 -->
<g id="edge73" class="edge">
<title>Node37&#45;&gt;Node7</title>
<path fill="none" stroke="midnightblue" d="M1305.62,-112.08C1309.91,-104.61 1316.16,-93.72 1321.44,-84.52"/>
<polygon fill="midnightblue" stroke="midnightblue" points="1324.53,-86.17 1326.48,-75.75 1318.46,-82.68 1324.53,-86.17"/>
</g>
<!-- Node38&#45;&gt;Node2 -->
<g id="edge75" class="edge">
<title>Node38&#45;&gt;Node2</title>
<path fill="none" stroke="midnightblue" d="M373.89,-112.37C367.37,-98.84 357.58,-72.46 370.5,-56 387.85,-33.9 463.99,-21.26 512.73,-15.29"/>
<polygon fill="midnightblue" stroke="midnightblue" points="513.16,-18.76 522.68,-14.12 512.34,-11.81 513.16,-18.76"/>
</g>
<!-- Node38&#45;&gt;Node4 -->
<g id="edge76" class="edge">
<title>Node38&#45;&gt;Node4</title>
<path fill="none" stroke="midnightblue" d="M379.16,-112.05C380.76,-97.56 386.19,-69.25 404.5,-56 457.44,-17.69 903.67,-11.94 1064.78,-11.12"/>
<polygon fill="midnightblue" stroke="midnightblue" points="1064.99,-14.62 1074.97,-11.07 1064.95,-7.62 1064.99,-14.62"/>
</g>
<!-- Node38&#45;&gt;Node8 -->
<g id="edge77" class="edge">
<title>Node38&#45;&gt;Node8</title>
<path fill="none" stroke="midnightblue" d="M363.72,-112.32C349.23,-103.82 326.93,-90.73 310.01,-80.8"/>
<polygon fill="midnightblue" stroke="midnightblue" points="311.64,-77.7 301.24,-75.65 308.1,-83.74 311.64,-77.7"/>
</g>
<!-- Node39&#45;&gt;Node3 -->
<g id="edge79" class="edge">
<title>Node39&#45;&gt;Node3</title>
<path fill="none" stroke="midnightblue" d="M198.8,-112.44C179.56,-103.64 149.35,-89.81 127.3,-79.72"/>
<polygon fill="midnightblue" stroke="midnightblue" points="128.66,-76.5 118.11,-75.52 125.75,-82.86 128.66,-76.5"/>
</g>
<!-- Node39&#45;&gt;Node4 -->
<g id="edge80" class="edge">
<title>Node39&#45;&gt;Node4</title>
<path fill="none" stroke="midnightblue" d="M208.19,-112.37C194.66,-98.84 172.81,-72.46 188.5,-56 218.79,-24.21 865.14,-14.01 1064.48,-11.62"/>
<polygon fill="midnightblue" stroke="midnightblue" points="1064.79,-15.11 1074.75,-11.49 1064.71,-8.11 1064.79,-15.11"/>
</g>
<!-- Node39&#45;&gt;Node8 -->
<g id="edge82" class="edge">
<title>Node39&#45;&gt;Node8</title>
<path fill="none" stroke="midnightblue" d="M228.59,-112.32C238.99,-104.18 254.76,-91.84 267.22,-82.09"/>
<polygon fill="midnightblue" stroke="midnightblue" points="269.49,-84.75 275.21,-75.83 265.18,-79.24 269.49,-84.75"/>
</g>
<!-- Node40 -->
<g id="node40" class="node">
<title>Node40</title>
<g id="a_node40"><a xlink:title=" ">
<polygon fill="none" stroke="#bfbfbf" points="198,-56.5 198,-75.5 237,-75.5 237,-56.5 198,-56.5"/>
<text text-anchor="middle" x="217.5" y="-63.5" font-family="Helvetica,sans-Serif" font-size="10.00">SD.h</text>
</a>
</g>
</g>
<!-- Node39&#45;&gt;Node40 -->
<g id="edge81" class="edge">
<title>Node39&#45;&gt;Node40</title>
<path fill="none" stroke="midnightblue" d="M217.5,-112.08C217.5,-105.01 217.5,-94.86 217.5,-85.99"/>
<polygon fill="midnightblue" stroke="midnightblue" points="221,-85.75 217.5,-75.75 214,-85.75 221,-85.75"/>
</g>
</g>
</svg>
        <g id="navigator" transform="translate(0 0)" fill="#404254">
                <rect fill="#f2f5e9" fill-opacity="0.5" stroke="#606060" stroke-width=".5" x="0" y="0" width="60" height="60"/>
                <use id="zoomplus" xlink:href="#zoomPlus" x="17" y="9" onmousedown="handleZoom(evt,'in')"/>
                <use id="zoomminus" xlink:href="#zoomMin" x="42" y="9" onmousedown="handleZoom(evt,'out')"/>
                <use id="reset" xlink:href="#resetDef" x="30" y="36" onmousedown="handleReset()"/>
                <g id="arrowUp" xlink:href="#dirArrow" transform="translate(30 24)" onmousedown="handlePan(0,-1)">
                  <use xlink:href="#rim" fill="#404040">
                        <set attributeName="fill" to="#808080" begin="arrowUp.mouseover" end="arrowUp.mouseout"/>
                  </use>
                  <path fill="none" stroke="white" stroke-width="1.5" d="M0,-3.0v7 M-2.5,-0.5L0,-3.0L2.5,-0.5"/>
                </g>
                <g id="arrowRight" xlink:href="#dirArrow" transform="rotate(90) translate(36 -43)" onmousedown="handlePan(1,0)">
                  <use xlink:href="#rim" fill="#404040">
                        <set attributeName="fill" to="#808080" begin="arrowRight.mouseover" end="arrowRight.mouseout"/>
                  </use>
                  <path fill="none" stroke="white" stroke-width="1.5" d="M0,-3.0v7 M-2.5,-0.5L0,-3.0L2.5,-0.5"/>
                </g>
                <g id="arrowDown" xlink:href="#dirArrow" transform="rotate(180) translate(-30 -48)" onmousedown="handlePan(0,1)">
                  <use xlink:href="#rim" fill="#404040">
                        <set attributeName="fill" to="#808080" begin="arrowDown.mouseover" end="arrowDown.mouseout"/>
                  </use>
                  <path fill="none" stroke="white" stroke-width="1.5" d="M0,-3.0v7 M-2.5,-0.5L0,-3.0L2.5,-0.5"/>
                </g>
                <g id="arrowLeft" xlink:href="#dirArrow" transform="rotate(270) translate(-36 17)" onmousedown="handlePan(-1,0)">
                  <use xlink:href="#rim" fill="#404040">
                        <set attributeName="fill" to="#808080" begin="arrowLeft.mouseover" end="arrowLeft.mouseout"/>
                  </use>
                  <path fill="none" stroke="white" stroke-width="1.5" d="M0,-3.0v7 M-2.5,-0.5L0,-3.0L2.5,-0.5"/>
                </g>
        </g>
        <svg viewBox="0 0 15 15" width="100%" height="30px" preserveAspectRatio="xMaxYMin meet">
         <g id="arrow_out" transform="scale(0.3 0.3)">
          <a xlink:href="main_8cpp__incl_org.svg" target="_base">
           <rect id="button" ry="5" rx="5" y="6" x="6" height="38" width="38"
                fill="#f2f5e9" fill-opacity="0.5" stroke="#606060" stroke-width="1.0"/>
           <path id="arrow"
             d="M 11.500037,31.436501 C 11.940474,20.09759 22.043105,11.32322 32.158766,21.979434 L 37.068811,17.246167 C 37.068811,17.246167 37.088388,32 37.088388,32 L 22.160133,31.978069 C 22.160133,31.978069 26.997745,27.140456 26.997745,27.140456 C 18.528582,18.264221 13.291696,25.230495 11.500037,31.436501 z"
             style="fill:#404040;"/>
          </a>
         </g>
        </svg>
</svg>
