<?xml version="1.0" encoding="UTF-8" standalone="no"?>
<!DOCTYPE svg PUBLIC "-//W3C//DTD SVG 1.1//EN"
 "http://www.w3.org/Graphics/SVG/1.1/DTD/svg11.dtd">
<!-- Generated by graphviz version 2.43.0 (0)
 -->
<!-- Title: setup Pages: 1 -->
<svg width="368pt" height="256pt"
 viewBox="0.00 0.00 368.00 256.00" xmlns="http://www.w3.org/2000/svg" xmlns:xlink="http://www.w3.org/1999/xlink">
<g id="graph0" class="graph" transform="scale(1 1) rotate(0) translate(4 252)">
<title>setup</title>
<!-- Node1 -->
<g id="node1" class="node">
<title>Node1</title>
<g id="a_node1"><a xlink:title="Setup for core 0.">
<polygon fill="#bfbfbf" stroke="black" points="0,-114.5 0,-133.5 44,-133.5 44,-114.5 0,-114.5"/>
<text text-anchor="middle" x="22" y="-121.5" font-family="Helvetica,sans-Serif" font-size="10.00">setup</text>
</a>
</g>
</g>
<!-- Node2 -->
<g id="node2" class="node">
<title>Node2</title>
<g id="a_node2"><a xlink:href="classErrorDisplay.html#a25018c85cd6b4055a5e796153b997d13" target="_top" xlink:title="Sets the error code to the given value if the given error is of a higher priority then the current er...">
<polygon fill="none" stroke="black" points="97,-228.5 97,-247.5 222,-247.5 222,-228.5 97,-228.5"/>
<text text-anchor="middle" x="159.5" y="-235.5" font-family="Helvetica,sans-Serif" font-size="10.00">ErrorDisplay::addCode</text>
</a>
</g>
</g>
<!-- Node1&#45;&gt;Node2 -->
<g id="edge1" class="edge">
<title>Node1&#45;&gt;Node2</title>
<path fill="none" stroke="midnightblue" d="M25.92,-133.53C32.35,-152.85 49.63,-196.67 80,-219 82.65,-220.95 85.48,-222.71 88.43,-224.28"/>
<polygon fill="midnightblue" stroke="midnightblue" points="87.04,-227.49 97.58,-228.49 89.96,-221.13 87.04,-227.49"/>
</g>
<!-- Node3 -->
<g id="node3" class="node">
<title>Node3</title>
<g id="a_node3"><a xlink:href="classSensor.html#a8a69f0a1c04c3b90d8225d67301a75b6" target="_top" xlink:title="Get the csv header string associated with this sensor.">
<polygon fill="none" stroke="black" points="80,-190.5 80,-209.5 239,-209.5 239,-190.5 80,-190.5"/>
<text text-anchor="middle" x="159.5" y="-197.5" font-family="Helvetica,sans-Serif" font-size="10.00">Sensor::getSensorCSVHeader</text>
</a>
</g>
</g>
<!-- Node1&#45;&gt;Node3 -->
<g id="edge2" class="edge">
<title>Node1&#45;&gt;Node3</title>
<path fill="none" stroke="midnightblue" d="M29.93,-133.69C39.63,-146.52 58.52,-168.94 80,-181 84.14,-183.32 88.55,-185.36 93.1,-187.16"/>
<polygon fill="midnightblue" stroke="midnightblue" points="91.98,-190.47 102.58,-190.5 94.31,-183.87 91.98,-190.47"/>
</g>
<!-- Node4 -->
<g id="node4" class="node">
<title>Node4</title>
<g id="a_node4"><a xlink:href="classErrorDisplay.html#a164dea875d8b3215203e5d6f0076f237" target="_top" xlink:title="Accesses the only instance of ErrorDisplay (Singleton)">
<polygon fill="none" stroke="black" points="98,-152.5 98,-171.5 221,-171.5 221,-152.5 98,-152.5"/>
<text text-anchor="middle" x="159.5" y="-159.5" font-family="Helvetica,sans-Serif" font-size="10.00">ErrorDisplay::instance</text>
</a>
</g>
</g>
<!-- Node1&#45;&gt;Node4 -->
<g id="edge3" class="edge">
<title>Node1&#45;&gt;Node4</title>
<path fill="none" stroke="midnightblue" d="M44.25,-131.56C54.91,-135.23 68.07,-139.57 80,-143 88.52,-145.45 97.62,-147.84 106.49,-150.07"/>
<polygon fill="midnightblue" stroke="midnightblue" points="105.82,-153.5 116.37,-152.49 107.49,-146.71 105.82,-153.5"/>
</g>
<!-- Node5 -->
<g id="node5" class="node">
<title>Node5</title>
<g id="a_node5"><a xlink:href="main_8cpp.html#a0f14b13edaa51207f1ff6752e4696ee7" target="_top" xlink:title="Sends data to each storage device, assumes storage devices take care of newline/data end themselves.">
<polygon fill="none" stroke="black" points="127,-114.5 127,-133.5 192,-133.5 192,-114.5 127,-114.5"/>
<text text-anchor="middle" x="159.5" y="-121.5" font-family="Helvetica,sans-Serif" font-size="10.00">storeData</text>
</a>
</g>
</g>
<!-- Node1&#45;&gt;Node5 -->
<g id="edge4" class="edge">
<title>Node1&#45;&gt;Node5</title>
<path fill="none" stroke="midnightblue" d="M44.17,-124C63.49,-124 92.61,-124 116.63,-124"/>
<polygon fill="midnightblue" stroke="midnightblue" points="116.9,-127.5 126.9,-124 116.9,-120.5 116.9,-127.5"/>
</g>
<!-- Node7 -->
<g id="node7" class="node">
<title>Node7</title>
<g id="a_node7"><a xlink:href="classErrorDisplay.html#a493bde338b369414abffe90e0d49e93b" target="_top" xlink:title="Toggles the level of the error display.">
<polygon fill="none" stroke="black" points="103,-76.5 103,-95.5 216,-95.5 216,-76.5 103,-76.5"/>
<text text-anchor="middle" x="159.5" y="-83.5" font-family="Helvetica,sans-Serif" font-size="10.00">ErrorDisplay::toggle</text>
</a>
</g>
</g>
<!-- Node1&#45;&gt;Node7 -->
<g id="edge6" class="edge">
<title>Node1&#45;&gt;Node7</title>
<path fill="none" stroke="midnightblue" d="M44.25,-116.44C54.91,-112.77 68.07,-108.43 80,-105 88.52,-102.55 97.62,-100.16 106.49,-97.93"/>
<polygon fill="midnightblue" stroke="midnightblue" points="107.49,-101.29 116.37,-95.51 105.82,-94.5 107.49,-101.29"/>
</g>
<!-- Node8 -->
<g id="node8" class="node">
<title>Node8</title>
<g id="a_node8"><a xlink:href="main_8cpp.html#aef42a5a8a5d889c599fa964be60eca24" target="_top" xlink:title="Verifies each sensor by calling each verify() function.">
<polygon fill="none" stroke="black" points="118,-38.5 118,-57.5 201,-57.5 201,-38.5 118,-38.5"/>
<text text-anchor="middle" x="159.5" y="-45.5" font-family="Helvetica,sans-Serif" font-size="10.00">verifySensors</text>
</a>
</g>
</g>
<!-- Node1&#45;&gt;Node8 -->
<g id="edge7" class="edge">
<title>Node1&#45;&gt;Node8</title>
<path fill="none" stroke="midnightblue" d="M29.93,-114.31C39.63,-101.48 58.52,-79.06 80,-67 88.53,-62.21 98.24,-58.62 107.86,-55.93"/>
<polygon fill="midnightblue" stroke="midnightblue" points="108.94,-59.27 117.79,-53.45 107.24,-52.48 108.94,-59.27"/>
</g>
<!-- Node9 -->
<g id="node9" class="node">
<title>Node9</title>
<g id="a_node9"><a xlink:href="main_8cpp.html#a339ac134cdee34bfe9d5f539ab14ba00" target="_top" xlink:title="Verifies the connection with each storage device, and defines the header_condensed field.">
<polygon fill="none" stroke="black" points="118.5,-0.5 118.5,-19.5 200.5,-19.5 200.5,-0.5 118.5,-0.5"/>
<text text-anchor="middle" x="159.5" y="-7.5" font-family="Helvetica,sans-Serif" font-size="10.00">verifyStorage</text>
</a>
</g>
</g>
<!-- Node1&#45;&gt;Node9 -->
<g id="edge8" class="edge">
<title>Node1&#45;&gt;Node9</title>
<path fill="none" stroke="midnightblue" d="M25.92,-114.47C32.35,-95.15 49.63,-51.33 80,-29 88.3,-22.9 98.31,-18.73 108.36,-15.89"/>
<polygon fill="midnightblue" stroke="midnightblue" points="109.46,-19.23 118.36,-13.48 107.81,-12.42 109.46,-19.23"/>
</g>
<!-- Node6 -->
<g id="node6" class="node">
<title>Node6</title>
<g id="a_node6"><a xlink:href="classStorage.html#a08674ceb4404690065b1cf39963eb5a3" target="_top" xlink:title="Send data to storage device.">
<polygon fill="none" stroke="black" points="275,-114.5 275,-133.5 360,-133.5 360,-114.5 275,-114.5"/>
<text text-anchor="middle" x="317.5" y="-121.5" font-family="Helvetica,sans-Serif" font-size="10.00">Storage::store</text>
</a>
</g>
</g>
<!-- Node5&#45;&gt;Node6 -->
<g id="edge5" class="edge">
<title>Node5&#45;&gt;Node6</title>
<path fill="none" stroke="midnightblue" d="M192.07,-124C212.95,-124 240.8,-124 264.86,-124"/>
<polygon fill="midnightblue" stroke="midnightblue" points="264.91,-127.5 274.91,-124 264.91,-120.5 264.91,-127.5"/>
</g>
</g>
</svg>
