<?xml version="1.0" encoding="UTF-8" standalone="no"?>
<!DOCTYPE svg PUBLIC "-//W3C//DTD SVG 1.1//EN"
 "http://www.w3.org/Graphics/SVG/1.1/DTD/svg11.dtd">
<!-- Generated by graphviz version 2.43.0 (0)
 -->
<!-- Title: main.cpp Pages: 1 -->
<svg width="1416pt" height="196pt"
 viewBox="0.00 0.00 1416.14 196.00" xmlns="http://www.w3.org/2000/svg" xmlns:xlink="http://www.w3.org/1999/xlink">
<g id="graph0" class="graph" transform="scale(1 1) rotate(0) translate(4 192)">
<title>main.cpp</title>
<!-- Node1 -->
<g id="node1" class="node">
<title>Node1</title>
<g id="a_node1"><a xlink:title=" ">
<polygon fill="#bfbfbf" stroke="black" points="493.14,-168.5 493.14,-187.5 555.14,-187.5 555.14,-168.5 493.14,-168.5"/>
<text text-anchor="middle" x="524.14" y="-175.5" font-family="Helvetica,sans-Serif" font-size="10.00">main.cpp</text>
</a>
</g>
</g>
<!-- Node2 -->
<g id="node2" class="node">
<title>Node2</title>
<g id="a_node2"><a xlink:title=" ">
<polygon fill="none" stroke="#bfbfbf" points="576.64,-0.5 576.64,-19.5 639.64,-19.5 639.64,-0.5 576.64,-0.5"/>
<text text-anchor="middle" x="608.14" y="-7.5" font-family="Helvetica,sans-Serif" font-size="10.00">Arduino.h</text>
</a>
</g>
</g>
<!-- Node1&#45;&gt;Node2 -->
<g id="edge1" class="edge">
<title>Node1&#45;&gt;Node2</title>
<path fill="none" stroke="midnightblue" d="M492.92,-176.86C401.56,-176 136.39,-170.2 60.14,-132 23.77,-113.78 -18.53,-85.82 9.14,-56 46.87,-15.33 435.65,-11.18 565.89,-10.94"/>
<polygon fill="midnightblue" stroke="midnightblue" points="566.25,-14.44 576.25,-10.93 566.24,-7.44 566.25,-14.44"/>
</g>
<!-- Node3 -->
<g id="node3" class="node">
<title>Node3</title>
<g id="a_node3"><a xlink:href="Sensor_8h.html" target="_top" xlink:title=" ">
<polygon fill="none" stroke="black" points="579.14,-56.5 579.14,-75.5 637.14,-75.5 637.14,-56.5 579.14,-56.5"/>
<text text-anchor="middle" x="608.14" y="-63.5" font-family="Helvetica,sans-Serif" font-size="10.00">Sensor.h</text>
</a>
</g>
</g>
<!-- Node1&#45;&gt;Node3 -->
<g id="edge2" class="edge">
<title>Node1&#45;&gt;Node3</title>
<path fill="none" stroke="midnightblue" d="M555.15,-173.38C580.61,-168.59 615.12,-157.52 632.14,-132 642.1,-117.06 632.28,-97.44 622.36,-83.68"/>
<polygon fill="midnightblue" stroke="midnightblue" points="624.96,-81.31 616.04,-75.59 619.44,-85.62 624.96,-81.31"/>
</g>
<!-- Node4 -->
<g id="node4" class="node">
<title>Node4</title>
<g id="a_node4"><a xlink:href="Storage_8h.html" target="_top" xlink:title=" ">
<polygon fill="none" stroke="black" points="75.64,-56.5 75.64,-75.5 138.64,-75.5 138.64,-56.5 75.64,-56.5"/>
<text text-anchor="middle" x="107.14" y="-63.5" font-family="Helvetica,sans-Serif" font-size="10.00">Storage.h</text>
</a>
</g>
</g>
<!-- Node1&#45;&gt;Node4 -->
<g id="edge4" class="edge">
<title>Node1&#45;&gt;Node4</title>
<path fill="none" stroke="midnightblue" d="M493.01,-177.71C433.2,-178.01 299.01,-173.51 196.14,-132 167.78,-120.55 140.14,-98.06 123.37,-82.78"/>
<polygon fill="midnightblue" stroke="midnightblue" points="125.75,-80.21 116.06,-75.93 120.97,-85.32 125.75,-80.21"/>
</g>
<!-- Node5 -->
<g id="node5" class="node">
<title>Node5</title>
<g id="a_node5"><a xlink:href="AnalogSensor_8h.html" target="_top" xlink:title=" ">
<polygon fill="none" stroke="black" points="531.14,-112.5 531.14,-131.5 623.14,-131.5 623.14,-112.5 531.14,-112.5"/>
<text text-anchor="middle" x="577.14" y="-119.5" font-family="Helvetica,sans-Serif" font-size="10.00">AnalogSensor.h</text>
</a>
</g>
</g>
<!-- Node1&#45;&gt;Node5 -->
<g id="edge6" class="edge">
<title>Node1&#45;&gt;Node5</title>
<path fill="none" stroke="midnightblue" d="M532.89,-168.08C540.61,-160.22 552.04,-148.57 561.36,-139.08"/>
<polygon fill="midnightblue" stroke="midnightblue" points="564.04,-141.34 568.55,-131.75 559.05,-136.44 564.04,-141.34"/>
</g>
<!-- Node7 -->
<g id="node7" class="node">
<title>Node7</title>
<g id="a_node7"><a xlink:href="BME680Sensor_8h.html" target="_top" xlink:title=" ">
<polygon fill="none" stroke="black" points="313.14,-112.5 313.14,-131.5 411.14,-131.5 411.14,-112.5 313.14,-112.5"/>
<text text-anchor="middle" x="362.14" y="-119.5" font-family="Helvetica,sans-Serif" font-size="10.00">BME680Sensor.h</text>
</a>
</g>
</g>
<!-- Node1&#45;&gt;Node7 -->
<g id="edge10" class="edge">
<title>Node1&#45;&gt;Node7</title>
<path fill="none" stroke="midnightblue" d="M498.47,-168.44C471.22,-159.36 427.95,-144.94 397.49,-134.78"/>
<polygon fill="midnightblue" stroke="midnightblue" points="398.28,-131.36 387.69,-131.52 396.07,-138 398.28,-131.36"/>
</g>
<!-- Node12 -->
<g id="node12" class="node">
<title>Node12</title>
<g id="a_node12"><a xlink:href="GeigerSensor_8h.html" target="_top" xlink:title=" ">
<polygon fill="none" stroke="black" points="205.14,-112.5 205.14,-131.5 295.14,-131.5 295.14,-112.5 205.14,-112.5"/>
<text text-anchor="middle" x="250.14" y="-119.5" font-family="Helvetica,sans-Serif" font-size="10.00">GeigerSensor.h</text>
</a>
</g>
</g>
<!-- Node1&#45;&gt;Node12 -->
<g id="edge17" class="edge">
<title>Node1&#45;&gt;Node12</title>
<path fill="none" stroke="midnightblue" d="M492.97,-170.86C446.89,-161.78 359.96,-144.64 303.57,-133.53"/>
<polygon fill="midnightblue" stroke="midnightblue" points="303.91,-130.03 293.42,-131.53 302.55,-136.9 303.91,-130.03"/>
</g>
<!-- Node13 -->
<g id="node13" class="node">
<title>Node13</title>
<g id="a_node13"><a xlink:href="INA260Sensor_8h.html" target="_top" xlink:title=" ">
<polygon fill="none" stroke="black" points="679.64,-112.5 679.64,-131.5 772.64,-131.5 772.64,-112.5 679.64,-112.5"/>
<text text-anchor="middle" x="726.14" y="-119.5" font-family="Helvetica,sans-Serif" font-size="10.00">INA260Sensor.h</text>
</a>
</g>
</g>
<!-- Node1&#45;&gt;Node13 -->
<g id="edge20" class="edge">
<title>Node1&#45;&gt;Node13</title>
<path fill="none" stroke="midnightblue" d="M555.26,-168.68C589.9,-159.42 646.06,-144.41 684.47,-134.14"/>
<polygon fill="midnightblue" stroke="midnightblue" points="685.56,-137.47 694.32,-131.51 683.75,-130.71 685.56,-137.47"/>
</g>
<!-- Node15 -->
<g id="node15" class="node">
<title>Node15</title>
<g id="a_node15"><a xlink:href="LSM9DS1Sensor_8h.html" target="_top" xlink:title=" ">
<polygon fill="none" stroke="black" points="791.14,-112.5 791.14,-131.5 895.14,-131.5 895.14,-112.5 791.14,-112.5"/>
<text text-anchor="middle" x="843.14" y="-119.5" font-family="Helvetica,sans-Serif" font-size="10.00">LSM9DS1Sensor.h</text>
</a>
</g>
</g>
<!-- Node1&#45;&gt;Node15 -->
<g id="edge25" class="edge">
<title>Node1&#45;&gt;Node15</title>
<path fill="none" stroke="midnightblue" d="M555.31,-171.72C607.87,-162.83 715.03,-144.69 782.73,-133.23"/>
<polygon fill="midnightblue" stroke="midnightblue" points="783.56,-136.64 792.83,-131.52 782.39,-129.73 783.56,-136.64"/>
</g>
<!-- Node17 -->
<g id="node17" class="node">
<title>Node17</title>
<g id="a_node17"><a xlink:href="SHT31Sensor_8h.html" target="_top" xlink:title=" ">
<polygon fill="none" stroke="black" points="949.64,-112.5 949.64,-131.5 1038.64,-131.5 1038.64,-112.5 949.64,-112.5"/>
<text text-anchor="middle" x="994.14" y="-119.5" font-family="Helvetica,sans-Serif" font-size="10.00">SHT31Sensor.h</text>
</a>
</g>
</g>
<!-- Node1&#45;&gt;Node17 -->
<g id="edge29" class="edge">
<title>Node1&#45;&gt;Node17</title>
<path fill="none" stroke="midnightblue" d="M555.34,-173.42C633.85,-164.39 840.39,-140.66 939.52,-129.27"/>
<polygon fill="midnightblue" stroke="midnightblue" points="940.1,-132.73 949.63,-128.11 939.3,-125.78 940.1,-132.73"/>
</g>
<!-- Node19 -->
<g id="node19" class="node">
<title>Node19</title>
<g id="a_node19"><a xlink:href="TempSensor_8h.html" target="_top" xlink:title=" ">
<polygon fill="none" stroke="black" points="429.14,-112.5 429.14,-131.5 513.14,-131.5 513.14,-112.5 429.14,-112.5"/>
<text text-anchor="middle" x="471.14" y="-119.5" font-family="Helvetica,sans-Serif" font-size="10.00">TempSensor.h</text>
</a>
</g>
</g>
<!-- Node1&#45;&gt;Node19 -->
<g id="edge35" class="edge">
<title>Node1&#45;&gt;Node19</title>
<path fill="none" stroke="midnightblue" d="M515.39,-168.08C507.67,-160.22 496.23,-148.57 486.92,-139.08"/>
<polygon fill="midnightblue" stroke="midnightblue" points="489.23,-136.44 479.73,-131.75 484.23,-141.34 489.23,-136.44"/>
</g>
<!-- Node20 -->
<g id="node20" class="node">
<title>Node20</title>
<g id="a_node20"><a xlink:href="ZOPT220Sensor_8h.html" target="_top" xlink:title=" ">
<polygon fill="none" stroke="black" points="1115.14,-112.5 1115.14,-131.5 1217.14,-131.5 1217.14,-112.5 1115.14,-112.5"/>
<text text-anchor="middle" x="1166.14" y="-119.5" font-family="Helvetica,sans-Serif" font-size="10.00">ZOPT220Sensor.h</text>
</a>
</g>
</g>
<!-- Node1&#45;&gt;Node20 -->
<g id="edge37" class="edge">
<title>Node1&#45;&gt;Node20</title>
<path fill="none" stroke="midnightblue" d="M555.54,-174.36C656.01,-165.91 970.86,-139.43 1104.82,-128.16"/>
<polygon fill="midnightblue" stroke="midnightblue" points="1105.25,-131.63 1114.92,-127.31 1104.66,-124.66 1105.25,-131.63"/>
</g>
<!-- Node23 -->
<g id="node23" class="node">
<title>Node23</title>
<g id="a_node23"><a xlink:href="SDStorage_8h.html" target="_top" xlink:title=" ">
<polygon fill="none" stroke="black" points="68.64,-112.5 68.64,-131.5 145.64,-131.5 145.64,-112.5 68.64,-112.5"/>
<text text-anchor="middle" x="107.14" y="-119.5" font-family="Helvetica,sans-Serif" font-size="10.00">SDStorage.h</text>
</a>
</g>
</g>
<!-- Node1&#45;&gt;Node23 -->
<g id="edge46" class="edge">
<title>Node1&#45;&gt;Node23</title>
<path fill="none" stroke="midnightblue" d="M493.09,-173.55C430.43,-166.49 284.37,-149.59 162.14,-132 160.08,-131.7 157.98,-131.39 155.86,-131.07"/>
<polygon fill="midnightblue" stroke="midnightblue" points="156.29,-127.6 145.87,-129.53 155.22,-134.52 156.29,-127.6"/>
</g>
<!-- Node3&#45;&gt;Node2 -->
<g id="edge3" class="edge">
<title>Node3&#45;&gt;Node2</title>
<path fill="none" stroke="midnightblue" d="M608.14,-56.08C608.14,-49.01 608.14,-38.86 608.14,-29.99"/>
<polygon fill="midnightblue" stroke="midnightblue" points="611.64,-29.75 608.14,-19.75 604.64,-29.75 611.64,-29.75"/>
</g>
<!-- Node4&#45;&gt;Node2 -->
<g id="edge5" class="edge">
<title>Node4&#45;&gt;Node2</title>
<path fill="none" stroke="midnightblue" d="M138.74,-58.41C143.55,-57.52 148.47,-56.69 153.14,-56 304.59,-33.75 486.05,-19.48 566.38,-13.8"/>
<polygon fill="midnightblue" stroke="midnightblue" points="566.84,-17.28 576.57,-13.09 566.35,-10.3 566.84,-17.28"/>
</g>
<!-- Node5&#45;&gt;Node2 -->
<g id="edge7" class="edge">
<title>Node5&#45;&gt;Node2</title>
<path fill="none" stroke="midnightblue" d="M573.8,-112.29C569.43,-99.53 563.12,-75.19 570.14,-56 574.2,-44.91 582.33,-34.67 590.03,-26.76"/>
<polygon fill="midnightblue" stroke="midnightblue" points="592.61,-29.14 597.42,-19.7 587.78,-24.07 592.61,-29.14"/>
</g>
<!-- Node5&#45;&gt;Node3 -->
<g id="edge9" class="edge">
<title>Node5&#45;&gt;Node3</title>
<path fill="none" stroke="midnightblue" d="M582.26,-112.08C586.55,-104.61 592.8,-93.72 598.08,-84.52"/>
<polygon fill="midnightblue" stroke="midnightblue" points="601.17,-86.17 603.11,-75.75 595.1,-82.68 601.17,-86.17"/>
</g>
<!-- Node6 -->
<g id="node6" class="node">
<title>Node6</title>
<g id="a_node6"><a xlink:title=" ">
<polygon fill="none" stroke="#bfbfbf" points="816.64,-56.5 816.64,-75.5 869.64,-75.5 869.64,-56.5 816.64,-56.5"/>
<text text-anchor="middle" x="843.14" y="-63.5" font-family="Helvetica,sans-Serif" font-size="10.00">string.h</text>
</a>
</g>
</g>
<!-- Node5&#45;&gt;Node6 -->
<g id="edge8" class="edge">
<title>Node5&#45;&gt;Node6</title>
<path fill="none" stroke="midnightblue" d="M623.33,-112.84C667.89,-104.77 737.47,-91.69 806.28,-76.33"/>
<polygon fill="midnightblue" stroke="midnightblue" points="807.44,-79.65 816.43,-74.04 805.9,-72.82 807.44,-79.65"/>
</g>
<!-- Node7&#45;&gt;Node3 -->
<g id="edge16" class="edge">
<title>Node7&#45;&gt;Node3</title>
<path fill="none" stroke="midnightblue" d="M401.12,-112.44C447.09,-102.35 523.06,-85.68 569.07,-75.58"/>
<polygon fill="midnightblue" stroke="midnightblue" points="569.95,-78.97 578.97,-73.4 568.45,-72.13 569.95,-78.97"/>
</g>
<!-- Node7&#45;&gt;Node6 -->
<g id="edge15" class="edge">
<title>Node7&#45;&gt;Node6</title>
<path fill="none" stroke="midnightblue" d="M411.16,-113.18C414.19,-112.76 417.21,-112.36 420.14,-112 588.74,-91.12 635.73,-105.1 806.4,-76.06"/>
<polygon fill="midnightblue" stroke="midnightblue" points="807.22,-79.47 816.48,-74.32 806.03,-72.57 807.22,-79.47"/>
</g>
<!-- Node8 -->
<g id="node8" class="node">
<title>Node8</title>
<g id="a_node8"><a xlink:title=" ">
<polygon fill="none" stroke="#bfbfbf" points="293.14,-56.5 293.14,-75.5 403.14,-75.5 403.14,-56.5 293.14,-56.5"/>
<text text-anchor="middle" x="348.14" y="-63.5" font-family="Helvetica,sans-Serif" font-size="10.00">Adafruit_BME680.h</text>
</a>
</g>
</g>
<!-- Node7&#45;&gt;Node8 -->
<g id="edge11" class="edge">
<title>Node7&#45;&gt;Node8</title>
<path fill="none" stroke="midnightblue" d="M359.83,-112.08C357.97,-104.93 355.3,-94.64 352.98,-85.69"/>
<polygon fill="midnightblue" stroke="midnightblue" points="356.31,-84.55 350.41,-75.75 349.53,-86.31 356.31,-84.55"/>
</g>
<!-- Node9 -->
<g id="node9" class="node">
<title>Node9</title>
<g id="a_node9"><a xlink:title=" ">
<polygon fill="none" stroke="#bfbfbf" points="421.14,-56.5 421.14,-75.5 523.14,-75.5 523.14,-56.5 421.14,-56.5"/>
<text text-anchor="middle" x="472.14" y="-63.5" font-family="Helvetica,sans-Serif" font-size="10.00">Adafruit_Sensor.h</text>
</a>
</g>
</g>
<!-- Node7&#45;&gt;Node9 -->
<g id="edge12" class="edge">
<title>Node7&#45;&gt;Node9</title>
<path fill="none" stroke="midnightblue" d="M379.81,-112.32C397.53,-103.62 425.04,-90.12 445.43,-80.11"/>
<polygon fill="midnightblue" stroke="midnightblue" points="447.07,-83.2 454.51,-75.65 443.99,-76.92 447.07,-83.2"/>
</g>
<!-- Node10 -->
<g id="node10" class="node">
<title>Node10</title>
<g id="a_node10"><a xlink:title=" ">
<polygon fill="none" stroke="#bfbfbf" points="195.64,-56.5 195.64,-75.5 236.64,-75.5 236.64,-56.5 195.64,-56.5"/>
<text text-anchor="middle" x="216.14" y="-63.5" font-family="Helvetica,sans-Serif" font-size="10.00">SPI.h</text>
</a>
</g>
</g>
<!-- Node7&#45;&gt;Node10 -->
<g id="edge13" class="edge">
<title>Node7&#45;&gt;Node10</title>
<path fill="none" stroke="midnightblue" d="M339,-112.44C313.94,-103.17 273.85,-88.35 246.33,-78.17"/>
<polygon fill="midnightblue" stroke="midnightblue" points="247.4,-74.83 236.8,-74.64 244.97,-81.4 247.4,-74.83"/>
</g>
<!-- Node11 -->
<g id="node11" class="node">
<title>Node11</title>
<g id="a_node11"><a xlink:title=" ">
<polygon fill="none" stroke="#bfbfbf" points="1142.14,-0.5 1142.14,-19.5 1190.14,-19.5 1190.14,-0.5 1142.14,-0.5"/>
<text text-anchor="middle" x="1166.14" y="-7.5" font-family="Helvetica,sans-Serif" font-size="10.00">Wire.h</text>
</a>
</g>
</g>
<!-- Node7&#45;&gt;Node11 -->
<g id="edge14" class="edge">
<title>Node7&#45;&gt;Node11</title>
<path fill="none" stroke="midnightblue" d="M337.53,-112.41C307.39,-100.65 262.83,-78.43 284.14,-56 313.85,-24.73 973.12,-13.66 1131.94,-11.44"/>
<polygon fill="midnightblue" stroke="midnightblue" points="1132.13,-14.94 1142.09,-11.3 1132.04,-7.94 1132.13,-14.94"/>
</g>
<!-- Node12&#45;&gt;Node2 -->
<g id="edge18" class="edge">
<title>Node12&#45;&gt;Node2</title>
<path fill="none" stroke="midnightblue" d="M230.95,-112.37C206.2,-100.1 168.44,-76.8 187.14,-56 212.2,-28.11 464.73,-16.09 566.23,-12.36"/>
<polygon fill="midnightblue" stroke="midnightblue" points="566.55,-15.85 576.42,-12 566.3,-8.86 566.55,-15.85"/>
</g>
<!-- Node12&#45;&gt;Node3 -->
<g id="edge19" class="edge">
<title>Node12&#45;&gt;Node3</title>
<path fill="none" stroke="midnightblue" d="M295.21,-113.43C298.23,-112.94 301.23,-112.46 304.14,-112 398.91,-97.09 510.52,-80.92 568.57,-72.62"/>
<polygon fill="midnightblue" stroke="midnightblue" points="569.36,-76.05 578.77,-71.17 568.37,-69.12 569.36,-76.05"/>
</g>
<!-- Node13&#45;&gt;Node2 -->
<g id="edge21" class="edge">
<title>Node13&#45;&gt;Node2</title>
<path fill="none" stroke="midnightblue" d="M716.88,-112.37C696.98,-93.81 649.88,-49.91 624.7,-26.44"/>
<polygon fill="midnightblue" stroke="midnightblue" points="627.06,-23.85 617.35,-19.59 622.28,-28.97 627.06,-23.85"/>
</g>
<!-- Node13&#45;&gt;Node3 -->
<g id="edge24" class="edge">
<title>Node13&#45;&gt;Node3</title>
<path fill="none" stroke="midnightblue" d="M707.44,-112.44C688.19,-103.64 657.99,-89.81 635.94,-79.72"/>
<polygon fill="midnightblue" stroke="midnightblue" points="637.3,-76.5 626.75,-75.52 634.39,-82.86 637.3,-76.5"/>
</g>
<!-- Node13&#45;&gt;Node6 -->
<g id="edge22" class="edge">
<title>Node13&#45;&gt;Node6</title>
<path fill="none" stroke="midnightblue" d="M744.68,-112.44C763.76,-103.64 793.71,-89.81 815.57,-79.72"/>
<polygon fill="midnightblue" stroke="midnightblue" points="817.07,-82.88 824.69,-75.52 814.14,-76.53 817.07,-82.88"/>
</g>
<!-- Node14 -->
<g id="node14" class="node">
<title>Node14</title>
<g id="a_node14"><a xlink:title=" ">
<polygon fill="none" stroke="#bfbfbf" points="693.64,-56.5 693.64,-75.5 798.64,-75.5 798.64,-56.5 693.64,-56.5"/>
<text text-anchor="middle" x="746.14" y="-63.5" font-family="Helvetica,sans-Serif" font-size="10.00">Adafruit_INA260.h</text>
</a>
</g>
</g>
<!-- Node13&#45;&gt;Node14 -->
<g id="edge23" class="edge">
<title>Node13&#45;&gt;Node14</title>
<path fill="none" stroke="midnightblue" d="M729.44,-112.08C732.12,-104.85 735.99,-94.41 739.33,-85.4"/>
<polygon fill="midnightblue" stroke="midnightblue" points="742.71,-86.34 742.9,-75.75 736.14,-83.91 742.71,-86.34"/>
</g>
<!-- Node15&#45;&gt;Node3 -->
<g id="edge28" class="edge">
<title>Node15&#45;&gt;Node3</title>
<path fill="none" stroke="midnightblue" d="M805.9,-112.44C762.56,-102.48 691.3,-86.11 647.19,-75.97"/>
<polygon fill="midnightblue" stroke="midnightblue" points="647.94,-72.55 637.41,-73.73 646.37,-79.38 647.94,-72.55"/>
</g>
<!-- Node15&#45;&gt;Node6 -->
<g id="edge27" class="edge">
<title>Node15&#45;&gt;Node6</title>
<path fill="none" stroke="midnightblue" d="M843.14,-112.08C843.14,-105.01 843.14,-94.86 843.14,-85.99"/>
<polygon fill="midnightblue" stroke="midnightblue" points="846.64,-85.75 843.14,-75.75 839.64,-85.75 846.64,-85.75"/>
</g>
<!-- Node16 -->
<g id="node16" class="node">
<title>Node16</title>
<g id="a_node16"><a xlink:title=" ">
<polygon fill="none" stroke="#bfbfbf" points="888.14,-56.5 888.14,-75.5 1002.14,-75.5 1002.14,-56.5 888.14,-56.5"/>
<text text-anchor="middle" x="945.14" y="-63.5" font-family="Helvetica,sans-Serif" font-size="10.00">Arduino_LSM9DS1.h</text>
</a>
</g>
</g>
<!-- Node15&#45;&gt;Node16 -->
<g id="edge26" class="edge">
<title>Node15&#45;&gt;Node16</title>
<path fill="none" stroke="midnightblue" d="M859.53,-112.32C875.81,-103.7 901.01,-90.36 919.85,-80.39"/>
<polygon fill="midnightblue" stroke="midnightblue" points="921.59,-83.43 928.79,-75.65 918.32,-77.24 921.59,-83.43"/>
</g>
<!-- Node17&#45;&gt;Node2 -->
<g id="edge30" class="edge">
<title>Node17&#45;&gt;Node2</title>
<path fill="none" stroke="midnightblue" d="M1000.81,-112.26C1010.41,-98.58 1025.45,-72 1011.14,-56 987.33,-29.39 748.2,-16.7 649.95,-12.57"/>
<polygon fill="midnightblue" stroke="midnightblue" points="649.92,-9.07 639.79,-12.16 649.64,-16.06 649.92,-9.07"/>
</g>
<!-- Node17&#45;&gt;Node3 -->
<g id="edge34" class="edge">
<title>Node17&#45;&gt;Node3</title>
<path fill="none" stroke="midnightblue" d="M949.48,-114.75C873.44,-104.12 720.05,-82.66 647.66,-72.53"/>
<polygon fill="midnightblue" stroke="midnightblue" points="647.98,-69.04 637.59,-71.12 647.01,-75.97 647.98,-69.04"/>
</g>
<!-- Node17&#45;&gt;Node6 -->
<g id="edge32" class="edge">
<title>Node17&#45;&gt;Node6</title>
<path fill="none" stroke="midnightblue" d="M970.21,-112.44C944.92,-103.4 904.84,-89.06 876.46,-78.92"/>
<polygon fill="midnightblue" stroke="midnightblue" points="877.55,-75.59 866.95,-75.52 875.19,-82.18 877.55,-75.59"/>
</g>
<!-- Node17&#45;&gt;Node11 -->
<g id="edge31" class="edge">
<title>Node17&#45;&gt;Node11</title>
<path fill="none" stroke="midnightblue" d="M1005.8,-112.48C1023.37,-99.74 1057.79,-75.2 1088.14,-56 1105.64,-44.92 1125.92,-33.26 1141.42,-24.58"/>
<polygon fill="midnightblue" stroke="midnightblue" points="1143.34,-27.52 1150.38,-19.6 1139.94,-21.4 1143.34,-27.52"/>
</g>
<!-- Node18 -->
<g id="node18" class="node">
<title>Node18</title>
<g id="a_node18"><a xlink:title=" ">
<polygon fill="none" stroke="#bfbfbf" points="1096.64,-56.5 1096.64,-75.5 1197.64,-75.5 1197.64,-56.5 1096.64,-56.5"/>
<text text-anchor="middle" x="1147.14" y="-63.5" font-family="Helvetica,sans-Serif" font-size="10.00">Adafruit_SHT31.h</text>
</a>
</g>
</g>
<!-- Node17&#45;&gt;Node18 -->
<g id="edge33" class="edge">
<title>Node17&#45;&gt;Node18</title>
<path fill="none" stroke="midnightblue" d="M1018.38,-112.44C1044.01,-103.4 1084.62,-89.06 1113.38,-78.92"/>
<polygon fill="midnightblue" stroke="midnightblue" points="1114.74,-82.15 1123.01,-75.52 1112.41,-75.54 1114.74,-82.15"/>
</g>
<!-- Node19&#45;&gt;Node3 -->
<g id="edge36" class="edge">
<title>Node19&#45;&gt;Node3</title>
<path fill="none" stroke="midnightblue" d="M492.85,-112.44C515.49,-103.52 551.21,-89.44 576.89,-79.32"/>
<polygon fill="midnightblue" stroke="midnightblue" points="578.51,-82.44 586.53,-75.52 575.95,-75.93 578.51,-82.44"/>
</g>
<!-- Node20&#45;&gt;Node2 -->
<g id="edge38" class="edge">
<title>Node20&#45;&gt;Node2</title>
<path fill="none" stroke="midnightblue" d="M1178.58,-112.31C1195.96,-99.14 1223.65,-73.8 1207.14,-56 1169.41,-15.33 780.62,-11.18 650.39,-10.94"/>
<polygon fill="midnightblue" stroke="midnightblue" points="650.04,-7.44 640.03,-10.93 650.03,-14.44 650.04,-7.44"/>
</g>
<!-- Node20&#45;&gt;Node3 -->
<g id="edge41" class="edge">
<title>Node20&#45;&gt;Node3</title>
<path fill="none" stroke="midnightblue" d="M1114.85,-116.59C1026.86,-108.95 841.53,-92.45 685.14,-76 672.92,-74.71 659.63,-73.2 647.58,-71.79"/>
<polygon fill="midnightblue" stroke="midnightblue" points="647.71,-68.28 637.37,-70.58 646.89,-75.23 647.71,-68.28"/>
</g>
<!-- Node20&#45;&gt;Node6 -->
<g id="edge40" class="edge">
<title>Node20&#45;&gt;Node6</title>
<path fill="none" stroke="midnightblue" d="M1115.09,-114.4C1059.59,-106.91 968.1,-93.66 879.74,-75.96"/>
<polygon fill="midnightblue" stroke="midnightblue" points="880.31,-72.51 869.81,-73.95 878.92,-79.37 880.31,-72.51"/>
</g>
<!-- Node20&#45;&gt;Node11 -->
<g id="edge39" class="edge">
<title>Node20&#45;&gt;Node11</title>
<path fill="none" stroke="midnightblue" d="M1190.88,-112.31C1217.52,-101.45 1254.3,-81.19 1240.14,-56 1231.35,-40.37 1214.69,-29.54 1199.4,-22.42"/>
<polygon fill="midnightblue" stroke="midnightblue" points="1200.71,-19.18 1190.14,-18.47 1197.96,-25.61 1200.71,-19.18"/>
</g>
<!-- Node21 -->
<g id="node21" class="node">
<title>Node21</title>
<g id="a_node21"><a xlink:href="ZOPT220x__Control_8h.html" target="_top" xlink:title=" ">
<polygon fill="none" stroke="black" points="1292.14,-56.5 1292.14,-75.5 1408.14,-75.5 1408.14,-56.5 1292.14,-56.5"/>
<text text-anchor="middle" x="1350.14" y="-63.5" font-family="Helvetica,sans-Serif" font-size="10.00">ZOPT220x_Control.h</text>
</a>
</g>
</g>
<!-- Node20&#45;&gt;Node21 -->
<g id="edge42" class="edge">
<title>Node20&#45;&gt;Node21</title>
<path fill="none" stroke="midnightblue" d="M1195.29,-112.44C1226.65,-103.24 1276.67,-88.56 1311.34,-78.39"/>
<polygon fill="midnightblue" stroke="midnightblue" points="1312.51,-81.69 1321.12,-75.52 1310.54,-74.97 1312.51,-81.69"/>
</g>
<!-- Node21&#45;&gt;Node2 -->
<g id="edge43" class="edge">
<title>Node21&#45;&gt;Node2</title>
<path fill="none" stroke="midnightblue" d="M1291.92,-60.12C1275.2,-58.75 1256.95,-57.29 1240.14,-56 1017.68,-38.98 751.01,-20.68 649.82,-13.82"/>
<polygon fill="midnightblue" stroke="midnightblue" points="649.93,-10.31 639.71,-13.13 649.45,-17.3 649.93,-10.31"/>
</g>
<!-- Node21&#45;&gt;Node11 -->
<g id="edge44" class="edge">
<title>Node21&#45;&gt;Node11</title>
<path fill="none" stroke="midnightblue" d="M1320.98,-56.44C1288.06,-46.78 1234.56,-31.08 1199.86,-20.9"/>
<polygon fill="midnightblue" stroke="midnightblue" points="1200.75,-17.51 1190.17,-18.05 1198.78,-24.23 1200.75,-17.51"/>
</g>
<!-- Node22 -->
<g id="node22" class="node">
<title>Node22</title>
<g id="a_node22"><a xlink:title=" ">
<polygon fill="none" stroke="#bfbfbf" points="1323.64,-0.5 1323.64,-19.5 1376.64,-19.5 1376.64,-0.5 1323.64,-0.5"/>
<text text-anchor="middle" x="1350.14" y="-7.5" font-family="Helvetica,sans-Serif" font-size="10.00">stdint.h</text>
</a>
</g>
</g>
<!-- Node21&#45;&gt;Node22 -->
<g id="edge45" class="edge">
<title>Node21&#45;&gt;Node22</title>
<path fill="none" stroke="midnightblue" d="M1350.14,-56.08C1350.14,-49.01 1350.14,-38.86 1350.14,-29.99"/>
<polygon fill="midnightblue" stroke="midnightblue" points="1353.64,-29.75 1350.14,-19.75 1346.64,-29.75 1353.64,-29.75"/>
</g>
<!-- Node23&#45;&gt;Node4 -->
<g id="edge48" class="edge">
<title>Node23&#45;&gt;Node4</title>
<path fill="none" stroke="midnightblue" d="M107.14,-112.08C107.14,-105.01 107.14,-94.86 107.14,-85.99"/>
<polygon fill="midnightblue" stroke="midnightblue" points="110.64,-85.75 107.14,-75.75 103.64,-85.75 110.64,-85.75"/>
</g>
<!-- Node24 -->
<g id="node24" class="node">
<title>Node24</title>
<g id="a_node24"><a xlink:title=" ">
<polygon fill="none" stroke="#bfbfbf" points="18.64,-56.5 18.64,-75.5 57.64,-75.5 57.64,-56.5 18.64,-56.5"/>
<text text-anchor="middle" x="38.14" y="-63.5" font-family="Helvetica,sans-Serif" font-size="10.00">SD.h</text>
</a>
</g>
</g>
<!-- Node23&#45;&gt;Node24 -->
<g id="edge47" class="edge">
<title>Node23&#45;&gt;Node24</title>
<path fill="none" stroke="midnightblue" d="M96.05,-112.32C85.65,-104.18 69.88,-91.84 57.42,-82.09"/>
<polygon fill="midnightblue" stroke="midnightblue" points="59.46,-79.24 49.43,-75.83 55.14,-84.75 59.46,-79.24"/>
</g>
</g>
</svg>
