<?xml version="1.0" encoding="UTF-8" standalone="no"?>
<!DOCTYPE svg PUBLIC "-//W3C//DTD SVG 1.1//EN"
 "http://www.w3.org/Graphics/SVG/1.1/DTD/svg11.dtd">
<!-- Generated by graphviz version 2.43.0 (0)
 -->
<!-- Title: /home/runner/work/Fall&#45;2024/Fall&#45;2024/ascendfsw/src/main.cpp Pages: 1 -->
<svg width="257pt" height="218pt"
 viewBox="0.00 0.00 256.50 218.00" xmlns="http://www.w3.org/2000/svg" xmlns:xlink="http://www.w3.org/1999/xlink">
<g id="graph0" class="graph" transform="scale(1 1) rotate(0) translate(4 214)">
<title>/home/runner/work/Fall&#45;2024/Fall&#45;2024/ascendfsw/src/main.cpp</title>
<!-- Node1 -->
<g id="node1" class="node">
<title>Node1</title>
<g id="a_node1"><a xlink:title=" ">
<polygon fill="#bfbfbf" stroke="black" points="0,-168.5 0,-209.5 146,-209.5 146,-168.5 0,-168.5"/>
<text text-anchor="start" x="8" y="-197.5" font-family="Helvetica,sans-Serif" font-size="10.00">/home/runner/work/Fall</text>
<text text-anchor="start" x="8" y="-186.5" font-family="Helvetica,sans-Serif" font-size="10.00">&#45;2024/Fall&#45;2024/ascendfsw</text>
<text text-anchor="middle" x="73" y="-175.5" font-family="Helvetica,sans-Serif" font-size="10.00">/src/main.cpp</text>
</a>
</g>
</g>
<!-- Node2 -->
<g id="node2" class="node">
<title>Node2</title>
<g id="a_node2"><a xlink:title=" ">
<polygon fill="none" stroke="#bfbfbf" points="10.5,-0.5 10.5,-19.5 73.5,-19.5 73.5,-0.5 10.5,-0.5"/>
<text text-anchor="middle" x="42" y="-7.5" font-family="Helvetica,sans-Serif" font-size="10.00">Arduino.h</text>
</a>
</g>
</g>
<!-- Node1&#45;&gt;Node2 -->
<g id="edge1" class="edge">
<title>Node1&#45;&gt;Node2</title>
<path fill="none" stroke="midnightblue" d="M47.17,-168.47C35.97,-158.7 23.69,-145.98 16,-132 3.74,-109.69 6.68,-101.31 4,-76 3.06,-67.16 0.95,-64.35 4,-56 8.06,-44.91 16.19,-34.67 23.89,-26.76"/>
<polygon fill="midnightblue" stroke="midnightblue" points="26.47,-29.14 31.29,-19.7 21.64,-24.07 26.47,-29.14"/>
</g>
<!-- Node3 -->
<g id="node3" class="node">
<title>Node3</title>
<g id="a_node3"><a xlink:href="Sensor_8h.html" target="_top" xlink:title=" ">
<polygon fill="none" stroke="black" points="13,-56.5 13,-75.5 71,-75.5 71,-56.5 13,-56.5"/>
<text text-anchor="middle" x="42" y="-63.5" font-family="Helvetica,sans-Serif" font-size="10.00">Sensor.h</text>
</a>
</g>
</g>
<!-- Node1&#45;&gt;Node3 -->
<g id="edge2" class="edge">
<title>Node1&#45;&gt;Node3</title>
<path fill="none" stroke="midnightblue" d="M48.33,-168.33C38.12,-158.61 27.41,-145.98 22,-132 15.83,-116.05 23.04,-97.34 30.47,-84.1"/>
<polygon fill="midnightblue" stroke="midnightblue" points="33.48,-85.9 35.73,-75.54 27.51,-82.23 33.48,-85.9"/>
</g>
<!-- Node4 -->
<g id="node4" class="node">
<title>Node4</title>
<g id="a_node4"><a xlink:href="Storage_8h.html" target="_top" xlink:title=" ">
<polygon fill="none" stroke="black" points="110.5,-56.5 110.5,-75.5 173.5,-75.5 173.5,-56.5 110.5,-56.5"/>
<text text-anchor="middle" x="142" y="-63.5" font-family="Helvetica,sans-Serif" font-size="10.00">Storage.h</text>
</a>
</g>
</g>
<!-- Node1&#45;&gt;Node4 -->
<g id="edge4" class="edge">
<title>Node1&#45;&gt;Node4</title>
<path fill="none" stroke="midnightblue" d="M95.2,-168.31C105.27,-158.32 116.56,-145.47 124,-132 131.96,-117.58 136.6,-99.39 139.18,-85.92"/>
<polygon fill="midnightblue" stroke="midnightblue" points="142.65,-86.35 140.88,-75.91 135.75,-85.18 142.65,-86.35"/>
</g>
<!-- Node5 -->
<g id="node5" class="node">
<title>Node5</title>
<g id="a_node5"><a xlink:href="TempSensor_8h.html" target="_top" xlink:title=" ">
<polygon fill="none" stroke="black" points="31,-112.5 31,-131.5 115,-131.5 115,-112.5 31,-112.5"/>
<text text-anchor="middle" x="73" y="-119.5" font-family="Helvetica,sans-Serif" font-size="10.00">TempSensor.h</text>
</a>
</g>
</g>
<!-- Node1&#45;&gt;Node5 -->
<g id="edge6" class="edge">
<title>Node1&#45;&gt;Node5</title>
<path fill="none" stroke="midnightblue" d="M73,-168.5C73,-160.07 73,-150.24 73,-141.87"/>
<polygon fill="midnightblue" stroke="midnightblue" points="76.5,-141.65 73,-131.65 69.5,-141.65 76.5,-141.65"/>
</g>
<!-- Node6 -->
<g id="node6" class="node">
<title>Node6</title>
<g id="a_node6"><a xlink:href="SDStorage_8h.html" target="_top" xlink:title=" ">
<polygon fill="none" stroke="black" points="171.5,-112.5 171.5,-131.5 248.5,-131.5 248.5,-112.5 171.5,-112.5"/>
<text text-anchor="middle" x="210" y="-119.5" font-family="Helvetica,sans-Serif" font-size="10.00">SDStorage.h</text>
</a>
</g>
</g>
<!-- Node1&#45;&gt;Node6 -->
<g id="edge8" class="edge">
<title>Node1&#45;&gt;Node6</title>
<path fill="none" stroke="midnightblue" d="M114.1,-168.5C136.22,-158.01 162.9,-145.35 182.49,-136.05"/>
<polygon fill="midnightblue" stroke="midnightblue" points="184.23,-139.1 191.76,-131.65 181.23,-132.78 184.23,-139.1"/>
</g>
<!-- Node3&#45;&gt;Node2 -->
<g id="edge3" class="edge">
<title>Node3&#45;&gt;Node2</title>
<path fill="none" stroke="midnightblue" d="M42,-56.08C42,-49.01 42,-38.86 42,-29.99"/>
<polygon fill="midnightblue" stroke="midnightblue" points="45.5,-29.75 42,-19.75 38.5,-29.75 45.5,-29.75"/>
</g>
<!-- Node4&#45;&gt;Node2 -->
<g id="edge5" class="edge">
<title>Node4&#45;&gt;Node2</title>
<path fill="none" stroke="midnightblue" d="M125.93,-56.32C110.04,-47.74 85.49,-34.49 67.04,-24.52"/>
<polygon fill="midnightblue" stroke="midnightblue" points="68.49,-21.33 58.03,-19.65 65.16,-27.49 68.49,-21.33"/>
</g>
<!-- Node5&#45;&gt;Node3 -->
<g id="edge7" class="edge">
<title>Node5&#45;&gt;Node3</title>
<path fill="none" stroke="midnightblue" d="M67.88,-112.08C63.59,-104.61 57.34,-93.72 52.06,-84.52"/>
<polygon fill="midnightblue" stroke="midnightblue" points="55.04,-82.68 47.02,-75.75 48.97,-86.17 55.04,-82.68"/>
</g>
<!-- Node6&#45;&gt;Node4 -->
<g id="edge10" class="edge">
<title>Node6&#45;&gt;Node4</title>
<path fill="none" stroke="midnightblue" d="M199.07,-112.32C188.83,-104.18 173.28,-91.84 161,-82.09"/>
<polygon fill="midnightblue" stroke="midnightblue" points="163.13,-79.31 153.12,-75.83 158.78,-84.79 163.13,-79.31"/>
</g>
<!-- Node7 -->
<g id="node7" class="node">
<title>Node7</title>
<g id="a_node7"><a xlink:title=" ">
<polygon fill="none" stroke="#bfbfbf" points="191.5,-56.5 191.5,-75.5 230.5,-75.5 230.5,-56.5 191.5,-56.5"/>
<text text-anchor="middle" x="211" y="-63.5" font-family="Helvetica,sans-Serif" font-size="10.00">SD.h</text>
</a>
</g>
</g>
<!-- Node6&#45;&gt;Node7 -->
<g id="edge9" class="edge">
<title>Node6&#45;&gt;Node7</title>
<path fill="none" stroke="midnightblue" d="M210.17,-112.08C210.3,-105.01 210.48,-94.86 210.65,-85.99"/>
<polygon fill="midnightblue" stroke="midnightblue" points="214.15,-85.81 210.84,-75.75 207.15,-85.68 214.15,-85.81"/>
</g>
</g>
</svg>
