<?xml version="1.0" encoding="UTF-8" standalone="no"?>
<!DOCTYPE svg PUBLIC "-//W3C//DTD SVG 1.1//EN"
 "http://www.w3.org/Graphics/SVG/1.1/DTD/svg11.dtd">
<!-- Generated by graphviz version 2.43.0 (0)
 -->
<!-- Title: main.cpp Pages: 1 -->
<svg width="2100pt" height="196pt"
 viewBox="0.00 0.00 2100.44 196.00" xmlns="http://www.w3.org/2000/svg" xmlns:xlink="http://www.w3.org/1999/xlink">
<g id="graph0" class="graph" transform="scale(1 1) rotate(0) translate(4 192)">
<title>main.cpp</title>
<!-- Node1 -->
<g id="node1" class="node">
<title>Node1</title>
<g id="a_node1"><a xlink:title=" ">
<polygon fill="#bfbfbf" stroke="black" points="1305.49,-168.5 1305.49,-187.5 1367.49,-187.5 1367.49,-168.5 1305.49,-168.5"/>
<text text-anchor="middle" x="1336.49" y="-175.5" font-family="Helvetica,sans-Serif" font-size="10.00">main.cpp</text>
</a>
</g>
</g>
<!-- Node2 -->
<g id="node2" class="node">
<title>Node2</title>
<g id="a_node2"><a xlink:title=" ">
<polygon fill="none" stroke="#bfbfbf" points="1614.99,-0.5 1614.99,-19.5 1677.99,-19.5 1677.99,-0.5 1614.99,-0.5"/>
<text text-anchor="middle" x="1646.49" y="-7.5" font-family="Helvetica,sans-Serif" font-size="10.00">Arduino.h</text>
</a>
</g>
</g>
<!-- Node1&#45;&gt;Node2 -->
<g id="edge1" class="edge">
<title>Node1&#45;&gt;Node2</title>
<path fill="none" stroke="midnightblue" d="M1367.68,-176.29C1505.43,-173 2053.75,-158.28 2078.49,-132 2089.22,-120.6 2103.57,-85 2076.49,-56 2050.28,-27.92 1791.01,-15.97 1688.19,-12.31"/>
<polygon fill="midnightblue" stroke="midnightblue" points="1688.28,-8.81 1678.16,-11.97 1688.04,-15.81 1688.28,-8.81"/>
</g>
<!-- Node3 -->
<g id="node3" class="node">
<title>Node3</title>
<g id="a_node3"><a xlink:href="Sensor_8h.html" target="_top" xlink:title=" ">
<polygon fill="none" stroke="black" points="1194.49,-56.5 1194.49,-75.5 1252.49,-75.5 1252.49,-56.5 1194.49,-56.5"/>
<text text-anchor="middle" x="1223.49" y="-63.5" font-family="Helvetica,sans-Serif" font-size="10.00">Sensor.h</text>
</a>
</g>
</g>
<!-- Node1&#45;&gt;Node3 -->
<g id="edge2" class="edge">
<title>Node1&#45;&gt;Node3</title>
<path fill="none" stroke="midnightblue" d="M1322.62,-168.28C1309.71,-159.83 1290.29,-146.23 1275.49,-132 1260.09,-117.19 1245.13,-97.8 1235.24,-84.06"/>
<polygon fill="midnightblue" stroke="midnightblue" points="1237.89,-81.74 1229.26,-75.58 1232.17,-85.77 1237.89,-81.74"/>
</g>
<!-- Node4 -->
<g id="node4" class="node">
<title>Node4</title>
<g id="a_node4"><a xlink:href="Storage_8h.html" target="_top" xlink:title=" ">
<polygon fill="none" stroke="black" points="1946.99,-56.5 1946.99,-75.5 2009.99,-75.5 2009.99,-56.5 1946.99,-56.5"/>
<text text-anchor="middle" x="1978.49" y="-63.5" font-family="Helvetica,sans-Serif" font-size="10.00">Storage.h</text>
</a>
</g>
</g>
<!-- Node1&#45;&gt;Node4 -->
<g id="edge4" class="edge">
<title>Node1&#45;&gt;Node4</title>
<path fill="none" stroke="midnightblue" d="M1367.83,-176.42C1485.24,-174.03 1894.96,-163.48 1943.49,-132 1959.76,-121.45 1969.02,-100.67 1973.88,-85.43"/>
<polygon fill="midnightblue" stroke="midnightblue" points="1977.32,-86.12 1976.68,-75.55 1970.59,-84.22 1977.32,-86.12"/>
</g>
<!-- Node5 -->
<g id="node5" class="node">
<title>Node5</title>
<g id="a_node5"><a xlink:href="AS7331Sensor_8h.html" target="_top" xlink:title=" ">
<polygon fill="none" stroke="black" points="571.99,-112.5 571.99,-131.5 666.99,-131.5 666.99,-112.5 571.99,-112.5"/>
<text text-anchor="middle" x="619.49" y="-119.5" font-family="Helvetica,sans-Serif" font-size="10.00">AS7331Sensor.h</text>
</a>
</g>
</g>
<!-- Node1&#45;&gt;Node5 -->
<g id="edge6" class="edge">
<title>Node1&#45;&gt;Node5</title>
<path fill="none" stroke="midnightblue" d="M1305.48,-175.86C1212.15,-172.23 925.56,-159.57 676.98,-131.94"/>
<polygon fill="midnightblue" stroke="midnightblue" points="677.36,-128.47 667.04,-130.83 676.58,-135.42 677.36,-128.47"/>
</g>
<!-- Node9 -->
<g id="node9" class="node">
<title>Node9</title>
<g id="a_node9"><a xlink:href="AnalogSensor_8h.html" target="_top" xlink:title=" ">
<polygon fill="none" stroke="black" points="1406.49,-112.5 1406.49,-131.5 1498.49,-131.5 1498.49,-112.5 1406.49,-112.5"/>
<text text-anchor="middle" x="1452.49" y="-119.5" font-family="Helvetica,sans-Serif" font-size="10.00">AnalogSensor.h</text>
</a>
</g>
</g>
<!-- Node1&#45;&gt;Node9 -->
<g id="edge11" class="edge">
<title>Node1&#45;&gt;Node9</title>
<path fill="none" stroke="midnightblue" d="M1354.87,-168.44C1373.71,-159.68 1403.22,-145.94 1424.87,-135.86"/>
<polygon fill="midnightblue" stroke="midnightblue" points="1426.61,-138.91 1434.2,-131.52 1423.66,-132.56 1426.61,-138.91"/>
</g>
<!-- Node10 -->
<g id="node10" class="node">
<title>Node10</title>
<g id="a_node10"><a xlink:href="BME280Sensor_8h.html" target="_top" xlink:title=" ">
<polygon fill="none" stroke="black" points="685.49,-112.5 685.49,-131.5 783.49,-131.5 783.49,-112.5 685.49,-112.5"/>
<text text-anchor="middle" x="734.49" y="-119.5" font-family="Helvetica,sans-Serif" font-size="10.00">BME280Sensor.h</text>
</a>
</g>
</g>
<!-- Node1&#45;&gt;Node10 -->
<g id="edge15" class="edge">
<title>Node1&#45;&gt;Node10</title>
<path fill="none" stroke="midnightblue" d="M1305.44,-175.21C1223.56,-170.33 994.82,-155.61 793.67,-132.06"/>
<polygon fill="midnightblue" stroke="midnightblue" points="793.85,-128.55 783.51,-130.86 793.03,-135.51 793.85,-128.55"/>
</g>
<!-- Node12 -->
<g id="node12" class="node">
<title>Node12</title>
<g id="a_node12"><a xlink:href="BME680Sensor_8h.html" target="_top" xlink:title=" ">
<polygon fill="none" stroke="black" points="801.49,-112.5 801.49,-131.5 899.49,-131.5 899.49,-112.5 801.49,-112.5"/>
<text text-anchor="middle" x="850.49" y="-119.5" font-family="Helvetica,sans-Serif" font-size="10.00">BME680Sensor.h</text>
</a>
</g>
</g>
<!-- Node1&#45;&gt;Node12 -->
<g id="edge18" class="edge">
<title>Node1&#45;&gt;Node12</title>
<path fill="none" stroke="midnightblue" d="M1305.28,-174.25C1236.07,-168.04 1064.27,-151.98 909.67,-132.1"/>
<polygon fill="midnightblue" stroke="midnightblue" points="909.88,-128.59 899.52,-130.78 908.98,-135.54 909.88,-128.59"/>
</g>
<!-- Node16 -->
<g id="node16" class="node">
<title>Node16</title>
<g id="a_node16"><a xlink:href="ENS160Sensor_8h.html" target="_top" xlink:title=" ">
<polygon fill="none" stroke="black" points="240.99,-112.5 240.99,-131.5 335.99,-131.5 335.99,-112.5 240.99,-112.5"/>
<text text-anchor="middle" x="288.49" y="-119.5" font-family="Helvetica,sans-Serif" font-size="10.00">ENS160Sensor.h</text>
</a>
</g>
</g>
<!-- Node1&#45;&gt;Node16 -->
<g id="edge25" class="edge">
<title>Node1&#45;&gt;Node16</title>
<path fill="none" stroke="midnightblue" d="M1305.41,-175.4C1159.3,-167.87 539.74,-135.95 346.38,-125.98"/>
<polygon fill="midnightblue" stroke="midnightblue" points="346.31,-122.47 336.15,-125.46 345.95,-129.47 346.31,-122.47"/>
</g>
<!-- Node18 -->
<g id="node18" class="node">
<title>Node18</title>
<g id="a_node18"><a xlink:href="GeigerSensor_8h.html" target="_top" xlink:title=" ">
<polygon fill="none" stroke="black" points="1628.49,-112.5 1628.49,-131.5 1718.49,-131.5 1718.49,-112.5 1628.49,-112.5"/>
<text text-anchor="middle" x="1673.49" y="-119.5" font-family="Helvetica,sans-Serif" font-size="10.00">GeigerSensor.h</text>
</a>
</g>
</g>
<!-- Node1&#45;&gt;Node18 -->
<g id="edge29" class="edge">
<title>Node1&#45;&gt;Node18</title>
<path fill="none" stroke="midnightblue" d="M1367.8,-172.05C1419.84,-163.8 1527.46,-146.71 1618.49,-132 1618.59,-131.98 1618.7,-131.97 1618.8,-131.95"/>
<polygon fill="midnightblue" stroke="midnightblue" points="1619.16,-135.44 1628.47,-130.38 1618.04,-128.53 1619.16,-135.44"/>
</g>
<!-- Node19 -->
<g id="node19" class="node">
<title>Node19</title>
<g id="a_node19"><a xlink:href="INA260Sensor_8h.html" target="_top" xlink:title=" ">
<polygon fill="none" stroke="black" points="1516.99,-112.5 1516.99,-131.5 1609.99,-131.5 1609.99,-112.5 1516.99,-112.5"/>
<text text-anchor="middle" x="1563.49" y="-119.5" font-family="Helvetica,sans-Serif" font-size="10.00">INA260Sensor.h</text>
</a>
</g>
</g>
<!-- Node1&#45;&gt;Node19 -->
<g id="edge32" class="edge">
<title>Node1&#45;&gt;Node19</title>
<path fill="none" stroke="midnightblue" d="M1367.58,-169.6C1406.41,-160.37 1473.17,-144.49 1517.82,-133.87"/>
<polygon fill="midnightblue" stroke="midnightblue" points="1518.63,-137.27 1527.55,-131.55 1517.01,-130.46 1518.63,-137.27"/>
</g>
<!-- Node21 -->
<g id="node21" class="node">
<title>Node21</title>
<g id="a_node21"><a xlink:href="LSM9DS1Sensor_8h.html" target="_top" xlink:title=" ">
<polygon fill="none" stroke="black" points="1284.49,-112.5 1284.49,-131.5 1388.49,-131.5 1388.49,-112.5 1284.49,-112.5"/>
<text text-anchor="middle" x="1336.49" y="-119.5" font-family="Helvetica,sans-Serif" font-size="10.00">LSM9DS1Sensor.h</text>
</a>
</g>
</g>
<!-- Node1&#45;&gt;Node21 -->
<g id="edge37" class="edge">
<title>Node1&#45;&gt;Node21</title>
<path fill="none" stroke="midnightblue" d="M1336.49,-168.08C1336.49,-161.01 1336.49,-150.86 1336.49,-141.99"/>
<polygon fill="midnightblue" stroke="midnightblue" points="1339.99,-141.75 1336.49,-131.75 1332.99,-141.75 1339.99,-141.75"/>
</g>
<!-- Node23 -->
<g id="node23" class="node">
<title>Node23</title>
<g id="a_node23"><a xlink:href="SGP30Sensor_8h.html" target="_top" xlink:title=" ">
<polygon fill="none" stroke="black" points="1736.99,-112.5 1736.99,-131.5 1825.99,-131.5 1825.99,-112.5 1736.99,-112.5"/>
<text text-anchor="middle" x="1781.49" y="-119.5" font-family="Helvetica,sans-Serif" font-size="10.00">SGP30Sensor.h</text>
</a>
</g>
</g>
<!-- Node1&#45;&gt;Node23 -->
<g id="edge41" class="edge">
<title>Node1&#45;&gt;Node23</title>
<path fill="none" stroke="midnightblue" d="M1367.73,-173.95C1432.55,-167.49 1586.58,-151.56 1726.67,-132.05"/>
<polygon fill="midnightblue" stroke="midnightblue" points="1727.31,-135.49 1736.73,-130.64 1726.34,-128.56 1727.31,-135.49"/>
</g>
<!-- Node26 -->
<g id="node26" class="node">
<title>Node26</title>
<g id="a_node26"><a xlink:href="SHT31Sensor_8h.html" target="_top" xlink:title=" ">
<polygon fill="none" stroke="black" points="1037.99,-112.5 1037.99,-131.5 1126.99,-131.5 1126.99,-112.5 1037.99,-112.5"/>
<text text-anchor="middle" x="1082.49" y="-119.5" font-family="Helvetica,sans-Serif" font-size="10.00">SHT31Sensor.h</text>
</a>
</g>
</g>
<!-- Node1&#45;&gt;Node26 -->
<g id="edge47" class="edge">
<title>Node1&#45;&gt;Node26</title>
<path fill="none" stroke="midnightblue" d="M1305.35,-170.38C1262.25,-161.22 1183.95,-144.57 1132.58,-133.65"/>
<polygon fill="midnightblue" stroke="midnightblue" points="1133.2,-130.2 1122.69,-131.55 1131.74,-137.05 1133.2,-130.2"/>
</g>
<!-- Node28 -->
<g id="node28" class="node">
<title>Node28</title>
<g id="a_node28"><a xlink:href="TempSensor_8h.html" target="_top" xlink:title=" ">
<polygon fill="none" stroke="black" points="1144.49,-112.5 1144.49,-131.5 1228.49,-131.5 1228.49,-112.5 1144.49,-112.5"/>
<text text-anchor="middle" x="1186.49" y="-119.5" font-family="Helvetica,sans-Serif" font-size="10.00">TempSensor.h</text>
</a>
</g>
</g>
<!-- Node1&#45;&gt;Node28 -->
<g id="edge53" class="edge">
<title>Node1&#45;&gt;Node28</title>
<path fill="none" stroke="midnightblue" d="M1312.73,-168.44C1287.6,-159.4 1247.78,-145.06 1219.59,-134.92"/>
<polygon fill="midnightblue" stroke="midnightblue" points="1220.74,-131.61 1210.15,-131.52 1218.37,-138.2 1220.74,-131.61"/>
</g>
<!-- Node29 -->
<g id="node29" class="node">
<title>Node29</title>
<g id="a_node29"><a xlink:href="ZOPT220Sensor_8h.html" target="_top" xlink:title=" ">
<polygon fill="none" stroke="black" points="917.49,-112.5 917.49,-131.5 1019.49,-131.5 1019.49,-112.5 917.49,-112.5"/>
<text text-anchor="middle" x="968.49" y="-119.5" font-family="Helvetica,sans-Serif" font-size="10.00">ZOPT220Sensor.h</text>
</a>
</g>
</g>
<!-- Node1&#45;&gt;Node29 -->
<g id="edge55" class="edge">
<title>Node1&#45;&gt;Node29</title>
<path fill="none" stroke="midnightblue" d="M1305.45,-172.5C1251.57,-164.69 1137.01,-148.05 1029.59,-132.16"/>
<polygon fill="midnightblue" stroke="midnightblue" points="1029.96,-128.67 1019.55,-130.67 1028.93,-135.6 1029.96,-128.67"/>
</g>
<!-- Node31 -->
<g id="node31" class="node">
<title>Node31</title>
<g id="a_node31"><a xlink:href="RadioStorage_8h.html" target="_top" xlink:title=" ">
<polygon fill="none" stroke="black" points="1843.99,-112.5 1843.99,-131.5 1934.99,-131.5 1934.99,-112.5 1843.99,-112.5"/>
<text text-anchor="middle" x="1889.49" y="-119.5" font-family="Helvetica,sans-Serif" font-size="10.00">RadioStorage.h</text>
</a>
</g>
</g>
<!-- Node1&#45;&gt;Node31 -->
<g id="edge64" class="edge">
<title>Node1&#45;&gt;Node31</title>
<path fill="none" stroke="midnightblue" d="M1367.75,-174.96C1444.95,-169.76 1650.97,-154.86 1833.84,-131.99"/>
<polygon fill="midnightblue" stroke="midnightblue" points="1834.43,-135.44 1843.91,-130.72 1833.55,-128.5 1834.43,-135.44"/>
</g>
<!-- Node32 -->
<g id="node32" class="node">
<title>Node32</title>
<g id="a_node32"><a xlink:href="SDStorage_8h.html" target="_top" xlink:title=" ">
<polygon fill="none" stroke="black" points="1991.99,-112.5 1991.99,-131.5 2068.99,-131.5 2068.99,-112.5 1991.99,-112.5"/>
<text text-anchor="middle" x="2030.49" y="-119.5" font-family="Helvetica,sans-Serif" font-size="10.00">SDStorage.h</text>
</a>
</g>
</g>
<!-- Node1&#45;&gt;Node32 -->
<g id="edge67" class="edge">
<title>Node1&#45;&gt;Node32</title>
<path fill="none" stroke="midnightblue" d="M1367.61,-175.9C1460.54,-172.38 1744.05,-159.95 1977.49,-132 1978.8,-131.84 1980.12,-131.68 1981.45,-131.5"/>
<polygon fill="midnightblue" stroke="midnightblue" points="1982.37,-134.91 1991.77,-130.03 1981.37,-127.98 1982.37,-134.91"/>
</g>
<!-- Node3&#45;&gt;Node2 -->
<g id="edge3" class="edge">
<title>Node3&#45;&gt;Node2</title>
<path fill="none" stroke="midnightblue" d="M1252.88,-57.68C1255.78,-57.07 1258.69,-56.49 1261.49,-56 1385.36,-34.17 1533.58,-20.23 1604.57,-14.29"/>
<polygon fill="midnightblue" stroke="midnightblue" points="1605.19,-17.75 1614.87,-13.44 1604.62,-10.78 1605.19,-17.75"/>
</g>
<!-- Node4&#45;&gt;Node2 -->
<g id="edge5" class="edge">
<title>Node4&#45;&gt;Node2</title>
<path fill="none" stroke="midnightblue" d="M1946.85,-58.65C1942.04,-57.73 1937.14,-56.82 1932.49,-56 1846,-40.74 1744.33,-25.35 1688.51,-17.11"/>
<polygon fill="midnightblue" stroke="midnightblue" points="1688.7,-13.6 1678.3,-15.61 1687.68,-20.53 1688.7,-13.6"/>
</g>
<!-- Node5&#45;&gt;Node3 -->
<g id="edge10" class="edge">
<title>Node5&#45;&gt;Node3</title>
<path fill="none" stroke="midnightblue" d="M667.04,-113.2C670.24,-112.77 673.41,-112.36 676.49,-112 884.57,-87.64 937.97,-96.16 1146.49,-76 1158.72,-74.82 1172.02,-73.33 1184.06,-71.92"/>
<polygon fill="midnightblue" stroke="midnightblue" points="1184.76,-75.36 1194.27,-70.69 1183.93,-68.41 1184.76,-75.36"/>
</g>
<!-- Node6 -->
<g id="node6" class="node">
<title>Node6</title>
<g id="a_node6"><a xlink:title=" ">
<polygon fill="none" stroke="#bfbfbf" points="144.99,-56.5 144.99,-75.5 257.99,-75.5 257.99,-56.5 144.99,-56.5"/>
<text text-anchor="middle" x="201.49" y="-63.5" font-family="Helvetica,sans-Serif" font-size="10.00">SparkFun_AS7331.h</text>
</a>
</g>
</g>
<!-- Node5&#45;&gt;Node6 -->
<g id="edge7" class="edge">
<title>Node5&#45;&gt;Node6</title>
<path fill="none" stroke="midnightblue" d="M571.95,-114.86C497.52,-105.24 353.22,-86.6 268.35,-75.64"/>
<polygon fill="midnightblue" stroke="midnightblue" points="268.67,-72.15 258.31,-74.34 267.78,-79.09 268.67,-72.15"/>
</g>
<!-- Node7 -->
<g id="node7" class="node">
<title>Node7</title>
<g id="a_node7"><a xlink:title=" ">
<polygon fill="none" stroke="#bfbfbf" points="755.49,-0.5 755.49,-19.5 803.49,-19.5 803.49,-0.5 755.49,-0.5"/>
<text text-anchor="middle" x="779.49" y="-7.5" font-family="Helvetica,sans-Serif" font-size="10.00">Wire.h</text>
</a>
</g>
</g>
<!-- Node5&#45;&gt;Node7 -->
<g id="edge8" class="edge">
<title>Node5&#45;&gt;Node7</title>
<path fill="none" stroke="midnightblue" d="M571.98,-121.44C492.85,-121.05 339.4,-115.11 305.49,-76 299.67,-69.28 299.51,-62.58 305.49,-56 334.97,-23.59 640.68,-14 744.91,-11.66"/>
<polygon fill="midnightblue" stroke="midnightblue" points="745.27,-15.15 755.2,-11.44 745.12,-8.15 745.27,-15.15"/>
</g>
<!-- Node8 -->
<g id="node8" class="node">
<title>Node8</title>
<g id="a_node8"><a xlink:title=" ">
<polygon fill="none" stroke="#bfbfbf" points="1270.99,-56.5 1270.99,-75.5 1323.99,-75.5 1323.99,-56.5 1270.99,-56.5"/>
<text text-anchor="middle" x="1297.49" y="-63.5" font-family="Helvetica,sans-Serif" font-size="10.00">string.h</text>
</a>
</g>
</g>
<!-- Node5&#45;&gt;Node8 -->
<g id="edge9" class="edge">
<title>Node5&#45;&gt;Node8</title>
<path fill="none" stroke="midnightblue" d="M667.03,-113.15C670.23,-112.73 673.41,-112.34 676.49,-112 932.15,-84.01 1002.28,-114.95 1260.8,-75.78"/>
<polygon fill="midnightblue" stroke="midnightblue" points="1261.52,-79.21 1270.87,-74.23 1260.45,-72.29 1261.52,-79.21"/>
</g>
<!-- Node9&#45;&gt;Node2 -->
<g id="edge12" class="edge">
<title>Node9&#45;&gt;Node2</title>
<path fill="none" stroke="midnightblue" d="M1456.93,-112.48C1464.57,-98.61 1481.55,-71.18 1503.49,-56 1533.84,-35.01 1574.44,-23.46 1604.62,-17.34"/>
<polygon fill="midnightblue" stroke="midnightblue" points="1605.66,-20.71 1614.83,-15.4 1604.35,-13.83 1605.66,-20.71"/>
</g>
<!-- Node9&#45;&gt;Node3 -->
<g id="edge14" class="edge">
<title>Node9&#45;&gt;Node3</title>
<path fill="none" stroke="midnightblue" d="M1416.23,-112.47C1379.83,-103.91 1321.89,-90.26 1262.47,-76.23"/>
<polygon fill="midnightblue" stroke="midnightblue" points="1263.08,-72.78 1252.54,-73.88 1261.47,-79.59 1263.08,-72.78"/>
</g>
<!-- Node9&#45;&gt;Node8 -->
<g id="edge13" class="edge">
<title>Node9&#45;&gt;Node8</title>
<path fill="none" stroke="midnightblue" d="M1427.93,-112.44C1401.97,-103.4 1360.83,-89.06 1331.7,-78.92"/>
<polygon fill="midnightblue" stroke="midnightblue" points="1332.53,-75.5 1321.94,-75.52 1330.23,-82.11 1332.53,-75.5"/>
</g>
<!-- Node10&#45;&gt;Node3 -->
<g id="edge16" class="edge">
<title>Node10&#45;&gt;Node3</title>
<path fill="none" stroke="midnightblue" d="M783.52,-113.21C786.55,-112.78 789.56,-112.38 792.49,-112 949.35,-91.87 989.28,-93.18 1146.49,-76 1158.7,-74.67 1172,-73.14 1184.04,-71.73"/>
<polygon fill="midnightblue" stroke="midnightblue" points="1184.73,-75.17 1194.25,-70.52 1183.91,-68.22 1184.73,-75.17"/>
</g>
<!-- Node11 -->
<g id="node11" class="node">
<title>Node11</title>
<g id="a_node11"><a xlink:title=" ">
<polygon fill="none" stroke="#bfbfbf" points="314.49,-56.5 314.49,-75.5 424.49,-75.5 424.49,-56.5 314.49,-56.5"/>
<text text-anchor="middle" x="369.49" y="-63.5" font-family="Helvetica,sans-Serif" font-size="10.00">SparkFunBME280.h</text>
</a>
</g>
</g>
<!-- Node10&#45;&gt;Node11 -->
<g id="edge17" class="edge">
<title>Node10&#45;&gt;Node11</title>
<path fill="none" stroke="midnightblue" d="M685.24,-113.47C681.94,-112.97 678.67,-112.48 675.49,-112 592.37,-99.55 496.49,-85.5 434.53,-76.46"/>
<polygon fill="midnightblue" stroke="midnightblue" points="434.91,-72.98 424.51,-75 433.9,-79.91 434.91,-72.98"/>
</g>
<!-- Node12&#45;&gt;Node3 -->
<g id="edge24" class="edge">
<title>Node12&#45;&gt;Node3</title>
<path fill="none" stroke="midnightblue" d="M899.53,-113.35C902.57,-112.89 905.57,-112.44 908.49,-112 1007.72,-97.21 1124.68,-80.76 1184.28,-72.45"/>
<polygon fill="midnightblue" stroke="midnightblue" points="1184.96,-75.89 1194.38,-71.04 1183.99,-68.95 1184.96,-75.89"/>
</g>
<!-- Node12&#45;&gt;Node7 -->
<g id="edge22" class="edge">
<title>Node12&#45;&gt;Node7</title>
<path fill="none" stroke="midnightblue" d="M829.07,-112.47C813.86,-105.19 794.43,-93.16 784.49,-76 776.43,-62.07 775.78,-43.56 776.8,-29.86"/>
<polygon fill="midnightblue" stroke="midnightblue" points="780.31,-30.01 777.92,-19.68 773.35,-29.24 780.31,-30.01"/>
</g>
<!-- Node12&#45;&gt;Node8 -->
<g id="edge23" class="edge">
<title>Node12&#45;&gt;Node8</title>
<path fill="none" stroke="midnightblue" d="M899.52,-113.21C902.55,-112.78 905.56,-112.38 908.49,-112 1061.7,-92.31 1104.41,-102.74 1260.87,-75.85"/>
<polygon fill="midnightblue" stroke="midnightblue" points="1261.6,-79.28 1270.85,-74.11 1260.4,-72.38 1261.6,-79.28"/>
</g>
<!-- Node13 -->
<g id="node13" class="node">
<title>Node13</title>
<g id="a_node13"><a xlink:title=" ">
<polygon fill="none" stroke="#bfbfbf" points="502.49,-56.5 502.49,-75.5 612.49,-75.5 612.49,-56.5 502.49,-56.5"/>
<text text-anchor="middle" x="557.49" y="-63.5" font-family="Helvetica,sans-Serif" font-size="10.00">Adafruit_BME680.h</text>
</a>
</g>
</g>
<!-- Node12&#45;&gt;Node13 -->
<g id="edge19" class="edge">
<title>Node12&#45;&gt;Node13</title>
<path fill="none" stroke="midnightblue" d="M804.07,-112.44C752.42,-102.92 668.98,-87.55 613.69,-77.36"/>
<polygon fill="midnightblue" stroke="midnightblue" points="614.17,-73.89 603.7,-75.52 612.9,-80.77 614.17,-73.89"/>
</g>
<!-- Node14 -->
<g id="node14" class="node">
<title>Node14</title>
<g id="a_node14"><a xlink:title=" ">
<polygon fill="none" stroke="#bfbfbf" points="630.49,-56.5 630.49,-75.5 732.49,-75.5 732.49,-56.5 630.49,-56.5"/>
<text text-anchor="middle" x="681.49" y="-63.5" font-family="Helvetica,sans-Serif" font-size="10.00">Adafruit_Sensor.h</text>
</a>
</g>
</g>
<!-- Node12&#45;&gt;Node14 -->
<g id="edge20" class="edge">
<title>Node12&#45;&gt;Node14</title>
<path fill="none" stroke="midnightblue" d="M823.71,-112.44C795.16,-103.32 749.76,-88.81 717.96,-78.65"/>
<polygon fill="midnightblue" stroke="midnightblue" points="718.74,-75.23 708.15,-75.52 716.61,-81.89 718.74,-75.23"/>
</g>
<!-- Node15 -->
<g id="node15" class="node">
<title>Node15</title>
<g id="a_node15"><a xlink:title=" ">
<polygon fill="none" stroke="#bfbfbf" points="442.99,-56.5 442.99,-75.5 483.99,-75.5 483.99,-56.5 442.99,-56.5"/>
<text text-anchor="middle" x="463.49" y="-63.5" font-family="Helvetica,sans-Serif" font-size="10.00">SPI.h</text>
</a>
</g>
</g>
<!-- Node12&#45;&gt;Node15 -->
<g id="edge21" class="edge">
<title>Node12&#45;&gt;Node15</title>
<path fill="none" stroke="midnightblue" d="M801.46,-113.27C798.43,-112.83 795.42,-112.4 792.49,-112 663.13,-94.18 626.31,-102.88 494.14,-75.77"/>
<polygon fill="midnightblue" stroke="midnightblue" points="494.53,-72.28 484.03,-73.67 493.11,-79.13 494.53,-72.28"/>
</g>
<!-- Node16&#45;&gt;Node3 -->
<g id="edge27" class="edge">
<title>Node16&#45;&gt;Node3</title>
<path fill="none" stroke="midnightblue" d="M336,-119.58C465.94,-115.45 838.08,-102.08 1146.49,-76 1158.73,-74.96 1172.03,-73.52 1184.08,-72.1"/>
<polygon fill="midnightblue" stroke="midnightblue" points="1184.78,-75.54 1194.29,-70.86 1183.94,-68.59 1184.78,-75.54"/>
</g>
<!-- Node16&#45;&gt;Node7 -->
<g id="edge26" class="edge">
<title>Node16&#45;&gt;Node7</title>
<path fill="none" stroke="midnightblue" d="M240.81,-120.61C167.99,-118.89 34.32,-110.92 4.49,-76 -1.28,-69.24 -1.61,-62.46 4.49,-56 30.24,-28.72 597.57,-14.85 744.83,-11.7"/>
<polygon fill="midnightblue" stroke="midnightblue" points="745.15,-15.2 755.08,-11.49 745.01,-8.2 745.15,-15.2"/>
</g>
<!-- Node17 -->
<g id="node17" class="node">
<title>Node17</title>
<g id="a_node17"><a xlink:title=" ">
<polygon fill="none" stroke="#bfbfbf" points="13.99,-56.5 13.99,-75.5 126.99,-75.5 126.99,-56.5 13.99,-56.5"/>
<text text-anchor="middle" x="70.49" y="-63.5" font-family="Helvetica,sans-Serif" font-size="10.00">SparkFun_ENS160.h</text>
</a>
</g>
</g>
<!-- Node16&#45;&gt;Node17 -->
<g id="edge28" class="edge">
<title>Node16&#45;&gt;Node17</title>
<path fill="none" stroke="midnightblue" d="M253.95,-112.44C216.24,-103.1 155.75,-88.12 114.63,-77.93"/>
<polygon fill="midnightblue" stroke="midnightblue" points="115.42,-74.52 104.87,-75.52 113.74,-81.32 115.42,-74.52"/>
</g>
<!-- Node18&#45;&gt;Node2 -->
<g id="edge30" class="edge">
<title>Node18&#45;&gt;Node2</title>
<path fill="none" stroke="midnightblue" d="M1672.02,-112.1C1669.86,-99.52 1665.55,-75.85 1660.49,-56 1658.22,-47.07 1655.23,-37.29 1652.61,-29.13"/>
<polygon fill="midnightblue" stroke="midnightblue" points="1655.9,-27.95 1649.45,-19.55 1649.26,-30.14 1655.9,-27.95"/>
</g>
<!-- Node18&#45;&gt;Node3 -->
<g id="edge31" class="edge">
<title>Node18&#45;&gt;Node3</title>
<path fill="none" stroke="midnightblue" d="M1628.21,-113.36C1624.92,-112.88 1621.66,-112.42 1618.49,-112 1463.64,-91.54 1420.52,-101.98 1262.92,-76.04"/>
<polygon fill="midnightblue" stroke="midnightblue" points="1263.31,-72.56 1252.87,-74.36 1262.16,-79.46 1263.31,-72.56"/>
</g>
<!-- Node19&#45;&gt;Node2 -->
<g id="edge33" class="edge">
<title>Node19&#45;&gt;Node2</title>
<path fill="none" stroke="midnightblue" d="M1581.46,-112.35C1595.62,-104.66 1614.86,-92.14 1626.49,-76 1636.31,-62.38 1641.39,-43.84 1643.97,-30.04"/>
<polygon fill="midnightblue" stroke="midnightblue" points="1647.49,-30.21 1645.6,-19.78 1640.57,-29.11 1647.49,-30.21"/>
</g>
<!-- Node19&#45;&gt;Node3 -->
<g id="edge36" class="edge">
<title>Node19&#45;&gt;Node3</title>
<path fill="none" stroke="midnightblue" d="M1516.75,-113.44C1513.62,-112.95 1510.51,-112.46 1507.49,-112 1401.47,-95.72 1371.75,-96.68 1262.97,-76.15"/>
<polygon fill="midnightblue" stroke="midnightblue" points="1263.38,-72.67 1252.9,-74.23 1262.07,-79.54 1263.38,-72.67"/>
</g>
<!-- Node19&#45;&gt;Node8 -->
<g id="edge34" class="edge">
<title>Node19&#45;&gt;Node8</title>
<path fill="none" stroke="midnightblue" d="M1516.65,-112.57C1472.16,-104.4 1403.18,-91.3 1333.96,-76.01"/>
<polygon fill="midnightblue" stroke="midnightblue" points="1334.71,-72.59 1324.19,-73.84 1333.19,-79.43 1334.71,-72.59"/>
</g>
<!-- Node20 -->
<g id="node20" class="node">
<title>Node20</title>
<g id="a_node20"><a xlink:title=" ">
<polygon fill="none" stroke="#bfbfbf" points="1512.99,-56.5 1512.99,-75.5 1617.99,-75.5 1617.99,-56.5 1512.99,-56.5"/>
<text text-anchor="middle" x="1565.49" y="-63.5" font-family="Helvetica,sans-Serif" font-size="10.00">Adafruit_INA260.h</text>
</a>
</g>
</g>
<!-- Node19&#45;&gt;Node20 -->
<g id="edge35" class="edge">
<title>Node19&#45;&gt;Node20</title>
<path fill="none" stroke="midnightblue" d="M1563.82,-112.08C1564.09,-105.01 1564.46,-94.86 1564.79,-85.99"/>
<polygon fill="midnightblue" stroke="midnightblue" points="1568.3,-85.87 1565.17,-75.75 1561.3,-85.61 1568.3,-85.87"/>
</g>
<!-- Node21&#45;&gt;Node3 -->
<g id="edge40" class="edge">
<title>Node21&#45;&gt;Node3</title>
<path fill="none" stroke="midnightblue" d="M1318.59,-112.44C1300.24,-103.68 1271.49,-89.94 1250.4,-79.86"/>
<polygon fill="midnightblue" stroke="midnightblue" points="1251.85,-76.67 1241.31,-75.52 1248.83,-82.99 1251.85,-76.67"/>
</g>
<!-- Node21&#45;&gt;Node8 -->
<g id="edge39" class="edge">
<title>Node21&#45;&gt;Node8</title>
<path fill="none" stroke="midnightblue" d="M1330.05,-112.08C1324.54,-104.46 1316.46,-93.26 1309.73,-83.94"/>
<polygon fill="midnightblue" stroke="midnightblue" points="1312.51,-81.81 1303.81,-75.75 1306.83,-85.91 1312.51,-81.81"/>
</g>
<!-- Node22 -->
<g id="node22" class="node">
<title>Node22</title>
<g id="a_node22"><a xlink:title=" ">
<polygon fill="none" stroke="#bfbfbf" points="1342.49,-56.5 1342.49,-75.5 1456.49,-75.5 1456.49,-56.5 1342.49,-56.5"/>
<text text-anchor="middle" x="1399.49" y="-63.5" font-family="Helvetica,sans-Serif" font-size="10.00">Arduino_LSM9DS1.h</text>
</a>
</g>
</g>
<!-- Node21&#45;&gt;Node22 -->
<g id="edge38" class="edge">
<title>Node21&#45;&gt;Node22</title>
<path fill="none" stroke="midnightblue" d="M1346.62,-112.32C1356.02,-104.26 1370.24,-92.08 1381.56,-82.37"/>
<polygon fill="midnightblue" stroke="midnightblue" points="1383.87,-85 1389.19,-75.83 1379.32,-79.68 1383.87,-85"/>
</g>
<!-- Node23&#45;&gt;Node2 -->
<g id="edge42" class="edge">
<title>Node23&#45;&gt;Node2</title>
<path fill="none" stroke="midnightblue" d="M1807.13,-112.46C1836.97,-101.15 1879.86,-79.86 1860.49,-56 1839.21,-29.78 1744.14,-18.27 1688.13,-13.69"/>
<polygon fill="midnightblue" stroke="midnightblue" points="1688.39,-10.2 1678.15,-12.91 1687.85,-17.17 1688.39,-10.2"/>
</g>
<!-- Node23&#45;&gt;Node3 -->
<g id="edge46" class="edge">
<title>Node23&#45;&gt;Node3</title>
<path fill="none" stroke="midnightblue" d="M1736.75,-113.23C1733.62,-112.78 1730.51,-112.37 1727.49,-112 1524.51,-87.29 1468.48,-107.38 1262.77,-75.97"/>
<polygon fill="midnightblue" stroke="midnightblue" points="1263.28,-72.5 1252.86,-74.43 1262.21,-79.42 1263.28,-72.5"/>
</g>
<!-- Node23&#45;&gt;Node8 -->
<g id="edge44" class="edge">
<title>Node23&#45;&gt;Node8</title>
<path fill="none" stroke="midnightblue" d="M1736.74,-113.28C1733.62,-112.82 1730.51,-112.39 1727.49,-112 1556.33,-89.95 1508.62,-104.83 1334.17,-75.84"/>
<polygon fill="midnightblue" stroke="midnightblue" points="1334.58,-72.36 1324.13,-74.15 1333.41,-79.26 1334.58,-72.36"/>
</g>
<!-- Node24 -->
<g id="node24" class="node">
<title>Node24</title>
<g id="a_node24"><a xlink:title=" ">
<polygon fill="none" stroke="#bfbfbf" points="1219.99,-0.5 1219.99,-19.5 1272.99,-19.5 1272.99,-0.5 1219.99,-0.5"/>
<text text-anchor="middle" x="1246.49" y="-7.5" font-family="Helvetica,sans-Serif" font-size="10.00">stdint.h</text>
</a>
</g>
</g>
<!-- Node23&#45;&gt;Node24 -->
<g id="edge43" class="edge">
<title>Node23&#45;&gt;Node24</title>
<path fill="none" stroke="midnightblue" d="M1765.28,-112.41C1737.64,-98.17 1679.26,-69.89 1626.49,-56 1503.62,-23.64 1352.23,-14.52 1283.53,-11.97"/>
<polygon fill="midnightblue" stroke="midnightblue" points="1283.34,-8.46 1273.23,-11.62 1283.1,-15.46 1283.34,-8.46"/>
</g>
<!-- Node25 -->
<g id="node25" class="node">
<title>Node25</title>
<g id="a_node25"><a xlink:title=" ">
<polygon fill="none" stroke="#bfbfbf" points="1750.99,-56.5 1750.99,-75.5 1851.99,-75.5 1851.99,-56.5 1750.99,-56.5"/>
<text text-anchor="middle" x="1801.49" y="-63.5" font-family="Helvetica,sans-Serif" font-size="10.00">Adafruit_SGP30.h</text>
</a>
</g>
</g>
<!-- Node23&#45;&gt;Node25 -->
<g id="edge45" class="edge">
<title>Node23&#45;&gt;Node25</title>
<path fill="none" stroke="midnightblue" d="M1784.8,-112.08C1787.48,-104.85 1791.34,-94.41 1794.68,-85.4"/>
<polygon fill="midnightblue" stroke="midnightblue" points="1798.06,-86.34 1798.25,-75.75 1791.5,-83.91 1798.06,-86.34"/>
</g>
<!-- Node26&#45;&gt;Node2 -->
<g id="edge48" class="edge">
<title>Node26&#45;&gt;Node2</title>
<path fill="none" stroke="midnightblue" d="M1094.63,-112.33C1117.45,-96.2 1166.19,-62.61 1185.49,-56 1262.56,-29.59 1506.42,-16.8 1604.77,-12.61"/>
<polygon fill="midnightblue" stroke="midnightblue" points="1605.08,-16.1 1614.93,-12.19 1604.79,-9.11 1605.08,-16.1"/>
</g>
<!-- Node26&#45;&gt;Node3 -->
<g id="edge52" class="edge">
<title>Node26&#45;&gt;Node3</title>
<path fill="none" stroke="midnightblue" d="M1104.84,-112.44C1128.25,-103.48 1165.23,-89.31 1191.68,-79.18"/>
<polygon fill="midnightblue" stroke="midnightblue" points="1193.17,-82.36 1201.26,-75.52 1190.67,-75.82 1193.17,-82.36"/>
</g>
<!-- Node26&#45;&gt;Node7 -->
<g id="edge49" class="edge">
<title>Node26&#45;&gt;Node7</title>
<path fill="none" stroke="midnightblue" d="M1037.89,-113.41C976.5,-102.77 871.69,-83.86 855.49,-76 830.98,-64.11 807.96,-42.37 793.81,-27.32"/>
<polygon fill="midnightblue" stroke="midnightblue" points="796.24,-24.79 786.92,-19.76 791.07,-29.51 796.24,-24.79"/>
</g>
<!-- Node26&#45;&gt;Node8 -->
<g id="edge50" class="edge">
<title>Node26&#45;&gt;Node8</title>
<path fill="none" stroke="midnightblue" d="M1116.56,-112.44C1155.97,-102.55 1220.59,-86.32 1261,-76.17"/>
<polygon fill="midnightblue" stroke="midnightblue" points="1261.87,-79.56 1270.72,-73.73 1260.17,-72.77 1261.87,-79.56"/>
</g>
<!-- Node27 -->
<g id="node27" class="node">
<title>Node27</title>
<g id="a_node27"><a xlink:title=" ">
<polygon fill="none" stroke="#bfbfbf" points="1036.99,-56.5 1036.99,-75.5 1137.99,-75.5 1137.99,-56.5 1036.99,-56.5"/>
<text text-anchor="middle" x="1087.49" y="-63.5" font-family="Helvetica,sans-Serif" font-size="10.00">Adafruit_SHT31.h</text>
</a>
</g>
</g>
<!-- Node26&#45;&gt;Node27 -->
<g id="edge51" class="edge">
<title>Node26&#45;&gt;Node27</title>
<path fill="none" stroke="midnightblue" d="M1083.32,-112.08C1083.97,-105.01 1084.91,-94.86 1085.74,-85.99"/>
<polygon fill="midnightblue" stroke="midnightblue" points="1089.25,-86.03 1086.68,-75.75 1082.28,-85.39 1089.25,-86.03"/>
</g>
<!-- Node28&#45;&gt;Node3 -->
<g id="edge54" class="edge">
<title>Node28&#45;&gt;Node3</title>
<path fill="none" stroke="midnightblue" d="M1192.6,-112.08C1197.78,-104.53 1205.34,-93.49 1211.69,-84.23"/>
<polygon fill="midnightblue" stroke="midnightblue" points="1214.73,-85.98 1217.5,-75.75 1208.96,-82.02 1214.73,-85.98"/>
</g>
<!-- Node29&#45;&gt;Node2 -->
<g id="edge56" class="edge">
<title>Node29&#45;&gt;Node2</title>
<path fill="none" stroke="midnightblue" d="M973.32,-112.33C981.99,-97.72 1001.73,-68.54 1027.49,-56 1079.13,-30.85 1474.18,-16.38 1604.75,-12.24"/>
<polygon fill="midnightblue" stroke="midnightblue" points="1604.88,-15.74 1614.76,-11.93 1604.66,-8.74 1604.88,-15.74"/>
</g>
<!-- Node29&#45;&gt;Node3 -->
<g id="edge59" class="edge">
<title>Node29&#45;&gt;Node3</title>
<path fill="none" stroke="midnightblue" d="M1008.9,-112.44C1057.05,-102.25 1136.93,-85.33 1184.47,-75.26"/>
<polygon fill="midnightblue" stroke="midnightblue" points="1185.32,-78.66 1194.38,-73.16 1183.87,-71.81 1185.32,-78.66"/>
</g>
<!-- Node29&#45;&gt;Node7 -->
<g id="edge57" class="edge">
<title>Node29&#45;&gt;Node7</title>
<path fill="none" stroke="midnightblue" d="M930.85,-112.46C893.59,-103.48 839.69,-88.88 822.49,-76 806.28,-63.86 794.33,-43.7 787.2,-29.04"/>
<polygon fill="midnightblue" stroke="midnightblue" points="790.19,-27.19 782.86,-19.54 783.83,-30.09 790.19,-27.19"/>
</g>
<!-- Node29&#45;&gt;Node8 -->
<g id="edge58" class="edge">
<title>Node29&#45;&gt;Node8</title>
<path fill="none" stroke="midnightblue" d="M1019.6,-113.28C1092.36,-102.26 1220.69,-82.78 1260.9,-75.79"/>
<polygon fill="midnightblue" stroke="midnightblue" points="1261.62,-79.22 1270.82,-73.96 1260.35,-72.33 1261.62,-79.22"/>
</g>
<!-- Node30 -->
<g id="node30" class="node">
<title>Node30</title>
<g id="a_node30"><a xlink:href="ZOPT220x__Control_8h.html" target="_top" xlink:title=" ">
<polygon fill="none" stroke="black" points="864.49,-56.5 864.49,-75.5 980.49,-75.5 980.49,-56.5 864.49,-56.5"/>
<text text-anchor="middle" x="922.49" y="-63.5" font-family="Helvetica,sans-Serif" font-size="10.00">ZOPT220x_Control.h</text>
</a>
</g>
</g>
<!-- Node29&#45;&gt;Node30 -->
<g id="edge60" class="edge">
<title>Node29&#45;&gt;Node30</title>
<path fill="none" stroke="midnightblue" d="M960.9,-112.08C954.27,-104.3 944.47,-92.8 936.44,-83.37"/>
<polygon fill="midnightblue" stroke="midnightblue" points="939.1,-81.09 929.95,-75.75 933.77,-85.63 939.1,-81.09"/>
</g>
<!-- Node30&#45;&gt;Node2 -->
<g id="edge61" class="edge">
<title>Node30&#45;&gt;Node2</title>
<path fill="none" stroke="midnightblue" d="M980.62,-57.45C985.31,-56.93 989.98,-56.44 994.49,-56 1224.6,-33.69 1501.44,-18.39 1604.86,-13.07"/>
<polygon fill="midnightblue" stroke="midnightblue" points="1605.08,-16.56 1614.89,-12.56 1604.73,-9.57 1605.08,-16.56"/>
</g>
<!-- Node30&#45;&gt;Node7 -->
<g id="edge62" class="edge">
<title>Node30&#45;&gt;Node7</title>
<path fill="none" stroke="midnightblue" d="M899.83,-56.44C876.09,-47.48 838.58,-33.31 811.75,-23.18"/>
<polygon fill="midnightblue" stroke="midnightblue" points="812.64,-19.77 802.05,-19.52 810.16,-26.32 812.64,-19.77"/>
</g>
<!-- Node30&#45;&gt;Node24 -->
<g id="edge63" class="edge">
<title>Node30&#45;&gt;Node24</title>
<path fill="none" stroke="midnightblue" d="M973.83,-56.44C1039.51,-45.5 1151.68,-26.8 1209.55,-17.16"/>
<polygon fill="midnightblue" stroke="midnightblue" points="1210.41,-20.56 1219.7,-15.47 1209.26,-13.66 1210.41,-20.56"/>
</g>
<!-- Node31&#45;&gt;Node2 -->
<g id="edge65" class="edge">
<title>Node31&#45;&gt;Node2</title>
<path fill="none" stroke="midnightblue" d="M1890.66,-112.48C1892.04,-98.61 1892.51,-71.17 1877.49,-56 1851.59,-29.84 1747.72,-18.21 1688.46,-13.62"/>
<polygon fill="midnightblue" stroke="midnightblue" points="1688.53,-10.12 1678.3,-12.87 1688.01,-17.1 1688.53,-10.12"/>
</g>
<!-- Node31&#45;&gt;Node4 -->
<g id="edge66" class="edge">
<title>Node31&#45;&gt;Node4</title>
<path fill="none" stroke="midnightblue" d="M1903.79,-112.32C1917.68,-103.9 1938.99,-90.97 1955.3,-81.07"/>
<polygon fill="midnightblue" stroke="midnightblue" points="1957.5,-83.83 1964.23,-75.65 1953.86,-77.85 1957.5,-83.83"/>
</g>
<!-- Node32&#45;&gt;Node4 -->
<g id="edge69" class="edge">
<title>Node32&#45;&gt;Node4</title>
<path fill="none" stroke="midnightblue" d="M2021.91,-112.08C2014.33,-104.22 2003.12,-92.57 1993.98,-83.08"/>
<polygon fill="midnightblue" stroke="midnightblue" points="1996.38,-80.53 1986.92,-75.75 1991.34,-85.38 1996.38,-80.53"/>
</g>
<!-- Node33 -->
<g id="node33" class="node">
<title>Node33</title>
<g id="a_node33"><a xlink:title=" ">
<polygon fill="none" stroke="#bfbfbf" points="2027.99,-56.5 2027.99,-75.5 2066.99,-75.5 2066.99,-56.5 2027.99,-56.5"/>
<text text-anchor="middle" x="2047.49" y="-63.5" font-family="Helvetica,sans-Serif" font-size="10.00">SD.h</text>
</a>
</g>
</g>
<!-- Node32&#45;&gt;Node33 -->
<g id="edge68" class="edge">
<title>Node32&#45;&gt;Node33</title>
<path fill="none" stroke="midnightblue" d="M2033.3,-112.08C2035.58,-104.85 2038.86,-94.41 2041.7,-85.4"/>
<polygon fill="midnightblue" stroke="midnightblue" points="2045.07,-86.34 2044.74,-75.75 2038.4,-84.24 2045.07,-86.34"/>
</g>
</g>
</svg>
