<?xml version="1.0" encoding="UTF-8" standalone="no"?>
<!DOCTYPE svg PUBLIC "-//W3C//DTD SVG 1.1//EN"
 "http://www.w3.org/Graphics/SVG/1.1/DTD/svg11.dtd">
<!-- Generated by graphviz version 2.43.0 (0)
 -->
<!-- Title: setup Pages: 1 -->
<svg width="429pt" height="323pt"
 viewBox="0.00 0.00 429.00 323.00" xmlns="http://www.w3.org/2000/svg" xmlns:xlink="http://www.w3.org/1999/xlink">
<g id="graph0" class="graph" transform="scale(1 1) rotate(0) translate(4 319)">
<title>setup</title>
<!-- Node1 -->
<g id="Node000001" class="node">
<title>Node1</title>
<g id="a_Node000001"><a xlink:title="Setup for core 0.">
<polygon fill="#999999" stroke="#666666" points="44,-167 0,-167 0,-148 44,-148 44,-167"/>
<text text-anchor="middle" x="22" y="-155" font-family="Helvetica,sans-Serif" font-size="10.00">setup</text>
</a>
</g>
</g>
<!-- Node2 -->
<g id="Node000002" class="node">
<title>Node2</title>
<g id="a_Node000002"><a xlink:href="classErrorDisplay.html#a25018c85cd6b4055a5e796153b997d13" target="_top" xlink:title="Sets the error code to the given value if the given error is of a higher priority then the current er...">
<polygon fill="white" stroke="#666666" points="222,-315 97,-315 97,-296 222,-296 222,-315"/>
<text text-anchor="middle" x="159.5" y="-303" font-family="Helvetica,sans-Serif" font-size="10.00">ErrorDisplay::addCode</text>
</a>
</g>
</g>
<!-- Node1&#45;&gt;Node2 -->
<g id="edge1_Node000001_Node000002" class="edge">
<title>Node1&#45;&gt;Node2</title>
<g id="a_edge1_Node000001_Node000002"><a xlink:title=" ">
<path fill="none" stroke="#63b8ff" d="M24.25,-167.09C27.94,-191.3 41.09,-255.28 80,-287.5 82.4,-289.49 84.98,-291.26 87.68,-292.85"/>
<polygon fill="#63b8ff" stroke="#63b8ff" points="86.18,-296.01 96.69,-297.31 89.28,-289.74 86.18,-296.01"/>
</a>
</g>
</g>
<!-- Node3 -->
<g id="Node000003" class="node">
<title>Node3</title>
<g id="a_Node000003"><a xlink:href="classSensor.html#a7a1b80d366c585dd9c85992f0ca96d39" target="_top" xlink:title="Get the csv header string associated with this sensor.">
<polygon fill="white" stroke="#666666" points="239,-278 80,-278 80,-259 239,-259 239,-278"/>
<text text-anchor="middle" x="159.5" y="-266" font-family="Helvetica,sans-Serif" font-size="10.00">Sensor::getSensorCSVHeader</text>
</a>
</g>
</g>
<!-- Node1&#45;&gt;Node3 -->
<g id="edge2_Node000001_Node000003" class="edge">
<title>Node1&#45;&gt;Node3</title>
<g id="a_edge2_Node000001_Node000003"><a xlink:title=" ">
<path fill="none" stroke="#63b8ff" d="M26.06,-167.15C32.64,-186.27 50.01,-228.95 80,-250.5 82.09,-252 84.28,-253.38 86.55,-254.64"/>
<polygon fill="#63b8ff" stroke="#63b8ff" points="85.11,-257.83 95.64,-258.98 88.12,-251.51 85.11,-257.83"/>
</a>
</g>
</g>
<!-- Node4 -->
<g id="Node000004" class="node">
<title>Node4</title>
<g id="a_Node000004"><a xlink:href="classStorage.html#a97174b0ffdac8fcddb79652a46b75268" target="_top" xlink:title="Get the name of the storage device.">
<polygon fill="white" stroke="#666666" points="231,-241 88,-241 88,-222 231,-222 231,-241"/>
<text text-anchor="middle" x="159.5" y="-229" font-family="Helvetica,sans-Serif" font-size="10.00">Storage::getStorageName</text>
</a>
</g>
</g>
<!-- Node1&#45;&gt;Node4 -->
<g id="edge3_Node000001_Node000004" class="edge">
<title>Node1&#45;&gt;Node4</title>
<g id="a_edge3_Node000001_Node000004"><a xlink:title=" ">
<path fill="none" stroke="#63b8ff" d="M29.95,-167.05C39.67,-179.7 58.58,-201.77 80,-213.5 83.32,-215.32 86.82,-216.96 90.42,-218.43"/>
<polygon fill="#63b8ff" stroke="#63b8ff" points="89.54,-221.83 100.14,-221.95 91.93,-215.25 89.54,-221.83"/>
</a>
</g>
</g>
<!-- Node5 -->
<g id="Node000005" class="node">
<title>Node5</title>
<g id="a_Node000005"><a xlink:href="classErrorDisplay.html#a4f9e7e64ffc64711653b539bf3d8d24f" target="_top" xlink:title="Accesses the only instance of ErrorDisplay (Singleton)">
<polygon fill="white" stroke="#666666" points="221,-204 98,-204 98,-185 221,-185 221,-204"/>
<text text-anchor="middle" x="159.5" y="-192" font-family="Helvetica,sans-Serif" font-size="10.00">ErrorDisplay::instance</text>
</a>
</g>
</g>
<!-- Node1&#45;&gt;Node5 -->
<g id="edge4_Node000001_Node000005" class="edge">
<title>Node1&#45;&gt;Node5</title>
<g id="a_edge4_Node000001_Node000005"><a xlink:title=" ">
<path fill="none" stroke="#63b8ff" d="M44.23,-165.12C54.89,-168.8 68.05,-173.15 80,-176.5 87.57,-178.62 95.61,-180.69 103.54,-182.61"/>
<polygon fill="#63b8ff" stroke="#63b8ff" points="102.94,-186.06 113.48,-184.96 104.55,-179.25 102.94,-186.06"/>
</a>
</g>
</g>
<!-- Node6 -->
<g id="Node000006" class="node">
<title>Node6</title>
<g id="a_Node000006"><a xlink:href="classFlashStorage.html#a4890571487bb855dd72c050dc37a73f1" target="_top" xlink:title="Store data on flash.">
<polygon fill="white" stroke="#666666" points="215,-167 104,-167 104,-148 215,-148 215,-167"/>
<text text-anchor="middle" x="159.5" y="-155" font-family="Helvetica,sans-Serif" font-size="10.00">FlashStorage::store</text>
</a>
</g>
</g>
<!-- Node1&#45;&gt;Node6 -->
<g id="edge5_Node000001_Node000006" class="edge">
<title>Node1&#45;&gt;Node6</title>
<g id="a_edge5_Node000001_Node000006"><a xlink:title=" ">
<path fill="none" stroke="#63b8ff" d="M44.17,-157.5C57.55,-157.5 75.62,-157.5 93.45,-157.5"/>
<polygon fill="#63b8ff" stroke="#63b8ff" points="93.88,-161 103.88,-157.5 93.88,-154 93.88,-161"/>
</a>
</g>
</g>
<!-- Node7 -->
<g id="Node000007" class="node">
<title>Node7</title>
<g id="a_Node000007"><a xlink:href="classErrorDisplay.html#a493bde338b369414abffe90e0d49e93b" target="_top" xlink:title="Toggles the level of the error display.">
<polygon fill="white" stroke="#666666" points="216,-130 103,-130 103,-111 216,-111 216,-130"/>
<text text-anchor="middle" x="159.5" y="-118" font-family="Helvetica,sans-Serif" font-size="10.00">ErrorDisplay::toggle</text>
</a>
</g>
</g>
<!-- Node1&#45;&gt;Node7 -->
<g id="edge6_Node000001_Node000007" class="edge">
<title>Node1&#45;&gt;Node7</title>
<g id="a_edge6_Node000001_Node000007"><a xlink:title=" ">
<path fill="none" stroke="#63b8ff" d="M44.01,-150.49C54.73,-147.01 68,-142.84 80,-139.5 88.64,-137.09 97.86,-134.7 106.83,-132.47"/>
<polygon fill="#63b8ff" stroke="#63b8ff" points="107.93,-135.81 116.81,-130.03 106.26,-129.01 107.93,-135.81"/>
</a>
</g>
</g>
<!-- Node8 -->
<g id="Node000008" class="node">
<title>Node8</title>
<g id="a_Node000008"><a xlink:href="classFlashStorage.html#addf2a0a14a0a92ccce2d55eac60282e4" target="_top" xlink:title="Verify flash memory connection and create a new file.">
<polygon fill="white" stroke="#666666" points="216.5,-93 102.5,-93 102.5,-74 216.5,-74 216.5,-93"/>
<text text-anchor="middle" x="159.5" y="-81" font-family="Helvetica,sans-Serif" font-size="10.00">FlashStorage::verify</text>
</a>
</g>
</g>
<!-- Node1&#45;&gt;Node8 -->
<g id="edge7_Node000001_Node000008" class="edge">
<title>Node1&#45;&gt;Node8</title>
<g id="a_edge7_Node000001_Node000008"><a xlink:title=" ">
<path fill="none" stroke="#63b8ff" d="M30.34,-147.73C40.23,-135.29 59.03,-114.02 80,-102.5 84.16,-100.21 88.59,-98.2 93.15,-96.43"/>
<polygon fill="#63b8ff" stroke="#63b8ff" points="94.35,-99.72 102.64,-93.12 92.04,-93.11 94.35,-99.72"/>
</a>
</g>
</g>
<!-- Node10 -->
<g id="Node000010" class="node">
<title>Node10</title>
<g id="a_Node000010"><a xlink:href="main_8cpp.html#aef42a5a8a5d889c599fa964be60eca24" target="_top" xlink:title="Verifies each sensor by calling each verify() function.">
<polygon fill="white" stroke="#666666" points="201,-56 118,-56 118,-37 201,-37 201,-56"/>
<text text-anchor="middle" x="159.5" y="-44" font-family="Helvetica,sans-Serif" font-size="10.00">verifySensors</text>
</a>
</g>
</g>
<!-- Node1&#45;&gt;Node10 -->
<g id="edge9_Node000001_Node000010" class="edge">
<title>Node1&#45;&gt;Node10</title>
<g id="a_edge9_Node000001_Node000010"><a xlink:title=" ">
<path fill="none" stroke="#63b8ff" d="M26.11,-147.98C32.79,-129.12 50.33,-86.99 80,-65.5 88.18,-59.58 97.96,-55.48 107.81,-52.66"/>
<polygon fill="#63b8ff" stroke="#63b8ff" points="108.75,-56.03 117.61,-50.24 107.07,-49.24 108.75,-56.03"/>
</a>
</g>
</g>
<!-- Node12 -->
<g id="Node000012" class="node">
<title>Node12</title>
<g id="a_Node000012"><a xlink:href="main_8cpp.html#a339ac134cdee34bfe9d5f539ab14ba00" target="_top" xlink:title="Verifies the connection with each storage device, and defines the header_condensed field.">
<polygon fill="white" stroke="#666666" points="200.5,-19 118.5,-19 118.5,0 200.5,0 200.5,-19"/>
<text text-anchor="middle" x="159.5" y="-7" font-family="Helvetica,sans-Serif" font-size="10.00">verifyStorage</text>
</a>
</g>
</g>
<!-- Node1&#45;&gt;Node12 -->
<g id="edge11_Node000001_Node000012" class="edge">
<title>Node1&#45;&gt;Node12</title>
<g id="a_edge11_Node000001_Node000012"><a xlink:title=" ">
<path fill="none" stroke="#63b8ff" d="M24.36,-147.66C28.23,-123.43 41.67,-60.53 80,-28.5 88.07,-21.75 98.16,-17.33 108.38,-14.45"/>
<polygon fill="#63b8ff" stroke="#63b8ff" points="109.24,-17.84 118.16,-12.13 107.62,-11.03 109.24,-17.84"/>
</a>
</g>
</g>
<!-- Node9 -->
<g id="Node000009" class="node">
<title>Node9</title>
<g id="a_Node000009"><a xlink:href="classFlashStorage.html#a859b93e00991f74dd5abc09e3065c255" target="_top" xlink:title="Read position from flash.">
<polygon fill="white" stroke="#666666" points="421,-93 275,-93 275,-74 421,-74 421,-93"/>
<text text-anchor="middle" x="348" y="-81" font-family="Helvetica,sans-Serif" font-size="10.00">FlashStorage::loadPosition</text>
</a>
</g>
</g>
<!-- Node8&#45;&gt;Node9 -->
<g id="edge8_Node000008_Node000009" class="edge">
<title>Node8&#45;&gt;Node9</title>
<g id="a_edge8_Node000008_Node000009"><a xlink:title=" ">
<path fill="none" stroke="#63b8ff" d="M216.71,-83.5C231.81,-83.5 248.45,-83.5 264.66,-83.5"/>
<polygon fill="#63b8ff" stroke="#63b8ff" points="264.67,-87 274.67,-83.5 264.67,-80 264.67,-87"/>
</a>
</g>
</g>
<!-- Node11 -->
<g id="Node000011" class="node">
<title>Node11</title>
<g id="a_Node000011"><a xlink:href="classSensor.html#a45975aa760bbab8224775ae5d78da333" target="_top" xlink:title="Verifies if the sensor is connected and working.">
<polygon fill="white" stroke="#666666" points="389.5,-56 306.5,-56 306.5,-37 389.5,-37 389.5,-56"/>
<text text-anchor="middle" x="348" y="-44" font-family="Helvetica,sans-Serif" font-size="10.00">Sensor::verify</text>
</a>
</g>
</g>
<!-- Node10&#45;&gt;Node11 -->
<g id="edge10_Node000010_Node000011" class="edge">
<title>Node10&#45;&gt;Node11</title>
<g id="a_edge10_Node000010_Node000011"><a xlink:title=" ">
<path fill="none" stroke="#63b8ff" d="M201.43,-46.5C229.34,-46.5 266.5,-46.5 296.29,-46.5"/>
<polygon fill="#63b8ff" stroke="#63b8ff" points="296.49,-50 306.49,-46.5 296.49,-43 296.49,-50"/>
</a>
</g>
</g>
<!-- Node13 -->
<g id="Node000013" class="node">
<title>Node13</title>
<g id="a_Node000013"><a xlink:href="classStorage.html#a83fbc910d2fe786ac9134f27a85bda8f" target="_top" xlink:title="Verifies connection with storage device.">
<polygon fill="white" stroke="#666666" points="392,-19 304,-19 304,0 392,0 392,-19"/>
<text text-anchor="middle" x="348" y="-7" font-family="Helvetica,sans-Serif" font-size="10.00">Storage::verify</text>
</a>
</g>
</g>
<!-- Node12&#45;&gt;Node13 -->
<g id="edge12_Node000012_Node000013" class="edge">
<title>Node12&#45;&gt;Node13</title>
<g id="a_edge12_Node000012_Node000013"><a xlink:title=" ">
<path fill="none" stroke="#63b8ff" d="M200.51,-9.5C227.7,-9.5 263.97,-9.5 293.62,-9.5"/>
<polygon fill="#63b8ff" stroke="#63b8ff" points="293.81,-13 303.81,-9.5 293.81,-6 293.81,-13"/>
</a>
</g>
</g>
</g>
</svg>
