<?xml version="1.0" encoding="UTF-8" standalone="no"?>
<!DOCTYPE svg PUBLIC "-//W3C//DTD SVG 1.1//EN"
 "http://www.w3.org/Graphics/SVG/1.1/DTD/svg11.dtd">
<!-- Generated by graphviz version 2.43.0 (0)
 -->
<!-- Title: main.cpp Pages: 1 -->
<svg width="1736pt" height="196pt"
 viewBox="0.00 0.00 1736.00 196.00" xmlns="http://www.w3.org/2000/svg" xmlns:xlink="http://www.w3.org/1999/xlink">
<g id="graph0" class="graph" transform="scale(1 1) rotate(0) translate(4 192)">
<title>main.cpp</title>
<!-- Node1 -->
<g id="node1" class="node">
<title>Node1</title>
<g id="a_node1"><a xlink:title=" ">
<polygon fill="#bfbfbf" stroke="black" points="515.5,-168.5 515.5,-187.5 577.5,-187.5 577.5,-168.5 515.5,-168.5"/>
<text text-anchor="middle" x="546.5" y="-175.5" font-family="Helvetica,sans-Serif" font-size="10.00">main.cpp</text>
</a>
</g>
</g>
<!-- Node2 -->
<g id="node2" class="node">
<title>Node2</title>
<g id="a_node2"><a xlink:title=" ">
<polygon fill="none" stroke="#bfbfbf" points="611,-0.5 611,-19.5 674,-19.5 674,-0.5 611,-0.5"/>
<text text-anchor="middle" x="642.5" y="-7.5" font-family="Helvetica,sans-Serif" font-size="10.00">Arduino.h</text>
</a>
</g>
</g>
<!-- Node1&#45;&gt;Node2 -->
<g id="edge1" class="edge">
<title>Node1&#45;&gt;Node2</title>
<path fill="none" stroke="midnightblue" d="M515.44,-176.72C450.41,-175.4 303.39,-168.38 272.5,-132 266.75,-125.22 270.4,-120.64 272.5,-112 279.13,-84.77 278.56,-72.1 301.5,-56 348.92,-22.71 520.36,-14.03 600.57,-11.78"/>
<polygon fill="midnightblue" stroke="midnightblue" points="600.9,-15.28 610.81,-11.52 600.72,-8.28 600.9,-15.28"/>
</g>
<!-- Node3 -->
<g id="node3" class="node">
<title>Node3</title>
<g id="a_node3"><a xlink:href="Sensor_8h.html" target="_top" xlink:title=" ">
<polygon fill="none" stroke="black" points="613.5,-56.5 613.5,-75.5 671.5,-75.5 671.5,-56.5 613.5,-56.5"/>
<text text-anchor="middle" x="642.5" y="-63.5" font-family="Helvetica,sans-Serif" font-size="10.00">Sensor.h</text>
</a>
</g>
</g>
<!-- Node1&#45;&gt;Node3 -->
<g id="edge2" class="edge">
<title>Node1&#45;&gt;Node3</title>
<path fill="none" stroke="midnightblue" d="M540.29,-168.24C531.74,-154.98 518.66,-129.52 530.5,-112 539.11,-99.27 574.63,-86.35 603.39,-77.64"/>
<polygon fill="midnightblue" stroke="midnightblue" points="604.63,-80.93 613.23,-74.74 602.65,-74.21 604.63,-80.93"/>
</g>
<!-- Node4 -->
<g id="node4" class="node">
<title>Node4</title>
<g id="a_node4"><a xlink:href="Storage_8h.html" target="_top" xlink:title=" ">
<polygon fill="none" stroke="black" points="88,-56.5 88,-75.5 151,-75.5 151,-56.5 88,-56.5"/>
<text text-anchor="middle" x="119.5" y="-63.5" font-family="Helvetica,sans-Serif" font-size="10.00">Storage.h</text>
</a>
</g>
</g>
<!-- Node1&#45;&gt;Node4 -->
<g id="edge4" class="edge">
<title>Node1&#45;&gt;Node4</title>
<path fill="none" stroke="midnightblue" d="M515.23,-175.5C424.93,-170.9 168.32,-155.85 139.5,-132 126.02,-120.84 121.44,-100.82 119.98,-85.93"/>
<polygon fill="midnightblue" stroke="midnightblue" points="123.46,-85.56 119.37,-75.78 116.48,-85.97 123.46,-85.56"/>
</g>
<!-- Node5 -->
<g id="node5" class="node">
<title>Node5</title>
<g id="a_node5"><a xlink:href="AnalogSensor_8h.html" target="_top" xlink:title=" ">
<polygon fill="none" stroke="black" points="763.5,-112.5 763.5,-131.5 855.5,-131.5 855.5,-112.5 763.5,-112.5"/>
<text text-anchor="middle" x="809.5" y="-119.5" font-family="Helvetica,sans-Serif" font-size="10.00">AnalogSensor.h</text>
</a>
</g>
</g>
<!-- Node1&#45;&gt;Node5 -->
<g id="edge6" class="edge">
<title>Node1&#45;&gt;Node5</title>
<path fill="none" stroke="midnightblue" d="M577.7,-170.59C622.19,-161.46 704.37,-144.59 757.97,-133.58"/>
<polygon fill="midnightblue" stroke="midnightblue" points="758.87,-136.97 767.96,-131.53 757.46,-130.11 758.87,-136.97"/>
</g>
<!-- Node7 -->
<g id="node7" class="node">
<title>Node7</title>
<g id="a_node7"><a xlink:href="BME680Sensor_8h.html" target="_top" xlink:title=" ">
<polygon fill="none" stroke="black" points="1210.5,-112.5 1210.5,-131.5 1308.5,-131.5 1308.5,-112.5 1210.5,-112.5"/>
<text text-anchor="middle" x="1259.5" y="-119.5" font-family="Helvetica,sans-Serif" font-size="10.00">BME680Sensor.h</text>
</a>
</g>
</g>
<!-- Node1&#45;&gt;Node7 -->
<g id="edge10" class="edge">
<title>Node1&#45;&gt;Node7</title>
<path fill="none" stroke="midnightblue" d="M577.6,-174.64C687.01,-166.36 1055.4,-138.46 1200.28,-127.49"/>
<polygon fill="midnightblue" stroke="midnightblue" points="1200.61,-130.97 1210.31,-126.73 1200.08,-123.99 1200.61,-130.97"/>
</g>
<!-- Node12 -->
<g id="node12" class="node">
<title>Node12</title>
<g id="a_node12"><a xlink:href="GeigerSensor_8h.html" target="_top" xlink:title=" ">
<polygon fill="none" stroke="black" points="281.5,-112.5 281.5,-131.5 371.5,-131.5 371.5,-112.5 281.5,-112.5"/>
<text text-anchor="middle" x="326.5" y="-119.5" font-family="Helvetica,sans-Serif" font-size="10.00">GeigerSensor.h</text>
</a>
</g>
</g>
<!-- Node1&#45;&gt;Node12 -->
<g id="edge17" class="edge">
<title>Node1&#45;&gt;Node12</title>
<path fill="none" stroke="midnightblue" d="M515.45,-169.38C477.84,-160.15 414.2,-144.53 371.29,-133.99"/>
<polygon fill="midnightblue" stroke="midnightblue" points="371.94,-130.55 361.39,-131.56 370.27,-137.35 371.94,-130.55"/>
</g>
<!-- Node13 -->
<g id="node13" class="node">
<title>Node13</title>
<g id="a_node13"><a xlink:href="INA260Sensor_8h.html" target="_top" xlink:title=" ">
<polygon fill="none" stroke="black" points="390,-112.5 390,-131.5 483,-131.5 483,-112.5 390,-112.5"/>
<text text-anchor="middle" x="436.5" y="-119.5" font-family="Helvetica,sans-Serif" font-size="10.00">INA260Sensor.h</text>
</a>
</g>
</g>
<!-- Node1&#45;&gt;Node13 -->
<g id="edge20" class="edge">
<title>Node1&#45;&gt;Node13</title>
<path fill="none" stroke="midnightblue" d="M528.83,-168.32C511.11,-159.62 483.6,-146.12 463.21,-136.11"/>
<polygon fill="midnightblue" stroke="midnightblue" points="464.65,-132.92 454.13,-131.65 461.56,-139.2 464.65,-132.92"/>
</g>
<!-- Node15 -->
<g id="node15" class="node">
<title>Node15</title>
<g id="a_node15"><a xlink:href="LSM9DS1Sensor_8h.html" target="_top" xlink:title=" ">
<polygon fill="none" stroke="black" points="641.5,-112.5 641.5,-131.5 745.5,-131.5 745.5,-112.5 641.5,-112.5"/>
<text text-anchor="middle" x="693.5" y="-119.5" font-family="Helvetica,sans-Serif" font-size="10.00">LSM9DS1Sensor.h</text>
</a>
</g>
</g>
<!-- Node1&#45;&gt;Node15 -->
<g id="edge25" class="edge">
<title>Node1&#45;&gt;Node15</title>
<path fill="none" stroke="midnightblue" d="M569.79,-168.44C594.31,-159.44 633.1,-145.19 660.7,-135.05"/>
<polygon fill="midnightblue" stroke="midnightblue" points="662.14,-138.25 670.32,-131.52 659.72,-131.68 662.14,-138.25"/>
</g>
<!-- Node17 -->
<g id="node17" class="node">
<title>Node17</title>
<g id="a_node17"><a xlink:href="SGP30Sensor_8h.html" target="_top" xlink:title=" ">
<polygon fill="none" stroke="black" points="1421,-112.5 1421,-131.5 1510,-131.5 1510,-112.5 1421,-112.5"/>
<text text-anchor="middle" x="1465.5" y="-119.5" font-family="Helvetica,sans-Serif" font-size="10.00">SGP30Sensor.h</text>
</a>
</g>
</g>
<!-- Node1&#45;&gt;Node17 -->
<g id="edge29" class="edge">
<title>Node1&#45;&gt;Node17</title>
<path fill="none" stroke="midnightblue" d="M577.71,-175.21C682.32,-169.19 1030.07,-149.13 1317.5,-132 1348.26,-130.17 1382.61,-128.08 1410.47,-126.38"/>
<polygon fill="midnightblue" stroke="midnightblue" points="1411.05,-129.85 1420.81,-125.75 1410.62,-122.86 1411.05,-129.85"/>
</g>
<!-- Node20 -->
<g id="node20" class="node">
<title>Node20</title>
<g id="a_node20"><a xlink:href="SHT31Sensor_8h.html" target="_top" xlink:title=" ">
<polygon fill="none" stroke="black" points="874,-112.5 874,-131.5 963,-131.5 963,-112.5 874,-112.5"/>
<text text-anchor="middle" x="918.5" y="-119.5" font-family="Helvetica,sans-Serif" font-size="10.00">SHT31Sensor.h</text>
</a>
</g>
</g>
<!-- Node1&#45;&gt;Node20 -->
<g id="edge35" class="edge">
<title>Node1&#45;&gt;Node20</title>
<path fill="none" stroke="midnightblue" d="M577.68,-172.85C633.02,-165.42 752.26,-149.16 863.66,-132.1"/>
<polygon fill="midnightblue" stroke="midnightblue" points="864.37,-135.53 873.72,-130.55 863.31,-128.61 864.37,-135.53"/>
</g>
<!-- Node22 -->
<g id="node22" class="node">
<title>Node22</title>
<g id="a_node22"><a xlink:href="TempSensor_8h.html" target="_top" xlink:title=" ">
<polygon fill="none" stroke="black" points="539.5,-112.5 539.5,-131.5 623.5,-131.5 623.5,-112.5 539.5,-112.5"/>
<text text-anchor="middle" x="581.5" y="-119.5" font-family="Helvetica,sans-Serif" font-size="10.00">TempSensor.h</text>
</a>
</g>
</g>
<!-- Node1&#45;&gt;Node22 -->
<g id="edge41" class="edge">
<title>Node1&#45;&gt;Node22</title>
<path fill="none" stroke="midnightblue" d="M552.28,-168.08C557.17,-160.53 564.33,-149.49 570.33,-140.23"/>
<polygon fill="midnightblue" stroke="midnightblue" points="573.33,-142.05 575.83,-131.75 567.45,-138.24 573.33,-142.05"/>
</g>
<!-- Node23 -->
<g id="node23" class="node">
<title>Node23</title>
<g id="a_node23"><a xlink:href="ZOPT220Sensor_8h.html" target="_top" xlink:title=" ">
<polygon fill="none" stroke="black" points="980.5,-112.5 980.5,-131.5 1082.5,-131.5 1082.5,-112.5 980.5,-112.5"/>
<text text-anchor="middle" x="1031.5" y="-119.5" font-family="Helvetica,sans-Serif" font-size="10.00">ZOPT220Sensor.h</text>
</a>
</g>
</g>
<!-- Node1&#45;&gt;Node23 -->
<g id="edge43" class="edge">
<title>Node1&#45;&gt;Node23</title>
<path fill="none" stroke="midnightblue" d="M577.56,-174.21C646.44,-167.93 817.43,-151.75 970.31,-132.24"/>
<polygon fill="midnightblue" stroke="midnightblue" points="970.88,-135.69 980.35,-130.95 969.99,-128.75 970.88,-135.69"/>
</g>
<!-- Node25 -->
<g id="node25" class="node">
<title>Node25</title>
<g id="a_node25"><a xlink:href="RadioStorage_8h.html" target="_top" xlink:title=" ">
<polygon fill="none" stroke="black" points="0,-112.5 0,-131.5 91,-131.5 91,-112.5 0,-112.5"/>
<text text-anchor="middle" x="45.5" y="-119.5" font-family="Helvetica,sans-Serif" font-size="10.00">RadioStorage.h</text>
</a>
</g>
</g>
<!-- Node1&#45;&gt;Node25 -->
<g id="edge52" class="edge">
<title>Node1&#45;&gt;Node25</title>
<path fill="none" stroke="midnightblue" d="M515.43,-174.34C443.31,-168.05 258.98,-151.33 105.5,-132 104.03,-131.81 102.54,-131.62 101.04,-131.43"/>
<polygon fill="midnightblue" stroke="midnightblue" points="101.39,-127.94 91.01,-130.06 100.44,-134.88 101.39,-127.94"/>
</g>
<!-- Node26 -->
<g id="node26" class="node">
<title>Node26</title>
<g id="a_node26"><a xlink:href="SDStorage_8h.html" target="_top" xlink:title=" ">
<polygon fill="none" stroke="black" points="148,-112.5 148,-131.5 225,-131.5 225,-112.5 148,-112.5"/>
<text text-anchor="middle" x="186.5" y="-119.5" font-family="Helvetica,sans-Serif" font-size="10.00">SDStorage.h</text>
</a>
</g>
</g>
<!-- Node1&#45;&gt;Node26 -->
<g id="edge55" class="edge">
<title>Node1&#45;&gt;Node26</title>
<path fill="none" stroke="midnightblue" d="M515.09,-172.63C459.47,-164.85 340.06,-147.91 239.5,-132 238.2,-131.79 236.89,-131.59 235.56,-131.37"/>
<polygon fill="midnightblue" stroke="midnightblue" points="235.7,-127.85 225.27,-129.69 234.57,-134.76 235.7,-127.85"/>
</g>
<!-- Node3&#45;&gt;Node2 -->
<g id="edge3" class="edge">
<title>Node3&#45;&gt;Node2</title>
<path fill="none" stroke="midnightblue" d="M642.5,-56.08C642.5,-49.01 642.5,-38.86 642.5,-29.99"/>
<polygon fill="midnightblue" stroke="midnightblue" points="646,-29.75 642.5,-19.75 639,-29.75 646,-29.75"/>
</g>
<!-- Node4&#45;&gt;Node2 -->
<g id="edge5" class="edge">
<title>Node4&#45;&gt;Node2</title>
<path fill="none" stroke="midnightblue" d="M151.21,-57.64C154.34,-57.03 157.48,-56.47 160.5,-56 322.16,-30.81 516.68,-17.91 600.6,-13.17"/>
<polygon fill="midnightblue" stroke="midnightblue" points="600.96,-16.66 610.75,-12.61 600.57,-9.67 600.96,-16.66"/>
</g>
<!-- Node5&#45;&gt;Node2 -->
<g id="edge7" class="edge">
<title>Node5&#45;&gt;Node2</title>
<path fill="none" stroke="midnightblue" d="M790.46,-112.35C772.62,-103.95 745.5,-90.39 723.5,-76 700.33,-60.85 675.81,-40.48 659.9,-26.61"/>
<polygon fill="midnightblue" stroke="midnightblue" points="661.82,-23.64 652.01,-19.65 657.19,-28.89 661.82,-23.64"/>
</g>
<!-- Node5&#45;&gt;Node3 -->
<g id="edge9" class="edge">
<title>Node5&#45;&gt;Node3</title>
<path fill="none" stroke="midnightblue" d="M783.04,-112.44C754.82,-103.32 709.96,-88.81 678.53,-78.65"/>
<polygon fill="midnightblue" stroke="midnightblue" points="679.43,-75.26 668.84,-75.52 677.28,-81.92 679.43,-75.26"/>
</g>
<!-- Node6 -->
<g id="node6" class="node">
<title>Node6</title>
<g id="a_node6"><a xlink:title=" ">
<polygon fill="none" stroke="#bfbfbf" points="923,-56.5 923,-75.5 976,-75.5 976,-56.5 923,-56.5"/>
<text text-anchor="middle" x="949.5" y="-63.5" font-family="Helvetica,sans-Serif" font-size="10.00">string.h</text>
</a>
</g>
</g>
<!-- Node5&#45;&gt;Node6 -->
<g id="edge8" class="edge">
<title>Node5&#45;&gt;Node6</title>
<path fill="none" stroke="midnightblue" d="M831.68,-112.44C854.93,-103.48 891.65,-89.31 917.92,-79.18"/>
<polygon fill="midnightblue" stroke="midnightblue" points="919.35,-82.38 927.42,-75.52 916.83,-75.85 919.35,-82.38"/>
</g>
<!-- Node7&#45;&gt;Node3 -->
<g id="edge16" class="edge">
<title>Node7&#45;&gt;Node3</title>
<path fill="none" stroke="midnightblue" d="M1210.31,-116.69C1091.37,-106.28 790.02,-79.91 681.89,-70.45"/>
<polygon fill="midnightblue" stroke="midnightblue" points="682.01,-66.94 671.74,-69.56 681.4,-73.92 682.01,-66.94"/>
</g>
<!-- Node7&#45;&gt;Node6 -->
<g id="edge15" class="edge">
<title>Node7&#45;&gt;Node6</title>
<path fill="none" stroke="midnightblue" d="M1210.38,-112.44C1148.15,-101.6 1042.3,-83.17 986.48,-73.44"/>
<polygon fill="midnightblue" stroke="midnightblue" points="986.79,-69.94 976.34,-71.67 985.59,-76.84 986.79,-69.94"/>
</g>
<!-- Node8 -->
<g id="node8" class="node">
<title>Node8</title>
<g id="a_node8"><a xlink:title=" ">
<polygon fill="none" stroke="#bfbfbf" points="1204.5,-56.5 1204.5,-75.5 1314.5,-75.5 1314.5,-56.5 1204.5,-56.5"/>
<text text-anchor="middle" x="1259.5" y="-63.5" font-family="Helvetica,sans-Serif" font-size="10.00">Adafruit_BME680.h</text>
</a>
</g>
</g>
<!-- Node7&#45;&gt;Node8 -->
<g id="edge11" class="edge">
<title>Node7&#45;&gt;Node8</title>
<path fill="none" stroke="midnightblue" d="M1259.5,-112.08C1259.5,-105.01 1259.5,-94.86 1259.5,-85.99"/>
<polygon fill="midnightblue" stroke="midnightblue" points="1263,-85.75 1259.5,-75.75 1256,-85.75 1263,-85.75"/>
</g>
<!-- Node9 -->
<g id="node9" class="node">
<title>Node9</title>
<g id="a_node9"><a xlink:title=" ">
<polygon fill="none" stroke="#bfbfbf" points="1332.5,-56.5 1332.5,-75.5 1434.5,-75.5 1434.5,-56.5 1332.5,-56.5"/>
<text text-anchor="middle" x="1383.5" y="-63.5" font-family="Helvetica,sans-Serif" font-size="10.00">Adafruit_Sensor.h</text>
</a>
</g>
</g>
<!-- Node7&#45;&gt;Node9 -->
<g id="edge12" class="edge">
<title>Node7&#45;&gt;Node9</title>
<path fill="none" stroke="midnightblue" d="M1279.15,-112.44C1299.46,-103.6 1331.4,-89.69 1354.6,-79.59"/>
<polygon fill="midnightblue" stroke="midnightblue" points="1356.17,-82.72 1363.94,-75.52 1353.38,-76.3 1356.17,-82.72"/>
</g>
<!-- Node10 -->
<g id="node10" class="node">
<title>Node10</title>
<g id="a_node10"><a xlink:title=" ">
<polygon fill="none" stroke="#bfbfbf" points="1453,-56.5 1453,-75.5 1494,-75.5 1494,-56.5 1453,-56.5"/>
<text text-anchor="middle" x="1473.5" y="-63.5" font-family="Helvetica,sans-Serif" font-size="10.00">SPI.h</text>
</a>
</g>
</g>
<!-- Node7&#45;&gt;Node10 -->
<g id="edge13" class="edge">
<title>Node7&#45;&gt;Node10</title>
<path fill="none" stroke="midnightblue" d="M1297,-112.43C1332.25,-104.24 1386.68,-91.25 1443.08,-76"/>
<polygon fill="midnightblue" stroke="midnightblue" points="1444.15,-79.34 1452.88,-73.34 1442.32,-72.59 1444.15,-79.34"/>
</g>
<!-- Node11 -->
<g id="node11" class="node">
<title>Node11</title>
<g id="a_node11"><a xlink:title=" ">
<polygon fill="none" stroke="#bfbfbf" points="1026.5,-0.5 1026.5,-19.5 1074.5,-19.5 1074.5,-0.5 1026.5,-0.5"/>
<text text-anchor="middle" x="1050.5" y="-7.5" font-family="Helvetica,sans-Serif" font-size="10.00">Wire.h</text>
</a>
</g>
</g>
<!-- Node7&#45;&gt;Node11 -->
<g id="edge14" class="edge">
<title>Node7&#45;&gt;Node11</title>
<path fill="none" stroke="midnightblue" d="M1308.71,-119.11C1372.71,-115.51 1479.21,-105.17 1503.5,-76 1509.19,-69.17 1509.47,-62.59 1503.5,-56 1475.51,-25.09 1185.76,-14.56 1084.89,-11.82"/>
<polygon fill="midnightblue" stroke="midnightblue" points="1084.73,-8.31 1074.64,-11.55 1084.54,-15.31 1084.73,-8.31"/>
</g>
<!-- Node12&#45;&gt;Node2 -->
<g id="edge18" class="edge">
<title>Node12&#45;&gt;Node2</title>
<path fill="none" stroke="midnightblue" d="M320.28,-112.28C311.36,-98.61 297.48,-72.05 311.5,-56 348.55,-13.57 520,-9.62 600.52,-10.19"/>
<polygon fill="midnightblue" stroke="midnightblue" points="600.76,-13.69 610.79,-10.29 600.83,-6.69 600.76,-13.69"/>
</g>
<!-- Node12&#45;&gt;Node3 -->
<g id="edge19" class="edge">
<title>Node12&#45;&gt;Node3</title>
<path fill="none" stroke="midnightblue" d="M371.52,-113.62C374.9,-113.07 378.25,-112.53 381.5,-112 477.4,-96.41 504.32,-95.62 602.99,-76.19"/>
<polygon fill="midnightblue" stroke="midnightblue" points="603.96,-79.57 613.09,-74.19 602.6,-72.7 603.96,-79.57"/>
</g>
<!-- Node13&#45;&gt;Node2 -->
<g id="edge21" class="edge">
<title>Node13&#45;&gt;Node2</title>
<path fill="none" stroke="midnightblue" d="M438.86,-112.39C443.15,-98.38 453.57,-70.75 472.5,-56 509.59,-27.1 563.59,-16.69 600.72,-12.98"/>
<polygon fill="midnightblue" stroke="midnightblue" points="601.06,-16.46 610.72,-12.1 600.45,-9.49 601.06,-16.46"/>
</g>
<!-- Node13&#45;&gt;Node3 -->
<g id="edge24" class="edge">
<title>Node13&#45;&gt;Node3</title>
<path fill="none" stroke="midnightblue" d="M469.14,-112.44C505.59,-102.89 564.56,-87.43 603.43,-77.24"/>
<polygon fill="midnightblue" stroke="midnightblue" points="604.56,-80.56 613.34,-74.64 602.78,-73.79 604.56,-80.56"/>
</g>
<!-- Node13&#45;&gt;Node6 -->
<g id="edge22" class="edge">
<title>Node13&#45;&gt;Node6</title>
<path fill="none" stroke="midnightblue" d="M483.36,-116.5C498.41,-115.05 515.16,-113.45 530.5,-112 697.9,-96.14 743.89,-105.08 912.86,-76.05"/>
<polygon fill="midnightblue" stroke="midnightblue" points="913.59,-79.48 922.84,-74.32 912.39,-72.58 913.59,-79.48"/>
</g>
<!-- Node14 -->
<g id="node14" class="node">
<title>Node14</title>
<g id="a_node14"><a xlink:title=" ">
<polygon fill="none" stroke="#bfbfbf" points="320,-56.5 320,-75.5 425,-75.5 425,-56.5 320,-56.5"/>
<text text-anchor="middle" x="372.5" y="-63.5" font-family="Helvetica,sans-Serif" font-size="10.00">Adafruit_INA260.h</text>
</a>
</g>
</g>
<!-- Node13&#45;&gt;Node14 -->
<g id="edge23" class="edge">
<title>Node13&#45;&gt;Node14</title>
<path fill="none" stroke="midnightblue" d="M426.22,-112.32C416.66,-104.26 402.22,-92.08 390.72,-82.37"/>
<polygon fill="midnightblue" stroke="midnightblue" points="392.87,-79.61 382.97,-75.83 388.36,-84.96 392.87,-79.61"/>
</g>
<!-- Node15&#45;&gt;Node3 -->
<g id="edge28" class="edge">
<title>Node15&#45;&gt;Node3</title>
<path fill="none" stroke="midnightblue" d="M685.08,-112.08C677.65,-104.22 666.65,-92.57 657.69,-83.08"/>
<polygon fill="midnightblue" stroke="midnightblue" points="660.18,-80.62 650.76,-75.75 655.09,-85.42 660.18,-80.62"/>
</g>
<!-- Node15&#45;&gt;Node6 -->
<g id="edge27" class="edge">
<title>Node15&#45;&gt;Node6</title>
<path fill="none" stroke="midnightblue" d="M738.93,-112.45C781.53,-104.28 847.22,-91.27 912.7,-76.33"/>
<polygon fill="midnightblue" stroke="midnightblue" points="913.82,-79.67 922.78,-74.02 912.25,-72.85 913.82,-79.67"/>
</g>
<!-- Node16 -->
<g id="node16" class="node">
<title>Node16</title>
<g id="a_node16"><a xlink:title=" ">
<polygon fill="none" stroke="#bfbfbf" points="481.5,-56.5 481.5,-75.5 595.5,-75.5 595.5,-56.5 481.5,-56.5"/>
<text text-anchor="middle" x="538.5" y="-63.5" font-family="Helvetica,sans-Serif" font-size="10.00">Arduino_LSM9DS1.h</text>
</a>
</g>
</g>
<!-- Node15&#45;&gt;Node16 -->
<g id="edge26" class="edge">
<title>Node15&#45;&gt;Node16</title>
<path fill="none" stroke="midnightblue" d="M668.94,-112.44C642.98,-103.4 601.83,-89.06 572.7,-78.92"/>
<polygon fill="midnightblue" stroke="midnightblue" points="573.54,-75.5 562.95,-75.52 571.24,-82.11 573.54,-75.5"/>
</g>
<!-- Node17&#45;&gt;Node2 -->
<g id="edge30" class="edge">
<title>Node17&#45;&gt;Node2</title>
<path fill="none" stroke="midnightblue" d="M1477.02,-112.39C1493.47,-99.11 1519.97,-73.35 1503.5,-56 1489.23,-40.96 854.45,-18.24 684.17,-12.4"/>
<polygon fill="midnightblue" stroke="midnightblue" points="684.2,-8.9 674.09,-12.06 683.97,-15.9 684.2,-8.9"/>
</g>
<!-- Node17&#45;&gt;Node3 -->
<g id="edge34" class="edge">
<title>Node17&#45;&gt;Node3</title>
<path fill="none" stroke="midnightblue" d="M1420.96,-118.08C1275.98,-108.57 819.03,-78.58 681.83,-69.58"/>
<polygon fill="midnightblue" stroke="midnightblue" points="681.97,-66.08 671.77,-68.92 681.52,-73.07 681.97,-66.08"/>
</g>
<!-- Node17&#45;&gt;Node6 -->
<g id="edge32" class="edge">
<title>Node17&#45;&gt;Node6</title>
<path fill="none" stroke="midnightblue" d="M1420.61,-116.3C1320.03,-105.78 1078.23,-80.47 986.04,-70.82"/>
<polygon fill="midnightblue" stroke="midnightblue" points="986.38,-67.34 976.07,-69.78 985.65,-74.3 986.38,-67.34"/>
</g>
<!-- Node18 -->
<g id="node18" class="node">
<title>Node18</title>
<g id="a_node18"><a xlink:title=" ">
<polygon fill="none" stroke="#bfbfbf" points="1337,-0.5 1337,-19.5 1390,-19.5 1390,-0.5 1337,-0.5"/>
<text text-anchor="middle" x="1363.5" y="-7.5" font-family="Helvetica,sans-Serif" font-size="10.00">stdint.h</text>
</a>
</g>
</g>
<!-- Node17&#45;&gt;Node18 -->
<g id="edge31" class="edge">
<title>Node17&#45;&gt;Node18</title>
<path fill="none" stroke="midnightblue" d="M1507.51,-112.46C1547.03,-102.52 1597.02,-83.83 1574.5,-56 1553.02,-29.45 1455.09,-17.89 1400.52,-13.44"/>
<polygon fill="midnightblue" stroke="midnightblue" points="1400.45,-9.92 1390.21,-12.64 1399.91,-16.9 1400.45,-9.92"/>
</g>
<!-- Node19 -->
<g id="node19" class="node">
<title>Node19</title>
<g id="a_node19"><a xlink:title=" ">
<polygon fill="none" stroke="#bfbfbf" points="1627,-56.5 1627,-75.5 1728,-75.5 1728,-56.5 1627,-56.5"/>
<text text-anchor="middle" x="1677.5" y="-63.5" font-family="Helvetica,sans-Serif" font-size="10.00">Adafruit_SGP30.h</text>
</a>
</g>
</g>
<!-- Node17&#45;&gt;Node19 -->
<g id="edge33" class="edge">
<title>Node17&#45;&gt;Node19</title>
<path fill="none" stroke="midnightblue" d="M1499.09,-112.44C1535.69,-103.12 1594.34,-88.18 1634.33,-78"/>
<polygon fill="midnightblue" stroke="midnightblue" points="1635.24,-81.38 1644.07,-75.52 1633.51,-74.59 1635.24,-81.38"/>
</g>
<!-- Node20&#45;&gt;Node2 -->
<g id="edge36" class="edge">
<title>Node20&#45;&gt;Node2</title>
<path fill="none" stroke="midnightblue" d="M890.22,-112.45C862.88,-103.97 820.44,-90.22 784.5,-76 743.45,-59.77 697.18,-37.89 668.94,-24.12"/>
<polygon fill="midnightblue" stroke="midnightblue" points="670.25,-20.86 659.73,-19.6 667.17,-27.15 670.25,-20.86"/>
</g>
<!-- Node20&#45;&gt;Node3 -->
<g id="edge40" class="edge">
<title>Node20&#45;&gt;Node3</title>
<path fill="none" stroke="midnightblue" d="M874.77,-112.44C821.58,-102.04 732.62,-84.63 681.61,-74.65"/>
<polygon fill="midnightblue" stroke="midnightblue" points="682.12,-71.19 671.64,-72.7 680.78,-78.06 682.12,-71.19"/>
</g>
<!-- Node20&#45;&gt;Node6 -->
<g id="edge38" class="edge">
<title>Node20&#45;&gt;Node6</title>
<path fill="none" stroke="midnightblue" d="M923.62,-112.08C927.91,-104.61 934.16,-93.72 939.44,-84.52"/>
<polygon fill="midnightblue" stroke="midnightblue" points="942.53,-86.17 944.48,-75.75 936.46,-82.68 942.53,-86.17"/>
</g>
<!-- Node20&#45;&gt;Node11 -->
<g id="edge37" class="edge">
<title>Node20&#45;&gt;Node11</title>
<path fill="none" stroke="midnightblue" d="M873.62,-113.85C828.74,-104.82 769.81,-86.62 795.5,-56 823.29,-22.87 953.31,-14.12 1016.22,-11.82"/>
<polygon fill="midnightblue" stroke="midnightblue" points="1016.56,-15.31 1026.43,-11.48 1016.32,-8.31 1016.56,-15.31"/>
</g>
<!-- Node21 -->
<g id="node21" class="node">
<title>Node21</title>
<g id="a_node21"><a xlink:title=" ">
<polygon fill="none" stroke="#bfbfbf" points="804,-56.5 804,-75.5 905,-75.5 905,-56.5 804,-56.5"/>
<text text-anchor="middle" x="854.5" y="-63.5" font-family="Helvetica,sans-Serif" font-size="10.00">Adafruit_SHT31.h</text>
</a>
</g>
</g>
<!-- Node20&#45;&gt;Node21 -->
<g id="edge39" class="edge">
<title>Node20&#45;&gt;Node21</title>
<path fill="none" stroke="midnightblue" d="M908.22,-112.32C898.66,-104.26 884.22,-92.08 872.72,-82.37"/>
<polygon fill="midnightblue" stroke="midnightblue" points="874.87,-79.61 864.97,-75.83 870.36,-84.96 874.87,-79.61"/>
</g>
<!-- Node22&#45;&gt;Node3 -->
<g id="edge42" class="edge">
<title>Node22&#45;&gt;Node3</title>
<path fill="none" stroke="midnightblue" d="M591.3,-112.32C600.32,-104.34 613.91,-92.31 624.82,-82.65"/>
<polygon fill="midnightblue" stroke="midnightblue" points="627.35,-85.08 632.52,-75.83 622.71,-79.84 627.35,-85.08"/>
</g>
<!-- Node23&#45;&gt;Node2 -->
<g id="edge44" class="edge">
<title>Node23&#45;&gt;Node2</title>
<path fill="none" stroke="midnightblue" d="M1028,-112.06C1021.82,-97.58 1007.52,-69.28 985.5,-56 935.6,-25.91 764.29,-15.58 684.29,-12.34"/>
<polygon fill="midnightblue" stroke="midnightblue" points="684.21,-8.84 674.08,-11.95 683.94,-15.83 684.21,-8.84"/>
</g>
<!-- Node23&#45;&gt;Node3 -->
<g id="edge47" class="edge">
<title>Node23&#45;&gt;Node3</title>
<path fill="none" stroke="midnightblue" d="M980.34,-113.15C977.69,-112.75 975.06,-112.37 972.5,-112 867.55,-96.84 743.61,-80.31 681.75,-72.15"/>
<polygon fill="midnightblue" stroke="midnightblue" points="682.03,-68.65 671.66,-70.82 681.11,-75.59 682.03,-68.65"/>
</g>
<!-- Node23&#45;&gt;Node6 -->
<g id="edge46" class="edge">
<title>Node23&#45;&gt;Node6</title>
<path fill="none" stroke="midnightblue" d="M1018.33,-112.32C1005.65,-103.98 986.27,-91.21 971.29,-81.35"/>
<polygon fill="midnightblue" stroke="midnightblue" points="972.92,-78.23 962.64,-75.65 969.07,-84.08 972.92,-78.23"/>
</g>
<!-- Node23&#45;&gt;Node11 -->
<g id="edge45" class="edge">
<title>Node23&#45;&gt;Node11</title>
<path fill="none" stroke="midnightblue" d="M1032.99,-112.37C1036.06,-94.62 1043.13,-53.67 1047.29,-29.6"/>
<polygon fill="midnightblue" stroke="midnightblue" points="1050.76,-30.04 1049.02,-19.59 1043.86,-28.85 1050.76,-30.04"/>
</g>
<!-- Node24 -->
<g id="node24" class="node">
<title>Node24</title>
<g id="a_node24"><a xlink:href="ZOPT220x__Control_8h.html" target="_top" xlink:title=" ">
<polygon fill="none" stroke="black" points="1070.5,-56.5 1070.5,-75.5 1186.5,-75.5 1186.5,-56.5 1070.5,-56.5"/>
<text text-anchor="middle" x="1128.5" y="-63.5" font-family="Helvetica,sans-Serif" font-size="10.00">ZOPT220x_Control.h</text>
</a>
</g>
</g>
<!-- Node23&#45;&gt;Node24 -->
<g id="edge48" class="edge">
<title>Node23&#45;&gt;Node24</title>
<path fill="none" stroke="midnightblue" d="M1047.08,-112.32C1062.5,-103.74 1086.31,-90.49 1104.21,-80.52"/>
<polygon fill="midnightblue" stroke="midnightblue" points="1105.92,-83.58 1112.95,-75.65 1102.51,-77.46 1105.92,-83.58"/>
</g>
<!-- Node24&#45;&gt;Node2 -->
<g id="edge49" class="edge">
<title>Node24&#45;&gt;Node2</title>
<path fill="none" stroke="midnightblue" d="M1070.36,-58.54C970.97,-47.5 770.76,-25.25 684.08,-15.62"/>
<polygon fill="midnightblue" stroke="midnightblue" points="684.41,-12.14 674.08,-14.51 683.64,-19.09 684.41,-12.14"/>
</g>
<!-- Node24&#45;&gt;Node11 -->
<g id="edge50" class="edge">
<title>Node24&#45;&gt;Node11</title>
<path fill="none" stroke="midnightblue" d="M1115.97,-56.32C1103.91,-47.98 1085.47,-35.21 1071.23,-25.35"/>
<polygon fill="midnightblue" stroke="midnightblue" points="1073.22,-22.47 1063,-19.65 1069.23,-28.22 1073.22,-22.47"/>
</g>
<!-- Node24&#45;&gt;Node18 -->
<g id="edge51" class="edge">
<title>Node24&#45;&gt;Node18</title>
<path fill="none" stroke="midnightblue" d="M1165.74,-56.44C1209.83,-46.31 1282.81,-29.54 1326.7,-19.46"/>
<polygon fill="midnightblue" stroke="midnightblue" points="1327.71,-22.82 1336.67,-17.16 1326.14,-15.99 1327.71,-22.82"/>
</g>
<!-- Node25&#45;&gt;Node2 -->
<g id="edge53" class="edge">
<title>Node25&#45;&gt;Node2</title>
<path fill="none" stroke="midnightblue" d="M47.06,-112.48C50.2,-98.09 58.73,-69.24 78.5,-56 121.57,-27.15 477.11,-15.28 600.51,-12"/>
<polygon fill="midnightblue" stroke="midnightblue" points="600.79,-15.5 610.69,-11.74 600.6,-8.5 600.79,-15.5"/>
</g>
<!-- Node25&#45;&gt;Node4 -->
<g id="edge54" class="edge">
<title>Node25&#45;&gt;Node4</title>
<path fill="none" stroke="midnightblue" d="M57.39,-112.32C68.65,-104.11 85.79,-91.6 99.21,-81.81"/>
<polygon fill="midnightblue" stroke="midnightblue" points="101.38,-84.56 107.39,-75.83 97.25,-78.9 101.38,-84.56"/>
</g>
<!-- Node26&#45;&gt;Node4 -->
<g id="edge57" class="edge">
<title>Node26&#45;&gt;Node4</title>
<path fill="none" stroke="midnightblue" d="M175.74,-112.32C165.73,-104.26 150.61,-92.08 138.57,-82.37"/>
<polygon fill="midnightblue" stroke="midnightblue" points="140.44,-79.38 130.46,-75.83 136.05,-84.83 140.44,-79.38"/>
</g>
<!-- Node27 -->
<g id="node27" class="node">
<title>Node27</title>
<g id="a_node27"><a xlink:title=" ">
<polygon fill="none" stroke="#bfbfbf" points="169,-56.5 169,-75.5 208,-75.5 208,-56.5 169,-56.5"/>
<text text-anchor="middle" x="188.5" y="-63.5" font-family="Helvetica,sans-Serif" font-size="10.00">SD.h</text>
</a>
</g>
</g>
<!-- Node26&#45;&gt;Node27 -->
<g id="edge56" class="edge">
<title>Node26&#45;&gt;Node27</title>
<path fill="none" stroke="midnightblue" d="M186.83,-112.08C187.09,-105.01 187.47,-94.86 187.8,-85.99"/>
<polygon fill="midnightblue" stroke="midnightblue" points="191.3,-85.87 188.18,-75.75 184.31,-85.61 191.3,-85.87"/>
</g>
</g>
</svg>
