<?xml version="1.0" encoding="UTF-8" standalone="no"?>
<!DOCTYPE svg PUBLIC "-//W3C//DTD SVG 1.1//EN"
 "http://www.w3.org/Graphics/SVG/1.1/DTD/svg11.dtd">
<!-- Generated by graphviz version 2.43.0 (0)
 -->
<!-- Title: main.cpp Pages: 1 -->
<!--zoomable 196 -->
<svg id="main" version="1.1" xmlns="http://www.w3.org/2000/svg" xmlns:xlink="http://www.w3.org/1999/xlink" xml:space="preserve" onload="init(evt)">
<style type="text/css"><![CDATA[
.edge:hover path { stroke: red; }
.edge:hover polygon { stroke: red; fill: red; }
]]></style>
<script type="text/javascript"><![CDATA[
var edges = document.getElementsByTagName('g');
if (edges && edges.length) {
  for (var i=0;i<edges.length;i++) {
    if (edges[i].id.substr(0,4)=='edge') {
      edges[i].setAttribute('class','edge');
    }
  }
}
]]></script>
        <defs>
                <circle id="rim" cx="0" cy="0" r="7"/>
                <circle id="rim2" cx="0" cy="0" r="3.5"/>
                <g id="zoomPlus">
                        <use xlink:href="#rim" fill="#404040">
                                <set attributeName="fill" to="#808080" begin="zoomplus.mouseover" end="zoomplus.mouseout"/>
                        </use>
                        <path d="M-4,0h8M0,-4v8" fill="none" stroke="white" stroke-width="1.5" pointer-events="none"/>
                </g>
                <g id="zoomMin">
                        <use xlink:href="#rim" fill="#404040">
                                <set attributeName="fill" to="#808080" begin="zoomminus.mouseover" end="zoomminus.mouseout"/>
                        </use>
                        <path d="M-4,0h8" fill="none" stroke="white" stroke-width="1.5" pointer-events="none"/>
                </g>
                <g id="dirArrow">
                        <path fill="none" stroke="white" stroke-width="1.5" d="M0,-3.0v7 M-2.5,-0.5L0,-3.0L2.5,-0.5"/>
                </g>
               <g id="resetDef">
                       <use xlink:href="#rim2" fill="#404040">
                               <set attributeName="fill" to="#808080" begin="reset.mouseover" end="reset.mouseout"/>
                       </use>
               </g>
        </defs>

<script type="text/javascript">
var viewWidth = 2672;
var viewHeight = 196;
var sectionId = 'dynsection-0';
</script>
<script xlink:href="svgpan.js"/>
<svg id="graph" class="graph">
<g id="viewport">
<title>main.cpp</title>
<!-- Node1 -->
<g id="node1" class="node">
<title>Node1</title>
<g id="a_node1"><a xlink:title=" ">
<polygon fill="#bfbfbf" stroke="black" points="1019.5,-168.5 1019.5,-187.5 1081.5,-187.5 1081.5,-168.5 1019.5,-168.5"/>
<text text-anchor="middle" x="1050.5" y="-175.5" font-family="Helvetica,sans-Serif" font-size="10.00">main.cpp</text>
</a>
</g>
</g>
<!-- Node2 -->
<g id="node2" class="node">
<title>Node2</title>
<g id="a_node2"><a xlink:title=" ">
<polygon fill="none" stroke="#bfbfbf" points="503,-0.5 503,-19.5 566,-19.5 566,-0.5 503,-0.5"/>
<text text-anchor="middle" x="534.5" y="-7.5" font-family="Helvetica,sans-Serif" font-size="10.00">Arduino.h</text>
</a>
</g>
</g>
<!-- Node1&#45;&gt;Node2 -->
<g id="edge1" class="edge">
<title>Node1&#45;&gt;Node2</title>
<path fill="none" stroke="midnightblue" d="M1019.37,-176.61C922.84,-175.03 629.79,-167.38 542.5,-132 505.9,-117.16 490.48,-111.66 473.5,-76 463.53,-55.07 486.12,-36.37 506.58,-24.47"/>
<polygon fill="midnightblue" stroke="midnightblue" points="508.31,-27.51 515.41,-19.64 504.96,-21.36 508.31,-27.51"/>
</g>
<!-- Node3 -->
<g id="node3" class="node">
<title>Node3</title>
<g id="a_node3"><a xlink:href="ErrorDisplay_8h.html" target="_top" xlink:title=" ">
<polygon fill="none" stroke="black" points="57.5,-56.5 57.5,-75.5 141.5,-75.5 141.5,-56.5 57.5,-56.5"/>
<text text-anchor="middle" x="99.5" y="-63.5" font-family="Helvetica,sans-Serif" font-size="10.00">ErrorDisplay.h</text>
</a>
</g>
</g>
<!-- Node1&#45;&gt;Node3 -->
<g id="edge2" class="edge">
<title>Node1&#45;&gt;Node3</title>
<path fill="none" stroke="midnightblue" d="M1019.23,-176.71C871.33,-175.15 245.93,-166.58 166.5,-132 143.15,-121.83 123.22,-99.65 111.31,-84.04"/>
<polygon fill="midnightblue" stroke="midnightblue" points="113.98,-81.76 105.26,-75.75 108.32,-85.89 113.98,-81.76"/>
</g>
<!-- Node7 -->
<g id="node7" class="node">
<title>Node7</title>
<g id="a_node7"><a xlink:href="Sensor_8h.html" target="_top" xlink:title=" ">
<polygon fill="none" stroke="black" points="1153.5,-56.5 1153.5,-75.5 1211.5,-75.5 1211.5,-56.5 1153.5,-56.5"/>
<text text-anchor="middle" x="1182.5" y="-63.5" font-family="Helvetica,sans-Serif" font-size="10.00">Sensor.h</text>
</a>
</g>
</g>
<!-- Node1&#45;&gt;Node7 -->
<g id="edge7" class="edge">
<title>Node1&#45;&gt;Node7</title>
<path fill="none" stroke="midnightblue" d="M1081.76,-172.4C1122.6,-165.67 1190.65,-151.77 1205.5,-132 1216.23,-117.71 1206.62,-97.98 1196.75,-84.02"/>
<polygon fill="midnightblue" stroke="midnightblue" points="1199.3,-81.59 1190.43,-75.79 1193.75,-85.85 1199.3,-81.59"/>
</g>
<!-- Node8 -->
<g id="node8" class="node">
<title>Node8</title>
<g id="a_node8"><a xlink:href="Storage_8h.html" target="_top" xlink:title=" ">
<polygon fill="none" stroke="black" points="256,-56.5 256,-75.5 319,-75.5 319,-56.5 256,-56.5"/>
<text text-anchor="middle" x="287.5" y="-63.5" font-family="Helvetica,sans-Serif" font-size="10.00">Storage.h</text>
</a>
</g>
</g>
<!-- Node1&#45;&gt;Node8 -->
<g id="edge9" class="edge">
<title>Node1&#45;&gt;Node8</title>
<path fill="none" stroke="midnightblue" d="M1019.12,-177.31C884.05,-178.34 356.61,-179.3 301.5,-132 288.52,-120.86 285.87,-100.83 285.95,-85.94"/>
<polygon fill="midnightblue" stroke="midnightblue" points="289.46,-85.93 286.41,-75.79 282.46,-85.62 289.46,-85.93"/>
</g>
<!-- Node9 -->
<g id="node9" class="node">
<title>Node9</title>
<g id="a_node9"><a xlink:href="AS7331Sensor_8h.html" target="_top" xlink:title=" ">
<polygon fill="none" stroke="black" points="1253,-112.5 1253,-131.5 1348,-131.5 1348,-112.5 1253,-112.5"/>
<text text-anchor="middle" x="1300.5" y="-119.5" font-family="Helvetica,sans-Serif" font-size="10.00">AS7331Sensor.h</text>
</a>
</g>
</g>
<!-- Node1&#45;&gt;Node9 -->
<g id="edge11" class="edge">
<title>Node1&#45;&gt;Node9</title>
<path fill="none" stroke="midnightblue" d="M1081.66,-170.27C1124.15,-161.09 1200.74,-144.55 1251.1,-133.67"/>
<polygon fill="midnightblue" stroke="midnightblue" points="1252.08,-137.04 1261.12,-131.51 1250.6,-130.2 1252.08,-137.04"/>
</g>
<!-- Node13 -->
<g id="node13" class="node">
<title>Node13</title>
<g id="a_node13"><a xlink:href="BME280Sensor_8h.html" target="_top" xlink:title=" ">
<polygon fill="none" stroke="black" points="1472.5,-112.5 1472.5,-131.5 1570.5,-131.5 1570.5,-112.5 1472.5,-112.5"/>
<text text-anchor="middle" x="1521.5" y="-119.5" font-family="Helvetica,sans-Serif" font-size="10.00">BME280Sensor.h</text>
</a>
</g>
</g>
<!-- Node1&#45;&gt;Node13 -->
<g id="edge16" class="edge">
<title>Node1&#45;&gt;Node13</title>
<path fill="none" stroke="midnightblue" d="M1081.72,-174.13C1149.28,-167.8 1314.25,-151.74 1462.23,-132.26"/>
<polygon fill="midnightblue" stroke="midnightblue" points="1462.94,-135.69 1472.4,-130.91 1462.02,-128.75 1462.94,-135.69"/>
</g>
<!-- Node15 -->
<g id="node15" class="node">
<title>Node15</title>
<g id="a_node15"><a xlink:href="BME680Sensor_8h.html" target="_top" xlink:title=" ">
<polygon fill="none" stroke="black" points="1675.5,-112.5 1675.5,-131.5 1773.5,-131.5 1773.5,-112.5 1675.5,-112.5"/>
<text text-anchor="middle" x="1724.5" y="-119.5" font-family="Helvetica,sans-Serif" font-size="10.00">BME680Sensor.h</text>
</a>
</g>
</g>
<!-- Node1&#45;&gt;Node15 -->
<g id="edge19" class="edge">
<title>Node1&#45;&gt;Node15</title>
<path fill="none" stroke="midnightblue" d="M1081.66,-174.5C1186.35,-166.12 1526.67,-138.85 1665.11,-127.76"/>
<polygon fill="midnightblue" stroke="midnightblue" points="1665.43,-131.24 1675.12,-126.96 1664.87,-124.27 1665.43,-131.24"/>
</g>
<!-- Node19 -->
<g id="node19" class="node">
<title>Node19</title>
<g id="a_node19"><a xlink:href="DS3231Sensor_8h.html" target="_top" xlink:title=" ">
<polygon fill="none" stroke="black" points="2123,-112.5 2123,-131.5 2218,-131.5 2218,-112.5 2123,-112.5"/>
<text text-anchor="middle" x="2170.5" y="-119.5" font-family="Helvetica,sans-Serif" font-size="10.00">DS3231Sensor.h</text>
</a>
</g>
</g>
<!-- Node1&#45;&gt;Node19 -->
<g id="edge27" class="edge">
<title>Node1&#45;&gt;Node19</title>
<path fill="none" stroke="midnightblue" d="M1081.93,-177.01C1209.35,-176.78 1699.98,-173.18 2112.85,-132.05"/>
<polygon fill="midnightblue" stroke="midnightblue" points="2113.29,-135.52 2122.89,-131.04 2112.59,-128.56 2113.29,-135.52"/>
</g>
<!-- Node21 -->
<g id="node21" class="node">
<title>Node21</title>
<g id="a_node21"><a xlink:href="ENS160Sensor_8h.html" target="_top" xlink:title=" ">
<polygon fill="none" stroke="black" points="893,-112.5 893,-131.5 988,-131.5 988,-112.5 893,-112.5"/>
<text text-anchor="middle" x="940.5" y="-119.5" font-family="Helvetica,sans-Serif" font-size="10.00">ENS160Sensor.h</text>
</a>
</g>
</g>
<!-- Node1&#45;&gt;Node21 -->
<g id="edge30" class="edge">
<title>Node1&#45;&gt;Node21</title>
<path fill="none" stroke="midnightblue" d="M1032.83,-168.32C1015.11,-159.62 987.6,-146.12 967.21,-136.11"/>
<polygon fill="midnightblue" stroke="midnightblue" points="968.65,-132.92 958.13,-131.65 965.56,-139.2 968.65,-132.92"/>
</g>
<!-- Node23 -->
<g id="node23" class="node">
<title>Node23</title>
<g id="a_node23"><a xlink:href="GeigerSensor_8h.html" target="_top" xlink:title=" ">
<polygon fill="none" stroke="black" points="551.5,-112.5 551.5,-131.5 641.5,-131.5 641.5,-112.5 551.5,-112.5"/>
<text text-anchor="middle" x="596.5" y="-119.5" font-family="Helvetica,sans-Serif" font-size="10.00">GeigerSensor.h</text>
</a>
</g>
</g>
<!-- Node1&#45;&gt;Node23 -->
<g id="edge34" class="edge">
<title>Node1&#45;&gt;Node23</title>
<path fill="none" stroke="midnightblue" d="M1019.31,-174.06C953.46,-167.73 795.19,-151.88 651.85,-132.12"/>
<polygon fill="midnightblue" stroke="midnightblue" points="651.94,-128.6 641.55,-130.69 650.98,-135.53 651.94,-128.6"/>
</g>
<!-- Node24 -->
<g id="node24" class="node">
<title>Node24</title>
<g id="a_node24"><a xlink:href="ICM20948Sensor_8h.html" target="_top" xlink:title=" ">
<polygon fill="none" stroke="black" points="1998,-112.5 1998,-131.5 2105,-131.5 2105,-112.5 1998,-112.5"/>
<text text-anchor="middle" x="2051.5" y="-119.5" font-family="Helvetica,sans-Serif" font-size="10.00">ICM20948Sensor.h</text>
</a>
</g>
</g>
<!-- Node1&#45;&gt;Node24 -->
<g id="edge37" class="edge">
<title>Node1&#45;&gt;Node24</title>
<path fill="none" stroke="midnightblue" d="M1081.57,-176.02C1197.56,-172.23 1616.22,-157.52 1960.5,-132 1969.24,-131.35 1978.45,-130.56 1987.51,-129.73"/>
<polygon fill="midnightblue" stroke="midnightblue" points="1988.02,-133.2 1997.64,-128.77 1987.36,-126.23 1988.02,-133.2"/>
</g>
<!-- Node27 -->
<g id="node27" class="node">
<title>Node27</title>
<g id="a_node27"><a xlink:href="INA260Sensor_8h.html" target="_top" xlink:title=" ">
<polygon fill="none" stroke="black" points="782,-112.5 782,-131.5 875,-131.5 875,-112.5 782,-112.5"/>
<text text-anchor="middle" x="828.5" y="-119.5" font-family="Helvetica,sans-Serif" font-size="10.00">INA260Sensor.h</text>
</a>
</g>
</g>
<!-- Node1&#45;&gt;Node27 -->
<g id="edge44" class="edge">
<title>Node1&#45;&gt;Node27</title>
<path fill="none" stroke="midnightblue" d="M1019.16,-169.38C981.21,-160.15 917,-144.53 873.69,-133.99"/>
<polygon fill="midnightblue" stroke="midnightblue" points="874.25,-130.53 863.71,-131.56 872.6,-137.33 874.25,-130.53"/>
</g>
<!-- Node29 -->
<g id="node29" class="node">
<title>Node29</title>
<g id="a_node29"><a xlink:href="LSM9DS1Sensor_8h.html" target="_top" xlink:title=" ">
<polygon fill="none" stroke="black" points="1847.5,-112.5 1847.5,-131.5 1951.5,-131.5 1951.5,-112.5 1847.5,-112.5"/>
<text text-anchor="middle" x="1899.5" y="-119.5" font-family="Helvetica,sans-Serif" font-size="10.00">LSM9DS1Sensor.h</text>
</a>
</g>
</g>
<!-- Node1&#45;&gt;Node29 -->
<g id="edge49" class="edge">
<title>Node1&#45;&gt;Node29</title>
<path fill="none" stroke="midnightblue" d="M1081.55,-175.26C1182.56,-169.57 1511,-150.79 1782.5,-132 1800.25,-130.77 1819.52,-129.33 1837.19,-127.97"/>
<polygon fill="midnightblue" stroke="midnightblue" points="1837.69,-131.44 1847.39,-127.18 1837.14,-124.46 1837.69,-131.44"/>
</g>
<!-- Node31 -->
<g id="node31" class="node">
<title>Node31</title>
<g id="a_node31"><a xlink:href="MTK3339Sensor_8h.html" target="_top" xlink:title=" ">
<polygon fill="none" stroke="black" points="659.5,-112.5 659.5,-131.5 763.5,-131.5 763.5,-112.5 659.5,-112.5"/>
<text text-anchor="middle" x="711.5" y="-119.5" font-family="Helvetica,sans-Serif" font-size="10.00">MTK3339Sensor.h</text>
</a>
</g>
</g>
<!-- Node1&#45;&gt;Node31 -->
<g id="edge55" class="edge">
<title>Node1&#45;&gt;Node31</title>
<path fill="none" stroke="midnightblue" d="M1019.22,-172.02C963.48,-163.14 846.07,-144.44 773.48,-132.87"/>
<polygon fill="midnightblue" stroke="midnightblue" points="773.97,-129.41 763.54,-131.29 772.87,-136.32 773.97,-129.41"/>
</g>
<!-- Node33 -->
<g id="node33" class="node">
<title>Node33</title>
<g id="a_node33"><a xlink:href="SGP30Sensor_8h.html" target="_top" xlink:title=" ">
<polygon fill="none" stroke="black" points="1366,-112.5 1366,-131.5 1455,-131.5 1455,-112.5 1366,-112.5"/>
<text text-anchor="middle" x="1410.5" y="-119.5" font-family="Helvetica,sans-Serif" font-size="10.00">SGP30Sensor.h</text>
</a>
</g>
</g>
<!-- Node1&#45;&gt;Node33 -->
<g id="edge60" class="edge">
<title>Node1&#45;&gt;Node33</title>
<path fill="none" stroke="midnightblue" d="M1081.91,-172.63C1135.85,-165.09 1249.77,-148.92 1356.05,-132.2"/>
<polygon fill="midnightblue" stroke="midnightblue" points="1356.65,-135.65 1365.98,-130.64 1355.56,-128.74 1356.65,-135.65"/>
</g>
<!-- Node36 -->
<g id="node36" class="node">
<title>Node36</title>
<g id="a_node36"><a xlink:href="SHT31Sensor_8h.html" target="_top" xlink:title=" ">
<polygon fill="none" stroke="black" points="1006,-112.5 1006,-131.5 1095,-131.5 1095,-112.5 1006,-112.5"/>
<text text-anchor="middle" x="1050.5" y="-119.5" font-family="Helvetica,sans-Serif" font-size="10.00">SHT31Sensor.h</text>
</a>
</g>
</g>
<!-- Node1&#45;&gt;Node36 -->
<g id="edge66" class="edge">
<title>Node1&#45;&gt;Node36</title>
<path fill="none" stroke="midnightblue" d="M1050.5,-168.08C1050.5,-161.01 1050.5,-150.86 1050.5,-141.99"/>
<polygon fill="midnightblue" stroke="midnightblue" points="1054,-141.75 1050.5,-131.75 1047,-141.75 1054,-141.75"/>
</g>
<!-- Node38 -->
<g id="node38" class="node">
<title>Node38</title>
<g id="a_node38"><a xlink:href="TempSensor_8h.html" target="_top" xlink:title=" ">
<polygon fill="none" stroke="black" points="1112.5,-112.5 1112.5,-131.5 1196.5,-131.5 1196.5,-112.5 1112.5,-112.5"/>
<text text-anchor="middle" x="1154.5" y="-119.5" font-family="Helvetica,sans-Serif" font-size="10.00">TempSensor.h</text>
</a>
</g>
</g>
<!-- Node1&#45;&gt;Node38 -->
<g id="edge72" class="edge">
<title>Node1&#45;&gt;Node38</title>
<path fill="none" stroke="midnightblue" d="M1067.21,-168.32C1083.81,-159.7 1109.5,-146.36 1128.72,-136.39"/>
<polygon fill="midnightblue" stroke="midnightblue" points="1130.57,-139.37 1137.83,-131.65 1127.34,-133.16 1130.57,-139.37"/>
</g>
<!-- Node39 -->
<g id="node39" class="node">
<title>Node39</title>
<g id="a_node39"><a xlink:href="RadioStorage_8h.html" target="_top" xlink:title=" ">
<polygon fill="none" stroke="black" points="310,-112.5 310,-131.5 401,-131.5 401,-112.5 310,-112.5"/>
<text text-anchor="middle" x="355.5" y="-119.5" font-family="Helvetica,sans-Serif" font-size="10.00">RadioStorage.h</text>
</a>
</g>
</g>
<!-- Node1&#45;&gt;Node39 -->
<g id="edge74" class="edge">
<title>Node1&#45;&gt;Node39</title>
<path fill="none" stroke="midnightblue" d="M1019.37,-175.66C927.04,-171.49 646.74,-157.5 415.5,-132 414.2,-131.86 412.89,-131.71 411.57,-131.55"/>
<polygon fill="midnightblue" stroke="midnightblue" points="411.68,-128.04 401.31,-130.25 410.79,-134.98 411.68,-128.04"/>
</g>
<!-- Node40 -->
<g id="node40" class="node">
<title>Node40</title>
<g id="a_node40"><a xlink:href="SDStorage_8h.html" target="_top" xlink:title=" ">
<polygon fill="none" stroke="black" points="176,-112.5 176,-131.5 253,-131.5 253,-112.5 176,-112.5"/>
<text text-anchor="middle" x="214.5" y="-119.5" font-family="Helvetica,sans-Serif" font-size="10.00">SDStorage.h</text>
</a>
</g>
</g>
<!-- Node1&#45;&gt;Node40 -->
<g id="edge78" class="edge">
<title>Node1&#45;&gt;Node40</title>
<path fill="none" stroke="midnightblue" d="M1019.43,-176.45C913.78,-174.32 558.73,-164.99 267.5,-132 266.2,-131.85 264.88,-131.69 263.54,-131.53"/>
<polygon fill="midnightblue" stroke="midnightblue" points="263.6,-128 253.22,-130.08 262.64,-134.93 263.6,-128"/>
</g>
<!-- Node3&#45;&gt;Node2 -->
<g id="edge3" class="edge">
<title>Node3&#45;&gt;Node2</title>
<path fill="none" stroke="midnightblue" d="M141.77,-57.35C144.72,-56.87 147.65,-56.42 150.5,-56 274.31,-37.84 421.44,-22.26 492.27,-15.14"/>
<polygon fill="midnightblue" stroke="midnightblue" points="492.96,-18.59 502.56,-14.11 492.26,-11.62 492.96,-18.59"/>
</g>
<!-- Node4 -->
<g id="node4" class="node">
<title>Node4</title>
<g id="a_node4"><a xlink:href="PayloadConfig_8h.html" target="_top" xlink:title=" ">
<polygon fill="none" stroke="black" points="1204,-0.5 1204,-19.5 1299,-19.5 1299,-0.5 1204,-0.5"/>
<text text-anchor="middle" x="1251.5" y="-7.5" font-family="Helvetica,sans-Serif" font-size="10.00">PayloadConfig.h</text>
</a>
</g>
</g>
<!-- Node3&#45;&gt;Node4 -->
<g id="edge4" class="edge">
<title>Node3&#45;&gt;Node4</title>
<path fill="none" stroke="midnightblue" d="M141.74,-57.1C144.7,-56.68 147.64,-56.31 150.5,-56 547.61,-13.04 1029.33,-10.22 1193.5,-10.64"/>
<polygon fill="midnightblue" stroke="midnightblue" points="1193.84,-14.14 1203.85,-10.68 1193.86,-7.14 1193.84,-14.14"/>
</g>
<!-- Node5 -->
<g id="node5" class="node">
<title>Node5</title>
<g id="a_node5"><a xlink:title=" ">
<polygon fill="none" stroke="#bfbfbf" points="0,-0.5 0,-19.5 95,-19.5 95,-0.5 0,-0.5"/>
<text text-anchor="middle" x="47.5" y="-7.5" font-family="Helvetica,sans-Serif" font-size="10.00">pico/multicore.h</text>
</a>
</g>
</g>
<!-- Node3&#45;&gt;Node5 -->
<g id="edge5" class="edge">
<title>Node3&#45;&gt;Node5</title>
<path fill="none" stroke="midnightblue" d="M90.91,-56.08C83.34,-48.22 72.12,-36.57 62.99,-27.08"/>
<polygon fill="midnightblue" stroke="midnightblue" points="65.38,-24.53 55.93,-19.75 60.34,-29.38 65.38,-24.53"/>
</g>
<!-- Node6 -->
<g id="node6" class="node">
<title>Node6</title>
<g id="a_node6"><a xlink:title=" ">
<polygon fill="none" stroke="#bfbfbf" points="113.5,-0.5 113.5,-19.5 189.5,-19.5 189.5,-0.5 113.5,-0.5"/>
<text text-anchor="middle" x="151.5" y="-7.5" font-family="Helvetica,sans-Serif" font-size="10.00">pico/stdlib.h</text>
</a>
</g>
</g>
<!-- Node3&#45;&gt;Node6 -->
<g id="edge6" class="edge">
<title>Node3&#45;&gt;Node6</title>
<path fill="none" stroke="midnightblue" d="M108.09,-56.08C115.66,-48.22 126.88,-36.57 136.01,-27.08"/>
<polygon fill="midnightblue" stroke="midnightblue" points="138.66,-29.38 143.07,-19.75 133.62,-24.53 138.66,-29.38"/>
</g>
<!-- Node7&#45;&gt;Node2 -->
<g id="edge8" class="edge">
<title>Node7&#45;&gt;Node2</title>
<path fill="none" stroke="midnightblue" d="M1153.13,-57.56C1150.23,-56.97 1147.31,-56.43 1144.5,-56 932.62,-23.31 675.54,-14.19 576.33,-11.8"/>
<polygon fill="midnightblue" stroke="midnightblue" points="576.21,-8.3 566.13,-11.56 576.04,-15.29 576.21,-8.3"/>
</g>
<!-- Node8&#45;&gt;Node2 -->
<g id="edge10" class="edge">
<title>Node8&#45;&gt;Node2</title>
<path fill="none" stroke="midnightblue" d="M319.03,-58.11C363.23,-48.44 443.68,-30.86 492.79,-20.12"/>
<polygon fill="midnightblue" stroke="midnightblue" points="493.74,-23.49 502.76,-17.94 492.25,-16.65 493.74,-23.49"/>
</g>
<!-- Node9&#45;&gt;Node7 -->
<g id="edge15" class="edge">
<title>Node9&#45;&gt;Node7</title>
<path fill="none" stroke="midnightblue" d="M1281.8,-112.44C1262.56,-103.64 1232.35,-89.81 1210.3,-79.72"/>
<polygon fill="midnightblue" stroke="midnightblue" points="1211.66,-76.5 1201.11,-75.52 1208.75,-82.86 1211.66,-76.5"/>
</g>
<!-- Node10 -->
<g id="node10" class="node">
<title>Node10</title>
<g id="a_node10"><a xlink:title=" ">
<polygon fill="none" stroke="#bfbfbf" points="1230,-56.5 1230,-75.5 1343,-75.5 1343,-56.5 1230,-56.5"/>
<text text-anchor="middle" x="1286.5" y="-63.5" font-family="Helvetica,sans-Serif" font-size="10.00">SparkFun_AS7331.h</text>
</a>
</g>
</g>
<!-- Node9&#45;&gt;Node10 -->
<g id="edge12" class="edge">
<title>Node9&#45;&gt;Node10</title>
<path fill="none" stroke="midnightblue" d="M1298.19,-112.08C1296.33,-104.93 1293.66,-94.64 1291.35,-85.69"/>
<polygon fill="midnightblue" stroke="midnightblue" points="1294.67,-84.55 1288.77,-75.75 1287.89,-86.31 1294.67,-84.55"/>
</g>
<!-- Node11 -->
<g id="node11" class="node">
<title>Node11</title>
<g id="a_node11"><a xlink:title=" ">
<polygon fill="none" stroke="#bfbfbf" points="1087.5,-56.5 1087.5,-75.5 1135.5,-75.5 1135.5,-56.5 1087.5,-56.5"/>
<text text-anchor="middle" x="1111.5" y="-63.5" font-family="Helvetica,sans-Serif" font-size="10.00">Wire.h</text>
</a>
</g>
</g>
<!-- Node9&#45;&gt;Node11 -->
<g id="edge13" class="edge">
<title>Node9&#45;&gt;Node11</title>
<path fill="none" stroke="midnightblue" d="M1270.55,-112.44C1236.54,-102.73 1181.16,-86.9 1145.54,-76.73"/>
<polygon fill="midnightblue" stroke="midnightblue" points="1146.19,-73.27 1135.61,-73.89 1144.26,-80 1146.19,-73.27"/>
</g>
<!-- Node12 -->
<g id="node12" class="node">
<title>Node12</title>
<g id="a_node12"><a xlink:title=" ">
<polygon fill="none" stroke="#bfbfbf" points="1432,-56.5 1432,-75.5 1485,-75.5 1485,-56.5 1432,-56.5"/>
<text text-anchor="middle" x="1458.5" y="-63.5" font-family="Helvetica,sans-Serif" font-size="10.00">string.h</text>
</a>
</g>
</g>
<!-- Node9&#45;&gt;Node12 -->
<g id="edge14" class="edge">
<title>Node9&#45;&gt;Node12</title>
<path fill="none" stroke="midnightblue" d="M1325.54,-112.44C1352.12,-103.36 1394.31,-88.94 1424.02,-78.78"/>
<polygon fill="midnightblue" stroke="midnightblue" points="1425.25,-82.06 1433.58,-75.52 1422.99,-75.44 1425.25,-82.06"/>
</g>
<!-- Node13&#45;&gt;Node7 -->
<g id="edge17" class="edge">
<title>Node13&#45;&gt;Node7</title>
<path fill="none" stroke="midnightblue" d="M1472.38,-113.21C1469.71,-112.8 1467.07,-112.39 1464.5,-112 1359.74,-95.97 1330.47,-96.26 1221.89,-75.93"/>
<polygon fill="midnightblue" stroke="midnightblue" points="1222.31,-72.45 1211.83,-74.03 1221.01,-79.33 1222.31,-72.45"/>
</g>
<!-- Node14 -->
<g id="node14" class="node">
<title>Node14</title>
<g id="a_node14"><a xlink:title=" ">
<polygon fill="none" stroke="#bfbfbf" points="1660.5,-56.5 1660.5,-75.5 1770.5,-75.5 1770.5,-56.5 1660.5,-56.5"/>
<text text-anchor="middle" x="1715.5" y="-63.5" font-family="Helvetica,sans-Serif" font-size="10.00">SparkFunBME280.h</text>
</a>
</g>
</g>
<!-- Node13&#45;&gt;Node14 -->
<g id="edge18" class="edge">
<title>Node13&#45;&gt;Node14</title>
<path fill="none" stroke="midnightblue" d="M1552.24,-112.44C1585.44,-103.2 1638.49,-88.44 1675.06,-78.26"/>
<polygon fill="midnightblue" stroke="midnightblue" points="1676.21,-81.57 1684.9,-75.52 1674.33,-74.83 1676.21,-81.57"/>
</g>
<!-- Node15&#45;&gt;Node4 -->
<g id="edge25" class="edge">
<title>Node15&#45;&gt;Node4</title>
<path fill="none" stroke="midnightblue" d="M1740.92,-112.4C1763,-99.77 1797.5,-75.6 1779.5,-56 1748.18,-21.9 1439.65,-13.6 1309.23,-11.62"/>
<polygon fill="midnightblue" stroke="midnightblue" points="1309.09,-8.11 1299.04,-11.47 1308.98,-15.11 1309.09,-8.11"/>
</g>
<!-- Node15&#45;&gt;Node7 -->
<g id="edge26" class="edge">
<title>Node15&#45;&gt;Node7</title>
<path fill="none" stroke="midnightblue" d="M1675.25,-117.46C1570,-109.77 1325.07,-91.09 1221.92,-75.78"/>
<polygon fill="midnightblue" stroke="midnightblue" points="1222.22,-72.29 1211.8,-74.22 1221.15,-79.21 1222.22,-72.29"/>
</g>
<!-- Node15&#45;&gt;Node11 -->
<g id="edge23" class="edge">
<title>Node15&#45;&gt;Node11</title>
<path fill="none" stroke="midnightblue" d="M1675.49,-117.73C1551.22,-109.37 1228.36,-87.18 1145.9,-75.73"/>
<polygon fill="midnightblue" stroke="midnightblue" points="1145.95,-72.19 1135.53,-74.12 1144.88,-79.11 1145.95,-72.19"/>
</g>
<!-- Node15&#45;&gt;Node12 -->
<g id="edge24" class="edge">
<title>Node15&#45;&gt;Node12</title>
<path fill="none" stroke="midnightblue" d="M1677.22,-112.49C1632.8,-104.33 1564.25,-91.31 1495.36,-76.1"/>
<polygon fill="midnightblue" stroke="midnightblue" points="1495.72,-72.59 1485.2,-73.84 1494.2,-79.43 1495.72,-72.59"/>
</g>
<!-- Node16 -->
<g id="node16" class="node">
<title>Node16</title>
<g id="a_node16"><a xlink:title=" ">
<polygon fill="none" stroke="#bfbfbf" points="1826.5,-56.5 1826.5,-75.5 1936.5,-75.5 1936.5,-56.5 1826.5,-56.5"/>
<text text-anchor="middle" x="1881.5" y="-63.5" font-family="Helvetica,sans-Serif" font-size="10.00">Adafruit_BME680.h</text>
</a>
</g>
</g>
<!-- Node15&#45;&gt;Node16 -->
<g id="edge20" class="edge">
<title>Node15&#45;&gt;Node16</title>
<path fill="none" stroke="midnightblue" d="M1749.38,-112.44C1775.79,-103.36 1817.72,-88.94 1847.24,-78.78"/>
<polygon fill="midnightblue" stroke="midnightblue" points="1848.42,-82.08 1856.74,-75.52 1846.14,-75.46 1848.42,-82.08"/>
</g>
<!-- Node17 -->
<g id="node17" class="node">
<title>Node17</title>
<g id="a_node17"><a xlink:title=" ">
<polygon fill="none" stroke="#bfbfbf" points="2014.5,-56.5 2014.5,-75.5 2116.5,-75.5 2116.5,-56.5 2014.5,-56.5"/>
<text text-anchor="middle" x="2065.5" y="-63.5" font-family="Helvetica,sans-Serif" font-size="10.00">Adafruit_Sensor.h</text>
</a>
</g>
</g>
<!-- Node15&#45;&gt;Node17 -->
<g id="edge21" class="edge">
<title>Node15&#45;&gt;Node17</title>
<path fill="none" stroke="midnightblue" d="M1773.72,-113.21C1834.56,-103.57 1938.11,-87.17 2004.09,-76.72"/>
<polygon fill="midnightblue" stroke="midnightblue" points="2005.01,-80.12 2014.34,-75.1 2003.92,-73.21 2005.01,-80.12"/>
</g>
<!-- Node18 -->
<g id="node18" class="node">
<title>Node18</title>
<g id="a_node18"><a xlink:title=" ">
<polygon fill="none" stroke="#bfbfbf" points="1955,-56.5 1955,-75.5 1996,-75.5 1996,-56.5 1955,-56.5"/>
<text text-anchor="middle" x="1975.5" y="-63.5" font-family="Helvetica,sans-Serif" font-size="10.00">SPI.h</text>
</a>
</g>
</g>
<!-- Node15&#45;&gt;Node18 -->
<g id="edge22" class="edge">
<title>Node15&#45;&gt;Node18</title>
<path fill="none" stroke="midnightblue" d="M1772.64,-112.5C1815.4,-104.66 1879.78,-92.14 1944.88,-75.96"/>
<polygon fill="midnightblue" stroke="midnightblue" points="1946.07,-79.28 1954.91,-73.44 1944.36,-72.49 1946.07,-79.28"/>
</g>
<!-- Node19&#45;&gt;Node7 -->
<g id="edge29" class="edge">
<title>Node19&#45;&gt;Node7</title>
<path fill="none" stroke="midnightblue" d="M2122.89,-112.95C2120.06,-112.6 2117.24,-112.27 2114.5,-112 1722.55,-72.74 1616.92,-127.96 1221.76,-75.71"/>
<polygon fill="midnightblue" stroke="midnightblue" points="1222.16,-72.23 1211.78,-74.37 1221.23,-79.17 1222.16,-72.23"/>
</g>
<!-- Node20 -->
<g id="node20" class="node">
<title>Node20</title>
<g id="a_node20"><a xlink:title=" ">
<polygon fill="none" stroke="#bfbfbf" points="2607.5,-56.5 2607.5,-75.5 2663.5,-75.5 2663.5,-56.5 2607.5,-56.5"/>
<text text-anchor="middle" x="2635.5" y="-63.5" font-family="Helvetica,sans-Serif" font-size="10.00">RTClib.h</text>
</a>
</g>
</g>
<!-- Node19&#45;&gt;Node20 -->
<g id="edge28" class="edge">
<title>Node19&#45;&gt;Node20</title>
<path fill="none" stroke="midnightblue" d="M2218.29,-118.07C2295.82,-112.86 2453.94,-100.35 2597.02,-76.04"/>
<polygon fill="midnightblue" stroke="midnightblue" points="2598.04,-79.42 2607.3,-74.27 2596.85,-72.52 2598.04,-79.42"/>
</g>
<!-- Node21&#45;&gt;Node7 -->
<g id="edge32" class="edge">
<title>Node21&#45;&gt;Node7</title>
<path fill="none" stroke="midnightblue" d="M980.03,-112.47C1019.07,-104 1080.74,-90.52 1143.4,-76.23"/>
<polygon fill="midnightblue" stroke="midnightblue" points="1144.5,-79.57 1153.46,-73.93 1142.94,-72.74 1144.5,-79.57"/>
</g>
<!-- Node21&#45;&gt;Node11 -->
<g id="edge31" class="edge">
<title>Node21&#45;&gt;Node11</title>
<path fill="none" stroke="midnightblue" d="M967.6,-112.44C997.34,-103.05 1045.14,-87.96 1077.41,-77.77"/>
<polygon fill="midnightblue" stroke="midnightblue" points="1078.81,-80.99 1087.3,-74.64 1076.71,-74.32 1078.81,-80.99"/>
</g>
<!-- Node22 -->
<g id="node22" class="node">
<title>Node22</title>
<g id="a_node22"><a xlink:title=" ">
<polygon fill="none" stroke="#bfbfbf" points="798,-56.5 798,-75.5 911,-75.5 911,-56.5 798,-56.5"/>
<text text-anchor="middle" x="854.5" y="-63.5" font-family="Helvetica,sans-Serif" font-size="10.00">SparkFun_ENS160.h</text>
</a>
</g>
</g>
<!-- Node21&#45;&gt;Node22 -->
<g id="edge33" class="edge">
<title>Node21&#45;&gt;Node22</title>
<path fill="none" stroke="midnightblue" d="M926.68,-112.32C913.27,-103.9 892.68,-90.97 876.91,-81.07"/>
<polygon fill="midnightblue" stroke="midnightblue" points="878.61,-78.01 868.28,-75.65 874.89,-83.94 878.61,-78.01"/>
</g>
<!-- Node23&#45;&gt;Node2 -->
<g id="edge35" class="edge">
<title>Node23&#45;&gt;Node2</title>
<path fill="none" stroke="midnightblue" d="M551.48,-115.69C526.4,-110.18 497.15,-98.93 481.5,-76 468.9,-57.54 490.46,-37.85 509.75,-25.04"/>
<polygon fill="midnightblue" stroke="midnightblue" points="511.71,-27.94 518.32,-19.67 507.99,-22.01 511.71,-27.94"/>
</g>
<!-- Node23&#45;&gt;Node7 -->
<g id="edge36" class="edge">
<title>Node23&#45;&gt;Node7</title>
<path fill="none" stroke="midnightblue" d="M641.54,-113.17C644.57,-112.75 647.57,-112.35 650.5,-112 865.77,-86.27 925.13,-108.77 1142.98,-76"/>
<polygon fill="midnightblue" stroke="midnightblue" points="1143.78,-79.41 1153.13,-74.45 1142.72,-72.49 1143.78,-79.41"/>
</g>
<!-- Node24&#45;&gt;Node4 -->
<g id="edge42" class="edge">
<title>Node24&#45;&gt;Node4</title>
<path fill="none" stroke="midnightblue" d="M2102.11,-112.49C2166.46,-101.44 2269.98,-82.74 2275.5,-76 2281.13,-69.12 2281.65,-62.42 2275.5,-56 2241.92,-20.92 1520.91,-12.94 1309.36,-11.36"/>
<polygon fill="midnightblue" stroke="midnightblue" points="1309.11,-7.86 1299.08,-11.28 1309.06,-14.86 1309.11,-7.86"/>
</g>
<!-- Node24&#45;&gt;Node7 -->
<g id="edge43" class="edge">
<title>Node24&#45;&gt;Node7</title>
<path fill="none" stroke="midnightblue" d="M1997.65,-115.23C1985.44,-114.04 1972.53,-112.89 1960.5,-112 1635.92,-88.06 1549,-120.47 1222.02,-75.76"/>
<polygon fill="midnightblue" stroke="midnightblue" points="1222.17,-72.25 1211.78,-74.35 1221.21,-79.18 1222.17,-72.25"/>
</g>
<!-- Node24&#45;&gt;Node12 -->
<g id="edge41" class="edge">
<title>Node24&#45;&gt;Node12</title>
<path fill="none" stroke="midnightblue" d="M1997.62,-115.48C1985.42,-114.28 1972.52,-113.06 1960.5,-112 1756.81,-94.06 1701.27,-108.83 1495.07,-75.8"/>
<polygon fill="midnightblue" stroke="midnightblue" points="1495.56,-72.33 1485.13,-74.19 1494.44,-79.24 1495.56,-72.33"/>
</g>
<!-- Node24&#45;&gt;Node17 -->
<g id="edge40" class="edge">
<title>Node24&#45;&gt;Node17</title>
<path fill="none" stroke="midnightblue" d="M2053.81,-112.08C2055.67,-104.93 2058.34,-94.64 2060.65,-85.69"/>
<polygon fill="midnightblue" stroke="midnightblue" points="2064.11,-86.31 2063.23,-75.75 2057.33,-84.55 2064.11,-86.31"/>
</g>
<!-- Node25 -->
<g id="node25" class="node">
<title>Node25</title>
<g id="a_node25"><a xlink:title=" ">
<polygon fill="none" stroke="#bfbfbf" points="2345,-56.5 2345,-75.5 2464,-75.5 2464,-56.5 2345,-56.5"/>
<text text-anchor="middle" x="2404.5" y="-63.5" font-family="Helvetica,sans-Serif" font-size="10.00">Adafruit_ICM20948.h</text>
</a>
</g>
</g>
<!-- Node24&#45;&gt;Node25 -->
<g id="edge38" class="edge">
<title>Node24&#45;&gt;Node25</title>
<path fill="none" stroke="midnightblue" d="M2105.11,-112.8C2167.76,-103.21 2271.42,-87.36 2338.84,-77.04"/>
<polygon fill="midnightblue" stroke="midnightblue" points="2339.57,-80.47 2348.92,-75.5 2338.51,-73.55 2339.57,-80.47"/>
</g>
<!-- Node26 -->
<g id="node26" class="node">
<title>Node26</title>
<g id="a_node26"><a xlink:title=" ">
<polygon fill="none" stroke="#bfbfbf" points="2482,-56.5 2482,-75.5 2589,-75.5 2589,-56.5 2482,-56.5"/>
<text text-anchor="middle" x="2535.5" y="-63.5" font-family="Helvetica,sans-Serif" font-size="10.00">Adafruit_ICM20X.h</text>
</a>
</g>
</g>
<!-- Node24&#45;&gt;Node26 -->
<g id="edge39" class="edge">
<title>Node24&#45;&gt;Node26</title>
<path fill="none" stroke="midnightblue" d="M2105.1,-113.19C2108.28,-112.77 2111.43,-112.37 2114.5,-112 2270.42,-93.05 2312.62,-95.41 2471.61,-76.19"/>
<polygon fill="midnightblue" stroke="midnightblue" points="2472.25,-79.64 2481.75,-74.95 2471.4,-72.69 2472.25,-79.64"/>
</g>
<!-- Node27&#45;&gt;Node2 -->
<g id="edge45" class="edge">
<title>Node27&#45;&gt;Node2</title>
<path fill="none" stroke="midnightblue" d="M820.82,-112.28C807.82,-98.11 780.02,-70.26 750.5,-56 693.86,-28.64 621.01,-17.86 576.05,-13.65"/>
<polygon fill="midnightblue" stroke="midnightblue" points="576.34,-10.17 566.07,-12.78 575.73,-17.14 576.34,-10.17"/>
</g>
<!-- Node27&#45;&gt;Node7 -->
<g id="edge48" class="edge">
<title>Node27&#45;&gt;Node7</title>
<path fill="none" stroke="midnightblue" d="M875.24,-113.41C878.37,-112.93 881.48,-112.45 884.5,-112 996.72,-95.22 1028.13,-97.33 1143.19,-76.1"/>
<polygon fill="midnightblue" stroke="midnightblue" points="1143.91,-79.53 1153.1,-74.25 1142.63,-72.65 1143.91,-79.53"/>
</g>
<!-- Node27&#45;&gt;Node12 -->
<g id="edge46" class="edge">
<title>Node27&#45;&gt;Node12</title>
<path fill="none" stroke="midnightblue" d="M875.21,-113.16C878.35,-112.74 881.47,-112.34 884.5,-112 1119.8,-85.29 1184.68,-113.27 1421.89,-75.98"/>
<polygon fill="midnightblue" stroke="midnightblue" points="1422.53,-79.42 1431.85,-74.39 1421.43,-72.51 1422.53,-79.42"/>
</g>
<!-- Node28 -->
<g id="node28" class="node">
<title>Node28</title>
<g id="a_node28"><a xlink:title=" ">
<polygon fill="none" stroke="#bfbfbf" points="636,-56.5 636,-75.5 741,-75.5 741,-56.5 636,-56.5"/>
<text text-anchor="middle" x="688.5" y="-63.5" font-family="Helvetica,sans-Serif" font-size="10.00">Adafruit_INA260.h</text>
</a>
</g>
</g>
<!-- Node27&#45;&gt;Node28 -->
<g id="edge47" class="edge">
<title>Node27&#45;&gt;Node28</title>
<path fill="none" stroke="midnightblue" d="M806.32,-112.44C783.07,-103.48 746.35,-89.31 720.08,-79.18"/>
<polygon fill="midnightblue" stroke="midnightblue" points="721.17,-75.85 710.58,-75.52 718.65,-82.38 721.17,-75.85"/>
</g>
<!-- Node29&#45;&gt;Node4 -->
<g id="edge53" class="edge">
<title>Node29&#45;&gt;Node4</title>
<path fill="none" stroke="midnightblue" d="M1951.73,-115.37C2050.31,-104.62 2254.45,-81.73 2259.5,-76 2265.38,-69.34 2265.64,-62.42 2259.5,-56 2226.52,-21.51 1519.1,-13.13 1309.51,-11.4"/>
<polygon fill="midnightblue" stroke="midnightblue" points="1309.36,-7.9 1299.33,-11.32 1309.3,-14.9 1309.36,-7.9"/>
</g>
<!-- Node29&#45;&gt;Node7 -->
<g id="edge54" class="edge">
<title>Node29&#45;&gt;Node7</title>
<path fill="none" stroke="midnightblue" d="M1847.38,-116.85C1827.13,-115.27 1803.74,-113.5 1782.5,-112 1536.56,-94.65 1470.44,-111.75 1221.85,-75.77"/>
<polygon fill="midnightblue" stroke="midnightblue" points="1222.19,-72.28 1211.79,-74.3 1221.18,-79.21 1222.19,-72.28"/>
</g>
<!-- Node29&#45;&gt;Node12 -->
<g id="edge52" class="edge">
<title>Node29&#45;&gt;Node12</title>
<path fill="none" stroke="midnightblue" d="M1847.29,-116.08C1757.55,-107.49 1576.64,-89.51 1495.06,-75.82"/>
<polygon fill="midnightblue" stroke="midnightblue" points="1495.6,-72.36 1485.15,-74.09 1494.4,-79.26 1495.6,-72.36"/>
</g>
<!-- Node29&#45;&gt;Node17 -->
<g id="edge51" class="edge">
<title>Node29&#45;&gt;Node17</title>
<path fill="none" stroke="midnightblue" d="M1925.8,-112.44C1953.85,-103.32 1998.44,-88.81 2029.68,-78.65"/>
<polygon fill="midnightblue" stroke="midnightblue" points="2030.89,-81.94 2039.32,-75.52 2028.73,-75.28 2030.89,-81.94"/>
</g>
<!-- Node30 -->
<g id="node30" class="node">
<title>Node30</title>
<g id="a_node30"><a xlink:title=" ">
<polygon fill="none" stroke="#bfbfbf" points="2134.5,-56.5 2134.5,-75.5 2250.5,-75.5 2250.5,-56.5 2134.5,-56.5"/>
<text text-anchor="middle" x="2192.5" y="-63.5" font-family="Helvetica,sans-Serif" font-size="10.00">Adafruit_LSM9DS1.h</text>
</a>
</g>
</g>
<!-- Node29&#45;&gt;Node30 -->
<g id="edge50" class="edge">
<title>Node29&#45;&gt;Node30</title>
<path fill="none" stroke="midnightblue" d="M1945.93,-112.44C1997.58,-102.92 2081.01,-87.55 2136.31,-77.36"/>
<polygon fill="midnightblue" stroke="midnightblue" points="2137.09,-80.77 2146.29,-75.52 2135.82,-73.89 2137.09,-80.77"/>
</g>
<!-- Node31&#45;&gt;Node2 -->
<g id="edge57" class="edge">
<title>Node31&#45;&gt;Node2</title>
<path fill="none" stroke="midnightblue" d="M694.11,-112.44C676.89,-103.79 649.91,-89.77 627.5,-76 601.39,-59.96 572.68,-39.42 554.16,-25.76"/>
<polygon fill="midnightblue" stroke="midnightblue" points="556.06,-22.81 545.95,-19.66 551.89,-28.43 556.06,-22.81"/>
</g>
<!-- Node31&#45;&gt;Node7 -->
<g id="edge59" class="edge">
<title>Node31&#45;&gt;Node7</title>
<path fill="none" stroke="midnightblue" d="M763.57,-113.26C766.93,-112.82 770.26,-112.39 773.5,-112 934.75,-92.48 979.35,-102.73 1143.19,-76.02"/>
<polygon fill="midnightblue" stroke="midnightblue" points="1143.83,-79.46 1153.12,-74.37 1142.68,-72.55 1143.83,-79.46"/>
</g>
<!-- Node31&#45;&gt;Node11 -->
<g id="edge58" class="edge">
<title>Node31&#45;&gt;Node11</title>
<path fill="none" stroke="midnightblue" d="M763.58,-113.34C766.94,-112.88 770.26,-112.43 773.5,-112 905.66,-94.61 942.78,-101.68 1077.57,-75.92"/>
<polygon fill="midnightblue" stroke="midnightblue" points="1078.29,-79.34 1087.45,-74 1076.96,-72.47 1078.29,-79.34"/>
</g>
<!-- Node32 -->
<g id="node32" class="node">
<title>Node32</title>
<g id="a_node32"><a xlink:title=" ">
<polygon fill="none" stroke="#bfbfbf" points="490,-56.5 490,-75.5 579,-75.5 579,-56.5 490,-56.5"/>
<text text-anchor="middle" x="534.5" y="-63.5" font-family="Helvetica,sans-Serif" font-size="10.00">Adafruit_GPS.h</text>
</a>
</g>
</g>
<!-- Node31&#45;&gt;Node32 -->
<g id="edge56" class="edge">
<title>Node31&#45;&gt;Node32</title>
<path fill="none" stroke="midnightblue" d="M683.45,-112.44C653.42,-103.28 605.59,-88.69 572.26,-78.52"/>
<polygon fill="midnightblue" stroke="midnightblue" points="573,-75.09 562.41,-75.52 570.96,-81.78 573,-75.09"/>
</g>
<!-- Node33&#45;&gt;Node2 -->
<g id="edge61" class="edge">
<title>Node33&#45;&gt;Node2</title>
<path fill="none" stroke="midnightblue" d="M1455.14,-112.57C1513.37,-101.36 1608.5,-82.23 1613.5,-76 1619.06,-69.07 1619.65,-62.42 1613.5,-56 1576.98,-17.93 770.38,-12.02 576.25,-11.14"/>
<polygon fill="midnightblue" stroke="midnightblue" points="576.18,-7.64 566.16,-11.1 576.15,-14.64 576.18,-7.64"/>
</g>
<!-- Node33&#45;&gt;Node7 -->
<g id="edge65" class="edge">
<title>Node33&#45;&gt;Node7</title>
<path fill="none" stroke="midnightblue" d="M1374.37,-112.44C1332.64,-102.56 1264.24,-86.36 1221.37,-76.21"/>
<polygon fill="midnightblue" stroke="midnightblue" points="1222.12,-72.79 1211.59,-73.89 1220.51,-79.6 1222.12,-72.79"/>
</g>
<!-- Node33&#45;&gt;Node12 -->
<g id="edge63" class="edge">
<title>Node33&#45;&gt;Node12</title>
<path fill="none" stroke="midnightblue" d="M1418.43,-112.08C1425.35,-104.3 1435.57,-92.8 1443.95,-83.37"/>
<polygon fill="midnightblue" stroke="midnightblue" points="1446.69,-85.55 1450.72,-75.75 1441.46,-80.9 1446.69,-85.55"/>
</g>
<!-- Node34 -->
<g id="node34" class="node">
<title>Node34</title>
<g id="a_node34"><a xlink:title=" ">
<polygon fill="none" stroke="#bfbfbf" points="1361,-56.5 1361,-75.5 1414,-75.5 1414,-56.5 1361,-56.5"/>
<text text-anchor="middle" x="1387.5" y="-63.5" font-family="Helvetica,sans-Serif" font-size="10.00">stdint.h</text>
</a>
</g>
</g>
<!-- Node33&#45;&gt;Node34 -->
<g id="edge62" class="edge">
<title>Node33&#45;&gt;Node34</title>
<path fill="none" stroke="midnightblue" d="M1406.7,-112.08C1403.59,-104.77 1399.08,-94.18 1395.21,-85.1"/>
<polygon fill="midnightblue" stroke="midnightblue" points="1398.37,-83.58 1391.23,-75.75 1391.93,-86.32 1398.37,-83.58"/>
</g>
<!-- Node35 -->
<g id="node35" class="node">
<title>Node35</title>
<g id="a_node35"><a xlink:title=" ">
<polygon fill="none" stroke="#bfbfbf" points="1503,-56.5 1503,-75.5 1604,-75.5 1604,-56.5 1503,-56.5"/>
<text text-anchor="middle" x="1553.5" y="-63.5" font-family="Helvetica,sans-Serif" font-size="10.00">Adafruit_SGP30.h</text>
</a>
</g>
</g>
<!-- Node33&#45;&gt;Node35 -->
<g id="edge64" class="edge">
<title>Node33&#45;&gt;Node35</title>
<path fill="none" stroke="midnightblue" d="M1433.16,-112.44C1456.9,-103.48 1494.41,-89.31 1521.24,-79.18"/>
<polygon fill="midnightblue" stroke="midnightblue" points="1522.83,-82.32 1530.95,-75.52 1520.36,-75.77 1522.83,-82.32"/>
</g>
<!-- Node36&#45;&gt;Node2 -->
<g id="edge67" class="edge">
<title>Node36&#45;&gt;Node2</title>
<path fill="none" stroke="midnightblue" d="M1033.02,-112.45C1014.67,-103.45 985,-88.84 959.5,-76 942.1,-67.24 939.14,-61.66 920.5,-56 799.14,-19.13 647.85,-12.14 576.04,-11.03"/>
<polygon fill="midnightblue" stroke="midnightblue" points="576.08,-7.53 566.04,-10.91 575.99,-14.53 576.08,-7.53"/>
</g>
<!-- Node36&#45;&gt;Node7 -->
<g id="edge71" class="edge">
<title>Node36&#45;&gt;Node7</title>
<path fill="none" stroke="midnightblue" d="M1071.42,-112.44C1093.24,-103.52 1127.65,-89.44 1152.39,-79.32"/>
<polygon fill="midnightblue" stroke="midnightblue" points="1153.75,-82.54 1161.68,-75.52 1151.1,-76.06 1153.75,-82.54"/>
</g>
<!-- Node36&#45;&gt;Node11 -->
<g id="edge68" class="edge">
<title>Node36&#45;&gt;Node11</title>
<path fill="none" stroke="midnightblue" d="M1060.3,-112.32C1069.32,-104.34 1082.91,-92.31 1093.82,-82.65"/>
<polygon fill="midnightblue" stroke="midnightblue" points="1096.35,-85.08 1101.52,-75.83 1091.71,-79.84 1096.35,-85.08"/>
</g>
<!-- Node36&#45;&gt;Node12 -->
<g id="edge69" class="edge">
<title>Node36&#45;&gt;Node12</title>
<path fill="none" stroke="midnightblue" d="M1095,-113.26C1097.88,-112.81 1100.73,-112.39 1103.5,-112 1242.03,-92.46 1281,-101.46 1421.95,-76.07"/>
<polygon fill="midnightblue" stroke="midnightblue" points="1422.62,-79.51 1431.83,-74.27 1421.37,-72.62 1422.62,-79.51"/>
</g>
<!-- Node37 -->
<g id="node37" class="node">
<title>Node37</title>
<g id="a_node37"><a xlink:title=" ">
<polygon fill="none" stroke="#bfbfbf" points="968,-56.5 968,-75.5 1069,-75.5 1069,-56.5 968,-56.5"/>
<text text-anchor="middle" x="1018.5" y="-63.5" font-family="Helvetica,sans-Serif" font-size="10.00">Adafruit_SHT31.h</text>
</a>
</g>
</g>
<!-- Node36&#45;&gt;Node37 -->
<g id="edge70" class="edge">
<title>Node36&#45;&gt;Node37</title>
<path fill="none" stroke="midnightblue" d="M1045.22,-112.08C1040.79,-104.61 1034.34,-93.72 1028.88,-84.52"/>
<polygon fill="midnightblue" stroke="midnightblue" points="1031.79,-82.57 1023.69,-75.75 1025.77,-86.14 1031.79,-82.57"/>
</g>
<!-- Node38&#45;&gt;Node7 -->
<g id="edge73" class="edge">
<title>Node38&#45;&gt;Node7</title>
<path fill="none" stroke="midnightblue" d="M1159.12,-112.08C1162.96,-104.69 1168.52,-93.95 1173.26,-84.81"/>
<polygon fill="midnightblue" stroke="midnightblue" points="1176.47,-86.24 1177.96,-75.75 1170.25,-83.02 1176.47,-86.24"/>
</g>
<!-- Node39&#45;&gt;Node2 -->
<g id="edge75" class="edge">
<title>Node39&#45;&gt;Node2</title>
<path fill="none" stroke="midnightblue" d="M355.05,-112.11C354.85,-98.2 356.59,-71.33 371.5,-56 402.98,-23.63 455.48,-13.91 492.37,-11.31"/>
<polygon fill="midnightblue" stroke="midnightblue" points="493.01,-14.78 502.8,-10.73 492.63,-7.79 493.01,-14.78"/>
</g>
<!-- Node39&#45;&gt;Node4 -->
<g id="edge76" class="edge">
<title>Node39&#45;&gt;Node4</title>
<path fill="none" stroke="midnightblue" d="M367.65,-112.5C389.34,-97.86 436.63,-68.29 481.5,-56 615.56,-19.28 1038.58,-12.52 1193.72,-11.28"/>
<polygon fill="midnightblue" stroke="midnightblue" points="1194.01,-14.78 1203.99,-11.2 1193.96,-7.78 1194.01,-14.78"/>
</g>
<!-- Node39&#45;&gt;Node8 -->
<g id="edge77" class="edge">
<title>Node39&#45;&gt;Node8</title>
<path fill="none" stroke="midnightblue" d="M344.57,-112.32C334.33,-104.18 318.78,-91.84 306.5,-82.09"/>
<polygon fill="midnightblue" stroke="midnightblue" points="308.63,-79.31 298.62,-75.83 304.28,-84.79 308.63,-79.31"/>
</g>
<!-- Node40&#45;&gt;Node3 -->
<g id="edge79" class="edge">
<title>Node40&#45;&gt;Node3</title>
<path fill="none" stroke="midnightblue" d="M196.28,-112.44C177.6,-103.68 148.34,-89.94 126.88,-79.86"/>
<polygon fill="midnightblue" stroke="midnightblue" points="128.18,-76.6 117.64,-75.52 125.2,-82.93 128.18,-76.6"/>
</g>
<!-- Node40&#45;&gt;Node4 -->
<g id="edge80" class="edge">
<title>Node40&#45;&gt;Node4</title>
<path fill="none" stroke="midnightblue" d="M216.02,-112.41C219.08,-97.91 227.51,-68.9 247.5,-56 287.42,-30.25 986.28,-15.74 1193.84,-11.99"/>
<polygon fill="midnightblue" stroke="midnightblue" points="1193.99,-15.48 1203.92,-11.8 1193.86,-8.48 1193.99,-15.48"/>
</g>
<!-- Node40&#45;&gt;Node8 -->
<g id="edge82" class="edge">
<title>Node40&#45;&gt;Node8</title>
<path fill="none" stroke="midnightblue" d="M226.23,-112.32C237.34,-104.11 254.24,-91.6 267.48,-81.81"/>
<polygon fill="midnightblue" stroke="midnightblue" points="269.6,-84.59 275.56,-75.83 265.44,-78.97 269.6,-84.59"/>
</g>
<!-- Node41 -->
<g id="node41" class="node">
<title>Node41</title>
<g id="a_node41"><a xlink:title=" ">
<polygon fill="none" stroke="#bfbfbf" points="160,-56.5 160,-75.5 199,-75.5 199,-56.5 160,-56.5"/>
<text text-anchor="middle" x="179.5" y="-63.5" font-family="Helvetica,sans-Serif" font-size="10.00">SD.h</text>
</a>
</g>
</g>
<!-- Node40&#45;&gt;Node41 -->
<g id="edge81" class="edge">
<title>Node40&#45;&gt;Node41</title>
<path fill="none" stroke="midnightblue" d="M208.72,-112.08C203.83,-104.53 196.67,-93.49 190.67,-84.23"/>
<polygon fill="midnightblue" stroke="midnightblue" points="193.55,-82.24 185.17,-75.75 187.67,-86.05 193.55,-82.24"/>
</g>
</g>
</svg>
        <g id="navigator" transform="translate(0 0)" fill="#404254">
                <rect fill="#f2f5e9" fill-opacity="0.5" stroke="#606060" stroke-width=".5" x="0" y="0" width="60" height="60"/>
                <use id="zoomplus" xlink:href="#zoomPlus" x="17" y="9" onmousedown="handleZoom(evt,'in')"/>
                <use id="zoomminus" xlink:href="#zoomMin" x="42" y="9" onmousedown="handleZoom(evt,'out')"/>
                <use id="reset" xlink:href="#resetDef" x="30" y="36" onmousedown="handleReset()"/>
                <g id="arrowUp" xlink:href="#dirArrow" transform="translate(30 24)" onmousedown="handlePan(0,-1)">
                  <use xlink:href="#rim" fill="#404040">
                        <set attributeName="fill" to="#808080" begin="arrowUp.mouseover" end="arrowUp.mouseout"/>
                  </use>
                  <path fill="none" stroke="white" stroke-width="1.5" d="M0,-3.0v7 M-2.5,-0.5L0,-3.0L2.5,-0.5"/>
                </g>
                <g id="arrowRight" xlink:href="#dirArrow" transform="rotate(90) translate(36 -43)" onmousedown="handlePan(1,0)">
                  <use xlink:href="#rim" fill="#404040">
                        <set attributeName="fill" to="#808080" begin="arrowRight.mouseover" end="arrowRight.mouseout"/>
                  </use>
                  <path fill="none" stroke="white" stroke-width="1.5" d="M0,-3.0v7 M-2.5,-0.5L0,-3.0L2.5,-0.5"/>
                </g>
                <g id="arrowDown" xlink:href="#dirArrow" transform="rotate(180) translate(-30 -48)" onmousedown="handlePan(0,1)">
                  <use xlink:href="#rim" fill="#404040">
                        <set attributeName="fill" to="#808080" begin="arrowDown.mouseover" end="arrowDown.mouseout"/>
                  </use>
                  <path fill="none" stroke="white" stroke-width="1.5" d="M0,-3.0v7 M-2.5,-0.5L0,-3.0L2.5,-0.5"/>
                </g>
                <g id="arrowLeft" xlink:href="#dirArrow" transform="rotate(270) translate(-36 17)" onmousedown="handlePan(-1,0)">
                  <use xlink:href="#rim" fill="#404040">
                        <set attributeName="fill" to="#808080" begin="arrowLeft.mouseover" end="arrowLeft.mouseout"/>
                  </use>
                  <path fill="none" stroke="white" stroke-width="1.5" d="M0,-3.0v7 M-2.5,-0.5L0,-3.0L2.5,-0.5"/>
                </g>
        </g>
        <svg viewBox="0 0 15 15" width="100%" height="30px" preserveAspectRatio="xMaxYMin meet">
         <g id="arrow_out" transform="scale(0.3 0.3)">
          <a xlink:href="main_8cpp__incl_org.svg" target="_base">
           <rect id="button" ry="5" rx="5" y="6" x="6" height="38" width="38"
                fill="#f2f5e9" fill-opacity="0.5" stroke="#606060" stroke-width="1.0"/>
           <path id="arrow"
             d="M 11.500037,31.436501 C 11.940474,20.09759 22.043105,11.32322 32.158766,21.979434 L 37.068811,17.246167 C 37.068811,17.246167 37.088388,32 37.088388,32 L 22.160133,31.978069 C 22.160133,31.978069 26.997745,27.140456 26.997745,27.140456 C 18.528582,18.264221 13.291696,25.230495 11.500037,31.436501 z"
             style="fill:#404040;"/>
          </a>
         </g>
        </svg>
</svg>
