<?xml version="1.0" encoding="UTF-8" standalone="no"?>
<!DOCTYPE svg PUBLIC "-//W3C//DTD SVG 1.1//EN"
 "http://www.w3.org/Graphics/SVG/1.1/DTD/svg11.dtd">
<!-- Generated by graphviz version 2.43.0 (0)
 -->
<!-- Title: main.cpp Pages: 1 -->
<svg width="2111pt" height="196pt"
 viewBox="0.00 0.00 2111.00 196.00" xmlns="http://www.w3.org/2000/svg" xmlns:xlink="http://www.w3.org/1999/xlink">
<g id="graph0" class="graph" transform="scale(1 1) rotate(0) translate(4 192)">
<title>main.cpp</title>
<!-- Node1 -->
<g id="node1" class="node">
<title>Node1</title>
<g id="a_node1"><a xlink:title=" ">
<polygon fill="#bfbfbf" stroke="black" points="951.5,-168.5 951.5,-187.5 1013.5,-187.5 1013.5,-168.5 951.5,-168.5"/>
<text text-anchor="middle" x="982.5" y="-175.5" font-family="Helvetica,sans-Serif" font-size="10.00">main.cpp</text>
</a>
</g>
</g>
<!-- Node2 -->
<g id="node2" class="node">
<title>Node2</title>
<g id="a_node2"><a xlink:title=" ">
<polygon fill="none" stroke="#bfbfbf" points="1343,-0.5 1343,-19.5 1406,-19.5 1406,-0.5 1343,-0.5"/>
<text text-anchor="middle" x="1374.5" y="-7.5" font-family="Helvetica,sans-Serif" font-size="10.00">Arduino.h</text>
</a>
</g>
</g>
<!-- Node1&#45;&gt;Node2 -->
<g id="edge1" class="edge">
<title>Node1&#45;&gt;Node2</title>
<path fill="none" stroke="midnightblue" d="M951.12,-175.91C814.38,-170.61 281.19,-144.16 365.5,-56 399.44,-20.51 1146.67,-12.67 1332.8,-11.27"/>
<polygon fill="midnightblue" stroke="midnightblue" points="1333.02,-14.77 1343,-11.2 1332.97,-7.77 1333.02,-14.77"/>
</g>
<!-- Node3 -->
<g id="node3" class="node">
<title>Node3</title>
<g id="a_node3"><a xlink:href="ErrorDisplay_8h.html" target="_top" xlink:title=" ">
<polygon fill="none" stroke="black" points="57.5,-56.5 57.5,-75.5 141.5,-75.5 141.5,-56.5 57.5,-56.5"/>
<text text-anchor="middle" x="99.5" y="-63.5" font-family="Helvetica,sans-Serif" font-size="10.00">ErrorDisplay.h</text>
</a>
</g>
</g>
<!-- Node1&#45;&gt;Node3 -->
<g id="edge2" class="edge">
<title>Node1&#45;&gt;Node3</title>
<path fill="none" stroke="midnightblue" d="M951.48,-177.26C806.22,-178.21 197.41,-179.34 128.5,-132 113.09,-121.42 105.77,-100.64 102.35,-85.42"/>
<polygon fill="midnightblue" stroke="midnightblue" points="105.78,-84.72 100.5,-75.54 98.9,-86.01 105.78,-84.72"/>
</g>
<!-- Node6 -->
<g id="node6" class="node">
<title>Node6</title>
<g id="a_node6"><a xlink:href="Sensor_8h.html" target="_top" xlink:title=" ">
<polygon fill="none" stroke="black" points="1214.5,-56.5 1214.5,-75.5 1272.5,-75.5 1272.5,-56.5 1214.5,-56.5"/>
<text text-anchor="middle" x="1243.5" y="-63.5" font-family="Helvetica,sans-Serif" font-size="10.00">Sensor.h</text>
</a>
</g>
</g>
<!-- Node1&#45;&gt;Node6 -->
<g id="edge6" class="edge">
<title>Node1&#45;&gt;Node6</title>
<path fill="none" stroke="midnightblue" d="M1006.39,-168.43C1029.68,-159.88 1065.94,-146.02 1096.5,-132 1113.85,-124.04 1117.22,-120.09 1134.5,-112 1160.06,-100.03 1189.71,-87.9 1211.63,-79.25"/>
<polygon fill="midnightblue" stroke="midnightblue" points="1213.07,-82.44 1221.11,-75.54 1210.52,-75.93 1213.07,-82.44"/>
</g>
<!-- Node7 -->
<g id="node7" class="node">
<title>Node7</title>
<g id="a_node7"><a xlink:href="Storage_8h.html" target="_top" xlink:title=" ">
<polygon fill="none" stroke="black" points="217,-56.5 217,-75.5 280,-75.5 280,-56.5 217,-56.5"/>
<text text-anchor="middle" x="248.5" y="-63.5" font-family="Helvetica,sans-Serif" font-size="10.00">Storage.h</text>
</a>
</g>
</g>
<!-- Node1&#45;&gt;Node7 -->
<g id="edge8" class="edge">
<title>Node1&#45;&gt;Node7</title>
<path fill="none" stroke="midnightblue" d="M951.45,-177.22C820.21,-177.89 315.31,-177.44 262.5,-132 249.53,-120.84 246.89,-100.81 246.96,-85.93"/>
<polygon fill="midnightblue" stroke="midnightblue" points="250.46,-85.93 247.42,-75.78 243.47,-85.61 250.46,-85.93"/>
</g>
<!-- Node8 -->
<g id="node8" class="node">
<title>Node8</title>
<g id="a_node8"><a xlink:href="AS7331Sensor_8h.html" target="_top" xlink:title=" ">
<polygon fill="none" stroke="black" points="992,-112.5 992,-131.5 1087,-131.5 1087,-112.5 992,-112.5"/>
<text text-anchor="middle" x="1039.5" y="-119.5" font-family="Helvetica,sans-Serif" font-size="10.00">AS7331Sensor.h</text>
</a>
</g>
</g>
<!-- Node1&#45;&gt;Node8 -->
<g id="edge10" class="edge">
<title>Node1&#45;&gt;Node8</title>
<path fill="none" stroke="midnightblue" d="M991.66,-168.32C1000,-160.42 1012.53,-148.55 1022.68,-138.94"/>
<polygon fill="midnightblue" stroke="midnightblue" points="1025.32,-141.25 1030.18,-131.83 1020.51,-136.17 1025.32,-141.25"/>
</g>
<!-- Node12 -->
<g id="node12" class="node">
<title>Node12</title>
<g id="a_node12"><a xlink:href="AnalogSensor_8h.html" target="_top" xlink:title=" ">
<polygon fill="none" stroke="black" points="1367.5,-112.5 1367.5,-131.5 1459.5,-131.5 1459.5,-112.5 1367.5,-112.5"/>
<text text-anchor="middle" x="1413.5" y="-119.5" font-family="Helvetica,sans-Serif" font-size="10.00">AnalogSensor.h</text>
</a>
</g>
</g>
<!-- Node1&#45;&gt;Node12 -->
<g id="edge15" class="edge">
<title>Node1&#45;&gt;Node12</title>
<path fill="none" stroke="midnightblue" d="M1013.76,-173.72C1076.71,-167.01 1223.52,-150.88 1357.29,-132.12"/>
<polygon fill="midnightblue" stroke="midnightblue" points="1357.9,-135.57 1367.31,-130.71 1356.92,-128.64 1357.9,-135.57"/>
</g>
<!-- Node13 -->
<g id="node13" class="node">
<title>Node13</title>
<g id="a_node13"><a xlink:href="BME280Sensor_8h.html" target="_top" xlink:title=" ">
<polygon fill="none" stroke="black" points="532.5,-112.5 532.5,-131.5 630.5,-131.5 630.5,-112.5 532.5,-112.5"/>
<text text-anchor="middle" x="581.5" y="-119.5" font-family="Helvetica,sans-Serif" font-size="10.00">BME280Sensor.h</text>
</a>
</g>
</g>
<!-- Node1&#45;&gt;Node13 -->
<g id="edge19" class="edge">
<title>Node1&#45;&gt;Node13</title>
<path fill="none" stroke="midnightblue" d="M951.35,-173.12C892.85,-165.78 762.33,-149.19 640.96,-132.04"/>
<polygon fill="midnightblue" stroke="midnightblue" points="641.14,-128.53 630.74,-130.59 640.15,-135.46 641.14,-128.53"/>
</g>
<!-- Node15 -->
<g id="node15" class="node">
<title>Node15</title>
<g id="a_node15"><a xlink:href="BME680Sensor_8h.html" target="_top" xlink:title=" ">
<polygon fill="none" stroke="black" points="762.5,-112.5 762.5,-131.5 860.5,-131.5 860.5,-112.5 762.5,-112.5"/>
<text text-anchor="middle" x="811.5" y="-119.5" font-family="Helvetica,sans-Serif" font-size="10.00">BME680Sensor.h</text>
</a>
</g>
</g>
<!-- Node1&#45;&gt;Node15 -->
<g id="edge22" class="edge">
<title>Node1&#45;&gt;Node15</title>
<path fill="none" stroke="midnightblue" d="M955.4,-168.44C926.51,-159.32 880.58,-144.81 848.39,-134.65"/>
<polygon fill="midnightblue" stroke="midnightblue" points="849.06,-131.19 838.47,-131.52 846.95,-137.87 849.06,-131.19"/>
</g>
<!-- Node19 -->
<g id="node19" class="node">
<title>Node19</title>
<g id="a_node19"><a xlink:href="DS3231Sensor_8h.html" target="_top" xlink:title=" ">
<polygon fill="none" stroke="black" points="879,-112.5 879,-131.5 974,-131.5 974,-112.5 879,-112.5"/>
<text text-anchor="middle" x="926.5" y="-119.5" font-family="Helvetica,sans-Serif" font-size="10.00">DS3231Sensor.h</text>
</a>
</g>
</g>
<!-- Node1&#45;&gt;Node19 -->
<g id="edge29" class="edge">
<title>Node1&#45;&gt;Node19</title>
<path fill="none" stroke="midnightblue" d="M973.5,-168.32C965.31,-160.42 952.99,-148.55 943.03,-138.94"/>
<polygon fill="midnightblue" stroke="midnightblue" points="945.29,-136.26 935.66,-131.83 940.43,-141.29 945.29,-136.26"/>
</g>
<!-- Node21 -->
<g id="node21" class="node">
<title>Node21</title>
<g id="a_node21"><a xlink:href="ENS160Sensor_8h.html" target="_top" xlink:title=" ">
<polygon fill="none" stroke="black" points="649,-112.5 649,-131.5 744,-131.5 744,-112.5 649,-112.5"/>
<text text-anchor="middle" x="696.5" y="-119.5" font-family="Helvetica,sans-Serif" font-size="10.00">ENS160Sensor.h</text>
</a>
</g>
</g>
<!-- Node1&#45;&gt;Node21 -->
<g id="edge32" class="edge">
<title>Node1&#45;&gt;Node21</title>
<path fill="none" stroke="midnightblue" d="M951.35,-171.12C903.45,-162.07 811.03,-144.63 751.64,-133.41"/>
<polygon fill="midnightblue" stroke="midnightblue" points="752.15,-129.95 741.68,-131.53 750.85,-136.82 752.15,-129.95"/>
</g>
<!-- Node23 -->
<g id="node23" class="node">
<title>Node23</title>
<g id="a_node23"><a xlink:href="GeigerSensor_8h.html" target="_top" xlink:title=" ">
<polygon fill="none" stroke="black" points="1585.5,-112.5 1585.5,-131.5 1675.5,-131.5 1675.5,-112.5 1585.5,-112.5"/>
<text text-anchor="middle" x="1630.5" y="-119.5" font-family="Helvetica,sans-Serif" font-size="10.00">GeigerSensor.h</text>
</a>
</g>
</g>
<!-- Node1&#45;&gt;Node23 -->
<g id="edge36" class="edge">
<title>Node1&#45;&gt;Node23</title>
<path fill="none" stroke="midnightblue" d="M1013.51,-175.63C1100.46,-171.59 1354.08,-158.37 1575.29,-132.04"/>
<polygon fill="midnightblue" stroke="midnightblue" points="1575.95,-135.48 1585.46,-130.82 1575.12,-128.53 1575.95,-135.48"/>
</g>
<!-- Node24 -->
<g id="node24" class="node">
<title>Node24</title>
<g id="a_node24"><a xlink:href="INA260Sensor_8h.html" target="_top" xlink:title=" ">
<polygon fill="none" stroke="black" points="1694,-112.5 1694,-131.5 1787,-131.5 1787,-112.5 1694,-112.5"/>
<text text-anchor="middle" x="1740.5" y="-119.5" font-family="Helvetica,sans-Serif" font-size="10.00">INA260Sensor.h</text>
</a>
</g>
</g>
<!-- Node1&#45;&gt;Node24 -->
<g id="edge39" class="edge">
<title>Node1&#45;&gt;Node24</title>
<path fill="none" stroke="midnightblue" d="M1013.73,-176.06C1111.17,-172.9 1418.36,-161.26 1683.58,-131.99"/>
<polygon fill="midnightblue" stroke="midnightblue" points="1684.24,-135.43 1693.79,-130.85 1683.47,-128.48 1684.24,-135.43"/>
</g>
<!-- Node26 -->
<g id="node26" class="node">
<title>Node26</title>
<g id="a_node26"><a xlink:href="LSM9DS1Sensor_8h.html" target="_top" xlink:title=" ">
<polygon fill="none" stroke="black" points="1245.5,-112.5 1245.5,-131.5 1349.5,-131.5 1349.5,-112.5 1245.5,-112.5"/>
<text text-anchor="middle" x="1297.5" y="-119.5" font-family="Helvetica,sans-Serif" font-size="10.00">LSM9DS1Sensor.h</text>
</a>
</g>
</g>
<!-- Node1&#45;&gt;Node26 -->
<g id="edge44" class="edge">
<title>Node1&#45;&gt;Node26</title>
<path fill="none" stroke="midnightblue" d="M1013.57,-171.67C1065.53,-162.77 1170.95,-144.69 1237.69,-133.25"/>
<polygon fill="midnightblue" stroke="midnightblue" points="1238.39,-136.68 1247.65,-131.55 1237.2,-129.79 1238.39,-136.68"/>
</g>
<!-- Node28 -->
<g id="node28" class="node">
<title>Node28</title>
<g id="a_node28"><a xlink:href="SGP30Sensor_8h.html" target="_top" xlink:title=" ">
<polygon fill="none" stroke="black" points="1851,-112.5 1851,-131.5 1940,-131.5 1940,-112.5 1851,-112.5"/>
<text text-anchor="middle" x="1895.5" y="-119.5" font-family="Helvetica,sans-Serif" font-size="10.00">SGP30Sensor.h</text>
</a>
</g>
</g>
<!-- Node1&#45;&gt;Node28 -->
<g id="edge49" class="edge">
<title>Node1&#45;&gt;Node28</title>
<path fill="none" stroke="midnightblue" d="M1013.58,-175.68C1121.72,-171 1491.6,-154.28 1796.5,-132 1810.77,-130.96 1826.17,-129.65 1840.48,-128.35"/>
<polygon fill="midnightblue" stroke="midnightblue" points="1841.04,-131.81 1850.68,-127.41 1840.4,-124.84 1841.04,-131.81"/>
</g>
<!-- Node31 -->
<g id="node31" class="node">
<title>Node31</title>
<g id="a_node31"><a xlink:href="SHT31Sensor_8h.html" target="_top" xlink:title=" ">
<polygon fill="none" stroke="black" points="1478,-112.5 1478,-131.5 1567,-131.5 1567,-112.5 1478,-112.5"/>
<text text-anchor="middle" x="1522.5" y="-119.5" font-family="Helvetica,sans-Serif" font-size="10.00">SHT31Sensor.h</text>
</a>
</g>
</g>
<!-- Node1&#45;&gt;Node31 -->
<g id="edge55" class="edge">
<title>Node1&#45;&gt;Node31</title>
<path fill="none" stroke="midnightblue" d="M1013.57,-174.91C1089.32,-169.65 1289.66,-154.73 1467.68,-132.01"/>
<polygon fill="midnightblue" stroke="midnightblue" points="1468.28,-135.47 1477.75,-130.72 1467.38,-128.52 1468.28,-135.47"/>
</g>
<!-- Node33 -->
<g id="node33" class="node">
<title>Node33</title>
<g id="a_node33"><a xlink:href="TempSensor_8h.html" target="_top" xlink:title=" ">
<polygon fill="none" stroke="black" points="1143.5,-112.5 1143.5,-131.5 1227.5,-131.5 1227.5,-112.5 1143.5,-112.5"/>
<text text-anchor="middle" x="1185.5" y="-119.5" font-family="Helvetica,sans-Serif" font-size="10.00">TempSensor.h</text>
</a>
</g>
</g>
<!-- Node1&#45;&gt;Node33 -->
<g id="edge61" class="edge">
<title>Node1&#45;&gt;Node33</title>
<path fill="none" stroke="midnightblue" d="M1013.77,-168.68C1048.59,-159.42 1105.02,-144.41 1143.63,-134.14"/>
<polygon fill="midnightblue" stroke="midnightblue" points="1144.76,-137.46 1153.52,-131.51 1142.96,-130.7 1144.76,-137.46"/>
</g>
<!-- Node34 -->
<g id="node34" class="node">
<title>Node34</title>
<g id="a_node34"><a xlink:href="RadioStorage_8h.html" target="_top" xlink:title=" ">
<polygon fill="none" stroke="black" points="272,-112.5 272,-131.5 363,-131.5 363,-112.5 272,-112.5"/>
<text text-anchor="middle" x="317.5" y="-119.5" font-family="Helvetica,sans-Serif" font-size="10.00">RadioStorage.h</text>
</a>
</g>
</g>
<!-- Node1&#45;&gt;Node34 -->
<g id="edge63" class="edge">
<title>Node1&#45;&gt;Node34</title>
<path fill="none" stroke="midnightblue" d="M951.25,-175.5C861.7,-171.03 596.52,-156.54 377.5,-132 376.2,-131.85 374.89,-131.7 373.57,-131.54"/>
<polygon fill="midnightblue" stroke="midnightblue" points="373.68,-128.03 363.32,-130.23 372.79,-134.97 373.68,-128.03"/>
</g>
<!-- Node35 -->
<g id="node35" class="node">
<title>Node35</title>
<g id="a_node35"><a xlink:href="SDStorage_8h.html" target="_top" xlink:title=" ">
<polygon fill="none" stroke="black" points="138,-112.5 138,-131.5 215,-131.5 215,-112.5 138,-112.5"/>
<text text-anchor="middle" x="176.5" y="-119.5" font-family="Helvetica,sans-Serif" font-size="10.00">SDStorage.h</text>
</a>
</g>
</g>
<!-- Node1&#45;&gt;Node35 -->
<g id="edge66" class="edge">
<title>Node1&#45;&gt;Node35</title>
<path fill="none" stroke="midnightblue" d="M951.19,-176.35C847.85,-173.93 508.27,-163.9 229.5,-132 228.2,-131.85 226.88,-131.69 225.54,-131.52"/>
<polygon fill="midnightblue" stroke="midnightblue" points="225.61,-128 215.22,-130.07 224.64,-134.93 225.61,-128"/>
</g>
<!-- Node3&#45;&gt;Node2 -->
<g id="edge3" class="edge">
<title>Node3&#45;&gt;Node2</title>
<path fill="none" stroke="midnightblue" d="M141.74,-57.08C144.7,-56.67 147.64,-56.3 150.5,-56 387.23,-30.88 1146.18,-15.28 1332.77,-11.76"/>
<polygon fill="midnightblue" stroke="midnightblue" points="1333.05,-15.26 1342.98,-11.57 1332.91,-8.26 1333.05,-15.26"/>
</g>
<!-- Node4 -->
<g id="node4" class="node">
<title>Node4</title>
<g id="a_node4"><a xlink:title=" ">
<polygon fill="none" stroke="#bfbfbf" points="0,-0.5 0,-19.5 95,-19.5 95,-0.5 0,-0.5"/>
<text text-anchor="middle" x="47.5" y="-7.5" font-family="Helvetica,sans-Serif" font-size="10.00">pico/multicore.h</text>
</a>
</g>
</g>
<!-- Node3&#45;&gt;Node4 -->
<g id="edge4" class="edge">
<title>Node3&#45;&gt;Node4</title>
<path fill="none" stroke="midnightblue" d="M90.91,-56.08C83.34,-48.22 72.12,-36.57 62.99,-27.08"/>
<polygon fill="midnightblue" stroke="midnightblue" points="65.38,-24.53 55.93,-19.75 60.34,-29.38 65.38,-24.53"/>
</g>
<!-- Node5 -->
<g id="node5" class="node">
<title>Node5</title>
<g id="a_node5"><a xlink:title=" ">
<polygon fill="none" stroke="#bfbfbf" points="113.5,-0.5 113.5,-19.5 189.5,-19.5 189.5,-0.5 113.5,-0.5"/>
<text text-anchor="middle" x="151.5" y="-7.5" font-family="Helvetica,sans-Serif" font-size="10.00">pico/stdlib.h</text>
</a>
</g>
</g>
<!-- Node3&#45;&gt;Node5 -->
<g id="edge5" class="edge">
<title>Node3&#45;&gt;Node5</title>
<path fill="none" stroke="midnightblue" d="M108.09,-56.08C115.66,-48.22 126.88,-36.57 136.01,-27.08"/>
<polygon fill="midnightblue" stroke="midnightblue" points="138.66,-29.38 143.07,-19.75 133.62,-24.53 138.66,-29.38"/>
</g>
<!-- Node6&#45;&gt;Node2 -->
<g id="edge7" class="edge">
<title>Node6&#45;&gt;Node2</title>
<path fill="none" stroke="midnightblue" d="M1264.26,-56.44C1285.82,-47.56 1319.76,-33.56 1344.29,-23.45"/>
<polygon fill="midnightblue" stroke="midnightblue" points="1345.93,-26.56 1353.84,-19.52 1343.26,-20.09 1345.93,-26.56"/>
</g>
<!-- Node7&#45;&gt;Node2 -->
<g id="edge9" class="edge">
<title>Node7&#45;&gt;Node2</title>
<path fill="none" stroke="midnightblue" d="M280.07,-58.17C284.89,-57.32 289.81,-56.55 294.5,-56 696.78,-8.54 1188.48,-9.12 1332.82,-10.47"/>
<polygon fill="midnightblue" stroke="midnightblue" points="1332.96,-13.97 1343,-10.57 1333.03,-6.97 1332.96,-13.97"/>
</g>
<!-- Node8&#45;&gt;Node6 -->
<g id="edge14" class="edge">
<title>Node8&#45;&gt;Node6</title>
<path fill="none" stroke="midnightblue" d="M1071.82,-112.44C1107.82,-102.92 1165.98,-87.52 1204.48,-77.33"/>
<polygon fill="midnightblue" stroke="midnightblue" points="1205.53,-80.67 1214.3,-74.73 1203.74,-73.9 1205.53,-80.67"/>
</g>
<!-- Node9 -->
<g id="node9" class="node">
<title>Node9</title>
<g id="a_node9"><a xlink:title=" ">
<polygon fill="none" stroke="#bfbfbf" points="963,-56.5 963,-75.5 1076,-75.5 1076,-56.5 963,-56.5"/>
<text text-anchor="middle" x="1019.5" y="-63.5" font-family="Helvetica,sans-Serif" font-size="10.00">SparkFun_AS7331.h</text>
</a>
</g>
</g>
<!-- Node8&#45;&gt;Node9 -->
<g id="edge11" class="edge">
<title>Node8&#45;&gt;Node9</title>
<path fill="none" stroke="midnightblue" d="M1036.2,-112.08C1033.52,-104.85 1029.65,-94.41 1026.31,-85.4"/>
<polygon fill="midnightblue" stroke="midnightblue" points="1029.5,-83.91 1022.74,-75.75 1022.93,-86.34 1029.5,-83.91"/>
</g>
<!-- Node10 -->
<g id="node10" class="node">
<title>Node10</title>
<g id="a_node10"><a xlink:title=" ">
<polygon fill="none" stroke="#bfbfbf" points="822.5,-56.5 822.5,-75.5 870.5,-75.5 870.5,-56.5 822.5,-56.5"/>
<text text-anchor="middle" x="846.5" y="-63.5" font-family="Helvetica,sans-Serif" font-size="10.00">Wire.h</text>
</a>
</g>
</g>
<!-- Node8&#45;&gt;Node10 -->
<g id="edge12" class="edge">
<title>Node8&#45;&gt;Node10</title>
<path fill="none" stroke="midnightblue" d="M1008.92,-112.44C973.85,-102.63 916.52,-86.59 880.19,-76.43"/>
<polygon fill="midnightblue" stroke="midnightblue" points="881.11,-73.05 870.54,-73.73 879.22,-79.79 881.11,-73.05"/>
</g>
<!-- Node11 -->
<g id="node11" class="node">
<title>Node11</title>
<g id="a_node11"><a xlink:title=" ">
<polygon fill="none" stroke="#bfbfbf" points="1425,-56.5 1425,-75.5 1478,-75.5 1478,-56.5 1425,-56.5"/>
<text text-anchor="middle" x="1451.5" y="-63.5" font-family="Helvetica,sans-Serif" font-size="10.00">string.h</text>
</a>
</g>
</g>
<!-- Node8&#45;&gt;Node11 -->
<g id="edge13" class="edge">
<title>Node8&#45;&gt;Node11</title>
<path fill="none" stroke="midnightblue" d="M1087.29,-116.04C1170.01,-107.33 1337.63,-89.13 1414.6,-75.89"/>
<polygon fill="midnightblue" stroke="midnightblue" points="1415.62,-79.27 1424.85,-74.06 1414.39,-72.38 1415.62,-79.27"/>
</g>
<!-- Node12&#45;&gt;Node2 -->
<g id="edge16" class="edge">
<title>Node12&#45;&gt;Node2</title>
<path fill="none" stroke="midnightblue" d="M1437.51,-112.46C1464.93,-101.32 1504.01,-80.34 1487.5,-56 1471.61,-32.58 1441.39,-21.34 1416.19,-15.96"/>
<polygon fill="midnightblue" stroke="midnightblue" points="1416.59,-12.47 1406.11,-14.05 1415.29,-19.35 1416.59,-12.47"/>
</g>
<!-- Node12&#45;&gt;Node6 -->
<g id="edge18" class="edge">
<title>Node12&#45;&gt;Node6</title>
<path fill="none" stroke="midnightblue" d="M1386.56,-112.44C1357.84,-103.32 1312.17,-88.81 1280.18,-78.65"/>
<polygon fill="midnightblue" stroke="midnightblue" points="1280.9,-75.21 1270.31,-75.52 1278.78,-81.88 1280.9,-75.21"/>
</g>
<!-- Node12&#45;&gt;Node11 -->
<g id="edge17" class="edge">
<title>Node12&#45;&gt;Node11</title>
<path fill="none" stroke="midnightblue" d="M1419.77,-112.08C1425.14,-104.46 1433.02,-93.26 1439.58,-83.94"/>
<polygon fill="midnightblue" stroke="midnightblue" points="1442.45,-85.94 1445.34,-75.75 1436.72,-81.91 1442.45,-85.94"/>
</g>
<!-- Node13&#45;&gt;Node6 -->
<g id="edge20" class="edge">
<title>Node13&#45;&gt;Node6</title>
<path fill="none" stroke="midnightblue" d="M630.71,-113.16C634.02,-112.74 637.31,-112.34 640.5,-112 887.37,-85.36 954.86,-112.4 1204.05,-75.97"/>
<polygon fill="midnightblue" stroke="midnightblue" points="1204.76,-79.4 1214.14,-74.47 1203.73,-72.48 1204.76,-79.4"/>
</g>
<!-- Node14 -->
<g id="node14" class="node">
<title>Node14</title>
<g id="a_node14"><a xlink:title=" ">
<polygon fill="none" stroke="#bfbfbf" points="374.5,-56.5 374.5,-75.5 484.5,-75.5 484.5,-56.5 374.5,-56.5"/>
<text text-anchor="middle" x="429.5" y="-63.5" font-family="Helvetica,sans-Serif" font-size="10.00">SparkFunBME280.h</text>
</a>
</g>
</g>
<!-- Node13&#45;&gt;Node14 -->
<g id="edge21" class="edge">
<title>Node13&#45;&gt;Node14</title>
<path fill="none" stroke="midnightblue" d="M557.42,-112.44C531.96,-103.4 491.61,-89.06 463.04,-78.92"/>
<polygon fill="midnightblue" stroke="midnightblue" points="464.07,-75.57 453.47,-75.52 461.72,-82.16 464.07,-75.57"/>
</g>
<!-- Node15&#45;&gt;Node6 -->
<g id="edge28" class="edge">
<title>Node15&#45;&gt;Node6</title>
<path fill="none" stroke="midnightblue" d="M860.73,-113.32C864.04,-112.86 867.31,-112.41 870.5,-112 1015.81,-93.12 1056.19,-100.95 1204.21,-76.03"/>
<polygon fill="midnightblue" stroke="midnightblue" points="1204.85,-79.47 1214.12,-74.34 1203.67,-72.57 1204.85,-79.47"/>
</g>
<!-- Node15&#45;&gt;Node10 -->
<g id="edge26" class="edge">
<title>Node15&#45;&gt;Node10</title>
<path fill="none" stroke="midnightblue" d="M817.28,-112.08C822.17,-104.53 829.33,-93.49 835.33,-84.23"/>
<polygon fill="midnightblue" stroke="midnightblue" points="838.33,-86.05 840.83,-75.75 832.45,-82.24 838.33,-86.05"/>
</g>
<!-- Node15&#45;&gt;Node11 -->
<g id="edge27" class="edge">
<title>Node15&#45;&gt;Node11</title>
<path fill="none" stroke="midnightblue" d="M860.71,-113.17C864.02,-112.74 867.31,-112.35 870.5,-112 1108.52,-86.03 1173.9,-112.84 1414.75,-75.8"/>
<polygon fill="midnightblue" stroke="midnightblue" points="1415.53,-79.22 1424.87,-74.22 1414.45,-72.3 1415.53,-79.22"/>
</g>
<!-- Node16 -->
<g id="node16" class="node">
<title>Node16</title>
<g id="a_node16"><a xlink:title=" ">
<polygon fill="none" stroke="#bfbfbf" points="634.5,-56.5 634.5,-75.5 744.5,-75.5 744.5,-56.5 634.5,-56.5"/>
<text text-anchor="middle" x="689.5" y="-63.5" font-family="Helvetica,sans-Serif" font-size="10.00">Adafruit_BME680.h</text>
</a>
</g>
</g>
<!-- Node15&#45;&gt;Node16 -->
<g id="edge23" class="edge">
<title>Node15&#45;&gt;Node16</title>
<path fill="none" stroke="midnightblue" d="M792.17,-112.44C772.18,-103.6 740.76,-89.69 717.94,-79.59"/>
<polygon fill="midnightblue" stroke="midnightblue" points="719.3,-76.36 708.74,-75.52 716.47,-82.76 719.3,-76.36"/>
</g>
<!-- Node17 -->
<g id="node17" class="node">
<title>Node17</title>
<g id="a_node17"><a xlink:title=" ">
<polygon fill="none" stroke="#bfbfbf" points="1094.5,-56.5 1094.5,-75.5 1196.5,-75.5 1196.5,-56.5 1094.5,-56.5"/>
<text text-anchor="middle" x="1145.5" y="-63.5" font-family="Helvetica,sans-Serif" font-size="10.00">Adafruit_Sensor.h</text>
</a>
</g>
</g>
<!-- Node15&#45;&gt;Node17 -->
<g id="edge24" class="edge">
<title>Node15&#45;&gt;Node17</title>
<path fill="none" stroke="midnightblue" d="M860.78,-113.03C920.21,-103.42 1020.09,-87.28 1084.37,-76.88"/>
<polygon fill="midnightblue" stroke="midnightblue" points="1085.06,-80.32 1094.37,-75.27 1083.94,-73.41 1085.06,-80.32"/>
</g>
<!-- Node18 -->
<g id="node18" class="node">
<title>Node18</title>
<g id="a_node18"><a xlink:title=" ">
<polygon fill="none" stroke="#bfbfbf" points="763,-56.5 763,-75.5 804,-75.5 804,-56.5 763,-56.5"/>
<text text-anchor="middle" x="783.5" y="-63.5" font-family="Helvetica,sans-Serif" font-size="10.00">SPI.h</text>
</a>
</g>
</g>
<!-- Node15&#45;&gt;Node18 -->
<g id="edge25" class="edge">
<title>Node15&#45;&gt;Node18</title>
<path fill="none" stroke="midnightblue" d="M806.88,-112.08C803.04,-104.69 797.48,-93.95 792.74,-84.81"/>
<polygon fill="midnightblue" stroke="midnightblue" points="795.75,-83.02 788.04,-75.75 789.53,-86.24 795.75,-83.02"/>
</g>
<!-- Node19&#45;&gt;Node6 -->
<g id="edge31" class="edge">
<title>Node19&#45;&gt;Node6</title>
<path fill="none" stroke="midnightblue" d="M974.24,-113.39C1043.01,-102.42 1165.31,-82.86 1204.17,-76.02"/>
<polygon fill="midnightblue" stroke="midnightblue" points="1204.89,-79.45 1214.09,-74.19 1203.62,-72.56 1204.89,-79.45"/>
</g>
<!-- Node20 -->
<g id="node20" class="node">
<title>Node20</title>
<g id="a_node20"><a xlink:title=" ">
<polygon fill="none" stroke="#bfbfbf" points="888.5,-56.5 888.5,-75.5 944.5,-75.5 944.5,-56.5 888.5,-56.5"/>
<text text-anchor="middle" x="916.5" y="-63.5" font-family="Helvetica,sans-Serif" font-size="10.00">RTClib.h</text>
</a>
</g>
</g>
<!-- Node19&#45;&gt;Node20 -->
<g id="edge30" class="edge">
<title>Node19&#45;&gt;Node20</title>
<path fill="none" stroke="midnightblue" d="M924.85,-112.08C923.52,-104.93 921.62,-94.64 919.96,-85.69"/>
<polygon fill="midnightblue" stroke="midnightblue" points="923.38,-84.95 918.12,-75.75 916.5,-86.22 923.38,-84.95"/>
</g>
<!-- Node21&#45;&gt;Node6 -->
<g id="edge34" class="edge">
<title>Node21&#45;&gt;Node6</title>
<path fill="none" stroke="midnightblue" d="M744.05,-113.21C747.24,-112.77 750.42,-112.37 753.5,-112 950.4,-88.65 1004.68,-106.71 1204.21,-75.97"/>
<polygon fill="midnightblue" stroke="midnightblue" points="1204.79,-79.43 1214.13,-74.43 1203.71,-72.51 1204.79,-79.43"/>
</g>
<!-- Node21&#45;&gt;Node10 -->
<g id="edge33" class="edge">
<title>Node21&#45;&gt;Node10</title>
<path fill="none" stroke="midnightblue" d="M720.27,-112.44C745.39,-103.4 785.21,-89.06 813.4,-78.92"/>
<polygon fill="midnightblue" stroke="midnightblue" points="814.62,-82.2 822.84,-75.52 812.25,-75.61 814.62,-82.2"/>
</g>
<!-- Node22 -->
<g id="node22" class="node">
<title>Node22</title>
<g id="a_node22"><a xlink:title=" ">
<polygon fill="none" stroke="#bfbfbf" points="503,-56.5 503,-75.5 616,-75.5 616,-56.5 503,-56.5"/>
<text text-anchor="middle" x="559.5" y="-63.5" font-family="Helvetica,sans-Serif" font-size="10.00">SparkFun_ENS160.h</text>
</a>
</g>
</g>
<!-- Node21&#45;&gt;Node22 -->
<g id="edge35" class="edge">
<title>Node21&#45;&gt;Node22</title>
<path fill="none" stroke="midnightblue" d="M674.79,-112.44C652.15,-103.52 616.43,-89.44 590.75,-79.32"/>
<polygon fill="midnightblue" stroke="midnightblue" points="591.69,-75.93 581.11,-75.52 589.13,-82.44 591.69,-75.93"/>
</g>
<!-- Node23&#45;&gt;Node2 -->
<g id="edge37" class="edge">
<title>Node23&#45;&gt;Node2</title>
<path fill="none" stroke="midnightblue" d="M1646.27,-112.46C1667.48,-99.9 1700.65,-75.82 1683.5,-56 1649.46,-16.64 1492.71,-11.01 1416.43,-10.65"/>
<polygon fill="midnightblue" stroke="midnightblue" points="1416.23,-7.15 1406.22,-10.63 1416.22,-14.15 1416.23,-7.15"/>
</g>
<!-- Node23&#45;&gt;Node6 -->
<g id="edge38" class="edge">
<title>Node23&#45;&gt;Node6</title>
<path fill="none" stroke="midnightblue" d="M1585.44,-113.34C1582.42,-112.87 1579.42,-112.42 1576.5,-112 1448.96,-93.6 1413.25,-98.97 1282.86,-76.07"/>
<polygon fill="midnightblue" stroke="midnightblue" points="1283.35,-72.61 1272.89,-74.3 1282.12,-79.5 1283.35,-72.61"/>
</g>
<!-- Node24&#45;&gt;Node2 -->
<g id="edge40" class="edge">
<title>Node24&#45;&gt;Node2</title>
<path fill="none" stroke="midnightblue" d="M1737.66,-112.1C1732.55,-97.67 1720.35,-69.45 1699.5,-56 1653.5,-26.33 1493.36,-15.85 1416.41,-12.46"/>
<polygon fill="midnightblue" stroke="midnightblue" points="1416.27,-8.95 1406.13,-12.03 1415.97,-15.95 1416.27,-8.95"/>
</g>
<!-- Node24&#45;&gt;Node6 -->
<g id="edge43" class="edge">
<title>Node24&#45;&gt;Node6</title>
<path fill="none" stroke="midnightblue" d="M1693.78,-113.24C1690.65,-112.8 1687.53,-112.38 1684.5,-112 1509.29,-90.12 1460.75,-104.26 1282.83,-76"/>
<polygon fill="midnightblue" stroke="midnightblue" points="1283.3,-72.53 1272.87,-74.4 1282.19,-79.44 1283.3,-72.53"/>
</g>
<!-- Node24&#45;&gt;Node11 -->
<g id="edge41" class="edge">
<title>Node24&#45;&gt;Node11</title>
<path fill="none" stroke="midnightblue" d="M1694.71,-112.44C1637.41,-101.74 1540.45,-83.62 1487.93,-73.81"/>
<polygon fill="midnightblue" stroke="midnightblue" points="1488.51,-70.36 1478.04,-71.96 1487.23,-77.24 1488.51,-70.36"/>
</g>
<!-- Node25 -->
<g id="node25" class="node">
<title>Node25</title>
<g id="a_node25"><a xlink:title=" ">
<polygon fill="none" stroke="#bfbfbf" points="1769,-56.5 1769,-75.5 1874,-75.5 1874,-56.5 1769,-56.5"/>
<text text-anchor="middle" x="1821.5" y="-63.5" font-family="Helvetica,sans-Serif" font-size="10.00">Adafruit_INA260.h</text>
</a>
</g>
</g>
<!-- Node24&#45;&gt;Node25 -->
<g id="edge42" class="edge">
<title>Node24&#45;&gt;Node25</title>
<path fill="none" stroke="midnightblue" d="M1753.51,-112.32C1766.03,-103.98 1785.18,-91.21 1799.97,-81.35"/>
<polygon fill="midnightblue" stroke="midnightblue" points="1802.14,-84.11 1808.52,-75.65 1798.26,-78.29 1802.14,-84.11"/>
</g>
<!-- Node26&#45;&gt;Node6 -->
<g id="edge48" class="edge">
<title>Node26&#45;&gt;Node6</title>
<path fill="none" stroke="midnightblue" d="M1288.58,-112.08C1280.72,-104.22 1269.07,-92.57 1259.58,-83.08"/>
<polygon fill="midnightblue" stroke="midnightblue" points="1261.8,-80.35 1252.25,-75.75 1256.85,-85.3 1261.8,-80.35"/>
</g>
<!-- Node26&#45;&gt;Node11 -->
<g id="edge47" class="edge">
<title>Node26&#45;&gt;Node11</title>
<path fill="none" stroke="midnightblue" d="M1321.9,-112.44C1347.7,-103.4 1388.58,-89.06 1417.52,-78.92"/>
<polygon fill="midnightblue" stroke="midnightblue" points="1418.93,-82.13 1427.21,-75.52 1416.62,-75.52 1418.93,-82.13"/>
</g>
<!-- Node26&#45;&gt;Node17 -->
<g id="edge46" class="edge">
<title>Node26&#45;&gt;Node17</title>
<path fill="none" stroke="midnightblue" d="M1273.42,-112.44C1247.96,-103.4 1207.61,-89.06 1179.04,-78.92"/>
<polygon fill="midnightblue" stroke="midnightblue" points="1180.07,-75.57 1169.47,-75.52 1177.72,-82.16 1180.07,-75.57"/>
</g>
<!-- Node27 -->
<g id="node27" class="node">
<title>Node27</title>
<g id="a_node27"><a xlink:title=" ">
<polygon fill="none" stroke="#bfbfbf" points="1290.5,-56.5 1290.5,-75.5 1406.5,-75.5 1406.5,-56.5 1290.5,-56.5"/>
<text text-anchor="middle" x="1348.5" y="-63.5" font-family="Helvetica,sans-Serif" font-size="10.00">Adafruit_LSM9DS1.h</text>
</a>
</g>
</g>
<!-- Node26&#45;&gt;Node27 -->
<g id="edge45" class="edge">
<title>Node26&#45;&gt;Node27</title>
<path fill="none" stroke="midnightblue" d="M1305.92,-112.08C1313.35,-104.22 1324.35,-92.57 1333.31,-83.08"/>
<polygon fill="midnightblue" stroke="midnightblue" points="1335.91,-85.42 1340.24,-75.75 1330.82,-80.62 1335.91,-85.42"/>
</g>
<!-- Node28&#45;&gt;Node2 -->
<g id="edge50" class="edge">
<title>Node28&#45;&gt;Node2</title>
<path fill="none" stroke="midnightblue" d="M1934.63,-112.43C1974.48,-102.02 2027.16,-82.49 2002.5,-56 1962.66,-13.21 1550.75,-10.51 1416.53,-10.78"/>
<polygon fill="midnightblue" stroke="midnightblue" points="1416.24,-7.28 1406.25,-10.81 1416.26,-14.28 1416.24,-7.28"/>
</g>
<!-- Node28&#45;&gt;Node6 -->
<g id="edge54" class="edge">
<title>Node28&#45;&gt;Node6</title>
<path fill="none" stroke="midnightblue" d="M1850.67,-116.72C1833.71,-115.16 1814.22,-113.42 1796.5,-112 1571.03,-93.87 1510.05,-110.08 1282.76,-75.96"/>
<polygon fill="midnightblue" stroke="midnightblue" points="1283.28,-72.49 1272.87,-74.45 1282.23,-79.41 1283.28,-72.49"/>
</g>
<!-- Node28&#45;&gt;Node11 -->
<g id="edge52" class="edge">
<title>Node28&#45;&gt;Node11</title>
<path fill="none" stroke="midnightblue" d="M1850.89,-115.58C1763.13,-104.9 1569.53,-81.36 1488.4,-71.49"/>
<polygon fill="midnightblue" stroke="midnightblue" points="1488.53,-67.98 1478.18,-70.24 1487.68,-74.93 1488.53,-67.98"/>
</g>
<!-- Node29 -->
<g id="node29" class="node">
<title>Node29</title>
<g id="a_node29"><a xlink:title=" ">
<polygon fill="none" stroke="#bfbfbf" points="2050,-56.5 2050,-75.5 2103,-75.5 2103,-56.5 2050,-56.5"/>
<text text-anchor="middle" x="2076.5" y="-63.5" font-family="Helvetica,sans-Serif" font-size="10.00">stdint.h</text>
</a>
</g>
</g>
<!-- Node28&#45;&gt;Node29 -->
<g id="edge51" class="edge">
<title>Node28&#45;&gt;Node29</title>
<path fill="none" stroke="midnightblue" d="M1924.18,-112.44C1955.57,-103.08 2005.97,-88.04 2040.12,-77.85"/>
<polygon fill="midnightblue" stroke="midnightblue" points="2041.14,-81.2 2049.72,-74.99 2039.14,-74.49 2041.14,-81.2"/>
</g>
<!-- Node30 -->
<g id="node30" class="node">
<title>Node30</title>
<g id="a_node30"><a xlink:title=" ">
<polygon fill="none" stroke="#bfbfbf" points="1892,-56.5 1892,-75.5 1993,-75.5 1993,-56.5 1892,-56.5"/>
<text text-anchor="middle" x="1942.5" y="-63.5" font-family="Helvetica,sans-Serif" font-size="10.00">Adafruit_SGP30.h</text>
</a>
</g>
</g>
<!-- Node28&#45;&gt;Node30 -->
<g id="edge53" class="edge">
<title>Node28&#45;&gt;Node30</title>
<path fill="none" stroke="midnightblue" d="M1903.26,-112.08C1910.04,-104.3 1920.04,-92.8 1928.26,-83.37"/>
<polygon fill="midnightblue" stroke="midnightblue" points="1930.96,-85.59 1934.88,-75.75 1925.68,-81 1930.96,-85.59"/>
</g>
<!-- Node31&#45;&gt;Node2 -->
<g id="edge56" class="edge">
<title>Node31&#45;&gt;Node2</title>
<path fill="none" stroke="midnightblue" d="M1522.22,-112.18C1521.3,-98.39 1517.55,-71.66 1502.5,-56 1479.82,-32.4 1444.06,-21.17 1416.09,-15.82"/>
<polygon fill="midnightblue" stroke="midnightblue" points="1416.63,-12.36 1406.18,-14.11 1415.44,-19.26 1416.63,-12.36"/>
</g>
<!-- Node31&#45;&gt;Node6 -->
<g id="edge60" class="edge">
<title>Node31&#45;&gt;Node6</title>
<path fill="none" stroke="midnightblue" d="M1477.96,-113.34C1431.57,-105.22 1356.58,-91.68 1282.49,-76.13"/>
<polygon fill="midnightblue" stroke="midnightblue" points="1283.02,-72.67 1272.51,-74.02 1281.57,-79.51 1283.02,-72.67"/>
</g>
<!-- Node31&#45;&gt;Node10 -->
<g id="edge57" class="edge">
<title>Node31&#45;&gt;Node10</title>
<path fill="none" stroke="midnightblue" d="M1477.76,-113.18C1474.63,-112.74 1471.52,-112.34 1468.5,-112 1211.22,-82.78 1140.06,-117.82 880.63,-75.82"/>
<polygon fill="midnightblue" stroke="midnightblue" points="880.96,-72.33 870.52,-74.16 879.83,-79.24 880.96,-72.33"/>
</g>
<!-- Node31&#45;&gt;Node11 -->
<g id="edge58" class="edge">
<title>Node31&#45;&gt;Node11</title>
<path fill="none" stroke="midnightblue" d="M1511.09,-112.32C1500.39,-104.18 1484.16,-91.84 1471.34,-82.09"/>
<polygon fill="midnightblue" stroke="midnightblue" points="1473.19,-79.1 1463.11,-75.83 1468.96,-84.67 1473.19,-79.1"/>
</g>
<!-- Node32 -->
<g id="node32" class="node">
<title>Node32</title>
<g id="a_node32"><a xlink:title=" ">
<polygon fill="none" stroke="#bfbfbf" points="1573,-56.5 1573,-75.5 1674,-75.5 1674,-56.5 1573,-56.5"/>
<text text-anchor="middle" x="1623.5" y="-63.5" font-family="Helvetica,sans-Serif" font-size="10.00">Adafruit_SHT31.h</text>
</a>
</g>
</g>
<!-- Node31&#45;&gt;Node32 -->
<g id="edge59" class="edge">
<title>Node31&#45;&gt;Node32</title>
<path fill="none" stroke="midnightblue" d="M1538.73,-112.32C1554.85,-103.7 1579.8,-90.36 1598.46,-80.39"/>
<polygon fill="midnightblue" stroke="midnightblue" points="1600.14,-83.46 1607.31,-75.65 1596.84,-77.28 1600.14,-83.46"/>
</g>
<!-- Node33&#45;&gt;Node6 -->
<g id="edge62" class="edge">
<title>Node33&#45;&gt;Node6</title>
<path fill="none" stroke="midnightblue" d="M1194.82,-112.32C1203.39,-104.34 1216.31,-92.31 1226.69,-82.65"/>
<polygon fill="midnightblue" stroke="midnightblue" points="1229.08,-85.21 1234.01,-75.83 1224.31,-80.09 1229.08,-85.21"/>
</g>
<!-- Node34&#45;&gt;Node2 -->
<g id="edge64" class="edge">
<title>Node34&#45;&gt;Node2</title>
<path fill="none" stroke="midnightblue" d="M316.54,-112.17C315.52,-97.84 315.94,-69.77 332.5,-56 371.57,-23.51 1143.5,-13.4 1332.84,-11.4"/>
<polygon fill="midnightblue" stroke="midnightblue" points="1332.98,-14.9 1342.95,-11.3 1332.91,-7.9 1332.98,-14.9"/>
</g>
<!-- Node34&#45;&gt;Node7 -->
<g id="edge65" class="edge">
<title>Node34&#45;&gt;Node7</title>
<path fill="none" stroke="midnightblue" d="M306.41,-112.32C296.01,-104.18 280.24,-91.84 267.78,-82.09"/>
<polygon fill="midnightblue" stroke="midnightblue" points="269.82,-79.24 259.79,-75.83 265.51,-84.75 269.82,-79.24"/>
</g>
<!-- Node35&#45;&gt;Node3 -->
<g id="edge67" class="edge">
<title>Node35&#45;&gt;Node3</title>
<path fill="none" stroke="midnightblue" d="M164.13,-112.32C152.34,-104.06 134.37,-91.45 120.36,-81.63"/>
<polygon fill="midnightblue" stroke="midnightblue" points="122.04,-78.53 111.84,-75.65 118.02,-84.26 122.04,-78.53"/>
</g>
<!-- Node35&#45;&gt;Node7 -->
<g id="edge69" class="edge">
<title>Node35&#45;&gt;Node7</title>
<path fill="none" stroke="midnightblue" d="M188.07,-112.32C198.92,-104.18 215.38,-91.84 228.38,-82.09"/>
<polygon fill="midnightblue" stroke="midnightblue" points="230.82,-84.63 236.72,-75.83 226.62,-79.03 230.82,-84.63"/>
</g>
<!-- Node36 -->
<g id="node36" class="node">
<title>Node36</title>
<g id="a_node36"><a xlink:title=" ">
<polygon fill="none" stroke="#bfbfbf" points="160,-56.5 160,-75.5 199,-75.5 199,-56.5 160,-56.5"/>
<text text-anchor="middle" x="179.5" y="-63.5" font-family="Helvetica,sans-Serif" font-size="10.00">SD.h</text>
</a>
</g>
</g>
<!-- Node35&#45;&gt;Node36 -->
<g id="edge68" class="edge">
<title>Node35&#45;&gt;Node36</title>
<path fill="none" stroke="midnightblue" d="M177,-112.08C177.39,-105.01 177.95,-94.86 178.45,-85.99"/>
<polygon fill="midnightblue" stroke="midnightblue" points="181.95,-85.93 179.01,-75.75 174.96,-85.54 181.95,-85.93"/>
</g>
</g>
</svg>
