<?xml version="1.0" encoding="UTF-8" standalone="no"?>
<!DOCTYPE svg PUBLIC "-//W3C//DTD SVG 1.1//EN"
 "http://www.w3.org/Graphics/SVG/1.1/DTD/svg11.dtd">
<!-- Generated by graphviz version 2.43.0 (0)
 -->
<!-- Title: loop Pages: 1 -->
<svg width="500pt" height="212pt"
 viewBox="0.00 0.00 500.00 212.00" xmlns="http://www.w3.org/2000/svg" xmlns:xlink="http://www.w3.org/1999/xlink">
<g id="graph0" class="graph" transform="scale(1 1) rotate(0) translate(4 208)">
<title>loop</title>
<!-- Node1 -->
<g id="Node000001" class="node">
<title>Node1</title>
<g id="a_Node000001"><a xlink:title="Loop for core 0, handling sensor reads.">
<polygon fill="#999999" stroke="#666666" points="38,-111 0,-111 0,-92 38,-92 38,-111"/>
<text text-anchor="middle" x="19" y="-99" font-family="Helvetica,sans-Serif" font-size="10.00">loop</text>
</a>
</g>
</g>
<!-- Node2 -->
<g id="Node000002" class="node">
<title>Node2</title>
<g id="a_Node000002"><a xlink:href="classFlashStorage.html#ac2dd4e8b7b4a85d5820f4277d0fb6727" target="_top" xlink:title=" ">
<polygon fill="white" stroke="#666666" points="192,-204 79,-204 79,-185 192,-185 192,-204"/>
<text text-anchor="middle" x="135.5" y="-192" font-family="Helvetica,sans-Serif" font-size="10.00">FlashStorage::erase</text>
</a>
</g>
</g>
<!-- Node1&#45;&gt;Node2 -->
<g id="edge1_Node000001_Node000002" class="edge">
<title>Node1&#45;&gt;Node2</title>
<g id="a_edge1_Node000001_Node000002"><a xlink:title=" ">
<path fill="none" stroke="#63b8ff" d="M24.32,-111.12C32,-127.11 49.55,-159.12 74,-176.5 76.11,-178 78.35,-179.38 80.67,-180.64"/>
<polygon fill="#63b8ff" stroke="#63b8ff" points="79.41,-183.91 89.95,-184.97 82.37,-177.57 79.41,-183.91"/>
</a>
</g>
</g>
<!-- Node3 -->
<g id="Node000003" class="node">
<title>Node3</title>
<g id="a_Node000003"><a xlink:href="main_8cpp.html#a222d3cef3e43d77865ecbd2f95edba3a" target="_top" xlink:title="Handles data interface mode for retrieving data from flash memory.">
<polygon fill="white" stroke="#666666" points="193.5,-167 77.5,-167 77.5,-148 193.5,-148 193.5,-167"/>
<text text-anchor="middle" x="135.5" y="-155" font-family="Helvetica,sans-Serif" font-size="10.00">handleDataInterface</text>
</a>
</g>
</g>
<!-- Node1&#45;&gt;Node3 -->
<g id="edge2_Node000001_Node000003" class="edge">
<title>Node1&#45;&gt;Node3</title>
<g id="a_edge2_Node000001_Node000003"><a xlink:title=" ">
<path fill="none" stroke="#63b8ff" d="M31.32,-111.12C41.8,-119.61 58.11,-131.8 74,-139.5 77.83,-141.35 81.89,-143.06 86.02,-144.62"/>
<polygon fill="#63b8ff" stroke="#63b8ff" points="85.11,-148.01 95.71,-148 87.42,-141.4 85.11,-148.01"/>
</a>
</g>
</g>
<!-- Node5 -->
<g id="Node000005" class="node">
<title>Node5</title>
<g id="a_Node000005"><a xlink:href="classErrorDisplay.html#a4f9e7e64ffc64711653b539bf3d8d24f" target="_top" xlink:title="Accesses the only instance of ErrorDisplay (Singleton)">
<polygon fill="white" stroke="#666666" points="197,-130 74,-130 74,-111 197,-111 197,-130"/>
<text text-anchor="middle" x="135.5" y="-118" font-family="Helvetica,sans-Serif" font-size="10.00">ErrorDisplay::instance</text>
</a>
</g>
</g>
<!-- Node1&#45;&gt;Node5 -->
<g id="edge4_Node000001_Node000005" class="edge">
<title>Node1&#45;&gt;Node5</title>
<g id="a_edge4_Node000001_Node000005"><a xlink:title=" ">
<path fill="none" stroke="#63b8ff" d="M38.14,-104.51C46.3,-105.86 56.49,-107.56 67.16,-109.33"/>
<polygon fill="#63b8ff" stroke="#63b8ff" points="66.62,-112.78 77.06,-110.97 67.76,-105.88 66.62,-112.78"/>
</a>
</g>
</g>
<!-- Node6 -->
<g id="Node000006" class="node">
<title>Node6</title>
<g id="a_Node000006"><a xlink:href="main_8cpp.html#a9db5e6113d9a0bd03a1b044059ae787b" target="_top" xlink:title="Read data from each verified Sensor.">
<polygon fill="white" stroke="#666666" points="183,-93 88,-93 88,-74 183,-74 183,-93"/>
<text text-anchor="middle" x="135.5" y="-81" font-family="Helvetica,sans-Serif" font-size="10.00">readSensorData</text>
</a>
</g>
</g>
<!-- Node1&#45;&gt;Node6 -->
<g id="edge5_Node000001_Node000006" class="edge">
<title>Node1&#45;&gt;Node6</title>
<g id="a_edge5_Node000001_Node000006"><a xlink:title=" ">
<path fill="none" stroke="#63b8ff" d="M38.14,-98.65C49,-96.94 63.46,-94.67 77.87,-92.4"/>
<polygon fill="#63b8ff" stroke="#63b8ff" points="78.46,-95.85 87.79,-90.84 77.37,-88.94 78.46,-95.85"/>
</a>
</g>
</g>
<!-- Node10 -->
<g id="Node000010" class="node">
<title>Node10</title>
<g id="a_Node000010"><a xlink:href="classFlashStorage.html#a4890571487bb855dd72c050dc37a73f1" target="_top" xlink:title="Store data on flash.">
<polygon fill="white" stroke="#666666" points="191,-56 80,-56 80,-37 191,-37 191,-56"/>
<text text-anchor="middle" x="135.5" y="-44" font-family="Helvetica,sans-Serif" font-size="10.00">FlashStorage::store</text>
</a>
</g>
</g>
<!-- Node1&#45;&gt;Node10 -->
<g id="edge9_Node000001_Node000010" class="edge">
<title>Node1&#45;&gt;Node10</title>
<g id="a_edge9_Node000001_Node000010"><a xlink:title=" ">
<path fill="none" stroke="#63b8ff" d="M32.27,-91.85C42.83,-83.9 58.75,-72.79 74,-65.5 78.66,-63.27 83.64,-61.22 88.68,-59.36"/>
<polygon fill="#63b8ff" stroke="#63b8ff" points="90.04,-62.59 98.34,-56.01 87.75,-55.98 90.04,-62.59"/>
</a>
</g>
</g>
<!-- Node11 -->
<g id="Node000011" class="node">
<title>Node11</title>
<g id="a_Node000011"><a xlink:href="classErrorDisplay.html#a493bde338b369414abffe90e0d49e93b" target="_top" xlink:title="Toggles the level of the error display.">
<polygon fill="white" stroke="#666666" points="192,-19 79,-19 79,0 192,0 192,-19"/>
<text text-anchor="middle" x="135.5" y="-7" font-family="Helvetica,sans-Serif" font-size="10.00">ErrorDisplay::toggle</text>
</a>
</g>
</g>
<!-- Node1&#45;&gt;Node11 -->
<g id="edge10_Node000001_Node000011" class="edge">
<title>Node1&#45;&gt;Node11</title>
<g id="a_edge10_Node000001_Node000011"><a xlink:title=" ">
<path fill="none" stroke="#63b8ff" d="M24.55,-91.93C32.43,-76.34 50.12,-45.52 74,-28.5 76.69,-26.58 79.58,-24.86 82.59,-23.3"/>
<polygon fill="#63b8ff" stroke="#63b8ff" points="84.19,-26.41 91.87,-19.12 81.32,-20.03 84.19,-26.41"/>
</a>
</g>
</g>
<!-- Node4 -->
<g id="Node000004" class="node">
<title>Node4</title>
<g id="a_Node000004"><a xlink:href="classFlashStorage.html#afffc9c3ffc2886608f7ebef3420a6069" target="_top" xlink:title=" ">
<polygon fill="white" stroke="#666666" points="347,-167 233,-167 233,-148 347,-148 347,-167"/>
<text text-anchor="middle" x="290" y="-155" font-family="Helvetica,sans-Serif" font-size="10.00">FlashStorage::dump</text>
</a>
</g>
</g>
<!-- Node3&#45;&gt;Node4 -->
<g id="edge3_Node000003_Node000004" class="edge">
<title>Node3&#45;&gt;Node4</title>
<g id="a_edge3_Node000003_Node000004"><a xlink:title=" ">
<path fill="none" stroke="#63b8ff" d="M193.72,-157.5C203.25,-157.5 213.21,-157.5 222.95,-157.5"/>
<polygon fill="#63b8ff" stroke="#63b8ff" points="222.98,-161 232.98,-157.5 222.98,-154 222.98,-161"/>
</a>
</g>
</g>
<!-- Node7 -->
<g id="Node000007" class="node">
<title>Node7</title>
<g id="a_Node000007"><a xlink:href="classSensor.html#a2d5ecda6a046ddba40d0e37921226d2f" target="_top" xlink:title="Uses readData and readEmpty to get the data&#45;filled or empty&#45;celled CSV line for the sensor.">
<polygon fill="white" stroke="#666666" points="347,-93 233,-93 233,-74 347,-74 347,-93"/>
<text text-anchor="middle" x="290" y="-81" font-family="Helvetica,sans-Serif" font-size="10.00">Sensor::getDataCSV</text>
</a>
</g>
</g>
<!-- Node6&#45;&gt;Node7 -->
<g id="edge6_Node000006_Node000007" class="edge">
<title>Node6&#45;&gt;Node7</title>
<g id="a_edge6_Node000006_Node000007"><a xlink:title=" ">
<path fill="none" stroke="#63b8ff" d="M183.08,-83.5C195.58,-83.5 209.33,-83.5 222.67,-83.5"/>
<polygon fill="#63b8ff" stroke="#63b8ff" points="222.77,-87 232.77,-83.5 222.77,-80 222.77,-87"/>
</a>
</g>
</g>
<!-- Node8 -->
<g id="Node000008" class="node">
<title>Node8</title>
<g id="a_Node000008"><a xlink:href="classSensor.html#a56153cab066abc01692301d11965f9b8" target="_top" xlink:title="Returns the collected data from the sensor in CSV format.">
<polygon fill="white" stroke="#666666" points="488,-112 387,-112 387,-93 488,-93 488,-112"/>
<text text-anchor="middle" x="437.5" y="-100" font-family="Helvetica,sans-Serif" font-size="10.00">Sensor::readData</text>
</a>
</g>
</g>
<!-- Node7&#45;&gt;Node8 -->
<g id="edge7_Node000007_Node000008" class="edge">
<title>Node7&#45;&gt;Node8</title>
<g id="a_edge7_Node000007_Node000008"><a xlink:title=" ">
<path fill="none" stroke="#63b8ff" d="M347.25,-90.85C356.87,-92.1 366.89,-93.41 376.6,-94.68"/>
<polygon fill="#63b8ff" stroke="#63b8ff" points="376.2,-98.15 386.57,-95.98 377.1,-91.21 376.2,-98.15"/>
</a>
</g>
</g>
<!-- Node9 -->
<g id="Node000009" class="node">
<title>Node9</title>
<g id="a_Node000009"><a xlink:href="classSensor.html#a62d72a2f81422ac2d2fa8ae86ba08571" target="_top" xlink:title="Returns CSV line in the same format as readData() but with &quot;&#45;&quot; instead of data.">
<polygon fill="white" stroke="#666666" points="492,-75 383,-75 383,-56 492,-56 492,-75"/>
<text text-anchor="middle" x="437.5" y="-63" font-family="Helvetica,sans-Serif" font-size="10.00">Sensor::readEmpty</text>
</a>
</g>
</g>
<!-- Node7&#45;&gt;Node9 -->
<g id="edge8_Node000007_Node000009" class="edge">
<title>Node7&#45;&gt;Node9</title>
<g id="a_edge8_Node000007_Node000009"><a xlink:title=" ">
<path fill="none" stroke="#63b8ff" d="M347.25,-76.54C355.55,-75.51 364.16,-74.45 372.6,-73.41"/>
<polygon fill="#63b8ff" stroke="#63b8ff" points="373.29,-76.85 382.78,-72.15 372.43,-69.9 373.29,-76.85"/>
</a>
</g>
</g>
</g>
</svg>
