<?xml version="1.0" encoding="UTF-8" standalone="no"?>
<!DOCTYPE svg PUBLIC "-//W3C//DTD SVG 1.1//EN"
 "http://www.w3.org/Graphics/SVG/1.1/DTD/svg11.dtd">
<!-- Generated by graphviz version 2.43.0 (0)
 -->
<!-- Title: loop Pages: 1 -->
<svg width="500pt" height="218pt"
 viewBox="0.00 0.00 500.00 218.00" xmlns="http://www.w3.org/2000/svg" xmlns:xlink="http://www.w3.org/1999/xlink">
<g id="graph0" class="graph" transform="scale(1 1) rotate(0) translate(4 214)">
<title>loop</title>
<!-- Node1 -->
<g id="node1" class="node">
<title>Node1</title>
<g id="a_node1"><a xlink:title="Loop for core 0, handling sensor reads.">
<polygon fill="#bfbfbf" stroke="black" points="0,-95.5 0,-114.5 38,-114.5 38,-95.5 0,-95.5"/>
<text text-anchor="middle" x="19" y="-102.5" font-family="Helvetica,sans-Serif" font-size="10.00">loop</text>
</a>
</g>
</g>
<!-- Node2 -->
<g id="node2" class="node">
<title>Node2</title>
<g id="a_node2"><a xlink:href="classFlashStorage.html#ac2dd4e8b7b4a85d5820f4277d0fb6727" target="_top" xlink:title=" ">
<polygon fill="none" stroke="black" points="79,-190.5 79,-209.5 192,-209.5 192,-190.5 79,-190.5"/>
<text text-anchor="middle" x="135.5" y="-197.5" font-family="Helvetica,sans-Serif" font-size="10.00">FlashStorage::erase</text>
</a>
</g>
</g>
<!-- Node1&#45;&gt;Node2 -->
<g id="edge1" class="edge">
<title>Node1&#45;&gt;Node2</title>
<path fill="none" stroke="midnightblue" d="M24.32,-114.71C31.99,-130.85 49.52,-163.2 74,-181 76.67,-182.94 79.55,-184.69 82.54,-186.26"/>
<polygon fill="midnightblue" stroke="midnightblue" points="81.26,-189.52 91.81,-190.47 84.15,-183.15 81.26,-189.52"/>
</g>
<!-- Node3 -->
<g id="node3" class="node">
<title>Node3</title>
<g id="a_node3"><a xlink:href="main_8cpp.html#a222d3cef3e43d77865ecbd2f95edba3a" target="_top" xlink:title="Handles data interface mode for retrieving data from flash memory.">
<polygon fill="none" stroke="black" points="77.5,-152.5 77.5,-171.5 193.5,-171.5 193.5,-152.5 77.5,-152.5"/>
<text text-anchor="middle" x="135.5" y="-159.5" font-family="Helvetica,sans-Serif" font-size="10.00">handleDataInterface</text>
</a>
</g>
</g>
<!-- Node1&#45;&gt;Node3 -->
<g id="edge2" class="edge">
<title>Node1&#45;&gt;Node3</title>
<path fill="none" stroke="midnightblue" d="M31.35,-114.57C41.85,-123.02 58.17,-135.18 74,-143 78.4,-145.17 83.09,-147.16 87.85,-148.97"/>
<polygon fill="midnightblue" stroke="midnightblue" points="87.04,-152.39 97.64,-152.42 89.37,-145.79 87.04,-152.39"/>
</g>
<!-- Node5 -->
<g id="node5" class="node">
<title>Node5</title>
<g id="a_node5"><a xlink:href="classErrorDisplay.html#a164dea875d8b3215203e5d6f0076f237" target="_top" xlink:title="Accesses the only instance of ErrorDisplay (Singleton)">
<polygon fill="none" stroke="black" points="74,-114.5 74,-133.5 197,-133.5 197,-114.5 74,-114.5"/>
<text text-anchor="middle" x="135.5" y="-121.5" font-family="Helvetica,sans-Serif" font-size="10.00">ErrorDisplay::instance</text>
</a>
</g>
</g>
<!-- Node1&#45;&gt;Node5 -->
<g id="edge4" class="edge">
<title>Node1&#45;&gt;Node5</title>
<path fill="none" stroke="midnightblue" d="M38.14,-108.01C46.3,-109.36 56.49,-111.06 67.16,-112.83"/>
<polygon fill="midnightblue" stroke="midnightblue" points="66.62,-116.28 77.06,-114.47 67.76,-109.38 66.62,-116.28"/>
</g>
<!-- Node6 -->
<g id="node6" class="node">
<title>Node6</title>
<g id="a_node6"><a xlink:href="main_8cpp.html#a9db5e6113d9a0bd03a1b044059ae787b" target="_top" xlink:title="Read data from each verified Sensor.">
<polygon fill="none" stroke="black" points="88,-76.5 88,-95.5 183,-95.5 183,-76.5 88,-76.5"/>
<text text-anchor="middle" x="135.5" y="-83.5" font-family="Helvetica,sans-Serif" font-size="10.00">readSensorData</text>
</a>
</g>
</g>
<!-- Node1&#45;&gt;Node6 -->
<g id="edge5" class="edge">
<title>Node1&#45;&gt;Node6</title>
<path fill="none" stroke="midnightblue" d="M38.14,-101.99C49,-100.19 63.46,-97.79 77.87,-95.4"/>
<polygon fill="midnightblue" stroke="midnightblue" points="78.5,-98.84 87.79,-93.75 77.35,-91.94 78.5,-98.84"/>
</g>
<!-- Node10 -->
<g id="node10" class="node">
<title>Node10</title>
<g id="a_node10"><a xlink:href="main_8cpp.html#a0f14b13edaa51207f1ff6752e4696ee7" target="_top" xlink:title="Sends data to each storage device, assumes storage devices take care of newline/data end themselves.">
<polygon fill="none" stroke="black" points="103,-38.5 103,-57.5 168,-57.5 168,-38.5 103,-38.5"/>
<text text-anchor="middle" x="135.5" y="-45.5" font-family="Helvetica,sans-Serif" font-size="10.00">storeData</text>
</a>
</g>
</g>
<!-- Node1&#45;&gt;Node10 -->
<g id="edge9" class="edge">
<title>Node1&#45;&gt;Node10</title>
<path fill="none" stroke="midnightblue" d="M31.35,-95.43C41.85,-86.98 58.17,-74.82 74,-67 79.89,-64.09 86.33,-61.5 92.74,-59.25"/>
<polygon fill="midnightblue" stroke="midnightblue" points="94.29,-62.42 102.69,-55.98 92.1,-55.77 94.29,-62.42"/>
</g>
<!-- Node12 -->
<g id="node12" class="node">
<title>Node12</title>
<g id="a_node12"><a xlink:href="classErrorDisplay.html#a493bde338b369414abffe90e0d49e93b" target="_top" xlink:title="Toggles the level of the error display.">
<polygon fill="none" stroke="black" points="79,-0.5 79,-19.5 192,-19.5 192,-0.5 79,-0.5"/>
<text text-anchor="middle" x="135.5" y="-7.5" font-family="Helvetica,sans-Serif" font-size="10.00">ErrorDisplay::toggle</text>
</a>
</g>
</g>
<!-- Node1&#45;&gt;Node12 -->
<g id="edge11" class="edge">
<title>Node1&#45;&gt;Node12</title>
<path fill="none" stroke="midnightblue" d="M24.32,-95.29C31.99,-79.15 49.52,-46.8 74,-29 76.67,-27.06 79.55,-25.31 82.54,-23.74"/>
<polygon fill="midnightblue" stroke="midnightblue" points="84.15,-26.85 91.81,-19.53 81.26,-20.48 84.15,-26.85"/>
</g>
<!-- Node4 -->
<g id="node4" class="node">
<title>Node4</title>
<g id="a_node4"><a xlink:href="classFlashStorage.html#afffc9c3ffc2886608f7ebef3420a6069" target="_top" xlink:title=" ">
<polygon fill="none" stroke="black" points="233,-152.5 233,-171.5 347,-171.5 347,-152.5 233,-152.5"/>
<text text-anchor="middle" x="290" y="-159.5" font-family="Helvetica,sans-Serif" font-size="10.00">FlashStorage::dump</text>
</a>
</g>
</g>
<!-- Node3&#45;&gt;Node4 -->
<g id="edge3" class="edge">
<title>Node3&#45;&gt;Node4</title>
<path fill="none" stroke="midnightblue" d="M193.72,-162C203.25,-162 213.21,-162 222.95,-162"/>
<polygon fill="midnightblue" stroke="midnightblue" points="222.98,-165.5 232.98,-162 222.98,-158.5 222.98,-165.5"/>
</g>
<!-- Node7 -->
<g id="node7" class="node">
<title>Node7</title>
<g id="a_node7"><a xlink:href="classSensor.html#a2d5ecda6a046ddba40d0e37921226d2f" target="_top" xlink:title="Uses readData and readEmpty to get the data&#45;filled or empty&#45;celled CSV line for the sensor.">
<polygon fill="none" stroke="black" points="233,-76.5 233,-95.5 347,-95.5 347,-76.5 233,-76.5"/>
<text text-anchor="middle" x="290" y="-83.5" font-family="Helvetica,sans-Serif" font-size="10.00">Sensor::getDataCSV</text>
</a>
</g>
</g>
<!-- Node6&#45;&gt;Node7 -->
<g id="edge6" class="edge">
<title>Node6&#45;&gt;Node7</title>
<path fill="none" stroke="midnightblue" d="M183.08,-86C195.58,-86 209.33,-86 222.67,-86"/>
<polygon fill="midnightblue" stroke="midnightblue" points="222.77,-89.5 232.77,-86 222.77,-82.5 222.77,-89.5"/>
</g>
<!-- Node8 -->
<g id="node8" class="node">
<title>Node8</title>
<g id="a_node8"><a xlink:href="classSensor.html#a56153cab066abc01692301d11965f9b8" target="_top" xlink:title="Returns the collected data from the sensor in CSV format.">
<polygon fill="none" stroke="black" points="387,-95.5 387,-114.5 488,-114.5 488,-95.5 387,-95.5"/>
<text text-anchor="middle" x="437.5" y="-102.5" font-family="Helvetica,sans-Serif" font-size="10.00">Sensor::readData</text>
</a>
</g>
</g>
<!-- Node7&#45;&gt;Node8 -->
<g id="edge7" class="edge">
<title>Node7&#45;&gt;Node8</title>
<path fill="none" stroke="midnightblue" d="M347.25,-93.35C356.87,-94.6 366.89,-95.91 376.6,-97.18"/>
<polygon fill="midnightblue" stroke="midnightblue" points="376.2,-100.65 386.57,-98.48 377.1,-93.71 376.2,-100.65"/>
</g>
<!-- Node9 -->
<g id="node9" class="node">
<title>Node9</title>
<g id="a_node9"><a xlink:href="classSensor.html#a62d72a2f81422ac2d2fa8ae86ba08571" target="_top" xlink:title="Returns CSV line in the same format as readData() but with &quot;&#45;&quot; instead of data.">
<polygon fill="none" stroke="black" points="383,-57.5 383,-76.5 492,-76.5 492,-57.5 383,-57.5"/>
<text text-anchor="middle" x="437.5" y="-64.5" font-family="Helvetica,sans-Serif" font-size="10.00">Sensor::readEmpty</text>
</a>
</g>
</g>
<!-- Node7&#45;&gt;Node9 -->
<g id="edge8" class="edge">
<title>Node7&#45;&gt;Node9</title>
<path fill="none" stroke="midnightblue" d="M347.25,-78.65C355.55,-77.57 364.16,-76.45 372.6,-75.34"/>
<polygon fill="midnightblue" stroke="midnightblue" points="373.32,-78.78 382.78,-74.01 372.42,-71.84 373.32,-78.78"/>
</g>
<!-- Node11 -->
<g id="node11" class="node">
<title>Node11</title>
<g id="a_node11"><a xlink:href="classStorage.html#a08674ceb4404690065b1cf39963eb5a3" target="_top" xlink:title="Send data to storage device.">
<polygon fill="none" stroke="black" points="247.5,-38.5 247.5,-57.5 332.5,-57.5 332.5,-38.5 247.5,-38.5"/>
<text text-anchor="middle" x="290" y="-45.5" font-family="Helvetica,sans-Serif" font-size="10.00">Storage::store</text>
</a>
</g>
</g>
<!-- Node10&#45;&gt;Node11 -->
<g id="edge10" class="edge">
<title>Node10&#45;&gt;Node11</title>
<path fill="none" stroke="midnightblue" d="M168.1,-48C188,-48 214.16,-48 237.05,-48"/>
<polygon fill="midnightblue" stroke="midnightblue" points="237.31,-51.5 247.31,-48 237.31,-44.5 237.31,-51.5"/>
</g>
</g>
</svg>
