<?xml version="1.0" encoding="UTF-8" standalone="no"?>
<!DOCTYPE svg PUBLIC "-//W3C//DTD SVG 1.1//EN"
 "http://www.w3.org/Graphics/SVG/1.1/DTD/svg11.dtd">
<!-- Generated by graphviz version 2.43.0 (0)
 -->
<!-- Title: main.cpp Pages: 1 -->
<svg width="2724pt" height="196pt"
 viewBox="0.00 0.00 2724.05 196.00" xmlns="http://www.w3.org/2000/svg" xmlns:xlink="http://www.w3.org/1999/xlink">
<g id="graph0" class="graph" transform="scale(1 1) rotate(0) translate(4 192)">
<title>main.cpp</title>
<!-- Node1 -->
<g id="node1" class="node">
<title>Node1</title>
<g id="a_node1"><a xlink:title=" ">
<polygon fill="#bfbfbf" stroke="black" points="930.5,-168.5 930.5,-187.5 992.5,-187.5 992.5,-168.5 930.5,-168.5"/>
<text text-anchor="middle" x="961.5" y="-175.5" font-family="Helvetica,sans-Serif" font-size="10.00">main.cpp</text>
</a>
</g>
</g>
<!-- Node2 -->
<g id="node2" class="node">
<title>Node2</title>
<g id="a_node2"><a xlink:title=" ">
<polygon fill="none" stroke="#bfbfbf" points="611,-0.5 611,-19.5 674,-19.5 674,-0.5 611,-0.5"/>
<text text-anchor="middle" x="642.5" y="-7.5" font-family="Helvetica,sans-Serif" font-size="10.00">Arduino.h</text>
</a>
</g>
</g>
<!-- Node1&#45;&gt;Node2 -->
<g id="edge1" class="edge">
<title>Node1&#45;&gt;Node2</title>
<path fill="none" stroke="midnightblue" d="M930.47,-176.6C825.8,-174.94 490.41,-166.9 458.5,-132 444.69,-116.9 448.83,-78.66 470.5,-56 488.26,-37.42 555.7,-23.97 600.67,-16.84"/>
<polygon fill="midnightblue" stroke="midnightblue" points="601.38,-20.27 610.73,-15.29 600.31,-13.35 601.38,-20.27"/>
</g>
<!-- Node3 -->
<g id="node3" class="node">
<title>Node3</title>
<g id="a_node3"><a xlink:href="ErrorDisplay_8h.html" target="_top" xlink:title=" ">
<polygon fill="none" stroke="black" points="57.5,-56.5 57.5,-75.5 141.5,-75.5 141.5,-56.5 57.5,-56.5"/>
<text text-anchor="middle" x="99.5" y="-63.5" font-family="Helvetica,sans-Serif" font-size="10.00">ErrorDisplay.h</text>
</a>
</g>
</g>
<!-- Node1&#45;&gt;Node3 -->
<g id="edge2" class="edge">
<title>Node1&#45;&gt;Node3</title>
<path fill="none" stroke="midnightblue" d="M930.35,-176.63C791.19,-174.78 230.13,-165.31 159.5,-132 137.87,-121.8 120.36,-99.97 109.96,-84.42"/>
<polygon fill="midnightblue" stroke="midnightblue" points="112.74,-82.28 104.42,-75.72 106.83,-86.03 112.74,-82.28"/>
</g>
<!-- Node4 -->
<g id="node4" class="node">
<title>Node4</title>
<g id="a_node4"><a xlink:href="PayloadConfig_8h.html" target="_top" xlink:title=" ">
<polygon fill="none" stroke="black" points="1555,-0.5 1555,-19.5 1650,-19.5 1650,-0.5 1555,-0.5"/>
<text text-anchor="middle" x="1602.5" y="-7.5" font-family="Helvetica,sans-Serif" font-size="10.00">PayloadConfig.h</text>
</a>
</g>
</g>
<!-- Node1&#45;&gt;Node4 -->
<g id="edge7" class="edge">
<title>Node1&#45;&gt;Node4</title>
<path fill="none" stroke="midnightblue" d="M992.67,-177.02C1138.29,-176.89 1766.02,-173.8 2278.5,-132 2471.9,-116.22 2583.39,-221.75 2711.5,-76 2717.37,-69.32 2717.66,-62.41 2711.5,-56 2674.82,-17.8 1882.98,-12.02 1660.3,-11.15"/>
<polygon fill="midnightblue" stroke="midnightblue" points="1660.14,-7.65 1650.13,-11.12 1660.12,-14.65 1660.14,-7.65"/>
</g>
<!-- Node7 -->
<g id="node7" class="node">
<title>Node7</title>
<g id="a_node7"><a xlink:href="Sensor_8h.html" target="_top" xlink:title=" ">
<polygon fill="none" stroke="black" points="984.5,-56.5 984.5,-75.5 1042.5,-75.5 1042.5,-56.5 984.5,-56.5"/>
<text text-anchor="middle" x="1013.5" y="-63.5" font-family="Helvetica,sans-Serif" font-size="10.00">Sensor.h</text>
</a>
</g>
</g>
<!-- Node1&#45;&gt;Node7 -->
<g id="edge8" class="edge">
<title>Node1&#45;&gt;Node7</title>
<path fill="none" stroke="midnightblue" d="M955.49,-168.09C947.53,-155.08 935.6,-130.43 945.5,-112 953.12,-97.82 967.4,-87.35 980.91,-80.1"/>
<polygon fill="midnightblue" stroke="midnightblue" points="982.63,-83.16 990.05,-75.59 979.53,-76.88 982.63,-83.16"/>
</g>
<!-- Node8 -->
<g id="node8" class="node">
<title>Node8</title>
<g id="a_node8"><a xlink:href="Storage_8h.html" target="_top" xlink:title=" ">
<polygon fill="none" stroke="black" points="255,-56.5 255,-75.5 318,-75.5 318,-56.5 255,-56.5"/>
<text text-anchor="middle" x="286.5" y="-63.5" font-family="Helvetica,sans-Serif" font-size="10.00">Storage.h</text>
</a>
</g>
</g>
<!-- Node1&#45;&gt;Node8 -->
<g id="edge10" class="edge">
<title>Node1&#45;&gt;Node8</title>
<path fill="none" stroke="midnightblue" d="M930.12,-177.18C804.32,-177.59 341.07,-176.08 294.5,-132 282.26,-120.42 281.51,-100.46 283.05,-85.7"/>
<polygon fill="midnightblue" stroke="midnightblue" points="286.54,-86.06 284.52,-75.66 279.61,-85.05 286.54,-86.06"/>
</g>
<!-- Node9 -->
<g id="node9" class="node">
<title>Node9</title>
<g id="a_node9"><a xlink:href="AS7331Sensor_8h.html" target="_top" xlink:title=" ">
<polygon fill="none" stroke="black" points="1277,-112.5 1277,-131.5 1372,-131.5 1372,-112.5 1277,-112.5"/>
<text text-anchor="middle" x="1324.5" y="-119.5" font-family="Helvetica,sans-Serif" font-size="10.00">AS7331Sensor.h</text>
</a>
</g>
</g>
<!-- Node1&#45;&gt;Node9 -->
<g id="edge12" class="edge">
<title>Node1&#45;&gt;Node9</title>
<path fill="none" stroke="midnightblue" d="M992.9,-172.54C1046.81,-164.86 1160.7,-148.49 1266.92,-132.23"/>
<polygon fill="midnightblue" stroke="midnightblue" points="1267.49,-135.68 1276.85,-130.7 1266.43,-128.76 1267.49,-135.68"/>
</g>
<!-- Node13 -->
<g id="node13" class="node">
<title>Node13</title>
<g id="a_node13"><a xlink:href="BME280Sensor_8h.html" target="_top" xlink:title=" ">
<polygon fill="none" stroke="black" points="575.5,-112.5 575.5,-131.5 673.5,-131.5 673.5,-112.5 575.5,-112.5"/>
<text text-anchor="middle" x="624.5" y="-119.5" font-family="Helvetica,sans-Serif" font-size="10.00">BME280Sensor.h</text>
</a>
</g>
</g>
<!-- Node1&#45;&gt;Node13 -->
<g id="edge17" class="edge">
<title>Node1&#45;&gt;Node13</title>
<path fill="none" stroke="midnightblue" d="M930.4,-172.02C874.41,-163.05 755.8,-144.04 683.84,-132.51"/>
<polygon fill="midnightblue" stroke="midnightblue" points="684,-128.99 673.57,-130.86 682.89,-135.9 684,-128.99"/>
</g>
<!-- Node15 -->
<g id="node15" class="node">
<title>Node15</title>
<g id="a_node15"><a xlink:href="BME680Sensor_8h.html" target="_top" xlink:title=" ">
<polygon fill="none" stroke="black" points="1603.5,-112.5 1603.5,-131.5 1701.5,-131.5 1701.5,-112.5 1603.5,-112.5"/>
<text text-anchor="middle" x="1652.5" y="-119.5" font-family="Helvetica,sans-Serif" font-size="10.00">BME680Sensor.h</text>
</a>
</g>
</g>
<!-- Node1&#45;&gt;Node15 -->
<g id="edge20" class="edge">
<title>Node1&#45;&gt;Node15</title>
<path fill="none" stroke="midnightblue" d="M992.53,-174.57C1099.11,-166.25 1451.4,-138.72 1592.9,-127.66"/>
<polygon fill="midnightblue" stroke="midnightblue" points="1593.42,-131.13 1603.12,-126.86 1592.87,-124.15 1593.42,-131.13"/>
</g>
<!-- Node19 -->
<g id="node19" class="node">
<title>Node19</title>
<g id="a_node19"><a xlink:href="DS3231Sensor_8h.html" target="_top" xlink:title=" ">
<polygon fill="none" stroke="black" points="692,-112.5 692,-131.5 787,-131.5 787,-112.5 692,-112.5"/>
<text text-anchor="middle" x="739.5" y="-119.5" font-family="Helvetica,sans-Serif" font-size="10.00">DS3231Sensor.h</text>
</a>
</g>
</g>
<!-- Node1&#45;&gt;Node19 -->
<g id="edge28" class="edge">
<title>Node1&#45;&gt;Node19</title>
<path fill="none" stroke="midnightblue" d="M930.16,-169.38C892.21,-160.15 828,-144.53 784.69,-133.99"/>
<polygon fill="midnightblue" stroke="midnightblue" points="785.25,-130.53 774.71,-131.56 783.6,-137.33 785.25,-130.53"/>
</g>
<!-- Node21 -->
<g id="node21" class="node">
<title>Node21</title>
<g id="a_node21"><a xlink:href="ENS160Sensor_8h.html" target="_top" xlink:title=" ">
<polygon fill="none" stroke="black" points="1057,-112.5 1057,-131.5 1152,-131.5 1152,-112.5 1057,-112.5"/>
<text text-anchor="middle" x="1104.5" y="-119.5" font-family="Helvetica,sans-Serif" font-size="10.00">ENS160Sensor.h</text>
</a>
</g>
</g>
<!-- Node1&#45;&gt;Node21 -->
<g id="edge31" class="edge">
<title>Node1&#45;&gt;Node21</title>
<path fill="none" stroke="midnightblue" d="M984.16,-168.44C1007.9,-159.48 1045.41,-145.31 1072.24,-135.18"/>
<polygon fill="midnightblue" stroke="midnightblue" points="1073.83,-138.32 1081.95,-131.52 1071.36,-131.77 1073.83,-138.32"/>
</g>
<!-- Node23 -->
<g id="node23" class="node">
<title>Node23</title>
<g id="a_node23"><a xlink:href="GeigerSensor_8h.html" target="_top" xlink:title=" ">
<polygon fill="none" stroke="black" points="467.5,-112.5 467.5,-131.5 557.5,-131.5 557.5,-112.5 467.5,-112.5"/>
<text text-anchor="middle" x="512.5" y="-119.5" font-family="Helvetica,sans-Serif" font-size="10.00">GeigerSensor.h</text>
</a>
</g>
</g>
<!-- Node1&#45;&gt;Node23 -->
<g id="edge35" class="edge">
<title>Node1&#45;&gt;Node23</title>
<path fill="none" stroke="midnightblue" d="M930.45,-174.01C865.27,-167.63 709.21,-151.72 567.72,-132.11"/>
<polygon fill="midnightblue" stroke="midnightblue" points="567.94,-128.6 557.55,-130.69 566.97,-135.54 567.94,-128.6"/>
</g>
<!-- Node24 -->
<g id="node24" class="node">
<title>Node24</title>
<g id="a_node24"><a xlink:href="ICM20948Sensor_8h.html" target="_top" xlink:title=" ">
<polygon fill="none" stroke="black" points="2162,-112.5 2162,-131.5 2269,-131.5 2269,-112.5 2162,-112.5"/>
<text text-anchor="middle" x="2215.5" y="-119.5" font-family="Helvetica,sans-Serif" font-size="10.00">ICM20948Sensor.h</text>
</a>
</g>
</g>
<!-- Node1&#45;&gt;Node24 -->
<g id="edge38" class="edge">
<title>Node1&#45;&gt;Node24</title>
<path fill="none" stroke="midnightblue" d="M992.78,-176.07C1125.1,-172.09 1651.97,-155.52 2084.5,-132 2106.41,-130.81 2130.36,-129.24 2151.72,-127.75"/>
<polygon fill="midnightblue" stroke="midnightblue" points="2152.25,-131.22 2161.98,-127.02 2151.76,-124.24 2152.25,-131.22"/>
</g>
<!-- Node27 -->
<g id="node27" class="node">
<title>Node27</title>
<g id="a_node27"><a xlink:href="INA260Sensor_8h.html" target="_top" xlink:title=" ">
<polygon fill="none" stroke="black" points="805,-112.5 805,-131.5 898,-131.5 898,-112.5 805,-112.5"/>
<text text-anchor="middle" x="851.5" y="-119.5" font-family="Helvetica,sans-Serif" font-size="10.00">INA260Sensor.h</text>
</a>
</g>
</g>
<!-- Node1&#45;&gt;Node27 -->
<g id="edge45" class="edge">
<title>Node1&#45;&gt;Node27</title>
<path fill="none" stroke="midnightblue" d="M943.83,-168.32C926.11,-159.62 898.6,-146.12 878.21,-136.11"/>
<polygon fill="midnightblue" stroke="midnightblue" points="879.65,-132.92 869.13,-131.65 876.56,-139.2 879.65,-132.92"/>
</g>
<!-- Node29 -->
<g id="node29" class="node">
<title>Node29</title>
<g id="a_node29"><a xlink:href="LSM9DS1Sensor_8h.html" target="_top" xlink:title=" ">
<polygon fill="none" stroke="black" points="1971.5,-112.5 1971.5,-131.5 2075.5,-131.5 2075.5,-112.5 1971.5,-112.5"/>
<text text-anchor="middle" x="2023.5" y="-119.5" font-family="Helvetica,sans-Serif" font-size="10.00">LSM9DS1Sensor.h</text>
</a>
</g>
</g>
<!-- Node1&#45;&gt;Node29 -->
<g id="edge50" class="edge">
<title>Node1&#45;&gt;Node29</title>
<path fill="none" stroke="midnightblue" d="M992.52,-175.75C1110.21,-170.94 1540.37,-152.89 1894.5,-132 1916.26,-130.72 1940.08,-129.11 1961.26,-127.61"/>
<polygon fill="midnightblue" stroke="midnightblue" points="1961.69,-131.09 1971.42,-126.89 1961.2,-124.11 1961.69,-131.09"/>
</g>
<!-- Node31 -->
<g id="node31" class="node">
<title>Node31</title>
<g id="a_node31"><a xlink:href="MTK3339Sensor_8h.html" target="_top" xlink:title=" ">
<polygon fill="none" stroke="black" points="1390.5,-112.5 1390.5,-131.5 1494.5,-131.5 1494.5,-112.5 1390.5,-112.5"/>
<text text-anchor="middle" x="1442.5" y="-119.5" font-family="Helvetica,sans-Serif" font-size="10.00">MTK3339Sensor.h</text>
</a>
</g>
</g>
<!-- Node1&#45;&gt;Node31 -->
<g id="edge56" class="edge">
<title>Node1&#45;&gt;Node31</title>
<path fill="none" stroke="midnightblue" d="M992.64,-174.09C1060.87,-167.63 1228.94,-151.2 1380.33,-132.11"/>
<polygon fill="midnightblue" stroke="midnightblue" points="1380.8,-135.58 1390.28,-130.84 1379.91,-128.63 1380.8,-135.58"/>
</g>
<!-- Node33 -->
<g id="node33" class="node">
<title>Node33</title>
<g id="a_node33"><a xlink:href="SGP30Sensor_8h.html" target="_top" xlink:title=" ">
<polygon fill="none" stroke="black" points="1796,-112.5 1796,-131.5 1885,-131.5 1885,-112.5 1796,-112.5"/>
<text text-anchor="middle" x="1840.5" y="-119.5" font-family="Helvetica,sans-Serif" font-size="10.00">SGP30Sensor.h</text>
</a>
</g>
</g>
<!-- Node1&#45;&gt;Node33 -->
<g id="edge63" class="edge">
<title>Node1&#45;&gt;Node33</title>
<path fill="none" stroke="midnightblue" d="M992.54,-175.24C1095.04,-169.39 1431.98,-150.01 1710.5,-132 1735.28,-130.4 1762.71,-128.52 1785.96,-126.89"/>
<polygon fill="midnightblue" stroke="midnightblue" points="1786.25,-130.37 1795.98,-126.18 1785.76,-123.39 1786.25,-130.37"/>
</g>
<!-- Node36 -->
<g id="node36" class="node">
<title>Node36</title>
<g id="a_node36"><a xlink:href="SHT31Sensor_8h.html" target="_top" xlink:title=" ">
<polygon fill="none" stroke="black" points="1170,-112.5 1170,-131.5 1259,-131.5 1259,-112.5 1170,-112.5"/>
<text text-anchor="middle" x="1214.5" y="-119.5" font-family="Helvetica,sans-Serif" font-size="10.00">SHT31Sensor.h</text>
</a>
</g>
</g>
<!-- Node1&#45;&gt;Node36 -->
<g id="edge69" class="edge">
<title>Node1&#45;&gt;Node36</title>
<path fill="none" stroke="midnightblue" d="M992.52,-170.38C1035.45,-161.22 1113.44,-144.57 1164.61,-133.65"/>
<polygon fill="midnightblue" stroke="midnightblue" points="1165.41,-137.06 1174.46,-131.55 1163.95,-130.21 1165.41,-137.06"/>
</g>
<!-- Node38 -->
<g id="node38" class="node">
<title>Node38</title>
<g id="a_node38"><a xlink:href="TempSensor_8h.html" target="_top" xlink:title=" ">
<polygon fill="none" stroke="black" points="954.5,-112.5 954.5,-131.5 1038.5,-131.5 1038.5,-112.5 954.5,-112.5"/>
<text text-anchor="middle" x="996.5" y="-119.5" font-family="Helvetica,sans-Serif" font-size="10.00">TempSensor.h</text>
</a>
</g>
</g>
<!-- Node1&#45;&gt;Node38 -->
<g id="edge75" class="edge">
<title>Node1&#45;&gt;Node38</title>
<path fill="none" stroke="midnightblue" d="M967.28,-168.08C972.17,-160.53 979.33,-149.49 985.33,-140.23"/>
<polygon fill="midnightblue" stroke="midnightblue" points="988.33,-142.05 990.83,-131.75 982.45,-138.24 988.33,-142.05"/>
</g>
<!-- Node39 -->
<g id="node39" class="node">
<title>Node39</title>
<g id="a_node39"><a xlink:href="RadioStorage_8h.html" target="_top" xlink:title=" ">
<polygon fill="none" stroke="black" points="303,-112.5 303,-131.5 394,-131.5 394,-112.5 303,-112.5"/>
<text text-anchor="middle" x="348.5" y="-119.5" font-family="Helvetica,sans-Serif" font-size="10.00">RadioStorage.h</text>
</a>
</g>
</g>
<!-- Node1&#45;&gt;Node39 -->
<g id="edge77" class="edge">
<title>Node1&#45;&gt;Node39</title>
<path fill="none" stroke="midnightblue" d="M930.25,-175.2C845.89,-170.18 606.57,-154.89 408.5,-132 407.21,-131.85 405.9,-131.69 404.57,-131.53"/>
<polygon fill="midnightblue" stroke="midnightblue" points="404.69,-128.02 394.32,-130.2 403.79,-134.96 404.69,-128.02"/>
</g>
<!-- Node40 -->
<g id="node40" class="node">
<title>Node40</title>
<g id="a_node40"><a xlink:href="SDStorage_8h.html" target="_top" xlink:title=" ">
<polygon fill="none" stroke="black" points="169,-112.5 169,-131.5 246,-131.5 246,-112.5 169,-112.5"/>
<text text-anchor="middle" x="207.5" y="-119.5" font-family="Helvetica,sans-Serif" font-size="10.00">SDStorage.h</text>
</a>
</g>
</g>
<!-- Node1&#45;&gt;Node40 -->
<g id="edge81" class="edge">
<title>Node1&#45;&gt;Node40</title>
<path fill="none" stroke="midnightblue" d="M930.3,-176.16C831.72,-173.24 518.2,-162.07 260.5,-132 259.2,-131.85 257.88,-131.69 256.54,-131.51"/>
<polygon fill="midnightblue" stroke="midnightblue" points="256.61,-127.99 246.22,-130.05 255.63,-134.92 256.61,-127.99"/>
</g>
<!-- Node3&#45;&gt;Node2 -->
<g id="edge3" class="edge">
<title>Node3&#45;&gt;Node2</title>
<path fill="none" stroke="midnightblue" d="M141.65,-57.91C146.32,-57.22 151.01,-56.57 155.5,-56 319.69,-35.24 516.17,-20.01 600.59,-13.92"/>
<polygon fill="midnightblue" stroke="midnightblue" points="601.07,-17.39 610.8,-13.19 600.57,-10.41 601.07,-17.39"/>
</g>
<!-- Node3&#45;&gt;Node4 -->
<g id="edge4" class="edge">
<title>Node3&#45;&gt;Node4</title>
<path fill="none" stroke="midnightblue" d="M141.62,-57.64C146.29,-57 150.99,-56.43 155.5,-56 432.1,-29.58 1310.29,-15.23 1544.58,-11.81"/>
<polygon fill="midnightblue" stroke="midnightblue" points="1544.97,-15.3 1554.92,-11.66 1544.87,-8.3 1544.97,-15.3"/>
</g>
<!-- Node5 -->
<g id="node5" class="node">
<title>Node5</title>
<g id="a_node5"><a xlink:title=" ">
<polygon fill="none" stroke="#bfbfbf" points="0,-0.5 0,-19.5 95,-19.5 95,-0.5 0,-0.5"/>
<text text-anchor="middle" x="47.5" y="-7.5" font-family="Helvetica,sans-Serif" font-size="10.00">pico/multicore.h</text>
</a>
</g>
</g>
<!-- Node3&#45;&gt;Node5 -->
<g id="edge5" class="edge">
<title>Node3&#45;&gt;Node5</title>
<path fill="none" stroke="midnightblue" d="M90.91,-56.08C83.34,-48.22 72.12,-36.57 62.99,-27.08"/>
<polygon fill="midnightblue" stroke="midnightblue" points="65.38,-24.53 55.93,-19.75 60.34,-29.38 65.38,-24.53"/>
</g>
<!-- Node6 -->
<g id="node6" class="node">
<title>Node6</title>
<g id="a_node6"><a xlink:title=" ">
<polygon fill="none" stroke="#bfbfbf" points="113.5,-0.5 113.5,-19.5 189.5,-19.5 189.5,-0.5 113.5,-0.5"/>
<text text-anchor="middle" x="151.5" y="-7.5" font-family="Helvetica,sans-Serif" font-size="10.00">pico/stdlib.h</text>
</a>
</g>
</g>
<!-- Node3&#45;&gt;Node6 -->
<g id="edge6" class="edge">
<title>Node3&#45;&gt;Node6</title>
<path fill="none" stroke="midnightblue" d="M108.09,-56.08C115.66,-48.22 126.88,-36.57 136.01,-27.08"/>
<polygon fill="midnightblue" stroke="midnightblue" points="138.66,-29.38 143.07,-19.75 133.62,-24.53 138.66,-29.38"/>
</g>
<!-- Node7&#45;&gt;Node2 -->
<g id="edge9" class="edge">
<title>Node7&#45;&gt;Node2</title>
<path fill="none" stroke="midnightblue" d="M984.1,-57.74C981.2,-57.11 978.3,-56.52 975.5,-56 871.45,-36.7 747.66,-22.15 684.34,-15.32"/>
<polygon fill="midnightblue" stroke="midnightblue" points="684.66,-11.83 674.35,-14.25 683.92,-18.79 684.66,-11.83"/>
</g>
<!-- Node8&#45;&gt;Node2 -->
<g id="edge11" class="edge">
<title>Node8&#45;&gt;Node2</title>
<path fill="none" stroke="midnightblue" d="M318.14,-58.6C322.94,-57.69 327.85,-56.79 332.5,-56 428.09,-39.72 540.9,-24.29 600.57,-16.42"/>
<polygon fill="midnightblue" stroke="midnightblue" points="601.28,-19.86 610.73,-15.09 600.36,-12.92 601.28,-19.86"/>
</g>
<!-- Node9&#45;&gt;Node7 -->
<g id="edge16" class="edge">
<title>Node9&#45;&gt;Node7</title>
<path fill="none" stroke="midnightblue" d="M1276.89,-113.29C1210.86,-102.58 1095.62,-83.78 1052.72,-75.87"/>
<polygon fill="midnightblue" stroke="midnightblue" points="1053.32,-72.42 1042.84,-73.98 1052.01,-79.29 1053.32,-72.42"/>
</g>
<!-- Node10 -->
<g id="node10" class="node">
<title>Node10</title>
<g id="a_node10"><a xlink:title=" ">
<polygon fill="none" stroke="#bfbfbf" points="1285,-56.5 1285,-75.5 1398,-75.5 1398,-56.5 1285,-56.5"/>
<text text-anchor="middle" x="1341.5" y="-63.5" font-family="Helvetica,sans-Serif" font-size="10.00">SparkFun_AS7331.h</text>
</a>
</g>
</g>
<!-- Node9&#45;&gt;Node10 -->
<g id="edge13" class="edge">
<title>Node9&#45;&gt;Node10</title>
<path fill="none" stroke="midnightblue" d="M1327.31,-112.08C1329.58,-104.85 1332.87,-94.41 1335.71,-85.4"/>
<polygon fill="midnightblue" stroke="midnightblue" points="1339.08,-86.34 1338.75,-75.75 1332.4,-84.24 1339.08,-86.34"/>
</g>
<!-- Node11 -->
<g id="node11" class="node">
<title>Node11</title>
<g id="a_node11"><a xlink:title=" ">
<polygon fill="none" stroke="#bfbfbf" points="1218.5,-56.5 1218.5,-75.5 1266.5,-75.5 1266.5,-56.5 1218.5,-56.5"/>
<text text-anchor="middle" x="1242.5" y="-63.5" font-family="Helvetica,sans-Serif" font-size="10.00">Wire.h</text>
</a>
</g>
</g>
<!-- Node9&#45;&gt;Node11 -->
<g id="edge14" class="edge">
<title>Node9&#45;&gt;Node11</title>
<path fill="none" stroke="midnightblue" d="M1311.33,-112.32C1298.65,-103.98 1279.27,-91.21 1264.29,-81.35"/>
<polygon fill="midnightblue" stroke="midnightblue" points="1265.92,-78.23 1255.64,-75.65 1262.07,-84.08 1265.92,-78.23"/>
</g>
<!-- Node12 -->
<g id="node12" class="node">
<title>Node12</title>
<g id="a_node12"><a xlink:title=" ">
<polygon fill="none" stroke="#bfbfbf" points="1659,-56.5 1659,-75.5 1712,-75.5 1712,-56.5 1659,-56.5"/>
<text text-anchor="middle" x="1685.5" y="-63.5" font-family="Helvetica,sans-Serif" font-size="10.00">string.h</text>
</a>
</g>
</g>
<!-- Node9&#45;&gt;Node12 -->
<g id="edge15" class="edge">
<title>Node9&#45;&gt;Node12</title>
<path fill="none" stroke="midnightblue" d="M1372.07,-113.4C1375.26,-112.92 1378.43,-112.45 1381.5,-112 1497.71,-95.05 1530.39,-98.84 1648.99,-76.11"/>
<polygon fill="midnightblue" stroke="midnightblue" points="1649.67,-79.55 1658.82,-74.21 1648.34,-72.68 1649.67,-79.55"/>
</g>
<!-- Node13&#45;&gt;Node7 -->
<g id="edge18" class="edge">
<title>Node13&#45;&gt;Node7</title>
<path fill="none" stroke="midnightblue" d="M673.74,-113.38C677.04,-112.9 680.32,-112.44 683.5,-112 809.87,-94.58 845.09,-98.87 974.23,-76.06"/>
<polygon fill="midnightblue" stroke="midnightblue" points="974.88,-79.5 984.11,-74.3 973.65,-72.61 974.88,-79.5"/>
</g>
<!-- Node14 -->
<g id="node14" class="node">
<title>Node14</title>
<g id="a_node14"><a xlink:title=" ">
<polygon fill="none" stroke="#bfbfbf" points="488.5,-56.5 488.5,-75.5 598.5,-75.5 598.5,-56.5 488.5,-56.5"/>
<text text-anchor="middle" x="543.5" y="-63.5" font-family="Helvetica,sans-Serif" font-size="10.00">SparkFunBME280.h</text>
</a>
</g>
</g>
<!-- Node13&#45;&gt;Node14 -->
<g id="edge19" class="edge">
<title>Node13&#45;&gt;Node14</title>
<path fill="none" stroke="midnightblue" d="M611.49,-112.32C598.97,-103.98 579.82,-91.21 565.03,-81.35"/>
<polygon fill="midnightblue" stroke="midnightblue" points="566.74,-78.29 556.48,-75.65 562.86,-84.11 566.74,-78.29"/>
</g>
<!-- Node15&#45;&gt;Node4 -->
<g id="edge26" class="edge">
<title>Node15&#45;&gt;Node4</title>
<path fill="none" stroke="midnightblue" d="M1674.66,-112.32C1700.48,-100.87 1737.68,-79.42 1721.5,-56 1707.49,-35.73 1683.09,-24.58 1660.02,-18.45"/>
<polygon fill="midnightblue" stroke="midnightblue" points="1660.79,-15.03 1650.25,-16.12 1659.16,-21.84 1660.79,-15.03"/>
</g>
<!-- Node15&#45;&gt;Node7 -->
<g id="edge27" class="edge">
<title>Node15&#45;&gt;Node7</title>
<path fill="none" stroke="midnightblue" d="M1603.28,-117.74C1475.48,-109.22 1137.76,-86.31 1052.86,-75.65"/>
<polygon fill="midnightblue" stroke="midnightblue" points="1053.18,-72.16 1042.8,-74.26 1052.22,-79.1 1053.18,-72.16"/>
</g>
<!-- Node15&#45;&gt;Node11 -->
<g id="edge24" class="edge">
<title>Node15&#45;&gt;Node11</title>
<path fill="none" stroke="midnightblue" d="M1603.49,-117.33C1531.4,-111.44 1392.73,-98.23 1276.5,-76 1276.4,-75.98 1276.3,-75.96 1276.2,-75.94"/>
<polygon fill="midnightblue" stroke="midnightblue" points="1277.07,-72.55 1266.55,-73.81 1275.56,-79.39 1277.07,-72.55"/>
</g>
<!-- Node15&#45;&gt;Node12 -->
<g id="edge25" class="edge">
<title>Node15&#45;&gt;Node12</title>
<path fill="none" stroke="midnightblue" d="M1657.95,-112.08C1662.51,-104.61 1669.17,-93.72 1674.79,-84.52"/>
<polygon fill="midnightblue" stroke="midnightblue" points="1677.92,-86.11 1680.15,-75.75 1671.95,-82.46 1677.92,-86.11"/>
</g>
<!-- Node16 -->
<g id="node16" class="node">
<title>Node16</title>
<g id="a_node16"><a xlink:title=" ">
<polygon fill="none" stroke="#bfbfbf" points="1768.5,-56.5 1768.5,-75.5 1878.5,-75.5 1878.5,-56.5 1768.5,-56.5"/>
<text text-anchor="middle" x="1823.5" y="-63.5" font-family="Helvetica,sans-Serif" font-size="10.00">Adafruit_BME680.h</text>
</a>
</g>
</g>
<!-- Node15&#45;&gt;Node16 -->
<g id="edge21" class="edge">
<title>Node15&#45;&gt;Node16</title>
<path fill="none" stroke="midnightblue" d="M1679.6,-112.44C1708.49,-103.32 1754.42,-88.81 1786.61,-78.65"/>
<polygon fill="midnightblue" stroke="midnightblue" points="1788.05,-81.87 1796.53,-75.52 1785.94,-75.19 1788.05,-81.87"/>
</g>
<!-- Node17 -->
<g id="node17" class="node">
<title>Node17</title>
<g id="a_node17"><a xlink:title=" ">
<polygon fill="none" stroke="#bfbfbf" points="2164.5,-56.5 2164.5,-75.5 2266.5,-75.5 2266.5,-56.5 2164.5,-56.5"/>
<text text-anchor="middle" x="2215.5" y="-63.5" font-family="Helvetica,sans-Serif" font-size="10.00">Adafruit_Sensor.h</text>
</a>
</g>
</g>
<!-- Node15&#45;&gt;Node17 -->
<g id="edge22" class="edge">
<title>Node15&#45;&gt;Node17</title>
<path fill="none" stroke="midnightblue" d="M1701.97,-116.26C1804.88,-106.38 2041.76,-83.66 2154.16,-72.88"/>
<polygon fill="midnightblue" stroke="midnightblue" points="2154.7,-76.35 2164.32,-71.91 2154.03,-69.38 2154.7,-76.35"/>
</g>
<!-- Node18 -->
<g id="node18" class="node">
<title>Node18</title>
<g id="a_node18"><a xlink:title=" ">
<polygon fill="none" stroke="#bfbfbf" points="1600,-56.5 1600,-75.5 1641,-75.5 1641,-56.5 1600,-56.5"/>
<text text-anchor="middle" x="1620.5" y="-63.5" font-family="Helvetica,sans-Serif" font-size="10.00">SPI.h</text>
</a>
</g>
</g>
<!-- Node15&#45;&gt;Node18 -->
<g id="edge23" class="edge">
<title>Node15&#45;&gt;Node18</title>
<path fill="none" stroke="midnightblue" d="M1647.22,-112.08C1642.79,-104.61 1636.34,-93.72 1630.88,-84.52"/>
<polygon fill="midnightblue" stroke="midnightblue" points="1633.79,-82.57 1625.69,-75.75 1627.77,-86.14 1633.79,-82.57"/>
</g>
<!-- Node19&#45;&gt;Node7 -->
<g id="edge30" class="edge">
<title>Node19&#45;&gt;Node7</title>
<path fill="none" stroke="midnightblue" d="M787.09,-112.56C832.69,-104.33 903.7,-91.15 974.5,-76.14"/>
<polygon fill="midnightblue" stroke="midnightblue" points="975.43,-79.52 984.48,-74.01 973.97,-72.67 975.43,-79.52"/>
</g>
<!-- Node20 -->
<g id="node20" class="node">
<title>Node20</title>
<g id="a_node20"><a xlink:title=" ">
<polygon fill="none" stroke="#bfbfbf" points="616.5,-56.5 616.5,-75.5 672.5,-75.5 672.5,-56.5 616.5,-56.5"/>
<text text-anchor="middle" x="644.5" y="-63.5" font-family="Helvetica,sans-Serif" font-size="10.00">RTClib.h</text>
</a>
</g>
</g>
<!-- Node19&#45;&gt;Node20 -->
<g id="edge29" class="edge">
<title>Node19&#45;&gt;Node20</title>
<path fill="none" stroke="midnightblue" d="M724.24,-112.32C709.28,-103.82 686.25,-90.73 668.77,-80.8"/>
<polygon fill="midnightblue" stroke="midnightblue" points="670.15,-77.55 659.73,-75.65 666.69,-83.64 670.15,-77.55"/>
</g>
<!-- Node21&#45;&gt;Node7 -->
<g id="edge33" class="edge">
<title>Node21&#45;&gt;Node7</title>
<path fill="none" stroke="midnightblue" d="M1089.88,-112.32C1075.55,-103.82 1053.49,-90.73 1036.75,-80.8"/>
<polygon fill="midnightblue" stroke="midnightblue" points="1038.47,-77.75 1028.08,-75.65 1034.9,-83.77 1038.47,-77.75"/>
</g>
<!-- Node21&#45;&gt;Node11 -->
<g id="edge32" class="edge">
<title>Node21&#45;&gt;Node11</title>
<path fill="none" stroke="midnightblue" d="M1126.37,-112.44C1149.28,-103.48 1185.48,-89.31 1211.37,-79.18"/>
<polygon fill="midnightblue" stroke="midnightblue" points="1212.7,-82.42 1220.74,-75.52 1210.15,-75.9 1212.7,-82.42"/>
</g>
<!-- Node22 -->
<g id="node22" class="node">
<title>Node22</title>
<g id="a_node22"><a xlink:title=" ">
<polygon fill="none" stroke="#bfbfbf" points="853,-56.5 853,-75.5 966,-75.5 966,-56.5 853,-56.5"/>
<text text-anchor="middle" x="909.5" y="-63.5" font-family="Helvetica,sans-Serif" font-size="10.00">SparkFun_ENS160.h</text>
</a>
</g>
</g>
<!-- Node21&#45;&gt;Node22 -->
<g id="edge34" class="edge">
<title>Node21&#45;&gt;Node22</title>
<path fill="none" stroke="midnightblue" d="M1073.6,-112.44C1040.23,-103.2 986.91,-88.44 950.15,-78.26"/>
<polygon fill="midnightblue" stroke="midnightblue" points="950.83,-74.81 940.25,-75.52 948.96,-81.56 950.83,-74.81"/>
</g>
<!-- Node23&#45;&gt;Node2 -->
<g id="edge36" class="edge">
<title>Node23&#45;&gt;Node2</title>
<path fill="none" stroke="midnightblue" d="M502.32,-112.44C488.11,-99.45 465.55,-74.33 479.5,-56 494.15,-36.75 557.48,-23.64 600.75,-16.74"/>
<polygon fill="midnightblue" stroke="midnightblue" points="601.38,-20.18 610.73,-15.2 600.32,-13.26 601.38,-20.18"/>
</g>
<!-- Node23&#45;&gt;Node7 -->
<g id="edge37" class="edge">
<title>Node23&#45;&gt;Node7</title>
<path fill="none" stroke="midnightblue" d="M557.54,-113.23C560.57,-112.79 563.58,-112.37 566.5,-112 744.25,-89.4 793.58,-104.53 974.03,-76.02"/>
<polygon fill="midnightblue" stroke="midnightblue" points="974.81,-79.44 984.13,-74.4 973.7,-72.53 974.81,-79.44"/>
</g>
<!-- Node24&#45;&gt;Node4 -->
<g id="edge43" class="edge">
<title>Node24&#45;&gt;Node4</title>
<path fill="none" stroke="midnightblue" d="M2269.16,-121.57C2351.14,-121.16 2501.64,-114.95 2535.5,-76 2541.33,-69.29 2541.63,-62.44 2535.5,-56 2505.24,-24.25 1859.59,-14.02 1660.46,-11.62"/>
<polygon fill="midnightblue" stroke="midnightblue" points="1660.24,-8.12 1650.2,-11.5 1660.16,-15.12 1660.24,-8.12"/>
</g>
<!-- Node24&#45;&gt;Node7 -->
<g id="edge44" class="edge">
<title>Node24&#45;&gt;Node7</title>
<path fill="none" stroke="midnightblue" d="M2161.99,-116.91C2138.26,-115.21 2110,-113.32 2084.5,-112 1629.53,-88.44 1509.28,-135.18 1052.93,-75.72"/>
<polygon fill="midnightblue" stroke="midnightblue" points="1053.15,-72.22 1042.78,-74.39 1052.24,-79.16 1053.15,-72.22"/>
</g>
<!-- Node24&#45;&gt;Node12 -->
<g id="edge42" class="edge">
<title>Node24&#45;&gt;Node12</title>
<path fill="none" stroke="midnightblue" d="M2161.76,-116.09C2076.44,-108.22 1904.8,-92 1759.5,-76 1747.36,-74.66 1734.12,-73.09 1722.23,-71.63"/>
<polygon fill="midnightblue" stroke="midnightblue" points="1722.55,-68.15 1712.2,-70.4 1721.7,-75.09 1722.55,-68.15"/>
</g>
<!-- Node24&#45;&gt;Node17 -->
<g id="edge41" class="edge">
<title>Node24&#45;&gt;Node17</title>
<path fill="none" stroke="midnightblue" d="M2215.5,-112.08C2215.5,-105.01 2215.5,-94.86 2215.5,-85.99"/>
<polygon fill="midnightblue" stroke="midnightblue" points="2219,-85.75 2215.5,-75.75 2212,-85.75 2219,-85.75"/>
</g>
<!-- Node25 -->
<g id="node25" class="node">
<title>Node25</title>
<g id="a_node25"><a xlink:title=" ">
<polygon fill="none" stroke="#bfbfbf" points="2583,-56.5 2583,-75.5 2702,-75.5 2702,-56.5 2583,-56.5"/>
<text text-anchor="middle" x="2642.5" y="-63.5" font-family="Helvetica,sans-Serif" font-size="10.00">Adafruit_ICM20948.h</text>
</a>
</g>
</g>
<!-- Node24&#45;&gt;Node25 -->
<g id="edge39" class="edge">
<title>Node24&#45;&gt;Node25</title>
<path fill="none" stroke="midnightblue" d="M2269.15,-114.22C2346.1,-104.48 2487.87,-86.56 2572.83,-75.81"/>
<polygon fill="midnightblue" stroke="midnightblue" points="2573.42,-79.26 2582.9,-74.54 2572.54,-72.32 2573.42,-79.26"/>
</g>
<!-- Node26 -->
<g id="node26" class="node">
<title>Node26</title>
<g id="a_node26"><a xlink:title=" ">
<polygon fill="none" stroke="#bfbfbf" points="2419,-56.5 2419,-75.5 2526,-75.5 2526,-56.5 2419,-56.5"/>
<text text-anchor="middle" x="2472.5" y="-63.5" font-family="Helvetica,sans-Serif" font-size="10.00">Adafruit_ICM20X.h</text>
</a>
</g>
</g>
<!-- Node24&#45;&gt;Node26 -->
<g id="edge40" class="edge">
<title>Node24&#45;&gt;Node26</title>
<path fill="none" stroke="midnightblue" d="M2256.22,-112.44C2301.15,-103 2373.5,-87.8 2422,-77.61"/>
<polygon fill="midnightblue" stroke="midnightblue" points="2422.9,-81 2431.97,-75.52 2421.46,-74.15 2422.9,-81"/>
</g>
<!-- Node27&#45;&gt;Node2 -->
<g id="edge46" class="edge">
<title>Node27&#45;&gt;Node2</title>
<path fill="none" stroke="midnightblue" d="M847.78,-112.39C841.29,-98.39 826.54,-70.78 805.5,-56 769.46,-30.7 719.7,-19.6 684.67,-14.74"/>
<polygon fill="midnightblue" stroke="midnightblue" points="684.66,-11.21 674.3,-13.43 683.78,-18.16 684.66,-11.21"/>
</g>
<!-- Node27&#45;&gt;Node7 -->
<g id="edge49" class="edge">
<title>Node27&#45;&gt;Node7</title>
<path fill="none" stroke="midnightblue" d="M877.17,-112.44C904.42,-103.36 947.68,-88.94 978.15,-78.78"/>
<polygon fill="midnightblue" stroke="midnightblue" points="979.57,-82 987.95,-75.52 977.36,-75.36 979.57,-82"/>
</g>
<!-- Node27&#45;&gt;Node12 -->
<g id="edge47" class="edge">
<title>Node27&#45;&gt;Node12</title>
<path fill="none" stroke="midnightblue" d="M898.32,-116.1C913.37,-114.64 930.13,-113.13 945.5,-112 1255.04,-89.29 1338.56,-122.58 1648.68,-75.98"/>
<polygon fill="midnightblue" stroke="midnightblue" points="1649.5,-79.4 1658.86,-74.44 1648.45,-72.48 1649.5,-79.4"/>
</g>
<!-- Node28 -->
<g id="node28" class="node">
<title>Node28</title>
<g id="a_node28"><a xlink:title=" ">
<polygon fill="none" stroke="#bfbfbf" points="691,-56.5 691,-75.5 796,-75.5 796,-56.5 691,-56.5"/>
<text text-anchor="middle" x="743.5" y="-63.5" font-family="Helvetica,sans-Serif" font-size="10.00">Adafruit_INA260.h</text>
</a>
</g>
</g>
<!-- Node27&#45;&gt;Node28 -->
<g id="edge48" class="edge">
<title>Node27&#45;&gt;Node28</title>
<path fill="none" stroke="midnightblue" d="M834.15,-112.32C816.83,-103.66 789.98,-90.24 770,-80.25"/>
<polygon fill="midnightblue" stroke="midnightblue" points="771.32,-77 760.81,-75.65 768.19,-83.26 771.32,-77"/>
</g>
<!-- Node29&#45;&gt;Node4 -->
<g id="edge54" class="edge">
<title>Node29&#45;&gt;Node4</title>
<path fill="none" stroke="midnightblue" d="M2055.6,-112.44C2091.07,-101.49 2140.36,-80.94 2117.5,-56 2087.09,-22.82 1788.21,-14.01 1660.2,-11.75"/>
<polygon fill="midnightblue" stroke="midnightblue" points="1660.25,-8.25 1650.19,-11.58 1660.13,-15.25 1660.25,-8.25"/>
</g>
<!-- Node29&#45;&gt;Node7 -->
<g id="edge55" class="edge">
<title>Node29&#45;&gt;Node7</title>
<path fill="none" stroke="midnightblue" d="M1971.42,-117.05C1947.93,-115.35 1919.83,-113.42 1894.5,-112 1523.81,-91.15 1425.39,-125.71 1052.76,-75.72"/>
<polygon fill="midnightblue" stroke="midnightblue" points="1053.16,-72.24 1042.78,-74.37 1052.22,-79.17 1053.16,-72.24"/>
</g>
<!-- Node29&#45;&gt;Node12 -->
<g id="edge53" class="edge">
<title>Node29&#45;&gt;Node12</title>
<path fill="none" stroke="midnightblue" d="M1971.43,-112.68C1902.43,-101.66 1782.41,-82.48 1722.19,-72.86"/>
<polygon fill="midnightblue" stroke="midnightblue" points="1722.44,-69.36 1712.01,-71.24 1721.33,-76.27 1722.44,-69.36"/>
</g>
<!-- Node29&#45;&gt;Node17 -->
<g id="edge52" class="edge">
<title>Node29&#45;&gt;Node17</title>
<path fill="none" stroke="midnightblue" d="M2053.92,-112.44C2086.78,-103.2 2139.28,-88.44 2175.47,-78.26"/>
<polygon fill="midnightblue" stroke="midnightblue" points="2176.54,-81.59 2185.22,-75.52 2174.65,-74.85 2176.54,-81.59"/>
</g>
<!-- Node30 -->
<g id="node30" class="node">
<title>Node30</title>
<g id="a_node30"><a xlink:title=" ">
<polygon fill="none" stroke="#bfbfbf" points="2284.5,-56.5 2284.5,-75.5 2400.5,-75.5 2400.5,-56.5 2284.5,-56.5"/>
<text text-anchor="middle" x="2342.5" y="-63.5" font-family="Helvetica,sans-Serif" font-size="10.00">Adafruit_LSM9DS1.h</text>
</a>
</g>
</g>
<!-- Node29&#45;&gt;Node30 -->
<g id="edge51" class="edge">
<title>Node29&#45;&gt;Node30</title>
<path fill="none" stroke="midnightblue" d="M2074.05,-112.44C2130.51,-102.89 2221.87,-87.42 2282.07,-77.23"/>
<polygon fill="midnightblue" stroke="midnightblue" points="2282.91,-80.64 2292.19,-75.52 2281.75,-73.73 2282.91,-80.64"/>
</g>
<!-- Node31&#45;&gt;Node2 -->
<g id="edge58" class="edge">
<title>Node31&#45;&gt;Node2</title>
<path fill="none" stroke="midnightblue" d="M1440.7,-112.42C1437.17,-97.94 1427.81,-68.96 1407.5,-56 1346.43,-17.05 835.67,-11.8 684.49,-11.1"/>
<polygon fill="midnightblue" stroke="midnightblue" points="684.26,-7.6 674.24,-11.06 684.23,-14.6 684.26,-7.6"/>
</g>
<!-- Node31&#45;&gt;Node4 -->
<g id="edge61" class="edge">
<title>Node31&#45;&gt;Node4</title>
<path fill="none" stroke="midnightblue" d="M1446.04,-112.16C1452,-98.33 1465.29,-71.56 1484.5,-56 1504.17,-40.07 1530.08,-29.36 1552.62,-22.4"/>
<polygon fill="midnightblue" stroke="midnightblue" points="1553.76,-25.71 1562.37,-19.55 1551.79,-18.99 1553.76,-25.71"/>
</g>
<!-- Node31&#45;&gt;Node7 -->
<g id="edge62" class="edge">
<title>Node31&#45;&gt;Node7</title>
<path fill="none" stroke="midnightblue" d="M1390.27,-113.16C1387.31,-112.76 1384.37,-112.37 1381.5,-112 1238.88,-93.68 1199.29,-100.26 1053.06,-75.88"/>
<polygon fill="midnightblue" stroke="midnightblue" points="1053.26,-72.37 1042.81,-74.15 1052.09,-79.27 1053.26,-72.37"/>
</g>
<!-- Node31&#45;&gt;Node11 -->
<g id="edge60" class="edge">
<title>Node31&#45;&gt;Node11</title>
<path fill="none" stroke="midnightblue" d="M1410.81,-112.44C1374.16,-102.55 1314.07,-86.32 1276.48,-76.17"/>
<polygon fill="midnightblue" stroke="midnightblue" points="1277.08,-72.71 1266.51,-73.48 1275.25,-79.47 1277.08,-72.71"/>
</g>
<!-- Node31&#45;&gt;Node18 -->
<g id="edge59" class="edge">
<title>Node31&#45;&gt;Node18</title>
<path fill="none" stroke="midnightblue" d="M1471.08,-112.44C1499.16,-104.01 1543.46,-90.68 1590.22,-76.38"/>
<polygon fill="midnightblue" stroke="midnightblue" points="1591.37,-79.68 1599.91,-73.41 1589.32,-72.99 1591.37,-79.68"/>
</g>
<!-- Node32 -->
<g id="node32" class="node">
<title>Node32</title>
<g id="a_node32"><a xlink:title=" ">
<polygon fill="none" stroke="#bfbfbf" points="1493,-56.5 1493,-75.5 1582,-75.5 1582,-56.5 1493,-56.5"/>
<text text-anchor="middle" x="1537.5" y="-63.5" font-family="Helvetica,sans-Serif" font-size="10.00">Adafruit_GPS.h</text>
</a>
</g>
</g>
<!-- Node31&#45;&gt;Node32 -->
<g id="edge57" class="edge">
<title>Node31&#45;&gt;Node32</title>
<path fill="none" stroke="midnightblue" d="M1457.76,-112.32C1472.72,-103.82 1495.75,-90.73 1513.23,-80.8"/>
<polygon fill="midnightblue" stroke="midnightblue" points="1515.31,-83.64 1522.27,-75.65 1511.85,-77.55 1515.31,-83.64"/>
</g>
<!-- Node33&#45;&gt;Node2 -->
<g id="edge64" class="edge">
<title>Node33&#45;&gt;Node2</title>
<path fill="none" stroke="midnightblue" d="M1885.19,-117.95C1946.96,-112.21 2046.66,-96.47 2007.5,-56 1983.92,-31.63 911.51,-14.87 684.46,-11.59"/>
<polygon fill="midnightblue" stroke="midnightblue" points="684.34,-8.09 674.29,-11.44 684.24,-15.09 684.34,-8.09"/>
</g>
<!-- Node33&#45;&gt;Node7 -->
<g id="edge68" class="edge">
<title>Node33&#45;&gt;Node7</title>
<path fill="none" stroke="midnightblue" d="M1795.99,-117.76C1770.89,-115.97 1738.95,-113.76 1710.5,-112 1421.46,-94.09 1344.21,-116.56 1052.8,-75.74"/>
<polygon fill="midnightblue" stroke="midnightblue" points="1053.18,-72.26 1042.79,-74.33 1052.2,-79.19 1053.18,-72.26"/>
</g>
<!-- Node33&#45;&gt;Node12 -->
<g id="edge66" class="edge">
<title>Node33&#45;&gt;Node12</title>
<path fill="none" stroke="midnightblue" d="M1815.94,-112.44C1789.98,-103.4 1748.83,-89.06 1719.7,-78.92"/>
<polygon fill="midnightblue" stroke="midnightblue" points="1720.54,-75.5 1709.95,-75.52 1718.24,-82.11 1720.54,-75.5"/>
</g>
<!-- Node34 -->
<g id="node34" class="node">
<title>Node34</title>
<g id="a_node34"><a xlink:title=" ">
<polygon fill="none" stroke="#bfbfbf" points="2055,-56.5 2055,-75.5 2108,-75.5 2108,-56.5 2055,-56.5"/>
<text text-anchor="middle" x="2081.5" y="-63.5" font-family="Helvetica,sans-Serif" font-size="10.00">stdint.h</text>
</a>
</g>
</g>
<!-- Node33&#45;&gt;Node34 -->
<g id="edge65" class="edge">
<title>Node33&#45;&gt;Node34</title>
<path fill="none" stroke="midnightblue" d="M1878.69,-112.44C1924.25,-102.24 1999.88,-85.29 2044.78,-75.23"/>
<polygon fill="midnightblue" stroke="midnightblue" points="2045.69,-78.61 2054.68,-73.01 2044.16,-71.78 2045.69,-78.61"/>
</g>
<!-- Node35 -->
<g id="node35" class="node">
<title>Node35</title>
<g id="a_node35"><a xlink:title=" ">
<polygon fill="none" stroke="#bfbfbf" points="1897,-56.5 1897,-75.5 1998,-75.5 1998,-56.5 1897,-56.5"/>
<text text-anchor="middle" x="1947.5" y="-63.5" font-family="Helvetica,sans-Serif" font-size="10.00">Adafruit_SGP30.h</text>
</a>
</g>
</g>
<!-- Node33&#45;&gt;Node35 -->
<g id="edge67" class="edge">
<title>Node33&#45;&gt;Node35</title>
<path fill="none" stroke="midnightblue" d="M1857.69,-112.32C1874.85,-103.66 1901.45,-90.24 1921.25,-80.25"/>
<polygon fill="midnightblue" stroke="midnightblue" points="1923,-83.28 1930.35,-75.65 1919.85,-77.04 1923,-83.28"/>
</g>
<!-- Node36&#45;&gt;Node2 -->
<g id="edge70" class="edge">
<title>Node36&#45;&gt;Node2</title>
<path fill="none" stroke="midnightblue" d="M1211.64,-112.43C1206.31,-97.95 1193.38,-68.98 1171.5,-56 1129.95,-31.34 801.6,-16.89 684.12,-12.47"/>
<polygon fill="midnightblue" stroke="midnightblue" points="684.2,-8.97 674.07,-12.09 683.94,-15.96 684.2,-8.97"/>
</g>
<!-- Node36&#45;&gt;Node7 -->
<g id="edge74" class="edge">
<title>Node36&#45;&gt;Node7</title>
<path fill="none" stroke="midnightblue" d="M1182.65,-112.44C1147.29,-102.94 1090.2,-87.61 1052.27,-77.42"/>
<polygon fill="midnightblue" stroke="midnightblue" points="1053.16,-74.03 1042.59,-74.82 1051.34,-80.79 1053.16,-74.03"/>
</g>
<!-- Node36&#45;&gt;Node11 -->
<g id="edge71" class="edge">
<title>Node36&#45;&gt;Node11</title>
<path fill="none" stroke="midnightblue" d="M1219.12,-112.08C1222.96,-104.69 1228.52,-93.95 1233.26,-84.81"/>
<polygon fill="midnightblue" stroke="midnightblue" points="1236.47,-86.24 1237.96,-75.75 1230.25,-83.02 1236.47,-86.24"/>
</g>
<!-- Node36&#45;&gt;Node12 -->
<g id="edge72" class="edge">
<title>Node36&#45;&gt;Node12</title>
<path fill="none" stroke="midnightblue" d="M1259.25,-113.29C1262.38,-112.83 1265.48,-112.39 1268.5,-112 1434.38,-90.39 1480.75,-104.75 1648.91,-76.04"/>
<polygon fill="midnightblue" stroke="midnightblue" points="1649.59,-79.47 1658.84,-74.32 1648.39,-72.58 1649.59,-79.47"/>
</g>
<!-- Node37 -->
<g id="node37" class="node">
<title>Node37</title>
<g id="a_node37"><a xlink:title=" ">
<polygon fill="none" stroke="#bfbfbf" points="1061,-56.5 1061,-75.5 1162,-75.5 1162,-56.5 1061,-56.5"/>
<text text-anchor="middle" x="1111.5" y="-63.5" font-family="Helvetica,sans-Serif" font-size="10.00">Adafruit_SHT31.h</text>
</a>
</g>
</g>
<!-- Node36&#45;&gt;Node37 -->
<g id="edge73" class="edge">
<title>Node36&#45;&gt;Node37</title>
<path fill="none" stroke="midnightblue" d="M1197.95,-112.32C1181.51,-103.7 1156.07,-90.36 1137.03,-80.39"/>
<polygon fill="midnightblue" stroke="midnightblue" points="1138.49,-77.2 1128.01,-75.65 1135.24,-83.4 1138.49,-77.2"/>
</g>
<!-- Node38&#45;&gt;Node7 -->
<g id="edge76" class="edge">
<title>Node38&#45;&gt;Node7</title>
<path fill="none" stroke="midnightblue" d="M999.31,-112.08C1001.58,-104.85 1004.87,-94.41 1007.71,-85.4"/>
<polygon fill="midnightblue" stroke="midnightblue" points="1011.08,-86.34 1010.75,-75.75 1004.4,-84.24 1011.08,-86.34"/>
</g>
<!-- Node39&#45;&gt;Node2 -->
<g id="edge78" class="edge">
<title>Node39&#45;&gt;Node2</title>
<path fill="none" stroke="midnightblue" d="M348.75,-112.3C349.65,-98.16 353.61,-70.35 370.5,-56 404.43,-27.17 532.7,-16.48 600.27,-12.79"/>
<polygon fill="midnightblue" stroke="midnightblue" points="600.77,-16.27 610.57,-12.25 600.4,-9.28 600.77,-16.27"/>
</g>
<!-- Node39&#45;&gt;Node4 -->
<g id="edge79" class="edge">
<title>Node39&#45;&gt;Node4</title>
<path fill="none" stroke="midnightblue" d="M361.17,-112.42C383.76,-97.65 433.01,-67.89 479.5,-56 582.9,-29.56 1329.84,-15.45 1544.78,-11.9"/>
<polygon fill="midnightblue" stroke="midnightblue" points="1544.96,-15.4 1554.91,-11.73 1544.85,-8.4 1544.96,-15.4"/>
</g>
<!-- Node39&#45;&gt;Node8 -->
<g id="edge80" class="edge">
<title>Node39&#45;&gt;Node8</title>
<path fill="none" stroke="midnightblue" d="M338.54,-112.32C329.37,-104.34 315.56,-92.31 304.47,-82.65"/>
<polygon fill="midnightblue" stroke="midnightblue" points="306.48,-79.76 296.64,-75.83 301.88,-85.04 306.48,-79.76"/>
</g>
<!-- Node40&#45;&gt;Node3 -->
<g id="edge82" class="edge">
<title>Node40&#45;&gt;Node3</title>
<path fill="none" stroke="midnightblue" d="M190.15,-112.32C172.83,-103.66 145.98,-90.24 126,-80.25"/>
<polygon fill="midnightblue" stroke="midnightblue" points="127.32,-77 116.81,-75.65 124.19,-83.26 127.32,-77"/>
</g>
<!-- Node40&#45;&gt;Node4 -->
<g id="edge83" class="edge">
<title>Node40&#45;&gt;Node4</title>
<path fill="none" stroke="midnightblue" d="M200.47,-112.14C190.37,-98.28 174.51,-71.48 189.5,-56 213.46,-31.26 1282.07,-15.31 1544.68,-11.75"/>
<polygon fill="midnightblue" stroke="midnightblue" points="1544.81,-15.25 1554.76,-11.62 1544.72,-8.25 1544.81,-15.25"/>
</g>
<!-- Node40&#45;&gt;Node8 -->
<g id="edge85" class="edge">
<title>Node40&#45;&gt;Node8</title>
<path fill="none" stroke="midnightblue" d="M220.19,-112.32C232.4,-103.98 251.08,-91.21 265.5,-81.35"/>
<polygon fill="midnightblue" stroke="midnightblue" points="267.56,-84.19 273.84,-75.65 263.61,-78.41 267.56,-84.19"/>
</g>
<!-- Node41 -->
<g id="node41" class="node">
<title>Node41</title>
<g id="a_node41"><a xlink:title=" ">
<polygon fill="none" stroke="#bfbfbf" points="198,-56.5 198,-75.5 237,-75.5 237,-56.5 198,-56.5"/>
<text text-anchor="middle" x="217.5" y="-63.5" font-family="Helvetica,sans-Serif" font-size="10.00">SD.h</text>
</a>
</g>
</g>
<!-- Node40&#45;&gt;Node41 -->
<g id="edge84" class="edge">
<title>Node40&#45;&gt;Node41</title>
<path fill="none" stroke="midnightblue" d="M209.15,-112.08C210.48,-104.93 212.38,-94.64 214.04,-85.69"/>
<polygon fill="midnightblue" stroke="midnightblue" points="217.5,-86.22 215.88,-75.75 210.62,-84.95 217.5,-86.22"/>
</g>
</g>
</svg>
