<?xml version="1.0" encoding="UTF-8" standalone="no"?>
<!DOCTYPE svg PUBLIC "-//W3C//DTD SVG 1.1//EN"
 "http://www.w3.org/Graphics/SVG/1.1/DTD/svg11.dtd">
<!-- Generated by graphviz version 2.43.0 (0)
 -->
<!-- Title: main.cpp Pages: 1 -->
<svg width="2038pt" height="196pt"
 viewBox="0.00 0.00 2038.00 196.00" xmlns="http://www.w3.org/2000/svg" xmlns:xlink="http://www.w3.org/1999/xlink">
<g id="graph0" class="graph" transform="scale(1 1) rotate(0) translate(4 192)">
<title>main.cpp</title>
<!-- Node1 -->
<g id="node1" class="node">
<title>Node1</title>
<g id="a_node1"><a xlink:title=" ">
<polygon fill="#bfbfbf" stroke="black" points="920.5,-168.5 920.5,-187.5 982.5,-187.5 982.5,-168.5 920.5,-168.5"/>
<text text-anchor="middle" x="951.5" y="-175.5" font-family="Helvetica,sans-Serif" font-size="10.00">main.cpp</text>
</a>
</g>
</g>
<!-- Node2 -->
<g id="node2" class="node">
<title>Node2</title>
<g id="a_node2"><a xlink:title=" ">
<polygon fill="none" stroke="#bfbfbf" points="832,-0.5 832,-19.5 895,-19.5 895,-0.5 832,-0.5"/>
<text text-anchor="middle" x="863.5" y="-7.5" font-family="Helvetica,sans-Serif" font-size="10.00">Arduino.h</text>
</a>
</g>
</g>
<!-- Node1&#45;&gt;Node2 -->
<g id="edge1" class="edge">
<title>Node1&#45;&gt;Node2</title>
<path fill="none" stroke="midnightblue" d="M920.49,-176.38C797.17,-173.73 345.54,-162.03 289.5,-132 261.84,-117.18 256.59,-105.71 246.5,-76 243.64,-67.58 240.45,-62.51 246.5,-56 285.57,-13.97 689.4,-10.75 821.75,-10.84"/>
<polygon fill="midnightblue" stroke="midnightblue" points="821.89,-14.34 831.9,-10.85 821.9,-7.34 821.89,-14.34"/>
</g>
<!-- Node3 -->
<g id="node3" class="node">
<title>Node3</title>
<g id="a_node3"><a xlink:href="ErrorDisplay_8h.html" target="_top" xlink:title=" ">
<polygon fill="none" stroke="black" points="57.5,-56.5 57.5,-75.5 141.5,-75.5 141.5,-56.5 57.5,-56.5"/>
<text text-anchor="middle" x="99.5" y="-63.5" font-family="Helvetica,sans-Serif" font-size="10.00">ErrorDisplay.h</text>
</a>
</g>
</g>
<!-- Node1&#45;&gt;Node3 -->
<g id="edge2" class="edge">
<title>Node1&#45;&gt;Node3</title>
<path fill="none" stroke="midnightblue" d="M920.21,-176.32C772.46,-172.96 150.49,-157.36 118.5,-132 104.84,-121.18 100.63,-101.1 99.51,-86.11"/>
<polygon fill="midnightblue" stroke="midnightblue" points="102.99,-85.74 99.14,-75.88 96,-85.99 102.99,-85.74"/>
</g>
<!-- Node6 -->
<g id="node6" class="node">
<title>Node6</title>
<g id="a_node6"><a xlink:href="Sensor_8h.html" target="_top" xlink:title=" ">
<polygon fill="none" stroke="black" points="1313.5,-56.5 1313.5,-75.5 1371.5,-75.5 1371.5,-56.5 1313.5,-56.5"/>
<text text-anchor="middle" x="1342.5" y="-63.5" font-family="Helvetica,sans-Serif" font-size="10.00">Sensor.h</text>
</a>
</g>
</g>
<!-- Node1&#45;&gt;Node6 -->
<g id="edge6" class="edge">
<title>Node1&#45;&gt;Node6</title>
<path fill="none" stroke="midnightblue" d="M982.68,-175.81C1072.04,-172.07 1324.21,-159.19 1348.5,-132 1359.68,-119.48 1355.92,-99.7 1350.76,-85.25"/>
<polygon fill="midnightblue" stroke="midnightblue" points="1353.95,-83.8 1346.95,-75.84 1347.46,-86.42 1353.95,-83.8"/>
</g>
<!-- Node7 -->
<g id="node7" class="node">
<title>Node7</title>
<g id="a_node7"><a xlink:href="Storage_8h.html" target="_top" xlink:title=" ">
<polygon fill="none" stroke="black" points="256,-56.5 256,-75.5 319,-75.5 319,-56.5 256,-56.5"/>
<text text-anchor="middle" x="287.5" y="-63.5" font-family="Helvetica,sans-Serif" font-size="10.00">Storage.h</text>
</a>
</g>
</g>
<!-- Node1&#45;&gt;Node7 -->
<g id="edge8" class="edge">
<title>Node1&#45;&gt;Node7</title>
<path fill="none" stroke="midnightblue" d="M920.09,-176.88C797.38,-176.14 354.64,-170.77 306.5,-132 292.93,-121.07 288.7,-101.01 287.55,-86.05"/>
<polygon fill="midnightblue" stroke="midnightblue" points="291.04,-85.71 287.16,-75.85 284.05,-85.97 291.04,-85.71"/>
</g>
<!-- Node8 -->
<g id="node8" class="node">
<title>Node8</title>
<g id="a_node8"><a xlink:href="AS7331Sensor_8h.html" target="_top" xlink:title=" ">
<polygon fill="none" stroke="black" points="904,-112.5 904,-131.5 999,-131.5 999,-112.5 904,-112.5"/>
<text text-anchor="middle" x="951.5" y="-119.5" font-family="Helvetica,sans-Serif" font-size="10.00">AS7331Sensor.h</text>
</a>
</g>
</g>
<!-- Node1&#45;&gt;Node8 -->
<g id="edge10" class="edge">
<title>Node1&#45;&gt;Node8</title>
<path fill="none" stroke="midnightblue" d="M951.5,-168.08C951.5,-161.01 951.5,-150.86 951.5,-141.99"/>
<polygon fill="midnightblue" stroke="midnightblue" points="955,-141.75 951.5,-131.75 948,-141.75 955,-141.75"/>
</g>
<!-- Node12 -->
<g id="node12" class="node">
<title>Node12</title>
<g id="a_node12"><a xlink:href="AnalogSensor_8h.html" target="_top" xlink:title=" ">
<polygon fill="none" stroke="black" points="1503.5,-112.5 1503.5,-131.5 1595.5,-131.5 1595.5,-112.5 1503.5,-112.5"/>
<text text-anchor="middle" x="1549.5" y="-119.5" font-family="Helvetica,sans-Serif" font-size="10.00">AnalogSensor.h</text>
</a>
</g>
</g>
<!-- Node1&#45;&gt;Node12 -->
<g id="edge15" class="edge">
<title>Node1&#45;&gt;Node12</title>
<path fill="none" stroke="midnightblue" d="M982.51,-175.3C1064.26,-170.62 1292.64,-156.37 1493.19,-132.07"/>
<polygon fill="midnightblue" stroke="midnightblue" points="1493.82,-135.52 1503.32,-130.83 1492.97,-128.57 1493.82,-135.52"/>
</g>
<!-- Node13 -->
<g id="node13" class="node">
<title>Node13</title>
<g id="a_node13"><a xlink:href="BME280Sensor_8h.html" target="_top" xlink:title=" ">
<polygon fill="none" stroke="black" points="787.5,-112.5 787.5,-131.5 885.5,-131.5 885.5,-112.5 787.5,-112.5"/>
<text text-anchor="middle" x="836.5" y="-119.5" font-family="Helvetica,sans-Serif" font-size="10.00">BME280Sensor.h</text>
</a>
</g>
</g>
<!-- Node1&#45;&gt;Node13 -->
<g id="edge19" class="edge">
<title>Node1&#45;&gt;Node13</title>
<path fill="none" stroke="midnightblue" d="M933.28,-168.44C914.6,-159.68 885.34,-145.94 863.88,-135.86"/>
<polygon fill="midnightblue" stroke="midnightblue" points="865.18,-132.6 854.64,-131.52 862.2,-138.93 865.18,-132.6"/>
</g>
<!-- Node15 -->
<g id="node15" class="node">
<title>Node15</title>
<g id="a_node15"><a xlink:href="BME680Sensor_8h.html" target="_top" xlink:title=" ">
<polygon fill="none" stroke="black" points="1017.5,-112.5 1017.5,-131.5 1115.5,-131.5 1115.5,-112.5 1017.5,-112.5"/>
<text text-anchor="middle" x="1066.5" y="-119.5" font-family="Helvetica,sans-Serif" font-size="10.00">BME680Sensor.h</text>
</a>
</g>
</g>
<!-- Node1&#45;&gt;Node15 -->
<g id="edge22" class="edge">
<title>Node1&#45;&gt;Node15</title>
<path fill="none" stroke="midnightblue" d="M969.72,-168.44C988.4,-159.68 1017.66,-145.94 1039.12,-135.86"/>
<polygon fill="midnightblue" stroke="midnightblue" points="1040.8,-138.93 1048.36,-131.52 1037.82,-132.6 1040.8,-138.93"/>
</g>
<!-- Node19 -->
<g id="node19" class="node">
<title>Node19</title>
<g id="a_node19"><a xlink:href="ENS160Sensor_8h.html" target="_top" xlink:title=" ">
<polygon fill="none" stroke="black" points="674,-112.5 674,-131.5 769,-131.5 769,-112.5 674,-112.5"/>
<text text-anchor="middle" x="721.5" y="-119.5" font-family="Helvetica,sans-Serif" font-size="10.00">ENS160Sensor.h</text>
</a>
</g>
</g>
<!-- Node1&#45;&gt;Node19 -->
<g id="edge29" class="edge">
<title>Node1&#45;&gt;Node19</title>
<path fill="none" stroke="midnightblue" d="M920.48,-169.72C881.27,-160.51 813.41,-144.58 767.99,-133.91"/>
<polygon fill="midnightblue" stroke="midnightblue" points="768.62,-130.47 758.09,-131.59 767.02,-137.28 768.62,-130.47"/>
</g>
<!-- Node21 -->
<g id="node21" class="node">
<title>Node21</title>
<g id="a_node21"><a xlink:href="GeigerSensor_8h.html" target="_top" xlink:title=" ">
<polygon fill="none" stroke="black" points="565.5,-112.5 565.5,-131.5 655.5,-131.5 655.5,-112.5 565.5,-112.5"/>
<text text-anchor="middle" x="610.5" y="-119.5" font-family="Helvetica,sans-Serif" font-size="10.00">GeigerSensor.h</text>
</a>
</g>
</g>
<!-- Node1&#45;&gt;Node21 -->
<g id="edge33" class="edge">
<title>Node1&#45;&gt;Node21</title>
<path fill="none" stroke="midnightblue" d="M920.17,-172.14C867.55,-163.95 758.06,-146.85 665.5,-132 665.4,-131.98 665.3,-131.97 665.2,-131.95"/>
<polygon fill="midnightblue" stroke="midnightblue" points="665.95,-128.53 655.52,-130.39 664.83,-135.44 665.95,-128.53"/>
</g>
<!-- Node22 -->
<g id="node22" class="node">
<title>Node22</title>
<g id="a_node22"><a xlink:href="INA260Sensor_8h.html" target="_top" xlink:title=" ">
<polygon fill="none" stroke="black" points="1614,-112.5 1614,-131.5 1707,-131.5 1707,-112.5 1614,-112.5"/>
<text text-anchor="middle" x="1660.5" y="-119.5" font-family="Helvetica,sans-Serif" font-size="10.00">INA260Sensor.h</text>
</a>
</g>
</g>
<!-- Node1&#45;&gt;Node22 -->
<g id="edge36" class="edge">
<title>Node1&#45;&gt;Node22</title>
<path fill="none" stroke="midnightblue" d="M982.52,-175.86C1075.18,-172.25 1358.12,-159.68 1603.61,-131.99"/>
<polygon fill="midnightblue" stroke="midnightblue" points="1604.25,-135.44 1613.79,-130.83 1603.46,-128.48 1604.25,-135.44"/>
</g>
<!-- Node24 -->
<g id="node24" class="node">
<title>Node24</title>
<g id="a_node24"><a xlink:href="LSM9DS1Sensor_8h.html" target="_top" xlink:title=" ">
<polygon fill="none" stroke="black" points="1133.5,-112.5 1133.5,-131.5 1237.5,-131.5 1237.5,-112.5 1133.5,-112.5"/>
<text text-anchor="middle" x="1185.5" y="-119.5" font-family="Helvetica,sans-Serif" font-size="10.00">LSM9DS1Sensor.h</text>
</a>
</g>
</g>
<!-- Node1&#45;&gt;Node24 -->
<g id="edge41" class="edge">
<title>Node1&#45;&gt;Node24</title>
<path fill="none" stroke="midnightblue" d="M982.57,-169.83C1022.53,-160.61 1092.29,-144.51 1138.69,-133.8"/>
<polygon fill="midnightblue" stroke="midnightblue" points="1139.55,-137.2 1148.51,-131.54 1137.97,-130.38 1139.55,-137.2"/>
</g>
<!-- Node26 -->
<g id="node26" class="node">
<title>Node26</title>
<g id="a_node26"><a xlink:href="SGP30Sensor_8h.html" target="_top" xlink:title=" ">
<polygon fill="none" stroke="black" points="1755,-112.5 1755,-131.5 1844,-131.5 1844,-112.5 1755,-112.5"/>
<text text-anchor="middle" x="1799.5" y="-119.5" font-family="Helvetica,sans-Serif" font-size="10.00">SGP30Sensor.h</text>
</a>
</g>
</g>
<!-- Node1&#45;&gt;Node26 -->
<g id="edge46" class="edge">
<title>Node1&#45;&gt;Node26</title>
<path fill="none" stroke="midnightblue" d="M982.51,-175.72C1086.42,-171.33 1431.78,-155.8 1716.5,-132 1725.62,-131.24 1735.3,-130.3 1744.69,-129.33"/>
<polygon fill="midnightblue" stroke="midnightblue" points="1745.17,-132.8 1754.74,-128.26 1744.43,-125.84 1745.17,-132.8"/>
</g>
<!-- Node29 -->
<g id="node29" class="node">
<title>Node29</title>
<g id="a_node29"><a xlink:href="SHT31Sensor_8h.html" target="_top" xlink:title=" ">
<polygon fill="none" stroke="black" points="1396,-112.5 1396,-131.5 1485,-131.5 1485,-112.5 1396,-112.5"/>
<text text-anchor="middle" x="1440.5" y="-119.5" font-family="Helvetica,sans-Serif" font-size="10.00">SHT31Sensor.h</text>
</a>
</g>
</g>
<!-- Node1&#45;&gt;Node29 -->
<g id="edge52" class="edge">
<title>Node1&#45;&gt;Node29</title>
<path fill="none" stroke="midnightblue" d="M982.59,-174.25C1053.46,-167.88 1232.42,-151.16 1381.5,-132 1382.8,-131.83 1384.12,-131.66 1385.44,-131.48"/>
<polygon fill="midnightblue" stroke="midnightblue" points="1386.33,-134.89 1395.75,-130.05 1385.37,-127.96 1386.33,-134.89"/>
</g>
<!-- Node31 -->
<g id="node31" class="node">
<title>Node31</title>
<g id="a_node31"><a xlink:href="TempSensor_8h.html" target="_top" xlink:title=" ">
<polygon fill="none" stroke="black" points="1255.5,-112.5 1255.5,-131.5 1339.5,-131.5 1339.5,-112.5 1255.5,-112.5"/>
<text text-anchor="middle" x="1297.5" y="-119.5" font-family="Helvetica,sans-Serif" font-size="10.00">TempSensor.h</text>
</a>
</g>
</g>
<!-- Node1&#45;&gt;Node31 -->
<g id="edge58" class="edge">
<title>Node1&#45;&gt;Node31</title>
<path fill="none" stroke="midnightblue" d="M982.54,-172.51C1034.67,-164.91 1143.32,-148.85 1245.61,-132.12"/>
<polygon fill="midnightblue" stroke="midnightblue" points="1246.19,-135.57 1255.49,-130.49 1245.05,-128.66 1246.19,-135.57"/>
</g>
<!-- Node32 -->
<g id="node32" class="node">
<title>Node32</title>
<g id="a_node32"><a xlink:href="RadioStorage_8h.html" target="_top" xlink:title=" ">
<polygon fill="none" stroke="black" points="316,-112.5 316,-131.5 407,-131.5 407,-112.5 316,-112.5"/>
<text text-anchor="middle" x="361.5" y="-119.5" font-family="Helvetica,sans-Serif" font-size="10.00">RadioStorage.h</text>
</a>
</g>
</g>
<!-- Node1&#45;&gt;Node32 -->
<g id="edge60" class="edge">
<title>Node1&#45;&gt;Node32</title>
<path fill="none" stroke="midnightblue" d="M920.2,-174.13C825.17,-165.44 539.12,-139.26 417.35,-128.11"/>
<polygon fill="midnightblue" stroke="midnightblue" points="417.41,-124.6 407.13,-127.18 416.77,-131.57 417.41,-124.6"/>
</g>
<!-- Node33 -->
<g id="node33" class="node">
<title>Node33</title>
<g id="a_node33"><a xlink:href="SDStorage_8h.html" target="_top" xlink:title=" ">
<polygon fill="none" stroke="black" points="128,-112.5 128,-131.5 205,-131.5 205,-112.5 128,-112.5"/>
<text text-anchor="middle" x="166.5" y="-119.5" font-family="Helvetica,sans-Serif" font-size="10.00">SDStorage.h</text>
</a>
</g>
</g>
<!-- Node1&#45;&gt;Node33 -->
<g id="edge63" class="edge">
<title>Node1&#45;&gt;Node33</title>
<path fill="none" stroke="midnightblue" d="M920.36,-176.27C819.06,-173.66 489.86,-163.18 219.5,-132 218.2,-131.85 216.88,-131.69 215.54,-131.52"/>
<polygon fill="midnightblue" stroke="midnightblue" points="215.61,-127.99 205.22,-130.07 214.63,-134.93 215.61,-127.99"/>
</g>
<!-- Node3&#45;&gt;Node2 -->
<g id="edge3" class="edge">
<title>Node3&#45;&gt;Node2</title>
<path fill="none" stroke="midnightblue" d="M141.75,-57.17C144.7,-56.74 147.64,-56.34 150.5,-56 404.33,-25.69 711.59,-15.02 821.72,-12.01"/>
<polygon fill="midnightblue" stroke="midnightblue" points="821.86,-15.51 831.76,-11.74 821.67,-8.51 821.86,-15.51"/>
</g>
<!-- Node4 -->
<g id="node4" class="node">
<title>Node4</title>
<g id="a_node4"><a xlink:title=" ">
<polygon fill="none" stroke="#bfbfbf" points="0,-0.5 0,-19.5 95,-19.5 95,-0.5 0,-0.5"/>
<text text-anchor="middle" x="47.5" y="-7.5" font-family="Helvetica,sans-Serif" font-size="10.00">pico/multicore.h</text>
</a>
</g>
</g>
<!-- Node3&#45;&gt;Node4 -->
<g id="edge4" class="edge">
<title>Node3&#45;&gt;Node4</title>
<path fill="none" stroke="midnightblue" d="M90.91,-56.08C83.34,-48.22 72.12,-36.57 62.99,-27.08"/>
<polygon fill="midnightblue" stroke="midnightblue" points="65.38,-24.53 55.93,-19.75 60.34,-29.38 65.38,-24.53"/>
</g>
<!-- Node5 -->
<g id="node5" class="node">
<title>Node5</title>
<g id="a_node5"><a xlink:title=" ">
<polygon fill="none" stroke="#bfbfbf" points="113.5,-0.5 113.5,-19.5 189.5,-19.5 189.5,-0.5 113.5,-0.5"/>
<text text-anchor="middle" x="151.5" y="-7.5" font-family="Helvetica,sans-Serif" font-size="10.00">pico/stdlib.h</text>
</a>
</g>
</g>
<!-- Node3&#45;&gt;Node5 -->
<g id="edge5" class="edge">
<title>Node3&#45;&gt;Node5</title>
<path fill="none" stroke="midnightblue" d="M108.09,-56.08C115.66,-48.22 126.88,-36.57 136.01,-27.08"/>
<polygon fill="midnightblue" stroke="midnightblue" points="138.66,-29.38 143.07,-19.75 133.62,-24.53 138.66,-29.38"/>
</g>
<!-- Node6&#45;&gt;Node2 -->
<g id="edge7" class="edge">
<title>Node6&#45;&gt;Node2</title>
<path fill="none" stroke="midnightblue" d="M1313.12,-57.64C1310.22,-57.03 1307.31,-56.47 1304.5,-56 1158.88,-31.43 983.8,-18.41 905.23,-13.43"/>
<polygon fill="midnightblue" stroke="midnightblue" points="905.44,-9.94 895.24,-12.81 905,-16.92 905.44,-9.94"/>
</g>
<!-- Node7&#45;&gt;Node2 -->
<g id="edge9" class="edge">
<title>Node7&#45;&gt;Node2</title>
<path fill="none" stroke="midnightblue" d="M319.1,-58.35C323.91,-57.47 328.83,-56.65 333.5,-56 514.28,-30.72 731.88,-17.65 821.65,-13.01"/>
<polygon fill="midnightblue" stroke="midnightblue" points="821.9,-16.5 831.7,-12.49 821.54,-9.51 821.9,-16.5"/>
</g>
<!-- Node8&#45;&gt;Node6 -->
<g id="edge14" class="edge">
<title>Node8&#45;&gt;Node6</title>
<path fill="none" stroke="midnightblue" d="M999.07,-113.36C1002.26,-112.89 1005.42,-112.43 1008.5,-112 1136.55,-94.11 1172.31,-99.05 1303.11,-76.08"/>
<polygon fill="midnightblue" stroke="midnightblue" points="1303.88,-79.5 1313.11,-74.3 1302.65,-72.61 1303.88,-79.5"/>
</g>
<!-- Node9 -->
<g id="node9" class="node">
<title>Node9</title>
<g id="a_node9"><a xlink:title=" ">
<polygon fill="none" stroke="#bfbfbf" points="674,-56.5 674,-75.5 787,-75.5 787,-56.5 674,-56.5"/>
<text text-anchor="middle" x="730.5" y="-63.5" font-family="Helvetica,sans-Serif" font-size="10.00">SparkFun_AS7331.h</text>
</a>
</g>
</g>
<!-- Node8&#45;&gt;Node9 -->
<g id="edge11" class="edge">
<title>Node8&#45;&gt;Node9</title>
<path fill="none" stroke="midnightblue" d="M916.48,-112.44C878.25,-103.1 816.93,-88.12 775.24,-77.93"/>
<polygon fill="midnightblue" stroke="midnightblue" points="775.9,-74.49 765.35,-75.52 774.24,-81.29 775.9,-74.49"/>
</g>
<!-- Node10 -->
<g id="node10" class="node">
<title>Node10</title>
<g id="a_node10"><a xlink:title=" ">
<polygon fill="none" stroke="#bfbfbf" points="805.5,-56.5 805.5,-75.5 853.5,-75.5 853.5,-56.5 805.5,-56.5"/>
<text text-anchor="middle" x="829.5" y="-63.5" font-family="Helvetica,sans-Serif" font-size="10.00">Wire.h</text>
</a>
</g>
</g>
<!-- Node8&#45;&gt;Node10 -->
<g id="edge12" class="edge">
<title>Node8&#45;&gt;Node10</title>
<path fill="none" stroke="midnightblue" d="M932.17,-112.44C912.18,-103.6 880.76,-89.69 857.94,-79.59"/>
<polygon fill="midnightblue" stroke="midnightblue" points="859.3,-76.36 848.74,-75.52 856.47,-82.76 859.3,-76.36"/>
</g>
<!-- Node11 -->
<g id="node11" class="node">
<title>Node11</title>
<g id="a_node11"><a xlink:title=" ">
<polygon fill="none" stroke="#bfbfbf" points="1548,-56.5 1548,-75.5 1601,-75.5 1601,-56.5 1548,-56.5"/>
<text text-anchor="middle" x="1574.5" y="-63.5" font-family="Helvetica,sans-Serif" font-size="10.00">string.h</text>
</a>
</g>
</g>
<!-- Node8&#45;&gt;Node11 -->
<g id="edge13" class="edge">
<title>Node8&#45;&gt;Node11</title>
<path fill="none" stroke="midnightblue" d="M999.05,-113.19C1002.24,-112.76 1005.41,-112.36 1008.5,-112 1226.31,-86.88 1282.28,-97.24 1500.5,-76 1512.65,-74.82 1525.9,-73.28 1537.79,-71.82"/>
<polygon fill="midnightblue" stroke="midnightblue" points="1538.33,-75.28 1547.82,-70.56 1537.46,-68.33 1538.33,-75.28"/>
</g>
<!-- Node12&#45;&gt;Node2 -->
<g id="edge16" class="edge">
<title>Node12&#45;&gt;Node2</title>
<path fill="none" stroke="midnightblue" d="M1567.89,-112.37C1592.1,-99.91 1629.49,-76.17 1610.5,-56 1586.18,-30.17 1059.29,-15.65 905.37,-11.95"/>
<polygon fill="midnightblue" stroke="midnightblue" points="905.44,-8.45 895.36,-11.71 905.27,-15.45 905.44,-8.45"/>
</g>
<!-- Node12&#45;&gt;Node6 -->
<g id="edge18" class="edge">
<title>Node12&#45;&gt;Node6</title>
<path fill="none" stroke="midnightblue" d="M1516.7,-112.44C1480.07,-102.89 1420.82,-87.43 1381.76,-77.24"/>
<polygon fill="midnightblue" stroke="midnightblue" points="1382.36,-73.78 1371.8,-74.64 1380.59,-80.55 1382.36,-73.78"/>
</g>
<!-- Node12&#45;&gt;Node11 -->
<g id="edge17" class="edge">
<title>Node12&#45;&gt;Node11</title>
<path fill="none" stroke="midnightblue" d="M1553.63,-112.08C1557.01,-104.77 1561.92,-94.18 1566.12,-85.1"/>
<polygon fill="midnightblue" stroke="midnightblue" points="1569.42,-86.3 1570.45,-75.75 1563.07,-83.36 1569.42,-86.3"/>
</g>
<!-- Node13&#45;&gt;Node6 -->
<g id="edge20" class="edge">
<title>Node13&#45;&gt;Node6</title>
<path fill="none" stroke="midnightblue" d="M885.72,-113.25C889.03,-112.81 892.31,-112.38 895.5,-112 1073.4,-90.62 1122.59,-104.58 1303.03,-76.02"/>
<polygon fill="midnightblue" stroke="midnightblue" points="1303.81,-79.44 1313.13,-74.4 1302.7,-72.53 1303.81,-79.44"/>
</g>
<!-- Node14 -->
<g id="node14" class="node">
<title>Node14</title>
<g id="a_node14"><a xlink:title=" ">
<polygon fill="none" stroke="#bfbfbf" points="545.5,-56.5 545.5,-75.5 655.5,-75.5 655.5,-56.5 545.5,-56.5"/>
<text text-anchor="middle" x="600.5" y="-63.5" font-family="Helvetica,sans-Serif" font-size="10.00">SparkFunBME280.h</text>
</a>
</g>
</g>
<!-- Node13&#45;&gt;Node14 -->
<g id="edge21" class="edge">
<title>Node13&#45;&gt;Node14</title>
<path fill="none" stroke="midnightblue" d="M799.11,-112.44C758.11,-103.06 692.25,-87.99 647.72,-77.8"/>
<polygon fill="midnightblue" stroke="midnightblue" points="648.25,-74.34 637.72,-75.52 646.69,-81.16 648.25,-74.34"/>
</g>
<!-- Node15&#45;&gt;Node6 -->
<g id="edge28" class="edge">
<title>Node15&#45;&gt;Node6</title>
<path fill="none" stroke="midnightblue" d="M1115.4,-112.43C1161.44,-104.21 1232.56,-91.12 1303.48,-76.14"/>
<polygon fill="midnightblue" stroke="midnightblue" points="1304.43,-79.52 1313.48,-74.02 1302.98,-72.67 1304.43,-79.52"/>
</g>
<!-- Node15&#45;&gt;Node10 -->
<g id="edge26" class="edge">
<title>Node15&#45;&gt;Node10</title>
<path fill="none" stroke="midnightblue" d="M1025.56,-112.44C984.48,-103.72 919.45,-89.6 863.5,-76 863.4,-75.98 863.3,-75.95 863.2,-75.93"/>
<polygon fill="midnightblue" stroke="midnightblue" points="864.17,-72.56 853.62,-73.51 862.46,-79.35 864.17,-72.56"/>
</g>
<!-- Node15&#45;&gt;Node11 -->
<g id="edge27" class="edge">
<title>Node15&#45;&gt;Node11</title>
<path fill="none" stroke="midnightblue" d="M1115.52,-113.19C1118.56,-112.77 1121.57,-112.37 1124.5,-112 1291.07,-91.12 1333.61,-94.14 1500.5,-76 1512.64,-74.68 1525.88,-73.11 1537.77,-71.66"/>
<polygon fill="midnightblue" stroke="midnightblue" points="1538.31,-75.12 1547.8,-70.41 1537.45,-68.17 1538.31,-75.12"/>
</g>
<!-- Node16 -->
<g id="node16" class="node">
<title>Node16</title>
<g id="a_node16"><a xlink:title=" ">
<polygon fill="none" stroke="#bfbfbf" points="931.5,-56.5 931.5,-75.5 1041.5,-75.5 1041.5,-56.5 931.5,-56.5"/>
<text text-anchor="middle" x="986.5" y="-63.5" font-family="Helvetica,sans-Serif" font-size="10.00">Adafruit_BME680.h</text>
</a>
</g>
</g>
<!-- Node15&#45;&gt;Node16 -->
<g id="edge23" class="edge">
<title>Node15&#45;&gt;Node16</title>
<path fill="none" stroke="midnightblue" d="M1053.65,-112.32C1041.28,-103.98 1022.37,-91.21 1007.76,-81.35"/>
<polygon fill="midnightblue" stroke="midnightblue" points="1009.57,-78.35 999.32,-75.65 1005.65,-84.15 1009.57,-78.35"/>
</g>
<!-- Node17 -->
<g id="node17" class="node">
<title>Node17</title>
<g id="a_node17"><a xlink:title=" ">
<polygon fill="none" stroke="#bfbfbf" points="1059.5,-56.5 1059.5,-75.5 1161.5,-75.5 1161.5,-56.5 1059.5,-56.5"/>
<text text-anchor="middle" x="1110.5" y="-63.5" font-family="Helvetica,sans-Serif" font-size="10.00">Adafruit_Sensor.h</text>
</a>
</g>
</g>
<!-- Node15&#45;&gt;Node17 -->
<g id="edge24" class="edge">
<title>Node15&#45;&gt;Node17</title>
<path fill="none" stroke="midnightblue" d="M1073.77,-112.08C1080.04,-104.38 1089.29,-93.03 1096.93,-83.65"/>
<polygon fill="midnightblue" stroke="midnightblue" points="1099.77,-85.71 1103.37,-75.75 1094.34,-81.29 1099.77,-85.71"/>
</g>
<!-- Node18 -->
<g id="node18" class="node">
<title>Node18</title>
<g id="a_node18"><a xlink:title=" ">
<polygon fill="none" stroke="#bfbfbf" points="872,-56.5 872,-75.5 913,-75.5 913,-56.5 872,-56.5"/>
<text text-anchor="middle" x="892.5" y="-63.5" font-family="Helvetica,sans-Serif" font-size="10.00">SPI.h</text>
</a>
</g>
</g>
<!-- Node15&#45;&gt;Node18 -->
<g id="edge25" class="edge">
<title>Node15&#45;&gt;Node18</title>
<path fill="none" stroke="midnightblue" d="M1038.93,-112.44C1007.37,-102.65 955.82,-86.65 923.06,-76.48"/>
<polygon fill="midnightblue" stroke="midnightblue" points="923.72,-73.02 913.13,-73.4 921.64,-79.71 923.72,-73.02"/>
</g>
<!-- Node19&#45;&gt;Node6 -->
<g id="edge31" class="edge">
<title>Node19&#45;&gt;Node6</title>
<path fill="none" stroke="midnightblue" d="M769.04,-113.17C772.24,-112.74 775.41,-112.35 778.5,-112 1008.05,-86.07 1071.05,-110.41 1303.03,-75.98"/>
<polygon fill="midnightblue" stroke="midnightblue" points="1303.77,-79.41 1313.13,-74.46 1302.73,-72.49 1303.77,-79.41"/>
</g>
<!-- Node19&#45;&gt;Node10 -->
<g id="edge30" class="edge">
<title>Node19&#45;&gt;Node10</title>
<path fill="none" stroke="midnightblue" d="M738.85,-112.32C756.17,-103.66 783.02,-90.24 803,-80.25"/>
<polygon fill="midnightblue" stroke="midnightblue" points="804.81,-83.26 812.19,-75.65 801.68,-77 804.81,-83.26"/>
</g>
<!-- Node20 -->
<g id="node20" class="node">
<title>Node20</title>
<g id="a_node20"><a xlink:title=" ">
<polygon fill="none" stroke="#bfbfbf" points="414,-56.5 414,-75.5 527,-75.5 527,-56.5 414,-56.5"/>
<text text-anchor="middle" x="470.5" y="-63.5" font-family="Helvetica,sans-Serif" font-size="10.00">SparkFun_ENS160.h</text>
</a>
</g>
</g>
<!-- Node19&#45;&gt;Node20 -->
<g id="edge32" class="edge">
<title>Node19&#45;&gt;Node20</title>
<path fill="none" stroke="midnightblue" d="M681.73,-112.44C637.94,-103.02 567.49,-87.87 520.12,-77.68"/>
<polygon fill="midnightblue" stroke="midnightblue" points="520.6,-74.2 510.09,-75.52 519.13,-81.04 520.6,-74.2"/>
</g>
<!-- Node21&#45;&gt;Node2 -->
<g id="edge34" class="edge">
<title>Node21&#45;&gt;Node2</title>
<path fill="none" stroke="midnightblue" d="M565.48,-120.76C491.5,-118.89 356.95,-108.44 404.5,-56 432.25,-25.4 713.56,-14.89 821.58,-11.97"/>
<polygon fill="midnightblue" stroke="midnightblue" points="821.87,-15.46 831.77,-11.7 821.69,-8.46 821.87,-15.46"/>
</g>
<!-- Node21&#45;&gt;Node6 -->
<g id="edge35" class="edge">
<title>Node21&#45;&gt;Node6</title>
<path fill="none" stroke="midnightblue" d="M655.77,-113.2C659.06,-112.76 662.33,-112.35 665.5,-112 944.94,-81.35 1021.23,-116.1 1303.03,-75.95"/>
<polygon fill="midnightblue" stroke="midnightblue" points="1303.74,-79.39 1313.14,-74.49 1302.74,-72.46 1303.74,-79.39"/>
</g>
<!-- Node22&#45;&gt;Node2 -->
<g id="edge37" class="edge">
<title>Node22&#45;&gt;Node2</title>
<path fill="none" stroke="midnightblue" d="M1658.83,-112.43C1655.52,-97.96 1646.61,-69 1626.5,-56 1565.83,-16.78 1056.23,-11.72 905.4,-11.09"/>
<polygon fill="midnightblue" stroke="midnightblue" points="905.18,-7.59 895.17,-11.05 905.16,-14.59 905.18,-7.59"/>
</g>
<!-- Node22&#45;&gt;Node6 -->
<g id="edge40" class="edge">
<title>Node22&#45;&gt;Node6</title>
<path fill="none" stroke="midnightblue" d="M1613.76,-113.48C1544.59,-102.35 1419.79,-82.26 1382.09,-75.82"/>
<polygon fill="midnightblue" stroke="midnightblue" points="1382.3,-72.3 1371.84,-73.99 1381.07,-79.19 1382.3,-72.3"/>
</g>
<!-- Node22&#45;&gt;Node11 -->
<g id="edge38" class="edge">
<title>Node22&#45;&gt;Node11</title>
<path fill="none" stroke="midnightblue" d="M1646.68,-112.32C1633.27,-103.9 1612.68,-90.97 1596.91,-81.07"/>
<polygon fill="midnightblue" stroke="midnightblue" points="1598.61,-78.01 1588.28,-75.65 1594.89,-83.94 1598.61,-78.01"/>
</g>
<!-- Node23 -->
<g id="node23" class="node">
<title>Node23</title>
<g id="a_node23"><a xlink:title=" ">
<polygon fill="none" stroke="#bfbfbf" points="1696,-56.5 1696,-75.5 1801,-75.5 1801,-56.5 1696,-56.5"/>
<text text-anchor="middle" x="1748.5" y="-63.5" font-family="Helvetica,sans-Serif" font-size="10.00">Adafruit_INA260.h</text>
</a>
</g>
</g>
<!-- Node22&#45;&gt;Node23 -->
<g id="edge39" class="edge">
<title>Node22&#45;&gt;Node23</title>
<path fill="none" stroke="midnightblue" d="M1674.64,-112.32C1688.37,-103.9 1709.44,-90.97 1725.56,-81.07"/>
<polygon fill="midnightblue" stroke="midnightblue" points="1727.7,-83.87 1734.4,-75.65 1724.04,-77.9 1727.7,-83.87"/>
</g>
<!-- Node24&#45;&gt;Node6 -->
<g id="edge45" class="edge">
<title>Node24&#45;&gt;Node6</title>
<path fill="none" stroke="midnightblue" d="M1210.38,-112.44C1236.79,-103.36 1278.72,-88.94 1308.24,-78.78"/>
<polygon fill="midnightblue" stroke="midnightblue" points="1309.42,-82.08 1317.74,-75.52 1307.14,-75.46 1309.42,-82.08"/>
</g>
<!-- Node24&#45;&gt;Node11 -->
<g id="edge44" class="edge">
<title>Node24&#45;&gt;Node11</title>
<path fill="none" stroke="midnightblue" d="M1237.74,-113.26C1240.7,-112.83 1243.64,-112.41 1246.5,-112 1351.98,-96.98 1476.68,-80.12 1537.46,-71.96"/>
<polygon fill="midnightblue" stroke="midnightblue" points="1538.26,-75.38 1547.7,-70.58 1537.33,-68.44 1538.26,-75.38"/>
</g>
<!-- Node24&#45;&gt;Node17 -->
<g id="edge43" class="edge">
<title>Node24&#45;&gt;Node17</title>
<path fill="none" stroke="midnightblue" d="M1173.45,-112.32C1162.04,-104.11 1144.67,-91.6 1131.07,-81.81"/>
<polygon fill="midnightblue" stroke="midnightblue" points="1132.93,-78.84 1122.77,-75.83 1128.84,-84.52 1132.93,-78.84"/>
</g>
<!-- Node25 -->
<g id="node25" class="node">
<title>Node25</title>
<g id="a_node25"><a xlink:title=" ">
<polygon fill="none" stroke="#bfbfbf" points="1179.5,-56.5 1179.5,-75.5 1295.5,-75.5 1295.5,-56.5 1179.5,-56.5"/>
<text text-anchor="middle" x="1237.5" y="-63.5" font-family="Helvetica,sans-Serif" font-size="10.00">Adafruit_LSM9DS1.h</text>
</a>
</g>
</g>
<!-- Node24&#45;&gt;Node25 -->
<g id="edge42" class="edge">
<title>Node24&#45;&gt;Node25</title>
<path fill="none" stroke="midnightblue" d="M1194.09,-112.08C1201.66,-104.22 1212.88,-92.57 1222.01,-83.08"/>
<polygon fill="midnightblue" stroke="midnightblue" points="1224.66,-85.38 1229.07,-75.75 1219.62,-80.53 1224.66,-85.38"/>
</g>
<!-- Node26&#45;&gt;Node2 -->
<g id="edge47" class="edge">
<title>Node26&#45;&gt;Node2</title>
<path fill="none" stroke="midnightblue" d="M1805.07,-112.08C1812.99,-98.15 1825.03,-71.24 1810.5,-56 1778.85,-22.81 1084.16,-13.3 905.23,-11.4"/>
<polygon fill="midnightblue" stroke="midnightblue" points="905.2,-7.9 895.16,-11.29 905.12,-14.9 905.2,-7.9"/>
</g>
<!-- Node26&#45;&gt;Node6 -->
<g id="edge51" class="edge">
<title>Node26&#45;&gt;Node6</title>
<path fill="none" stroke="midnightblue" d="M1754.7,-116.13C1742.33,-114.79 1728.89,-113.34 1716.5,-112 1570.82,-96.27 1530.87,-100.68 1381.79,-75.84"/>
<polygon fill="midnightblue" stroke="midnightblue" points="1382.25,-72.37 1371.81,-74.16 1381.09,-79.27 1382.25,-72.37"/>
</g>
<!-- Node26&#45;&gt;Node11 -->
<g id="edge49" class="edge">
<title>Node26&#45;&gt;Node11</title>
<path fill="none" stroke="midnightblue" d="M1763.85,-112.44C1722.06,-102.42 1653.19,-85.89 1611.03,-75.77"/>
<polygon fill="midnightblue" stroke="midnightblue" points="1611.72,-72.33 1601.18,-73.4 1610.08,-79.14 1611.72,-72.33"/>
</g>
<!-- Node27 -->
<g id="node27" class="node">
<title>Node27</title>
<g id="a_node27"><a xlink:title=" ">
<polygon fill="none" stroke="#bfbfbf" points="1858,-56.5 1858,-75.5 1911,-75.5 1911,-56.5 1858,-56.5"/>
<text text-anchor="middle" x="1884.5" y="-63.5" font-family="Helvetica,sans-Serif" font-size="10.00">stdint.h</text>
</a>
</g>
</g>
<!-- Node26&#45;&gt;Node27 -->
<g id="edge48" class="edge">
<title>Node26&#45;&gt;Node27</title>
<path fill="none" stroke="midnightblue" d="M1813.16,-112.32C1826.42,-103.9 1846.77,-90.97 1862.35,-81.07"/>
<polygon fill="midnightblue" stroke="midnightblue" points="1864.31,-83.97 1870.88,-75.65 1860.56,-78.06 1864.31,-83.97"/>
</g>
<!-- Node28 -->
<g id="node28" class="node">
<title>Node28</title>
<g id="a_node28"><a xlink:title=" ">
<polygon fill="none" stroke="#bfbfbf" points="1929,-56.5 1929,-75.5 2030,-75.5 2030,-56.5 1929,-56.5"/>
<text text-anchor="middle" x="1979.5" y="-63.5" font-family="Helvetica,sans-Serif" font-size="10.00">Adafruit_SGP30.h</text>
</a>
</g>
</g>
<!-- Node26&#45;&gt;Node28 -->
<g id="edge50" class="edge">
<title>Node26&#45;&gt;Node28</title>
<path fill="none" stroke="midnightblue" d="M1828.02,-112.44C1858.57,-103.28 1907.21,-88.69 1941.1,-78.52"/>
<polygon fill="midnightblue" stroke="midnightblue" points="1942.54,-81.74 1951.11,-75.52 1940.53,-75.04 1942.54,-81.74"/>
</g>
<!-- Node29&#45;&gt;Node2 -->
<g id="edge53" class="edge">
<title>Node29&#45;&gt;Node2</title>
<path fill="none" stroke="midnightblue" d="M1458.61,-112.35C1482.44,-99.88 1519.24,-76.11 1500.5,-56 1460.03,-12.57 1041.32,-10.31 905.67,-10.73"/>
<polygon fill="midnightblue" stroke="midnightblue" points="905.27,-7.23 895.28,-10.77 905.29,-14.23 905.27,-7.23"/>
</g>
<!-- Node29&#45;&gt;Node6 -->
<g id="edge57" class="edge">
<title>Node29&#45;&gt;Node6</title>
<path fill="none" stroke="midnightblue" d="M1424.75,-112.32C1409.18,-103.74 1385.12,-90.49 1367.04,-80.52"/>
<polygon fill="midnightblue" stroke="midnightblue" points="1368.65,-77.42 1358.21,-75.65 1365.28,-83.55 1368.65,-77.42"/>
</g>
<!-- Node29&#45;&gt;Node10 -->
<g id="edge54" class="edge">
<title>Node29&#45;&gt;Node10</title>
<path fill="none" stroke="midnightblue" d="M1395.6,-116.39C1380.62,-114.92 1363.85,-113.32 1348.5,-112 1133.15,-93.48 1076.66,-111.81 863.5,-76 863.4,-75.98 863.3,-75.97 863.19,-75.95"/>
<polygon fill="midnightblue" stroke="midnightblue" points="864.03,-72.55 853.53,-73.95 862.61,-79.4 864.03,-72.55"/>
</g>
<!-- Node29&#45;&gt;Node11 -->
<g id="edge55" class="edge">
<title>Node29&#45;&gt;Node11</title>
<path fill="none" stroke="midnightblue" d="M1461.73,-112.44C1483.88,-103.52 1518.82,-89.44 1543.94,-79.32"/>
<polygon fill="midnightblue" stroke="midnightblue" points="1545.4,-82.5 1553.37,-75.52 1542.78,-76.01 1545.4,-82.5"/>
</g>
<!-- Node30 -->
<g id="node30" class="node">
<title>Node30</title>
<g id="a_node30"><a xlink:title=" ">
<polygon fill="none" stroke="#bfbfbf" points="1390,-56.5 1390,-75.5 1491,-75.5 1491,-56.5 1390,-56.5"/>
<text text-anchor="middle" x="1440.5" y="-63.5" font-family="Helvetica,sans-Serif" font-size="10.00">Adafruit_SHT31.h</text>
</a>
</g>
</g>
<!-- Node29&#45;&gt;Node30 -->
<g id="edge56" class="edge">
<title>Node29&#45;&gt;Node30</title>
<path fill="none" stroke="midnightblue" d="M1440.5,-112.08C1440.5,-105.01 1440.5,-94.86 1440.5,-85.99"/>
<polygon fill="midnightblue" stroke="midnightblue" points="1444,-85.75 1440.5,-75.75 1437,-85.75 1444,-85.75"/>
</g>
<!-- Node31&#45;&gt;Node6 -->
<g id="edge59" class="edge">
<title>Node31&#45;&gt;Node6</title>
<path fill="none" stroke="midnightblue" d="M1304.93,-112.08C1311.35,-104.38 1320.81,-93.03 1328.62,-83.65"/>
<polygon fill="midnightblue" stroke="midnightblue" points="1331.49,-85.67 1335.21,-75.75 1326.12,-81.19 1331.49,-85.67"/>
</g>
<!-- Node32&#45;&gt;Node2 -->
<g id="edge61" class="edge">
<title>Node32&#45;&gt;Node2</title>
<path fill="none" stroke="midnightblue" d="M362.77,-112.08C365.35,-97.62 372.64,-69.37 391.5,-56 426.19,-31.41 712.35,-17.2 821.46,-12.63"/>
<polygon fill="midnightblue" stroke="midnightblue" points="821.91,-16.12 831.76,-12.21 821.62,-9.12 821.91,-16.12"/>
</g>
<!-- Node32&#45;&gt;Node7 -->
<g id="edge62" class="edge">
<title>Node32&#45;&gt;Node7</title>
<path fill="none" stroke="midnightblue" d="M349.61,-112.32C338.35,-104.11 321.21,-91.6 307.79,-81.81"/>
<polygon fill="midnightblue" stroke="midnightblue" points="309.75,-78.9 299.61,-75.83 305.62,-84.56 309.75,-78.9"/>
</g>
<!-- Node33&#45;&gt;Node3 -->
<g id="edge64" class="edge">
<title>Node33&#45;&gt;Node3</title>
<path fill="none" stroke="midnightblue" d="M155.74,-112.32C145.73,-104.26 130.61,-92.08 118.57,-82.37"/>
<polygon fill="midnightblue" stroke="midnightblue" points="120.44,-79.38 110.46,-75.83 116.05,-84.83 120.44,-79.38"/>
</g>
<!-- Node33&#45;&gt;Node7 -->
<g id="edge66" class="edge">
<title>Node33&#45;&gt;Node7</title>
<path fill="none" stroke="midnightblue" d="M185.67,-112.44C205.41,-103.64 236.39,-89.81 258.99,-79.72"/>
<polygon fill="midnightblue" stroke="midnightblue" points="260.71,-82.79 268.42,-75.52 257.86,-76.4 260.71,-82.79"/>
</g>
<!-- Node34 -->
<g id="node34" class="node">
<title>Node34</title>
<g id="a_node34"><a xlink:title=" ">
<polygon fill="none" stroke="#bfbfbf" points="160,-56.5 160,-75.5 199,-75.5 199,-56.5 160,-56.5"/>
<text text-anchor="middle" x="179.5" y="-63.5" font-family="Helvetica,sans-Serif" font-size="10.00">SD.h</text>
</a>
</g>
</g>
<!-- Node33&#45;&gt;Node34 -->
<g id="edge65" class="edge">
<title>Node33&#45;&gt;Node34</title>
<path fill="none" stroke="midnightblue" d="M168.65,-112.08C170.37,-104.93 172.85,-94.64 175,-85.69"/>
<polygon fill="midnightblue" stroke="midnightblue" points="178.46,-86.29 177.39,-75.75 171.65,-84.65 178.46,-86.29"/>
</g>
</g>
</svg>
