<?xml version="1.0" encoding="UTF-8" standalone="no"?>
<!DOCTYPE svg PUBLIC "-//W3C//DTD SVG 1.1//EN"
 "http://www.w3.org/Graphics/SVG/1.1/DTD/svg11.dtd">
<!-- Generated by graphviz version 2.43.0 (0)
 -->
<!-- Title: main.cpp Pages: 1 -->
<svg width="2687pt" height="196pt"
 viewBox="0.00 0.00 2686.64 196.00" xmlns="http://www.w3.org/2000/svg" xmlns:xlink="http://www.w3.org/1999/xlink">
<g id="graph0" class="graph" transform="scale(1 1) rotate(0) translate(4 192)">
<title>main.cpp</title>
<!-- Node1 -->
<g id="node1" class="node">
<title>Node1</title>
<g id="a_node1"><a xlink:title=" ">
<polygon fill="#bfbfbf" stroke="black" points="1203.5,-168.5 1203.5,-187.5 1265.5,-187.5 1265.5,-168.5 1203.5,-168.5"/>
<text text-anchor="middle" x="1234.5" y="-175.5" font-family="Helvetica,sans-Serif" font-size="10.00">main.cpp</text>
</a>
</g>
</g>
<!-- Node2 -->
<g id="node2" class="node">
<title>Node2</title>
<g id="a_node2"><a xlink:title=" ">
<polygon fill="none" stroke="#bfbfbf" points="537,-0.5 537,-19.5 600,-19.5 600,-0.5 537,-0.5"/>
<text text-anchor="middle" x="568.5" y="-7.5" font-family="Helvetica,sans-Serif" font-size="10.00">Arduino.h</text>
</a>
</g>
</g>
<!-- Node1&#45;&gt;Node2 -->
<g id="edge1" class="edge">
<title>Node1&#45;&gt;Node2</title>
<path fill="none" stroke="midnightblue" d="M1203.25,-175.5C1062.43,-168.42 491.7,-136.15 442.5,-76 415.98,-43.59 480.36,-25.55 526.53,-17.09"/>
<polygon fill="midnightblue" stroke="midnightblue" points="527.39,-20.5 536.65,-15.34 526.2,-13.6 527.39,-20.5"/>
</g>
<!-- Node3 -->
<g id="node3" class="node">
<title>Node3</title>
<g id="a_node3"><a xlink:href="ErrorDisplay_8h.html" target="_top" xlink:title=" ">
<polygon fill="none" stroke="black" points="57.5,-56.5 57.5,-75.5 141.5,-75.5 141.5,-56.5 57.5,-56.5"/>
<text text-anchor="middle" x="99.5" y="-63.5" font-family="Helvetica,sans-Serif" font-size="10.00">ErrorDisplay.h</text>
</a>
</g>
</g>
<!-- Node1&#45;&gt;Node3 -->
<g id="edge2" class="edge">
<title>Node1&#45;&gt;Node3</title>
<path fill="none" stroke="midnightblue" d="M1203.48,-177.03C1037.86,-177.02 261.75,-174.7 164.5,-132 141.54,-121.92 122.27,-99.72 110.82,-84.08"/>
<polygon fill="midnightblue" stroke="midnightblue" points="113.61,-81.96 105.01,-75.77 107.87,-85.97 113.61,-81.96"/>
</g>
<!-- Node4 -->
<g id="node4" class="node">
<title>Node4</title>
<g id="a_node4"><a xlink:href="PayloadConfig_8h.html" target="_top" xlink:title=" ">
<polygon fill="none" stroke="black" points="1047,-0.5 1047,-19.5 1142,-19.5 1142,-0.5 1047,-0.5"/>
<text text-anchor="middle" x="1094.5" y="-7.5" font-family="Helvetica,sans-Serif" font-size="10.00">PayloadConfig.h</text>
</a>
</g>
</g>
<!-- Node1&#45;&gt;Node4 -->
<g id="edge7" class="edge">
<title>Node1&#45;&gt;Node4</title>
<path fill="none" stroke="midnightblue" d="M1265.74,-176.81C1484.47,-175.21 2774.81,-161.27 2672.5,-56 2645.49,-28.21 1434.04,-14.4 1152.51,-11.56"/>
<polygon fill="midnightblue" stroke="midnightblue" points="1152.15,-8.05 1142.12,-11.45 1152.08,-15.05 1152.15,-8.05"/>
</g>
<!-- Node7 -->
<g id="node7" class="node">
<title>Node7</title>
<g id="a_node7"><a xlink:href="Sensor_8h.html" target="_top" xlink:title=" ">
<polygon fill="none" stroke="black" points="1309.5,-56.5 1309.5,-75.5 1367.5,-75.5 1367.5,-56.5 1309.5,-56.5"/>
<text text-anchor="middle" x="1338.5" y="-63.5" font-family="Helvetica,sans-Serif" font-size="10.00">Sensor.h</text>
</a>
</g>
</g>
<!-- Node1&#45;&gt;Node7 -->
<g id="edge8" class="edge">
<title>Node1&#45;&gt;Node7</title>
<path fill="none" stroke="midnightblue" d="M1247.57,-168.26C1259.7,-159.8 1277.89,-146.2 1291.5,-132 1305.75,-117.13 1319.22,-97.75 1328.06,-84.04"/>
<polygon fill="midnightblue" stroke="midnightblue" points="1331.02,-85.9 1333.39,-75.57 1325.1,-82.17 1331.02,-85.9"/>
</g>
<!-- Node8 -->
<g id="node8" class="node">
<title>Node8</title>
<g id="a_node8"><a xlink:href="Storage_8h.html" target="_top" xlink:title=" ">
<polygon fill="none" stroke="black" points="255,-56.5 255,-75.5 318,-75.5 318,-56.5 255,-56.5"/>
<text text-anchor="middle" x="286.5" y="-63.5" font-family="Helvetica,sans-Serif" font-size="10.00">Storage.h</text>
</a>
</g>
</g>
<!-- Node1&#45;&gt;Node8 -->
<g id="edge10" class="edge">
<title>Node1&#45;&gt;Node8</title>
<path fill="none" stroke="midnightblue" d="M1203.36,-176.57C1044.92,-174.24 334.51,-162.13 299.5,-132 286.57,-120.87 284.26,-100.84 284.6,-85.95"/>
<polygon fill="midnightblue" stroke="midnightblue" points="288.1,-85.99 285.25,-75.79 281.12,-85.55 288.1,-85.99"/>
</g>
<!-- Node9 -->
<g id="node9" class="node">
<title>Node9</title>
<g id="a_node9"><a xlink:href="AS7331Sensor_8h.html" target="_top" xlink:title=" ">
<polygon fill="none" stroke="black" points="1187,-112.5 1187,-131.5 1282,-131.5 1282,-112.5 1187,-112.5"/>
<text text-anchor="middle" x="1234.5" y="-119.5" font-family="Helvetica,sans-Serif" font-size="10.00">AS7331Sensor.h</text>
</a>
</g>
</g>
<!-- Node1&#45;&gt;Node9 -->
<g id="edge12" class="edge">
<title>Node1&#45;&gt;Node9</title>
<path fill="none" stroke="midnightblue" d="M1234.5,-168.08C1234.5,-161.01 1234.5,-150.86 1234.5,-141.99"/>
<polygon fill="midnightblue" stroke="midnightblue" points="1238,-141.75 1234.5,-131.75 1231,-141.75 1238,-141.75"/>
</g>
<!-- Node13 -->
<g id="node13" class="node">
<title>Node13</title>
<g id="a_node13"><a xlink:href="BME280Sensor_8h.html" target="_top" xlink:title=" ">
<polygon fill="none" stroke="black" points="1070.5,-112.5 1070.5,-131.5 1168.5,-131.5 1168.5,-112.5 1070.5,-112.5"/>
<text text-anchor="middle" x="1119.5" y="-119.5" font-family="Helvetica,sans-Serif" font-size="10.00">BME280Sensor.h</text>
</a>
</g>
</g>
<!-- Node1&#45;&gt;Node13 -->
<g id="edge17" class="edge">
<title>Node1&#45;&gt;Node13</title>
<path fill="none" stroke="midnightblue" d="M1216.28,-168.44C1197.6,-159.68 1168.34,-145.94 1146.88,-135.86"/>
<polygon fill="midnightblue" stroke="midnightblue" points="1148.18,-132.6 1137.64,-131.52 1145.2,-138.93 1148.18,-132.6"/>
</g>
<!-- Node15 -->
<g id="node15" class="node">
<title>Node15</title>
<g id="a_node15"><a xlink:href="BME680Sensor_8h.html" target="_top" xlink:title=" ">
<polygon fill="none" stroke="black" points="1440.5,-112.5 1440.5,-131.5 1538.5,-131.5 1538.5,-112.5 1440.5,-112.5"/>
<text text-anchor="middle" x="1489.5" y="-119.5" font-family="Helvetica,sans-Serif" font-size="10.00">BME680Sensor.h</text>
</a>
</g>
</g>
<!-- Node1&#45;&gt;Node15 -->
<g id="edge20" class="edge">
<title>Node1&#45;&gt;Node15</title>
<path fill="none" stroke="midnightblue" d="M1265.51,-170.43C1308.69,-161.29 1387.43,-144.62 1439.1,-133.67"/>
<polygon fill="midnightblue" stroke="midnightblue" points="1440,-137.06 1449.06,-131.56 1438.55,-130.21 1440,-137.06"/>
</g>
<!-- Node19 -->
<g id="node19" class="node">
<title>Node19</title>
<g id="a_node19"><a xlink:href="ENS160Sensor_8h.html" target="_top" xlink:title=" ">
<polygon fill="none" stroke="black" points="851,-112.5 851,-131.5 946,-131.5 946,-112.5 851,-112.5"/>
<text text-anchor="middle" x="898.5" y="-119.5" font-family="Helvetica,sans-Serif" font-size="10.00">ENS160Sensor.h</text>
</a>
</g>
</g>
<!-- Node1&#45;&gt;Node19 -->
<g id="edge28" class="edge">
<title>Node1&#45;&gt;Node19</title>
<path fill="none" stroke="midnightblue" d="M1203.49,-172.02C1147.36,-163 1028.1,-143.83 956.47,-132.32"/>
<polygon fill="midnightblue" stroke="midnightblue" points="956.69,-128.81 946.26,-130.68 955.58,-135.72 956.69,-128.81"/>
</g>
<!-- Node21 -->
<g id="node21" class="node">
<title>Node21</title>
<g id="a_node21"><a xlink:href="ICM20948Sensor_8h.html" target="_top" xlink:title=" ">
<polygon fill="none" stroke="black" points="2123,-112.5 2123,-131.5 2230,-131.5 2230,-112.5 2123,-112.5"/>
<text text-anchor="middle" x="2176.5" y="-119.5" font-family="Helvetica,sans-Serif" font-size="10.00">ICM20948Sensor.h</text>
</a>
</g>
</g>
<!-- Node1&#45;&gt;Node21 -->
<g id="edge32" class="edge">
<title>Node1&#45;&gt;Node21</title>
<path fill="none" stroke="midnightblue" d="M1265.64,-175.8C1376.54,-171.42 1762.55,-155.35 2080.5,-132 2090.94,-131.23 2102,-130.3 2112.77,-129.34"/>
<polygon fill="midnightblue" stroke="midnightblue" points="2113.32,-132.8 2122.96,-128.4 2112.69,-125.83 2113.32,-132.8"/>
</g>
<!-- Node24 -->
<g id="node24" class="node">
<title>Node24</title>
<g id="a_node24"><a xlink:href="INA260Sensor_8h.html" target="_top" xlink:title=" ">
<polygon fill="none" stroke="black" points="1558,-112.5 1558,-131.5 1651,-131.5 1651,-112.5 1558,-112.5"/>
<text text-anchor="middle" x="1604.5" y="-119.5" font-family="Helvetica,sans-Serif" font-size="10.00">INA260Sensor.h</text>
</a>
</g>
</g>
<!-- Node1&#45;&gt;Node24 -->
<g id="edge39" class="edge">
<title>Node1&#45;&gt;Node24</title>
<path fill="none" stroke="midnightblue" d="M1265.62,-172.67C1321.9,-164.81 1444.36,-147.56 1547.5,-132 1547.61,-131.98 1547.71,-131.97 1547.82,-131.95"/>
<polygon fill="midnightblue" stroke="midnightblue" points="1548.49,-135.39 1557.85,-130.42 1547.43,-128.47 1548.49,-135.39"/>
</g>
<!-- Node26 -->
<g id="node26" class="node">
<title>Node26</title>
<g id="a_node26"><a xlink:href="LSM9DS1Sensor_8h.html" target="_top" xlink:title=" ">
<polygon fill="none" stroke="black" points="1967.5,-112.5 1967.5,-131.5 2071.5,-131.5 2071.5,-112.5 1967.5,-112.5"/>
<text text-anchor="middle" x="2019.5" y="-119.5" font-family="Helvetica,sans-Serif" font-size="10.00">LSM9DS1Sensor.h</text>
</a>
</g>
</g>
<!-- Node1&#45;&gt;Node26 -->
<g id="edge44" class="edge">
<title>Node1&#45;&gt;Node26</title>
<path fill="none" stroke="midnightblue" d="M1265.52,-175.32C1362.84,-169.97 1670.86,-152.48 1925.5,-132 1935.78,-131.17 1946.68,-130.21 1957.28,-129.23"/>
<polygon fill="midnightblue" stroke="midnightblue" points="1957.69,-132.7 1967.32,-128.28 1957.03,-125.73 1957.69,-132.7"/>
</g>
<!-- Node28 -->
<g id="node28" class="node">
<title>Node28</title>
<g id="a_node28"><a xlink:href="MTK3339Sensor_8h.html" target="_top" xlink:title=" ">
<polygon fill="none" stroke="black" points="728.5,-112.5 728.5,-131.5 832.5,-131.5 832.5,-112.5 728.5,-112.5"/>
<text text-anchor="middle" x="780.5" y="-119.5" font-family="Helvetica,sans-Serif" font-size="10.00">MTK3339Sensor.h</text>
</a>
</g>
</g>
<!-- Node1&#45;&gt;Node28 -->
<g id="edge50" class="edge">
<title>Node1&#45;&gt;Node28</title>
<path fill="none" stroke="midnightblue" d="M1203.46,-173.76C1137.13,-166.75 976.66,-149.43 842.5,-132 842.4,-131.99 842.3,-131.97 842.2,-131.96"/>
<polygon fill="midnightblue" stroke="midnightblue" points="842.96,-128.53 832.58,-130.68 842.03,-135.47 842.96,-128.53"/>
</g>
<!-- Node30 -->
<g id="node30" class="node">
<title>Node30</title>
<g id="a_node30"><a xlink:href="PCF8523Sensor_8h.html" target="_top" xlink:title=" ">
<polygon fill="none" stroke="black" points="1669,-112.5 1669,-131.5 1770,-131.5 1770,-112.5 1669,-112.5"/>
<text text-anchor="middle" x="1719.5" y="-119.5" font-family="Helvetica,sans-Serif" font-size="10.00">PCF8523Sensor.h</text>
</a>
</g>
</g>
<!-- Node1&#45;&gt;Node30 -->
<g id="edge57" class="edge">
<title>Node1&#45;&gt;Node30</title>
<path fill="none" stroke="midnightblue" d="M1265.56,-174.21C1334.44,-167.93 1505.43,-151.75 1658.91,-132.16"/>
<polygon fill="midnightblue" stroke="midnightblue" points="1659.52,-135.61 1668.99,-130.86 1658.63,-128.66 1659.52,-135.61"/>
</g>
<!-- Node32 -->
<g id="node32" class="node">
<title>Node32</title>
<g id="a_node32"><a xlink:href="SGP30Sensor_8h.html" target="_top" xlink:title=" ">
<polygon fill="none" stroke="black" points="1827,-112.5 1827,-131.5 1916,-131.5 1916,-112.5 1827,-112.5"/>
<text text-anchor="middle" x="1871.5" y="-119.5" font-family="Helvetica,sans-Serif" font-size="10.00">SGP30Sensor.h</text>
</a>
</g>
</g>
<!-- Node1&#45;&gt;Node32 -->
<g id="edge60" class="edge">
<title>Node1&#45;&gt;Node32</title>
<path fill="none" stroke="midnightblue" d="M1265.55,-174.6C1348.81,-168.14 1584,-149.63 1779.5,-132 1791.49,-130.92 1804.35,-129.7 1816.54,-128.51"/>
<polygon fill="midnightblue" stroke="midnightblue" points="1816.98,-131.99 1826.59,-127.53 1816.3,-125.02 1816.98,-131.99"/>
</g>
<!-- Node35 -->
<g id="node35" class="node">
<title>Node35</title>
<g id="a_node35"><a xlink:href="SHT31Sensor_8h.html" target="_top" xlink:title=" ">
<polygon fill="none" stroke="black" points="964,-112.5 964,-131.5 1053,-131.5 1053,-112.5 964,-112.5"/>
<text text-anchor="middle" x="1008.5" y="-119.5" font-family="Helvetica,sans-Serif" font-size="10.00">SHT31Sensor.h</text>
</a>
</g>
</g>
<!-- Node1&#45;&gt;Node35 -->
<g id="edge66" class="edge">
<title>Node1&#45;&gt;Node35</title>
<path fill="none" stroke="midnightblue" d="M1203.08,-169.49C1164.37,-160.24 1098.32,-144.46 1054.05,-133.88"/>
<polygon fill="midnightblue" stroke="midnightblue" points="1054.66,-130.43 1044.12,-131.51 1053.04,-137.24 1054.66,-130.43"/>
</g>
<!-- Node37 -->
<g id="node37" class="node">
<title>Node37</title>
<g id="a_node37"><a xlink:href="TempSensor_8h.html" target="_top" xlink:title=" ">
<polygon fill="none" stroke="black" points="1338.5,-112.5 1338.5,-131.5 1422.5,-131.5 1422.5,-112.5 1338.5,-112.5"/>
<text text-anchor="middle" x="1380.5" y="-119.5" font-family="Helvetica,sans-Serif" font-size="10.00">TempSensor.h</text>
</a>
</g>
</g>
<!-- Node1&#45;&gt;Node37 -->
<g id="edge72" class="edge">
<title>Node1&#45;&gt;Node37</title>
<path fill="none" stroke="midnightblue" d="M1257.63,-168.44C1281.98,-159.44 1320.51,-145.19 1347.92,-135.05"/>
<polygon fill="midnightblue" stroke="midnightblue" points="1349.31,-138.27 1357.47,-131.52 1346.88,-131.7 1349.31,-138.27"/>
</g>
<!-- Node38 -->
<g id="node38" class="node">
<title>Node38</title>
<g id="a_node38"><a xlink:href="RadioStorage_8h.html" target="_top" xlink:title=" ">
<polygon fill="none" stroke="black" points="308,-112.5 308,-131.5 399,-131.5 399,-112.5 308,-112.5"/>
<text text-anchor="middle" x="353.5" y="-119.5" font-family="Helvetica,sans-Serif" font-size="10.00">RadioStorage.h</text>
</a>
</g>
</g>
<!-- Node1&#45;&gt;Node38 -->
<g id="edge74" class="edge">
<title>Node1&#45;&gt;Node38</title>
<path fill="none" stroke="midnightblue" d="M1203.48,-176.35C1094.7,-173.85 720.6,-163.38 413.5,-132 412.2,-131.87 410.89,-131.73 409.57,-131.58"/>
<polygon fill="midnightblue" stroke="midnightblue" points="409.66,-128.06 399.31,-130.32 408.81,-135.01 409.66,-128.06"/>
</g>
<!-- Node39 -->
<g id="node39" class="node">
<title>Node39</title>
<g id="a_node39"><a xlink:href="SDStorage_8h.html" target="_top" xlink:title=" ">
<polygon fill="none" stroke="black" points="174,-112.5 174,-131.5 251,-131.5 251,-112.5 174,-112.5"/>
<text text-anchor="middle" x="212.5" y="-119.5" font-family="Helvetica,sans-Serif" font-size="10.00">SDStorage.h</text>
</a>
</g>
</g>
<!-- Node1&#45;&gt;Node39 -->
<g id="edge78" class="edge">
<title>Node1&#45;&gt;Node39</title>
<path fill="none" stroke="midnightblue" d="M1203.44,-176.93C1082.69,-176.37 633.03,-171.59 265.5,-132 264.2,-131.86 262.87,-131.71 261.54,-131.54"/>
<polygon fill="midnightblue" stroke="midnightblue" points="261.59,-128.02 251.21,-130.13 260.65,-134.96 261.59,-128.02"/>
</g>
<!-- Node3&#45;&gt;Node2 -->
<g id="edge3" class="edge">
<title>Node3&#45;&gt;Node2</title>
<path fill="none" stroke="midnightblue" d="M141.66,-57.99C146.33,-57.28 151.01,-56.6 155.5,-56 290.74,-37.78 451.66,-21.91 526.43,-14.87"/>
<polygon fill="midnightblue" stroke="midnightblue" points="527.2,-18.31 536.83,-13.9 526.54,-11.35 527.2,-18.31"/>
</g>
<!-- Node3&#45;&gt;Node4 -->
<g id="edge4" class="edge">
<title>Node3&#45;&gt;Node4</title>
<path fill="none" stroke="midnightblue" d="M141.63,-57.71C146.3,-57.06 150.99,-56.47 155.5,-56 488.01,-21.42 889.58,-13.37 1036.81,-11.53"/>
<polygon fill="midnightblue" stroke="midnightblue" points="1037.01,-15.03 1046.97,-11.41 1036.93,-8.03 1037.01,-15.03"/>
</g>
<!-- Node5 -->
<g id="node5" class="node">
<title>Node5</title>
<g id="a_node5"><a xlink:title=" ">
<polygon fill="none" stroke="#bfbfbf" points="0,-0.5 0,-19.5 95,-19.5 95,-0.5 0,-0.5"/>
<text text-anchor="middle" x="47.5" y="-7.5" font-family="Helvetica,sans-Serif" font-size="10.00">pico/multicore.h</text>
</a>
</g>
</g>
<!-- Node3&#45;&gt;Node5 -->
<g id="edge5" class="edge">
<title>Node3&#45;&gt;Node5</title>
<path fill="none" stroke="midnightblue" d="M90.91,-56.08C83.34,-48.22 72.12,-36.57 62.99,-27.08"/>
<polygon fill="midnightblue" stroke="midnightblue" points="65.38,-24.53 55.93,-19.75 60.34,-29.38 65.38,-24.53"/>
</g>
<!-- Node6 -->
<g id="node6" class="node">
<title>Node6</title>
<g id="a_node6"><a xlink:title=" ">
<polygon fill="none" stroke="#bfbfbf" points="113.5,-0.5 113.5,-19.5 189.5,-19.5 189.5,-0.5 113.5,-0.5"/>
<text text-anchor="middle" x="151.5" y="-7.5" font-family="Helvetica,sans-Serif" font-size="10.00">pico/stdlib.h</text>
</a>
</g>
</g>
<!-- Node3&#45;&gt;Node6 -->
<g id="edge6" class="edge">
<title>Node3&#45;&gt;Node6</title>
<path fill="none" stroke="midnightblue" d="M108.09,-56.08C115.66,-48.22 126.88,-36.57 136.01,-27.08"/>
<polygon fill="midnightblue" stroke="midnightblue" points="138.66,-29.38 143.07,-19.75 133.62,-24.53 138.66,-29.38"/>
</g>
<!-- Node7&#45;&gt;Node2 -->
<g id="edge9" class="edge">
<title>Node7&#45;&gt;Node2</title>
<path fill="none" stroke="midnightblue" d="M1309.14,-57.52C1306.23,-56.94 1303.32,-56.42 1300.5,-56 1040,-17.43 722.62,-11.81 610.31,-11.07"/>
<polygon fill="midnightblue" stroke="midnightblue" points="610.11,-7.57 600.09,-11.02 610.07,-14.57 610.11,-7.57"/>
</g>
<!-- Node8&#45;&gt;Node2 -->
<g id="edge11" class="edge">
<title>Node8&#45;&gt;Node2</title>
<path fill="none" stroke="midnightblue" d="M318.17,-58.78C322.97,-57.85 327.87,-56.9 332.5,-56 400.6,-42.84 479.82,-27.79 526.96,-18.86"/>
<polygon fill="midnightblue" stroke="midnightblue" points="527.63,-22.29 536.81,-16.99 526.33,-15.42 527.63,-22.29"/>
</g>
<!-- Node9&#45;&gt;Node7 -->
<g id="edge16" class="edge">
<title>Node9&#45;&gt;Node7</title>
<path fill="none" stroke="midnightblue" d="M1251.21,-112.32C1267.81,-103.7 1293.5,-90.36 1312.72,-80.39"/>
<polygon fill="midnightblue" stroke="midnightblue" points="1314.57,-83.37 1321.83,-75.65 1311.34,-77.16 1314.57,-83.37"/>
</g>
<!-- Node10 -->
<g id="node10" class="node">
<title>Node10</title>
<g id="a_node10"><a xlink:title=" ">
<polygon fill="none" stroke="#bfbfbf" points="1178,-56.5 1178,-75.5 1291,-75.5 1291,-56.5 1178,-56.5"/>
<text text-anchor="middle" x="1234.5" y="-63.5" font-family="Helvetica,sans-Serif" font-size="10.00">SparkFun_AS7331.h</text>
</a>
</g>
</g>
<!-- Node9&#45;&gt;Node10 -->
<g id="edge13" class="edge">
<title>Node9&#45;&gt;Node10</title>
<path fill="none" stroke="midnightblue" d="M1234.5,-112.08C1234.5,-105.01 1234.5,-94.86 1234.5,-85.99"/>
<polygon fill="midnightblue" stroke="midnightblue" points="1238,-85.75 1234.5,-75.75 1231,-85.75 1238,-85.75"/>
</g>
<!-- Node11 -->
<g id="node11" class="node">
<title>Node11</title>
<g id="a_node11"><a xlink:title=" ">
<polygon fill="none" stroke="#bfbfbf" points="924.5,-56.5 924.5,-75.5 972.5,-75.5 972.5,-56.5 924.5,-56.5"/>
<text text-anchor="middle" x="948.5" y="-63.5" font-family="Helvetica,sans-Serif" font-size="10.00">Wire.h</text>
</a>
</g>
</g>
<!-- Node9&#45;&gt;Node11 -->
<g id="edge14" class="edge">
<title>Node9&#45;&gt;Node11</title>
<path fill="none" stroke="midnightblue" d="M1186.78,-113.04C1128.72,-103.27 1033.1,-86.89 982.4,-76.01"/>
<polygon fill="midnightblue" stroke="midnightblue" points="983.11,-72.58 972.59,-73.84 981.6,-79.41 983.11,-72.58"/>
</g>
<!-- Node12 -->
<g id="node12" class="node">
<title>Node12</title>
<g id="a_node12"><a xlink:title=" ">
<polygon fill="none" stroke="#bfbfbf" points="1675,-56.5 1675,-75.5 1728,-75.5 1728,-56.5 1675,-56.5"/>
<text text-anchor="middle" x="1701.5" y="-63.5" font-family="Helvetica,sans-Serif" font-size="10.00">string.h</text>
</a>
</g>
</g>
<!-- Node9&#45;&gt;Node12 -->
<g id="edge15" class="edge">
<title>Node9&#45;&gt;Node12</title>
<path fill="none" stroke="midnightblue" d="M1282.14,-116.44C1380.47,-106.97 1601.41,-85.4 1664.88,-75.91"/>
<polygon fill="midnightblue" stroke="midnightblue" points="1665.53,-79.35 1674.84,-74.29 1664.4,-72.45 1665.53,-79.35"/>
</g>
<!-- Node13&#45;&gt;Node7 -->
<g id="edge18" class="edge">
<title>Node13&#45;&gt;Node7</title>
<path fill="none" stroke="midnightblue" d="M1154.2,-112.44C1193.67,-102.71 1257.98,-86.85 1299.25,-76.68"/>
<polygon fill="midnightblue" stroke="midnightblue" points="1300.35,-80.01 1309.22,-74.22 1298.67,-73.22 1300.35,-80.01"/>
</g>
<!-- Node14 -->
<g id="node14" class="node">
<title>Node14</title>
<g id="a_node14"><a xlink:title=" ">
<polygon fill="none" stroke="#bfbfbf" points="990.5,-56.5 990.5,-75.5 1100.5,-75.5 1100.5,-56.5 990.5,-56.5"/>
<text text-anchor="middle" x="1045.5" y="-63.5" font-family="Helvetica,sans-Serif" font-size="10.00">SparkFunBME280.h</text>
</a>
</g>
</g>
<!-- Node13&#45;&gt;Node14 -->
<g id="edge19" class="edge">
<title>Node13&#45;&gt;Node14</title>
<path fill="none" stroke="midnightblue" d="M1107.61,-112.32C1096.35,-104.11 1079.21,-91.6 1065.79,-81.81"/>
<polygon fill="midnightblue" stroke="midnightblue" points="1067.75,-78.9 1057.61,-75.83 1063.62,-84.56 1067.75,-78.9"/>
</g>
<!-- Node15&#45;&gt;Node4 -->
<g id="edge26" class="edge">
<title>Node15&#45;&gt;Node4</title>
<path fill="none" stroke="midnightblue" d="M1495.77,-112.23C1504.75,-98.51 1518.72,-71.87 1504.5,-56 1481.41,-30.24 1259.51,-17.73 1152.14,-13.14"/>
<polygon fill="midnightblue" stroke="midnightblue" points="1152.25,-9.64 1142.11,-12.72 1151.96,-16.64 1152.25,-9.64"/>
</g>
<!-- Node15&#45;&gt;Node7 -->
<g id="edge27" class="edge">
<title>Node15&#45;&gt;Node7</title>
<path fill="none" stroke="midnightblue" d="M1465.57,-112.44C1440.28,-103.4 1400.2,-89.06 1371.82,-78.92"/>
<polygon fill="midnightblue" stroke="midnightblue" points="1372.91,-75.59 1362.31,-75.52 1370.55,-82.18 1372.91,-75.59"/>
</g>
<!-- Node15&#45;&gt;Node11 -->
<g id="edge24" class="edge">
<title>Node15&#45;&gt;Node11</title>
<path fill="none" stroke="midnightblue" d="M1440.49,-113.13C1437.45,-112.73 1434.43,-112.34 1431.5,-112 1235.44,-88.98 1180.89,-109.85 982.4,-75.83"/>
<polygon fill="midnightblue" stroke="midnightblue" points="982.99,-72.38 972.53,-74.11 981.79,-79.27 982.99,-72.38"/>
</g>
<!-- Node15&#45;&gt;Node12 -->
<g id="edge25" class="edge">
<title>Node15&#45;&gt;Node12</title>
<path fill="none" stroke="midnightblue" d="M1523.11,-112.48C1556.7,-103.97 1610.1,-90.41 1664.87,-76.41"/>
<polygon fill="midnightblue" stroke="midnightblue" points="1665.93,-79.75 1674.75,-73.89 1664.19,-72.97 1665.93,-79.75"/>
</g>
<!-- Node16 -->
<g id="node16" class="node">
<title>Node16</title>
<g id="a_node16"><a xlink:title=" ">
<polygon fill="none" stroke="#bfbfbf" points="1385.5,-56.5 1385.5,-75.5 1495.5,-75.5 1495.5,-56.5 1385.5,-56.5"/>
<text text-anchor="middle" x="1440.5" y="-63.5" font-family="Helvetica,sans-Serif" font-size="10.00">Adafruit_BME680.h</text>
</a>
</g>
</g>
<!-- Node15&#45;&gt;Node16 -->
<g id="edge21" class="edge">
<title>Node15&#45;&gt;Node16</title>
<path fill="none" stroke="midnightblue" d="M1481.41,-112.08C1474.34,-104.3 1463.91,-92.8 1455.35,-83.37"/>
<polygon fill="midnightblue" stroke="midnightblue" points="1457.75,-80.8 1448.44,-75.75 1452.57,-85.51 1457.75,-80.8"/>
</g>
<!-- Node17 -->
<g id="node17" class="node">
<title>Node17</title>
<g id="a_node17"><a xlink:title=" ">
<polygon fill="none" stroke="#bfbfbf" points="2125.5,-56.5 2125.5,-75.5 2227.5,-75.5 2227.5,-56.5 2125.5,-56.5"/>
<text text-anchor="middle" x="2176.5" y="-63.5" font-family="Helvetica,sans-Serif" font-size="10.00">Adafruit_Sensor.h</text>
</a>
</g>
</g>
<!-- Node15&#45;&gt;Node17 -->
<g id="edge22" class="edge">
<title>Node15&#45;&gt;Node17</title>
<path fill="none" stroke="midnightblue" d="M1538.58,-113.32C1542.27,-112.84 1545.94,-112.39 1549.5,-112 1604.68,-105.89 1968.3,-81.06 2115.15,-71.13"/>
<polygon fill="midnightblue" stroke="midnightblue" points="2115.6,-74.61 2125.34,-70.44 2115.13,-67.63 2115.6,-74.61"/>
</g>
<!-- Node18 -->
<g id="node18" class="node">
<title>Node18</title>
<g id="a_node18"><a xlink:title=" ">
<polygon fill="none" stroke="#bfbfbf" points="1119,-56.5 1119,-75.5 1160,-75.5 1160,-56.5 1119,-56.5"/>
<text text-anchor="middle" x="1139.5" y="-63.5" font-family="Helvetica,sans-Serif" font-size="10.00">SPI.h</text>
</a>
</g>
</g>
<!-- Node15&#45;&gt;Node18 -->
<g id="edge23" class="edge">
<title>Node15&#45;&gt;Node18</title>
<path fill="none" stroke="midnightblue" d="M1440.46,-113.33C1437.43,-112.87 1434.42,-112.43 1431.5,-112 1318.38,-95.45 1286.11,-100.65 1170.04,-75.79"/>
<polygon fill="midnightblue" stroke="midnightblue" points="1170.56,-72.32 1160.05,-73.62 1169.08,-79.16 1170.56,-72.32"/>
</g>
<!-- Node19&#45;&gt;Node7 -->
<g id="edge30" class="edge">
<title>Node19&#45;&gt;Node7</title>
<path fill="none" stroke="midnightblue" d="M946.06,-113.3C949.25,-112.84 952.42,-112.4 955.5,-112 1105.08,-92.4 1146.73,-101.41 1298.93,-76.07"/>
<polygon fill="midnightblue" stroke="midnightblue" points="1299.84,-79.47 1309.12,-74.35 1298.67,-72.57 1299.84,-79.47"/>
</g>
<!-- Node19&#45;&gt;Node11 -->
<g id="edge29" class="edge">
<title>Node19&#45;&gt;Node11</title>
<path fill="none" stroke="midnightblue" d="M906.76,-112.08C913.96,-104.3 924.61,-92.8 933.35,-83.37"/>
<polygon fill="midnightblue" stroke="midnightblue" points="936.17,-85.47 940.4,-75.75 931.03,-80.71 936.17,-85.47"/>
</g>
<!-- Node20 -->
<g id="node20" class="node">
<title>Node20</title>
<g id="a_node20"><a xlink:title=" ">
<polygon fill="none" stroke="#bfbfbf" points="635,-56.5 635,-75.5 748,-75.5 748,-56.5 635,-56.5"/>
<text text-anchor="middle" x="691.5" y="-63.5" font-family="Helvetica,sans-Serif" font-size="10.00">SparkFun_ENS160.h</text>
</a>
</g>
</g>
<!-- Node19&#45;&gt;Node20 -->
<g id="edge31" class="edge">
<title>Node19&#45;&gt;Node20</title>
<path fill="none" stroke="midnightblue" d="M865.7,-112.44C830.12,-103.16 773.19,-88.31 734.15,-78.13"/>
<polygon fill="midnightblue" stroke="midnightblue" points="734.71,-74.65 724.15,-75.52 732.94,-81.43 734.71,-74.65"/>
</g>
<!-- Node21&#45;&gt;Node4 -->
<g id="edge37" class="edge">
<title>Node21&#45;&gt;Node4</title>
<path fill="none" stroke="midnightblue" d="M2230.16,-121.57C2312.14,-121.16 2462.64,-114.95 2496.5,-76 2502.33,-69.29 2502.68,-62.39 2496.5,-56 2449.06,-7.01 1411.05,-9.3 1152.45,-10.64"/>
<polygon fill="midnightblue" stroke="midnightblue" points="1152.13,-7.14 1142.15,-10.69 1152.17,-14.14 1152.13,-7.14"/>
</g>
<!-- Node21&#45;&gt;Node7 -->
<g id="edge38" class="edge">
<title>Node21&#45;&gt;Node7</title>
<path fill="none" stroke="midnightblue" d="M2122.96,-115.58C2109.14,-114.29 2094.27,-113 2080.5,-112 1771.38,-89.62 1688.43,-119.63 1378.05,-75.96"/>
<polygon fill="midnightblue" stroke="midnightblue" points="1378.25,-72.45 1367.86,-74.51 1377.27,-79.38 1378.25,-72.45"/>
</g>
<!-- Node21&#45;&gt;Node12 -->
<g id="edge36" class="edge">
<title>Node21&#45;&gt;Node12</title>
<path fill="none" stroke="midnightblue" d="M2122.97,-115.15C2046.07,-106.72 1899.88,-90.54 1775.5,-76 1763.37,-74.58 1750.13,-72.99 1738.24,-71.54"/>
<polygon fill="midnightblue" stroke="midnightblue" points="1738.56,-68.05 1728.21,-70.31 1737.71,-75 1738.56,-68.05"/>
</g>
<!-- Node21&#45;&gt;Node17 -->
<g id="edge35" class="edge">
<title>Node21&#45;&gt;Node17</title>
<path fill="none" stroke="midnightblue" d="M2176.5,-112.08C2176.5,-105.01 2176.5,-94.86 2176.5,-85.99"/>
<polygon fill="midnightblue" stroke="midnightblue" points="2180,-85.75 2176.5,-75.75 2173,-85.75 2180,-85.75"/>
</g>
<!-- Node22 -->
<g id="node22" class="node">
<title>Node22</title>
<g id="a_node22"><a xlink:title=" ">
<polygon fill="none" stroke="#bfbfbf" points="2544,-56.5 2544,-75.5 2663,-75.5 2663,-56.5 2544,-56.5"/>
<text text-anchor="middle" x="2603.5" y="-63.5" font-family="Helvetica,sans-Serif" font-size="10.00">Adafruit_ICM20948.h</text>
</a>
</g>
</g>
<!-- Node21&#45;&gt;Node22 -->
<g id="edge33" class="edge">
<title>Node21&#45;&gt;Node22</title>
<path fill="none" stroke="midnightblue" d="M2230.15,-114.22C2307.1,-104.48 2448.87,-86.56 2533.83,-75.81"/>
<polygon fill="midnightblue" stroke="midnightblue" points="2534.42,-79.26 2543.9,-74.54 2533.54,-72.32 2534.42,-79.26"/>
</g>
<!-- Node23 -->
<g id="node23" class="node">
<title>Node23</title>
<g id="a_node23"><a xlink:title=" ">
<polygon fill="none" stroke="#bfbfbf" points="2380,-56.5 2380,-75.5 2487,-75.5 2487,-56.5 2380,-56.5"/>
<text text-anchor="middle" x="2433.5" y="-63.5" font-family="Helvetica,sans-Serif" font-size="10.00">Adafruit_ICM20X.h</text>
</a>
</g>
</g>
<!-- Node21&#45;&gt;Node23 -->
<g id="edge34" class="edge">
<title>Node21&#45;&gt;Node23</title>
<path fill="none" stroke="midnightblue" d="M2217.22,-112.44C2262.15,-103 2334.5,-87.8 2383,-77.61"/>
<polygon fill="midnightblue" stroke="midnightblue" points="2383.9,-81 2392.97,-75.52 2382.46,-74.15 2383.9,-81"/>
</g>
<!-- Node24&#45;&gt;Node2 -->
<g id="edge40" class="edge">
<title>Node24&#45;&gt;Node2</title>
<path fill="none" stroke="midnightblue" d="M1646.15,-112.45C1680.95,-104.35 1726.6,-91.2 1737.5,-76 1742.68,-68.78 1743.66,-62.41 1737.5,-56 1717.55,-35.27 816.34,-15.97 610.2,-11.82"/>
<polygon fill="midnightblue" stroke="midnightblue" points="610.15,-8.32 600.08,-11.62 610.01,-15.32 610.15,-8.32"/>
</g>
<!-- Node24&#45;&gt;Node7 -->
<g id="edge43" class="edge">
<title>Node24&#45;&gt;Node7</title>
<path fill="none" stroke="midnightblue" d="M1558.54,-112.46C1514.58,-104.17 1446.18,-90.96 1377.63,-76.18"/>
<polygon fill="midnightblue" stroke="midnightblue" points="1378.03,-72.69 1367.52,-73.99 1376.55,-79.53 1378.03,-72.69"/>
</g>
<!-- Node24&#45;&gt;Node12 -->
<g id="edge41" class="edge">
<title>Node24&#45;&gt;Node12</title>
<path fill="none" stroke="midnightblue" d="M1620.08,-112.32C1635.5,-103.74 1659.31,-90.49 1677.21,-80.52"/>
<polygon fill="midnightblue" stroke="midnightblue" points="1678.92,-83.58 1685.95,-75.65 1675.51,-77.46 1678.92,-83.58"/>
</g>
<!-- Node25 -->
<g id="node25" class="node">
<title>Node25</title>
<g id="a_node25"><a xlink:title=" ">
<polygon fill="none" stroke="#bfbfbf" points="1552,-56.5 1552,-75.5 1657,-75.5 1657,-56.5 1552,-56.5"/>
<text text-anchor="middle" x="1604.5" y="-63.5" font-family="Helvetica,sans-Serif" font-size="10.00">Adafruit_INA260.h</text>
</a>
</g>
</g>
<!-- Node24&#45;&gt;Node25 -->
<g id="edge42" class="edge">
<title>Node24&#45;&gt;Node25</title>
<path fill="none" stroke="midnightblue" d="M1604.5,-112.08C1604.5,-105.01 1604.5,-94.86 1604.5,-85.99"/>
<polygon fill="midnightblue" stroke="midnightblue" points="1608,-85.75 1604.5,-75.75 1601,-85.75 1608,-85.75"/>
</g>
<!-- Node26&#45;&gt;Node4 -->
<g id="edge48" class="edge">
<title>Node26&#45;&gt;Node4</title>
<path fill="none" stroke="midnightblue" d="M2035.41,-112.48C2057.25,-99.74 2091.84,-75.2 2073.5,-56 2041.57,-22.57 1358.18,-13.47 1152.54,-11.48"/>
<polygon fill="midnightblue" stroke="midnightblue" points="1152.28,-7.98 1142.25,-11.38 1152.21,-14.98 1152.28,-7.98"/>
</g>
<!-- Node26&#45;&gt;Node7 -->
<g id="edge49" class="edge">
<title>Node26&#45;&gt;Node7</title>
<path fill="none" stroke="midnightblue" d="M1967.32,-115.72C1953.71,-114.42 1939.06,-113.09 1925.5,-112 1685.1,-92.61 1620.08,-111.77 1378.03,-75.99"/>
<polygon fill="midnightblue" stroke="midnightblue" points="1378.27,-72.48 1367.86,-74.47 1377.24,-79.41 1378.27,-72.48"/>
</g>
<!-- Node26&#45;&gt;Node12 -->
<g id="edge47" class="edge">
<title>Node26&#45;&gt;Node12</title>
<path fill="none" stroke="midnightblue" d="M1969.11,-112.44C1904.81,-101.52 1795.12,-82.9 1738.2,-73.23"/>
<polygon fill="midnightblue" stroke="midnightblue" points="1738.65,-69.76 1728.21,-71.54 1737.48,-76.66 1738.65,-69.76"/>
</g>
<!-- Node26&#45;&gt;Node17 -->
<g id="edge46" class="edge">
<title>Node26&#45;&gt;Node17</title>
<path fill="none" stroke="midnightblue" d="M2044.38,-112.44C2070.79,-103.36 2112.72,-88.94 2142.24,-78.78"/>
<polygon fill="midnightblue" stroke="midnightblue" points="2143.42,-82.08 2151.74,-75.52 2141.14,-75.46 2143.42,-82.08"/>
</g>
<!-- Node27 -->
<g id="node27" class="node">
<title>Node27</title>
<g id="a_node27"><a xlink:title=" ">
<polygon fill="none" stroke="#bfbfbf" points="2245.5,-56.5 2245.5,-75.5 2361.5,-75.5 2361.5,-56.5 2245.5,-56.5"/>
<text text-anchor="middle" x="2303.5" y="-63.5" font-family="Helvetica,sans-Serif" font-size="10.00">Adafruit_LSM9DS1.h</text>
</a>
</g>
</g>
<!-- Node26&#45;&gt;Node27 -->
<g id="edge45" class="edge">
<title>Node26&#45;&gt;Node27</title>
<path fill="none" stroke="midnightblue" d="M2064.5,-112.44C2114.46,-102.94 2195.1,-87.61 2248.7,-77.42"/>
<polygon fill="midnightblue" stroke="midnightblue" points="2249.54,-80.82 2258.71,-75.52 2248.23,-73.95 2249.54,-80.82"/>
</g>
<!-- Node28&#45;&gt;Node2 -->
<g id="edge52" class="edge">
<title>Node28&#45;&gt;Node2</title>
<path fill="none" stroke="midnightblue" d="M728.12,-114.07C679.72,-106.7 612.39,-93.66 592.5,-76 579.17,-64.16 573.23,-44.24 570.59,-29.57"/>
<polygon fill="midnightblue" stroke="midnightblue" points="574.04,-28.99 569.15,-19.59 567.11,-29.99 574.04,-28.99"/>
</g>
<!-- Node28&#45;&gt;Node4 -->
<g id="edge55" class="edge">
<title>Node28&#45;&gt;Node4</title>
<path fill="none" stroke="midnightblue" d="M728.31,-116.22C671.66,-109.1 593.42,-92.41 626.5,-56 653.6,-26.17 917.42,-15.58 1036.59,-12.3"/>
<polygon fill="midnightblue" stroke="midnightblue" points="1036.73,-15.8 1046.63,-12.03 1036.54,-8.8 1036.73,-15.8"/>
</g>
<!-- Node28&#45;&gt;Node7 -->
<g id="edge56" class="edge">
<title>Node28&#45;&gt;Node7</title>
<path fill="none" stroke="midnightblue" d="M832.56,-113.19C835.92,-112.76 839.26,-112.36 842.5,-112 1042.15,-89.69 1097.02,-107.04 1299.08,-75.99"/>
<polygon fill="midnightblue" stroke="midnightblue" points="1299.79,-79.43 1309.13,-74.43 1298.71,-72.51 1299.79,-79.43"/>
</g>
<!-- Node28&#45;&gt;Node11 -->
<g id="edge54" class="edge">
<title>Node28&#45;&gt;Node11</title>
<path fill="none" stroke="midnightblue" d="M807.12,-112.44C836.26,-103.08 883.04,-88.04 914.73,-77.85"/>
<polygon fill="midnightblue" stroke="midnightblue" points="916,-81.12 924.45,-74.73 913.86,-74.46 916,-81.12"/>
</g>
<!-- Node28&#45;&gt;Node18 -->
<g id="edge53" class="edge">
<title>Node28&#45;&gt;Node18</title>
<path fill="none" stroke="midnightblue" d="M832.59,-113.4C835.94,-112.92 839.27,-112.45 842.5,-112 957.96,-95.84 990.74,-100.99 1109.14,-75.75"/>
<polygon fill="midnightblue" stroke="midnightblue" points="1109.92,-79.16 1118.95,-73.63 1108.44,-72.32 1109.92,-79.16"/>
</g>
<!-- Node29 -->
<g id="node29" class="node">
<title>Node29</title>
<g id="a_node29"><a xlink:title=" ">
<polygon fill="none" stroke="#bfbfbf" points="451,-56.5 451,-75.5 540,-75.5 540,-56.5 451,-56.5"/>
<text text-anchor="middle" x="495.5" y="-63.5" font-family="Helvetica,sans-Serif" font-size="10.00">Adafruit_GPS.h</text>
</a>
</g>
</g>
<!-- Node28&#45;&gt;Node29 -->
<g id="edge51" class="edge">
<title>Node28&#45;&gt;Node29</title>
<path fill="none" stroke="midnightblue" d="M735.34,-112.44C685.21,-102.94 604.28,-87.61 550.49,-77.42"/>
<polygon fill="midnightblue" stroke="midnightblue" points="550.92,-73.94 540.45,-75.52 549.62,-80.82 550.92,-73.94"/>
</g>
<!-- Node30&#45;&gt;Node7 -->
<g id="edge59" class="edge">
<title>Node30&#45;&gt;Node7</title>
<path fill="none" stroke="midnightblue" d="M1668.98,-113.21C1666.11,-112.79 1663.27,-112.39 1660.5,-112 1537.69,-94.85 1503.42,-98.49 1377.89,-76.09"/>
<polygon fill="midnightblue" stroke="midnightblue" points="1378.36,-72.62 1367.89,-74.29 1377.11,-79.51 1378.36,-72.62"/>
</g>
<!-- Node31 -->
<g id="node31" class="node">
<title>Node31</title>
<g id="a_node31"><a xlink:title=" ">
<polygon fill="none" stroke="#bfbfbf" points="1784.5,-56.5 1784.5,-75.5 1840.5,-75.5 1840.5,-56.5 1784.5,-56.5"/>
<text text-anchor="middle" x="1812.5" y="-63.5" font-family="Helvetica,sans-Serif" font-size="10.00">RTClib.h</text>
</a>
</g>
</g>
<!-- Node30&#45;&gt;Node31 -->
<g id="edge58" class="edge">
<title>Node30&#45;&gt;Node31</title>
<path fill="none" stroke="midnightblue" d="M1734.44,-112.32C1749.09,-103.82 1771.63,-90.73 1788.74,-80.8"/>
<polygon fill="midnightblue" stroke="midnightblue" points="1790.7,-83.7 1797.6,-75.65 1787.19,-77.65 1790.7,-83.7"/>
</g>
<!-- Node32&#45;&gt;Node2 -->
<g id="edge61" class="edge">
<title>Node32&#45;&gt;Node2</title>
<path fill="none" stroke="midnightblue" d="M1916.24,-115.27C1961.03,-108.5 2025.42,-95.62 2040.5,-76 2045.92,-68.95 2046.69,-62.38 2040.5,-56 2027.7,-42.8 848.9,-16.98 610.32,-11.88"/>
<polygon fill="midnightblue" stroke="midnightblue" points="610.39,-8.39 600.31,-11.67 610.24,-15.38 610.39,-8.39"/>
</g>
<!-- Node32&#45;&gt;Node7 -->
<g id="edge65" class="edge">
<title>Node32&#45;&gt;Node7</title>
<path fill="none" stroke="midnightblue" d="M1826.59,-116.53C1811.61,-115.06 1794.84,-113.44 1779.5,-112 1603.69,-95.55 1555.73,-104.46 1377.83,-76.01"/>
<polygon fill="midnightblue" stroke="midnightblue" points="1378.31,-72.54 1367.87,-74.4 1377.19,-79.45 1378.31,-72.54"/>
</g>
<!-- Node32&#45;&gt;Node12 -->
<g id="edge63" class="edge">
<title>Node32&#45;&gt;Node12</title>
<path fill="none" stroke="midnightblue" d="M1844.56,-112.44C1815.76,-103.29 1769.9,-88.73 1737.9,-78.56"/>
<polygon fill="midnightblue" stroke="midnightblue" points="1738.62,-75.12 1728.03,-75.43 1736.5,-81.79 1738.62,-75.12"/>
</g>
<!-- Node33 -->
<g id="node33" class="node">
<title>Node33</title>
<g id="a_node33"><a xlink:title=" ">
<polygon fill="none" stroke="#bfbfbf" points="1978,-56.5 1978,-75.5 2031,-75.5 2031,-56.5 1978,-56.5"/>
<text text-anchor="middle" x="2004.5" y="-63.5" font-family="Helvetica,sans-Serif" font-size="10.00">stdint.h</text>
</a>
</g>
</g>
<!-- Node32&#45;&gt;Node33 -->
<g id="edge62" class="edge">
<title>Node32&#45;&gt;Node33</title>
<path fill="none" stroke="midnightblue" d="M1892.57,-112.44C1914.56,-103.52 1949.23,-89.44 1974.16,-79.32"/>
<polygon fill="midnightblue" stroke="midnightblue" points="1975.58,-82.52 1983.52,-75.52 1972.94,-76.04 1975.58,-82.52"/>
</g>
<!-- Node34 -->
<g id="node34" class="node">
<title>Node34</title>
<g id="a_node34"><a xlink:title=" ">
<polygon fill="none" stroke="#bfbfbf" points="1859,-56.5 1859,-75.5 1960,-75.5 1960,-56.5 1859,-56.5"/>
<text text-anchor="middle" x="1909.5" y="-63.5" font-family="Helvetica,sans-Serif" font-size="10.00">Adafruit_SGP30.h</text>
</a>
</g>
</g>
<!-- Node32&#45;&gt;Node34 -->
<g id="edge64" class="edge">
<title>Node32&#45;&gt;Node34</title>
<path fill="none" stroke="midnightblue" d="M1877.77,-112.08C1883.14,-104.46 1891.02,-93.26 1897.58,-83.94"/>
<polygon fill="midnightblue" stroke="midnightblue" points="1900.45,-85.94 1903.34,-75.75 1894.72,-81.91 1900.45,-85.94"/>
</g>
<!-- Node35&#45;&gt;Node2 -->
<g id="edge67" class="edge">
<title>Node35&#45;&gt;Node2</title>
<path fill="none" stroke="midnightblue" d="M963.93,-112.97C911.22,-103.23 826.81,-86.77 796.5,-76 778.15,-69.48 775.77,-62.75 757.5,-56 708.27,-37.82 649.06,-25.11 610.19,-17.95"/>
<polygon fill="midnightblue" stroke="midnightblue" points="610.75,-14.49 600.28,-16.16 609.5,-21.38 610.75,-14.49"/>
</g>
<!-- Node35&#45;&gt;Node7 -->
<g id="edge71" class="edge">
<title>Node35&#45;&gt;Node7</title>
<path fill="none" stroke="midnightblue" d="M1053.02,-113.38C1055.89,-112.91 1058.74,-112.44 1061.5,-112 1164.36,-95.52 1193.3,-96.33 1298.97,-76.17"/>
<polygon fill="midnightblue" stroke="midnightblue" points="1299.94,-79.55 1309.09,-74.22 1298.61,-72.67 1299.94,-79.55"/>
</g>
<!-- Node35&#45;&gt;Node11 -->
<g id="edge68" class="edge">
<title>Node35&#45;&gt;Node11</title>
<path fill="none" stroke="midnightblue" d="M998.86,-112.32C989.99,-104.34 976.63,-92.31 965.89,-82.65"/>
<polygon fill="midnightblue" stroke="midnightblue" points="968.09,-79.92 958.32,-75.83 963.41,-85.13 968.09,-79.92"/>
</g>
<!-- Node35&#45;&gt;Node12 -->
<g id="edge69" class="edge">
<title>Node35&#45;&gt;Node12</title>
<path fill="none" stroke="midnightblue" d="M1053.27,-113.05C1056.05,-112.66 1058.81,-112.31 1061.5,-112 1325.85,-81.78 1398.62,-116.86 1664.9,-75.96"/>
<polygon fill="midnightblue" stroke="midnightblue" points="1665.51,-79.41 1674.86,-74.41 1664.44,-72.49 1665.51,-79.41"/>
</g>
<!-- Node36 -->
<g id="node36" class="node">
<title>Node36</title>
<g id="a_node36"><a xlink:title=" ">
<polygon fill="none" stroke="#bfbfbf" points="805,-56.5 805,-75.5 906,-75.5 906,-56.5 805,-56.5"/>
<text text-anchor="middle" x="855.5" y="-63.5" font-family="Helvetica,sans-Serif" font-size="10.00">Adafruit_SHT31.h</text>
</a>
</g>
</g>
<!-- Node35&#45;&gt;Node36 -->
<g id="edge70" class="edge">
<title>Node35&#45;&gt;Node36</title>
<path fill="none" stroke="midnightblue" d="M984.26,-112.44C958.63,-103.4 918.01,-89.06 889.26,-78.92"/>
<polygon fill="midnightblue" stroke="midnightblue" points="890.22,-75.54 879.63,-75.52 887.89,-82.15 890.22,-75.54"/>
</g>
<!-- Node37&#45;&gt;Node7 -->
<g id="edge73" class="edge">
<title>Node37&#45;&gt;Node7</title>
<path fill="none" stroke="midnightblue" d="M1373.56,-112.08C1367.57,-104.38 1358.75,-93.03 1351.45,-83.65"/>
<polygon fill="midnightblue" stroke="midnightblue" points="1354.21,-81.5 1345.31,-75.75 1348.68,-85.79 1354.21,-81.5"/>
</g>
<!-- Node38&#45;&gt;Node2 -->
<g id="edge75" class="edge">
<title>Node38&#45;&gt;Node2</title>
<path fill="none" stroke="midnightblue" d="M353.12,-112.46C353,-98.57 354.91,-71.09 370.5,-56 392.42,-34.78 475.2,-21.68 526.53,-15.43"/>
<polygon fill="midnightblue" stroke="midnightblue" points="527.14,-18.88 536.66,-14.23 526.32,-11.93 527.14,-18.88"/>
</g>
<!-- Node38&#45;&gt;Node4 -->
<g id="edge76" class="edge">
<title>Node38&#45;&gt;Node4</title>
<path fill="none" stroke="midnightblue" d="M361.85,-112.29C376.55,-97.6 408.71,-68.33 442.5,-56 550.8,-16.49 897.98,-11.35 1036.57,-10.91"/>
<polygon fill="midnightblue" stroke="midnightblue" points="1036.97,-14.41 1046.97,-10.89 1036.96,-7.41 1036.97,-14.41"/>
</g>
<!-- Node38&#45;&gt;Node8 -->
<g id="edge77" class="edge">
<title>Node38&#45;&gt;Node8</title>
<path fill="none" stroke="midnightblue" d="M342.74,-112.32C332.73,-104.26 317.61,-92.08 305.57,-82.37"/>
<polygon fill="midnightblue" stroke="midnightblue" points="307.44,-79.38 297.46,-75.83 303.05,-84.83 307.44,-79.38"/>
</g>
<!-- Node39&#45;&gt;Node3 -->
<g id="edge79" class="edge">
<title>Node39&#45;&gt;Node3</title>
<path fill="none" stroke="midnightblue" d="M194.59,-112.44C176.25,-103.68 147.49,-89.94 126.41,-79.86"/>
<polygon fill="midnightblue" stroke="midnightblue" points="127.85,-76.67 117.32,-75.52 124.83,-82.99 127.85,-76.67"/>
</g>
<!-- Node39&#45;&gt;Node4 -->
<g id="edge80" class="edge">
<title>Node39&#45;&gt;Node4</title>
<path fill="none" stroke="midnightblue" d="M204.46,-112.25C192.84,-98.55 174.32,-71.96 189.5,-56 218.76,-25.25 842.28,-14.36 1036.96,-11.7"/>
<polygon fill="midnightblue" stroke="midnightblue" points="1037.04,-15.2 1046.99,-11.57 1036.95,-8.2 1037.04,-15.2"/>
</g>
<!-- Node39&#45;&gt;Node8 -->
<g id="edge82" class="edge">
<title>Node39&#45;&gt;Node8</title>
<path fill="none" stroke="midnightblue" d="M224.39,-112.32C235.65,-104.11 252.79,-91.6 266.21,-81.81"/>
<polygon fill="midnightblue" stroke="midnightblue" points="268.38,-84.56 274.39,-75.83 264.25,-78.9 268.38,-84.56"/>
</g>
<!-- Node40 -->
<g id="node40" class="node">
<title>Node40</title>
<g id="a_node40"><a xlink:title=" ">
<polygon fill="none" stroke="#bfbfbf" points="198,-56.5 198,-75.5 237,-75.5 237,-56.5 198,-56.5"/>
<text text-anchor="middle" x="217.5" y="-63.5" font-family="Helvetica,sans-Serif" font-size="10.00">SD.h</text>
</a>
</g>
</g>
<!-- Node39&#45;&gt;Node40 -->
<g id="edge81" class="edge">
<title>Node39&#45;&gt;Node40</title>
<path fill="none" stroke="midnightblue" d="M213.33,-112.08C213.98,-105.01 214.92,-94.86 215.74,-85.99"/>
<polygon fill="midnightblue" stroke="midnightblue" points="219.25,-86.03 216.69,-75.75 212.28,-85.39 219.25,-86.03"/>
</g>
</g>
</svg>
