<?xml version="1.0" encoding="UTF-8" standalone="no"?>
<!DOCTYPE svg PUBLIC "-//W3C//DTD SVG 1.1//EN"
 "http://www.w3.org/Graphics/SVG/1.1/DTD/svg11.dtd">
<!-- Generated by graphviz version 2.43.0 (0)
 -->
<!-- Title: main.cpp Pages: 1 -->
<svg width="1353pt" height="196pt"
 viewBox="0.00 0.00 1353.44 196.00" xmlns="http://www.w3.org/2000/svg" xmlns:xlink="http://www.w3.org/1999/xlink">
<g id="graph0" class="graph" transform="scale(1 1) rotate(0) translate(4 192)">
<title>main.cpp</title>
<!-- Node1 -->
<g id="node1" class="node">
<title>Node1</title>
<g id="a_node1"><a xlink:title=" ">
<polygon fill="#bfbfbf" stroke="black" points="485.31,-168.5 485.31,-187.5 547.31,-187.5 547.31,-168.5 485.31,-168.5"/>
<text text-anchor="middle" x="516.31" y="-175.5" font-family="Helvetica,sans-Serif" font-size="10.00">main.cpp</text>
</a>
</g>
</g>
<!-- Node2 -->
<g id="node2" class="node">
<title>Node2</title>
<g id="a_node2"><a xlink:title=" ">
<polygon fill="none" stroke="#bfbfbf" points="730.81,-0.5 730.81,-19.5 793.81,-19.5 793.81,-0.5 730.81,-0.5"/>
<text text-anchor="middle" x="762.31" y="-7.5" font-family="Helvetica,sans-Serif" font-size="10.00">Arduino.h</text>
</a>
</g>
</g>
<!-- Node1&#45;&gt;Node2 -->
<g id="edge1" class="edge">
<title>Node1&#45;&gt;Node2</title>
<path fill="none" stroke="midnightblue" d="M485.11,-177.06C393.83,-176.77 129.02,-172.38 54.31,-132 19.78,-113.34 -17.61,-84.57 9.31,-56 33.86,-29.94 566.14,-15.56 720.63,-11.93"/>
<polygon fill="midnightblue" stroke="midnightblue" points="720.75,-15.42 730.67,-11.69 720.59,-8.43 720.75,-15.42"/>
</g>
<!-- Node3 -->
<g id="node3" class="node">
<title>Node3</title>
<g id="a_node3"><a xlink:href="Sensor_8h.html" target="_top" xlink:title=" ">
<polygon fill="none" stroke="black" points="541.31,-56.5 541.31,-75.5 599.31,-75.5 599.31,-56.5 541.31,-56.5"/>
<text text-anchor="middle" x="570.31" y="-63.5" font-family="Helvetica,sans-Serif" font-size="10.00">Sensor.h</text>
</a>
</g>
</g>
<!-- Node1&#45;&gt;Node3 -->
<g id="edge2" class="edge">
<title>Node1&#45;&gt;Node3</title>
<path fill="none" stroke="midnightblue" d="M531.36,-168.46C543.46,-160.68 559.65,-147.97 567.31,-132 574.25,-117.52 574.41,-99.07 573.18,-85.53"/>
<polygon fill="midnightblue" stroke="midnightblue" points="576.64,-85 571.93,-75.51 569.69,-85.86 576.64,-85"/>
</g>
<!-- Node4 -->
<g id="node4" class="node">
<title>Node4</title>
<g id="a_node4"><a xlink:href="Storage_8h.html" target="_top" xlink:title=" ">
<polygon fill="none" stroke="black" points="18.81,-56.5 18.81,-75.5 81.81,-75.5 81.81,-56.5 18.81,-56.5"/>
<text text-anchor="middle" x="50.31" y="-63.5" font-family="Helvetica,sans-Serif" font-size="10.00">Storage.h</text>
</a>
</g>
</g>
<!-- Node1&#45;&gt;Node4 -->
<g id="edge4" class="edge">
<title>Node1&#45;&gt;Node4</title>
<path fill="none" stroke="midnightblue" d="M485.25,-175.8C389.51,-171.85 103.44,-157.95 71.31,-132 57.64,-120.95 52.76,-100.91 51.07,-85.99"/>
<polygon fill="midnightblue" stroke="midnightblue" points="54.55,-85.52 50.31,-75.81 47.57,-86.05 54.55,-85.52"/>
</g>
<!-- Node5 -->
<g id="node5" class="node">
<title>Node5</title>
<g id="a_node5"><a xlink:href="BME680Sensor_8h.html" target="_top" xlink:title=" ">
<polygon fill="none" stroke="black" points="358.31,-112.5 358.31,-131.5 456.31,-131.5 456.31,-112.5 358.31,-112.5"/>
<text text-anchor="middle" x="407.31" y="-119.5" font-family="Helvetica,sans-Serif" font-size="10.00">BME680Sensor.h</text>
</a>
</g>
</g>
<!-- Node1&#45;&gt;Node5 -->
<g id="edge6" class="edge">
<title>Node1&#45;&gt;Node5</title>
<path fill="none" stroke="midnightblue" d="M498.8,-168.32C481.24,-159.62 453.98,-146.12 433.78,-136.11"/>
<polygon fill="midnightblue" stroke="midnightblue" points="435.29,-132.96 424.78,-131.65 432.19,-139.23 435.29,-132.96"/>
</g>
<!-- Node11 -->
<g id="node11" class="node">
<title>Node11</title>
<g id="a_node11"><a xlink:href="GeigerSensor_8h.html" target="_top" xlink:title=" ">
<polygon fill="none" stroke="black" points="250.31,-112.5 250.31,-131.5 340.31,-131.5 340.31,-112.5 250.31,-112.5"/>
<text text-anchor="middle" x="295.31" y="-119.5" font-family="Helvetica,sans-Serif" font-size="10.00">GeigerSensor.h</text>
</a>
</g>
</g>
<!-- Node1&#45;&gt;Node11 -->
<g id="edge13" class="edge">
<title>Node1&#45;&gt;Node11</title>
<path fill="none" stroke="midnightblue" d="M485.11,-169.38C447.33,-160.15 383.41,-144.53 340.3,-133.99"/>
<polygon fill="midnightblue" stroke="midnightblue" points="340.9,-130.54 330.36,-131.56 339.24,-137.34 340.9,-130.54"/>
</g>
<!-- Node12 -->
<g id="node12" class="node">
<title>Node12</title>
<g id="a_node12"><a xlink:href="INA260Sensor_8h.html" target="_top" xlink:title=" ">
<polygon fill="none" stroke="black" points="736.81,-112.5 736.81,-131.5 829.81,-131.5 829.81,-112.5 736.81,-112.5"/>
<text text-anchor="middle" x="783.31" y="-119.5" font-family="Helvetica,sans-Serif" font-size="10.00">INA260Sensor.h</text>
</a>
</g>
</g>
<!-- Node1&#45;&gt;Node12 -->
<g id="edge16" class="edge">
<title>Node1&#45;&gt;Node12</title>
<path fill="none" stroke="midnightblue" d="M547.46,-170.7C592.53,-161.59 676.48,-144.61 731.11,-133.56"/>
<polygon fill="midnightblue" stroke="midnightblue" points="731.84,-136.98 740.95,-131.57 730.46,-130.12 731.84,-136.98"/>
</g>
<!-- Node14 -->
<g id="node14" class="node">
<title>Node14</title>
<g id="a_node14"><a xlink:href="LSM9DS1Sensor_8h.html" target="_top" xlink:title=" ">
<polygon fill="none" stroke="black" points="614.31,-112.5 614.31,-131.5 718.31,-131.5 718.31,-112.5 614.31,-112.5"/>
<text text-anchor="middle" x="666.31" y="-119.5" font-family="Helvetica,sans-Serif" font-size="10.00">LSM9DS1Sensor.h</text>
</a>
</g>
</g>
<!-- Node1&#45;&gt;Node14 -->
<g id="edge21" class="edge">
<title>Node1&#45;&gt;Node14</title>
<path fill="none" stroke="midnightblue" d="M540.08,-168.44C565.2,-159.4 605.02,-145.06 633.21,-134.92"/>
<polygon fill="midnightblue" stroke="midnightblue" points="634.43,-138.2 642.65,-131.52 632.06,-131.61 634.43,-138.2"/>
</g>
<!-- Node16 -->
<g id="node16" class="node">
<title>Node16</title>
<g id="a_node16"><a xlink:href="SHT31Sensor_8h.html" target="_top" xlink:title=" ">
<polygon fill="none" stroke="black" points="921.81,-112.5 921.81,-131.5 1010.81,-131.5 1010.81,-112.5 921.81,-112.5"/>
<text text-anchor="middle" x="966.31" y="-119.5" font-family="Helvetica,sans-Serif" font-size="10.00">SHT31Sensor.h</text>
</a>
</g>
</g>
<!-- Node1&#45;&gt;Node16 -->
<g id="edge25" class="edge">
<title>Node1&#45;&gt;Node16</title>
<path fill="none" stroke="midnightblue" d="M547.6,-173.25C623.17,-164.18 816.46,-140.98 911.66,-129.56"/>
<polygon fill="midnightblue" stroke="midnightblue" points="912.15,-133.02 921.66,-128.36 911.32,-126.07 912.15,-133.02"/>
</g>
<!-- Node18 -->
<g id="node18" class="node">
<title>Node18</title>
<g id="a_node18"><a xlink:href="TempSensor_8h.html" target="_top" xlink:title=" ">
<polygon fill="none" stroke="black" points="474.31,-112.5 474.31,-131.5 558.31,-131.5 558.31,-112.5 474.31,-112.5"/>
<text text-anchor="middle" x="516.31" y="-119.5" font-family="Helvetica,sans-Serif" font-size="10.00">TempSensor.h</text>
</a>
</g>
</g>
<!-- Node1&#45;&gt;Node18 -->
<g id="edge31" class="edge">
<title>Node1&#45;&gt;Node18</title>
<path fill="none" stroke="midnightblue" d="M516.31,-168.08C516.31,-161.01 516.31,-150.86 516.31,-141.99"/>
<polygon fill="midnightblue" stroke="midnightblue" points="519.81,-141.75 516.31,-131.75 512.81,-141.75 519.81,-141.75"/>
</g>
<!-- Node19 -->
<g id="node19" class="node">
<title>Node19</title>
<g id="a_node19"><a xlink:href="ZOPT220Sensor_8h.html" target="_top" xlink:title=" ">
<polygon fill="none" stroke="black" points="1086.31,-112.5 1086.31,-131.5 1188.31,-131.5 1188.31,-112.5 1086.31,-112.5"/>
<text text-anchor="middle" x="1137.31" y="-119.5" font-family="Helvetica,sans-Serif" font-size="10.00">ZOPT220Sensor.h</text>
</a>
</g>
</g>
<!-- Node1&#45;&gt;Node19 -->
<g id="edge33" class="edge">
<title>Node1&#45;&gt;Node19</title>
<path fill="none" stroke="midnightblue" d="M547.53,-174.29C645.11,-165.8 945.62,-139.67 1075.95,-128.34"/>
<polygon fill="midnightblue" stroke="midnightblue" points="1076.5,-131.8 1086.16,-127.45 1075.89,-124.83 1076.5,-131.8"/>
</g>
<!-- Node22 -->
<g id="node22" class="node">
<title>Node22</title>
<g id="a_node22"><a xlink:href="SDStorage_8h.html" target="_top" xlink:title=" ">
<polygon fill="none" stroke="black" points="80.81,-112.5 80.81,-131.5 157.81,-131.5 157.81,-112.5 80.81,-112.5"/>
<text text-anchor="middle" x="119.31" y="-119.5" font-family="Helvetica,sans-Serif" font-size="10.00">SDStorage.h</text>
</a>
</g>
</g>
<!-- Node1&#45;&gt;Node22 -->
<g id="edge42" class="edge">
<title>Node1&#45;&gt;Node22</title>
<path fill="none" stroke="midnightblue" d="M485.16,-172.76C416.36,-163.4 250.99,-140.91 168.22,-129.65"/>
<polygon fill="midnightblue" stroke="midnightblue" points="168.45,-126.15 158.07,-128.27 167.51,-133.09 168.45,-126.15"/>
</g>
<!-- Node3&#45;&gt;Node2 -->
<g id="edge3" class="edge">
<title>Node3&#45;&gt;Node2</title>
<path fill="none" stroke="midnightblue" d="M599.47,-56.8C632.17,-47.6 685.41,-32.63 722.06,-22.32"/>
<polygon fill="midnightblue" stroke="midnightblue" points="723.24,-25.62 731.92,-19.55 721.35,-18.88 723.24,-25.62"/>
</g>
<!-- Node4&#45;&gt;Node2 -->
<g id="edge5" class="edge">
<title>Node4&#45;&gt;Node2</title>
<path fill="none" stroke="midnightblue" d="M82.01,-57.55C85.14,-56.96 88.28,-56.43 91.31,-56 327.66,-22.33 614.53,-13.74 720.43,-11.64"/>
<polygon fill="midnightblue" stroke="midnightblue" points="720.76,-15.14 730.69,-11.45 720.63,-8.14 720.76,-15.14"/>
</g>
<!-- Node5&#45;&gt;Node3 -->
<g id="edge12" class="edge">
<title>Node5&#45;&gt;Node3</title>
<path fill="none" stroke="midnightblue" d="M433.14,-112.44C460.56,-103.36 504.09,-88.94 534.74,-78.78"/>
<polygon fill="midnightblue" stroke="midnightblue" points="536.21,-81.98 544.6,-75.52 534.01,-75.34 536.21,-81.98"/>
</g>
<!-- Node6 -->
<g id="node6" class="node">
<title>Node6</title>
<g id="a_node6"><a xlink:title=" ">
<polygon fill="none" stroke="#bfbfbf" points="413.31,-56.5 413.31,-75.5 523.31,-75.5 523.31,-56.5 413.31,-56.5"/>
<text text-anchor="middle" x="468.31" y="-63.5" font-family="Helvetica,sans-Serif" font-size="10.00">Adafruit_BME680.h</text>
</a>
</g>
</g>
<!-- Node5&#45;&gt;Node6 -->
<g id="edge7" class="edge">
<title>Node5&#45;&gt;Node6</title>
<path fill="none" stroke="midnightblue" d="M417.11,-112.32C426.13,-104.34 439.72,-92.31 450.63,-82.65"/>
<polygon fill="midnightblue" stroke="midnightblue" points="453.16,-85.08 458.33,-75.83 448.52,-79.84 453.16,-85.08"/>
</g>
<!-- Node7 -->
<g id="node7" class="node">
<title>Node7</title>
<g id="a_node7"><a xlink:title=" ">
<polygon fill="none" stroke="#bfbfbf" points="233.31,-56.5 233.31,-75.5 335.31,-75.5 335.31,-56.5 233.31,-56.5"/>
<text text-anchor="middle" x="284.31" y="-63.5" font-family="Helvetica,sans-Serif" font-size="10.00">Adafruit_Sensor.h</text>
</a>
</g>
</g>
<!-- Node5&#45;&gt;Node7 -->
<g id="edge8" class="edge">
<title>Node5&#45;&gt;Node7</title>
<path fill="none" stroke="midnightblue" d="M387.82,-112.44C367.67,-103.6 335.99,-89.69 312.98,-79.59"/>
<polygon fill="midnightblue" stroke="midnightblue" points="314.27,-76.33 303.71,-75.52 311.46,-82.74 314.27,-76.33"/>
</g>
<!-- Node8 -->
<g id="node8" class="node">
<title>Node8</title>
<g id="a_node8"><a xlink:title=" ">
<polygon fill="none" stroke="#bfbfbf" points="353.81,-56.5 353.81,-75.5 394.81,-75.5 394.81,-56.5 353.81,-56.5"/>
<text text-anchor="middle" x="374.31" y="-63.5" font-family="Helvetica,sans-Serif" font-size="10.00">SPI.h</text>
</a>
</g>
</g>
<!-- Node5&#45;&gt;Node8 -->
<g id="edge9" class="edge">
<title>Node5&#45;&gt;Node8</title>
<path fill="none" stroke="midnightblue" d="M401.86,-112.08C397.3,-104.61 390.64,-93.72 385.02,-84.52"/>
<polygon fill="midnightblue" stroke="midnightblue" points="387.86,-82.46 379.66,-75.75 381.89,-86.11 387.86,-82.46"/>
</g>
<!-- Node9 -->
<g id="node9" class="node">
<title>Node9</title>
<g id="a_node9"><a xlink:title=" ">
<polygon fill="none" stroke="#bfbfbf" points="1153.31,-0.5 1153.31,-19.5 1201.31,-19.5 1201.31,-0.5 1153.31,-0.5"/>
<text text-anchor="middle" x="1177.31" y="-7.5" font-family="Helvetica,sans-Serif" font-size="10.00">Wire.h</text>
</a>
</g>
</g>
<!-- Node5&#45;&gt;Node9 -->
<g id="edge10" class="edge">
<title>Node5&#45;&gt;Node9</title>
<path fill="none" stroke="midnightblue" d="M359.85,-112.45C308.5,-102.72 232.76,-86.78 224.31,-76 218.83,-69 218.17,-62.43 224.31,-56 240.5,-39.02 974.96,-16.84 1143.22,-11.97"/>
<polygon fill="midnightblue" stroke="midnightblue" points="1143.35,-15.47 1153.25,-11.68 1143.15,-8.47 1143.35,-15.47"/>
</g>
<!-- Node10 -->
<g id="node10" class="node">
<title>Node10</title>
<g id="a_node10"><a xlink:title=" ">
<polygon fill="none" stroke="#bfbfbf" points="749.81,-56.5 749.81,-75.5 802.81,-75.5 802.81,-56.5 749.81,-56.5"/>
<text text-anchor="middle" x="776.31" y="-63.5" font-family="Helvetica,sans-Serif" font-size="10.00">string.h</text>
</a>
</g>
</g>
<!-- Node5&#45;&gt;Node10 -->
<g id="edge11" class="edge">
<title>Node5&#45;&gt;Node10</title>
<path fill="none" stroke="midnightblue" d="M456.35,-113.31C459.38,-112.86 462.38,-112.42 465.31,-112 584.12,-95.01 617.46,-98.77 739.53,-75.94"/>
<polygon fill="midnightblue" stroke="midnightblue" points="740.47,-79.33 749.65,-74.03 739.17,-72.45 740.47,-79.33"/>
</g>
<!-- Node11&#45;&gt;Node2 -->
<g id="edge14" class="edge">
<title>Node11&#45;&gt;Node2</title>
<path fill="none" stroke="midnightblue" d="M257.94,-112.46C219.1,-101.93 167.1,-82.19 191.31,-56 227.05,-17.33 594.59,-11.84 720.37,-11.1"/>
<polygon fill="midnightblue" stroke="midnightblue" points="720.75,-14.6 730.73,-11.05 720.72,-7.6 720.75,-14.6"/>
</g>
<!-- Node11&#45;&gt;Node3 -->
<g id="edge15" class="edge">
<title>Node11&#45;&gt;Node3</title>
<path fill="none" stroke="midnightblue" d="M340.42,-113.06C386.05,-104.88 458.84,-91.47 531.1,-76.18"/>
<polygon fill="midnightblue" stroke="midnightblue" points="532.24,-79.52 541.29,-74.01 530.78,-72.67 532.24,-79.52"/>
</g>
<!-- Node12&#45;&gt;Node2 -->
<g id="edge17" class="edge">
<title>Node12&#45;&gt;Node2</title>
<path fill="none" stroke="midnightblue" d="M829.98,-117.37C885.12,-111.25 965.77,-95.39 935.31,-56 919.38,-35.4 850,-22.47 804.09,-16.01"/>
<polygon fill="midnightblue" stroke="midnightblue" points="804.49,-12.53 794.11,-14.65 803.54,-19.47 804.49,-12.53"/>
</g>
<!-- Node12&#45;&gt;Node3 -->
<g id="edge20" class="edge">
<title>Node12&#45;&gt;Node3</title>
<path fill="none" stroke="midnightblue" d="M749.56,-112.44C711.39,-102.77 649.33,-87.03 609.16,-76.85"/>
<polygon fill="midnightblue" stroke="midnightblue" points="610.01,-73.45 599.45,-74.39 608.29,-80.24 610.01,-73.45"/>
</g>
<!-- Node12&#45;&gt;Node10 -->
<g id="edge18" class="edge">
<title>Node12&#45;&gt;Node10</title>
<path fill="none" stroke="midnightblue" d="M782.15,-112.08C781.23,-104.93 779.89,-94.64 778.73,-85.69"/>
<polygon fill="midnightblue" stroke="midnightblue" points="782.2,-85.22 777.44,-75.75 775.26,-86.12 782.2,-85.22"/>
</g>
<!-- Node13 -->
<g id="node13" class="node">
<title>Node13</title>
<g id="a_node13"><a xlink:title=" ">
<polygon fill="none" stroke="#bfbfbf" points="820.81,-56.5 820.81,-75.5 925.81,-75.5 925.81,-56.5 820.81,-56.5"/>
<text text-anchor="middle" x="873.31" y="-63.5" font-family="Helvetica,sans-Serif" font-size="10.00">Adafruit_INA260.h</text>
</a>
</g>
</g>
<!-- Node12&#45;&gt;Node13 -->
<g id="edge19" class="edge">
<title>Node12&#45;&gt;Node13</title>
<path fill="none" stroke="midnightblue" d="M797.77,-112.32C811.81,-103.9 833.36,-90.97 849.85,-81.07"/>
<polygon fill="midnightblue" stroke="midnightblue" points="852.11,-83.8 858.89,-75.65 848.51,-77.8 852.11,-83.8"/>
</g>
<!-- Node14&#45;&gt;Node3 -->
<g id="edge24" class="edge">
<title>Node14&#45;&gt;Node3</title>
<path fill="none" stroke="midnightblue" d="M650.89,-112.32C635.77,-103.82 612.49,-90.73 594.84,-80.8"/>
<polygon fill="midnightblue" stroke="midnightblue" points="596.13,-77.51 585.7,-75.65 592.7,-83.61 596.13,-77.51"/>
</g>
<!-- Node14&#45;&gt;Node10 -->
<g id="edge23" class="edge">
<title>Node14&#45;&gt;Node10</title>
<path fill="none" stroke="midnightblue" d="M683.98,-112.32C701.7,-103.62 729.21,-90.12 749.6,-80.11"/>
<polygon fill="midnightblue" stroke="midnightblue" points="751.25,-83.2 758.68,-75.65 748.16,-76.92 751.25,-83.2"/>
</g>
<!-- Node15 -->
<g id="node15" class="node">
<title>Node15</title>
<g id="a_node15"><a xlink:title=" ">
<polygon fill="none" stroke="#bfbfbf" points="617.31,-56.5 617.31,-75.5 731.31,-75.5 731.31,-56.5 617.31,-56.5"/>
<text text-anchor="middle" x="674.31" y="-63.5" font-family="Helvetica,sans-Serif" font-size="10.00">Arduino_LSM9DS1.h</text>
</a>
</g>
</g>
<!-- Node14&#45;&gt;Node15 -->
<g id="edge22" class="edge">
<title>Node14&#45;&gt;Node15</title>
<path fill="none" stroke="midnightblue" d="M667.63,-112.08C668.69,-104.93 670.22,-94.64 671.54,-85.69"/>
<polygon fill="midnightblue" stroke="midnightblue" points="675.01,-86.16 673.01,-75.75 668.09,-85.13 675.01,-86.16"/>
</g>
<!-- Node16&#45;&gt;Node2 -->
<g id="edge26" class="edge">
<title>Node16&#45;&gt;Node2</title>
<path fill="none" stroke="midnightblue" d="M1011.13,-114.27C1057.81,-105.43 1120.6,-87.25 1093.31,-56 1056.26,-13.57 884.81,-9.62 804.29,-10.19"/>
<polygon fill="midnightblue" stroke="midnightblue" points="803.98,-6.69 794.02,-10.29 804.05,-13.69 803.98,-6.69"/>
</g>
<!-- Node16&#45;&gt;Node3 -->
<g id="edge30" class="edge">
<title>Node16&#45;&gt;Node3</title>
<path fill="none" stroke="midnightblue" d="M921.71,-116.95C855.61,-110.61 727.59,-97.02 609.63,-76.07"/>
<polygon fill="midnightblue" stroke="midnightblue" points="610.16,-72.62 599.7,-74.29 608.93,-79.51 610.16,-72.62"/>
</g>
<!-- Node16&#45;&gt;Node9 -->
<g id="edge27" class="edge">
<title>Node16&#45;&gt;Node9</title>
<path fill="none" stroke="midnightblue" d="M1011.06,-112.69C1040.68,-105.86 1079.58,-94.28 1110.31,-76 1131.73,-63.26 1151.6,-42.36 1164.05,-27.71"/>
<polygon fill="midnightblue" stroke="midnightblue" points="1166.81,-29.86 1170.47,-19.92 1161.41,-25.41 1166.81,-29.86"/>
</g>
<!-- Node16&#45;&gt;Node10 -->
<g id="edge28" class="edge">
<title>Node16&#45;&gt;Node10</title>
<path fill="none" stroke="midnightblue" d="M936.2,-112.44C902.78,-102.94 848.81,-87.61 812.96,-77.41"/>
<polygon fill="midnightblue" stroke="midnightblue" points="813.48,-73.93 802.9,-74.56 811.57,-80.66 813.48,-73.93"/>
</g>
<!-- Node17 -->
<g id="node17" class="node">
<title>Node17</title>
<g id="a_node17"><a xlink:title=" ">
<polygon fill="none" stroke="#bfbfbf" points="982.81,-56.5 982.81,-75.5 1083.81,-75.5 1083.81,-56.5 982.81,-56.5"/>
<text text-anchor="middle" x="1033.31" y="-63.5" font-family="Helvetica,sans-Serif" font-size="10.00">Adafruit_SHT31.h</text>
</a>
</g>
</g>
<!-- Node16&#45;&gt;Node17 -->
<g id="edge29" class="edge">
<title>Node16&#45;&gt;Node17</title>
<path fill="none" stroke="midnightblue" d="M977.07,-112.32C987.08,-104.26 1002.2,-92.08 1014.24,-82.37"/>
<polygon fill="midnightblue" stroke="midnightblue" points="1016.76,-84.83 1022.35,-75.83 1012.37,-79.38 1016.76,-84.83"/>
</g>
<!-- Node18&#45;&gt;Node3 -->
<g id="edge32" class="edge">
<title>Node18&#45;&gt;Node3</title>
<path fill="none" stroke="midnightblue" d="M525.23,-112.08C533.09,-104.22 544.74,-92.57 554.23,-83.08"/>
<polygon fill="midnightblue" stroke="midnightblue" points="556.96,-85.3 561.56,-75.75 552.01,-80.35 556.96,-85.3"/>
</g>
<!-- Node19&#45;&gt;Node2 -->
<g id="edge34" class="edge">
<title>Node19&#45;&gt;Node2</title>
<path fill="none" stroke="midnightblue" d="M1136.41,-112.17C1134.44,-97.86 1128.36,-69.81 1110.31,-56 1063.14,-19.93 885.99,-12.7 804.19,-11.3"/>
<polygon fill="midnightblue" stroke="midnightblue" points="804.05,-7.8 794,-11.15 803.95,-14.8 804.05,-7.8"/>
</g>
<!-- Node19&#45;&gt;Node3 -->
<g id="edge37" class="edge">
<title>Node19&#45;&gt;Node3</title>
<path fill="none" stroke="midnightblue" d="M1085.99,-117.07C968.61,-108.02 685.44,-85.83 609.96,-75.9"/>
<polygon fill="midnightblue" stroke="midnightblue" points="610.08,-72.38 599.68,-74.41 609.08,-79.3 610.08,-72.38"/>
</g>
<!-- Node19&#45;&gt;Node9 -->
<g id="edge35" class="edge">
<title>Node19&#45;&gt;Node9</title>
<path fill="none" stroke="midnightblue" d="M1188.72,-116.88C1242.76,-111.35 1322.51,-99.4 1341.31,-76 1346.88,-69.07 1346.7,-63.07 1341.31,-56 1325.64,-35.45 1254.71,-21.96 1211.42,-15.49"/>
<polygon fill="midnightblue" stroke="midnightblue" points="1211.72,-11.99 1201.33,-14.03 1210.72,-18.92 1211.72,-11.99"/>
</g>
<!-- Node19&#45;&gt;Node10 -->
<g id="edge36" class="edge">
<title>Node19&#45;&gt;Node10</title>
<path fill="none" stroke="midnightblue" d="M1086.09,-115.63C1023.82,-108.72 915.4,-95.46 812.88,-75.92"/>
<polygon fill="midnightblue" stroke="midnightblue" points="813.46,-72.46 802.98,-74.01 812.13,-79.34 813.46,-72.46"/>
</g>
<!-- Node20 -->
<g id="node20" class="node">
<title>Node20</title>
<g id="a_node20"><a xlink:href="ZOPT220x__Control_8h.html" target="_top" xlink:title=" ">
<polygon fill="none" stroke="black" points="1216.31,-56.5 1216.31,-75.5 1332.31,-75.5 1332.31,-56.5 1216.31,-56.5"/>
<text text-anchor="middle" x="1274.31" y="-63.5" font-family="Helvetica,sans-Serif" font-size="10.00">ZOPT220x_Control.h</text>
</a>
</g>
</g>
<!-- Node19&#45;&gt;Node20 -->
<g id="edge38" class="edge">
<title>Node19&#45;&gt;Node20</title>
<path fill="none" stroke="midnightblue" d="M1159.02,-112.44C1181.66,-103.52 1217.38,-89.44 1243.06,-79.32"/>
<polygon fill="midnightblue" stroke="midnightblue" points="1244.68,-82.44 1252.7,-75.52 1242.12,-75.93 1244.68,-82.44"/>
</g>
<!-- Node20&#45;&gt;Node2 -->
<g id="edge39" class="edge">
<title>Node20&#45;&gt;Node2</title>
<path fill="none" stroke="midnightblue" d="M1216.16,-57.62C1211.48,-57.06 1206.82,-56.51 1202.31,-56 1056.21,-39.4 882.49,-22.46 804.21,-14.97"/>
<polygon fill="midnightblue" stroke="midnightblue" points="804.1,-11.44 793.81,-13.98 803.44,-18.41 804.1,-11.44"/>
</g>
<!-- Node20&#45;&gt;Node9 -->
<g id="edge40" class="edge">
<title>Node20&#45;&gt;Node9</title>
<path fill="none" stroke="midnightblue" d="M1258.73,-56.32C1243.31,-47.74 1219.5,-34.49 1201.6,-24.52"/>
<polygon fill="midnightblue" stroke="midnightblue" points="1203.3,-21.46 1192.86,-19.65 1199.89,-27.58 1203.3,-21.46"/>
</g>
<!-- Node21 -->
<g id="node21" class="node">
<title>Node21</title>
<g id="a_node21"><a xlink:title=" ">
<polygon fill="none" stroke="#bfbfbf" points="1247.81,-0.5 1247.81,-19.5 1300.81,-19.5 1300.81,-0.5 1247.81,-0.5"/>
<text text-anchor="middle" x="1274.31" y="-7.5" font-family="Helvetica,sans-Serif" font-size="10.00">stdint.h</text>
</a>
</g>
</g>
<!-- Node20&#45;&gt;Node21 -->
<g id="edge41" class="edge">
<title>Node20&#45;&gt;Node21</title>
<path fill="none" stroke="midnightblue" d="M1274.31,-56.08C1274.31,-49.01 1274.31,-38.86 1274.31,-29.99"/>
<polygon fill="midnightblue" stroke="midnightblue" points="1277.81,-29.75 1274.31,-19.75 1270.81,-29.75 1277.81,-29.75"/>
</g>
<!-- Node22&#45;&gt;Node4 -->
<g id="edge44" class="edge">
<title>Node22&#45;&gt;Node4</title>
<path fill="none" stroke="midnightblue" d="M108.22,-112.32C97.82,-104.18 82.05,-91.84 69.59,-82.09"/>
<polygon fill="midnightblue" stroke="midnightblue" points="71.63,-79.24 61.6,-75.83 67.32,-84.75 71.63,-79.24"/>
</g>
<!-- Node23 -->
<g id="node23" class="node">
<title>Node23</title>
<g id="a_node23"><a xlink:title=" ">
<polygon fill="none" stroke="#bfbfbf" points="99.81,-56.5 99.81,-75.5 138.81,-75.5 138.81,-56.5 99.81,-56.5"/>
<text text-anchor="middle" x="119.31" y="-63.5" font-family="Helvetica,sans-Serif" font-size="10.00">SD.h</text>
</a>
</g>
</g>
<!-- Node22&#45;&gt;Node23 -->
<g id="edge43" class="edge">
<title>Node22&#45;&gt;Node23</title>
<path fill="none" stroke="midnightblue" d="M119.31,-112.08C119.31,-105.01 119.31,-94.86 119.31,-85.99"/>
<polygon fill="midnightblue" stroke="midnightblue" points="122.81,-85.75 119.31,-75.75 115.81,-85.75 122.81,-85.75"/>
</g>
</g>
</svg>
