<?xml version="1.0" encoding="UTF-8" standalone="no"?>
<!DOCTYPE svg PUBLIC "-//W3C//DTD SVG 1.1//EN"
 "http://www.w3.org/Graphics/SVG/1.1/DTD/svg11.dtd">
<!-- Generated by graphviz version 2.43.0 (0)
 -->
<!-- Title: main.cpp Pages: 1 -->
<!--zoomable 196 -->
<svg id="main" version="1.1" xmlns="http://www.w3.org/2000/svg" xmlns:xlink="http://www.w3.org/1999/xlink" xml:space="preserve" onload="init(evt)">
<style type="text/css"><![CDATA[
.edge:hover path { stroke: red; }
.edge:hover polygon { stroke: red; fill: red; }
]]></style>
<script type="text/javascript"><![CDATA[
var edges = document.getElementsByTagName('g');
if (edges && edges.length) {
  for (var i=0;i<edges.length;i++) {
    if (edges[i].id.substr(0,4)=='edge') {
      edges[i].setAttribute('class','edge');
    }
  }
}
]]></script>
        <defs>
                <circle id="rim" cx="0" cy="0" r="7"/>
                <circle id="rim2" cx="0" cy="0" r="3.5"/>
                <g id="zoomPlus">
                        <use xlink:href="#rim" fill="#404040">
                                <set attributeName="fill" to="#808080" begin="zoomplus.mouseover" end="zoomplus.mouseout"/>
                        </use>
                        <path d="M-4,0h8M0,-4v8" fill="none" stroke="white" stroke-width="1.5" pointer-events="none"/>
                </g>
                <g id="zoomMin">
                        <use xlink:href="#rim" fill="#404040">
                                <set attributeName="fill" to="#808080" begin="zoomminus.mouseover" end="zoomminus.mouseout"/>
                        </use>
                        <path d="M-4,0h8" fill="none" stroke="white" stroke-width="1.5" pointer-events="none"/>
                </g>
                <g id="dirArrow">
                        <path fill="none" stroke="white" stroke-width="1.5" d="M0,-3.0v7 M-2.5,-0.5L0,-3.0L2.5,-0.5"/>
                </g>
               <g id="resetDef">
                       <use xlink:href="#rim2" fill="#404040">
                               <set attributeName="fill" to="#808080" begin="reset.mouseover" end="reset.mouseout"/>
                       </use>
               </g>
        </defs>

<script type="text/javascript">
var viewWidth = 2662;
var viewHeight = 196;
var sectionId = 'dynsection-0';
</script>
<script xlink:href="svgpan.js"/>
<svg id="graph" class="graph">
<g id="viewport">
<title>main.cpp</title>
<!-- Node1 -->
<g id="node1" class="node">
<title>Node1</title>
<g id="a_node1"><a xlink:title=" ">
<polygon fill="#bfbfbf" stroke="black" points="965.5,-168.5 965.5,-187.5 1027.5,-187.5 1027.5,-168.5 965.5,-168.5"/>
<text text-anchor="middle" x="996.5" y="-175.5" font-family="Helvetica,sans-Serif" font-size="10.00">main.cpp</text>
</a>
</g>
</g>
<!-- Node2 -->
<g id="node2" class="node">
<title>Node2</title>
<g id="a_node2"><a xlink:title=" ">
<polygon fill="none" stroke="#bfbfbf" points="550,-0.5 550,-19.5 613,-19.5 613,-0.5 550,-0.5"/>
<text text-anchor="middle" x="581.5" y="-7.5" font-family="Helvetica,sans-Serif" font-size="10.00">Arduino.h</text>
</a>
</g>
</g>
<!-- Node1&#45;&gt;Node2 -->
<g id="edge1" class="edge">
<title>Node1&#45;&gt;Node2</title>
<path fill="none" stroke="midnightblue" d="M965.48,-176.87C853.96,-176.1 478.11,-170.62 442.5,-132 422.03,-109.8 449.72,-75.91 471.5,-56 490.73,-38.41 517.77,-27.23 540.22,-20.41"/>
<polygon fill="midnightblue" stroke="midnightblue" points="541.19,-23.77 549.85,-17.66 539.27,-17.04 541.19,-23.77"/>
</g>
<!-- Node3 -->
<g id="node3" class="node">
<title>Node3</title>
<g id="a_node3"><a xlink:href="ErrorDisplay_8h.html" target="_top" xlink:title=" ">
<polygon fill="none" stroke="black" points="57.5,-56.5 57.5,-75.5 141.5,-75.5 141.5,-56.5 57.5,-56.5"/>
<text text-anchor="middle" x="99.5" y="-63.5" font-family="Helvetica,sans-Serif" font-size="10.00">ErrorDisplay.h</text>
</a>
</g>
</g>
<!-- Node1&#45;&gt;Node3 -->
<g id="edge2" class="edge">
<title>Node1&#45;&gt;Node3</title>
<path fill="none" stroke="midnightblue" d="M965.48,-176.69C822.93,-175.09 234.55,-166.45 160.5,-132 138.65,-121.84 120.82,-99.99 110.2,-84.44"/>
<polygon fill="midnightblue" stroke="midnightblue" points="112.92,-82.21 104.54,-75.72 107.05,-86.02 112.92,-82.21"/>
</g>
<!-- Node4 -->
<g id="node4" class="node">
<title>Node4</title>
<g id="a_node4"><a xlink:href="PayloadConfig_8h.html" target="_top" xlink:title=" ">
<polygon fill="none" stroke="black" points="2012,-0.5 2012,-19.5 2107,-19.5 2107,-0.5 2012,-0.5"/>
<text text-anchor="middle" x="2059.5" y="-7.5" font-family="Helvetica,sans-Serif" font-size="10.00">PayloadConfig.h</text>
</a>
</g>
</g>
<!-- Node1&#45;&gt;Node4 -->
<g id="edge7" class="edge">
<title>Node1&#45;&gt;Node4</title>
<path fill="none" stroke="midnightblue" d="M1027.75,-176.56C1203.47,-173.97 2069.92,-160 2335.5,-132 2476.48,-117.14 2558.49,-184.68 2649.5,-76 2655.21,-69.19 2655.54,-62.52 2649.5,-56 2613.82,-17.5 2259.04,-11.79 2117.43,-11.05"/>
<polygon fill="midnightblue" stroke="midnightblue" points="2117.22,-7.55 2107.21,-11.01 2117.19,-14.55 2117.22,-7.55"/>
</g>
<!-- Node7 -->
<g id="node7" class="node">
<title>Node7</title>
<g id="a_node7"><a xlink:href="Sensor_8h.html" target="_top" xlink:title=" ">
<polygon fill="none" stroke="black" points="984.5,-56.5 984.5,-75.5 1042.5,-75.5 1042.5,-56.5 984.5,-56.5"/>
<text text-anchor="middle" x="1013.5" y="-63.5" font-family="Helvetica,sans-Serif" font-size="10.00">Sensor.h</text>
</a>
</g>
</g>
<!-- Node1&#45;&gt;Node7 -->
<g id="edge8" class="edge">
<title>Node1&#45;&gt;Node7</title>
<path fill="none" stroke="midnightblue" d="M1027.57,-173.78C1053.78,-169.24 1089.78,-158.3 1107.5,-132 1124.88,-106.2 1085.72,-87.62 1052.75,-77.1"/>
<polygon fill="midnightblue" stroke="midnightblue" points="1053.37,-73.63 1042.78,-74.09 1051.35,-80.33 1053.37,-73.63"/>
</g>
<!-- Node8 -->
<g id="node8" class="node">
<title>Node8</title>
<g id="a_node8"><a xlink:href="Storage_8h.html" target="_top" xlink:title=" ">
<polygon fill="none" stroke="black" points="256,-56.5 256,-75.5 319,-75.5 319,-56.5 256,-56.5"/>
<text text-anchor="middle" x="287.5" y="-63.5" font-family="Helvetica,sans-Serif" font-size="10.00">Storage.h</text>
</a>
</g>
</g>
<!-- Node1&#45;&gt;Node8 -->
<g id="edge10" class="edge">
<title>Node1&#45;&gt;Node8</title>
<path fill="none" stroke="midnightblue" d="M965.29,-177.29C835.74,-178.18 344.74,-178.44 295.5,-132 283.24,-120.44 282.5,-100.47 284.04,-85.71"/>
<polygon fill="midnightblue" stroke="midnightblue" points="287.53,-86.07 285.52,-75.67 280.6,-85.05 287.53,-86.07"/>
</g>
<!-- Node9 -->
<g id="node9" class="node">
<title>Node9</title>
<g id="a_node9"><a xlink:href="AS7331Sensor_8h.html" target="_top" xlink:title=" ">
<polygon fill="none" stroke="black" points="1384,-112.5 1384,-131.5 1479,-131.5 1479,-112.5 1384,-112.5"/>
<text text-anchor="middle" x="1431.5" y="-119.5" font-family="Helvetica,sans-Serif" font-size="10.00">AS7331Sensor.h</text>
</a>
</g>
</g>
<!-- Node1&#45;&gt;Node9 -->
<g id="edge12" class="edge">
<title>Node1&#45;&gt;Node9</title>
<path fill="none" stroke="midnightblue" d="M1027.51,-173.76C1090.68,-167.05 1239.07,-150.83 1373.78,-132.2"/>
<polygon fill="midnightblue" stroke="midnightblue" points="1374.44,-135.64 1383.86,-130.79 1373.47,-128.7 1374.44,-135.64"/>
</g>
<!-- Node13 -->
<g id="node13" class="node">
<title>Node13</title>
<g id="a_node13"><a xlink:href="BME280Sensor_8h.html" target="_top" xlink:title=" ">
<polygon fill="none" stroke="black" points="559.5,-112.5 559.5,-131.5 657.5,-131.5 657.5,-112.5 559.5,-112.5"/>
<text text-anchor="middle" x="608.5" y="-119.5" font-family="Helvetica,sans-Serif" font-size="10.00">BME280Sensor.h</text>
</a>
</g>
</g>
<!-- Node1&#45;&gt;Node13 -->
<g id="edge17" class="edge">
<title>Node1&#45;&gt;Node13</title>
<path fill="none" stroke="midnightblue" d="M965.18,-172.88C908.32,-165.36 784.06,-148.78 667.88,-132.03"/>
<polygon fill="midnightblue" stroke="midnightblue" points="668.14,-128.54 657.75,-130.57 667.14,-135.46 668.14,-128.54"/>
</g>
<!-- Node15 -->
<g id="node15" class="node">
<title>Node15</title>
<g id="a_node15"><a xlink:href="BME680Sensor_8h.html" target="_top" xlink:title=" ">
<polygon fill="none" stroke="black" points="1725.5,-112.5 1725.5,-131.5 1823.5,-131.5 1823.5,-112.5 1725.5,-112.5"/>
<text text-anchor="middle" x="1774.5" y="-119.5" font-family="Helvetica,sans-Serif" font-size="10.00">BME680Sensor.h</text>
</a>
</g>
</g>
<!-- Node1&#45;&gt;Node15 -->
<g id="edge20" class="edge">
<title>Node1&#45;&gt;Node15</title>
<path fill="none" stroke="midnightblue" d="M1027.51,-176.11C1126.43,-173.05 1443.47,-161.54 1715.36,-132.15"/>
<polygon fill="midnightblue" stroke="midnightblue" points="1715.85,-135.62 1725.41,-131.05 1715.09,-128.66 1715.85,-135.62"/>
</g>
<!-- Node19 -->
<g id="node19" class="node">
<title>Node19</title>
<g id="a_node19"><a xlink:href="DS3231Sensor_8h.html" target="_top" xlink:title=" ">
<polygon fill="none" stroke="black" points="676,-112.5 676,-131.5 771,-131.5 771,-112.5 676,-112.5"/>
<text text-anchor="middle" x="723.5" y="-119.5" font-family="Helvetica,sans-Serif" font-size="10.00">DS3231Sensor.h</text>
</a>
</g>
</g>
<!-- Node1&#45;&gt;Node19 -->
<g id="edge28" class="edge">
<title>Node1&#45;&gt;Node19</title>
<path fill="none" stroke="midnightblue" d="M965.45,-170.86C919.53,-161.78 832.92,-144.64 776.74,-133.53"/>
<polygon fill="midnightblue" stroke="midnightblue" points="777.11,-130.04 766.62,-131.53 775.75,-136.9 777.11,-130.04"/>
</g>
<!-- Node21 -->
<g id="node21" class="node">
<title>Node21</title>
<g id="a_node21"><a xlink:href="ENS160Sensor_8h.html" target="_top" xlink:title=" ">
<polygon fill="none" stroke="black" points="1003,-112.5 1003,-131.5 1098,-131.5 1098,-112.5 1003,-112.5"/>
<text text-anchor="middle" x="1050.5" y="-119.5" font-family="Helvetica,sans-Serif" font-size="10.00">ENS160Sensor.h</text>
</a>
</g>
</g>
<!-- Node1&#45;&gt;Node21 -->
<g id="edge31" class="edge">
<title>Node1&#45;&gt;Node21</title>
<path fill="none" stroke="midnightblue" d="M1005.42,-168.08C1013.28,-160.22 1024.93,-148.57 1034.42,-139.08"/>
<polygon fill="midnightblue" stroke="midnightblue" points="1037.15,-141.3 1041.75,-131.75 1032.2,-136.35 1037.15,-141.3"/>
</g>
<!-- Node23 -->
<g id="node23" class="node">
<title>Node23</title>
<g id="a_node23"><a xlink:href="GeigerSensor_8h.html" target="_top" xlink:title=" ">
<polygon fill="none" stroke="black" points="451.5,-112.5 451.5,-131.5 541.5,-131.5 541.5,-112.5 451.5,-112.5"/>
<text text-anchor="middle" x="496.5" y="-119.5" font-family="Helvetica,sans-Serif" font-size="10.00">GeigerSensor.h</text>
</a>
</g>
</g>
<!-- Node1&#45;&gt;Node23 -->
<g id="edge35" class="edge">
<title>Node1&#45;&gt;Node23</title>
<path fill="none" stroke="midnightblue" d="M965.33,-174.55C894.02,-168.8 713.35,-153.4 551.68,-132.08"/>
<polygon fill="midnightblue" stroke="midnightblue" points="551.92,-128.58 541.55,-130.73 551,-135.52 551.92,-128.58"/>
</g>
<!-- Node24 -->
<g id="node24" class="node">
<title>Node24</title>
<g id="a_node24"><a xlink:href="ICM20948Sensor_8h.html" target="_top" xlink:title=" ">
<polygon fill="none" stroke="black" points="2219,-112.5 2219,-131.5 2326,-131.5 2326,-112.5 2219,-112.5"/>
<text text-anchor="middle" x="2272.5" y="-119.5" font-family="Helvetica,sans-Serif" font-size="10.00">ICM20948Sensor.h</text>
</a>
</g>
</g>
<!-- Node1&#45;&gt;Node24 -->
<g id="edge38" class="edge">
<title>Node1&#45;&gt;Node24</title>
<path fill="none" stroke="midnightblue" d="M1027.87,-175.74C1157.19,-170.54 1661.69,-150.17 2076.5,-132 2120.7,-130.06 2170.51,-127.78 2208.85,-125.99"/>
<polygon fill="midnightblue" stroke="midnightblue" points="2209.02,-129.49 2218.85,-125.53 2208.69,-122.49 2209.02,-129.49"/>
</g>
<!-- Node27 -->
<g id="node27" class="node">
<title>Node27</title>
<g id="a_node27"><a xlink:href="INA260Sensor_8h.html" target="_top" xlink:title=" ">
<polygon fill="none" stroke="black" points="789,-112.5 789,-131.5 882,-131.5 882,-112.5 789,-112.5"/>
<text text-anchor="middle" x="835.5" y="-119.5" font-family="Helvetica,sans-Serif" font-size="10.00">INA260Sensor.h</text>
</a>
</g>
</g>
<!-- Node1&#45;&gt;Node27 -->
<g id="edge45" class="edge">
<title>Node1&#45;&gt;Node27</title>
<path fill="none" stroke="midnightblue" d="M970.99,-168.44C943.9,-159.36 900.91,-144.94 870.63,-134.78"/>
<polygon fill="midnightblue" stroke="midnightblue" points="871.49,-131.38 860.89,-131.52 869.26,-138.01 871.49,-131.38"/>
</g>
<!-- Node29 -->
<g id="node29" class="node">
<title>Node29</title>
<g id="a_node29"><a xlink:href="LSM9DS1Sensor_8h.html" target="_top" xlink:title=" ">
<polygon fill="none" stroke="black" points="1963.5,-112.5 1963.5,-131.5 2067.5,-131.5 2067.5,-112.5 1963.5,-112.5"/>
<text text-anchor="middle" x="2015.5" y="-119.5" font-family="Helvetica,sans-Serif" font-size="10.00">LSM9DS1Sensor.h</text>
</a>
</g>
</g>
<!-- Node1&#45;&gt;Node29 -->
<g id="edge50" class="edge">
<title>Node1&#45;&gt;Node29</title>
<path fill="none" stroke="midnightblue" d="M1027.55,-175.35C1169.69,-167.82 1759.57,-136.56 1953.44,-126.29"/>
<polygon fill="midnightblue" stroke="midnightblue" points="1953.66,-129.78 1963.46,-125.76 1953.29,-122.79 1953.66,-129.78"/>
</g>
<!-- Node31 -->
<g id="node31" class="node">
<title>Node31</title>
<g id="a_node31"><a xlink:href="MTK3339Sensor_8h.html" target="_top" xlink:title=" ">
<polygon fill="none" stroke="black" points="1154.5,-112.5 1154.5,-131.5 1258.5,-131.5 1258.5,-112.5 1154.5,-112.5"/>
<text text-anchor="middle" x="1206.5" y="-119.5" font-family="Helvetica,sans-Serif" font-size="10.00">MTK3339Sensor.h</text>
</a>
</g>
</g>
<!-- Node1&#45;&gt;Node31 -->
<g id="edge56" class="edge">
<title>Node1&#45;&gt;Node31</title>
<path fill="none" stroke="midnightblue" d="M1027.94,-168.92C1063.91,-159.67 1123.02,-144.47 1163.3,-134.11"/>
<polygon fill="midnightblue" stroke="midnightblue" points="1164.29,-137.47 1173.11,-131.59 1162.55,-130.69 1164.29,-137.47"/>
</g>
<!-- Node33 -->
<g id="node33" class="node">
<title>Node33</title>
<g id="a_node33"><a xlink:href="SGP30Sensor_8h.html" target="_top" xlink:title=" ">
<polygon fill="none" stroke="black" points="1619,-112.5 1619,-131.5 1708,-131.5 1708,-112.5 1619,-112.5"/>
<text text-anchor="middle" x="1663.5" y="-119.5" font-family="Helvetica,sans-Serif" font-size="10.00">SGP30Sensor.h</text>
</a>
</g>
</g>
<!-- Node1&#45;&gt;Node33 -->
<g id="edge62" class="edge">
<title>Node1&#45;&gt;Node33</title>
<path fill="none" stroke="midnightblue" d="M1027.78,-174.47C1132.95,-165.95 1474.76,-138.28 1608.83,-127.43"/>
<polygon fill="midnightblue" stroke="midnightblue" points="1609.19,-130.91 1618.88,-126.61 1608.63,-123.93 1609.19,-130.91"/>
</g>
<!-- Node36 -->
<g id="node36" class="node">
<title>Node36</title>
<g id="a_node36"><a xlink:href="SHT31Sensor_8h.html" target="_top" xlink:title=" ">
<polygon fill="none" stroke="black" points="1277,-112.5 1277,-131.5 1366,-131.5 1366,-112.5 1277,-112.5"/>
<text text-anchor="middle" x="1321.5" y="-119.5" font-family="Helvetica,sans-Serif" font-size="10.00">SHT31Sensor.h</text>
</a>
</g>
</g>
<!-- Node1&#45;&gt;Node36 -->
<g id="edge68" class="edge">
<title>Node1&#45;&gt;Node36</title>
<path fill="none" stroke="midnightblue" d="M1027.8,-171.81C1076.53,-163.73 1173.76,-147.59 1266.85,-132.11"/>
<polygon fill="midnightblue" stroke="midnightblue" points="1267.42,-135.56 1276.71,-130.47 1266.27,-128.66 1267.42,-135.56"/>
</g>
<!-- Node38 -->
<g id="node38" class="node">
<title>Node38</title>
<g id="a_node38"><a xlink:href="TempSensor_8h.html" target="_top" xlink:title=" ">
<polygon fill="none" stroke="black" points="900.5,-112.5 900.5,-131.5 984.5,-131.5 984.5,-112.5 900.5,-112.5"/>
<text text-anchor="middle" x="942.5" y="-119.5" font-family="Helvetica,sans-Serif" font-size="10.00">TempSensor.h</text>
</a>
</g>
</g>
<!-- Node1&#45;&gt;Node38 -->
<g id="edge74" class="edge">
<title>Node1&#45;&gt;Node38</title>
<path fill="none" stroke="midnightblue" d="M987.58,-168.08C979.72,-160.22 968.07,-148.57 958.58,-139.08"/>
<polygon fill="midnightblue" stroke="midnightblue" points="960.8,-136.35 951.25,-131.75 955.85,-141.3 960.8,-136.35"/>
</g>
<!-- Node39 -->
<g id="node39" class="node">
<title>Node39</title>
<g id="a_node39"><a xlink:href="RadioStorage_8h.html" target="_top" xlink:title=" ">
<polygon fill="none" stroke="black" points="304,-112.5 304,-131.5 395,-131.5 395,-112.5 304,-112.5"/>
<text text-anchor="middle" x="349.5" y="-119.5" font-family="Helvetica,sans-Serif" font-size="10.00">RadioStorage.h</text>
</a>
</g>
</g>
<!-- Node1&#45;&gt;Node39 -->
<g id="edge76" class="edge">
<title>Node1&#45;&gt;Node39</title>
<path fill="none" stroke="midnightblue" d="M965.24,-175.4C877.46,-170.74 621.25,-155.97 409.5,-132 408.2,-131.85 406.89,-131.7 405.57,-131.54"/>
<polygon fill="midnightblue" stroke="midnightblue" points="405.68,-128.03 395.32,-130.22 404.79,-134.97 405.68,-128.03"/>
</g>
<!-- Node40 -->
<g id="node40" class="node">
<title>Node40</title>
<g id="a_node40"><a xlink:href="SDStorage_8h.html" target="_top" xlink:title=" ">
<polygon fill="none" stroke="black" points="170,-112.5 170,-131.5 247,-131.5 247,-112.5 170,-112.5"/>
<text text-anchor="middle" x="208.5" y="-119.5" font-family="Helvetica,sans-Serif" font-size="10.00">SDStorage.h</text>
</a>
</g>
</g>
<!-- Node1&#45;&gt;Node40 -->
<g id="edge80" class="edge">
<title>Node1&#45;&gt;Node40</title>
<path fill="none" stroke="midnightblue" d="M965.23,-176.28C863.52,-173.69 532.97,-163.27 261.5,-132 260.2,-131.85 258.88,-131.69 257.54,-131.52"/>
<polygon fill="midnightblue" stroke="midnightblue" points="257.61,-127.99 247.22,-130.07 256.63,-134.93 257.61,-127.99"/>
</g>
<!-- Node3&#45;&gt;Node2 -->
<g id="edge3" class="edge">
<title>Node3&#45;&gt;Node2</title>
<path fill="none" stroke="midnightblue" d="M141.76,-57.3C144.72,-56.84 147.65,-56.4 150.5,-56 292.64,-36.06 462.28,-20.85 539.5,-14.39"/>
<polygon fill="midnightblue" stroke="midnightblue" points="540.1,-17.86 549.77,-13.54 539.52,-10.88 540.1,-17.86"/>
</g>
<!-- Node3&#45;&gt;Node4 -->
<g id="edge4" class="edge">
<title>Node3&#45;&gt;Node4</title>
<path fill="none" stroke="midnightblue" d="M141.73,-57.04C144.69,-56.64 147.64,-56.28 150.5,-56 522.82,-18.97 1722.71,-12.26 2001.33,-11.19"/>
<polygon fill="midnightblue" stroke="midnightblue" points="2001.63,-14.68 2011.62,-11.15 2001.6,-7.68 2001.63,-14.68"/>
</g>
<!-- Node5 -->
<g id="node5" class="node">
<title>Node5</title>
<g id="a_node5"><a xlink:title=" ">
<polygon fill="none" stroke="#bfbfbf" points="0,-0.5 0,-19.5 95,-19.5 95,-0.5 0,-0.5"/>
<text text-anchor="middle" x="47.5" y="-7.5" font-family="Helvetica,sans-Serif" font-size="10.00">pico/multicore.h</text>
</a>
</g>
</g>
<!-- Node3&#45;&gt;Node5 -->
<g id="edge5" class="edge">
<title>Node3&#45;&gt;Node5</title>
<path fill="none" stroke="midnightblue" d="M90.91,-56.08C83.34,-48.22 72.12,-36.57 62.99,-27.08"/>
<polygon fill="midnightblue" stroke="midnightblue" points="65.38,-24.53 55.93,-19.75 60.34,-29.38 65.38,-24.53"/>
</g>
<!-- Node6 -->
<g id="node6" class="node">
<title>Node6</title>
<g id="a_node6"><a xlink:title=" ">
<polygon fill="none" stroke="#bfbfbf" points="113.5,-0.5 113.5,-19.5 189.5,-19.5 189.5,-0.5 113.5,-0.5"/>
<text text-anchor="middle" x="151.5" y="-7.5" font-family="Helvetica,sans-Serif" font-size="10.00">pico/stdlib.h</text>
</a>
</g>
</g>
<!-- Node3&#45;&gt;Node6 -->
<g id="edge6" class="edge">
<title>Node3&#45;&gt;Node6</title>
<path fill="none" stroke="midnightblue" d="M108.09,-56.08C115.66,-48.22 126.88,-36.57 136.01,-27.08"/>
<polygon fill="midnightblue" stroke="midnightblue" points="138.66,-29.38 143.07,-19.75 133.62,-24.53 138.66,-29.38"/>
</g>
<!-- Node7&#45;&gt;Node2 -->
<g id="edge9" class="edge">
<title>Node7&#45;&gt;Node2</title>
<path fill="none" stroke="midnightblue" d="M984.11,-57.68C981.21,-57.06 978.3,-56.49 975.5,-56 848,-33.7 695.27,-19.88 623.14,-14.12"/>
<polygon fill="midnightblue" stroke="midnightblue" points="623.34,-10.62 613.09,-13.33 622.79,-17.6 623.34,-10.62"/>
</g>
<!-- Node8&#45;&gt;Node2 -->
<g id="edge11" class="edge">
<title>Node8&#45;&gt;Node2</title>
<path fill="none" stroke="midnightblue" d="M319.16,-58.75C323.96,-57.81 328.86,-56.87 333.5,-56 405.96,-42.34 490.49,-27.16 539.79,-18.39"/>
<polygon fill="midnightblue" stroke="midnightblue" points="540.53,-21.81 549.76,-16.61 539.31,-14.92 540.53,-21.81"/>
</g>
<!-- Node9&#45;&gt;Node7 -->
<g id="edge16" class="edge">
<title>Node9&#45;&gt;Node7</title>
<path fill="none" stroke="midnightblue" d="M1383.86,-113.22C1381.03,-112.8 1378.23,-112.39 1375.5,-112 1313.85,-103.22 1133.27,-81.37 1052.88,-71.72"/>
<polygon fill="midnightblue" stroke="midnightblue" points="1053.03,-68.21 1042.68,-70.49 1052.19,-75.16 1053.03,-68.21"/>
</g>
<!-- Node10 -->
<g id="node10" class="node">
<title>Node10</title>
<g id="a_node10"><a xlink:title=" ">
<polygon fill="none" stroke="#bfbfbf" points="1490,-56.5 1490,-75.5 1603,-75.5 1603,-56.5 1490,-56.5"/>
<text text-anchor="middle" x="1546.5" y="-63.5" font-family="Helvetica,sans-Serif" font-size="10.00">SparkFun_AS7331.h</text>
</a>
</g>
</g>
<!-- Node9&#45;&gt;Node10 -->
<g id="edge13" class="edge">
<title>Node9&#45;&gt;Node10</title>
<path fill="none" stroke="midnightblue" d="M1449.72,-112.44C1468.4,-103.68 1497.66,-89.94 1519.12,-79.86"/>
<polygon fill="midnightblue" stroke="midnightblue" points="1520.8,-82.93 1528.36,-75.52 1517.82,-76.6 1520.8,-82.93"/>
</g>
<!-- Node11 -->
<g id="node11" class="node">
<title>Node11</title>
<g id="a_node11"><a xlink:title=" ">
<polygon fill="none" stroke="#bfbfbf" points="1364.5,-56.5 1364.5,-75.5 1412.5,-75.5 1412.5,-56.5 1364.5,-56.5"/>
<text text-anchor="middle" x="1388.5" y="-63.5" font-family="Helvetica,sans-Serif" font-size="10.00">Wire.h</text>
</a>
</g>
</g>
<!-- Node9&#45;&gt;Node11 -->
<g id="edge14" class="edge">
<title>Node9&#45;&gt;Node11</title>
<path fill="none" stroke="midnightblue" d="M1424.4,-112.08C1418.26,-104.38 1409.23,-93.03 1401.76,-83.65"/>
<polygon fill="midnightblue" stroke="midnightblue" points="1404.44,-81.39 1395.47,-75.75 1398.96,-85.75 1404.44,-81.39"/>
</g>
<!-- Node12 -->
<g id="node12" class="node">
<title>Node12</title>
<g id="a_node12"><a xlink:title=" ">
<polygon fill="none" stroke="#bfbfbf" points="1740,-56.5 1740,-75.5 1793,-75.5 1793,-56.5 1740,-56.5"/>
<text text-anchor="middle" x="1766.5" y="-63.5" font-family="Helvetica,sans-Serif" font-size="10.00">string.h</text>
</a>
</g>
</g>
<!-- Node9&#45;&gt;Node12 -->
<g id="edge15" class="edge">
<title>Node9&#45;&gt;Node12</title>
<path fill="none" stroke="midnightblue" d="M1479.05,-115.4C1536.4,-108.31 1635.89,-94.93 1729.86,-76.17"/>
<polygon fill="midnightblue" stroke="midnightblue" points="1730.7,-79.57 1739.81,-74.16 1729.32,-72.71 1730.7,-79.57"/>
</g>
<!-- Node13&#45;&gt;Node7 -->
<g id="edge18" class="edge">
<title>Node13&#45;&gt;Node7</title>
<path fill="none" stroke="midnightblue" d="M657.74,-113.36C661.04,-112.89 664.32,-112.43 667.5,-112 800.89,-94.04 838.04,-99.64 974.14,-76.07"/>
<polygon fill="midnightblue" stroke="midnightblue" points="974.87,-79.49 984.11,-74.32 973.66,-72.6 974.87,-79.49"/>
</g>
<!-- Node14 -->
<g id="node14" class="node">
<title>Node14</title>
<g id="a_node14"><a xlink:title=" ">
<polygon fill="none" stroke="#bfbfbf" points="489.5,-56.5 489.5,-75.5 599.5,-75.5 599.5,-56.5 489.5,-56.5"/>
<text text-anchor="middle" x="544.5" y="-63.5" font-family="Helvetica,sans-Serif" font-size="10.00">SparkFunBME280.h</text>
</a>
</g>
</g>
<!-- Node13&#45;&gt;Node14 -->
<g id="edge19" class="edge">
<title>Node13&#45;&gt;Node14</title>
<path fill="none" stroke="midnightblue" d="M598.22,-112.32C588.66,-104.26 574.22,-92.08 562.72,-82.37"/>
<polygon fill="midnightblue" stroke="midnightblue" points="564.87,-79.61 554.97,-75.83 560.36,-84.96 564.87,-79.61"/>
</g>
<!-- Node15&#45;&gt;Node4 -->
<g id="edge26" class="edge">
<title>Node15&#45;&gt;Node4</title>
<path fill="none" stroke="midnightblue" d="M1823.72,-118.8C1891.61,-114.76 2009.18,-103.86 2040.5,-76 2053.52,-64.42 2057.83,-44.46 2059.16,-29.7"/>
<polygon fill="midnightblue" stroke="midnightblue" points="2062.65,-29.83 2059.68,-19.66 2055.66,-29.47 2062.65,-29.83"/>
</g>
<!-- Node15&#45;&gt;Node7 -->
<g id="edge27" class="edge">
<title>Node15&#45;&gt;Node7</title>
<path fill="none" stroke="midnightblue" d="M1725.42,-112.93C1722.74,-112.59 1720.09,-112.28 1717.5,-112 1439.97,-82.2 1368.57,-100.21 1090.5,-76 1078.26,-74.93 1064.96,-73.48 1052.92,-72.06"/>
<polygon fill="midnightblue" stroke="midnightblue" points="1053.06,-68.55 1042.71,-70.83 1052.22,-75.5 1053.06,-68.55"/>
</g>
<!-- Node15&#45;&gt;Node11 -->
<g id="edge24" class="edge">
<title>Node15&#45;&gt;Node11</title>
<path fill="none" stroke="midnightblue" d="M1725.39,-113.13C1722.72,-112.74 1720.08,-112.36 1717.5,-112 1586.69,-93.7 1552.2,-100.96 1422.5,-76 1422.4,-75.98 1422.3,-75.96 1422.2,-75.94"/>
<polygon fill="midnightblue" stroke="midnightblue" points="1423.07,-72.55 1412.55,-73.8 1421.56,-79.38 1423.07,-72.55"/>
</g>
<!-- Node15&#45;&gt;Node12 -->
<g id="edge25" class="edge">
<title>Node15&#45;&gt;Node12</title>
<path fill="none" stroke="midnightblue" d="M1773.18,-112.08C1772.12,-104.93 1770.59,-94.64 1769.27,-85.69"/>
<polygon fill="midnightblue" stroke="midnightblue" points="1772.72,-85.13 1767.8,-75.75 1765.8,-86.16 1772.72,-85.13"/>
</g>
<!-- Node16 -->
<g id="node16" class="node">
<title>Node16</title>
<g id="a_node16"><a xlink:title=" ">
<polygon fill="none" stroke="#bfbfbf" points="1921.5,-56.5 1921.5,-75.5 2031.5,-75.5 2031.5,-56.5 1921.5,-56.5"/>
<text text-anchor="middle" x="1976.5" y="-63.5" font-family="Helvetica,sans-Serif" font-size="10.00">Adafruit_BME680.h</text>
</a>
</g>
</g>
<!-- Node15&#45;&gt;Node16 -->
<g id="edge21" class="edge">
<title>Node15&#45;&gt;Node16</title>
<path fill="none" stroke="midnightblue" d="M1806.51,-112.44C1841.23,-103.16 1896.79,-88.31 1934.88,-78.13"/>
<polygon fill="midnightblue" stroke="midnightblue" points="1935.89,-81.48 1944.64,-75.52 1934.08,-74.72 1935.89,-81.48"/>
</g>
<!-- Node17 -->
<g id="node17" class="node">
<title>Node17</title>
<g id="a_node17"><a xlink:title=" ">
<polygon fill="none" stroke="#bfbfbf" points="2221.5,-56.5 2221.5,-75.5 2323.5,-75.5 2323.5,-56.5 2221.5,-56.5"/>
<text text-anchor="middle" x="2272.5" y="-63.5" font-family="Helvetica,sans-Serif" font-size="10.00">Adafruit_Sensor.h</text>
</a>
</g>
</g>
<!-- Node15&#45;&gt;Node17 -->
<g id="edge22" class="edge">
<title>Node15&#45;&gt;Node17</title>
<path fill="none" stroke="midnightblue" d="M1823.52,-116.71C1902.77,-109.62 2064.17,-94.49 2211.34,-76.09"/>
<polygon fill="midnightblue" stroke="midnightblue" points="2211.97,-79.54 2221.46,-74.82 2211.1,-72.6 2211.97,-79.54"/>
</g>
<!-- Node18 -->
<g id="node18" class="node">
<title>Node18</title>
<g id="a_node18"><a xlink:title=" ">
<polygon fill="none" stroke="#bfbfbf" points="1431,-56.5 1431,-75.5 1472,-75.5 1472,-56.5 1431,-56.5"/>
<text text-anchor="middle" x="1451.5" y="-63.5" font-family="Helvetica,sans-Serif" font-size="10.00">SPI.h</text>
</a>
</g>
</g>
<!-- Node15&#45;&gt;Node18 -->
<g id="edge23" class="edge">
<title>Node15&#45;&gt;Node18</title>
<path fill="none" stroke="midnightblue" d="M1725.38,-113.23C1722.71,-112.81 1720.07,-112.4 1717.5,-112 1615.83,-96.22 1586.76,-99.1 1482.08,-75.84"/>
<polygon fill="midnightblue" stroke="midnightblue" points="1482.58,-72.36 1472.06,-73.58 1481.04,-79.19 1482.58,-72.36"/>
</g>
<!-- Node19&#45;&gt;Node7 -->
<g id="edge30" class="edge">
<title>Node19&#45;&gt;Node7</title>
<path fill="none" stroke="midnightblue" d="M771.03,-113.33C819.72,-105.28 897.84,-91.88 974.65,-76.09"/>
<polygon fill="midnightblue" stroke="midnightblue" points="975.41,-79.5 984.49,-74.05 973.99,-72.65 975.41,-79.5"/>
</g>
<!-- Node20 -->
<g id="node20" class="node">
<title>Node20</title>
<g id="a_node20"><a xlink:title=" ">
<polygon fill="none" stroke="#bfbfbf" points="617.5,-56.5 617.5,-75.5 673.5,-75.5 673.5,-56.5 617.5,-56.5"/>
<text text-anchor="middle" x="645.5" y="-63.5" font-family="Helvetica,sans-Serif" font-size="10.00">RTClib.h</text>
</a>
</g>
</g>
<!-- Node19&#45;&gt;Node20 -->
<g id="edge29" class="edge">
<title>Node19&#45;&gt;Node20</title>
<path fill="none" stroke="midnightblue" d="M710.97,-112.32C698.91,-103.98 680.47,-91.21 666.23,-81.35"/>
<polygon fill="midnightblue" stroke="midnightblue" points="668.22,-78.47 658,-75.65 664.23,-84.22 668.22,-78.47"/>
</g>
<!-- Node21&#45;&gt;Node7 -->
<g id="edge33" class="edge">
<title>Node21&#45;&gt;Node7</title>
<path fill="none" stroke="midnightblue" d="M1044.39,-112.08C1039.22,-104.53 1031.65,-93.49 1025.31,-84.23"/>
<polygon fill="midnightblue" stroke="midnightblue" points="1028.04,-82.02 1019.5,-75.75 1022.26,-85.98 1028.04,-82.02"/>
</g>
<!-- Node21&#45;&gt;Node11 -->
<g id="edge32" class="edge">
<title>Node21&#45;&gt;Node11</title>
<path fill="none" stroke="midnightblue" d="M1098.1,-115.77C1156.37,-108.97 1258.21,-95.8 1354.53,-75.99"/>
<polygon fill="midnightblue" stroke="midnightblue" points="1355.36,-79.39 1364.43,-73.92 1353.93,-72.54 1355.36,-79.39"/>
</g>
<!-- Node22 -->
<g id="node22" class="node">
<title>Node22</title>
<g id="a_node22"><a xlink:title=" ">
<polygon fill="none" stroke="#bfbfbf" points="853,-56.5 853,-75.5 966,-75.5 966,-56.5 853,-56.5"/>
<text text-anchor="middle" x="909.5" y="-63.5" font-family="Helvetica,sans-Serif" font-size="10.00">SparkFun_ENS160.h</text>
</a>
</g>
</g>
<!-- Node21&#45;&gt;Node22 -->
<g id="edge34" class="edge">
<title>Node21&#45;&gt;Node22</title>
<path fill="none" stroke="midnightblue" d="M1028.16,-112.44C1004.75,-103.48 967.76,-89.31 941.31,-79.18"/>
<polygon fill="midnightblue" stroke="midnightblue" points="942.33,-75.82 931.74,-75.52 939.82,-82.36 942.33,-75.82"/>
</g>
<!-- Node23&#45;&gt;Node2 -->
<g id="edge36" class="edge">
<title>Node23&#45;&gt;Node2</title>
<path fill="none" stroke="midnightblue" d="M490.38,-112.29C481.93,-99.11 468.98,-73.74 480.5,-56 493.58,-35.85 518.02,-24.64 539.58,-18.45"/>
<polygon fill="midnightblue" stroke="midnightblue" points="540.74,-21.77 549.55,-15.88 538.99,-14.99 540.74,-21.77"/>
</g>
<!-- Node23&#45;&gt;Node7 -->
<g id="edge37" class="edge">
<title>Node23&#45;&gt;Node7</title>
<path fill="none" stroke="midnightblue" d="M541.54,-113.21C544.57,-112.78 547.58,-112.37 550.5,-112 735.38,-88.8 786.57,-105.34 974.21,-75.98"/>
<polygon fill="midnightblue" stroke="midnightblue" points="974.8,-79.43 984.13,-74.41 973.7,-72.52 974.8,-79.43"/>
</g>
<!-- Node24&#45;&gt;Node4 -->
<g id="edge43" class="edge">
<title>Node24&#45;&gt;Node4</title>
<path fill="none" stroke="midnightblue" d="M2326.29,-119.63C2436.94,-115.86 2676.3,-102.29 2633.5,-56 2598.95,-18.63 2256.11,-12.24 2117.35,-11.19"/>
<polygon fill="midnightblue" stroke="midnightblue" points="2117.35,-7.69 2107.32,-11.12 2117.3,-14.69 2117.35,-7.69"/>
</g>
<!-- Node24&#45;&gt;Node7 -->
<g id="edge44" class="edge">
<title>Node24&#45;&gt;Node7</title>
<path fill="none" stroke="midnightblue" d="M2218.85,-118.4C2179.46,-116.53 2124.66,-113.98 2076.5,-112 1638.36,-93.94 1527.73,-109.48 1090.5,-76 1078.25,-75.06 1064.95,-73.65 1052.9,-72.22"/>
<polygon fill="midnightblue" stroke="midnightblue" points="1053.05,-68.71 1042.7,-70.97 1052.2,-75.66 1053.05,-68.71"/>
</g>
<!-- Node24&#45;&gt;Node12 -->
<g id="edge42" class="edge">
<title>Node24&#45;&gt;Node12</title>
<path fill="none" stroke="midnightblue" d="M2218.72,-115.65C2137.13,-107.48 1977.2,-91.22 1841.5,-76 1829.1,-74.61 1815.56,-73.01 1803.44,-71.55"/>
<polygon fill="midnightblue" stroke="midnightblue" points="1803.56,-68.04 1793.22,-70.31 1802.72,-74.99 1803.56,-68.04"/>
</g>
<!-- Node24&#45;&gt;Node17 -->
<g id="edge41" class="edge">
<title>Node24&#45;&gt;Node17</title>
<path fill="none" stroke="midnightblue" d="M2272.5,-112.08C2272.5,-105.01 2272.5,-94.86 2272.5,-85.99"/>
<polygon fill="midnightblue" stroke="midnightblue" points="2276,-85.75 2272.5,-75.75 2269,-85.75 2276,-85.75"/>
</g>
<!-- Node25 -->
<g id="node25" class="node">
<title>Node25</title>
<g id="a_node25"><a xlink:title=" ">
<polygon fill="none" stroke="#bfbfbf" points="2505,-56.5 2505,-75.5 2624,-75.5 2624,-56.5 2505,-56.5"/>
<text text-anchor="middle" x="2564.5" y="-63.5" font-family="Helvetica,sans-Serif" font-size="10.00">Adafruit_ICM20948.h</text>
</a>
</g>
</g>
<!-- Node24&#45;&gt;Node25 -->
<g id="edge39" class="edge">
<title>Node24&#45;&gt;Node25</title>
<path fill="none" stroke="midnightblue" d="M2318.77,-112.44C2370.24,-102.92 2453.39,-87.55 2508.5,-77.36"/>
<polygon fill="midnightblue" stroke="midnightblue" points="2509.25,-80.78 2518.45,-75.52 2507.98,-73.89 2509.25,-80.78"/>
</g>
<!-- Node26 -->
<g id="node26" class="node">
<title>Node26</title>
<g id="a_node26"><a xlink:title=" ">
<polygon fill="none" stroke="#bfbfbf" points="2380,-56.5 2380,-75.5 2487,-75.5 2487,-56.5 2380,-56.5"/>
<text text-anchor="middle" x="2433.5" y="-63.5" font-family="Helvetica,sans-Serif" font-size="10.00">Adafruit_ICM20X.h</text>
</a>
</g>
</g>
<!-- Node24&#45;&gt;Node26 -->
<g id="edge40" class="edge">
<title>Node24&#45;&gt;Node26</title>
<path fill="none" stroke="midnightblue" d="M2298.01,-112.44C2325.1,-103.36 2368.09,-88.94 2398.37,-78.78"/>
<polygon fill="midnightblue" stroke="midnightblue" points="2399.74,-82.01 2408.11,-75.52 2397.51,-75.38 2399.74,-82.01"/>
</g>
<!-- Node27&#45;&gt;Node2 -->
<g id="edge46" class="edge">
<title>Node27&#45;&gt;Node2</title>
<path fill="none" stroke="midnightblue" d="M811.64,-112.36C788.38,-103.75 752.13,-89.86 721.5,-76 703.75,-67.97 700.07,-64.41 682.5,-56 658.69,-44.6 631.32,-32.47 611.08,-23.67"/>
<polygon fill="midnightblue" stroke="midnightblue" points="612.34,-20.4 601.77,-19.64 609.56,-26.83 612.34,-20.4"/>
</g>
<!-- Node27&#45;&gt;Node7 -->
<g id="edge49" class="edge">
<title>Node27&#45;&gt;Node7</title>
<path fill="none" stroke="midnightblue" d="M863.7,-112.44C893.91,-103.28 942.01,-88.69 975.53,-78.52"/>
<polygon fill="midnightblue" stroke="midnightblue" points="976.87,-81.77 985.43,-75.52 974.84,-75.07 976.87,-81.77"/>
</g>
<!-- Node27&#45;&gt;Node12 -->
<g id="edge47" class="edge">
<title>Node27&#45;&gt;Node12</title>
<path fill="none" stroke="midnightblue" d="M882.2,-113.08C885.34,-112.67 888.46,-112.31 891.5,-112 1260,-74.62 1360.11,-129.84 1729.96,-75.92"/>
<polygon fill="midnightblue" stroke="midnightblue" points="1730.48,-79.38 1739.86,-74.46 1729.46,-72.46 1730.48,-79.38"/>
</g>
<!-- Node28 -->
<g id="node28" class="node">
<title>Node28</title>
<g id="a_node28"><a xlink:title=" ">
<polygon fill="none" stroke="#bfbfbf" points="730,-56.5 730,-75.5 835,-75.5 835,-56.5 730,-56.5"/>
<text text-anchor="middle" x="782.5" y="-63.5" font-family="Helvetica,sans-Serif" font-size="10.00">Adafruit_INA260.h</text>
</a>
</g>
</g>
<!-- Node27&#45;&gt;Node28 -->
<g id="edge48" class="edge">
<title>Node27&#45;&gt;Node28</title>
<path fill="none" stroke="midnightblue" d="M826.75,-112.08C819.03,-104.22 807.6,-92.57 798.28,-83.08"/>
<polygon fill="midnightblue" stroke="midnightblue" points="800.59,-80.44 791.09,-75.75 795.6,-85.34 800.59,-80.44"/>
</g>
<!-- Node29&#45;&gt;Node4 -->
<g id="edge54" class="edge">
<title>Node29&#45;&gt;Node4</title>
<path fill="none" stroke="midnightblue" d="M2067.77,-117.28C2153.31,-110.67 2315.42,-95.68 2332.5,-76 2338.33,-69.29 2338.25,-62.78 2332.5,-56 2305.47,-24.15 2189.13,-14.8 2117.33,-12.09"/>
<polygon fill="midnightblue" stroke="midnightblue" points="2117.19,-8.58 2107.08,-11.73 2116.95,-15.58 2117.19,-8.58"/>
</g>
<!-- Node29&#45;&gt;Node7 -->
<g id="edge55" class="edge">
<title>Node29&#45;&gt;Node7</title>
<path fill="none" stroke="midnightblue" d="M1963.44,-118.43C1926.82,-116.63 1876.66,-114.16 1832.5,-112 1502.73,-95.89 1419.54,-103.18 1090.5,-76 1078.26,-74.99 1064.96,-73.55 1052.91,-72.13"/>
<polygon fill="midnightblue" stroke="midnightblue" points="1053.05,-68.62 1042.7,-70.89 1052.21,-75.57 1053.05,-68.62"/>
</g>
<!-- Node29&#45;&gt;Node12 -->
<g id="edge53" class="edge">
<title>Node29&#45;&gt;Node12</title>
<path fill="none" stroke="midnightblue" d="M1976.05,-112.44C1928.49,-102.13 1849.23,-84.94 1803.03,-74.92"/>
<polygon fill="midnightblue" stroke="midnightblue" points="1803.65,-71.48 1793.14,-72.78 1802.17,-78.32 1803.65,-71.48"/>
</g>
<!-- Node29&#45;&gt;Node17 -->
<g id="edge52" class="edge">
<title>Node29&#45;&gt;Node17</title>
<path fill="none" stroke="midnightblue" d="M2056.22,-112.44C2101.15,-103 2173.5,-87.8 2222,-77.61"/>
<polygon fill="midnightblue" stroke="midnightblue" points="2222.9,-81 2231.97,-75.52 2221.46,-74.15 2222.9,-81"/>
</g>
<!-- Node30 -->
<g id="node30" class="node">
<title>Node30</title>
<g id="a_node30"><a xlink:title=" ">
<polygon fill="none" stroke="#bfbfbf" points="2087.5,-56.5 2087.5,-75.5 2203.5,-75.5 2203.5,-56.5 2087.5,-56.5"/>
<text text-anchor="middle" x="2145.5" y="-63.5" font-family="Helvetica,sans-Serif" font-size="10.00">Adafruit_LSM9DS1.h</text>
</a>
</g>
</g>
<!-- Node29&#45;&gt;Node30 -->
<g id="edge51" class="edge">
<title>Node29&#45;&gt;Node30</title>
<path fill="none" stroke="midnightblue" d="M2036.1,-112.44C2057.49,-103.56 2091.18,-89.56 2115.52,-79.45"/>
<polygon fill="midnightblue" stroke="midnightblue" points="2117.11,-82.58 2125,-75.52 2114.42,-76.12 2117.11,-82.58"/>
</g>
<!-- Node31&#45;&gt;Node2 -->
<g id="edge58" class="edge">
<title>Node31&#45;&gt;Node2</title>
<path fill="none" stroke="midnightblue" d="M1182.21,-112.41C1158.53,-103.84 1121.64,-89.98 1090.5,-76 1072.73,-68.02 1070.2,-61.47 1051.5,-56 971.62,-32.63 722.74,-18.02 623.23,-12.98"/>
<polygon fill="midnightblue" stroke="midnightblue" points="623.41,-9.48 613.24,-12.48 623.06,-16.47 623.41,-9.48"/>
</g>
<!-- Node31&#45;&gt;Node7 -->
<g id="edge61" class="edge">
<title>Node31&#45;&gt;Node7</title>
<path fill="none" stroke="midnightblue" d="M1175.92,-112.44C1142.5,-103.09 1088.87,-88.09 1052.46,-77.9"/>
<polygon fill="midnightblue" stroke="midnightblue" points="1053.25,-74.49 1042.67,-75.16 1051.36,-81.23 1053.25,-74.49"/>
</g>
<!-- Node31&#45;&gt;Node11 -->
<g id="edge60" class="edge">
<title>Node31&#45;&gt;Node11</title>
<path fill="none" stroke="midnightblue" d="M1235.34,-112.44C1267.82,-102.81 1320.53,-87.17 1354.85,-76.98"/>
<polygon fill="midnightblue" stroke="midnightblue" points="1355.85,-80.34 1364.45,-74.14 1353.86,-73.63 1355.85,-80.34"/>
</g>
<!-- Node31&#45;&gt;Node18 -->
<g id="edge59" class="edge">
<title>Node31&#45;&gt;Node18</title>
<path fill="none" stroke="midnightblue" d="M1252.9,-112.47C1294.48,-104.56 1357.33,-91.96 1421.09,-75.93"/>
<polygon fill="midnightblue" stroke="midnightblue" points="1422.08,-79.28 1430.91,-73.43 1420.35,-72.5 1422.08,-79.28"/>
</g>
<!-- Node32 -->
<g id="node32" class="node">
<title>Node32</title>
<g id="a_node32"><a xlink:title=" ">
<polygon fill="none" stroke="#bfbfbf" points="1099,-56.5 1099,-75.5 1188,-75.5 1188,-56.5 1099,-56.5"/>
<text text-anchor="middle" x="1143.5" y="-63.5" font-family="Helvetica,sans-Serif" font-size="10.00">Adafruit_GPS.h</text>
</a>
</g>
</g>
<!-- Node31&#45;&gt;Node32 -->
<g id="edge57" class="edge">
<title>Node31&#45;&gt;Node32</title>
<path fill="none" stroke="midnightblue" d="M1196.38,-112.32C1186.97,-104.26 1172.76,-92.08 1161.43,-82.37"/>
<polygon fill="midnightblue" stroke="midnightblue" points="1163.68,-79.68 1153.81,-75.83 1159.12,-85 1163.68,-79.68"/>
</g>
<!-- Node33&#45;&gt;Node2 -->
<g id="edge63" class="edge">
<title>Node33&#45;&gt;Node2</title>
<path fill="none" stroke="midnightblue" d="M1708.07,-112.47C1744.28,-104.53 1791.16,-91.59 1802.5,-76 1807.73,-68.81 1808.67,-62.4 1802.5,-56 1760.74,-12.68 833.58,-10.8 623.54,-10.93"/>
<polygon fill="midnightblue" stroke="midnightblue" points="623.24,-7.43 613.25,-10.94 623.25,-14.43 623.24,-7.43"/>
</g>
<!-- Node33&#45;&gt;Node7 -->
<g id="edge67" class="edge">
<title>Node33&#45;&gt;Node7</title>
<path fill="none" stroke="midnightblue" d="M1618.87,-118.07C1522.37,-111.62 1287.14,-95.21 1090.5,-76 1078.27,-74.81 1064.98,-73.32 1052.93,-71.9"/>
<polygon fill="midnightblue" stroke="midnightblue" points="1053.07,-68.39 1042.72,-70.68 1052.24,-75.34 1053.07,-68.39"/>
</g>
<!-- Node33&#45;&gt;Node12 -->
<g id="edge65" class="edge">
<title>Node33&#45;&gt;Node12</title>
<path fill="none" stroke="midnightblue" d="M1680.05,-112.32C1696.49,-103.7 1721.93,-90.36 1740.97,-80.39"/>
<polygon fill="midnightblue" stroke="midnightblue" points="1742.76,-83.4 1749.99,-75.65 1739.51,-77.2 1742.76,-83.4"/>
</g>
<!-- Node34 -->
<g id="node34" class="node">
<title>Node34</title>
<g id="a_node34"><a xlink:title=" ">
<polygon fill="none" stroke="#bfbfbf" points="1850,-56.5 1850,-75.5 1903,-75.5 1903,-56.5 1850,-56.5"/>
<text text-anchor="middle" x="1876.5" y="-63.5" font-family="Helvetica,sans-Serif" font-size="10.00">stdint.h</text>
</a>
</g>
</g>
<!-- Node33&#45;&gt;Node34 -->
<g id="edge64" class="edge">
<title>Node33&#45;&gt;Node34</title>
<path fill="none" stroke="midnightblue" d="M1697.25,-112.44C1736.21,-102.57 1800.04,-86.38 1840.09,-76.23"/>
<polygon fill="midnightblue" stroke="midnightblue" points="1841.14,-79.58 1849.97,-73.73 1839.42,-72.79 1841.14,-79.58"/>
</g>
<!-- Node35 -->
<g id="node35" class="node">
<title>Node35</title>
<g id="a_node35"><a xlink:title=" ">
<polygon fill="none" stroke="#bfbfbf" points="1621,-56.5 1621,-75.5 1722,-75.5 1722,-56.5 1621,-56.5"/>
<text text-anchor="middle" x="1671.5" y="-63.5" font-family="Helvetica,sans-Serif" font-size="10.00">Adafruit_SGP30.h</text>
</a>
</g>
</g>
<!-- Node33&#45;&gt;Node35 -->
<g id="edge66" class="edge">
<title>Node33&#45;&gt;Node35</title>
<path fill="none" stroke="midnightblue" d="M1664.82,-112.08C1665.88,-104.93 1667.41,-94.64 1668.73,-85.69"/>
<polygon fill="midnightblue" stroke="midnightblue" points="1672.2,-86.16 1670.2,-75.75 1665.28,-85.13 1672.2,-86.16"/>
</g>
<!-- Node36&#45;&gt;Node2 -->
<g id="edge69" class="edge">
<title>Node36&#45;&gt;Node2</title>
<path fill="none" stroke="midnightblue" d="M1305.24,-112.36C1272.26,-94.87 1200.38,-56.82 1197.5,-56 1089.27,-25.13 744.36,-14.63 623.68,-11.85"/>
<polygon fill="midnightblue" stroke="midnightblue" points="623.45,-8.34 613.38,-11.62 623.3,-15.34 623.45,-8.34"/>
</g>
<!-- Node36&#45;&gt;Node7 -->
<g id="edge73" class="edge">
<title>Node36&#45;&gt;Node7</title>
<path fill="none" stroke="midnightblue" d="M1276.71,-113.15C1216.4,-102.57 1110.04,-83.93 1052.72,-73.88"/>
<polygon fill="midnightblue" stroke="midnightblue" points="1053.07,-70.38 1042.61,-72.1 1051.86,-77.28 1053.07,-70.38"/>
</g>
<!-- Node36&#45;&gt;Node11 -->
<g id="edge70" class="edge">
<title>Node36&#45;&gt;Node11</title>
<path fill="none" stroke="midnightblue" d="M1332.26,-112.32C1342.27,-104.26 1357.39,-92.08 1369.43,-82.37"/>
<polygon fill="midnightblue" stroke="midnightblue" points="1371.95,-84.83 1377.54,-75.83 1367.56,-79.38 1371.95,-84.83"/>
</g>
<!-- Node36&#45;&gt;Node12 -->
<g id="edge71" class="edge">
<title>Node36&#45;&gt;Node12</title>
<path fill="none" stroke="midnightblue" d="M1366.26,-113.31C1369.38,-112.85 1372.49,-112.4 1375.5,-112 1529.89,-91.35 1573.17,-103.36 1729.85,-76.07"/>
<polygon fill="midnightblue" stroke="midnightblue" points="1730.6,-79.49 1739.84,-74.3 1729.38,-72.59 1730.6,-79.49"/>
</g>
<!-- Node37 -->
<g id="node37" class="node">
<title>Node37</title>
<g id="a_node37"><a xlink:title=" ">
<polygon fill="none" stroke="#bfbfbf" points="1245,-56.5 1245,-75.5 1346,-75.5 1346,-56.5 1245,-56.5"/>
<text text-anchor="middle" x="1295.5" y="-63.5" font-family="Helvetica,sans-Serif" font-size="10.00">Adafruit_SHT31.h</text>
</a>
</g>
</g>
<!-- Node36&#45;&gt;Node37 -->
<g id="edge72" class="edge">
<title>Node36&#45;&gt;Node37</title>
<path fill="none" stroke="midnightblue" d="M1317.21,-112.08C1313.65,-104.69 1308.48,-93.95 1304.08,-84.81"/>
<polygon fill="midnightblue" stroke="midnightblue" points="1307.21,-83.24 1299.71,-75.75 1300.9,-86.28 1307.21,-83.24"/>
</g>
<!-- Node38&#45;&gt;Node7 -->
<g id="edge75" class="edge">
<title>Node38&#45;&gt;Node7</title>
<path fill="none" stroke="midnightblue" d="M953.91,-112.32C964.61,-104.18 980.84,-91.84 993.66,-82.09"/>
<polygon fill="midnightblue" stroke="midnightblue" points="996.04,-84.67 1001.89,-75.83 991.81,-79.1 996.04,-84.67"/>
</g>
<!-- Node39&#45;&gt;Node2 -->
<g id="edge77" class="edge">
<title>Node39&#45;&gt;Node2</title>
<path fill="none" stroke="midnightblue" d="M349.82,-112.38C350.84,-98.37 354.95,-70.74 371.5,-56 395.95,-34.21 485.74,-21.14 539.68,-15.08"/>
<polygon fill="midnightblue" stroke="midnightblue" points="540.07,-18.55 549.63,-13.99 539.31,-11.6 540.07,-18.55"/>
</g>
<!-- Node39&#45;&gt;Node4 -->
<g id="edge78" class="edge">
<title>Node39&#45;&gt;Node4</title>
<path fill="none" stroke="midnightblue" d="M362.16,-112.36C384.73,-97.51 433.94,-67.62 480.5,-56 630,-18.69 1734.01,-12.21 2001.33,-11.18"/>
<polygon fill="midnightblue" stroke="midnightblue" points="2001.61,-14.68 2011.59,-11.14 2001.58,-7.68 2001.61,-14.68"/>
</g>
<!-- Node39&#45;&gt;Node8 -->
<g id="edge79" class="edge">
<title>Node39&#45;&gt;Node8</title>
<path fill="none" stroke="midnightblue" d="M339.54,-112.32C330.37,-104.34 316.56,-92.31 305.47,-82.65"/>
<polygon fill="midnightblue" stroke="midnightblue" points="307.48,-79.76 297.64,-75.83 302.88,-85.04 307.48,-79.76"/>
</g>
<!-- Node40&#45;&gt;Node3 -->
<g id="edge81" class="edge">
<title>Node40&#45;&gt;Node3</title>
<path fill="none" stroke="midnightblue" d="M190.99,-112.32C173.43,-103.62 146.17,-90.12 125.97,-80.11"/>
<polygon fill="midnightblue" stroke="midnightblue" points="127.48,-76.96 116.97,-75.65 124.38,-83.23 127.48,-76.96"/>
</g>
<!-- Node40&#45;&gt;Node4 -->
<g id="edge82" class="edge">
<title>Node40&#45;&gt;Node4</title>
<path fill="none" stroke="midnightblue" d="M210.77,-112.31C215.11,-97.67 226.12,-68.46 247.5,-56 324.96,-10.86 1700.81,-10.43 2001.69,-10.88"/>
<polygon fill="midnightblue" stroke="midnightblue" points="2001.93,-14.38 2011.93,-10.89 2001.94,-7.38 2001.93,-14.38"/>
</g>
<!-- Node40&#45;&gt;Node8 -->
<g id="edge84" class="edge">
<title>Node40&#45;&gt;Node8</title>
<path fill="none" stroke="midnightblue" d="M221.19,-112.32C233.4,-103.98 252.08,-91.21 266.5,-81.35"/>
<polygon fill="midnightblue" stroke="midnightblue" points="268.56,-84.19 274.84,-75.65 264.61,-78.41 268.56,-84.19"/>
</g>
<!-- Node41 -->
<g id="node41" class="node">
<title>Node41</title>
<g id="a_node41"><a xlink:title=" ">
<polygon fill="none" stroke="#bfbfbf" points="160,-56.5 160,-75.5 199,-75.5 199,-56.5 160,-56.5"/>
<text text-anchor="middle" x="179.5" y="-63.5" font-family="Helvetica,sans-Serif" font-size="10.00">SD.h</text>
</a>
</g>
</g>
<!-- Node40&#45;&gt;Node41 -->
<g id="edge83" class="edge">
<title>Node40&#45;&gt;Node41</title>
<path fill="none" stroke="midnightblue" d="M203.71,-112.08C199.74,-104.69 193.97,-93.95 189.07,-84.81"/>
<polygon fill="midnightblue" stroke="midnightblue" points="192.01,-82.91 184.2,-75.75 185.85,-86.22 192.01,-82.91"/>
</g>
</g>
</svg>
        <g id="navigator" transform="translate(0 0)" fill="#404254">
                <rect fill="#f2f5e9" fill-opacity="0.5" stroke="#606060" stroke-width=".5" x="0" y="0" width="60" height="60"/>
                <use id="zoomplus" xlink:href="#zoomPlus" x="17" y="9" onmousedown="handleZoom(evt,'in')"/>
                <use id="zoomminus" xlink:href="#zoomMin" x="42" y="9" onmousedown="handleZoom(evt,'out')"/>
                <use id="reset" xlink:href="#resetDef" x="30" y="36" onmousedown="handleReset()"/>
                <g id="arrowUp" xlink:href="#dirArrow" transform="translate(30 24)" onmousedown="handlePan(0,-1)">
                  <use xlink:href="#rim" fill="#404040">
                        <set attributeName="fill" to="#808080" begin="arrowUp.mouseover" end="arrowUp.mouseout"/>
                  </use>
                  <path fill="none" stroke="white" stroke-width="1.5" d="M0,-3.0v7 M-2.5,-0.5L0,-3.0L2.5,-0.5"/>
                </g>
                <g id="arrowRight" xlink:href="#dirArrow" transform="rotate(90) translate(36 -43)" onmousedown="handlePan(1,0)">
                  <use xlink:href="#rim" fill="#404040">
                        <set attributeName="fill" to="#808080" begin="arrowRight.mouseover" end="arrowRight.mouseout"/>
                  </use>
                  <path fill="none" stroke="white" stroke-width="1.5" d="M0,-3.0v7 M-2.5,-0.5L0,-3.0L2.5,-0.5"/>
                </g>
                <g id="arrowDown" xlink:href="#dirArrow" transform="rotate(180) translate(-30 -48)" onmousedown="handlePan(0,1)">
                  <use xlink:href="#rim" fill="#404040">
                        <set attributeName="fill" to="#808080" begin="arrowDown.mouseover" end="arrowDown.mouseout"/>
                  </use>
                  <path fill="none" stroke="white" stroke-width="1.5" d="M0,-3.0v7 M-2.5,-0.5L0,-3.0L2.5,-0.5"/>
                </g>
                <g id="arrowLeft" xlink:href="#dirArrow" transform="rotate(270) translate(-36 17)" onmousedown="handlePan(-1,0)">
                  <use xlink:href="#rim" fill="#404040">
                        <set attributeName="fill" to="#808080" begin="arrowLeft.mouseover" end="arrowLeft.mouseout"/>
                  </use>
                  <path fill="none" stroke="white" stroke-width="1.5" d="M0,-3.0v7 M-2.5,-0.5L0,-3.0L2.5,-0.5"/>
                </g>
        </g>
        <svg viewBox="0 0 15 15" width="100%" height="30px" preserveAspectRatio="xMaxYMin meet">
         <g id="arrow_out" transform="scale(0.3 0.3)">
          <a xlink:href="main_8cpp__incl_org.svg" target="_base">
           <rect id="button" ry="5" rx="5" y="6" x="6" height="38" width="38"
                fill="#f2f5e9" fill-opacity="0.5" stroke="#606060" stroke-width="1.0"/>
           <path id="arrow"
             d="M 11.500037,31.436501 C 11.940474,20.09759 22.043105,11.32322 32.158766,21.979434 L 37.068811,17.246167 C 37.068811,17.246167 37.088388,32 37.088388,32 L 22.160133,31.978069 C 22.160133,31.978069 26.997745,27.140456 26.997745,27.140456 C 18.528582,18.264221 13.291696,25.230495 11.500037,31.436501 z"
             style="fill:#404040;"/>
          </a>
         </g>
        </svg>
</svg>
