<?xml version="1.0" encoding="UTF-8" standalone="no"?>
<!DOCTYPE svg PUBLIC "-//W3C//DTD SVG 1.1//EN"
 "http://www.w3.org/Graphics/SVG/1.1/DTD/svg11.dtd">
<!-- Generated by graphviz version 2.43.0 (0)
 -->
<!-- Title: main.cpp Pages: 1 -->
<svg width="663pt" height="196pt"
 viewBox="0.00 0.00 663.32 196.00" xmlns="http://www.w3.org/2000/svg" xmlns:xlink="http://www.w3.org/1999/xlink">
<g id="graph0" class="graph" transform="scale(1 1) rotate(0) translate(4 192)">
<title>main.cpp</title>
<!-- Node1 -->
<g id="node1" class="node">
<title>Node1</title>
<g id="a_node1"><a xlink:title=" ">
<polygon fill="#bfbfbf" stroke="black" points="134.82,-168.5 134.82,-187.5 196.82,-187.5 196.82,-168.5 134.82,-168.5"/>
<text text-anchor="middle" x="165.82" y="-175.5" font-family="Helvetica,sans-Serif" font-size="10.00">main.cpp</text>
</a>
</g>
</g>
<!-- Node2 -->
<g id="node2" class="node">
<title>Node2</title>
<g id="a_node2"><a xlink:title=" ">
<polygon fill="none" stroke="#bfbfbf" points="10.32,-0.5 10.32,-19.5 73.32,-19.5 73.32,-0.5 10.32,-0.5"/>
<text text-anchor="middle" x="41.82" y="-7.5" font-family="Helvetica,sans-Serif" font-size="10.00">Arduino.h</text>
</a>
</g>
</g>
<!-- Node1&#45;&gt;Node2 -->
<g id="edge1" class="edge">
<title>Node1&#45;&gt;Node2</title>
<path fill="none" stroke="midnightblue" d="M134.62,-170.47C108.9,-163.94 72.45,-151.95 45.82,-132 14.94,-108.86 -9.43,-92.24 3.82,-56 7.88,-44.91 16.01,-34.67 23.72,-26.76"/>
<polygon fill="midnightblue" stroke="midnightblue" points="26.3,-29.14 31.11,-19.7 21.46,-24.07 26.3,-29.14"/>
</g>
<!-- Node3 -->
<g id="node3" class="node">
<title>Node3</title>
<g id="a_node3"><a xlink:href="Sensor_8h.html" target="_top" xlink:title=" ">
<polygon fill="none" stroke="black" points="12.82,-56.5 12.82,-75.5 70.82,-75.5 70.82,-56.5 12.82,-56.5"/>
<text text-anchor="middle" x="41.82" y="-63.5" font-family="Helvetica,sans-Serif" font-size="10.00">Sensor.h</text>
</a>
</g>
</g>
<!-- Node1&#45;&gt;Node3 -->
<g id="edge2" class="edge">
<title>Node1&#45;&gt;Node3</title>
<path fill="none" stroke="midnightblue" d="M134.48,-171.09C111.05,-165.1 79.9,-153.52 60.82,-132 49.5,-119.23 44.91,-100.03 43.06,-85.81"/>
<polygon fill="midnightblue" stroke="midnightblue" points="46.53,-85.31 42.08,-75.69 39.56,-85.98 46.53,-85.31"/>
</g>
<!-- Node4 -->
<g id="node4" class="node">
<title>Node4</title>
<g id="a_node4"><a xlink:href="Storage_8h.html" target="_top" xlink:title=" ">
<polygon fill="none" stroke="black" points="535.32,-56.5 535.32,-75.5 598.32,-75.5 598.32,-56.5 535.32,-56.5"/>
<text text-anchor="middle" x="566.82" y="-63.5" font-family="Helvetica,sans-Serif" font-size="10.00">Storage.h</text>
</a>
</g>
</g>
<!-- Node1&#45;&gt;Node4 -->
<g id="edge4" class="edge">
<title>Node1&#45;&gt;Node4</title>
<path fill="none" stroke="midnightblue" d="M196.96,-168.46C268.69,-148.78 445.6,-100.25 525.95,-78.21"/>
<polygon fill="midnightblue" stroke="midnightblue" points="526.99,-81.56 535.71,-75.53 525.14,-74.8 526.99,-81.56"/>
</g>
<!-- Node5 -->
<g id="node5" class="node">
<title>Node5</title>
<g id="a_node5"><a xlink:href="BME680Sensor_8h.html" target="_top" xlink:title=" ">
<polygon fill="none" stroke="black" points="171.82,-112.5 171.82,-131.5 269.82,-131.5 269.82,-112.5 171.82,-112.5"/>
<text text-anchor="middle" x="220.82" y="-119.5" font-family="Helvetica,sans-Serif" font-size="10.00">BME680Sensor.h</text>
</a>
</g>
</g>
<!-- Node1&#45;&gt;Node5 -->
<g id="edge6" class="edge">
<title>Node1&#45;&gt;Node5</title>
<path fill="none" stroke="midnightblue" d="M174.91,-168.08C183,-160.14 195.02,-148.34 204.73,-138.8"/>
<polygon fill="midnightblue" stroke="midnightblue" points="207.23,-141.25 211.91,-131.75 202.32,-136.26 207.23,-141.25"/>
</g>
<!-- Node11 -->
<g id="node11" class="node">
<title>Node11</title>
<g id="a_node11"><a xlink:href="TempSensor_8h.html" target="_top" xlink:title=" ">
<polygon fill="none" stroke="black" points="69.82,-112.5 69.82,-131.5 153.82,-131.5 153.82,-112.5 69.82,-112.5"/>
<text text-anchor="middle" x="111.82" y="-119.5" font-family="Helvetica,sans-Serif" font-size="10.00">TempSensor.h</text>
</a>
</g>
</g>
<!-- Node1&#45;&gt;Node11 -->
<g id="edge13" class="edge">
<title>Node1&#45;&gt;Node11</title>
<path fill="none" stroke="midnightblue" d="M156.91,-168.08C149.04,-160.22 137.39,-148.57 127.91,-139.08"/>
<polygon fill="midnightblue" stroke="midnightblue" points="130.12,-136.35 120.58,-131.75 125.17,-141.3 130.12,-136.35"/>
</g>
<!-- Node12 -->
<g id="node12" class="node">
<title>Node12</title>
<g id="a_node12"><a xlink:href="SDStorage_8h.html" target="_top" xlink:title=" ">
<polygon fill="none" stroke="black" points="528.32,-112.5 528.32,-131.5 605.32,-131.5 605.32,-112.5 528.32,-112.5"/>
<text text-anchor="middle" x="566.82" y="-119.5" font-family="Helvetica,sans-Serif" font-size="10.00">SDStorage.h</text>
</a>
</g>
</g>
<!-- Node1&#45;&gt;Node12 -->
<g id="edge15" class="edge">
<title>Node1&#45;&gt;Node12</title>
<path fill="none" stroke="midnightblue" d="M196.96,-172.81C266.47,-163.45 434.74,-140.79 518.21,-129.55"/>
<polygon fill="midnightblue" stroke="midnightblue" points="518.75,-133.01 528.19,-128.2 517.82,-126.07 518.75,-133.01"/>
</g>
<!-- Node3&#45;&gt;Node2 -->
<g id="edge3" class="edge">
<title>Node3&#45;&gt;Node2</title>
<path fill="none" stroke="midnightblue" d="M41.82,-56.08C41.82,-49.01 41.82,-38.86 41.82,-29.99"/>
<polygon fill="midnightblue" stroke="midnightblue" points="45.32,-29.75 41.82,-19.75 38.32,-29.75 45.32,-29.75"/>
</g>
<!-- Node4&#45;&gt;Node2 -->
<g id="edge5" class="edge">
<title>Node4&#45;&gt;Node2</title>
<path fill="none" stroke="midnightblue" d="M535.11,-57.63C531.98,-57.03 528.85,-56.47 525.82,-56 363.29,-30.7 167.68,-17.84 83.59,-13.14"/>
<polygon fill="midnightblue" stroke="midnightblue" points="83.59,-9.64 73.42,-12.58 83.21,-16.63 83.59,-9.64"/>
</g>
<!-- Node5&#45;&gt;Node3 -->
<g id="edge12" class="edge">
<title>Node5&#45;&gt;Node3</title>
<path fill="none" stroke="midnightblue" d="M192.46,-112.44C162.09,-103.28 113.71,-88.69 80.01,-78.52"/>
<polygon fill="midnightblue" stroke="midnightblue" points="80.64,-75.05 70.06,-75.52 78.62,-81.76 80.64,-75.05"/>
</g>
<!-- Node6 -->
<g id="node6" class="node">
<title>Node6</title>
<g id="a_node6"><a xlink:title=" ">
<polygon fill="none" stroke="#bfbfbf" points="286.82,-56.5 286.82,-75.5 396.82,-75.5 396.82,-56.5 286.82,-56.5"/>
<text text-anchor="middle" x="341.82" y="-63.5" font-family="Helvetica,sans-Serif" font-size="10.00">Adafruit_BME680.h</text>
</a>
</g>
</g>
<!-- Node5&#45;&gt;Node6 -->
<g id="edge7" class="edge">
<title>Node5&#45;&gt;Node6</title>
<path fill="none" stroke="midnightblue" d="M240,-112.44C259.73,-103.64 290.71,-89.81 313.32,-79.72"/>
<polygon fill="midnightblue" stroke="midnightblue" points="315.04,-82.79 322.74,-75.52 312.18,-76.4 315.04,-82.79"/>
</g>
<!-- Node7 -->
<g id="node7" class="node">
<title>Node7</title>
<g id="a_node7"><a xlink:title=" ">
<polygon fill="none" stroke="#bfbfbf" points="414.82,-56.5 414.82,-75.5 516.82,-75.5 516.82,-56.5 414.82,-56.5"/>
<text text-anchor="middle" x="465.82" y="-63.5" font-family="Helvetica,sans-Serif" font-size="10.00">Adafruit_Sensor.h</text>
</a>
</g>
</g>
<!-- Node5&#45;&gt;Node7 -->
<g id="edge8" class="edge">
<title>Node5&#45;&gt;Node7</title>
<path fill="none" stroke="midnightblue" d="M259.65,-112.44C302.39,-103.02 371.16,-87.87 417.39,-77.68"/>
<polygon fill="midnightblue" stroke="midnightblue" points="418.17,-81.09 427.19,-75.52 416.67,-74.25 418.17,-81.09"/>
</g>
<!-- Node8 -->
<g id="node8" class="node">
<title>Node8</title>
<g id="a_node8"><a xlink:title=" ">
<polygon fill="none" stroke="#bfbfbf" points="89.32,-56.5 89.32,-75.5 130.32,-75.5 130.32,-56.5 89.32,-56.5"/>
<text text-anchor="middle" x="109.82" y="-63.5" font-family="Helvetica,sans-Serif" font-size="10.00">SPI.h</text>
</a>
</g>
</g>
<!-- Node5&#45;&gt;Node8 -->
<g id="edge9" class="edge">
<title>Node5&#45;&gt;Node8</title>
<path fill="none" stroke="midnightblue" d="M202.99,-112.32C185.11,-103.62 157.35,-90.12 136.78,-80.11"/>
<polygon fill="midnightblue" stroke="midnightblue" points="138.14,-76.88 127.61,-75.65 135.08,-83.18 138.14,-76.88"/>
</g>
<!-- Node9 -->
<g id="node9" class="node">
<title>Node9</title>
<g id="a_node9"><a xlink:title=" ">
<polygon fill="none" stroke="#bfbfbf" points="148.82,-56.5 148.82,-75.5 196.82,-75.5 196.82,-56.5 148.82,-56.5"/>
<text text-anchor="middle" x="172.82" y="-63.5" font-family="Helvetica,sans-Serif" font-size="10.00">Wire.h</text>
</a>
</g>
</g>
<!-- Node5&#45;&gt;Node9 -->
<g id="edge10" class="edge">
<title>Node5&#45;&gt;Node9</title>
<path fill="none" stroke="midnightblue" d="M212.9,-112.08C205.98,-104.3 195.76,-92.8 187.37,-83.37"/>
<polygon fill="midnightblue" stroke="midnightblue" points="189.86,-80.9 180.6,-75.75 184.63,-85.55 189.86,-80.9"/>
</g>
<!-- Node10 -->
<g id="node10" class="node">
<title>Node10</title>
<g id="a_node10"><a xlink:title=" ">
<polygon fill="none" stroke="#bfbfbf" points="215.32,-56.5 215.32,-75.5 268.32,-75.5 268.32,-56.5 215.32,-56.5"/>
<text text-anchor="middle" x="241.82" y="-63.5" font-family="Helvetica,sans-Serif" font-size="10.00">string.h</text>
</a>
</g>
</g>
<!-- Node5&#45;&gt;Node10 -->
<g id="edge11" class="edge">
<title>Node5&#45;&gt;Node10</title>
<path fill="none" stroke="midnightblue" d="M224.29,-112.08C227.14,-104.77 231.25,-94.18 234.78,-85.1"/>
<polygon fill="midnightblue" stroke="midnightblue" points="238.06,-86.34 238.42,-75.75 231.53,-83.8 238.06,-86.34"/>
</g>
<!-- Node11&#45;&gt;Node3 -->
<g id="edge14" class="edge">
<title>Node11&#45;&gt;Node3</title>
<path fill="none" stroke="midnightblue" d="M100.58,-112.32C90.03,-104.18 74.02,-91.84 61.38,-82.09"/>
<polygon fill="midnightblue" stroke="midnightblue" points="63.33,-79.17 53.28,-75.83 59.06,-84.71 63.33,-79.17"/>
</g>
<!-- Node12&#45;&gt;Node4 -->
<g id="edge17" class="edge">
<title>Node12&#45;&gt;Node4</title>
<path fill="none" stroke="midnightblue" d="M566.82,-112.08C566.82,-105.01 566.82,-94.86 566.82,-85.99"/>
<polygon fill="midnightblue" stroke="midnightblue" points="570.32,-85.75 566.82,-75.75 563.32,-85.75 570.32,-85.75"/>
</g>
<!-- Node13 -->
<g id="node13" class="node">
<title>Node13</title>
<g id="a_node13"><a xlink:title=" ">
<polygon fill="none" stroke="#bfbfbf" points="616.32,-56.5 616.32,-75.5 655.32,-75.5 655.32,-56.5 616.32,-56.5"/>
<text text-anchor="middle" x="635.82" y="-63.5" font-family="Helvetica,sans-Serif" font-size="10.00">SD.h</text>
</a>
</g>
</g>
<!-- Node12&#45;&gt;Node13 -->
<g id="edge16" class="edge">
<title>Node12&#45;&gt;Node13</title>
<path fill="none" stroke="midnightblue" d="M577.91,-112.32C588.31,-104.18 604.09,-91.84 616.55,-82.09"/>
<polygon fill="midnightblue" stroke="midnightblue" points="618.82,-84.75 624.54,-75.83 614.5,-79.24 618.82,-84.75"/>
</g>
</g>
</svg>
