<?xml version="1.0" encoding="UTF-8" standalone="no"?>
<!DOCTYPE svg PUBLIC "-//W3C//DTD SVG 1.1//EN"
 "http://www.w3.org/Graphics/SVG/1.1/DTD/svg11.dtd">
<!-- Generated by graphviz version 2.43.0 (0)
 -->
<!-- Title: main.cpp Pages: 1 -->
<!--zoomable 196 -->
<svg id="main" version="1.1" xmlns="http://www.w3.org/2000/svg" xmlns:xlink="http://www.w3.org/1999/xlink" xml:space="preserve" onload="init(evt)">
<style type="text/css"><![CDATA[
.edge:hover path { stroke: red; }
.edge:hover polygon { stroke: red; fill: red; }
]]></style>
<script type="text/javascript"><![CDATA[
var edges = document.getElementsByTagName('g');
if (edges && edges.length) {
  for (var i=0;i<edges.length;i++) {
    if (edges[i].id.substr(0,4)=='edge') {
      edges[i].setAttribute('class','edge');
    }
  }
}
]]></script>
        <defs>
                <circle id="rim" cx="0" cy="0" r="7"/>
                <circle id="rim2" cx="0" cy="0" r="3.5"/>
                <g id="zoomPlus">
                        <use xlink:href="#rim" fill="#404040">
                                <set attributeName="fill" to="#808080" begin="zoomplus.mouseover" end="zoomplus.mouseout"/>
                        </use>
                        <path d="M-4,0h8M0,-4v8" fill="none" stroke="white" stroke-width="1.5" pointer-events="none"/>
                </g>
                <g id="zoomMin">
                        <use xlink:href="#rim" fill="#404040">
                                <set attributeName="fill" to="#808080" begin="zoomminus.mouseover" end="zoomminus.mouseout"/>
                        </use>
                        <path d="M-4,0h8" fill="none" stroke="white" stroke-width="1.5" pointer-events="none"/>
                </g>
                <g id="dirArrow">
                        <path fill="none" stroke="white" stroke-width="1.5" d="M0,-3.0v7 M-2.5,-0.5L0,-3.0L2.5,-0.5"/>
                </g>
               <g id="resetDef">
                       <use xlink:href="#rim2" fill="#404040">
                               <set attributeName="fill" to="#808080" begin="reset.mouseover" end="reset.mouseout"/>
                       </use>
               </g>
        </defs>

<script type="text/javascript">
var viewWidth = 1590;
var viewHeight = 196;
var sectionId = 'dynsection-0';
</script>
<script xlink:href="svgpan.js"/>
<svg id="graph" class="graph">
<g id="viewport">
<title>main.cpp</title>
<!-- Node1 -->
<g id="node1" class="node">
<title>Node1</title>
<g id="a_node1"><a xlink:title=" ">
<polygon fill="#bfbfbf" stroke="black" points="628.33,-168.5 628.33,-187.5 690.33,-187.5 690.33,-168.5 628.33,-168.5"/>
<text text-anchor="middle" x="659.33" y="-175.5" font-family="Helvetica,sans-Serif" font-size="10.00">main.cpp</text>
</a>
</g>
</g>
<!-- Node2 -->
<g id="node2" class="node">
<title>Node2</title>
<g id="a_node2"><a xlink:title=" ">
<polygon fill="none" stroke="#bfbfbf" points="729.83,-0.5 729.83,-19.5 792.83,-19.5 792.83,-0.5 729.83,-0.5"/>
<text text-anchor="middle" x="761.33" y="-7.5" font-family="Helvetica,sans-Serif" font-size="10.00">Arduino.h</text>
</a>
</g>
</g>
<!-- Node1&#45;&gt;Node2 -->
<g id="edge1" class="edge">
<title>Node1&#45;&gt;Node2</title>
<path fill="none" stroke="midnightblue" d="M628.27,-176.13C511.84,-172.69 105.37,-158.84 54.33,-132 19.59,-113.73 -17.58,-84.57 9.33,-56 33.85,-29.97 565.42,-15.57 719.7,-11.93"/>
<polygon fill="midnightblue" stroke="midnightblue" points="719.81,-15.43 729.73,-11.69 719.65,-8.43 719.81,-15.43"/>
</g>
<!-- Node3 -->
<g id="node3" class="node">
<title>Node3</title>
<g id="a_node3"><a xlink:href="Sensor_8h.html" target="_top" xlink:title=" ">
<polygon fill="none" stroke="black" points="703.33,-56.5 703.33,-75.5 761.33,-75.5 761.33,-56.5 703.33,-56.5"/>
<text text-anchor="middle" x="732.33" y="-63.5" font-family="Helvetica,sans-Serif" font-size="10.00">Sensor.h</text>
</a>
</g>
</g>
<!-- Node1&#45;&gt;Node3 -->
<g id="edge2" class="edge">
<title>Node1&#45;&gt;Node3</title>
<path fill="none" stroke="midnightblue" d="M672.37,-168.47C683.85,-160.35 700.26,-147.14 710.33,-132 719.71,-117.9 725.46,-99.41 728.72,-85.76"/>
<polygon fill="midnightblue" stroke="midnightblue" points="732.21,-86.14 730.89,-75.63 725.37,-84.67 732.21,-86.14"/>
</g>
<!-- Node4 -->
<g id="node4" class="node">
<title>Node4</title>
<g id="a_node4"><a xlink:href="Storage_8h.html" target="_top" xlink:title=" ">
<polygon fill="none" stroke="black" points="18.83,-56.5 18.83,-75.5 81.83,-75.5 81.83,-56.5 18.83,-56.5"/>
<text text-anchor="middle" x="50.33" y="-63.5" font-family="Helvetica,sans-Serif" font-size="10.00">Storage.h</text>
</a>
</g>
</g>
<!-- Node1&#45;&gt;Node4 -->
<g id="edge4" class="edge">
<title>Node1&#45;&gt;Node4</title>
<path fill="none" stroke="midnightblue" d="M628,-176.61C512.55,-174.92 115.26,-166.61 71.33,-132 57.52,-121.12 52.67,-101.05 51.02,-86.08"/>
<polygon fill="midnightblue" stroke="midnightblue" points="54.5,-85.59 50.3,-75.86 47.51,-86.08 54.5,-85.59"/>
</g>
<!-- Node5 -->
<g id="node5" class="node">
<title>Node5</title>
<g id="a_node5"><a xlink:href="AnalogSensor_8h.html" target="_top" xlink:title=" ">
<polygon fill="none" stroke="black" points="757.33,-112.5 757.33,-131.5 849.33,-131.5 849.33,-112.5 757.33,-112.5"/>
<text text-anchor="middle" x="803.33" y="-119.5" font-family="Helvetica,sans-Serif" font-size="10.00">AnalogSensor.h</text>
</a>
</g>
</g>
<!-- Node1&#45;&gt;Node5 -->
<g id="edge6" class="edge">
<title>Node1&#45;&gt;Node5</title>
<path fill="none" stroke="midnightblue" d="M682.15,-168.44C706.16,-159.44 744.16,-145.19 771.2,-135.05"/>
<polygon fill="midnightblue" stroke="midnightblue" points="772.49,-138.3 780.62,-131.52 770.03,-131.75 772.49,-138.3"/>
</g>
<!-- Node7 -->
<g id="node7" class="node">
<title>Node7</title>
<g id="a_node7"><a xlink:href="BME680Sensor_8h.html" target="_top" xlink:title=" ">
<polygon fill="none" stroke="black" points="501.33,-112.5 501.33,-131.5 599.33,-131.5 599.33,-112.5 501.33,-112.5"/>
<text text-anchor="middle" x="550.33" y="-119.5" font-family="Helvetica,sans-Serif" font-size="10.00">BME680Sensor.h</text>
</a>
</g>
</g>
<!-- Node1&#45;&gt;Node7 -->
<g id="edge10" class="edge">
<title>Node1&#45;&gt;Node7</title>
<path fill="none" stroke="midnightblue" d="M641.82,-168.32C624.26,-159.62 597,-146.12 576.8,-136.11"/>
<polygon fill="midnightblue" stroke="midnightblue" points="578.31,-132.96 567.8,-131.65 575.21,-139.23 578.31,-132.96"/>
</g>
<!-- Node12 -->
<g id="node12" class="node">
<title>Node12</title>
<g id="a_node12"><a xlink:href="GeigerSensor_8h.html" target="_top" xlink:title=" ">
<polygon fill="none" stroke="black" points="281.33,-112.5 281.33,-131.5 371.33,-131.5 371.33,-112.5 281.33,-112.5"/>
<text text-anchor="middle" x="326.33" y="-119.5" font-family="Helvetica,sans-Serif" font-size="10.00">GeigerSensor.h</text>
</a>
</g>
</g>
<!-- Node1&#45;&gt;Node12 -->
<g id="edge17" class="edge">
<title>Node1&#45;&gt;Node12</title>
<path fill="none" stroke="midnightblue" d="M628.06,-171.96C576.6,-163.65 470.85,-146.57 381.33,-132 381.23,-131.98 381.13,-131.97 381.03,-131.95"/>
<polygon fill="midnightblue" stroke="midnightblue" points="381.79,-128.53 371.35,-130.37 380.66,-135.44 381.79,-128.53"/>
</g>
<!-- Node13 -->
<g id="node13" class="node">
<title>Node13</title>
<g id="a_node13"><a xlink:href="INA260Sensor_8h.html" target="_top" xlink:title=" ">
<polygon fill="none" stroke="black" points="389.83,-112.5 389.83,-131.5 482.83,-131.5 482.83,-112.5 389.83,-112.5"/>
<text text-anchor="middle" x="436.33" y="-119.5" font-family="Helvetica,sans-Serif" font-size="10.00">INA260Sensor.h</text>
</a>
</g>
</g>
<!-- Node1&#45;&gt;Node13 -->
<g id="edge20" class="edge">
<title>Node1&#45;&gt;Node13</title>
<path fill="none" stroke="midnightblue" d="M628.32,-169.49C590.13,-160.24 524.96,-144.46 481.27,-133.88"/>
<polygon fill="midnightblue" stroke="midnightblue" points="482.02,-130.46 471.48,-131.51 480.38,-137.27 482.02,-130.46"/>
</g>
<!-- Node15 -->
<g id="node15" class="node">
<title>Node15</title>
<g id="a_node15"><a xlink:href="LSM9DS1Sensor_8h.html" target="_top" xlink:title=" ">
<polygon fill="none" stroke="black" points="867.33,-112.5 867.33,-131.5 971.33,-131.5 971.33,-112.5 867.33,-112.5"/>
<text text-anchor="middle" x="919.33" y="-119.5" font-family="Helvetica,sans-Serif" font-size="10.00">LSM9DS1Sensor.h</text>
</a>
</g>
</g>
<!-- Node1&#45;&gt;Node15 -->
<g id="edge25" class="edge">
<title>Node1&#45;&gt;Node15</title>
<path fill="none" stroke="midnightblue" d="M690.43,-170.54C734.5,-161.39 815.62,-144.54 868.5,-133.56"/>
<polygon fill="midnightblue" stroke="midnightblue" points="869.28,-136.97 878.36,-131.51 867.86,-130.12 869.28,-136.97"/>
</g>
<!-- Node17 -->
<g id="node17" class="node">
<title>Node17</title>
<g id="a_node17"><a xlink:href="SGP30Sensor_8h.html" target="_top" xlink:title=" ">
<polygon fill="none" stroke="black" points="1249.83,-112.5 1249.83,-131.5 1338.83,-131.5 1338.83,-112.5 1249.83,-112.5"/>
<text text-anchor="middle" x="1294.33" y="-119.5" font-family="Helvetica,sans-Serif" font-size="10.00">SGP30Sensor.h</text>
</a>
</g>
</g>
<!-- Node1&#45;&gt;Node17 -->
<g id="edge29" class="edge">
<title>Node1&#45;&gt;Node17</title>
<path fill="none" stroke="midnightblue" d="M690.59,-175.18C776.66,-170.03 1024.31,-154.27 1229.33,-132 1232.62,-131.64 1235.99,-131.25 1239.39,-130.84"/>
<polygon fill="midnightblue" stroke="midnightblue" points="1240.14,-134.27 1249.62,-129.54 1239.26,-127.33 1240.14,-134.27"/>
</g>
<!-- Node20 -->
<g id="node20" class="node">
<title>Node20</title>
<g id="a_node20"><a xlink:href="SHT31Sensor_8h.html" target="_top" xlink:title=" ">
<polygon fill="none" stroke="black" points="989.83,-112.5 989.83,-131.5 1078.83,-131.5 1078.83,-112.5 989.83,-112.5"/>
<text text-anchor="middle" x="1034.33" y="-119.5" font-family="Helvetica,sans-Serif" font-size="10.00">SHT31Sensor.h</text>
</a>
</g>
</g>
<!-- Node1&#45;&gt;Node20 -->
<g id="edge35" class="edge">
<title>Node1&#45;&gt;Node20</title>
<path fill="none" stroke="midnightblue" d="M690.36,-172.92C746.01,-165.55 866.74,-149.29 979.38,-132.11"/>
<polygon fill="midnightblue" stroke="midnightblue" points="980.2,-135.53 989.56,-130.55 979.14,-128.61 980.2,-135.53"/>
</g>
<!-- Node22 -->
<g id="node22" class="node">
<title>Node22</title>
<g id="a_node22"><a xlink:href="TempSensor_8h.html" target="_top" xlink:title=" ">
<polygon fill="none" stroke="black" points="617.33,-112.5 617.33,-131.5 701.33,-131.5 701.33,-112.5 617.33,-112.5"/>
<text text-anchor="middle" x="659.33" y="-119.5" font-family="Helvetica,sans-Serif" font-size="10.00">TempSensor.h</text>
</a>
</g>
</g>
<!-- Node1&#45;&gt;Node22 -->
<g id="edge41" class="edge">
<title>Node1&#45;&gt;Node22</title>
<path fill="none" stroke="midnightblue" d="M659.33,-168.08C659.33,-161.01 659.33,-150.86 659.33,-141.99"/>
<polygon fill="midnightblue" stroke="midnightblue" points="662.83,-141.75 659.33,-131.75 655.83,-141.75 662.83,-141.75"/>
</g>
<!-- Node23 -->
<g id="node23" class="node">
<title>Node23</title>
<g id="a_node23"><a xlink:href="ZOPT220Sensor_8h.html" target="_top" xlink:title=" ">
<polygon fill="none" stroke="black" points="1118.33,-112.5 1118.33,-131.5 1220.33,-131.5 1220.33,-112.5 1118.33,-112.5"/>
<text text-anchor="middle" x="1169.33" y="-119.5" font-family="Helvetica,sans-Serif" font-size="10.00">ZOPT220Sensor.h</text>
</a>
</g>
</g>
<!-- Node1&#45;&gt;Node23 -->
<g id="edge43" class="edge">
<title>Node1&#45;&gt;Node23</title>
<path fill="none" stroke="midnightblue" d="M690.56,-173.79C761.34,-166.5 939.42,-148.08 1088.33,-132 1094.61,-131.32 1101.16,-130.61 1107.7,-129.89"/>
<polygon fill="midnightblue" stroke="midnightblue" points="1108.36,-133.34 1117.92,-128.76 1107.59,-126.38 1108.36,-133.34"/>
</g>
<!-- Node25 -->
<g id="node25" class="node">
<title>Node25</title>
<g id="a_node25"><a xlink:href="SDStorage_8h.html" target="_top" xlink:title=" ">
<polygon fill="none" stroke="black" points="80.83,-112.5 80.83,-131.5 157.83,-131.5 157.83,-112.5 80.83,-112.5"/>
<text text-anchor="middle" x="119.33" y="-119.5" font-family="Helvetica,sans-Serif" font-size="10.00">SDStorage.h</text>
</a>
</g>
</g>
<!-- Node1&#45;&gt;Node25 -->
<g id="edge52" class="edge">
<title>Node1&#45;&gt;Node25</title>
<path fill="none" stroke="midnightblue" d="M627.96,-173.86C537.69,-164.84 276.75,-138.74 167.91,-127.86"/>
<polygon fill="midnightblue" stroke="midnightblue" points="168.16,-124.37 157.86,-126.85 167.46,-131.33 168.16,-124.37"/>
</g>
<!-- Node3&#45;&gt;Node2 -->
<g id="edge3" class="edge">
<title>Node3&#45;&gt;Node2</title>
<path fill="none" stroke="midnightblue" d="M737.12,-56.08C741.09,-48.69 746.86,-37.95 751.77,-28.81"/>
<polygon fill="midnightblue" stroke="midnightblue" points="754.98,-30.22 756.63,-19.75 748.82,-26.91 754.98,-30.22"/>
</g>
<!-- Node4&#45;&gt;Node2 -->
<g id="edge5" class="edge">
<title>Node4&#45;&gt;Node2</title>
<path fill="none" stroke="midnightblue" d="M82.03,-57.55C85.16,-56.96 88.3,-56.43 91.33,-56 327.33,-22.36 613.78,-13.75 719.52,-11.65"/>
<polygon fill="midnightblue" stroke="midnightblue" points="719.83,-15.14 729.76,-11.45 719.7,-8.14 719.83,-15.14"/>
</g>
<!-- Node5&#45;&gt;Node2 -->
<g id="edge7" class="edge">
<title>Node5&#45;&gt;Node2</title>
<path fill="none" stroke="midnightblue" d="M800.04,-112.37C793.2,-94.46 777.34,-52.92 768.18,-28.95"/>
<polygon fill="midnightblue" stroke="midnightblue" points="771.45,-27.69 764.61,-19.59 764.91,-30.18 771.45,-27.69"/>
</g>
<!-- Node5&#45;&gt;Node3 -->
<g id="edge9" class="edge">
<title>Node5&#45;&gt;Node3</title>
<path fill="none" stroke="midnightblue" d="M791.92,-112.32C781.22,-104.18 764.99,-91.84 752.17,-82.09"/>
<polygon fill="midnightblue" stroke="midnightblue" points="754.02,-79.1 743.95,-75.83 749.79,-84.67 754.02,-79.1"/>
</g>
<!-- Node6 -->
<g id="node6" class="node">
<title>Node6</title>
<g id="a_node6"><a xlink:title=" ">
<polygon fill="none" stroke="#bfbfbf" points="949.83,-56.5 949.83,-75.5 1002.83,-75.5 1002.83,-56.5 949.83,-56.5"/>
<text text-anchor="middle" x="976.33" y="-63.5" font-family="Helvetica,sans-Serif" font-size="10.00">string.h</text>
</a>
</g>
</g>
<!-- Node5&#45;&gt;Node6 -->
<g id="edge8" class="edge">
<title>Node5&#45;&gt;Node6</title>
<path fill="none" stroke="midnightblue" d="M830.74,-112.44C860.27,-103.23 907.4,-88.52 940,-78.34"/>
<polygon fill="midnightblue" stroke="midnightblue" points="941.11,-81.66 949.62,-75.34 939.03,-74.98 941.11,-81.66"/>
</g>
<!-- Node7&#45;&gt;Node3 -->
<g id="edge16" class="edge">
<title>Node7&#45;&gt;Node3</title>
<path fill="none" stroke="midnightblue" d="M579.17,-112.44C610.19,-103.24 659.66,-88.56 693.95,-78.39"/>
<polygon fill="midnightblue" stroke="midnightblue" points="695.04,-81.72 703.63,-75.52 693.05,-75.01 695.04,-81.72"/>
</g>
<!-- Node7&#45;&gt;Node6 -->
<g id="edge15" class="edge">
<title>Node7&#45;&gt;Node6</title>
<path fill="none" stroke="midnightblue" d="M599.36,-113.23C602.39,-112.8 605.4,-112.39 608.33,-112 752.32,-93.03 792.5,-101.67 939.82,-75.85"/>
<polygon fill="midnightblue" stroke="midnightblue" points="940.45,-79.29 949.68,-74.09 939.22,-72.4 940.45,-79.29"/>
</g>
<!-- Node8 -->
<g id="node8" class="node">
<title>Node8</title>
<g id="a_node8"><a xlink:title=" ">
<polygon fill="none" stroke="#bfbfbf" points="537.33,-56.5 537.33,-75.5 647.33,-75.5 647.33,-56.5 537.33,-56.5"/>
<text text-anchor="middle" x="592.33" y="-63.5" font-family="Helvetica,sans-Serif" font-size="10.00">Adafruit_BME680.h</text>
</a>
</g>
</g>
<!-- Node7&#45;&gt;Node8 -->
<g id="edge11" class="edge">
<title>Node7&#45;&gt;Node8</title>
<path fill="none" stroke="midnightblue" d="M557.27,-112.08C563.26,-104.38 572.08,-93.03 579.38,-83.65"/>
<polygon fill="midnightblue" stroke="midnightblue" points="582.15,-85.79 585.52,-75.75 576.62,-81.5 582.15,-85.79"/>
</g>
<!-- Node9 -->
<g id="node9" class="node">
<title>Node9</title>
<g id="a_node9"><a xlink:title=" ">
<polygon fill="none" stroke="#bfbfbf" points="357.33,-56.5 357.33,-75.5 459.33,-75.5 459.33,-56.5 357.33,-56.5"/>
<text text-anchor="middle" x="408.33" y="-63.5" font-family="Helvetica,sans-Serif" font-size="10.00">Adafruit_Sensor.h</text>
</a>
</g>
</g>
<!-- Node7&#45;&gt;Node9 -->
<g id="edge12" class="edge">
<title>Node7&#45;&gt;Node9</title>
<path fill="none" stroke="midnightblue" d="M527.83,-112.44C504.25,-103.48 467.01,-89.31 440.37,-79.18"/>
<polygon fill="midnightblue" stroke="midnightblue" points="441.32,-75.8 430.73,-75.52 438.83,-82.34 441.32,-75.8"/>
</g>
<!-- Node10 -->
<g id="node10" class="node">
<title>Node10</title>
<g id="a_node10"><a xlink:title=" ">
<polygon fill="none" stroke="#bfbfbf" points="477.83,-56.5 477.83,-75.5 518.83,-75.5 518.83,-56.5 477.83,-56.5"/>
<text text-anchor="middle" x="498.33" y="-63.5" font-family="Helvetica,sans-Serif" font-size="10.00">SPI.h</text>
</a>
</g>
</g>
<!-- Node7&#45;&gt;Node10 -->
<g id="edge13" class="edge">
<title>Node7&#45;&gt;Node10</title>
<path fill="none" stroke="midnightblue" d="M541.74,-112.08C534.17,-104.22 522.95,-92.57 513.82,-83.08"/>
<polygon fill="midnightblue" stroke="midnightblue" points="516.22,-80.53 506.76,-75.75 511.17,-85.38 516.22,-80.53"/>
</g>
<!-- Node11 -->
<g id="node11" class="node">
<title>Node11</title>
<g id="a_node11"><a xlink:title=" ">
<polygon fill="none" stroke="#bfbfbf" points="1222.33,-0.5 1222.33,-19.5 1270.33,-19.5 1270.33,-0.5 1222.33,-0.5"/>
<text text-anchor="middle" x="1246.33" y="-7.5" font-family="Helvetica,sans-Serif" font-size="10.00">Wire.h</text>
</a>
</g>
</g>
<!-- Node7&#45;&gt;Node11 -->
<g id="edge14" class="edge">
<title>Node7&#45;&gt;Node11</title>
<path fill="none" stroke="midnightblue" d="M572.08,-112.38C593.68,-103.68 627.61,-89.63 656.33,-76 673.57,-67.82 676,-61.33 694.33,-56 792.3,-27.52 1107.16,-15.33 1212,-12"/>
<polygon fill="midnightblue" stroke="midnightblue" points="1212.16,-15.5 1222.05,-11.69 1211.94,-8.5 1212.16,-15.5"/>
</g>
<!-- Node12&#45;&gt;Node2 -->
<g id="edge18" class="edge">
<title>Node12&#45;&gt;Node2</title>
<path fill="none" stroke="midnightblue" d="M281.21,-115.46C229.66,-107.42 156.22,-89.64 187.33,-56 223.31,-17.1 593.48,-11.77 719.55,-11.08"/>
<polygon fill="midnightblue" stroke="midnightblue" points="719.61,-14.58 729.59,-11.04 719.57,-7.58 719.61,-14.58"/>
</g>
<!-- Node12&#45;&gt;Node3 -->
<g id="edge19" class="edge">
<title>Node12&#45;&gt;Node3</title>
<path fill="none" stroke="midnightblue" d="M371.33,-113.51C374.72,-112.98 378.08,-112.47 381.33,-112 440.89,-103.31 614.92,-81.56 693.29,-71.83"/>
<polygon fill="midnightblue" stroke="midnightblue" points="693.75,-75.3 703.24,-70.6 692.89,-68.35 693.75,-75.3"/>
</g>
<!-- Node13&#45;&gt;Node2 -->
<g id="edge21" class="edge">
<title>Node13&#45;&gt;Node2</title>
<path fill="none" stroke="midnightblue" d="M407.08,-112.45C373.74,-101.3 326.52,-80.32 348.33,-56 372.84,-28.68 619.47,-16.36 719.51,-12.45"/>
<polygon fill="midnightblue" stroke="midnightblue" points="719.7,-15.95 729.56,-12.07 719.43,-8.95 719.7,-15.95"/>
</g>
<!-- Node13&#45;&gt;Node3 -->
<g id="edge24" class="edge">
<title>Node13&#45;&gt;Node3</title>
<path fill="none" stroke="midnightblue" d="M482.91,-112.5C540.87,-101.93 638.84,-84.06 693.14,-74.15"/>
<polygon fill="midnightblue" stroke="midnightblue" points="693.86,-77.58 703.07,-72.34 692.61,-70.69 693.86,-77.58"/>
</g>
<!-- Node13&#45;&gt;Node6 -->
<g id="edge22" class="edge">
<title>Node13&#45;&gt;Node6</title>
<path fill="none" stroke="midnightblue" d="M483.04,-113.21C486.18,-112.77 489.3,-112.36 492.33,-112 687.36,-88.53 741.43,-107.67 939.54,-75.83"/>
<polygon fill="midnightblue" stroke="midnightblue" points="940.39,-79.24 949.7,-74.18 939.26,-72.33 940.39,-79.24"/>
</g>
<!-- Node14 -->
<g id="node14" class="node">
<title>Node14</title>
<g id="a_node14"><a xlink:title=" ">
<polygon fill="none" stroke="#bfbfbf" points="195.83,-56.5 195.83,-75.5 300.83,-75.5 300.83,-56.5 195.83,-56.5"/>
<text text-anchor="middle" x="248.33" y="-63.5" font-family="Helvetica,sans-Serif" font-size="10.00">Adafruit_INA260.h</text>
</a>
</g>
</g>
<!-- Node13&#45;&gt;Node14 -->
<g id="edge23" class="edge">
<title>Node13&#45;&gt;Node14</title>
<path fill="none" stroke="midnightblue" d="M406.54,-112.44C374.5,-103.24 323.4,-88.56 287.98,-78.39"/>
<polygon fill="midnightblue" stroke="midnightblue" points="288.56,-74.91 277.98,-75.52 286.63,-81.64 288.56,-74.91"/>
</g>
<!-- Node15&#45;&gt;Node3 -->
<g id="edge28" class="edge">
<title>Node15&#45;&gt;Node3</title>
<path fill="none" stroke="midnightblue" d="M889.7,-112.44C857.74,-103.21 806.7,-88.48 771.46,-78.3"/>
<polygon fill="midnightblue" stroke="midnightblue" points="772.09,-74.84 761.52,-75.43 770.15,-81.56 772.09,-74.84"/>
</g>
<!-- Node15&#45;&gt;Node6 -->
<g id="edge27" class="edge">
<title>Node15&#45;&gt;Node6</title>
<path fill="none" stroke="midnightblue" d="M928.49,-112.32C936.83,-104.42 949.36,-92.55 959.51,-82.94"/>
<polygon fill="midnightblue" stroke="midnightblue" points="962.15,-85.25 967.01,-75.83 957.34,-80.17 962.15,-85.25"/>
</g>
<!-- Node16 -->
<g id="node16" class="node">
<title>Node16</title>
<g id="a_node16"><a xlink:title=" ">
<polygon fill="none" stroke="#bfbfbf" points="817.33,-56.5 817.33,-75.5 931.33,-75.5 931.33,-56.5 817.33,-56.5"/>
<text text-anchor="middle" x="874.33" y="-63.5" font-family="Helvetica,sans-Serif" font-size="10.00">Arduino_LSM9DS1.h</text>
</a>
</g>
</g>
<!-- Node15&#45;&gt;Node16 -->
<g id="edge26" class="edge">
<title>Node15&#45;&gt;Node16</title>
<path fill="none" stroke="midnightblue" d="M911.9,-112.08C905.48,-104.38 896.03,-93.03 888.21,-83.65"/>
<polygon fill="midnightblue" stroke="midnightblue" points="890.71,-81.19 881.62,-75.75 885.34,-85.67 890.71,-81.19"/>
</g>
<!-- Node17&#45;&gt;Node2 -->
<g id="edge30" class="edge">
<title>Node17&#45;&gt;Node2</title>
<path fill="none" stroke="midnightblue" d="M1283.89,-112.44C1265.6,-98 1226.05,-69.07 1187.33,-56 1116.77,-32.18 895.87,-18.09 803.06,-13.08"/>
<polygon fill="midnightblue" stroke="midnightblue" points="803.09,-9.58 792.92,-12.54 802.72,-16.57 803.09,-9.58"/>
</g>
<!-- Node17&#45;&gt;Node3 -->
<g id="edge34" class="edge">
<title>Node17&#45;&gt;Node3</title>
<path fill="none" stroke="midnightblue" d="M1249.61,-114.5C1242.83,-113.6 1235.9,-112.73 1229.33,-112 1042.7,-91.11 995.16,-95.04 808.33,-76 796.37,-74.78 783.37,-73.3 771.56,-71.89"/>
<polygon fill="midnightblue" stroke="midnightblue" points="771.89,-68.41 761.54,-70.68 771.05,-75.36 771.89,-68.41"/>
</g>
<!-- Node17&#45;&gt;Node6 -->
<g id="edge32" class="edge">
<title>Node17&#45;&gt;Node6</title>
<path fill="none" stroke="midnightblue" d="M1249.78,-113.43C1186.41,-102.67 1071.44,-83.15 1012.82,-73.2"/>
<polygon fill="midnightblue" stroke="midnightblue" points="1013.34,-69.73 1002.89,-71.51 1012.17,-76.64 1013.34,-69.73"/>
</g>
<!-- Node18 -->
<g id="node18" class="node">
<title>Node18</title>
<g id="a_node18"><a xlink:title=" ">
<polygon fill="none" stroke="#bfbfbf" points="1465.83,-0.5 1465.83,-19.5 1518.83,-19.5 1518.83,-0.5 1465.83,-0.5"/>
<text text-anchor="middle" x="1492.33" y="-7.5" font-family="Helvetica,sans-Serif" font-size="10.00">stdint.h</text>
</a>
</g>
</g>
<!-- Node17&#45;&gt;Node18 -->
<g id="edge31" class="edge">
<title>Node17&#45;&gt;Node18</title>
<path fill="none" stroke="midnightblue" d="M1339.05,-120.62C1410.74,-118.96 1546.37,-111.12 1576.33,-76 1595.12,-53.97 1559.27,-34.52 1528.73,-22.76"/>
<polygon fill="midnightblue" stroke="midnightblue" points="1529.67,-19.38 1519.07,-19.22 1527.26,-25.95 1529.67,-19.38"/>
</g>
<!-- Node19 -->
<g id="node19" class="node">
<title>Node19</title>
<g id="a_node19"><a xlink:title=" ">
<polygon fill="none" stroke="#bfbfbf" points="1465.83,-56.5 1465.83,-75.5 1566.83,-75.5 1566.83,-56.5 1465.83,-56.5"/>
<text text-anchor="middle" x="1516.33" y="-63.5" font-family="Helvetica,sans-Serif" font-size="10.00">Adafruit_SGP30.h</text>
</a>
</g>
</g>
<!-- Node17&#45;&gt;Node19 -->
<g id="edge33" class="edge">
<title>Node17&#45;&gt;Node19</title>
<path fill="none" stroke="midnightblue" d="M1329.51,-112.44C1367.91,-103.1 1429.51,-88.12 1471.39,-77.93"/>
<polygon fill="midnightblue" stroke="midnightblue" points="1472.43,-81.28 1481.32,-75.52 1470.78,-74.48 1472.43,-81.28"/>
</g>
<!-- Node20&#45;&gt;Node2 -->
<g id="edge36" class="edge">
<title>Node20&#45;&gt;Node2</title>
<path fill="none" stroke="midnightblue" d="M1034.06,-112.32C1033.13,-98.22 1029.12,-70.46 1012.33,-56 981.59,-29.52 866.19,-17.89 803.13,-13.42"/>
<polygon fill="midnightblue" stroke="midnightblue" points="803.32,-9.93 793.1,-12.74 802.84,-16.91 803.32,-9.93"/>
</g>
<!-- Node20&#45;&gt;Node3 -->
<g id="edge40" class="edge">
<title>Node20&#45;&gt;Node3</title>
<path fill="none" stroke="midnightblue" d="M989.77,-113.03C930.77,-102.48 827.64,-84.04 771.49,-74"/>
<polygon fill="midnightblue" stroke="midnightblue" points="772.03,-70.54 761.57,-72.23 770.8,-77.43 772.03,-70.54"/>
</g>
<!-- Node20&#45;&gt;Node6 -->
<g id="edge38" class="edge">
<title>Node20&#45;&gt;Node6</title>
<path fill="none" stroke="midnightblue" d="M1025.01,-112.32C1016.44,-104.34 1003.52,-92.31 993.14,-82.65"/>
<polygon fill="midnightblue" stroke="midnightblue" points="995.52,-80.09 985.82,-75.83 990.75,-85.21 995.52,-80.09"/>
</g>
<!-- Node20&#45;&gt;Node11 -->
<g id="edge37" class="edge">
<title>Node20&#45;&gt;Node11</title>
<path fill="none" stroke="midnightblue" d="M1072.92,-112.5C1101.09,-105.3 1139.57,-93.35 1170.33,-76 1193.81,-62.76 1216.76,-41.67 1231.19,-27.13"/>
<polygon fill="midnightblue" stroke="midnightblue" points="1233.84,-29.43 1238.28,-19.81 1228.81,-24.56 1233.84,-29.43"/>
</g>
<!-- Node21 -->
<g id="node21" class="node">
<title>Node21</title>
<g id="a_node21"><a xlink:title=" ">
<polygon fill="none" stroke="#bfbfbf" points="1059.83,-56.5 1059.83,-75.5 1160.83,-75.5 1160.83,-56.5 1059.83,-56.5"/>
<text text-anchor="middle" x="1110.33" y="-63.5" font-family="Helvetica,sans-Serif" font-size="10.00">Adafruit_SHT31.h</text>
</a>
</g>
</g>
<!-- Node20&#45;&gt;Node21 -->
<g id="edge39" class="edge">
<title>Node20&#45;&gt;Node21</title>
<path fill="none" stroke="midnightblue" d="M1046.54,-112.32C1058.11,-104.11 1075.71,-91.6 1089.49,-81.81"/>
<polygon fill="midnightblue" stroke="midnightblue" points="1091.77,-84.48 1097.9,-75.83 1087.72,-78.77 1091.77,-84.48"/>
</g>
<!-- Node22&#45;&gt;Node3 -->
<g id="edge42" class="edge">
<title>Node22&#45;&gt;Node3</title>
<path fill="none" stroke="midnightblue" d="M671.06,-112.32C682.17,-104.11 699.07,-91.6 712.31,-81.81"/>
<polygon fill="midnightblue" stroke="midnightblue" points="714.43,-84.59 720.39,-75.83 710.27,-78.97 714.43,-84.59"/>
</g>
<!-- Node23&#45;&gt;Node2 -->
<g id="edge44" class="edge">
<title>Node23&#45;&gt;Node2</title>
<path fill="none" stroke="midnightblue" d="M1172.81,-112.14C1177.61,-98.28 1184.19,-71.47 1170.33,-56 1146.13,-28.99 902.9,-16.51 803.41,-12.51"/>
<polygon fill="midnightblue" stroke="midnightblue" points="803.25,-9 793.12,-12.11 802.98,-16 803.25,-9"/>
</g>
<!-- Node23&#45;&gt;Node3 -->
<g id="edge47" class="edge">
<title>Node23&#45;&gt;Node3</title>
<path fill="none" stroke="midnightblue" d="M1117.92,-114.65C1029.5,-103.72 850.52,-81.6 771.43,-71.83"/>
<polygon fill="midnightblue" stroke="midnightblue" points="771.75,-68.34 761.4,-70.59 770.89,-75.29 771.75,-68.34"/>
</g>
<!-- Node23&#45;&gt;Node6 -->
<g id="edge46" class="edge">
<title>Node23&#45;&gt;Node6</title>
<path fill="none" stroke="midnightblue" d="M1138.75,-112.44C1104.55,-102.87 1049.19,-87.39 1012.78,-77.2"/>
<polygon fill="midnightblue" stroke="midnightblue" points="1013.61,-73.8 1003.04,-74.47 1011.73,-80.54 1013.61,-73.8"/>
</g>
<!-- Node23&#45;&gt;Node11 -->
<g id="edge45" class="edge">
<title>Node23&#45;&gt;Node11</title>
<path fill="none" stroke="midnightblue" d="M1194.05,-112.38C1210.4,-105.29 1230.72,-93.53 1241.33,-76 1249.67,-62.23 1250.29,-43.71 1249.19,-29.96"/>
<polygon fill="midnightblue" stroke="midnightblue" points="1252.63,-29.26 1247.99,-19.74 1245.68,-30.08 1252.63,-29.26"/>
</g>
<!-- Node24 -->
<g id="node24" class="node">
<title>Node24</title>
<g id="a_node24"><a xlink:href="ZOPT220x__Control_8h.html" target="_top" xlink:title=" ">
<polygon fill="none" stroke="black" points="1331.33,-56.5 1331.33,-75.5 1447.33,-75.5 1447.33,-56.5 1331.33,-56.5"/>
<text text-anchor="middle" x="1389.33" y="-63.5" font-family="Helvetica,sans-Serif" font-size="10.00">ZOPT220x_Control.h</text>
</a>
</g>
</g>
<!-- Node23&#45;&gt;Node24 -->
<g id="edge48" class="edge">
<title>Node23&#45;&gt;Node24</title>
<path fill="none" stroke="midnightblue" d="M1204.19,-112.44C1242.25,-103.1 1303.29,-88.12 1344.79,-77.93"/>
<polygon fill="midnightblue" stroke="midnightblue" points="1345.76,-81.3 1354.63,-75.52 1344.09,-74.5 1345.76,-81.3"/>
</g>
<!-- Node24&#45;&gt;Node2 -->
<g id="edge49" class="edge">
<title>Node24&#45;&gt;Node2</title>
<path fill="none" stroke="midnightblue" d="M1331.2,-57.51C1326.51,-56.98 1321.84,-56.46 1317.33,-56 1125.55,-36.26 895.81,-20.01 803.13,-13.76"/>
<polygon fill="midnightblue" stroke="midnightblue" points="803.25,-10.26 793.03,-13.08 802.78,-17.24 803.25,-10.26"/>
</g>
<!-- Node24&#45;&gt;Node11 -->
<g id="edge50" class="edge">
<title>Node24&#45;&gt;Node11</title>
<path fill="none" stroke="midnightblue" d="M1366.67,-56.44C1342.93,-47.48 1305.42,-33.31 1278.59,-23.18"/>
<polygon fill="midnightblue" stroke="midnightblue" points="1279.48,-19.77 1268.88,-19.52 1277,-26.32 1279.48,-19.77"/>
</g>
<!-- Node24&#45;&gt;Node18 -->
<g id="edge51" class="edge">
<title>Node24&#45;&gt;Node18</title>
<path fill="none" stroke="midnightblue" d="M1405.88,-56.32C1422.32,-47.7 1447.77,-34.36 1466.8,-24.39"/>
<polygon fill="midnightblue" stroke="midnightblue" points="1468.59,-27.4 1475.82,-19.65 1465.34,-21.2 1468.59,-27.4"/>
</g>
<!-- Node25&#45;&gt;Node4 -->
<g id="edge54" class="edge">
<title>Node25&#45;&gt;Node4</title>
<path fill="none" stroke="midnightblue" d="M108.25,-112.32C97.85,-104.18 82.07,-91.84 69.61,-82.09"/>
<polygon fill="midnightblue" stroke="midnightblue" points="71.65,-79.24 61.62,-75.83 67.34,-84.75 71.65,-79.24"/>
</g>
<!-- Node26 -->
<g id="node26" class="node">
<title>Node26</title>
<g id="a_node26"><a xlink:title=" ">
<polygon fill="none" stroke="#bfbfbf" points="99.83,-56.5 99.83,-75.5 138.83,-75.5 138.83,-56.5 99.83,-56.5"/>
<text text-anchor="middle" x="119.33" y="-63.5" font-family="Helvetica,sans-Serif" font-size="10.00">SD.h</text>
</a>
</g>
</g>
<!-- Node25&#45;&gt;Node26 -->
<g id="edge53" class="edge">
<title>Node25&#45;&gt;Node26</title>
<path fill="none" stroke="midnightblue" d="M119.33,-112.08C119.33,-105.01 119.33,-94.86 119.33,-85.99"/>
<polygon fill="midnightblue" stroke="midnightblue" points="122.83,-85.75 119.33,-75.75 115.83,-85.75 122.83,-85.75"/>
</g>
</g>
</svg>
        <g id="navigator" transform="translate(0 0)" fill="#404254">
                <rect fill="#f2f5e9" fill-opacity="0.5" stroke="#606060" stroke-width=".5" x="0" y="0" width="60" height="60"/>
                <use id="zoomplus" xlink:href="#zoomPlus" x="17" y="9" onmousedown="handleZoom(evt,'in')"/>
                <use id="zoomminus" xlink:href="#zoomMin" x="42" y="9" onmousedown="handleZoom(evt,'out')"/>
                <use id="reset" xlink:href="#resetDef" x="30" y="36" onmousedown="handleReset()"/>
                <g id="arrowUp" xlink:href="#dirArrow" transform="translate(30 24)" onmousedown="handlePan(0,-1)">
                  <use xlink:href="#rim" fill="#404040">
                        <set attributeName="fill" to="#808080" begin="arrowUp.mouseover" end="arrowUp.mouseout"/>
                  </use>
                  <path fill="none" stroke="white" stroke-width="1.5" d="M0,-3.0v7 M-2.5,-0.5L0,-3.0L2.5,-0.5"/>
                </g>
                <g id="arrowRight" xlink:href="#dirArrow" transform="rotate(90) translate(36 -43)" onmousedown="handlePan(1,0)">
                  <use xlink:href="#rim" fill="#404040">
                        <set attributeName="fill" to="#808080" begin="arrowRight.mouseover" end="arrowRight.mouseout"/>
                  </use>
                  <path fill="none" stroke="white" stroke-width="1.5" d="M0,-3.0v7 M-2.5,-0.5L0,-3.0L2.5,-0.5"/>
                </g>
                <g id="arrowDown" xlink:href="#dirArrow" transform="rotate(180) translate(-30 -48)" onmousedown="handlePan(0,1)">
                  <use xlink:href="#rim" fill="#404040">
                        <set attributeName="fill" to="#808080" begin="arrowDown.mouseover" end="arrowDown.mouseout"/>
                  </use>
                  <path fill="none" stroke="white" stroke-width="1.5" d="M0,-3.0v7 M-2.5,-0.5L0,-3.0L2.5,-0.5"/>
                </g>
                <g id="arrowLeft" xlink:href="#dirArrow" transform="rotate(270) translate(-36 17)" onmousedown="handlePan(-1,0)">
                  <use xlink:href="#rim" fill="#404040">
                        <set attributeName="fill" to="#808080" begin="arrowLeft.mouseover" end="arrowLeft.mouseout"/>
                  </use>
                  <path fill="none" stroke="white" stroke-width="1.5" d="M0,-3.0v7 M-2.5,-0.5L0,-3.0L2.5,-0.5"/>
                </g>
        </g>
        <svg viewBox="0 0 15 15" width="100%" height="30px" preserveAspectRatio="xMaxYMin meet">
         <g id="arrow_out" transform="scale(0.3 0.3)">
          <a xlink:href="main_8cpp__incl_org.svg" target="_base">
           <rect id="button" ry="5" rx="5" y="6" x="6" height="38" width="38"
                fill="#f2f5e9" fill-opacity="0.5" stroke="#606060" stroke-width="1.0"/>
           <path id="arrow"
             d="M 11.500037,31.436501 C 11.940474,20.09759 22.043105,11.32322 32.158766,21.979434 L 37.068811,17.246167 C 37.068811,17.246167 37.088388,32 37.088388,32 L 22.160133,31.978069 C 22.160133,31.978069 26.997745,27.140456 26.997745,27.140456 C 18.528582,18.264221 13.291696,25.230495 11.500037,31.436501 z"
             style="fill:#404040;"/>
          </a>
         </g>
        </svg>
</svg>
