<?xml version="1.0" encoding="UTF-8" standalone="no"?>
<!DOCTYPE svg PUBLIC "-//W3C//DTD SVG 1.1//EN"
 "http://www.w3.org/Graphics/SVG/1.1/DTD/svg11.dtd">
<!-- Generated by graphviz version 2.43.0 (0)
 -->
<!-- Title: setup1 Pages: 1 -->
<svg width="300pt" height="27pt"
 viewBox="0.00 0.00 300.00 27.00" xmlns="http://www.w3.org/2000/svg" xmlns:xlink="http://www.w3.org/1999/xlink">
<g id="graph0" class="graph" transform="scale(1 1) rotate(0) translate(4 23)">
<title>setup1</title>
<!-- Node1 -->
<g id="Node000001" class="node">
<title>Node1</title>
<g id="a_Node000001"><a xlink:title="Setup for core 1.">
<polygon fill="#999999" stroke="#666666" points="50,-19 0,-19 0,0 50,0 50,-19"/>
<text text-anchor="middle" x="25" y="-7" font-family="Helvetica,sans-Serif" font-size="10.00">setup1</text>
</a>
</g>
</g>
<!-- Node2 -->
<g id="Node000002" class="node">
<title>Node2</title>
<g id="a_Node000002"><a xlink:href="main_8cpp.html#a339ac134cdee34bfe9d5f539ab14ba00" target="_top" xlink:title="Verifies the connection with each storage device, and defines the header_condensed field.">
<polygon fill="white" stroke="#666666" points="168,-19 86,-19 86,0 168,0 168,-19"/>
<text text-anchor="middle" x="127" y="-7" font-family="Helvetica,sans-Serif" font-size="10.00">verifyStorage</text>
</a>
</g>
</g>
<!-- Node1&#45;&gt;Node2 -->
<g id="edge1_Node000001_Node000002" class="edge">
<title>Node1&#45;&gt;Node2</title>
<g id="a_edge1_Node000001_Node000002"><a xlink:title=" ">
<path fill="none" stroke="#63b8ff" d="M50.21,-9.5C57.85,-9.5 66.6,-9.5 75.38,-9.5"/>
<polygon fill="#63b8ff" stroke="#63b8ff" points="75.63,-13 85.63,-9.5 75.63,-6 75.63,-13"/>
</a>
</g>
</g>
<!-- Node3 -->
<g id="Node000003" class="node">
<title>Node3</title>
<g id="a_Node000003"><a xlink:href="classStorage.html#a83fbc910d2fe786ac9134f27a85bda8f" target="_top" xlink:title="Verifies connection with storage device.">
<polygon fill="white" stroke="#666666" points="292,-19 204,-19 204,0 292,0 292,-19"/>
<text text-anchor="middle" x="248" y="-7" font-family="Helvetica,sans-Serif" font-size="10.00">Storage::verify</text>
</a>
</g>
</g>
<!-- Node2&#45;&gt;Node3 -->
<g id="edge2_Node000002_Node000003" class="edge">
<title>Node2&#45;&gt;Node3</title>
<g id="a_edge2_Node000002_Node000003"><a xlink:title=" ">
<path fill="none" stroke="#63b8ff" d="M168.29,-9.5C176.44,-9.5 185.13,-9.5 193.64,-9.5"/>
<polygon fill="#63b8ff" stroke="#63b8ff" points="193.9,-13 203.9,-9.5 193.9,-6 193.9,-13"/>
</a>
</g>
</g>
</g>
</svg>
