<?xml version="1.0" encoding="UTF-8" standalone="no"?>
<!DOCTYPE svg PUBLIC "-//W3C//DTD SVG 1.1//EN"
 "http://www.w3.org/Graphics/SVG/1.1/DTD/svg11.dtd">
<!-- Generated by graphviz version 2.43.0 (0)
 -->
<!-- Title: loop1 Pages: 1 -->
<svg width="274pt" height="28pt"
 viewBox="0.00 0.00 274.00 28.00" xmlns="http://www.w3.org/2000/svg" xmlns:xlink="http://www.w3.org/1999/xlink">
<g id="graph0" class="graph" transform="scale(1 1) rotate(0) translate(4 24)">
<title>loop1</title>
<!-- Node1 -->
<g id="node1" class="node">
<title>Node1</title>
<g id="a_node1"><a xlink:title="Loop for core 1.">
<polygon fill="#bfbfbf" stroke="black" points="0,-0.5 0,-19.5 44,-19.5 44,-0.5 0,-0.5"/>
<text text-anchor="middle" x="22" y="-7.5" font-family="Helvetica,sans-Serif" font-size="10.00">loop1</text>
</a>
</g>
</g>
<!-- Node2 -->
<g id="node2" class="node">
<title>Node2</title>
<g id="a_node2"><a xlink:href="main_8cpp.html#a0f14b13edaa51207f1ff6752e4696ee7" target="_top" xlink:title="Sends data to each storage device, assumes storage devices take care of newline/data end themselves.">
<polygon fill="none" stroke="black" points="80,-0.5 80,-19.5 145,-19.5 145,-0.5 80,-0.5"/>
<text text-anchor="middle" x="112.5" y="-7.5" font-family="Helvetica,sans-Serif" font-size="10.00">storeData</text>
</a>
</g>
</g>
<!-- Node1&#45;&gt;Node2 -->
<g id="edge1" class="edge">
<title>Node1&#45;&gt;Node2</title>
<path fill="none" stroke="midnightblue" d="M44.42,-10C52.07,-10 60.97,-10 69.74,-10"/>
<polygon fill="midnightblue" stroke="midnightblue" points="69.89,-13.5 79.89,-10 69.89,-6.5 69.89,-13.5"/>
</g>
<!-- Node3 -->
<g id="node3" class="node">
<title>Node3</title>
<g id="a_node3"><a xlink:href="classStorage.html#a08674ceb4404690065b1cf39963eb5a3" target="_top" xlink:title="Send data to storage device.">
<polygon fill="none" stroke="black" points="181,-0.5 181,-19.5 266,-19.5 266,-0.5 181,-0.5"/>
<text text-anchor="middle" x="223.5" y="-7.5" font-family="Helvetica,sans-Serif" font-size="10.00">Storage::store</text>
</a>
</g>
</g>
<!-- Node2&#45;&gt;Node3 -->
<g id="edge2" class="edge">
<title>Node2&#45;&gt;Node3</title>
<path fill="none" stroke="midnightblue" d="M145.03,-10C153.07,-10 161.93,-10 170.7,-10"/>
<polygon fill="midnightblue" stroke="midnightblue" points="170.9,-13.5 180.9,-10 170.9,-6.5 170.9,-13.5"/>
</g>
</g>
</svg>
