<?xml version="1.0" encoding="UTF-8" standalone="no"?>
<!DOCTYPE svg PUBLIC "-//W3C//DTD SVG 1.1//EN"
 "http://www.w3.org/Graphics/SVG/1.1/DTD/svg11.dtd">
<!-- Generated by graphviz version 2.43.0 (0)
 -->
<!-- Title: main.cpp Pages: 1 -->
<!--zoomable 196 -->
<svg id="main" version="1.1" xmlns="http://www.w3.org/2000/svg" xmlns:xlink="http://www.w3.org/1999/xlink" xml:space="preserve" onload="init(evt)">
<style type="text/css"><![CDATA[
.edge:hover path { stroke: red; }
.edge:hover polygon { stroke: red; fill: red; }
]]></style>
<script type="text/javascript"><![CDATA[
var edges = document.getElementsByTagName('g');
if (edges && edges.length) {
  for (var i=0;i<edges.length;i++) {
    if (edges[i].id.substr(0,4)=='edge') {
      edges[i].setAttribute('class','edge');
    }
  }
}
]]></script>
        <defs>
                <circle id="rim" cx="0" cy="0" r="7"/>
                <circle id="rim2" cx="0" cy="0" r="3.5"/>
                <g id="zoomPlus">
                        <use xlink:href="#rim" fill="#404040">
                                <set attributeName="fill" to="#808080" begin="zoomplus.mouseover" end="zoomplus.mouseout"/>
                        </use>
                        <path d="M-4,0h8M0,-4v8" fill="none" stroke="white" stroke-width="1.5" pointer-events="none"/>
                </g>
                <g id="zoomMin">
                        <use xlink:href="#rim" fill="#404040">
                                <set attributeName="fill" to="#808080" begin="zoomminus.mouseover" end="zoomminus.mouseout"/>
                        </use>
                        <path d="M-4,0h8" fill="none" stroke="white" stroke-width="1.5" pointer-events="none"/>
                </g>
                <g id="dirArrow">
                        <path fill="none" stroke="white" stroke-width="1.5" d="M0,-3.0v7 M-2.5,-0.5L0,-3.0L2.5,-0.5"/>
                </g>
               <g id="resetDef">
                       <use xlink:href="#rim2" fill="#404040">
                               <set attributeName="fill" to="#808080" begin="reset.mouseover" end="reset.mouseout"/>
                       </use>
               </g>
        </defs>

<script type="text/javascript">
var viewWidth = 2221;
var viewHeight = 196;
var sectionId = 'dynsection-0';
</script>
<script xlink:href="svgpan.js"/>
<svg id="graph" class="graph">
<g id="viewport">
<title>main.cpp</title>
<!-- Node1 -->
<g id="node1" class="node">
<title>Node1</title>
<g id="a_node1"><a xlink:title=" ">
<polygon fill="#bfbfbf" stroke="black" points="1212,-168.5 1212,-187.5 1274,-187.5 1274,-168.5 1212,-168.5"/>
<text text-anchor="middle" x="1243" y="-175.5" font-family="Helvetica,sans-Serif" font-size="10.00">main.cpp</text>
</a>
</g>
</g>
<!-- Node2 -->
<g id="node2" class="node">
<title>Node2</title>
<g id="a_node2"><a xlink:title=" ">
<polygon fill="none" stroke="#bfbfbf" points="1269.5,-0.5 1269.5,-19.5 1332.5,-19.5 1332.5,-0.5 1269.5,-0.5"/>
<text text-anchor="middle" x="1301" y="-7.5" font-family="Helvetica,sans-Serif" font-size="10.00">Arduino.h</text>
</a>
</g>
</g>
<!-- Node1&#45;&gt;Node2 -->
<g id="edge1" class="edge">
<title>Node1&#45;&gt;Node2</title>
<path fill="none" stroke="midnightblue" d="M1274.26,-176.3C1420.71,-172.9 2035.24,-157.21 2117,-132 2162.74,-117.89 2185.55,-117.73 2209,-76 2213.35,-68.25 2215.13,-62.44 2209,-56 2178.78,-24.24 1516.9,-13.71 1342.7,-11.49"/>
<polygon fill="midnightblue" stroke="midnightblue" points="1342.69,-7.98 1332.64,-11.36 1342.6,-14.98 1342.69,-7.98"/>
</g>
<!-- Node3 -->
<g id="node3" class="node">
<title>Node3</title>
<g id="a_node3"><a xlink:href="ErrorDisplay_8h.html" target="_top" xlink:title=" ">
<polygon fill="none" stroke="black" points="48,-56.5 48,-75.5 132,-75.5 132,-56.5 48,-56.5"/>
<text text-anchor="middle" x="90" y="-63.5" font-family="Helvetica,sans-Serif" font-size="10.00">ErrorDisplay.h</text>
</a>
</g>
</g>
<!-- Node1&#45;&gt;Node3 -->
<g id="edge2" class="edge">
<title>Node1&#45;&gt;Node3</title>
<path fill="none" stroke="midnightblue" d="M1211.86,-176.63C1035.68,-174.45 170.06,-162.2 123,-132 106.89,-121.66 98.29,-100.84 93.96,-85.54"/>
<polygon fill="midnightblue" stroke="midnightblue" points="97.3,-84.47 91.51,-75.6 90.51,-86.15 97.3,-84.47"/>
</g>
<!-- Node6 -->
<g id="node6" class="node">
<title>Node6</title>
<g id="a_node6"><a xlink:href="Sensor_8h.html" target="_top" xlink:title=" ">
<polygon fill="none" stroke="black" points="1527,-56.5 1527,-75.5 1585,-75.5 1585,-56.5 1527,-56.5"/>
<text text-anchor="middle" x="1556" y="-63.5" font-family="Helvetica,sans-Serif" font-size="10.00">Sensor.h</text>
</a>
</g>
</g>
<!-- Node1&#45;&gt;Node6 -->
<g id="edge6" class="edge">
<title>Node1&#45;&gt;Node6</title>
<path fill="none" stroke="midnightblue" d="M1274.13,-170.78C1308.17,-163.48 1364.02,-150.04 1410,-132 1427.77,-125.03 1430.73,-120.12 1448,-112 1473.34,-100.08 1502.72,-87.95 1524.43,-79.29"/>
<polygon fill="midnightblue" stroke="midnightblue" points="1525.81,-82.5 1533.82,-75.57 1523.24,-75.99 1525.81,-82.5"/>
</g>
<!-- Node7 -->
<g id="node7" class="node">
<title>Node7</title>
<g id="a_node7"><a xlink:href="Storage_8h.html" target="_top" xlink:title=" ">
<polygon fill="none" stroke="black" points="207.5,-56.5 207.5,-75.5 270.5,-75.5 270.5,-56.5 207.5,-56.5"/>
<text text-anchor="middle" x="239" y="-63.5" font-family="Helvetica,sans-Serif" font-size="10.00">Storage.h</text>
</a>
</g>
</g>
<!-- Node1&#45;&gt;Node7 -->
<g id="edge8" class="edge">
<title>Node1&#45;&gt;Node7</title>
<path fill="none" stroke="midnightblue" d="M1211.87,-176.59C1048.53,-174.3 296.38,-162.16 258,-132 244.3,-121.23 240.09,-101.14 238.98,-86.14"/>
<polygon fill="midnightblue" stroke="midnightblue" points="242.47,-85.76 238.63,-75.89 235.48,-86.01 242.47,-85.76"/>
</g>
<!-- Node8 -->
<g id="node8" class="node">
<title>Node8</title>
<g id="a_node8"><a xlink:href="AS7331Sensor_8h.html" target="_top" xlink:title=" ">
<polygon fill="none" stroke="black" points="1085.5,-112.5 1085.5,-131.5 1180.5,-131.5 1180.5,-112.5 1085.5,-112.5"/>
<text text-anchor="middle" x="1133" y="-119.5" font-family="Helvetica,sans-Serif" font-size="10.00">AS7331Sensor.h</text>
</a>
</g>
</g>
<!-- Node1&#45;&gt;Node8 -->
<g id="edge10" class="edge">
<title>Node1&#45;&gt;Node8</title>
<path fill="none" stroke="midnightblue" d="M1225.33,-168.32C1207.61,-159.62 1180.1,-146.12 1159.71,-136.11"/>
<polygon fill="midnightblue" stroke="midnightblue" points="1161.15,-132.92 1150.63,-131.65 1158.06,-139.2 1161.15,-132.92"/>
</g>
<!-- Node12 -->
<g id="node12" class="node">
<title>Node12</title>
<g id="a_node12"><a xlink:href="AnalogSensor_8h.html" target="_top" xlink:title=" ">
<polygon fill="none" stroke="black" points="975,-112.5 975,-131.5 1067,-131.5 1067,-112.5 975,-112.5"/>
<text text-anchor="middle" x="1021" y="-119.5" font-family="Helvetica,sans-Serif" font-size="10.00">AnalogSensor.h</text>
</a>
</g>
</g>
<!-- Node1&#45;&gt;Node12 -->
<g id="edge15" class="edge">
<title>Node1&#45;&gt;Node12</title>
<path fill="none" stroke="midnightblue" d="M1211.66,-169.38C1173.71,-160.15 1109.5,-144.53 1066.19,-133.99"/>
<polygon fill="midnightblue" stroke="midnightblue" points="1066.75,-130.53 1056.21,-131.56 1065.1,-137.33 1066.75,-130.53"/>
</g>
<!-- Node13 -->
<g id="node13" class="node">
<title>Node13</title>
<g id="a_node13"><a xlink:href="BME280Sensor_8h.html" target="_top" xlink:title=" ">
<polygon fill="none" stroke="black" points="1896,-112.5 1896,-131.5 1994,-131.5 1994,-112.5 1896,-112.5"/>
<text text-anchor="middle" x="1945" y="-119.5" font-family="Helvetica,sans-Serif" font-size="10.00">BME280Sensor.h</text>
</a>
</g>
</g>
<!-- Node1&#45;&gt;Node13 -->
<g id="edge19" class="edge">
<title>Node1&#45;&gt;Node13</title>
<path fill="none" stroke="midnightblue" d="M1274.3,-175.78C1366.49,-171.99 1645.18,-159.07 1885.92,-132.16"/>
<polygon fill="midnightblue" stroke="midnightblue" points="1886.37,-135.63 1895.91,-131.03 1885.58,-128.67 1886.37,-135.63"/>
</g>
<!-- Node15 -->
<g id="node15" class="node">
<title>Node15</title>
<g id="a_node15"><a xlink:href="BME680Sensor_8h.html" target="_top" xlink:title=" ">
<polygon fill="none" stroke="black" points="747,-112.5 747,-131.5 845,-131.5 845,-112.5 747,-112.5"/>
<text text-anchor="middle" x="796" y="-119.5" font-family="Helvetica,sans-Serif" font-size="10.00">BME680Sensor.h</text>
</a>
</g>
</g>
<!-- Node1&#45;&gt;Node15 -->
<g id="edge22" class="edge">
<title>Node1&#45;&gt;Node15</title>
<path fill="none" stroke="midnightblue" d="M1211.77,-173.76C1147.34,-167 994.78,-150.57 855.26,-131.99"/>
<polygon fill="midnightblue" stroke="midnightblue" points="855.61,-128.5 845.24,-130.65 854.68,-135.44 855.61,-128.5"/>
</g>
<!-- Node19 -->
<g id="node19" class="node">
<title>Node19</title>
<g id="a_node19"><a xlink:href="DS3231Sensor_8h.html" target="_top" xlink:title=" ">
<polygon fill="none" stroke="black" points="2012.5,-112.5 2012.5,-131.5 2107.5,-131.5 2107.5,-112.5 2012.5,-112.5"/>
<text text-anchor="middle" x="2060" y="-119.5" font-family="Helvetica,sans-Serif" font-size="10.00">DS3231Sensor.h</text>
</a>
</g>
</g>
<!-- Node1&#45;&gt;Node19 -->
<g id="edge29" class="edge">
<title>Node1&#45;&gt;Node19</title>
<path fill="none" stroke="midnightblue" d="M1274.22,-176.24C1376.83,-173.52 1713.12,-162.78 2002.2,-131.97"/>
<polygon fill="midnightblue" stroke="midnightblue" points="2002.89,-135.41 2012.46,-130.86 2002.14,-128.45 2002.89,-135.41"/>
</g>
<!-- Node21 -->
<g id="node21" class="node">
<title>Node21</title>
<g id="a_node21"><a xlink:href="ENS160Sensor_8h.html" target="_top" xlink:title=" ">
<polygon fill="none" stroke="black" points="1305.5,-112.5 1305.5,-131.5 1400.5,-131.5 1400.5,-112.5 1305.5,-112.5"/>
<text text-anchor="middle" x="1353" y="-119.5" font-family="Helvetica,sans-Serif" font-size="10.00">ENS160Sensor.h</text>
</a>
</g>
</g>
<!-- Node1&#45;&gt;Node21 -->
<g id="edge32" class="edge">
<title>Node1&#45;&gt;Node21</title>
<path fill="none" stroke="midnightblue" d="M1260.67,-168.32C1278.39,-159.62 1305.9,-146.12 1326.29,-136.11"/>
<polygon fill="midnightblue" stroke="midnightblue" points="1327.94,-139.2 1335.37,-131.65 1324.85,-132.92 1327.94,-139.2"/>
</g>
<!-- Node23 -->
<g id="node23" class="node">
<title>Node23</title>
<g id="a_node23"><a xlink:href="GeigerSensor_8h.html" target="_top" xlink:title=" ">
<polygon fill="none" stroke="black" points="1681,-112.5 1681,-131.5 1771,-131.5 1771,-112.5 1681,-112.5"/>
<text text-anchor="middle" x="1726" y="-119.5" font-family="Helvetica,sans-Serif" font-size="10.00">GeigerSensor.h</text>
</a>
</g>
</g>
<!-- Node1&#45;&gt;Node23 -->
<g id="edge36" class="edge">
<title>Node1&#45;&gt;Node23</title>
<path fill="none" stroke="midnightblue" d="M1274.03,-174.4C1343.26,-168.45 1515.77,-152.85 1670.77,-132.09"/>
<polygon fill="midnightblue" stroke="midnightblue" points="1671.51,-135.52 1680.95,-130.72 1670.57,-128.59 1671.51,-135.52"/>
</g>
<!-- Node24 -->
<g id="node24" class="node">
<title>Node24</title>
<g id="a_node24"><a xlink:href="INA260Sensor_8h.html" target="_top" xlink:title=" ">
<polygon fill="none" stroke="black" points="863.5,-112.5 863.5,-131.5 956.5,-131.5 956.5,-112.5 863.5,-112.5"/>
<text text-anchor="middle" x="910" y="-119.5" font-family="Helvetica,sans-Serif" font-size="10.00">INA260Sensor.h</text>
</a>
</g>
</g>
<!-- Node1&#45;&gt;Node24 -->
<g id="edge39" class="edge">
<title>Node1&#45;&gt;Node24</title>
<path fill="none" stroke="midnightblue" d="M1211.97,-171.97C1156.03,-162.9 1037.53,-143.68 966.74,-132.2"/>
<polygon fill="midnightblue" stroke="midnightblue" points="967.09,-128.71 956.66,-130.57 965.97,-135.62 967.09,-128.71"/>
</g>
<!-- Node26 -->
<g id="node26" class="node">
<title>Node26</title>
<g id="a_node26"><a xlink:href="LSM9DS1Sensor_8h.html" target="_top" xlink:title=" ">
<polygon fill="none" stroke="black" points="625,-112.5 625,-131.5 729,-131.5 729,-112.5 625,-112.5"/>
<text text-anchor="middle" x="677" y="-119.5" font-family="Helvetica,sans-Serif" font-size="10.00">LSM9DS1Sensor.h</text>
</a>
</g>
</g>
<!-- Node1&#45;&gt;Node26 -->
<g id="edge44" class="edge">
<title>Node1&#45;&gt;Node26</title>
<path fill="none" stroke="midnightblue" d="M1211.9,-174.86C1134.13,-169.36 924.73,-153.74 739.42,-132.11"/>
<polygon fill="midnightblue" stroke="midnightblue" points="739.56,-128.6 729.22,-130.91 738.74,-135.55 739.56,-128.6"/>
</g>
<!-- Node28 -->
<g id="node28" class="node">
<title>Node28</title>
<g id="a_node28"><a xlink:href="MTK3339Sensor_8h.html" target="_top" xlink:title=" ">
<polygon fill="none" stroke="black" points="1559,-112.5 1559,-131.5 1663,-131.5 1663,-112.5 1559,-112.5"/>
<text text-anchor="middle" x="1611" y="-119.5" font-family="Helvetica,sans-Serif" font-size="10.00">MTK3339Sensor.h</text>
</a>
</g>
</g>
<!-- Node1&#45;&gt;Node28 -->
<g id="edge49" class="edge">
<title>Node1&#45;&gt;Node28</title>
<path fill="none" stroke="midnightblue" d="M1274.38,-172.41C1328.26,-164.53 1442.11,-147.86 1548.79,-132.18"/>
<polygon fill="midnightblue" stroke="midnightblue" points="1549.37,-135.63 1558.76,-130.71 1548.35,-128.7 1549.37,-135.63"/>
</g>
<!-- Node30 -->
<g id="node30" class="node">
<title>Node30</title>
<g id="a_node30"><a xlink:href="SGP30Sensor_8h.html" target="_top" xlink:title=" ">
<polygon fill="none" stroke="black" points="1789.5,-112.5 1789.5,-131.5 1878.5,-131.5 1878.5,-112.5 1789.5,-112.5"/>
<text text-anchor="middle" x="1834" y="-119.5" font-family="Helvetica,sans-Serif" font-size="10.00">SGP30Sensor.h</text>
</a>
</g>
</g>
<!-- Node1&#45;&gt;Node30 -->
<g id="edge54" class="edge">
<title>Node1&#45;&gt;Node30</title>
<path fill="none" stroke="midnightblue" d="M1274.27,-175.27C1355.64,-170.59 1580.89,-156.42 1779.23,-131.99"/>
<polygon fill="midnightblue" stroke="midnightblue" points="1779.76,-135.45 1789.25,-130.75 1778.9,-128.51 1779.76,-135.45"/>
</g>
<!-- Node33 -->
<g id="node33" class="node">
<title>Node33</title>
<g id="a_node33"><a xlink:href="SHT31Sensor_8h.html" target="_top" xlink:title=" ">
<polygon fill="none" stroke="black" points="1198.5,-112.5 1198.5,-131.5 1287.5,-131.5 1287.5,-112.5 1198.5,-112.5"/>
<text text-anchor="middle" x="1243" y="-119.5" font-family="Helvetica,sans-Serif" font-size="10.00">SHT31Sensor.h</text>
</a>
</g>
</g>
<!-- Node1&#45;&gt;Node33 -->
<g id="edge60" class="edge">
<title>Node1&#45;&gt;Node33</title>
<path fill="none" stroke="midnightblue" d="M1243,-168.08C1243,-161.01 1243,-150.86 1243,-141.99"/>
<polygon fill="midnightblue" stroke="midnightblue" points="1246.5,-141.75 1243,-131.75 1239.5,-141.75 1246.5,-141.75"/>
</g>
<!-- Node35 -->
<g id="node35" class="node">
<title>Node35</title>
<g id="a_node35"><a xlink:href="TempSensor_8h.html" target="_top" xlink:title=" ">
<polygon fill="none" stroke="black" points="1457,-112.5 1457,-131.5 1541,-131.5 1541,-112.5 1457,-112.5"/>
<text text-anchor="middle" x="1499" y="-119.5" font-family="Helvetica,sans-Serif" font-size="10.00">TempSensor.h</text>
</a>
</g>
</g>
<!-- Node1&#45;&gt;Node35 -->
<g id="edge66" class="edge">
<title>Node1&#45;&gt;Node35</title>
<path fill="none" stroke="midnightblue" d="M1274.13,-170.43C1317.48,-161.29 1396.52,-144.62 1448.4,-133.67"/>
<polygon fill="midnightblue" stroke="midnightblue" points="1449.34,-137.05 1458.4,-131.56 1447.89,-130.2 1449.34,-137.05"/>
</g>
<!-- Node36 -->
<g id="node36" class="node">
<title>Node36</title>
<g id="a_node36"><a xlink:href="RadioStorage_8h.html" target="_top" xlink:title=" ">
<polygon fill="none" stroke="black" points="267.5,-112.5 267.5,-131.5 358.5,-131.5 358.5,-112.5 267.5,-112.5"/>
<text text-anchor="middle" x="313" y="-119.5" font-family="Helvetica,sans-Serif" font-size="10.00">RadioStorage.h</text>
</a>
</g>
</g>
<!-- Node1&#45;&gt;Node36 -->
<g id="edge68" class="edge">
<title>Node1&#45;&gt;Node36</title>
<path fill="none" stroke="midnightblue" d="M1211.79,-175.19C1076.92,-167.36 543.06,-136.36 368.53,-126.22"/>
<polygon fill="midnightblue" stroke="midnightblue" points="368.72,-122.73 358.54,-125.64 368.32,-129.72 368.72,-122.73"/>
</g>
<!-- Node37 -->
<g id="node37" class="node">
<title>Node37</title>
<g id="a_node37"><a xlink:href="SDStorage_8h.html" target="_top" xlink:title=" ">
<polygon fill="none" stroke="black" points="132.5,-112.5 132.5,-131.5 209.5,-131.5 209.5,-112.5 132.5,-112.5"/>
<text text-anchor="middle" x="171" y="-119.5" font-family="Helvetica,sans-Serif" font-size="10.00">SDStorage.h</text>
</a>
</g>
</g>
<!-- Node1&#45;&gt;Node37 -->
<g id="edge71" class="edge">
<title>Node1&#45;&gt;Node37</title>
<path fill="none" stroke="midnightblue" d="M1211.66,-176.99C1086.76,-176.68 612.51,-172.71 225,-132 223.28,-131.82 221.53,-131.62 219.76,-131.4"/>
<polygon fill="midnightblue" stroke="midnightblue" points="219.95,-127.89 209.56,-130.01 219,-134.83 219.95,-127.89"/>
</g>
<!-- Node3&#45;&gt;Node2 -->
<g id="edge3" class="edge">
<title>Node3&#45;&gt;Node2</title>
<path fill="none" stroke="midnightblue" d="M132.24,-57.09C135.2,-56.68 138.14,-56.31 141,-56 575.94,-9.41 1107.18,-9.47 1258.8,-10.57"/>
<polygon fill="midnightblue" stroke="midnightblue" points="1259.03,-14.07 1269.05,-10.65 1259.08,-7.07 1259.03,-14.07"/>
</g>
<!-- Node4 -->
<g id="node4" class="node">
<title>Node4</title>
<g id="a_node4"><a xlink:title=" ">
<polygon fill="none" stroke="#bfbfbf" points="94.5,-0.5 94.5,-19.5 189.5,-19.5 189.5,-0.5 94.5,-0.5"/>
<text text-anchor="middle" x="142" y="-7.5" font-family="Helvetica,sans-Serif" font-size="10.00">pico/multicore.h</text>
</a>
</g>
</g>
<!-- Node3&#45;&gt;Node4 -->
<g id="edge4" class="edge">
<title>Node3&#45;&gt;Node4</title>
<path fill="none" stroke="midnightblue" d="M98.59,-56.08C106.16,-48.22 117.38,-36.57 126.51,-27.08"/>
<polygon fill="midnightblue" stroke="midnightblue" points="129.16,-29.38 133.57,-19.75 124.12,-24.53 129.16,-29.38"/>
</g>
<!-- Node5 -->
<g id="node5" class="node">
<title>Node5</title>
<g id="a_node5"><a xlink:title=" ">
<polygon fill="none" stroke="#bfbfbf" points="0,-0.5 0,-19.5 76,-19.5 76,-0.5 0,-0.5"/>
<text text-anchor="middle" x="38" y="-7.5" font-family="Helvetica,sans-Serif" font-size="10.00">pico/stdlib.h</text>
</a>
</g>
</g>
<!-- Node3&#45;&gt;Node5 -->
<g id="edge5" class="edge">
<title>Node3&#45;&gt;Node5</title>
<path fill="none" stroke="midnightblue" d="M81.41,-56.08C73.84,-48.22 62.62,-36.57 53.49,-27.08"/>
<polygon fill="midnightblue" stroke="midnightblue" points="55.88,-24.53 46.43,-19.75 50.84,-29.38 55.88,-24.53"/>
</g>
<!-- Node6&#45;&gt;Node2 -->
<g id="edge7" class="edge">
<title>Node6&#45;&gt;Node2</title>
<path fill="none" stroke="midnightblue" d="M1526.97,-58.04C1523.95,-57.34 1520.91,-56.65 1518,-56 1457.15,-42.49 1386.41,-28.05 1342.67,-19.28"/>
<polygon fill="midnightblue" stroke="midnightblue" points="1343.18,-15.81 1332.68,-17.28 1341.8,-22.68 1343.18,-15.81"/>
</g>
<!-- Node7&#45;&gt;Node2 -->
<g id="edge9" class="edge">
<title>Node7&#45;&gt;Node2</title>
<path fill="none" stroke="midnightblue" d="M270.58,-58.18C275.39,-57.33 280.31,-56.56 285,-56 660.91,-11.15 1119.85,-9.86 1259.04,-10.63"/>
<polygon fill="midnightblue" stroke="midnightblue" points="1259.24,-14.13 1269.26,-10.69 1259.28,-7.13 1259.24,-14.13"/>
</g>
<!-- Node8&#45;&gt;Node6 -->
<g id="edge14" class="edge">
<title>Node8&#45;&gt;Node6</title>
<path fill="none" stroke="midnightblue" d="M1180.56,-113.32C1183.75,-112.86 1186.92,-112.41 1190,-112 1332.09,-93 1371.72,-100.58 1516.47,-76.08"/>
<polygon fill="midnightblue" stroke="midnightblue" points="1517.35,-79.48 1526.62,-74.34 1516.17,-72.58 1517.35,-79.48"/>
</g>
<!-- Node9 -->
<g id="node9" class="node">
<title>Node9</title>
<g id="a_node9"><a xlink:title=" ">
<polygon fill="none" stroke="#bfbfbf" points="1040.5,-56.5 1040.5,-75.5 1153.5,-75.5 1153.5,-56.5 1040.5,-56.5"/>
<text text-anchor="middle" x="1097" y="-63.5" font-family="Helvetica,sans-Serif" font-size="10.00">SparkFun_AS7331.h</text>
</a>
</g>
</g>
<!-- Node8&#45;&gt;Node9 -->
<g id="edge11" class="edge">
<title>Node8&#45;&gt;Node9</title>
<path fill="none" stroke="midnightblue" d="M1127.06,-112.08C1122.02,-104.53 1114.66,-93.49 1108.49,-84.23"/>
<polygon fill="midnightblue" stroke="midnightblue" points="1111.29,-82.13 1102.83,-75.75 1105.47,-86.01 1111.29,-82.13"/>
</g>
<!-- Node10 -->
<g id="node10" class="node">
<title>Node10</title>
<g id="a_node10"><a xlink:title=" ">
<polygon fill="none" stroke="#bfbfbf" points="1329,-56.5 1329,-75.5 1377,-75.5 1377,-56.5 1329,-56.5"/>
<text text-anchor="middle" x="1353" y="-63.5" font-family="Helvetica,sans-Serif" font-size="10.00">Wire.h</text>
</a>
</g>
</g>
<!-- Node8&#45;&gt;Node10 -->
<g id="edge12" class="edge">
<title>Node8&#45;&gt;Node10</title>
<path fill="none" stroke="midnightblue" d="M1167.86,-112.44C1209.3,-102.27 1277.99,-85.41 1319.03,-75.34"/>
<polygon fill="midnightblue" stroke="midnightblue" points="1319.96,-78.71 1328.84,-72.93 1318.29,-71.92 1319.96,-78.71"/>
</g>
<!-- Node11 -->
<g id="node11" class="node">
<title>Node11</title>
<g id="a_node11"><a xlink:title=" ">
<polygon fill="none" stroke="#bfbfbf" points="930.5,-56.5 930.5,-75.5 983.5,-75.5 983.5,-56.5 930.5,-56.5"/>
<text text-anchor="middle" x="957" y="-63.5" font-family="Helvetica,sans-Serif" font-size="10.00">string.h</text>
</a>
</g>
</g>
<!-- Node8&#45;&gt;Node11 -->
<g id="edge13" class="edge">
<title>Node8&#45;&gt;Node11</title>
<path fill="none" stroke="midnightblue" d="M1105.11,-112.44C1074.89,-103.17 1026.56,-88.34 993.38,-78.16"/>
<polygon fill="midnightblue" stroke="midnightblue" points="994.19,-74.75 983.61,-75.16 992.14,-81.44 994.19,-74.75"/>
</g>
<!-- Node12&#45;&gt;Node2 -->
<g id="edge16" class="edge">
<title>Node12&#45;&gt;Node2</title>
<path fill="none" stroke="midnightblue" d="M1019.64,-112.45C1017.95,-98.54 1016.93,-71.04 1032,-56 1063.25,-24.8 1191.77,-15.18 1259.22,-12.25"/>
<polygon fill="midnightblue" stroke="midnightblue" points="1259.65,-15.74 1269.5,-11.84 1259.36,-8.74 1259.65,-15.74"/>
</g>
<!-- Node12&#45;&gt;Node6 -->
<g id="edge18" class="edge">
<title>Node12&#45;&gt;Node6</title>
<path fill="none" stroke="midnightblue" d="M1067.1,-113.3C1070.45,-112.83 1073.77,-112.39 1077,-112 1268.99,-88.77 1322.02,-106.15 1516.65,-75.99"/>
<polygon fill="midnightblue" stroke="midnightblue" points="1517.29,-79.43 1526.63,-74.42 1516.21,-72.51 1517.29,-79.43"/>
</g>
<!-- Node12&#45;&gt;Node11 -->
<g id="edge17" class="edge">
<title>Node12&#45;&gt;Node11</title>
<path fill="none" stroke="midnightblue" d="M1010.72,-112.32C1001.16,-104.26 986.72,-92.08 975.22,-82.37"/>
<polygon fill="midnightblue" stroke="midnightblue" points="977.37,-79.61 967.47,-75.83 972.86,-84.96 977.37,-79.61"/>
</g>
<!-- Node13&#45;&gt;Node6 -->
<g id="edge20" class="edge">
<title>Node13&#45;&gt;Node6</title>
<path fill="none" stroke="midnightblue" d="M1895.89,-113.14C1893.22,-112.74 1890.58,-112.36 1888,-112 1761.24,-94.21 1725.92,-98.55 1595.31,-75.87"/>
<polygon fill="midnightblue" stroke="midnightblue" points="1595.77,-72.4 1585.32,-74.11 1594.56,-79.29 1595.77,-72.4"/>
</g>
<!-- Node14 -->
<g id="node14" class="node">
<title>Node14</title>
<g id="a_node14"><a xlink:title=" ">
<polygon fill="none" stroke="#bfbfbf" points="2016,-56.5 2016,-75.5 2126,-75.5 2126,-56.5 2016,-56.5"/>
<text text-anchor="middle" x="2071" y="-63.5" font-family="Helvetica,sans-Serif" font-size="10.00">SparkFunBME280.h</text>
</a>
</g>
</g>
<!-- Node13&#45;&gt;Node14 -->
<g id="edge21" class="edge">
<title>Node13&#45;&gt;Node14</title>
<path fill="none" stroke="midnightblue" d="M1964.97,-112.44C1985.61,-103.6 2018.06,-89.69 2041.63,-79.59"/>
<polygon fill="midnightblue" stroke="midnightblue" points="2043.32,-82.67 2051.13,-75.52 2040.56,-76.24 2043.32,-82.67"/>
</g>
<!-- Node15&#45;&gt;Node6 -->
<g id="edge28" class="edge">
<title>Node15&#45;&gt;Node6</title>
<path fill="none" stroke="midnightblue" d="M845.21,-113.13C848.52,-112.71 851.8,-112.33 855,-112 1145.25,-82.05 1224.16,-117.36 1516.59,-75.94"/>
<polygon fill="midnightblue" stroke="midnightblue" points="1517.24,-79.38 1526.64,-74.5 1516.25,-72.46 1517.24,-79.38"/>
</g>
<!-- Node15&#45;&gt;Node10 -->
<g id="edge26" class="edge">
<title>Node15&#45;&gt;Node10</title>
<path fill="none" stroke="midnightblue" d="M845.22,-113.24C848.53,-112.8 851.81,-112.38 855,-112 1044.13,-89.63 1092.6,-95.98 1282,-76 1293.92,-74.74 1306.94,-73.15 1318.54,-71.66"/>
<polygon fill="midnightblue" stroke="midnightblue" points="1319.25,-75.1 1328.71,-70.33 1318.34,-68.16 1319.25,-75.1"/>
</g>
<!-- Node15&#45;&gt;Node11 -->
<g id="edge27" class="edge">
<title>Node15&#45;&gt;Node11</title>
<path fill="none" stroke="midnightblue" d="M821.51,-112.44C848.6,-103.36 891.59,-88.94 921.87,-78.78"/>
<polygon fill="midnightblue" stroke="midnightblue" points="923.24,-82.01 931.61,-75.52 921.01,-75.38 923.24,-82.01"/>
</g>
<!-- Node16 -->
<g id="node16" class="node">
<title>Node16</title>
<g id="a_node16"><a xlink:title=" ">
<polygon fill="none" stroke="#bfbfbf" points="641,-56.5 641,-75.5 751,-75.5 751,-56.5 641,-56.5"/>
<text text-anchor="middle" x="696" y="-63.5" font-family="Helvetica,sans-Serif" font-size="10.00">Adafruit_BME680.h</text>
</a>
</g>
</g>
<!-- Node15&#45;&gt;Node16 -->
<g id="edge23" class="edge">
<title>Node15&#45;&gt;Node16</title>
<path fill="none" stroke="midnightblue" d="M779.93,-112.32C764.04,-103.74 739.49,-90.49 721.04,-80.52"/>
<polygon fill="midnightblue" stroke="midnightblue" points="722.49,-77.33 712.03,-75.65 719.16,-83.49 722.49,-77.33"/>
</g>
<!-- Node17 -->
<g id="node17" class="node">
<title>Node17</title>
<g id="a_node17"><a xlink:title=" ">
<polygon fill="none" stroke="#bfbfbf" points="461,-56.5 461,-75.5 563,-75.5 563,-56.5 461,-56.5"/>
<text text-anchor="middle" x="512" y="-63.5" font-family="Helvetica,sans-Serif" font-size="10.00">Adafruit_Sensor.h</text>
</a>
</g>
</g>
<!-- Node15&#45;&gt;Node17 -->
<g id="edge24" class="edge">
<title>Node15&#45;&gt;Node17</title>
<path fill="none" stroke="midnightblue" d="M751,-112.44C701.04,-102.94 620.4,-87.61 566.8,-77.42"/>
<polygon fill="midnightblue" stroke="midnightblue" points="567.27,-73.95 556.79,-75.52 565.96,-80.82 567.27,-73.95"/>
</g>
<!-- Node18 -->
<g id="node18" class="node">
<title>Node18</title>
<g id="a_node18"><a xlink:title=" ">
<polygon fill="none" stroke="#bfbfbf" points="581.5,-56.5 581.5,-75.5 622.5,-75.5 622.5,-56.5 581.5,-56.5"/>
<text text-anchor="middle" x="602" y="-63.5" font-family="Helvetica,sans-Serif" font-size="10.00">SPI.h</text>
</a>
</g>
</g>
<!-- Node15&#45;&gt;Node18 -->
<g id="edge25" class="edge">
<title>Node15&#45;&gt;Node18</title>
<path fill="none" stroke="midnightblue" d="M763.88,-112.43C732.72,-104.06 683.84,-90.79 632.29,-76.03"/>
<polygon fill="midnightblue" stroke="midnightblue" points="633.22,-72.66 622.64,-73.26 631.28,-79.39 633.22,-72.66"/>
</g>
<!-- Node19&#45;&gt;Node6 -->
<g id="edge31" class="edge">
<title>Node19&#45;&gt;Node6</title>
<path fill="none" stroke="midnightblue" d="M2012.45,-113.24C2009.25,-112.8 2006.08,-112.38 2003,-112 1825.59,-90.19 1776.55,-104.01 1595.43,-75.82"/>
<polygon fill="midnightblue" stroke="midnightblue" points="1595.73,-72.32 1585.3,-74.22 1594.63,-79.24 1595.73,-72.32"/>
</g>
<!-- Node20 -->
<g id="node20" class="node">
<title>Node20</title>
<g id="a_node20"><a xlink:title=" ">
<polygon fill="none" stroke="#bfbfbf" points="2144,-56.5 2144,-75.5 2200,-75.5 2200,-56.5 2144,-56.5"/>
<text text-anchor="middle" x="2172" y="-63.5" font-family="Helvetica,sans-Serif" font-size="10.00">RTClib.h</text>
</a>
</g>
</g>
<!-- Node19&#45;&gt;Node20 -->
<g id="edge30" class="edge">
<title>Node19&#45;&gt;Node20</title>
<path fill="none" stroke="midnightblue" d="M2077.99,-112.32C2096.04,-103.62 2124.05,-90.12 2144.8,-80.11"/>
<polygon fill="midnightblue" stroke="midnightblue" points="2146.56,-83.15 2154.05,-75.65 2143.52,-76.84 2146.56,-83.15"/>
</g>
<!-- Node21&#45;&gt;Node6 -->
<g id="edge34" class="edge">
<title>Node21&#45;&gt;Node6</title>
<path fill="none" stroke="midnightblue" d="M1385.17,-112.44C1420.98,-102.92 1478.86,-87.52 1517.17,-77.33"/>
<polygon fill="midnightblue" stroke="midnightblue" points="1518.18,-80.68 1526.94,-74.73 1516.38,-73.92 1518.18,-80.68"/>
</g>
<!-- Node21&#45;&gt;Node10 -->
<g id="edge33" class="edge">
<title>Node21&#45;&gt;Node10</title>
<path fill="none" stroke="midnightblue" d="M1353,-112.08C1353,-105.01 1353,-94.86 1353,-85.99"/>
<polygon fill="midnightblue" stroke="midnightblue" points="1356.5,-85.75 1353,-75.75 1349.5,-85.75 1356.5,-85.75"/>
</g>
<!-- Node22 -->
<g id="node22" class="node">
<title>Node22</title>
<g id="a_node22"><a xlink:title=" ">
<polygon fill="none" stroke="#bfbfbf" points="1395.5,-56.5 1395.5,-75.5 1508.5,-75.5 1508.5,-56.5 1395.5,-56.5"/>
<text text-anchor="middle" x="1452" y="-63.5" font-family="Helvetica,sans-Serif" font-size="10.00">SparkFun_ENS160.h</text>
</a>
</g>
</g>
<!-- Node21&#45;&gt;Node22 -->
<g id="edge35" class="edge">
<title>Node21&#45;&gt;Node22</title>
<path fill="none" stroke="midnightblue" d="M1368.91,-112.32C1384.64,-103.74 1408.94,-90.49 1427.21,-80.52"/>
<polygon fill="midnightblue" stroke="midnightblue" points="1429.03,-83.52 1436.13,-75.65 1425.68,-77.37 1429.03,-83.52"/>
</g>
<!-- Node23&#45;&gt;Node2 -->
<g id="edge37" class="edge">
<title>Node23&#45;&gt;Node2</title>
<path fill="none" stroke="midnightblue" d="M1727.91,-112.41C1730.46,-98.43 1733.07,-70.84 1718,-56 1691.57,-29.96 1442.97,-16.86 1342.66,-12.6"/>
<polygon fill="midnightblue" stroke="midnightblue" points="1342.73,-9.1 1332.59,-12.18 1342.43,-16.1 1342.73,-9.1"/>
</g>
<!-- Node23&#45;&gt;Node6 -->
<g id="edge38" class="edge">
<title>Node23&#45;&gt;Node6</title>
<path fill="none" stroke="midnightblue" d="M1699.06,-112.44C1670.34,-103.32 1624.67,-88.81 1592.68,-78.65"/>
<polygon fill="midnightblue" stroke="midnightblue" points="1593.4,-75.21 1582.81,-75.52 1591.28,-81.88 1593.4,-75.21"/>
</g>
<!-- Node24&#45;&gt;Node2 -->
<g id="edge40" class="edge">
<title>Node24&#45;&gt;Node2</title>
<path fill="none" stroke="midnightblue" d="M868.1,-112.41C827.11,-102.22 774.21,-83.11 799,-56 829.81,-22.3 1144.12,-13.64 1259.13,-11.59"/>
<polygon fill="midnightblue" stroke="midnightblue" points="1259.37,-15.09 1269.31,-11.42 1259.25,-8.09 1259.37,-15.09"/>
</g>
<!-- Node24&#45;&gt;Node6 -->
<g id="edge43" class="edge">
<title>Node24&#45;&gt;Node6</title>
<path fill="none" stroke="midnightblue" d="M956.71,-113.16C959.85,-112.73 962.97,-112.34 966,-112 1206.97,-84.84 1273.06,-111.7 1516.41,-75.99"/>
<polygon fill="midnightblue" stroke="midnightblue" points="1517.26,-79.4 1526.64,-74.47 1516.23,-72.48 1517.26,-79.4"/>
</g>
<!-- Node24&#45;&gt;Node11 -->
<g id="edge41" class="edge">
<title>Node24&#45;&gt;Node11</title>
<path fill="none" stroke="midnightblue" d="M917.76,-112.08C924.54,-104.3 934.54,-92.8 942.76,-83.37"/>
<polygon fill="midnightblue" stroke="midnightblue" points="945.46,-85.59 949.38,-75.75 940.18,-81 945.46,-85.59"/>
</g>
<!-- Node25 -->
<g id="node25" class="node">
<title>Node25</title>
<g id="a_node25"><a xlink:title=" ">
<polygon fill="none" stroke="#bfbfbf" points="807.5,-56.5 807.5,-75.5 912.5,-75.5 912.5,-56.5 807.5,-56.5"/>
<text text-anchor="middle" x="860" y="-63.5" font-family="Helvetica,sans-Serif" font-size="10.00">Adafruit_INA260.h</text>
</a>
</g>
</g>
<!-- Node24&#45;&gt;Node25 -->
<g id="edge42" class="edge">
<title>Node24&#45;&gt;Node25</title>
<path fill="none" stroke="midnightblue" d="M901.74,-112.08C894.54,-104.3 883.89,-92.8 875.15,-83.37"/>
<polygon fill="midnightblue" stroke="midnightblue" points="877.47,-80.71 868.1,-75.75 872.33,-85.47 877.47,-80.71"/>
</g>
<!-- Node26&#45;&gt;Node6 -->
<g id="edge48" class="edge">
<title>Node26&#45;&gt;Node6</title>
<path fill="none" stroke="midnightblue" d="M729.2,-112.95C732.17,-112.6 735.12,-112.28 738,-112 1080.14,-78.95 1172.57,-123.34 1516.65,-75.92"/>
<polygon fill="midnightblue" stroke="midnightblue" points="1517.22,-79.37 1526.64,-74.52 1516.26,-72.44 1517.22,-79.37"/>
</g>
<!-- Node26&#45;&gt;Node11 -->
<g id="edge47" class="edge">
<title>Node26&#45;&gt;Node11</title>
<path fill="none" stroke="midnightblue" d="M729.31,-112.48C776.82,-104.5 849.05,-91.76 920.26,-76.28"/>
<polygon fill="midnightblue" stroke="midnightblue" points="921.28,-79.64 930.29,-74.07 919.78,-72.8 921.28,-79.64"/>
</g>
<!-- Node26&#45;&gt;Node17 -->
<g id="edge46" class="edge">
<title>Node26&#45;&gt;Node17</title>
<path fill="none" stroke="midnightblue" d="M650.86,-112.44C622.98,-103.32 578.65,-88.81 547.6,-78.65"/>
<polygon fill="midnightblue" stroke="midnightblue" points="548.62,-75.3 538.02,-75.52 546.44,-81.95 548.62,-75.3"/>
</g>
<!-- Node27 -->
<g id="node27" class="node">
<title>Node27</title>
<g id="a_node27"><a xlink:title=" ">
<polygon fill="none" stroke="#bfbfbf" points="327,-56.5 327,-75.5 443,-75.5 443,-56.5 327,-56.5"/>
<text text-anchor="middle" x="385" y="-63.5" font-family="Helvetica,sans-Serif" font-size="10.00">Adafruit_LSM9DS1.h</text>
</a>
</g>
</g>
<!-- Node26&#45;&gt;Node27 -->
<g id="edge45" class="edge">
<title>Node26&#45;&gt;Node27</title>
<path fill="none" stroke="midnightblue" d="M630.73,-112.44C579.26,-102.92 496.11,-87.55 441,-77.36"/>
<polygon fill="midnightblue" stroke="midnightblue" points="441.52,-73.89 431.05,-75.52 440.25,-80.78 441.52,-73.89"/>
</g>
<!-- Node28&#45;&gt;Node2 -->
<g id="edge51" class="edge">
<title>Node28&#45;&gt;Node2</title>
<path fill="none" stroke="midnightblue" d="M1641.75,-112.45C1676.09,-101.44 1724.13,-80.75 1702,-56 1678.35,-29.55 1440.94,-16.78 1342.95,-12.6"/>
<polygon fill="midnightblue" stroke="midnightblue" points="1342.95,-9.1 1332.81,-12.18 1342.66,-16.09 1342.95,-9.1"/>
</g>
<!-- Node28&#45;&gt;Node6 -->
<g id="edge53" class="edge">
<title>Node28&#45;&gt;Node6</title>
<path fill="none" stroke="midnightblue" d="M1601.92,-112.08C1593.83,-104.14 1581.8,-92.34 1572.09,-82.8"/>
<polygon fill="midnightblue" stroke="midnightblue" points="1574.5,-80.26 1564.91,-75.75 1569.6,-85.25 1574.5,-80.26"/>
</g>
<!-- Node28&#45;&gt;Node10 -->
<g id="edge52" class="edge">
<title>Node28&#45;&gt;Node10</title>
<path fill="none" stroke="midnightblue" d="M1564.06,-112.43C1518.61,-103.92 1447.85,-90.15 1387,-76 1386.9,-75.98 1386.8,-75.95 1386.7,-75.93"/>
<polygon fill="midnightblue" stroke="midnightblue" points="1387.65,-72.56 1377.1,-73.57 1385.98,-79.36 1387.65,-72.56"/>
</g>
<!-- Node29 -->
<g id="node29" class="node">
<title>Node29</title>
<g id="a_node29"><a xlink:title=" ">
<polygon fill="none" stroke="#bfbfbf" points="1603.5,-56.5 1603.5,-75.5 1692.5,-75.5 1692.5,-56.5 1603.5,-56.5"/>
<text text-anchor="middle" x="1648" y="-63.5" font-family="Helvetica,sans-Serif" font-size="10.00">Adafruit_GPS.h</text>
</a>
</g>
</g>
<!-- Node28&#45;&gt;Node29 -->
<g id="edge50" class="edge">
<title>Node28&#45;&gt;Node29</title>
<path fill="none" stroke="midnightblue" d="M1617.11,-112.08C1622.28,-104.53 1629.85,-93.49 1636.19,-84.23"/>
<polygon fill="midnightblue" stroke="midnightblue" points="1639.24,-85.98 1642,-75.75 1633.46,-82.02 1639.24,-85.98"/>
</g>
<!-- Node30&#45;&gt;Node2 -->
<g id="edge55" class="edge">
<title>Node30&#45;&gt;Node2</title>
<path fill="none" stroke="midnightblue" d="M1824.69,-112.42C1808.35,-97.93 1772.84,-68.95 1737,-56 1665.08,-30.02 1437.39,-17.1 1342.81,-12.74"/>
<polygon fill="midnightblue" stroke="midnightblue" points="1342.9,-9.24 1332.75,-12.29 1342.59,-16.24 1342.9,-9.24"/>
</g>
<!-- Node30&#45;&gt;Node6 -->
<g id="edge59" class="edge">
<title>Node30&#45;&gt;Node6</title>
<path fill="none" stroke="midnightblue" d="M1789.4,-113.16C1743.38,-104.95 1669.28,-91.38 1595.32,-75.99"/>
<polygon fill="midnightblue" stroke="midnightblue" points="1595.86,-72.53 1585.36,-73.91 1594.43,-79.38 1595.86,-72.53"/>
</g>
<!-- Node30&#45;&gt;Node11 -->
<g id="edge57" class="edge">
<title>Node30&#45;&gt;Node11</title>
<path fill="none" stroke="midnightblue" d="M1789.27,-113.13C1786.14,-112.71 1783.02,-112.32 1780,-112 1449.06,-76.58 1363.66,-103.85 1032,-76 1019.57,-74.96 1006.02,-73.45 993.9,-71.96"/>
<polygon fill="midnightblue" stroke="midnightblue" points="994.04,-68.45 983.68,-70.67 993.16,-75.39 994.04,-68.45"/>
</g>
<!-- Node31 -->
<g id="node31" class="node">
<title>Node31</title>
<g id="a_node31"><a xlink:title=" ">
<polygon fill="none" stroke="#bfbfbf" points="1825.5,-56.5 1825.5,-75.5 1878.5,-75.5 1878.5,-56.5 1825.5,-56.5"/>
<text text-anchor="middle" x="1852" y="-63.5" font-family="Helvetica,sans-Serif" font-size="10.00">stdint.h</text>
</a>
</g>
</g>
<!-- Node30&#45;&gt;Node31 -->
<g id="edge56" class="edge">
<title>Node30&#45;&gt;Node31</title>
<path fill="none" stroke="midnightblue" d="M1836.97,-112.08C1839.38,-104.85 1842.86,-94.41 1845.87,-85.4"/>
<polygon fill="midnightblue" stroke="midnightblue" points="1849.24,-86.34 1849.08,-75.75 1842.6,-84.13 1849.24,-86.34"/>
</g>
<!-- Node32 -->
<g id="node32" class="node">
<title>Node32</title>
<g id="a_node32"><a xlink:title=" ">
<polygon fill="none" stroke="#bfbfbf" points="1896.5,-56.5 1896.5,-75.5 1997.5,-75.5 1997.5,-56.5 1896.5,-56.5"/>
<text text-anchor="middle" x="1947" y="-63.5" font-family="Helvetica,sans-Serif" font-size="10.00">Adafruit_SGP30.h</text>
</a>
</g>
</g>
<!-- Node30&#45;&gt;Node32 -->
<g id="edge58" class="edge">
<title>Node30&#45;&gt;Node32</title>
<path fill="none" stroke="midnightblue" d="M1851.91,-112.44C1870.25,-103.68 1899.01,-89.94 1920.09,-79.86"/>
<polygon fill="midnightblue" stroke="midnightblue" points="1921.67,-82.99 1929.18,-75.52 1918.65,-76.67 1921.67,-82.99"/>
</g>
<!-- Node33&#45;&gt;Node2 -->
<g id="edge61" class="edge">
<title>Node33&#45;&gt;Node2</title>
<path fill="none" stroke="midnightblue" d="M1252.67,-112.25C1261.49,-103.77 1274.28,-90.16 1282,-76 1289.92,-61.48 1294.87,-43.3 1297.72,-29.86"/>
<polygon fill="midnightblue" stroke="midnightblue" points="1301.19,-30.35 1299.65,-19.87 1294.32,-29.03 1301.19,-30.35"/>
</g>
<!-- Node33&#45;&gt;Node6 -->
<g id="edge65" class="edge">
<title>Node33&#45;&gt;Node6</title>
<path fill="none" stroke="midnightblue" d="M1287.79,-113.52C1290.9,-113.01 1294,-112.49 1297,-112 1392.03,-96.34 1418.71,-95.52 1516.57,-76.18"/>
<polygon fill="midnightblue" stroke="midnightblue" points="1517.46,-79.57 1526.59,-74.18 1516.1,-72.7 1517.46,-79.57"/>
</g>
<!-- Node33&#45;&gt;Node10 -->
<g id="edge62" class="edge">
<title>Node33&#45;&gt;Node10</title>
<path fill="none" stroke="midnightblue" d="M1260.67,-112.32C1278.39,-103.62 1305.9,-90.12 1326.29,-80.11"/>
<polygon fill="midnightblue" stroke="midnightblue" points="1327.94,-83.2 1335.37,-75.65 1324.85,-76.92 1327.94,-83.2"/>
</g>
<!-- Node33&#45;&gt;Node11 -->
<g id="edge63" class="edge">
<title>Node33&#45;&gt;Node11</title>
<path fill="none" stroke="midnightblue" d="M1198.31,-112.56C1141.9,-101.91 1045.93,-83.79 993.63,-73.92"/>
<polygon fill="midnightblue" stroke="midnightblue" points="994.25,-70.47 983.78,-72.06 992.95,-77.35 994.25,-70.47"/>
</g>
<!-- Node34 -->
<g id="node34" class="node">
<title>Node34</title>
<g id="a_node34"><a xlink:title=" ">
<polygon fill="none" stroke="#bfbfbf" points="1171.5,-56.5 1171.5,-75.5 1272.5,-75.5 1272.5,-56.5 1171.5,-56.5"/>
<text text-anchor="middle" x="1222" y="-63.5" font-family="Helvetica,sans-Serif" font-size="10.00">Adafruit_SHT31.h</text>
</a>
</g>
</g>
<!-- Node33&#45;&gt;Node34 -->
<g id="edge64" class="edge">
<title>Node33&#45;&gt;Node34</title>
<path fill="none" stroke="midnightblue" d="M1239.53,-112.08C1236.69,-104.77 1232.57,-94.18 1229.04,-85.1"/>
<polygon fill="midnightblue" stroke="midnightblue" points="1232.29,-83.8 1225.4,-75.75 1225.77,-86.34 1232.29,-83.8"/>
</g>
<!-- Node35&#45;&gt;Node6 -->
<g id="edge67" class="edge">
<title>Node35&#45;&gt;Node6</title>
<path fill="none" stroke="midnightblue" d="M1508.16,-112.32C1516.5,-104.42 1529.03,-92.55 1539.18,-82.94"/>
<polygon fill="midnightblue" stroke="midnightblue" points="1541.82,-85.25 1546.68,-75.83 1537.01,-80.17 1541.82,-85.25"/>
</g>
<!-- Node36&#45;&gt;Node2 -->
<g id="edge69" class="edge">
<title>Node36&#45;&gt;Node2</title>
<path fill="none" stroke="midnightblue" d="M310.53,-112.36C307.09,-98.33 302.89,-70.65 318,-56 352.27,-22.77 1076.18,-13.26 1259.24,-11.38"/>
<polygon fill="midnightblue" stroke="midnightblue" points="1259.31,-14.88 1269.28,-11.28 1259.24,-7.88 1259.31,-14.88"/>
</g>
<!-- Node36&#45;&gt;Node7 -->
<g id="edge70" class="edge">
<title>Node36&#45;&gt;Node7</title>
<path fill="none" stroke="midnightblue" d="M301.11,-112.32C289.85,-104.11 272.71,-91.6 259.29,-81.81"/>
<polygon fill="midnightblue" stroke="midnightblue" points="261.25,-78.9 251.11,-75.83 257.12,-84.56 261.25,-78.9"/>
</g>
<!-- Node37&#45;&gt;Node3 -->
<g id="edge72" class="edge">
<title>Node37&#45;&gt;Node3</title>
<path fill="none" stroke="midnightblue" d="M157.99,-112.32C145.47,-103.98 126.32,-91.21 111.53,-81.35"/>
<polygon fill="midnightblue" stroke="midnightblue" points="113.24,-78.29 102.98,-75.65 109.36,-84.11 113.24,-78.29"/>
</g>
<!-- Node37&#45;&gt;Node7 -->
<g id="edge74" class="edge">
<title>Node37&#45;&gt;Node7</title>
<path fill="none" stroke="midnightblue" d="M181.93,-112.32C192.17,-104.18 207.72,-91.84 220,-82.09"/>
<polygon fill="midnightblue" stroke="midnightblue" points="222.22,-84.79 227.88,-75.83 217.87,-79.31 222.22,-84.79"/>
</g>
<!-- Node38 -->
<g id="node38" class="node">
<title>Node38</title>
<g id="a_node38"><a xlink:title=" ">
<polygon fill="none" stroke="#bfbfbf" points="150.5,-56.5 150.5,-75.5 189.5,-75.5 189.5,-56.5 150.5,-56.5"/>
<text text-anchor="middle" x="170" y="-63.5" font-family="Helvetica,sans-Serif" font-size="10.00">SD.h</text>
</a>
</g>
</g>
<!-- Node37&#45;&gt;Node38 -->
<g id="edge73" class="edge">
<title>Node37&#45;&gt;Node38</title>
<path fill="none" stroke="midnightblue" d="M170.83,-112.08C170.7,-105.01 170.52,-94.86 170.35,-85.99"/>
<polygon fill="midnightblue" stroke="midnightblue" points="173.85,-85.68 170.16,-75.75 166.85,-85.81 173.85,-85.68"/>
</g>
</g>
</svg>
        <g id="navigator" transform="translate(0 0)" fill="#404254">
                <rect fill="#f2f5e9" fill-opacity="0.5" stroke="#606060" stroke-width=".5" x="0" y="0" width="60" height="60"/>
                <use id="zoomplus" xlink:href="#zoomPlus" x="17" y="9" onmousedown="handleZoom(evt,'in')"/>
                <use id="zoomminus" xlink:href="#zoomMin" x="42" y="9" onmousedown="handleZoom(evt,'out')"/>
                <use id="reset" xlink:href="#resetDef" x="30" y="36" onmousedown="handleReset()"/>
                <g id="arrowUp" xlink:href="#dirArrow" transform="translate(30 24)" onmousedown="handlePan(0,-1)">
                  <use xlink:href="#rim" fill="#404040">
                        <set attributeName="fill" to="#808080" begin="arrowUp.mouseover" end="arrowUp.mouseout"/>
                  </use>
                  <path fill="none" stroke="white" stroke-width="1.5" d="M0,-3.0v7 M-2.5,-0.5L0,-3.0L2.5,-0.5"/>
                </g>
                <g id="arrowRight" xlink:href="#dirArrow" transform="rotate(90) translate(36 -43)" onmousedown="handlePan(1,0)">
                  <use xlink:href="#rim" fill="#404040">
                        <set attributeName="fill" to="#808080" begin="arrowRight.mouseover" end="arrowRight.mouseout"/>
                  </use>
                  <path fill="none" stroke="white" stroke-width="1.5" d="M0,-3.0v7 M-2.5,-0.5L0,-3.0L2.5,-0.5"/>
                </g>
                <g id="arrowDown" xlink:href="#dirArrow" transform="rotate(180) translate(-30 -48)" onmousedown="handlePan(0,1)">
                  <use xlink:href="#rim" fill="#404040">
                        <set attributeName="fill" to="#808080" begin="arrowDown.mouseover" end="arrowDown.mouseout"/>
                  </use>
                  <path fill="none" stroke="white" stroke-width="1.5" d="M0,-3.0v7 M-2.5,-0.5L0,-3.0L2.5,-0.5"/>
                </g>
                <g id="arrowLeft" xlink:href="#dirArrow" transform="rotate(270) translate(-36 17)" onmousedown="handlePan(-1,0)">
                  <use xlink:href="#rim" fill="#404040">
                        <set attributeName="fill" to="#808080" begin="arrowLeft.mouseover" end="arrowLeft.mouseout"/>
                  </use>
                  <path fill="none" stroke="white" stroke-width="1.5" d="M0,-3.0v7 M-2.5,-0.5L0,-3.0L2.5,-0.5"/>
                </g>
        </g>
        <svg viewBox="0 0 15 15" width="100%" height="30px" preserveAspectRatio="xMaxYMin meet">
         <g id="arrow_out" transform="scale(0.3 0.3)">
          <a xlink:href="main_8cpp__incl_org.svg" target="_base">
           <rect id="button" ry="5" rx="5" y="6" x="6" height="38" width="38"
                fill="#f2f5e9" fill-opacity="0.5" stroke="#606060" stroke-width="1.0"/>
           <path id="arrow"
             d="M 11.500037,31.436501 C 11.940474,20.09759 22.043105,11.32322 32.158766,21.979434 L 37.068811,17.246167 C 37.068811,17.246167 37.088388,32 37.088388,32 L 22.160133,31.978069 C 22.160133,31.978069 26.997745,27.140456 26.997745,27.140456 C 18.528582,18.264221 13.291696,25.230495 11.500037,31.436501 z"
             style="fill:#404040;"/>
          </a>
         </g>
        </svg>
</svg>
