<?xml version="1.0" encoding="UTF-8" standalone="no"?>
<!DOCTYPE svg PUBLIC "-//W3C//DTD SVG 1.1//EN"
 "http://www.w3.org/Graphics/SVG/1.1/DTD/svg11.dtd">
<!-- Generated by graphviz version 2.43.0 (0)
 -->
<!-- Title: MTK3339Sensor.h Pages: 1 -->
<svg width="338pt" height="140pt"
 viewBox="0.00 0.00 337.50 140.00" xmlns="http://www.w3.org/2000/svg" xmlns:xlink="http://www.w3.org/1999/xlink">
<g id="graph0" class="graph" transform="scale(1 1) rotate(0) translate(4 136)">
<title>MTK3339Sensor.h</title>
<!-- Node1 -->
<g id="node1" class="node">
<title>Node1</title>
<g id="a_node1"><a xlink:title=" ">
<polygon fill="#bfbfbf" stroke="black" points="114.5,-112.5 114.5,-131.5 218.5,-131.5 218.5,-112.5 114.5,-112.5"/>
<text text-anchor="middle" x="166.5" y="-119.5" font-family="Helvetica,sans-Serif" font-size="10.00">MTK3339Sensor.h</text>
</a>
</g>
</g>
<!-- Node2 -->
<g id="node2" class="node">
<title>Node2</title>
<g id="a_node2"><a xlink:title=" ">
<polygon fill="none" stroke="#bfbfbf" points="0,-56.5 0,-75.5 89,-75.5 89,-56.5 0,-56.5"/>
<text text-anchor="middle" x="44.5" y="-63.5" font-family="Helvetica,sans-Serif" font-size="10.00">Adafruit_GPS.h</text>
</a>
</g>
</g>
<!-- Node1&#45;&gt;Node2 -->
<g id="edge1" class="edge">
<title>Node1&#45;&gt;Node2</title>
<path fill="none" stroke="midnightblue" d="M147.17,-112.44C127.18,-103.6 95.76,-89.69 72.94,-79.59"/>
<polygon fill="midnightblue" stroke="midnightblue" points="74.3,-76.36 63.74,-75.52 71.47,-82.76 74.3,-76.36"/>
</g>
<!-- Node3 -->
<g id="node3" class="node">
<title>Node3</title>
<g id="a_node3"><a xlink:title=" ">
<polygon fill="none" stroke="#bfbfbf" points="177,-0.5 177,-19.5 240,-19.5 240,-0.5 177,-0.5"/>
<text text-anchor="middle" x="208.5" y="-7.5" font-family="Helvetica,sans-Serif" font-size="10.00">Arduino.h</text>
</a>
</g>
</g>
<!-- Node1&#45;&gt;Node3 -->
<g id="edge2" class="edge">
<title>Node1&#45;&gt;Node3</title>
<path fill="none" stroke="midnightblue" d="M157.52,-112.37C145.47,-99.71 126.78,-75.49 137.5,-56 145.39,-41.66 159.99,-31.25 173.9,-24.08"/>
<polygon fill="midnightblue" stroke="midnightblue" points="175.79,-27.06 183.34,-19.62 172.8,-20.73 175.79,-27.06"/>
</g>
<!-- Node4 -->
<g id="node4" class="node">
<title>Node4</title>
<g id="a_node4"><a xlink:title=" ">
<polygon fill="none" stroke="#bfbfbf" points="146,-56.5 146,-75.5 187,-75.5 187,-56.5 146,-56.5"/>
<text text-anchor="middle" x="166.5" y="-63.5" font-family="Helvetica,sans-Serif" font-size="10.00">SPI.h</text>
</a>
</g>
</g>
<!-- Node1&#45;&gt;Node4 -->
<g id="edge3" class="edge">
<title>Node1&#45;&gt;Node4</title>
<path fill="none" stroke="midnightblue" d="M166.5,-112.08C166.5,-105.01 166.5,-94.86 166.5,-85.99"/>
<polygon fill="midnightblue" stroke="midnightblue" points="170,-85.75 166.5,-75.75 163,-85.75 170,-85.75"/>
</g>
<!-- Node5 -->
<g id="node5" class="node">
<title>Node5</title>
<g id="a_node5"><a xlink:title=" ">
<polygon fill="none" stroke="#bfbfbf" points="205.5,-56.5 205.5,-75.5 253.5,-75.5 253.5,-56.5 205.5,-56.5"/>
<text text-anchor="middle" x="229.5" y="-63.5" font-family="Helvetica,sans-Serif" font-size="10.00">Wire.h</text>
</a>
</g>
</g>
<!-- Node1&#45;&gt;Node5 -->
<g id="edge4" class="edge">
<title>Node1&#45;&gt;Node5</title>
<path fill="none" stroke="midnightblue" d="M176.62,-112.32C186.03,-104.26 200.24,-92.08 211.57,-82.37"/>
<polygon fill="midnightblue" stroke="midnightblue" points="213.88,-85 219.19,-75.83 209.32,-79.68 213.88,-85"/>
</g>
<!-- Node6 -->
<g id="node6" class="node">
<title>Node6</title>
<g id="a_node6"><a xlink:href="Sensor_8h.html" target="_top" xlink:title=" ">
<polygon fill="none" stroke="black" points="271.5,-56.5 271.5,-75.5 329.5,-75.5 329.5,-56.5 271.5,-56.5"/>
<text text-anchor="middle" x="300.5" y="-63.5" font-family="Helvetica,sans-Serif" font-size="10.00">Sensor.h</text>
</a>
</g>
</g>
<!-- Node1&#45;&gt;Node6 -->
<g id="edge5" class="edge">
<title>Node1&#45;&gt;Node6</title>
<path fill="none" stroke="midnightblue" d="M187.73,-112.44C209.88,-103.52 244.82,-89.44 269.94,-79.32"/>
<polygon fill="midnightblue" stroke="midnightblue" points="271.4,-82.5 279.37,-75.52 268.78,-76.01 271.4,-82.5"/>
</g>
<!-- Node6&#45;&gt;Node3 -->
<g id="edge6" class="edge">
<title>Node6&#45;&gt;Node3</title>
<path fill="none" stroke="midnightblue" d="M285.72,-56.32C271.23,-47.82 248.93,-34.73 232.01,-24.8"/>
<polygon fill="midnightblue" stroke="midnightblue" points="233.64,-21.7 223.24,-19.65 230.1,-27.74 233.64,-21.7"/>
</g>
</g>
</svg>
