<?xml version="1.0" encoding="UTF-8" standalone="no"?>
<!DOCTYPE svg PUBLIC "-//W3C//DTD SVG 1.1//EN"
 "http://www.w3.org/Graphics/SVG/1.1/DTD/svg11.dtd">
<!-- Generated by graphviz version 2.43.0 (0)
 -->
<!-- Title: MTK3339Sensor.cpp Pages: 1 -->
<svg width="452pt" height="196pt"
 viewBox="0.00 0.00 451.50 196.00" xmlns="http://www.w3.org/2000/svg" xmlns:xlink="http://www.w3.org/1999/xlink">
<g id="graph0" class="graph" transform="scale(1 1) rotate(0) translate(4 192)">
<title>MTK3339Sensor.cpp</title>
<!-- Node1 -->
<g id="node1" class="node">
<title>Node1</title>
<g id="a_node1"><a xlink:title=" ">
<polygon fill="#bfbfbf" stroke="black" points="140,-168.5 140,-187.5 255,-187.5 255,-168.5 140,-168.5"/>
<text text-anchor="middle" x="197.5" y="-175.5" font-family="Helvetica,sans-Serif" font-size="10.00">MTK3339Sensor.cpp</text>
</a>
</g>
</g>
<!-- Node2 -->
<g id="node2" class="node">
<title>Node2</title>
<g id="a_node2"><a xlink:href="MTK3339Sensor_8h.html" target="_top" xlink:title=" ">
<polygon fill="none" stroke="black" points="145.5,-112.5 145.5,-131.5 249.5,-131.5 249.5,-112.5 145.5,-112.5"/>
<text text-anchor="middle" x="197.5" y="-119.5" font-family="Helvetica,sans-Serif" font-size="10.00">MTK3339Sensor.h</text>
</a>
</g>
</g>
<!-- Node1&#45;&gt;Node2 -->
<g id="edge1" class="edge">
<title>Node1&#45;&gt;Node2</title>
<path fill="none" stroke="midnightblue" d="M197.5,-168.08C197.5,-161.01 197.5,-150.86 197.5,-141.99"/>
<polygon fill="midnightblue" stroke="midnightblue" points="201,-141.75 197.5,-131.75 194,-141.75 201,-141.75"/>
</g>
<!-- Node3 -->
<g id="node3" class="node">
<title>Node3</title>
<g id="a_node3"><a xlink:title=" ">
<polygon fill="none" stroke="#bfbfbf" points="0,-56.5 0,-75.5 89,-75.5 89,-56.5 0,-56.5"/>
<text text-anchor="middle" x="44.5" y="-63.5" font-family="Helvetica,sans-Serif" font-size="10.00">Adafruit_GPS.h</text>
</a>
</g>
</g>
<!-- Node2&#45;&gt;Node3 -->
<g id="edge2" class="edge">
<title>Node2&#45;&gt;Node3</title>
<path fill="none" stroke="midnightblue" d="M173.26,-112.44C147.63,-103.4 107.01,-89.06 78.26,-78.92"/>
<polygon fill="midnightblue" stroke="midnightblue" points="79.22,-75.54 68.63,-75.52 76.89,-82.15 79.22,-75.54"/>
</g>
<!-- Node4 -->
<g id="node4" class="node">
<title>Node4</title>
<g id="a_node4"><a xlink:title=" ">
<polygon fill="none" stroke="#bfbfbf" points="234,-0.5 234,-19.5 297,-19.5 297,-0.5 234,-0.5"/>
<text text-anchor="middle" x="265.5" y="-7.5" font-family="Helvetica,sans-Serif" font-size="10.00">Arduino.h</text>
</a>
</g>
</g>
<!-- Node2&#45;&gt;Node4 -->
<g id="edge3" class="edge">
<title>Node2&#45;&gt;Node4</title>
<path fill="none" stroke="midnightblue" d="M178.73,-112.43C155.47,-100.6 120.73,-78.21 136.5,-56 156.16,-28.32 194.16,-17.53 223.84,-13.39"/>
<polygon fill="midnightblue" stroke="midnightblue" points="224.44,-16.84 233.95,-12.19 223.61,-9.89 224.44,-16.84"/>
</g>
<!-- Node5 -->
<g id="node5" class="node">
<title>Node5</title>
<g id="a_node5"><a xlink:title=" ">
<polygon fill="none" stroke="#bfbfbf" points="146,-56.5 146,-75.5 187,-75.5 187,-56.5 146,-56.5"/>
<text text-anchor="middle" x="166.5" y="-63.5" font-family="Helvetica,sans-Serif" font-size="10.00">SPI.h</text>
</a>
</g>
</g>
<!-- Node2&#45;&gt;Node5 -->
<g id="edge4" class="edge">
<title>Node2&#45;&gt;Node5</title>
<path fill="none" stroke="midnightblue" d="M192.38,-112.08C188.09,-104.61 181.84,-93.72 176.56,-84.52"/>
<polygon fill="midnightblue" stroke="midnightblue" points="179.54,-82.68 171.52,-75.75 173.47,-86.17 179.54,-82.68"/>
</g>
<!-- Node6 -->
<g id="node6" class="node">
<title>Node6</title>
<g id="a_node6"><a xlink:title=" ">
<polygon fill="none" stroke="#bfbfbf" points="205.5,-56.5 205.5,-75.5 253.5,-75.5 253.5,-56.5 205.5,-56.5"/>
<text text-anchor="middle" x="229.5" y="-63.5" font-family="Helvetica,sans-Serif" font-size="10.00">Wire.h</text>
</a>
</g>
</g>
<!-- Node2&#45;&gt;Node6 -->
<g id="edge5" class="edge">
<title>Node2&#45;&gt;Node6</title>
<path fill="none" stroke="midnightblue" d="M202.78,-112.08C207.21,-104.61 213.66,-93.72 219.12,-84.52"/>
<polygon fill="midnightblue" stroke="midnightblue" points="222.23,-86.14 224.31,-75.75 216.21,-82.57 222.23,-86.14"/>
</g>
<!-- Node7 -->
<g id="node7" class="node">
<title>Node7</title>
<g id="a_node7"><a xlink:href="PayloadConfig_8h.html" target="_top" xlink:title=" ">
<polygon fill="none" stroke="black" points="272,-56.5 272,-75.5 367,-75.5 367,-56.5 272,-56.5"/>
<text text-anchor="middle" x="319.5" y="-63.5" font-family="Helvetica,sans-Serif" font-size="10.00">PayloadConfig.h</text>
</a>
</g>
</g>
<!-- Node2&#45;&gt;Node7 -->
<g id="edge6" class="edge">
<title>Node2&#45;&gt;Node7</title>
<path fill="none" stroke="midnightblue" d="M216.83,-112.44C236.82,-103.6 268.24,-89.69 291.06,-79.59"/>
<polygon fill="midnightblue" stroke="midnightblue" points="292.53,-82.76 300.26,-75.52 289.7,-76.36 292.53,-82.76"/>
</g>
<!-- Node8 -->
<g id="node8" class="node">
<title>Node8</title>
<g id="a_node8"><a xlink:href="Sensor_8h.html" target="_top" xlink:title=" ">
<polygon fill="none" stroke="black" points="385.5,-56.5 385.5,-75.5 443.5,-75.5 443.5,-56.5 385.5,-56.5"/>
<text text-anchor="middle" x="414.5" y="-63.5" font-family="Helvetica,sans-Serif" font-size="10.00">Sensor.h</text>
</a>
</g>
</g>
<!-- Node2&#45;&gt;Node8 -->
<g id="edge7" class="edge">
<title>Node2&#45;&gt;Node8</title>
<path fill="none" stroke="midnightblue" d="M231.88,-112.44C271,-102.71 334.72,-86.85 375.61,-76.68"/>
<polygon fill="midnightblue" stroke="midnightblue" points="376.63,-80.03 385.49,-74.22 374.94,-73.24 376.63,-80.03"/>
</g>
<!-- Node8&#45;&gt;Node4 -->
<g id="edge8" class="edge">
<title>Node8&#45;&gt;Node4</title>
<path fill="none" stroke="midnightblue" d="M390.89,-56.44C366.04,-47.44 326.73,-33.19 298.75,-23.05"/>
<polygon fill="midnightblue" stroke="midnightblue" points="299.59,-19.63 289,-19.52 297.21,-26.21 299.59,-19.63"/>
</g>
</g>
</svg>
