<?xml version="1.0" encoding="UTF-8" standalone="no"?>
<!DOCTYPE svg PUBLIC "-//W3C//DTD SVG 1.1//EN"
 "http://www.w3.org/Graphics/SVG/1.1/DTD/svg11.dtd">
<!-- Generated by graphviz version 2.43.0 (0)
 -->
<!-- Title: PayloadConfig.h Pages: 1 -->
<!--zoomable 192 -->

<svg id="main" version="1.1" xmlns="http://www.w3.org/2000/svg" xmlns:xlink="http://www.w3.org/1999/xlink" xml:space="preserve" onload="init(evt)">
<style type="text/css"><![CDATA[
.node, .edge {opacity: 0.7;}
.node.selected, .edge.selected {opacity: 1;}
.edge:hover path { stroke: red; }
.edge:hover polygon { stroke: red; fill: red; }
]]></style>

<defs>
  <circle id="rim" cx="0" cy="0" r="7"/>
  <circle id="rim2" cx="0" cy="0" r="3.5"/>
  <g id="zoomPlus">
    <use xlink:href="#rim" fill="#404040"><set attributeName="fill" to="#808080" begin="zoomplus.mouseover" end="zoomplus.mouseout"/></use>
    <path d="M-4,0h8M0,-4v8" fill="none" stroke="white" stroke-width="1.5" pointer-events="none"/>
  </g>
  <g id="zoomMin">
    <use xlink:href="#rim" fill="#404040"><set attributeName="fill" to="#808080" begin="zoomminus.mouseover" end="zoomminus.mouseout"/></use>
    <path d="M-4,0h8" fill="none" stroke="white" stroke-width="1.5" pointer-events="none"/>
  </g>
  <g id="arrowUp" transform="translate(30 24)">
    <use xlink:href="#rim"/>
    <path pointer-events="none" fill="none" stroke="white" stroke-width="1.5" d="M0,-3.0v7 M-2.5,-0.5L0,-3.0L2.5,-0.5"/>
  </g>
  <g id="arrowRight" transform="rotate(90) translate(36 -43)">
    <use xlink:href="#rim"/>
    <path pointer-events="none" fill="none" stroke="white" stroke-width="1.5" d="M0,-3.0v7 M-2.5,-0.5L0,-3.0L2.5,-0.5"/>
  </g>
  <g id="arrowDown" transform="rotate(180) translate(-30 -48)">
    <use xlink:href="#rim"/>
    <path pointer-events="none" fill="none" stroke="white" stroke-width="1.5" d="M0,-3.0v7 M-2.5,-0.5L0,-3.0L2.5,-0.5"/>
  </g>
  <g id="arrowLeft" transform="rotate(270) translate(-36 17)">
    <use xlink:href="#rim"/>
    <path pointer-events="none" fill="none" stroke="white" stroke-width="1.5" d="M0,-3.0v7 M-2.5,-0.5L0,-3.0L2.5,-0.5"/>
  </g>
  <g id="resetDef">
    <use xlink:href="#rim2" fill="#404040"><set attributeName="fill" to="#808080" begin="reset.mouseover" end="reset.mouseout"/></use>
  </g>
</defs>
<script type="application/ecmascript">
var viewWidth = 1143;
var viewHeight = 192;
var sectionId = 'dynsection-0';
</script>
<script type="application/ecmascript" xlink:href="svg.min.js"/>
<svg id="graph" class="graph">
<g id="viewport">
<title>PayloadConfig.h</title>
<!-- Node1 -->
<g id="Node000001" class="node">
<title>Node1</title>
<g id="a_Node000001"><a xlink:title=" ">
<polygon fill="#999999" stroke="#666666" points="445.5,-184 350.5,-184 350.5,-165 445.5,-165 445.5,-184"/>
<text text-anchor="middle" x="398" y="-172" font-family="Helvetica,sans-Serif" font-size="10.00">PayloadConfig.h</text>
</a>
</g>
</g>
<!-- Node2 -->
<g id="Node000002" class="node">
<title>Node2</title>
<g id="a_Node000002"><a xlink:href="BME680Sensor_8h.html" target="_top" xlink:title=" ">
<polygon fill="white" stroke="#666666" points="287,-129 189,-129 189,-110 287,-110 287,-129"/>
<text text-anchor="middle" x="238" y="-117" font-family="Helvetica,sans-Serif" font-size="10.00">BME680Sensor.h</text>
</a>
</g>
</g>
<!-- Node1&#45;&gt;Node2 -->
<g id="edge1_Node000001_Node000002" class="edge">
<title>Node1&#45;&gt;Node2</title>
<g id="a_edge1_Node000001_Node000002"><a xlink:title=" ">
<path fill="none" stroke="#63b8ff" d="M362.67,-161.8C332.81,-151.91 290.73,-137.97 263.91,-129.08"/>
<polygon fill="#63b8ff" stroke="#63b8ff" points="361.7,-165.16 372.29,-164.98 363.9,-158.52 361.7,-165.16"/>
</a>
</g>
</g>
<!-- Node4 -->
<g id="Node000004" class="node">
<title>Node4</title>
<g id="a_Node000004"><a xlink:href="main_8cpp.html" target="_top" xlink:title=" ">
<polygon fill="white" stroke="#666666" points="504,-19 442,-19 442,0 504,0 504,-19"/>
<text text-anchor="middle" x="473" y="-7" font-family="Helvetica,sans-Serif" font-size="10.00">main.cpp</text>
</a>
</g>
</g>
<!-- Node1&#45;&gt;Node4 -->
<g id="edge25_Node000001_Node000004" class="edge">
<title>Node1&#45;&gt;Node4</title>
<g id="a_edge25_Node000001_Node000004"><a xlink:title=" ">
<path fill="none" stroke="#63b8ff" d="M373.73,-159.11C362.97,-151.5 351.16,-141.2 344,-129 327.2,-100.38 314.43,-81.81 334,-55 358.57,-21.33 408.96,-12.56 441.84,-10.59"/>
<polygon fill="#63b8ff" stroke="#63b8ff" points="372.12,-162.25 382.39,-164.86 375.99,-156.41 372.12,-162.25"/>
</a>
</g>
</g>
<!-- Node5 -->
<g id="Node000005" class="node">
<title>Node5</title>
<g id="a_Node000005"><a xlink:href="ErrorDisplay_8h.html" target="_top" xlink:title=" ">
<polygon fill="white" stroke="#666666" points="156,-129 72,-129 72,-110 156,-110 156,-129"/>
<text text-anchor="middle" x="114" y="-117" font-family="Helvetica,sans-Serif" font-size="10.00">ErrorDisplay.h</text>
</a>
</g>
</g>
<!-- Node1&#45;&gt;Node5 -->
<g id="edge4_Node000001_Node000005" class="edge">
<title>Node1&#45;&gt;Node5</title>
<g id="a_edge4_Node000001_Node000005"><a xlink:title=" ">
<path fill="none" stroke="#63b8ff" d="M342.51,-163.14C287.92,-152.96 205.77,-137.63 156.27,-128.39"/>
<polygon fill="#63b8ff" stroke="#63b8ff" points="341.9,-166.59 352.37,-164.98 343.18,-159.71 341.9,-166.59"/>
</a>
</g>
</g>
<!-- Node6 -->
<g id="Node000006" class="node">
<title>Node6</title>
<g id="a_Node000006"><a xlink:href="SDStorage_8h.html" target="_top" xlink:title=" ">
<polygon fill="white" stroke="#666666" points="82.5,-74 5.5,-74 5.5,-55 82.5,-55 82.5,-74"/>
<text text-anchor="middle" x="44" y="-62" font-family="Helvetica,sans-Serif" font-size="10.00">SDStorage.h</text>
</a>
</g>
</g>
<!-- Node1&#45;&gt;Node6 -->
<g id="edge24_Node000001_Node000006" class="edge">
<title>Node1&#45;&gt;Node6</title>
<g id="a_edge24_Node000001_Node000006"><a xlink:title=" ">
<path fill="none" stroke="#63b8ff" d="M340.27,-173.18C255.66,-171.51 103.61,-163.63 63,-129 46.71,-115.11 44.06,-87.88 43.83,-74.03"/>
<polygon fill="#63b8ff" stroke="#63b8ff" points="340.43,-176.68 350.49,-173.35 340.55,-169.68 340.43,-176.68"/>
</a>
</g>
</g>
<!-- Node8 -->
<g id="Node000008" class="node">
<title>Node8</title>
<g id="a_Node000008"><a xlink:href="FlashStorage_8h.html" target="_top" xlink:title=" ">
<polygon fill="white" stroke="#666666" points="442.5,-129 353.5,-129 353.5,-110 442.5,-110 442.5,-129"/>
<text text-anchor="middle" x="398" y="-117" font-family="Helvetica,sans-Serif" font-size="10.00">FlashStorage.h</text>
</a>
</g>
</g>
<!-- Node1&#45;&gt;Node8 -->
<g id="edge9_Node000001_Node000008" class="edge">
<title>Node1&#45;&gt;Node8</title>
<g id="a_edge9_Node000001_Node000008"><a xlink:title=" ">
<path fill="none" stroke="#63b8ff" d="M398,-154.66C398,-145.93 398,-135.99 398,-129.09"/>
<polygon fill="#63b8ff" stroke="#63b8ff" points="394.5,-154.75 398,-164.75 401.5,-154.75 394.5,-154.75"/>
</a>
</g>
</g>
<!-- Node10 -->
<g id="Node000010" class="node">
<title>Node10</title>
<g id="a_Node000010"><a xlink:href="ICM20948Sensor_8h.html" target="_top" xlink:title=" ">
<polygon fill="white" stroke="#666666" points="771.5,-129 664.5,-129 664.5,-110 771.5,-110 771.5,-129"/>
<text text-anchor="middle" x="718" y="-117" font-family="Helvetica,sans-Serif" font-size="10.00">ICM20948Sensor.h</text>
</a>
</g>
</g>
<!-- Node1&#45;&gt;Node10 -->
<g id="edge12_Node000001_Node000010" class="edge">
<title>Node1&#45;&gt;Node10</title>
<g id="a_edge12_Node000001_Node000010"><a xlink:title=" ">
<path fill="none" stroke="#63b8ff" d="M455.63,-163.95C515.65,-154.01 608.81,-138.58 666.46,-129.04"/>
<polygon fill="#63b8ff" stroke="#63b8ff" points="454.86,-160.54 445.56,-165.62 456,-167.44 454.86,-160.54"/>
</a>
</g>
</g>
<!-- Node12 -->
<g id="Node000012" class="node">
<title>Node12</title>
<g id="a_Node000012"><a xlink:href="LSM9DS1Sensor_8h.html" target="_top" xlink:title=" ">
<polygon fill="white" stroke="#666666" points="943,-129 839,-129 839,-110 943,-110 943,-129"/>
<text text-anchor="middle" x="891" y="-117" font-family="Helvetica,sans-Serif" font-size="10.00">LSM9DS1Sensor.h</text>
</a>
</g>
</g>
<!-- Node1&#45;&gt;Node12 -->
<g id="edge15_Node000001_Node000012" class="edge">
<title>Node1&#45;&gt;Node12</title>
<g id="a_edge15_Node000001_Node000012"><a xlink:title=" ">
<path fill="none" stroke="#63b8ff" d="M455.91,-167.27C552.73,-156.87 745.97,-136.09 838.82,-126.11"/>
<polygon fill="#63b8ff" stroke="#63b8ff" points="455.29,-163.82 445.72,-168.37 456.04,-170.78 455.29,-163.82"/>
</a>
</g>
</g>
<!-- Node14 -->
<g id="Node000014" class="node">
<title>Node14</title>
<g id="a_Node000014"><a xlink:href="MTK3339Sensor_8h.html" target="_top" xlink:title=" ">
<polygon fill="white" stroke="#666666" points="1115,-129 1011,-129 1011,-110 1115,-110 1115,-129"/>
<text text-anchor="middle" x="1063" y="-117" font-family="Helvetica,sans-Serif" font-size="10.00">MTK3339Sensor.h</text>
</a>
</g>
</g>
<!-- Node1&#45;&gt;Node14 -->
<g id="edge18_Node000001_Node000014" class="edge">
<title>Node1&#45;&gt;Node14</title>
<g id="a_edge18_Node000001_Node000014"><a xlink:title=" ">
<path fill="none" stroke="#63b8ff" d="M455.91,-168.88C583.65,-158.7 888.01,-134.45 1010.55,-124.68"/>
<polygon fill="#63b8ff" stroke="#63b8ff" points="455.25,-165.43 445.56,-169.71 455.8,-172.4 455.25,-165.43"/>
</a>
</g>
</g>
<!-- Node16 -->
<g id="Node000016" class="node">
<title>Node16</title>
<g id="a_Node000016"><a xlink:href="RadioStorage_8h.html" target="_top" xlink:title=" ">
<polygon fill="white" stroke="#666666" points="556.5,-129 465.5,-129 465.5,-110 556.5,-110 556.5,-129"/>
<text text-anchor="middle" x="511" y="-117" font-family="Helvetica,sans-Serif" font-size="10.00">RadioStorage.h</text>
</a>
</g>
</g>
<!-- Node1&#45;&gt;Node16 -->
<g id="edge21_Node000001_Node000016" class="edge">
<title>Node1&#45;&gt;Node16</title>
<g id="a_edge21_Node000001_Node000016"><a xlink:title=" ">
<path fill="none" stroke="#63b8ff" d="M425.43,-160.63C446.25,-150.87 474.3,-137.71 492.51,-129.17"/>
<polygon fill="#63b8ff" stroke="#63b8ff" points="423.72,-157.57 416.16,-164.98 426.7,-163.91 423.72,-157.57"/>
</a>
</g>
</g>
<!-- Node3 -->
<g id="Node000003" class="node">
<title>Node3</title>
<g id="a_Node000003"><a xlink:href="BME680Sensor_8cpp.html" target="_top" xlink:title=" ">
<polygon fill="white" stroke="#666666" points="248.5,-74 139.5,-74 139.5,-55 248.5,-55 248.5,-74"/>
<text text-anchor="middle" x="194" y="-62" font-family="Helvetica,sans-Serif" font-size="10.00">BME680Sensor.cpp</text>
</a>
</g>
</g>
<!-- Node2&#45;&gt;Node3 -->
<g id="edge2_Node000002_Node000003" class="edge">
<title>Node2&#45;&gt;Node3</title>
<g id="a_edge2_Node000002_Node000003"><a xlink:title=" ">
<path fill="none" stroke="#63b8ff" d="M224.27,-101.96C216.6,-92.72 207.37,-81.6 201.13,-74.09"/>
<polygon fill="#63b8ff" stroke="#63b8ff" points="221.65,-104.29 230.73,-109.75 227.04,-99.82 221.65,-104.29"/>
</a>
</g>
</g>
<!-- Node2&#45;&gt;Node4 -->
<g id="edge3_Node000002_Node000004" class="edge">
<title>Node2&#45;&gt;Node4</title>
<g id="a_edge3_Node000002_Node000004"><a xlink:title=" ">
<path fill="none" stroke="#63b8ff" d="M250.52,-101.5C262.07,-87.04 280.48,-66.78 301,-55 345.94,-29.2 405.97,-18.1 441.93,-13.51"/>
<polygon fill="#63b8ff" stroke="#63b8ff" points="247.59,-99.57 244.27,-109.63 253.14,-103.84 247.59,-99.57"/>
</a>
</g>
</g>
<!-- Node5&#45;&gt;Node4 -->
<g id="edge8_Node000005_Node000004" class="edge">
<title>Node5&#45;&gt;Node4</title>
<g id="a_edge8_Node000005_Node000004"><a xlink:title=" ">
<path fill="none" stroke="#63b8ff" d="M113.46,-99.27C114.17,-84.92 117.66,-65.96 130,-55 175.78,-14.32 366.41,-10.21 441.96,-10.23"/>
<polygon fill="#63b8ff" stroke="#63b8ff" points="109.96,-99.52 113.37,-109.55 116.96,-99.58 109.96,-99.52"/>
</a>
</g>
</g>
<!-- Node5&#45;&gt;Node6 -->
<g id="edge5_Node000005_Node000006" class="edge">
<title>Node5&#45;&gt;Node6</title>
<g id="a_edge5_Node000005_Node000006"><a xlink:title=" ">
<path fill="none" stroke="#63b8ff" d="M94.69,-103.88C82.09,-94.34 66.07,-82.21 55.45,-74.17"/>
<polygon fill="#63b8ff" stroke="#63b8ff" points="92.67,-106.74 102.75,-109.98 96.89,-101.16 92.67,-106.74"/>
</a>
</g>
</g>
<!-- Node6&#45;&gt;Node4 -->
<g id="edge7_Node000006_Node000004" class="edge">
<title>Node6&#45;&gt;Node4</title>
<g id="a_edge7_Node000006_Node000004"><a xlink:title=" ">
<path fill="none" stroke="#63b8ff" d="M93.06,-55.56C94.39,-55.37 95.7,-55.18 97,-55 224.61,-37.22 377.22,-20.58 441.75,-13.76"/>
<polygon fill="#63b8ff" stroke="#63b8ff" points="92.13,-52.16 82.76,-57.09 93.17,-59.08 92.13,-52.16"/>
</a>
</g>
</g>
<!-- Node7 -->
<g id="Node000007" class="node">
<title>Node7</title>
<g id="a_Node000007"><a xlink:href="SDStorage_8cpp.html" target="_top" xlink:title=" ">
<polygon fill="white" stroke="#666666" points="88,-19 0,-19 0,0 88,0 88,-19"/>
<text text-anchor="middle" x="44" y="-7" font-family="Helvetica,sans-Serif" font-size="10.00">SDStorage.cpp</text>
</a>
</g>
</g>
<!-- Node6&#45;&gt;Node7 -->
<g id="edge6_Node000006_Node000007" class="edge">
<title>Node6&#45;&gt;Node7</title>
<g id="a_edge6_Node000006_Node000007"><a xlink:title=" ">
<path fill="none" stroke="#63b8ff" d="M44,-44.66C44,-35.93 44,-25.99 44,-19.09"/>
<polygon fill="#63b8ff" stroke="#63b8ff" points="40.5,-44.75 44,-54.75 47.5,-44.75 40.5,-44.75"/>
</a>
</g>
</g>
<!-- Node8&#45;&gt;Node4 -->
<g id="edge11_Node000008_Node000004" class="edge">
<title>Node8&#45;&gt;Node4</title>
<g id="a_edge11_Node000008_Node000004"><a xlink:title=" ">
<path fill="none" stroke="#63b8ff" d="M421.5,-104.16C432.44,-96.43 444.82,-86.02 453,-74 464.71,-56.8 469.84,-32.4 471.85,-19.42"/>
<polygon fill="#63b8ff" stroke="#63b8ff" points="419.51,-101.29 413.15,-109.76 423.4,-107.1 419.51,-101.29"/>
</a>
</g>
</g>
<!-- Node9 -->
<g id="Node000009" class="node">
<title>Node9</title>
<g id="a_Node000009"><a xlink:href="FlashStorage_8cpp.html" target="_top" xlink:title=" ">
<polygon fill="white" stroke="#666666" points="444.5,-74 343.5,-74 343.5,-55 444.5,-55 444.5,-74"/>
<text text-anchor="middle" x="394" y="-62" font-family="Helvetica,sans-Serif" font-size="10.00">FlashStorage.cpp</text>
</a>
</g>
</g>
<!-- Node8&#45;&gt;Node9 -->
<g id="edge10_Node000008_Node000009" class="edge">
<title>Node8&#45;&gt;Node9</title>
<g id="a_edge10_Node000008_Node000009"><a xlink:title=" ">
<path fill="none" stroke="#63b8ff" d="M396.58,-99.66C395.92,-90.93 395.17,-80.99 394.65,-74.09"/>
<polygon fill="#63b8ff" stroke="#63b8ff" points="393.1,-100.04 397.34,-109.75 400.08,-99.51 393.1,-100.04"/>
</a>
</g>
</g>
<!-- Node10&#45;&gt;Node4 -->
<g id="edge14_Node000010_Node000004" class="edge">
<title>Node10&#45;&gt;Node4</title>
<g id="a_edge14_Node000010_Node000004"><a xlink:title=" ">
<path fill="none" stroke="#63b8ff" d="M748.98,-105.52C773.96,-93.24 802.43,-73.93 786,-55 749.66,-13.13 575.79,-9.63 504.05,-10.02"/>
<polygon fill="#63b8ff" stroke="#63b8ff" points="747.26,-102.46 739.68,-109.86 750.22,-108.8 747.26,-102.46"/>
</a>
</g>
</g>
<!-- Node11 -->
<g id="Node000011" class="node">
<title>Node11</title>
<g id="a_Node000011"><a xlink:href="ICM20948Sensor_8cpp.html" target="_top" xlink:title=" ">
<polygon fill="white" stroke="#666666" points="777,-74 659,-74 659,-55 777,-55 777,-74"/>
<text text-anchor="middle" x="718" y="-62" font-family="Helvetica,sans-Serif" font-size="10.00">ICM20948Sensor.cpp</text>
</a>
</g>
</g>
<!-- Node10&#45;&gt;Node11 -->
<g id="edge13_Node000010_Node000011" class="edge">
<title>Node10&#45;&gt;Node11</title>
<g id="a_edge13_Node000010_Node000011"><a xlink:title=" ">
<path fill="none" stroke="#63b8ff" d="M718,-99.66C718,-90.93 718,-80.99 718,-74.09"/>
<polygon fill="#63b8ff" stroke="#63b8ff" points="714.5,-99.75 718,-109.75 721.5,-99.75 714.5,-99.75"/>
</a>
</g>
</g>
<!-- Node12&#45;&gt;Node4 -->
<g id="edge17_Node000012_Node000004" class="edge">
<title>Node12&#45;&gt;Node4</title>
<g id="a_edge17_Node000012_Node000004"><a xlink:title=" ">
<path fill="none" stroke="#63b8ff" d="M921.37,-105.47C946.26,-93.02 974.86,-73.48 958,-55 927.4,-21.47 606.85,-12.88 504.34,-10.98"/>
<polygon fill="#63b8ff" stroke="#63b8ff" points="919.64,-102.42 912.11,-109.88 922.64,-108.74 919.64,-102.42"/>
</a>
</g>
</g>
<!-- Node13 -->
<g id="Node000013" class="node">
<title>Node13</title>
<g id="a_Node000013"><a xlink:href="LSM9DS1Sensor_8cpp.html" target="_top" xlink:title=" ">
<polygon fill="white" stroke="#666666" points="948.5,-74 833.5,-74 833.5,-55 948.5,-55 948.5,-74"/>
<text text-anchor="middle" x="891" y="-62" font-family="Helvetica,sans-Serif" font-size="10.00">LSM9DS1Sensor.cpp</text>
</a>
</g>
</g>
<!-- Node12&#45;&gt;Node13 -->
<g id="edge16_Node000012_Node000013" class="edge">
<title>Node12&#45;&gt;Node13</title>
<g id="a_edge16_Node000012_Node000013"><a xlink:title=" ">
<path fill="none" stroke="#63b8ff" d="M891,-99.66C891,-90.93 891,-80.99 891,-74.09"/>
<polygon fill="#63b8ff" stroke="#63b8ff" points="887.5,-99.75 891,-109.75 894.5,-99.75 887.5,-99.75"/>
</a>
</g>
</g>
<!-- Node14&#45;&gt;Node4 -->
<g id="edge20_Node000014_Node000004" class="edge">
<title>Node14&#45;&gt;Node4</title>
<g id="a_edge20_Node000014_Node000004"><a xlink:title=" ">
<path fill="none" stroke="#63b8ff" d="M1093.47,-105.38C1118.43,-92.87 1147.08,-73.27 1130,-55 1086.87,-8.85 628.57,-9.22 504.07,-10.18"/>
<polygon fill="#63b8ff" stroke="#63b8ff" points="1091.7,-102.34 1084.18,-109.81 1094.71,-108.66 1091.7,-102.34"/>
</a>
</g>
</g>
<!-- Node15 -->
<g id="Node000015" class="node">
<title>Node15</title>
<g id="a_Node000015"><a xlink:href="MTK3339Sensor_8cpp.html" target="_top" xlink:title=" ">
<polygon fill="white" stroke="#666666" points="1120.5,-74 1005.5,-74 1005.5,-55 1120.5,-55 1120.5,-74"/>
<text text-anchor="middle" x="1063" y="-62" font-family="Helvetica,sans-Serif" font-size="10.00">MTK3339Sensor.cpp</text>
</a>
</g>
</g>
<!-- Node14&#45;&gt;Node15 -->
<g id="edge19_Node000014_Node000015" class="edge">
<title>Node14&#45;&gt;Node15</title>
<g id="a_edge19_Node000014_Node000015"><a xlink:title=" ">
<path fill="none" stroke="#63b8ff" d="M1063,-99.66C1063,-90.93 1063,-80.99 1063,-74.09"/>
<polygon fill="#63b8ff" stroke="#63b8ff" points="1059.5,-99.75 1063,-109.75 1066.5,-99.75 1059.5,-99.75"/>
</a>
</g>
</g>
<!-- Node16&#45;&gt;Node4 -->
<g id="edge23_Node000016_Node000004" class="edge">
<title>Node16&#45;&gt;Node4</title>
<g id="a_edge23_Node000016_Node000004"><a xlink:title=" ">
<path fill="none" stroke="#63b8ff" d="M504.53,-100.12C496.24,-76.56 482.2,-36.66 476.05,-19.16"/>
<polygon fill="#63b8ff" stroke="#63b8ff" points="501.27,-101.39 507.89,-109.66 507.87,-99.07 501.27,-101.39"/>
</a>
</g>
</g>
<!-- Node17 -->
<g id="Node000017" class="node">
<title>Node17</title>
<g id="a_Node000017"><a xlink:href="RadioStorage_8cpp.html" target="_top" xlink:title=" ">
<polygon fill="white" stroke="#666666" points="641,-74 539,-74 539,-55 641,-55 641,-74"/>
<text text-anchor="middle" x="590" y="-62" font-family="Helvetica,sans-Serif" font-size="10.00">RadioStorage.cpp</text>
</a>
</g>
</g>
<!-- Node16&#45;&gt;Node17 -->
<g id="edge22_Node000016_Node000017" class="edge">
<title>Node16&#45;&gt;Node17</title>
<g id="a_edge22_Node000016_Node000017"><a xlink:title=" ">
<path fill="none" stroke="#63b8ff" d="M532.39,-104.15C546.67,-94.57 564.97,-82.29 577.08,-74.17"/>
<polygon fill="#63b8ff" stroke="#63b8ff" points="530.05,-101.51 523.69,-109.98 533.95,-107.32 530.05,-101.51"/>
</a>
</g>
</g>
</g>
</svg>

<g id="navigator" transform="translate(0 0)" fill="#404254">
  <rect fill="#f2f5e9" fill-opacity="0.5" stroke="#606060" stroke-width=".5" x="0" y="0" width="60" height="60"/>
  <use id="zoomplus" xlink:href="#zoomPlus" x="17" y="9" onmousedown="handleZoom(evt,'in')"/>
  <use id="zoomminus" xlink:href="#zoomMin" x="42" y="9" onmousedown="handleZoom(evt,'out')"/>
  <use id="reset" xlink:href="#resetDef" x="30" y="36" onmousedown="handleReset()"/>
   <use id="arrowup" xlink:href="#arrowUp" x="0" y="0" onmousedown="handlePan(0,-1)"/>
  <use id="arrowright" xlink:href="#arrowRight" x="0" y="0" onmousedown="handlePan(1,0)"/>
  <use id="arrowdown" xlink:href="#arrowDown" x="0" y="0" onmousedown="handlePan(0,1)"/>
  <use id="arrowleft" xlink:href="#arrowLeft" x="0" y="0" onmousedown="handlePan(-1,0)"/>
</g>
<svg viewBox="0 0 15 15" width="100%" height="30px" preserveAspectRatio="xMaxYMin meet">
 <g id="arrow_out" transform="scale(0.3 0.3)">
  <a xlink:href="PayloadConfig_8h__dep__incl_org.svg" target="_base">
   <rect id="button" ry="5" rx="5" y="6" x="6" height="38" width="38"
        fill="#f2f5e9" fill-opacity="0.5" stroke="#606060" stroke-width="1.0"/>
   <path id="arrow"
     d="M 11.500037,31.436501 C 11.940474,20.09759 22.043105,11.32322 32.158766,21.979434 L 37.068811,17.246167 C 37.068811,17.246167 37.088388,32 37.088388,32 L 22.160133,31.978069 C 22.160133,31.978069 26.997745,27.140456 26.997745,27.140456 C 18.528582,18.264221 13.291696,25.230495 11.500037,31.436501 z"
     style="fill:#404040;"/>
  </a>
 </g>
</svg>

<style type='text/css'>
<![CDATA[
[data-mouse-over-selected='false'] { opacity: 0.7; }
[data-mouse-over-selected='true']  { opacity: 1.0; }
]]>
</style>
<script type="application/ecmascript"><![CDATA[
document.addEventListener('DOMContentLoaded', (event) => {
  highlightEdges();
  highlightAdjacentNodes();
});
]]></script>
</svg>
