<?xml version="1.0" encoding="UTF-8" standalone="no"?>
<!DOCTYPE svg PUBLIC "-//W3C//DTD SVG 1.1//EN"
 "http://www.w3.org/Graphics/SVG/1.1/DTD/svg11.dtd">
<!-- Generated by graphviz version 2.43.0 (0)
 -->
<!-- Title: PayloadConfig.h Pages: 1 -->
<!--zoomable 196 -->
<svg id="main" version="1.1" xmlns="http://www.w3.org/2000/svg" xmlns:xlink="http://www.w3.org/1999/xlink" xml:space="preserve" onload="init(evt)">
<style type="text/css"><![CDATA[
.edge:hover path { stroke: red; }
.edge:hover polygon { stroke: red; fill: red; }
]]></style>
<script type="text/javascript"><![CDATA[
var edges = document.getElementsByTagName('g');
if (edges && edges.length) {
  for (var i=0;i<edges.length;i++) {
    if (edges[i].id.substr(0,4)=='edge') {
      edges[i].setAttribute('class','edge');
    }
  }
}
]]></script>
        <defs>
                <circle id="rim" cx="0" cy="0" r="7"/>
                <circle id="rim2" cx="0" cy="0" r="3.5"/>
                <g id="zoomPlus">
                        <use xlink:href="#rim" fill="#404040">
                                <set attributeName="fill" to="#808080" begin="zoomplus.mouseover" end="zoomplus.mouseout"/>
                        </use>
                        <path d="M-4,0h8M0,-4v8" fill="none" stroke="white" stroke-width="1.5" pointer-events="none"/>
                </g>
                <g id="zoomMin">
                        <use xlink:href="#rim" fill="#404040">
                                <set attributeName="fill" to="#808080" begin="zoomminus.mouseover" end="zoomminus.mouseout"/>
                        </use>
                        <path d="M-4,0h8" fill="none" stroke="white" stroke-width="1.5" pointer-events="none"/>
                </g>
                <g id="dirArrow">
                        <path fill="none" stroke="white" stroke-width="1.5" d="M0,-3.0v7 M-2.5,-0.5L0,-3.0L2.5,-0.5"/>
                </g>
               <g id="resetDef">
                       <use xlink:href="#rim2" fill="#404040">
                               <set attributeName="fill" to="#808080" begin="reset.mouseover" end="reset.mouseout"/>
                       </use>
               </g>
        </defs>

<script type="text/javascript">
var viewWidth = 812;
var viewHeight = 196;
var sectionId = 'dynsection-0';
</script>
<script xlink:href="svgpan.js"/>
<svg id="graph" class="graph">
<g id="viewport">
<title>PayloadConfig.h</title>
<!-- Node1 -->
<g id="node1" class="node">
<title>Node1</title>
<g id="a_node1"><a xlink:title=" ">
<polygon fill="#bfbfbf" stroke="black" points="367.51,-168.5 367.51,-187.5 462.51,-187.5 462.51,-168.5 367.51,-168.5"/>
<text text-anchor="middle" x="415.01" y="-175.5" font-family="Helvetica,sans-Serif" font-size="10.00">PayloadConfig.h</text>
</a>
</g>
</g>
<!-- Node2 -->
<g id="node2" class="node">
<title>Node2</title>
<g id="a_node2"><a xlink:href="BME680Sensor_8h.html" target="_top" xlink:title=" ">
<polygon fill="none" stroke="black" points="102.01,-112.5 102.01,-131.5 200.01,-131.5 200.01,-112.5 102.01,-112.5"/>
<text text-anchor="middle" x="151.01" y="-119.5" font-family="Helvetica,sans-Serif" font-size="10.00">BME680Sensor.h</text>
</a>
</g>
</g>
<!-- Node1&#45;&gt;Node2 -->
<g id="edge1" class="edge">
<title>Node1&#45;&gt;Node2</title>
<path fill="none" stroke="midnightblue" d="M363.24,-166.41C313.35,-156.2 238.82,-140.96 192.65,-131.52"/>
<polygon fill="midnightblue" stroke="midnightblue" points="362.68,-169.87 373.18,-168.44 364.09,-163.01 362.68,-169.87"/>
</g>
<!-- Node4 -->
<g id="node4" class="node">
<title>Node4</title>
<g id="a_node4"><a xlink:href="main_8cpp.html" target="_top" xlink:title=" ">
<polygon fill="none" stroke="black" points="330.01,-0.5 330.01,-19.5 392.01,-19.5 392.01,-0.5 330.01,-0.5"/>
<text text-anchor="middle" x="361.01" y="-7.5" font-family="Helvetica,sans-Serif" font-size="10.00">main.cpp</text>
</a>
</g>
</g>
<!-- Node1&#45;&gt;Node4 -->
<g id="edge19" class="edge">
<title>Node1&#45;&gt;Node4</title>
<path fill="none" stroke="midnightblue" d="M357.22,-176.18C291.38,-173.62 181.46,-164.31 93.01,-132 49.12,-115.96 26.61,-116.91 4.01,-76 -0.28,-68.22 -1.87,-62.67 4.01,-56 25.45,-31.69 246.68,-17.23 329.74,-12.62"/>
<polygon fill="midnightblue" stroke="midnightblue" points="357.28,-179.69 367.4,-176.54 357.52,-172.69 357.28,-179.69"/>
</g>
<!-- Node5 -->
<g id="node5" class="node">
<title>Node5</title>
<g id="a_node5"><a xlink:href="ErrorDisplay_8h.html" target="_top" xlink:title=" ">
<polygon fill="none" stroke="black" points="648.01,-112.5 648.01,-131.5 732.01,-131.5 732.01,-112.5 648.01,-112.5"/>
<text text-anchor="middle" x="690.01" y="-119.5" font-family="Helvetica,sans-Serif" font-size="10.00">ErrorDisplay.h</text>
</a>
</g>
</g>
<!-- Node1&#45;&gt;Node5 -->
<g id="edge4" class="edge">
<title>Node1&#45;&gt;Node5</title>
<path fill="none" stroke="midnightblue" d="M468.71,-166.46C521.18,-156.15 599.95,-140.69 648,-131.25"/>
<polygon fill="midnightblue" stroke="midnightblue" points="467.73,-163.08 458.59,-168.44 469.08,-169.95 467.73,-163.08"/>
</g>
<!-- Node6 -->
<g id="node6" class="node">
<title>Node6</title>
<g id="a_node6"><a xlink:href="SDStorage_8h.html" target="_top" xlink:title=" ">
<polygon fill="none" stroke="black" points="721.51,-56.5 721.51,-75.5 798.51,-75.5 798.51,-56.5 721.51,-56.5"/>
<text text-anchor="middle" x="760.01" y="-63.5" font-family="Helvetica,sans-Serif" font-size="10.00">SDStorage.h</text>
</a>
</g>
</g>
<!-- Node1&#45;&gt;Node6 -->
<g id="edge18" class="edge">
<title>Node1&#45;&gt;Node6</title>
<path fill="none" stroke="midnightblue" d="M472.8,-176.36C555.48,-174.26 701.91,-165.73 741.01,-132 757.57,-117.72 760.1,-89.88 760.24,-75.72"/>
<polygon fill="midnightblue" stroke="midnightblue" points="472.47,-172.87 462.55,-176.6 472.63,-179.87 472.47,-172.87"/>
</g>
<!-- Node8 -->
<g id="node8" class="node">
<title>Node8</title>
<g id="a_node8"><a xlink:href="ICM20948Sensor_8h.html" target="_top" xlink:title=" ">
<polygon fill="none" stroke="black" points="514.51,-112.5 514.51,-131.5 621.51,-131.5 621.51,-112.5 514.51,-112.5"/>
<text text-anchor="middle" x="568.01" y="-119.5" font-family="Helvetica,sans-Serif" font-size="10.00">ICM20948Sensor.h</text>
</a>
</g>
</g>
<!-- Node1&#45;&gt;Node8 -->
<g id="edge9" class="edge">
<title>Node1&#45;&gt;Node8</title>
<path fill="none" stroke="midnightblue" d="M448.9,-165.04C477.69,-154.88 518.3,-140.55 543.88,-131.52"/>
<polygon fill="midnightblue" stroke="midnightblue" points="447.52,-161.81 439.26,-168.44 449.85,-168.42 447.52,-161.81"/>
</g>
<!-- Node10 -->
<g id="node10" class="node">
<title>Node10</title>
<g id="a_node10"><a xlink:href="LSM9DS1Sensor_8h.html" target="_top" xlink:title=" ">
<polygon fill="none" stroke="black" points="223.01,-112.5 223.01,-131.5 327.01,-131.5 327.01,-112.5 223.01,-112.5"/>
<text text-anchor="middle" x="275.01" y="-119.5" font-family="Helvetica,sans-Serif" font-size="10.00">LSM9DS1Sensor.h</text>
</a>
</g>
</g>
<!-- Node1&#45;&gt;Node10 -->
<g id="edge12" class="edge">
<title>Node1&#45;&gt;Node10</title>
<path fill="none" stroke="midnightblue" d="M383.31,-164.77C357.01,-154.63 320.3,-140.47 297.09,-131.52"/>
<polygon fill="midnightblue" stroke="midnightblue" points="382.24,-168.11 392.83,-168.44 384.76,-161.58 382.24,-168.11"/>
</g>
<!-- Node12 -->
<g id="node12" class="node">
<title>Node12</title>
<g id="a_node12"><a xlink:href="RadioStorage_8h.html" target="_top" xlink:title=" ">
<polygon fill="none" stroke="black" points="369.51,-112.5 369.51,-131.5 460.51,-131.5 460.51,-112.5 369.51,-112.5"/>
<text text-anchor="middle" x="415.01" y="-119.5" font-family="Helvetica,sans-Serif" font-size="10.00">RadioStorage.h</text>
</a>
</g>
</g>
<!-- Node1&#45;&gt;Node12 -->
<g id="edge15" class="edge">
<title>Node1&#45;&gt;Node12</title>
<path fill="none" stroke="midnightblue" d="M415.01,-157.8C415.01,-148.91 415.01,-138.78 415.01,-131.75"/>
<polygon fill="midnightblue" stroke="midnightblue" points="411.51,-158.08 415.01,-168.08 418.51,-158.08 411.51,-158.08"/>
</g>
<!-- Node3 -->
<g id="node3" class="node">
<title>Node3</title>
<g id="a_node3"><a xlink:href="BME680Sensor_8cpp.html" target="_top" xlink:title=" ">
<polygon fill="none" stroke="black" points="13.51,-56.5 13.51,-75.5 122.51,-75.5 122.51,-56.5 13.51,-56.5"/>
<text text-anchor="middle" x="68.01" y="-63.5" font-family="Helvetica,sans-Serif" font-size="10.00">BME680Sensor.cpp</text>
</a>
</g>
</g>
<!-- Node2&#45;&gt;Node3 -->
<g id="edge2" class="edge">
<title>Node2&#45;&gt;Node3</title>
<path fill="none" stroke="midnightblue" d="M128.91,-106.62C113.75,-96.76 94.13,-83.99 81.32,-75.65"/>
<polygon fill="midnightblue" stroke="midnightblue" points="127.39,-109.8 137.68,-112.32 131.21,-103.94 127.39,-109.8"/>
</g>
<!-- Node2&#45;&gt;Node4 -->
<g id="edge3" class="edge">
<title>Node2&#45;&gt;Node4</title>
<path fill="none" stroke="midnightblue" d="M160.06,-103.27C168.48,-88.51 182.37,-68.04 200.01,-56 239.69,-28.93 295.36,-18.05 329.75,-13.75"/>
<polygon fill="midnightblue" stroke="midnightblue" points="156.81,-101.94 155.13,-112.4 162.96,-105.27 156.81,-101.94"/>
</g>
<!-- Node5&#45;&gt;Node4 -->
<g id="edge8" class="edge">
<title>Node5&#45;&gt;Node4</title>
<path fill="none" stroke="midnightblue" d="M684.16,-102.37C678.44,-87.36 668.19,-67.01 652.01,-56 610.07,-27.45 458.21,-16.12 392.11,-12.47"/>
<polygon fill="midnightblue" stroke="midnightblue" points="680.97,-103.84 687.55,-112.15 687.58,-101.55 680.97,-103.84"/>
</g>
<!-- Node5&#45;&gt;Node6 -->
<g id="edge5" class="edge">
<title>Node5&#45;&gt;Node6</title>
<path fill="none" stroke="midnightblue" d="M709.33,-106.1C721.93,-96.38 737.94,-84.03 748.56,-75.83"/>
<polygon fill="midnightblue" stroke="midnightblue" points="707.04,-103.44 701.26,-112.32 711.32,-108.99 707.04,-103.44"/>
</g>
<!-- Node6&#45;&gt;Node4 -->
<g id="edge6" class="edge">
<title>Node6&#45;&gt;Node4</title>
<path fill="none" stroke="midnightblue" d="M710.95,-56.6C709.63,-56.39 708.31,-56.19 707.01,-56 591.1,-38.63 452.74,-21.81 392.09,-14.63"/>
<polygon fill="midnightblue" stroke="midnightblue" points="710.83,-60.12 721.25,-58.24 711.93,-53.21 710.83,-60.12"/>
</g>
<!-- Node7 -->
<g id="node7" class="node">
<title>Node7</title>
<g id="a_node7"><a xlink:href="SDStorage_8cpp.html" target="_top" xlink:title=" ">
<polygon fill="none" stroke="black" points="716.01,-0.5 716.01,-19.5 804.01,-19.5 804.01,-0.5 716.01,-0.5"/>
<text text-anchor="middle" x="760.01" y="-7.5" font-family="Helvetica,sans-Serif" font-size="10.00">SDStorage.cpp</text>
</a>
</g>
</g>
<!-- Node6&#45;&gt;Node7 -->
<g id="edge7" class="edge">
<title>Node6&#45;&gt;Node7</title>
<path fill="none" stroke="midnightblue" d="M760.01,-45.8C760.01,-36.91 760.01,-26.78 760.01,-19.75"/>
<polygon fill="midnightblue" stroke="midnightblue" points="756.51,-46.08 760.01,-56.08 763.51,-46.08 756.51,-46.08"/>
</g>
<!-- Node8&#45;&gt;Node4 -->
<g id="edge11" class="edge">
<title>Node8&#45;&gt;Node4</title>
<path fill="none" stroke="midnightblue" d="M598.56,-107.9C623.63,-95.32 652.52,-75.42 636.01,-56 605,-19.5 457.46,-12.54 392.19,-11.26"/>
<polygon fill="midnightblue" stroke="midnightblue" points="596.76,-104.88 589.24,-112.34 599.77,-111.2 596.76,-104.88"/>
</g>
<!-- Node9 -->
<g id="node9" class="node">
<title>Node9</title>
<g id="a_node9"><a xlink:href="ICM20948Sensor_8cpp.html" target="_top" xlink:title=" ">
<polygon fill="none" stroke="black" points="509.01,-56.5 509.01,-75.5 627.01,-75.5 627.01,-56.5 509.01,-56.5"/>
<text text-anchor="middle" x="568.01" y="-63.5" font-family="Helvetica,sans-Serif" font-size="10.00">ICM20948Sensor.cpp</text>
</a>
</g>
</g>
<!-- Node8&#45;&gt;Node9 -->
<g id="edge10" class="edge">
<title>Node8&#45;&gt;Node9</title>
<path fill="none" stroke="midnightblue" d="M568.01,-101.8C568.01,-92.91 568.01,-82.78 568.01,-75.75"/>
<polygon fill="midnightblue" stroke="midnightblue" points="564.51,-102.08 568.01,-112.08 571.51,-102.08 564.51,-102.08"/>
</g>
<!-- Node10&#45;&gt;Node4 -->
<g id="edge14" class="edge">
<title>Node10&#45;&gt;Node4</title>
<path fill="none" stroke="midnightblue" d="M245.01,-108.06C220.76,-95.74 192.95,-76.14 208.01,-56 222.61,-36.49 289.45,-22.54 329.8,-15.72"/>
<polygon fill="midnightblue" stroke="midnightblue" points="243.51,-111.22 254.03,-112.42 246.55,-104.92 243.51,-111.22"/>
</g>
<!-- Node11 -->
<g id="node11" class="node">
<title>Node11</title>
<g id="a_node11"><a xlink:href="LSM9DS1Sensor_8cpp.html" target="_top" xlink:title=" ">
<polygon fill="none" stroke="black" points="217.51,-56.5 217.51,-75.5 332.51,-75.5 332.51,-56.5 217.51,-56.5"/>
<text text-anchor="middle" x="275.01" y="-63.5" font-family="Helvetica,sans-Serif" font-size="10.00">LSM9DS1Sensor.cpp</text>
</a>
</g>
</g>
<!-- Node10&#45;&gt;Node11 -->
<g id="edge13" class="edge">
<title>Node10&#45;&gt;Node11</title>
<path fill="none" stroke="midnightblue" d="M275.01,-101.8C275.01,-92.91 275.01,-82.78 275.01,-75.75"/>
<polygon fill="midnightblue" stroke="midnightblue" points="271.51,-102.08 275.01,-112.08 278.51,-102.08 271.51,-102.08"/>
</g>
<!-- Node12&#45;&gt;Node4 -->
<g id="edge16" class="edge">
<title>Node12&#45;&gt;Node4</title>
<path fill="none" stroke="midnightblue" d="M399.97,-104.78C393.09,-96.64 385.3,-86.33 380.01,-76 370.38,-57.16 364.9,-32.68 362.5,-19.8"/>
<polygon fill="midnightblue" stroke="midnightblue" points="397.44,-107.2 406.68,-112.39 402.69,-102.57 397.44,-107.2"/>
</g>
<!-- Node13 -->
<g id="node13" class="node">
<title>Node13</title>
<g id="a_node13"><a xlink:href="RadioStorage_8cpp.html" target="_top" xlink:title=" ">
<polygon fill="none" stroke="black" points="389.01,-56.5 389.01,-75.5 491.01,-75.5 491.01,-56.5 389.01,-56.5"/>
<text text-anchor="middle" x="440.01" y="-63.5" font-family="Helvetica,sans-Serif" font-size="10.00">RadioStorage.cpp</text>
</a>
</g>
</g>
<!-- Node12&#45;&gt;Node13 -->
<g id="edge17" class="edge">
<title>Node12&#45;&gt;Node13</title>
<path fill="none" stroke="midnightblue" d="M423.36,-102.98C427.6,-93.82 432.56,-83.09 435.96,-75.75"/>
<polygon fill="midnightblue" stroke="midnightblue" points="420.17,-101.54 419.14,-112.08 426.52,-104.48 420.17,-101.54"/>
</g>
</g>
</svg>
        <g id="navigator" transform="translate(0 0)" fill="#404254">
                <rect fill="#f2f5e9" fill-opacity="0.5" stroke="#606060" stroke-width=".5" x="0" y="0" width="60" height="60"/>
                <use id="zoomplus" xlink:href="#zoomPlus" x="17" y="9" onmousedown="handleZoom(evt,'in')"/>
                <use id="zoomminus" xlink:href="#zoomMin" x="42" y="9" onmousedown="handleZoom(evt,'out')"/>
                <use id="reset" xlink:href="#resetDef" x="30" y="36" onmousedown="handleReset()"/>
                <g id="arrowUp" xlink:href="#dirArrow" transform="translate(30 24)" onmousedown="handlePan(0,-1)">
                  <use xlink:href="#rim" fill="#404040">
                        <set attributeName="fill" to="#808080" begin="arrowUp.mouseover" end="arrowUp.mouseout"/>
                  </use>
                  <path fill="none" stroke="white" stroke-width="1.5" d="M0,-3.0v7 M-2.5,-0.5L0,-3.0L2.5,-0.5"/>
                </g>
                <g id="arrowRight" xlink:href="#dirArrow" transform="rotate(90) translate(36 -43)" onmousedown="handlePan(1,0)">
                  <use xlink:href="#rim" fill="#404040">
                        <set attributeName="fill" to="#808080" begin="arrowRight.mouseover" end="arrowRight.mouseout"/>
                  </use>
                  <path fill="none" stroke="white" stroke-width="1.5" d="M0,-3.0v7 M-2.5,-0.5L0,-3.0L2.5,-0.5"/>
                </g>
                <g id="arrowDown" xlink:href="#dirArrow" transform="rotate(180) translate(-30 -48)" onmousedown="handlePan(0,1)">
                  <use xlink:href="#rim" fill="#404040">
                        <set attributeName="fill" to="#808080" begin="arrowDown.mouseover" end="arrowDown.mouseout"/>
                  </use>
                  <path fill="none" stroke="white" stroke-width="1.5" d="M0,-3.0v7 M-2.5,-0.5L0,-3.0L2.5,-0.5"/>
                </g>
                <g id="arrowLeft" xlink:href="#dirArrow" transform="rotate(270) translate(-36 17)" onmousedown="handlePan(-1,0)">
                  <use xlink:href="#rim" fill="#404040">
                        <set attributeName="fill" to="#808080" begin="arrowLeft.mouseover" end="arrowLeft.mouseout"/>
                  </use>
                  <path fill="none" stroke="white" stroke-width="1.5" d="M0,-3.0v7 M-2.5,-0.5L0,-3.0L2.5,-0.5"/>
                </g>
        </g>
        <svg viewBox="0 0 15 15" width="100%" height="30px" preserveAspectRatio="xMaxYMin meet">
         <g id="arrow_out" transform="scale(0.3 0.3)">
          <a xlink:href="PayloadConfig_8h__dep__incl_org.svg" target="_base">
           <rect id="button" ry="5" rx="5" y="6" x="6" height="38" width="38"
                fill="#f2f5e9" fill-opacity="0.5" stroke="#606060" stroke-width="1.0"/>
           <path id="arrow"
             d="M 11.500037,31.436501 C 11.940474,20.09759 22.043105,11.32322 32.158766,21.979434 L 37.068811,17.246167 C 37.068811,17.246167 37.088388,32 37.088388,32 L 22.160133,31.978069 C 22.160133,31.978069 26.997745,27.140456 26.997745,27.140456 C 18.528582,18.264221 13.291696,25.230495 11.500037,31.436501 z"
             style="fill:#404040;"/>
          </a>
         </g>
        </svg>
</svg>
