<?xml version="1.0" encoding="UTF-8" standalone="no"?>
<!DOCTYPE svg PUBLIC "-//W3C//DTD SVG 1.1//EN"
 "http://www.w3.org/Graphics/SVG/1.1/DTD/svg11.dtd">
<!-- Generated by graphviz version 2.43.0 (0)
 -->
<!-- Title: PayloadConfig.h Pages: 1 -->
<svg width="794pt" height="196pt"
 viewBox="0.00 0.00 793.50 196.00" xmlns="http://www.w3.org/2000/svg" xmlns:xlink="http://www.w3.org/1999/xlink">
<g id="graph0" class="graph" transform="scale(1 1) rotate(0) translate(4 192)">
<title>PayloadConfig.h</title>
<!-- Node1 -->
<g id="node1" class="node">
<title>Node1</title>
<g id="a_node1"><a xlink:title=" ">
<polygon fill="#bfbfbf" stroke="black" points="281,-168.5 281,-187.5 376,-187.5 376,-168.5 281,-168.5"/>
<text text-anchor="middle" x="328.5" y="-175.5" font-family="Helvetica,sans-Serif" font-size="10.00">PayloadConfig.h</text>
</a>
</g>
</g>
<!-- Node2 -->
<g id="node2" class="node">
<title>Node2</title>
<g id="a_node2"><a xlink:href="BME680Sensor_8h.html" target="_top" xlink:title=" ">
<polygon fill="none" stroke="black" points="76.5,-112.5 76.5,-131.5 174.5,-131.5 174.5,-112.5 76.5,-112.5"/>
<text text-anchor="middle" x="125.5" y="-119.5" font-family="Helvetica,sans-Serif" font-size="10.00">BME680Sensor.h</text>
</a>
</g>
</g>
<!-- Node1&#45;&gt;Node2 -->
<g id="edge1" class="edge">
<title>Node1&#45;&gt;Node2</title>
<path fill="none" stroke="midnightblue" d="M286.51,-165.83C248.18,-155.63 192.35,-140.78 157.52,-131.52"/>
<polygon fill="midnightblue" stroke="midnightblue" points="285.77,-169.26 296.33,-168.44 287.57,-162.49 285.77,-169.26"/>
</g>
<!-- Node5 -->
<g id="node5" class="node">
<title>Node5</title>
<g id="a_node5"><a xlink:href="ErrorDisplay_8h.html" target="_top" xlink:title=" ">
<polygon fill="none" stroke="black" points="230.5,-112.5 230.5,-131.5 314.5,-131.5 314.5,-112.5 230.5,-112.5"/>
<text text-anchor="middle" x="272.5" y="-119.5" font-family="Helvetica,sans-Serif" font-size="10.00">ErrorDisplay.h</text>
</a>
</g>
</g>
<!-- Node1&#45;&gt;Node5 -->
<g id="edge4" class="edge">
<title>Node1&#45;&gt;Node5</title>
<path fill="none" stroke="midnightblue" d="M312.17,-161.25C302.24,-151.67 289.91,-139.79 281.66,-131.83"/>
<polygon fill="midnightblue" stroke="midnightblue" points="309.87,-163.9 319.5,-168.32 314.73,-158.86 309.87,-163.9"/>
</g>
<!-- Node6 -->
<g id="node6" class="node">
<title>Node6</title>
<g id="a_node6"><a xlink:href="SDStorage_8h.html" target="_top" xlink:title=" ">
<polygon fill="none" stroke="black" points="166,-56.5 166,-75.5 243,-75.5 243,-56.5 166,-56.5"/>
<text text-anchor="middle" x="204.5" y="-63.5" font-family="Helvetica,sans-Serif" font-size="10.00">SDStorage.h</text>
</a>
</g>
</g>
<!-- Node1&#45;&gt;Node6 -->
<g id="edge18" class="edge">
<title>Node1&#45;&gt;Node6</title>
<path fill="none" stroke="midnightblue" d="M275.56,-165.31C256.11,-158.56 235.45,-148.09 221.5,-132 207.44,-115.78 204.81,-89.3 204.44,-75.68"/>
<polygon fill="midnightblue" stroke="midnightblue" points="274.69,-168.71 285.28,-168.43 276.83,-162.04 274.69,-168.71"/>
</g>
<!-- Node8 -->
<g id="node8" class="node">
<title>Node8</title>
<g id="a_node8"><a xlink:href="ICM20948Sensor_8h.html" target="_top" xlink:title=" ">
<polygon fill="none" stroke="black" points="332,-112.5 332,-131.5 439,-131.5 439,-112.5 332,-112.5"/>
<text text-anchor="middle" x="385.5" y="-119.5" font-family="Helvetica,sans-Serif" font-size="10.00">ICM20948Sensor.h</text>
</a>
</g>
</g>
<!-- Node1&#45;&gt;Node8 -->
<g id="edge9" class="edge">
<title>Node1&#45;&gt;Node8</title>
<path fill="none" stroke="midnightblue" d="M345.12,-161.25C355.23,-151.67 367.78,-139.79 376.18,-131.83"/>
<polygon fill="midnightblue" stroke="midnightblue" points="342.51,-158.91 337.66,-168.32 347.32,-163.99 342.51,-158.91"/>
</g>
<!-- Node10 -->
<g id="node10" class="node">
<title>Node10</title>
<g id="a_node10"><a xlink:href="LSM9DS1Sensor_8h.html" target="_top" xlink:title=" ">
<polygon fill="none" stroke="black" points="457.5,-112.5 457.5,-131.5 561.5,-131.5 561.5,-112.5 457.5,-112.5"/>
<text text-anchor="middle" x="509.5" y="-119.5" font-family="Helvetica,sans-Serif" font-size="10.00">LSM9DS1Sensor.h</text>
</a>
</g>
</g>
<!-- Node1&#45;&gt;Node10 -->
<g id="edge12" class="edge">
<title>Node1&#45;&gt;Node10</title>
<path fill="none" stroke="midnightblue" d="M366.82,-165.57C400.96,-155.38 450.16,-140.7 480.95,-131.52"/>
<polygon fill="midnightblue" stroke="midnightblue" points="365.76,-162.23 357.18,-168.44 367.76,-168.94 365.76,-162.23"/>
</g>
<!-- Node12 -->
<g id="node12" class="node">
<title>Node12</title>
<g id="a_node12"><a xlink:href="RadioStorage_8h.html" target="_top" xlink:title=" ">
<polygon fill="none" stroke="black" points="610,-112.5 610,-131.5 701,-131.5 701,-112.5 610,-112.5"/>
<text text-anchor="middle" x="655.5" y="-119.5" font-family="Helvetica,sans-Serif" font-size="10.00">RadioStorage.h</text>
</a>
</g>
</g>
<!-- Node1&#45;&gt;Node12 -->
<g id="edge15" class="edge">
<title>Node1&#45;&gt;Node12</title>
<path fill="none" stroke="midnightblue" d="M385.94,-167.51C449.65,-156.99 551.16,-140.23 609.74,-130.56"/>
<polygon fill="midnightblue" stroke="midnightblue" points="385.34,-164.07 376.05,-169.15 386.49,-170.97 385.34,-164.07"/>
</g>
<!-- Node3 -->
<g id="node3" class="node">
<title>Node3</title>
<g id="a_node3"><a xlink:href="BME680Sensor_8cpp.html" target="_top" xlink:title=" ">
<polygon fill="none" stroke="black" points="0,-56.5 0,-75.5 109,-75.5 109,-56.5 0,-56.5"/>
<text text-anchor="middle" x="54.5" y="-63.5" font-family="Helvetica,sans-Serif" font-size="10.00">BME680Sensor.cpp</text>
</a>
</g>
</g>
<!-- Node2&#45;&gt;Node3 -->
<g id="edge2" class="edge">
<title>Node2&#45;&gt;Node3</title>
<path fill="none" stroke="midnightblue" d="M105.91,-106.1C93.13,-96.38 76.89,-84.03 66.11,-75.83"/>
<polygon fill="midnightblue" stroke="midnightblue" points="104.01,-109.06 114.09,-112.32 108.25,-103.48 104.01,-109.06"/>
</g>
<!-- Node4 -->
<g id="node4" class="node">
<title>Node4</title>
<g id="a_node4"><a xlink:href="main_8cpp.html" target="_top" xlink:title=" ">
<polygon fill="none" stroke="black" points="272.5,-0.5 272.5,-19.5 334.5,-19.5 334.5,-0.5 272.5,-0.5"/>
<text text-anchor="middle" x="303.5" y="-7.5" font-family="Helvetica,sans-Serif" font-size="10.00">main.cpp</text>
</a>
</g>
</g>
<!-- Node2&#45;&gt;Node4 -->
<g id="edge3" class="edge">
<title>Node2&#45;&gt;Node4</title>
<path fill="none" stroke="midnightblue" d="M129.89,-102.57C134.29,-87.98 142.46,-68.1 156.5,-56 173.94,-40.97 234.62,-25.76 272.35,-17.44"/>
<polygon fill="midnightblue" stroke="midnightblue" points="126.45,-101.92 127.24,-112.48 133.21,-103.73 126.45,-101.92"/>
</g>
<!-- Node5&#45;&gt;Node4 -->
<g id="edge8" class="edge">
<title>Node5&#45;&gt;Node4</title>
<path fill="none" stroke="midnightblue" d="M277.66,-102.67C284.44,-78.62 296.06,-37.39 301.08,-19.59"/>
<polygon fill="midnightblue" stroke="midnightblue" points="274.28,-101.79 274.93,-112.37 281.01,-103.69 274.28,-101.79"/>
</g>
<!-- Node5&#45;&gt;Node6 -->
<g id="edge5" class="edge">
<title>Node5&#45;&gt;Node6</title>
<path fill="none" stroke="midnightblue" d="M253.74,-106.1C241.5,-96.38 225.94,-84.03 215.62,-75.83"/>
<polygon fill="midnightblue" stroke="midnightblue" points="251.57,-108.85 261.57,-112.32 255.92,-103.36 251.57,-108.85"/>
</g>
<!-- Node6&#45;&gt;Node4 -->
<g id="edge6" class="edge">
<title>Node6&#45;&gt;Node4</title>
<path fill="none" stroke="midnightblue" d="M229.34,-51.45C247.61,-41.48 271.92,-28.23 287.63,-19.65"/>
<polygon fill="midnightblue" stroke="midnightblue" points="227.51,-48.46 220.41,-56.32 230.86,-54.61 227.51,-48.46"/>
</g>
<!-- Node7 -->
<g id="node7" class="node">
<title>Node7</title>
<g id="a_node7"><a xlink:href="SDStorage_8cpp.html" target="_top" xlink:title=" ">
<polygon fill="none" stroke="black" points="160.5,-0.5 160.5,-19.5 248.5,-19.5 248.5,-0.5 160.5,-0.5"/>
<text text-anchor="middle" x="204.5" y="-7.5" font-family="Helvetica,sans-Serif" font-size="10.00">SDStorage.cpp</text>
</a>
</g>
</g>
<!-- Node6&#45;&gt;Node7 -->
<g id="edge7" class="edge">
<title>Node6&#45;&gt;Node7</title>
<path fill="none" stroke="midnightblue" d="M204.5,-45.8C204.5,-36.91 204.5,-26.78 204.5,-19.75"/>
<polygon fill="midnightblue" stroke="midnightblue" points="201,-46.08 204.5,-56.08 208,-46.08 201,-46.08"/>
</g>
<!-- Node8&#45;&gt;Node4 -->
<g id="edge11" class="edge">
<title>Node8&#45;&gt;Node4</title>
<path fill="none" stroke="midnightblue" d="M361.91,-106.7C350.54,-98.82 337.47,-88.18 328.5,-76 315.45,-58.28 308.32,-32.9 305.29,-19.71"/>
<polygon fill="midnightblue" stroke="midnightblue" points="360.27,-109.81 370.55,-112.39 364.13,-103.97 360.27,-109.81"/>
</g>
<!-- Node9 -->
<g id="node9" class="node">
<title>Node9</title>
<g id="a_node9"><a xlink:href="ICM20948Sensor_8cpp.html" target="_top" xlink:title=" ">
<polygon fill="none" stroke="black" points="337.5,-56.5 337.5,-75.5 455.5,-75.5 455.5,-56.5 337.5,-56.5"/>
<text text-anchor="middle" x="396.5" y="-63.5" font-family="Helvetica,sans-Serif" font-size="10.00">ICM20948Sensor.cpp</text>
</a>
</g>
</g>
<!-- Node8&#45;&gt;Node9 -->
<g id="edge10" class="edge">
<title>Node8&#45;&gt;Node9</title>
<path fill="none" stroke="midnightblue" d="M389.35,-102.1C391.18,-93.14 393.27,-82.86 394.72,-75.75"/>
<polygon fill="midnightblue" stroke="midnightblue" points="385.88,-101.59 387.32,-112.08 392.74,-102.98 385.88,-101.59"/>
</g>
<!-- Node10&#45;&gt;Node4 -->
<g id="edge14" class="edge">
<title>Node10&#45;&gt;Node4</title>
<path fill="none" stroke="midnightblue" d="M501.54,-103.27C494.02,-88.51 481.39,-68.03 464.5,-56 425.26,-28.05 369.21,-17.43 334.66,-13.41"/>
<polygon fill="midnightblue" stroke="midnightblue" points="498.43,-104.89 505.91,-112.4 504.75,-101.87 498.43,-104.89"/>
</g>
<!-- Node11 -->
<g id="node11" class="node">
<title>Node11</title>
<g id="a_node11"><a xlink:href="LSM9DS1Sensor_8cpp.html" target="_top" xlink:title=" ">
<polygon fill="none" stroke="black" points="512,-56.5 512,-75.5 627,-75.5 627,-56.5 512,-56.5"/>
<text text-anchor="middle" x="569.5" y="-63.5" font-family="Helvetica,sans-Serif" font-size="10.00">LSM9DS1Sensor.cpp</text>
</a>
</g>
</g>
<!-- Node10&#45;&gt;Node11 -->
<g id="edge13" class="edge">
<title>Node10&#45;&gt;Node11</title>
<path fill="none" stroke="midnightblue" d="M526.68,-105.54C537.38,-95.91 550.76,-83.87 559.68,-75.83"/>
<polygon fill="midnightblue" stroke="midnightblue" points="524.23,-103.03 519.14,-112.32 528.91,-108.24 524.23,-103.03"/>
</g>
<!-- Node12&#45;&gt;Node4 -->
<g id="edge16" class="edge">
<title>Node12&#45;&gt;Node4</title>
<path fill="none" stroke="midnightblue" d="M654.95,-102.16C653.44,-87.32 648.85,-67.32 635.5,-56 590.48,-17.81 408.1,-11.89 334.51,-11.08"/>
<polygon fill="midnightblue" stroke="midnightblue" points="651.46,-102.51 655.59,-112.26 658.45,-102.06 651.46,-102.51"/>
</g>
<!-- Node13 -->
<g id="node13" class="node">
<title>Node13</title>
<g id="a_node13"><a xlink:href="RadioStorage_8cpp.html" target="_top" xlink:title=" ">
<polygon fill="none" stroke="black" points="683.5,-56.5 683.5,-75.5 785.5,-75.5 785.5,-56.5 683.5,-56.5"/>
<text text-anchor="middle" x="734.5" y="-63.5" font-family="Helvetica,sans-Serif" font-size="10.00">RadioStorage.cpp</text>
</a>
</g>
</g>
<!-- Node12&#45;&gt;Node13 -->
<g id="edge17" class="edge">
<title>Node12&#45;&gt;Node13</title>
<path fill="none" stroke="midnightblue" d="M676.53,-106.62C690.97,-96.76 709.64,-83.99 721.84,-75.65"/>
<polygon fill="midnightblue" stroke="midnightblue" points="674.47,-103.79 668.19,-112.32 678.42,-109.57 674.47,-103.79"/>
</g>
</g>
</svg>
