<?xml version="1.0" encoding="UTF-8" standalone="no"?>
<!DOCTYPE svg PUBLIC "-//W3C//DTD SVG 1.1//EN"
 "http://www.w3.org/Graphics/SVG/1.1/DTD/svg11.dtd">
<!-- Generated by graphviz version 2.43.0 (0)
 -->
<!-- Title: PayloadConfig.h Pages: 1 -->
<!--zoomable 196 -->
<svg id="main" version="1.1" xmlns="http://www.w3.org/2000/svg" xmlns:xlink="http://www.w3.org/1999/xlink" xml:space="preserve" onload="init(evt)">
<style type="text/css"><![CDATA[
.edge:hover path { stroke: red; }
.edge:hover polygon { stroke: red; fill: red; }
]]></style>
<script type="text/javascript"><![CDATA[
var edges = document.getElementsByTagName('g');
if (edges && edges.length) {
  for (var i=0;i<edges.length;i++) {
    if (edges[i].id.substr(0,4)=='edge') {
      edges[i].setAttribute('class','edge');
    }
  }
}
]]></script>
        <defs>
                <circle id="rim" cx="0" cy="0" r="7"/>
                <circle id="rim2" cx="0" cy="0" r="3.5"/>
                <g id="zoomPlus">
                        <use xlink:href="#rim" fill="#404040">
                                <set attributeName="fill" to="#808080" begin="zoomplus.mouseover" end="zoomplus.mouseout"/>
                        </use>
                        <path d="M-4,0h8M0,-4v8" fill="none" stroke="white" stroke-width="1.5" pointer-events="none"/>
                </g>
                <g id="zoomMin">
                        <use xlink:href="#rim" fill="#404040">
                                <set attributeName="fill" to="#808080" begin="zoomminus.mouseover" end="zoomminus.mouseout"/>
                        </use>
                        <path d="M-4,0h8" fill="none" stroke="white" stroke-width="1.5" pointer-events="none"/>
                </g>
                <g id="dirArrow">
                        <path fill="none" stroke="white" stroke-width="1.5" d="M0,-3.0v7 M-2.5,-0.5L0,-3.0L2.5,-0.5"/>
                </g>
               <g id="resetDef">
                       <use xlink:href="#rim2" fill="#404040">
                               <set attributeName="fill" to="#808080" begin="reset.mouseover" end="reset.mouseout"/>
                       </use>
               </g>
        </defs>

<script type="text/javascript">
var viewWidth = 1143;
var viewHeight = 196;
var sectionId = 'dynsection-0';
</script>
<script xlink:href="svgpan.js"/>
<svg id="graph" class="graph">
<g id="viewport">
<title>PayloadConfig.h</title>
<!-- Node1 -->
<g id="node1" class="node">
<title>Node1</title>
<g id="a_node1"><a xlink:title=" ">
<polygon fill="#bfbfbf" stroke="black" points="350.5,-168.5 350.5,-187.5 445.5,-187.5 445.5,-168.5 350.5,-168.5"/>
<text text-anchor="middle" x="398" y="-175.5" font-family="Helvetica,sans-Serif" font-size="10.00">PayloadConfig.h</text>
</a>
</g>
</g>
<!-- Node2 -->
<g id="node2" class="node">
<title>Node2</title>
<g id="a_node2"><a xlink:href="BME680Sensor_8h.html" target="_top" xlink:title=" ">
<polygon fill="none" stroke="black" points="189,-112.5 189,-131.5 287,-131.5 287,-112.5 189,-112.5"/>
<text text-anchor="middle" x="238" y="-119.5" font-family="Helvetica,sans-Serif" font-size="10.00">BME680Sensor.h</text>
</a>
</g>
</g>
<!-- Node1&#45;&gt;Node2 -->
<g id="edge1" class="edge">
<title>Node1&#45;&gt;Node2</title>
<path fill="none" stroke="midnightblue" d="M362.95,-165.17C332.83,-155 290.1,-140.59 263.23,-131.52"/>
<polygon fill="midnightblue" stroke="midnightblue" points="362.05,-168.56 372.65,-168.44 364.29,-161.93 362.05,-168.56"/>
</g>
<!-- Node4 -->
<g id="node4" class="node">
<title>Node4</title>
<g id="a_node4"><a xlink:href="main_8cpp.html" target="_top" xlink:title=" ">
<polygon fill="none" stroke="black" points="442,-0.5 442,-19.5 504,-19.5 504,-0.5 442,-0.5"/>
<text text-anchor="middle" x="473" y="-7.5" font-family="Helvetica,sans-Serif" font-size="10.00">main.cpp</text>
</a>
</g>
</g>
<!-- Node1&#45;&gt;Node4 -->
<g id="edge25" class="edge">
<title>Node1&#45;&gt;Node4</title>
<path fill="none" stroke="midnightblue" d="M374.25,-162.79C363.35,-155.05 351.26,-144.49 344,-132 326.88,-102.54 313.96,-83.55 334,-56 358.54,-22.26 408.94,-13.3 441.83,-11.2"/>
<polygon fill="midnightblue" stroke="midnightblue" points="372.36,-165.74 382.62,-168.38 376.25,-159.92 372.36,-165.74"/>
</g>
<!-- Node5 -->
<g id="node5" class="node">
<title>Node5</title>
<g id="a_node5"><a xlink:href="ErrorDisplay_8h.html" target="_top" xlink:title=" ">
<polygon fill="none" stroke="black" points="72,-112.5 72,-131.5 156,-131.5 156,-112.5 72,-112.5"/>
<text text-anchor="middle" x="114" y="-119.5" font-family="Helvetica,sans-Serif" font-size="10.00">ErrorDisplay.h</text>
</a>
</g>
</g>
<!-- Node1&#45;&gt;Node5 -->
<g id="edge4" class="edge">
<title>Node1&#45;&gt;Node5</title>
<path fill="none" stroke="midnightblue" d="M343.13,-166.57C288.45,-156.17 205.67,-140.43 156.01,-130.99"/>
<polygon fill="midnightblue" stroke="midnightblue" points="342.52,-170.01 353,-168.44 343.83,-163.14 342.52,-170.01"/>
</g>
<!-- Node6 -->
<g id="node6" class="node">
<title>Node6</title>
<g id="a_node6"><a xlink:href="SDStorage_8h.html" target="_top" xlink:title=" ">
<polygon fill="none" stroke="black" points="5.5,-56.5 5.5,-75.5 82.5,-75.5 82.5,-56.5 5.5,-56.5"/>
<text text-anchor="middle" x="44" y="-63.5" font-family="Helvetica,sans-Serif" font-size="10.00">SDStorage.h</text>
</a>
</g>
</g>
<!-- Node1&#45;&gt;Node6 -->
<g id="edge24" class="edge">
<title>Node1&#45;&gt;Node6</title>
<path fill="none" stroke="midnightblue" d="M340.24,-176.62C255.59,-174.86 103.48,-166.79 63,-132 46.42,-117.75 43.9,-89.89 43.76,-75.72"/>
<polygon fill="midnightblue" stroke="midnightblue" points="340.4,-180.12 350.46,-176.8 340.53,-173.12 340.4,-180.12"/>
</g>
<!-- Node8 -->
<g id="node8" class="node">
<title>Node8</title>
<g id="a_node8"><a xlink:href="FlashStorage_8h.html" target="_top" xlink:title=" ">
<polygon fill="none" stroke="black" points="353.5,-112.5 353.5,-131.5 442.5,-131.5 442.5,-112.5 353.5,-112.5"/>
<text text-anchor="middle" x="398" y="-119.5" font-family="Helvetica,sans-Serif" font-size="10.00">FlashStorage.h</text>
</a>
</g>
</g>
<!-- Node1&#45;&gt;Node8 -->
<g id="edge9" class="edge">
<title>Node1&#45;&gt;Node8</title>
<path fill="none" stroke="midnightblue" d="M398,-157.8C398,-148.91 398,-138.78 398,-131.75"/>
<polygon fill="midnightblue" stroke="midnightblue" points="394.5,-158.08 398,-168.08 401.5,-158.08 394.5,-158.08"/>
</g>
<!-- Node10 -->
<g id="node10" class="node">
<title>Node10</title>
<g id="a_node10"><a xlink:href="ICM20948Sensor_8h.html" target="_top" xlink:title=" ">
<polygon fill="none" stroke="black" points="664.5,-112.5 664.5,-131.5 771.5,-131.5 771.5,-112.5 664.5,-112.5"/>
<text text-anchor="middle" x="718" y="-119.5" font-family="Helvetica,sans-Serif" font-size="10.00">ICM20948Sensor.h</text>
</a>
</g>
</g>
<!-- Node1&#45;&gt;Node10 -->
<g id="edge12" class="edge">
<title>Node1&#45;&gt;Node10</title>
<path fill="none" stroke="midnightblue" d="M455.69,-167.26C516.09,-157.07 609.99,-141.23 667.53,-131.52"/>
<polygon fill="midnightblue" stroke="midnightblue" points="454.84,-163.86 445.56,-168.97 456,-170.76 454.84,-163.86"/>
</g>
<!-- Node12 -->
<g id="node12" class="node">
<title>Node12</title>
<g id="a_node12"><a xlink:href="LSM9DS1Sensor_8h.html" target="_top" xlink:title=" ">
<polygon fill="none" stroke="black" points="839,-112.5 839,-131.5 943,-131.5 943,-112.5 839,-112.5"/>
<text text-anchor="middle" x="891" y="-119.5" font-family="Helvetica,sans-Serif" font-size="10.00">LSM9DS1Sensor.h</text>
</a>
</g>
</g>
<!-- Node1&#45;&gt;Node12 -->
<g id="edge15" class="edge">
<title>Node1&#45;&gt;Node12</title>
<path fill="none" stroke="midnightblue" d="M455.91,-170.66C552.73,-160.05 745.97,-138.89 838.82,-128.72"/>
<polygon fill="midnightblue" stroke="midnightblue" points="455.28,-167.21 445.72,-171.77 456.04,-174.16 455.28,-167.21"/>
</g>
<!-- Node14 -->
<g id="node14" class="node">
<title>Node14</title>
<g id="a_node14"><a xlink:href="MTK3339Sensor_8h.html" target="_top" xlink:title=" ">
<polygon fill="none" stroke="black" points="1011,-112.5 1011,-131.5 1115,-131.5 1115,-112.5 1011,-112.5"/>
<text text-anchor="middle" x="1063" y="-119.5" font-family="Helvetica,sans-Serif" font-size="10.00">MTK3339Sensor.h</text>
</a>
</g>
</g>
<!-- Node1&#45;&gt;Node14 -->
<g id="edge18" class="edge">
<title>Node1&#45;&gt;Node14</title>
<path fill="none" stroke="midnightblue" d="M455.91,-172.3C583.65,-161.92 888.01,-137.21 1010.55,-127.26"/>
<polygon fill="midnightblue" stroke="midnightblue" points="455.24,-168.84 445.56,-173.14 455.81,-175.82 455.24,-168.84"/>
</g>
<!-- Node16 -->
<g id="node16" class="node">
<title>Node16</title>
<g id="a_node16"><a xlink:href="RadioStorage_8h.html" target="_top" xlink:title=" ">
<polygon fill="none" stroke="black" points="465.5,-112.5 465.5,-131.5 556.5,-131.5 556.5,-112.5 465.5,-112.5"/>
<text text-anchor="middle" x="511" y="-119.5" font-family="Helvetica,sans-Serif" font-size="10.00">RadioStorage.h</text>
</a>
</g>
</g>
<!-- Node1&#45;&gt;Node16 -->
<g id="edge21" class="edge">
<title>Node1&#45;&gt;Node16</title>
<path fill="none" stroke="midnightblue" d="M425,-164.1C446.11,-154.01 474.86,-140.27 493.18,-131.52"/>
<polygon fill="midnightblue" stroke="midnightblue" points="423.42,-160.97 415.91,-168.44 426.44,-167.29 423.42,-160.97"/>
</g>
<!-- Node3 -->
<g id="node3" class="node">
<title>Node3</title>
<g id="a_node3"><a xlink:href="BME680Sensor_8cpp.html" target="_top" xlink:title=" ">
<polygon fill="none" stroke="black" points="139.5,-56.5 139.5,-75.5 248.5,-75.5 248.5,-56.5 139.5,-56.5"/>
<text text-anchor="middle" x="194" y="-63.5" font-family="Helvetica,sans-Serif" font-size="10.00">BME680Sensor.cpp</text>
</a>
</g>
</g>
<!-- Node2&#45;&gt;Node3 -->
<g id="edge2" class="edge">
<title>Node2&#45;&gt;Node3</title>
<path fill="none" stroke="midnightblue" d="M224.27,-104.14C216.6,-94.74 207.37,-83.4 201.13,-75.75"/>
<polygon fill="midnightblue" stroke="midnightblue" points="221.7,-106.54 230.73,-112.08 227.13,-102.12 221.7,-106.54"/>
</g>
<!-- Node2&#45;&gt;Node4 -->
<g id="edge3" class="edge">
<title>Node2&#45;&gt;Node4</title>
<path fill="none" stroke="midnightblue" d="M250.07,-104.09C261.54,-89.25 280.1,-68.21 301,-56 345.78,-29.85 405.86,-18.65 441.87,-14.03"/>
<polygon fill="midnightblue" stroke="midnightblue" points="247.06,-102.27 243.89,-112.38 252.67,-106.46 247.06,-102.27"/>
</g>
<!-- Node5&#45;&gt;Node4 -->
<g id="edge8" class="edge">
<title>Node5&#45;&gt;Node4</title>
<path fill="none" stroke="midnightblue" d="M113.29,-102.24C113.83,-87.46 117.16,-67.49 130,-56 175.65,-15.15 366.35,-10.83 441.94,-10.76"/>
<polygon fill="midnightblue" stroke="midnightblue" points="109.79,-102.32 113.32,-112.31 116.79,-102.3 109.79,-102.32"/>
</g>
<!-- Node5&#45;&gt;Node6 -->
<g id="edge5" class="edge">
<title>Node5&#45;&gt;Node6</title>
<path fill="none" stroke="midnightblue" d="M94.69,-106.1C82.09,-96.38 66.07,-84.03 55.45,-75.83"/>
<polygon fill="midnightblue" stroke="midnightblue" points="92.7,-108.99 102.75,-112.32 96.97,-103.44 92.7,-108.99"/>
</g>
<!-- Node6&#45;&gt;Node4 -->
<g id="edge6" class="edge">
<title>Node6&#45;&gt;Node4</title>
<path fill="none" stroke="midnightblue" d="M93.06,-56.58C94.38,-56.38 95.7,-56.19 97,-56 224.53,-37.55 377.18,-20.97 441.74,-14.22"/>
<polygon fill="midnightblue" stroke="midnightblue" points="92.09,-53.19 82.75,-58.19 93.17,-60.11 92.09,-53.19"/>
</g>
<!-- Node7 -->
<g id="node7" class="node">
<title>Node7</title>
<g id="a_node7"><a xlink:href="SDStorage_8cpp.html" target="_top" xlink:title=" ">
<polygon fill="none" stroke="black" points="0,-0.5 0,-19.5 88,-19.5 88,-0.5 0,-0.5"/>
<text text-anchor="middle" x="44" y="-7.5" font-family="Helvetica,sans-Serif" font-size="10.00">SDStorage.cpp</text>
</a>
</g>
</g>
<!-- Node6&#45;&gt;Node7 -->
<g id="edge7" class="edge">
<title>Node6&#45;&gt;Node7</title>
<path fill="none" stroke="midnightblue" d="M44,-45.8C44,-36.91 44,-26.78 44,-19.75"/>
<polygon fill="midnightblue" stroke="midnightblue" points="40.5,-46.08 44,-56.08 47.5,-46.08 40.5,-46.08"/>
</g>
<!-- Node8&#45;&gt;Node4 -->
<g id="edge11" class="edge">
<title>Node8&#45;&gt;Node4</title>
<path fill="none" stroke="midnightblue" d="M421.1,-106.78C432.15,-98.93 444.75,-88.28 453,-76 464.99,-58.17 470.04,-32.84 471.96,-19.68"/>
<polygon fill="midnightblue" stroke="midnightblue" points="419.01,-103.97 412.68,-112.46 422.93,-109.77 419.01,-103.97"/>
</g>
<!-- Node9 -->
<g id="node9" class="node">
<title>Node9</title>
<g id="a_node9"><a xlink:href="FlashStorage_8cpp.html" target="_top" xlink:title=" ">
<polygon fill="none" stroke="black" points="343.5,-56.5 343.5,-75.5 444.5,-75.5 444.5,-56.5 343.5,-56.5"/>
<text text-anchor="middle" x="394" y="-63.5" font-family="Helvetica,sans-Serif" font-size="10.00">FlashStorage.cpp</text>
</a>
</g>
</g>
<!-- Node8&#45;&gt;Node9 -->
<g id="edge10" class="edge">
<title>Node8&#45;&gt;Node9</title>
<path fill="none" stroke="midnightblue" d="M396.6,-102.1C395.94,-93.14 395.17,-82.86 394.65,-75.75"/>
<polygon fill="midnightblue" stroke="midnightblue" points="393.11,-102.37 397.34,-112.08 400.09,-101.85 393.11,-102.37"/>
</g>
<!-- Node10&#45;&gt;Node4 -->
<g id="edge14" class="edge">
<title>Node10&#45;&gt;Node4</title>
<path fill="none" stroke="midnightblue" d="M748.2,-108.04C773.43,-95.42 802.79,-75.37 786,-56 749.69,-14.1 575.8,-10.3 504.06,-10.57"/>
<polygon fill="midnightblue" stroke="midnightblue" points="746.36,-105.04 738.84,-112.49 749.37,-111.36 746.36,-105.04"/>
</g>
<!-- Node11 -->
<g id="node11" class="node">
<title>Node11</title>
<g id="a_node11"><a xlink:href="ICM20948Sensor_8cpp.html" target="_top" xlink:title=" ">
<polygon fill="none" stroke="black" points="659,-56.5 659,-75.5 777,-75.5 777,-56.5 659,-56.5"/>
<text text-anchor="middle" x="718" y="-63.5" font-family="Helvetica,sans-Serif" font-size="10.00">ICM20948Sensor.cpp</text>
</a>
</g>
</g>
<!-- Node10&#45;&gt;Node11 -->
<g id="edge13" class="edge">
<title>Node10&#45;&gt;Node11</title>
<path fill="none" stroke="midnightblue" d="M718,-101.8C718,-92.91 718,-82.78 718,-75.75"/>
<polygon fill="midnightblue" stroke="midnightblue" points="714.5,-102.08 718,-112.08 721.5,-102.08 714.5,-102.08"/>
</g>
<!-- Node12&#45;&gt;Node4 -->
<g id="edge17" class="edge">
<title>Node12&#45;&gt;Node4</title>
<path fill="none" stroke="midnightblue" d="M921.02,-107.78C946.08,-94.98 975.13,-74.8 958,-56 927.42,-22.45 606.85,-13.52 504.34,-11.52"/>
<polygon fill="midnightblue" stroke="midnightblue" points="919.18,-104.78 911.72,-112.31 922.25,-111.08 919.18,-104.78"/>
</g>
<!-- Node13 -->
<g id="node13" class="node">
<title>Node13</title>
<g id="a_node13"><a xlink:href="LSM9DS1Sensor_8cpp.html" target="_top" xlink:title=" ">
<polygon fill="none" stroke="black" points="833.5,-56.5 833.5,-75.5 948.5,-75.5 948.5,-56.5 833.5,-56.5"/>
<text text-anchor="middle" x="891" y="-63.5" font-family="Helvetica,sans-Serif" font-size="10.00">LSM9DS1Sensor.cpp</text>
</a>
</g>
</g>
<!-- Node12&#45;&gt;Node13 -->
<g id="edge16" class="edge">
<title>Node12&#45;&gt;Node13</title>
<path fill="none" stroke="midnightblue" d="M891,-101.8C891,-92.91 891,-82.78 891,-75.75"/>
<polygon fill="midnightblue" stroke="midnightblue" points="887.5,-102.08 891,-112.08 894.5,-102.08 887.5,-102.08"/>
</g>
<!-- Node14&#45;&gt;Node4 -->
<g id="edge19" class="edge">
<title>Node14&#45;&gt;Node4</title>
<path fill="none" stroke="midnightblue" d="M1092.37,-108.07C1117.66,-95.23 1147.54,-74.78 1130,-56 1086.89,-9.83 628.58,-9.84 504.07,-10.7"/>
<polygon fill="midnightblue" stroke="midnightblue" points="1090.82,-104.93 1083.35,-112.45 1093.88,-111.23 1090.82,-104.93"/>
</g>
<!-- Node15 -->
<g id="node15" class="node">
<title>Node15</title>
<g id="a_node15"><a xlink:href="MTK3339Sensor_8cpp.html" target="_top" xlink:title=" ">
<polygon fill="none" stroke="black" points="1005.5,-56.5 1005.5,-75.5 1120.5,-75.5 1120.5,-56.5 1005.5,-56.5"/>
<text text-anchor="middle" x="1063" y="-63.5" font-family="Helvetica,sans-Serif" font-size="10.00">MTK3339Sensor.cpp</text>
</a>
</g>
</g>
<!-- Node14&#45;&gt;Node15 -->
<g id="edge20" class="edge">
<title>Node14&#45;&gt;Node15</title>
<path fill="none" stroke="midnightblue" d="M1063,-101.8C1063,-92.91 1063,-82.78 1063,-75.75"/>
<polygon fill="midnightblue" stroke="midnightblue" points="1059.5,-102.08 1063,-112.08 1066.5,-102.08 1059.5,-102.08"/>
</g>
<!-- Node16&#45;&gt;Node4 -->
<g id="edge22" class="edge">
<title>Node16&#45;&gt;Node4</title>
<path fill="none" stroke="midnightblue" d="M504.67,-102.67C496.36,-78.62 482.12,-37.39 475.97,-19.59"/>
<polygon fill="midnightblue" stroke="midnightblue" points="501.44,-104.06 508.02,-112.37 508.06,-101.77 501.44,-104.06"/>
</g>
<!-- Node17 -->
<g id="node17" class="node">
<title>Node17</title>
<g id="a_node17"><a xlink:href="RadioStorage_8cpp.html" target="_top" xlink:title=" ">
<polygon fill="none" stroke="black" points="539,-56.5 539,-75.5 641,-75.5 641,-56.5 539,-56.5"/>
<text text-anchor="middle" x="590" y="-63.5" font-family="Helvetica,sans-Serif" font-size="10.00">RadioStorage.cpp</text>
</a>
</g>
</g>
<!-- Node16&#45;&gt;Node17 -->
<g id="edge23" class="edge">
<title>Node16&#45;&gt;Node17</title>
<path fill="none" stroke="midnightblue" d="M532.03,-106.62C546.47,-96.76 565.14,-83.99 577.34,-75.65"/>
<polygon fill="midnightblue" stroke="midnightblue" points="529.97,-103.79 523.69,-112.32 533.92,-109.57 529.97,-103.79"/>
</g>
</g>
</svg>
        <g id="navigator" transform="translate(0 0)" fill="#404254">
                <rect fill="#f2f5e9" fill-opacity="0.5" stroke="#606060" stroke-width=".5" x="0" y="0" width="60" height="60"/>
                <use id="zoomplus" xlink:href="#zoomPlus" x="17" y="9" onmousedown="handleZoom(evt,'in')"/>
                <use id="zoomminus" xlink:href="#zoomMin" x="42" y="9" onmousedown="handleZoom(evt,'out')"/>
                <use id="reset" xlink:href="#resetDef" x="30" y="36" onmousedown="handleReset()"/>
                <g id="arrowUp" xlink:href="#dirArrow" transform="translate(30 24)" onmousedown="handlePan(0,-1)">
                  <use xlink:href="#rim" fill="#404040">
                        <set attributeName="fill" to="#808080" begin="arrowUp.mouseover" end="arrowUp.mouseout"/>
                  </use>
                  <path fill="none" stroke="white" stroke-width="1.5" d="M0,-3.0v7 M-2.5,-0.5L0,-3.0L2.5,-0.5"/>
                </g>
                <g id="arrowRight" xlink:href="#dirArrow" transform="rotate(90) translate(36 -43)" onmousedown="handlePan(1,0)">
                  <use xlink:href="#rim" fill="#404040">
                        <set attributeName="fill" to="#808080" begin="arrowRight.mouseover" end="arrowRight.mouseout"/>
                  </use>
                  <path fill="none" stroke="white" stroke-width="1.5" d="M0,-3.0v7 M-2.5,-0.5L0,-3.0L2.5,-0.5"/>
                </g>
                <g id="arrowDown" xlink:href="#dirArrow" transform="rotate(180) translate(-30 -48)" onmousedown="handlePan(0,1)">
                  <use xlink:href="#rim" fill="#404040">
                        <set attributeName="fill" to="#808080" begin="arrowDown.mouseover" end="arrowDown.mouseout"/>
                  </use>
                  <path fill="none" stroke="white" stroke-width="1.5" d="M0,-3.0v7 M-2.5,-0.5L0,-3.0L2.5,-0.5"/>
                </g>
                <g id="arrowLeft" xlink:href="#dirArrow" transform="rotate(270) translate(-36 17)" onmousedown="handlePan(-1,0)">
                  <use xlink:href="#rim" fill="#404040">
                        <set attributeName="fill" to="#808080" begin="arrowLeft.mouseover" end="arrowLeft.mouseout"/>
                  </use>
                  <path fill="none" stroke="white" stroke-width="1.5" d="M0,-3.0v7 M-2.5,-0.5L0,-3.0L2.5,-0.5"/>
                </g>
        </g>
        <svg viewBox="0 0 15 15" width="100%" height="30px" preserveAspectRatio="xMaxYMin meet">
         <g id="arrow_out" transform="scale(0.3 0.3)">
          <a xlink:href="PayloadConfig_8h__dep__incl_org.svg" target="_base">
           <rect id="button" ry="5" rx="5" y="6" x="6" height="38" width="38"
                fill="#f2f5e9" fill-opacity="0.5" stroke="#606060" stroke-width="1.0"/>
           <path id="arrow"
             d="M 11.500037,31.436501 C 11.940474,20.09759 22.043105,11.32322 32.158766,21.979434 L 37.068811,17.246167 C 37.068811,17.246167 37.088388,32 37.088388,32 L 22.160133,31.978069 C 22.160133,31.978069 26.997745,27.140456 26.997745,27.140456 C 18.528582,18.264221 13.291696,25.230495 11.500037,31.436501 z"
             style="fill:#404040;"/>
          </a>
         </g>
        </svg>
</svg>
