<?xml version="1.0" encoding="UTF-8" standalone="no"?>
<!DOCTYPE svg PUBLIC "-//W3C//DTD SVG 1.1//EN"
 "http://www.w3.org/Graphics/SVG/1.1/DTD/svg11.dtd">
<!-- Generated by graphviz version 2.43.0 (0)
 -->
<!-- Title: PayloadConfig.h Pages: 1 -->
<!--zoomable 196 -->
<svg id="main" version="1.1" xmlns="http://www.w3.org/2000/svg" xmlns:xlink="http://www.w3.org/1999/xlink" xml:space="preserve" onload="init(evt)">
<style type="text/css"><![CDATA[
.edge:hover path { stroke: red; }
.edge:hover polygon { stroke: red; fill: red; }
]]></style>
<script type="text/javascript"><![CDATA[
var edges = document.getElementsByTagName('g');
if (edges && edges.length) {
  for (var i=0;i<edges.length;i++) {
    if (edges[i].id.substr(0,4)=='edge') {
      edges[i].setAttribute('class','edge');
    }
  }
}
]]></script>
        <defs>
                <circle id="rim" cx="0" cy="0" r="7"/>
                <circle id="rim2" cx="0" cy="0" r="3.5"/>
                <g id="zoomPlus">
                        <use xlink:href="#rim" fill="#404040">
                                <set attributeName="fill" to="#808080" begin="zoomplus.mouseover" end="zoomplus.mouseout"/>
                        </use>
                        <path d="M-4,0h8M0,-4v8" fill="none" stroke="white" stroke-width="1.5" pointer-events="none"/>
                </g>
                <g id="zoomMin">
                        <use xlink:href="#rim" fill="#404040">
                                <set attributeName="fill" to="#808080" begin="zoomminus.mouseover" end="zoomminus.mouseout"/>
                        </use>
                        <path d="M-4,0h8" fill="none" stroke="white" stroke-width="1.5" pointer-events="none"/>
                </g>
                <g id="dirArrow">
                        <path fill="none" stroke="white" stroke-width="1.5" d="M0,-3.0v7 M-2.5,-0.5L0,-3.0L2.5,-0.5"/>
                </g>
               <g id="resetDef">
                       <use xlink:href="#rim2" fill="#404040">
                               <set attributeName="fill" to="#808080" begin="reset.mouseover" end="reset.mouseout"/>
                       </use>
               </g>
        </defs>

<script type="text/javascript">
var viewWidth = 985;
var viewHeight = 196;
var sectionId = 'dynsection-0';
</script>
<script xlink:href="svgpan.js"/>
<svg id="graph" class="graph">
<g id="viewport">
<title>PayloadConfig.h</title>
<!-- Node1 -->
<g id="node1" class="node">
<title>Node1</title>
<g id="a_node1"><a xlink:title=" ">
<polygon fill="#bfbfbf" stroke="black" points="310.5,-168.5 310.5,-187.5 405.5,-187.5 405.5,-168.5 310.5,-168.5"/>
<text text-anchor="middle" x="358" y="-175.5" font-family="Helvetica,sans-Serif" font-size="10.00">PayloadConfig.h</text>
</a>
</g>
</g>
<!-- Node2 -->
<g id="node2" class="node">
<title>Node2</title>
<g id="a_node2"><a xlink:href="BME680Sensor_8h.html" target="_top" xlink:title=" ">
<polygon fill="none" stroke="black" points="189,-112.5 189,-131.5 287,-131.5 287,-112.5 189,-112.5"/>
<text text-anchor="middle" x="238" y="-119.5" font-family="Helvetica,sans-Serif" font-size="10.00">BME680Sensor.h</text>
</a>
</g>
</g>
<!-- Node1&#45;&gt;Node2 -->
<g id="edge1" class="edge">
<title>Node1&#45;&gt;Node2</title>
<path fill="none" stroke="midnightblue" d="M329.63,-164.23C307.18,-154.13 276.46,-140.31 256.93,-131.52"/>
<polygon fill="midnightblue" stroke="midnightblue" points="328.43,-167.53 338.99,-168.44 331.3,-161.15 328.43,-167.53"/>
</g>
<!-- Node4 -->
<g id="node4" class="node">
<title>Node4</title>
<g id="a_node4"><a xlink:href="main_8cpp.html" target="_top" xlink:title=" ">
<polygon fill="none" stroke="black" points="371,-0.5 371,-19.5 433,-19.5 433,-0.5 371,-0.5"/>
<text text-anchor="middle" x="402" y="-7.5" font-family="Helvetica,sans-Serif" font-size="10.00">main.cpp</text>
</a>
</g>
</g>
<!-- Node1&#45;&gt;Node4 -->
<g id="edge22" class="edge">
<title>Node1&#45;&gt;Node4</title>
<path fill="none" stroke="midnightblue" d="M347.55,-159.31C334.51,-134.73 316,-89.49 334,-56 343.38,-38.54 362.84,-26.72 378.55,-19.59"/>
<polygon fill="midnightblue" stroke="midnightblue" points="344.58,-161.18 352.51,-168.21 350.7,-157.77 344.58,-161.18"/>
</g>
<!-- Node5 -->
<g id="node5" class="node">
<title>Node5</title>
<g id="a_node5"><a xlink:href="ErrorDisplay_8h.html" target="_top" xlink:title=" ">
<polygon fill="none" stroke="black" points="72,-112.5 72,-131.5 156,-131.5 156,-112.5 72,-112.5"/>
<text text-anchor="middle" x="114" y="-119.5" font-family="Helvetica,sans-Serif" font-size="10.00">ErrorDisplay.h</text>
</a>
</g>
</g>
<!-- Node1&#45;&gt;Node5 -->
<g id="edge4" class="edge">
<title>Node1&#45;&gt;Node5</title>
<path fill="none" stroke="midnightblue" d="M309.57,-166.28C263.46,-156.08 194.97,-140.92 152.48,-131.52"/>
<polygon fill="midnightblue" stroke="midnightblue" points="308.82,-169.7 319.34,-168.44 310.33,-162.87 308.82,-169.7"/>
</g>
<!-- Node6 -->
<g id="node6" class="node">
<title>Node6</title>
<g id="a_node6"><a xlink:href="SDStorage_8h.html" target="_top" xlink:title=" ">
<polygon fill="none" stroke="black" points="5.5,-56.5 5.5,-75.5 82.5,-75.5 82.5,-56.5 5.5,-56.5"/>
<text text-anchor="middle" x="44" y="-63.5" font-family="Helvetica,sans-Serif" font-size="10.00">SDStorage.h</text>
</a>
</g>
</g>
<!-- Node1&#45;&gt;Node6 -->
<g id="edge21" class="edge">
<title>Node1&#45;&gt;Node6</title>
<path fill="none" stroke="midnightblue" d="M299.9,-175.37C224.18,-172.06 97.35,-162.06 63,-132 46.54,-117.6 43.97,-89.81 43.79,-75.69"/>
<polygon fill="midnightblue" stroke="midnightblue" points="300.1,-178.88 310.24,-175.8 300.39,-171.89 300.1,-178.88"/>
</g>
<!-- Node8 -->
<g id="node8" class="node">
<title>Node8</title>
<g id="a_node8"><a xlink:href="ICM20948Sensor_8h.html" target="_top" xlink:title=" ">
<polygon fill="none" stroke="black" points="348.5,-112.5 348.5,-131.5 455.5,-131.5 455.5,-112.5 348.5,-112.5"/>
<text text-anchor="middle" x="402" y="-119.5" font-family="Helvetica,sans-Serif" font-size="10.00">ICM20948Sensor.h</text>
</a>
</g>
</g>
<!-- Node1&#45;&gt;Node8 -->
<g id="edge9" class="edge">
<title>Node1&#45;&gt;Node8</title>
<path fill="none" stroke="midnightblue" d="M371.73,-160.14C379.4,-150.74 388.63,-139.4 394.87,-131.75"/>
<polygon fill="midnightblue" stroke="midnightblue" points="368.87,-158.12 365.27,-168.08 374.3,-162.54 368.87,-158.12"/>
</g>
<!-- Node10 -->
<g id="node10" class="node">
<title>Node10</title>
<g id="a_node10"><a xlink:href="LSM9DS1Sensor_8h.html" target="_top" xlink:title=" ">
<polygon fill="none" stroke="black" points="681,-112.5 681,-131.5 785,-131.5 785,-112.5 681,-112.5"/>
<text text-anchor="middle" x="733" y="-119.5" font-family="Helvetica,sans-Serif" font-size="10.00">LSM9DS1Sensor.h</text>
</a>
</g>
</g>
<!-- Node1&#45;&gt;Node10 -->
<g id="edge12" class="edge">
<title>Node1&#45;&gt;Node10</title>
<path fill="none" stroke="midnightblue" d="M416.19,-168.62C488.66,-158.18 611.38,-140.51 680.9,-130.5"/>
<polygon fill="midnightblue" stroke="midnightblue" points="415.27,-165.22 405.87,-170.11 416.27,-172.14 415.27,-165.22"/>
</g>
<!-- Node12 -->
<g id="node12" class="node">
<title>Node12</title>
<g id="a_node12"><a xlink:href="MTK3339Sensor_8h.html" target="_top" xlink:title=" ">
<polygon fill="none" stroke="black" points="853,-112.5 853,-131.5 957,-131.5 957,-112.5 853,-112.5"/>
<text text-anchor="middle" x="905" y="-119.5" font-family="Helvetica,sans-Serif" font-size="10.00">MTK3339Sensor.h</text>
</a>
</g>
</g>
<!-- Node1&#45;&gt;Node12 -->
<g id="edge15" class="edge">
<title>Node1&#45;&gt;Node12</title>
<path fill="none" stroke="midnightblue" d="M415.54,-171.32C522.42,-160.77 750.02,-138.3 852.76,-128.16"/>
<polygon fill="midnightblue" stroke="midnightblue" points="415.19,-167.84 405.59,-172.3 415.88,-174.8 415.19,-167.84"/>
</g>
<!-- Node14 -->
<g id="node14" class="node">
<title>Node14</title>
<g id="a_node14"><a xlink:href="RadioStorage_8h.html" target="_top" xlink:title=" ">
<polygon fill="none" stroke="black" points="481.5,-112.5 481.5,-131.5 572.5,-131.5 572.5,-112.5 481.5,-112.5"/>
<text text-anchor="middle" x="527" y="-119.5" font-family="Helvetica,sans-Serif" font-size="10.00">RadioStorage.h</text>
</a>
</g>
</g>
<!-- Node1&#45;&gt;Node14 -->
<g id="edge18" class="edge">
<title>Node1&#45;&gt;Node14</title>
<path fill="none" stroke="midnightblue" d="M394.6,-165.3C426.45,-155.13 471.84,-140.62 500.35,-131.52"/>
<polygon fill="midnightblue" stroke="midnightblue" points="393.24,-162.07 384.78,-168.44 395.37,-168.73 393.24,-162.07"/>
</g>
<!-- Node3 -->
<g id="node3" class="node">
<title>Node3</title>
<g id="a_node3"><a xlink:href="BME680Sensor_8cpp.html" target="_top" xlink:title=" ">
<polygon fill="none" stroke="black" points="139.5,-56.5 139.5,-75.5 248.5,-75.5 248.5,-56.5 139.5,-56.5"/>
<text text-anchor="middle" x="194" y="-63.5" font-family="Helvetica,sans-Serif" font-size="10.00">BME680Sensor.cpp</text>
</a>
</g>
</g>
<!-- Node2&#45;&gt;Node3 -->
<g id="edge2" class="edge">
<title>Node2&#45;&gt;Node3</title>
<path fill="none" stroke="midnightblue" d="M224.27,-104.14C216.6,-94.74 207.37,-83.4 201.13,-75.75"/>
<polygon fill="midnightblue" stroke="midnightblue" points="221.7,-106.54 230.73,-112.08 227.13,-102.12 221.7,-106.54"/>
</g>
<!-- Node2&#45;&gt;Node4 -->
<g id="edge3" class="edge">
<title>Node2&#45;&gt;Node4</title>
<path fill="none" stroke="midnightblue" d="M250.96,-104.42C262.79,-90.14 281.37,-69.72 301,-56 324.29,-39.72 354.4,-27.23 375.67,-19.58"/>
<polygon fill="midnightblue" stroke="midnightblue" points="248.08,-102.42 244.52,-112.4 253.53,-106.81 248.08,-102.42"/>
</g>
<!-- Node5&#45;&gt;Node4 -->
<g id="edge8" class="edge">
<title>Node5&#45;&gt;Node4</title>
<path fill="none" stroke="midnightblue" d="M113.4,-102.36C113.99,-87.64 117.36,-67.7 130,-56 164.6,-23.98 307.02,-14.59 370.83,-11.97"/>
<polygon fill="midnightblue" stroke="midnightblue" points="109.9,-102.36 113.38,-112.37 116.9,-102.38 109.9,-102.36"/>
</g>
<!-- Node5&#45;&gt;Node6 -->
<g id="edge5" class="edge">
<title>Node5&#45;&gt;Node6</title>
<path fill="none" stroke="midnightblue" d="M94.69,-106.1C82.09,-96.38 66.07,-84.03 55.45,-75.83"/>
<polygon fill="midnightblue" stroke="midnightblue" points="92.7,-108.99 102.75,-112.32 96.97,-103.44 92.7,-108.99"/>
</g>
<!-- Node6&#45;&gt;Node4 -->
<g id="edge6" class="edge">
<title>Node6&#45;&gt;Node4</title>
<path fill="none" stroke="midnightblue" d="M93.06,-56.63C94.39,-56.42 95.7,-56.21 97,-56 196.91,-40.15 315.54,-23.17 370.79,-15.38"/>
<polygon fill="midnightblue" stroke="midnightblue" points="92.07,-53.25 82.77,-58.32 93.21,-60.15 92.07,-53.25"/>
</g>
<!-- Node7 -->
<g id="node7" class="node">
<title>Node7</title>
<g id="a_node7"><a xlink:href="SDStorage_8cpp.html" target="_top" xlink:title=" ">
<polygon fill="none" stroke="black" points="0,-0.5 0,-19.5 88,-19.5 88,-0.5 0,-0.5"/>
<text text-anchor="middle" x="44" y="-7.5" font-family="Helvetica,sans-Serif" font-size="10.00">SDStorage.cpp</text>
</a>
</g>
</g>
<!-- Node6&#45;&gt;Node7 -->
<g id="edge7" class="edge">
<title>Node6&#45;&gt;Node7</title>
<path fill="none" stroke="midnightblue" d="M44,-45.8C44,-36.91 44,-26.78 44,-19.75"/>
<polygon fill="midnightblue" stroke="midnightblue" points="40.5,-46.08 44,-56.08 47.5,-46.08 40.5,-46.08"/>
</g>
<!-- Node8&#45;&gt;Node4 -->
<g id="edge11" class="edge">
<title>Node8&#45;&gt;Node4</title>
<path fill="none" stroke="midnightblue" d="M433.15,-107.96C456.16,-96.26 481.62,-77.62 470,-56 460.62,-38.54 441.16,-26.72 425.45,-19.59"/>
<polygon fill="midnightblue" stroke="midnightblue" points="431.39,-104.92 423.88,-112.4 434.42,-111.24 431.39,-104.92"/>
</g>
<!-- Node9 -->
<g id="node9" class="node">
<title>Node9</title>
<g id="a_node9"><a xlink:href="ICM20948Sensor_8cpp.html" target="_top" xlink:title=" ">
<polygon fill="none" stroke="black" points="343,-56.5 343,-75.5 461,-75.5 461,-56.5 343,-56.5"/>
<text text-anchor="middle" x="402" y="-63.5" font-family="Helvetica,sans-Serif" font-size="10.00">ICM20948Sensor.cpp</text>
</a>
</g>
</g>
<!-- Node8&#45;&gt;Node9 -->
<g id="edge10" class="edge">
<title>Node8&#45;&gt;Node9</title>
<path fill="none" stroke="midnightblue" d="M402,-101.8C402,-92.91 402,-82.78 402,-75.75"/>
<polygon fill="midnightblue" stroke="midnightblue" points="398.5,-102.08 402,-112.08 405.5,-102.08 398.5,-102.08"/>
</g>
<!-- Node10&#45;&gt;Node4 -->
<g id="edge14" class="edge">
<title>Node10&#45;&gt;Node4</title>
<path fill="none" stroke="midnightblue" d="M762.94,-107.86C787.93,-95.11 816.95,-74.97 800,-56 775.65,-28.74 522.84,-15.9 433.26,-12.19"/>
<polygon fill="midnightblue" stroke="midnightblue" points="761.13,-104.85 753.66,-112.36 764.19,-111.14 761.13,-104.85"/>
</g>
<!-- Node11 -->
<g id="node11" class="node">
<title>Node11</title>
<g id="a_node11"><a xlink:href="LSM9DS1Sensor_8cpp.html" target="_top" xlink:title=" ">
<polygon fill="none" stroke="black" points="675.5,-56.5 675.5,-75.5 790.5,-75.5 790.5,-56.5 675.5,-56.5"/>
<text text-anchor="middle" x="733" y="-63.5" font-family="Helvetica,sans-Serif" font-size="10.00">LSM9DS1Sensor.cpp</text>
</a>
</g>
</g>
<!-- Node10&#45;&gt;Node11 -->
<g id="edge13" class="edge">
<title>Node10&#45;&gt;Node11</title>
<path fill="none" stroke="midnightblue" d="M733,-101.8C733,-92.91 733,-82.78 733,-75.75"/>
<polygon fill="midnightblue" stroke="midnightblue" points="729.5,-102.08 733,-112.08 736.5,-102.08 729.5,-102.08"/>
</g>
<!-- Node12&#45;&gt;Node4 -->
<g id="edge16" class="edge">
<title>Node12&#45;&gt;Node4</title>
<path fill="none" stroke="midnightblue" d="M934.32,-108.11C959.58,-95.29 989.44,-74.87 972,-56 935.24,-16.22 546.87,-11.56 433.13,-11.05"/>
<polygon fill="midnightblue" stroke="midnightblue" points="932.8,-104.96 925.32,-112.47 935.85,-111.26 932.8,-104.96"/>
</g>
<!-- Node13 -->
<g id="node13" class="node">
<title>Node13</title>
<g id="a_node13"><a xlink:href="MTK3339Sensor_8cpp.html" target="_top" xlink:title=" ">
<polygon fill="none" stroke="black" points="847.5,-56.5 847.5,-75.5 962.5,-75.5 962.5,-56.5 847.5,-56.5"/>
<text text-anchor="middle" x="905" y="-63.5" font-family="Helvetica,sans-Serif" font-size="10.00">MTK3339Sensor.cpp</text>
</a>
</g>
</g>
<!-- Node12&#45;&gt;Node13 -->
<g id="edge17" class="edge">
<title>Node12&#45;&gt;Node13</title>
<path fill="none" stroke="midnightblue" d="M905,-101.8C905,-92.91 905,-82.78 905,-75.75"/>
<polygon fill="midnightblue" stroke="midnightblue" points="901.5,-102.08 905,-112.08 908.5,-102.08 901.5,-102.08"/>
</g>
<!-- Node14&#45;&gt;Node4 -->
<g id="edge19" class="edge">
<title>Node14&#45;&gt;Node4</title>
<path fill="none" stroke="midnightblue" d="M518.99,-103.26C511.9,-89.1 500.46,-69.46 486,-56 468.2,-39.42 443.15,-27.05 425.04,-19.51"/>
<polygon fill="midnightblue" stroke="midnightblue" points="515.9,-104.91 523.36,-112.44 522.22,-101.9 515.9,-104.91"/>
</g>
<!-- Node15 -->
<g id="node15" class="node">
<title>Node15</title>
<g id="a_node15"><a xlink:href="RadioStorage_8cpp.html" target="_top" xlink:title=" ">
<polygon fill="none" stroke="black" points="555,-56.5 555,-75.5 657,-75.5 657,-56.5 555,-56.5"/>
<text text-anchor="middle" x="606" y="-63.5" font-family="Helvetica,sans-Serif" font-size="10.00">RadioStorage.cpp</text>
</a>
</g>
</g>
<!-- Node14&#45;&gt;Node15 -->
<g id="edge20" class="edge">
<title>Node14&#45;&gt;Node15</title>
<path fill="none" stroke="midnightblue" d="M548.03,-106.62C562.47,-96.76 581.14,-83.99 593.34,-75.65"/>
<polygon fill="midnightblue" stroke="midnightblue" points="545.97,-103.79 539.69,-112.32 549.92,-109.57 545.97,-103.79"/>
</g>
</g>
</svg>
        <g id="navigator" transform="translate(0 0)" fill="#404254">
                <rect fill="#f2f5e9" fill-opacity="0.5" stroke="#606060" stroke-width=".5" x="0" y="0" width="60" height="60"/>
                <use id="zoomplus" xlink:href="#zoomPlus" x="17" y="9" onmousedown="handleZoom(evt,'in')"/>
                <use id="zoomminus" xlink:href="#zoomMin" x="42" y="9" onmousedown="handleZoom(evt,'out')"/>
                <use id="reset" xlink:href="#resetDef" x="30" y="36" onmousedown="handleReset()"/>
                <g id="arrowUp" xlink:href="#dirArrow" transform="translate(30 24)" onmousedown="handlePan(0,-1)">
                  <use xlink:href="#rim" fill="#404040">
                        <set attributeName="fill" to="#808080" begin="arrowUp.mouseover" end="arrowUp.mouseout"/>
                  </use>
                  <path fill="none" stroke="white" stroke-width="1.5" d="M0,-3.0v7 M-2.5,-0.5L0,-3.0L2.5,-0.5"/>
                </g>
                <g id="arrowRight" xlink:href="#dirArrow" transform="rotate(90) translate(36 -43)" onmousedown="handlePan(1,0)">
                  <use xlink:href="#rim" fill="#404040">
                        <set attributeName="fill" to="#808080" begin="arrowRight.mouseover" end="arrowRight.mouseout"/>
                  </use>
                  <path fill="none" stroke="white" stroke-width="1.5" d="M0,-3.0v7 M-2.5,-0.5L0,-3.0L2.5,-0.5"/>
                </g>
                <g id="arrowDown" xlink:href="#dirArrow" transform="rotate(180) translate(-30 -48)" onmousedown="handlePan(0,1)">
                  <use xlink:href="#rim" fill="#404040">
                        <set attributeName="fill" to="#808080" begin="arrowDown.mouseover" end="arrowDown.mouseout"/>
                  </use>
                  <path fill="none" stroke="white" stroke-width="1.5" d="M0,-3.0v7 M-2.5,-0.5L0,-3.0L2.5,-0.5"/>
                </g>
                <g id="arrowLeft" xlink:href="#dirArrow" transform="rotate(270) translate(-36 17)" onmousedown="handlePan(-1,0)">
                  <use xlink:href="#rim" fill="#404040">
                        <set attributeName="fill" to="#808080" begin="arrowLeft.mouseover" end="arrowLeft.mouseout"/>
                  </use>
                  <path fill="none" stroke="white" stroke-width="1.5" d="M0,-3.0v7 M-2.5,-0.5L0,-3.0L2.5,-0.5"/>
                </g>
        </g>
        <svg viewBox="0 0 15 15" width="100%" height="30px" preserveAspectRatio="xMaxYMin meet">
         <g id="arrow_out" transform="scale(0.3 0.3)">
          <a xlink:href="PayloadConfig_8h__dep__incl_org.svg" target="_base">
           <rect id="button" ry="5" rx="5" y="6" x="6" height="38" width="38"
                fill="#f2f5e9" fill-opacity="0.5" stroke="#606060" stroke-width="1.0"/>
           <path id="arrow"
             d="M 11.500037,31.436501 C 11.940474,20.09759 22.043105,11.32322 32.158766,21.979434 L 37.068811,17.246167 C 37.068811,17.246167 37.088388,32 37.088388,32 L 22.160133,31.978069 C 22.160133,31.978069 26.997745,27.140456 26.997745,27.140456 C 18.528582,18.264221 13.291696,25.230495 11.500037,31.436501 z"
             style="fill:#404040;"/>
          </a>
         </g>
        </svg>
</svg>
