<?xml version="1.0" encoding="UTF-8" standalone="no"?>
<!DOCTYPE svg PUBLIC "-//W3C//DTD SVG 1.1//EN"
 "http://www.w3.org/Graphics/SVG/1.1/DTD/svg11.dtd">
<!-- Generated by graphviz version 2.43.0 (0)
 -->
<!-- Title: RadioStorage.h Pages: 1 -->
<svg width="196pt" height="140pt"
 viewBox="0.00 0.00 196.49 140.00" xmlns="http://www.w3.org/2000/svg" xmlns:xlink="http://www.w3.org/1999/xlink">
<g id="graph0" class="graph" transform="scale(1 1) rotate(0) translate(4 136)">
<title>RadioStorage.h</title>
<!-- Node1 -->
<g id="node1" class="node">
<title>Node1</title>
<g id="a_node1"><a xlink:title=" ">
<polygon fill="#bfbfbf" stroke="black" points="14.49,-112.5 14.49,-131.5 105.49,-131.5 105.49,-112.5 14.49,-112.5"/>
<text text-anchor="middle" x="59.99" y="-119.5" font-family="Helvetica,sans-Serif" font-size="10.00">RadioStorage.h</text>
</a>
</g>
</g>
<!-- Node2 -->
<g id="node2" class="node">
<title>Node2</title>
<g id="a_node2"><a xlink:title=" ">
<polygon fill="none" stroke="#bfbfbf" points="38.49,-0.5 38.49,-19.5 101.49,-19.5 101.49,-0.5 38.49,-0.5"/>
<text text-anchor="middle" x="69.99" y="-7.5" font-family="Helvetica,sans-Serif" font-size="10.00">Arduino.h</text>
</a>
</g>
</g>
<!-- Node1&#45;&gt;Node2 -->
<g id="edge1" class="edge">
<title>Node1&#45;&gt;Node2</title>
<path fill="none" stroke="midnightblue" d="M42.41,-112.36C21.45,-100.79 -9.3,-79.05 2.99,-56 10.54,-41.83 24.75,-31.33 38.14,-24.06"/>
<polygon fill="midnightblue" stroke="midnightblue" points="39.82,-27.13 47.2,-19.53 36.69,-20.87 39.82,-27.13"/>
</g>
<!-- Node3 -->
<g id="node3" class="node">
<title>Node3</title>
<g id="a_node3"><a xlink:href="PayloadConfig_8h.html" target="_top" xlink:title=" ">
<polygon fill="none" stroke="black" points="12.49,-56.5 12.49,-75.5 107.49,-75.5 107.49,-56.5 12.49,-56.5"/>
<text text-anchor="middle" x="59.99" y="-63.5" font-family="Helvetica,sans-Serif" font-size="10.00">PayloadConfig.h</text>
</a>
</g>
</g>
<!-- Node1&#45;&gt;Node3 -->
<g id="edge2" class="edge">
<title>Node1&#45;&gt;Node3</title>
<path fill="none" stroke="midnightblue" d="M59.99,-112.08C59.99,-105.01 59.99,-94.86 59.99,-85.99"/>
<polygon fill="midnightblue" stroke="midnightblue" points="63.49,-85.75 59.99,-75.75 56.49,-85.75 63.49,-85.75"/>
</g>
<!-- Node4 -->
<g id="node4" class="node">
<title>Node4</title>
<g id="a_node4"><a xlink:href="Storage_8h.html" target="_top" xlink:title=" ">
<polygon fill="none" stroke="black" points="125.49,-56.5 125.49,-75.5 188.49,-75.5 188.49,-56.5 125.49,-56.5"/>
<text text-anchor="middle" x="156.99" y="-63.5" font-family="Helvetica,sans-Serif" font-size="10.00">Storage.h</text>
</a>
</g>
</g>
<!-- Node1&#45;&gt;Node4 -->
<g id="edge3" class="edge">
<title>Node1&#45;&gt;Node4</title>
<path fill="none" stroke="midnightblue" d="M75.57,-112.32C90.99,-103.74 114.8,-90.49 132.7,-80.52"/>
<polygon fill="midnightblue" stroke="midnightblue" points="134.41,-83.58 141.44,-75.65 131,-77.46 134.41,-83.58"/>
</g>
<!-- Node4&#45;&gt;Node2 -->
<g id="edge4" class="edge">
<title>Node4&#45;&gt;Node2</title>
<path fill="none" stroke="midnightblue" d="M143.01,-56.32C129.44,-47.9 108.61,-34.97 92.66,-25.07"/>
<polygon fill="midnightblue" stroke="midnightblue" points="94.27,-21.95 83.93,-19.65 90.58,-27.9 94.27,-21.95"/>
</g>
</g>
</svg>
