<?xml version="1.0" encoding="UTF-8" standalone="no"?>
<!DOCTYPE svg PUBLIC "-//W3C//DTD SVG 1.1//EN"
 "http://www.w3.org/Graphics/SVG/1.1/DTD/svg11.dtd">
<!-- Generated by graphviz version 2.43.0 (0)
 -->
<!-- Title: SDStorage.cpp Pages: 1 -->
<svg width="392pt" height="196pt"
 viewBox="0.00 0.00 392.00 196.00" xmlns="http://www.w3.org/2000/svg" xmlns:xlink="http://www.w3.org/1999/xlink">
<g id="graph0" class="graph" transform="scale(1 1) rotate(0) translate(4 192)">
<title>SDStorage.cpp</title>
<!-- Node1 -->
<g id="node1" class="node">
<title>Node1</title>
<g id="a_node1"><a xlink:title=" ">
<polygon fill="#bfbfbf" stroke="black" points="167.5,-168.5 167.5,-187.5 255.5,-187.5 255.5,-168.5 167.5,-168.5"/>
<text text-anchor="middle" x="211.5" y="-175.5" font-family="Helvetica,sans-Serif" font-size="10.00">SDStorage.cpp</text>
</a>
</g>
</g>
<!-- Node2 -->
<g id="node2" class="node">
<title>Node2</title>
<g id="a_node2"><a xlink:href="SDStorage_8h.html" target="_top" xlink:title=" ">
<polygon fill="none" stroke="black" points="173,-112.5 173,-131.5 250,-131.5 250,-112.5 173,-112.5"/>
<text text-anchor="middle" x="211.5" y="-119.5" font-family="Helvetica,sans-Serif" font-size="10.00">SDStorage.h</text>
</a>
</g>
</g>
<!-- Node1&#45;&gt;Node2 -->
<g id="edge1" class="edge">
<title>Node1&#45;&gt;Node2</title>
<path fill="none" stroke="midnightblue" d="M211.5,-168.08C211.5,-161.01 211.5,-150.86 211.5,-141.99"/>
<polygon fill="midnightblue" stroke="midnightblue" points="215,-141.75 211.5,-131.75 208,-141.75 215,-141.75"/>
</g>
<!-- Node3 -->
<g id="node3" class="node">
<title>Node3</title>
<g id="a_node3"><a xlink:href="ErrorDisplay_8h.html" target="_top" xlink:title=" ">
<polygon fill="none" stroke="black" points="129.5,-56.5 129.5,-75.5 213.5,-75.5 213.5,-56.5 129.5,-56.5"/>
<text text-anchor="middle" x="171.5" y="-63.5" font-family="Helvetica,sans-Serif" font-size="10.00">ErrorDisplay.h</text>
</a>
</g>
</g>
<!-- Node2&#45;&gt;Node3 -->
<g id="edge2" class="edge">
<title>Node2&#45;&gt;Node3</title>
<path fill="none" stroke="midnightblue" d="M204.89,-112.08C199.24,-104.46 190.96,-93.26 184.05,-83.94"/>
<polygon fill="midnightblue" stroke="midnightblue" points="186.75,-81.7 177.98,-75.75 181.12,-85.87 186.75,-81.7"/>
</g>
<!-- Node5 -->
<g id="node5" class="node">
<title>Node5</title>
<g id="a_node5"><a xlink:href="PayloadConfig_8h.html" target="_top" xlink:title=" ">
<polygon fill="none" stroke="black" points="0,-0.5 0,-19.5 95,-19.5 95,-0.5 0,-0.5"/>
<text text-anchor="middle" x="47.5" y="-7.5" font-family="Helvetica,sans-Serif" font-size="10.00">PayloadConfig.h</text>
</a>
</g>
</g>
<!-- Node2&#45;&gt;Node5 -->
<g id="edge7" class="edge">
<title>Node2&#45;&gt;Node5</title>
<path fill="none" stroke="midnightblue" d="M190.39,-112.49C171.36,-104.38 143,-91.18 120.5,-76 99.1,-61.56 77.35,-41.33 63.23,-27.29"/>
<polygon fill="midnightblue" stroke="midnightblue" points="65.37,-24.48 55.85,-19.82 60.39,-29.4 65.37,-24.48"/>
</g>
<!-- Node8 -->
<g id="node8" class="node">
<title>Node8</title>
<g id="a_node8"><a xlink:title=" ">
<polygon fill="none" stroke="#bfbfbf" points="232,-56.5 232,-75.5 271,-75.5 271,-56.5 232,-56.5"/>
<text text-anchor="middle" x="251.5" y="-63.5" font-family="Helvetica,sans-Serif" font-size="10.00">SD.h</text>
</a>
</g>
</g>
<!-- Node2&#45;&gt;Node8 -->
<g id="edge8" class="edge">
<title>Node2&#45;&gt;Node8</title>
<path fill="none" stroke="midnightblue" d="M218.11,-112.08C223.76,-104.46 232.04,-93.26 238.95,-83.94"/>
<polygon fill="midnightblue" stroke="midnightblue" points="241.88,-85.87 245.02,-75.75 236.25,-81.7 241.88,-85.87"/>
</g>
<!-- Node9 -->
<g id="node9" class="node">
<title>Node9</title>
<g id="a_node9"><a xlink:href="Storage_8h.html" target="_top" xlink:title=" ">
<polygon fill="none" stroke="black" points="310,-56.5 310,-75.5 373,-75.5 373,-56.5 310,-56.5"/>
<text text-anchor="middle" x="341.5" y="-63.5" font-family="Helvetica,sans-Serif" font-size="10.00">Storage.h</text>
</a>
</g>
</g>
<!-- Node2&#45;&gt;Node9 -->
<g id="edge9" class="edge">
<title>Node2&#45;&gt;Node9</title>
<path fill="none" stroke="midnightblue" d="M232.1,-112.44C253.49,-103.56 287.18,-89.56 311.52,-79.45"/>
<polygon fill="midnightblue" stroke="midnightblue" points="313.11,-82.58 321,-75.52 310.42,-76.12 313.11,-82.58"/>
</g>
<!-- Node4 -->
<g id="node4" class="node">
<title>Node4</title>
<g id="a_node4"><a xlink:title=" ">
<polygon fill="none" stroke="#bfbfbf" points="321,-0.5 321,-19.5 384,-19.5 384,-0.5 321,-0.5"/>
<text text-anchor="middle" x="352.5" y="-7.5" font-family="Helvetica,sans-Serif" font-size="10.00">Arduino.h</text>
</a>
</g>
</g>
<!-- Node3&#45;&gt;Node4 -->
<g id="edge3" class="edge">
<title>Node3&#45;&gt;Node4</title>
<path fill="none" stroke="midnightblue" d="M200.18,-56.44C231.03,-47.24 280.23,-32.56 314.33,-22.39"/>
<polygon fill="midnightblue" stroke="midnightblue" points="315.37,-25.73 323.95,-19.52 313.37,-19.02 315.37,-25.73"/>
</g>
<!-- Node3&#45;&gt;Node5 -->
<g id="edge4" class="edge">
<title>Node3&#45;&gt;Node5</title>
<path fill="none" stroke="midnightblue" d="M151.85,-56.44C131.54,-47.6 99.6,-33.69 76.4,-23.59"/>
<polygon fill="midnightblue" stroke="midnightblue" points="77.62,-20.3 67.06,-19.52 74.83,-26.72 77.62,-20.3"/>
</g>
<!-- Node6 -->
<g id="node6" class="node">
<title>Node6</title>
<g id="a_node6"><a xlink:title=" ">
<polygon fill="none" stroke="#bfbfbf" points="113,-0.5 113,-19.5 208,-19.5 208,-0.5 113,-0.5"/>
<text text-anchor="middle" x="160.5" y="-7.5" font-family="Helvetica,sans-Serif" font-size="10.00">pico/multicore.h</text>
</a>
</g>
</g>
<!-- Node3&#45;&gt;Node6 -->
<g id="edge5" class="edge">
<title>Node3&#45;&gt;Node6</title>
<path fill="none" stroke="midnightblue" d="M169.68,-56.08C168.23,-48.93 166.13,-38.64 164.31,-29.69"/>
<polygon fill="midnightblue" stroke="midnightblue" points="167.71,-28.85 162.28,-19.75 160.85,-30.25 167.71,-28.85"/>
</g>
<!-- Node7 -->
<g id="node7" class="node">
<title>Node7</title>
<g id="a_node7"><a xlink:title=" ">
<polygon fill="none" stroke="#bfbfbf" points="226.5,-0.5 226.5,-19.5 302.5,-19.5 302.5,-0.5 226.5,-0.5"/>
<text text-anchor="middle" x="264.5" y="-7.5" font-family="Helvetica,sans-Serif" font-size="10.00">pico/stdlib.h</text>
</a>
</g>
</g>
<!-- Node3&#45;&gt;Node7 -->
<g id="edge6" class="edge">
<title>Node3&#45;&gt;Node7</title>
<path fill="none" stroke="midnightblue" d="M186.44,-56.32C201.09,-47.82 223.63,-34.73 240.74,-24.8"/>
<polygon fill="midnightblue" stroke="midnightblue" points="242.7,-27.7 249.6,-19.65 239.19,-21.65 242.7,-27.7"/>
</g>
<!-- Node9&#45;&gt;Node4 -->
<g id="edge10" class="edge">
<title>Node9&#45;&gt;Node4</title>
<path fill="none" stroke="midnightblue" d="M343.32,-56.08C344.77,-48.93 346.87,-38.64 348.69,-29.69"/>
<polygon fill="midnightblue" stroke="midnightblue" points="352.15,-30.25 350.72,-19.75 345.29,-28.85 352.15,-30.25"/>
</g>
</g>
</svg>
