<?xml version="1.0" encoding="UTF-8" standalone="no"?>
<!DOCTYPE svg PUBLIC "-//W3C//DTD SVG 1.1//EN"
 "http://www.w3.org/Graphics/SVG/1.1/DTD/svg11.dtd">
<!-- Generated by graphviz version 2.43.0 (0)
 -->
<!-- Title: SDStorage.h Pages: 1 -->
<svg width="231pt" height="140pt"
 viewBox="0.00 0.00 230.50 140.00" xmlns="http://www.w3.org/2000/svg" xmlns:xlink="http://www.w3.org/1999/xlink">
<g id="graph0" class="graph" transform="scale(1 1) rotate(0) translate(4 136)">
<title>SDStorage.h</title>
<!-- Node1 -->
<g id="node1" class="node">
<title>Node1</title>
<g id="a_node1"><a xlink:title=" ">
<polygon fill="#bfbfbf" stroke="black" points="83.5,-112.5 83.5,-131.5 160.5,-131.5 160.5,-112.5 83.5,-112.5"/>
<text text-anchor="middle" x="122" y="-119.5" font-family="Helvetica,sans-Serif" font-size="10.00">SDStorage.h</text>
</a>
</g>
</g>
<!-- Node2 -->
<g id="node2" class="node">
<title>Node2</title>
<g id="a_node2"><a xlink:href="ErrorDisplay_8h.html" target="_top" xlink:title=" ">
<polygon fill="none" stroke="black" points="0,-56.5 0,-75.5 84,-75.5 84,-56.5 0,-56.5"/>
<text text-anchor="middle" x="42" y="-63.5" font-family="Helvetica,sans-Serif" font-size="10.00">ErrorDisplay.h</text>
</a>
</g>
</g>
<!-- Node1&#45;&gt;Node2 -->
<g id="edge1" class="edge">
<title>Node1&#45;&gt;Node2</title>
<path fill="none" stroke="midnightblue" d="M109.15,-112.32C96.78,-103.98 77.87,-91.21 63.26,-81.35"/>
<polygon fill="midnightblue" stroke="midnightblue" points="65.07,-78.35 54.82,-75.65 61.15,-84.15 65.07,-78.35"/>
</g>
<!-- Node4 -->
<g id="node4" class="node">
<title>Node4</title>
<g id="a_node4"><a xlink:title=" ">
<polygon fill="none" stroke="#bfbfbf" points="102.5,-56.5 102.5,-75.5 141.5,-75.5 141.5,-56.5 102.5,-56.5"/>
<text text-anchor="middle" x="122" y="-63.5" font-family="Helvetica,sans-Serif" font-size="10.00">SD.h</text>
</a>
</g>
</g>
<!-- Node1&#45;&gt;Node4 -->
<g id="edge3" class="edge">
<title>Node1&#45;&gt;Node4</title>
<path fill="none" stroke="midnightblue" d="M122,-112.08C122,-105.01 122,-94.86 122,-85.99"/>
<polygon fill="midnightblue" stroke="midnightblue" points="125.5,-85.75 122,-75.75 118.5,-85.75 125.5,-85.75"/>
</g>
<!-- Node5 -->
<g id="node5" class="node">
<title>Node5</title>
<g id="a_node5"><a xlink:href="Storage_8h.html" target="_top" xlink:title=" ">
<polygon fill="none" stroke="black" points="159.5,-56.5 159.5,-75.5 222.5,-75.5 222.5,-56.5 159.5,-56.5"/>
<text text-anchor="middle" x="191" y="-63.5" font-family="Helvetica,sans-Serif" font-size="10.00">Storage.h</text>
</a>
</g>
</g>
<!-- Node1&#45;&gt;Node5 -->
<g id="edge4" class="edge">
<title>Node1&#45;&gt;Node5</title>
<path fill="none" stroke="midnightblue" d="M133.09,-112.32C143.49,-104.18 159.26,-91.84 171.72,-82.09"/>
<polygon fill="midnightblue" stroke="midnightblue" points="173.99,-84.75 179.71,-75.83 169.68,-79.24 173.99,-84.75"/>
</g>
<!-- Node3 -->
<g id="node3" class="node">
<title>Node3</title>
<g id="a_node3"><a xlink:title=" ">
<polygon fill="none" stroke="#bfbfbf" points="84.5,-0.5 84.5,-19.5 147.5,-19.5 147.5,-0.5 84.5,-0.5"/>
<text text-anchor="middle" x="116" y="-7.5" font-family="Helvetica,sans-Serif" font-size="10.00">Arduino.h</text>
</a>
</g>
</g>
<!-- Node2&#45;&gt;Node3 -->
<g id="edge2" class="edge">
<title>Node2&#45;&gt;Node3</title>
<path fill="none" stroke="midnightblue" d="M53.89,-56.32C65.15,-48.11 82.29,-35.6 95.71,-25.81"/>
<polygon fill="midnightblue" stroke="midnightblue" points="97.88,-28.56 103.89,-19.83 93.75,-22.9 97.88,-28.56"/>
</g>
<!-- Node5&#45;&gt;Node3 -->
<g id="edge5" class="edge">
<title>Node5&#45;&gt;Node3</title>
<path fill="none" stroke="midnightblue" d="M178.95,-56.32C167.54,-48.11 150.17,-35.6 136.57,-25.81"/>
<polygon fill="midnightblue" stroke="midnightblue" points="138.43,-22.84 128.27,-19.83 134.34,-28.52 138.43,-22.84"/>
</g>
</g>
</svg>
