<?xml version="1.0" encoding="UTF-8" standalone="no"?>
<!DOCTYPE svg PUBLIC "-//W3C//DTD SVG 1.1//EN"
 "http://www.w3.org/Graphics/SVG/1.1/DTD/svg11.dtd">
<!-- Generated by graphviz version 2.43.0 (0)
 -->
<!-- Title: Sensor.h Pages: 1 -->
<svg width="936pt" height="140pt"
 viewBox="0.00 0.00 936.00 140.00" xmlns="http://www.w3.org/2000/svg" xmlns:xlink="http://www.w3.org/1999/xlink">
<g id="graph0" class="graph" transform="scale(1 1) rotate(0) translate(4 136)">
<title>Sensor.h</title>
<!-- Node1 -->
<g id="node1" class="node">
<title>Node1</title>
<g id="a_node1"><a xlink:title=" ">
<polygon fill="#bfbfbf" stroke="black" points="400.5,-112.5 400.5,-131.5 458.5,-131.5 458.5,-112.5 400.5,-112.5"/>
<text text-anchor="middle" x="429.5" y="-119.5" font-family="Helvetica,sans-Serif" font-size="10.00">Sensor.h</text>
</a>
</g>
</g>
<!-- Node2 -->
<g id="node2" class="node">
<title>Node2</title>
<g id="a_node2"><a xlink:href="BME680Sensor_8h.html" target="_top" xlink:title=" ">
<polygon fill="none" stroke="black" points="64.5,-56.5 64.5,-75.5 162.5,-75.5 162.5,-56.5 64.5,-56.5"/>
<text text-anchor="middle" x="113.5" y="-63.5" font-family="Helvetica,sans-Serif" font-size="10.00">BME680Sensor.h</text>
</a>
</g>
</g>
<!-- Node1&#45;&gt;Node2 -->
<g id="edge1" class="edge">
<title>Node1&#45;&gt;Node2</title>
<path fill="none" stroke="midnightblue" d="M390.18,-114.28C332.57,-104.44 225.27,-86.1 162.57,-75.39"/>
<polygon fill="midnightblue" stroke="midnightblue" points="389.89,-117.78 400.34,-116.02 391.07,-110.88 389.89,-117.78"/>
</g>
<!-- Node4 -->
<g id="node4" class="node">
<title>Node4</title>
<g id="a_node4"><a xlink:href="main_8cpp.html" target="_top" xlink:title=" ">
<polygon fill="none" stroke="black" points="127.5,-0.5 127.5,-19.5 189.5,-19.5 189.5,-0.5 127.5,-0.5"/>
<text text-anchor="middle" x="158.5" y="-7.5" font-family="Helvetica,sans-Serif" font-size="10.00">main.cpp</text>
</a>
</g>
</g>
<!-- Node1&#45;&gt;Node4 -->
<g id="edge17" class="edge">
<title>Node1&#45;&gt;Node4</title>
<path fill="none" stroke="midnightblue" d="M390.22,-120.95C343.76,-119.19 265.65,-110.71 209.5,-76 186.81,-61.97 170.17,-34.02 162.76,-19.78"/>
<polygon fill="midnightblue" stroke="midnightblue" points="390.38,-124.46 400.47,-121.25 390.58,-117.46 390.38,-124.46"/>
</g>
<!-- Node5 -->
<g id="node5" class="node">
<title>Node5</title>
<g id="a_node5"><a xlink:href="GeigerSensor_8h.html" target="_top" xlink:title=" ">
<polygon fill="none" stroke="black" points="329.5,-56.5 329.5,-75.5 419.5,-75.5 419.5,-56.5 329.5,-56.5"/>
<text text-anchor="middle" x="374.5" y="-63.5" font-family="Helvetica,sans-Serif" font-size="10.00">GeigerSensor.h</text>
</a>
</g>
</g>
<!-- Node1&#45;&gt;Node5 -->
<g id="edge4" class="edge">
<title>Node1&#45;&gt;Node5</title>
<path fill="none" stroke="midnightblue" d="M413.21,-105C403.46,-95.43 391.45,-83.64 383.41,-75.75"/>
<polygon fill="midnightblue" stroke="midnightblue" points="410.83,-107.57 420.42,-112.08 415.73,-102.58 410.83,-107.57"/>
</g>
<!-- Node7 -->
<g id="node7" class="node">
<title>Node7</title>
<g id="a_node7"><a xlink:href="INA260Sensor_8h.html" target="_top" xlink:title=" ">
<polygon fill="none" stroke="black" points="443,-56.5 443,-75.5 536,-75.5 536,-56.5 443,-56.5"/>
<text text-anchor="middle" x="489.5" y="-63.5" font-family="Helvetica,sans-Serif" font-size="10.00">INA260Sensor.h</text>
</a>
</g>
</g>
<!-- Node1&#45;&gt;Node7 -->
<g id="edge6" class="edge">
<title>Node1&#45;&gt;Node7</title>
<path fill="none" stroke="midnightblue" d="M446.68,-105.54C457.38,-95.91 470.76,-83.87 479.68,-75.83"/>
<polygon fill="midnightblue" stroke="midnightblue" points="444.23,-103.03 439.14,-112.32 448.91,-108.24 444.23,-103.03"/>
</g>
<!-- Node9 -->
<g id="node9" class="node">
<title>Node9</title>
<g id="a_node9"><a xlink:href="LSM9DS1Sensor_8h.html" target="_top" xlink:title=" ">
<polygon fill="none" stroke="black" points="562.5,-56.5 562.5,-75.5 666.5,-75.5 666.5,-56.5 562.5,-56.5"/>
<text text-anchor="middle" x="614.5" y="-63.5" font-family="Helvetica,sans-Serif" font-size="10.00">LSM9DS1Sensor.h</text>
</a>
</g>
</g>
<!-- Node1&#45;&gt;Node9 -->
<g id="edge8" class="edge">
<title>Node1&#45;&gt;Node9</title>
<path fill="none" stroke="midnightblue" d="M468.67,-109.57C503.57,-99.38 553.85,-84.7 585.32,-75.52"/>
<polygon fill="midnightblue" stroke="midnightblue" points="467.43,-106.28 458.81,-112.44 469.39,-113 467.43,-106.28"/>
</g>
<!-- Node11 -->
<g id="node11" class="node">
<title>Node11</title>
<g id="a_node11"><a xlink:href="SHT31Sensor_8h.html" target="_top" xlink:title=" ">
<polygon fill="none" stroke="black" points="695,-56.5 695,-75.5 784,-75.5 784,-56.5 695,-56.5"/>
<text text-anchor="middle" x="739.5" y="-63.5" font-family="Helvetica,sans-Serif" font-size="10.00">SHT31Sensor.h</text>
</a>
</g>
</g>
<!-- Node1&#45;&gt;Node11 -->
<g id="edge10" class="edge">
<title>Node1&#45;&gt;Node11</title>
<path fill="none" stroke="midnightblue" d="M468.85,-114.14C526.64,-104.08 634.15,-85.35 694.83,-74.78"/>
<polygon fill="midnightblue" stroke="midnightblue" points="467.92,-110.76 458.66,-115.92 469.12,-117.65 467.92,-110.76"/>
</g>
<!-- Node13 -->
<g id="node13" class="node">
<title>Node13</title>
<g id="a_node13"><a xlink:href="TempSensor_8h.html" target="_top" xlink:title=" ">
<polygon fill="none" stroke="black" points="218.5,-56.5 218.5,-75.5 302.5,-75.5 302.5,-56.5 218.5,-56.5"/>
<text text-anchor="middle" x="260.5" y="-63.5" font-family="Helvetica,sans-Serif" font-size="10.00">TempSensor.h</text>
</a>
</g>
</g>
<!-- Node1&#45;&gt;Node13 -->
<g id="edge12" class="edge">
<title>Node1&#45;&gt;Node13</title>
<path fill="none" stroke="midnightblue" d="M392.9,-109.3C361.05,-99.13 315.66,-84.62 287.15,-75.52"/>
<polygon fill="midnightblue" stroke="midnightblue" points="392.13,-112.73 402.72,-112.44 394.26,-106.07 392.13,-112.73"/>
</g>
<!-- Node15 -->
<g id="node15" class="node">
<title>Node15</title>
<g id="a_node15"><a xlink:href="ZOPT220Sensor_8h.html" target="_top" xlink:title=" ">
<polygon fill="none" stroke="black" points="812.5,-56.5 812.5,-75.5 914.5,-75.5 914.5,-56.5 812.5,-56.5"/>
<text text-anchor="middle" x="863.5" y="-63.5" font-family="Helvetica,sans-Serif" font-size="10.00">ZOPT220Sensor.h</text>
</a>
</g>
</g>
<!-- Node1&#45;&gt;Node15 -->
<g id="edge15" class="edge">
<title>Node1&#45;&gt;Node15</title>
<path fill="none" stroke="midnightblue" d="M468.72,-116.17C535.3,-107.97 674.67,-90.77 792.5,-76 798.91,-75.2 805.65,-74.35 812.31,-73.51"/>
<polygon fill="midnightblue" stroke="midnightblue" points="468.17,-112.71 458.68,-117.41 469.03,-119.66 468.17,-112.71"/>
</g>
<!-- Node3 -->
<g id="node3" class="node">
<title>Node3</title>
<g id="a_node3"><a xlink:href="BME680Sensor_8cpp.html" target="_top" xlink:title=" ">
<polygon fill="none" stroke="black" points="0,-0.5 0,-19.5 109,-19.5 109,-0.5 0,-0.5"/>
<text text-anchor="middle" x="54.5" y="-7.5" font-family="Helvetica,sans-Serif" font-size="10.00">BME680Sensor.cpp</text>
</a>
</g>
</g>
<!-- Node2&#45;&gt;Node3 -->
<g id="edge2" class="edge">
<title>Node2&#45;&gt;Node3</title>
<path fill="none" stroke="midnightblue" d="M96.61,-49.54C86.09,-39.91 72.93,-27.87 64.15,-19.83"/>
<polygon fill="midnightblue" stroke="midnightblue" points="94.28,-52.15 104.02,-56.32 99.01,-46.99 94.28,-52.15"/>
</g>
<!-- Node2&#45;&gt;Node4 -->
<g id="edge3" class="edge">
<title>Node2&#45;&gt;Node4</title>
<path fill="none" stroke="midnightblue" d="M127.55,-48.14C135.39,-38.74 144.83,-27.4 151.21,-19.75"/>
<polygon fill="midnightblue" stroke="midnightblue" points="124.64,-46.16 120.93,-56.08 130.02,-50.64 124.64,-46.16"/>
</g>
<!-- Node6 -->
<g id="node6" class="node">
<title>Node6</title>
<g id="a_node6"><a xlink:href="GeigerSensor_8cpp.html" target="_top" xlink:title=" ">
<polygon fill="none" stroke="black" points="321,-0.5 321,-19.5 422,-19.5 422,-0.5 321,-0.5"/>
<text text-anchor="middle" x="371.5" y="-7.5" font-family="Helvetica,sans-Serif" font-size="10.00">GeigerSensor.cpp</text>
</a>
</g>
</g>
<!-- Node5&#45;&gt;Node6 -->
<g id="edge5" class="edge">
<title>Node5&#45;&gt;Node6</title>
<path fill="none" stroke="midnightblue" d="M373.43,-45.8C372.94,-36.91 372.38,-26.78 371.99,-19.75"/>
<polygon fill="midnightblue" stroke="midnightblue" points="369.96,-46.29 374,-56.08 376.94,-45.9 369.96,-46.29"/>
</g>
<!-- Node8 -->
<g id="node8" class="node">
<title>Node8</title>
<g id="a_node8"><a xlink:href="INA260Sensor_8cpp.html" target="_top" xlink:title=" ">
<polygon fill="none" stroke="black" points="440.5,-0.5 440.5,-19.5 544.5,-19.5 544.5,-0.5 440.5,-0.5"/>
<text text-anchor="middle" x="492.5" y="-7.5" font-family="Helvetica,sans-Serif" font-size="10.00">INA260Sensor.cpp</text>
</a>
</g>
</g>
<!-- Node7&#45;&gt;Node8 -->
<g id="edge7" class="edge">
<title>Node7&#45;&gt;Node8</title>
<path fill="none" stroke="midnightblue" d="M490.57,-45.8C491.06,-36.91 491.62,-26.78 492.01,-19.75"/>
<polygon fill="midnightblue" stroke="midnightblue" points="487.06,-45.9 490,-56.08 494.04,-46.29 487.06,-45.9"/>
</g>
<!-- Node10 -->
<g id="node10" class="node">
<title>Node10</title>
<g id="a_node10"><a xlink:href="LSM9DS1Sensor_8cpp.html" target="_top" xlink:title=" ">
<polygon fill="none" stroke="black" points="563,-0.5 563,-19.5 678,-19.5 678,-0.5 563,-0.5"/>
<text text-anchor="middle" x="620.5" y="-7.5" font-family="Helvetica,sans-Serif" font-size="10.00">LSM9DS1Sensor.cpp</text>
</a>
</g>
</g>
<!-- Node9&#45;&gt;Node10 -->
<g id="edge9" class="edge">
<title>Node9&#45;&gt;Node10</title>
<path fill="none" stroke="midnightblue" d="M616.6,-46.1C617.6,-37.14 618.74,-26.86 619.53,-19.75"/>
<polygon fill="midnightblue" stroke="midnightblue" points="613.12,-45.76 615.49,-56.08 620.07,-46.53 613.12,-45.76"/>
</g>
<!-- Node12 -->
<g id="node12" class="node">
<title>Node12</title>
<g id="a_node12"><a xlink:href="SHT31Sensor_8cpp.html" target="_top" xlink:title=" ">
<polygon fill="none" stroke="black" points="696,-0.5 696,-19.5 797,-19.5 797,-0.5 696,-0.5"/>
<text text-anchor="middle" x="746.5" y="-7.5" font-family="Helvetica,sans-Serif" font-size="10.00">SHT31Sensor.cpp</text>
</a>
</g>
</g>
<!-- Node11&#45;&gt;Node12 -->
<g id="edge11" class="edge">
<title>Node11&#45;&gt;Node12</title>
<path fill="none" stroke="midnightblue" d="M741.95,-46.1C743.11,-37.14 744.44,-26.86 745.37,-19.75"/>
<polygon fill="midnightblue" stroke="midnightblue" points="738.47,-45.72 740.66,-56.08 745.41,-46.62 738.47,-45.72"/>
</g>
<!-- Node13&#45;&gt;Node4 -->
<g id="edge13" class="edge">
<title>Node13&#45;&gt;Node4</title>
<path fill="none" stroke="midnightblue" d="M235.17,-51.59C216.31,-41.61 191.12,-28.27 174.85,-19.65"/>
<polygon fill="midnightblue" stroke="midnightblue" points="233.64,-54.74 244.11,-56.32 236.91,-48.55 233.64,-54.74"/>
</g>
<!-- Node14 -->
<g id="node14" class="node">
<title>Node14</title>
<g id="a_node14"><a xlink:href="TempSensor_8cpp.html" target="_top" xlink:title=" ">
<polygon fill="none" stroke="black" points="208,-0.5 208,-19.5 303,-19.5 303,-0.5 208,-0.5"/>
<text text-anchor="middle" x="255.5" y="-7.5" font-family="Helvetica,sans-Serif" font-size="10.00">TempSensor.cpp</text>
</a>
</g>
</g>
<!-- Node13&#45;&gt;Node14 -->
<g id="edge14" class="edge">
<title>Node13&#45;&gt;Node14</title>
<path fill="none" stroke="midnightblue" d="M258.75,-46.1C257.92,-37.14 256.97,-26.86 256.31,-19.75"/>
<polygon fill="midnightblue" stroke="midnightblue" points="255.27,-46.45 259.67,-56.08 262.24,-45.8 255.27,-46.45"/>
</g>
<!-- Node16 -->
<g id="node16" class="node">
<title>Node16</title>
<g id="a_node16"><a xlink:href="ZOPT220Sensor_8cpp.html" target="_top" xlink:title=" ">
<polygon fill="none" stroke="black" points="815,-0.5 815,-19.5 928,-19.5 928,-0.5 815,-0.5"/>
<text text-anchor="middle" x="871.5" y="-7.5" font-family="Helvetica,sans-Serif" font-size="10.00">ZOPT220Sensor.cpp</text>
</a>
</g>
</g>
<!-- Node15&#45;&gt;Node16 -->
<g id="edge16" class="edge">
<title>Node15&#45;&gt;Node16</title>
<path fill="none" stroke="midnightblue" d="M866.3,-46.1C867.63,-37.14 869.15,-26.86 870.2,-19.75"/>
<polygon fill="midnightblue" stroke="midnightblue" points="862.82,-45.68 864.82,-56.08 869.75,-46.7 862.82,-45.68"/>
</g>
</g>
</svg>
