<?xml version="1.0" encoding="UTF-8" standalone="no"?>
<!DOCTYPE svg PUBLIC "-//W3C//DTD SVG 1.1//EN"
 "http://www.w3.org/Graphics/SVG/1.1/DTD/svg11.dtd">
<!-- Generated by graphviz version 2.43.0 (0)
 -->
<!-- Title: Sensor.h Pages: 1 -->
<svg width="1686pt" height="140pt"
 viewBox="0.00 0.00 1686.00 140.00" xmlns="http://www.w3.org/2000/svg" xmlns:xlink="http://www.w3.org/1999/xlink">
<g id="graph0" class="graph" transform="scale(1 1) rotate(0) translate(4 136)">
<title>Sensor.h</title>
<!-- Node1 -->
<g id="node1" class="node">
<title>Node1</title>
<g id="a_node1"><a xlink:title=" ">
<polygon fill="#bfbfbf" stroke="black" points="782.5,-112.5 782.5,-131.5 840.5,-131.5 840.5,-112.5 782.5,-112.5"/>
<text text-anchor="middle" x="811.5" y="-119.5" font-family="Helvetica,sans-Serif" font-size="10.00">Sensor.h</text>
</a>
</g>
</g>
<!-- Node2 -->
<g id="node2" class="node">
<title>Node2</title>
<g id="a_node2"><a xlink:href="AnalogSensor_8h.html" target="_top" xlink:title=" ">
<polygon fill="none" stroke="black" points="103.5,-56.5 103.5,-75.5 195.5,-75.5 195.5,-56.5 103.5,-56.5"/>
<text text-anchor="middle" x="149.5" y="-63.5" font-family="Helvetica,sans-Serif" font-size="10.00">AnalogSensor.h</text>
</a>
</g>
</g>
<!-- Node1&#45;&gt;Node2 -->
<g id="edge1" class="edge">
<title>Node1&#45;&gt;Node2</title>
<path fill="none" stroke="midnightblue" d="M772.15,-119.29C675.34,-114.81 417.91,-101.32 204.5,-76 201.62,-75.66 198.66,-75.27 195.67,-74.86"/>
<polygon fill="midnightblue" stroke="midnightblue" points="772.2,-122.79 782.35,-119.75 772.52,-115.8 772.2,-122.79"/>
</g>
<!-- Node4 -->
<g id="node4" class="node">
<title>Node4</title>
<g id="a_node4"><a xlink:href="main_8cpp.html" target="_top" xlink:title=" ">
<polygon fill="none" stroke="black" points="625.5,-0.5 625.5,-19.5 687.5,-19.5 687.5,-0.5 625.5,-0.5"/>
<text text-anchor="middle" x="656.5" y="-7.5" font-family="Helvetica,sans-Serif" font-size="10.00">main.cpp</text>
</a>
</g>
</g>
<!-- Node1&#45;&gt;Node4 -->
<g id="edge38" class="edge">
<title>Node1&#45;&gt;Node4</title>
<path fill="none" stroke="midnightblue" d="M772.54,-110.81C750.38,-103.65 723.04,-92.38 702.5,-76 682.61,-60.14 667.55,-33.5 660.65,-19.77"/>
<polygon fill="midnightblue" stroke="midnightblue" points="771.73,-114.22 782.32,-113.82 773.79,-107.53 771.73,-114.22"/>
</g>
<!-- Node5 -->
<g id="node5" class="node">
<title>Node5</title>
<g id="a_node5"><a xlink:href="AS7331Sensor_8h.html" target="_top" xlink:title=" ">
<polygon fill="none" stroke="black" points="214,-56.5 214,-75.5 309,-75.5 309,-56.5 214,-56.5"/>
<text text-anchor="middle" x="261.5" y="-63.5" font-family="Helvetica,sans-Serif" font-size="10.00">AS7331Sensor.h</text>
</a>
</g>
</g>
<!-- Node1&#45;&gt;Node5 -->
<g id="edge4" class="edge">
<title>Node1&#45;&gt;Node5</title>
<path fill="none" stroke="midnightblue" d="M772.18,-118.29C688.53,-112.33 486.78,-96.94 318.5,-76 315.42,-75.62 312.25,-75.19 309.05,-74.75"/>
<polygon fill="midnightblue" stroke="midnightblue" points="772.03,-121.79 782.26,-119 772.53,-114.81 772.03,-121.79"/>
</g>
<!-- Node7 -->
<g id="node7" class="node">
<title>Node7</title>
<g id="a_node7"><a xlink:href="BME280Sensor_8h.html" target="_top" xlink:title=" ">
<polygon fill="none" stroke="black" points="327.5,-56.5 327.5,-75.5 425.5,-75.5 425.5,-56.5 327.5,-56.5"/>
<text text-anchor="middle" x="376.5" y="-63.5" font-family="Helvetica,sans-Serif" font-size="10.00">BME280Sensor.h</text>
</a>
</g>
</g>
<!-- Node1&#45;&gt;Node7 -->
<g id="edge7" class="edge">
<title>Node1&#45;&gt;Node7</title>
<path fill="none" stroke="midnightblue" d="M772.18,-116.77C703.56,-109.28 557.49,-92.88 434.5,-76 431.57,-75.6 428.56,-75.17 425.53,-74.73"/>
<polygon fill="midnightblue" stroke="midnightblue" points="771.81,-120.25 782.13,-117.85 772.56,-113.29 771.81,-120.25"/>
</g>
<!-- Node9 -->
<g id="node9" class="node">
<title>Node9</title>
<g id="a_node9"><a xlink:href="BME680Sensor_8h.html" target="_top" xlink:title=" ">
<polygon fill="none" stroke="black" points="443.5,-56.5 443.5,-75.5 541.5,-75.5 541.5,-56.5 443.5,-56.5"/>
<text text-anchor="middle" x="492.5" y="-63.5" font-family="Helvetica,sans-Serif" font-size="10.00">BME680Sensor.h</text>
</a>
</g>
</g>
<!-- Node1&#45;&gt;Node9 -->
<g id="edge10" class="edge">
<title>Node1&#45;&gt;Node9</title>
<path fill="none" stroke="midnightblue" d="M772.45,-114.39C714.3,-104.55 605.04,-86.05 541.58,-75.31"/>
<polygon fill="midnightblue" stroke="midnightblue" points="771.9,-117.85 782.35,-116.06 773.07,-110.94 771.9,-117.85"/>
</g>
<!-- Node11 -->
<g id="node11" class="node">
<title>Node11</title>
<g id="a_node11"><a xlink:href="ENS160Sensor_8h.html" target="_top" xlink:title=" ">
<polygon fill="none" stroke="black" points="560,-56.5 560,-75.5 655,-75.5 655,-56.5 560,-56.5"/>
<text text-anchor="middle" x="607.5" y="-63.5" font-family="Helvetica,sans-Serif" font-size="10.00">ENS160Sensor.h</text>
</a>
</g>
</g>
<!-- Node1&#45;&gt;Node11 -->
<g id="edge13" class="edge">
<title>Node1&#45;&gt;Node11</title>
<path fill="none" stroke="midnightblue" d="M772.44,-110.66C733.9,-100.46 675.67,-85.05 639.7,-75.52"/>
<polygon fill="midnightblue" stroke="midnightblue" points="771.71,-114.09 782.27,-113.26 773.5,-107.32 771.71,-114.09"/>
</g>
<!-- Node13 -->
<g id="node13" class="node">
<title>Node13</title>
<g id="a_node13"><a xlink:href="GeigerSensor_8h.html" target="_top" xlink:title=" ">
<polygon fill="none" stroke="black" points="711.5,-56.5 711.5,-75.5 801.5,-75.5 801.5,-56.5 711.5,-56.5"/>
<text text-anchor="middle" x="756.5" y="-63.5" font-family="Helvetica,sans-Serif" font-size="10.00">GeigerSensor.h</text>
</a>
</g>
</g>
<!-- Node1&#45;&gt;Node13 -->
<g id="edge16" class="edge">
<title>Node1&#45;&gt;Node13</title>
<path fill="none" stroke="midnightblue" d="M795.21,-105C785.46,-95.43 773.45,-83.64 765.41,-75.75"/>
<polygon fill="midnightblue" stroke="midnightblue" points="792.83,-107.57 802.42,-112.08 797.73,-102.58 792.83,-107.57"/>
</g>
<!-- Node15 -->
<g id="node15" class="node">
<title>Node15</title>
<g id="a_node15"><a xlink:href="INA260Sensor_8h.html" target="_top" xlink:title=" ">
<polygon fill="none" stroke="black" points="820,-56.5 820,-75.5 913,-75.5 913,-56.5 820,-56.5"/>
<text text-anchor="middle" x="866.5" y="-63.5" font-family="Helvetica,sans-Serif" font-size="10.00">INA260Sensor.h</text>
</a>
</g>
</g>
<!-- Node1&#45;&gt;Node15 -->
<g id="edge19" class="edge">
<title>Node1&#45;&gt;Node15</title>
<path fill="none" stroke="midnightblue" d="M827.79,-105C837.54,-95.43 849.55,-83.64 857.59,-75.75"/>
<polygon fill="midnightblue" stroke="midnightblue" points="825.27,-102.58 820.58,-112.08 830.17,-107.57 825.27,-102.58"/>
</g>
<!-- Node17 -->
<g id="node17" class="node">
<title>Node17</title>
<g id="a_node17"><a xlink:href="LSM9DS1Sensor_8h.html" target="_top" xlink:title=" ">
<polygon fill="none" stroke="black" points="931.5,-56.5 931.5,-75.5 1035.5,-75.5 1035.5,-56.5 931.5,-56.5"/>
<text text-anchor="middle" x="983.5" y="-63.5" font-family="Helvetica,sans-Serif" font-size="10.00">LSM9DS1Sensor.h</text>
</a>
</g>
</g>
<!-- Node1&#45;&gt;Node17 -->
<g id="edge22" class="edge">
<title>Node1&#45;&gt;Node17</title>
<path fill="none" stroke="midnightblue" d="M848.33,-109.44C880.76,-99.26 927.24,-84.66 956.37,-75.52"/>
<polygon fill="midnightblue" stroke="midnightblue" points="847.25,-106.11 838.75,-112.44 849.34,-112.79 847.25,-106.11"/>
</g>
<!-- Node19 -->
<g id="node19" class="node">
<title>Node19</title>
<g id="a_node19"><a xlink:href="MTK3339Sensor_8h.html" target="_top" xlink:title=" ">
<polygon fill="none" stroke="black" points="1403.5,-56.5 1403.5,-75.5 1507.5,-75.5 1507.5,-56.5 1403.5,-56.5"/>
<text text-anchor="middle" x="1455.5" y="-63.5" font-family="Helvetica,sans-Serif" font-size="10.00">MTK3339Sensor.h</text>
</a>
</g>
</g>
<!-- Node1&#45;&gt;Node19 -->
<g id="edge25" class="edge">
<title>Node1&#45;&gt;Node19</title>
<path fill="none" stroke="midnightblue" d="M850.71,-117.96C940.79,-110.93 1169.45,-92.88 1360.5,-76 1374.36,-74.78 1389.36,-73.39 1403.25,-72.07"/>
<polygon fill="midnightblue" stroke="midnightblue" points="850.37,-114.47 840.67,-118.74 850.92,-121.45 850.37,-114.47"/>
</g>
<!-- Node21 -->
<g id="node21" class="node">
<title>Node21</title>
<g id="a_node21"><a xlink:href="SGP30Sensor_8h.html" target="_top" xlink:title=" ">
<polygon fill="none" stroke="black" points="1054,-56.5 1054,-75.5 1143,-75.5 1143,-56.5 1054,-56.5"/>
<text text-anchor="middle" x="1098.5" y="-63.5" font-family="Helvetica,sans-Serif" font-size="10.00">SGP30Sensor.h</text>
</a>
</g>
</g>
<!-- Node1&#45;&gt;Node21 -->
<g id="edge27" class="edge">
<title>Node1&#45;&gt;Node21</title>
<path fill="none" stroke="midnightblue" d="M850.63,-113.64C903.67,-103.66 998.15,-85.88 1053.89,-75.39"/>
<polygon fill="midnightblue" stroke="midnightblue" points="849.78,-110.24 840.6,-115.53 851.07,-117.12 849.78,-110.24"/>
</g>
<!-- Node23 -->
<g id="node23" class="node">
<title>Node23</title>
<g id="a_node23"><a xlink:href="SHT31Sensor_8h.html" target="_top" xlink:title=" ">
<polygon fill="none" stroke="black" points="1161,-56.5 1161,-75.5 1250,-75.5 1250,-56.5 1161,-56.5"/>
<text text-anchor="middle" x="1205.5" y="-63.5" font-family="Helvetica,sans-Serif" font-size="10.00">SHT31Sensor.h</text>
</a>
</g>
</g>
<!-- Node1&#45;&gt;Node23 -->
<g id="edge30" class="edge">
<title>Node1&#45;&gt;Node23</title>
<path fill="none" stroke="midnightblue" d="M850.6,-116.26C913.91,-108.48 1042.72,-92.26 1151.5,-76 1154.51,-75.55 1157.61,-75.07 1160.73,-74.58"/>
<polygon fill="midnightblue" stroke="midnightblue" points="850.15,-112.79 840.65,-117.48 851.01,-119.73 850.15,-112.79"/>
</g>
<!-- Node25 -->
<g id="node25" class="node">
<title>Node25</title>
<g id="a_node25"><a xlink:href="TempSensor_8h.html" target="_top" xlink:title=" ">
<polygon fill="none" stroke="black" points="1267.5,-56.5 1267.5,-75.5 1351.5,-75.5 1351.5,-56.5 1267.5,-56.5"/>
<text text-anchor="middle" x="1309.5" y="-63.5" font-family="Helvetica,sans-Serif" font-size="10.00">TempSensor.h</text>
</a>
</g>
</g>
<!-- Node1&#45;&gt;Node25 -->
<g id="edge33" class="edge">
<title>Node1&#45;&gt;Node25</title>
<path fill="none" stroke="midnightblue" d="M850.94,-118.02C928.98,-111.91 1108.52,-96.75 1258.5,-76 1261.35,-75.61 1264.28,-75.17 1267.24,-74.71"/>
<polygon fill="midnightblue" stroke="midnightblue" points="850.31,-114.56 840.61,-118.82 850.85,-121.54 850.31,-114.56"/>
</g>
<!-- Node27 -->
<g id="node27" class="node">
<title>Node27</title>
<g id="a_node27"><a xlink:href="ZOPT220Sensor_8h.html" target="_top" xlink:title=" ">
<polygon fill="none" stroke="black" points="1547.5,-56.5 1547.5,-75.5 1649.5,-75.5 1649.5,-56.5 1547.5,-56.5"/>
<text text-anchor="middle" x="1598.5" y="-63.5" font-family="Helvetica,sans-Serif" font-size="10.00">ZOPT220Sensor.h</text>
</a>
</g>
</g>
<!-- Node1&#45;&gt;Node27 -->
<g id="edge36" class="edge">
<title>Node1&#45;&gt;Node27</title>
<path fill="none" stroke="midnightblue" d="M850.76,-119.12C957.71,-113.87 1263.15,-97.98 1516.5,-76 1526.49,-75.13 1537.14,-74.07 1547.36,-72.98"/>
<polygon fill="midnightblue" stroke="midnightblue" points="850.57,-115.63 840.75,-119.61 850.91,-122.62 850.57,-115.63"/>
</g>
<!-- Node3 -->
<g id="node3" class="node">
<title>Node3</title>
<g id="a_node3"><a xlink:href="AnalogSensor_8cpp.html" target="_top" xlink:title=" ">
<polygon fill="none" stroke="black" points="0,-0.5 0,-19.5 103,-19.5 103,-0.5 0,-0.5"/>
<text text-anchor="middle" x="51.5" y="-7.5" font-family="Helvetica,sans-Serif" font-size="10.00">AnalogSensor.cpp</text>
</a>
</g>
</g>
<!-- Node2&#45;&gt;Node3 -->
<g id="edge2" class="edge">
<title>Node2&#45;&gt;Node3</title>
<path fill="none" stroke="midnightblue" d="M124.91,-51.45C106.82,-41.48 82.77,-28.23 67.21,-19.65"/>
<polygon fill="midnightblue" stroke="midnightblue" points="123.31,-54.56 133.75,-56.32 126.69,-48.43 123.31,-54.56"/>
</g>
<!-- Node2&#45;&gt;Node4 -->
<g id="edge3" class="edge">
<title>Node2&#45;&gt;Node4</title>
<path fill="none" stroke="midnightblue" d="M205.61,-55.96C388.16,-33.68 437.43,-47.23 615.5,-20 618.67,-19.52 621.96,-18.93 625.24,-18.3"/>
<polygon fill="midnightblue" stroke="midnightblue" points="205.17,-52.48 195.68,-57.19 206.03,-59.43 205.17,-52.48"/>
</g>
<!-- Node5&#45;&gt;Node4 -->
<g id="edge6" class="edge">
<title>Node5&#45;&gt;Node4</title>
<path fill="none" stroke="midnightblue" d="M319.21,-55.96C451.92,-37.84 487.61,-41.74 615.5,-20 618.66,-19.46 621.95,-18.84 625.22,-18.19"/>
<polygon fill="midnightblue" stroke="midnightblue" points="318.49,-52.52 309.07,-57.36 319.45,-59.46 318.49,-52.52"/>
</g>
<!-- Node6 -->
<g id="node6" class="node">
<title>Node6</title>
<g id="a_node6"><a xlink:href="AS7331Sensor_8cpp.html" target="_top" xlink:title=" ">
<polygon fill="none" stroke="black" points="121.5,-0.5 121.5,-19.5 227.5,-19.5 227.5,-0.5 121.5,-0.5"/>
<text text-anchor="middle" x="174.5" y="-7.5" font-family="Helvetica,sans-Serif" font-size="10.00">AS7331Sensor.cpp</text>
</a>
</g>
</g>
<!-- Node5&#45;&gt;Node6 -->
<g id="edge5" class="edge">
<title>Node5&#45;&gt;Node6</title>
<path fill="none" stroke="midnightblue" d="M238.78,-50.9C222.83,-41 202,-28.07 188.44,-19.65"/>
<polygon fill="midnightblue" stroke="midnightblue" points="237.18,-54.02 247.52,-56.32 240.87,-48.08 237.18,-54.02"/>
</g>
<!-- Node7&#45;&gt;Node4 -->
<g id="edge9" class="edge">
<title>Node7&#45;&gt;Node4</title>
<path fill="none" stroke="midnightblue" d="M434.18,-54.64C482.65,-45.81 553.7,-32.6 615.5,-20 618.64,-19.36 621.91,-18.67 625.18,-17.98"/>
<polygon fill="midnightblue" stroke="midnightblue" points="433.41,-51.22 424.2,-56.45 434.66,-58.11 433.41,-51.22"/>
</g>
<!-- Node8 -->
<g id="node8" class="node">
<title>Node8</title>
<g id="a_node8"><a xlink:href="BME280Sensor_8cpp.html" target="_top" xlink:title=" ">
<polygon fill="none" stroke="black" points="246,-0.5 246,-19.5 355,-19.5 355,-0.5 246,-0.5"/>
<text text-anchor="middle" x="300.5" y="-7.5" font-family="Helvetica,sans-Serif" font-size="10.00">BME280Sensor.cpp</text>
</a>
</g>
</g>
<!-- Node7&#45;&gt;Node8 -->
<g id="edge8" class="edge">
<title>Node7&#45;&gt;Node8</title>
<path fill="none" stroke="midnightblue" d="M355.92,-50.38C342.19,-40.62 324.57,-28.11 312.93,-19.83"/>
<polygon fill="midnightblue" stroke="midnightblue" points="354.11,-53.38 364.29,-56.32 358.16,-47.68 354.11,-53.38"/>
</g>
<!-- Node9&#45;&gt;Node4 -->
<g id="edge12" class="edge">
<title>Node9&#45;&gt;Node4</title>
<path fill="none" stroke="midnightblue" d="M528.02,-53.3C558.92,-43.13 602.97,-28.62 630.64,-19.52"/>
<polygon fill="midnightblue" stroke="midnightblue" points="526.89,-49.99 518.49,-56.44 529.08,-56.64 526.89,-49.99"/>
</g>
<!-- Node10 -->
<g id="node10" class="node">
<title>Node10</title>
<g id="a_node10"><a xlink:href="BME680Sensor_8cpp.html" target="_top" xlink:title=" ">
<polygon fill="none" stroke="black" points="373,-0.5 373,-19.5 482,-19.5 482,-0.5 373,-0.5"/>
<text text-anchor="middle" x="427.5" y="-7.5" font-family="Helvetica,sans-Serif" font-size="10.00">BME680Sensor.cpp</text>
</a>
</g>
</g>
<!-- Node9&#45;&gt;Node10 -->
<g id="edge11" class="edge">
<title>Node9&#45;&gt;Node10</title>
<path fill="none" stroke="midnightblue" d="M474.23,-49.82C462.58,-40.15 447.9,-27.95 438.13,-19.83"/>
<polygon fill="midnightblue" stroke="midnightblue" points="472.13,-52.63 482.06,-56.32 476.6,-47.24 472.13,-52.63"/>
</g>
<!-- Node11&#45;&gt;Node4 -->
<g id="edge15" class="edge">
<title>Node11&#45;&gt;Node4</title>
<path fill="none" stroke="midnightblue" d="M622.53,-48.43C631.12,-38.97 641.54,-27.48 648.56,-19.75"/>
<polygon fill="midnightblue" stroke="midnightblue" points="619.72,-46.33 615.59,-56.08 624.9,-51.03 619.72,-46.33"/>
</g>
<!-- Node12 -->
<g id="node12" class="node">
<title>Node12</title>
<g id="a_node12"><a xlink:href="ENS160Sensor_8cpp.html" target="_top" xlink:title=" ">
<polygon fill="none" stroke="black" points="500,-0.5 500,-19.5 607,-19.5 607,-0.5 500,-0.5"/>
<text text-anchor="middle" x="553.5" y="-7.5" font-family="Helvetica,sans-Serif" font-size="10.00">ENS160Sensor.cpp</text>
</a>
</g>
</g>
<!-- Node11&#45;&gt;Node12 -->
<g id="edge14" class="edge">
<title>Node11&#45;&gt;Node12</title>
<path fill="none" stroke="midnightblue" d="M591.5,-49C581.93,-39.43 570.14,-27.64 562.25,-19.75"/>
<polygon fill="midnightblue" stroke="midnightblue" points="589.04,-51.49 598.58,-56.08 593.99,-46.54 589.04,-51.49"/>
</g>
<!-- Node13&#45;&gt;Node4 -->
<g id="edge18" class="edge">
<title>Node13&#45;&gt;Node4</title>
<path fill="none" stroke="midnightblue" d="M731.41,-51.45C712.95,-41.48 688.4,-28.23 672.53,-19.65"/>
<polygon fill="midnightblue" stroke="midnightblue" points="729.97,-54.65 740.43,-56.32 733.3,-48.49 729.97,-54.65"/>
</g>
<!-- Node14 -->
<g id="node14" class="node">
<title>Node14</title>
<g id="a_node14"><a xlink:href="GeigerSensor_8cpp.html" target="_top" xlink:title=" ">
<polygon fill="none" stroke="black" points="706,-0.5 706,-19.5 807,-19.5 807,-0.5 706,-0.5"/>
<text text-anchor="middle" x="756.5" y="-7.5" font-family="Helvetica,sans-Serif" font-size="10.00">GeigerSensor.cpp</text>
</a>
</g>
</g>
<!-- Node13&#45;&gt;Node14 -->
<g id="edge17" class="edge">
<title>Node13&#45;&gt;Node14</title>
<path fill="none" stroke="midnightblue" d="M756.5,-45.8C756.5,-36.91 756.5,-26.78 756.5,-19.75"/>
<polygon fill="midnightblue" stroke="midnightblue" points="753,-46.08 756.5,-56.08 760,-46.08 753,-46.08"/>
</g>
<!-- Node15&#45;&gt;Node4 -->
<g id="edge21" class="edge">
<title>Node15&#45;&gt;Node4</title>
<path fill="none" stroke="midnightblue" d="M823.38,-53.91C782.97,-43.52 723.52,-28.23 687.57,-18.99"/>
<polygon fill="midnightblue" stroke="midnightblue" points="822.67,-57.34 833.22,-56.44 824.41,-50.56 822.67,-57.34"/>
</g>
<!-- Node16 -->
<g id="node16" class="node">
<title>Node16</title>
<g id="a_node16"><a xlink:href="INA260Sensor_8cpp.html" target="_top" xlink:title=" ">
<polygon fill="none" stroke="black" points="825.5,-0.5 825.5,-19.5 929.5,-19.5 929.5,-0.5 825.5,-0.5"/>
<text text-anchor="middle" x="877.5" y="-7.5" font-family="Helvetica,sans-Serif" font-size="10.00">INA260Sensor.cpp</text>
</a>
</g>
</g>
<!-- Node15&#45;&gt;Node16 -->
<g id="edge20" class="edge">
<title>Node15&#45;&gt;Node16</title>
<path fill="none" stroke="midnightblue" d="M870.35,-46.1C872.18,-37.14 874.27,-26.86 875.72,-19.75"/>
<polygon fill="midnightblue" stroke="midnightblue" points="866.88,-45.59 868.32,-56.08 873.74,-46.98 866.88,-45.59"/>
</g>
<!-- Node17&#45;&gt;Node4 -->
<g id="edge24" class="edge">
<title>Node17&#45;&gt;Node4</title>
<path fill="none" stroke="midnightblue" d="M921.32,-55.74C850.27,-45.07 738.41,-27.99 696.5,-20 693.7,-19.47 690.8,-18.88 687.9,-18.27"/>
<polygon fill="midnightblue" stroke="midnightblue" points="921.09,-59.24 931.49,-57.27 922.12,-52.32 921.09,-59.24"/>
</g>
<!-- Node18 -->
<g id="node18" class="node">
<title>Node18</title>
<g id="a_node18"><a xlink:href="LSM9DS1Sensor_8cpp.html" target="_top" xlink:title=" ">
<polygon fill="none" stroke="black" points="948,-0.5 948,-19.5 1063,-19.5 1063,-0.5 948,-0.5"/>
<text text-anchor="middle" x="1005.5" y="-7.5" font-family="Helvetica,sans-Serif" font-size="10.00">LSM9DS1Sensor.cpp</text>
</a>
</g>
</g>
<!-- Node17&#45;&gt;Node18 -->
<g id="edge23" class="edge">
<title>Node17&#45;&gt;Node18</title>
<path fill="none" stroke="midnightblue" d="M990.96,-46.69C994.67,-37.59 998.98,-27.01 1001.93,-19.75"/>
<polygon fill="midnightblue" stroke="midnightblue" points="987.66,-45.5 987.13,-56.08 994.15,-48.14 987.66,-45.5"/>
</g>
<!-- Node20 -->
<g id="node20" class="node">
<title>Node20</title>
<g id="a_node20"><a xlink:href="MTK3339Sensor_8cpp.html" target="_top" xlink:title=" ">
<polygon fill="none" stroke="black" points="1432,-0.5 1432,-19.5 1547,-19.5 1547,-0.5 1432,-0.5"/>
<text text-anchor="middle" x="1489.5" y="-7.5" font-family="Helvetica,sans-Serif" font-size="10.00">MTK3339Sensor.cpp</text>
</a>
</g>
</g>
<!-- Node19&#45;&gt;Node20 -->
<g id="edge26" class="edge">
<title>Node19&#45;&gt;Node20</title>
<path fill="none" stroke="midnightblue" d="M1466.48,-47.57C1472.33,-38.27 1479.27,-27.25 1483.99,-19.75"/>
<polygon fill="midnightblue" stroke="midnightblue" points="1463.48,-45.76 1461.11,-56.08 1469.4,-49.49 1463.48,-45.76"/>
</g>
<!-- Node21&#45;&gt;Node4 -->
<g id="edge28" class="edge">
<title>Node21&#45;&gt;Node4</title>
<path fill="none" stroke="midnightblue" d="M1043.38,-55.94C888.61,-35.62 846.65,-44.57 696.5,-20 693.69,-19.54 690.78,-19 687.87,-18.43"/>
<polygon fill="midnightblue" stroke="midnightblue" points="1043.37,-59.47 1053.74,-57.32 1044.29,-52.53 1043.37,-59.47"/>
</g>
<!-- Node22 -->
<g id="node22" class="node">
<title>Node22</title>
<g id="a_node22"><a xlink:href="SGP30Sensor_8cpp.html" target="_top" xlink:title=" ">
<polygon fill="none" stroke="black" points="1081,-0.5 1081,-19.5 1182,-19.5 1182,-0.5 1081,-0.5"/>
<text text-anchor="middle" x="1131.5" y="-7.5" font-family="Helvetica,sans-Serif" font-size="10.00">SGP30Sensor.cpp</text>
</a>
</g>
</g>
<!-- Node21&#45;&gt;Node22 -->
<g id="edge29" class="edge">
<title>Node21&#45;&gt;Node22</title>
<path fill="none" stroke="midnightblue" d="M1109.33,-47.27C1114.97,-38.05 1121.62,-27.17 1126.15,-19.75"/>
<polygon fill="midnightblue" stroke="midnightblue" points="1106.18,-45.73 1103.95,-56.08 1112.15,-49.38 1106.18,-45.73"/>
</g>
<!-- Node23&#45;&gt;Node4 -->
<g id="edge31" class="edge">
<title>Node23&#45;&gt;Node4</title>
<path fill="none" stroke="midnightblue" d="M1150.7,-56.02C948.41,-31.9 893.84,-49.85 696.5,-20 693.68,-19.57 690.77,-19.06 687.86,-18.5"/>
<polygon fill="midnightblue" stroke="midnightblue" points="1150.41,-59.51 1160.75,-57.24 1151.25,-52.56 1150.41,-59.51"/>
</g>
<!-- Node24 -->
<g id="node24" class="node">
<title>Node24</title>
<g id="a_node24"><a xlink:href="SHT31Sensor_8cpp.html" target="_top" xlink:title=" ">
<polygon fill="none" stroke="black" points="1200,-0.5 1200,-19.5 1301,-19.5 1301,-0.5 1200,-0.5"/>
<text text-anchor="middle" x="1250.5" y="-7.5" font-family="Helvetica,sans-Serif" font-size="10.00">SHT31Sensor.cpp</text>
</a>
</g>
</g>
<!-- Node23&#45;&gt;Node24 -->
<g id="edge32" class="edge">
<title>Node23&#45;&gt;Node24</title>
<path fill="none" stroke="midnightblue" d="M1219.55,-48.14C1227.39,-38.74 1236.83,-27.4 1243.21,-19.75"/>
<polygon fill="midnightblue" stroke="midnightblue" points="1216.64,-46.16 1212.93,-56.08 1222.02,-50.64 1216.64,-46.16"/>
</g>
<!-- Node25&#45;&gt;Node4 -->
<g id="edge34" class="edge">
<title>Node25&#45;&gt;Node4</title>
<path fill="none" stroke="midnightblue" d="M1257.18,-55.98C1008.22,-26.97 940.98,-55.11 696.5,-20 693.68,-19.6 690.77,-19.1 687.86,-18.55"/>
<polygon fill="midnightblue" stroke="midnightblue" points="1256.91,-59.47 1267.25,-57.17 1257.73,-52.52 1256.91,-59.47"/>
</g>
<!-- Node26 -->
<g id="node26" class="node">
<title>Node26</title>
<g id="a_node26"><a xlink:href="TempSensor_8cpp.html" target="_top" xlink:title=" ">
<polygon fill="none" stroke="black" points="1319,-0.5 1319,-19.5 1414,-19.5 1414,-0.5 1319,-0.5"/>
<text text-anchor="middle" x="1366.5" y="-7.5" font-family="Helvetica,sans-Serif" font-size="10.00">TempSensor.cpp</text>
</a>
</g>
</g>
<!-- Node25&#45;&gt;Node26 -->
<g id="edge35" class="edge">
<title>Node25&#45;&gt;Node26</title>
<path fill="none" stroke="midnightblue" d="M1326.12,-49.25C1336.23,-39.67 1348.78,-27.79 1357.18,-19.83"/>
<polygon fill="midnightblue" stroke="midnightblue" points="1323.51,-46.91 1318.66,-56.32 1328.32,-51.99 1323.51,-46.91"/>
</g>
<!-- Node28 -->
<g id="node28" class="node">
<title>Node28</title>
<g id="a_node28"><a xlink:href="ZOPT220Sensor_8cpp.html" target="_top" xlink:title=" ">
<polygon fill="none" stroke="black" points="1565,-0.5 1565,-19.5 1678,-19.5 1678,-0.5 1565,-0.5"/>
<text text-anchor="middle" x="1621.5" y="-7.5" font-family="Helvetica,sans-Serif" font-size="10.00">ZOPT220Sensor.cpp</text>
</a>
</g>
</g>
<!-- Node27&#45;&gt;Node28 -->
<g id="edge37" class="edge">
<title>Node27&#45;&gt;Node28</title>
<path fill="none" stroke="midnightblue" d="M1606.3,-46.69C1610.18,-37.59 1614.68,-27.01 1617.77,-19.75"/>
<polygon fill="midnightblue" stroke="midnightblue" points="1603,-45.51 1602.3,-56.08 1609.44,-48.25 1603,-45.51"/>
</g>
</g>
</svg>
