<?xml version="1.0" encoding="UTF-8" standalone="no"?>
<!DOCTYPE svg PUBLIC "-//W3C//DTD SVG 1.1//EN"
 "http://www.w3.org/Graphics/SVG/1.1/DTD/svg11.dtd">
<!-- Generated by graphviz version 2.43.0 (0)
 -->
<!-- Title: Sensor.h Pages: 1 -->
<!--zoomable 140 -->
<svg id="main" version="1.1" xmlns="http://www.w3.org/2000/svg" xmlns:xlink="http://www.w3.org/1999/xlink" xml:space="preserve" onload="init(evt)">
<style type="text/css"><![CDATA[
.edge:hover path { stroke: red; }
.edge:hover polygon { stroke: red; fill: red; }
]]></style>
<script type="text/javascript"><![CDATA[
var edges = document.getElementsByTagName('g');
if (edges && edges.length) {
  for (var i=0;i<edges.length;i++) {
    if (edges[i].id.substr(0,4)=='edge') {
      edges[i].setAttribute('class','edge');
    }
  }
}
]]></script>
        <defs>
                <circle id="rim" cx="0" cy="0" r="7"/>
                <circle id="rim2" cx="0" cy="0" r="3.5"/>
                <g id="zoomPlus">
                        <use xlink:href="#rim" fill="#404040">
                                <set attributeName="fill" to="#808080" begin="zoomplus.mouseover" end="zoomplus.mouseout"/>
                        </use>
                        <path d="M-4,0h8M0,-4v8" fill="none" stroke="white" stroke-width="1.5" pointer-events="none"/>
                </g>
                <g id="zoomMin">
                        <use xlink:href="#rim" fill="#404040">
                                <set attributeName="fill" to="#808080" begin="zoomminus.mouseover" end="zoomminus.mouseout"/>
                        </use>
                        <path d="M-4,0h8" fill="none" stroke="white" stroke-width="1.5" pointer-events="none"/>
                </g>
                <g id="dirArrow">
                        <path fill="none" stroke="white" stroke-width="1.5" d="M0,-3.0v7 M-2.5,-0.5L0,-3.0L2.5,-0.5"/>
                </g>
               <g id="resetDef">
                       <use xlink:href="#rim2" fill="#404040">
                               <set attributeName="fill" to="#808080" begin="reset.mouseover" end="reset.mouseout"/>
                       </use>
               </g>
        </defs>

<script type="text/javascript">
var viewWidth = 1811;
var viewHeight = 140;
var sectionId = 'dynsection-1';
</script>
<script xlink:href="svgpan.js"/>
<svg id="graph" class="graph">
<g id="viewport">
<title>Sensor.h</title>
<!-- Node1 -->
<g id="node1" class="node">
<title>Node1</title>
<g id="a_node1"><a xlink:title=" ">
<polygon fill="#bfbfbf" stroke="black" points="852.5,-112.5 852.5,-131.5 910.5,-131.5 910.5,-112.5 852.5,-112.5"/>
<text text-anchor="middle" x="881.5" y="-119.5" font-family="Helvetica,sans-Serif" font-size="10.00">Sensor.h</text>
</a>
</g>
</g>
<!-- Node2 -->
<g id="node2" class="node">
<title>Node2</title>
<g id="a_node2"><a xlink:href="AnalogSensor_8h.html" target="_top" xlink:title=" ">
<polygon fill="none" stroke="black" points="115.5,-56.5 115.5,-75.5 207.5,-75.5 207.5,-56.5 115.5,-56.5"/>
<text text-anchor="middle" x="161.5" y="-63.5" font-family="Helvetica,sans-Serif" font-size="10.00">AnalogSensor.h</text>
</a>
</g>
</g>
<!-- Node1&#45;&gt;Node2 -->
<g id="edge1" class="edge">
<title>Node1&#45;&gt;Node2</title>
<path fill="none" stroke="midnightblue" d="M841.99,-119.63C738.82,-115.78 452.98,-103.29 216.5,-76 213.62,-75.67 210.65,-75.29 207.67,-74.88"/>
<polygon fill="midnightblue" stroke="midnightblue" points="842.12,-123.14 852.24,-120.01 842.38,-116.14 842.12,-123.14"/>
</g>
<!-- Node4 -->
<g id="node4" class="node">
<title>Node4</title>
<g id="a_node4"><a xlink:href="main_8cpp.html" target="_top" xlink:title=" ">
<polygon fill="none" stroke="black" points="750.5,-0.5 750.5,-19.5 812.5,-19.5 812.5,-0.5 750.5,-0.5"/>
<text text-anchor="middle" x="781.5" y="-7.5" font-family="Helvetica,sans-Serif" font-size="10.00">main.cpp</text>
</a>
</g>
</g>
<!-- Node1&#45;&gt;Node4 -->
<g id="edge41" class="edge">
<title>Node1&#45;&gt;Node4</title>
<path fill="none" stroke="midnightblue" d="M861.6,-106.44C850.9,-98.14 837.83,-87.17 827.5,-76 810.42,-57.52 794.38,-32.46 786.53,-19.52"/>
<polygon fill="midnightblue" stroke="midnightblue" points="859.49,-109.24 869.57,-112.49 863.72,-103.66 859.49,-109.24"/>
</g>
<!-- Node5 -->
<g id="node5" class="node">
<title>Node5</title>
<g id="a_node5"><a xlink:href="AS7331Sensor_8h.html" target="_top" xlink:title=" ">
<polygon fill="none" stroke="black" points="226,-56.5 226,-75.5 321,-75.5 321,-56.5 226,-56.5"/>
<text text-anchor="middle" x="273.5" y="-63.5" font-family="Helvetica,sans-Serif" font-size="10.00">AS7331Sensor.h</text>
</a>
</g>
</g>
<!-- Node1&#45;&gt;Node5 -->
<g id="edge4" class="edge">
<title>Node1&#45;&gt;Node5</title>
<path fill="none" stroke="midnightblue" d="M842.38,-118.82C752.02,-113.56 521.86,-98.89 330.5,-76 327.42,-75.63 324.24,-75.22 321.05,-74.78"/>
<polygon fill="midnightblue" stroke="midnightblue" points="842.26,-122.32 852.45,-119.4 842.67,-115.33 842.26,-122.32"/>
</g>
<!-- Node7 -->
<g id="node7" class="node">
<title>Node7</title>
<g id="a_node7"><a xlink:href="BME280Sensor_8h.html" target="_top" xlink:title=" ">
<polygon fill="none" stroke="black" points="339.5,-56.5 339.5,-75.5 437.5,-75.5 437.5,-56.5 339.5,-56.5"/>
<text text-anchor="middle" x="388.5" y="-63.5" font-family="Helvetica,sans-Serif" font-size="10.00">BME280Sensor.h</text>
</a>
</g>
</g>
<!-- Node1&#45;&gt;Node7 -->
<g id="edge7" class="edge">
<title>Node1&#45;&gt;Node7</title>
<path fill="none" stroke="midnightblue" d="M842.32,-117.62C765.99,-110.89 592.13,-94.82 446.5,-76 443.57,-75.62 440.56,-75.21 437.52,-74.79"/>
<polygon fill="midnightblue" stroke="midnightblue" points="842.16,-121.12 852.42,-118.51 842.77,-114.15 842.16,-121.12"/>
</g>
<!-- Node9 -->
<g id="node9" class="node">
<title>Node9</title>
<g id="a_node9"><a xlink:href="BME680Sensor_8h.html" target="_top" xlink:title=" ">
<polygon fill="none" stroke="black" points="455.5,-56.5 455.5,-75.5 553.5,-75.5 553.5,-56.5 455.5,-56.5"/>
<text text-anchor="middle" x="504.5" y="-63.5" font-family="Helvetica,sans-Serif" font-size="10.00">BME680Sensor.h</text>
</a>
</g>
</g>
<!-- Node1&#45;&gt;Node9 -->
<g id="edge10" class="edge">
<title>Node1&#45;&gt;Node9</title>
<path fill="none" stroke="midnightblue" d="M842.25,-115.64C782.04,-107.38 663.23,-90.92 562.5,-76 559.58,-75.57 556.57,-75.12 553.54,-74.66"/>
<polygon fill="midnightblue" stroke="midnightblue" points="842.07,-119.15 852.45,-117.04 843.02,-112.21 842.07,-119.15"/>
</g>
<!-- Node11 -->
<g id="node11" class="node">
<title>Node11</title>
<g id="a_node11"><a xlink:href="DS3231Sensor_8h.html" target="_top" xlink:title=" ">
<polygon fill="none" stroke="black" points="572,-56.5 572,-75.5 667,-75.5 667,-56.5 572,-56.5"/>
<text text-anchor="middle" x="619.5" y="-63.5" font-family="Helvetica,sans-Serif" font-size="10.00">DS3231Sensor.h</text>
</a>
</g>
</g>
<!-- Node1&#45;&gt;Node11 -->
<g id="edge13" class="edge">
<title>Node1&#45;&gt;Node11</title>
<path fill="none" stroke="midnightblue" d="M842.63,-112.99C794,-102.97 711.06,-85.87 661.16,-75.59"/>
<polygon fill="midnightblue" stroke="midnightblue" points="841.96,-116.42 852.46,-115.01 843.37,-109.57 841.96,-116.42"/>
</g>
<!-- Node13 -->
<g id="node13" class="node">
<title>Node13</title>
<g id="a_node13"><a xlink:href="ENS160Sensor_8h.html" target="_top" xlink:title=" ">
<polygon fill="none" stroke="black" points="685,-56.5 685,-75.5 780,-75.5 780,-56.5 685,-56.5"/>
<text text-anchor="middle" x="732.5" y="-63.5" font-family="Helvetica,sans-Serif" font-size="10.00">ENS160Sensor.h</text>
</a>
</g>
</g>
<!-- Node1&#45;&gt;Node13 -->
<g id="edge16" class="edge">
<title>Node1&#45;&gt;Node13</title>
<path fill="none" stroke="midnightblue" d="M848.13,-108.91C820.12,-98.75 780.8,-84.51 756,-75.52"/>
<polygon fill="midnightblue" stroke="midnightblue" points="847.3,-112.33 857.89,-112.44 849.68,-105.75 847.3,-112.33"/>
</g>
<!-- Node15 -->
<g id="node15" class="node">
<title>Node15</title>
<g id="a_node15"><a xlink:href="GeigerSensor_8h.html" target="_top" xlink:title=" ">
<polygon fill="none" stroke="black" points="836.5,-56.5 836.5,-75.5 926.5,-75.5 926.5,-56.5 836.5,-56.5"/>
<text text-anchor="middle" x="881.5" y="-63.5" font-family="Helvetica,sans-Serif" font-size="10.00">GeigerSensor.h</text>
</a>
</g>
</g>
<!-- Node1&#45;&gt;Node15 -->
<g id="edge19" class="edge">
<title>Node1&#45;&gt;Node15</title>
<path fill="none" stroke="midnightblue" d="M881.5,-101.8C881.5,-92.91 881.5,-82.78 881.5,-75.75"/>
<polygon fill="midnightblue" stroke="midnightblue" points="878,-102.08 881.5,-112.08 885,-102.08 878,-102.08"/>
</g>
<!-- Node17 -->
<g id="node17" class="node">
<title>Node17</title>
<g id="a_node17"><a xlink:href="INA260Sensor_8h.html" target="_top" xlink:title=" ">
<polygon fill="none" stroke="black" points="945,-56.5 945,-75.5 1038,-75.5 1038,-56.5 945,-56.5"/>
<text text-anchor="middle" x="991.5" y="-63.5" font-family="Helvetica,sans-Serif" font-size="10.00">INA260Sensor.h</text>
</a>
</g>
</g>
<!-- Node1&#45;&gt;Node17 -->
<g id="edge22" class="edge">
<title>Node1&#45;&gt;Node17</title>
<path fill="none" stroke="midnightblue" d="M908.26,-107.86C928.66,-97.85 956.17,-84.35 973.87,-75.65"/>
<polygon fill="midnightblue" stroke="midnightblue" points="906.61,-104.78 899.17,-112.32 909.69,-111.06 906.61,-104.78"/>
</g>
<!-- Node19 -->
<g id="node19" class="node">
<title>Node19</title>
<g id="a_node19"><a xlink:href="LSM9DS1Sensor_8h.html" target="_top" xlink:title=" ">
<polygon fill="none" stroke="black" points="1056.5,-56.5 1056.5,-75.5 1160.5,-75.5 1160.5,-56.5 1056.5,-56.5"/>
<text text-anchor="middle" x="1108.5" y="-63.5" font-family="Helvetica,sans-Serif" font-size="10.00">LSM9DS1Sensor.h</text>
</a>
</g>
</g>
<!-- Node1&#45;&gt;Node19 -->
<g id="edge25" class="edge">
<title>Node1&#45;&gt;Node19</title>
<path fill="none" stroke="midnightblue" d="M920.48,-111.73C963.22,-101.56 1031.23,-85.38 1072.67,-75.52"/>
<polygon fill="midnightblue" stroke="midnightblue" points="919.63,-108.33 910.71,-114.05 921.25,-115.14 919.63,-108.33"/>
</g>
<!-- Node21 -->
<g id="node21" class="node">
<title>Node21</title>
<g id="a_node21"><a xlink:href="MTK3339Sensor_8h.html" target="_top" xlink:title=" ">
<polygon fill="none" stroke="black" points="1528.5,-56.5 1528.5,-75.5 1632.5,-75.5 1632.5,-56.5 1528.5,-56.5"/>
<text text-anchor="middle" x="1580.5" y="-63.5" font-family="Helvetica,sans-Serif" font-size="10.00">MTK3339Sensor.h</text>
</a>
</g>
</g>
<!-- Node1&#45;&gt;Node21 -->
<g id="edge28" class="edge">
<title>Node1&#45;&gt;Node21</title>
<path fill="none" stroke="midnightblue" d="M920.9,-118.34C1017.3,-111.77 1272.66,-94.01 1485.5,-76 1499.37,-74.83 1514.36,-73.45 1528.25,-72.14"/>
<polygon fill="midnightblue" stroke="midnightblue" points="920.48,-114.86 910.74,-119.03 920.96,-121.84 920.48,-114.86"/>
</g>
<!-- Node23 -->
<g id="node23" class="node">
<title>Node23</title>
<g id="a_node23"><a xlink:href="SGP30Sensor_8h.html" target="_top" xlink:title=" ">
<polygon fill="none" stroke="black" points="1179,-56.5 1179,-75.5 1268,-75.5 1268,-56.5 1179,-56.5"/>
<text text-anchor="middle" x="1223.5" y="-63.5" font-family="Helvetica,sans-Serif" font-size="10.00">SGP30Sensor.h</text>
</a>
</g>
</g>
<!-- Node1&#45;&gt;Node23 -->
<g id="edge30" class="edge">
<title>Node1&#45;&gt;Node23</title>
<path fill="none" stroke="midnightblue" d="M920.63,-115.02C976.04,-106.51 1080.56,-90.36 1169.5,-76 1172.5,-75.52 1175.6,-75.01 1178.72,-74.5"/>
<polygon fill="midnightblue" stroke="midnightblue" points="919.89,-111.59 910.54,-116.56 920.95,-118.51 919.89,-111.59"/>
</g>
<!-- Node25 -->
<g id="node25" class="node">
<title>Node25</title>
<g id="a_node25"><a xlink:href="SHT31Sensor_8h.html" target="_top" xlink:title=" ">
<polygon fill="none" stroke="black" points="1286,-56.5 1286,-75.5 1375,-75.5 1375,-56.5 1286,-56.5"/>
<text text-anchor="middle" x="1330.5" y="-63.5" font-family="Helvetica,sans-Serif" font-size="10.00">SHT31Sensor.h</text>
</a>
</g>
</g>
<!-- Node1&#45;&gt;Node25 -->
<g id="edge33" class="edge">
<title>Node1&#45;&gt;Node25</title>
<path fill="none" stroke="midnightblue" d="M921.1,-117.17C992.35,-110.14 1146.8,-94.18 1276.5,-76 1279.51,-75.58 1282.61,-75.12 1285.74,-74.64"/>
<polygon fill="midnightblue" stroke="midnightblue" points="920.41,-113.72 910.8,-118.19 921.1,-120.69 920.41,-113.72"/>
</g>
<!-- Node27 -->
<g id="node27" class="node">
<title>Node27</title>
<g id="a_node27"><a xlink:href="TempSensor_8h.html" target="_top" xlink:title=" ">
<polygon fill="none" stroke="black" points="1392.5,-56.5 1392.5,-75.5 1476.5,-75.5 1476.5,-56.5 1392.5,-56.5"/>
<text text-anchor="middle" x="1434.5" y="-63.5" font-family="Helvetica,sans-Serif" font-size="10.00">TempSensor.h</text>
</a>
</g>
</g>
<!-- Node1&#45;&gt;Node27 -->
<g id="edge36" class="edge">
<title>Node1&#45;&gt;Node27</title>
<path fill="none" stroke="midnightblue" d="M920.95,-118.61C1005.81,-113.22 1211.94,-98.79 1383.5,-76 1386.35,-75.62 1389.29,-75.2 1392.24,-74.74"/>
<polygon fill="midnightblue" stroke="midnightblue" points="920.5,-115.13 910.74,-119.25 920.94,-122.12 920.5,-115.13"/>
</g>
<!-- Node29 -->
<g id="node29" class="node">
<title>Node29</title>
<g id="a_node29"><a xlink:href="ZOPT220Sensor_8h.html" target="_top" xlink:title=" ">
<polygon fill="none" stroke="black" points="1672.5,-56.5 1672.5,-75.5 1774.5,-75.5 1774.5,-56.5 1672.5,-56.5"/>
<text text-anchor="middle" x="1723.5" y="-63.5" font-family="Helvetica,sans-Serif" font-size="10.00">ZOPT220Sensor.h</text>
</a>
</g>
</g>
<!-- Node1&#45;&gt;Node29 -->
<g id="edge39" class="edge">
<title>Node1&#45;&gt;Node29</title>
<path fill="none" stroke="midnightblue" d="M920.71,-119.37C1033.08,-114.56 1365.9,-99.27 1641.5,-76 1651.49,-75.16 1662.15,-74.1 1672.36,-73.01"/>
<polygon fill="midnightblue" stroke="midnightblue" points="920.37,-115.88 910.53,-119.81 920.67,-122.88 920.37,-115.88"/>
</g>
<!-- Node3 -->
<g id="node3" class="node">
<title>Node3</title>
<g id="a_node3"><a xlink:href="AnalogSensor_8cpp.html" target="_top" xlink:title=" ">
<polygon fill="none" stroke="black" points="0,-0.5 0,-19.5 103,-19.5 103,-0.5 0,-0.5"/>
<text text-anchor="middle" x="51.5" y="-7.5" font-family="Helvetica,sans-Serif" font-size="10.00">AnalogSensor.cpp</text>
</a>
</g>
</g>
<!-- Node2&#45;&gt;Node3 -->
<g id="edge2" class="edge">
<title>Node2&#45;&gt;Node3</title>
<path fill="none" stroke="midnightblue" d="M134.74,-51.86C114.34,-41.85 86.83,-28.35 69.13,-19.65"/>
<polygon fill="midnightblue" stroke="midnightblue" points="133.31,-55.06 143.83,-56.32 136.39,-48.78 133.31,-55.06"/>
</g>
<!-- Node2&#45;&gt;Node4 -->
<g id="edge3" class="edge">
<title>Node2&#45;&gt;Node4</title>
<path fill="none" stroke="midnightblue" d="M217.79,-55.96C450.15,-29.79 512.7,-52.65 740.5,-20 743.67,-19.55 746.97,-18.98 750.25,-18.36"/>
<polygon fill="midnightblue" stroke="midnightblue" points="217.21,-52.51 207.67,-57.12 218,-59.46 217.21,-52.51"/>
</g>
<!-- Node5&#45;&gt;Node4 -->
<g id="edge6" class="edge">
<title>Node5&#45;&gt;Node4</title>
<path fill="none" stroke="midnightblue" d="M330.99,-56.03C513.78,-34.2 562.86,-47.18 740.5,-20 743.67,-19.52 746.96,-18.93 750.24,-18.3"/>
<polygon fill="midnightblue" stroke="midnightblue" points="330.56,-52.56 321.05,-57.24 331.4,-59.51 330.56,-52.56"/>
</g>
<!-- Node6 -->
<g id="node6" class="node">
<title>Node6</title>
<g id="a_node6"><a xlink:href="AS7331Sensor_8cpp.html" target="_top" xlink:title=" ">
<polygon fill="none" stroke="black" points="121.5,-0.5 121.5,-19.5 227.5,-19.5 227.5,-0.5 121.5,-0.5"/>
<text text-anchor="middle" x="174.5" y="-7.5" font-family="Helvetica,sans-Serif" font-size="10.00">AS7331Sensor.cpp</text>
</a>
</g>
</g>
<!-- Node5&#45;&gt;Node6 -->
<g id="edge5" class="edge">
<title>Node5&#45;&gt;Node6</title>
<path fill="none" stroke="midnightblue" d="M248.66,-51.45C230.39,-41.48 206.08,-28.23 190.37,-19.65"/>
<polygon fill="midnightblue" stroke="midnightblue" points="247.14,-54.61 257.59,-56.32 250.49,-48.46 247.14,-54.61"/>
</g>
<!-- Node7&#45;&gt;Node4 -->
<g id="edge9" class="edge">
<title>Node7&#45;&gt;Node4</title>
<path fill="none" stroke="midnightblue" d="M447.55,-55.9C578.6,-38.1 613.9,-41.6 740.5,-20 743.66,-19.46 746.95,-18.84 750.22,-18.18"/>
<polygon fill="midnightblue" stroke="midnightblue" points="446.96,-52.45 437.53,-57.28 447.91,-59.38 446.96,-52.45"/>
</g>
<!-- Node8 -->
<g id="node8" class="node">
<title>Node8</title>
<g id="a_node8"><a xlink:href="BME280Sensor_8cpp.html" target="_top" xlink:title=" ">
<polygon fill="none" stroke="black" points="246,-0.5 246,-19.5 355,-19.5 355,-0.5 246,-0.5"/>
<text text-anchor="middle" x="300.5" y="-7.5" font-family="Helvetica,sans-Serif" font-size="10.00">BME280Sensor.cpp</text>
</a>
</g>
</g>
<!-- Node7&#45;&gt;Node8 -->
<g id="edge8" class="edge">
<title>Node7&#45;&gt;Node8</title>
<path fill="none" stroke="midnightblue" d="M365.52,-50.9C349.39,-41 328.32,-28.07 314.6,-19.65"/>
<polygon fill="midnightblue" stroke="midnightblue" points="364.01,-54.08 374.36,-56.32 367.67,-48.11 364.01,-54.08"/>
</g>
<!-- Node9&#45;&gt;Node4 -->
<g id="edge12" class="edge">
<title>Node9&#45;&gt;Node4</title>
<path fill="none" stroke="midnightblue" d="M561,-54.68C608.87,-45.83 679.27,-32.55 740.5,-20 743.64,-19.36 746.91,-18.67 750.18,-17.97"/>
<polygon fill="midnightblue" stroke="midnightblue" points="560.34,-51.24 551.14,-56.5 561.61,-58.13 560.34,-51.24"/>
</g>
<!-- Node10 -->
<g id="node10" class="node">
<title>Node10</title>
<g id="a_node10"><a xlink:href="BME680Sensor_8cpp.html" target="_top" xlink:title=" ">
<polygon fill="none" stroke="black" points="373,-0.5 373,-19.5 482,-19.5 482,-0.5 373,-0.5"/>
<text text-anchor="middle" x="427.5" y="-7.5" font-family="Helvetica,sans-Serif" font-size="10.00">BME680Sensor.cpp</text>
</a>
</g>
</g>
<!-- Node9&#45;&gt;Node10 -->
<g id="edge11" class="edge">
<title>Node9&#45;&gt;Node10</title>
<path fill="none" stroke="midnightblue" d="M483.6,-50.34C469.59,-40.52 451.62,-27.91 439.84,-19.65"/>
<polygon fill="midnightblue" stroke="midnightblue" points="481.93,-53.45 492.13,-56.32 485.95,-47.72 481.93,-53.45"/>
</g>
<!-- Node11&#45;&gt;Node4 -->
<g id="edge15" class="edge">
<title>Node11&#45;&gt;Node4</title>
<path fill="none" stroke="midnightblue" d="M654.98,-53.17C685.49,-43 728.74,-28.59 755.95,-19.52"/>
<polygon fill="midnightblue" stroke="midnightblue" points="653.55,-49.96 645.17,-56.44 655.76,-56.6 653.55,-49.96"/>
</g>
<!-- Node12 -->
<g id="node12" class="node">
<title>Node12</title>
<g id="a_node12"><a xlink:href="DS3231Sensor_8cpp.html" target="_top" xlink:title=" ">
<polygon fill="none" stroke="black" points="500,-0.5 500,-19.5 607,-19.5 607,-0.5 500,-0.5"/>
<text text-anchor="middle" x="553.5" y="-7.5" font-family="Helvetica,sans-Serif" font-size="10.00">DS3231Sensor.cpp</text>
</a>
</g>
</g>
<!-- Node11&#45;&gt;Node12 -->
<g id="edge14" class="edge">
<title>Node11&#45;&gt;Node12</title>
<path fill="none" stroke="midnightblue" d="M600.95,-49.82C589.12,-40.15 574.21,-27.95 564.3,-19.83"/>
<polygon fill="midnightblue" stroke="midnightblue" points="598.94,-52.7 608.9,-56.32 603.37,-47.28 598.94,-52.7"/>
</g>
<!-- Node13&#45;&gt;Node4 -->
<g id="edge18" class="edge">
<title>Node13&#45;&gt;Node4</title>
<path fill="none" stroke="midnightblue" d="M747.53,-48.43C756.12,-38.97 766.54,-27.48 773.56,-19.75"/>
<polygon fill="midnightblue" stroke="midnightblue" points="744.72,-46.33 740.59,-56.08 749.9,-51.03 744.72,-46.33"/>
</g>
<!-- Node14 -->
<g id="node14" class="node">
<title>Node14</title>
<g id="a_node14"><a xlink:href="ENS160Sensor_8cpp.html" target="_top" xlink:title=" ">
<polygon fill="none" stroke="black" points="625,-0.5 625,-19.5 732,-19.5 732,-0.5 625,-0.5"/>
<text text-anchor="middle" x="678.5" y="-7.5" font-family="Helvetica,sans-Serif" font-size="10.00">ENS160Sensor.cpp</text>
</a>
</g>
</g>
<!-- Node13&#45;&gt;Node14 -->
<g id="edge17" class="edge">
<title>Node13&#45;&gt;Node14</title>
<path fill="none" stroke="midnightblue" d="M716.5,-49C706.93,-39.43 695.14,-27.64 687.25,-19.75"/>
<polygon fill="midnightblue" stroke="midnightblue" points="714.04,-51.49 723.58,-56.08 718.99,-46.54 714.04,-51.49"/>
</g>
<!-- Node15&#45;&gt;Node4 -->
<g id="edge21" class="edge">
<title>Node15&#45;&gt;Node4</title>
<path fill="none" stroke="midnightblue" d="M856.41,-51.45C837.95,-41.48 813.4,-28.23 797.53,-19.65"/>
<polygon fill="midnightblue" stroke="midnightblue" points="854.97,-54.65 865.43,-56.32 858.3,-48.49 854.97,-54.65"/>
</g>
<!-- Node16 -->
<g id="node16" class="node">
<title>Node16</title>
<g id="a_node16"><a xlink:href="GeigerSensor_8cpp.html" target="_top" xlink:title=" ">
<polygon fill="none" stroke="black" points="831,-0.5 831,-19.5 932,-19.5 932,-0.5 831,-0.5"/>
<text text-anchor="middle" x="881.5" y="-7.5" font-family="Helvetica,sans-Serif" font-size="10.00">GeigerSensor.cpp</text>
</a>
</g>
</g>
<!-- Node15&#45;&gt;Node16 -->
<g id="edge20" class="edge">
<title>Node15&#45;&gt;Node16</title>
<path fill="none" stroke="midnightblue" d="M881.5,-45.8C881.5,-36.91 881.5,-26.78 881.5,-19.75"/>
<polygon fill="midnightblue" stroke="midnightblue" points="878,-46.08 881.5,-56.08 885,-46.08 878,-46.08"/>
</g>
<!-- Node17&#45;&gt;Node4 -->
<g id="edge24" class="edge">
<title>Node17&#45;&gt;Node4</title>
<path fill="none" stroke="midnightblue" d="M948.38,-53.91C907.97,-43.52 848.52,-28.23 812.57,-18.99"/>
<polygon fill="midnightblue" stroke="midnightblue" points="947.67,-57.34 958.22,-56.44 949.41,-50.56 947.67,-57.34"/>
</g>
<!-- Node18 -->
<g id="node18" class="node">
<title>Node18</title>
<g id="a_node18"><a xlink:href="INA260Sensor_8cpp.html" target="_top" xlink:title=" ">
<polygon fill="none" stroke="black" points="950.5,-0.5 950.5,-19.5 1054.5,-19.5 1054.5,-0.5 950.5,-0.5"/>
<text text-anchor="middle" x="1002.5" y="-7.5" font-family="Helvetica,sans-Serif" font-size="10.00">INA260Sensor.cpp</text>
</a>
</g>
</g>
<!-- Node17&#45;&gt;Node18 -->
<g id="edge23" class="edge">
<title>Node17&#45;&gt;Node18</title>
<path fill="none" stroke="midnightblue" d="M995.35,-46.1C997.18,-37.14 999.27,-26.86 1000.72,-19.75"/>
<polygon fill="midnightblue" stroke="midnightblue" points="991.88,-45.59 993.32,-56.08 998.74,-46.98 991.88,-45.59"/>
</g>
<!-- Node19&#45;&gt;Node4 -->
<g id="edge27" class="edge">
<title>Node19&#45;&gt;Node4</title>
<path fill="none" stroke="midnightblue" d="M1046.32,-55.74C975.27,-45.07 863.41,-27.99 821.5,-20 818.7,-19.47 815.8,-18.88 812.9,-18.27"/>
<polygon fill="midnightblue" stroke="midnightblue" points="1046.09,-59.24 1056.49,-57.27 1047.12,-52.32 1046.09,-59.24"/>
</g>
<!-- Node20 -->
<g id="node20" class="node">
<title>Node20</title>
<g id="a_node20"><a xlink:href="LSM9DS1Sensor_8cpp.html" target="_top" xlink:title=" ">
<polygon fill="none" stroke="black" points="1073,-0.5 1073,-19.5 1188,-19.5 1188,-0.5 1073,-0.5"/>
<text text-anchor="middle" x="1130.5" y="-7.5" font-family="Helvetica,sans-Serif" font-size="10.00">LSM9DS1Sensor.cpp</text>
</a>
</g>
</g>
<!-- Node19&#45;&gt;Node20 -->
<g id="edge26" class="edge">
<title>Node19&#45;&gt;Node20</title>
<path fill="none" stroke="midnightblue" d="M1115.96,-46.69C1119.67,-37.59 1123.98,-27.01 1126.93,-19.75"/>
<polygon fill="midnightblue" stroke="midnightblue" points="1112.66,-45.5 1112.13,-56.08 1119.15,-48.14 1112.66,-45.5"/>
</g>
<!-- Node22 -->
<g id="node22" class="node">
<title>Node22</title>
<g id="a_node22"><a xlink:href="MTK3339Sensor_8cpp.html" target="_top" xlink:title=" ">
<polygon fill="none" stroke="black" points="1557,-0.5 1557,-19.5 1672,-19.5 1672,-0.5 1557,-0.5"/>
<text text-anchor="middle" x="1614.5" y="-7.5" font-family="Helvetica,sans-Serif" font-size="10.00">MTK3339Sensor.cpp</text>
</a>
</g>
</g>
<!-- Node21&#45;&gt;Node22 -->
<g id="edge29" class="edge">
<title>Node21&#45;&gt;Node22</title>
<path fill="none" stroke="midnightblue" d="M1591.48,-47.57C1597.33,-38.27 1604.27,-27.25 1608.99,-19.75"/>
<polygon fill="midnightblue" stroke="midnightblue" points="1588.48,-45.76 1586.11,-56.08 1594.4,-49.49 1588.48,-45.76"/>
</g>
<!-- Node23&#45;&gt;Node4 -->
<g id="edge31" class="edge">
<title>Node23&#45;&gt;Node4</title>
<path fill="none" stroke="midnightblue" d="M1168.38,-55.94C1013.61,-35.62 971.65,-44.57 821.5,-20 818.69,-19.54 815.78,-19 812.87,-18.43"/>
<polygon fill="midnightblue" stroke="midnightblue" points="1168.37,-59.47 1178.74,-57.32 1169.29,-52.53 1168.37,-59.47"/>
</g>
<!-- Node24 -->
<g id="node24" class="node">
<title>Node24</title>
<g id="a_node24"><a xlink:href="SGP30Sensor_8cpp.html" target="_top" xlink:title=" ">
<polygon fill="none" stroke="black" points="1206,-0.5 1206,-19.5 1307,-19.5 1307,-0.5 1206,-0.5"/>
<text text-anchor="middle" x="1256.5" y="-7.5" font-family="Helvetica,sans-Serif" font-size="10.00">SGP30Sensor.cpp</text>
</a>
</g>
</g>
<!-- Node23&#45;&gt;Node24 -->
<g id="edge32" class="edge">
<title>Node23&#45;&gt;Node24</title>
<path fill="none" stroke="midnightblue" d="M1234.33,-47.27C1239.97,-38.05 1246.62,-27.17 1251.15,-19.75"/>
<polygon fill="midnightblue" stroke="midnightblue" points="1231.18,-45.73 1228.95,-56.08 1237.15,-49.38 1231.18,-45.73"/>
</g>
<!-- Node25&#45;&gt;Node4 -->
<g id="edge34" class="edge">
<title>Node25&#45;&gt;Node4</title>
<path fill="none" stroke="midnightblue" d="M1275.7,-56.02C1073.41,-31.9 1018.84,-49.85 821.5,-20 818.68,-19.57 815.77,-19.06 812.86,-18.5"/>
<polygon fill="midnightblue" stroke="midnightblue" points="1275.41,-59.51 1285.75,-57.24 1276.25,-52.56 1275.41,-59.51"/>
</g>
<!-- Node26 -->
<g id="node26" class="node">
<title>Node26</title>
<g id="a_node26"><a xlink:href="SHT31Sensor_8cpp.html" target="_top" xlink:title=" ">
<polygon fill="none" stroke="black" points="1325,-0.5 1325,-19.5 1426,-19.5 1426,-0.5 1325,-0.5"/>
<text text-anchor="middle" x="1375.5" y="-7.5" font-family="Helvetica,sans-Serif" font-size="10.00">SHT31Sensor.cpp</text>
</a>
</g>
</g>
<!-- Node25&#45;&gt;Node26 -->
<g id="edge35" class="edge">
<title>Node25&#45;&gt;Node26</title>
<path fill="none" stroke="midnightblue" d="M1344.55,-48.14C1352.39,-38.74 1361.83,-27.4 1368.21,-19.75"/>
<polygon fill="midnightblue" stroke="midnightblue" points="1341.64,-46.16 1337.93,-56.08 1347.02,-50.64 1341.64,-46.16"/>
</g>
<!-- Node27&#45;&gt;Node4 -->
<g id="edge37" class="edge">
<title>Node27&#45;&gt;Node4</title>
<path fill="none" stroke="midnightblue" d="M1382.18,-55.98C1133.22,-26.97 1065.98,-55.11 821.5,-20 818.68,-19.6 815.77,-19.1 812.86,-18.55"/>
<polygon fill="midnightblue" stroke="midnightblue" points="1381.91,-59.47 1392.25,-57.17 1382.73,-52.52 1381.91,-59.47"/>
</g>
<!-- Node28 -->
<g id="node28" class="node">
<title>Node28</title>
<g id="a_node28"><a xlink:href="TempSensor_8cpp.html" target="_top" xlink:title=" ">
<polygon fill="none" stroke="black" points="1444,-0.5 1444,-19.5 1539,-19.5 1539,-0.5 1444,-0.5"/>
<text text-anchor="middle" x="1491.5" y="-7.5" font-family="Helvetica,sans-Serif" font-size="10.00">TempSensor.cpp</text>
</a>
</g>
</g>
<!-- Node27&#45;&gt;Node28 -->
<g id="edge38" class="edge">
<title>Node27&#45;&gt;Node28</title>
<path fill="none" stroke="midnightblue" d="M1451.12,-49.25C1461.23,-39.67 1473.78,-27.79 1482.18,-19.83"/>
<polygon fill="midnightblue" stroke="midnightblue" points="1448.51,-46.91 1443.66,-56.32 1453.32,-51.99 1448.51,-46.91"/>
</g>
<!-- Node30 -->
<g id="node30" class="node">
<title>Node30</title>
<g id="a_node30"><a xlink:href="ZOPT220Sensor_8cpp.html" target="_top" xlink:title=" ">
<polygon fill="none" stroke="black" points="1690,-0.5 1690,-19.5 1803,-19.5 1803,-0.5 1690,-0.5"/>
<text text-anchor="middle" x="1746.5" y="-7.5" font-family="Helvetica,sans-Serif" font-size="10.00">ZOPT220Sensor.cpp</text>
</a>
</g>
</g>
<!-- Node29&#45;&gt;Node30 -->
<g id="edge40" class="edge">
<title>Node29&#45;&gt;Node30</title>
<path fill="none" stroke="midnightblue" d="M1731.3,-46.69C1735.18,-37.59 1739.68,-27.01 1742.77,-19.75"/>
<polygon fill="midnightblue" stroke="midnightblue" points="1728,-45.51 1727.3,-56.08 1734.44,-48.25 1728,-45.51"/>
</g>
</g>
</svg>
        <g id="navigator" transform="translate(0 0)" fill="#404254">
                <rect fill="#f2f5e9" fill-opacity="0.5" stroke="#606060" stroke-width=".5" x="0" y="0" width="60" height="60"/>
                <use id="zoomplus" xlink:href="#zoomPlus" x="17" y="9" onmousedown="handleZoom(evt,'in')"/>
                <use id="zoomminus" xlink:href="#zoomMin" x="42" y="9" onmousedown="handleZoom(evt,'out')"/>
                <use id="reset" xlink:href="#resetDef" x="30" y="36" onmousedown="handleReset()"/>
                <g id="arrowUp" xlink:href="#dirArrow" transform="translate(30 24)" onmousedown="handlePan(0,-1)">
                  <use xlink:href="#rim" fill="#404040">
                        <set attributeName="fill" to="#808080" begin="arrowUp.mouseover" end="arrowUp.mouseout"/>
                  </use>
                  <path fill="none" stroke="white" stroke-width="1.5" d="M0,-3.0v7 M-2.5,-0.5L0,-3.0L2.5,-0.5"/>
                </g>
                <g id="arrowRight" xlink:href="#dirArrow" transform="rotate(90) translate(36 -43)" onmousedown="handlePan(1,0)">
                  <use xlink:href="#rim" fill="#404040">
                        <set attributeName="fill" to="#808080" begin="arrowRight.mouseover" end="arrowRight.mouseout"/>
                  </use>
                  <path fill="none" stroke="white" stroke-width="1.5" d="M0,-3.0v7 M-2.5,-0.5L0,-3.0L2.5,-0.5"/>
                </g>
                <g id="arrowDown" xlink:href="#dirArrow" transform="rotate(180) translate(-30 -48)" onmousedown="handlePan(0,1)">
                  <use xlink:href="#rim" fill="#404040">
                        <set attributeName="fill" to="#808080" begin="arrowDown.mouseover" end="arrowDown.mouseout"/>
                  </use>
                  <path fill="none" stroke="white" stroke-width="1.5" d="M0,-3.0v7 M-2.5,-0.5L0,-3.0L2.5,-0.5"/>
                </g>
                <g id="arrowLeft" xlink:href="#dirArrow" transform="rotate(270) translate(-36 17)" onmousedown="handlePan(-1,0)">
                  <use xlink:href="#rim" fill="#404040">
                        <set attributeName="fill" to="#808080" begin="arrowLeft.mouseover" end="arrowLeft.mouseout"/>
                  </use>
                  <path fill="none" stroke="white" stroke-width="1.5" d="M0,-3.0v7 M-2.5,-0.5L0,-3.0L2.5,-0.5"/>
                </g>
        </g>
        <svg viewBox="0 0 15 15" width="100%" height="30px" preserveAspectRatio="xMaxYMin meet">
         <g id="arrow_out" transform="scale(0.3 0.3)">
          <a xlink:href="Sensor_8h__dep__incl_org.svg" target="_base">
           <rect id="button" ry="5" rx="5" y="6" x="6" height="38" width="38"
                fill="#f2f5e9" fill-opacity="0.5" stroke="#606060" stroke-width="1.0"/>
           <path id="arrow"
             d="M 11.500037,31.436501 C 11.940474,20.09759 22.043105,11.32322 32.158766,21.979434 L 37.068811,17.246167 C 37.068811,17.246167 37.088388,32 37.088388,32 L 22.160133,31.978069 C 22.160133,31.978069 26.997745,27.140456 26.997745,27.140456 C 18.528582,18.264221 13.291696,25.230495 11.500037,31.436501 z"
             style="fill:#404040;"/>
          </a>
         </g>
        </svg>
</svg>
