<?xml version="1.0" encoding="UTF-8" standalone="no"?>
<!DOCTYPE svg PUBLIC "-//W3C//DTD SVG 1.1//EN"
 "http://www.w3.org/Graphics/SVG/1.1/DTD/svg11.dtd">
<!-- Generated by graphviz version 2.43.0 (0)
 -->
<!-- Title: Sensor.h Pages: 1 -->
<svg width="1560pt" height="140pt"
 viewBox="0.00 0.00 1560.00 140.00" xmlns="http://www.w3.org/2000/svg" xmlns:xlink="http://www.w3.org/1999/xlink">
<g id="graph0" class="graph" transform="scale(1 1) rotate(0) translate(4 136)">
<title>Sensor.h</title>
<!-- Node1 -->
<g id="node1" class="node">
<title>Node1</title>
<g id="a_node1"><a xlink:title=" ">
<polygon fill="#bfbfbf" stroke="black" points="709.5,-112.5 709.5,-131.5 767.5,-131.5 767.5,-112.5 709.5,-112.5"/>
<text text-anchor="middle" x="738.5" y="-119.5" font-family="Helvetica,sans-Serif" font-size="10.00">Sensor.h</text>
</a>
</g>
</g>
<!-- Node2 -->
<g id="node2" class="node">
<title>Node2</title>
<g id="a_node2"><a xlink:href="AnalogSensor_8h.html" target="_top" xlink:title=" ">
<polygon fill="none" stroke="black" points="89.5,-56.5 89.5,-75.5 181.5,-75.5 181.5,-56.5 89.5,-56.5"/>
<text text-anchor="middle" x="135.5" y="-63.5" font-family="Helvetica,sans-Serif" font-size="10.00">AnalogSensor.h</text>
</a>
</g>
</g>
<!-- Node1&#45;&gt;Node2 -->
<g id="edge1" class="edge">
<title>Node1&#45;&gt;Node2</title>
<path fill="none" stroke="midnightblue" d="M699.26,-118.86C609.15,-113.72 380.53,-99.31 190.5,-76 187.62,-75.65 184.66,-75.25 181.67,-74.83"/>
<polygon fill="midnightblue" stroke="midnightblue" points="699.12,-122.36 709.31,-119.43 699.52,-115.37 699.12,-122.36"/>
</g>
<!-- Node4 -->
<g id="node4" class="node">
<title>Node4</title>
<g id="a_node4"><a xlink:href="main_8cpp.html" target="_top" xlink:title=" ">
<polygon fill="none" stroke="black" points="619.5,-0.5 619.5,-19.5 681.5,-19.5 681.5,-0.5 619.5,-0.5"/>
<text text-anchor="middle" x="650.5" y="-7.5" font-family="Helvetica,sans-Serif" font-size="10.00">main.cpp</text>
</a>
</g>
</g>
<!-- Node1&#45;&gt;Node4 -->
<g id="edge36" class="edge">
<title>Node1&#45;&gt;Node4</title>
<path fill="none" stroke="midnightblue" d="M716.22,-106.58C705.08,-98.56 691.98,-87.83 682.5,-76 668.18,-58.14 658.05,-32.82 653.39,-19.68"/>
<polygon fill="midnightblue" stroke="midnightblue" points="714.42,-109.59 724.64,-112.4 718.4,-103.83 714.42,-109.59"/>
</g>
<!-- Node5 -->
<g id="node5" class="node">
<title>Node5</title>
<g id="a_node5"><a xlink:href="BME280Sensor_8h.html" target="_top" xlink:title=" ">
<polygon fill="none" stroke="black" points="199.5,-56.5 199.5,-75.5 297.5,-75.5 297.5,-56.5 199.5,-56.5"/>
<text text-anchor="middle" x="248.5" y="-63.5" font-family="Helvetica,sans-Serif" font-size="10.00">BME280Sensor.h</text>
</a>
</g>
</g>
<!-- Node1&#45;&gt;Node5 -->
<g id="edge4" class="edge">
<title>Node1&#45;&gt;Node5</title>
<path fill="none" stroke="midnightblue" d="M699.3,-117.58C623.37,-110.81 450.95,-94.72 306.5,-76 303.57,-75.62 300.56,-75.21 297.52,-74.78"/>
<polygon fill="midnightblue" stroke="midnightblue" points="699.1,-121.08 709.37,-118.47 699.72,-114.1 699.1,-121.08"/>
</g>
<!-- Node7 -->
<g id="node7" class="node">
<title>Node7</title>
<g id="a_node7"><a xlink:href="BME680Sensor_8h.html" target="_top" xlink:title=" ">
<polygon fill="none" stroke="black" points="315.5,-56.5 315.5,-75.5 413.5,-75.5 413.5,-56.5 315.5,-56.5"/>
<text text-anchor="middle" x="364.5" y="-63.5" font-family="Helvetica,sans-Serif" font-size="10.00">BME680Sensor.h</text>
</a>
</g>
</g>
<!-- Node1&#45;&gt;Node7 -->
<g id="edge7" class="edge">
<title>Node1&#45;&gt;Node7</title>
<path fill="none" stroke="midnightblue" d="M699.16,-115.56C639.37,-107.25 522.04,-90.81 422.5,-76 419.58,-75.57 416.57,-75.11 413.54,-74.65"/>
<polygon fill="midnightblue" stroke="midnightblue" points="698.91,-119.06 709.29,-116.96 699.87,-112.12 698.91,-119.06"/>
</g>
<!-- Node9 -->
<g id="node9" class="node">
<title>Node9</title>
<g id="a_node9"><a xlink:href="ENS160Sensor_8h.html" target="_top" xlink:title=" ">
<polygon fill="none" stroke="black" points="432,-56.5 432,-75.5 527,-75.5 527,-56.5 432,-56.5"/>
<text text-anchor="middle" x="479.5" y="-63.5" font-family="Helvetica,sans-Serif" font-size="10.00">ENS160Sensor.h</text>
</a>
</g>
</g>
<!-- Node1&#45;&gt;Node9 -->
<g id="edge10" class="edge">
<title>Node1&#45;&gt;Node9</title>
<path fill="none" stroke="midnightblue" d="M699.24,-112.81C650.99,-102.76 569.53,-85.77 520.5,-75.55"/>
<polygon fill="midnightblue" stroke="midnightblue" points="698.79,-116.3 709.29,-114.91 700.22,-109.44 698.79,-116.3"/>
</g>
<!-- Node11 -->
<g id="node11" class="node">
<title>Node11</title>
<g id="a_node11"><a xlink:href="GeigerSensor_8h.html" target="_top" xlink:title=" ">
<polygon fill="none" stroke="black" points="545.5,-56.5 545.5,-75.5 635.5,-75.5 635.5,-56.5 545.5,-56.5"/>
<text text-anchor="middle" x="590.5" y="-63.5" font-family="Helvetica,sans-Serif" font-size="10.00">GeigerSensor.h</text>
</a>
</g>
</g>
<!-- Node1&#45;&gt;Node11 -->
<g id="edge13" class="edge">
<title>Node1&#45;&gt;Node11</title>
<path fill="none" stroke="midnightblue" d="M705.35,-108.91C677.53,-98.75 638.48,-84.51 613.84,-75.52"/>
<polygon fill="midnightblue" stroke="midnightblue" points="704.46,-112.3 715.05,-112.44 706.85,-105.73 704.46,-112.3"/>
</g>
<!-- Node13 -->
<g id="node13" class="node">
<title>Node13</title>
<g id="a_node13"><a xlink:href="INA260Sensor_8h.html" target="_top" xlink:title=" ">
<polygon fill="none" stroke="black" points="692,-56.5 692,-75.5 785,-75.5 785,-56.5 692,-56.5"/>
<text text-anchor="middle" x="738.5" y="-63.5" font-family="Helvetica,sans-Serif" font-size="10.00">INA260Sensor.h</text>
</a>
</g>
</g>
<!-- Node1&#45;&gt;Node13 -->
<g id="edge16" class="edge">
<title>Node1&#45;&gt;Node13</title>
<path fill="none" stroke="midnightblue" d="M738.5,-101.8C738.5,-92.91 738.5,-82.78 738.5,-75.75"/>
<polygon fill="midnightblue" stroke="midnightblue" points="735,-102.08 738.5,-112.08 742,-102.08 735,-102.08"/>
</g>
<!-- Node15 -->
<g id="node15" class="node">
<title>Node15</title>
<g id="a_node15"><a xlink:href="LSM9DS1Sensor_8h.html" target="_top" xlink:title=" ">
<polygon fill="none" stroke="black" points="803.5,-56.5 803.5,-75.5 907.5,-75.5 907.5,-56.5 803.5,-56.5"/>
<text text-anchor="middle" x="855.5" y="-63.5" font-family="Helvetica,sans-Serif" font-size="10.00">LSM9DS1Sensor.h</text>
</a>
</g>
</g>
<!-- Node1&#45;&gt;Node15 -->
<g id="edge19" class="edge">
<title>Node1&#45;&gt;Node15</title>
<path fill="none" stroke="midnightblue" d="M766.16,-108.23C788.05,-98.13 818,-84.31 837.05,-75.52"/>
<polygon fill="midnightblue" stroke="midnightblue" points="764.65,-105.08 757.04,-112.44 767.59,-111.43 764.65,-105.08"/>
</g>
<!-- Node17 -->
<g id="node17" class="node">
<title>Node17</title>
<g id="a_node17"><a xlink:href="MTK3339Sensor_8h.html" target="_top" xlink:title=" ">
<polygon fill="none" stroke="black" points="1408.5,-56.5 1408.5,-75.5 1512.5,-75.5 1512.5,-56.5 1408.5,-56.5"/>
<text text-anchor="middle" x="1460.5" y="-63.5" font-family="Helvetica,sans-Serif" font-size="10.00">MTK3339Sensor.h</text>
</a>
</g>
</g>
<!-- Node1&#45;&gt;Node17 -->
<g id="edge22" class="edge">
<title>Node1&#45;&gt;Node17</title>
<path fill="none" stroke="midnightblue" d="M777.85,-118.25C875.27,-111.42 1135.53,-92.99 1352.5,-76 1370.69,-74.58 1390.61,-72.94 1408.32,-71.45"/>
<polygon fill="midnightblue" stroke="midnightblue" points="777.32,-114.78 767.59,-118.97 777.81,-121.76 777.32,-114.78"/>
</g>
<!-- Node19 -->
<g id="node19" class="node">
<title>Node19</title>
<g id="a_node19"><a xlink:href="SGP30Sensor_8h.html" target="_top" xlink:title=" ">
<polygon fill="none" stroke="black" points="926,-56.5 926,-75.5 1015,-75.5 1015,-56.5 926,-56.5"/>
<text text-anchor="middle" x="970.5" y="-63.5" font-family="Helvetica,sans-Serif" font-size="10.00">SGP30Sensor.h</text>
</a>
</g>
</g>
<!-- Node1&#45;&gt;Node19 -->
<g id="edge24" class="edge">
<title>Node1&#45;&gt;Node19</title>
<path fill="none" stroke="midnightblue" d="M777.84,-111.84C821.43,-101.7 891.18,-85.46 933.72,-75.56"/>
<polygon fill="midnightblue" stroke="midnightblue" points="776.83,-108.48 767.88,-114.16 778.42,-115.3 776.83,-108.48"/>
</g>
<!-- Node21 -->
<g id="node21" class="node">
<title>Node21</title>
<g id="a_node21"><a xlink:href="SHT31Sensor_8h.html" target="_top" xlink:title=" ">
<polygon fill="none" stroke="black" points="1033,-56.5 1033,-75.5 1122,-75.5 1122,-56.5 1033,-56.5"/>
<text text-anchor="middle" x="1077.5" y="-63.5" font-family="Helvetica,sans-Serif" font-size="10.00">SHT31Sensor.h</text>
</a>
</g>
</g>
<!-- Node1&#45;&gt;Node21 -->
<g id="edge27" class="edge">
<title>Node1&#45;&gt;Node21</title>
<path fill="none" stroke="midnightblue" d="M777.65,-114.93C832.6,-106.38 935.71,-90.25 1023.5,-76 1026.5,-75.51 1029.6,-75.01 1032.72,-74.49"/>
<polygon fill="midnightblue" stroke="midnightblue" points="776.99,-111.49 767.64,-116.48 778.06,-118.4 776.99,-111.49"/>
</g>
<!-- Node23 -->
<g id="node23" class="node">
<title>Node23</title>
<g id="a_node23"><a xlink:href="TempSensor_8h.html" target="_top" xlink:title=" ">
<polygon fill="none" stroke="black" points="1139.5,-56.5 1139.5,-75.5 1223.5,-75.5 1223.5,-56.5 1139.5,-56.5"/>
<text text-anchor="middle" x="1181.5" y="-63.5" font-family="Helvetica,sans-Serif" font-size="10.00">TempSensor.h</text>
</a>
</g>
</g>
<!-- Node1&#45;&gt;Node23 -->
<g id="edge30" class="edge">
<title>Node1&#45;&gt;Node23</title>
<path fill="none" stroke="midnightblue" d="M777.82,-117.28C848.55,-110.41 1001.86,-94.72 1130.5,-76 1133.35,-75.59 1136.28,-75.13 1139.23,-74.66"/>
<polygon fill="midnightblue" stroke="midnightblue" points="777.21,-113.82 767.59,-118.27 777.88,-120.79 777.21,-113.82"/>
</g>
<!-- Node25 -->
<g id="node25" class="node">
<title>Node25</title>
<g id="a_node25"><a xlink:href="ZOPT220Sensor_8h.html" target="_top" xlink:title=" ">
<polygon fill="none" stroke="black" points="1241.5,-56.5 1241.5,-75.5 1343.5,-75.5 1343.5,-56.5 1241.5,-56.5"/>
<text text-anchor="middle" x="1292.5" y="-63.5" font-family="Helvetica,sans-Serif" font-size="10.00">ZOPT220Sensor.h</text>
</a>
</g>
</g>
<!-- Node1&#45;&gt;Node25 -->
<g id="edge33" class="edge">
<title>Node1&#45;&gt;Node25</title>
<path fill="none" stroke="midnightblue" d="M777.58,-118.22C861.2,-112.09 1063.59,-96.34 1232.5,-76 1235.43,-75.65 1238.43,-75.26 1241.46,-74.86"/>
<polygon fill="midnightblue" stroke="midnightblue" points="777.24,-114.73 767.52,-118.95 777.74,-121.71 777.24,-114.73"/>
</g>
<!-- Node3 -->
<g id="node3" class="node">
<title>Node3</title>
<g id="a_node3"><a xlink:href="AnalogSensor_8cpp.html" target="_top" xlink:title=" ">
<polygon fill="none" stroke="black" points="0,-0.5 0,-19.5 103,-19.5 103,-0.5 0,-0.5"/>
<text text-anchor="middle" x="51.5" y="-7.5" font-family="Helvetica,sans-Serif" font-size="10.00">AnalogSensor.cpp</text>
</a>
</g>
</g>
<!-- Node2&#45;&gt;Node3 -->
<g id="edge2" class="edge">
<title>Node2&#45;&gt;Node3</title>
<path fill="none" stroke="midnightblue" d="M113.57,-50.9C98.16,-41 78.05,-28.07 64.96,-19.65"/>
<polygon fill="midnightblue" stroke="midnightblue" points="111.7,-53.86 122,-56.32 115.48,-47.97 111.7,-53.86"/>
</g>
<!-- Node2&#45;&gt;Node4 -->
<g id="edge3" class="edge">
<title>Node2&#45;&gt;Node4</title>
<path fill="none" stroke="midnightblue" d="M191.79,-55.94C377.73,-33.41 427.96,-47.6 609.5,-20 612.67,-19.52 615.96,-18.94 619.24,-18.3"/>
<polygon fill="midnightblue" stroke="midnightblue" points="191.17,-52.49 181.68,-57.18 192.03,-59.43 191.17,-52.49"/>
</g>
<!-- Node5&#45;&gt;Node4 -->
<g id="edge6" class="edge">
<title>Node5&#45;&gt;Node4</title>
<path fill="none" stroke="midnightblue" d="M307.84,-55.87C442.62,-37.83 479.04,-42.01 609.5,-20 612.66,-19.47 615.95,-18.85 619.22,-18.2"/>
<polygon fill="midnightblue" stroke="midnightblue" points="306.97,-52.45 297.53,-57.27 307.91,-59.39 306.97,-52.45"/>
</g>
<!-- Node6 -->
<g id="node6" class="node">
<title>Node6</title>
<g id="a_node6"><a xlink:href="BME280Sensor_8cpp.html" target="_top" xlink:title=" ">
<polygon fill="none" stroke="black" points="121,-0.5 121,-19.5 230,-19.5 230,-0.5 121,-0.5"/>
<text text-anchor="middle" x="175.5" y="-7.5" font-family="Helvetica,sans-Serif" font-size="10.00">BME280Sensor.cpp</text>
</a>
</g>
</g>
<!-- Node5&#45;&gt;Node6 -->
<g id="edge5" class="edge">
<title>Node5&#45;&gt;Node6</title>
<path fill="none" stroke="midnightblue" d="M228.36,-50.1C215.22,-40.38 198.52,-28.03 187.44,-19.83"/>
<polygon fill="midnightblue" stroke="midnightblue" points="226.65,-53.19 236.77,-56.32 230.81,-47.56 226.65,-53.19"/>
</g>
<!-- Node7&#45;&gt;Node4 -->
<g id="edge9" class="edge">
<title>Node7&#45;&gt;Node4</title>
<path fill="none" stroke="midnightblue" d="M423.8,-54.7C473.49,-45.92 546.24,-32.75 609.5,-20 612.64,-19.37 615.92,-18.68 619.18,-17.99"/>
<polygon fill="midnightblue" stroke="midnightblue" points="423.11,-51.27 413.87,-56.45 424.32,-58.16 423.11,-51.27"/>
</g>
<!-- Node8 -->
<g id="node8" class="node">
<title>Node8</title>
<g id="a_node8"><a xlink:href="BME680Sensor_8cpp.html" target="_top" xlink:title=" ">
<polygon fill="none" stroke="black" points="248,-0.5 248,-19.5 357,-19.5 357,-0.5 248,-0.5"/>
<text text-anchor="middle" x="302.5" y="-7.5" font-family="Helvetica,sans-Serif" font-size="10.00">BME680Sensor.cpp</text>
</a>
</g>
</g>
<!-- Node7&#45;&gt;Node8 -->
<g id="edge8" class="edge">
<title>Node7&#45;&gt;Node8</title>
<path fill="none" stroke="midnightblue" d="M346.75,-49.54C335.69,-39.91 321.87,-27.87 312.64,-19.83"/>
<polygon fill="midnightblue" stroke="midnightblue" points="344.7,-52.4 354.54,-56.32 349.3,-47.12 344.7,-52.4"/>
</g>
<!-- Node9&#45;&gt;Node4 -->
<g id="edge12" class="edge">
<title>Node9&#45;&gt;Node4</title>
<path fill="none" stroke="midnightblue" d="M516.54,-53.3C548.76,-43.13 594.69,-28.62 623.53,-19.52"/>
<polygon fill="midnightblue" stroke="midnightblue" points="515.08,-50.09 506.6,-56.44 517.19,-56.77 515.08,-50.09"/>
</g>
<!-- Node10 -->
<g id="node10" class="node">
<title>Node10</title>
<g id="a_node10"><a xlink:href="ENS160Sensor_8cpp.html" target="_top" xlink:title=" ">
<polygon fill="none" stroke="black" points="375,-0.5 375,-19.5 482,-19.5 482,-0.5 375,-0.5"/>
<text text-anchor="middle" x="428.5" y="-7.5" font-family="Helvetica,sans-Serif" font-size="10.00">ENS160Sensor.cpp</text>
</a>
</g>
</g>
<!-- Node9&#45;&gt;Node10 -->
<g id="edge11" class="edge">
<title>Node9&#45;&gt;Node10</title>
<path fill="none" stroke="midnightblue" d="M464.12,-48.72C455.13,-39.2 444.14,-27.56 436.76,-19.75"/>
<polygon fill="midnightblue" stroke="midnightblue" points="461.67,-51.22 471.08,-56.08 466.76,-46.41 461.67,-51.22"/>
</g>
<!-- Node11&#45;&gt;Node4 -->
<g id="edge15" class="edge">
<title>Node11&#45;&gt;Node4</title>
<path fill="none" stroke="midnightblue" d="M607.68,-49.54C618.38,-39.91 631.76,-27.87 640.68,-19.83"/>
<polygon fill="midnightblue" stroke="midnightblue" points="605.23,-47.03 600.14,-56.32 609.91,-52.24 605.23,-47.03"/>
</g>
<!-- Node12 -->
<g id="node12" class="node">
<title>Node12</title>
<g id="a_node12"><a xlink:href="GeigerSensor_8cpp.html" target="_top" xlink:title=" ">
<polygon fill="none" stroke="black" points="500,-0.5 500,-19.5 601,-19.5 601,-0.5 500,-0.5"/>
<text text-anchor="middle" x="550.5" y="-7.5" font-family="Helvetica,sans-Serif" font-size="10.00">GeigerSensor.cpp</text>
</a>
</g>
</g>
<!-- Node11&#45;&gt;Node12 -->
<g id="edge14" class="edge">
<title>Node11&#45;&gt;Node12</title>
<path fill="none" stroke="midnightblue" d="M577.8,-47.86C570.87,-38.5 562.59,-27.33 556.98,-19.75"/>
<polygon fill="midnightblue" stroke="midnightblue" points="575.13,-50.13 583.89,-56.08 580.75,-45.96 575.13,-50.13"/>
</g>
<!-- Node13&#45;&gt;Node4 -->
<g id="edge18" class="edge">
<title>Node13&#45;&gt;Node4</title>
<path fill="none" stroke="midnightblue" d="M715.52,-50.9C699.39,-41 678.32,-28.07 664.6,-19.65"/>
<polygon fill="midnightblue" stroke="midnightblue" points="714.01,-54.08 724.36,-56.32 717.67,-48.11 714.01,-54.08"/>
</g>
<!-- Node14 -->
<g id="node14" class="node">
<title>Node14</title>
<g id="a_node14"><a xlink:href="INA260Sensor_8cpp.html" target="_top" xlink:title=" ">
<polygon fill="none" stroke="black" points="699.5,-0.5 699.5,-19.5 803.5,-19.5 803.5,-0.5 699.5,-0.5"/>
<text text-anchor="middle" x="751.5" y="-7.5" font-family="Helvetica,sans-Serif" font-size="10.00">INA260Sensor.cpp</text>
</a>
</g>
</g>
<!-- Node13&#45;&gt;Node14 -->
<g id="edge17" class="edge">
<title>Node13&#45;&gt;Node14</title>
<path fill="none" stroke="midnightblue" d="M743.05,-46.1C745.21,-37.14 747.68,-26.86 749.39,-19.75"/>
<polygon fill="midnightblue" stroke="midnightblue" points="739.58,-45.54 740.65,-56.08 746.39,-47.18 739.58,-45.54"/>
</g>
<!-- Node15&#45;&gt;Node4 -->
<g id="edge21" class="edge">
<title>Node15&#45;&gt;Node4</title>
<path fill="none" stroke="midnightblue" d="M813,-53.8C773.92,-43.51 716.89,-28.49 681.82,-19.25"/>
<polygon fill="midnightblue" stroke="midnightblue" points="812.46,-57.28 823.02,-56.44 814.24,-50.51 812.46,-57.28"/>
</g>
<!-- Node16 -->
<g id="node16" class="node">
<title>Node16</title>
<g id="a_node16"><a xlink:href="LSM9DS1Sensor_8cpp.html" target="_top" xlink:title=" ">
<polygon fill="none" stroke="black" points="822,-0.5 822,-19.5 937,-19.5 937,-0.5 822,-0.5"/>
<text text-anchor="middle" x="879.5" y="-7.5" font-family="Helvetica,sans-Serif" font-size="10.00">LSM9DS1Sensor.cpp</text>
</a>
</g>
</g>
<!-- Node15&#45;&gt;Node16 -->
<g id="edge20" class="edge">
<title>Node15&#45;&gt;Node16</title>
<path fill="none" stroke="midnightblue" d="M863.64,-46.69C867.68,-37.59 872.38,-27.01 875.61,-19.75"/>
<polygon fill="midnightblue" stroke="midnightblue" points="860.33,-45.52 859.46,-56.08 866.72,-48.37 860.33,-45.52"/>
</g>
<!-- Node18 -->
<g id="node18" class="node">
<title>Node18</title>
<g id="a_node18"><a xlink:href="MTK3339Sensor_8cpp.html" target="_top" xlink:title=" ">
<polygon fill="none" stroke="black" points="1437,-0.5 1437,-19.5 1552,-19.5 1552,-0.5 1437,-0.5"/>
<text text-anchor="middle" x="1494.5" y="-7.5" font-family="Helvetica,sans-Serif" font-size="10.00">MTK3339Sensor.cpp</text>
</a>
</g>
</g>
<!-- Node17&#45;&gt;Node18 -->
<g id="edge23" class="edge">
<title>Node17&#45;&gt;Node18</title>
<path fill="none" stroke="midnightblue" d="M1471.48,-47.57C1477.33,-38.27 1484.27,-27.25 1488.99,-19.75"/>
<polygon fill="midnightblue" stroke="midnightblue" points="1468.48,-45.76 1466.11,-56.08 1474.4,-49.49 1468.48,-45.76"/>
</g>
<!-- Node19&#45;&gt;Node4 -->
<g id="edge25" class="edge">
<title>Node19&#45;&gt;Node4</title>
<path fill="none" stroke="midnightblue" d="M915.68,-55.88C814.43,-39.59 787.27,-38.57 690.5,-20 687.7,-19.46 684.8,-18.87 681.9,-18.26"/>
<polygon fill="midnightblue" stroke="midnightblue" points="915.28,-59.37 925.72,-57.51 916.4,-52.46 915.28,-59.37"/>
</g>
<!-- Node20 -->
<g id="node20" class="node">
<title>Node20</title>
<g id="a_node20"><a xlink:href="SGP30Sensor_8cpp.html" target="_top" xlink:title=" ">
<polygon fill="none" stroke="black" points="955,-0.5 955,-19.5 1056,-19.5 1056,-0.5 955,-0.5"/>
<text text-anchor="middle" x="1005.5" y="-7.5" font-family="Helvetica,sans-Serif" font-size="10.00">SGP30Sensor.cpp</text>
</a>
</g>
</g>
<!-- Node19&#45;&gt;Node20 -->
<g id="edge26" class="edge">
<title>Node19&#45;&gt;Node20</title>
<path fill="none" stroke="midnightblue" d="M981.8,-47.57C987.82,-38.27 994.97,-27.25 999.83,-19.75"/>
<polygon fill="midnightblue" stroke="midnightblue" points="978.78,-45.79 976.28,-56.08 984.66,-49.6 978.78,-45.79"/>
</g>
<!-- Node21&#45;&gt;Node4 -->
<g id="edge28" class="edge">
<title>Node21&#45;&gt;Node4</title>
<path fill="none" stroke="midnightblue" d="M1022.8,-55.99C874.31,-36.11 834.2,-43.85 690.5,-20 687.69,-19.53 684.78,-18.99 681.88,-18.41"/>
<polygon fill="midnightblue" stroke="midnightblue" points="1022.36,-59.46 1032.74,-57.34 1023.3,-52.52 1022.36,-59.46"/>
</g>
<!-- Node22 -->
<g id="node22" class="node">
<title>Node22</title>
<g id="a_node22"><a xlink:href="SHT31Sensor_8cpp.html" target="_top" xlink:title=" ">
<polygon fill="none" stroke="black" points="1074,-0.5 1074,-19.5 1175,-19.5 1175,-0.5 1074,-0.5"/>
<text text-anchor="middle" x="1124.5" y="-7.5" font-family="Helvetica,sans-Serif" font-size="10.00">SHT31Sensor.cpp</text>
</a>
</g>
</g>
<!-- Node21&#45;&gt;Node22 -->
<g id="edge29" class="edge">
<title>Node21&#45;&gt;Node22</title>
<path fill="none" stroke="midnightblue" d="M1091.92,-48.43C1100.16,-38.97 1110.15,-27.48 1116.88,-19.75"/>
<polygon fill="midnightblue" stroke="midnightblue" points="1089.19,-46.24 1085.26,-56.08 1094.47,-50.84 1089.19,-46.24"/>
</g>
<!-- Node23&#45;&gt;Node4 -->
<g id="edge31" class="edge">
<title>Node23&#45;&gt;Node4</title>
<path fill="none" stroke="midnightblue" d="M1129.24,-55.96C934.15,-31.53 881.24,-49.12 690.5,-20 687.69,-19.57 684.77,-19.06 681.86,-18.49"/>
<polygon fill="midnightblue" stroke="midnightblue" points="1128.88,-59.44 1139.25,-57.23 1129.77,-52.5 1128.88,-59.44"/>
</g>
<!-- Node24 -->
<g id="node24" class="node">
<title>Node24</title>
<g id="a_node24"><a xlink:href="TempSensor_8cpp.html" target="_top" xlink:title=" ">
<polygon fill="none" stroke="black" points="1193,-0.5 1193,-19.5 1288,-19.5 1288,-0.5 1193,-0.5"/>
<text text-anchor="middle" x="1240.5" y="-7.5" font-family="Helvetica,sans-Serif" font-size="10.00">TempSensor.cpp</text>
</a>
</g>
</g>
<!-- Node23&#45;&gt;Node24 -->
<g id="edge32" class="edge">
<title>Node23&#45;&gt;Node24</title>
<path fill="none" stroke="midnightblue" d="M1198.39,-49.54C1208.91,-39.91 1222.07,-27.87 1230.85,-19.83"/>
<polygon fill="midnightblue" stroke="midnightblue" points="1195.99,-46.99 1190.98,-56.32 1200.72,-52.15 1195.99,-46.99"/>
</g>
<!-- Node25&#45;&gt;Node4 -->
<g id="edge34" class="edge">
<title>Node25&#45;&gt;Node4</title>
<path fill="none" stroke="midnightblue" d="M1231.36,-55.98C990.72,-30.73 926.16,-54.13 690.5,-20 687.68,-19.59 684.77,-19.09 681.86,-18.54"/>
<polygon fill="midnightblue" stroke="midnightblue" points="1231.16,-59.47 1241.47,-57.05 1231.9,-52.51 1231.16,-59.47"/>
</g>
<!-- Node26 -->
<g id="node26" class="node">
<title>Node26</title>
<g id="a_node26"><a xlink:href="ZOPT220Sensor_8cpp.html" target="_top" xlink:title=" ">
<polygon fill="none" stroke="black" points="1306,-0.5 1306,-19.5 1419,-19.5 1419,-0.5 1306,-0.5"/>
<text text-anchor="middle" x="1362.5" y="-7.5" font-family="Helvetica,sans-Serif" font-size="10.00">ZOPT220Sensor.cpp</text>
</a>
</g>
</g>
<!-- Node25&#45;&gt;Node26 -->
<g id="edge35" class="edge">
<title>Node25&#45;&gt;Node26</title>
<path fill="none" stroke="midnightblue" d="M1311.81,-50.1C1324.41,-40.38 1340.43,-28.03 1351.05,-19.83"/>
<polygon fill="midnightblue" stroke="midnightblue" points="1309.53,-47.44 1303.75,-56.32 1313.8,-52.99 1309.53,-47.44"/>
</g>
</g>
</svg>
