<?xml version="1.0" encoding="UTF-8" standalone="no"?>
<!DOCTYPE svg PUBLIC "-//W3C//DTD SVG 1.1//EN"
 "http://www.w3.org/Graphics/SVG/1.1/DTD/svg11.dtd">
<!-- Generated by graphviz version 2.43.0 (0)
 -->
<!-- Title: Sensor.h Pages: 1 -->
<svg width="1946pt" height="140pt"
 viewBox="0.00 0.00 1946.00 140.00" xmlns="http://www.w3.org/2000/svg" xmlns:xlink="http://www.w3.org/1999/xlink">
<g id="graph0" class="graph" transform="scale(1 1) rotate(0) translate(4 136)">
<title>Sensor.h</title>
<!-- Node1 -->
<g id="node1" class="node">
<title>Node1</title>
<g id="a_node1"><a xlink:title=" ">
<polygon fill="#bfbfbf" stroke="black" points="938.5,-112.5 938.5,-131.5 996.5,-131.5 996.5,-112.5 938.5,-112.5"/>
<text text-anchor="middle" x="967.5" y="-119.5" font-family="Helvetica,sans-Serif" font-size="10.00">Sensor.h</text>
</a>
</g>
</g>
<!-- Node2 -->
<g id="node2" class="node">
<title>Node2</title>
<g id="a_node2"><a xlink:href="AnalogSensor_8h.html" target="_top" xlink:title=" ">
<polygon fill="none" stroke="black" points="65.5,-56.5 65.5,-75.5 157.5,-75.5 157.5,-56.5 65.5,-56.5"/>
<text text-anchor="middle" x="111.5" y="-63.5" font-family="Helvetica,sans-Serif" font-size="10.00">AnalogSensor.h</text>
</a>
</g>
</g>
<!-- Node1&#45;&gt;Node2 -->
<g id="edge1" class="edge">
<title>Node1&#45;&gt;Node2</title>
<path fill="none" stroke="midnightblue" d="M928.24,-119.05C816.44,-113.42 486.84,-96.21 213.5,-76 195.24,-74.65 175.16,-72.93 157.68,-71.35"/>
<polygon fill="midnightblue" stroke="midnightblue" points="928.21,-122.55 938.37,-119.56 928.56,-115.56 928.21,-122.55"/>
</g>
<!-- Node4 -->
<g id="node4" class="node">
<title>Node4</title>
<g id="a_node4"><a xlink:href="AS7331Sensor_8h.html" target="_top" xlink:title=" ">
<polygon fill="none" stroke="black" points="223,-56.5 223,-75.5 318,-75.5 318,-56.5 223,-56.5"/>
<text text-anchor="middle" x="270.5" y="-63.5" font-family="Helvetica,sans-Serif" font-size="10.00">AS7331Sensor.h</text>
</a>
</g>
</g>
<!-- Node1&#45;&gt;Node4 -->
<g id="edge3" class="edge">
<title>Node1&#45;&gt;Node4</title>
<path fill="none" stroke="midnightblue" d="M928.12,-119.42C827.73,-115.12 554.14,-101.81 327.5,-76 324.41,-75.65 321.24,-75.25 318.04,-74.82"/>
<polygon fill="midnightblue" stroke="midnightblue" points="928.26,-122.93 938.39,-119.85 928.55,-115.93 928.26,-122.93"/>
</g>
<!-- Node6 -->
<g id="node6" class="node">
<title>Node6</title>
<g id="a_node6"><a xlink:href="main_8cpp.html" target="_top" xlink:title=" ">
<polygon fill="none" stroke="black" points="886.5,-0.5 886.5,-19.5 948.5,-19.5 948.5,-0.5 886.5,-0.5"/>
<text text-anchor="middle" x="917.5" y="-7.5" font-family="Helvetica,sans-Serif" font-size="10.00">main.cpp</text>
</a>
</g>
</g>
<!-- Node1&#45;&gt;Node6 -->
<g id="edge43" class="edge">
<title>Node1&#45;&gt;Node6</title>
<path fill="none" stroke="midnightblue" d="M959.32,-103C948.41,-79 929.53,-37.47 921.41,-19.59"/>
<polygon fill="midnightblue" stroke="midnightblue" points="956.25,-104.71 963.58,-112.37 962.62,-101.82 956.25,-104.71"/>
</g>
<!-- Node7 -->
<g id="node7" class="node">
<title>Node7</title>
<g id="a_node7"><a xlink:href="BME280Sensor_8h.html" target="_top" xlink:title=" ">
<polygon fill="none" stroke="black" points="336.5,-56.5 336.5,-75.5 434.5,-75.5 434.5,-56.5 336.5,-56.5"/>
<text text-anchor="middle" x="385.5" y="-63.5" font-family="Helvetica,sans-Serif" font-size="10.00">BME280Sensor.h</text>
</a>
</g>
</g>
<!-- Node1&#45;&gt;Node7 -->
<g id="edge6" class="edge">
<title>Node1&#45;&gt;Node7</title>
<path fill="none" stroke="midnightblue" d="M928.22,-118.55C840.89,-112.89 624.07,-97.74 443.5,-76 440.57,-75.65 437.55,-75.26 434.52,-74.85"/>
<polygon fill="midnightblue" stroke="midnightblue" points="928.25,-122.06 938.46,-119.2 928.7,-115.07 928.25,-122.06"/>
</g>
<!-- Node9 -->
<g id="node9" class="node">
<title>Node9</title>
<g id="a_node9"><a xlink:href="BME680Sensor_8h.html" target="_top" xlink:title=" ">
<polygon fill="none" stroke="black" points="452.5,-56.5 452.5,-75.5 550.5,-75.5 550.5,-56.5 452.5,-56.5"/>
<text text-anchor="middle" x="501.5" y="-63.5" font-family="Helvetica,sans-Serif" font-size="10.00">BME680Sensor.h</text>
</a>
</g>
</g>
<!-- Node1&#45;&gt;Node9 -->
<g id="edge9" class="edge">
<title>Node1&#45;&gt;Node9</title>
<path fill="none" stroke="midnightblue" d="M928.16,-117.24C855.31,-110.16 694.5,-93.91 559.5,-76 556.57,-75.61 553.56,-75.2 550.53,-74.76"/>
<polygon fill="midnightblue" stroke="midnightblue" points="927.97,-120.74 938.26,-118.22 928.64,-113.77 927.97,-120.74"/>
</g>
<!-- Node11 -->
<g id="node11" class="node">
<title>Node11</title>
<g id="a_node11"><a xlink:href="DS3231Sensor_8h.html" target="_top" xlink:title=" ">
<polygon fill="none" stroke="black" points="569,-56.5 569,-75.5 664,-75.5 664,-56.5 569,-56.5"/>
<text text-anchor="middle" x="616.5" y="-63.5" font-family="Helvetica,sans-Serif" font-size="10.00">DS3231Sensor.h</text>
</a>
</g>
</g>
<!-- Node1&#45;&gt;Node11 -->
<g id="edge12" class="edge">
<title>Node1&#45;&gt;Node11</title>
<path fill="none" stroke="midnightblue" d="M928.23,-115.11C871.68,-106.61 764.05,-90.34 672.5,-76 669.78,-75.57 666.98,-75.13 664.15,-74.69"/>
<polygon fill="midnightblue" stroke="midnightblue" points="927.77,-118.58 938.18,-116.61 928.81,-111.66 927.77,-118.58"/>
</g>
<!-- Node13 -->
<g id="node13" class="node">
<title>Node13</title>
<g id="a_node13"><a xlink:href="ENS160Sensor_8h.html" target="_top" xlink:title=" ">
<polygon fill="none" stroke="black" points="682,-56.5 682,-75.5 777,-75.5 777,-56.5 682,-56.5"/>
<text text-anchor="middle" x="729.5" y="-63.5" font-family="Helvetica,sans-Serif" font-size="10.00">ENS160Sensor.h</text>
</a>
</g>
</g>
<!-- Node1&#45;&gt;Node13 -->
<g id="edge15" class="edge">
<title>Node1&#45;&gt;Node13</title>
<path fill="none" stroke="midnightblue" d="M928.42,-112.13C883.77,-102 811.21,-85.54 767.16,-75.55"/>
<polygon fill="midnightblue" stroke="midnightblue" points="927.79,-115.58 938.32,-114.38 929.34,-108.75 927.79,-115.58"/>
</g>
<!-- Node15 -->
<g id="node15" class="node">
<title>Node15</title>
<g id="a_node15"><a xlink:href="GeigerSensor_8h.html" target="_top" xlink:title=" ">
<polygon fill="none" stroke="black" points="1677.5,-56.5 1677.5,-75.5 1767.5,-75.5 1767.5,-56.5 1677.5,-56.5"/>
<text text-anchor="middle" x="1722.5" y="-63.5" font-family="Helvetica,sans-Serif" font-size="10.00">GeigerSensor.h</text>
</a>
</g>
</g>
<!-- Node1&#45;&gt;Node15 -->
<g id="edge18" class="edge">
<title>Node1&#45;&gt;Node15</title>
<path fill="none" stroke="midnightblue" d="M1006.62,-118.58C1108.15,-112.26 1388.37,-94.41 1621.5,-76 1639.75,-74.56 1659.84,-72.8 1677.27,-71.23"/>
<polygon fill="midnightblue" stroke="midnightblue" points="1006.29,-115.1 996.52,-119.21 1006.72,-122.08 1006.29,-115.1"/>
</g>
<!-- Node17 -->
<g id="node17" class="node">
<title>Node17</title>
<g id="a_node17"><a xlink:href="ICM20948Sensor_8h.html" target="_top" xlink:title=" ">
<polygon fill="none" stroke="black" points="795,-56.5 795,-75.5 902,-75.5 902,-56.5 795,-56.5"/>
<text text-anchor="middle" x="848.5" y="-63.5" font-family="Helvetica,sans-Serif" font-size="10.00">ICM20948Sensor.h</text>
</a>
</g>
</g>
<!-- Node1&#45;&gt;Node17 -->
<g id="edge20" class="edge">
<title>Node1&#45;&gt;Node17</title>
<path fill="none" stroke="midnightblue" d="M939.36,-108.23C917.1,-98.13 886.64,-84.31 867.27,-75.52"/>
<polygon fill="midnightblue" stroke="midnightblue" points="938.09,-111.5 948.64,-112.44 940.98,-105.12 938.09,-111.5"/>
</g>
<!-- Node19 -->
<g id="node19" class="node">
<title>Node19</title>
<g id="a_node19"><a xlink:href="INA260Sensor_8h.html" target="_top" xlink:title=" ">
<polygon fill="none" stroke="black" points="959,-56.5 959,-75.5 1052,-75.5 1052,-56.5 959,-56.5"/>
<text text-anchor="middle" x="1005.5" y="-63.5" font-family="Helvetica,sans-Serif" font-size="10.00">INA260Sensor.h</text>
</a>
</g>
</g>
<!-- Node1&#45;&gt;Node19 -->
<g id="edge23" class="edge">
<title>Node1&#45;&gt;Node19</title>
<path fill="none" stroke="midnightblue" d="M979.56,-103.86C986.14,-94.5 994.01,-83.33 999.34,-75.75"/>
<polygon fill="midnightblue" stroke="midnightblue" points="976.67,-101.89 973.77,-112.08 982.39,-105.92 976.67,-101.89"/>
</g>
<!-- Node21 -->
<g id="node21" class="node">
<title>Node21</title>
<g id="a_node21"><a xlink:href="LSM9DS1Sensor_8h.html" target="_top" xlink:title=" ">
<polygon fill="none" stroke="black" points="1070.5,-56.5 1070.5,-75.5 1174.5,-75.5 1174.5,-56.5 1070.5,-56.5"/>
<text text-anchor="middle" x="1122.5" y="-63.5" font-family="Helvetica,sans-Serif" font-size="10.00">LSM9DS1Sensor.h</text>
</a>
</g>
</g>
<!-- Node1&#45;&gt;Node21 -->
<g id="edge26" class="edge">
<title>Node1&#45;&gt;Node21</title>
<path fill="none" stroke="midnightblue" d="M1001.83,-109.04C1031,-98.88 1072.14,-84.55 1098.05,-75.52"/>
<polygon fill="midnightblue" stroke="midnightblue" points="1000.35,-105.85 992.06,-112.44 1002.66,-112.46 1000.35,-105.85"/>
</g>
<!-- Node23 -->
<g id="node23" class="node">
<title>Node23</title>
<g id="a_node23"><a xlink:href="MTK3339Sensor_8h.html" target="_top" xlink:title=" ">
<polygon fill="none" stroke="black" points="1192.5,-56.5 1192.5,-75.5 1296.5,-75.5 1296.5,-56.5 1192.5,-56.5"/>
<text text-anchor="middle" x="1244.5" y="-63.5" font-family="Helvetica,sans-Serif" font-size="10.00">MTK3339Sensor.h</text>
</a>
</g>
</g>
<!-- Node1&#45;&gt;Node23 -->
<g id="edge29" class="edge">
<title>Node1&#45;&gt;Node23</title>
<path fill="none" stroke="midnightblue" d="M1006.64,-113.37C1057.89,-103.38 1147.46,-85.92 1200.85,-75.51"/>
<polygon fill="midnightblue" stroke="midnightblue" points="1005.77,-109.97 996.62,-115.32 1007.11,-116.84 1005.77,-109.97"/>
</g>
<!-- Node25 -->
<g id="node25" class="node">
<title>Node25</title>
<g id="a_node25"><a xlink:href="SGP30Sensor_8h.html" target="_top" xlink:title=" ">
<polygon fill="none" stroke="black" points="1315,-56.5 1315,-75.5 1404,-75.5 1404,-56.5 1315,-56.5"/>
<text text-anchor="middle" x="1359.5" y="-63.5" font-family="Helvetica,sans-Serif" font-size="10.00">SGP30Sensor.h</text>
</a>
</g>
</g>
<!-- Node1&#45;&gt;Node25 -->
<g id="edge32" class="edge">
<title>Node1&#45;&gt;Node25</title>
<path fill="none" stroke="midnightblue" d="M1007.25,-116.14C1070.48,-108.3 1197.86,-92.13 1305.5,-76 1308.51,-75.55 1311.61,-75.07 1314.73,-74.58"/>
<polygon fill="midnightblue" stroke="midnightblue" points="1006.43,-112.71 996.93,-117.41 1007.29,-119.66 1006.43,-112.71"/>
</g>
<!-- Node27 -->
<g id="node27" class="node">
<title>Node27</title>
<g id="a_node27"><a xlink:href="SHT31Sensor_8h.html" target="_top" xlink:title=" ">
<polygon fill="none" stroke="black" points="1422,-56.5 1422,-75.5 1511,-75.5 1511,-56.5 1422,-56.5"/>
<text text-anchor="middle" x="1466.5" y="-63.5" font-family="Helvetica,sans-Serif" font-size="10.00">SHT31Sensor.h</text>
</a>
</g>
</g>
<!-- Node1&#45;&gt;Node27 -->
<g id="edge35" class="edge">
<title>Node1&#45;&gt;Node27</title>
<path fill="none" stroke="midnightblue" d="M1007.03,-117.86C1084.84,-111.5 1263.28,-95.96 1412.5,-76 1415.51,-75.6 1418.62,-75.15 1421.74,-74.69"/>
<polygon fill="midnightblue" stroke="midnightblue" points="1006.42,-114.4 996.73,-118.7 1006.98,-121.38 1006.42,-114.4"/>
</g>
<!-- Node29 -->
<g id="node29" class="node">
<title>Node29</title>
<g id="a_node29"><a xlink:href="TempSensor_8h.html" target="_top" xlink:title=" ">
<polygon fill="none" stroke="black" points="1528.5,-56.5 1528.5,-75.5 1612.5,-75.5 1612.5,-56.5 1528.5,-56.5"/>
<text text-anchor="middle" x="1570.5" y="-63.5" font-family="Helvetica,sans-Serif" font-size="10.00">TempSensor.h</text>
</a>
</g>
</g>
<!-- Node1&#45;&gt;Node29 -->
<g id="edge38" class="edge">
<title>Node1&#45;&gt;Node29</title>
<path fill="none" stroke="midnightblue" d="M1006.72,-119.06C1097.31,-114.31 1328.01,-100.65 1519.5,-76 1522.35,-75.63 1525.29,-75.22 1528.25,-74.77"/>
<polygon fill="midnightblue" stroke="midnightblue" points="1006.43,-115.57 996.63,-119.59 1006.79,-122.56 1006.43,-115.57"/>
</g>
<!-- Node31 -->
<g id="node31" class="node">
<title>Node31</title>
<g id="a_node31"><a xlink:href="ZOPT220Sensor_8h.html" target="_top" xlink:title=" ">
<polygon fill="none" stroke="black" points="1814.5,-56.5 1814.5,-75.5 1916.5,-75.5 1916.5,-56.5 1814.5,-56.5"/>
<text text-anchor="middle" x="1865.5" y="-63.5" font-family="Helvetica,sans-Serif" font-size="10.00">ZOPT220Sensor.h</text>
</a>
</g>
</g>
<!-- Node1&#45;&gt;Node31 -->
<g id="edge41" class="edge">
<title>Node1&#45;&gt;Node31</title>
<path fill="none" stroke="midnightblue" d="M1006.82,-119.44C1124,-114.67 1481.05,-99.14 1776.5,-76 1788.73,-75.04 1801.89,-73.82 1814.24,-72.58"/>
<polygon fill="midnightblue" stroke="midnightblue" points="1006.4,-115.96 996.55,-119.86 1006.69,-122.95 1006.4,-115.96"/>
</g>
<!-- Node3 -->
<g id="node3" class="node">
<title>Node3</title>
<g id="a_node3"><a xlink:href="AnalogSensor_8cpp.html" target="_top" xlink:title=" ">
<polygon fill="none" stroke="black" points="0,-0.5 0,-19.5 103,-19.5 103,-0.5 0,-0.5"/>
<text text-anchor="middle" x="51.5" y="-7.5" font-family="Helvetica,sans-Serif" font-size="10.00">AnalogSensor.cpp</text>
</a>
</g>
</g>
<!-- Node2&#45;&gt;Node3 -->
<g id="edge2" class="edge">
<title>Node2&#45;&gt;Node3</title>
<path fill="none" stroke="midnightblue" d="M94.32,-49.54C83.62,-39.91 70.24,-27.87 61.32,-19.83"/>
<polygon fill="midnightblue" stroke="midnightblue" points="92.09,-52.24 101.86,-56.32 96.77,-47.03 92.09,-52.24"/>
</g>
<!-- Node5 -->
<g id="node5" class="node">
<title>Node5</title>
<g id="a_node5"><a xlink:href="AS7331Sensor_8cpp.html" target="_top" xlink:title=" ">
<polygon fill="none" stroke="black" points="121.5,-0.5 121.5,-19.5 227.5,-19.5 227.5,-0.5 121.5,-0.5"/>
<text text-anchor="middle" x="174.5" y="-7.5" font-family="Helvetica,sans-Serif" font-size="10.00">AS7331Sensor.cpp</text>
</a>
</g>
</g>
<!-- Node4&#45;&gt;Node5 -->
<g id="edge4" class="edge">
<title>Node4&#45;&gt;Node5</title>
<path fill="none" stroke="midnightblue" d="M245.93,-51.18C228.26,-41.24 204.99,-28.15 189.89,-19.65"/>
<polygon fill="midnightblue" stroke="midnightblue" points="244.64,-54.47 255.08,-56.32 248.08,-48.37 244.64,-54.47"/>
</g>
<!-- Node4&#45;&gt;Node6 -->
<g id="edge5" class="edge">
<title>Node4&#45;&gt;Node6</title>
<path fill="none" stroke="midnightblue" d="M328.31,-56.03C572.75,-29.57 638.36,-54.51 877.5,-20 880.32,-19.59 883.23,-19.09 886.14,-18.54"/>
<polygon fill="midnightblue" stroke="midnightblue" points="327.6,-52.59 318.04,-57.16 328.36,-59.55 327.6,-52.59"/>
</g>
<!-- Node7&#45;&gt;Node6 -->
<g id="edge8" class="edge">
<title>Node7&#45;&gt;Node6</title>
<path fill="none" stroke="midnightblue" d="M444.7,-55.95C637.46,-33.69 689.45,-48.81 877.5,-20 880.31,-19.57 883.23,-19.05 886.14,-18.49"/>
<polygon fill="midnightblue" stroke="midnightblue" points="444.04,-52.5 434.51,-57.14 444.85,-59.45 444.04,-52.5"/>
</g>
<!-- Node8 -->
<g id="node8" class="node">
<title>Node8</title>
<g id="a_node8"><a xlink:href="BME280Sensor_8cpp.html" target="_top" xlink:title=" ">
<polygon fill="none" stroke="black" points="246,-0.5 246,-19.5 355,-19.5 355,-0.5 246,-0.5"/>
<text text-anchor="middle" x="300.5" y="-7.5" font-family="Helvetica,sans-Serif" font-size="10.00">BME280Sensor.cpp</text>
</a>
</g>
</g>
<!-- Node7&#45;&gt;Node8 -->
<g id="edge7" class="edge">
<title>Node7&#45;&gt;Node8</title>
<path fill="none" stroke="midnightblue" d="M363.31,-50.9C347.72,-41 327.37,-28.07 314.12,-19.65"/>
<polygon fill="midnightblue" stroke="midnightblue" points="361.53,-53.92 371.84,-56.32 365.28,-48.01 361.53,-53.92"/>
</g>
<!-- Node9&#45;&gt;Node6 -->
<g id="edge11" class="edge">
<title>Node9&#45;&gt;Node6</title>
<path fill="none" stroke="midnightblue" d="M560.46,-55.93C702.18,-37.37 740.39,-43.12 877.5,-20 880.31,-19.53 883.21,-18.98 886.12,-18.4"/>
<polygon fill="midnightblue" stroke="midnightblue" points="559.98,-52.46 550.53,-57.25 560.9,-59.4 559.98,-52.46"/>
</g>
<!-- Node10 -->
<g id="node10" class="node">
<title>Node10</title>
<g id="a_node10"><a xlink:href="BME680Sensor_8cpp.html" target="_top" xlink:title=" ">
<polygon fill="none" stroke="black" points="373,-0.5 373,-19.5 482,-19.5 482,-0.5 373,-0.5"/>
<text text-anchor="middle" x="427.5" y="-7.5" font-family="Helvetica,sans-Serif" font-size="10.00">BME680Sensor.cpp</text>
</a>
</g>
</g>
<!-- Node9&#45;&gt;Node10 -->
<g id="edge10" class="edge">
<title>Node9&#45;&gt;Node10</title>
<path fill="none" stroke="midnightblue" d="M481.47,-50.38C468.09,-40.62 450.94,-28.11 439.61,-19.83"/>
<polygon fill="midnightblue" stroke="midnightblue" points="479.47,-53.26 489.61,-56.32 483.6,-47.6 479.47,-53.26"/>
</g>
<!-- Node11&#45;&gt;Node6 -->
<g id="edge14" class="edge">
<title>Node11&#45;&gt;Node6</title>
<path fill="none" stroke="midnightblue" d="M674.1,-55.42C738.75,-44.6 839.56,-27.53 877.5,-20 880.29,-19.45 883.19,-18.84 886.09,-18.23"/>
<polygon fill="midnightblue" stroke="midnightblue" points="673.34,-52 664.05,-57.1 674.49,-58.9 673.34,-52"/>
</g>
<!-- Node12 -->
<g id="node12" class="node">
<title>Node12</title>
<g id="a_node12"><a xlink:href="DS3231Sensor_8cpp.html" target="_top" xlink:title=" ">
<polygon fill="none" stroke="black" points="500,-0.5 500,-19.5 607,-19.5 607,-0.5 500,-0.5"/>
<text text-anchor="middle" x="553.5" y="-7.5" font-family="Helvetica,sans-Serif" font-size="10.00">DS3231Sensor.cpp</text>
</a>
</g>
</g>
<!-- Node11&#45;&gt;Node12 -->
<g id="edge13" class="edge">
<title>Node11&#45;&gt;Node12</title>
<path fill="none" stroke="midnightblue" d="M598.46,-49.54C587.23,-39.91 573.18,-27.87 563.81,-19.83"/>
<polygon fill="midnightblue" stroke="midnightblue" points="596.51,-52.47 606.38,-56.32 601.06,-47.16 596.51,-52.47"/>
</g>
<!-- Node13&#45;&gt;Node6 -->
<g id="edge17" class="edge">
<title>Node13&#45;&gt;Node6</title>
<path fill="none" stroke="midnightblue" d="M769.3,-53.57C804.77,-43.38 855.87,-28.7 887.85,-19.52"/>
<polygon fill="midnightblue" stroke="midnightblue" points="767.93,-50.32 759.29,-56.44 769.87,-57.05 767.93,-50.32"/>
</g>
<!-- Node14 -->
<g id="node14" class="node">
<title>Node14</title>
<g id="a_node14"><a xlink:href="ENS160Sensor_8cpp.html" target="_top" xlink:title=" ">
<polygon fill="none" stroke="black" points="625,-0.5 625,-19.5 732,-19.5 732,-0.5 625,-0.5"/>
<text text-anchor="middle" x="678.5" y="-7.5" font-family="Helvetica,sans-Serif" font-size="10.00">ENS160Sensor.cpp</text>
</a>
</g>
</g>
<!-- Node13&#45;&gt;Node14 -->
<g id="edge16" class="edge">
<title>Node13&#45;&gt;Node14</title>
<path fill="none" stroke="midnightblue" d="M714.12,-48.72C705.13,-39.2 694.14,-27.56 686.76,-19.75"/>
<polygon fill="midnightblue" stroke="midnightblue" points="711.67,-51.22 721.08,-56.08 716.76,-46.41 711.67,-51.22"/>
</g>
<!-- Node16 -->
<g id="node16" class="node">
<title>Node16</title>
<g id="a_node16"><a xlink:href="GeigerSensor_8cpp.html" target="_top" xlink:title=" ">
<polygon fill="none" stroke="black" points="1706,-0.5 1706,-19.5 1807,-19.5 1807,-0.5 1706,-0.5"/>
<text text-anchor="middle" x="1756.5" y="-7.5" font-family="Helvetica,sans-Serif" font-size="10.00">GeigerSensor.cpp</text>
</a>
</g>
</g>
<!-- Node15&#45;&gt;Node16 -->
<g id="edge19" class="edge">
<title>Node15&#45;&gt;Node16</title>
<path fill="none" stroke="midnightblue" d="M1733.48,-47.57C1739.33,-38.27 1746.27,-27.25 1750.99,-19.75"/>
<polygon fill="midnightblue" stroke="midnightblue" points="1730.48,-45.76 1728.11,-56.08 1736.4,-49.49 1730.48,-45.76"/>
</g>
<!-- Node17&#45;&gt;Node6 -->
<g id="edge22" class="edge">
<title>Node17&#45;&gt;Node6</title>
<path fill="none" stroke="midnightblue" d="M867.54,-50.1C879.96,-40.38 895.74,-28.03 906.21,-19.83"/>
<polygon fill="midnightblue" stroke="midnightblue" points="865.3,-47.4 859.59,-56.32 869.62,-52.92 865.3,-47.4"/>
</g>
<!-- Node18 -->
<g id="node18" class="node">
<title>Node18</title>
<g id="a_node18"><a xlink:href="ICM20948Sensor_8cpp.html" target="_top" xlink:title=" ">
<polygon fill="none" stroke="black" points="750.5,-0.5 750.5,-19.5 868.5,-19.5 868.5,-0.5 750.5,-0.5"/>
<text text-anchor="middle" x="809.5" y="-7.5" font-family="Helvetica,sans-Serif" font-size="10.00">ICM20948Sensor.cpp</text>
</a>
</g>
</g>
<!-- Node17&#45;&gt;Node18 -->
<g id="edge21" class="edge">
<title>Node17&#45;&gt;Node18</title>
<path fill="none" stroke="midnightblue" d="M836.12,-47.86C829.36,-38.5 821.29,-27.33 815.82,-19.75"/>
<polygon fill="midnightblue" stroke="midnightblue" points="833.37,-50.03 842.06,-56.08 839.04,-45.93 833.37,-50.03"/>
</g>
<!-- Node19&#45;&gt;Node6 -->
<g id="edge25" class="edge">
<title>Node19&#45;&gt;Node6</title>
<path fill="none" stroke="midnightblue" d="M982.52,-50.9C966.39,-41 945.32,-28.07 931.6,-19.65"/>
<polygon fill="midnightblue" stroke="midnightblue" points="981.01,-54.08 991.36,-56.32 984.67,-48.11 981.01,-54.08"/>
</g>
<!-- Node20 -->
<g id="node20" class="node">
<title>Node20</title>
<g id="a_node20"><a xlink:href="INA260Sensor_8cpp.html" target="_top" xlink:title=" ">
<polygon fill="none" stroke="black" points="966.5,-0.5 966.5,-19.5 1070.5,-19.5 1070.5,-0.5 966.5,-0.5"/>
<text text-anchor="middle" x="1018.5" y="-7.5" font-family="Helvetica,sans-Serif" font-size="10.00">INA260Sensor.cpp</text>
</a>
</g>
</g>
<!-- Node19&#45;&gt;Node20 -->
<g id="edge24" class="edge">
<title>Node19&#45;&gt;Node20</title>
<path fill="none" stroke="midnightblue" d="M1010.05,-46.1C1012.21,-37.14 1014.68,-26.86 1016.39,-19.75"/>
<polygon fill="midnightblue" stroke="midnightblue" points="1006.58,-45.54 1007.65,-56.08 1013.39,-47.18 1006.58,-45.54"/>
</g>
<!-- Node21&#45;&gt;Node6 -->
<g id="edge28" class="edge">
<title>Node21&#45;&gt;Node6</title>
<path fill="none" stroke="midnightblue" d="M1080,-53.8C1040.92,-43.51 983.89,-28.49 948.82,-19.25"/>
<polygon fill="midnightblue" stroke="midnightblue" points="1079.46,-57.28 1090.02,-56.44 1081.24,-50.51 1079.46,-57.28"/>
</g>
<!-- Node22 -->
<g id="node22" class="node">
<title>Node22</title>
<g id="a_node22"><a xlink:href="LSM9DS1Sensor_8cpp.html" target="_top" xlink:title=" ">
<polygon fill="none" stroke="black" points="1089,-0.5 1089,-19.5 1204,-19.5 1204,-0.5 1089,-0.5"/>
<text text-anchor="middle" x="1146.5" y="-7.5" font-family="Helvetica,sans-Serif" font-size="10.00">LSM9DS1Sensor.cpp</text>
</a>
</g>
</g>
<!-- Node21&#45;&gt;Node22 -->
<g id="edge27" class="edge">
<title>Node21&#45;&gt;Node22</title>
<path fill="none" stroke="midnightblue" d="M1130.64,-46.69C1134.68,-37.59 1139.38,-27.01 1142.61,-19.75"/>
<polygon fill="midnightblue" stroke="midnightblue" points="1127.33,-45.52 1126.46,-56.08 1133.72,-48.37 1127.33,-45.52"/>
</g>
<!-- Node23&#45;&gt;Node6 -->
<g id="edge30" class="edge">
<title>Node23&#45;&gt;Node6</title>
<path fill="none" stroke="midnightblue" d="M1182.32,-55.74C1111.27,-45.07 999.41,-27.99 957.5,-20 954.7,-19.47 951.8,-18.88 948.9,-18.27"/>
<polygon fill="midnightblue" stroke="midnightblue" points="1182.09,-59.24 1192.49,-57.27 1183.12,-52.32 1182.09,-59.24"/>
</g>
<!-- Node24 -->
<g id="node24" class="node">
<title>Node24</title>
<g id="a_node24"><a xlink:href="MTK3339Sensor_8cpp.html" target="_top" xlink:title=" ">
<polygon fill="none" stroke="black" points="1222,-0.5 1222,-19.5 1337,-19.5 1337,-0.5 1222,-0.5"/>
<text text-anchor="middle" x="1279.5" y="-7.5" font-family="Helvetica,sans-Serif" font-size="10.00">MTK3339Sensor.cpp</text>
</a>
</g>
</g>
<!-- Node23&#45;&gt;Node24 -->
<g id="edge31" class="edge">
<title>Node23&#45;&gt;Node24</title>
<path fill="none" stroke="midnightblue" d="M1255.8,-47.57C1261.82,-38.27 1268.97,-27.25 1273.83,-19.75"/>
<polygon fill="midnightblue" stroke="midnightblue" points="1252.78,-45.79 1250.28,-56.08 1258.66,-49.6 1252.78,-45.79"/>
</g>
<!-- Node25&#45;&gt;Node6 -->
<g id="edge33" class="edge">
<title>Node25&#45;&gt;Node6</title>
<path fill="none" stroke="midnightblue" d="M1304.38,-55.94C1149.61,-35.62 1107.65,-44.57 957.5,-20 954.69,-19.54 951.78,-19 948.87,-18.43"/>
<polygon fill="midnightblue" stroke="midnightblue" points="1304.37,-59.47 1314.74,-57.32 1305.29,-52.53 1304.37,-59.47"/>
</g>
<!-- Node26 -->
<g id="node26" class="node">
<title>Node26</title>
<g id="a_node26"><a xlink:href="SGP30Sensor_8cpp.html" target="_top" xlink:title=" ">
<polygon fill="none" stroke="black" points="1355,-0.5 1355,-19.5 1456,-19.5 1456,-0.5 1355,-0.5"/>
<text text-anchor="middle" x="1405.5" y="-7.5" font-family="Helvetica,sans-Serif" font-size="10.00">SGP30Sensor.cpp</text>
</a>
</g>
</g>
<!-- Node25&#45;&gt;Node26 -->
<g id="edge34" class="edge">
<title>Node25&#45;&gt;Node26</title>
<path fill="none" stroke="midnightblue" d="M1373.61,-48.43C1381.68,-38.97 1391.46,-27.48 1398.05,-19.75"/>
<polygon fill="midnightblue" stroke="midnightblue" points="1370.92,-46.2 1367.1,-56.08 1376.25,-50.74 1370.92,-46.2"/>
</g>
<!-- Node27&#45;&gt;Node6 -->
<g id="edge36" class="edge">
<title>Node27&#45;&gt;Node6</title>
<path fill="none" stroke="midnightblue" d="M1411.7,-56.02C1209.41,-31.9 1154.84,-49.85 957.5,-20 954.68,-19.57 951.77,-19.06 948.86,-18.5"/>
<polygon fill="midnightblue" stroke="midnightblue" points="1411.41,-59.51 1421.75,-57.24 1412.25,-52.56 1411.41,-59.51"/>
</g>
<!-- Node28 -->
<g id="node28" class="node">
<title>Node28</title>
<g id="a_node28"><a xlink:href="SHT31Sensor_8cpp.html" target="_top" xlink:title=" ">
<polygon fill="none" stroke="black" points="1474,-0.5 1474,-19.5 1575,-19.5 1575,-0.5 1474,-0.5"/>
<text text-anchor="middle" x="1524.5" y="-7.5" font-family="Helvetica,sans-Serif" font-size="10.00">SHT31Sensor.cpp</text>
</a>
</g>
</g>
<!-- Node27&#45;&gt;Node28 -->
<g id="edge37" class="edge">
<title>Node27&#45;&gt;Node28</title>
<path fill="none" stroke="midnightblue" d="M1483.41,-49.25C1493.7,-39.67 1506.47,-27.79 1515.01,-19.83"/>
<polygon fill="midnightblue" stroke="midnightblue" points="1480.75,-46.95 1475.82,-56.32 1485.52,-52.07 1480.75,-46.95"/>
</g>
<!-- Node29&#45;&gt;Node6 -->
<g id="edge39" class="edge">
<title>Node29&#45;&gt;Node6</title>
<path fill="none" stroke="midnightblue" d="M1518.18,-55.98C1269.22,-26.97 1201.98,-55.11 957.5,-20 954.68,-19.6 951.77,-19.1 948.86,-18.55"/>
<polygon fill="midnightblue" stroke="midnightblue" points="1517.91,-59.47 1528.25,-57.17 1518.73,-52.52 1517.91,-59.47"/>
</g>
<!-- Node30 -->
<g id="node30" class="node">
<title>Node30</title>
<g id="a_node30"><a xlink:href="TempSensor_8cpp.html" target="_top" xlink:title=" ">
<polygon fill="none" stroke="black" points="1593,-0.5 1593,-19.5 1688,-19.5 1688,-0.5 1593,-0.5"/>
<text text-anchor="middle" x="1640.5" y="-7.5" font-family="Helvetica,sans-Serif" font-size="10.00">TempSensor.cpp</text>
</a>
</g>
</g>
<!-- Node29&#45;&gt;Node30 -->
<g id="edge40" class="edge">
<title>Node29&#45;&gt;Node30</title>
<path fill="none" stroke="midnightblue" d="M1589.81,-50.1C1602.41,-40.38 1618.43,-28.03 1629.05,-19.83"/>
<polygon fill="midnightblue" stroke="midnightblue" points="1587.53,-47.44 1581.75,-56.32 1591.8,-52.99 1587.53,-47.44"/>
</g>
<!-- Node32 -->
<g id="node32" class="node">
<title>Node32</title>
<g id="a_node32"><a xlink:href="ZOPT220Sensor_8cpp.html" target="_top" xlink:title=" ">
<polygon fill="none" stroke="black" points="1825,-0.5 1825,-19.5 1938,-19.5 1938,-0.5 1825,-0.5"/>
<text text-anchor="middle" x="1881.5" y="-7.5" font-family="Helvetica,sans-Serif" font-size="10.00">ZOPT220Sensor.cpp</text>
</a>
</g>
</g>
<!-- Node31&#45;&gt;Node32 -->
<g id="edge42" class="edge">
<title>Node31&#45;&gt;Node32</title>
<path fill="none" stroke="midnightblue" d="M1871.01,-46.4C1873.69,-37.36 1876.78,-26.94 1878.91,-19.75"/>
<polygon fill="midnightblue" stroke="midnightblue" points="1867.63,-45.5 1868.14,-56.08 1874.34,-47.49 1867.63,-45.5"/>
</g>
</g>
</svg>
