<?xml version="1.0" encoding="UTF-8" standalone="no"?>
<!DOCTYPE svg PUBLIC "-//W3C//DTD SVG 1.1//EN"
 "http://www.w3.org/Graphics/SVG/1.1/DTD/svg11.dtd">
<!-- Generated by graphviz version 2.43.0 (0)
 -->
<!-- Title: Sensor.h Pages: 1 -->
<svg width="1056pt" height="140pt"
 viewBox="0.00 0.00 1056.00 140.00" xmlns="http://www.w3.org/2000/svg" xmlns:xlink="http://www.w3.org/1999/xlink">
<g id="graph0" class="graph" transform="scale(1 1) rotate(0) translate(4 136)">
<title>Sensor.h</title>
<!-- Node1 -->
<g id="node1" class="node">
<title>Node1</title>
<g id="a_node1"><a xlink:title=" ">
<polygon fill="#bfbfbf" stroke="black" points="491.5,-112.5 491.5,-131.5 549.5,-131.5 549.5,-112.5 491.5,-112.5"/>
<text text-anchor="middle" x="520.5" y="-119.5" font-family="Helvetica,sans-Serif" font-size="10.00">Sensor.h</text>
</a>
</g>
</g>
<!-- Node2 -->
<g id="node2" class="node">
<title>Node2</title>
<g id="a_node2"><a xlink:href="AnalogSensor_8h.html" target="_top" xlink:title=" ">
<polygon fill="none" stroke="black" points="64.5,-56.5 64.5,-75.5 156.5,-75.5 156.5,-56.5 64.5,-56.5"/>
<text text-anchor="middle" x="110.5" y="-63.5" font-family="Helvetica,sans-Serif" font-size="10.00">AnalogSensor.h</text>
</a>
</g>
</g>
<!-- Node1&#45;&gt;Node2 -->
<g id="edge1" class="edge">
<title>Node1&#45;&gt;Node2</title>
<path fill="none" stroke="midnightblue" d="M481.18,-116.49C415.64,-108.86 279.94,-92.61 165.5,-76 162.63,-75.58 159.67,-75.14 156.69,-74.68"/>
<polygon fill="midnightblue" stroke="midnightblue" points="481.12,-120 491.46,-117.68 481.93,-113.05 481.12,-120"/>
</g>
<!-- Node4 -->
<g id="node4" class="node">
<title>Node4</title>
<g id="a_node4"><a xlink:href="main_8cpp.html" target="_top" xlink:title=" ">
<polygon fill="none" stroke="black" points="489.5,-0.5 489.5,-19.5 551.5,-19.5 551.5,-0.5 489.5,-0.5"/>
<text text-anchor="middle" x="520.5" y="-7.5" font-family="Helvetica,sans-Serif" font-size="10.00">main.cpp</text>
</a>
</g>
</g>
<!-- Node1&#45;&gt;Node4 -->
<g id="edge25" class="edge">
<title>Node1&#45;&gt;Node4</title>
<path fill="none" stroke="midnightblue" d="M520.5,-102.35C520.5,-78.25 520.5,-37.31 520.5,-19.59"/>
<polygon fill="midnightblue" stroke="midnightblue" points="517,-102.37 520.5,-112.37 524,-102.37 517,-102.37"/>
</g>
<!-- Node5 -->
<g id="node5" class="node">
<title>Node5</title>
<g id="a_node5"><a xlink:href="BME680Sensor_8h.html" target="_top" xlink:title=" ">
<polygon fill="none" stroke="black" points="174.5,-56.5 174.5,-75.5 272.5,-75.5 272.5,-56.5 174.5,-56.5"/>
<text text-anchor="middle" x="223.5" y="-63.5" font-family="Helvetica,sans-Serif" font-size="10.00">BME680Sensor.h</text>
</a>
</g>
</g>
<!-- Node1&#45;&gt;Node5 -->
<g id="edge4" class="edge">
<title>Node1&#45;&gt;Node5</title>
<path fill="none" stroke="midnightblue" d="M481.54,-113.92C427.16,-104.03 328.64,-86.12 270.34,-75.52"/>
<polygon fill="midnightblue" stroke="midnightblue" points="481.02,-117.38 491.48,-115.72 482.27,-110.49 481.02,-117.38"/>
</g>
<!-- Node7 -->
<g id="node7" class="node">
<title>Node7</title>
<g id="a_node7"><a xlink:href="GeigerSensor_8h.html" target="_top" xlink:title=" ">
<polygon fill="none" stroke="black" points="290.5,-56.5 290.5,-75.5 380.5,-75.5 380.5,-56.5 290.5,-56.5"/>
<text text-anchor="middle" x="335.5" y="-63.5" font-family="Helvetica,sans-Serif" font-size="10.00">GeigerSensor.h</text>
</a>
</g>
</g>
<!-- Node1&#45;&gt;Node7 -->
<g id="edge7" class="edge">
<title>Node1&#45;&gt;Node7</title>
<path fill="none" stroke="midnightblue" d="M481.33,-109.57C446.43,-99.38 396.15,-84.7 364.68,-75.52"/>
<polygon fill="midnightblue" stroke="midnightblue" points="480.61,-113 491.19,-112.44 482.57,-106.28 480.61,-113"/>
</g>
<!-- Node9 -->
<g id="node9" class="node">
<title>Node9</title>
<g id="a_node9"><a xlink:href="INA260Sensor_8h.html" target="_top" xlink:title=" ">
<polygon fill="none" stroke="black" points="399,-56.5 399,-75.5 492,-75.5 492,-56.5 399,-56.5"/>
<text text-anchor="middle" x="445.5" y="-63.5" font-family="Helvetica,sans-Serif" font-size="10.00">INA260Sensor.h</text>
</a>
</g>
</g>
<!-- Node1&#45;&gt;Node9 -->
<g id="edge10" class="edge">
<title>Node1&#45;&gt;Node9</title>
<path fill="none" stroke="midnightblue" d="M500.19,-106.38C486.64,-96.62 469.26,-84.11 457.77,-75.83"/>
<polygon fill="midnightblue" stroke="midnightblue" points="498.29,-109.32 508.45,-112.32 502.38,-103.64 498.29,-109.32"/>
</g>
<!-- Node11 -->
<g id="node11" class="node">
<title>Node11</title>
<g id="a_node11"><a xlink:href="LSM9DS1Sensor_8h.html" target="_top" xlink:title=" ">
<polygon fill="none" stroke="black" points="548.5,-56.5 548.5,-75.5 652.5,-75.5 652.5,-56.5 548.5,-56.5"/>
<text text-anchor="middle" x="600.5" y="-63.5" font-family="Helvetica,sans-Serif" font-size="10.00">LSM9DS1Sensor.h</text>
</a>
</g>
</g>
<!-- Node1&#45;&gt;Node11 -->
<g id="edge13" class="edge">
<title>Node1&#45;&gt;Node11</title>
<path fill="none" stroke="midnightblue" d="M541.8,-106.62C556.42,-96.76 575.33,-83.99 587.68,-75.65"/>
<polygon fill="midnightblue" stroke="midnightblue" points="539.68,-103.83 533.35,-112.32 543.6,-109.63 539.68,-103.83"/>
</g>
<!-- Node13 -->
<g id="node13" class="node">
<title>Node13</title>
<g id="a_node13"><a xlink:href="SHT31Sensor_8h.html" target="_top" xlink:title=" ">
<polygon fill="none" stroke="black" points="671,-56.5 671,-75.5 760,-75.5 760,-56.5 671,-56.5"/>
<text text-anchor="middle" x="715.5" y="-63.5" font-family="Helvetica,sans-Serif" font-size="10.00">SHT31Sensor.h</text>
</a>
</g>
</g>
<!-- Node1&#45;&gt;Node13 -->
<g id="edge16" class="edge">
<title>Node1&#45;&gt;Node13</title>
<path fill="none" stroke="midnightblue" d="M559.56,-110.18C596.32,-100 650.63,-84.97 684.49,-75.59"/>
<polygon fill="midnightblue" stroke="midnightblue" points="558.4,-106.87 549.69,-112.92 560.26,-113.62 558.4,-106.87"/>
</g>
<!-- Node15 -->
<g id="node15" class="node">
<title>Node15</title>
<g id="a_node15"><a xlink:href="TempSensor_8h.html" target="_top" xlink:title=" ">
<polygon fill="none" stroke="black" points="777.5,-56.5 777.5,-75.5 861.5,-75.5 861.5,-56.5 777.5,-56.5"/>
<text text-anchor="middle" x="819.5" y="-63.5" font-family="Helvetica,sans-Serif" font-size="10.00">TempSensor.h</text>
</a>
</g>
</g>
<!-- Node1&#45;&gt;Node15 -->
<g id="edge19" class="edge">
<title>Node1&#45;&gt;Node15</title>
<path fill="none" stroke="midnightblue" d="M559.66,-113.93C615.96,-103.76 719.35,-85.09 777.3,-74.62"/>
<polygon fill="midnightblue" stroke="midnightblue" points="558.93,-110.5 549.71,-115.72 560.18,-117.39 558.93,-110.5"/>
</g>
<!-- Node17 -->
<g id="node17" class="node">
<title>Node17</title>
<g id="a_node17"><a xlink:href="ZOPT220Sensor_8h.html" target="_top" xlink:title=" ">
<polygon fill="none" stroke="black" points="879.5,-56.5 879.5,-75.5 981.5,-75.5 981.5,-56.5 879.5,-56.5"/>
<text text-anchor="middle" x="930.5" y="-63.5" font-family="Helvetica,sans-Serif" font-size="10.00">ZOPT220Sensor.h</text>
</a>
</g>
</g>
<!-- Node1&#45;&gt;Node17 -->
<g id="edge22" class="edge">
<title>Node1&#45;&gt;Node17</title>
<path fill="none" stroke="midnightblue" d="M559.73,-116.23C624.5,-108.29 757.84,-91.69 870.5,-76 873.42,-75.59 876.42,-75.17 879.45,-74.73"/>
<polygon fill="midnightblue" stroke="midnightblue" points="559.07,-112.78 549.57,-117.47 559.92,-119.73 559.07,-112.78"/>
</g>
<!-- Node3 -->
<g id="node3" class="node">
<title>Node3</title>
<g id="a_node3"><a xlink:href="AnalogSensor_8cpp.html" target="_top" xlink:title=" ">
<polygon fill="none" stroke="black" points="0,-0.5 0,-19.5 103,-19.5 103,-0.5 0,-0.5"/>
<text text-anchor="middle" x="51.5" y="-7.5" font-family="Helvetica,sans-Serif" font-size="10.00">AnalogSensor.cpp</text>
</a>
</g>
</g>
<!-- Node2&#45;&gt;Node3 -->
<g id="edge2" class="edge">
<title>Node2&#45;&gt;Node3</title>
<path fill="none" stroke="midnightblue" d="M93.61,-49.54C83.09,-39.91 69.93,-27.87 61.15,-19.83"/>
<polygon fill="midnightblue" stroke="midnightblue" points="91.28,-52.15 101.02,-56.32 96.01,-46.99 91.28,-52.15"/>
</g>
<!-- Node2&#45;&gt;Node4 -->
<g id="edge3" class="edge">
<title>Node2&#45;&gt;Node4</title>
<path fill="none" stroke="midnightblue" d="M166.94,-55.87C306.84,-36.92 344.82,-42.95 480.5,-20 483.31,-19.53 486.21,-18.98 489.12,-18.4"/>
<polygon fill="midnightblue" stroke="midnightblue" points="166.12,-52.45 156.69,-57.28 167.07,-59.38 166.12,-52.45"/>
</g>
<!-- Node5&#45;&gt;Node4 -->
<g id="edge6" class="edge">
<title>Node5&#45;&gt;Node4</title>
<path fill="none" stroke="midnightblue" d="M282.98,-55.42C335.17,-46.81 413.04,-33.49 480.5,-20 483.29,-19.44 486.19,-18.84 489.09,-18.22"/>
<polygon fill="midnightblue" stroke="midnightblue" points="282.2,-52 272.9,-57.07 283.34,-58.91 282.2,-52"/>
</g>
<!-- Node6 -->
<g id="node6" class="node">
<title>Node6</title>
<g id="a_node6"><a xlink:href="BME680Sensor_8cpp.html" target="_top" xlink:title=" ">
<polygon fill="none" stroke="black" points="121,-0.5 121,-19.5 230,-19.5 230,-0.5 121,-0.5"/>
<text text-anchor="middle" x="175.5" y="-7.5" font-family="Helvetica,sans-Serif" font-size="10.00">BME680Sensor.cpp</text>
</a>
</g>
</g>
<!-- Node5&#45;&gt;Node6 -->
<g id="edge5" class="edge">
<title>Node5&#45;&gt;Node6</title>
<path fill="none" stroke="midnightblue" d="M208.77,-48.43C200.36,-38.97 190.15,-27.48 183.28,-19.75"/>
<polygon fill="midnightblue" stroke="midnightblue" points="206.31,-50.93 215.57,-56.08 211.55,-46.28 206.31,-50.93"/>
</g>
<!-- Node7&#45;&gt;Node4 -->
<g id="edge9" class="edge">
<title>Node7&#45;&gt;Node4</title>
<path fill="none" stroke="midnightblue" d="M374.67,-53.57C409.57,-43.38 459.85,-28.7 491.32,-19.52"/>
<polygon fill="midnightblue" stroke="midnightblue" points="373.43,-50.28 364.81,-56.44 375.39,-57 373.43,-50.28"/>
</g>
<!-- Node8 -->
<g id="node8" class="node">
<title>Node8</title>
<g id="a_node8"><a xlink:href="GeigerSensor_8cpp.html" target="_top" xlink:title=" ">
<polygon fill="none" stroke="black" points="248,-0.5 248,-19.5 349,-19.5 349,-0.5 248,-0.5"/>
<text text-anchor="middle" x="298.5" y="-7.5" font-family="Helvetica,sans-Serif" font-size="10.00">GeigerSensor.cpp</text>
</a>
</g>
</g>
<!-- Node7&#45;&gt;Node8 -->
<g id="edge8" class="edge">
<title>Node7&#45;&gt;Node8</title>
<path fill="none" stroke="midnightblue" d="M323.55,-47.57C317.19,-38.27 309.63,-27.25 304.5,-19.75"/>
<polygon fill="midnightblue" stroke="midnightblue" points="320.85,-49.81 329.39,-56.08 326.63,-45.86 320.85,-49.81"/>
</g>
<!-- Node9&#45;&gt;Node4 -->
<g id="edge12" class="edge">
<title>Node9&#45;&gt;Node4</title>
<path fill="none" stroke="midnightblue" d="M465.81,-50.38C479.36,-40.62 496.74,-28.11 508.23,-19.83"/>
<polygon fill="midnightblue" stroke="midnightblue" points="463.62,-47.64 457.55,-56.32 467.71,-53.32 463.62,-47.64"/>
</g>
<!-- Node10 -->
<g id="node10" class="node">
<title>Node10</title>
<g id="a_node10"><a xlink:href="INA260Sensor_8cpp.html" target="_top" xlink:title=" ">
<polygon fill="none" stroke="black" points="367.5,-0.5 367.5,-19.5 471.5,-19.5 471.5,-0.5 367.5,-0.5"/>
<text text-anchor="middle" x="419.5" y="-7.5" font-family="Helvetica,sans-Serif" font-size="10.00">INA260Sensor.cpp</text>
</a>
</g>
</g>
<!-- Node9&#45;&gt;Node10 -->
<g id="edge11" class="edge">
<title>Node9&#45;&gt;Node10</title>
<path fill="none" stroke="midnightblue" d="M436.83,-46.98C432.41,-37.82 427.25,-27.09 423.71,-19.75"/>
<polygon fill="midnightblue" stroke="midnightblue" points="433.71,-48.59 441.21,-56.08 440.02,-45.55 433.71,-48.59"/>
</g>
<!-- Node11&#45;&gt;Node4 -->
<g id="edge15" class="edge">
<title>Node11&#45;&gt;Node4</title>
<path fill="none" stroke="midnightblue" d="M579.2,-50.62C564.58,-40.76 545.67,-27.99 533.32,-19.65"/>
<polygon fill="midnightblue" stroke="midnightblue" points="577.4,-53.63 587.65,-56.32 581.32,-47.83 577.4,-53.63"/>
</g>
<!-- Node12 -->
<g id="node12" class="node">
<title>Node12</title>
<g id="a_node12"><a xlink:href="LSM9DS1Sensor_8cpp.html" target="_top" xlink:title=" ">
<polygon fill="none" stroke="black" points="570,-0.5 570,-19.5 685,-19.5 685,-0.5 570,-0.5"/>
<text text-anchor="middle" x="627.5" y="-7.5" font-family="Helvetica,sans-Serif" font-size="10.00">LSM9DS1Sensor.cpp</text>
</a>
</g>
</g>
<!-- Node11&#45;&gt;Node12 -->
<g id="edge14" class="edge">
<title>Node11&#45;&gt;Node12</title>
<path fill="none" stroke="midnightblue" d="M609.51,-46.98C614.09,-37.82 619.45,-27.09 623.12,-19.75"/>
<polygon fill="midnightblue" stroke="midnightblue" points="606.3,-45.57 604.96,-56.08 612.56,-48.7 606.3,-45.57"/>
</g>
<!-- Node13&#45;&gt;Node4 -->
<g id="edge17" class="edge">
<title>Node13&#45;&gt;Node4</title>
<path fill="none" stroke="midnightblue" d="M674.69,-53.7C637.89,-43.51 584.57,-28.74 551.25,-19.52"/>
<polygon fill="midnightblue" stroke="midnightblue" points="674.03,-57.15 684.6,-56.44 675.9,-50.4 674.03,-57.15"/>
</g>
<!-- Node14 -->
<g id="node14" class="node">
<title>Node14</title>
<g id="a_node14"><a xlink:href="SHT31Sensor_8cpp.html" target="_top" xlink:title=" ">
<polygon fill="none" stroke="black" points="703,-0.5 703,-19.5 804,-19.5 804,-0.5 703,-0.5"/>
<text text-anchor="middle" x="753.5" y="-7.5" font-family="Helvetica,sans-Serif" font-size="10.00">SHT31Sensor.cpp</text>
</a>
</g>
</g>
<!-- Node13&#45;&gt;Node14 -->
<g id="edge18" class="edge">
<title>Node13&#45;&gt;Node14</title>
<path fill="none" stroke="midnightblue" d="M727.56,-47.86C734.14,-38.5 742.01,-27.33 747.34,-19.75"/>
<polygon fill="midnightblue" stroke="midnightblue" points="724.67,-45.89 721.77,-56.08 730.39,-49.92 724.67,-45.89"/>
</g>
<!-- Node15&#45;&gt;Node4 -->
<g id="edge20" class="edge">
<title>Node15&#45;&gt;Node4</title>
<path fill="none" stroke="midnightblue" d="M767.46,-55.65C675.42,-39.56 650.42,-37.44 561.5,-20 558.35,-19.38 555.08,-18.71 551.81,-18.02"/>
<polygon fill="midnightblue" stroke="midnightblue" points="767.04,-59.13 777.49,-57.42 768.25,-52.24 767.04,-59.13"/>
</g>
<!-- Node16 -->
<g id="node16" class="node">
<title>Node16</title>
<g id="a_node16"><a xlink:href="TempSensor_8cpp.html" target="_top" xlink:title=" ">
<polygon fill="none" stroke="black" points="822,-0.5 822,-19.5 917,-19.5 917,-0.5 822,-0.5"/>
<text text-anchor="middle" x="869.5" y="-7.5" font-family="Helvetica,sans-Serif" font-size="10.00">TempSensor.cpp</text>
</a>
</g>
</g>
<!-- Node15&#45;&gt;Node16 -->
<g id="edge21" class="edge">
<title>Node15&#45;&gt;Node16</title>
<path fill="none" stroke="midnightblue" d="M834.58,-48.72C843.39,-39.2 854.17,-27.56 861.4,-19.75"/>
<polygon fill="midnightblue" stroke="midnightblue" points="831.98,-46.37 827.76,-56.08 837.12,-51.12 831.98,-46.37"/>
</g>
<!-- Node17&#45;&gt;Node4 -->
<g id="edge23" class="edge">
<title>Node17&#45;&gt;Node4</title>
<path fill="none" stroke="midnightblue" d="M869.37,-55.9C731.72,-37.97 694.66,-42.32 561.5,-20 558.34,-19.47 555.05,-18.86 551.78,-18.2"/>
<polygon fill="midnightblue" stroke="midnightblue" points="869.08,-59.39 879.45,-57.23 870,-52.45 869.08,-59.39"/>
</g>
<!-- Node18 -->
<g id="node18" class="node">
<title>Node18</title>
<g id="a_node18"><a xlink:href="ZOPT220Sensor_8cpp.html" target="_top" xlink:title=" ">
<polygon fill="none" stroke="black" points="935,-0.5 935,-19.5 1048,-19.5 1048,-0.5 935,-0.5"/>
<text text-anchor="middle" x="991.5" y="-7.5" font-family="Helvetica,sans-Serif" font-size="10.00">ZOPT220Sensor.cpp</text>
</a>
</g>
</g>
<!-- Node17&#45;&gt;Node18 -->
<g id="edge24" class="edge">
<title>Node17&#45;&gt;Node18</title>
<path fill="none" stroke="midnightblue" d="M947.97,-49.54C958.84,-39.91 972.44,-27.87 981.52,-19.83"/>
<polygon fill="midnightblue" stroke="midnightblue" points="945.47,-47.07 940.3,-56.32 950.11,-52.32 945.47,-47.07"/>
</g>
</g>
</svg>
