<?xml version="1.0" encoding="UTF-8" standalone="no"?>
<!DOCTYPE svg PUBLIC "-//W3C//DTD SVG 1.1//EN"
 "http://www.w3.org/Graphics/SVG/1.1/DTD/svg11.dtd">
<!-- Generated by graphviz version 2.43.0 (0)
 -->
<!-- Title: Sensor.h Pages: 1 -->
<!--zoomable 140 -->
<svg id="main" version="1.1" xmlns="http://www.w3.org/2000/svg" xmlns:xlink="http://www.w3.org/1999/xlink" xml:space="preserve" onload="init(evt)">
<style type="text/css"><![CDATA[
.edge:hover path { stroke: red; }
.edge:hover polygon { stroke: red; fill: red; }
]]></style>
<script type="text/javascript"><![CDATA[
var edges = document.getElementsByTagName('g');
if (edges && edges.length) {
  for (var i=0;i<edges.length;i++) {
    if (edges[i].id.substr(0,4)=='edge') {
      edges[i].setAttribute('class','edge');
    }
  }
}
]]></script>
        <defs>
                <circle id="rim" cx="0" cy="0" r="7"/>
                <circle id="rim2" cx="0" cy="0" r="3.5"/>
                <g id="zoomPlus">
                        <use xlink:href="#rim" fill="#404040">
                                <set attributeName="fill" to="#808080" begin="zoomplus.mouseover" end="zoomplus.mouseout"/>
                        </use>
                        <path d="M-4,0h8M0,-4v8" fill="none" stroke="white" stroke-width="1.5" pointer-events="none"/>
                </g>
                <g id="zoomMin">
                        <use xlink:href="#rim" fill="#404040">
                                <set attributeName="fill" to="#808080" begin="zoomminus.mouseover" end="zoomminus.mouseout"/>
                        </use>
                        <path d="M-4,0h8" fill="none" stroke="white" stroke-width="1.5" pointer-events="none"/>
                </g>
                <g id="dirArrow">
                        <path fill="none" stroke="white" stroke-width="1.5" d="M0,-3.0v7 M-2.5,-0.5L0,-3.0L2.5,-0.5"/>
                </g>
               <g id="resetDef">
                       <use xlink:href="#rim2" fill="#404040">
                               <set attributeName="fill" to="#808080" begin="reset.mouseover" end="reset.mouseout"/>
                       </use>
               </g>
        </defs>

<script type="text/javascript">
var viewWidth = 1811;
var viewHeight = 140;
var sectionId = 'dynsection-1';
</script>
<script xlink:href="svgpan.js"/>
<svg id="graph" class="graph">
<g id="viewport">
<title>Sensor.h</title>
<!-- Node1 -->
<g id="node1" class="node">
<title>Node1</title>
<g id="a_node1"><a xlink:title=" ">
<polygon fill="#bfbfbf" stroke="black" points="838.5,-112.5 838.5,-131.5 896.5,-131.5 896.5,-112.5 838.5,-112.5"/>
<text text-anchor="middle" x="867.5" y="-119.5" font-family="Helvetica,sans-Serif" font-size="10.00">Sensor.h</text>
</a>
</g>
</g>
<!-- Node2 -->
<g id="node2" class="node">
<title>Node2</title>
<g id="a_node2"><a xlink:href="AnalogSensor_8h.html" target="_top" xlink:title=" ">
<polygon fill="none" stroke="black" points="101.5,-56.5 101.5,-75.5 193.5,-75.5 193.5,-56.5 101.5,-56.5"/>
<text text-anchor="middle" x="147.5" y="-63.5" font-family="Helvetica,sans-Serif" font-size="10.00">AnalogSensor.h</text>
</a>
</g>
</g>
<!-- Node1&#45;&gt;Node2 -->
<g id="edge1" class="edge">
<title>Node1&#45;&gt;Node2</title>
<path fill="none" stroke="midnightblue" d="M827.99,-119.63C724.82,-115.78 438.98,-103.29 202.5,-76 199.62,-75.67 196.65,-75.29 193.67,-74.88"/>
<polygon fill="midnightblue" stroke="midnightblue" points="828.12,-123.14 838.24,-120.01 828.38,-116.14 828.12,-123.14"/>
</g>
<!-- Node4 -->
<g id="node4" class="node">
<title>Node4</title>
<g id="a_node4"><a xlink:href="main_8cpp.html" target="_top" xlink:title=" ">
<polygon fill="none" stroke="black" points="750.5,-0.5 750.5,-19.5 812.5,-19.5 812.5,-0.5 750.5,-0.5"/>
<text text-anchor="middle" x="781.5" y="-7.5" font-family="Helvetica,sans-Serif" font-size="10.00">main.cpp</text>
</a>
</g>
</g>
<!-- Node1&#45;&gt;Node4 -->
<g id="edge42" class="edge">
<title>Node1&#45;&gt;Node4</title>
<path fill="none" stroke="midnightblue" d="M845.72,-106.2C835.05,-98.17 822.58,-87.54 813.5,-76 799.34,-58.01 789.14,-32.75 784.43,-19.64"/>
<polygon fill="midnightblue" stroke="midnightblue" points="844,-109.27 854.15,-112.29 848.1,-103.6 844,-109.27"/>
</g>
<!-- Node5 -->
<g id="node5" class="node">
<title>Node5</title>
<g id="a_node5"><a xlink:href="AS7331Sensor_8h.html" target="_top" xlink:title=" ">
<polygon fill="none" stroke="black" points="212,-56.5 212,-75.5 307,-75.5 307,-56.5 212,-56.5"/>
<text text-anchor="middle" x="259.5" y="-63.5" font-family="Helvetica,sans-Serif" font-size="10.00">AS7331Sensor.h</text>
</a>
</g>
</g>
<!-- Node1&#45;&gt;Node5 -->
<g id="edge4" class="edge">
<title>Node1&#45;&gt;Node5</title>
<path fill="none" stroke="midnightblue" d="M828.38,-118.82C738.02,-113.56 507.86,-98.89 316.5,-76 313.42,-75.63 310.24,-75.22 307.05,-74.78"/>
<polygon fill="midnightblue" stroke="midnightblue" points="828.26,-122.32 838.45,-119.4 828.67,-115.33 828.26,-122.32"/>
</g>
<!-- Node7 -->
<g id="node7" class="node">
<title>Node7</title>
<g id="a_node7"><a xlink:href="BME280Sensor_8h.html" target="_top" xlink:title=" ">
<polygon fill="none" stroke="black" points="325.5,-56.5 325.5,-75.5 423.5,-75.5 423.5,-56.5 325.5,-56.5"/>
<text text-anchor="middle" x="374.5" y="-63.5" font-family="Helvetica,sans-Serif" font-size="10.00">BME280Sensor.h</text>
</a>
</g>
</g>
<!-- Node1&#45;&gt;Node7 -->
<g id="edge7" class="edge">
<title>Node1&#45;&gt;Node7</title>
<path fill="none" stroke="midnightblue" d="M828.32,-117.62C751.99,-110.89 578.13,-94.82 432.5,-76 429.57,-75.62 426.56,-75.21 423.52,-74.79"/>
<polygon fill="midnightblue" stroke="midnightblue" points="828.16,-121.12 838.42,-118.51 828.77,-114.15 828.16,-121.12"/>
</g>
<!-- Node9 -->
<g id="node9" class="node">
<title>Node9</title>
<g id="a_node9"><a xlink:href="BME680Sensor_8h.html" target="_top" xlink:title=" ">
<polygon fill="none" stroke="black" points="441.5,-56.5 441.5,-75.5 539.5,-75.5 539.5,-56.5 441.5,-56.5"/>
<text text-anchor="middle" x="490.5" y="-63.5" font-family="Helvetica,sans-Serif" font-size="10.00">BME680Sensor.h</text>
</a>
</g>
</g>
<!-- Node1&#45;&gt;Node9 -->
<g id="edge10" class="edge">
<title>Node1&#45;&gt;Node9</title>
<path fill="none" stroke="midnightblue" d="M828.25,-115.64C768.04,-107.38 649.23,-90.92 548.5,-76 545.58,-75.57 542.57,-75.12 539.54,-74.66"/>
<polygon fill="midnightblue" stroke="midnightblue" points="828.07,-119.15 838.45,-117.04 829.02,-112.21 828.07,-119.15"/>
</g>
<!-- Node11 -->
<g id="node11" class="node">
<title>Node11</title>
<g id="a_node11"><a xlink:href="DS3231Sensor_8h.html" target="_top" xlink:title=" ">
<polygon fill="none" stroke="black" points="558,-56.5 558,-75.5 653,-75.5 653,-56.5 558,-56.5"/>
<text text-anchor="middle" x="605.5" y="-63.5" font-family="Helvetica,sans-Serif" font-size="10.00">DS3231Sensor.h</text>
</a>
</g>
</g>
<!-- Node1&#45;&gt;Node11 -->
<g id="edge13" class="edge">
<title>Node1&#45;&gt;Node11</title>
<path fill="none" stroke="midnightblue" d="M828.63,-112.99C780,-102.97 697.06,-85.87 647.16,-75.59"/>
<polygon fill="midnightblue" stroke="midnightblue" points="827.96,-116.42 838.46,-115.01 829.37,-109.57 827.96,-116.42"/>
</g>
<!-- Node13 -->
<g id="node13" class="node">
<title>Node13</title>
<g id="a_node13"><a xlink:href="ENS160Sensor_8h.html" target="_top" xlink:title=" ">
<polygon fill="none" stroke="black" points="671,-56.5 671,-75.5 766,-75.5 766,-56.5 671,-56.5"/>
<text text-anchor="middle" x="718.5" y="-63.5" font-family="Helvetica,sans-Serif" font-size="10.00">ENS160Sensor.h</text>
</a>
</g>
</g>
<!-- Node1&#45;&gt;Node13 -->
<g id="edge16" class="edge">
<title>Node1&#45;&gt;Node13</title>
<path fill="none" stroke="midnightblue" d="M834.13,-108.91C806.12,-98.75 766.8,-84.51 742,-75.52"/>
<polygon fill="midnightblue" stroke="midnightblue" points="833.3,-112.33 843.89,-112.44 835.68,-105.75 833.3,-112.33"/>
</g>
<!-- Node15 -->
<g id="node15" class="node">
<title>Node15</title>
<g id="a_node15"><a xlink:href="GeigerSensor_8h.html" target="_top" xlink:title=" ">
<polygon fill="none" stroke="black" points="822.5,-56.5 822.5,-75.5 912.5,-75.5 912.5,-56.5 822.5,-56.5"/>
<text text-anchor="middle" x="867.5" y="-63.5" font-family="Helvetica,sans-Serif" font-size="10.00">GeigerSensor.h</text>
</a>
</g>
</g>
<!-- Node1&#45;&gt;Node15 -->
<g id="edge19" class="edge">
<title>Node1&#45;&gt;Node15</title>
<path fill="none" stroke="midnightblue" d="M867.5,-101.8C867.5,-92.91 867.5,-82.78 867.5,-75.75"/>
<polygon fill="midnightblue" stroke="midnightblue" points="864,-102.08 867.5,-112.08 871,-102.08 864,-102.08"/>
</g>
<!-- Node17 -->
<g id="node17" class="node">
<title>Node17</title>
<g id="a_node17"><a xlink:href="INA260Sensor_8h.html" target="_top" xlink:title=" ">
<polygon fill="none" stroke="black" points="931,-56.5 931,-75.5 1024,-75.5 1024,-56.5 931,-56.5"/>
<text text-anchor="middle" x="977.5" y="-63.5" font-family="Helvetica,sans-Serif" font-size="10.00">INA260Sensor.h</text>
</a>
</g>
</g>
<!-- Node1&#45;&gt;Node17 -->
<g id="edge22" class="edge">
<title>Node1&#45;&gt;Node17</title>
<path fill="none" stroke="midnightblue" d="M894.26,-107.86C914.66,-97.85 942.17,-84.35 959.87,-75.65"/>
<polygon fill="midnightblue" stroke="midnightblue" points="892.61,-104.78 885.17,-112.32 895.69,-111.06 892.61,-104.78"/>
</g>
<!-- Node19 -->
<g id="node19" class="node">
<title>Node19</title>
<g id="a_node19"><a xlink:href="LSM9DS1Sensor_8h.html" target="_top" xlink:title=" ">
<polygon fill="none" stroke="black" points="1042.5,-56.5 1042.5,-75.5 1146.5,-75.5 1146.5,-56.5 1042.5,-56.5"/>
<text text-anchor="middle" x="1094.5" y="-63.5" font-family="Helvetica,sans-Serif" font-size="10.00">LSM9DS1Sensor.h</text>
</a>
</g>
</g>
<!-- Node1&#45;&gt;Node19 -->
<g id="edge25" class="edge">
<title>Node1&#45;&gt;Node19</title>
<path fill="none" stroke="midnightblue" d="M906.48,-111.73C949.22,-101.56 1017.23,-85.38 1058.67,-75.52"/>
<polygon fill="midnightblue" stroke="midnightblue" points="905.63,-108.33 896.71,-114.05 907.25,-115.14 905.63,-108.33"/>
</g>
<!-- Node21 -->
<g id="node21" class="node">
<title>Node21</title>
<g id="a_node21"><a xlink:href="MTK3339Sensor_8h.html" target="_top" xlink:title=" ">
<polygon fill="none" stroke="black" points="1164.5,-56.5 1164.5,-75.5 1268.5,-75.5 1268.5,-56.5 1164.5,-56.5"/>
<text text-anchor="middle" x="1216.5" y="-63.5" font-family="Helvetica,sans-Serif" font-size="10.00">MTK3339Sensor.h</text>
</a>
</g>
</g>
<!-- Node1&#45;&gt;Node21 -->
<g id="edge28" class="edge">
<title>Node1&#45;&gt;Node21</title>
<path fill="none" stroke="midnightblue" d="M906.59,-114.95C969.62,-105.2 1093.73,-86 1164.26,-75.08"/>
<polygon fill="midnightblue" stroke="midnightblue" points="906,-111.5 896.66,-116.49 907.07,-118.42 906,-111.5"/>
</g>
<!-- Node23 -->
<g id="node23" class="node">
<title>Node23</title>
<g id="a_node23"><a xlink:href="SGP30Sensor_8h.html" target="_top" xlink:title=" ">
<polygon fill="none" stroke="black" points="1287,-56.5 1287,-75.5 1376,-75.5 1376,-56.5 1287,-56.5"/>
<text text-anchor="middle" x="1331.5" y="-63.5" font-family="Helvetica,sans-Serif" font-size="10.00">SGP30Sensor.h</text>
</a>
</g>
</g>
<!-- Node1&#45;&gt;Node23 -->
<g id="edge31" class="edge">
<title>Node1&#45;&gt;Node23</title>
<path fill="none" stroke="midnightblue" d="M906.78,-117.43C979.89,-110.61 1141.77,-94.74 1277.5,-76 1280.51,-75.58 1283.62,-75.13 1286.74,-74.66"/>
<polygon fill="midnightblue" stroke="midnightblue" points="906.28,-113.96 896.65,-118.36 906.93,-120.93 906.28,-113.96"/>
</g>
<!-- Node25 -->
<g id="node25" class="node">
<title>Node25</title>
<g id="a_node25"><a xlink:href="SHT31Sensor_8h.html" target="_top" xlink:title=" ">
<polygon fill="none" stroke="black" points="1394,-56.5 1394,-75.5 1483,-75.5 1483,-56.5 1394,-56.5"/>
<text text-anchor="middle" x="1438.5" y="-63.5" font-family="Helvetica,sans-Serif" font-size="10.00">SHT31Sensor.h</text>
</a>
</g>
</g>
<!-- Node1&#45;&gt;Node25 -->
<g id="edge34" class="edge">
<title>Node1&#45;&gt;Node25</title>
<path fill="none" stroke="midnightblue" d="M906.9,-118.63C993.51,-113.18 1206.89,-98.5 1384.5,-76 1387.52,-75.62 1390.62,-75.19 1393.75,-74.74"/>
<polygon fill="midnightblue" stroke="midnightblue" points="906.5,-115.15 896.74,-119.26 906.93,-122.13 906.5,-115.15"/>
</g>
<!-- Node27 -->
<g id="node27" class="node">
<title>Node27</title>
<g id="a_node27"><a xlink:href="TempSensor_8h.html" target="_top" xlink:title=" ">
<polygon fill="none" stroke="black" points="1500.5,-56.5 1500.5,-75.5 1584.5,-75.5 1584.5,-56.5 1500.5,-56.5"/>
<text text-anchor="middle" x="1542.5" y="-63.5" font-family="Helvetica,sans-Serif" font-size="10.00">TempSensor.h</text>
</a>
</g>
</g>
<!-- Node1&#45;&gt;Node27 -->
<g id="edge37" class="edge">
<title>Node1&#45;&gt;Node27</title>
<path fill="none" stroke="midnightblue" d="M906.62,-119.58C1005.13,-115.69 1271.28,-103.3 1491.5,-76 1494.36,-75.65 1497.29,-75.24 1500.25,-74.8"/>
<polygon fill="midnightblue" stroke="midnightblue" points="906.38,-116.08 896.53,-119.97 906.66,-123.08 906.38,-116.08"/>
</g>
<!-- Node29 -->
<g id="node29" class="node">
<title>Node29</title>
<g id="a_node29"><a xlink:href="ZOPT220Sensor_8h.html" target="_top" xlink:title=" ">
<polygon fill="none" stroke="black" points="1655.5,-56.5 1655.5,-75.5 1757.5,-75.5 1757.5,-56.5 1655.5,-56.5"/>
<text text-anchor="middle" x="1706.5" y="-63.5" font-family="Helvetica,sans-Serif" font-size="10.00">ZOPT220Sensor.h</text>
</a>
</g>
</g>
<!-- Node1&#45;&gt;Node29 -->
<g id="edge40" class="edge">
<title>Node1&#45;&gt;Node29</title>
<path fill="none" stroke="midnightblue" d="M906.75,-118.81C1015.76,-112.68 1331.4,-94.56 1593.5,-76 1613.72,-74.57 1635.96,-72.83 1655.33,-71.27"/>
<polygon fill="midnightblue" stroke="midnightblue" points="906.35,-115.33 896.56,-119.38 906.74,-122.32 906.35,-115.33"/>
</g>
<!-- Node3 -->
<g id="node3" class="node">
<title>Node3</title>
<g id="a_node3"><a xlink:href="AnalogSensor_8cpp.html" target="_top" xlink:title=" ">
<polygon fill="none" stroke="black" points="0,-0.5 0,-19.5 103,-19.5 103,-0.5 0,-0.5"/>
<text text-anchor="middle" x="51.5" y="-7.5" font-family="Helvetica,sans-Serif" font-size="10.00">AnalogSensor.cpp</text>
</a>
</g>
</g>
<!-- Node2&#45;&gt;Node3 -->
<g id="edge2" class="edge">
<title>Node2&#45;&gt;Node3</title>
<path fill="none" stroke="midnightblue" d="M122.93,-51.18C105.26,-41.24 81.99,-28.15 66.89,-19.65"/>
<polygon fill="midnightblue" stroke="midnightblue" points="121.64,-54.47 132.08,-56.32 125.08,-48.37 121.64,-54.47"/>
</g>
<!-- Node2&#45;&gt;Node4 -->
<g id="edge3" class="edge">
<title>Node2&#45;&gt;Node4</title>
<path fill="none" stroke="midnightblue" d="M203.69,-55.98C442.32,-29.3 506.49,-53.32 740.5,-20 743.67,-19.55 746.97,-18.99 750.25,-18.36"/>
<polygon fill="midnightblue" stroke="midnightblue" points="203.21,-52.51 193.67,-57.12 204,-59.47 203.21,-52.51"/>
</g>
<!-- Node5&#45;&gt;Node4 -->
<g id="edge6" class="edge">
<title>Node5&#45;&gt;Node4</title>
<path fill="none" stroke="midnightblue" d="M317.03,-56.03C505.97,-33.74 556.71,-47.85 740.5,-20 743.67,-19.52 746.96,-18.94 750.24,-18.31"/>
<polygon fill="midnightblue" stroke="midnightblue" points="316.56,-52.57 307.05,-57.23 317.4,-59.52 316.56,-52.57"/>
</g>
<!-- Node6 -->
<g id="node6" class="node">
<title>Node6</title>
<g id="a_node6"><a xlink:href="AS7331Sensor_8cpp.html" target="_top" xlink:title=" ">
<polygon fill="none" stroke="black" points="121.5,-0.5 121.5,-19.5 227.5,-19.5 227.5,-0.5 121.5,-0.5"/>
<text text-anchor="middle" x="174.5" y="-7.5" font-family="Helvetica,sans-Serif" font-size="10.00">AS7331Sensor.cpp</text>
</a>
</g>
</g>
<!-- Node5&#45;&gt;Node6 -->
<g id="edge5" class="edge">
<title>Node5&#45;&gt;Node6</title>
<path fill="none" stroke="midnightblue" d="M237.31,-50.9C221.72,-41 201.37,-28.07 188.12,-19.65"/>
<polygon fill="midnightblue" stroke="midnightblue" points="235.53,-53.92 245.84,-56.32 239.28,-48.01 235.53,-53.92"/>
</g>
<!-- Node7&#45;&gt;Node4 -->
<g id="edge9" class="edge">
<title>Node7&#45;&gt;Node4</title>
<path fill="none" stroke="midnightblue" d="M433.58,-55.91C570.78,-37.67 607.76,-42.27 740.5,-20 743.66,-19.47 746.95,-18.86 750.22,-18.2"/>
<polygon fill="midnightblue" stroke="midnightblue" points="432.97,-52.46 423.53,-57.26 433.91,-59.39 432.97,-52.46"/>
</g>
<!-- Node8 -->
<g id="node8" class="node">
<title>Node8</title>
<g id="a_node8"><a xlink:href="BME280Sensor_8cpp.html" target="_top" xlink:title=" ">
<polygon fill="none" stroke="black" points="246,-0.5 246,-19.5 355,-19.5 355,-0.5 246,-0.5"/>
<text text-anchor="middle" x="300.5" y="-7.5" font-family="Helvetica,sans-Serif" font-size="10.00">BME280Sensor.cpp</text>
</a>
</g>
</g>
<!-- Node7&#45;&gt;Node8 -->
<g id="edge8" class="edge">
<title>Node7&#45;&gt;Node8</title>
<path fill="none" stroke="midnightblue" d="M354.47,-50.38C341.09,-40.62 323.94,-28.11 312.61,-19.83"/>
<polygon fill="midnightblue" stroke="midnightblue" points="352.47,-53.26 362.61,-56.32 356.6,-47.6 352.47,-53.26"/>
</g>
<!-- Node9&#45;&gt;Node4 -->
<g id="edge12" class="edge">
<title>Node9&#45;&gt;Node4</title>
<path fill="none" stroke="midnightblue" d="M550.07,-54.93C600.79,-46.2 675.56,-32.97 740.5,-20 743.64,-19.37 746.92,-18.69 750.19,-18"/>
<polygon fill="midnightblue" stroke="midnightblue" points="549.2,-51.53 539.94,-56.67 550.39,-58.43 549.2,-51.53"/>
</g>
<!-- Node10 -->
<g id="node10" class="node">
<title>Node10</title>
<g id="a_node10"><a xlink:href="BME680Sensor_8cpp.html" target="_top" xlink:title=" ">
<polygon fill="none" stroke="black" points="373,-0.5 373,-19.5 482,-19.5 482,-0.5 373,-0.5"/>
<text text-anchor="middle" x="427.5" y="-7.5" font-family="Helvetica,sans-Serif" font-size="10.00">BME680Sensor.cpp</text>
</a>
</g>
</g>
<!-- Node9&#45;&gt;Node10 -->
<g id="edge11" class="edge">
<title>Node9&#45;&gt;Node10</title>
<path fill="none" stroke="midnightblue" d="M472.46,-49.54C461.23,-39.91 447.18,-27.87 437.81,-19.83"/>
<polygon fill="midnightblue" stroke="midnightblue" points="470.51,-52.47 480.38,-56.32 475.06,-47.16 470.51,-52.47"/>
</g>
<!-- Node11&#45;&gt;Node4 -->
<g id="edge15" class="edge">
<title>Node11&#45;&gt;Node4</title>
<path fill="none" stroke="midnightblue" d="M643.19,-53.44C676.37,-43.26 723.93,-28.66 753.74,-19.52"/>
<polygon fill="midnightblue" stroke="midnightblue" points="641.92,-50.16 633.39,-56.44 643.97,-56.86 641.92,-50.16"/>
</g>
<!-- Node12 -->
<g id="node12" class="node">
<title>Node12</title>
<g id="a_node12"><a xlink:href="DS3231Sensor_8cpp.html" target="_top" xlink:title=" ">
<polygon fill="none" stroke="black" points="500,-0.5 500,-19.5 607,-19.5 607,-0.5 500,-0.5"/>
<text text-anchor="middle" x="553.5" y="-7.5" font-family="Helvetica,sans-Serif" font-size="10.00">DS3231Sensor.cpp</text>
</a>
</g>
</g>
<!-- Node11&#45;&gt;Node12 -->
<g id="edge14" class="edge">
<title>Node11&#45;&gt;Node12</title>
<path fill="none" stroke="midnightblue" d="M589.82,-48.72C580.66,-39.2 569.45,-27.56 561.93,-19.75"/>
<polygon fill="midnightblue" stroke="midnightblue" points="587.46,-51.31 596.91,-56.08 592.5,-46.45 587.46,-51.31"/>
</g>
<!-- Node13&#45;&gt;Node4 -->
<g id="edge18" class="edge">
<title>Node13&#45;&gt;Node4</title>
<path fill="none" stroke="midnightblue" d="M736.54,-49.54C747.77,-39.91 761.82,-27.87 771.19,-19.83"/>
<polygon fill="midnightblue" stroke="midnightblue" points="733.94,-47.16 728.62,-56.32 738.49,-52.47 733.94,-47.16"/>
</g>
<!-- Node14 -->
<g id="node14" class="node">
<title>Node14</title>
<g id="a_node14"><a xlink:href="ENS160Sensor_8cpp.html" target="_top" xlink:title=" ">
<polygon fill="none" stroke="black" points="625,-0.5 625,-19.5 732,-19.5 732,-0.5 625,-0.5"/>
<text text-anchor="middle" x="678.5" y="-7.5" font-family="Helvetica,sans-Serif" font-size="10.00">ENS160Sensor.cpp</text>
</a>
</g>
</g>
<!-- Node13&#45;&gt;Node14 -->
<g id="edge17" class="edge">
<title>Node13&#45;&gt;Node14</title>
<path fill="none" stroke="midnightblue" d="M705.8,-47.86C698.87,-38.5 690.59,-27.33 684.98,-19.75"/>
<polygon fill="midnightblue" stroke="midnightblue" points="703.13,-50.13 711.89,-56.08 708.75,-45.96 703.13,-50.13"/>
</g>
<!-- Node15&#45;&gt;Node4 -->
<g id="edge21" class="edge">
<title>Node15&#45;&gt;Node4</title>
<path fill="none" stroke="midnightblue" d="M845.05,-50.9C829.28,-41 808.69,-28.07 795.28,-19.65"/>
<polygon fill="midnightblue" stroke="midnightblue" points="843.35,-53.97 853.68,-56.32 847.07,-48.04 843.35,-53.97"/>
</g>
<!-- Node16 -->
<g id="node16" class="node">
<title>Node16</title>
<g id="a_node16"><a xlink:href="GeigerSensor_8cpp.html" target="_top" xlink:title=" ">
<polygon fill="none" stroke="black" points="831,-0.5 831,-19.5 932,-19.5 932,-0.5 831,-0.5"/>
<text text-anchor="middle" x="881.5" y="-7.5" font-family="Helvetica,sans-Serif" font-size="10.00">GeigerSensor.cpp</text>
</a>
</g>
</g>
<!-- Node15&#45;&gt;Node16 -->
<g id="edge20" class="edge">
<title>Node15&#45;&gt;Node16</title>
<path fill="none" stroke="midnightblue" d="M872.32,-46.4C874.67,-37.36 877.37,-26.94 879.23,-19.75"/>
<polygon fill="midnightblue" stroke="midnightblue" points="868.93,-45.52 869.81,-56.08 875.71,-47.28 868.93,-45.52"/>
</g>
<!-- Node17&#45;&gt;Node4 -->
<g id="edge24" class="edge">
<title>Node17&#45;&gt;Node4</title>
<path fill="none" stroke="midnightblue" d="M936.48,-53.7C899.49,-43.51 845.9,-28.74 812.41,-19.52"/>
<polygon fill="midnightblue" stroke="midnightblue" points="935.87,-57.16 946.44,-56.44 937.73,-50.41 935.87,-57.16"/>
</g>
<!-- Node18 -->
<g id="node18" class="node">
<title>Node18</title>
<g id="a_node18"><a xlink:href="INA260Sensor_8cpp.html" target="_top" xlink:title=" ">
<polygon fill="none" stroke="black" points="950.5,-0.5 950.5,-19.5 1054.5,-19.5 1054.5,-0.5 950.5,-0.5"/>
<text text-anchor="middle" x="1002.5" y="-7.5" font-family="Helvetica,sans-Serif" font-size="10.00">INA260Sensor.cpp</text>
</a>
</g>
</g>
<!-- Node17&#45;&gt;Node18 -->
<g id="edge23" class="edge">
<title>Node17&#45;&gt;Node18</title>
<path fill="none" stroke="midnightblue" d="M985.84,-46.98C990.08,-37.82 995.05,-27.09 998.45,-19.75"/>
<polygon fill="midnightblue" stroke="midnightblue" points="982.65,-45.54 981.63,-56.08 989.01,-48.48 982.65,-45.54"/>
</g>
<!-- Node19&#45;&gt;Node4 -->
<g id="edge27" class="edge">
<title>Node19&#45;&gt;Node4</title>
<path fill="none" stroke="midnightblue" d="M1032.24,-55.79C976.78,-47.33 893.52,-34.03 821.5,-20 818.71,-19.46 815.81,-18.86 812.91,-18.25"/>
<polygon fill="midnightblue" stroke="midnightblue" points="1031.85,-59.27 1042.26,-57.31 1032.9,-52.35 1031.85,-59.27"/>
</g>
<!-- Node20 -->
<g id="node20" class="node">
<title>Node20</title>
<g id="a_node20"><a xlink:href="LSM9DS1Sensor_8cpp.html" target="_top" xlink:title=" ">
<polygon fill="none" stroke="black" points="1073,-0.5 1073,-19.5 1188,-19.5 1188,-0.5 1073,-0.5"/>
<text text-anchor="middle" x="1130.5" y="-7.5" font-family="Helvetica,sans-Serif" font-size="10.00">LSM9DS1Sensor.cpp</text>
</a>
</g>
</g>
<!-- Node19&#45;&gt;Node20 -->
<g id="edge26" class="edge">
<title>Node19&#45;&gt;Node20</title>
<path fill="none" stroke="midnightblue" d="M1106.12,-47.57C1112.32,-38.27 1119.67,-27.25 1124.67,-19.75"/>
<polygon fill="midnightblue" stroke="midnightblue" points="1103.08,-45.82 1100.44,-56.08 1108.9,-49.7 1103.08,-45.82"/>
</g>
<!-- Node21&#45;&gt;Node4 -->
<g id="edge29" class="edge">
<title>Node21&#45;&gt;Node4</title>
<path fill="none" stroke="midnightblue" d="M1154.33,-55.9C1005.69,-37.4 965.63,-43.9 821.5,-20 818.69,-19.53 815.78,-18.99 812.88,-18.41"/>
<polygon fill="midnightblue" stroke="midnightblue" points="1153.92,-59.38 1164.28,-57.16 1154.79,-52.43 1153.92,-59.38"/>
</g>
<!-- Node22 -->
<g id="node22" class="node">
<title>Node22</title>
<g id="a_node22"><a xlink:href="MTK3339Sensor_8cpp.html" target="_top" xlink:title=" ">
<polygon fill="none" stroke="black" points="1206,-0.5 1206,-19.5 1321,-19.5 1321,-0.5 1206,-0.5"/>
<text text-anchor="middle" x="1263.5" y="-7.5" font-family="Helvetica,sans-Serif" font-size="10.00">MTK3339Sensor.cpp</text>
</a>
</g>
</g>
<!-- Node21&#45;&gt;Node22 -->
<g id="edge30" class="edge">
<title>Node21&#45;&gt;Node22</title>
<path fill="none" stroke="midnightblue" d="M1230.92,-48.43C1239.16,-38.97 1249.15,-27.48 1255.88,-19.75"/>
<polygon fill="midnightblue" stroke="midnightblue" points="1228.19,-46.24 1224.26,-56.08 1233.47,-50.84 1228.19,-46.24"/>
</g>
<!-- Node23&#45;&gt;Node4 -->
<g id="edge32" class="edge">
<title>Node23&#45;&gt;Node4</title>
<path fill="none" stroke="midnightblue" d="M1276.67,-56.02C1073.96,-31.87 1019.27,-49.9 821.5,-20 818.68,-19.57 815.77,-19.06 812.86,-18.5"/>
<polygon fill="midnightblue" stroke="midnightblue" points="1276.41,-59.51 1286.75,-57.24 1277.25,-52.56 1276.41,-59.51"/>
</g>
<!-- Node24 -->
<g id="node24" class="node">
<title>Node24</title>
<g id="a_node24"><a xlink:href="SGP30Sensor_8cpp.html" target="_top" xlink:title=" ">
<polygon fill="none" stroke="black" points="1339,-0.5 1339,-19.5 1440,-19.5 1440,-0.5 1339,-0.5"/>
<text text-anchor="middle" x="1389.5" y="-7.5" font-family="Helvetica,sans-Serif" font-size="10.00">SGP30Sensor.cpp</text>
</a>
</g>
</g>
<!-- Node23&#45;&gt;Node24 -->
<g id="edge33" class="edge">
<title>Node23&#45;&gt;Node24</title>
<path fill="none" stroke="midnightblue" d="M1348.41,-49.25C1358.7,-39.67 1371.47,-27.79 1380.01,-19.83"/>
<polygon fill="midnightblue" stroke="midnightblue" points="1345.75,-46.95 1340.82,-56.32 1350.52,-52.07 1345.75,-46.95"/>
</g>
<!-- Node25&#45;&gt;Node4 -->
<g id="edge35" class="edge">
<title>Node25&#45;&gt;Node4</title>
<path fill="none" stroke="midnightblue" d="M1383.64,-56.04C1133.64,-28.09 1066.42,-55.16 821.5,-20 818.68,-19.6 815.77,-19.1 812.86,-18.55"/>
<polygon fill="midnightblue" stroke="midnightblue" points="1383.43,-59.53 1393.76,-57.18 1384.22,-52.58 1383.43,-59.53"/>
</g>
<!-- Node26 -->
<g id="node26" class="node">
<title>Node26</title>
<g id="a_node26"><a xlink:href="SHT31Sensor_8cpp.html" target="_top" xlink:title=" ">
<polygon fill="none" stroke="black" points="1458,-0.5 1458,-19.5 1559,-19.5 1559,-0.5 1458,-0.5"/>
<text text-anchor="middle" x="1508.5" y="-7.5" font-family="Helvetica,sans-Serif" font-size="10.00">SHT31Sensor.cpp</text>
</a>
</g>
</g>
<!-- Node25&#45;&gt;Node26 -->
<g id="edge36" class="edge">
<title>Node25&#45;&gt;Node26</title>
<path fill="none" stroke="midnightblue" d="M1457.81,-50.1C1470.41,-40.38 1486.43,-28.03 1497.05,-19.83"/>
<polygon fill="midnightblue" stroke="midnightblue" points="1455.53,-47.44 1449.75,-56.32 1459.8,-52.99 1455.53,-47.44"/>
</g>
<!-- Node27&#45;&gt;Node4 -->
<g id="edge38" class="edge">
<title>Node27&#45;&gt;Node4</title>
<path fill="none" stroke="midnightblue" d="M1490.07,-55.98C1193.45,-22.89 1113.58,-60.41 821.5,-20 818.68,-19.61 815.76,-19.12 812.85,-18.58"/>
<polygon fill="midnightblue" stroke="midnightblue" points="1489.93,-59.49 1500.26,-57.14 1490.71,-52.54 1489.93,-59.49"/>
</g>
<!-- Node28 -->
<g id="node28" class="node">
<title>Node28</title>
<g id="a_node28"><a xlink:href="TempSensor_8cpp.html" target="_top" xlink:title=" ">
<polygon fill="none" stroke="black" points="1577,-0.5 1577,-19.5 1672,-19.5 1672,-0.5 1577,-0.5"/>
<text text-anchor="middle" x="1624.5" y="-7.5" font-family="Helvetica,sans-Serif" font-size="10.00">TempSensor.cpp</text>
</a>
</g>
</g>
<!-- Node27&#45;&gt;Node28 -->
<g id="edge39" class="edge">
<title>Node27&#45;&gt;Node28</title>
<path fill="none" stroke="midnightblue" d="M1564.33,-50.62C1579.31,-40.76 1598.7,-27.99 1611.36,-19.65"/>
<polygon fill="midnightblue" stroke="midnightblue" points="1562.1,-47.9 1555.67,-56.32 1565.95,-53.75 1562.1,-47.9"/>
</g>
<!-- Node30 -->
<g id="node30" class="node">
<title>Node30</title>
<g id="a_node30"><a xlink:href="ZOPT220Sensor_8cpp.html" target="_top" xlink:title=" ">
<polygon fill="none" stroke="black" points="1690,-0.5 1690,-19.5 1803,-19.5 1803,-0.5 1690,-0.5"/>
<text text-anchor="middle" x="1746.5" y="-7.5" font-family="Helvetica,sans-Serif" font-size="10.00">ZOPT220Sensor.cpp</text>
</a>
</g>
</g>
<!-- Node29&#45;&gt;Node30 -->
<g id="edge41" class="edge">
<title>Node29&#45;&gt;Node30</title>
<path fill="none" stroke="midnightblue" d="M1719.2,-47.86C1726.13,-38.5 1734.41,-27.33 1740.02,-19.75"/>
<polygon fill="midnightblue" stroke="midnightblue" points="1716.25,-45.96 1713.11,-56.08 1721.87,-50.13 1716.25,-45.96"/>
</g>
</g>
</svg>
        <g id="navigator" transform="translate(0 0)" fill="#404254">
                <rect fill="#f2f5e9" fill-opacity="0.5" stroke="#606060" stroke-width=".5" x="0" y="0" width="60" height="60"/>
                <use id="zoomplus" xlink:href="#zoomPlus" x="17" y="9" onmousedown="handleZoom(evt,'in')"/>
                <use id="zoomminus" xlink:href="#zoomMin" x="42" y="9" onmousedown="handleZoom(evt,'out')"/>
                <use id="reset" xlink:href="#resetDef" x="30" y="36" onmousedown="handleReset()"/>
                <g id="arrowUp" xlink:href="#dirArrow" transform="translate(30 24)" onmousedown="handlePan(0,-1)">
                  <use xlink:href="#rim" fill="#404040">
                        <set attributeName="fill" to="#808080" begin="arrowUp.mouseover" end="arrowUp.mouseout"/>
                  </use>
                  <path fill="none" stroke="white" stroke-width="1.5" d="M0,-3.0v7 M-2.5,-0.5L0,-3.0L2.5,-0.5"/>
                </g>
                <g id="arrowRight" xlink:href="#dirArrow" transform="rotate(90) translate(36 -43)" onmousedown="handlePan(1,0)">
                  <use xlink:href="#rim" fill="#404040">
                        <set attributeName="fill" to="#808080" begin="arrowRight.mouseover" end="arrowRight.mouseout"/>
                  </use>
                  <path fill="none" stroke="white" stroke-width="1.5" d="M0,-3.0v7 M-2.5,-0.5L0,-3.0L2.5,-0.5"/>
                </g>
                <g id="arrowDown" xlink:href="#dirArrow" transform="rotate(180) translate(-30 -48)" onmousedown="handlePan(0,1)">
                  <use xlink:href="#rim" fill="#404040">
                        <set attributeName="fill" to="#808080" begin="arrowDown.mouseover" end="arrowDown.mouseout"/>
                  </use>
                  <path fill="none" stroke="white" stroke-width="1.5" d="M0,-3.0v7 M-2.5,-0.5L0,-3.0L2.5,-0.5"/>
                </g>
                <g id="arrowLeft" xlink:href="#dirArrow" transform="rotate(270) translate(-36 17)" onmousedown="handlePan(-1,0)">
                  <use xlink:href="#rim" fill="#404040">
                        <set attributeName="fill" to="#808080" begin="arrowLeft.mouseover" end="arrowLeft.mouseout"/>
                  </use>
                  <path fill="none" stroke="white" stroke-width="1.5" d="M0,-3.0v7 M-2.5,-0.5L0,-3.0L2.5,-0.5"/>
                </g>
        </g>
        <svg viewBox="0 0 15 15" width="100%" height="30px" preserveAspectRatio="xMaxYMin meet">
         <g id="arrow_out" transform="scale(0.3 0.3)">
          <a xlink:href="Sensor_8h__dep__incl_org.svg" target="_base">
           <rect id="button" ry="5" rx="5" y="6" x="6" height="38" width="38"
                fill="#f2f5e9" fill-opacity="0.5" stroke="#606060" stroke-width="1.0"/>
           <path id="arrow"
             d="M 11.500037,31.436501 C 11.940474,20.09759 22.043105,11.32322 32.158766,21.979434 L 37.068811,17.246167 C 37.068811,17.246167 37.088388,32 37.088388,32 L 22.160133,31.978069 C 22.160133,31.978069 26.997745,27.140456 26.997745,27.140456 C 18.528582,18.264221 13.291696,25.230495 11.500037,31.436501 z"
             style="fill:#404040;"/>
          </a>
         </g>
        </svg>
</svg>
