<?xml version="1.0" encoding="UTF-8" standalone="no"?>
<!DOCTYPE svg PUBLIC "-//W3C//DTD SVG 1.1//EN"
 "http://www.w3.org/Graphics/SVG/1.1/DTD/svg11.dtd">
<!-- Generated by graphviz version 2.43.0 (0)
 -->
<!-- Title: Sensor.h Pages: 1 -->
<!--zoomable 140 -->
<svg id="main" version="1.1" xmlns="http://www.w3.org/2000/svg" xmlns:xlink="http://www.w3.org/1999/xlink" xml:space="preserve" onload="init(evt)">
<style type="text/css"><![CDATA[
.edge:hover path { stroke: red; }
.edge:hover polygon { stroke: red; fill: red; }
]]></style>
<script type="text/javascript"><![CDATA[
var edges = document.getElementsByTagName('g');
if (edges && edges.length) {
  for (var i=0;i<edges.length;i++) {
    if (edges[i].id.substr(0,4)=='edge') {
      edges[i].setAttribute('class','edge');
    }
  }
}
]]></script>
        <defs>
                <circle id="rim" cx="0" cy="0" r="7"/>
                <circle id="rim2" cx="0" cy="0" r="3.5"/>
                <g id="zoomPlus">
                        <use xlink:href="#rim" fill="#404040">
                                <set attributeName="fill" to="#808080" begin="zoomplus.mouseover" end="zoomplus.mouseout"/>
                        </use>
                        <path d="M-4,0h8M0,-4v8" fill="none" stroke="white" stroke-width="1.5" pointer-events="none"/>
                </g>
                <g id="zoomMin">
                        <use xlink:href="#rim" fill="#404040">
                                <set attributeName="fill" to="#808080" begin="zoomminus.mouseover" end="zoomminus.mouseout"/>
                        </use>
                        <path d="M-4,0h8" fill="none" stroke="white" stroke-width="1.5" pointer-events="none"/>
                </g>
                <g id="dirArrow">
                        <path fill="none" stroke="white" stroke-width="1.5" d="M0,-3.0v7 M-2.5,-0.5L0,-3.0L2.5,-0.5"/>
                </g>
               <g id="resetDef">
                       <use xlink:href="#rim2" fill="#404040">
                               <set attributeName="fill" to="#808080" begin="reset.mouseover" end="reset.mouseout"/>
                       </use>
               </g>
        </defs>

<script type="text/javascript">
var viewWidth = 2077;
var viewHeight = 140;
var sectionId = 'dynsection-1';
</script>
<script xlink:href="svgpan.js"/>
<svg id="graph" class="graph">
<g id="viewport">
<title>Sensor.h</title>
<!-- Node1 -->
<g id="node1" class="node">
<title>Node1</title>
<g id="a_node1"><a xlink:title=" ">
<polygon fill="#bfbfbf" stroke="black" points="992.5,-112.5 992.5,-131.5 1050.5,-131.5 1050.5,-112.5 992.5,-112.5"/>
<text text-anchor="middle" x="1021.5" y="-119.5" font-family="Helvetica,sans-Serif" font-size="10.00">Sensor.h</text>
</a>
</g>
</g>
<!-- Node2 -->
<g id="node2" class="node">
<title>Node2</title>
<g id="a_node2"><a xlink:href="AnalogSensor_8h.html" target="_top" xlink:title=" ">
<polygon fill="none" stroke="black" points="65.5,-56.5 65.5,-75.5 157.5,-75.5 157.5,-56.5 65.5,-56.5"/>
<text text-anchor="middle" x="111.5" y="-63.5" font-family="Helvetica,sans-Serif" font-size="10.00">AnalogSensor.h</text>
</a>
</g>
</g>
<!-- Node1&#45;&gt;Node2 -->
<g id="edge1" class="edge">
<title>Node1&#45;&gt;Node2</title>
<path fill="none" stroke="midnightblue" d="M982.09,-119.07C866.18,-113.33 516.41,-95.55 226.5,-76 203.82,-74.47 178.65,-72.53 157.65,-70.84"/>
<polygon fill="midnightblue" stroke="midnightblue" points="982.09,-122.57 992.25,-119.57 982.43,-115.58 982.09,-122.57"/>
</g>
<!-- Node4 -->
<g id="node4" class="node">
<title>Node4</title>
<g id="a_node4"><a xlink:href="AS7331Sensor_8h.html" target="_top" xlink:title=" ">
<polygon fill="none" stroke="black" points="236,-56.5 236,-75.5 331,-75.5 331,-56.5 236,-56.5"/>
<text text-anchor="middle" x="283.5" y="-63.5" font-family="Helvetica,sans-Serif" font-size="10.00">AS7331Sensor.h</text>
</a>
</g>
</g>
<!-- Node1&#45;&gt;Node4 -->
<g id="edge3" class="edge">
<title>Node1&#45;&gt;Node4</title>
<path fill="none" stroke="midnightblue" d="M982.1,-119.65C877.39,-115.78 583.56,-103.16 340.5,-76 337.41,-75.66 334.24,-75.26 331.04,-74.84"/>
<polygon fill="midnightblue" stroke="midnightblue" points="982.09,-123.15 992.21,-120.01 982.35,-116.15 982.09,-123.15"/>
</g>
<!-- Node6 -->
<g id="node6" class="node">
<title>Node6</title>
<g id="a_node6"><a xlink:href="main_8cpp.html" target="_top" xlink:title=" ">
<polygon fill="none" stroke="black" points="883.5,-0.5 883.5,-19.5 945.5,-19.5 945.5,-0.5 883.5,-0.5"/>
<text text-anchor="middle" x="914.5" y="-7.5" font-family="Helvetica,sans-Serif" font-size="10.00">main.cpp</text>
</a>
</g>
</g>
<!-- Node1&#45;&gt;Node6 -->
<g id="edge45" class="edge">
<title>Node1&#45;&gt;Node6</title>
<path fill="none" stroke="midnightblue" d="M998.77,-106.8C986.67,-98.63 971.95,-87.68 960.5,-76 942.88,-58.03 927.07,-32.76 919.39,-19.65"/>
<polygon fill="midnightblue" stroke="midnightblue" points="997.15,-109.92 1007.43,-112.48 1000.98,-104.06 997.15,-109.92"/>
</g>
<!-- Node7 -->
<g id="node7" class="node">
<title>Node7</title>
<g id="a_node7"><a xlink:href="BME280Sensor_8h.html" target="_top" xlink:title=" ">
<polygon fill="none" stroke="black" points="349.5,-56.5 349.5,-75.5 447.5,-75.5 447.5,-56.5 349.5,-56.5"/>
<text text-anchor="middle" x="398.5" y="-63.5" font-family="Helvetica,sans-Serif" font-size="10.00">BME280Sensor.h</text>
</a>
</g>
</g>
<!-- Node1&#45;&gt;Node7 -->
<g id="edge6" class="edge">
<title>Node1&#45;&gt;Node7</title>
<path fill="none" stroke="midnightblue" d="M982.06,-118.87C889.87,-113.68 653.21,-99.06 456.5,-76 453.57,-75.66 450.55,-75.27 447.51,-74.87"/>
<polygon fill="midnightblue" stroke="midnightblue" points="982.14,-122.38 992.32,-119.44 982.53,-115.39 982.14,-122.38"/>
</g>
<!-- Node9 -->
<g id="node9" class="node">
<title>Node9</title>
<g id="a_node9"><a xlink:href="BME680Sensor_8h.html" target="_top" xlink:title=" ">
<polygon fill="none" stroke="black" points="465.5,-56.5 465.5,-75.5 563.5,-75.5 563.5,-56.5 465.5,-56.5"/>
<text text-anchor="middle" x="514.5" y="-63.5" font-family="Helvetica,sans-Serif" font-size="10.00">BME680Sensor.h</text>
</a>
</g>
</g>
<!-- Node1&#45;&gt;Node9 -->
<g id="edge9" class="edge">
<title>Node1&#45;&gt;Node9</title>
<path fill="none" stroke="midnightblue" d="M981.92,-117.76C903.6,-111.18 723.35,-95.25 572.5,-76 569.57,-75.63 566.56,-75.22 563.52,-74.8"/>
<polygon fill="midnightblue" stroke="midnightblue" points="982.03,-121.28 992.28,-118.62 982.61,-114.3 982.03,-121.28"/>
</g>
<!-- Node11 -->
<g id="node11" class="node">
<title>Node11</title>
<g id="a_node11"><a xlink:href="DS3231Sensor_8h.html" target="_top" xlink:title=" ">
<polygon fill="none" stroke="black" points="1683,-56.5 1683,-75.5 1778,-75.5 1778,-56.5 1683,-56.5"/>
<text text-anchor="middle" x="1730.5" y="-63.5" font-family="Helvetica,sans-Serif" font-size="10.00">DS3231Sensor.h</text>
</a>
</g>
</g>
<!-- Node1&#45;&gt;Node11 -->
<g id="edge12" class="edge">
<title>Node1&#45;&gt;Node11</title>
<path fill="none" stroke="midnightblue" d="M1060.83,-118.49C1158.69,-112.17 1421.04,-94.75 1639.5,-76 1653.58,-74.79 1668.87,-73.34 1682.82,-71.95"/>
<polygon fill="midnightblue" stroke="midnightblue" points="1060.55,-115 1050.79,-119.14 1061,-121.99 1060.55,-115"/>
</g>
<!-- Node13 -->
<g id="node13" class="node">
<title>Node13</title>
<g id="a_node13"><a xlink:href="ENS160Sensor_8h.html" target="_top" xlink:title=" ">
<polygon fill="none" stroke="black" points="582,-56.5 582,-75.5 677,-75.5 677,-56.5 582,-56.5"/>
<text text-anchor="middle" x="629.5" y="-63.5" font-family="Helvetica,sans-Serif" font-size="10.00">ENS160Sensor.h</text>
</a>
</g>
</g>
<!-- Node1&#45;&gt;Node13 -->
<g id="edge14" class="edge">
<title>Node1&#45;&gt;Node13</title>
<path fill="none" stroke="midnightblue" d="M982,-116.05C919.15,-108.1 792.56,-91.77 685.5,-76 682.77,-75.6 679.97,-75.18 677.15,-74.74"/>
<polygon fill="midnightblue" stroke="midnightblue" points="981.89,-119.56 992.25,-117.34 982.77,-112.62 981.89,-119.56"/>
</g>
<!-- Node15 -->
<g id="node15" class="node">
<title>Node15</title>
<g id="a_node15"><a xlink:href="GeigerSensor_8h.html" target="_top" xlink:title=" ">
<polygon fill="none" stroke="black" points="1819.5,-56.5 1819.5,-75.5 1909.5,-75.5 1909.5,-56.5 1819.5,-56.5"/>
<text text-anchor="middle" x="1864.5" y="-63.5" font-family="Helvetica,sans-Serif" font-size="10.00">GeigerSensor.h</text>
</a>
</g>
</g>
<!-- Node1&#45;&gt;Node15 -->
<g id="edge17" class="edge">
<title>Node1&#45;&gt;Node15</title>
<path fill="none" stroke="midnightblue" d="M1060.97,-119.46C1174.1,-114.88 1509.16,-100.14 1786.5,-76 1797.09,-75.08 1808.47,-73.88 1819.17,-72.67"/>
<polygon fill="midnightblue" stroke="midnightblue" points="1060.58,-115.97 1050.73,-119.87 1060.86,-122.97 1060.58,-115.97"/>
</g>
<!-- Node17 -->
<g id="node17" class="node">
<title>Node17</title>
<g id="a_node17"><a xlink:href="ICM20948Sensor_8h.html" target="_top" xlink:title=" ">
<polygon fill="none" stroke="black" points="695,-56.5 695,-75.5 802,-75.5 802,-56.5 695,-56.5"/>
<text text-anchor="middle" x="748.5" y="-63.5" font-family="Helvetica,sans-Serif" font-size="10.00">ICM20948Sensor.h</text>
</a>
</g>
</g>
<!-- Node1&#45;&gt;Node17 -->
<g id="edge19" class="edge">
<title>Node1&#45;&gt;Node17</title>
<path fill="none" stroke="midnightblue" d="M982.4,-113.27C931.9,-103.28 844.28,-85.95 791.81,-75.57"/>
<polygon fill="midnightblue" stroke="midnightblue" points="981.8,-116.71 992.28,-115.22 983.15,-109.85 981.8,-116.71"/>
</g>
<!-- Node19 -->
<g id="node19" class="node">
<title>Node19</title>
<g id="a_node19"><a xlink:href="INA260Sensor_8h.html" target="_top" xlink:title=" ">
<polygon fill="none" stroke="black" points="820,-56.5 820,-75.5 913,-75.5 913,-56.5 820,-56.5"/>
<text text-anchor="middle" x="866.5" y="-63.5" font-family="Helvetica,sans-Serif" font-size="10.00">INA260Sensor.h</text>
</a>
</g>
</g>
<!-- Node1&#45;&gt;Node19 -->
<g id="edge22" class="edge">
<title>Node1&#45;&gt;Node19</title>
<path fill="none" stroke="midnightblue" d="M987.17,-109.04C958,-98.88 916.86,-84.55 890.95,-75.52"/>
<polygon fill="midnightblue" stroke="midnightblue" points="986.34,-112.46 996.94,-112.44 988.65,-105.85 986.34,-112.46"/>
</g>
<!-- Node21 -->
<g id="node21" class="node">
<title>Node21</title>
<g id="a_node21"><a xlink:href="LSM9DS1Sensor_8h.html" target="_top" xlink:title=" ">
<polygon fill="none" stroke="black" points="969.5,-56.5 969.5,-75.5 1073.5,-75.5 1073.5,-56.5 969.5,-56.5"/>
<text text-anchor="middle" x="1021.5" y="-63.5" font-family="Helvetica,sans-Serif" font-size="10.00">LSM9DS1Sensor.h</text>
</a>
</g>
</g>
<!-- Node1&#45;&gt;Node21 -->
<g id="edge25" class="edge">
<title>Node1&#45;&gt;Node21</title>
<path fill="none" stroke="midnightblue" d="M1021.5,-101.8C1021.5,-92.91 1021.5,-82.78 1021.5,-75.75"/>
<polygon fill="midnightblue" stroke="midnightblue" points="1018,-102.08 1021.5,-112.08 1025,-102.08 1018,-102.08"/>
</g>
<!-- Node23 -->
<g id="node23" class="node">
<title>Node23</title>
<g id="a_node23"><a xlink:href="MTK3339Sensor_8h.html" target="_top" xlink:title=" ">
<polygon fill="none" stroke="black" points="1091.5,-56.5 1091.5,-75.5 1195.5,-75.5 1195.5,-56.5 1091.5,-56.5"/>
<text text-anchor="middle" x="1143.5" y="-63.5" font-family="Helvetica,sans-Serif" font-size="10.00">MTK3339Sensor.h</text>
</a>
</g>
</g>
<!-- Node1&#45;&gt;Node23 -->
<g id="edge28" class="edge">
<title>Node1&#45;&gt;Node23</title>
<path fill="none" stroke="midnightblue" d="M1050.04,-108.37C1072.89,-98.26 1104.31,-84.35 1124.26,-75.52"/>
<polygon fill="midnightblue" stroke="midnightblue" points="1048.56,-105.2 1040.83,-112.44 1051.39,-111.6 1048.56,-105.2"/>
</g>
<!-- Node25 -->
<g id="node25" class="node">
<title>Node25</title>
<g id="a_node25"><a xlink:href="PCF8523Sensor_8h.html" target="_top" xlink:title=" ">
<polygon fill="none" stroke="black" points="1214,-56.5 1214,-75.5 1315,-75.5 1315,-56.5 1214,-56.5"/>
<text text-anchor="middle" x="1264.5" y="-63.5" font-family="Helvetica,sans-Serif" font-size="10.00">PCF8523Sensor.h</text>
</a>
</g>
</g>
<!-- Node1&#45;&gt;Node25 -->
<g id="edge31" class="edge">
<title>Node1&#45;&gt;Node25</title>
<path fill="none" stroke="midnightblue" d="M1060.6,-112.31C1106.06,-102.21 1180.62,-85.64 1225.87,-75.58"/>
<polygon fill="midnightblue" stroke="midnightblue" points="1059.81,-108.9 1050.81,-114.49 1061.33,-115.73 1059.81,-108.9"/>
</g>
<!-- Node27 -->
<g id="node27" class="node">
<title>Node27</title>
<g id="a_node27"><a xlink:href="SGP30Sensor_8h.html" target="_top" xlink:title=" ">
<polygon fill="none" stroke="black" points="1333,-56.5 1333,-75.5 1422,-75.5 1422,-56.5 1333,-56.5"/>
<text text-anchor="middle" x="1377.5" y="-63.5" font-family="Helvetica,sans-Serif" font-size="10.00">SGP30Sensor.h</text>
</a>
</g>
</g>
<!-- Node1&#45;&gt;Node27 -->
<g id="edge34" class="edge">
<title>Node1&#45;&gt;Node27</title>
<path fill="none" stroke="midnightblue" d="M1060.81,-115.36C1118.47,-107.04 1229.35,-90.86 1323.5,-76 1326.5,-75.53 1329.6,-75.03 1332.72,-74.52"/>
<polygon fill="midnightblue" stroke="midnightblue" points="1060.08,-111.93 1050.68,-116.82 1061.08,-118.86 1060.08,-111.93"/>
</g>
<!-- Node29 -->
<g id="node29" class="node">
<title>Node29</title>
<g id="a_node29"><a xlink:href="SHT31Sensor_8h.html" target="_top" xlink:title=" ">
<polygon fill="none" stroke="black" points="1440,-56.5 1440,-75.5 1529,-75.5 1529,-56.5 1440,-56.5"/>
<text text-anchor="middle" x="1484.5" y="-63.5" font-family="Helvetica,sans-Serif" font-size="10.00">SHT31Sensor.h</text>
</a>
</g>
</g>
<!-- Node1&#45;&gt;Node29 -->
<g id="edge37" class="edge">
<title>Node1&#45;&gt;Node29</title>
<path fill="none" stroke="midnightblue" d="M1060.68,-117.42C1133.62,-110.59 1295.1,-94.72 1430.5,-76 1433.51,-75.58 1436.62,-75.13 1439.74,-74.66"/>
<polygon fill="midnightblue" stroke="midnightblue" points="1060.21,-113.95 1050.58,-118.36 1060.86,-120.92 1060.21,-113.95"/>
</g>
<!-- Node31 -->
<g id="node31" class="node">
<title>Node31</title>
<g id="a_node31"><a xlink:href="TempSensor_8h.html" target="_top" xlink:title=" ">
<polygon fill="none" stroke="black" points="1546.5,-56.5 1546.5,-75.5 1630.5,-75.5 1630.5,-56.5 1546.5,-56.5"/>
<text text-anchor="middle" x="1588.5" y="-63.5" font-family="Helvetica,sans-Serif" font-size="10.00">TempSensor.h</text>
</a>
</g>
</g>
<!-- Node1&#45;&gt;Node31 -->
<g id="edge40" class="edge">
<title>Node1&#45;&gt;Node31</title>
<path fill="none" stroke="midnightblue" d="M1060.84,-118.75C1147.31,-113.55 1360.34,-99.31 1537.5,-76 1540.35,-75.62 1543.29,-75.2 1546.24,-74.75"/>
<polygon fill="midnightblue" stroke="midnightblue" points="1060.47,-115.27 1050.69,-119.35 1060.88,-122.25 1060.47,-115.27"/>
</g>
<!-- Node33 -->
<g id="node33" class="node">
<title>Node33</title>
<g id="a_node33"><a xlink:href="ZOPT220Sensor_8h.html" target="_top" xlink:title=" ">
<polygon fill="none" stroke="black" points="1944.5,-56.5 1944.5,-75.5 2046.5,-75.5 2046.5,-56.5 1944.5,-56.5"/>
<text text-anchor="middle" x="1995.5" y="-63.5" font-family="Helvetica,sans-Serif" font-size="10.00">ZOPT220Sensor.h</text>
</a>
</g>
</g>
<!-- Node1&#45;&gt;Node33 -->
<g id="edge43" class="edge">
<title>Node1&#45;&gt;Node33</title>
<path fill="none" stroke="midnightblue" d="M1060.84,-119.96C1186.19,-116.43 1587.47,-103.62 1918.5,-76 1926.82,-75.31 1935.62,-74.42 1944.19,-73.48"/>
<polygon fill="midnightblue" stroke="midnightblue" points="1060.49,-116.47 1050.59,-120.24 1060.68,-123.46 1060.49,-116.47"/>
</g>
<!-- Node3 -->
<g id="node3" class="node">
<title>Node3</title>
<g id="a_node3"><a xlink:href="AnalogSensor_8cpp.html" target="_top" xlink:title=" ">
<polygon fill="none" stroke="black" points="0,-0.5 0,-19.5 103,-19.5 103,-0.5 0,-0.5"/>
<text text-anchor="middle" x="51.5" y="-7.5" font-family="Helvetica,sans-Serif" font-size="10.00">AnalogSensor.cpp</text>
</a>
</g>
</g>
<!-- Node2&#45;&gt;Node3 -->
<g id="edge2" class="edge">
<title>Node2&#45;&gt;Node3</title>
<path fill="none" stroke="midnightblue" d="M94.32,-49.54C83.62,-39.91 70.24,-27.87 61.32,-19.83"/>
<polygon fill="midnightblue" stroke="midnightblue" points="92.09,-52.24 101.86,-56.32 96.77,-47.03 92.09,-52.24"/>
</g>
<!-- Node5 -->
<g id="node5" class="node">
<title>Node5</title>
<g id="a_node5"><a xlink:href="AS7331Sensor_8cpp.html" target="_top" xlink:title=" ">
<polygon fill="none" stroke="black" points="121.5,-0.5 121.5,-19.5 227.5,-19.5 227.5,-0.5 121.5,-0.5"/>
<text text-anchor="middle" x="174.5" y="-7.5" font-family="Helvetica,sans-Serif" font-size="10.00">AS7331Sensor.cpp</text>
</a>
</g>
</g>
<!-- Node4&#45;&gt;Node5 -->
<g id="edge4" class="edge">
<title>Node4&#45;&gt;Node5</title>
<path fill="none" stroke="midnightblue" d="M256.98,-51.86C236.77,-41.85 209.51,-28.35 191.97,-19.65"/>
<polygon fill="midnightblue" stroke="midnightblue" points="255.47,-55.02 265.99,-56.32 258.58,-48.75 255.47,-55.02"/>
</g>
<!-- Node4&#45;&gt;Node6 -->
<g id="edge5" class="edge">
<title>Node4&#45;&gt;Node6</title>
<path fill="none" stroke="midnightblue" d="M341.02,-56.06C578.62,-30.09 642.32,-53.74 874.5,-20 877.32,-19.59 880.23,-19.09 883.14,-18.53"/>
<polygon fill="midnightblue" stroke="midnightblue" points="340.6,-52.59 331.04,-57.17 341.37,-59.54 340.6,-52.59"/>
</g>
<!-- Node7&#45;&gt;Node6 -->
<g id="edge8" class="edge">
<title>Node7&#45;&gt;Node6</title>
<path fill="none" stroke="midnightblue" d="M457.62,-55.95C643.38,-34.2 693.47,-48.03 874.5,-20 877.31,-19.56 880.22,-19.05 883.13,-18.48"/>
<polygon fill="midnightblue" stroke="midnightblue" points="457.03,-52.5 447.52,-57.15 457.86,-59.45 457.03,-52.5"/>
</g>
<!-- Node8 -->
<g id="node8" class="node">
<title>Node8</title>
<g id="a_node8"><a xlink:href="BME280Sensor_8cpp.html" target="_top" xlink:title=" ">
<polygon fill="none" stroke="black" points="246,-0.5 246,-19.5 355,-19.5 355,-0.5 246,-0.5"/>
<text text-anchor="middle" x="300.5" y="-7.5" font-family="Helvetica,sans-Serif" font-size="10.00">BME280Sensor.cpp</text>
</a>
</g>
</g>
<!-- Node7&#45;&gt;Node8 -->
<g id="edge7" class="edge">
<title>Node7&#45;&gt;Node8</title>
<path fill="none" stroke="midnightblue" d="M373.91,-51.45C355.82,-41.48 331.77,-28.23 316.21,-19.65"/>
<polygon fill="midnightblue" stroke="midnightblue" points="372.31,-54.56 382.75,-56.32 375.69,-48.43 372.31,-54.56"/>
</g>
<!-- Node9&#45;&gt;Node6 -->
<g id="edge11" class="edge">
<title>Node9&#45;&gt;Node6</title>
<path fill="none" stroke="midnightblue" d="M573.81,-55.87C708.18,-37.87 744.53,-42.31 874.5,-20 877.31,-19.52 880.21,-18.97 883.12,-18.38"/>
<polygon fill="midnightblue" stroke="midnightblue" points="572.97,-52.45 563.53,-57.27 573.91,-59.39 572.97,-52.45"/>
</g>
<!-- Node10 -->
<g id="node10" class="node">
<title>Node10</title>
<g id="a_node10"><a xlink:href="BME680Sensor_8cpp.html" target="_top" xlink:title=" ">
<polygon fill="none" stroke="black" points="373,-0.5 373,-19.5 482,-19.5 482,-0.5 373,-0.5"/>
<text text-anchor="middle" x="427.5" y="-7.5" font-family="Helvetica,sans-Serif" font-size="10.00">BME680Sensor.cpp</text>
</a>
</g>
</g>
<!-- Node9&#45;&gt;Node10 -->
<g id="edge10" class="edge">
<title>Node9&#45;&gt;Node10</title>
<path fill="none" stroke="midnightblue" d="M491.78,-50.9C475.83,-41 455,-28.07 441.44,-19.65"/>
<polygon fill="midnightblue" stroke="midnightblue" points="490.18,-54.02 500.52,-56.32 493.87,-48.08 490.18,-54.02"/>
</g>
<!-- Node12 -->
<g id="node12" class="node">
<title>Node12</title>
<g id="a_node12"><a xlink:href="DS3231Sensor_8cpp.html" target="_top" xlink:title=" ">
<polygon fill="none" stroke="black" points="1712,-0.5 1712,-19.5 1819,-19.5 1819,-0.5 1712,-0.5"/>
<text text-anchor="middle" x="1765.5" y="-7.5" font-family="Helvetica,sans-Serif" font-size="10.00">DS3231Sensor.cpp</text>
</a>
</g>
</g>
<!-- Node11&#45;&gt;Node12 -->
<g id="edge13" class="edge">
<title>Node11&#45;&gt;Node12</title>
<path fill="none" stroke="midnightblue" d="M1741.8,-47.57C1747.82,-38.27 1754.97,-27.25 1759.83,-19.75"/>
<polygon fill="midnightblue" stroke="midnightblue" points="1738.78,-45.79 1736.28,-56.08 1744.66,-49.6 1738.78,-45.79"/>
</g>
<!-- Node13&#45;&gt;Node6 -->
<g id="edge16" class="edge">
<title>Node13&#45;&gt;Node6</title>
<path fill="none" stroke="midnightblue" d="M686.96,-55.11C736.69,-46.39 810.48,-33.08 874.5,-20 877.29,-19.43 880.18,-18.82 883.08,-18.19"/>
<polygon fill="midnightblue" stroke="midnightblue" points="686.28,-51.68 677.03,-56.85 687.49,-58.57 686.28,-51.68"/>
</g>
<!-- Node14 -->
<g id="node14" class="node">
<title>Node14</title>
<g id="a_node14"><a xlink:href="ENS160Sensor_8cpp.html" target="_top" xlink:title=" ">
<polygon fill="none" stroke="black" points="500,-0.5 500,-19.5 607,-19.5 607,-0.5 500,-0.5"/>
<text text-anchor="middle" x="553.5" y="-7.5" font-family="Helvetica,sans-Serif" font-size="10.00">ENS160Sensor.cpp</text>
</a>
</g>
</g>
<!-- Node13&#45;&gt;Node14 -->
<g id="edge15" class="edge">
<title>Node13&#45;&gt;Node14</title>
<path fill="none" stroke="midnightblue" d="M608.92,-50.38C595.19,-40.62 577.57,-28.11 565.93,-19.83"/>
<polygon fill="midnightblue" stroke="midnightblue" points="607.11,-53.38 617.29,-56.32 611.16,-47.68 607.11,-53.38"/>
</g>
<!-- Node16 -->
<g id="node16" class="node">
<title>Node16</title>
<g id="a_node16"><a xlink:href="GeigerSensor_8cpp.html" target="_top" xlink:title=" ">
<polygon fill="none" stroke="black" points="1837,-0.5 1837,-19.5 1938,-19.5 1938,-0.5 1837,-0.5"/>
<text text-anchor="middle" x="1887.5" y="-7.5" font-family="Helvetica,sans-Serif" font-size="10.00">GeigerSensor.cpp</text>
</a>
</g>
</g>
<!-- Node15&#45;&gt;Node16 -->
<g id="edge18" class="edge">
<title>Node15&#45;&gt;Node16</title>
<path fill="none" stroke="midnightblue" d="M1872.3,-46.69C1876.18,-37.59 1880.68,-27.01 1883.77,-19.75"/>
<polygon fill="midnightblue" stroke="midnightblue" points="1869,-45.51 1868.3,-56.08 1875.44,-48.25 1869,-45.51"/>
</g>
<!-- Node17&#45;&gt;Node6 -->
<g id="edge21" class="edge">
<title>Node17&#45;&gt;Node6</title>
<path fill="none" stroke="midnightblue" d="M784.45,-53.3C815.73,-43.13 860.32,-28.62 888.32,-19.52"/>
<polygon fill="midnightblue" stroke="midnightblue" points="783.23,-50.02 774.8,-56.44 785.4,-56.68 783.23,-50.02"/>
</g>
<!-- Node18 -->
<g id="node18" class="node">
<title>Node18</title>
<g id="a_node18"><a xlink:href="ICM20948Sensor_8cpp.html" target="_top" xlink:title=" ">
<polygon fill="none" stroke="black" points="625.5,-0.5 625.5,-19.5 743.5,-19.5 743.5,-0.5 625.5,-0.5"/>
<text text-anchor="middle" x="684.5" y="-7.5" font-family="Helvetica,sans-Serif" font-size="10.00">ICM20948Sensor.cpp</text>
</a>
</g>
</g>
<!-- Node17&#45;&gt;Node18 -->
<g id="edge20" class="edge">
<title>Node17&#45;&gt;Node18</title>
<path fill="none" stroke="midnightblue" d="M730.51,-49.82C719.04,-40.15 704.59,-27.95 694.97,-19.83"/>
<polygon fill="midnightblue" stroke="midnightblue" points="728.32,-52.55 738.22,-56.32 732.83,-47.2 728.32,-52.55"/>
</g>
<!-- Node19&#45;&gt;Node6 -->
<g id="edge24" class="edge">
<title>Node19&#45;&gt;Node6</title>
<path fill="none" stroke="midnightblue" d="M881.23,-48.43C889.64,-38.97 899.85,-27.48 906.72,-19.75"/>
<polygon fill="midnightblue" stroke="midnightblue" points="878.45,-46.28 874.43,-56.08 883.69,-50.93 878.45,-46.28"/>
</g>
<!-- Node20 -->
<g id="node20" class="node">
<title>Node20</title>
<g id="a_node20"><a xlink:href="INA260Sensor_8cpp.html" target="_top" xlink:title=" ">
<polygon fill="none" stroke="black" points="761.5,-0.5 761.5,-19.5 865.5,-19.5 865.5,-0.5 761.5,-0.5"/>
<text text-anchor="middle" x="813.5" y="-7.5" font-family="Helvetica,sans-Serif" font-size="10.00">INA260Sensor.cpp</text>
</a>
</g>
</g>
<!-- Node19&#45;&gt;Node20 -->
<g id="edge23" class="edge">
<title>Node19&#45;&gt;Node20</title>
<path fill="none" stroke="midnightblue" d="M850.52,-48.72C841.18,-39.2 829.75,-27.56 822.09,-19.75"/>
<polygon fill="midnightblue" stroke="midnightblue" points="848.25,-51.4 857.75,-56.08 853.24,-46.49 848.25,-51.4"/>
</g>
<!-- Node21&#45;&gt;Node6 -->
<g id="edge27" class="edge">
<title>Node21&#45;&gt;Node6</title>
<path fill="none" stroke="midnightblue" d="M995.2,-51.73C975.39,-41.73 948.79,-28.31 931.65,-19.65"/>
<polygon fill="midnightblue" stroke="midnightblue" points="993.8,-54.94 1004.31,-56.32 996.96,-48.69 993.8,-54.94"/>
</g>
<!-- Node22 -->
<g id="node22" class="node">
<title>Node22</title>
<g id="a_node22"><a xlink:href="LSM9DS1Sensor_8cpp.html" target="_top" xlink:title=" ">
<polygon fill="none" stroke="black" points="964,-0.5 964,-19.5 1079,-19.5 1079,-0.5 964,-0.5"/>
<text text-anchor="middle" x="1021.5" y="-7.5" font-family="Helvetica,sans-Serif" font-size="10.00">LSM9DS1Sensor.cpp</text>
</a>
</g>
</g>
<!-- Node21&#45;&gt;Node22 -->
<g id="edge26" class="edge">
<title>Node21&#45;&gt;Node22</title>
<path fill="none" stroke="midnightblue" d="M1021.5,-45.8C1021.5,-36.91 1021.5,-26.78 1021.5,-19.75"/>
<polygon fill="midnightblue" stroke="midnightblue" points="1018,-46.08 1021.5,-56.08 1025,-46.08 1018,-46.08"/>
</g>
<!-- Node23&#45;&gt;Node6 -->
<g id="edge29" class="edge">
<title>Node23&#45;&gt;Node6</title>
<path fill="none" stroke="midnightblue" d="M1097.4,-54.13C1052.35,-43.51 985,-27.62 945.83,-18.39"/>
<polygon fill="midnightblue" stroke="midnightblue" points="1096.68,-57.55 1107.21,-56.44 1098.28,-50.74 1096.68,-57.55"/>
</g>
<!-- Node24 -->
<g id="node24" class="node">
<title>Node24</title>
<g id="a_node24"><a xlink:href="MTK3339Sensor_8cpp.html" target="_top" xlink:title=" ">
<polygon fill="none" stroke="black" points="1097,-0.5 1097,-19.5 1212,-19.5 1212,-0.5 1097,-0.5"/>
<text text-anchor="middle" x="1154.5" y="-7.5" font-family="Helvetica,sans-Serif" font-size="10.00">MTK3339Sensor.cpp</text>
</a>
</g>
</g>
<!-- Node23&#45;&gt;Node24 -->
<g id="edge30" class="edge">
<title>Node23&#45;&gt;Node24</title>
<path fill="none" stroke="midnightblue" d="M1147.35,-46.1C1149.18,-37.14 1151.27,-26.86 1152.72,-19.75"/>
<polygon fill="midnightblue" stroke="midnightblue" points="1143.88,-45.59 1145.32,-56.08 1150.74,-46.98 1143.88,-45.59"/>
</g>
<!-- Node25&#45;&gt;Node6 -->
<g id="edge32" class="edge">
<title>Node25&#45;&gt;Node6</title>
<path fill="none" stroke="midnightblue" d="M1203.76,-55.91C1091.75,-39.69 1061.77,-39.76 954.5,-20 951.7,-19.48 948.8,-18.91 945.9,-18.31"/>
<polygon fill="midnightblue" stroke="midnightblue" points="1203.36,-59.39 1213.76,-57.37 1204.37,-52.46 1203.36,-59.39"/>
</g>
<!-- Node26 -->
<g id="node26" class="node">
<title>Node26</title>
<g id="a_node26"><a xlink:href="PCF8523Sensor_8cpp.html" target="_top" xlink:title=" ">
<polygon fill="none" stroke="black" points="1230.5,-0.5 1230.5,-19.5 1342.5,-19.5 1342.5,-0.5 1230.5,-0.5"/>
<text text-anchor="middle" x="1286.5" y="-7.5" font-family="Helvetica,sans-Serif" font-size="10.00">PCF8523Sensor.cpp</text>
</a>
</g>
</g>
<!-- Node25&#45;&gt;Node26 -->
<g id="edge33" class="edge">
<title>Node25&#45;&gt;Node26</title>
<path fill="none" stroke="midnightblue" d="M1271.96,-46.69C1275.67,-37.59 1279.98,-27.01 1282.93,-19.75"/>
<polygon fill="midnightblue" stroke="midnightblue" points="1268.66,-45.5 1268.13,-56.08 1275.15,-48.14 1268.66,-45.5"/>
</g>
<!-- Node27&#45;&gt;Node6 -->
<g id="edge35" class="edge">
<title>Node27&#45;&gt;Node6</title>
<path fill="none" stroke="midnightblue" d="M1322.78,-56C1158.41,-34.89 1114.02,-45.63 954.5,-20 951.69,-19.55 948.78,-19.02 945.87,-18.44"/>
<polygon fill="midnightblue" stroke="midnightblue" points="1322.38,-59.48 1332.75,-57.3 1323.28,-52.54 1322.38,-59.48"/>
</g>
<!-- Node28 -->
<g id="node28" class="node">
<title>Node28</title>
<g id="a_node28"><a xlink:href="SGP30Sensor_8cpp.html" target="_top" xlink:title=" ">
<polygon fill="none" stroke="black" points="1361,-0.5 1361,-19.5 1462,-19.5 1462,-0.5 1361,-0.5"/>
<text text-anchor="middle" x="1411.5" y="-7.5" font-family="Helvetica,sans-Serif" font-size="10.00">SGP30Sensor.cpp</text>
</a>
</g>
</g>
<!-- Node27&#45;&gt;Node28 -->
<g id="edge36" class="edge">
<title>Node27&#45;&gt;Node28</title>
<path fill="none" stroke="midnightblue" d="M1388.48,-47.57C1394.33,-38.27 1401.27,-27.25 1405.99,-19.75"/>
<polygon fill="midnightblue" stroke="midnightblue" points="1385.48,-45.76 1383.11,-56.08 1391.4,-49.49 1385.48,-45.76"/>
</g>
<!-- Node29&#45;&gt;Node6 -->
<g id="edge38" class="edge">
<title>Node29&#45;&gt;Node6</title>
<path fill="none" stroke="midnightblue" d="M1429.57,-56.01C1218.1,-31.17 1161.05,-50.88 954.5,-20 951.68,-19.58 948.77,-19.07 945.86,-18.51"/>
<polygon fill="midnightblue" stroke="midnightblue" points="1429.41,-59.51 1439.76,-57.23 1430.24,-52.56 1429.41,-59.51"/>
</g>
<!-- Node30 -->
<g id="node30" class="node">
<title>Node30</title>
<g id="a_node30"><a xlink:href="SHT31Sensor_8cpp.html" target="_top" xlink:title=" ">
<polygon fill="none" stroke="black" points="1480,-0.5 1480,-19.5 1581,-19.5 1581,-0.5 1480,-0.5"/>
<text text-anchor="middle" x="1530.5" y="-7.5" font-family="Helvetica,sans-Serif" font-size="10.00">SHT31Sensor.cpp</text>
</a>
</g>
</g>
<!-- Node29&#45;&gt;Node30 -->
<g id="edge39" class="edge">
<title>Node29&#45;&gt;Node30</title>
<path fill="none" stroke="midnightblue" d="M1498.61,-48.43C1506.68,-38.97 1516.46,-27.48 1523.05,-19.75"/>
<polygon fill="midnightblue" stroke="midnightblue" points="1495.92,-46.2 1492.1,-56.08 1501.25,-50.74 1495.92,-46.2"/>
</g>
<!-- Node31&#45;&gt;Node6 -->
<g id="edge41" class="edge">
<title>Node31&#45;&gt;Node6</title>
<path fill="none" stroke="midnightblue" d="M1536.2,-55.99C1277.94,-26.18 1208.25,-56.14 954.5,-20 951.68,-19.6 948.77,-19.1 945.86,-18.55"/>
<polygon fill="midnightblue" stroke="midnightblue" points="1535.91,-59.48 1546.25,-57.17 1536.73,-52.52 1535.91,-59.48"/>
</g>
<!-- Node32 -->
<g id="node32" class="node">
<title>Node32</title>
<g id="a_node32"><a xlink:href="TempSensor_8cpp.html" target="_top" xlink:title=" ">
<polygon fill="none" stroke="black" points="1599,-0.5 1599,-19.5 1694,-19.5 1694,-0.5 1599,-0.5"/>
<text text-anchor="middle" x="1646.5" y="-7.5" font-family="Helvetica,sans-Serif" font-size="10.00">TempSensor.cpp</text>
</a>
</g>
</g>
<!-- Node31&#45;&gt;Node32 -->
<g id="edge42" class="edge">
<title>Node31&#45;&gt;Node32</title>
<path fill="none" stroke="midnightblue" d="M1605.41,-49.25C1615.7,-39.67 1628.47,-27.79 1637.01,-19.83"/>
<polygon fill="midnightblue" stroke="midnightblue" points="1602.75,-46.95 1597.82,-56.32 1607.52,-52.07 1602.75,-46.95"/>
</g>
<!-- Node34 -->
<g id="node34" class="node">
<title>Node34</title>
<g id="a_node34"><a xlink:href="ZOPT220Sensor_8cpp.html" target="_top" xlink:title=" ">
<polygon fill="none" stroke="black" points="1956,-0.5 1956,-19.5 2069,-19.5 2069,-0.5 1956,-0.5"/>
<text text-anchor="middle" x="2012.5" y="-7.5" font-family="Helvetica,sans-Serif" font-size="10.00">ZOPT220Sensor.cpp</text>
</a>
</g>
</g>
<!-- Node33&#45;&gt;Node34 -->
<g id="edge44" class="edge">
<title>Node33&#45;&gt;Node34</title>
<path fill="none" stroke="midnightblue" d="M2001.36,-46.4C2004.2,-37.36 2007.48,-26.94 2009.75,-19.75"/>
<polygon fill="midnightblue" stroke="midnightblue" points="1997.97,-45.49 1998.31,-56.08 2004.65,-47.6 1997.97,-45.49"/>
</g>
</g>
</svg>
        <g id="navigator" transform="translate(0 0)" fill="#404254">
                <rect fill="#f2f5e9" fill-opacity="0.5" stroke="#606060" stroke-width=".5" x="0" y="0" width="60" height="60"/>
                <use id="zoomplus" xlink:href="#zoomPlus" x="17" y="9" onmousedown="handleZoom(evt,'in')"/>
                <use id="zoomminus" xlink:href="#zoomMin" x="42" y="9" onmousedown="handleZoom(evt,'out')"/>
                <use id="reset" xlink:href="#resetDef" x="30" y="36" onmousedown="handleReset()"/>
                <g id="arrowUp" xlink:href="#dirArrow" transform="translate(30 24)" onmousedown="handlePan(0,-1)">
                  <use xlink:href="#rim" fill="#404040">
                        <set attributeName="fill" to="#808080" begin="arrowUp.mouseover" end="arrowUp.mouseout"/>
                  </use>
                  <path fill="none" stroke="white" stroke-width="1.5" d="M0,-3.0v7 M-2.5,-0.5L0,-3.0L2.5,-0.5"/>
                </g>
                <g id="arrowRight" xlink:href="#dirArrow" transform="rotate(90) translate(36 -43)" onmousedown="handlePan(1,0)">
                  <use xlink:href="#rim" fill="#404040">
                        <set attributeName="fill" to="#808080" begin="arrowRight.mouseover" end="arrowRight.mouseout"/>
                  </use>
                  <path fill="none" stroke="white" stroke-width="1.5" d="M0,-3.0v7 M-2.5,-0.5L0,-3.0L2.5,-0.5"/>
                </g>
                <g id="arrowDown" xlink:href="#dirArrow" transform="rotate(180) translate(-30 -48)" onmousedown="handlePan(0,1)">
                  <use xlink:href="#rim" fill="#404040">
                        <set attributeName="fill" to="#808080" begin="arrowDown.mouseover" end="arrowDown.mouseout"/>
                  </use>
                  <path fill="none" stroke="white" stroke-width="1.5" d="M0,-3.0v7 M-2.5,-0.5L0,-3.0L2.5,-0.5"/>
                </g>
                <g id="arrowLeft" xlink:href="#dirArrow" transform="rotate(270) translate(-36 17)" onmousedown="handlePan(-1,0)">
                  <use xlink:href="#rim" fill="#404040">
                        <set attributeName="fill" to="#808080" begin="arrowLeft.mouseover" end="arrowLeft.mouseout"/>
                  </use>
                  <path fill="none" stroke="white" stroke-width="1.5" d="M0,-3.0v7 M-2.5,-0.5L0,-3.0L2.5,-0.5"/>
                </g>
        </g>
        <svg viewBox="0 0 15 15" width="100%" height="30px" preserveAspectRatio="xMaxYMin meet">
         <g id="arrow_out" transform="scale(0.3 0.3)">
          <a xlink:href="Sensor_8h__dep__incl_org.svg" target="_base">
           <rect id="button" ry="5" rx="5" y="6" x="6" height="38" width="38"
                fill="#f2f5e9" fill-opacity="0.5" stroke="#606060" stroke-width="1.0"/>
           <path id="arrow"
             d="M 11.500037,31.436501 C 11.940474,20.09759 22.043105,11.32322 32.158766,21.979434 L 37.068811,17.246167 C 37.068811,17.246167 37.088388,32 37.088388,32 L 22.160133,31.978069 C 22.160133,31.978069 26.997745,27.140456 26.997745,27.140456 C 18.528582,18.264221 13.291696,25.230495 11.500037,31.436501 z"
             style="fill:#404040;"/>
          </a>
         </g>
        </svg>
</svg>
