<?xml version="1.0" encoding="UTF-8" standalone="no"?>
<!DOCTYPE svg PUBLIC "-//W3C//DTD SVG 1.1//EN"
 "http://www.w3.org/Graphics/SVG/1.1/DTD/svg11.dtd">
<!-- Generated by graphviz version 2.43.0 (0)
 -->
<!-- Title: Sensor.h Pages: 1 -->
<!--zoomable 140 -->
<svg id="main" version="1.1" xmlns="http://www.w3.org/2000/svg" xmlns:xlink="http://www.w3.org/1999/xlink" xml:space="preserve" onload="init(evt)">
<style type="text/css"><![CDATA[
.edge:hover path { stroke: red; }
.edge:hover polygon { stroke: red; fill: red; }
]]></style>
<script type="text/javascript"><![CDATA[
var edges = document.getElementsByTagName('g');
if (edges && edges.length) {
  for (var i=0;i<edges.length;i++) {
    if (edges[i].id.substr(0,4)=='edge') {
      edges[i].setAttribute('class','edge');
    }
  }
}
]]></script>
        <defs>
                <circle id="rim" cx="0" cy="0" r="7"/>
                <circle id="rim2" cx="0" cy="0" r="3.5"/>
                <g id="zoomPlus">
                        <use xlink:href="#rim" fill="#404040">
                                <set attributeName="fill" to="#808080" begin="zoomplus.mouseover" end="zoomplus.mouseout"/>
                        </use>
                        <path d="M-4,0h8M0,-4v8" fill="none" stroke="white" stroke-width="1.5" pointer-events="none"/>
                </g>
                <g id="zoomMin">
                        <use xlink:href="#rim" fill="#404040">
                                <set attributeName="fill" to="#808080" begin="zoomminus.mouseover" end="zoomminus.mouseout"/>
                        </use>
                        <path d="M-4,0h8" fill="none" stroke="white" stroke-width="1.5" pointer-events="none"/>
                </g>
                <g id="dirArrow">
                        <path fill="none" stroke="white" stroke-width="1.5" d="M0,-3.0v7 M-2.5,-0.5L0,-3.0L2.5,-0.5"/>
                </g>
               <g id="resetDef">
                       <use xlink:href="#rim2" fill="#404040">
                               <set attributeName="fill" to="#808080" begin="reset.mouseover" end="reset.mouseout"/>
                       </use>
               </g>
        </defs>

<script type="text/javascript">
var viewWidth = 2077;
var viewHeight = 140;
var sectionId = 'dynsection-1';
</script>
<script xlink:href="svgpan.js"/>
<svg id="graph" class="graph">
<g id="viewport">
<title>Sensor.h</title>
<!-- Node1 -->
<g id="node1" class="node">
<title>Node1</title>
<g id="a_node1"><a xlink:title=" ">
<polygon fill="#bfbfbf" stroke="black" points="986.5,-112.5 986.5,-131.5 1044.5,-131.5 1044.5,-112.5 986.5,-112.5"/>
<text text-anchor="middle" x="1015.5" y="-119.5" font-family="Helvetica,sans-Serif" font-size="10.00">Sensor.h</text>
</a>
</g>
</g>
<!-- Node2 -->
<g id="node2" class="node">
<title>Node2</title>
<g id="a_node2"><a xlink:href="AnalogSensor_8h.html" target="_top" xlink:title=" ">
<polygon fill="none" stroke="black" points="64.5,-56.5 64.5,-75.5 156.5,-75.5 156.5,-56.5 64.5,-56.5"/>
<text text-anchor="middle" x="110.5" y="-63.5" font-family="Helvetica,sans-Serif" font-size="10.00">AnalogSensor.h</text>
</a>
</g>
</g>
<!-- Node1&#45;&gt;Node2 -->
<g id="edge1" class="edge">
<title>Node1&#45;&gt;Node2</title>
<path fill="none" stroke="midnightblue" d="M976.03,-119.13C859.97,-113.56 509.73,-96.18 219.5,-76 198.85,-74.56 176.03,-72.72 156.62,-71.07"/>
<polygon fill="midnightblue" stroke="midnightblue" points="976.05,-122.64 986.21,-119.62 976.39,-115.64 976.05,-122.64"/>
</g>
<!-- Node4 -->
<g id="node4" class="node">
<title>Node4</title>
<g id="a_node4"><a xlink:href="AS7331Sensor_8h.html" target="_top" xlink:title=" ">
<polygon fill="none" stroke="black" points="229,-56.5 229,-75.5 324,-75.5 324,-56.5 229,-56.5"/>
<text text-anchor="middle" x="276.5" y="-63.5" font-family="Helvetica,sans-Serif" font-size="10.00">AS7331Sensor.h</text>
</a>
</g>
</g>
<!-- Node1&#45;&gt;Node4 -->
<g id="edge3" class="edge">
<title>Node1&#45;&gt;Node4</title>
<path fill="none" stroke="midnightblue" d="M976.04,-119.65C871.18,-115.79 576.91,-103.19 333.5,-76 330.41,-75.66 327.24,-75.26 324.04,-74.84"/>
<polygon fill="midnightblue" stroke="midnightblue" points="976.05,-123.15 986.17,-120.02 976.3,-116.16 976.05,-123.15"/>
</g>
<!-- Node6 -->
<g id="node6" class="node">
<title>Node6</title>
<g id="a_node6"><a xlink:href="main_8cpp.html" target="_top" xlink:title=" ">
<polygon fill="none" stroke="black" points="761.5,-0.5 761.5,-19.5 823.5,-19.5 823.5,-0.5 761.5,-0.5"/>
<text text-anchor="middle" x="792.5" y="-7.5" font-family="Helvetica,sans-Serif" font-size="10.00">main.cpp</text>
</a>
</g>
</g>
<!-- Node1&#45;&gt;Node6 -->
<g id="edge44" class="edge">
<title>Node1&#45;&gt;Node6</title>
<path fill="none" stroke="midnightblue" d="M976.28,-118.1C939.15,-113.76 883.18,-102.93 842.5,-76 820.42,-61.38 804.03,-33.69 796.72,-19.64"/>
<polygon fill="midnightblue" stroke="midnightblue" points="975.91,-121.58 986.22,-119.16 976.65,-114.62 975.91,-121.58"/>
</g>
<!-- Node7 -->
<g id="node7" class="node">
<title>Node7</title>
<g id="a_node7"><a xlink:href="BME280Sensor_8h.html" target="_top" xlink:title=" ">
<polygon fill="none" stroke="black" points="342.5,-56.5 342.5,-75.5 440.5,-75.5 440.5,-56.5 342.5,-56.5"/>
<text text-anchor="middle" x="391.5" y="-63.5" font-family="Helvetica,sans-Serif" font-size="10.00">BME280Sensor.h</text>
</a>
</g>
</g>
<!-- Node1&#45;&gt;Node7 -->
<g id="edge6" class="edge">
<title>Node1&#45;&gt;Node7</title>
<path fill="none" stroke="midnightblue" d="M976.27,-118.89C884.12,-113.72 646.76,-99.11 449.5,-76 446.56,-75.66 443.55,-75.27 440.51,-74.87"/>
<polygon fill="midnightblue" stroke="midnightblue" points="976.08,-122.39 986.26,-119.45 976.47,-115.4 976.08,-122.39"/>
</g>
<!-- Node9 -->
<g id="node9" class="node">
<title>Node9</title>
<g id="a_node9"><a xlink:href="BME680Sensor_8h.html" target="_top" xlink:title=" ">
<polygon fill="none" stroke="black" points="458.5,-56.5 458.5,-75.5 556.5,-75.5 556.5,-56.5 458.5,-56.5"/>
<text text-anchor="middle" x="507.5" y="-63.5" font-family="Helvetica,sans-Serif" font-size="10.00">BME680Sensor.h</text>
</a>
</g>
</g>
<!-- Node1&#45;&gt;Node9 -->
<g id="edge9" class="edge">
<title>Node1&#45;&gt;Node9</title>
<path fill="none" stroke="midnightblue" d="M976.12,-117.79C897.78,-111.23 716.87,-95.3 565.5,-76 562.57,-75.63 559.56,-75.22 556.52,-74.8"/>
<polygon fill="midnightblue" stroke="midnightblue" points="976.23,-121.31 986.48,-118.65 976.81,-114.33 976.23,-121.31"/>
</g>
<!-- Node11 -->
<g id="node11" class="node">
<title>Node11</title>
<g id="a_node11"><a xlink:href="DS3231Sensor_8h.html" target="_top" xlink:title=" ">
<polygon fill="none" stroke="black" points="1570,-56.5 1570,-75.5 1665,-75.5 1665,-56.5 1570,-56.5"/>
<text text-anchor="middle" x="1617.5" y="-63.5" font-family="Helvetica,sans-Serif" font-size="10.00">DS3231Sensor.h</text>
</a>
</g>
</g>
<!-- Node1&#45;&gt;Node11 -->
<g id="edge12" class="edge">
<title>Node1&#45;&gt;Node11</title>
<path fill="none" stroke="midnightblue" d="M1054.66,-117.7C1140.26,-110.44 1350.51,-92.45 1526.5,-76 1540.57,-74.68 1555.85,-73.2 1569.81,-71.81"/>
<polygon fill="midnightblue" stroke="midnightblue" points="1054.27,-114.22 1044.61,-118.55 1054.87,-121.19 1054.27,-114.22"/>
</g>
<!-- Node13 -->
<g id="node13" class="node">
<title>Node13</title>
<g id="a_node13"><a xlink:href="ENS160Sensor_8h.html" target="_top" xlink:title=" ">
<polygon fill="none" stroke="black" points="575,-56.5 575,-75.5 670,-75.5 670,-56.5 575,-56.5"/>
<text text-anchor="middle" x="622.5" y="-63.5" font-family="Helvetica,sans-Serif" font-size="10.00">ENS160Sensor.h</text>
</a>
</g>
</g>
<!-- Node1&#45;&gt;Node13 -->
<g id="edge14" class="edge">
<title>Node1&#45;&gt;Node13</title>
<path fill="none" stroke="midnightblue" d="M975.88,-116.06C912.85,-108.11 785.87,-91.79 678.5,-76 675.77,-75.6 672.97,-75.18 670.15,-74.75"/>
<polygon fill="midnightblue" stroke="midnightblue" points="975.8,-119.57 986.16,-117.35 976.68,-112.63 975.8,-119.57"/>
</g>
<!-- Node15 -->
<g id="node15" class="node">
<title>Node15</title>
<g id="a_node15"><a xlink:href="GeigerSensor_8h.html" target="_top" xlink:title=" ">
<polygon fill="none" stroke="black" points="1705.5,-56.5 1705.5,-75.5 1795.5,-75.5 1795.5,-56.5 1705.5,-56.5"/>
<text text-anchor="middle" x="1750.5" y="-63.5" font-family="Helvetica,sans-Serif" font-size="10.00">GeigerSensor.h</text>
</a>
</g>
</g>
<!-- Node1&#45;&gt;Node15 -->
<g id="edge17" class="edge">
<title>Node1&#45;&gt;Node15</title>
<path fill="none" stroke="midnightblue" d="M1054.89,-118.97C1157.12,-113.55 1439.22,-97.69 1673.5,-76 1683.82,-75.04 1694.9,-73.85 1705.34,-72.65"/>
<polygon fill="midnightblue" stroke="midnightblue" points="1054.53,-115.48 1044.73,-119.5 1054.9,-122.47 1054.53,-115.48"/>
</g>
<!-- Node17 -->
<g id="node17" class="node">
<title>Node17</title>
<g id="a_node17"><a xlink:href="ICM20948Sensor_8h.html" target="_top" xlink:title=" ">
<polygon fill="none" stroke="black" points="688,-56.5 688,-75.5 795,-75.5 795,-56.5 688,-56.5"/>
<text text-anchor="middle" x="741.5" y="-63.5" font-family="Helvetica,sans-Serif" font-size="10.00">ICM20948Sensor.h</text>
</a>
</g>
</g>
<!-- Node1&#45;&gt;Node17 -->
<g id="edge19" class="edge">
<title>Node1&#45;&gt;Node17</title>
<path fill="none" stroke="midnightblue" d="M976.53,-113.32C925.93,-103.35 837.84,-85.99 785.07,-75.59"/>
<polygon fill="midnightblue" stroke="midnightblue" points="975.95,-116.77 986.44,-115.27 977.3,-109.9 975.95,-116.77"/>
</g>
<!-- Node19 -->
<g id="node19" class="node">
<title>Node19</title>
<g id="a_node19"><a xlink:href="INA260Sensor_8h.html" target="_top" xlink:title=" ">
<polygon fill="none" stroke="black" points="852,-56.5 852,-75.5 945,-75.5 945,-56.5 852,-56.5"/>
<text text-anchor="middle" x="898.5" y="-63.5" font-family="Helvetica,sans-Serif" font-size="10.00">INA260Sensor.h</text>
</a>
</g>
</g>
<!-- Node1&#45;&gt;Node19 -->
<g id="edge22" class="edge">
<title>Node1&#45;&gt;Node19</title>
<path fill="none" stroke="midnightblue" d="M987.84,-108.23C965.95,-98.13 936,-84.31 916.95,-75.52"/>
<polygon fill="midnightblue" stroke="midnightblue" points="986.41,-111.43 996.96,-112.44 989.35,-105.08 986.41,-111.43"/>
</g>
<!-- Node21 -->
<g id="node21" class="node">
<title>Node21</title>
<g id="a_node21"><a xlink:href="LSM9DS1Sensor_8h.html" target="_top" xlink:title=" ">
<polygon fill="none" stroke="black" points="963.5,-56.5 963.5,-75.5 1067.5,-75.5 1067.5,-56.5 963.5,-56.5"/>
<text text-anchor="middle" x="1015.5" y="-63.5" font-family="Helvetica,sans-Serif" font-size="10.00">LSM9DS1Sensor.h</text>
</a>
</g>
</g>
<!-- Node1&#45;&gt;Node21 -->
<g id="edge25" class="edge">
<title>Node1&#45;&gt;Node21</title>
<path fill="none" stroke="midnightblue" d="M1015.5,-101.8C1015.5,-92.91 1015.5,-82.78 1015.5,-75.75"/>
<polygon fill="midnightblue" stroke="midnightblue" points="1012,-102.08 1015.5,-112.08 1019,-102.08 1012,-102.08"/>
</g>
<!-- Node23 -->
<g id="node23" class="node">
<title>Node23</title>
<g id="a_node23"><a xlink:href="MTK3339Sensor_8h.html" target="_top" xlink:title=" ">
<polygon fill="none" stroke="black" points="1085.5,-56.5 1085.5,-75.5 1189.5,-75.5 1189.5,-56.5 1085.5,-56.5"/>
<text text-anchor="middle" x="1137.5" y="-63.5" font-family="Helvetica,sans-Serif" font-size="10.00">MTK3339Sensor.h</text>
</a>
</g>
</g>
<!-- Node1&#45;&gt;Node23 -->
<g id="edge28" class="edge">
<title>Node1&#45;&gt;Node23</title>
<path fill="none" stroke="midnightblue" d="M1044.04,-108.37C1066.89,-98.26 1098.31,-84.35 1118.26,-75.52"/>
<polygon fill="midnightblue" stroke="midnightblue" points="1042.56,-105.2 1034.83,-112.44 1045.39,-111.6 1042.56,-105.2"/>
</g>
<!-- Node25 -->
<g id="node25" class="node">
<title>Node25</title>
<g id="a_node25"><a xlink:href="PCF8523Sensor_8h.html" target="_top" xlink:title=" ">
<polygon fill="none" stroke="black" points="1208,-56.5 1208,-75.5 1309,-75.5 1309,-56.5 1208,-56.5"/>
<text text-anchor="middle" x="1258.5" y="-63.5" font-family="Helvetica,sans-Serif" font-size="10.00">PCF8523Sensor.h</text>
</a>
</g>
</g>
<!-- Node1&#45;&gt;Node25 -->
<g id="edge31" class="edge">
<title>Node1&#45;&gt;Node25</title>
<path fill="none" stroke="midnightblue" d="M1054.6,-112.31C1100.06,-102.21 1174.62,-85.64 1219.87,-75.58"/>
<polygon fill="midnightblue" stroke="midnightblue" points="1053.81,-108.9 1044.81,-114.49 1055.33,-115.73 1053.81,-108.9"/>
</g>
<!-- Node27 -->
<g id="node27" class="node">
<title>Node27</title>
<g id="a_node27"><a xlink:href="SGP30Sensor_8h.html" target="_top" xlink:title=" ">
<polygon fill="none" stroke="black" points="1327,-56.5 1327,-75.5 1416,-75.5 1416,-56.5 1327,-56.5"/>
<text text-anchor="middle" x="1371.5" y="-63.5" font-family="Helvetica,sans-Serif" font-size="10.00">SGP30Sensor.h</text>
</a>
</g>
</g>
<!-- Node1&#45;&gt;Node27 -->
<g id="edge34" class="edge">
<title>Node1&#45;&gt;Node27</title>
<path fill="none" stroke="midnightblue" d="M1054.81,-115.36C1112.47,-107.04 1223.35,-90.86 1317.5,-76 1320.5,-75.53 1323.6,-75.03 1326.72,-74.52"/>
<polygon fill="midnightblue" stroke="midnightblue" points="1054.08,-111.93 1044.68,-116.82 1055.08,-118.86 1054.08,-111.93"/>
</g>
<!-- Node29 -->
<g id="node29" class="node">
<title>Node29</title>
<g id="a_node29"><a xlink:href="SHT31Sensor_8h.html" target="_top" xlink:title=" ">
<polygon fill="none" stroke="black" points="1831,-56.5 1831,-75.5 1920,-75.5 1920,-56.5 1831,-56.5"/>
<text text-anchor="middle" x="1875.5" y="-63.5" font-family="Helvetica,sans-Serif" font-size="10.00">SHT31Sensor.h</text>
</a>
</g>
</g>
<!-- Node1&#45;&gt;Node29 -->
<g id="edge37" class="edge">
<title>Node1&#45;&gt;Node29</title>
<path fill="none" stroke="midnightblue" d="M1054.67,-119.72C1169.84,-115.77 1517.33,-102.36 1804.5,-76 1813.04,-75.22 1822.13,-74.2 1830.86,-73.14"/>
<polygon fill="midnightblue" stroke="midnightblue" points="1054.45,-116.23 1044.57,-120.07 1054.68,-123.23 1054.45,-116.23"/>
</g>
<!-- Node31 -->
<g id="node31" class="node">
<title>Node31</title>
<g id="a_node31"><a xlink:href="TempSensor_8h.html" target="_top" xlink:title=" ">
<polygon fill="none" stroke="black" points="1433.5,-56.5 1433.5,-75.5 1517.5,-75.5 1517.5,-56.5 1433.5,-56.5"/>
<text text-anchor="middle" x="1475.5" y="-63.5" font-family="Helvetica,sans-Serif" font-size="10.00">TempSensor.h</text>
</a>
</g>
</g>
<!-- Node1&#45;&gt;Node31 -->
<g id="edge39" class="edge">
<title>Node1&#45;&gt;Node31</title>
<path fill="none" stroke="midnightblue" d="M1054.7,-117.54C1127.67,-110.92 1289.19,-95.36 1424.5,-76 1427.35,-75.59 1430.28,-75.15 1433.23,-74.68"/>
<polygon fill="midnightblue" stroke="midnightblue" points="1054.24,-114.07 1044.59,-118.46 1054.87,-121.04 1054.24,-114.07"/>
</g>
<!-- Node33 -->
<g id="node33" class="node">
<title>Node33</title>
<g id="a_node33"><a xlink:href="ZOPT220Sensor_8h.html" target="_top" xlink:title=" ">
<polygon fill="none" stroke="black" points="1951.5,-56.5 1951.5,-75.5 2053.5,-75.5 2053.5,-56.5 1951.5,-56.5"/>
<text text-anchor="middle" x="2002.5" y="-63.5" font-family="Helvetica,sans-Serif" font-size="10.00">ZOPT220Sensor.h</text>
</a>
</g>
</g>
<!-- Node1&#45;&gt;Node33 -->
<g id="edge42" class="edge">
<title>Node1&#45;&gt;Node33</title>
<path fill="none" stroke="midnightblue" d="M1054.72,-120.07C1181.4,-116.87 1590.91,-104.81 1928.5,-76 1935.85,-75.37 1943.6,-74.58 1951.2,-73.72"/>
<polygon fill="midnightblue" stroke="midnightblue" points="1054.63,-116.57 1044.72,-120.32 1054.8,-123.57 1054.63,-116.57"/>
</g>
<!-- Node3 -->
<g id="node3" class="node">
<title>Node3</title>
<g id="a_node3"><a xlink:href="AnalogSensor_8cpp.html" target="_top" xlink:title=" ">
<polygon fill="none" stroke="black" points="0,-0.5 0,-19.5 103,-19.5 103,-0.5 0,-0.5"/>
<text text-anchor="middle" x="51.5" y="-7.5" font-family="Helvetica,sans-Serif" font-size="10.00">AnalogSensor.cpp</text>
</a>
</g>
</g>
<!-- Node2&#45;&gt;Node3 -->
<g id="edge2" class="edge">
<title>Node2&#45;&gt;Node3</title>
<path fill="none" stroke="midnightblue" d="M93.61,-49.54C83.09,-39.91 69.93,-27.87 61.15,-19.83"/>
<polygon fill="midnightblue" stroke="midnightblue" points="91.28,-52.15 101.02,-56.32 96.01,-46.99 91.28,-52.15"/>
</g>
<!-- Node5 -->
<g id="node5" class="node">
<title>Node5</title>
<g id="a_node5"><a xlink:href="AS7331Sensor_8cpp.html" target="_top" xlink:title=" ">
<polygon fill="none" stroke="black" points="121.5,-0.5 121.5,-19.5 227.5,-19.5 227.5,-0.5 121.5,-0.5"/>
<text text-anchor="middle" x="174.5" y="-7.5" font-family="Helvetica,sans-Serif" font-size="10.00">AS7331Sensor.cpp</text>
</a>
</g>
</g>
<!-- Node4&#45;&gt;Node5 -->
<g id="edge4" class="edge">
<title>Node4&#45;&gt;Node5</title>
<path fill="none" stroke="midnightblue" d="M251.17,-51.59C232.31,-41.61 207.12,-28.27 190.85,-19.65"/>
<polygon fill="midnightblue" stroke="midnightblue" points="249.64,-54.74 260.11,-56.32 252.91,-48.55 249.64,-54.74"/>
</g>
<!-- Node4&#45;&gt;Node6 -->
<g id="edge5" class="edge">
<title>Node4&#45;&gt;Node6</title>
<path fill="none" stroke="midnightblue" d="M334.2,-56.01C520.79,-33.93 571.04,-48.08 752.5,-20 755.31,-19.56 758.22,-19.05 761.13,-18.48"/>
<polygon fill="midnightblue" stroke="midnightblue" points="333.56,-52.56 324.05,-57.23 334.4,-59.51 333.56,-52.56"/>
</g>
<!-- Node7&#45;&gt;Node6 -->
<g id="edge8" class="edge">
<title>Node7&#45;&gt;Node6</title>
<path fill="none" stroke="midnightblue" d="M450.84,-55.87C585.63,-37.84 622.1,-42.36 752.5,-20 755.31,-19.52 758.21,-18.97 761.12,-18.38"/>
<polygon fill="midnightblue" stroke="midnightblue" points="449.97,-52.46 440.53,-57.27 450.91,-59.39 449.97,-52.46"/>
</g>
<!-- Node8 -->
<g id="node8" class="node">
<title>Node8</title>
<g id="a_node8"><a xlink:href="BME280Sensor_8cpp.html" target="_top" xlink:title=" ">
<polygon fill="none" stroke="black" points="246,-0.5 246,-19.5 355,-19.5 355,-0.5 246,-0.5"/>
<text text-anchor="middle" x="300.5" y="-7.5" font-family="Helvetica,sans-Serif" font-size="10.00">BME280Sensor.cpp</text>
</a>
</g>
</g>
<!-- Node7&#45;&gt;Node8 -->
<g id="edge7" class="edge">
<title>Node7&#45;&gt;Node8</title>
<path fill="none" stroke="midnightblue" d="M368.21,-51.18C351.46,-41.24 329.4,-28.15 315.08,-19.65"/>
<polygon fill="midnightblue" stroke="midnightblue" points="366.49,-54.23 376.88,-56.32 370.07,-48.21 366.49,-54.23"/>
</g>
<!-- Node9&#45;&gt;Node6 -->
<g id="edge11" class="edge">
<title>Node9&#45;&gt;Node6</title>
<path fill="none" stroke="midnightblue" d="M566.82,-54.78C616.51,-46.06 689.27,-32.91 752.5,-20 755.29,-19.43 758.18,-18.82 761.08,-18.19"/>
<polygon fill="midnightblue" stroke="midnightblue" points="566.13,-51.35 556.88,-56.52 567.34,-58.25 566.13,-51.35"/>
</g>
<!-- Node10 -->
<g id="node10" class="node">
<title>Node10</title>
<g id="a_node10"><a xlink:href="BME680Sensor_8cpp.html" target="_top" xlink:title=" ">
<polygon fill="none" stroke="black" points="373,-0.5 373,-19.5 482,-19.5 482,-0.5 373,-0.5"/>
<text text-anchor="middle" x="427.5" y="-7.5" font-family="Helvetica,sans-Serif" font-size="10.00">BME680Sensor.cpp</text>
</a>
</g>
</g>
<!-- Node9&#45;&gt;Node10 -->
<g id="edge10" class="edge">
<title>Node9&#45;&gt;Node10</title>
<path fill="none" stroke="midnightblue" d="M486.2,-50.62C471.58,-40.76 452.67,-27.99 440.32,-19.65"/>
<polygon fill="midnightblue" stroke="midnightblue" points="484.4,-53.63 494.65,-56.32 488.32,-47.83 484.4,-53.63"/>
</g>
<!-- Node12 -->
<g id="node12" class="node">
<title>Node12</title>
<g id="a_node12"><a xlink:href="DS3231Sensor_8cpp.html" target="_top" xlink:title=" ">
<polygon fill="none" stroke="black" points="1593,-0.5 1593,-19.5 1700,-19.5 1700,-0.5 1593,-0.5"/>
<text text-anchor="middle" x="1646.5" y="-7.5" font-family="Helvetica,sans-Serif" font-size="10.00">DS3231Sensor.cpp</text>
</a>
</g>
</g>
<!-- Node11&#45;&gt;Node12 -->
<g id="edge13" class="edge">
<title>Node11&#45;&gt;Node12</title>
<path fill="none" stroke="midnightblue" d="M1627.18,-46.98C1632.1,-37.82 1637.86,-27.09 1641.8,-19.75"/>
<polygon fill="midnightblue" stroke="midnightblue" points="1623.94,-45.62 1622.29,-56.08 1630.1,-48.93 1623.94,-45.62"/>
</g>
<!-- Node13&#45;&gt;Node6 -->
<g id="edge16" class="edge">
<title>Node13&#45;&gt;Node6</title>
<path fill="none" stroke="midnightblue" d="M659.32,-53.3C691.35,-43.13 737.02,-28.62 765.69,-19.52"/>
<polygon fill="midnightblue" stroke="midnightblue" points="657.91,-50.08 649.44,-56.44 660.03,-56.75 657.91,-50.08"/>
</g>
<!-- Node14 -->
<g id="node14" class="node">
<title>Node14</title>
<g id="a_node14"><a xlink:href="ENS160Sensor_8cpp.html" target="_top" xlink:title=" ">
<polygon fill="none" stroke="black" points="500,-0.5 500,-19.5 607,-19.5 607,-0.5 500,-0.5"/>
<text text-anchor="middle" x="553.5" y="-7.5" font-family="Helvetica,sans-Serif" font-size="10.00">ENS160Sensor.cpp</text>
</a>
</g>
</g>
<!-- Node13&#45;&gt;Node14 -->
<g id="edge15" class="edge">
<title>Node13&#45;&gt;Node14</title>
<path fill="none" stroke="midnightblue" d="M603.46,-50.1C591.04,-40.38 575.26,-28.03 564.79,-19.83"/>
<polygon fill="midnightblue" stroke="midnightblue" points="601.38,-52.92 611.41,-56.32 605.7,-47.4 601.38,-52.92"/>
</g>
<!-- Node16 -->
<g id="node16" class="node">
<title>Node16</title>
<g id="a_node16"><a xlink:href="GeigerSensor_8cpp.html" target="_top" xlink:title=" ">
<polygon fill="none" stroke="black" points="1718,-0.5 1718,-19.5 1819,-19.5 1819,-0.5 1718,-0.5"/>
<text text-anchor="middle" x="1768.5" y="-7.5" font-family="Helvetica,sans-Serif" font-size="10.00">GeigerSensor.cpp</text>
</a>
</g>
</g>
<!-- Node15&#45;&gt;Node16 -->
<g id="edge18" class="edge">
<title>Node15&#45;&gt;Node16</title>
<path fill="none" stroke="midnightblue" d="M1756.7,-46.4C1759.71,-37.36 1763.19,-26.94 1765.58,-19.75"/>
<polygon fill="midnightblue" stroke="midnightblue" points="1753.31,-45.49 1753.47,-56.08 1759.96,-47.7 1753.31,-45.49"/>
</g>
<!-- Node17&#45;&gt;Node6 -->
<g id="edge21" class="edge">
<title>Node17&#45;&gt;Node6</title>
<path fill="none" stroke="midnightblue" d="M756.88,-48.72C765.87,-39.2 776.86,-27.56 784.24,-19.75"/>
<polygon fill="midnightblue" stroke="midnightblue" points="754.24,-46.41 749.92,-56.08 759.33,-51.22 754.24,-46.41"/>
</g>
<!-- Node18 -->
<g id="node18" class="node">
<title>Node18</title>
<g id="a_node18"><a xlink:href="ICM20948Sensor_8cpp.html" target="_top" xlink:title=" ">
<polygon fill="none" stroke="black" points="625.5,-0.5 625.5,-19.5 743.5,-19.5 743.5,-0.5 625.5,-0.5"/>
<text text-anchor="middle" x="684.5" y="-7.5" font-family="Helvetica,sans-Serif" font-size="10.00">ICM20948Sensor.cpp</text>
</a>
</g>
</g>
<!-- Node17&#45;&gt;Node18 -->
<g id="edge20" class="edge">
<title>Node17&#45;&gt;Node18</title>
<path fill="none" stroke="midnightblue" d="M724.88,-49.25C714.77,-39.67 702.22,-27.79 693.82,-19.83"/>
<polygon fill="midnightblue" stroke="midnightblue" points="722.68,-51.99 732.34,-56.32 727.49,-46.91 722.68,-51.99"/>
</g>
<!-- Node19&#45;&gt;Node6 -->
<g id="edge24" class="edge">
<title>Node19&#45;&gt;Node6</title>
<path fill="none" stroke="midnightblue" d="M872.44,-51.73C852.82,-41.73 826.47,-28.31 809.49,-19.65"/>
<polygon fill="midnightblue" stroke="midnightblue" points="870.97,-54.9 881.47,-56.32 874.15,-48.67 870.97,-54.9"/>
</g>
<!-- Node20 -->
<g id="node20" class="node">
<title>Node20</title>
<g id="a_node20"><a xlink:href="INA260Sensor_8cpp.html" target="_top" xlink:title=" ">
<polygon fill="none" stroke="black" points="841.5,-0.5 841.5,-19.5 945.5,-19.5 945.5,-0.5 841.5,-0.5"/>
<text text-anchor="middle" x="893.5" y="-7.5" font-family="Helvetica,sans-Serif" font-size="10.00">INA260Sensor.cpp</text>
</a>
</g>
</g>
<!-- Node19&#45;&gt;Node20 -->
<g id="edge23" class="edge">
<title>Node19&#45;&gt;Node20</title>
<path fill="none" stroke="midnightblue" d="M896.75,-46.1C895.92,-37.14 894.97,-26.86 894.31,-19.75"/>
<polygon fill="midnightblue" stroke="midnightblue" points="893.27,-46.45 897.67,-56.08 900.24,-45.8 893.27,-46.45"/>
</g>
<!-- Node21&#45;&gt;Node6 -->
<g id="edge27" class="edge">
<title>Node21&#45;&gt;Node6</title>
<path fill="none" stroke="midnightblue" d="M970.39,-54.08C926.78,-43.52 861.88,-27.8 823.71,-18.56"/>
<polygon fill="midnightblue" stroke="midnightblue" points="969.62,-57.49 980.16,-56.44 971.27,-50.69 969.62,-57.49"/>
</g>
<!-- Node22 -->
<g id="node22" class="node">
<title>Node22</title>
<g id="a_node22"><a xlink:href="LSM9DS1Sensor_8cpp.html" target="_top" xlink:title=" ">
<polygon fill="none" stroke="black" points="964,-0.5 964,-19.5 1079,-19.5 1079,-0.5 964,-0.5"/>
<text text-anchor="middle" x="1021.5" y="-7.5" font-family="Helvetica,sans-Serif" font-size="10.00">LSM9DS1Sensor.cpp</text>
</a>
</g>
</g>
<!-- Node21&#45;&gt;Node22 -->
<g id="edge26" class="edge">
<title>Node21&#45;&gt;Node22</title>
<path fill="none" stroke="midnightblue" d="M1017.6,-46.1C1018.6,-37.14 1019.74,-26.86 1020.53,-19.75"/>
<polygon fill="midnightblue" stroke="midnightblue" points="1014.12,-45.76 1016.49,-56.08 1021.07,-46.53 1014.12,-45.76"/>
</g>
<!-- Node23&#45;&gt;Node6 -->
<g id="edge29" class="edge">
<title>Node23&#45;&gt;Node6</title>
<path fill="none" stroke="midnightblue" d="M1075.5,-55.86C986.44,-42.72 832.87,-20.07 832.5,-20 829.7,-19.48 826.8,-18.9 823.9,-18.3"/>
<polygon fill="midnightblue" stroke="midnightblue" points="1075.09,-59.33 1085.5,-57.33 1076.11,-52.41 1075.09,-59.33"/>
</g>
<!-- Node24 -->
<g id="node24" class="node">
<title>Node24</title>
<g id="a_node24"><a xlink:href="MTK3339Sensor_8cpp.html" target="_top" xlink:title=" ">
<polygon fill="none" stroke="black" points="1097,-0.5 1097,-19.5 1212,-19.5 1212,-0.5 1097,-0.5"/>
<text text-anchor="middle" x="1154.5" y="-7.5" font-family="Helvetica,sans-Serif" font-size="10.00">MTK3339Sensor.cpp</text>
</a>
</g>
</g>
<!-- Node23&#45;&gt;Node24 -->
<g id="edge30" class="edge">
<title>Node23&#45;&gt;Node24</title>
<path fill="none" stroke="midnightblue" d="M1143.36,-46.4C1146.2,-37.36 1149.48,-26.94 1151.75,-19.75"/>
<polygon fill="midnightblue" stroke="midnightblue" points="1139.97,-45.49 1140.31,-56.08 1146.65,-47.6 1139.97,-45.49"/>
</g>
<!-- Node25&#45;&gt;Node6 -->
<g id="edge32" class="edge">
<title>Node25&#45;&gt;Node6</title>
<path fill="none" stroke="midnightblue" d="M1197.4,-55.93C1034.5,-36.27 990.56,-45.46 832.5,-20 829.69,-19.55 826.78,-19.02 823.87,-18.44"/>
<polygon fill="midnightblue" stroke="midnightblue" points="1197.43,-59.46 1207.79,-57.21 1198.29,-52.52 1197.43,-59.46"/>
</g>
<!-- Node26 -->
<g id="node26" class="node">
<title>Node26</title>
<g id="a_node26"><a xlink:href="PCF8523Sensor_8cpp.html" target="_top" xlink:title=" ">
<polygon fill="none" stroke="black" points="1230.5,-0.5 1230.5,-19.5 1342.5,-19.5 1342.5,-0.5 1230.5,-0.5"/>
<text text-anchor="middle" x="1286.5" y="-7.5" font-family="Helvetica,sans-Serif" font-size="10.00">PCF8523Sensor.cpp</text>
</a>
</g>
</g>
<!-- Node25&#45;&gt;Node26 -->
<g id="edge33" class="edge">
<title>Node25&#45;&gt;Node26</title>
<path fill="none" stroke="midnightblue" d="M1267.84,-46.98C1272.59,-37.82 1278.16,-27.09 1281.96,-19.75"/>
<polygon fill="midnightblue" stroke="midnightblue" points="1264.62,-45.59 1263.12,-56.08 1270.83,-48.82 1264.62,-45.59"/>
</g>
<!-- Node27&#45;&gt;Node6 -->
<g id="edge35" class="edge">
<title>Node27&#45;&gt;Node6</title>
<path fill="none" stroke="midnightblue" d="M1316.7,-56.03C1101.15,-30.85 1043.06,-51.33 832.5,-20 829.68,-19.58 826.77,-19.07 823.86,-18.51"/>
<polygon fill="midnightblue" stroke="midnightblue" points="1316.41,-59.52 1326.76,-57.22 1317.24,-52.57 1316.41,-59.52"/>
</g>
<!-- Node28 -->
<g id="node28" class="node">
<title>Node28</title>
<g id="a_node28"><a xlink:href="SGP30Sensor_8cpp.html" target="_top" xlink:title=" ">
<polygon fill="none" stroke="black" points="1361,-0.5 1361,-19.5 1462,-19.5 1462,-0.5 1361,-0.5"/>
<text text-anchor="middle" x="1411.5" y="-7.5" font-family="Helvetica,sans-Serif" font-size="10.00">SGP30Sensor.cpp</text>
</a>
</g>
</g>
<!-- Node27&#45;&gt;Node28 -->
<g id="edge36" class="edge">
<title>Node27&#45;&gt;Node28</title>
<path fill="none" stroke="midnightblue" d="M1384.2,-47.86C1391.13,-38.5 1399.41,-27.33 1405.02,-19.75"/>
<polygon fill="midnightblue" stroke="midnightblue" points="1381.25,-45.96 1378.11,-56.08 1386.87,-50.13 1381.25,-45.96"/>
</g>
<!-- Node30 -->
<g id="node30" class="node">
<title>Node30</title>
<g id="a_node30"><a xlink:href="SHT31Sensor_8cpp.html" target="_top" xlink:title=" ">
<polygon fill="none" stroke="black" points="1837,-0.5 1837,-19.5 1938,-19.5 1938,-0.5 1837,-0.5"/>
<text text-anchor="middle" x="1887.5" y="-7.5" font-family="Helvetica,sans-Serif" font-size="10.00">SHT31Sensor.cpp</text>
</a>
</g>
</g>
<!-- Node29&#45;&gt;Node30 -->
<g id="edge38" class="edge">
<title>Node29&#45;&gt;Node30</title>
<path fill="none" stroke="midnightblue" d="M1879.7,-46.1C1881.69,-37.14 1883.98,-26.86 1885.56,-19.75"/>
<polygon fill="midnightblue" stroke="midnightblue" points="1876.23,-45.56 1877.48,-56.08 1883.07,-47.08 1876.23,-45.56"/>
</g>
<!-- Node31&#45;&gt;Node6 -->
<g id="edge40" class="edge">
<title>Node31&#45;&gt;Node6</title>
<path fill="none" stroke="midnightblue" d="M1423.05,-55.97C1160.94,-25.85 1090.17,-56.58 832.5,-20 829.68,-19.6 826.77,-19.1 823.85,-18.55"/>
<polygon fill="midnightblue" stroke="midnightblue" points="1422.92,-59.48 1433.25,-57.16 1423.73,-52.53 1422.92,-59.48"/>
</g>
<!-- Node32 -->
<g id="node32" class="node">
<title>Node32</title>
<g id="a_node32"><a xlink:href="TempSensor_8cpp.html" target="_top" xlink:title=" ">
<polygon fill="none" stroke="black" points="1480,-0.5 1480,-19.5 1575,-19.5 1575,-0.5 1480,-0.5"/>
<text text-anchor="middle" x="1527.5" y="-7.5" font-family="Helvetica,sans-Serif" font-size="10.00">TempSensor.cpp</text>
</a>
</g>
</g>
<!-- Node31&#45;&gt;Node32 -->
<g id="edge41" class="edge">
<title>Node31&#45;&gt;Node32</title>
<path fill="none" stroke="midnightblue" d="M1491.18,-48.72C1500.34,-39.2 1511.55,-27.56 1519.07,-19.75"/>
<polygon fill="midnightblue" stroke="midnightblue" points="1488.5,-46.45 1484.09,-56.08 1493.54,-51.31 1488.5,-46.45"/>
</g>
<!-- Node34 -->
<g id="node34" class="node">
<title>Node34</title>
<g id="a_node34"><a xlink:href="ZOPT220Sensor_8cpp.html" target="_top" xlink:title=" ">
<polygon fill="none" stroke="black" points="1956,-0.5 1956,-19.5 2069,-19.5 2069,-0.5 1956,-0.5"/>
<text text-anchor="middle" x="2012.5" y="-7.5" font-family="Helvetica,sans-Serif" font-size="10.00">ZOPT220Sensor.cpp</text>
</a>
</g>
</g>
<!-- Node33&#45;&gt;Node34 -->
<g id="edge43" class="edge">
<title>Node33&#45;&gt;Node34</title>
<path fill="none" stroke="midnightblue" d="M2006,-46.1C2007.66,-37.14 2009.56,-26.86 2010.88,-19.75"/>
<polygon fill="midnightblue" stroke="midnightblue" points="2002.53,-45.61 2004.15,-56.08 2009.41,-46.89 2002.53,-45.61"/>
</g>
</g>
</svg>
        <g id="navigator" transform="translate(0 0)" fill="#404254">
                <rect fill="#f2f5e9" fill-opacity="0.5" stroke="#606060" stroke-width=".5" x="0" y="0" width="60" height="60"/>
                <use id="zoomplus" xlink:href="#zoomPlus" x="17" y="9" onmousedown="handleZoom(evt,'in')"/>
                <use id="zoomminus" xlink:href="#zoomMin" x="42" y="9" onmousedown="handleZoom(evt,'out')"/>
                <use id="reset" xlink:href="#resetDef" x="30" y="36" onmousedown="handleReset()"/>
                <g id="arrowUp" xlink:href="#dirArrow" transform="translate(30 24)" onmousedown="handlePan(0,-1)">
                  <use xlink:href="#rim" fill="#404040">
                        <set attributeName="fill" to="#808080" begin="arrowUp.mouseover" end="arrowUp.mouseout"/>
                  </use>
                  <path fill="none" stroke="white" stroke-width="1.5" d="M0,-3.0v7 M-2.5,-0.5L0,-3.0L2.5,-0.5"/>
                </g>
                <g id="arrowRight" xlink:href="#dirArrow" transform="rotate(90) translate(36 -43)" onmousedown="handlePan(1,0)">
                  <use xlink:href="#rim" fill="#404040">
                        <set attributeName="fill" to="#808080" begin="arrowRight.mouseover" end="arrowRight.mouseout"/>
                  </use>
                  <path fill="none" stroke="white" stroke-width="1.5" d="M0,-3.0v7 M-2.5,-0.5L0,-3.0L2.5,-0.5"/>
                </g>
                <g id="arrowDown" xlink:href="#dirArrow" transform="rotate(180) translate(-30 -48)" onmousedown="handlePan(0,1)">
                  <use xlink:href="#rim" fill="#404040">
                        <set attributeName="fill" to="#808080" begin="arrowDown.mouseover" end="arrowDown.mouseout"/>
                  </use>
                  <path fill="none" stroke="white" stroke-width="1.5" d="M0,-3.0v7 M-2.5,-0.5L0,-3.0L2.5,-0.5"/>
                </g>
                <g id="arrowLeft" xlink:href="#dirArrow" transform="rotate(270) translate(-36 17)" onmousedown="handlePan(-1,0)">
                  <use xlink:href="#rim" fill="#404040">
                        <set attributeName="fill" to="#808080" begin="arrowLeft.mouseover" end="arrowLeft.mouseout"/>
                  </use>
                  <path fill="none" stroke="white" stroke-width="1.5" d="M0,-3.0v7 M-2.5,-0.5L0,-3.0L2.5,-0.5"/>
                </g>
        </g>
        <svg viewBox="0 0 15 15" width="100%" height="30px" preserveAspectRatio="xMaxYMin meet">
         <g id="arrow_out" transform="scale(0.3 0.3)">
          <a xlink:href="Sensor_8h__dep__incl_org.svg" target="_base">
           <rect id="button" ry="5" rx="5" y="6" x="6" height="38" width="38"
                fill="#f2f5e9" fill-opacity="0.5" stroke="#606060" stroke-width="1.0"/>
           <path id="arrow"
             d="M 11.500037,31.436501 C 11.940474,20.09759 22.043105,11.32322 32.158766,21.979434 L 37.068811,17.246167 C 37.068811,17.246167 37.088388,32 37.088388,32 L 22.160133,31.978069 C 22.160133,31.978069 26.997745,27.140456 26.997745,27.140456 C 18.528582,18.264221 13.291696,25.230495 11.500037,31.436501 z"
             style="fill:#404040;"/>
          </a>
         </g>
        </svg>
</svg>
