<?xml version="1.0" encoding="UTF-8" standalone="no"?>
<!DOCTYPE svg PUBLIC "-//W3C//DTD SVG 1.1//EN"
 "http://www.w3.org/Graphics/SVG/1.1/DTD/svg11.dtd">
<!-- Generated by graphviz version 2.43.0 (0)
 -->
<!-- Title: Sensor.h Pages: 1 -->
<!--zoomable 137 -->

<svg id="main" version="1.1" xmlns="http://www.w3.org/2000/svg" xmlns:xlink="http://www.w3.org/1999/xlink" xml:space="preserve" onload="init(evt)">
<style type="text/css"><![CDATA[
.node, .edge {opacity: 0.7;}
.node.selected, .edge.selected {opacity: 1;}
.edge:hover path { stroke: red; }
.edge:hover polygon { stroke: red; fill: red; }
]]></style>

<defs>
  <circle id="rim" cx="0" cy="0" r="7"/>
  <circle id="rim2" cx="0" cy="0" r="3.5"/>
  <g id="zoomPlus">
    <use xlink:href="#rim" fill="#404040"><set attributeName="fill" to="#808080" begin="zoomplus.mouseover" end="zoomplus.mouseout"/></use>
    <path d="M-4,0h8M0,-4v8" fill="none" stroke="white" stroke-width="1.5" pointer-events="none"/>
  </g>
  <g id="zoomMin">
    <use xlink:href="#rim" fill="#404040"><set attributeName="fill" to="#808080" begin="zoomminus.mouseover" end="zoomminus.mouseout"/></use>
    <path d="M-4,0h8" fill="none" stroke="white" stroke-width="1.5" pointer-events="none"/>
  </g>
  <g id="arrowUp" transform="translate(30 24)">
    <use xlink:href="#rim"/>
    <path pointer-events="none" fill="none" stroke="white" stroke-width="1.5" d="M0,-3.0v7 M-2.5,-0.5L0,-3.0L2.5,-0.5"/>
  </g>
  <g id="arrowRight" transform="rotate(90) translate(36 -43)">
    <use xlink:href="#rim"/>
    <path pointer-events="none" fill="none" stroke="white" stroke-width="1.5" d="M0,-3.0v7 M-2.5,-0.5L0,-3.0L2.5,-0.5"/>
  </g>
  <g id="arrowDown" transform="rotate(180) translate(-30 -48)">
    <use xlink:href="#rim"/>
    <path pointer-events="none" fill="none" stroke="white" stroke-width="1.5" d="M0,-3.0v7 M-2.5,-0.5L0,-3.0L2.5,-0.5"/>
  </g>
  <g id="arrowLeft" transform="rotate(270) translate(-36 17)">
    <use xlink:href="#rim"/>
    <path pointer-events="none" fill="none" stroke="white" stroke-width="1.5" d="M0,-3.0v7 M-2.5,-0.5L0,-3.0L2.5,-0.5"/>
  </g>
  <g id="resetDef">
    <use xlink:href="#rim2" fill="#404040"><set attributeName="fill" to="#808080" begin="reset.mouseover" end="reset.mouseout"/></use>
  </g>
</defs>
<script type="application/ecmascript">
var viewWidth = 2077;
var viewHeight = 137;
var sectionId = 'dynsection-1';
</script>
<script type="application/ecmascript" xlink:href="svg.min.js"/>
<svg id="graph" class="graph">
<g id="viewport">
<title>Sensor.h</title>
<!-- Node1 -->
<g id="Node000001" class="node">
<title>Node1</title>
<g id="a_Node000001"><a xlink:title=" ">
<polygon fill="#999999" stroke="#666666" points="1056,-129 998,-129 998,-110 1056,-110 1056,-129"/>
<text text-anchor="middle" x="1027" y="-117" font-family="Helvetica,sans-Serif" font-size="10.00">Sensor.h</text>
</a>
</g>
</g>
<!-- Node2 -->
<g id="Node000002" class="node">
<title>Node2</title>
<g id="a_Node000002"><a xlink:href="AS7331Sensor_8h.html" target="_top" xlink:title=" ">
<polygon fill="white" stroke="#666666" points="213.5,-74 118.5,-74 118.5,-55 213.5,-55 213.5,-74"/>
<text text-anchor="middle" x="166" y="-62" font-family="Helvetica,sans-Serif" font-size="10.00">AS7331Sensor.h</text>
</a>
</g>
</g>
<!-- Node1&#45;&gt;Node2 -->
<g id="edge1_Node000001_Node000002" class="edge">
<title>Node1&#45;&gt;Node2</title>
<g id="a_edge1_Node000001_Node000002"><a xlink:title=" ">
<path fill="none" stroke="#63b8ff" d="M987.46,-117.61C870.43,-114.7 515.66,-103.85 223,-74 219.91,-73.69 216.74,-73.32 213.54,-72.93"/>
<polygon fill="#63b8ff" stroke="#63b8ff" points="987.64,-121.12 997.72,-117.86 987.81,-114.12 987.64,-121.12"/>
</a>
</g>
</g>
<!-- Node4 -->
<g id="Node000004" class="node">
<title>Node4</title>
<g id="a_Node000004"><a xlink:href="main_8cpp.html" target="_top" xlink:title=" ">
<polygon fill="white" stroke="#666666" points="702,-19 640,-19 640,0 702,0 702,-19"/>
<text text-anchor="middle" x="671" y="-7" font-family="Helvetica,sans-Serif" font-size="10.00">main.cpp</text>
</a>
</g>
</g>
<!-- Node1&#45;&gt;Node4 -->
<g id="edge44_Node000001_Node000004" class="edge">
<title>Node1&#45;&gt;Node4</title>
<g id="a_edge44_Node000001_Node000004"><a xlink:title=" ">
<path fill="none" stroke="#63b8ff" d="M987.78,-115.72C918.09,-110.28 775.86,-96.7 732,-74 706.75,-60.93 685.99,-33.33 676.52,-19.22"/>
<polygon fill="#63b8ff" stroke="#63b8ff" points="987.68,-119.23 997.92,-116.5 988.21,-112.25 987.68,-119.23"/>
</a>
</g>
</g>
<!-- Node5 -->
<g id="Node000005" class="node">
<title>Node5</title>
<g id="a_Node000005"><a xlink:href="AnalogSensor_8h.html" target="_top" xlink:title=" ">
<polygon fill="white" stroke="#666666" points="1545,-74 1453,-74 1453,-55 1545,-55 1545,-74"/>
<text text-anchor="middle" x="1499" y="-62" font-family="Helvetica,sans-Serif" font-size="10.00">AnalogSensor.h</text>
</a>
</g>
</g>
<!-- Node1&#45;&gt;Node5 -->
<g id="edge4_Node000001_Node000005" class="edge">
<title>Node1&#45;&gt;Node5</title>
<g id="a_edge4_Node000001_Node000005"><a xlink:title=" ">
<path fill="none" stroke="#63b8ff" d="M1066.12,-114.11C1152.73,-104.38 1360.35,-81.07 1453,-70.67"/>
<polygon fill="#63b8ff" stroke="#63b8ff" points="1065.72,-110.63 1056.17,-115.22 1066.5,-117.59 1065.72,-110.63"/>
</a>
</g>
</g>
<!-- Node7 -->
<g id="Node000007" class="node">
<title>Node7</title>
<g id="a_Node000007"><a xlink:href="BME280Sensor_8h.html" target="_top" xlink:title=" ">
<polygon fill="white" stroke="#666666" points="330,-74 232,-74 232,-55 330,-55 330,-74"/>
<text text-anchor="middle" x="281" y="-62" font-family="Helvetica,sans-Serif" font-size="10.00">BME280Sensor.h</text>
</a>
</g>
</g>
<!-- Node1&#45;&gt;Node7 -->
<g id="edge6_Node000001_Node000007" class="edge">
<title>Node1&#45;&gt;Node7</title>
<g id="a_edge6_Node000001_Node000007"><a xlink:title=" ">
<path fill="none" stroke="#63b8ff" d="M987.58,-117.07C882.16,-113 584.99,-99.94 339,-74 336.06,-73.69 333.05,-73.34 330.01,-72.97"/>
<polygon fill="#63b8ff" stroke="#63b8ff" points="987.63,-120.57 997.76,-117.46 987.9,-113.58 987.63,-120.57"/>
</a>
</g>
</g>
<!-- Node9 -->
<g id="Node000009" class="node">
<title>Node9</title>
<g id="a_Node000009"><a xlink:href="BME680Sensor_8h.html" target="_top" xlink:title=" ">
<polygon fill="white" stroke="#666666" points="446,-74 348,-74 348,-55 446,-55 446,-74"/>
<text text-anchor="middle" x="397" y="-62" font-family="Helvetica,sans-Serif" font-size="10.00">BME680Sensor.h</text>
</a>
</g>
</g>
<!-- Node1&#45;&gt;Node9 -->
<g id="edge9_Node000001_Node000009" class="edge">
<title>Node1&#45;&gt;Node9</title>
<g id="a_edge9_Node000001_Node000009"><a xlink:title=" ">
<path fill="none" stroke="#63b8ff" d="M987.7,-116.36C894.84,-111.12 654.68,-96.37 455,-74 452.07,-73.67 449.05,-73.31 446.02,-72.92"/>
<polygon fill="#63b8ff" stroke="#63b8ff" points="987.59,-119.86 997.77,-116.93 987.98,-112.87 987.59,-119.86"/>
</a>
</g>
</g>
<!-- Node11 -->
<g id="Node000011" class="node">
<title>Node11</title>
<g id="a_Node000011"><a xlink:href="DS3231Sensor_8h.html" target="_top" xlink:title=" ">
<polygon fill="white" stroke="#666666" points="1678.5,-74 1583.5,-74 1583.5,-55 1678.5,-55 1678.5,-74"/>
<text text-anchor="middle" x="1631" y="-62" font-family="Helvetica,sans-Serif" font-size="10.00">DS3231Sensor.h</text>
</a>
</g>
</g>
<!-- Node1&#45;&gt;Node11 -->
<g id="edge12_Node000001_Node000011" class="edge">
<title>Node1&#45;&gt;Node11</title>
<g id="a_edge12_Node000001_Node000011"><a xlink:title=" ">
<path fill="none" stroke="#63b8ff" d="M1066.18,-115.54C1153.71,-108.85 1371.78,-91.75 1554,-74 1563.5,-73.07 1573.66,-72.01 1583.37,-70.95"/>
<polygon fill="#63b8ff" stroke="#63b8ff" points="1065.87,-112.05 1056.16,-116.3 1066.4,-119.03 1065.87,-112.05"/>
</a>
</g>
</g>
<!-- Node13 -->
<g id="Node000013" class="node">
<title>Node13</title>
<g id="a_Node000013"><a xlink:href="ENS160Sensor_8h.html" target="_top" xlink:title=" ">
<polygon fill="white" stroke="#666666" points="559.5,-74 464.5,-74 464.5,-55 559.5,-55 559.5,-74"/>
<text text-anchor="middle" x="512" y="-62" font-family="Helvetica,sans-Serif" font-size="10.00">ENS160Sensor.h</text>
</a>
</g>
</g>
<!-- Node1&#45;&gt;Node13 -->
<g id="edge14_Node000001_Node000013" class="edge">
<title>Node1&#45;&gt;Node13</title>
<g id="a_edge14_Node000001_Node000013"><a xlink:title=" ">
<path fill="none" stroke="#63b8ff" d="M987.91,-115.43C908.6,-109.03 723.11,-93.28 568,-74 565.27,-73.66 562.46,-73.29 559.63,-72.91"/>
<polygon fill="#63b8ff" stroke="#63b8ff" points="987.69,-118.92 997.94,-116.23 988.25,-111.94 987.69,-118.92"/>
</a>
</g>
</g>
<!-- Node15 -->
<g id="Node000015" class="node">
<title>Node15</title>
<g id="a_Node000015"><a xlink:href="GeigerSensor_8h.html" target="_top" xlink:title=" ">
<polygon fill="white" stroke="#666666" points="1802,-74 1712,-74 1712,-55 1802,-55 1802,-74"/>
<text text-anchor="middle" x="1757" y="-62" font-family="Helvetica,sans-Serif" font-size="10.00">GeigerSensor.h</text>
</a>
</g>
</g>
<!-- Node1&#45;&gt;Node15 -->
<g id="edge17_Node000001_Node000015" class="edge">
<title>Node1&#45;&gt;Node15</title>
<g id="a_edge17_Node000001_Node000015"><a xlink:title=" ">
<path fill="none" stroke="#63b8ff" d="M1066.52,-116.57C1169.07,-111.42 1452.07,-96.17 1687,-74 1695.04,-73.24 1703.59,-72.31 1711.85,-71.34"/>
<polygon fill="#63b8ff" stroke="#63b8ff" points="1066.13,-113.09 1056.32,-117.08 1066.48,-120.08 1066.13,-113.09"/>
</a>
</g>
</g>
<!-- Node17 -->
<g id="Node000017" class="node">
<title>Node17</title>
<g id="a_Node000017"><a xlink:href="ICM20948Sensor_8h.html" target="_top" xlink:title=" ">
<polygon fill="white" stroke="#666666" points="684.5,-74 577.5,-74 577.5,-55 684.5,-55 684.5,-74"/>
<text text-anchor="middle" x="631" y="-62" font-family="Helvetica,sans-Serif" font-size="10.00">ICM20948Sensor.h</text>
</a>
</g>
</g>
<!-- Node1&#45;&gt;Node17 -->
<g id="edge19_Node000001_Node000017" class="edge">
<title>Node1&#45;&gt;Node17</title>
<g id="a_edge19_Node000001_Node000017"><a xlink:title=" ">
<path fill="none" stroke="#63b8ff" d="M987.53,-113.22C916.14,-103.66 765.48,-83.5 684.76,-72.69"/>
<polygon fill="#63b8ff" stroke="#63b8ff" points="987.51,-116.75 997.88,-114.6 988.43,-109.81 987.51,-116.75"/>
</a>
</g>
</g>
<!-- Node19 -->
<g id="Node000019" class="node">
<title>Node19</title>
<g id="a_Node000019"><a xlink:href="INA260Sensor_8h.html" target="_top" xlink:title=" ">
<polygon fill="white" stroke="#666666" points="834.5,-74 741.5,-74 741.5,-55 834.5,-55 834.5,-74"/>
<text text-anchor="middle" x="788" y="-62" font-family="Helvetica,sans-Serif" font-size="10.00">INA260Sensor.h</text>
</a>
</g>
</g>
<!-- Node1&#45;&gt;Node19 -->
<g id="edge22_Node000001_Node000019" class="edge">
<title>Node1&#45;&gt;Node19</title>
<g id="a_edge22_Node000001_Node000019"><a xlink:title=" ">
<path fill="none" stroke="#63b8ff" d="M987.81,-109.81C943.26,-99.93 870.98,-83.9 826.65,-74.07"/>
<polygon fill="#63b8ff" stroke="#63b8ff" points="987.17,-113.25 997.69,-112 988.69,-106.42 987.17,-113.25"/>
</a>
</g>
</g>
<!-- Node21 -->
<g id="Node000021" class="node">
<title>Node21</title>
<g id="a_Node000021"><a xlink:href="LSM9DS1Sensor_8h.html" target="_top" xlink:title=" ">
<polygon fill="white" stroke="#666666" points="957,-74 853,-74 853,-55 957,-55 957,-74"/>
<text text-anchor="middle" x="905" y="-62" font-family="Helvetica,sans-Serif" font-size="10.00">LSM9DS1Sensor.h</text>
</a>
</g>
</g>
<!-- Node1&#45;&gt;Node21 -->
<g id="edge25_Node000001_Node000021" class="edge">
<title>Node1&#45;&gt;Node21</title>
<g id="a_edge25_Node000001_Node000021"><a xlink:title=" ">
<path fill="none" stroke="#63b8ff" d="M997.99,-105.9C975.46,-96.11 944.8,-82.79 924.96,-74.17"/>
<polygon fill="#63b8ff" stroke="#63b8ff" points="996.83,-109.21 1007.4,-109.98 999.62,-102.79 996.83,-109.21"/>
</a>
</g>
</g>
<!-- Node23 -->
<g id="Node000023" class="node">
<title>Node23</title>
<g id="a_Node000023"><a xlink:href="MTK3339Sensor_8h.html" target="_top" xlink:title=" ">
<polygon fill="white" stroke="#666666" points="1079,-74 975,-74 975,-55 1079,-55 1079,-74"/>
<text text-anchor="middle" x="1027" y="-62" font-family="Helvetica,sans-Serif" font-size="10.00">MTK3339Sensor.h</text>
</a>
</g>
</g>
<!-- Node1&#45;&gt;Node23 -->
<g id="edge28_Node000001_Node000023" class="edge">
<title>Node1&#45;&gt;Node23</title>
<g id="a_edge28_Node000001_Node000023"><a xlink:title=" ">
<path fill="none" stroke="#63b8ff" d="M1027,-99.66C1027,-90.93 1027,-80.99 1027,-74.09"/>
<polygon fill="#63b8ff" stroke="#63b8ff" points="1023.5,-99.75 1027,-109.75 1030.5,-99.75 1023.5,-99.75"/>
</a>
</g>
</g>
<!-- Node25 -->
<g id="Node000025" class="node">
<title>Node25</title>
<g id="a_Node000025"><a xlink:href="PCF8523Sensor_8h.html" target="_top" xlink:title=" ">
<polygon fill="white" stroke="#666666" points="1198.5,-74 1097.5,-74 1097.5,-55 1198.5,-55 1198.5,-74"/>
<text text-anchor="middle" x="1148" y="-62" font-family="Helvetica,sans-Serif" font-size="10.00">PCF8523Sensor.h</text>
</a>
</g>
</g>
<!-- Node1&#45;&gt;Node25 -->
<g id="edge31_Node000001_Node000025" class="edge">
<title>Node1&#45;&gt;Node25</title>
<g id="a_edge31_Node000001_Node000025"><a xlink:title=" ">
<path fill="none" stroke="#63b8ff" d="M1055.77,-105.9C1078.12,-96.11 1108.52,-82.79 1128.21,-74.17"/>
<polygon fill="#63b8ff" stroke="#63b8ff" points="1054.2,-102.77 1046.44,-109.98 1057,-109.18 1054.2,-102.77"/>
</a>
</g>
</g>
<!-- Node27 -->
<g id="Node000027" class="node">
<title>Node27</title>
<g id="a_Node000027"><a xlink:href="SGP30Sensor_8h.html" target="_top" xlink:title=" ">
<polygon fill="white" stroke="#666666" points="1305.5,-74 1216.5,-74 1216.5,-55 1305.5,-55 1305.5,-74"/>
<text text-anchor="middle" x="1261" y="-62" font-family="Helvetica,sans-Serif" font-size="10.00">SGP30Sensor.h</text>
</a>
</g>
</g>
<!-- Node1&#45;&gt;Node27 -->
<g id="edge34_Node000001_Node000027" class="edge">
<title>Node1&#45;&gt;Node27</title>
<g id="a_edge34_Node000001_Node000027"><a xlink:title=" ">
<path fill="none" stroke="#63b8ff" d="M1066.14,-109.63C1109.88,-99.73 1180.2,-83.8 1223.33,-74.03"/>
<polygon fill="#63b8ff" stroke="#63b8ff" points="1065.14,-106.27 1056.16,-111.89 1066.69,-113.1 1065.14,-106.27"/>
</a>
</g>
</g>
<!-- Node29 -->
<g id="Node000029" class="node">
<title>Node29</title>
<g id="a_Node000029"><a xlink:href="SHT31Sensor_8h.html" target="_top" xlink:title=" ">
<polygon fill="white" stroke="#666666" points="1922.5,-74 1833.5,-74 1833.5,-55 1922.5,-55 1922.5,-74"/>
<text text-anchor="middle" x="1878" y="-62" font-family="Helvetica,sans-Serif" font-size="10.00">SHT31Sensor.h</text>
</a>
</g>
</g>
<!-- Node1&#45;&gt;Node29 -->
<g id="edge37_Node000001_Node000029" class="edge">
<title>Node1&#45;&gt;Node29</title>
<g id="a_edge37_Node000001_Node000029"><a xlink:title=" ">
<path fill="none" stroke="#63b8ff" d="M1066.32,-117.24C1181.16,-113.33 1525.98,-100.14 1811,-74 1818.24,-73.34 1825.9,-72.5 1833.36,-71.6"/>
<polygon fill="#63b8ff" stroke="#63b8ff" points="1066.12,-113.74 1056.24,-117.57 1066.35,-120.74 1066.12,-113.74"/>
</a>
</g>
</g>
<!-- Node31 -->
<g id="Node000031" class="node">
<title>Node31</title>
<g id="a_Node000031"><a xlink:href="TempSensor_8h.html" target="_top" xlink:title=" ">
<polygon fill="white" stroke="#666666" points="1407,-74 1323,-74 1323,-55 1407,-55 1407,-74"/>
<text text-anchor="middle" x="1365" y="-62" font-family="Helvetica,sans-Serif" font-size="10.00">TempSensor.h</text>
</a>
</g>
</g>
<!-- Node1&#45;&gt;Node31 -->
<g id="edge39_Node000001_Node000031" class="edge">
<title>Node1&#45;&gt;Node31</title>
<g id="a_edge39_Node000001_Node000031"><a xlink:title=" ">
<path fill="none" stroke="#63b8ff" d="M1066.43,-112.53C1121.77,-104.12 1225.61,-88.22 1314,-74 1316.92,-73.53 1319.94,-73.04 1322.98,-72.54"/>
<polygon fill="#63b8ff" stroke="#63b8ff" points="1065.71,-109.1 1056.35,-114.06 1066.76,-116.02 1065.71,-109.1"/>
</a>
</g>
</g>
<!-- Node33 -->
<g id="Node000033" class="node">
<title>Node33</title>
<g id="a_Node000033"><a xlink:href="ZOPT220Sensor_8h.html" target="_top" xlink:title=" ">
<polygon fill="white" stroke="#666666" points="2055,-74 1953,-74 1953,-55 2055,-55 2055,-74"/>
<text text-anchor="middle" x="2004" y="-62" font-family="Helvetica,sans-Serif" font-size="10.00">ZOPT220Sensor.h</text>
</a>
</g>
</g>
<!-- Node1&#45;&gt;Node33 -->
<g id="edge42_Node000001_Node000033" class="edge">
<title>Node1&#45;&gt;Node33</title>
<g id="a_edge42_Node000001_Node000033"><a xlink:title=" ">
<path fill="none" stroke="#63b8ff" d="M1066.64,-117.49C1192.97,-114.08 1597.38,-101.6 1931,-74 1938.12,-73.41 1945.62,-72.67 1952.99,-71.88"/>
<polygon fill="#63b8ff" stroke="#63b8ff" points="1066.22,-114 1056.31,-117.77 1066.4,-121 1066.22,-114"/>
</a>
</g>
</g>
<!-- Node3 -->
<g id="Node000003" class="node">
<title>Node3</title>
<g id="a_Node000003"><a xlink:href="AS7331Sensor_8cpp.html" target="_top" xlink:title=" ">
<polygon fill="white" stroke="#666666" points="106,-19 0,-19 0,0 106,0 106,-19"/>
<text text-anchor="middle" x="53" y="-7" font-family="Helvetica,sans-Serif" font-size="10.00">AS7331Sensor.cpp</text>
</a>
</g>
</g>
<!-- Node2&#45;&gt;Node3 -->
<g id="edge2_Node000002_Node000003" class="edge">
<title>Node2&#45;&gt;Node3</title>
<g id="a_edge2_Node000002_Node000003"><a xlink:title=" ">
<path fill="none" stroke="#63b8ff" d="M138.57,-50.63C117.75,-40.87 89.7,-27.71 71.49,-19.17"/>
<polygon fill="#63b8ff" stroke="#63b8ff" points="137.3,-53.91 147.84,-54.98 140.28,-47.57 137.3,-53.91"/>
</a>
</g>
</g>
<!-- Node2&#45;&gt;Node4 -->
<g id="edge3_Node000002_Node000004" class="edge">
<title>Node2&#45;&gt;Node4</title>
<g id="a_edge3_Node000002_Node000004"><a xlink:title=" ">
<path fill="none" stroke="#63b8ff" d="M223.73,-55C405.52,-34 454.22,-45.48 631,-19 633.81,-18.58 636.72,-18.08 639.62,-17.54"/>
<polygon fill="#63b8ff" stroke="#63b8ff" points="223.08,-51.55 213.56,-56.19 223.9,-58.5 223.08,-51.55"/>
</a>
</g>
</g>
<!-- Node6 -->
<g id="Node000006" class="node">
<title>Node6</title>
<g id="a_Node000006"><a xlink:href="AnalogSensor_8cpp.html" target="_top" xlink:title=" ">
<polygon fill="white" stroke="#666666" points="1574.5,-19 1471.5,-19 1471.5,0 1574.5,0 1574.5,-19"/>
<text text-anchor="middle" x="1523" y="-7" font-family="Helvetica,sans-Serif" font-size="10.00">AnalogSensor.cpp</text>
</a>
</g>
</g>
<!-- Node5&#45;&gt;Node6 -->
<g id="edge5_Node000005_Node000006" class="edge">
<title>Node5&#45;&gt;Node6</title>
<g id="a_edge5_Node000005_Node000006"><a xlink:title=" ">
<path fill="none" stroke="#63b8ff" d="M1507.14,-45.53C1511.18,-36.6 1515.88,-26.22 1519.11,-19.09"/>
<polygon fill="#63b8ff" stroke="#63b8ff" points="1503.9,-44.19 1502.96,-54.75 1510.28,-47.08 1503.9,-44.19"/>
</a>
</g>
</g>
<!-- Node7&#45;&gt;Node4 -->
<g id="edge8_Node000007_Node000004" class="edge">
<title>Node7&#45;&gt;Node4</title>
<g id="a_edge8_Node000007_Node000004"><a xlink:title=" ">
<path fill="none" stroke="#63b8ff" d="M340,-54.9C470.28,-37.65 505.19,-40.08 631,-19 633.8,-18.53 636.7,-18 639.61,-17.44"/>
<polygon fill="#63b8ff" stroke="#63b8ff" points="339.48,-51.44 330.04,-56.23 340.41,-58.38 339.48,-51.44"/>
</a>
</g>
</g>
<!-- Node8 -->
<g id="Node000008" class="node">
<title>Node8</title>
<g id="a_Node000008"><a xlink:href="BME280Sensor_8cpp.html" target="_top" xlink:title=" ">
<polygon fill="white" stroke="#666666" points="233.5,-19 124.5,-19 124.5,0 233.5,0 233.5,-19"/>
<text text-anchor="middle" x="179" y="-7" font-family="Helvetica,sans-Serif" font-size="10.00">BME280Sensor.cpp</text>
</a>
</g>
</g>
<!-- Node7&#45;&gt;Node8 -->
<g id="edge7_Node000007_Node000008" class="edge">
<title>Node7&#45;&gt;Node8</title>
<g id="a_edge7_Node000007_Node000008"><a xlink:title=" ">
<path fill="none" stroke="#63b8ff" d="M255.73,-50.37C236.99,-40.63 211.98,-27.64 195.69,-19.17"/>
<polygon fill="#63b8ff" stroke="#63b8ff" points="254.12,-53.48 264.61,-54.98 257.35,-47.27 254.12,-53.48"/>
</a>
</g>
</g>
<!-- Node9&#45;&gt;Node4 -->
<g id="edge11_Node000009_Node000004" class="edge">
<title>Node9&#45;&gt;Node4</title>
<g id="a_edge11_Node000009_Node000004"><a xlink:title=" ">
<path fill="none" stroke="#63b8ff" d="M453.75,-53.06C501.18,-44.25 570.57,-31.17 631,-19 633.78,-18.44 636.67,-17.85 639.57,-17.25"/>
<polygon fill="#63b8ff" stroke="#63b8ff" points="452.87,-49.66 443.67,-54.93 454.15,-56.55 452.87,-49.66"/>
</a>
</g>
</g>
<!-- Node10 -->
<g id="Node000010" class="node">
<title>Node10</title>
<g id="a_Node000010"><a xlink:href="BME680Sensor_8cpp.html" target="_top" xlink:title=" ">
<polygon fill="white" stroke="#666666" points="360.5,-19 251.5,-19 251.5,0 360.5,0 360.5,-19"/>
<text text-anchor="middle" x="306" y="-7" font-family="Helvetica,sans-Serif" font-size="10.00">BME680Sensor.cpp</text>
</a>
</g>
</g>
<!-- Node9&#45;&gt;Node10 -->
<g id="edge10_Node000009_Node000010" class="edge">
<title>Node9&#45;&gt;Node10</title>
<g id="a_edge10_Node000009_Node000010"><a xlink:title=" ">
<path fill="none" stroke="#63b8ff" d="M373.3,-49.7C356.72,-40.04 335.09,-27.44 320.89,-19.17"/>
<polygon fill="#63b8ff" stroke="#63b8ff" points="371.98,-52.98 382.38,-54.98 375.5,-46.93 371.98,-52.98"/>
</a>
</g>
</g>
<!-- Node12 -->
<g id="Node000012" class="node">
<title>Node12</title>
<g id="a_Node000012"><a xlink:href="DS3231Sensor_8cpp.html" target="_top" xlink:title=" ">
<polygon fill="white" stroke="#666666" points="1699.5,-19 1592.5,-19 1592.5,0 1699.5,0 1699.5,-19"/>
<text text-anchor="middle" x="1646" y="-7" font-family="Helvetica,sans-Serif" font-size="10.00">DS3231Sensor.cpp</text>
</a>
</g>
</g>
<!-- Node11&#45;&gt;Node12 -->
<g id="edge13_Node000011_Node000012" class="edge">
<title>Node11&#45;&gt;Node12</title>
<g id="a_edge13_Node000011_Node000012"><a xlink:title=" ">
<path fill="none" stroke="#63b8ff" d="M1636.25,-44.95C1638.74,-36.15 1641.6,-26.06 1643.57,-19.09"/>
<polygon fill="#63b8ff" stroke="#63b8ff" points="1632.83,-44.17 1633.48,-54.75 1639.57,-46.08 1632.83,-44.17"/>
</a>
</g>
</g>
<!-- Node13&#45;&gt;Node4 -->
<g id="edge16_Node000013_Node000004" class="edge">
<title>Node13&#45;&gt;Node4</title>
<g id="a_edge16_Node000013_Node000004"><a xlink:title=" ">
<path fill="none" stroke="#63b8ff" d="M547.1,-51.8C576.78,-41.91 618.6,-27.97 645.25,-19.08"/>
<polygon fill="#63b8ff" stroke="#63b8ff" points="545.93,-48.5 537.55,-54.98 548.14,-55.14 545.93,-48.5"/>
</a>
</g>
</g>
<!-- Node14 -->
<g id="Node000014" class="node">
<title>Node14</title>
<g id="a_Node000014"><a xlink:href="ENS160Sensor_8cpp.html" target="_top" xlink:title=" ">
<polygon fill="white" stroke="#666666" points="485.5,-19 378.5,-19 378.5,0 485.5,0 485.5,-19"/>
<text text-anchor="middle" x="432" y="-7" font-family="Helvetica,sans-Serif" font-size="10.00">ENS160Sensor.cpp</text>
</a>
</g>
</g>
<!-- Node13&#45;&gt;Node14 -->
<g id="edge15_Node000013_Node000014" class="edge">
<title>Node13&#45;&gt;Node14</title>
<g id="a_edge15_Node000013_Node000014"><a xlink:title=" ">
<path fill="none" stroke="#63b8ff" d="M490.75,-49.42C476.24,-39.81 457.46,-27.37 445.09,-19.17"/>
<polygon fill="#63b8ff" stroke="#63b8ff" points="488.88,-52.38 499.15,-54.98 492.74,-46.54 488.88,-52.38"/>
</a>
</g>
</g>
<!-- Node16 -->
<g id="Node000016" class="node">
<title>Node16</title>
<g id="a_Node000016"><a xlink:href="GeigerSensor_8cpp.html" target="_top" xlink:title=" ">
<polygon fill="white" stroke="#666666" points="1818.5,-19 1717.5,-19 1717.5,0 1818.5,0 1818.5,-19"/>
<text text-anchor="middle" x="1768" y="-7" font-family="Helvetica,sans-Serif" font-size="10.00">GeigerSensor.cpp</text>
</a>
</g>
</g>
<!-- Node15&#45;&gt;Node16 -->
<g id="edge18_Node000015_Node000016" class="edge">
<title>Node15&#45;&gt;Node16</title>
<g id="a_edge18_Node000015_Node000016"><a xlink:title=" ">
<path fill="none" stroke="#63b8ff" d="M1760.85,-44.95C1762.68,-36.15 1764.77,-26.06 1766.22,-19.09"/>
<polygon fill="#63b8ff" stroke="#63b8ff" points="1757.42,-44.25 1758.82,-54.75 1764.28,-45.67 1757.42,-44.25"/>
</a>
</g>
</g>
<!-- Node17&#45;&gt;Node4 -->
<g id="edge21_Node000017_Node000004" class="edge">
<title>Node17&#45;&gt;Node4</title>
<g id="a_edge21_Node000017_Node000004"><a xlink:title=" ">
<path fill="none" stroke="#63b8ff" d="M643.7,-46.67C650.63,-37.5 658.91,-26.52 664.52,-19.09"/>
<polygon fill="#63b8ff" stroke="#63b8ff" points="640.84,-44.66 637.61,-54.75 646.42,-48.87 640.84,-44.66"/>
</a>
</g>
</g>
<!-- Node18 -->
<g id="Node000018" class="node">
<title>Node18</title>
<g id="a_Node000018"><a xlink:href="ICM20948Sensor_8cpp.html" target="_top" xlink:title=" ">
<polygon fill="white" stroke="#666666" points="622,-19 504,-19 504,0 622,0 622,-19"/>
<text text-anchor="middle" x="563" y="-7" font-family="Helvetica,sans-Serif" font-size="10.00">ICM20948Sensor.cpp</text>
</a>
</g>
</g>
<!-- Node17&#45;&gt;Node18 -->
<g id="edge20_Node000017_Node000018" class="edge">
<title>Node17&#45;&gt;Node18</title>
<g id="a_edge20_Node000017_Node000018"><a xlink:title=" ">
<path fill="none" stroke="#63b8ff" d="M611.88,-48.6C599.7,-39.11 584.34,-27.13 574.12,-19.17"/>
<polygon fill="#63b8ff" stroke="#63b8ff" points="610.04,-51.6 620.07,-54.98 614.34,-46.08 610.04,-51.6"/>
</a>
</g>
</g>
<!-- Node19&#45;&gt;Node4 -->
<g id="edge24_Node000019_Node000004" class="edge">
<title>Node19&#45;&gt;Node4</title>
<g id="a_edge24_Node000019_Node000004"><a xlink:title=" ">
<path fill="none" stroke="#63b8ff" d="M759.89,-50.77C738.31,-40.99 709.09,-27.75 690.14,-19.17"/>
<polygon fill="#63b8ff" stroke="#63b8ff" points="758.65,-54.05 769.2,-54.98 761.54,-47.67 758.65,-54.05"/>
</a>
</g>
</g>
<!-- Node20 -->
<g id="Node000020" class="node">
<title>Node20</title>
<g id="a_Node000020"><a xlink:href="INA260Sensor_8cpp.html" target="_top" xlink:title=" ">
<polygon fill="white" stroke="#666666" points="824,-19 720,-19 720,0 824,0 824,-19"/>
<text text-anchor="middle" x="772" y="-7" font-family="Helvetica,sans-Serif" font-size="10.00">INA260Sensor.cpp</text>
</a>
</g>
</g>
<!-- Node19&#45;&gt;Node20 -->
<g id="edge23_Node000019_Node000020" class="edge">
<title>Node19&#45;&gt;Node20</title>
<g id="a_edge23_Node000019_Node000020"><a xlink:title=" ">
<path fill="none" stroke="#63b8ff" d="M782.4,-44.95C779.74,-36.15 776.7,-26.06 774.59,-19.09"/>
<polygon fill="#63b8ff" stroke="#63b8ff" points="779.12,-46.19 785.36,-54.75 785.82,-44.16 779.12,-46.19"/>
</a>
</g>
</g>
<!-- Node21&#45;&gt;Node4 -->
<g id="edge27_Node000021_Node000004" class="edge">
<title>Node21&#45;&gt;Node4</title>
<g id="a_edge27_Node000021_Node000004"><a xlink:title=" ">
<path fill="none" stroke="#63b8ff" d="M857.59,-52.76C811.22,-42.26 741.94,-26.57 702.14,-17.55"/>
<polygon fill="#63b8ff" stroke="#63b8ff" points="856.88,-56.19 867.4,-54.98 858.42,-49.36 856.88,-56.19"/>
</a>
</g>
</g>
<!-- Node22 -->
<g id="Node000022" class="node">
<title>Node22</title>
<g id="a_Node000022"><a xlink:href="LSM9DS1Sensor_8cpp.html" target="_top" xlink:title=" ">
<polygon fill="white" stroke="#666666" points="957.5,-19 842.5,-19 842.5,0 957.5,0 957.5,-19"/>
<text text-anchor="middle" x="900" y="-7" font-family="Helvetica,sans-Serif" font-size="10.00">LSM9DS1Sensor.cpp</text>
</a>
</g>
</g>
<!-- Node21&#45;&gt;Node22 -->
<g id="edge26_Node000021_Node000022" class="edge">
<title>Node21&#45;&gt;Node22</title>
<g id="a_edge26_Node000021_Node000022"><a xlink:title=" ">
<path fill="none" stroke="#63b8ff" d="M903.22,-44.66C902.4,-35.93 901.46,-25.99 900.81,-19.09"/>
<polygon fill="#63b8ff" stroke="#63b8ff" points="899.75,-45.12 904.17,-54.75 906.72,-44.46 899.75,-45.12"/>
</a>
</g>
</g>
<!-- Node23&#45;&gt;Node4 -->
<g id="edge30_Node000023_Node000004" class="edge">
<title>Node23&#45;&gt;Node4</title>
<g id="a_edge30_Node000023_Node000004"><a xlink:title=" ">
<path fill="none" stroke="#63b8ff" d="M964.59,-54.77C874.28,-42.12 717.21,-20.09 711,-19 708.2,-18.51 705.3,-17.96 702.4,-17.39"/>
<polygon fill="#63b8ff" stroke="#63b8ff" points="964.33,-58.26 974.72,-56.18 965.3,-51.33 964.33,-58.26"/>
</a>
</g>
</g>
<!-- Node24 -->
<g id="Node000024" class="node">
<title>Node24</title>
<g id="a_Node000024"><a xlink:href="MTK3339Sensor_8cpp.html" target="_top" xlink:title=" ">
<polygon fill="white" stroke="#666666" points="1090.5,-19 975.5,-19 975.5,0 1090.5,0 1090.5,-19"/>
<text text-anchor="middle" x="1033" y="-7" font-family="Helvetica,sans-Serif" font-size="10.00">MTK3339Sensor.cpp</text>
</a>
</g>
</g>
<!-- Node23&#45;&gt;Node24 -->
<g id="edge29_Node000023_Node000024" class="edge">
<title>Node23&#45;&gt;Node24</title>
<g id="a_edge29_Node000023_Node000024"><a xlink:title=" ">
<path fill="none" stroke="#63b8ff" d="M1029.13,-44.66C1030.12,-35.93 1031.25,-25.99 1032.03,-19.09"/>
<polygon fill="#63b8ff" stroke="#63b8ff" points="1025.64,-44.42 1027.99,-54.75 1032.59,-45.21 1025.64,-44.42"/>
</a>
</g>
</g>
<!-- Node25&#45;&gt;Node4 -->
<g id="edge33_Node000025_Node000004" class="edge">
<title>Node25&#45;&gt;Node4</title>
<g id="a_edge33_Node000025_Node000004"><a xlink:title=" ">
<path fill="none" stroke="#63b8ff" d="M1087.35,-54.98C919.15,-35.53 874.2,-44.05 711,-19 708.19,-18.57 705.29,-18.07 702.38,-17.52"/>
<polygon fill="#63b8ff" stroke="#63b8ff" points="1086.94,-58.46 1097.28,-56.15 1087.76,-51.51 1086.94,-58.46"/>
</a>
</g>
</g>
<!-- Node26 -->
<g id="Node000026" class="node">
<title>Node26</title>
<g id="a_Node000026"><a xlink:href="PCF8523Sensor_8cpp.html" target="_top" xlink:title=" ">
<polygon fill="white" stroke="#666666" points="1221,-19 1109,-19 1109,0 1221,0 1221,-19"/>
<text text-anchor="middle" x="1165" y="-7" font-family="Helvetica,sans-Serif" font-size="10.00">PCF8523Sensor.cpp</text>
</a>
</g>
</g>
<!-- Node25&#45;&gt;Node26 -->
<g id="edge32_Node000025_Node000026" class="edge">
<title>Node25&#45;&gt;Node26</title>
<g id="a_edge32_Node000025_Node000026"><a xlink:title=" ">
<path fill="none" stroke="#63b8ff" d="M1153.95,-44.95C1156.77,-36.15 1160.01,-26.06 1162.25,-19.09"/>
<polygon fill="#63b8ff" stroke="#63b8ff" points="1150.53,-44.16 1150.81,-54.75 1157.19,-46.29 1150.53,-44.16"/>
</a>
</g>
</g>
<!-- Node27&#45;&gt;Node4 -->
<g id="edge36_Node000027_Node000004" class="edge">
<title>Node27&#45;&gt;Node4</title>
<g id="a_edge36_Node000027_Node000004"><a xlink:title=" ">
<path fill="none" stroke="#63b8ff" d="M1206.3,-55.03C985.7,-30.38 926.63,-49.59 711,-19 708.19,-18.6 705.28,-18.12 702.37,-17.59"/>
<polygon fill="#63b8ff" stroke="#63b8ff" points="1205.92,-58.51 1216.25,-56.16 1206.71,-51.56 1205.92,-58.51"/>
</a>
</g>
</g>
<!-- Node28 -->
<g id="Node000028" class="node">
<title>Node28</title>
<g id="a_Node000028"><a xlink:href="SGP30Sensor_8cpp.html" target="_top" xlink:title=" ">
<polygon fill="white" stroke="#666666" points="1340.5,-19 1239.5,-19 1239.5,0 1340.5,0 1340.5,-19"/>
<text text-anchor="middle" x="1290" y="-7" font-family="Helvetica,sans-Serif" font-size="10.00">SGP30Sensor.cpp</text>
</a>
</g>
</g>
<!-- Node27&#45;&gt;Node28 -->
<g id="edge35_Node000027_Node000028" class="edge">
<title>Node27&#45;&gt;Node28</title>
<g id="a_edge35_Node000027_Node000028"><a xlink:title=" ">
<path fill="none" stroke="#63b8ff" d="M1270.68,-45.82C1275.6,-36.82 1281.36,-26.29 1285.3,-19.09"/>
<polygon fill="#63b8ff" stroke="#63b8ff" points="1267.52,-44.3 1265.79,-54.75 1273.66,-47.66 1267.52,-44.3"/>
</a>
</g>
</g>
<!-- Node30 -->
<g id="Node000030" class="node">
<title>Node30</title>
<g id="a_Node000030"><a xlink:href="SHT31Sensor_8cpp.html" target="_top" xlink:title=" ">
<polygon fill="white" stroke="#666666" points="1937.5,-19 1836.5,-19 1836.5,0 1937.5,0 1937.5,-19"/>
<text text-anchor="middle" x="1887" y="-7" font-family="Helvetica,sans-Serif" font-size="10.00">SHT31Sensor.cpp</text>
</a>
</g>
</g>
<!-- Node29&#45;&gt;Node30 -->
<g id="edge38_Node000029_Node000030" class="edge">
<title>Node29&#45;&gt;Node30</title>
<g id="a_edge38_Node000029_Node000030"><a xlink:title=" ">
<path fill="none" stroke="#63b8ff" d="M1881.2,-44.66C1882.68,-35.93 1884.37,-25.99 1885.54,-19.09"/>
<polygon fill="#63b8ff" stroke="#63b8ff" points="1877.71,-44.3 1879.49,-54.75 1884.61,-45.48 1877.71,-44.3"/>
</a>
</g>
</g>
<!-- Node31&#45;&gt;Node4 -->
<g id="edge41_Node000031_Node000004" class="edge">
<title>Node31&#45;&gt;Node4</title>
<g id="a_edge41_Node000031_Node000004"><a xlink:title=" ">
<path fill="none" stroke="#63b8ff" d="M1312.75,-54.99C1045.47,-25.61 973.8,-54.56 711,-19 708.19,-18.62 705.27,-18.15 702.37,-17.63"/>
<polygon fill="#63b8ff" stroke="#63b8ff" points="1312.42,-58.47 1322.75,-56.11 1313.2,-51.52 1312.42,-58.47"/>
</a>
</g>
</g>
<!-- Node32 -->
<g id="Node000032" class="node">
<title>Node32</title>
<g id="a_Node000032"><a xlink:href="TempSensor_8cpp.html" target="_top" xlink:title=" ">
<polygon fill="white" stroke="#666666" points="1453.5,-19 1358.5,-19 1358.5,0 1453.5,0 1453.5,-19"/>
<text text-anchor="middle" x="1406" y="-7" font-family="Helvetica,sans-Serif" font-size="10.00">TempSensor.cpp</text>
</a>
</g>
</g>
<!-- Node31&#45;&gt;Node32 -->
<g id="edge40_Node000031_Node000032" class="edge">
<title>Node31&#45;&gt;Node32</title>
<g id="a_edge40_Node000031_Node000032"><a xlink:title=" ">
<path fill="none" stroke="#63b8ff" d="M1378.02,-46.67C1385.12,-37.5 1393.6,-26.52 1399.36,-19.09"/>
<polygon fill="#63b8ff" stroke="#63b8ff" points="1375.12,-44.7 1371.77,-54.75 1380.66,-48.98 1375.12,-44.7"/>
</a>
</g>
</g>
<!-- Node34 -->
<g id="Node000034" class="node">
<title>Node34</title>
<g id="a_Node000034"><a xlink:href="ZOPT220Sensor_8cpp.html" target="_top" xlink:title=" ">
<polygon fill="white" stroke="#666666" points="2068.5,-19 1955.5,-19 1955.5,0 2068.5,0 2068.5,-19"/>
<text text-anchor="middle" x="2012" y="-7" font-family="Helvetica,sans-Serif" font-size="10.00">ZOPT220Sensor.cpp</text>
</a>
</g>
</g>
<!-- Node33&#45;&gt;Node34 -->
<g id="edge43_Node000033_Node000034" class="edge">
<title>Node33&#45;&gt;Node34</title>
<g id="a_edge43_Node000033_Node000034"><a xlink:title=" ">
<path fill="none" stroke="#63b8ff" d="M2006.84,-44.66C2008.16,-35.93 2009.66,-25.99 2010.7,-19.09"/>
<polygon fill="#63b8ff" stroke="#63b8ff" points="2003.35,-44.34 2005.32,-54.75 2010.27,-45.38 2003.35,-44.34"/>
</a>
</g>
</g>
</g>
</svg>

<g id="navigator" transform="translate(0 0)" fill="#404254">
  <rect fill="#f2f5e9" fill-opacity="0.5" stroke="#606060" stroke-width=".5" x="0" y="0" width="60" height="60"/>
  <use id="zoomplus" xlink:href="#zoomPlus" x="17" y="9" onmousedown="handleZoom(evt,'in')"/>
  <use id="zoomminus" xlink:href="#zoomMin" x="42" y="9" onmousedown="handleZoom(evt,'out')"/>
  <use id="reset" xlink:href="#resetDef" x="30" y="36" onmousedown="handleReset()"/>
   <use id="arrowup" xlink:href="#arrowUp" x="0" y="0" onmousedown="handlePan(0,-1)"/>
  <use id="arrowright" xlink:href="#arrowRight" x="0" y="0" onmousedown="handlePan(1,0)"/>
  <use id="arrowdown" xlink:href="#arrowDown" x="0" y="0" onmousedown="handlePan(0,1)"/>
  <use id="arrowleft" xlink:href="#arrowLeft" x="0" y="0" onmousedown="handlePan(-1,0)"/>
</g>
<svg viewBox="0 0 15 15" width="100%" height="30px" preserveAspectRatio="xMaxYMin meet">
 <g id="arrow_out" transform="scale(0.3 0.3)">
  <a xlink:href="Sensor_8h__dep__incl_org.svg" target="_base">
   <rect id="button" ry="5" rx="5" y="6" x="6" height="38" width="38"
        fill="#f2f5e9" fill-opacity="0.5" stroke="#606060" stroke-width="1.0"/>
   <path id="arrow"
     d="M 11.500037,31.436501 C 11.940474,20.09759 22.043105,11.32322 32.158766,21.979434 L 37.068811,17.246167 C 37.068811,17.246167 37.088388,32 37.088388,32 L 22.160133,31.978069 C 22.160133,31.978069 26.997745,27.140456 26.997745,27.140456 C 18.528582,18.264221 13.291696,25.230495 11.500037,31.436501 z"
     style="fill:#404040;"/>
  </a>
 </g>
</svg>

<style type='text/css'>
<![CDATA[
[data-mouse-over-selected='false'] { opacity: 0.7; }
[data-mouse-over-selected='true']  { opacity: 1.0; }
]]>
</style>
<script type="application/ecmascript"><![CDATA[
document.addEventListener('DOMContentLoaded', (event) => {
  highlightEdges();
  highlightAdjacentNodes();
});
]]></script>
</svg>
