<?xml version="1.0" encoding="UTF-8" standalone="no"?>
<!DOCTYPE svg PUBLIC "-//W3C//DTD SVG 1.1//EN"
 "http://www.w3.org/Graphics/SVG/1.1/DTD/svg11.dtd">
<!-- Generated by graphviz version 2.43.0 (0)
 -->
<!-- Title: SGP30Sensor.cpp Pages: 1 -->
<svg width="342pt" height="196pt"
 viewBox="0.00 0.00 342.28 196.00" xmlns="http://www.w3.org/2000/svg" xmlns:xlink="http://www.w3.org/1999/xlink">
<g id="graph0" class="graph" transform="scale(1 1) rotate(0) translate(4 192)">
<title>SGP30Sensor.cpp</title>
<!-- Node1 -->
<g id="node1" class="node">
<title>Node1</title>
<g id="a_node1"><a xlink:title=" ">
<polygon fill="#bfbfbf" stroke="black" points="61.78,-168.5 61.78,-187.5 162.78,-187.5 162.78,-168.5 61.78,-168.5"/>
<text text-anchor="middle" x="112.28" y="-175.5" font-family="Helvetica,sans-Serif" font-size="10.00">SGP30Sensor.cpp</text>
</a>
</g>
</g>
<!-- Node2 -->
<g id="node2" class="node">
<title>Node2</title>
<g id="a_node2"><a xlink:href="SGP30Sensor_8h.html" target="_top" xlink:title=" ">
<polygon fill="none" stroke="black" points="67.78,-112.5 67.78,-131.5 156.78,-131.5 156.78,-112.5 67.78,-112.5"/>
<text text-anchor="middle" x="112.28" y="-119.5" font-family="Helvetica,sans-Serif" font-size="10.00">SGP30Sensor.h</text>
</a>
</g>
</g>
<!-- Node1&#45;&gt;Node2 -->
<g id="edge1" class="edge">
<title>Node1&#45;&gt;Node2</title>
<path fill="none" stroke="midnightblue" d="M112.28,-168.08C112.28,-161.01 112.28,-150.86 112.28,-141.99"/>
<polygon fill="midnightblue" stroke="midnightblue" points="115.78,-141.75 112.28,-131.75 108.78,-141.75 115.78,-141.75"/>
</g>
<!-- Node3 -->
<g id="node3" class="node">
<title>Node3</title>
<g id="a_node3"><a xlink:title=" ">
<polygon fill="none" stroke="#bfbfbf" points="113.78,-0.5 113.78,-19.5 176.78,-19.5 176.78,-0.5 113.78,-0.5"/>
<text text-anchor="middle" x="145.28" y="-7.5" font-family="Helvetica,sans-Serif" font-size="10.00">Arduino.h</text>
</a>
</g>
</g>
<!-- Node2&#45;&gt;Node3 -->
<g id="edge2" class="edge">
<title>Node2&#45;&gt;Node3</title>
<path fill="none" stroke="midnightblue" d="M70.49,-112.47C32.3,-102.7 -15.34,-84.28 5.28,-56 27.53,-25.47 70.84,-15.2 103.42,-11.97"/>
<polygon fill="midnightblue" stroke="midnightblue" points="103.9,-15.44 113.59,-11.15 103.34,-8.46 103.9,-15.44"/>
</g>
<!-- Node4 -->
<g id="node4" class="node">
<title>Node4</title>
<g id="a_node4"><a xlink:title=" ">
<polygon fill="none" stroke="#bfbfbf" points="14.78,-56.5 14.78,-75.5 67.78,-75.5 67.78,-56.5 14.78,-56.5"/>
<text text-anchor="middle" x="41.28" y="-63.5" font-family="Helvetica,sans-Serif" font-size="10.00">stdint.h</text>
</a>
</g>
</g>
<!-- Node2&#45;&gt;Node4 -->
<g id="edge3" class="edge">
<title>Node2&#45;&gt;Node4</title>
<path fill="none" stroke="midnightblue" d="M100.87,-112.32C90.17,-104.18 73.94,-91.84 61.12,-82.09"/>
<polygon fill="midnightblue" stroke="midnightblue" points="62.97,-79.1 52.89,-75.83 58.73,-84.67 62.97,-79.1"/>
</g>
<!-- Node5 -->
<g id="node5" class="node">
<title>Node5</title>
<g id="a_node5"><a xlink:title=" ">
<polygon fill="none" stroke="#bfbfbf" points="85.78,-56.5 85.78,-75.5 138.78,-75.5 138.78,-56.5 85.78,-56.5"/>
<text text-anchor="middle" x="112.28" y="-63.5" font-family="Helvetica,sans-Serif" font-size="10.00">string.h</text>
</a>
</g>
</g>
<!-- Node2&#45;&gt;Node5 -->
<g id="edge4" class="edge">
<title>Node2&#45;&gt;Node5</title>
<path fill="none" stroke="midnightblue" d="M112.28,-112.08C112.28,-105.01 112.28,-94.86 112.28,-85.99"/>
<polygon fill="midnightblue" stroke="midnightblue" points="115.78,-85.75 112.28,-75.75 108.78,-85.75 115.78,-85.75"/>
</g>
<!-- Node6 -->
<g id="node6" class="node">
<title>Node6</title>
<g id="a_node6"><a xlink:title=" ">
<polygon fill="none" stroke="#bfbfbf" points="156.78,-56.5 156.78,-75.5 257.78,-75.5 257.78,-56.5 156.78,-56.5"/>
<text text-anchor="middle" x="207.28" y="-63.5" font-family="Helvetica,sans-Serif" font-size="10.00">Adafruit_SGP30.h</text>
</a>
</g>
</g>
<!-- Node2&#45;&gt;Node6 -->
<g id="edge5" class="edge">
<title>Node2&#45;&gt;Node6</title>
<path fill="none" stroke="midnightblue" d="M127.54,-112.32C142.5,-103.82 165.53,-90.73 183.01,-80.8"/>
<polygon fill="midnightblue" stroke="midnightblue" points="185.09,-83.64 192.05,-75.65 181.63,-77.55 185.09,-83.64"/>
</g>
<!-- Node7 -->
<g id="node7" class="node">
<title>Node7</title>
<g id="a_node7"><a xlink:href="Sensor_8h.html" target="_top" xlink:title=" ">
<polygon fill="none" stroke="black" points="276.28,-56.5 276.28,-75.5 334.28,-75.5 334.28,-56.5 276.28,-56.5"/>
<text text-anchor="middle" x="305.28" y="-63.5" font-family="Helvetica,sans-Serif" font-size="10.00">Sensor.h</text>
</a>
</g>
</g>
<!-- Node2&#45;&gt;Node7 -->
<g id="edge6" class="edge">
<title>Node2&#45;&gt;Node7</title>
<path fill="none" stroke="midnightblue" d="M142.86,-112.44C176.28,-103.09 229.91,-88.09 266.32,-77.9"/>
<polygon fill="midnightblue" stroke="midnightblue" points="267.42,-81.23 276.1,-75.16 265.53,-74.49 267.42,-81.23"/>
</g>
<!-- Node7&#45;&gt;Node3 -->
<g id="edge7" class="edge">
<title>Node7&#45;&gt;Node3</title>
<path fill="none" stroke="midnightblue" d="M279.93,-56.44C253.01,-47.36 210.28,-32.94 180.19,-22.78"/>
<polygon fill="midnightblue" stroke="midnightblue" points="181.11,-19.4 170.51,-19.52 178.87,-26.03 181.11,-19.4"/>
</g>
</g>
</svg>
