<?xml version="1.0" encoding="UTF-8" standalone="no"?>
<!DOCTYPE svg PUBLIC "-//W3C//DTD SVG 1.1//EN"
 "http://www.w3.org/Graphics/SVG/1.1/DTD/svg11.dtd">
<!-- Generated by graphviz version 2.43.0 (0)
 -->
<!-- Title: SGP30Sensor.cpp Pages: 1 -->
<svg width="342pt" height="192pt"
 viewBox="0.00 0.00 342.24 192.00" xmlns="http://www.w3.org/2000/svg" xmlns:xlink="http://www.w3.org/1999/xlink">
<g id="graph0" class="graph" transform="scale(1 1) rotate(0) translate(4 188)">
<title>SGP30Sensor.cpp</title>
<!-- Node1 -->
<g id="Node000001" class="node">
<title>Node1</title>
<g id="a_Node000001"><a xlink:title=" ">
<polygon fill="#999999" stroke="#666666" points="162.74,-184 61.74,-184 61.74,-165 162.74,-165 162.74,-184"/>
<text text-anchor="middle" x="112.24" y="-172" font-family="Helvetica,sans-Serif" font-size="10.00">SGP30Sensor.cpp</text>
</a>
</g>
</g>
<!-- Node2 -->
<g id="Node000002" class="node">
<title>Node2</title>
<g id="a_Node000002"><a xlink:href="SGP30Sensor_8h.html" target="_top" xlink:title=" ">
<polygon fill="white" stroke="#666666" points="156.74,-129 67.74,-129 67.74,-110 156.74,-110 156.74,-129"/>
<text text-anchor="middle" x="112.24" y="-117" font-family="Helvetica,sans-Serif" font-size="10.00">SGP30Sensor.h</text>
</a>
</g>
</g>
<!-- Node1&#45;&gt;Node2 -->
<g id="edge1_Node000001_Node000002" class="edge">
<title>Node1&#45;&gt;Node2</title>
<g id="a_edge1_Node000001_Node000002"><a xlink:title=" ">
<path fill="none" stroke="#63b8ff" d="M112.24,-164.75C112.24,-157.8 112.24,-147.85 112.24,-139.13"/>
<polygon fill="#63b8ff" stroke="#63b8ff" points="115.74,-139.09 112.24,-129.09 108.74,-139.09 115.74,-139.09"/>
</a>
</g>
</g>
<!-- Node3 -->
<g id="Node000003" class="node">
<title>Node3</title>
<g id="a_Node000003"><a xlink:title=" ">
<polygon fill="#e0e0e0" stroke="#999999" points="176.74,-19 113.74,-19 113.74,0 176.74,0 176.74,-19"/>
<text text-anchor="middle" x="145.24" y="-7" font-family="Helvetica,sans-Serif" font-size="10.00">Arduino.h</text>
</a>
</g>
</g>
<!-- Node2&#45;&gt;Node3 -->
<g id="edge2_Node000002_Node000003" class="edge">
<title>Node2&#45;&gt;Node3</title>
<g id="a_edge2_Node000002_Node000003"><a xlink:title=" ">
<path fill="none" stroke="#63b8ff" d="M69.06,-110C31.15,-100.5 -15.04,-82.72 5.24,-55 27.52,-24.54 70.82,-14.42 103.4,-11.31"/>
<polygon fill="#63b8ff" stroke="#63b8ff" points="103.86,-14.79 113.56,-10.53 103.32,-7.81 103.86,-14.79"/>
</a>
</g>
</g>
<!-- Node4 -->
<g id="Node000004" class="node">
<title>Node4</title>
<g id="a_Node000004"><a xlink:title=" ">
<polygon fill="#e0e0e0" stroke="#999999" points="67.74,-74 14.74,-74 14.74,-55 67.74,-55 67.74,-74"/>
<text text-anchor="middle" x="41.24" y="-62" font-family="Helvetica,sans-Serif" font-size="10.00">stdint.h</text>
</a>
</g>
</g>
<!-- Node2&#45;&gt;Node4 -->
<g id="edge3_Node000002_Node000004" class="edge">
<title>Node2&#45;&gt;Node4</title>
<g id="a_edge3_Node000002_Node000004"><a xlink:title=" ">
<path fill="none" stroke="#63b8ff" d="M100.83,-109.98C90.13,-102 73.9,-89.88 61.08,-80.31"/>
<polygon fill="#63b8ff" stroke="#63b8ff" points="62.96,-77.35 52.85,-74.17 58.77,-82.96 62.96,-77.35"/>
</a>
</g>
</g>
<!-- Node5 -->
<g id="Node000005" class="node">
<title>Node5</title>
<g id="a_Node000005"><a xlink:title=" ">
<polygon fill="#e0e0e0" stroke="#999999" points="138.74,-74 85.74,-74 85.74,-55 138.74,-55 138.74,-74"/>
<text text-anchor="middle" x="112.24" y="-62" font-family="Helvetica,sans-Serif" font-size="10.00">string.h</text>
</a>
</g>
</g>
<!-- Node2&#45;&gt;Node5 -->
<g id="edge4_Node000002_Node000005" class="edge">
<title>Node2&#45;&gt;Node5</title>
<g id="a_edge4_Node000002_Node000005"><a xlink:title=" ">
<path fill="none" stroke="#63b8ff" d="M112.24,-109.75C112.24,-102.8 112.24,-92.85 112.24,-84.13"/>
<polygon fill="#63b8ff" stroke="#63b8ff" points="115.74,-84.09 112.24,-74.09 108.74,-84.09 115.74,-84.09"/>
</a>
</g>
</g>
<!-- Node6 -->
<g id="Node000006" class="node">
<title>Node6</title>
<g id="a_Node000006"><a xlink:title=" ">
<polygon fill="#e0e0e0" stroke="#999999" points="257.74,-74 156.74,-74 156.74,-55 257.74,-55 257.74,-74"/>
<text text-anchor="middle" x="207.24" y="-62" font-family="Helvetica,sans-Serif" font-size="10.00">Adafruit_SGP30.h</text>
</a>
</g>
</g>
<!-- Node2&#45;&gt;Node6 -->
<g id="edge5_Node000002_Node000006" class="edge">
<title>Node2&#45;&gt;Node6</title>
<g id="a_edge5_Node000002_Node000006"><a xlink:title=" ">
<path fill="none" stroke="#63b8ff" d="M127.5,-109.98C142.37,-101.69 165.22,-88.94 182.65,-79.22"/>
<polygon fill="#63b8ff" stroke="#63b8ff" points="184.67,-82.1 191.7,-74.17 181.26,-75.99 184.67,-82.1"/>
</a>
</g>
</g>
<!-- Node7 -->
<g id="Node000007" class="node">
<title>Node7</title>
<g id="a_Node000007"><a xlink:href="Sensor_8h.html" target="_top" xlink:title=" ">
<polygon fill="white" stroke="#666666" points="334.24,-74 276.24,-74 276.24,-55 334.24,-55 334.24,-74"/>
<text text-anchor="middle" x="305.24" y="-62" font-family="Helvetica,sans-Serif" font-size="10.00">Sensor.h</text>
</a>
</g>
</g>
<!-- Node2&#45;&gt;Node7 -->
<g id="edge6_Node000002_Node000007" class="edge">
<title>Node2&#45;&gt;Node7</title>
<g id="a_edge6_Node000002_Node000007"><a xlink:title=" ">
<path fill="none" stroke="#63b8ff" d="M143.25,-109.98C176.75,-100.78 230.2,-86.11 266.46,-76.15"/>
<polygon fill="#63b8ff" stroke="#63b8ff" points="267.48,-79.5 276.2,-73.47 265.63,-72.75 267.48,-79.5"/>
</a>
</g>
</g>
<!-- Node7&#45;&gt;Node3 -->
<g id="edge7_Node000007_Node000003" class="edge">
<title>Node7&#45;&gt;Node3</title>
<g id="a_edge7_Node000007_Node000003"><a xlink:title=" ">
<path fill="none" stroke="#63b8ff" d="M279.53,-54.98C252.79,-46.13 210.71,-32.19 180.79,-22.28"/>
<polygon fill="#63b8ff" stroke="#63b8ff" points="181.74,-18.9 171.15,-19.08 179.54,-25.55 181.74,-18.9"/>
</a>
</g>
</g>
</g>
</svg>
