<?xml version="1.0" encoding="UTF-8" standalone="no"?>
<!DOCTYPE svg PUBLIC "-//W3C//DTD SVG 1.1//EN"
 "http://www.w3.org/Graphics/SVG/1.1/DTD/svg11.dtd">
<!-- Generated by graphviz version 2.43.0 (0)
 -->
<!-- Title: SHT31Sensor.cpp Pages: 1 -->
<svg width="337pt" height="196pt"
 viewBox="0.00 0.00 337.12 196.00" xmlns="http://www.w3.org/2000/svg" xmlns:xlink="http://www.w3.org/1999/xlink">
<g id="graph0" class="graph" transform="scale(1 1) rotate(0) translate(4 192)">
<title>SHT31Sensor.cpp</title>
<!-- Node1 -->
<g id="node1" class="node">
<title>Node1</title>
<g id="a_node1"><a xlink:title=" ">
<polygon fill="#bfbfbf" stroke="black" points="56.62,-168.5 56.62,-187.5 157.62,-187.5 157.62,-168.5 56.62,-168.5"/>
<text text-anchor="middle" x="107.12" y="-175.5" font-family="Helvetica,sans-Serif" font-size="10.00">SHT31Sensor.cpp</text>
</a>
</g>
</g>
<!-- Node2 -->
<g id="node2" class="node">
<title>Node2</title>
<g id="a_node2"><a xlink:href="SHT31Sensor_8h.html" target="_top" xlink:title=" ">
<polygon fill="none" stroke="black" points="62.62,-112.5 62.62,-131.5 151.62,-131.5 151.62,-112.5 62.62,-112.5"/>
<text text-anchor="middle" x="107.12" y="-119.5" font-family="Helvetica,sans-Serif" font-size="10.00">SHT31Sensor.h</text>
</a>
</g>
</g>
<!-- Node1&#45;&gt;Node2 -->
<g id="edge1" class="edge">
<title>Node1&#45;&gt;Node2</title>
<path fill="none" stroke="midnightblue" d="M107.12,-168.08C107.12,-161.01 107.12,-150.86 107.12,-141.99"/>
<polygon fill="midnightblue" stroke="midnightblue" points="110.62,-141.75 107.12,-131.75 103.62,-141.75 110.62,-141.75"/>
</g>
<!-- Node3 -->
<g id="node3" class="node">
<title>Node3</title>
<g id="a_node3"><a xlink:title=" ">
<polygon fill="none" stroke="#bfbfbf" points="111.62,-0.5 111.62,-19.5 174.62,-19.5 174.62,-0.5 111.62,-0.5"/>
<text text-anchor="middle" x="143.12" y="-7.5" font-family="Helvetica,sans-Serif" font-size="10.00">Arduino.h</text>
</a>
</g>
</g>
<!-- Node2&#45;&gt;Node3 -->
<g id="edge2" class="edge">
<title>Node2&#45;&gt;Node3</title>
<path fill="none" stroke="midnightblue" d="M68.56,-112.47C31.87,-102.48 -14.98,-83.7 5.12,-56 26.96,-25.91 69.46,-15.56 101.55,-12.18"/>
<polygon fill="midnightblue" stroke="midnightblue" points="101.91,-15.67 111.57,-11.32 101.31,-8.69 101.91,-15.67"/>
</g>
<!-- Node4 -->
<g id="node4" class="node">
<title>Node4</title>
<g id="a_node4"><a xlink:title=" ">
<polygon fill="none" stroke="#bfbfbf" points="14.12,-56.5 14.12,-75.5 62.12,-75.5 62.12,-56.5 14.12,-56.5"/>
<text text-anchor="middle" x="38.12" y="-63.5" font-family="Helvetica,sans-Serif" font-size="10.00">Wire.h</text>
</a>
</g>
</g>
<!-- Node2&#45;&gt;Node4 -->
<g id="edge3" class="edge">
<title>Node2&#45;&gt;Node4</title>
<path fill="none" stroke="midnightblue" d="M96.04,-112.32C85.64,-104.18 69.86,-91.84 57.4,-82.09"/>
<polygon fill="midnightblue" stroke="midnightblue" points="59.44,-79.24 49.41,-75.83 55.13,-84.75 59.44,-79.24"/>
</g>
<!-- Node5 -->
<g id="node5" class="node">
<title>Node5</title>
<g id="a_node5"><a xlink:title=" ">
<polygon fill="none" stroke="#bfbfbf" points="80.62,-56.5 80.62,-75.5 133.62,-75.5 133.62,-56.5 80.62,-56.5"/>
<text text-anchor="middle" x="107.12" y="-63.5" font-family="Helvetica,sans-Serif" font-size="10.00">string.h</text>
</a>
</g>
</g>
<!-- Node2&#45;&gt;Node5 -->
<g id="edge4" class="edge">
<title>Node2&#45;&gt;Node5</title>
<path fill="none" stroke="midnightblue" d="M107.12,-112.08C107.12,-105.01 107.12,-94.86 107.12,-85.99"/>
<polygon fill="midnightblue" stroke="midnightblue" points="110.62,-85.75 107.12,-75.75 103.62,-85.75 110.62,-85.75"/>
</g>
<!-- Node6 -->
<g id="node6" class="node">
<title>Node6</title>
<g id="a_node6"><a xlink:title=" ">
<polygon fill="none" stroke="#bfbfbf" points="151.62,-56.5 151.62,-75.5 252.62,-75.5 252.62,-56.5 151.62,-56.5"/>
<text text-anchor="middle" x="202.12" y="-63.5" font-family="Helvetica,sans-Serif" font-size="10.00">Adafruit_SHT31.h</text>
</a>
</g>
</g>
<!-- Node2&#45;&gt;Node6 -->
<g id="edge5" class="edge">
<title>Node2&#45;&gt;Node6</title>
<path fill="none" stroke="midnightblue" d="M122.39,-112.32C137.34,-103.82 160.38,-90.73 177.85,-80.8"/>
<polygon fill="midnightblue" stroke="midnightblue" points="179.93,-83.64 186.9,-75.65 176.47,-77.55 179.93,-83.64"/>
</g>
<!-- Node7 -->
<g id="node7" class="node">
<title>Node7</title>
<g id="a_node7"><a xlink:href="Sensor_8h.html" target="_top" xlink:title=" ">
<polygon fill="none" stroke="black" points="271.12,-56.5 271.12,-75.5 329.12,-75.5 329.12,-56.5 271.12,-56.5"/>
<text text-anchor="middle" x="300.12" y="-63.5" font-family="Helvetica,sans-Serif" font-size="10.00">Sensor.h</text>
</a>
</g>
</g>
<!-- Node2&#45;&gt;Node7 -->
<g id="edge6" class="edge">
<title>Node2&#45;&gt;Node7</title>
<path fill="none" stroke="midnightblue" d="M137.7,-112.44C171.13,-103.09 224.75,-88.09 261.17,-77.9"/>
<polygon fill="midnightblue" stroke="midnightblue" points="262.26,-81.23 270.95,-75.16 260.37,-74.49 262.26,-81.23"/>
</g>
<!-- Node7&#45;&gt;Node3 -->
<g id="edge7" class="edge">
<title>Node7&#45;&gt;Node3</title>
<path fill="none" stroke="midnightblue" d="M275.25,-56.44C248.83,-47.36 206.91,-32.94 177.38,-22.78"/>
<polygon fill="midnightblue" stroke="midnightblue" points="178.48,-19.46 167.88,-19.52 176.2,-26.08 178.48,-19.46"/>
</g>
</g>
</svg>
