<?xml version="1.0" encoding="UTF-8" standalone="no"?>
<!DOCTYPE svg PUBLIC "-//W3C//DTD SVG 1.1//EN"
 "http://www.w3.org/Graphics/SVG/1.1/DTD/svg11.dtd">
<!-- Generated by graphviz version 2.43.0 (0)
 -->
<!-- Title: SHT31Sensor.cpp Pages: 1 -->
<svg width="337pt" height="192pt"
 viewBox="0.00 0.00 337.08 192.00" xmlns="http://www.w3.org/2000/svg" xmlns:xlink="http://www.w3.org/1999/xlink">

<svg id="main" version="1.1" xmlns="http://www.w3.org/2000/svg" xmlns:xlink="http://www.w3.org/1999/xlink" xml:space="preserve" onload="init(evt)">
<style type="text/css"><![CDATA[
.node, .edge {opacity: 0.7;}
.node.selected, .edge.selected {opacity: 1;}
.edge:hover path { stroke: red; }
.edge:hover polygon { stroke: red; fill: red; }
]]></style>
<script type="application/ecmascript" xlink:href="svg.min.js"/>
<svg id="graph" class="graph">
<g id="graph0" class="graph" transform="scale(1 1) rotate(0) translate(4 188)">
<title>SHT31Sensor.cpp</title>
<!-- Node1 -->
<g id="Node000001" class="node">
<title>Node1</title>
<g id="a_Node000001"><a xlink:title=" ">
<polygon fill="#999999" stroke="#666666" points="157.58,-184 56.58,-184 56.58,-165 157.58,-165 157.58,-184"/>
<text text-anchor="middle" x="107.08" y="-172" font-family="Helvetica,sans-Serif" font-size="10.00">SHT31Sensor.cpp</text>
</a>
</g>
</g>
<!-- Node2 -->
<g id="Node000002" class="node">
<title>Node2</title>
<g id="a_Node000002"><a xlink:href="SHT31Sensor_8h.html" target="_top" xlink:title=" ">
<polygon fill="white" stroke="#666666" points="151.58,-129 62.58,-129 62.58,-110 151.58,-110 151.58,-129"/>
<text text-anchor="middle" x="107.08" y="-117" font-family="Helvetica,sans-Serif" font-size="10.00">SHT31Sensor.h</text>
</a>
</g>
</g>
<!-- Node1&#45;&gt;Node2 -->
<g id="edge1_Node000001_Node000002" class="edge">
<title>Node1&#45;&gt;Node2</title>
<g id="a_edge1_Node000001_Node000002"><a xlink:title=" ">
<path fill="none" stroke="#63b8ff" d="M107.08,-164.75C107.08,-157.8 107.08,-147.85 107.08,-139.13"/>
<polygon fill="#63b8ff" stroke="#63b8ff" points="110.58,-139.09 107.08,-129.09 103.58,-139.09 110.58,-139.09"/>
</a>
</g>
</g>
<!-- Node3 -->
<g id="Node000003" class="node">
<title>Node3</title>
<g id="a_Node000003"><a xlink:title=" ">
<polygon fill="#e0e0e0" stroke="#999999" points="174.58,-19 111.58,-19 111.58,0 174.58,0 174.58,-19"/>
<text text-anchor="middle" x="143.08" y="-7" font-family="Helvetica,sans-Serif" font-size="10.00">Arduino.h</text>
</a>
</g>
</g>
<!-- Node2&#45;&gt;Node3 -->
<g id="edge2_Node000002_Node000003" class="edge">
<title>Node2&#45;&gt;Node3</title>
<g id="a_edge2_Node000002_Node000003"><a xlink:title=" ">
<path fill="none" stroke="#63b8ff" d="M67.2,-109.97C30.75,-100.26 -14.69,-82.15 5.08,-55 26.94,-24.98 69.44,-14.78 101.53,-11.53"/>
<polygon fill="#63b8ff" stroke="#63b8ff" points="101.86,-15.01 111.54,-10.7 101.28,-8.04 101.86,-15.01"/>
</a>
</g>
</g>
<!-- Node4 -->
<g id="Node000004" class="node">
<title>Node4</title>
<g id="a_Node000004"><a xlink:title=" ">
<polygon fill="#e0e0e0" stroke="#999999" points="62.08,-74 14.08,-74 14.08,-55 62.08,-55 62.08,-74"/>
<text text-anchor="middle" x="38.08" y="-62" font-family="Helvetica,sans-Serif" font-size="10.00">Wire.h</text>
</a>
</g>
</g>
<!-- Node2&#45;&gt;Node4 -->
<g id="edge3_Node000002_Node000004" class="edge">
<title>Node2&#45;&gt;Node4</title>
<g id="a_edge3_Node000002_Node000004"><a xlink:title=" ">
<path fill="none" stroke="#63b8ff" d="M95.99,-109.98C85.59,-102 69.82,-89.88 57.36,-80.31"/>
<polygon fill="#63b8ff" stroke="#63b8ff" points="59.43,-77.49 49.37,-74.17 55.17,-83.04 59.43,-77.49"/>
</a>
</g>
</g>
<!-- Node5 -->
<g id="Node000005" class="node">
<title>Node5</title>
<g id="a_Node000005"><a xlink:title=" ">
<polygon fill="#e0e0e0" stroke="#999999" points="133.58,-74 80.58,-74 80.58,-55 133.58,-55 133.58,-74"/>
<text text-anchor="middle" x="107.08" y="-62" font-family="Helvetica,sans-Serif" font-size="10.00">string.h</text>
</a>
</g>
</g>
<!-- Node2&#45;&gt;Node5 -->
<g id="edge4_Node000002_Node000005" class="edge">
<title>Node2&#45;&gt;Node5</title>
<g id="a_edge4_Node000002_Node000005"><a xlink:title=" ">
<path fill="none" stroke="#63b8ff" d="M107.08,-109.75C107.08,-102.8 107.08,-92.85 107.08,-84.13"/>
<polygon fill="#63b8ff" stroke="#63b8ff" points="110.58,-84.09 107.08,-74.09 103.58,-84.09 110.58,-84.09"/>
</a>
</g>
</g>
<!-- Node6 -->
<g id="Node000006" class="node">
<title>Node6</title>
<g id="a_Node000006"><a xlink:title=" ">
<polygon fill="#e0e0e0" stroke="#999999" points="252.58,-74 151.58,-74 151.58,-55 252.58,-55 252.58,-74"/>
<text text-anchor="middle" x="202.08" y="-62" font-family="Helvetica,sans-Serif" font-size="10.00">Adafruit_SHT31.h</text>
</a>
</g>
</g>
<!-- Node2&#45;&gt;Node6 -->
<g id="edge5_Node000002_Node000006" class="edge">
<title>Node2&#45;&gt;Node6</title>
<g id="a_edge5_Node000002_Node000006"><a xlink:title=" ">
<path fill="none" stroke="#63b8ff" d="M122.34,-109.98C137.21,-101.69 160.06,-88.94 177.5,-79.22"/>
<polygon fill="#63b8ff" stroke="#63b8ff" points="179.51,-82.1 186.54,-74.17 176.1,-75.99 179.51,-82.1"/>
</a>
</g>
</g>
<!-- Node7 -->
<g id="Node000007" class="node">
<title>Node7</title>
<g id="a_Node000007"><a xlink:href="Sensor_8h.html" target="_top" xlink:title=" ">
<polygon fill="white" stroke="#666666" points="329.08,-74 271.08,-74 271.08,-55 329.08,-55 329.08,-74"/>
<text text-anchor="middle" x="300.08" y="-62" font-family="Helvetica,sans-Serif" font-size="10.00">Sensor.h</text>
</a>
</g>
</g>
<!-- Node2&#45;&gt;Node7 -->
<g id="edge6_Node000002_Node000007" class="edge">
<title>Node2&#45;&gt;Node7</title>
<g id="a_edge6_Node000002_Node000007"><a xlink:title=" ">
<path fill="none" stroke="#63b8ff" d="M138.09,-109.98C171.59,-100.78 225.04,-86.11 261.3,-76.15"/>
<polygon fill="#63b8ff" stroke="#63b8ff" points="262.33,-79.5 271.04,-73.47 260.47,-72.75 262.33,-79.5"/>
</a>
</g>
</g>
<!-- Node7&#45;&gt;Node3 -->
<g id="edge7_Node000007_Node000003" class="edge">
<title>Node7&#45;&gt;Node3</title>
<g id="a_edge7_Node000007_Node000003"><a xlink:title=" ">
<path fill="none" stroke="#63b8ff" d="M274.86,-54.98C248.73,-46.16 207.68,-32.31 178.35,-22.41"/>
<polygon fill="#63b8ff" stroke="#63b8ff" points="179.1,-18.96 168.5,-19.08 176.86,-25.6 179.1,-18.96"/>
</a>
</g>
</g>
</g>
</svg>
</svg>

<style type='text/css'>
<![CDATA[
[data-mouse-over-selected='false'] { opacity: 0.7; }
[data-mouse-over-selected='true']  { opacity: 1.0; }
]]>
</style>
<script type="application/ecmascript"><![CDATA[
document.addEventListener('DOMContentLoaded', (event) => {
  highlightEdges();
  highlightAdjacentNodes();
});
]]></script>
</svg>
