<?xml version="1.0" encoding="UTF-8" standalone="no"?>
<!DOCTYPE svg PUBLIC "-//W3C//DTD SVG 1.1//EN"
 "http://www.w3.org/Graphics/SVG/1.1/DTD/svg11.dtd">
<!-- Generated by graphviz version 2.43.0 (0)
 -->
<!-- Title: /home/runner/work/Fall&#45;2024/Fall&#45;2024/ascendfsw/include/SHT31Sensor.h Pages: 1 -->
<svg width="337pt" height="162pt"
 viewBox="0.00 0.00 337.43 162.00" xmlns="http://www.w3.org/2000/svg" xmlns:xlink="http://www.w3.org/1999/xlink">
<g id="graph0" class="graph" transform="scale(1 1) rotate(0) translate(4 158)">
<title>/home/runner/work/Fall&#45;2024/Fall&#45;2024/ascendfsw/include/SHT31Sensor.h</title>
<!-- Node1 -->
<g id="node1" class="node">
<title>Node1</title>
<g id="a_node1"><a xlink:title=" ">
<polygon fill="#bfbfbf" stroke="black" points="34.43,-112.5 34.43,-153.5 180.43,-153.5 180.43,-112.5 34.43,-112.5"/>
<text text-anchor="start" x="42.43" y="-141.5" font-family="Helvetica,sans-Serif" font-size="10.00">/home/runner/work/Fall</text>
<text text-anchor="start" x="42.43" y="-130.5" font-family="Helvetica,sans-Serif" font-size="10.00">&#45;2024/Fall&#45;2024/ascendfsw</text>
<text text-anchor="middle" x="107.43" y="-119.5" font-family="Helvetica,sans-Serif" font-size="10.00">/include/SHT31Sensor.h</text>
</a>
</g>
</g>
<!-- Node2 -->
<g id="node2" class="node">
<title>Node2</title>
<g id="a_node2"><a xlink:title=" ">
<polygon fill="none" stroke="#bfbfbf" points="111.93,-0.5 111.93,-19.5 174.93,-19.5 174.93,-0.5 111.93,-0.5"/>
<text text-anchor="middle" x="143.43" y="-7.5" font-family="Helvetica,sans-Serif" font-size="10.00">Arduino.h</text>
</a>
</g>
</g>
<!-- Node1&#45;&gt;Node2 -->
<g id="edge1" class="edge">
<title>Node1&#45;&gt;Node2</title>
<path fill="none" stroke="midnightblue" d="M46.77,-112.39C15.96,-99.06 -11.69,-79.59 5.43,-56 27.27,-25.91 69.77,-15.56 101.86,-12.18"/>
<polygon fill="midnightblue" stroke="midnightblue" points="102.22,-15.67 111.88,-11.32 101.61,-8.69 102.22,-15.67"/>
</g>
<!-- Node3 -->
<g id="node3" class="node">
<title>Node3</title>
<g id="a_node3"><a xlink:title=" ">
<polygon fill="none" stroke="#bfbfbf" points="14.43,-56.5 14.43,-75.5 62.43,-75.5 62.43,-56.5 14.43,-56.5"/>
<text text-anchor="middle" x="38.43" y="-63.5" font-family="Helvetica,sans-Serif" font-size="10.00">Wire.h</text>
</a>
</g>
</g>
<!-- Node1&#45;&gt;Node3 -->
<g id="edge2" class="edge">
<title>Node1&#45;&gt;Node3</title>
<path fill="none" stroke="midnightblue" d="M86.73,-112.5C76.55,-102.92 64.47,-91.53 54.93,-82.54"/>
<polygon fill="midnightblue" stroke="midnightblue" points="57.29,-79.96 47.61,-75.65 52.49,-85.06 57.29,-79.96"/>
</g>
<!-- Node4 -->
<g id="node4" class="node">
<title>Node4</title>
<g id="a_node4"><a xlink:title=" ">
<polygon fill="none" stroke="#bfbfbf" points="80.93,-56.5 80.93,-75.5 133.93,-75.5 133.93,-56.5 80.93,-56.5"/>
<text text-anchor="middle" x="107.43" y="-63.5" font-family="Helvetica,sans-Serif" font-size="10.00">string.h</text>
</a>
</g>
</g>
<!-- Node1&#45;&gt;Node4 -->
<g id="edge3" class="edge">
<title>Node1&#45;&gt;Node4</title>
<path fill="none" stroke="midnightblue" d="M107.43,-112.5C107.43,-104.07 107.43,-94.24 107.43,-85.87"/>
<polygon fill="midnightblue" stroke="midnightblue" points="110.93,-85.65 107.43,-75.65 103.93,-85.65 110.93,-85.65"/>
</g>
<!-- Node5 -->
<g id="node5" class="node">
<title>Node5</title>
<g id="a_node5"><a xlink:title=" ">
<polygon fill="none" stroke="#bfbfbf" points="151.93,-56.5 151.93,-75.5 252.93,-75.5 252.93,-56.5 151.93,-56.5"/>
<text text-anchor="middle" x="202.43" y="-63.5" font-family="Helvetica,sans-Serif" font-size="10.00">Adafruit_SHT31.h</text>
</a>
</g>
</g>
<!-- Node1&#45;&gt;Node5 -->
<g id="edge4" class="edge">
<title>Node1&#45;&gt;Node5</title>
<path fill="none" stroke="midnightblue" d="M135.93,-112.5C150.5,-102.53 167.92,-90.61 181.27,-81.48"/>
<polygon fill="midnightblue" stroke="midnightblue" points="183.51,-84.19 189.78,-75.65 179.55,-78.41 183.51,-84.19"/>
</g>
<!-- Node6 -->
<g id="node6" class="node">
<title>Node6</title>
<g id="a_node6"><a xlink:href="Sensor_8h.html" target="_top" xlink:title=" ">
<polygon fill="none" stroke="black" points="271.43,-56.5 271.43,-75.5 329.43,-75.5 329.43,-56.5 271.43,-56.5"/>
<text text-anchor="middle" x="300.43" y="-63.5" font-family="Helvetica,sans-Serif" font-size="10.00">Sensor.h</text>
</a>
</g>
</g>
<!-- Node1&#45;&gt;Node6 -->
<g id="edge5" class="edge">
<title>Node1&#45;&gt;Node6</title>
<path fill="none" stroke="midnightblue" d="M165.34,-112.5C197.87,-101.54 237.41,-88.22 265.29,-78.84"/>
<polygon fill="midnightblue" stroke="midnightblue" points="266.63,-82.08 274.99,-75.57 264.4,-75.44 266.63,-82.08"/>
</g>
<!-- Node6&#45;&gt;Node2 -->
<g id="edge6" class="edge">
<title>Node6&#45;&gt;Node2</title>
<path fill="none" stroke="midnightblue" d="M275.55,-56.44C249.14,-47.36 207.21,-32.94 177.69,-22.78"/>
<polygon fill="midnightblue" stroke="midnightblue" points="178.78,-19.46 168.19,-19.52 176.51,-26.08 178.78,-19.46"/>
</g>
</g>
</svg>
