<?xml version="1.0" encoding="UTF-8" standalone="no"?>
<!DOCTYPE svg PUBLIC "-//W3C//DTD SVG 1.1//EN"
 "http://www.w3.org/Graphics/SVG/1.1/DTD/svg11.dtd">
<!-- Generated by graphviz version 2.43.0 (0)
 -->
<!-- Title: Storage.h Pages: 1 -->
<svg width="416pt" height="140pt"
 viewBox="0.00 0.00 415.50 140.00" xmlns="http://www.w3.org/2000/svg" xmlns:xlink="http://www.w3.org/1999/xlink">
<g id="graph0" class="graph" transform="scale(1 1) rotate(0) translate(4 136)">
<title>Storage.h</title>
<!-- Node1 -->
<g id="node1" class="node">
<title>Node1</title>
<g id="a_node1"><a xlink:title=" ">
<polygon fill="#bfbfbf" stroke="black" points="156,-112.5 156,-131.5 219,-131.5 219,-112.5 156,-112.5"/>
<text text-anchor="middle" x="187.5" y="-119.5" font-family="Helvetica,sans-Serif" font-size="10.00">Storage.h</text>
</a>
</g>
</g>
<!-- Node2 -->
<g id="node2" class="node">
<title>Node2</title>
<g id="a_node2"><a xlink:href="FlashStorage_8h.html" target="_top" xlink:title=" ">
<polygon fill="none" stroke="black" points="33,-56.5 33,-75.5 122,-75.5 122,-56.5 33,-56.5"/>
<text text-anchor="middle" x="77.5" y="-63.5" font-family="Helvetica,sans-Serif" font-size="10.00">FlashStorage.h</text>
</a>
</g>
</g>
<!-- Node1&#45;&gt;Node2 -->
<g id="edge1" class="edge">
<title>Node1&#45;&gt;Node2</title>
<path fill="none" stroke="midnightblue" d="M160.74,-107.86C140.34,-97.85 112.83,-84.35 95.13,-75.65"/>
<polygon fill="midnightblue" stroke="midnightblue" points="159.31,-111.06 169.83,-112.32 162.39,-104.78 159.31,-111.06"/>
</g>
<!-- Node4 -->
<g id="node4" class="node">
<title>Node4</title>
<g id="a_node4"><a xlink:href="main_8cpp.html" target="_top" xlink:title=" ">
<polygon fill="none" stroke="black" points="119.5,-0.5 119.5,-19.5 181.5,-19.5 181.5,-0.5 119.5,-0.5"/>
<text text-anchor="middle" x="150.5" y="-7.5" font-family="Helvetica,sans-Serif" font-size="10.00">main.cpp</text>
</a>
</g>
</g>
<!-- Node1&#45;&gt;Node4 -->
<g id="edge10" class="edge">
<title>Node1&#45;&gt;Node4</title>
<path fill="none" stroke="midnightblue" d="M179.91,-103.17C176.54,-94.97 172.63,-85.06 169.5,-76 162.67,-56.22 156.15,-32.52 152.81,-19.92"/>
<polygon fill="midnightblue" stroke="midnightblue" points="176.71,-104.59 183.8,-112.47 183.17,-101.89 176.71,-104.59"/>
</g>
<!-- Node5 -->
<g id="node5" class="node">
<title>Node5</title>
<g id="a_node5"><a xlink:href="RadioStorage_8h.html" target="_top" xlink:title=" ">
<polygon fill="none" stroke="black" points="179,-56.5 179,-75.5 270,-75.5 270,-56.5 179,-56.5"/>
<text text-anchor="middle" x="224.5" y="-63.5" font-family="Helvetica,sans-Serif" font-size="10.00">RadioStorage.h</text>
</a>
</g>
</g>
<!-- Node1&#45;&gt;Node5 -->
<g id="edge4" class="edge">
<title>Node1&#45;&gt;Node5</title>
<path fill="none" stroke="midnightblue" d="M199.45,-103.57C205.81,-94.27 213.37,-83.25 218.5,-75.75"/>
<polygon fill="midnightblue" stroke="midnightblue" points="196.37,-101.86 193.61,-112.08 202.15,-105.81 196.37,-101.86"/>
</g>
<!-- Node7 -->
<g id="node7" class="node">
<title>Node7</title>
<g id="a_node7"><a xlink:href="SDStorage_8h.html" target="_top" xlink:title=" ">
<polygon fill="none" stroke="black" points="288,-56.5 288,-75.5 365,-75.5 365,-56.5 288,-56.5"/>
<text text-anchor="middle" x="326.5" y="-63.5" font-family="Helvetica,sans-Serif" font-size="10.00">SDStorage.h</text>
</a>
</g>
</g>
<!-- Node1&#45;&gt;Node7 -->
<g id="edge7" class="edge">
<title>Node1&#45;&gt;Node7</title>
<path fill="none" stroke="midnightblue" d="M218.98,-108.77C245.09,-98.63 281.54,-84.47 304.58,-75.52"/>
<polygon fill="midnightblue" stroke="midnightblue" points="217.58,-105.56 209.52,-112.44 220.11,-112.08 217.58,-105.56"/>
</g>
<!-- Node3 -->
<g id="node3" class="node">
<title>Node3</title>
<g id="a_node3"><a xlink:href="FlashStorage_8cpp.html" target="_top" xlink:title=" ">
<polygon fill="none" stroke="black" points="0,-0.5 0,-19.5 101,-19.5 101,-0.5 0,-0.5"/>
<text text-anchor="middle" x="50.5" y="-7.5" font-family="Helvetica,sans-Serif" font-size="10.00">FlashStorage.cpp</text>
</a>
</g>
</g>
<!-- Node2&#45;&gt;Node3 -->
<g id="edge2" class="edge">
<title>Node2&#45;&gt;Node3</title>
<path fill="none" stroke="midnightblue" d="M68.49,-46.98C63.91,-37.82 58.55,-27.09 54.88,-19.75"/>
<polygon fill="midnightblue" stroke="midnightblue" points="65.44,-48.7 73.04,-56.08 71.7,-45.57 65.44,-48.7"/>
</g>
<!-- Node2&#45;&gt;Node4 -->
<g id="edge3" class="edge">
<title>Node2&#45;&gt;Node4</title>
<path fill="none" stroke="midnightblue" d="M97.64,-50.1C110.78,-40.38 127.48,-28.03 138.56,-19.83"/>
<polygon fill="midnightblue" stroke="midnightblue" points="95.19,-47.56 89.23,-56.32 99.35,-53.19 95.19,-47.56"/>
</g>
<!-- Node5&#45;&gt;Node4 -->
<g id="edge5" class="edge">
<title>Node5&#45;&gt;Node4</title>
<path fill="none" stroke="midnightblue" d="M204.47,-50.38C191.09,-40.62 173.94,-28.11 162.61,-19.83"/>
<polygon fill="midnightblue" stroke="midnightblue" points="202.47,-53.26 212.61,-56.32 206.6,-47.6 202.47,-53.26"/>
</g>
<!-- Node6 -->
<g id="node6" class="node">
<title>Node6</title>
<g id="a_node6"><a xlink:href="RadioStorage_8cpp.html" target="_top" xlink:title=" ">
<polygon fill="none" stroke="black" points="199.5,-0.5 199.5,-19.5 301.5,-19.5 301.5,-0.5 199.5,-0.5"/>
<text text-anchor="middle" x="250.5" y="-7.5" font-family="Helvetica,sans-Serif" font-size="10.00">RadioStorage.cpp</text>
</a>
</g>
</g>
<!-- Node5&#45;&gt;Node6 -->
<g id="edge6" class="edge">
<title>Node5&#45;&gt;Node6</title>
<path fill="none" stroke="midnightblue" d="M233.17,-46.98C237.59,-37.82 242.75,-27.09 246.29,-19.75"/>
<polygon fill="midnightblue" stroke="midnightblue" points="229.98,-45.55 228.79,-56.08 236.29,-48.59 229.98,-45.55"/>
</g>
<!-- Node7&#45;&gt;Node4 -->
<g id="edge8" class="edge">
<title>Node7&#45;&gt;Node4</title>
<path fill="none" stroke="midnightblue" d="M288.81,-53.44C255.63,-43.26 208.07,-28.66 178.26,-19.52"/>
<polygon fill="midnightblue" stroke="midnightblue" points="288.03,-56.86 298.61,-56.44 290.08,-50.16 288.03,-56.86"/>
</g>
<!-- Node8 -->
<g id="node8" class="node">
<title>Node8</title>
<g id="a_node8"><a xlink:href="SDStorage_8cpp.html" target="_top" xlink:title=" ">
<polygon fill="none" stroke="black" points="319.5,-0.5 319.5,-19.5 407.5,-19.5 407.5,-0.5 319.5,-0.5"/>
<text text-anchor="middle" x="363.5" y="-7.5" font-family="Helvetica,sans-Serif" font-size="10.00">SDStorage.cpp</text>
</a>
</g>
</g>
<!-- Node7&#45;&gt;Node8 -->
<g id="edge9" class="edge">
<title>Node7&#45;&gt;Node8</title>
<path fill="none" stroke="midnightblue" d="M338.45,-47.57C344.81,-38.27 352.37,-27.25 357.5,-19.75"/>
<polygon fill="midnightblue" stroke="midnightblue" points="335.37,-45.86 332.61,-56.08 341.15,-49.81 335.37,-45.86"/>
</g>
</g>
</svg>
