<?xml version="1.0" encoding="UTF-8" standalone="no"?>
<!DOCTYPE svg PUBLIC "-//W3C//DTD SVG 1.1//EN"
 "http://www.w3.org/Graphics/SVG/1.1/DTD/svg11.dtd">
<!-- Generated by graphviz version 2.43.0 (0)
 -->
<!-- Title: /home/runner/work/Fall&#45;2024/Fall&#45;2024/ascendfsw/src/TempSensor.cpp Pages: 1 -->
<svg width="154pt" height="218pt"
 viewBox="0.00 0.00 154.00 218.00" xmlns="http://www.w3.org/2000/svg" xmlns:xlink="http://www.w3.org/1999/xlink">
<g id="graph0" class="graph" transform="scale(1 1) rotate(0) translate(4 214)">
<title>/home/runner/work/Fall&#45;2024/Fall&#45;2024/ascendfsw/src/TempSensor.cpp</title>
<!-- Node1 -->
<g id="node1" class="node">
<title>Node1</title>
<g id="a_node1"><a xlink:title=" ">
<polygon fill="#bfbfbf" stroke="black" points="0,-168.5 0,-209.5 146,-209.5 146,-168.5 0,-168.5"/>
<text text-anchor="start" x="8" y="-197.5" font-family="Helvetica,sans-Serif" font-size="10.00">/home/runner/work/Fall</text>
<text text-anchor="start" x="8" y="-186.5" font-family="Helvetica,sans-Serif" font-size="10.00">&#45;2024/Fall&#45;2024/ascendfsw</text>
<text text-anchor="middle" x="73" y="-175.5" font-family="Helvetica,sans-Serif" font-size="10.00">/src/TempSensor.cpp</text>
</a>
</g>
</g>
<!-- Node2 -->
<g id="node2" class="node">
<title>Node2</title>
<g id="a_node2"><a xlink:href="TempSensor_8h.html" target="_top" xlink:title=" ">
<polygon fill="none" stroke="black" points="31,-112.5 31,-131.5 115,-131.5 115,-112.5 31,-112.5"/>
<text text-anchor="middle" x="73" y="-119.5" font-family="Helvetica,sans-Serif" font-size="10.00">TempSensor.h</text>
</a>
</g>
</g>
<!-- Node1&#45;&gt;Node2 -->
<g id="edge1" class="edge">
<title>Node1&#45;&gt;Node2</title>
<path fill="none" stroke="midnightblue" d="M73,-168.5C73,-160.07 73,-150.24 73,-141.87"/>
<polygon fill="midnightblue" stroke="midnightblue" points="76.5,-141.65 73,-131.65 69.5,-141.65 76.5,-141.65"/>
</g>
<!-- Node3 -->
<g id="node3" class="node">
<title>Node3</title>
<g id="a_node3"><a xlink:href="Sensor_8h.html" target="_top" xlink:title=" ">
<polygon fill="none" stroke="black" points="44,-56.5 44,-75.5 102,-75.5 102,-56.5 44,-56.5"/>
<text text-anchor="middle" x="73" y="-63.5" font-family="Helvetica,sans-Serif" font-size="10.00">Sensor.h</text>
</a>
</g>
</g>
<!-- Node2&#45;&gt;Node3 -->
<g id="edge2" class="edge">
<title>Node2&#45;&gt;Node3</title>
<path fill="none" stroke="midnightblue" d="M73,-112.08C73,-105.01 73,-94.86 73,-85.99"/>
<polygon fill="midnightblue" stroke="midnightblue" points="76.5,-85.75 73,-75.75 69.5,-85.75 76.5,-85.75"/>
</g>
<!-- Node4 -->
<g id="node4" class="node">
<title>Node4</title>
<g id="a_node4"><a xlink:title=" ">
<polygon fill="none" stroke="#bfbfbf" points="41.5,-0.5 41.5,-19.5 104.5,-19.5 104.5,-0.5 41.5,-0.5"/>
<text text-anchor="middle" x="73" y="-7.5" font-family="Helvetica,sans-Serif" font-size="10.00">Arduino.h</text>
</a>
</g>
</g>
<!-- Node3&#45;&gt;Node4 -->
<g id="edge3" class="edge">
<title>Node3&#45;&gt;Node4</title>
<path fill="none" stroke="midnightblue" d="M73,-56.08C73,-49.01 73,-38.86 73,-29.99"/>
<polygon fill="midnightblue" stroke="midnightblue" points="76.5,-29.75 73,-19.75 69.5,-29.75 76.5,-29.75"/>
</g>
</g>
</svg>
