<?xml version="1.0" encoding="UTF-8" standalone="no"?>
<!DOCTYPE svg PUBLIC "-//W3C//DTD SVG 1.1//EN"
 "http://www.w3.org/Graphics/SVG/1.1/DTD/svg11.dtd">
<!-- Generated by graphviz version 2.43.0 (0)
 -->
<!-- Title: /home/runner/work/Fall&#45;2024/Fall&#45;2024/ascendfsw/include/ZOPT220x_Control.h Pages: 1 -->
<svg width="166pt" height="206pt"
 viewBox="0.00 0.00 166.00 206.00" xmlns="http://www.w3.org/2000/svg" xmlns:xlink="http://www.w3.org/1999/xlink">
<g id="graph0" class="graph" transform="scale(1 1) rotate(0) translate(4 202)">
<title>/home/runner/work/Fall&#45;2024/Fall&#45;2024/ascendfsw/include/ZOPT220x_Control.h</title>
<!-- Node1 -->
<g id="node1" class="node">
<title>Node1</title>
<g id="a_node1"><a xlink:title=" ">
<polygon fill="#bfbfbf" stroke="black" points="0,-156.5 0,-197.5 158,-197.5 158,-156.5 0,-156.5"/>
<text text-anchor="start" x="8" y="-185.5" font-family="Helvetica,sans-Serif" font-size="10.00">/home/runner/work/Fall</text>
<text text-anchor="start" x="8" y="-174.5" font-family="Helvetica,sans-Serif" font-size="10.00">&#45;2024/Fall&#45;2024/ascendfsw</text>
<text text-anchor="middle" x="79" y="-163.5" font-family="Helvetica,sans-Serif" font-size="10.00">/include/ZOPT220x_Control.h</text>
</a>
</g>
</g>
<!-- Node2 -->
<g id="node2" class="node">
<title>Node2</title>
<g id="a_node2"><a xlink:href="ZOPT220Sensor_8h.html" target="_top" xlink:title=" ">
<polygon fill="none" stroke="black" points="6,-78.5 6,-119.5 152,-119.5 152,-78.5 6,-78.5"/>
<text text-anchor="start" x="14" y="-107.5" font-family="Helvetica,sans-Serif" font-size="10.00">/home/runner/work/Fall</text>
<text text-anchor="start" x="14" y="-96.5" font-family="Helvetica,sans-Serif" font-size="10.00">&#45;2024/Fall&#45;2024/ascendfsw</text>
<text text-anchor="middle" x="79" y="-85.5" font-family="Helvetica,sans-Serif" font-size="10.00">/include/ZOPT220Sensor.h</text>
</a>
</g>
</g>
<!-- Node1&#45;&gt;Node2 -->
<g id="edge1" class="edge">
<title>Node1&#45;&gt;Node2</title>
<path fill="none" stroke="midnightblue" d="M79,-146.3C79,-137.3 79,-127.65 79,-119.51"/>
<polygon fill="midnightblue" stroke="midnightblue" points="75.5,-146.43 79,-156.43 82.5,-146.43 75.5,-146.43"/>
</g>
<!-- Node3 -->
<g id="node3" class="node">
<title>Node3</title>
<g id="a_node3"><a xlink:href="ZOPT220Sensor_8cpp.html" target="_top" xlink:title=" ">
<polygon fill="none" stroke="black" points="6,-0.5 6,-41.5 152,-41.5 152,-0.5 6,-0.5"/>
<text text-anchor="start" x="14" y="-29.5" font-family="Helvetica,sans-Serif" font-size="10.00">/home/runner/work/Fall</text>
<text text-anchor="start" x="14" y="-18.5" font-family="Helvetica,sans-Serif" font-size="10.00">&#45;2024/Fall&#45;2024/ascendfsw</text>
<text text-anchor="middle" x="79" y="-7.5" font-family="Helvetica,sans-Serif" font-size="10.00">/src/ZOPT220Sensor.cpp</text>
</a>
</g>
</g>
<!-- Node2&#45;&gt;Node3 -->
<g id="edge2" class="edge">
<title>Node2&#45;&gt;Node3</title>
<path fill="none" stroke="midnightblue" d="M79,-68.3C79,-59.3 79,-49.65 79,-41.51"/>
<polygon fill="midnightblue" stroke="midnightblue" points="75.5,-68.43 79,-78.43 82.5,-68.43 75.5,-68.43"/>
</g>
</g>
</svg>
